<svg width="116" height="26" viewBox="0 0 116 26" fill="none" xmlns="http://www.w3.org/2000/svg">
<path opacity="0.886277" d="M14.817 26H22.0563V0H14.817V26Z" fill="#91A5BA"/>
<path opacity="0.898345" d="M4.42322 26H11.662V0H4.42322V26Z" fill="#91A5BA"/>
<path opacity="0.881278" d="M0.239746 11.1436H26.2397V3.9043H0.239746V11.1436Z" fill="#91A5BA"/>
<path opacity="0.855632" d="M0.239746 21.7236H26.2397V14.4849H0.239746V21.7236Z" fill="#91A5BA"/>
<path d="M36.2397 3.8999H41.2378V10.689H47.6529V3.8999H52.6509V22.0386H47.6529V15.1459H41.2378V22.0386H36.2397V3.8999Z" fill="#91A5BA"/>
<path fill-rule="evenodd" clip-rule="evenodd" d="M68.9598 3.8999H64.1323L56.4392 22.0999H61.7056L62.9964 18.873H69.9666L71.2832 22.0999H76.6528L68.9598 3.8999ZM66.5073 9.83749L68.521 14.9748H64.4679L66.5073 9.83749Z" fill="#91A5BA"/>
<path d="M87.544 22.0386C85.9199 22.0386 84.3778 21.7964 82.9178 21.312C81.4578 20.8277 80.1663 20.1011 79.0432 19.1324L81.8423 15.9005C83.6565 17.3035 85.6175 18.005 87.7254 18.005C88.3993 18.005 88.9133 17.9006 89.2675 17.6918C89.6217 17.483 89.7988 17.1866 89.7988 16.8024V16.7523C89.7988 16.5686 89.7556 16.4057 89.6692 16.2638C89.5828 16.1218 89.423 15.984 89.1897 15.8504C88.9565 15.7168 88.6455 15.5873 88.2567 15.4621C87.868 15.3368 87.3626 15.2074 86.7406 15.0737C85.773 14.8566 84.8745 14.6186 84.0452 14.3597C83.2159 14.1008 82.4945 13.7668 81.8811 13.3576C81.2678 12.9484 80.784 12.439 80.4298 11.8293C80.0756 11.2197 79.8985 10.4639 79.8985 9.56198V9.51187C79.8985 8.69346 80.0583 7.94186 80.3779 7.25706C80.6976 6.57227 81.1641 5.97934 81.7775 5.47827C82.3908 4.9772 83.1295 4.58887 83.9934 4.31328C84.8573 4.03769 85.8335 3.8999 86.922 3.8999C88.477 3.8999 89.8636 4.09615 91.0817 4.48866C92.2998 4.88116 93.4012 5.46156 94.3861 6.22987L91.8721 9.6622C91.0428 9.09431 90.1919 8.66423 89.3193 8.37194C88.4468 8.07965 87.6045 7.93351 86.7924 7.93351C86.1877 7.93351 85.7341 8.04207 85.4318 8.2592C85.1294 8.47633 84.9782 8.74357 84.9782 9.06091V9.11102C84.9782 9.31145 85.0257 9.48682 85.1208 9.63714C85.2158 9.78746 85.3799 9.92525 85.6132 10.0505C85.8464 10.1758 86.1661 10.3011 86.5721 10.4263C86.9781 10.5516 87.4922 10.681 88.1142 10.8147C89.1509 11.0318 90.0882 11.2865 90.9262 11.5788C91.7642 11.8711 92.4769 12.226 93.0643 12.6436C93.6518 13.0611 94.101 13.5664 94.412 14.1593C94.723 14.7522 94.8785 15.4579 94.8785 16.2763V16.3264C94.8785 17.2283 94.7014 18.03 94.3472 18.7315C93.993 19.433 93.4963 20.0301 92.857 20.5229C92.2177 21.0156 91.4488 21.3914 90.5504 21.6503C89.6519 21.9092 88.6498 22.0386 87.544 22.0386Z" fill="#91A5BA"/>
<path d="M99.2932 3.8999H104.291V10.689H110.706V3.8999H115.704V22.0386H110.706V15.1459H104.291V22.0386H99.2932V3.8999Z" fill="#91A5BA"/>
</svg>
