<svg width="115" height="26" viewBox="0 0 115 26" fill="none" xmlns="http://www.w3.org/2000/svg">
<path d="M85.5708 7.19328C84.1408 7.19328 82.7686 7.78551 81.7719 8.82551V3.32217C81.7719 3.14884 81.6275 3.00439 81.4541 3.00439H79.5186C79.3453 3.00439 79.2008 3.14884 79.2008 3.32217V18.2C79.2008 18.3733 79.3453 18.5177 79.5186 18.5177H81.4541C81.6275 18.5177 81.7719 18.3733 81.7719 18.2V17.1744C82.7686 18.2144 84.1264 18.8066 85.5708 18.8066C88.5897 18.8066 91.0308 16.2066 91.0308 13C91.0308 9.79328 88.5897 7.19328 85.5708 7.19328ZM85.123 16.4811C83.2886 16.4811 81.8008 14.95 81.7864 13.0433V12.9566C81.8153 11.0499 83.2886 9.51884 85.123 9.51884C86.9719 9.51884 88.4597 11.0788 88.4597 13C88.4597 14.9211 86.9575 16.4811 85.123 16.4811Z" fill="#91A5BA"/>
<path d="M98.1519 7.19336C94.8875 7.19336 92.2441 9.79336 92.2441 13C92.2441 16.2067 94.8875 18.8067 98.1519 18.8067C101.416 18.8067 104.06 16.2067 104.06 13C104.06 9.79336 101.416 7.19336 98.1519 7.19336ZM98.1375 16.4811C96.2886 16.4811 94.8008 14.9211 94.8008 13C94.8008 11.0789 96.303 9.51892 98.1375 9.51892C99.9719 9.51892 101.474 11.0789 101.474 13C101.474 14.9211 99.9719 16.4811 98.1375 16.4811Z" fill="#91A5BA"/>
<path d="M62.0264 7.48225H60.0908C59.9175 7.48225 59.773 7.62669 59.773 7.80003V8.82558C58.7764 7.78558 57.4186 7.19336 55.9742 7.19336C52.9553 7.19336 50.5142 9.79336 50.5142 13C50.5142 16.2067 52.9553 18.8067 55.9742 18.8067C57.4042 18.8067 58.7764 18.2145 59.773 17.1745V18.2C59.773 18.3734 59.9175 18.5178 60.0908 18.5178H62.0264C62.1997 18.5178 62.3442 18.3734 62.3442 18.2V7.80003C62.3442 7.62669 62.1997 7.48225 62.0264 7.48225ZM56.4219 16.4811C54.573 16.4811 53.0853 14.9211 53.0853 13C53.0853 11.0789 54.5875 9.51892 56.4219 9.51892C58.2564 9.51892 59.7442 11.05 59.7586 12.9567V13.0434C59.7442 14.95 58.2564 16.4811 56.4219 16.4811Z" fill="#91A5BA"/>
<path d="M71.6897 7.19336C70.2597 7.19336 68.8875 7.78558 67.8908 8.82558V7.80003C67.8908 7.62669 67.7464 7.48225 67.573 7.48225H65.6375C65.4641 7.48225 65.3197 7.62669 65.3197 7.80003V22.6778C65.3197 22.8511 65.4641 22.9956 65.6375 22.9956H67.573C67.7464 22.9956 67.8908 22.8511 67.8908 22.6778V17.1745C68.8875 18.2145 70.2453 18.8067 71.6897 18.8067C74.7086 18.8067 77.1497 16.2067 77.1497 13C77.1497 9.79336 74.7086 7.19336 71.6897 7.19336ZM71.2419 16.4811C69.4075 16.4811 67.9197 14.95 67.9053 13.0434V12.9567C67.9341 11.05 69.4075 9.51892 71.2419 9.51892C73.0908 9.51892 74.5786 11.0789 74.5786 13C74.5786 14.9211 73.0908 16.4811 71.2419 16.4811Z" fill="#91A5BA"/>
<path d="M44.722 7.19305C43.2775 7.2075 41.9631 8.04528 41.342 9.35972C40.6342 8.01639 39.2186 7.17861 37.702 7.19305C36.5175 7.19305 35.4053 7.77083 34.712 8.72417V7.79972C34.712 7.62639 34.5675 7.48194 34.3942 7.48194H32.4586C32.2853 7.48194 32.1409 7.62639 32.1409 7.79972V18.1997C32.1409 18.3731 32.2853 18.5175 32.4586 18.5175H34.3942C34.5675 18.5175 34.712 18.3731 34.712 18.1997V11.9742C34.7842 10.5875 35.752 9.47528 36.9364 9.47528C38.1642 9.47528 39.1898 10.5008 39.1898 11.8442V18.1997C39.1898 18.3731 39.3342 18.5175 39.5075 18.5175H41.4575C41.6309 18.5175 41.7753 18.3731 41.7753 18.1997L41.7609 11.7286C41.9342 10.4575 42.8442 9.47528 43.9564 9.47528C45.1842 9.47528 46.2098 10.5008 46.2098 11.8442V18.1997C46.2098 18.3731 46.3542 18.5175 46.5275 18.5175H48.4775C48.6509 18.5175 48.7953 18.3731 48.7953 18.1997L48.7809 11.0497C48.7809 8.91194 46.9609 7.19305 44.722 7.19305Z" fill="#91A5BA"/>
<path d="M114.474 18.07L111.123 12.9711L114.445 7.91555C114.532 7.78555 114.489 7.59777 114.359 7.51111C114.315 7.48222 114.258 7.46777 114.2 7.46777H111.961C111.788 7.46777 111.629 7.55444 111.542 7.69888L109.592 10.9778L107.642 7.71333C107.555 7.56888 107.396 7.48222 107.223 7.48222H104.984C104.825 7.48222 104.695 7.61222 104.695 7.77111C104.695 7.82888 104.71 7.88666 104.739 7.93L108.061 12.9856L104.71 18.0844C104.623 18.2144 104.666 18.4022 104.796 18.4889C104.84 18.5178 104.898 18.5322 104.955 18.5322H107.194C107.368 18.5322 107.526 18.4456 107.613 18.3011L109.606 14.9789L111.6 18.3011C111.686 18.4456 111.845 18.5322 112.019 18.5322H114.229C114.388 18.5322 114.518 18.4022 114.518 18.2433C114.518 18.1856 114.503 18.1278 114.474 18.07Z" fill="#91A5BA"/>
<path d="M13.2475 0.158691C6.15526 0.158691 0.406372 5.90758 0.406372 12.9998C0.406372 20.092 6.15526 25.8409 13.2475 25.8409C20.3397 25.8409 26.0886 20.092 26.0886 12.9998C26.0886 5.90758 20.3397 0.158691 13.2475 0.158691ZM19.343 16.1487C14.9519 20.5398 7.10859 19.1387 7.10859 19.1387C7.10859 19.1387 5.69304 11.3098 10.0986 6.90425C12.5397 4.46314 16.5841 4.56425 19.1408 7.10647C21.6975 9.64869 21.7841 13.7076 19.343 16.1487Z" fill="#91A5BA"/>
<path d="M14.7208 7.68408L13.4641 10.2696L10.8785 11.5263L13.4641 12.783L14.7208 15.3685L15.9774 12.783L18.563 11.5263L15.9774 10.2696L14.7208 7.68408Z" fill="#91A5BA"/>
</svg>
