<svg width="105" height="26" viewBox="0 0 105 26" fill="none" xmlns="http://www.w3.org/2000/svg">
<path d="M61.8688 10.1168V10.1255C61.8166 10.1255 61.764 10.1342 61.7118 10.1342C61.6595 10.1342 61.607 10.1255 61.5547 10.1255C58.4405 10.1255 56.5126 12.0891 56.5126 15.241V16.7906C56.5126 19.828 58.4668 21.7124 61.5983 21.7124C61.6624 21.7141 61.7266 21.7112 61.7903 21.7037C61.8339 21.7037 61.8688 21.7124 61.9124 21.7124C64.0146 21.7124 65.4804 20.9378 66.4136 19.3351L64.5555 18.2519C63.9361 19.1763 63.1074 19.872 61.921 19.872C60.3335 19.872 59.3826 18.8859 59.3826 17.2218V16.7816H66.7452V14.9503C66.7452 12.0096 64.835 10.1165 61.8688 10.1165V10.1168ZM61.7118 11.9219C63.1599 11.9924 64.0322 12.9608 64.0322 14.5544V14.9946H59.374V14.7391C59.374 12.9782 60.2027 11.9921 61.7118 11.9216V11.9219ZM50.2754 10.1255C48.8885 10.1255 47.6935 10.7067 47.0654 11.6751L46.9083 11.9216V10.3894H44.2738V25.2605H47.0391V20.0661L47.1961 20.3038C47.7893 21.193 48.9497 21.7211 50.3017 21.7211H50.3716H50.4325C52.7093 21.7211 55.0035 20.2243 55.0035 16.8699V14.9858C55.0035 12.5733 53.5903 10.1346 50.4148 10.1346L50.3975 10.1258H50.3366L50.2754 10.1255ZM49.63 12.2211C51.2352 12.2476 52.2296 13.3479 52.2296 15.1091V16.7289C52.2296 18.4897 51.2262 19.5816 49.6037 19.6168C48.0947 19.5903 47.0391 18.4282 47.0391 16.7728V15.1087C47.0391 13.4359 48.1033 12.256 49.63 12.2208V12.2211ZM85.466 6.45415L80.1447 21.4572H83.1369L84.1575 18.2435H89.9672V18.2788L90.9879 21.4659H93.98L88.6501 6.46289H88.336L88.3274 6.45415H85.466ZM87.0539 9.0339L89.2782 16.1217H84.8116L87.0539 9.0339ZM104.684 8.56718V6.45415H95.5589V8.56718H98.7603V19.3264H95.5589V21.4394H104.684V19.3264H101.482V8.56718H104.684ZM74.6575 10.1258H74.5789H74.5354C72.9914 10.1258 71.8922 10.654 71.3512 11.6667L71.1856 11.9749V10.3901H68.5511V21.4485H71.3163V14.8626C71.3163 13.313 72.145 12.4239 73.5756 12.3973C74.9452 12.4239 75.7304 13.2955 75.7304 14.8011V21.4485H78.4956V14.3254C78.4956 11.6929 77.0651 10.1255 74.6661 10.1255L74.6575 10.1258ZM35.3842 6.14592C31.3102 6.14592 28.7718 8.70819 28.7718 12.8375V15.0651C28.7718 19.1944 31.3015 21.7564 35.3842 21.7564H35.4454H35.5063C39.5803 21.7564 42.1187 19.1944 42.1187 15.0651V12.8375C42.1187 8.70819 39.5803 6.14592 35.5063 6.14592H35.4454H35.3842ZM35.4454 8.38249C37.8707 8.40901 39.2663 9.97608 39.2663 12.6878V15.2236C39.2663 17.9353 37.8707 19.5027 35.4454 19.5289C33.0202 19.5023 31.6242 17.9353 31.6242 15.2236V12.6878C31.6242 9.97608 33.0202 8.4087 35.4454 8.38249ZM11.3598 0.000562726C8.54202 0.000562726 6.03857 1.83188 5.16596 4.53486C4.27046 4.72117 3.42454 5.09784 2.6845 5.6398C1.94446 6.18176 1.32728 6.87659 0.874014 7.67804C-0.539222 10.1433 -0.216514 13.2425 1.67676 15.3555C1.09224 17.1254 1.29285 19.0621 2.22636 20.6648C3.63094 23.1388 6.4571 24.4066 9.22267 23.8167C9.82819 24.5064 10.5724 25.0579 11.4058 25.4345C12.2392 25.811 13.1425 26.0039 14.0556 26.0002C16.8734 26.0002 19.3768 24.1689 20.2494 21.4659C22.0639 21.0872 23.6255 19.9425 24.5327 18.3228C25.9546 15.8575 25.6319 12.7583 23.7389 10.6453V10.6365C24.0277 9.76171 24.128 8.83474 24.0332 7.91763C23.9385 7.00052 23.6508 6.1144 23.1893 5.31855C21.7845 2.8533 18.958 1.5851 16.2014 2.17505C15.5931 1.48711 14.8468 0.937493 14.0122 0.562613C13.1775 0.187734 12.2734 -0.00384741 11.3598 0.000562726ZM11.3598 1.69117L11.3512 1.69991C12.4853 1.69991 13.5758 2.09612 14.4481 2.82709C14.4132 2.84456 14.3433 2.88855 14.2911 2.91507L9.16178 5.89977C8.89997 6.04951 8.74294 6.33123 8.74294 6.63947V13.6478L6.53592 12.3624V6.56896C6.53543 5.27668 7.04321 4.03704 7.94771 3.12238C8.85221 2.20772 10.0795 1.69285 11.3598 1.69086V1.69117ZM17.5389 3.73151C18.3889 3.72987 19.2243 3.95473 19.9606 4.38339C20.6969 4.81205 21.308 5.4293 21.7322 6.17275C22.2905 7.15891 22.4997 8.31229 22.3078 9.43043C22.2728 9.40391 22.2033 9.36897 22.1594 9.34245L17.0301 6.3487C16.901 6.27505 16.7553 6.23634 16.6071 6.23634C16.4588 6.23634 16.3131 6.27505 16.1841 6.3487L10.1735 9.85285V7.28183L15.1371 4.38511C15.8669 3.95807 16.6953 3.73253 17.5389 3.7312V3.73151ZM4.85222 6.39269V12.5471C4.85222 12.8553 5.00924 13.1283 5.27106 13.2868L11.2727 16.7822L9.05668 18.0763L4.10171 15.1883C2.99438 14.5406 2.18693 13.4759 1.8566 12.2279C1.52627 10.98 1.70005 9.65071 2.3398 8.53193C2.90415 7.54462 3.79297 6.78771 4.85222 6.39238V6.39269ZM16.3497 7.91577L21.3134 10.8038C23.6252 12.1509 24.41 15.1268 23.0753 17.4601L23.0839 17.4689C22.517 18.455 21.6271 19.2122 20.5715 19.5997V13.445C20.5715 13.1367 20.4145 12.855 20.1527 12.7056L14.1424 9.20112L16.3497 7.91577ZM12.7032 10.0378L15.2333 11.5169V14.4664L12.7032 15.9455L10.1735 14.4664V11.5169L12.7032 10.0378ZM16.6811 12.3624L18.8881 13.6478V19.4325C18.8881 22.1267 16.7247 24.3102 14.0642 24.3102V24.3015C12.9388 24.3015 11.8396 23.9053 10.9759 23.1746C11.0109 23.1572 11.0894 23.1129 11.133 23.0864L16.2623 20.1017C16.5241 19.9519 16.6898 19.6702 16.6808 19.362L16.6811 12.3624ZM15.2416 16.1483V18.719L10.278 21.6069C7.96616 22.9453 5.01759 22.1529 3.68287 19.8284H3.69152C3.12462 18.8509 2.9237 17.6888 3.11565 16.5707C3.15058 16.5972 3.22044 16.6321 3.26403 16.6587L8.39334 19.6524C8.52238 19.7261 8.66811 19.7648 8.81635 19.7648C8.9646 19.7648 9.11033 19.7261 9.23937 19.6524L15.2416 16.1483Z" fill="#91A5BA"/>
</svg>
