<svg width="79" height="79" viewBox="0 0 79 79" fill="none" xmlns="http://www.w3.org/2000/svg">
<path d="M39.4674 55.7647C18.4531 55.7647 2 48.597 2 39.4745C2 30.352 18.4531 23.1843 39.4674 23.1843C60.4817 23.1843 76.9348 30.352 76.9348 39.4745C76.9348 48.597 60.4817 55.7647 39.4674 55.7647ZM39.4674 26.4424C18.9418 26.4424 5.25803 33.1213 5.25803 39.4745C5.25803 45.8277 18.9418 52.5066 39.4674 52.5066C59.993 52.5066 73.6767 45.8277 73.6767 39.4745C73.6767 33.1213 59.993 26.4424 39.4674 26.4424Z" fill="#A377FF"/>
<path d="M24.9684 73.0323C23.3394 73.0323 22.0362 72.7065 20.733 71.892C12.7508 67.3307 14.8685 49.5744 25.2942 31.3294C30.1813 22.8585 36.2086 15.6909 42.0731 11.1296C48.4262 6.24258 54.1278 4.77646 58.0374 7.05709C62.11 9.33771 63.5761 15.0393 62.5987 23.0215C61.6213 30.5149 58.3632 39.3116 53.4762 47.7825C48.5891 56.2534 42.5618 63.4211 36.6973 67.9823C32.4619 71.2403 28.3893 73.0323 24.9684 73.0323ZM53.9649 9.17481C51.3585 9.17481 47.9375 10.6409 44.1908 13.5732C38.6521 17.9715 32.9506 24.8134 28.2264 32.9585C17.9636 50.7147 16.9862 66.0275 22.362 69.1226C25.1313 70.7516 29.6926 69.2855 34.7425 65.3759C40.2812 60.9775 45.9827 54.1357 50.7069 45.9906C55.431 37.8455 58.5261 29.5375 59.5036 22.5327C60.3181 16.0167 59.3407 11.4554 56.5713 9.82642C55.7568 9.50061 54.9423 9.17481 53.9649 9.17481Z" fill="#A377FF"/>
<path d="M54.1283 73.0322C45.9833 73.0322 34.2543 63.0952 25.4577 47.6196C14.8691 29.3746 12.7513 11.6183 20.7335 7.05707C28.7157 2.49582 43.051 13.0844 53.6396 31.3294C58.5267 39.8003 61.7847 48.597 62.7621 56.0905C63.9024 64.0726 62.2734 69.6113 58.2009 72.0548C56.8977 72.7064 55.5945 73.0322 54.1283 73.0322ZM22.3625 9.82639C16.9868 12.9215 17.9642 28.2343 28.227 45.9906C38.4898 63.7468 51.1961 72.2177 56.5719 69.1226C59.3412 67.4936 60.3186 62.9323 59.5041 56.4163C58.5267 49.4115 55.4316 41.1035 50.7074 32.9584C40.4446 15.2021 27.7383 6.73126 22.3625 9.82639Z" fill="#A377FF"/>
<path d="M39.4668 45.9906C43.0655 45.9906 45.9828 43.0732 45.9828 39.4745C45.9828 35.8758 43.0655 32.9584 39.4668 32.9584C35.868 32.9584 32.9507 35.8758 32.9507 39.4745C32.9507 43.0732 35.868 45.9906 39.4668 45.9906Z" fill="#A377FF"/>
</svg>
