<svg width="20" height="20" viewBox="0 0 20 20" fill="none" xmlns="http://www.w3.org/2000/svg">
<path d="M2.8125 1.875C3.32031 1.875 3.75 2.30469 3.75 2.8125V4.6875C3.75 5.23438 3.32031 5.625 2.8125 5.625V9.0625H5C5 8.55469 5.39062 8.125 5.9375 8.125H7.8125C8.32031 8.125 8.75 8.55469 8.75 9.0625V10.9375C8.75 11.4844 8.32031 11.875 7.8125 11.875H5.9375C5.39062 11.875 5 11.4844 5 10.9375H2.8125V15C2.8125 15.1953 2.92969 15.3125 3.125 15.3125H5C5 14.8047 5.39062 14.375 5.9375 14.375H7.8125C8.32031 14.375 8.75 14.8047 8.75 15.3125V17.1875C8.75 17.7344 8.32031 18.125 7.8125 18.125H5.9375C5.39062 18.125 5 17.7344 5 17.1875H3.125C1.91406 17.1875 0.9375 16.2109 0.9375 15V5.625C0.390625 5.625 0 5.23438 0 4.6875V2.8125C0 2.30469 0.390625 1.875 0.9375 1.875H2.8125ZM6.25 3.75C6.25 3.24219 6.64062 2.8125 7.1875 2.8125H19.0625C19.5703 2.8125 20 3.24219 20 3.75C20 4.29688 19.5703 4.6875 19.0625 4.6875H7.1875C6.64062 4.6875 6.25 4.29688 6.25 3.75ZM11.25 10C11.25 9.49219 11.6406 9.0625 12.1875 9.0625H19.0625C19.5703 9.0625 20 9.49219 20 10C20 10.5469 19.5703 10.9375 19.0625 10.9375H12.1875C11.6406 10.9375 11.25 10.5469 11.25 10ZM11.25 16.25C11.25 15.7422 11.6406 15.3125 12.1875 15.3125H19.0625C19.5703 15.3125 20 15.7422 20 16.25C20 16.7969 19.5703 17.1875 19.0625 17.1875H12.1875C11.6406 17.1875 11.25 16.7969 11.25 16.25Z" fill="url(#paint0_linear_242_531)"/>
<defs>
<linearGradient id="paint0_linear_242_531" x1="19.8681" y1="-7.04021e-07" x2="15.3487" y2="21.1433" gradientUnits="userSpaceOnUse">
<stop stop-color="#995BFF"/>
<stop offset="1" stop-color="#654AFF"/>
</linearGradient>
</defs>
</svg>
