<svg width="24" height="24" viewBox="0 0 24 24" fill="none" xmlns="http://www.w3.org/2000/svg">
<path d="M9 3.75C9 5.4375 7.875 6.89062 6.375 7.35938V12C7.3125 11.2969 8.4375 10.875 9.75 10.875H14.25C16.0781 10.875 17.625 9.375 17.625 7.5V7.35938C16.0781 6.89062 15 5.4375 15 3.75C15 1.6875 16.6406 0 18.75 0C20.8125 0 22.5 1.6875 22.5 3.75C22.5 5.4375 21.375 6.89062 19.875 7.35938V7.5C19.875 10.6406 17.3438 13.125 14.25 13.125H9.75C7.875 13.125 6.375 14.6719 6.375 16.5V16.6875C7.875 17.1562 9 18.6094 9 20.25C9 22.3594 7.3125 24 5.25 24C3.14062 24 1.5 22.3594 1.5 20.25C1.5 18.6094 2.57812 17.1562 4.125 16.6875V7.35938C2.57812 6.89062 1.5 5.4375 1.5 3.75C1.5 1.6875 3.14062 0 5.25 0C7.3125 0 9 1.6875 9 3.75ZM5.25 5.25C6.04688 5.25 6.75 4.59375 6.75 3.75C6.75 2.95312 6.04688 2.25 5.25 2.25C4.40625 2.25 3.75 2.95312 3.75 3.75C3.75 4.59375 4.40625 5.25 5.25 5.25ZM18.75 2.25C17.9062 2.25 17.25 2.95312 17.25 3.75C17.25 4.59375 17.9062 5.25 18.75 5.25C19.5469 5.25 20.25 4.59375 20.25 3.75C20.25 2.95312 19.5469 2.25 18.75 2.25ZM5.25 21.75C6.04688 21.75 6.75 21.0938 6.75 20.25C6.75 19.4531 6.04688 18.75 5.25 18.75C4.40625 18.75 3.75 19.4531 3.75 20.25C3.75 21.0938 4.40625 21.75 5.25 21.75Z" fill="url(#paint0_linear_243_533)"/>
<defs>
<linearGradient id="paint0_linear_243_533" x1="22.3615" y1="-3.42084e-07" x2="16.2453" y2="25.0371" gradientUnits="userSpaceOnUse">
<stop stop-color="#995BFF"/>
<stop offset="1" stop-color="#654AFF"/>
</linearGradient>
</defs>
</svg>
