<svg width="32" height="32" viewBox="0 0 32 32" fill="none" xmlns="http://www.w3.org/2000/svg">
<g clip-path="url(#clip0_243_539)">
<path d="M16.1875 5.375L19.3125 6.6875L20.5625 9.8125C20.6875 9.9375 20.8125 10.0625 20.9375 10.0625C21.125 10.0625 21.25 9.9375 21.3125 9.8125L22.625 6.6875L25.75 5.375C25.875 5.3125 25.9375 5.1875 25.9375 5C25.9375 4.875 25.875 4.75 25.75 4.625L22.625 3.375L21.3125 0.25C21.25 0.125 21.125 0 21 0C20.8125 0 20.6875 0.125 20.625 0.25L19.3125 3.375L16.1875 4.6875C16.0625 4.75 16 4.875 16 5.0625C16 5.1875 16.0625 5.3125 16.1875 5.375ZM31.8125 13.75L29.3125 12.6875L28.25 10.25C28.1875 10.125 28.125 10.0625 28 10.0625C27.875 10.0625 27.75 10.125 27.6875 10.25L26.625 12.6875L24.1875 13.75C24.0625 13.8125 23.9375 13.9375 23.9375 14.0625C23.9375 14.1875 24.0625 14.25 24.1875 14.3125L26.625 15.375L27.6875 17.875C27.75 17.9375 27.8125 18.0625 27.9375 18.0625C28.0625 18.0625 28.1875 17.9375 28.25 17.875L29.3125 15.375L31.75 14.3125C31.875 14.25 32 14.125 32 14C32 13.875 31.875 13.8125 31.8125 13.75ZM22.75 16.75L16.1875 15.75L13.25 9.8125C13 9.3125 12.5 9 11.9375 9C11.4375 9 10.9375 9.3125 10.6875 9.8125L7.75001 15.75L1.18751 16.75C1.21593e-05 16.875 -0.437488 18.375 0.437512 19.1875L5.12501 23.8125L4.06251 30.375C3.87501 31.25 4.62501 32 5.43751 32C5.68751 32 5.87501 32 6.12501 31.875L12 28.75L17.8125 31.875C18.3125 32.125 18.875 32.0625 19.3125 31.75C19.8125 31.4375 20 30.875 19.9375 30.375L18.8125 23.8125L23.5625 19.1875C24.375 18.375 23.9375 16.875 22.75 16.75ZM15.5625 22.75L16.4375 27.75L12 25.375L7.50001 27.75L8.37501 22.75L4.75001 19.25L9.75001 18.5L12 14L14.1875 18.5L19.1875 19.25L15.5625 22.75Z" fill="url(#paint0_linear_243_539)"/>
</g>
<defs>
<linearGradient id="paint0_linear_243_539" x1="31.7889" y1="-5.86078e-07" x2="24.558" y2="33.8293" gradientUnits="userSpaceOnUse">
<stop stop-color="#995BFF"/>
<stop offset="1" stop-color="#654AFF"/>
</linearGradient>
<clipPath id="clip0_243_539">
<rect width="32" height="32" fill="white"/>
</clipPath>
</defs>
</svg>
