<svg width="24" height="24" viewBox="0 0 24 24" fill="none" xmlns="http://www.w3.org/2000/svg">
<path d="M13.0254 13.1543C13.0254 13.7388 12.5661 14.1562 11.9817 14.1562C11.4389 14.1562 10.9797 13.7388 10.9797 13.1543V9.81445C10.9797 9.27173 11.4389 8.8125 11.9817 8.8125C12.5661 8.8125 13.0254 9.27173 13.0254 9.81445V13.1543ZM16.2817 2.13281C17.5342 2.13281 18.6614 2.96777 19.1206 4.13672L23.6711 16.8281C24.3808 18.7903 22.9197 20.8359 20.8322 20.8359H3.17283C1.08542 20.8359 -0.375758 18.7903 0.333958 16.8281L4.8845 4.13672C5.34372 2.96777 6.47092 2.13281 7.72336 2.13281H16.2817ZM2.21262 17.4961C2.00388 18.1641 2.46311 18.832 3.17283 18.832H10.9797V17.8301C10.9797 17.2874 11.4389 16.8281 11.9817 16.8281C12.5661 16.8281 13.0254 17.2874 13.0254 17.8301V18.832H20.8322C21.542 18.832 22.0012 18.1641 21.7925 17.4961L17.2002 4.80469C17.0749 4.42896 16.6992 4.13672 16.2817 4.13672H13.0254V5.13867C13.0254 5.72314 12.5661 6.14062 11.9817 6.14062C11.4389 6.14062 10.9797 5.72314 10.9797 5.13867V4.13672H7.72336C7.30588 4.13672 6.93015 4.42896 6.80491 4.80469L2.21262 17.4961Z" fill="url(#paint0_linear_242_529)"/>
<defs>
<linearGradient id="paint0_linear_242_529" x1="24.2142" y1="0.75" x2="19.9354" y2="23.5773" gradientUnits="userSpaceOnUse">
<stop stop-color="#995BFF"/>
<stop offset="1" stop-color="#654AFF"/>
</linearGradient>
</defs>
</svg>
