<svg width="24" height="24" viewBox="0 0 24 24" fill="none" xmlns="http://www.w3.org/2000/svg">
<path d="M0 6C0 4.35938 1.3125 3 3 3H21C22.6406 3 24 4.35938 24 6V18C24 19.6875 22.6406 21 21 21H3C1.3125 21 0 19.6875 0 18V6ZM2.25 6V7.07812L10.3125 13.6875C11.2969 14.4844 12.6562 14.4844 13.6406 13.6875L21.75 7.07812V6C21.75 5.625 21.375 5.25 21 5.25H3C2.57812 5.25 2.25 5.625 2.25 6ZM2.25 9.98438V18C2.25 18.4219 2.57812 18.75 3 18.75H21C21.375 18.75 21.75 18.4219 21.75 18V9.98438L15.0938 15.4219C13.2656 16.9219 10.6875 16.9219 8.85938 15.4219L2.25 9.98438Z" fill="url(#paint0_linear_243_537)"/>
<defs>
<linearGradient id="paint0_linear_243_537" x1="23.8417" y1="-5.29541e-07" x2="18.4185" y2="25.3719" gradientUnits="userSpaceOnUse">
<stop stop-color="#995BFF"/>
<stop offset="1" stop-color="#654AFF"/>
</linearGradient>
</defs>
</svg>
