<svg width="20" height="20" viewBox="0 0 20 20" fill="none" xmlns="http://www.w3.org/2000/svg">
<path d="M5 7.5V5C5 2.26562 7.22656 0 10 0C12.7344 0 15 2.26562 15 5V7.5H16.25C17.6172 7.5 18.75 8.63281 18.75 10V17.5C18.75 18.9062 17.6172 20 16.25 20H3.75C2.34375 20 1.25 18.9062 1.25 17.5V10C1.25 8.63281 2.34375 7.5 3.75 7.5H5ZM6.875 7.5H13.125V5C13.125 3.28125 11.7188 1.875 10 1.875C8.24219 1.875 6.875 3.28125 6.875 5V7.5ZM3.125 17.5C3.125 17.8516 3.39844 18.125 3.75 18.125H16.25C16.5625 18.125 16.875 17.8516 16.875 17.5V10C16.875 9.6875 16.5625 9.375 16.25 9.375H3.75C3.39844 9.375 3.125 9.6875 3.125 10V17.5Z" fill="url(#paint0_linear_249_523)"/>
<defs>
<linearGradient id="paint0_linear_249_523" x1="19.1314" y1="-0.5" x2="14.1662" y2="20.4101" gradientUnits="userSpaceOnUse">
<stop stop-color="#995BFF"/>
<stop offset="1" stop-color="#654AFF"/>
</linearGradient>
</defs>
</svg>
