<svg width="20" height="20" viewBox="0 0 20 20" fill="none" xmlns="http://www.w3.org/2000/svg">
<path d="M10.8545 10.9619C10.8545 11.449 10.4718 11.7969 9.98475 11.7969C9.53248 11.7969 9.14979 11.449 9.14979 10.9619V8.17871C9.14979 7.72644 9.53248 7.34375 9.98475 7.34375C10.4718 7.34375 10.8545 7.72644 10.8545 8.17871V10.9619ZM13.5681 1.77734C14.6118 1.77734 15.5512 2.47314 15.9338 3.44727L19.726 14.0234C20.3174 15.6586 19.0997 17.3633 17.3602 17.3633H2.64405C0.90455 17.3633 -0.313101 15.6586 0.278329 14.0234L4.07044 3.44727C4.45313 2.47314 5.39247 1.77734 6.43617 1.77734H13.5681ZM1.84388 14.5801C1.66993 15.1367 2.05262 15.6934 2.64405 15.6934H9.14979V14.8584C9.14979 14.4061 9.53248 14.0234 9.98475 14.0234C10.4718 14.0234 10.8545 14.4061 10.8545 14.8584V15.6934H17.3602C17.9517 15.6934 18.3344 15.1367 18.1604 14.5801L14.3335 4.00391C14.2291 3.6908 13.916 3.44727 13.5681 3.44727H10.8545V4.28223C10.8545 4.76929 10.4718 5.11719 9.98475 5.11719C9.53248 5.11719 9.14979 4.76929 9.14979 4.28223V3.44727H6.43617C6.08827 3.44727 5.77516 3.6908 5.67079 4.00391L1.84388 14.5801Z" fill="url(#paint0_linear_242_529)"/>
<defs>
<linearGradient id="paint0_linear_242_529" x1="20.1785" y1="0.625" x2="16.6129" y2="19.6477" gradientUnits="userSpaceOnUse">
<stop stop-color="#995BFF"/>
<stop offset="1" stop-color="#654AFF"/>
</linearGradient>
</defs>
</svg>
