<svg width="20" height="20" viewBox="0 0 20 20" fill="none" xmlns="http://www.w3.org/2000/svg">
<g clip-path="url(#clip0_243_535)">
<path d="M9.6484 13.2422C9.92184 12.9297 10.039 12.5 9.9609 12.1094C9.72652 11.2891 9.72652 11.4062 9.9609 10.625C10.039 10.1953 9.92184 9.76562 9.6484 9.49219C9.06246 8.90625 9.10152 8.98438 8.90621 8.16406C8.78902 7.77344 8.47652 7.46094 8.0859 7.34375C7.30465 7.14844 7.42184 7.1875 6.8359 6.60156C6.5234 6.32812 6.09371 6.21094 5.70309 6.28906C4.92184 6.52344 5.03902 6.52344 4.25777 6.28906C3.86715 6.21094 3.43746 6.32812 3.12496 6.60156C2.53902 7.1875 2.65621 7.14844 1.87496 7.34375C1.48434 7.46094 1.17184 7.77344 1.05465 8.16406C0.859336 8.98438 0.898399 8.90625 0.312461 9.49219C0.0390238 9.76562 -0.0781637 10.1953 0.0390238 10.625C0.234336 11.4062 0.234336 11.2891 0.0390238 12.1094C-0.0781637 12.5 0.0390238 12.9297 0.312461 13.2422C0.898399 13.8281 0.859336 13.7109 1.05465 14.5312C1.17184 14.9219 1.48434 15.2344 1.87496 15.3516C2.42184 15.5078 2.30465 15.4688 2.49996 15.5469V20L4.99996 18.75L7.49996 20V15.5469C7.65621 15.4688 7.53902 15.5078 8.0859 15.3516C8.47652 15.2344 8.74996 14.9219 8.90621 14.5312C9.10152 13.7109 9.06246 13.8281 9.6484 13.2422ZM4.99996 13.75C3.59371 13.75 2.49996 12.6562 2.49996 11.25C2.49996 9.88281 3.59371 8.75 4.99996 8.75C6.36715 8.75 7.4609 9.88281 7.4609 11.25C7.4609 12.6562 6.36715 13.75 4.99996 13.75ZM19.2578 3.67188L16.3281 0.742188C15.8593 0.273438 15.2343 0 14.5703 0H7.4609C6.05465 0 4.9609 1.13281 4.9609 2.5V5.19531C4.9609 5.19531 5.82027 4.80469 6.8359 5.19531L6.87496 2.53906C6.87496 2.1875 7.1484 1.91406 7.49996 1.91406H13.75V5C13.75 5.70312 14.2968 6.25 15 6.25H18.0859V17.5C18.0859 17.8516 17.7734 18.125 17.4609 18.125H8.74996L8.7109 20H17.4609C18.8281 20 19.9609 18.9062 19.9609 17.5V5.42969C20 4.76562 19.7265 4.14062 19.2578 3.67188Z" fill="url(#paint0_linear_243_535)"/>
</g>
<defs>
<linearGradient id="paint0_linear_243_535" x1="19.868" y1="-1.17496e-07" x2="15.3487" y2="21.1433" gradientUnits="userSpaceOnUse">
<stop stop-color="#995BFF"/>
<stop offset="1" stop-color="#654AFF"/>
</linearGradient>
<clipPath id="clip0_243_535">
<rect width="20" height="20" fill="white"/>
</clipPath>
</defs>
</svg>
