<svg width="20" height="20" viewBox="0 0 20 20" fill="none" xmlns="http://www.w3.org/2000/svg">
<path d="M7.5 3.125C7.5 4.53125 6.5625 5.74219 5.3125 6.13281V10C6.09375 9.41406 7.03125 9.0625 8.125 9.0625H11.875C13.3984 9.0625 14.6875 7.8125 14.6875 6.25V6.13281C13.3984 5.74219 12.5 4.53125 12.5 3.125C12.5 1.40625 13.8672 0 15.625 0C17.3438 0 18.75 1.40625 18.75 3.125C18.75 4.53125 17.8125 5.74219 16.5625 6.13281V6.25C16.5625 8.86719 14.4531 10.9375 11.875 10.9375H8.125C6.5625 10.9375 5.3125 12.2266 5.3125 13.75V13.9062C6.5625 14.2969 7.5 15.5078 7.5 16.875C7.5 18.6328 6.09375 20 4.375 20C2.61719 20 1.25 18.6328 1.25 16.875C1.25 15.5078 2.14844 14.2969 3.4375 13.9062V6.13281C2.14844 5.74219 1.25 4.53125 1.25 3.125C1.25 1.40625 2.61719 0 4.375 0C6.09375 0 7.5 1.40625 7.5 3.125ZM4.375 4.375C5.03906 4.375 5.625 3.82812 5.625 3.125C5.625 2.46094 5.03906 1.875 4.375 1.875C3.67188 1.875 3.125 2.46094 3.125 3.125C3.125 3.82812 3.67188 4.375 4.375 4.375ZM15.625 1.875C14.9219 1.875 14.375 2.46094 14.375 3.125C14.375 3.82812 14.9219 4.375 15.625 4.375C16.2891 4.375 16.875 3.82812 16.875 3.125C16.875 2.46094 16.2891 1.875 15.625 1.875ZM4.375 18.125C5.03906 18.125 5.625 17.5781 5.625 16.875C5.625 16.2109 5.03906 15.625 4.375 15.625C3.67188 15.625 3.125 16.2109 3.125 16.875C3.125 17.5781 3.67188 18.125 4.375 18.125Z" fill="url(#paint0_linear_243_533)"/>
<defs>
<linearGradient id="paint0_linear_243_533" x1="18.6346" y1="-2.8507e-07" x2="13.5378" y2="20.8642" gradientUnits="userSpaceOnUse">
<stop stop-color="#995BFF"/>
<stop offset="1" stop-color="#654AFF"/>
</linearGradient>
</defs>
</svg>
