<svg width="20" height="20" viewBox="0 0 20 20" fill="none" xmlns="http://www.w3.org/2000/svg">
<path d="M10.8316 4H7.41892V2.28571C7.41892 1.67951 7.17922 1.09813 6.75256 0.669473C6.32589 0.240818 5.74721 0 5.14382 0H3.4375V17.7143C3.4375 18.3205 3.6772 18.9019 4.10386 19.3305C4.53052 19.7592 5.1092 20 5.71259 20H7.41892V16H10.8316C12.3753 15.9414 13.8363 15.284 14.9078 14.166C15.9794 13.048 16.578 11.5563 16.578 10.0043C16.578 8.45225 15.9794 6.96059 14.9078 5.84258C13.8363 4.72458 12.3753 4.06722 10.8316 4.00857V4ZM10.8316 12H7.41892V8H10.8316C11.9691 8 12.7512 8.90429 12.7512 10C12.7512 11.0957 11.9691 11.9957 10.8316 11.9957V12Z" fill="url(#paint0_linear_241_523)"/>
<defs>
<linearGradient id="paint0_linear_241_523" x1="16.4913" y1="-2.8507e-07" x2="9.98698" y2="19.9932" gradientUnits="userSpaceOnUse">
<stop stop-color="#5637FF"/>
<stop offset="1" stop-color="#6F59EC"/>
</linearGradient>
</defs>
</svg>
