<svg width="20" height="20" viewBox="0 0 20 20" fill="none" xmlns="http://www.w3.org/2000/svg">
<g clip-path="url(#clip0_242_527)">
<path d="M5.78125 9.53125L9.88281 10.1562L11.7187 13.8672C11.875 14.1797 12.1875 14.375 12.5391 14.375C12.8516 14.375 13.1641 14.1797 13.3203 13.8672L15.1562 10.1562L19.2578 9.53125C20 9.45312 20.2734 8.51562 19.7266 8.00781L16.7969 5.11719L17.4609 1.01562C17.5 0.78125 17.4219 0.507812 17.2656 0.3125C17.1094 0.117188 16.875 0 16.6016 0C16.4453 0 16.3281 0 16.1719 0.078125L12.5 2.03125L8.86719 0.078125C8.71094 0 8.59375 0 8.4375 0C8.16406 0 7.92969 0.117188 7.77344 0.3125C7.57812 0.507812 7.5 0.78125 7.53906 1.01562L8.24219 5.11719L5.27344 8.00781C4.76562 8.51562 5.03906 9.45312 5.78125 9.53125ZM10.2734 5.78125L9.72656 2.65625L12.5391 4.14062L15.3125 2.65625L14.7656 5.78125L17.0312 7.96875L13.9062 8.4375L12.5391 11.25L11.1328 8.4375L8.00781 7.96875L10.2734 5.78125ZM7.85156 12.1484C7.69531 11.9531 7.46094 11.875 7.1875 11.875C6.95312 11.875 6.71875 11.9531 6.5625 12.1484L0.3125 18.3984C-0.078125 18.75 -0.078125 19.3359 0.3125 19.6875C0.664062 20.0781 1.25 20.0781 1.60156 19.6875L7.85156 13.4375C8.24219 13.0859 8.24219 12.5 7.85156 12.1484ZM10.3125 16.25C10.0781 16.25 9.84375 16.3281 9.6875 16.5234L7.8125 18.3984C7.42187 18.75 7.42187 19.3359 7.8125 19.6875C8.16406 20.0781 8.75 20.0781 9.10156 19.6875L10.9766 17.8125C11.3672 17.4609 11.3672 16.875 10.9766 16.5234C10.8203 16.3281 10.5859 16.25 10.3125 16.25ZM1.60156 12.2266L3.47656 10.3516C3.86719 9.96094 3.86719 9.375 3.47656 9.02344C3.32031 8.82812 3.08594 8.75 2.8125 8.75C2.57812 8.75 2.34375 8.82812 2.1875 9.02344L0.3125 10.8984C-0.078125 11.25 -0.078125 11.8359 0.3125 12.1875C0.664062 12.5781 1.25 12.5781 1.60156 12.2266Z" fill="url(#paint0_linear_242_527)"/>
</g>
<defs>
<linearGradient id="paint0_linear_242_527" x1="0.131919" y1="20" x2="4.65125" y2="-1.14328" gradientUnits="userSpaceOnUse">
<stop stop-color="#995BFF"/>
<stop offset="1" stop-color="#654AFF"/>
</linearGradient>
<clipPath id="clip0_242_527">
<rect width="20" height="20" fill="white"/>
</clipPath>
</defs>
</svg>
