<svg width="24" height="24" viewBox="0 0 24 24" fill="none" xmlns="http://www.w3.org/2000/svg">
<g clip-path="url(#clip0_242_525)">
<path d="M8.8125 6.9375C9.14062 6.70312 9.60938 6.70312 9.9375 6.9375L16.6875 11.0625C17.0156 11.25 17.25 11.625 17.25 12C17.25 12.4219 17.0156 12.7969 16.6875 12.9844L9.9375 17.1094C9.60938 17.2969 9.14062 17.3438 8.8125 17.1094C8.4375 16.9219 8.25 16.5469 8.25 16.125V7.875C8.25 7.5 8.4375 7.125 8.8125 6.9375ZM24 12C24 18.6562 18.6094 24 12 24C5.34375 24 0 18.6562 0 12C0 5.39062 5.34375 0 12 0C18.6094 0 24 5.39062 24 12ZM12 2.25C6.60938 2.25 2.25 6.65625 2.25 12C2.25 17.3906 6.60938 21.75 12 21.75C17.3438 21.75 21.75 17.3906 21.75 12C21.75 6.65625 17.3438 2.25 12 2.25Z" fill="url(#paint0_linear_242_525)"/>
</g>
<defs>
<linearGradient id="paint0_linear_242_525" x1="23.8417" y1="-3.42084e-07" x2="18.4185" y2="25.3719" gradientUnits="userSpaceOnUse">
<stop stop-color="#995BFF"/>
<stop offset="1" stop-color="#654AFF"/>
</linearGradient>
<clipPath id="clip0_242_525">
<rect width="24" height="24" fill="white"/>
</clipPath>
</defs>
</svg>
