<svg width="20" height="20" viewBox="0 0 20 20" fill="none" xmlns="http://www.w3.org/2000/svg">
<g clip-path="url(#clip0_243_539)">
<path d="M10.1172 3.35937L12.0703 4.17969L12.8516 6.13281C12.9297 6.21094 13.0078 6.28906 13.0859 6.28906C13.2031 6.28906 13.2813 6.21094 13.3203 6.13281L14.1406 4.17969L16.0938 3.35937C16.1719 3.32031 16.2109 3.24219 16.2109 3.125C16.2109 3.04687 16.1719 2.96875 16.0938 2.89062L14.1406 2.10937L13.3203 0.15625C13.2813 0.078125 13.2031 0 13.125 0C13.0078 0 12.9297 0.078125 12.8906 0.15625L12.0703 2.10937L10.1172 2.92969C10.0391 2.96875 10 3.04687 10 3.16406C10 3.24219 10.0391 3.32031 10.1172 3.35937ZM19.8828 8.59375L18.3203 7.92969L17.6563 6.40625C17.6172 6.32812 17.5781 6.28906 17.5 6.28906C17.4219 6.28906 17.3438 6.32812 17.3047 6.40625L16.6406 7.92969L15.1172 8.59375C15.0391 8.63281 14.9609 8.71094 14.9609 8.78906C14.9609 8.86719 15.0391 8.90625 15.1172 8.94531L16.6406 9.60937L17.3047 11.1719C17.3438 11.2109 17.3828 11.2891 17.4609 11.2891C17.5391 11.2891 17.6172 11.2109 17.6563 11.1719L18.3203 9.60937L19.8438 8.94531C19.9219 8.90625 20 8.82812 20 8.75C20 8.67187 19.9219 8.63281 19.8828 8.59375ZM14.2188 10.4687L10.1172 9.84375L8.28126 6.13281C8.12501 5.82031 7.81251 5.625 7.46094 5.625C7.14844 5.625 6.83594 5.82031 6.67969 6.13281L4.84376 9.84375L0.742195 10.4687C7.59819e-06 10.5469 -0.27343 11.4844 0.273445 11.9922L3.20313 14.8828L2.53907 18.9844C2.42188 19.5312 2.89063 20 3.39844 20C3.55469 20 3.67188 20 3.82813 19.9219L7.50001 17.9687L11.1328 19.9219C11.4453 20.0781 11.7969 20.0391 12.0703 19.8437C12.3828 19.6484 12.5 19.2969 12.4609 18.9844L11.7578 14.8828L14.7266 11.9922C15.2344 11.4844 14.9609 10.5469 14.2188 10.4687ZM9.72657 14.2187L10.2734 17.3437L7.50001 15.8594L4.68751 17.3437L5.23438 14.2187L2.96876 12.0312L6.09376 11.5625L7.50001 8.75L8.86719 11.5625L11.9922 12.0312L9.72657 14.2187Z" fill="url(#paint0_linear_243_539)"/>
</g>
<defs>
<linearGradient id="paint0_linear_243_539" x1="19.8681" y1="-3.66299e-07" x2="15.3487" y2="21.1433" gradientUnits="userSpaceOnUse">
<stop stop-color="#995BFF"/>
<stop offset="1" stop-color="#654AFF"/>
</linearGradient>
<clipPath id="clip0_243_539">
<rect width="20" height="20" fill="white"/>
</clipPath>
</defs>
</svg>
