<svg width="32" height="32" viewBox="0 0 32 32" fill="none" xmlns="http://www.w3.org/2000/svg">
<g clip-path="url(#clip0_242_527)">
<path d="M9.25 15.25L15.8125 16.25L18.75 22.1875C19 22.6875 19.5 23 20.0625 23C20.5625 23 21.0625 22.6875 21.3125 22.1875L24.25 16.25L30.8125 15.25C32 15.125 32.4375 13.625 31.5625 12.8125L26.875 8.1875L27.9375 1.625C28 1.25 27.875 0.8125 27.625 0.5C27.375 0.1875 27 0 26.5625 0C26.3125 0 26.125 0 25.875 0.125L20 3.25L14.1875 0.125C13.9375 0 13.75 0 13.5 0C13.0625 0 12.6875 0.1875 12.4375 0.5C12.125 0.8125 12 1.25 12.0625 1.625L13.1875 8.1875L8.4375 12.8125C7.625 13.625 8.0625 15.125 9.25 15.25ZM16.4375 9.25L15.5625 4.25L20.0625 6.625L24.5 4.25L23.625 9.25L27.25 12.75L22.25 13.5L20.0625 18L17.8125 13.5L12.8125 12.75L16.4375 9.25ZM12.5625 19.4375C12.3125 19.125 11.9375 19 11.5 19C11.125 19 10.75 19.125 10.5 19.4375L0.5 29.4375C-0.125 30 -0.125 30.9375 0.5 31.5C1.0625 32.125 2 32.125 2.5625 31.5L12.5625 21.5C13.1875 20.9375 13.1875 20 12.5625 19.4375ZM16.5 26C16.125 26 15.75 26.125 15.5 26.4375L12.5 29.4375C11.875 30 11.875 30.9375 12.5 31.5C13.0625 32.125 14 32.125 14.5625 31.5L17.5625 28.5C18.1875 27.9375 18.1875 27 17.5625 26.4375C17.3125 26.125 16.9375 26 16.5 26ZM2.5625 19.5625L5.5625 16.5625C6.1875 15.9375 6.1875 15 5.5625 14.4375C5.3125 14.125 4.9375 14 4.5 14C4.125 14 3.75 14.125 3.5 14.4375L0.5 17.4375C-0.125 18 -0.125 18.9375 0.5 19.5C1.0625 20.125 2 20.125 2.5625 19.5625Z" fill="url(#paint0_linear_242_527)"/>
</g>
<defs>
<linearGradient id="paint0_linear_242_527" x1="0.211071" y1="32" x2="7.44201" y2="-1.82925" gradientUnits="userSpaceOnUse">
<stop stop-color="#995BFF"/>
<stop offset="1" stop-color="#654AFF"/>
</linearGradient>
<clipPath id="clip0_242_527">
<rect width="32" height="32" fill="white"/>
</clipPath>
</defs>
</svg>
