<svg width="32" height="32" viewBox="0 0 32 32" fill="none" xmlns="http://www.w3.org/2000/svg">
<path d="M17.3305 6.4H11.8703V3.65714C11.8703 2.68721 11.4868 1.757 10.8041 1.07116C10.1214 0.385309 9.19554 0 8.23011 0H5.5V28.3429C5.5 29.3128 5.88351 30.243 6.56617 30.9289C7.24883 31.6147 8.17472 32 9.14015 32H11.8703V25.6H17.3305C19.8005 25.5062 22.1381 24.4544 23.8526 22.6656C25.567 20.8768 26.5248 18.4901 26.5248 16.0069C26.5248 13.5236 25.567 11.1369 23.8526 9.34813C22.1381 7.55933 19.8005 6.50756 17.3305 6.41371V6.4ZM17.3305 19.2H11.8703V12.8H17.3305C19.1506 12.8 20.4019 14.2469 20.4019 16C20.4019 17.7531 19.1506 19.1931 17.3305 19.1931V19.2Z" fill="url(#paint0_linear_241_523)"/>
<defs>
<linearGradient id="paint0_linear_241_523" x1="26.3861" y1="-4.56112e-07" x2="15.9792" y2="31.9892" gradientUnits="userSpaceOnUse">
<stop stop-color="#5637FF"/>
<stop offset="1" stop-color="#6F59EC"/>
</linearGradient>
</defs>
</svg>
