<svg width="32" height="32" viewBox="0 0 32 32" fill="none" xmlns="http://www.w3.org/2000/svg">
<path d="M17.3672 17.5391C17.3672 18.3184 16.7549 18.875 15.9756 18.875C15.252 18.875 14.6397 18.3184 14.6397 17.5391V13.0859C14.6397 12.3623 15.252 11.75 15.9756 11.75C16.7549 11.75 17.3672 12.3623 17.3672 13.0859V17.5391ZM21.709 2.84375C23.3789 2.84375 24.8819 3.95703 25.4942 5.51562L31.5616 22.4375C32.5078 25.0537 30.5596 27.7812 27.7764 27.7812H4.2305C1.44729 27.7812 -0.50095 25.0537 0.445339 22.4375L6.51272 5.51562C7.12503 3.95703 8.62796 2.84375 10.2979 2.84375H21.709ZM2.95022 23.3281C2.6719 24.2188 3.28421 25.1094 4.2305 25.1094H14.6397V23.7734C14.6397 23.0498 15.252 22.4375 15.9756 22.4375C16.7549 22.4375 17.3672 23.0498 17.3672 23.7734V25.1094H27.7764C28.7227 25.1094 29.335 24.2188 29.0567 23.3281L22.9336 6.40625C22.7666 5.90527 22.2657 5.51562 21.709 5.51562H17.3672V6.85156C17.3672 7.63086 16.7549 8.1875 15.9756 8.1875C15.252 8.1875 14.6397 7.63086 14.6397 6.85156V5.51562H10.2979C9.74124 5.51562 9.24026 5.90527 9.07327 6.40625L2.95022 23.3281Z" fill="url(#paint0_linear_242_529)"/>
<defs>
<linearGradient id="paint0_linear_242_529" x1="32.2857" y1="1" x2="26.5807" y2="31.4364" gradientUnits="userSpaceOnUse">
<stop stop-color="#995BFF"/>
<stop offset="1" stop-color="#654AFF"/>
</linearGradient>
</defs>
</svg>
