<svg width="24" height="24" viewBox="0 0 24 24" fill="none" xmlns="http://www.w3.org/2000/svg">
<path d="M3.375 2.25C3.98438 2.25 4.5 2.76562 4.5 3.375V5.625C4.5 6.28125 3.98438 6.75 3.375 6.75V10.875H6C6 10.2656 6.46875 9.75 7.125 9.75H9.375C9.98438 9.75 10.5 10.2656 10.5 10.875V13.125C10.5 13.7812 9.98438 14.25 9.375 14.25H7.125C6.46875 14.25 6 13.7812 6 13.125H3.375V18C3.375 18.2344 3.51562 18.375 3.75 18.375H6C6 17.7656 6.46875 17.25 7.125 17.25H9.375C9.98438 17.25 10.5 17.7656 10.5 18.375V20.625C10.5 21.2812 9.98438 21.75 9.375 21.75H7.125C6.46875 21.75 6 21.2812 6 20.625H3.75C2.29688 20.625 1.125 19.4531 1.125 18V6.75C0.46875 6.75 0 6.28125 0 5.625V3.375C0 2.76562 0.46875 2.25 1.125 2.25H3.375ZM7.5 4.5C7.5 3.89062 7.96875 3.375 8.625 3.375H22.875C23.4844 3.375 24 3.89062 24 4.5C24 5.15625 23.4844 5.625 22.875 5.625H8.625C7.96875 5.625 7.5 5.15625 7.5 4.5ZM13.5 12C13.5 11.3906 13.9688 10.875 14.625 10.875H22.875C23.4844 10.875 24 11.3906 24 12C24 12.6562 23.4844 13.125 22.875 13.125H14.625C13.9688 13.125 13.5 12.6562 13.5 12ZM13.5 19.5C13.5 18.8906 13.9688 18.375 14.625 18.375H22.875C23.4844 18.375 24 18.8906 24 19.5C24 20.1562 23.4844 20.625 22.875 20.625H14.625C13.9688 20.625 13.5 20.1562 13.5 19.5Z" fill="url(#paint0_linear_242_531)"/>
<defs>
<linearGradient id="paint0_linear_242_531" x1="23.8417" y1="-8.44825e-07" x2="18.4185" y2="25.3719" gradientUnits="userSpaceOnUse">
<stop stop-color="#995BFF"/>
<stop offset="1" stop-color="#654AFF"/>
</linearGradient>
</defs>
</svg>
