<svg width="32" height="32" viewBox="0 0 32 32" fill="none" xmlns="http://www.w3.org/2000/svg">
<g clip-path="url(#clip0_243_535)">
<path d="M15.4375 21.1875C15.875 20.6875 16.0625 20 15.9375 19.375C15.5625 18.0625 15.5625 18.25 15.9375 17C16.0625 16.3125 15.875 15.625 15.4375 15.1875C14.5 14.25 14.5625 14.375 14.25 13.0625C14.0625 12.4375 13.5625 11.9375 12.9375 11.75C11.6875 11.4375 11.875 11.5 10.9375 10.5625C10.4375 10.125 9.75001 9.9375 9.12501 10.0625C7.87501 10.4375 8.06251 10.4375 6.81251 10.0625C6.18751 9.9375 5.50001 10.125 5.00001 10.5625C4.06251 11.5 4.25001 11.4375 3.00001 11.75C2.37501 11.9375 1.87501 12.4375 1.68751 13.0625C1.37501 14.375 1.43751 14.25 0.500011 15.1875C0.0625113 15.625 -0.124989 16.3125 0.0625113 17C0.375011 18.25 0.375011 18.0625 0.0625113 19.375C-0.124989 20 0.0625113 20.6875 0.500011 21.1875C1.43751 22.125 1.37501 21.9375 1.68751 23.25C1.87501 23.875 2.37501 24.375 3.00001 24.5625C3.87501 24.8125 3.68751 24.75 4.00001 24.875V32L8.00001 30L12 32V24.875C12.25 24.75 12.0625 24.8125 12.9375 24.5625C13.5625 24.375 14 23.875 14.25 23.25C14.5625 21.9375 14.5 22.125 15.4375 21.1875ZM8.00001 22C5.75001 22 4.00001 20.25 4.00001 18C4.00001 15.8125 5.75001 14 8.00001 14C10.1875 14 11.9375 15.8125 11.9375 18C11.9375 20.25 10.1875 22 8.00001 22ZM30.8125 5.875L26.125 1.1875C25.375 0.4375 24.375 0 23.3125 0H11.9375C9.68751 0 7.93751 1.8125 7.93751 4V8.3125C7.93751 8.3125 9.31251 7.6875 10.9375 8.3125L11 4.0625C11 3.5 11.4375 3.0625 12 3.0625H22V8C22 9.125 22.875 10 24 10H28.9375V28C28.9375 28.5625 28.4375 29 27.9375 29H14L13.9375 32H27.9375C30.125 32 31.9375 30.25 31.9375 28V8.6875C32 7.625 31.5625 6.625 30.8125 5.875Z" fill="url(#paint0_linear_243_535)"/>
</g>
<defs>
<linearGradient id="paint0_linear_243_535" x1="31.7889" y1="-1.87994e-07" x2="24.558" y2="33.8293" gradientUnits="userSpaceOnUse">
<stop stop-color="#995BFF"/>
<stop offset="1" stop-color="#654AFF"/>
</linearGradient>
<clipPath id="clip0_243_535">
<rect width="32" height="32" fill="white"/>
</clipPath>
</defs>
</svg>
