<svg width="24" height="24" viewBox="0 0 24 24" fill="none" xmlns="http://www.w3.org/2000/svg">
<g clip-path="url(#clip0_243_535)">
<path d="M11.5781 15.8906C11.9062 15.5156 12.0469 15 11.9531 14.5312C11.6719 13.5469 11.6719 13.6875 11.9531 12.75C12.0469 12.2344 11.9062 11.7188 11.5781 11.3906C10.875 10.6875 10.9219 10.7812 10.6875 9.79688C10.5469 9.32812 10.1719 8.95312 9.7031 8.8125C8.7656 8.57812 8.90623 8.625 8.2031 7.92188C7.8281 7.59375 7.31248 7.45312 6.84373 7.54688C5.90623 7.82812 6.04685 7.82812 5.10935 7.54688C4.6406 7.45312 4.12498 7.59375 3.74998 7.92188C3.04685 8.625 3.18748 8.57812 2.24998 8.8125C1.78123 8.95312 1.40623 9.32812 1.2656 9.79688C1.03123 10.7812 1.0781 10.6875 0.374978 11.3906C0.0468529 11.7188 -0.0937721 12.2344 0.0468529 12.75C0.281228 13.6875 0.281228 13.5469 0.0468529 14.5312C-0.0937721 15 0.0468529 15.5156 0.374978 15.8906C1.0781 16.5938 1.03123 16.4531 1.2656 17.4375C1.40623 17.9062 1.78123 18.2812 2.24998 18.4219C2.90623 18.6094 2.7656 18.5625 2.99998 18.6562V24L5.99998 22.5L8.99998 24V18.6562C9.18748 18.5625 9.04685 18.6094 9.7031 18.4219C10.1719 18.2812 10.5 17.9062 10.6875 17.4375C10.9219 16.4531 10.875 16.5938 11.5781 15.8906ZM5.99998 16.5C4.31248 16.5 2.99998 15.1875 2.99998 13.5C2.99998 11.8594 4.31248 10.5 5.99998 10.5C7.6406 10.5 8.9531 11.8594 8.9531 13.5C8.9531 15.1875 7.6406 16.5 5.99998 16.5ZM23.1094 4.40625L19.5937 0.890625C19.0312 0.328125 18.2812 0 17.4844 0H8.9531C7.2656 0 5.9531 1.35938 5.9531 3V6.23438C5.9531 6.23438 6.98435 5.76562 8.2031 6.23438L8.24998 3.04688C8.24998 2.625 8.5781 2.29688 8.99998 2.29688H16.5V6C16.5 6.84375 17.1562 7.5 18 7.5H21.7031V21C21.7031 21.4219 21.3281 21.75 20.9531 21.75H10.5L10.4531 24H20.9531C22.5937 24 23.9531 22.6875 23.9531 21V6.51562C24 5.71875 23.6719 4.96875 23.1094 4.40625Z" fill="url(#paint0_linear_243_535)"/>
</g>
<defs>
<linearGradient id="paint0_linear_243_535" x1="23.8417" y1="-1.40995e-07" x2="18.4185" y2="25.3719" gradientUnits="userSpaceOnUse">
<stop stop-color="#995BFF"/>
<stop offset="1" stop-color="#654AFF"/>
</linearGradient>
<clipPath id="clip0_243_535">
<rect width="24" height="24" fill="white"/>
</clipPath>
</defs>
</svg>
