<svg width="32" height="32" viewBox="0 0 32 32" fill="none" xmlns="http://www.w3.org/2000/svg">
<path d="M4.5 3C5.3125 3 6 3.6875 6 4.5V7.5C6 8.375 5.3125 9 4.5 9V14.5H8C8 13.6875 8.625 13 9.5 13H12.5C13.3125 13 14 13.6875 14 14.5V17.5C14 18.375 13.3125 19 12.5 19H9.5C8.625 19 8 18.375 8 17.5H4.5V24C4.5 24.3125 4.6875 24.5 5 24.5H8C8 23.6875 8.625 23 9.5 23H12.5C13.3125 23 14 23.6875 14 24.5V27.5C14 28.375 13.3125 29 12.5 29H9.5C8.625 29 8 28.375 8 27.5H5C3.0625 27.5 1.5 25.9375 1.5 24V9C0.625 9 0 8.375 0 7.5V4.5C0 3.6875 0.625 3 1.5 3H4.5ZM10 6C10 5.1875 10.625 4.5 11.5 4.5H30.5C31.3125 4.5 32 5.1875 32 6C32 6.875 31.3125 7.5 30.5 7.5H11.5C10.625 7.5 10 6.875 10 6ZM18 16C18 15.1875 18.625 14.5 19.5 14.5H30.5C31.3125 14.5 32 15.1875 32 16C32 16.875 31.3125 17.5 30.5 17.5H19.5C18.625 17.5 18 16.875 18 16ZM18 26C18 25.1875 18.625 24.5 19.5 24.5H30.5C31.3125 24.5 32 25.1875 32 26C32 26.875 31.3125 27.5 30.5 27.5H19.5C18.625 27.5 18 26.875 18 26Z" fill="url(#paint0_linear_242_531)"/>
<defs>
<linearGradient id="paint0_linear_242_531" x1="31.7889" y1="-1.12643e-06" x2="24.558" y2="33.8293" gradientUnits="userSpaceOnUse">
<stop stop-color="#995BFF"/>
<stop offset="1" stop-color="#654AFF"/>
</linearGradient>
</defs>
</svg>
