<svg width="32" height="32" viewBox="0 0 32 32" fill="none" xmlns="http://www.w3.org/2000/svg">
<path d="M12 5C12 7.25 10.5 9.1875 8.5 9.8125V16C9.75 15.0625 11.25 14.5 13 14.5H19C21.4375 14.5 23.5 12.5 23.5 10V9.8125C21.4375 9.1875 20 7.25 20 5C20 2.25 22.1875 0 25 0C27.75 0 30 2.25 30 5C30 7.25 28.5 9.1875 26.5 9.8125V10C26.5 14.1875 23.125 17.5 19 17.5H13C10.5 17.5 8.5 19.5625 8.5 22V22.25C10.5 22.875 12 24.8125 12 27C12 29.8125 9.75 32 7 32C4.1875 32 2 29.8125 2 27C2 24.8125 3.4375 22.875 5.5 22.25V9.8125C3.4375 9.1875 2 7.25 2 5C2 2.25 4.1875 0 7 0C9.75 0 12 2.25 12 5ZM7 7C8.0625 7 9 6.125 9 5C9 3.9375 8.0625 3 7 3C5.875 3 5 3.9375 5 5C5 6.125 5.875 7 7 7ZM25 3C23.875 3 23 3.9375 23 5C23 6.125 23.875 7 25 7C26.0625 7 27 6.125 27 5C27 3.9375 26.0625 3 25 3ZM7 29C8.0625 29 9 28.125 9 27C9 25.9375 8.0625 25 7 25C5.875 25 5 25.9375 5 27C5 28.125 5.875 29 7 29Z" fill="url(#paint0_linear_243_533)"/>
<defs>
<linearGradient id="paint0_linear_243_533" x1="29.8153" y1="-4.56112e-07" x2="21.6605" y2="33.3828" gradientUnits="userSpaceOnUse">
<stop stop-color="#995BFF"/>
<stop offset="1" stop-color="#654AFF"/>
</linearGradient>
</defs>
</svg>
