<svg width="24" height="24" viewBox="0 0 24 24" fill="none" xmlns="http://www.w3.org/2000/svg">
<g clip-path="url(#clip0_243_539)">
<path d="M12.1406 4.03125L14.4844 5.01562L15.4219 7.35938C15.5156 7.45312 15.6094 7.54688 15.7031 7.54688C15.8438 7.54688 15.9375 7.45312 15.9844 7.35938L16.9688 5.01562L19.3125 4.03125C19.4063 3.98438 19.4531 3.89062 19.4531 3.75C19.4531 3.65625 19.4063 3.5625 19.3125 3.46875L16.9688 2.53125L15.9844 0.1875C15.9375 0.09375 15.8438 0 15.75 0C15.6094 0 15.5156 0.09375 15.4688 0.1875L14.4844 2.53125L12.1406 3.51562C12.0469 3.5625 12 3.65625 12 3.79688C12 3.89062 12.0469 3.98438 12.1406 4.03125ZM23.8594 10.3125L21.9844 9.51562L21.1875 7.6875C21.1406 7.59375 21.0938 7.54688 21 7.54688C20.9063 7.54688 20.8125 7.59375 20.7656 7.6875L19.9688 9.51562L18.1406 10.3125C18.0469 10.3594 17.9531 10.4531 17.9531 10.5469C17.9531 10.6406 18.0469 10.6875 18.1406 10.7344L19.9688 11.5312L20.7656 13.4062C20.8125 13.4531 20.8594 13.5469 20.9531 13.5469C21.0469 13.5469 21.1406 13.4531 21.1875 13.4062L21.9844 11.5312L23.8125 10.7344C23.9063 10.6875 24 10.5938 24 10.5C24 10.4062 23.9063 10.3594 23.8594 10.3125ZM17.0625 12.5625L12.1406 11.8125L9.93751 7.35938C9.75001 6.98438 9.37501 6.75 8.95313 6.75C8.57813 6.75 8.20313 6.98438 8.01563 7.35938L5.81251 11.8125L0.890634 12.5625C9.11951e-06 12.6562 -0.328116 13.7812 0.328134 14.3906L3.84376 17.8594L3.04688 22.7812C2.90626 23.4375 3.46876 24 4.07813 24C4.26563 24 4.40626 24 4.59376 23.9062L9.00001 21.5625L13.3594 23.9062C13.7344 24.0938 14.1563 24.0469 14.4844 23.8125C14.8594 23.5781 15 23.1562 14.9531 22.7812L14.1094 17.8594L17.6719 14.3906C18.2813 13.7812 17.9531 12.6562 17.0625 12.5625ZM11.6719 17.0625L12.3281 20.8125L9.00001 19.0312L5.62501 20.8125L6.28126 17.0625L3.56251 14.4375L7.31251 13.875L9.00001 10.5L10.6406 13.875L14.3906 14.4375L11.6719 17.0625Z" fill="url(#paint0_linear_243_539)"/>
</g>
<defs>
<linearGradient id="paint0_linear_243_539" x1="23.8417" y1="-4.39559e-07" x2="18.4185" y2="25.3719" gradientUnits="userSpaceOnUse">
<stop stop-color="#995BFF"/>
<stop offset="1" stop-color="#654AFF"/>
</linearGradient>
<clipPath id="clip0_243_539">
<rect width="24" height="24" fill="white"/>
</clipPath>
</defs>
</svg>
