<svg width="24" height="24" viewBox="0 0 24 24" fill="none" xmlns="http://www.w3.org/2000/svg">
<g clip-path="url(#clip0_242_527)">
<path d="M6.9375 11.4375L11.8594 12.1875L14.0625 16.6406C14.25 17.0156 14.625 17.25 15.0469 17.25C15.4219 17.25 15.7969 17.0156 15.9844 16.6406L18.1875 12.1875L23.1094 11.4375C24 11.3438 24.3281 10.2188 23.6719 9.60938L20.1562 6.14062L20.9531 1.21875C21 0.9375 20.9062 0.609375 20.7187 0.375C20.5312 0.140625 20.25 0 19.9219 0C19.7344 0 19.5937 0 19.4062 0.09375L15 2.4375L10.6406 0.09375C10.4531 0 10.3125 0 10.125 0C9.79687 0 9.51562 0.140625 9.32812 0.375C9.09375 0.609375 9 0.9375 9.04687 1.21875L9.89062 6.14062L6.32812 9.60938C5.71875 10.2188 6.04687 11.3438 6.9375 11.4375ZM12.3281 6.9375L11.6719 3.1875L15.0469 4.96875L18.375 3.1875L17.7187 6.9375L20.4375 9.5625L16.6875 10.125L15.0469 13.5L13.3594 10.125L9.60937 9.5625L12.3281 6.9375ZM9.42187 14.5781C9.23437 14.3438 8.95312 14.25 8.625 14.25C8.34375 14.25 8.0625 14.3438 7.875 14.5781L0.375 22.0781C-0.09375 22.5 -0.09375 23.2031 0.375 23.625C0.796875 24.0938 1.5 24.0938 1.92187 23.625L9.42187 16.125C9.89062 15.7031 9.89062 15 9.42187 14.5781ZM12.375 19.5C12.0937 19.5 11.8125 19.5938 11.625 19.8281L9.375 22.0781C8.90625 22.5 8.90625 23.2031 9.375 23.625C9.79687 24.0938 10.5 24.0938 10.9219 23.625L13.1719 21.375C13.6406 20.9531 13.6406 20.25 13.1719 19.8281C12.9844 19.5938 12.7031 19.5 12.375 19.5ZM1.92187 14.6719L4.17187 12.4219C4.64062 11.9531 4.64062 11.25 4.17187 10.8281C3.98437 10.5938 3.70312 10.5 3.375 10.5C3.09375 10.5 2.8125 10.5938 2.625 10.8281L0.375 13.0781C-0.09375 13.5 -0.09375 14.2031 0.375 14.625C0.796875 15.0938 1.5 15.0938 1.92187 14.6719Z" fill="url(#paint0_linear_242_527)"/>
</g>
<defs>
<linearGradient id="paint0_linear_242_527" x1="0.158303" y1="24" x2="5.5815" y2="-1.37194" gradientUnits="userSpaceOnUse">
<stop stop-color="#995BFF"/>
<stop offset="1" stop-color="#654AFF"/>
</linearGradient>
<clipPath id="clip0_242_527">
<rect width="24" height="24" fill="white"/>
</clipPath>
</defs>
</svg>
