<svg width="20" height="20" viewBox="0 0 20 20" fill="none" xmlns="http://www.w3.org/2000/svg">
<g clip-path="url(#clip0_242_525)">
<path d="M7.34375 5.78125C7.61719 5.58594 8.00781 5.58594 8.28125 5.78125L13.9062 9.21875C14.1797 9.375 14.375 9.6875 14.375 10C14.375 10.3516 14.1797 10.6641 13.9062 10.8203L8.28125 14.2578C8.00781 14.4141 7.61719 14.4531 7.34375 14.2578C7.03125 14.1016 6.875 13.7891 6.875 13.4375V6.5625C6.875 6.25 7.03125 5.9375 7.34375 5.78125ZM20 10C20 15.5469 15.5078 20 10 20C4.45312 20 0 15.5469 0 10C0 4.49219 4.45312 0 10 0C15.5078 0 20 4.49219 20 10ZM10 1.875C5.50781 1.875 1.875 5.54688 1.875 10C1.875 14.4922 5.50781 18.125 10 18.125C14.4531 18.125 18.125 14.4922 18.125 10C18.125 5.54688 14.4531 1.875 10 1.875Z" fill="url(#paint0_linear_242_525)"/>
</g>
<defs>
<linearGradient id="paint0_linear_242_525" x1="19.8681" y1="-2.8507e-07" x2="15.3487" y2="21.1433" gradientUnits="userSpaceOnUse">
<stop stop-color="#995BFF"/>
<stop offset="1" stop-color="#654AFF"/>
</linearGradient>
<clipPath id="clip0_242_525">
<rect width="20" height="20" fill="white"/>
</clipPath>
</defs>
</svg>
