<svg width="24" height="24" viewBox="0 0 24 24" fill="none" xmlns="http://www.w3.org/2000/svg">
<path d="M12.9979 4.8H8.9027V2.74286C8.9027 2.01541 8.61506 1.31775 8.10307 0.803367C7.59107 0.288982 6.89666 0 6.17258 0H4.125V21.2571C4.125 21.9846 4.41263 22.6823 4.92463 23.1966C5.43663 23.711 6.13104 24 6.85511 24H8.9027V19.2H12.9979C14.8503 19.1296 16.6036 18.3408 17.8894 16.9992C19.1752 15.6576 19.8936 13.8676 19.8936 12.0051C19.8936 10.1427 19.1752 8.3527 17.8894 7.0111C16.6036 5.66949 14.8503 4.88067 12.9979 4.81029V4.8ZM12.9979 14.4H8.9027V9.6H12.9979C14.3629 9.6 15.3014 10.6851 15.3014 12C15.3014 13.3149 14.3629 14.3949 12.9979 14.3949V14.4Z" fill="url(#paint0_linear_241_523)"/>
<defs>
<linearGradient id="paint0_linear_241_523" x1="19.7896" y1="-3.42084e-07" x2="11.9844" y2="23.9919" gradientUnits="userSpaceOnUse">
<stop stop-color="#5637FF"/>
<stop offset="1" stop-color="#6F59EC"/>
</linearGradient>
</defs>
</svg>
