<svg width="804" height="374" viewBox="0 0 804 374" fill="none" xmlns="http://www.w3.org/2000/svg">
<path d="M166.483 205.818H164.784V205.174C164.784 204.534 165.05 204.178 165.769 204.178C166.073 204.178 166.328 204.247 166.488 204.295L166.877 202.803C166.627 202.718 166.078 202.58 165.412 202.58C163.99 202.58 162.855 203.395 162.855 205.046V205.818H161.646V207.31H162.855V214H164.784V207.31H166.483V205.818ZM168.443 214H170.371V205.818H168.443V214ZM169.412 204.657C170.025 204.657 170.526 204.188 170.526 203.613C170.526 203.032 170.025 202.564 169.412 202.564C168.795 202.564 168.294 203.032 168.294 203.613C168.294 204.188 168.795 204.657 169.412 204.657ZM172.804 214H174.732V209.19C174.732 208.151 175.515 207.416 176.575 207.416C176.9 207.416 177.305 207.475 177.47 207.528V205.754C177.295 205.722 176.991 205.701 176.778 205.701C175.84 205.701 175.057 206.234 174.759 207.182H174.674V205.818H172.804V214ZM185.668 207.981C185.402 206.596 184.294 205.712 182.376 205.712C180.405 205.712 179.063 206.681 179.068 208.194C179.063 209.387 179.798 210.175 181.369 210.5L182.765 210.793C183.516 210.958 183.868 211.262 183.868 211.725C183.868 212.285 183.26 212.706 182.344 212.706C181.46 212.706 180.885 212.322 180.72 211.587L178.839 211.768C179.079 213.27 180.341 214.16 182.349 214.16C184.395 214.16 185.838 213.1 185.844 211.55C185.838 210.383 185.087 209.669 183.543 209.334L182.147 209.036C181.316 208.849 180.986 208.561 180.991 208.087C180.986 207.533 181.598 207.15 182.403 207.15C183.292 207.15 183.761 207.635 183.91 208.173L185.668 207.981ZM191.969 205.818H190.355V203.858H188.427V205.818H187.266V207.31H188.427V211.859C188.417 213.398 189.535 214.154 190.984 214.112C191.533 214.096 191.911 213.989 192.119 213.92L191.794 212.413C191.687 212.439 191.469 212.487 191.229 212.487C190.744 212.487 190.355 212.317 190.355 211.539V207.31H191.969V205.818ZM203.258 203.091H201.292V210.527H201.196L196.062 203.091H194.293V214H196.269V206.569H196.36L201.5 214H203.258V203.091ZM208.13 214.165C209.414 214.165 210.181 213.563 210.533 212.876H210.597V214H212.45V208.524C212.45 206.362 210.687 205.712 209.127 205.712C207.406 205.712 206.085 206.479 205.659 207.97L207.459 208.226C207.651 207.667 208.194 207.187 209.137 207.187C210.032 207.187 210.522 207.645 210.522 208.45V208.482C210.522 209.036 209.942 209.062 208.498 209.217C206.911 209.387 205.392 209.861 205.392 211.704C205.392 213.313 206.57 214.165 208.13 214.165ZM208.631 212.748C207.827 212.748 207.252 212.381 207.252 211.672C207.252 210.932 207.896 210.623 208.759 210.5C209.265 210.431 210.277 210.303 210.527 210.101V211.065C210.527 211.976 209.792 212.748 208.631 212.748ZM214.839 214H216.768V209.025C216.768 208.018 217.439 207.336 218.27 207.336C219.085 207.336 219.644 207.885 219.644 208.727V214H221.535V208.897C221.535 207.975 222.084 207.336 223.016 207.336C223.793 207.336 224.411 207.794 224.411 208.806V214H226.345V208.508C226.345 206.681 225.29 205.712 223.788 205.712C222.6 205.712 221.695 206.298 221.333 207.208H221.247C220.933 206.282 220.139 205.712 219.037 205.712C217.939 205.712 217.119 206.276 216.778 207.208H216.682V205.818H214.839V214ZM232.373 214.16C234.28 214.16 235.591 213.228 235.932 211.805L234.131 211.603C233.87 212.295 233.231 212.658 232.4 212.658C231.154 212.658 230.328 211.837 230.312 210.436H236.012V209.845C236.012 206.974 234.286 205.712 232.272 205.712C229.928 205.712 228.4 207.432 228.4 209.957C228.4 212.525 229.907 214.16 232.373 214.16ZM230.317 209.137C230.376 208.093 231.148 207.214 232.299 207.214C233.407 207.214 234.152 208.023 234.163 209.137H230.317Z" fill="#6048E5"/>
<path d="M162.681 227.091V238H164.247V230.1H164.349L167.566 237.984H168.866L172.083 230.106H172.184V238H173.75V227.091H171.753L168.28 235.571H168.152L164.679 227.091H162.681ZM178.397 238.181C179.75 238.181 180.511 237.494 180.815 236.881H180.879V238H182.434V232.567C182.434 230.186 180.559 229.712 179.259 229.712C177.779 229.712 176.415 230.308 175.882 231.8L177.379 232.141C177.614 231.56 178.21 231.001 179.281 231.001C180.309 231.001 180.836 231.539 180.836 232.466V232.503C180.836 233.083 180.24 233.073 178.769 233.243C177.219 233.424 175.632 233.829 175.632 235.688C175.632 237.297 176.841 238.181 178.397 238.181ZM178.743 236.903C177.843 236.903 177.193 236.498 177.193 235.71C177.193 234.857 177.949 234.554 178.871 234.431C179.387 234.362 180.612 234.223 180.841 233.994V235.049C180.841 236.018 180.069 236.903 178.743 236.903ZM184.556 238H186.148V233.004C186.148 231.933 186.974 231.161 188.103 231.161C188.433 231.161 188.806 231.219 188.934 231.256V229.733C188.774 229.712 188.46 229.696 188.258 229.696C187.299 229.696 186.478 230.239 186.18 231.118H186.095V229.818H184.556V238ZM190.312 238H191.905V229.818H190.312V238ZM191.117 228.556C191.665 228.556 192.123 228.13 192.123 227.608C192.123 227.086 191.665 226.654 191.117 226.654C190.563 226.654 190.11 227.086 190.11 227.608C190.11 228.13 190.563 228.556 191.117 228.556ZM196.429 238.181C197.782 238.181 198.543 237.494 198.847 236.881H198.911V238H200.466V232.567C200.466 230.186 198.591 229.712 197.292 229.712C195.811 229.712 194.447 230.308 193.915 231.8L195.411 232.141C195.646 231.56 196.242 231.001 197.313 231.001C198.341 231.001 198.868 231.539 198.868 232.466V232.503C198.868 233.083 198.272 233.073 196.802 233.243C195.252 233.424 193.664 233.829 193.664 235.688C193.664 237.297 194.873 238.181 196.429 238.181ZM196.775 236.903C195.875 236.903 195.225 236.498 195.225 235.71C195.225 234.857 195.981 234.554 196.903 234.431C197.42 234.362 198.645 234.223 198.874 233.994V235.049C198.874 236.018 198.101 236.903 196.775 236.903Z" fill="#64778C"/>
<circle cx="253" cy="209" r="8" fill="url(#paint0_linear_1601_16718)"/>
<path d="M502 159L414 236" stroke="url(#paint1_linear_1601_16718)"/>
<path d="M571 24L517 139" stroke="url(#paint2_linear_1601_16718)"/>
<path d="M685 193L522 152" stroke="url(#paint3_linear_1601_16718)"/>
<path d="M263 214L386 242" stroke="url(#paint4_linear_1601_16718)"/>
<path d="M317 111L393 233" stroke="url(#paint5_linear_1601_16718)"/>
<path d="M243.464 104H245.393V95.8182H243.464V104ZM244.434 94.657C245.046 94.657 245.547 94.1882 245.547 93.6129C245.547 93.0323 245.046 92.5636 244.434 92.5636C243.816 92.5636 243.315 93.0323 243.315 93.6129C243.315 94.1882 243.816 94.657 244.434 94.657ZM247.825 104H249.754V99.0249C249.754 98.0181 250.425 97.3363 251.256 97.3363C252.071 97.3363 252.63 97.8849 252.63 98.7266V104H254.521V98.897C254.521 97.9755 255.07 97.3363 256.002 97.3363C256.78 97.3363 257.398 97.7944 257.398 98.8065V104H259.331V98.5082C259.331 96.6811 258.276 95.7116 256.774 95.7116C255.586 95.7116 254.681 96.2976 254.319 97.2085H254.233C253.919 96.2816 253.126 95.7116 252.023 95.7116C250.926 95.7116 250.105 96.2763 249.764 97.2085H249.668V95.8182H247.825V104ZM264.092 104.165C265.375 104.165 266.143 103.563 266.494 102.876H266.558V104H268.412V98.5241C268.412 96.3615 266.649 95.7116 265.088 95.7116C263.367 95.7116 262.046 96.4787 261.62 97.9702L263.421 98.2259C263.612 97.6665 264.156 97.1871 265.098 97.1871C265.993 97.1871 266.483 97.6452 266.483 98.4496V98.4815C266.483 99.0355 265.903 99.0621 264.459 99.2166C262.872 99.3871 261.354 99.8612 261.354 101.704C261.354 103.313 262.531 104.165 264.092 104.165ZM264.592 102.748C263.788 102.748 263.213 102.381 263.213 101.672C263.213 100.932 263.857 100.623 264.72 100.5C265.226 100.431 266.238 100.303 266.489 100.101V101.065C266.489 101.976 265.754 102.748 264.592 102.748ZM274.359 107.239C276.569 107.239 278.199 106.227 278.199 104.133V95.8182H276.298V97.1712H276.191C275.898 96.5799 275.286 95.7116 273.842 95.7116C271.951 95.7116 270.465 97.1925 270.465 99.8825C270.465 102.551 271.951 103.883 273.837 103.883C275.238 103.883 275.893 103.132 276.191 102.53H276.287V104.08C276.287 105.284 275.488 105.779 274.391 105.779C273.23 105.779 272.718 105.23 272.484 104.751L270.747 105.172C271.099 106.317 272.276 107.239 274.359 107.239ZM274.375 102.37C273.102 102.37 272.431 101.379 272.431 99.8718C272.431 98.3857 273.091 97.2937 274.375 97.2937C275.616 97.2937 276.298 98.3217 276.298 99.8718C276.298 101.433 275.605 102.37 274.375 102.37ZM284.248 104.16C286.155 104.16 287.465 103.228 287.806 101.805L286.006 101.603C285.745 102.295 285.105 102.658 284.274 102.658C283.028 102.658 282.202 101.837 282.186 100.436H287.886V99.8452C287.886 96.9741 286.16 95.7116 284.147 95.7116C281.803 95.7116 280.274 97.4322 280.274 99.957C280.274 102.525 281.782 104.16 284.248 104.16ZM282.192 99.1367C282.25 98.0927 283.023 97.2138 284.173 97.2138C285.281 97.2138 286.027 98.0234 286.038 99.1367H282.192Z" fill="#6048E5"/>
<path d="M161.139 123.142C161.139 121.837 161.965 121.091 163.099 121.091C164.196 121.091 164.852 121.789 164.852 122.988V128H166.444V122.796C166.444 120.756 165.326 119.712 163.642 119.712C162.369 119.712 161.602 120.266 161.219 121.15H161.118V117.091H159.546V128H161.139V123.142ZM172.389 119.818H170.711V117.858H169.118V119.818H167.92V121.097H169.118V125.928C169.113 127.414 170.248 128.133 171.505 128.107C172.011 128.101 172.352 128.005 172.538 127.936L172.25 126.62C172.144 126.642 171.947 126.69 171.691 126.69C171.174 126.69 170.711 126.519 170.711 125.598V121.097H172.389V119.818ZM177.97 119.818H176.292V117.858H174.699V119.818H173.501V121.097H174.699V125.928C174.694 127.414 175.829 128.133 177.086 128.107C177.592 128.101 177.933 128.005 178.119 127.936L177.831 126.62C177.725 126.642 177.528 126.69 177.272 126.69C176.756 126.69 176.292 126.519 176.292 125.598V121.097H177.97V119.818ZM179.732 131.068H181.324V126.727H181.42C181.708 127.249 182.294 128.16 183.785 128.16C185.767 128.16 187.205 126.572 187.205 123.925C187.205 121.272 185.746 119.712 183.769 119.712C182.251 119.712 181.703 120.638 181.42 121.145H181.287V119.818H179.732V131.068ZM181.293 123.909C181.293 122.199 182.038 121.065 183.429 121.065C184.872 121.065 185.597 122.284 185.597 123.909C185.597 125.55 184.851 126.801 183.429 126.801C182.06 126.801 181.293 125.63 181.293 123.909ZM195.121 121.816C194.79 120.543 193.794 119.712 192.026 119.712C190.177 119.712 188.867 120.686 188.867 122.135C188.867 123.297 189.57 124.069 191.104 124.41L192.489 124.713C193.278 124.889 193.645 125.241 193.645 125.752C193.645 126.386 192.969 126.881 191.925 126.881C190.971 126.881 190.359 126.471 190.167 125.667L188.627 125.901C188.894 127.35 190.098 128.165 191.935 128.165C193.911 128.165 195.28 127.116 195.28 125.635C195.28 124.479 194.545 123.765 193.043 123.419L191.744 123.121C190.843 122.908 190.454 122.604 190.46 122.05C190.454 121.422 191.136 120.974 192.042 120.974C193.033 120.974 193.491 121.523 193.677 122.071L195.121 121.816ZM198.081 122.146C198.662 122.146 199.146 121.672 199.146 121.081C199.146 120.5 198.662 120.021 198.081 120.021C197.495 120.021 197.016 120.5 197.016 121.081C197.016 121.672 197.495 122.146 198.081 122.146ZM198.081 128.101C198.662 128.101 199.146 127.627 199.146 127.036C199.146 126.455 198.662 125.976 198.081 125.976C197.495 125.976 197.016 126.455 197.016 127.036C197.016 127.627 197.495 128.101 198.081 128.101ZM205.434 116.58H204.012L200.497 129.641H201.919L205.434 116.58ZM210.942 116.58H209.52L206.004 129.641H207.427L210.942 116.58ZM212.295 131.068H213.888V126.727H213.984C214.271 127.249 214.857 128.16 216.349 128.16C218.33 128.16 219.769 126.572 219.769 123.925C219.769 121.272 218.309 119.712 216.333 119.712C214.815 119.712 214.266 120.638 213.984 121.145H213.851V119.818H212.295V131.068ZM213.856 123.909C213.856 122.199 214.602 121.065 215.992 121.065C217.436 121.065 218.16 122.284 218.16 123.909C218.16 125.55 217.414 126.801 215.992 126.801C214.623 126.801 213.856 125.63 213.856 123.909ZM221.553 128H223.146V123.004C223.146 121.933 223.971 121.161 225.101 121.161C225.431 121.161 225.804 121.219 225.932 121.256V119.733C225.772 119.712 225.458 119.696 225.255 119.696C224.296 119.696 223.476 120.239 223.178 121.118H223.093V119.818H221.553V128ZM230.463 128.165C232.77 128.165 234.277 126.477 234.277 123.946C234.277 121.4 232.77 119.712 230.463 119.712C228.157 119.712 226.649 121.4 226.649 123.946C226.649 126.477 228.157 128.165 230.463 128.165ZM230.469 126.828C228.961 126.828 228.258 125.512 228.258 123.941C228.258 122.375 228.961 121.043 230.469 121.043C231.965 121.043 232.669 122.375 232.669 123.941C232.669 125.512 231.965 126.828 230.469 126.828ZM239.949 119.818H238.186V119.083C238.186 118.359 238.484 117.964 239.262 117.964C239.592 117.964 239.826 118.039 239.975 118.087L240.348 116.798C240.125 116.713 239.661 116.58 239.017 116.58C237.722 116.58 236.588 117.336 236.588 118.87V119.818H235.325V121.097H236.588V128H238.186V121.097H239.949V119.818ZM241.592 128H243.185V119.818H241.592V128ZM242.396 118.556C242.945 118.556 243.403 118.13 243.403 117.608C243.403 117.086 242.945 116.654 242.396 116.654C241.843 116.654 241.39 117.086 241.39 117.608C241.39 118.13 241.843 118.556 242.396 118.556ZM246.92 117.091H245.328V128H246.92V117.091ZM252.589 128.165C254.374 128.165 255.636 127.286 255.998 125.955L254.491 125.683C254.203 126.455 253.511 126.849 252.605 126.849C251.241 126.849 250.325 125.965 250.283 124.388H256.099V123.824C256.099 120.868 254.331 119.712 252.477 119.712C250.197 119.712 248.695 121.448 248.695 123.962C248.695 126.503 250.176 128.165 252.589 128.165ZM250.288 123.195C250.352 122.034 251.194 121.027 252.488 121.027C253.724 121.027 254.533 121.944 254.539 123.195H250.288ZM258.916 128.101C259.497 128.101 259.981 127.627 259.981 127.036C259.981 126.455 259.497 125.976 258.916 125.976C258.33 125.976 257.851 126.455 257.851 127.036C257.851 127.627 258.33 128.101 258.916 128.101ZM262.115 131.068H263.707V126.727H263.803C264.091 127.249 264.677 128.16 266.168 128.16C268.15 128.16 269.588 126.572 269.588 123.925C269.588 121.272 268.128 119.712 266.152 119.712C264.634 119.712 264.085 120.638 263.803 121.145H263.67V119.818H262.115V131.068ZM263.675 123.909C263.675 122.199 264.421 121.065 265.811 121.065C267.255 121.065 267.979 122.284 267.979 123.909C267.979 125.55 267.234 126.801 265.811 126.801C264.442 126.801 263.675 125.63 263.675 123.909ZM272.965 123.142C272.965 121.837 273.764 121.091 274.872 121.091C275.953 121.091 276.609 121.8 276.609 122.988V128H278.201V122.796C278.201 120.772 277.088 119.712 275.415 119.712C274.185 119.712 273.381 120.282 273.002 121.15H272.901V119.818H271.372V128H272.965V123.142ZM283.768 131.239C285.85 131.239 287.459 130.285 287.459 128.181V119.818H285.898V121.145H285.781C285.499 120.638 284.934 119.712 283.411 119.712C281.435 119.712 279.98 121.272 279.98 123.877C279.98 126.487 281.467 127.877 283.4 127.877C284.902 127.877 285.483 127.031 285.771 126.509H285.872V128.117C285.872 129.401 284.993 129.955 283.784 129.955C282.457 129.955 281.941 129.289 281.658 128.82L280.289 129.385C280.721 130.386 281.813 131.239 283.768 131.239ZM283.752 126.556C282.329 126.556 281.589 125.464 281.589 123.856C281.589 122.284 282.313 121.065 283.752 121.065C285.142 121.065 285.888 122.199 285.888 123.856C285.888 125.544 285.126 126.556 283.752 126.556Z" fill="#9EACBA"/>
<circle cx="305" cy="99" r="8" fill="url(#paint6_linear_1601_16718)"/>
<circle cx="514" cy="147" r="8" fill="url(#paint7_linear_1601_16718)"/>
<path d="M531.309 152H533.238V143.818H531.309V152ZM532.279 142.657C532.891 142.657 533.392 142.188 533.392 141.613C533.392 141.032 532.891 140.564 532.279 140.564C531.661 140.564 531.16 141.032 531.16 141.613C531.16 142.188 531.661 142.657 532.279 142.657ZM539.756 143.818H538.142V141.858H536.214V143.818H535.053V145.31H536.214V149.859C536.203 151.398 537.322 152.154 538.771 152.112C539.319 152.096 539.697 151.989 539.905 151.92L539.58 150.413C539.474 150.439 539.255 150.487 539.016 150.487C538.531 150.487 538.142 150.317 538.142 149.539V145.31H539.756V143.818ZM545.353 152.16C547.26 152.16 548.57 151.228 548.911 149.805L547.111 149.603C546.85 150.295 546.211 150.658 545.38 150.658C544.133 150.658 543.308 149.837 543.292 148.436H548.991V147.845C548.991 144.974 547.265 143.712 545.252 143.712C542.908 143.712 541.379 145.432 541.379 147.957C541.379 150.525 542.887 152.16 545.353 152.16ZM543.297 147.137C543.355 146.093 544.128 145.214 545.278 145.214C546.386 145.214 547.132 146.023 547.143 147.137H543.297ZM551.072 152H553.001V147.025C553.001 146.018 553.672 145.336 554.503 145.336C555.318 145.336 555.877 145.885 555.877 146.727V152H557.768V146.897C557.768 145.975 558.317 145.336 559.249 145.336C560.027 145.336 560.644 145.794 560.644 146.806V152H562.578V146.508C562.578 144.681 561.523 143.712 560.021 143.712C558.833 143.712 557.928 144.298 557.566 145.208H557.48C557.166 144.282 556.372 143.712 555.27 143.712C554.173 143.712 553.352 144.276 553.011 145.208H552.915V143.818H551.072V152ZM565.07 152H571.85V150.343H567.046V141.091H565.07V152ZM573.93 152H575.859V143.818H573.93V152ZM574.9 142.657C575.512 142.657 576.013 142.188 576.013 141.613C576.013 141.032 575.512 140.564 574.9 140.564C574.282 140.564 573.781 141.032 573.781 141.613C573.781 142.188 574.282 142.657 574.9 142.657ZM584.758 145.981C584.492 144.596 583.384 143.712 581.466 143.712C579.495 143.712 578.153 144.681 578.158 146.194C578.153 147.387 578.888 148.175 580.46 148.5L581.855 148.793C582.606 148.958 582.958 149.262 582.958 149.725C582.958 150.285 582.35 150.706 581.434 150.706C580.55 150.706 579.975 150.322 579.81 149.587L577.929 149.768C578.169 151.27 579.431 152.16 581.44 152.16C583.485 152.16 584.929 151.1 584.934 149.55C584.929 148.383 584.178 147.669 582.633 147.334L581.237 147.036C580.406 146.849 580.076 146.561 580.081 146.087C580.076 145.533 580.689 145.15 581.493 145.15C582.382 145.15 582.851 145.635 583 146.173L584.758 145.981ZM591.06 143.818H589.446V141.858H587.517V143.818H586.356V145.31H587.517V149.859C587.507 151.398 588.625 152.154 590.074 152.112C590.623 152.096 591.001 151.989 591.209 151.92L590.884 150.413C590.777 150.439 590.559 150.487 590.319 150.487C589.834 150.487 589.446 150.317 589.446 149.539V145.31H591.06V143.818Z" fill="#6048E5"/>
<path d="M532.169 178.269H535.669V177.007H533.692V165.943H535.669V164.681H532.169V178.269ZM538.248 176.101C538.829 176.101 539.313 175.627 539.313 175.036C539.313 174.455 538.829 173.976 538.248 173.976C537.662 173.976 537.183 174.455 537.183 175.036C537.183 175.627 537.662 176.101 538.248 176.101ZM542.496 176.101C543.077 176.101 543.561 175.627 543.561 175.036C543.561 174.455 543.077 173.976 542.496 173.976C541.91 173.976 541.431 174.455 541.431 175.036C541.431 175.627 541.91 176.101 542.496 176.101ZM546.744 176.101C547.325 176.101 547.809 175.627 547.809 175.036C547.809 174.455 547.325 173.976 546.744 173.976C546.158 173.976 545.679 174.455 545.679 175.036C545.679 175.627 546.158 176.101 546.744 176.101ZM552.83 164.681H549.33V165.943H551.306V177.007H549.33V178.269H552.83V164.681Z" fill="#64778C"/>
<line x1="402.5" y1="295" x2="402.5" y2="374" stroke="url(#paint8_linear_1601_16718)"/>
<circle cx="693" cy="195" r="8" fill="url(#paint9_linear_1601_16718)"/>
<path d="M712.34 189.091H710.411V200H712.34V189.091ZM714.773 200H716.701V191.818H714.773V200ZM715.742 190.657C716.355 190.657 716.855 190.188 716.855 189.613C716.855 189.032 716.355 188.564 715.742 188.564C715.124 188.564 714.623 189.032 714.623 189.613C714.623 190.188 715.124 190.657 715.742 190.657ZM725.6 193.981C725.334 192.596 724.226 191.712 722.308 191.712C720.337 191.712 718.995 192.681 719 194.194C718.995 195.387 719.73 196.175 721.302 196.5L722.697 196.793C723.448 196.958 723.8 197.262 723.8 197.725C723.8 198.285 723.193 198.706 722.276 198.706C721.392 198.706 720.817 198.322 720.652 197.587L718.771 197.768C719.011 199.27 720.274 200.16 722.282 200.16C724.327 200.16 725.771 199.1 725.776 197.55C725.771 196.383 725.02 195.669 723.475 195.334L722.079 195.036C721.248 194.849 720.918 194.561 720.923 194.087C720.918 193.533 721.531 193.15 722.335 193.15C723.225 193.15 723.693 193.635 723.842 194.173L725.6 193.981ZM731.902 191.818H730.288V189.858H728.359V191.818H727.198V193.31H728.359V197.859C728.349 199.398 729.467 200.154 730.916 200.112C731.465 200.096 731.843 199.989 732.051 199.92L731.726 198.413C731.619 198.439 731.401 198.487 731.161 198.487C730.676 198.487 730.288 198.317 730.288 197.539V193.31H731.902V191.818ZM736.202 189.091H734.225V200H736.202V189.091ZM742.792 191.818H741.178V189.858H739.25V191.818H738.088V193.31H739.25V197.859C739.239 199.398 740.358 200.154 741.806 200.112C742.355 200.096 742.733 199.989 742.941 199.92L742.616 198.413C742.51 198.439 742.291 198.487 742.051 198.487C741.567 198.487 741.178 198.317 741.178 197.539V193.31H742.792V191.818ZM748.389 200.16C750.296 200.16 751.606 199.228 751.947 197.805L750.147 197.603C749.886 198.295 749.246 198.658 748.415 198.658C747.169 198.658 746.343 197.837 746.327 196.436H752.027V195.845C752.027 192.974 750.301 191.712 748.288 191.712C745.944 191.712 744.415 193.432 744.415 195.957C744.415 198.525 745.923 200.16 748.389 200.16ZM746.333 195.137C746.391 194.093 747.164 193.214 748.314 193.214C749.422 193.214 750.168 194.023 750.179 195.137H746.333ZM754.108 200H756.037V195.025C756.037 194.018 756.708 193.336 757.539 193.336C758.354 193.336 758.913 193.885 758.913 194.727V200H760.804V194.897C760.804 193.975 761.353 193.336 762.285 193.336C763.062 193.336 763.68 193.794 763.68 194.806V200H765.614V194.508C765.614 192.681 764.559 191.712 763.057 191.712C761.869 191.712 760.964 192.298 760.602 193.208H760.516C760.202 192.282 759.408 191.712 758.306 191.712C757.208 191.712 756.388 192.276 756.047 193.208H755.951V191.818H754.108V200Z" fill="#6048E5"/>
<path d="M709.969 216.5H711.332V215.461C711.332 214.657 711.684 213.98 712.115 213.347L711.327 212.782C710.512 213.437 709.969 214.572 709.969 215.477V216.5ZM712.685 216.5H714.049V215.461C714.049 214.657 714.401 213.98 714.832 213.347L714.044 212.782C713.229 213.437 712.685 214.572 712.685 215.477V216.5ZM718.465 224H720.127L722.423 215.829H722.508L724.804 224H726.46L729.491 213.091H727.755L725.635 221.544H725.533L723.323 213.091H721.608L719.397 221.539H719.296L717.17 213.091H715.439L718.465 224ZM730.351 224H731.944V219.004C731.944 217.933 732.77 217.161 733.899 217.161C734.229 217.161 734.602 217.219 734.73 217.256V215.733C734.57 215.712 734.256 215.696 734.053 215.696C733.095 215.696 732.274 216.239 731.976 217.118H731.891V215.818H730.351V224ZM736.108 224H737.701V215.818H736.108V224ZM736.913 214.556C737.461 214.556 737.919 214.13 737.919 213.608C737.919 213.086 737.461 212.654 736.913 212.654C736.359 212.654 735.906 213.086 735.906 213.608C735.906 214.13 736.359 214.556 736.913 214.556ZM743.663 215.818H741.985V213.858H740.392V215.818H739.194V217.097H740.392V221.928C740.387 223.414 741.522 224.133 742.779 224.107C743.285 224.101 743.626 224.005 743.812 223.936L743.524 222.62C743.418 222.642 743.221 222.69 742.965 222.69C742.448 222.69 741.985 222.519 741.985 221.598V217.097H743.663V215.818ZM748.863 224.165C750.648 224.165 751.91 223.286 752.272 221.955L750.765 221.683C750.477 222.455 749.785 222.849 748.879 222.849C747.515 222.849 746.599 221.965 746.557 220.388H752.373V219.824C752.373 216.868 750.605 215.712 748.751 215.712C746.471 215.712 744.969 217.448 744.969 219.962C744.969 222.503 746.45 224.165 748.863 224.165ZM746.562 219.195C746.626 218.034 747.467 217.027 748.762 217.027C749.998 217.027 750.807 217.944 750.813 219.195H746.562ZM761.929 215.818H760.252V213.858H758.659V215.818H757.46V217.097H758.659V221.928C758.654 223.414 759.788 224.133 761.045 224.107C761.551 224.101 761.892 224.005 762.079 223.936L761.791 222.62C761.684 222.642 761.487 222.69 761.232 222.69C760.715 222.69 760.252 222.519 760.252 221.598V217.097H761.929V215.818ZM767.13 224.165C768.914 224.165 770.177 223.286 770.539 221.955L769.031 221.683C768.744 222.455 768.051 222.849 767.146 222.849C765.782 222.849 764.866 221.965 764.823 220.388H770.64V219.824C770.64 216.868 768.871 215.712 767.018 215.712C764.738 215.712 763.236 217.448 763.236 219.962C763.236 222.503 764.717 224.165 767.13 224.165ZM764.829 219.195C764.892 218.034 765.734 217.027 767.028 217.027C768.264 217.027 769.074 217.944 769.079 219.195H764.829ZM778.538 217.816C778.208 216.543 777.212 215.712 775.443 215.712C773.595 215.712 772.285 216.686 772.285 218.135C772.285 219.297 772.988 220.069 774.522 220.41L775.907 220.713C776.695 220.889 777.063 221.241 777.063 221.752C777.063 222.386 776.386 222.881 775.342 222.881C774.389 222.881 773.776 222.471 773.584 221.667L772.045 221.901C772.311 223.35 773.515 224.165 775.353 224.165C777.329 224.165 778.698 223.116 778.698 221.635C778.698 220.479 777.963 219.765 776.461 219.419L775.161 219.121C774.261 218.908 773.872 218.604 773.877 218.05C773.872 217.422 774.554 216.974 775.459 216.974C776.45 216.974 776.908 217.523 777.095 218.071L778.538 217.816ZM784.268 215.818H782.59V213.858H780.998V215.818H779.799V217.097H780.998V221.928C780.992 223.414 782.127 224.133 783.384 224.107C783.89 224.101 784.231 224.005 784.417 223.936L784.13 222.62C784.023 222.642 783.826 222.69 783.571 222.69C783.054 222.69 782.59 222.519 782.59 221.598V217.097H784.268V215.818ZM792.029 217.816C791.699 216.543 790.703 215.712 788.935 215.712C787.086 215.712 785.776 216.686 785.776 218.135C785.776 219.297 786.479 220.069 788.013 220.41L789.398 220.713C790.186 220.889 790.554 221.241 790.554 221.752C790.554 222.386 789.877 222.881 788.833 222.881C787.88 222.881 787.267 222.471 787.076 221.667L785.536 221.901C785.802 223.35 787.006 224.165 788.844 224.165C790.82 224.165 792.189 223.116 792.189 221.635C792.189 220.479 791.454 219.765 789.952 219.419L788.652 219.121C787.752 218.908 787.363 218.604 787.368 218.05C787.363 217.422 788.045 216.974 788.951 216.974C789.941 216.974 790.399 217.523 790.586 218.071L792.029 217.816ZM795.309 213.091H793.946V214.13C793.946 214.955 793.583 215.632 793.168 216.244L793.956 216.809C794.777 216.148 795.309 215.019 795.309 214.114V213.091ZM798.021 213.091H796.657V214.13C796.657 214.955 796.295 215.632 795.879 216.244L796.668 216.809C797.488 216.148 798.021 215.019 798.021 214.114V213.091Z" fill="#64778C"/>
<circle cx="579" cy="12" r="8" fill="url(#paint10_linear_1601_16718)"/>
<path d="M598.34 6.09091H596.411V17H598.34V6.09091ZM600.773 17H602.701V8.81818H600.773V17ZM601.742 7.65696C602.355 7.65696 602.855 7.18821 602.855 6.61293C602.855 6.03232 602.355 5.56357 601.742 5.56357C601.124 5.56357 600.623 6.03232 600.623 6.61293C600.623 7.18821 601.124 7.65696 601.742 7.65696ZM611.6 10.9808C611.334 9.59588 610.226 8.71165 608.308 8.71165C606.337 8.71165 604.995 9.68111 605 11.1939C604.995 12.3871 605.73 13.1754 607.302 13.5004L608.697 13.7933C609.448 13.9585 609.8 14.2621 609.8 14.7255C609.8 15.2848 609.193 15.7056 608.276 15.7056C607.392 15.7056 606.817 15.3221 606.652 14.587L604.771 14.7681C605.011 16.2702 606.274 17.1598 608.282 17.1598C610.327 17.1598 611.771 16.0998 611.776 14.5497C611.771 13.3832 611.02 12.6694 609.475 12.3338L608.079 12.0355C607.248 11.8491 606.918 11.5614 606.923 11.0874C606.918 10.5334 607.531 10.1499 608.335 10.1499C609.225 10.1499 609.693 10.6346 609.842 11.1726L611.6 10.9808ZM617.902 8.81818H616.288V6.85795H614.359V8.81818H613.198V10.3097H614.359V14.8587C614.349 16.3981 615.467 17.1545 616.916 17.1119C617.465 17.0959 617.843 16.9893 618.051 16.9201L617.726 15.4126C617.619 15.4393 617.401 15.4872 617.161 15.4872C616.676 15.4872 616.288 15.3168 616.288 14.5391V10.3097H617.902V8.81818ZM622.202 6.09091H620.225V17H622.202V6.09091ZM628.792 8.81818H627.178V6.85795H625.25V8.81818H624.088V10.3097H625.25V14.8587C625.239 16.3981 626.358 17.1545 627.806 17.1119C628.355 17.0959 628.733 16.9893 628.941 16.9201L628.616 15.4126C628.51 15.4393 628.291 15.4872 628.051 15.4872C627.567 15.4872 627.178 15.3168 627.178 14.5391V10.3097H628.792V8.81818ZM634.389 17.1598C636.296 17.1598 637.606 16.2276 637.947 14.8054L636.147 14.603C635.886 15.2955 635.246 15.6577 634.415 15.6577C633.169 15.6577 632.343 14.8374 632.327 13.4364H638.027V12.8452C638.027 9.97408 636.301 8.71165 634.288 8.71165C631.944 8.71165 630.415 10.4322 630.415 12.957C630.415 15.5245 631.923 17.1598 634.389 17.1598ZM632.333 12.1367C632.391 11.0927 633.164 10.2138 634.314 10.2138C635.422 10.2138 636.168 11.0234 636.179 12.1367H632.333ZM640.108 17H642.037V12.0249C642.037 11.0181 642.708 10.3363 643.539 10.3363C644.354 10.3363 644.913 10.8849 644.913 11.7266V17H646.804V11.897C646.804 10.9755 647.353 10.3363 648.285 10.3363C649.062 10.3363 649.68 10.7944 649.68 11.8065V17H651.614V11.5082C651.614 9.68111 650.559 8.71165 649.057 8.71165C647.869 8.71165 646.964 9.29759 646.602 10.2085H646.516C646.202 9.2816 645.408 8.71165 644.306 8.71165C643.208 8.71165 642.388 9.27628 642.047 10.2085H641.951V8.81818H640.108V17Z" fill="#6048E5"/>
<path d="M596.099 33.5H597.462V32.4613C597.462 31.657 597.814 30.9805 598.245 30.3466L597.457 29.782C596.642 30.4371 596.099 31.5717 596.099 32.4773V33.5ZM598.815 33.5H600.179V32.4613C600.179 31.657 600.53 30.9805 600.962 30.3466L600.174 29.782C599.359 30.4371 598.815 31.5717 598.815 32.4773V33.5ZM604.105 30.0909H602.459V41H604.105V30.0909ZM606.374 41H607.967V35.9556C607.967 34.853 608.739 34.0859 609.644 34.0859C610.529 34.0859 611.141 34.6719 611.141 35.5614V41H612.729V35.7852C612.729 34.7997 613.331 34.0859 614.369 34.0859C615.211 34.0859 615.903 34.5547 615.903 35.6626V41H617.496V35.5135C617.496 33.6438 616.452 32.7116 614.971 32.7116C613.794 32.7116 612.91 33.2763 612.516 34.1499H612.43C612.073 33.255 611.322 32.7116 610.23 32.7116C609.149 32.7116 608.345 33.2496 608.004 34.1499H607.903V32.8182H606.374V41ZM619.631 44.0682H621.223V39.7269H621.319C621.607 40.2489 622.193 41.1598 623.684 41.1598C625.666 41.1598 627.104 39.5724 627.104 36.9251C627.104 34.2724 625.645 32.7116 623.668 32.7116C622.15 32.7116 621.602 33.6385 621.319 34.1445H621.186V32.8182H619.631V44.0682ZM621.191 36.9091C621.191 35.1992 621.937 34.0646 623.327 34.0646C624.771 34.0646 625.495 35.2844 625.495 36.9091C625.495 38.5497 624.75 39.8015 623.327 39.8015C621.958 39.8015 621.191 38.6296 621.191 36.9091ZM630.481 30.0909H628.889V41H630.481V30.0909ZM636.15 41.1651C637.935 41.1651 639.197 40.2862 639.559 38.9545L638.052 38.6829C637.764 39.4553 637.072 39.8494 636.166 39.8494C634.803 39.8494 633.886 38.9652 633.844 37.3885H639.66V36.8239C639.66 33.8675 637.892 32.7116 636.038 32.7116C633.758 32.7116 632.256 34.4482 632.256 36.9624C632.256 39.5032 633.737 41.1651 636.15 41.1651ZM633.849 36.1953C633.913 35.0341 634.755 34.0273 636.049 34.0273C637.285 34.0273 638.094 34.9435 638.1 36.1953H633.849ZM641.428 41H643.02V35.9556C643.02 34.853 643.793 34.0859 644.698 34.0859C645.582 34.0859 646.195 34.6719 646.195 35.5614V41H647.782V35.7852C647.782 34.7997 648.384 34.0859 649.423 34.0859C650.265 34.0859 650.957 34.5547 650.957 35.6626V41H652.55V35.5135C652.55 33.6438 651.506 32.7116 650.025 32.7116C648.848 32.7116 647.963 33.2763 647.569 34.1499H647.484C647.127 33.255 646.376 32.7116 645.284 32.7116C644.203 32.7116 643.398 33.2496 643.058 34.1499H642.956V32.8182H641.428V41ZM658.211 41.1651C659.995 41.1651 661.258 40.2862 661.62 38.9545L660.112 38.6829C659.825 39.4553 659.132 39.8494 658.227 39.8494C656.863 39.8494 655.947 38.9652 655.904 37.3885H661.721V36.8239C661.721 33.8675 659.953 32.7116 658.099 32.7116C655.819 32.7116 654.317 34.4482 654.317 36.9624C654.317 39.5032 655.798 41.1651 658.211 41.1651ZM655.91 36.1953C655.973 35.0341 656.815 34.0273 658.11 34.0273C659.345 34.0273 660.155 34.9435 660.16 36.1953H655.91ZM665.081 36.142C665.081 34.837 665.88 34.0913 666.988 34.0913C668.069 34.0913 668.724 34.7997 668.724 35.9876V41H670.317V35.7958C670.317 33.7717 669.204 32.7116 667.531 32.7116C666.301 32.7116 665.496 33.2816 665.118 34.1499H665.017V32.8182H663.488V41H665.081V36.142ZM676.272 32.8182H674.594V30.858H673.002V32.8182H671.803V34.0966H673.002V38.9279C672.996 40.4141 674.131 41.1332 675.388 41.1065C675.894 41.1012 676.235 41.0053 676.421 40.9361L676.134 39.6204C676.027 39.6417 675.83 39.6896 675.574 39.6896C675.058 39.6896 674.594 39.5192 674.594 38.5977V34.0966H676.272V32.8182ZM685.067 41.1598C686.558 41.1598 687.144 40.2489 687.432 39.7269H687.565V41H689.12V30.0909H687.528V34.1445H687.432C687.144 33.6385 686.601 32.7116 685.077 32.7116C683.101 32.7116 681.647 34.2724 681.647 36.9251C681.647 39.5724 683.08 41.1598 685.067 41.1598ZM685.418 39.8015C683.996 39.8015 683.256 38.5497 683.256 36.9091C683.256 35.2844 683.98 34.0646 685.418 34.0646C686.808 34.0646 687.554 35.1992 687.554 36.9091C687.554 38.6296 686.792 39.8015 685.418 39.8015ZM691.393 41H692.986V36.0036C692.986 34.9329 693.812 34.1605 694.941 34.1605C695.271 34.1605 695.644 34.2191 695.772 34.2564V32.733C695.612 32.7116 695.298 32.6957 695.095 32.6957C694.137 32.6957 693.316 33.239 693.018 34.1179H692.933V32.8182H691.393V41ZM700.304 41.1651C702.61 41.1651 704.118 39.4766 704.118 36.9464C704.118 34.4002 702.61 32.7116 700.304 32.7116C697.997 32.7116 696.49 34.4002 696.49 36.9464C696.49 39.4766 697.997 41.1651 700.304 41.1651ZM700.309 39.8281C698.802 39.8281 698.098 38.5124 698.098 36.9411C698.098 35.375 698.802 34.0433 700.309 34.0433C701.806 34.0433 702.509 35.375 702.509 36.9411C702.509 38.5124 701.806 39.8281 700.309 39.8281ZM705.895 44.0682H707.488V39.7269H707.584C707.872 40.2489 708.458 41.1598 709.949 41.1598C711.931 41.1598 713.369 39.5724 713.369 36.9251C713.369 34.2724 711.909 32.7116 709.933 32.7116C708.415 32.7116 707.866 33.6385 707.584 34.1445H707.451V32.8182H705.895V44.0682ZM707.456 36.9091C707.456 35.1992 708.202 34.0646 709.592 34.0646C711.036 34.0646 711.76 35.2844 711.76 36.9091C711.76 38.5497 711.014 39.8015 709.592 39.8015C708.223 39.8015 707.456 38.6296 707.456 36.9091ZM718.216 41.1598C719.708 41.1598 720.293 40.2489 720.581 39.7269H720.714V41H722.27V30.0909H720.677V34.1445H720.581C720.293 33.6385 719.75 32.7116 718.227 32.7116C716.25 32.7116 714.796 34.2724 714.796 36.9251C714.796 39.5724 716.229 41.1598 718.216 41.1598ZM718.568 39.8015C717.145 39.8015 716.405 38.5497 716.405 36.9091C716.405 35.2844 717.129 34.0646 718.568 34.0646C719.958 34.0646 720.704 35.1992 720.704 36.9091C720.704 38.6296 719.942 39.8015 718.568 39.8015ZM727.989 41.1651C730.296 41.1651 731.803 39.4766 731.803 36.9464C731.803 34.4002 730.296 32.7116 727.989 32.7116C725.683 32.7116 724.175 34.4002 724.175 36.9464C724.175 39.4766 725.683 41.1651 727.989 41.1651ZM727.995 39.8281C726.487 39.8281 725.784 38.5124 725.784 36.9411C725.784 35.375 726.487 34.0433 727.995 34.0433C729.491 34.0433 730.194 35.375 730.194 36.9411C730.194 38.5124 729.491 39.8281 727.995 39.8281ZM735.106 41H736.725L738.387 35.0927H738.509L740.171 41H741.796L744.198 32.8182H742.552L740.96 38.8001H740.88L739.282 32.8182H737.636L736.027 38.8267H735.947L734.344 32.8182H732.698L735.106 41ZM747.303 36.142C747.303 34.837 748.102 34.0913 749.209 34.0913C750.291 34.0913 750.946 34.7997 750.946 35.9876V41H752.539V35.7958C752.539 33.7717 751.425 32.7116 749.753 32.7116C748.522 32.7116 747.718 33.2816 747.34 34.1499H747.239V32.8182H745.71V41H747.303V36.142ZM758.644 41H760.237V35.9556C760.237 34.853 761.009 34.0859 761.915 34.0859C762.799 34.0859 763.412 34.6719 763.412 35.5614V41H764.999V35.7852C764.999 34.7997 765.601 34.0859 766.64 34.0859C767.481 34.0859 768.174 34.5547 768.174 35.6626V41H769.767V35.5135C769.767 33.6438 768.723 32.7116 767.242 32.7116C766.064 32.7116 765.18 33.2763 764.786 34.1499H764.701C764.344 33.255 763.593 32.7116 762.501 32.7116C761.42 32.7116 760.615 33.2496 760.274 34.1499H760.173V32.8182H758.644V41ZM775.428 41.1651C777.212 41.1651 778.474 40.2862 778.837 38.9545L777.329 38.6829C777.042 39.4553 776.349 39.8494 775.443 39.8494C774.08 39.8494 773.164 38.9652 773.121 37.3885H778.938V36.8239C778.938 33.8675 777.169 32.7116 775.316 32.7116C773.036 32.7116 771.534 34.4482 771.534 36.9624C771.534 39.5032 773.015 41.1651 775.428 41.1651ZM773.126 36.1953C773.19 35.0341 774.032 34.0273 775.326 34.0273C776.562 34.0273 777.372 34.9435 777.377 36.1953H773.126ZM782.298 36.142C782.298 34.837 783.097 34.0913 784.205 34.0913C785.286 34.0913 785.941 34.7997 785.941 35.9876V41H787.534V35.7958C787.534 33.7717 786.42 32.7116 784.748 32.7116C783.517 32.7116 782.713 33.2816 782.335 34.1499H782.234V32.8182H780.705V41H782.298V36.142ZM794.853 37.6069C794.858 38.9972 793.825 39.6577 792.93 39.6577C791.944 39.6577 791.262 38.9439 791.262 37.8306V32.8182H789.67V38.0224C789.67 40.0518 790.783 41.1065 792.354 41.1065C793.585 41.1065 794.421 40.4567 794.799 39.5831H794.885V41H796.451V32.8182H794.853V37.6069ZM800.179 30.0909H798.816V31.1296C798.816 31.9553 798.454 32.6317 798.038 33.2443L798.826 33.8089C799.647 33.1484 800.179 32.0192 800.179 31.1136V30.0909ZM802.891 30.0909H801.527V31.1296C801.527 31.9553 801.165 32.6317 800.749 33.2443L801.538 33.8089C802.358 33.1484 802.891 32.0192 802.891 31.1136V30.0909Z" fill="#64778C"/>
<circle opacity="0.1" cx="402" cy="247" r="47.5" stroke="#6048E5"/>
<circle opacity="0.3" cx="402" cy="247" r="15" stroke="#6048E5" stroke-width="2"/>
<circle cx="402" cy="247" r="9" fill="url(#paint11_linear_1601_16718)"/>
<path d="M371.453 285H373.429V281.314H375.517C378.037 281.314 379.39 279.801 379.39 277.702C379.39 275.62 378.053 274.091 375.544 274.091H371.453V285ZM373.429 279.689V275.742H375.24C376.721 275.742 377.376 276.541 377.376 277.702C377.376 278.864 376.721 279.689 375.251 279.689H373.429ZM381.556 285H388.694V283.343H383.532V280.366H388.284V278.709H383.532V275.748H388.651V274.091H381.556V285ZM391.118 285H393.094V281.005H395.107L397.249 285H399.454L397.094 280.675C398.378 280.158 399.054 279.061 399.054 277.58C399.054 275.497 397.712 274.091 395.209 274.091H391.118V285ZM393.094 279.364V275.742H394.905C396.38 275.742 397.041 276.419 397.041 277.58C397.041 278.741 396.38 279.364 394.916 279.364H393.094ZM407.252 277.09H409.154C409.116 275.247 407.545 273.942 405.223 273.942C402.932 273.942 401.212 275.231 401.217 277.159C401.217 278.725 402.33 279.625 404.125 280.089L405.366 280.408C406.544 280.707 407.321 281.074 407.327 281.921C407.321 282.853 406.437 283.477 405.148 283.477C403.912 283.477 402.953 282.923 402.874 281.777H400.929C401.009 283.945 402.623 285.165 405.164 285.165C407.779 285.165 409.298 283.86 409.303 281.937C409.298 280.046 407.737 279.183 406.096 278.794L405.073 278.539C404.179 278.326 403.209 277.947 403.22 277.037C403.225 276.216 403.96 275.614 405.196 275.614C406.373 275.614 407.151 276.163 407.252 277.09ZM421.263 279.545C421.263 276.019 419.111 273.942 416.25 273.942C413.384 273.942 411.238 276.019 411.238 279.545C411.238 283.066 413.384 285.149 416.25 285.149C419.111 285.149 421.263 283.072 421.263 279.545ZM419.276 279.545C419.276 282.028 418.029 283.375 416.25 283.375C414.476 283.375 413.225 282.028 413.225 279.545C413.225 277.063 414.476 275.716 416.25 275.716C418.029 275.716 419.276 277.063 419.276 279.545ZM432.546 274.091H430.58V281.527H430.484L425.349 274.091H423.581V285H425.557V277.569H425.648L430.788 285H432.546V274.091Z" fill="#6048E5"/>
<defs>
<linearGradient id="paint0_linear_1601_16718" x1="253" y1="201" x2="253" y2="217" gradientUnits="userSpaceOnUse">
<stop stop-color="#7963F5"/>
<stop offset="1" stop-color="#5D46DB"/>
</linearGradient>
<linearGradient id="paint1_linear_1601_16718" x1="414" y1="236.001" x2="504.726" y2="231.018" gradientUnits="userSpaceOnUse">
<stop stop-color="#BDB4FE"/>
<stop offset="1" stop-color="#BDB4FE" stop-opacity="0"/>
</linearGradient>
<linearGradient id="paint2_linear_1601_16718" x1="517" y1="139.001" x2="572.812" y2="137.742" gradientUnits="userSpaceOnUse">
<stop stop-color="#BDB4FE"/>
<stop offset="1" stop-color="#BDB4FE" stop-opacity="0"/>
</linearGradient>
<linearGradient id="paint3_linear_1601_16718" x1="522" y1="152" x2="684.62" y2="183.07" gradientUnits="userSpaceOnUse">
<stop stop-color="#BDB4FE" stop-opacity="0"/>
<stop offset="1" stop-color="#BDB4FE"/>
</linearGradient>
<linearGradient id="paint4_linear_1601_16718" x1="386" y1="242" x2="264.5" y2="215" gradientUnits="userSpaceOnUse">
<stop stop-color="#BDB4FE"/>
<stop offset="1" stop-color="#BDB4FE" stop-opacity="0"/>
</linearGradient>
<linearGradient id="paint5_linear_1601_16718" x1="393" y1="233.001" x2="314.48" y2="230.65" gradientUnits="userSpaceOnUse">
<stop stop-color="#BDB4FE"/>
<stop offset="1" stop-color="#BDB4FE" stop-opacity="0"/>
</linearGradient>
<linearGradient id="paint6_linear_1601_16718" x1="305" y1="91" x2="305" y2="107" gradientUnits="userSpaceOnUse">
<stop stop-color="#7963F5"/>
<stop offset="1" stop-color="#5D46DB"/>
</linearGradient>
<linearGradient id="paint7_linear_1601_16718" x1="514" y1="139" x2="514" y2="155" gradientUnits="userSpaceOnUse">
<stop stop-color="#7963F5"/>
<stop offset="1" stop-color="#5D46DB"/>
</linearGradient>
<linearGradient id="paint8_linear_1601_16718" x1="401" y1="295" x2="431.874" y2="303.604" gradientUnits="userSpaceOnUse">
<stop stop-color="#BDB4FE"/>
<stop offset="1" stop-color="#BDB4FE" stop-opacity="0"/>
</linearGradient>
<linearGradient id="paint9_linear_1601_16718" x1="693" y1="187" x2="693" y2="203" gradientUnits="userSpaceOnUse">
<stop stop-color="#7963F5"/>
<stop offset="1" stop-color="#5D46DB"/>
</linearGradient>
<linearGradient id="paint10_linear_1601_16718" x1="579" y1="4" x2="579" y2="20" gradientUnits="userSpaceOnUse">
<stop stop-color="#7963F5"/>
<stop offset="1" stop-color="#5D46DB"/>
</linearGradient>
<linearGradient id="paint11_linear_1601_16718" x1="402" y1="238" x2="402" y2="256" gradientUnits="userSpaceOnUse">
<stop stop-color="#7963F5"/>
<stop offset="1" stop-color="#5D46DB"/>
</linearGradient>
</defs>
</svg>
