<svg width="1457" height="444" viewBox="0 0 1457 444" fill="none" xmlns="http://www.w3.org/2000/svg">
<circle cx="1309" cy="258" r="7" stroke="#C5D1DB" stroke-width="2"/>
<path d="M1329.82 263.16C1331.73 263.16 1333.04 262.228 1333.38 260.805L1331.58 260.603C1331.32 261.295 1330.68 261.658 1329.85 261.658C1328.6 261.658 1327.77 260.837 1327.76 259.436H1333.46V258.845C1333.46 255.974 1331.73 254.712 1329.72 254.712C1327.37 254.712 1325.84 256.432 1325.84 258.957C1325.84 261.525 1327.35 263.16 1329.82 263.16ZM1327.76 258.137C1327.82 257.093 1328.59 256.214 1329.74 256.214C1330.85 256.214 1331.6 257.023 1331.61 258.137H1327.76ZM1335.54 263H1337.47V258.025C1337.47 257.018 1338.14 256.336 1338.97 256.336C1339.78 256.336 1340.34 256.885 1340.34 257.727V263H1342.23V257.897C1342.23 256.975 1342.78 256.336 1343.71 256.336C1344.49 256.336 1345.11 256.794 1345.11 257.806V263H1347.04V257.508C1347.04 255.681 1345.99 254.712 1344.49 254.712C1343.3 254.712 1342.39 255.298 1342.03 256.208H1341.95C1341.63 255.282 1340.84 254.712 1339.74 254.712C1338.64 254.712 1337.82 255.276 1337.48 256.208H1337.38V254.818H1335.54V263ZM1351.8 263.165C1353.09 263.165 1353.85 262.563 1354.21 261.876H1354.27V263H1356.12V257.524C1356.12 255.362 1354.36 254.712 1352.8 254.712C1351.08 254.712 1349.76 255.479 1349.33 256.97L1351.13 257.226C1351.32 256.667 1351.87 256.187 1352.81 256.187C1353.71 256.187 1354.2 256.645 1354.2 257.45V257.482C1354.2 258.036 1353.62 258.062 1352.17 258.217C1350.58 258.387 1349.07 258.861 1349.07 260.704C1349.07 262.313 1350.24 263.165 1351.8 263.165ZM1352.3 261.748C1351.5 261.748 1350.93 261.381 1350.93 260.672C1350.93 259.932 1351.57 259.623 1352.43 259.5C1352.94 259.431 1353.95 259.303 1354.2 259.101V260.065C1354.2 260.976 1353.47 261.748 1352.3 261.748ZM1358.51 263H1360.44V254.818H1358.51V263ZM1359.48 253.657C1360.1 253.657 1360.6 253.188 1360.6 252.613C1360.6 252.032 1360.1 251.564 1359.48 251.564C1358.86 251.564 1358.36 252.032 1358.36 252.613C1358.36 253.188 1358.86 253.657 1359.48 253.657ZM1364.8 252.091H1362.87V263H1364.8V252.091Z" fill="#C5D1DB"/>
<path d="M1326.35 283H1327.83V278.292C1327.83 277.263 1328.55 276.547 1329.4 276.547C1330.22 276.547 1330.8 277.094 1330.8 277.924V283H1332.28V278.133C1332.28 277.213 1332.84 276.547 1333.81 276.547C1334.59 276.547 1335.24 276.984 1335.24 278.018V283H1336.73V277.879C1336.73 276.134 1335.75 275.264 1334.37 275.264C1333.27 275.264 1332.45 275.791 1332.08 276.607H1332C1331.67 275.771 1330.97 275.264 1329.95 275.264C1328.94 275.264 1328.19 275.766 1327.87 276.607H1327.77V275.364H1326.35V283ZM1340.94 283.169C1342.21 283.169 1342.92 282.528 1343.2 281.956H1343.26V283H1344.71V277.929C1344.71 275.707 1342.96 275.264 1341.75 275.264C1340.37 275.264 1339.09 275.821 1338.6 277.213L1339.99 277.531C1340.21 276.989 1340.77 276.467 1341.77 276.467C1342.73 276.467 1343.22 276.969 1343.22 277.835V277.869C1343.22 278.411 1342.66 278.401 1341.29 278.56C1339.84 278.729 1338.36 279.107 1338.36 280.842C1338.36 282.344 1339.49 283.169 1340.94 283.169ZM1341.27 281.976C1340.43 281.976 1339.82 281.598 1339.82 280.862C1339.82 280.067 1340.52 279.783 1341.38 279.669C1341.87 279.604 1343.01 279.475 1343.22 279.261V280.246C1343.22 281.151 1342.5 281.976 1341.27 281.976ZM1348.18 278.466C1348.18 277.248 1348.95 276.552 1350.01 276.552C1351.03 276.552 1351.64 277.203 1351.64 278.322V283H1353.13V278.143C1353.13 276.239 1352.08 275.264 1350.51 275.264C1349.33 275.264 1348.61 275.781 1348.25 276.607H1348.16V272.818H1346.69V283H1348.18V278.466ZM1357.33 283.169C1358.6 283.169 1359.31 282.528 1359.59 281.956H1359.65V283H1361.1V277.929C1361.1 275.707 1359.35 275.264 1358.14 275.264C1356.76 275.264 1355.49 275.821 1354.99 277.213L1356.39 277.531C1356.6 276.989 1357.16 276.467 1358.16 276.467C1359.12 276.467 1359.61 276.969 1359.61 277.835V277.869C1359.61 278.411 1359.06 278.401 1357.68 278.56C1356.24 278.729 1354.75 279.107 1354.75 280.842C1354.75 282.344 1355.88 283.169 1357.33 283.169ZM1357.66 281.976C1356.82 281.976 1356.21 281.598 1356.21 280.862C1356.21 280.067 1356.92 279.783 1357.78 279.669C1358.26 279.604 1359.4 279.475 1359.62 279.261V280.246C1359.62 281.151 1358.9 281.976 1357.66 281.976ZM1364.57 278.466C1364.57 277.248 1365.32 276.552 1366.35 276.552C1367.36 276.552 1367.97 277.213 1367.97 278.322V283H1369.46V278.143C1369.46 276.254 1368.42 275.264 1366.86 275.264C1365.71 275.264 1364.96 275.796 1364.6 276.607H1364.51V275.364H1363.08V283H1364.57V278.466ZM1371.45 283H1372.94V275.364H1371.45V283ZM1372.2 274.185C1372.71 274.185 1373.14 273.788 1373.14 273.3C1373.14 272.813 1372.71 272.411 1372.2 272.411C1371.68 272.411 1371.26 272.813 1371.26 273.3C1371.26 273.788 1371.68 274.185 1372.2 274.185ZM1381.07 285.769C1382.22 285.769 1383.54 285.456 1384.16 285.168L1383.81 284.079C1383.39 284.228 1382.25 284.591 1381.13 284.591C1377.79 284.591 1375.99 282.746 1375.99 279.445C1375.99 276.283 1377.77 274.24 1380.95 274.24C1383.86 274.24 1385.59 276.109 1385.59 278.635C1385.59 280.793 1385.31 281.762 1384.41 281.762C1383.9 281.762 1383.61 281.344 1383.61 280.822V276.209H1382.39V276.766H1382.32C1382.18 276.328 1381.31 275.935 1380.27 276.06C1378.83 276.229 1377.6 277.417 1377.6 279.376C1377.6 281.419 1378.65 282.786 1380.32 282.851C1381.45 282.901 1382.19 282.374 1382.42 281.787H1382.48C1382.6 282.587 1383.47 282.94 1384.32 282.911C1386.44 282.871 1386.84 280.783 1386.84 278.685C1386.84 275.692 1384.8 273.087 1381 273.087C1377.01 273.087 1374.67 275.518 1374.67 279.435C1374.67 283.467 1376.96 285.769 1381.07 285.769ZM1380.61 281.633C1379.31 281.633 1378.86 280.519 1378.86 279.316C1378.86 278.173 1379.51 277.263 1380.63 277.263C1381.85 277.263 1382.39 277.8 1382.4 279.311C1382.4 280.862 1381.9 281.633 1380.61 281.633ZM1388.49 283H1389.97V275.364H1388.49V283ZM1389.24 274.185C1389.75 274.185 1390.18 273.788 1390.18 273.3C1390.18 272.813 1389.75 272.411 1389.24 272.411C1388.72 272.411 1388.3 272.813 1388.3 273.3C1388.3 273.788 1388.72 274.185 1389.24 274.185ZM1393.46 278.466C1393.46 277.248 1394.2 276.552 1395.24 276.552C1396.25 276.552 1396.86 277.213 1396.86 278.322V283H1398.35V278.143C1398.35 276.254 1397.31 275.264 1395.75 275.264C1394.6 275.264 1393.85 275.796 1393.49 276.607H1393.4V275.364H1391.97V283H1393.46V278.466ZM1400.46 283H1401.91V281.812H1402.03C1402.3 282.299 1402.85 283.149 1404.24 283.149C1406.09 283.149 1407.43 281.668 1407.43 279.197C1407.43 276.721 1406.07 275.264 1404.23 275.264C1402.81 275.264 1402.3 276.129 1402.03 276.602H1401.94V272.818H1400.46V283ZM1401.92 279.182C1401.92 277.586 1402.61 276.527 1403.91 276.527C1405.26 276.527 1405.93 277.665 1405.93 279.182C1405.93 280.713 1405.24 281.881 1403.91 281.881C1402.63 281.881 1401.92 280.788 1401.92 279.182ZM1412.32 283.154C1414.47 283.154 1415.88 281.578 1415.88 279.217C1415.88 276.84 1414.47 275.264 1412.32 275.264C1410.17 275.264 1408.76 276.84 1408.76 279.217C1408.76 281.578 1410.17 283.154 1412.32 283.154ZM1412.32 281.906C1410.92 281.906 1410.26 280.678 1410.26 279.212C1410.26 277.75 1410.92 276.507 1412.32 276.507C1413.72 276.507 1414.38 277.75 1414.38 279.212C1414.38 280.678 1413.72 281.906 1412.32 281.906ZM1418.4 275.364H1416.77L1419.11 279.182L1416.74 283H1418.37L1420.08 280.146L1421.8 283H1423.43L1421.03 279.182L1423.41 275.364H1421.78L1420.08 278.337L1418.4 275.364ZM1425.91 283.094C1426.46 283.094 1426.91 282.652 1426.91 282.1C1426.91 281.558 1426.46 281.111 1425.91 281.111C1425.37 281.111 1424.92 281.558 1424.92 282.1C1424.92 282.652 1425.37 283.094 1425.91 283.094ZM1432.12 283.154C1433.92 283.154 1435.09 282.07 1435.25 280.584H1433.81C1433.62 281.409 1432.98 281.896 1432.13 281.896C1430.87 281.896 1430.06 280.847 1430.06 279.182C1430.06 277.546 1430.88 276.517 1432.13 276.517C1433.07 276.517 1433.65 277.114 1433.81 277.83H1435.25C1435.09 276.288 1433.84 275.264 1432.1 275.264C1429.95 275.264 1428.56 276.885 1428.56 279.217C1428.56 281.518 1429.9 283.154 1432.12 283.154ZM1440.06 283.154C1442.21 283.154 1443.62 281.578 1443.62 279.217C1443.62 276.84 1442.21 275.264 1440.06 275.264C1437.91 275.264 1436.5 276.84 1436.5 279.217C1436.5 281.578 1437.91 283.154 1440.06 283.154ZM1440.06 281.906C1438.66 281.906 1438 280.678 1438 279.212C1438 277.75 1438.66 276.507 1440.06 276.507C1441.46 276.507 1442.12 277.75 1442.12 279.212C1442.12 280.678 1441.46 281.906 1440.06 281.906ZM1445.28 283H1446.77V278.292C1446.77 277.263 1447.49 276.547 1448.33 276.547C1449.16 276.547 1449.73 277.094 1449.73 277.924V283H1451.21V278.133C1451.21 277.213 1451.77 276.547 1452.74 276.547C1453.53 276.547 1454.17 276.984 1454.17 278.018V283H1455.66V277.879C1455.66 276.134 1454.68 275.264 1453.3 275.264C1452.2 275.264 1451.38 275.791 1451.01 276.607H1450.93C1450.6 275.771 1449.9 275.264 1448.88 275.264C1447.87 275.264 1447.12 275.766 1446.8 276.607H1446.71V275.364H1445.28V283Z" fill="#C5D1DB"/>
<a href="mailto:mahani@inbox.com">
<rect fill="black" fill-opacity="0" x="0.347656" y="-0.971591" width="131.301" height="16.9432"/>
</a>
<circle cx="1237" cy="118" r="7" stroke="#C5D1DB" stroke-width="2"/>
<path d="M1254.23 114.818V123.442C1254.23 124.129 1253.94 124.497 1253.19 124.497C1253.1 124.497 1253.02 124.491 1252.92 124.486V126.058C1253.06 126.068 1253.17 126.068 1253.31 126.068C1255.12 126.068 1256.16 125.237 1256.16 123.469V114.818H1254.23ZM1255.19 113.657C1255.8 113.657 1256.3 113.188 1256.3 112.613C1256.3 112.032 1255.8 111.564 1255.19 111.564C1254.57 111.564 1254.07 112.032 1254.07 112.613C1254.07 113.188 1254.57 113.657 1255.19 113.657ZM1262.16 123.16C1264.56 123.16 1266.08 121.471 1266.08 118.941C1266.08 116.406 1264.56 114.712 1262.16 114.712C1259.76 114.712 1258.24 116.406 1258.24 118.941C1258.24 121.471 1259.76 123.16 1262.16 123.16ZM1262.17 121.615C1260.84 121.615 1260.19 120.433 1260.19 118.936C1260.19 117.439 1260.84 116.24 1262.17 116.24C1263.47 116.24 1264.12 117.439 1264.12 118.936C1264.12 120.433 1263.47 121.615 1262.17 121.615ZM1268.25 123H1270.15V121.711H1270.26C1270.56 122.308 1271.2 123.144 1272.6 123.144C1274.53 123.144 1275.97 121.615 1275.97 118.92C1275.97 116.192 1274.49 114.712 1272.6 114.712C1271.15 114.712 1270.55 115.58 1270.26 116.171H1270.18V112.091H1268.25V123ZM1270.14 118.909C1270.14 117.322 1270.82 116.294 1272.06 116.294C1273.35 116.294 1274.01 117.386 1274.01 118.909C1274.01 120.443 1273.34 121.562 1272.06 121.562C1270.83 121.562 1270.14 120.496 1270.14 118.909ZM1277.07 113.748H1280.44V123H1282.4V113.748H1285.77V112.091H1277.07V113.748ZM1287.82 123H1289.74V114.818H1287.82V123ZM1288.78 113.657C1289.4 113.657 1289.9 113.188 1289.9 112.613C1289.9 112.032 1289.4 111.564 1288.78 111.564C1288.17 111.564 1287.67 112.032 1287.67 112.613C1287.67 113.188 1288.17 113.657 1288.78 113.657ZM1296.26 114.818H1294.65V112.858H1292.72V114.818H1291.56V116.31H1292.72V120.859C1292.71 122.398 1293.83 123.154 1295.28 123.112C1295.83 123.096 1296.2 122.989 1296.41 122.92L1296.09 121.413C1295.98 121.439 1295.76 121.487 1295.52 121.487C1295.04 121.487 1294.65 121.317 1294.65 120.539V116.31H1296.26V114.818ZM1300.43 112.091H1298.5V123H1300.43V112.091ZM1306.48 123.16C1308.39 123.16 1309.7 122.228 1310.04 120.805L1308.24 120.603C1307.98 121.295 1307.34 121.658 1306.51 121.658C1305.26 121.658 1304.44 120.837 1304.42 119.436H1310.12V118.845C1310.12 115.974 1308.4 114.712 1306.38 114.712C1304.04 114.712 1302.51 116.432 1302.51 118.957C1302.51 121.525 1304.02 123.16 1306.48 123.16ZM1304.43 118.137C1304.49 117.093 1305.26 116.214 1306.41 116.214C1307.52 116.214 1308.26 117.023 1308.27 118.137H1304.43Z" fill="#C5D1DB"/>
<path d="M1254.3 147H1255.95V143.165H1258.18C1260.71 143.165 1261.97 141.636 1261.97 139.623C1261.97 137.614 1260.73 136.091 1258.19 136.091H1254.3V147ZM1255.95 141.769V137.502H1258.01C1259.64 137.502 1260.31 138.387 1260.31 139.623C1260.31 140.858 1259.64 141.769 1258.04 141.769H1255.95ZM1263.77 147H1265.36V142.004C1265.36 140.933 1266.19 140.161 1267.32 140.161C1267.65 140.161 1268.02 140.219 1268.15 140.256V138.733C1267.99 138.712 1267.67 138.696 1267.47 138.696C1266.51 138.696 1265.69 139.239 1265.39 140.118H1265.31V138.818H1263.77V147ZM1272.68 147.165C1274.99 147.165 1276.49 145.477 1276.49 142.946C1276.49 140.4 1274.99 138.712 1272.68 138.712C1270.37 138.712 1268.86 140.4 1268.86 142.946C1268.86 145.477 1270.37 147.165 1272.68 147.165ZM1272.68 145.828C1271.18 145.828 1270.47 144.512 1270.47 142.941C1270.47 141.375 1271.18 140.043 1272.68 140.043C1274.18 140.043 1274.88 141.375 1274.88 142.941C1274.88 144.512 1274.18 145.828 1272.68 145.828ZM1281.33 147.16C1282.82 147.16 1283.41 146.249 1283.7 145.727H1283.83V147H1285.39V136.091H1283.79V140.145H1283.7C1283.41 139.638 1282.87 138.712 1281.34 138.712C1279.37 138.712 1277.91 140.272 1277.91 142.925C1277.91 145.572 1279.35 147.16 1281.33 147.16ZM1281.68 145.801C1280.26 145.801 1279.52 144.55 1279.52 142.909C1279.52 141.284 1280.25 140.065 1281.68 140.065C1283.08 140.065 1283.82 141.199 1283.82 142.909C1283.82 144.63 1283.06 145.801 1281.68 145.801ZM1292.84 143.607C1292.85 144.997 1291.81 145.658 1290.92 145.658C1289.93 145.658 1289.25 144.944 1289.25 143.831V138.818H1287.66V144.022C1287.66 146.052 1288.77 147.107 1290.34 147.107C1291.58 147.107 1292.41 146.457 1292.79 145.583H1292.87V147H1294.44V138.818H1292.84V143.607ZM1300.03 147.165C1301.96 147.165 1303.21 146.004 1303.39 144.411H1301.84C1301.64 145.295 1300.95 145.817 1300.04 145.817C1298.69 145.817 1297.82 144.694 1297.82 142.909C1297.82 141.157 1298.71 140.054 1300.04 140.054C1301.05 140.054 1301.67 140.693 1301.84 141.46H1303.39C1303.22 139.809 1301.87 138.712 1300.01 138.712C1297.7 138.712 1296.21 140.448 1296.21 142.946C1296.21 145.413 1297.65 147.165 1300.03 147.165ZM1308.91 138.818H1307.23V136.858H1305.64V138.818H1304.44V140.097H1305.64V144.928C1305.63 146.414 1306.77 147.133 1308.03 147.107C1308.53 147.101 1308.87 147.005 1309.06 146.936L1308.77 145.62C1308.67 145.642 1308.47 145.69 1308.21 145.69C1307.7 145.69 1307.23 145.519 1307.23 144.598V140.097H1308.91V138.818ZM1314.77 147H1321.67V145.583H1316.42V142.243H1321.25V140.832H1316.42V137.508H1321.61V136.091H1314.77V147ZM1325.27 142.142C1325.27 140.837 1326.07 140.091 1327.18 140.091C1328.26 140.091 1328.92 140.8 1328.92 141.988V147H1330.51V141.796C1330.51 139.772 1329.4 138.712 1327.72 138.712C1326.49 138.712 1325.69 139.282 1325.31 140.15H1325.21V138.818H1323.68V147H1325.27V142.142ZM1336.08 150.239C1338.16 150.239 1339.77 149.285 1339.77 147.181V138.818H1338.21V140.145H1338.09C1337.81 139.638 1337.24 138.712 1335.72 138.712C1333.74 138.712 1332.29 140.272 1332.29 142.877C1332.29 145.487 1333.77 146.877 1335.71 146.877C1337.21 146.877 1337.79 146.031 1338.08 145.509H1338.18V147.117C1338.18 148.401 1337.3 148.955 1336.09 148.955C1334.77 148.955 1334.25 148.289 1333.97 147.82L1332.6 148.385C1333.03 149.386 1334.12 150.239 1336.08 150.239ZM1336.06 145.556C1334.64 145.556 1333.9 144.464 1333.9 142.856C1333.9 141.284 1334.62 140.065 1336.06 140.065C1337.45 140.065 1338.2 141.199 1338.2 142.856C1338.2 144.544 1337.43 145.556 1336.06 145.556ZM1341.9 147H1343.5V138.818H1341.9V147ZM1342.71 137.556C1343.26 137.556 1343.71 137.13 1343.71 136.608C1343.71 136.086 1343.26 135.654 1342.71 135.654C1342.15 135.654 1341.7 136.086 1341.7 136.608C1341.7 137.13 1342.15 137.556 1342.71 137.556ZM1347.23 142.142C1347.23 140.837 1348.03 140.091 1349.14 140.091C1350.22 140.091 1350.87 140.8 1350.87 141.988V147H1352.47V141.796C1352.47 139.772 1351.35 138.712 1349.68 138.712C1348.45 138.712 1347.65 139.282 1347.27 140.15H1347.17V138.818H1345.64V147H1347.23V142.142ZM1358.13 147.165C1359.91 147.165 1361.18 146.286 1361.54 144.955L1360.03 144.683C1359.74 145.455 1359.05 145.849 1358.15 145.849C1356.78 145.849 1355.87 144.965 1355.82 143.388H1361.64V142.824C1361.64 139.868 1359.87 138.712 1358.02 138.712C1355.74 138.712 1354.24 140.448 1354.24 142.962C1354.24 145.503 1355.72 147.165 1358.13 147.165ZM1355.83 142.195C1355.89 141.034 1356.73 140.027 1358.03 140.027C1359.26 140.027 1360.07 140.944 1360.08 142.195H1355.83ZM1366.93 147.165C1368.72 147.165 1369.98 146.286 1370.34 144.955L1368.84 144.683C1368.55 145.455 1367.85 145.849 1366.95 145.849C1365.59 145.849 1364.67 144.965 1364.63 143.388H1370.44V142.824C1370.44 139.868 1368.68 138.712 1366.82 138.712C1364.54 138.712 1363.04 140.448 1363.04 142.962C1363.04 145.503 1364.52 147.165 1366.93 147.165ZM1364.63 142.195C1364.7 141.034 1365.54 140.027 1366.83 140.027C1368.07 140.027 1368.88 140.944 1368.88 142.195H1364.63ZM1372.21 147H1373.8V142.004C1373.8 140.933 1374.63 140.161 1375.76 140.161C1376.09 140.161 1376.46 140.219 1376.59 140.256V138.733C1376.43 138.712 1376.12 138.696 1375.91 138.696C1374.95 138.696 1374.13 139.239 1373.84 140.118H1373.75V138.818H1372.21V147Z" fill="#C5D1DB"/>
<path d="M481.483 275.818H479.784V275.174C479.784 274.534 480.05 274.178 480.769 274.178C481.073 274.178 481.328 274.247 481.488 274.295L481.877 272.803C481.627 272.718 481.078 272.58 480.412 272.58C478.99 272.58 477.855 273.395 477.855 275.046V275.818H476.646V277.31H477.855V284H479.784V277.31H481.483V275.818ZM483.443 284H485.371V275.818H483.443V284ZM484.412 274.657C485.025 274.657 485.526 274.188 485.526 273.613C485.526 273.032 485.025 272.564 484.412 272.564C483.795 272.564 483.294 273.032 483.294 273.613C483.294 274.188 483.795 274.657 484.412 274.657ZM487.804 284H489.732V279.19C489.732 278.151 490.515 277.416 491.575 277.416C491.9 277.416 492.305 277.475 492.47 277.528V275.754C492.295 275.722 491.991 275.701 491.778 275.701C490.84 275.701 490.057 276.234 489.759 277.182H489.674V275.818H487.804V284ZM500.668 277.981C500.402 276.596 499.294 275.712 497.376 275.712C495.405 275.712 494.063 276.681 494.068 278.194C494.063 279.387 494.798 280.175 496.369 280.5L497.765 280.793C498.516 280.958 498.868 281.262 498.868 281.725C498.868 282.285 498.26 282.706 497.344 282.706C496.46 282.706 495.885 282.322 495.72 281.587L493.839 281.768C494.079 283.27 495.341 284.16 497.349 284.16C499.395 284.16 500.838 283.1 500.844 281.55C500.838 280.383 500.087 279.669 498.543 279.334L497.147 279.036C496.316 278.849 495.986 278.561 495.991 278.087C495.986 277.533 496.598 277.15 497.403 277.15C498.292 277.15 498.761 277.635 498.91 278.173L500.668 277.981ZM506.969 275.818H505.355V273.858H503.427V275.818H502.266V277.31H503.427V281.859C503.417 283.398 504.535 284.154 505.984 284.112C506.533 284.096 506.911 283.989 507.119 283.92L506.794 282.413C506.687 282.439 506.469 282.487 506.229 282.487C505.744 282.487 505.355 282.317 505.355 281.539V277.31H506.969V275.818ZM518.258 273.091H516.292V280.527H516.196L511.062 273.091H509.293V284H511.269V276.569H511.36L516.5 284H518.258V273.091ZM523.13 284.165C524.414 284.165 525.181 283.563 525.533 282.876H525.597V284H527.45V278.524C527.45 276.362 525.687 275.712 524.127 275.712C522.406 275.712 521.085 276.479 520.659 277.97L522.459 278.226C522.651 277.667 523.194 277.187 524.137 277.187C525.032 277.187 525.522 277.645 525.522 278.45V278.482C525.522 279.036 524.942 279.062 523.498 279.217C521.911 279.387 520.392 279.861 520.392 281.704C520.392 283.313 521.57 284.165 523.13 284.165ZM523.631 282.748C522.827 282.748 522.252 282.381 522.252 281.672C522.252 280.932 522.896 280.623 523.759 280.5C524.265 280.431 525.277 280.303 525.527 280.101V281.065C525.527 281.976 524.792 282.748 523.631 282.748ZM529.839 284H531.768V279.025C531.768 278.018 532.439 277.336 533.27 277.336C534.085 277.336 534.644 277.885 534.644 278.727V284H536.535V278.897C536.535 277.975 537.084 277.336 538.016 277.336C538.793 277.336 539.411 277.794 539.411 278.806V284H541.345V278.508C541.345 276.681 540.29 275.712 538.788 275.712C537.6 275.712 536.695 276.298 536.333 277.208H536.247C535.933 276.282 535.139 275.712 534.037 275.712C532.939 275.712 532.119 276.276 531.778 277.208H531.682V275.818H529.839V284ZM547.373 284.16C549.28 284.16 550.591 283.228 550.932 281.805L549.131 281.603C548.87 282.295 548.231 282.658 547.4 282.658C546.154 282.658 545.328 281.837 545.312 280.436H551.012V279.845C551.012 276.974 549.286 275.712 547.272 275.712C544.928 275.712 543.4 277.432 543.4 279.957C543.4 282.525 544.907 284.16 547.373 284.16ZM545.317 279.137C545.376 278.093 546.148 277.214 547.299 277.214C548.407 277.214 549.152 278.023 549.163 279.137H545.317Z" fill="#6048E5"/>
<path d="M477.681 297.091V308H479.247V300.1H479.349L482.566 307.984H483.866L487.083 300.106H487.184V308H488.75V297.091H486.753L483.28 305.571H483.152L479.679 297.091H477.681ZM493.397 308.181C494.75 308.181 495.511 307.494 495.815 306.881H495.879V308H497.434V302.567C497.434 300.186 495.559 299.712 494.259 299.712C492.779 299.712 491.415 300.308 490.882 301.8L492.379 302.141C492.614 301.56 493.21 301.001 494.281 301.001C495.309 301.001 495.836 301.539 495.836 302.466V302.503C495.836 303.083 495.24 303.073 493.769 303.243C492.219 303.424 490.632 303.829 490.632 305.688C490.632 307.297 491.841 308.181 493.397 308.181ZM493.743 306.903C492.843 306.903 492.193 306.498 492.193 305.71C492.193 304.857 492.949 304.554 493.871 304.431C494.387 304.362 495.612 304.223 495.841 303.994V305.049C495.841 306.018 495.069 306.903 493.743 306.903ZM499.556 308H501.148V303.004C501.148 301.933 501.974 301.161 503.103 301.161C503.433 301.161 503.806 301.219 503.934 301.256V299.733C503.774 299.712 503.46 299.696 503.258 299.696C502.299 299.696 501.478 300.239 501.18 301.118H501.095V299.818H499.556V308ZM505.312 308H506.905V299.818H505.312V308ZM506.117 298.556C506.665 298.556 507.123 298.13 507.123 297.608C507.123 297.086 506.665 296.654 506.117 296.654C505.563 296.654 505.11 297.086 505.11 297.608C505.11 298.13 505.563 298.556 506.117 298.556ZM511.429 308.181C512.782 308.181 513.543 307.494 513.847 306.881H513.911V308H515.466V302.567C515.466 300.186 513.591 299.712 512.292 299.712C510.811 299.712 509.447 300.308 508.915 301.8L510.411 302.141C510.646 301.56 511.242 301.001 512.313 301.001C513.341 301.001 513.868 301.539 513.868 302.466V302.503C513.868 303.083 513.272 303.073 511.802 303.243C510.252 303.424 508.664 303.829 508.664 305.688C508.664 307.297 509.873 308.181 511.429 308.181ZM511.775 306.903C510.875 306.903 510.225 306.498 510.225 305.71C510.225 304.857 510.981 304.554 511.903 304.431C512.42 304.362 513.645 304.223 513.874 303.994V305.049C513.874 306.018 513.101 306.903 511.775 306.903Z" fill="#64778C"/>
<circle cx="568" cy="279" r="8" fill="url(#paint0_linear_1601_16967)"/>
<path d="M113.986 253.091H112.058V264H113.986V253.091ZM118.773 264.165C120.057 264.165 120.824 263.563 121.176 262.876H121.24V264H123.093V258.524C123.093 256.362 121.33 255.712 119.769 255.712C118.049 255.712 116.728 256.479 116.302 257.97L118.102 258.226C118.294 257.667 118.837 257.187 119.78 257.187C120.675 257.187 121.165 257.645 121.165 258.45V258.482C121.165 259.036 120.584 259.062 119.141 259.217C117.554 259.387 116.035 259.861 116.035 261.704C116.035 263.313 117.213 264.165 118.773 264.165ZM119.274 262.748C118.47 262.748 117.894 262.381 117.894 261.672C117.894 260.932 118.539 260.623 119.402 260.5C119.908 260.431 120.92 260.303 121.17 260.101V261.065C121.17 261.976 120.435 262.748 119.274 262.748ZM131.949 257.981C131.683 256.596 130.575 255.712 128.657 255.712C126.686 255.712 125.344 256.681 125.349 258.194C125.344 259.387 126.079 260.175 127.65 260.5L129.046 260.793C129.797 260.958 130.148 261.262 130.148 261.725C130.148 262.285 129.541 262.706 128.625 262.706C127.741 262.706 127.166 262.322 127 261.587L125.12 261.768C125.36 263.27 126.622 264.16 128.63 264.16C130.676 264.16 132.119 263.1 132.125 261.55C132.119 260.383 131.368 259.669 129.824 259.334L128.428 259.036C127.597 258.849 127.267 258.561 127.272 258.087C127.267 257.533 127.879 257.15 128.684 257.15C129.573 257.15 130.042 257.635 130.191 258.173L131.949 257.981ZM138.25 255.818H136.636V253.858H134.708V255.818H133.547V257.31H134.708V261.859C134.697 263.398 135.816 264.154 137.265 264.112C137.813 264.096 138.192 263.989 138.399 263.92L138.074 262.413C137.968 262.439 137.75 262.487 137.51 262.487C137.025 262.487 136.636 262.317 136.636 261.539V257.31H138.25V255.818ZM149.539 253.091H147.573V260.527H147.477L142.342 253.091H140.574V264H142.55V256.569H142.641L147.781 264H149.539V253.091ZM154.411 264.165C155.695 264.165 156.462 263.563 156.814 262.876H156.878V264H158.731V258.524C158.731 256.362 156.968 255.712 155.407 255.712C153.687 255.712 152.366 256.479 151.94 257.97L153.74 258.226C153.932 257.667 154.475 257.187 155.418 257.187C156.313 257.187 156.803 257.645 156.803 258.45V258.482C156.803 259.036 156.222 259.062 154.779 259.217C153.191 259.387 151.673 259.861 151.673 261.704C151.673 263.313 152.851 264.165 154.411 264.165ZM154.912 262.748C154.108 262.748 153.532 262.381 153.532 261.672C153.532 260.932 154.177 260.623 155.04 260.5C155.546 260.431 156.558 260.303 156.808 260.101V261.065C156.808 261.976 156.073 262.748 154.912 262.748ZM161.12 264H163.048V259.025C163.048 258.018 163.72 257.336 164.551 257.336C165.366 257.336 165.925 257.885 165.925 258.727V264H167.816V258.897C167.816 257.975 168.364 257.336 169.297 257.336C170.074 257.336 170.692 257.794 170.692 258.806V264H172.626V258.508C172.626 256.681 171.571 255.712 170.069 255.712C168.881 255.712 167.976 256.298 167.613 257.208H167.528C167.214 256.282 166.42 255.712 165.318 255.712C164.22 255.712 163.4 256.276 163.059 257.208H162.963V255.818H161.12V264ZM178.654 264.16C180.561 264.16 181.872 263.228 182.212 261.805L180.412 261.603C180.151 262.295 179.512 262.658 178.681 262.658C177.434 262.658 176.609 261.837 176.593 260.436H182.292V259.845C182.292 256.974 180.567 255.712 178.553 255.712C176.209 255.712 174.681 257.432 174.681 259.957C174.681 262.525 176.188 264.16 178.654 264.16ZM176.598 259.137C176.657 258.093 177.429 257.214 178.58 257.214C179.688 257.214 180.433 258.023 180.444 259.137H176.598Z" fill="#C5D1DB"/>
<path d="M112.566 277.091V288H114.132V280.1H114.233L117.45 287.984H118.75L121.967 280.106H122.069V288H123.635V277.091H121.637L118.164 285.571H118.036L114.563 277.091H112.566ZM128.281 288.181C129.634 288.181 130.396 287.494 130.699 286.881H130.763V288H132.318V282.567C132.318 280.186 130.443 279.712 129.144 279.712C127.663 279.712 126.299 280.308 125.767 281.8L127.263 282.141C127.498 281.56 128.094 281.001 129.165 281.001C130.193 281.001 130.72 281.539 130.72 282.466V282.503C130.72 283.083 130.124 283.073 128.654 283.243C127.104 283.424 125.516 283.829 125.516 285.688C125.516 287.297 126.725 288.181 128.281 288.181ZM128.627 286.903C127.727 286.903 127.077 286.498 127.077 285.71C127.077 284.857 127.833 284.554 128.755 284.431C129.272 284.362 130.497 284.223 130.726 283.994V285.049C130.726 286.018 129.953 286.903 128.627 286.903ZM136.032 283.142C136.032 281.837 136.858 281.091 137.993 281.091C139.09 281.091 139.745 281.789 139.745 282.988V288H141.338V282.796C141.338 280.756 140.219 279.712 138.536 279.712C137.263 279.712 136.496 280.266 136.112 281.15H136.011V277.091H134.44V288H136.032V283.142ZM145.844 288.181C147.197 288.181 147.959 287.494 148.263 286.881H148.327V288H149.882V282.567C149.882 280.186 148.007 279.712 146.707 279.712C145.226 279.712 143.863 280.308 143.33 281.8L144.827 282.141C145.061 281.56 145.658 281.001 146.729 281.001C147.757 281.001 148.284 281.539 148.284 282.466V282.503C148.284 283.083 147.687 283.073 146.217 283.243C144.667 283.424 143.08 283.829 143.08 285.688C143.08 287.297 144.289 288.181 145.844 288.181ZM146.191 286.903C145.29 286.903 144.64 286.498 144.64 285.71C144.64 284.857 145.397 284.554 146.318 284.431C146.835 284.362 148.06 284.223 148.289 283.994V285.049C148.289 286.018 147.517 286.903 146.191 286.903ZM153.596 283.142C153.596 281.837 154.395 281.091 155.503 281.091C156.584 281.091 157.239 281.8 157.239 282.988V288H158.832V282.796C158.832 280.772 157.719 279.712 156.046 279.712C154.816 279.712 154.011 280.282 153.633 281.15H153.532V279.818H152.003V288H153.596V283.142ZM160.968 288H162.561V279.818H160.968V288ZM161.772 278.556C162.321 278.556 162.779 278.13 162.779 277.608C162.779 277.086 162.321 276.654 161.772 276.654C161.218 276.654 160.766 277.086 160.766 277.608C160.766 278.13 161.218 278.556 161.772 278.556Z" fill="#C5D1DB"/>
<circle cx="199" cy="259" r="7" stroke="#C5D1DB" stroke-width="2"/>
<path d="M817 229L729 306" stroke="url(#paint1_linear_1601_16967)"/>
<path d="M886 94L832 209" stroke="url(#paint2_linear_1601_16967)"/>
<path d="M1000 263L837 222" stroke="url(#paint3_linear_1601_16967)"/>
<path d="M578 284L701 312" stroke="url(#paint4_linear_1601_16967)"/>
<path d="M632 181L708 303" stroke="url(#paint5_linear_1601_16967)"/>
<path d="M558.464 174H560.393V165.818H558.464V174ZM559.434 164.657C560.046 164.657 560.547 164.188 560.547 163.613C560.547 163.032 560.046 162.564 559.434 162.564C558.816 162.564 558.315 163.032 558.315 163.613C558.315 164.188 558.816 164.657 559.434 164.657ZM562.825 174H564.754V169.025C564.754 168.018 565.425 167.336 566.256 167.336C567.071 167.336 567.63 167.885 567.63 168.727V174H569.521V168.897C569.521 167.975 570.07 167.336 571.002 167.336C571.78 167.336 572.398 167.794 572.398 168.806V174H574.331V168.508C574.331 166.681 573.276 165.712 571.774 165.712C570.586 165.712 569.681 166.298 569.319 167.208H569.233C568.919 166.282 568.126 165.712 567.023 165.712C565.926 165.712 565.105 166.276 564.764 167.208H564.668V165.818H562.825V174ZM579.092 174.165C580.375 174.165 581.143 173.563 581.494 172.876H581.558V174H583.412V168.524C583.412 166.362 581.649 165.712 580.088 165.712C578.367 165.712 577.046 166.479 576.62 167.97L578.421 168.226C578.612 167.667 579.156 167.187 580.098 167.187C580.993 167.187 581.483 167.645 581.483 168.45V168.482C581.483 169.036 580.903 169.062 579.459 169.217C577.872 169.387 576.354 169.861 576.354 171.704C576.354 173.313 577.531 174.165 579.092 174.165ZM579.592 172.748C578.788 172.748 578.213 172.381 578.213 171.672C578.213 170.932 578.857 170.623 579.72 170.5C580.226 170.431 581.238 170.303 581.489 170.101V171.065C581.489 171.976 580.754 172.748 579.592 172.748ZM589.359 177.239C591.569 177.239 593.199 176.227 593.199 174.133V165.818H591.298V167.171H591.191C590.898 166.58 590.286 165.712 588.842 165.712C586.951 165.712 585.465 167.192 585.465 169.882C585.465 172.551 586.951 173.883 588.837 173.883C590.238 173.883 590.893 173.132 591.191 172.53H591.287V174.08C591.287 175.284 590.488 175.779 589.391 175.779C588.23 175.779 587.718 175.23 587.484 174.751L585.747 175.172C586.099 176.317 587.276 177.239 589.359 177.239ZM589.375 172.37C588.102 172.37 587.431 171.379 587.431 169.872C587.431 168.386 588.091 167.294 589.375 167.294C590.616 167.294 591.298 168.322 591.298 169.872C591.298 171.433 590.605 172.37 589.375 172.37ZM599.248 174.16C601.155 174.16 602.465 173.228 602.806 171.805L601.006 171.603C600.745 172.295 600.105 172.658 599.274 172.658C598.028 172.658 597.202 171.837 597.186 170.436H602.886V169.845C602.886 166.974 601.16 165.712 599.147 165.712C596.803 165.712 595.274 167.432 595.274 169.957C595.274 172.525 596.782 174.16 599.248 174.16ZM597.192 169.137C597.25 168.093 598.023 167.214 599.173 167.214C600.281 167.214 601.027 168.023 601.038 169.137H597.192Z" fill="#6048E5"/>
<path d="M476.139 193.142C476.139 191.837 476.965 191.091 478.099 191.091C479.196 191.091 479.852 191.789 479.852 192.988V198H481.444V192.796C481.444 190.756 480.326 189.712 478.642 189.712C477.369 189.712 476.602 190.266 476.219 191.15H476.118V187.091H474.546V198H476.139V193.142ZM487.389 189.818H485.711V187.858H484.118V189.818H482.92V191.097H484.118V195.928C484.113 197.414 485.248 198.133 486.505 198.107C487.011 198.101 487.352 198.005 487.538 197.936L487.25 196.62C487.144 196.642 486.947 196.69 486.691 196.69C486.174 196.69 485.711 196.519 485.711 195.598V191.097H487.389V189.818ZM492.97 189.818H491.292V187.858H489.699V189.818H488.501V191.097H489.699V195.928C489.694 197.414 490.829 198.133 492.086 198.107C492.592 198.101 492.933 198.005 493.119 197.936L492.831 196.62C492.725 196.642 492.528 196.69 492.272 196.69C491.756 196.69 491.292 196.519 491.292 195.598V191.097H492.97V189.818ZM494.732 201.068H496.324V196.727H496.42C496.708 197.249 497.294 198.16 498.785 198.16C500.767 198.16 502.205 196.572 502.205 193.925C502.205 191.272 500.746 189.712 498.769 189.712C497.251 189.712 496.703 190.638 496.42 191.145H496.287V189.818H494.732V201.068ZM496.293 193.909C496.293 192.199 497.038 191.065 498.429 191.065C499.872 191.065 500.597 192.284 500.597 193.909C500.597 195.55 499.851 196.801 498.429 196.801C497.06 196.801 496.293 195.63 496.293 193.909ZM510.121 191.816C509.79 190.543 508.794 189.712 507.026 189.712C505.177 189.712 503.867 190.686 503.867 192.135C503.867 193.297 504.57 194.069 506.104 194.41L507.489 194.713C508.278 194.889 508.645 195.241 508.645 195.752C508.645 196.386 507.969 196.881 506.925 196.881C505.971 196.881 505.359 196.471 505.167 195.667L503.627 195.901C503.894 197.35 505.098 198.165 506.935 198.165C508.911 198.165 510.28 197.116 510.28 195.635C510.28 194.479 509.545 193.765 508.043 193.419L506.744 193.121C505.843 192.908 505.454 192.604 505.46 192.05C505.454 191.422 506.136 190.974 507.042 190.974C508.033 190.974 508.491 191.523 508.677 192.071L510.121 191.816ZM513.081 192.146C513.662 192.146 514.146 191.672 514.146 191.081C514.146 190.5 513.662 190.021 513.081 190.021C512.495 190.021 512.016 190.5 512.016 191.081C512.016 191.672 512.495 192.146 513.081 192.146ZM513.081 198.101C513.662 198.101 514.146 197.627 514.146 197.036C514.146 196.455 513.662 195.976 513.081 195.976C512.495 195.976 512.016 196.455 512.016 197.036C512.016 197.627 512.495 198.101 513.081 198.101ZM520.434 186.58H519.012L515.497 199.641H516.919L520.434 186.58ZM525.942 186.58H524.52L521.004 199.641H522.427L525.942 186.58ZM527.295 201.068H528.888V196.727H528.984C529.271 197.249 529.857 198.16 531.349 198.16C533.33 198.16 534.769 196.572 534.769 193.925C534.769 191.272 533.309 189.712 531.333 189.712C529.815 189.712 529.266 190.638 528.984 191.145H528.851V189.818H527.295V201.068ZM528.856 193.909C528.856 192.199 529.602 191.065 530.992 191.065C532.436 191.065 533.16 192.284 533.16 193.909C533.16 195.55 532.414 196.801 530.992 196.801C529.623 196.801 528.856 195.63 528.856 193.909ZM536.553 198H538.146V193.004C538.146 191.933 538.971 191.161 540.101 191.161C540.431 191.161 540.804 191.219 540.932 191.256V189.733C540.772 189.712 540.458 189.696 540.255 189.696C539.296 189.696 538.476 190.239 538.178 191.118H538.093V189.818H536.553V198ZM545.463 198.165C547.77 198.165 549.277 196.477 549.277 193.946C549.277 191.4 547.77 189.712 545.463 189.712C543.157 189.712 541.649 191.4 541.649 193.946C541.649 196.477 543.157 198.165 545.463 198.165ZM545.469 196.828C543.961 196.828 543.258 195.512 543.258 193.941C543.258 192.375 543.961 191.043 545.469 191.043C546.965 191.043 547.669 192.375 547.669 193.941C547.669 195.512 546.965 196.828 545.469 196.828ZM554.949 189.818H553.186V189.083C553.186 188.359 553.484 187.964 554.262 187.964C554.592 187.964 554.826 188.039 554.975 188.087L555.348 186.798C555.125 186.713 554.661 186.58 554.017 186.58C552.722 186.58 551.588 187.336 551.588 188.87V189.818H550.325V191.097H551.588V198H553.186V191.097H554.949V189.818ZM556.592 198H558.185V189.818H556.592V198ZM557.396 188.556C557.945 188.556 558.403 188.13 558.403 187.608C558.403 187.086 557.945 186.654 557.396 186.654C556.843 186.654 556.39 187.086 556.39 187.608C556.39 188.13 556.843 188.556 557.396 188.556ZM561.92 187.091H560.328V198H561.92V187.091ZM567.589 198.165C569.374 198.165 570.636 197.286 570.998 195.955L569.491 195.683C569.203 196.455 568.511 196.849 567.605 196.849C566.241 196.849 565.325 195.965 565.283 194.388H571.099V193.824C571.099 190.868 569.331 189.712 567.477 189.712C565.197 189.712 563.695 191.448 563.695 193.962C563.695 196.503 565.176 198.165 567.589 198.165ZM565.288 193.195C565.352 192.034 566.194 191.027 567.488 191.027C568.724 191.027 569.533 191.944 569.539 193.195H565.288ZM573.916 198.101C574.497 198.101 574.981 197.627 574.981 197.036C574.981 196.455 574.497 195.976 573.916 195.976C573.33 195.976 572.851 196.455 572.851 197.036C572.851 197.627 573.33 198.101 573.916 198.101ZM577.115 201.068H578.707V196.727H578.803C579.091 197.249 579.677 198.16 581.168 198.16C583.15 198.16 584.588 196.572 584.588 193.925C584.588 191.272 583.128 189.712 581.152 189.712C579.634 189.712 579.085 190.638 578.803 191.145H578.67V189.818H577.115V201.068ZM578.675 193.909C578.675 192.199 579.421 191.065 580.811 191.065C582.255 191.065 582.979 192.284 582.979 193.909C582.979 195.55 582.234 196.801 580.811 196.801C579.442 196.801 578.675 195.63 578.675 193.909ZM587.965 193.142C587.965 191.837 588.764 191.091 589.872 191.091C590.953 191.091 591.609 191.8 591.609 192.988V198H593.201V192.796C593.201 190.772 592.088 189.712 590.415 189.712C589.185 189.712 588.381 190.282 588.002 191.15H587.901V189.818H586.372V198H587.965V193.142ZM598.768 201.239C600.85 201.239 602.459 200.285 602.459 198.181V189.818H600.898V191.145H600.781C600.499 190.638 599.934 189.712 598.411 189.712C596.435 189.712 594.98 191.272 594.98 193.877C594.98 196.487 596.467 197.877 598.4 197.877C599.902 197.877 600.483 197.031 600.771 196.509H600.872V198.117C600.872 199.401 599.993 199.955 598.784 199.955C597.457 199.955 596.941 199.289 596.658 198.82L595.289 199.385C595.721 200.386 596.813 201.239 598.768 201.239ZM598.752 196.556C597.329 196.556 596.589 195.464 596.589 193.856C596.589 192.284 597.313 191.065 598.752 191.065C600.142 191.065 600.888 192.199 600.888 193.856C600.888 195.544 600.126 196.556 598.752 196.556Z" fill="#9EACBA"/>
<circle cx="620" cy="169" r="8" fill="url(#paint6_linear_1601_16967)"/>
<circle cx="214" cy="89" r="7" stroke="#C5D1DB" stroke-width="2"/>
<path d="M231.046 97.0682H232.974V92.7109H233.054C233.358 93.3075 233.992 94.1438 235.398 94.1438C237.326 94.1438 238.77 92.6151 238.77 89.9197C238.77 87.1925 237.284 85.7116 235.393 85.7116C233.949 85.7116 233.347 86.5799 233.054 87.1712H232.942V85.8182H231.046V97.0682ZM232.937 89.9091C232.937 88.3217 233.619 87.2937 234.86 87.2937C236.144 87.2937 236.804 88.3857 236.804 89.9091C236.804 91.4432 236.133 92.5618 234.86 92.5618C233.63 92.5618 232.937 91.4964 232.937 89.9091ZM240.871 94H242.799V89.19C242.799 88.1513 243.582 87.4162 244.642 87.4162C244.967 87.4162 245.372 87.4748 245.537 87.5281V85.7543C245.362 85.7223 245.058 85.701 244.845 85.701C243.907 85.701 243.124 86.2337 242.826 87.1818H242.741V85.8182H240.871V94ZM250.5 94.1598C252.897 94.1598 254.421 92.4712 254.421 89.9411C254.421 87.4055 252.897 85.7116 250.5 85.7116C248.103 85.7116 246.58 87.4055 246.58 89.9411C246.58 92.4712 248.103 94.1598 250.5 94.1598ZM250.511 92.6151C249.185 92.6151 248.535 91.4325 248.535 89.9357C248.535 88.4389 249.185 87.2404 250.511 87.2404C251.816 87.2404 252.466 88.4389 252.466 89.9357C252.466 91.4325 251.816 92.6151 250.511 92.6151ZM260.652 85.8182H258.952V85.1737C258.952 84.5344 259.219 84.1776 259.938 84.1776C260.241 84.1776 260.497 84.2468 260.657 84.2947L261.046 82.8033C260.795 82.718 260.247 82.5795 259.581 82.5795C258.159 82.5795 257.024 83.3945 257.024 85.0458V85.8182H255.815V87.3097H257.024V94H258.952V87.3097H260.652V85.8182ZM262.612 94H264.54V85.8182H262.612V94ZM263.581 84.657C264.194 84.657 264.695 84.1882 264.695 83.6129C264.695 83.0323 264.194 82.5636 263.581 82.5636C262.963 82.5636 262.463 83.0323 262.463 83.6129C262.463 84.1882 262.963 84.657 263.581 84.657ZM268.901 83.0909H266.973V94H268.901V83.0909ZM274.956 94.1598C276.863 94.1598 278.174 93.2276 278.514 91.8054L276.714 91.603C276.453 92.2955 275.814 92.6577 274.983 92.6577C273.736 92.6577 272.911 91.8374 272.895 90.4364H278.594V89.8452C278.594 86.9741 276.868 85.7116 274.855 85.7116C272.511 85.7116 270.982 87.4322 270.982 89.957C270.982 92.5245 272.49 94.1598 274.956 94.1598ZM272.9 89.1367C272.959 88.0927 273.731 87.2138 274.882 87.2138C275.99 87.2138 276.735 88.0234 276.746 89.1367H272.9ZM284.458 94C287.781 94 289.752 91.9439 289.752 88.5348C289.752 85.1364 287.781 83.0909 284.532 83.0909H280.761V94H284.458ZM282.737 92.2901V84.8008H284.42C286.636 84.8008 287.792 86.0366 287.792 88.5348C287.792 91.0437 286.636 92.2901 284.362 92.2901H282.737ZM295.617 94.1598C297.524 94.1598 298.834 93.2276 299.175 91.8054L297.375 91.603C297.114 92.2955 296.475 92.6577 295.644 92.6577C294.397 92.6577 293.571 91.8374 293.555 90.4364H299.255V89.8452C299.255 86.9741 297.529 85.7116 295.516 85.7116C293.172 85.7116 291.643 87.4322 291.643 89.957C291.643 92.5245 293.151 94.1598 295.617 94.1598ZM293.561 89.1367C293.619 88.0927 294.392 87.2138 295.542 87.2138C296.65 87.2138 297.396 88.0234 297.407 89.1367H293.561ZM307.803 87.9808C307.537 86.5959 306.429 85.7116 304.511 85.7116C302.54 85.7116 301.198 86.6811 301.203 88.1939C301.198 89.3871 301.933 90.1754 303.504 90.5004L304.9 90.7933C305.651 90.9585 306.003 91.2621 306.003 91.7255C306.003 92.2848 305.395 92.7056 304.479 92.7056C303.595 92.7056 303.02 92.3221 302.854 91.587L300.974 91.7681C301.214 93.2702 302.476 94.1598 304.484 94.1598C306.53 94.1598 307.973 93.0998 307.979 91.5497C307.973 90.3832 307.222 89.6694 305.678 89.3338L304.282 89.0355C303.451 88.8491 303.121 88.5614 303.126 88.0874C303.121 87.5334 303.733 87.1499 304.538 87.1499C305.427 87.1499 305.896 87.6346 306.045 88.1726L307.803 87.9808ZM313.588 94.1598C315.644 94.1598 316.954 92.94 317.093 91.2035H315.25C315.084 92.0824 314.451 92.5884 313.604 92.5884C312.4 92.5884 311.622 91.5817 311.622 89.9091C311.622 88.2578 312.416 87.267 313.604 87.267C314.531 87.267 315.1 87.8636 315.25 88.652H317.093C316.959 86.8782 315.575 85.7116 313.577 85.7116C311.18 85.7116 309.667 87.4428 309.667 89.9411C309.667 92.418 311.143 94.1598 313.588 94.1598ZM319.126 94H321.054V89.19C321.054 88.1513 321.837 87.4162 322.897 87.4162C323.222 87.4162 323.627 87.4748 323.792 87.5281V85.7543C323.616 85.7223 323.313 85.701 323.1 85.701C322.162 85.701 321.379 86.2337 321.081 87.1818H320.996V85.8182H319.126V94ZM325.523 94H327.452V85.8182H325.523V94ZM326.493 84.657C327.105 84.657 327.606 84.1882 327.606 83.6129C327.606 83.0323 327.105 82.5636 326.493 82.5636C325.875 82.5636 325.374 83.0323 325.374 83.6129C325.374 84.1882 325.875 84.657 326.493 84.657ZM329.884 97.0682H331.813V92.7109H331.893C332.196 93.3075 332.83 94.1438 334.236 94.1438C336.165 94.1438 337.608 92.6151 337.608 89.9197C337.608 87.1925 336.122 85.7116 334.231 85.7116C332.787 85.7116 332.186 86.5799 331.893 87.1712H331.781V85.8182H329.884V97.0682ZM331.775 89.9091C331.775 88.3217 332.457 87.2937 333.698 87.2937C334.982 87.2937 335.643 88.3857 335.643 89.9091C335.643 91.4432 334.971 92.5618 333.698 92.5618C332.468 92.5618 331.775 91.4964 331.775 89.9091ZM343.795 85.8182H342.181V83.858H340.253V85.8182H339.092V87.3097H340.253V91.8587C340.242 93.3981 341.361 94.1545 342.81 94.1119C343.358 94.0959 343.736 93.9893 343.944 93.9201L343.619 92.4126C343.513 92.4393 343.294 92.4872 343.055 92.4872C342.57 92.4872 342.181 92.3168 342.181 91.5391V87.3097H343.795V85.8182ZM345.858 94H347.786V85.8182H345.858V94ZM346.827 84.657C347.44 84.657 347.94 84.1882 347.94 83.6129C347.94 83.0323 347.44 82.5636 346.827 82.5636C346.209 82.5636 345.709 83.0323 345.709 83.6129C345.709 84.1882 346.209 84.657 346.827 84.657ZM353.788 94.1598C356.185 94.1598 357.708 92.4712 357.708 89.9411C357.708 87.4055 356.185 85.7116 353.788 85.7116C351.391 85.7116 349.867 87.4055 349.867 89.9411C349.867 92.4712 351.391 94.1598 353.788 94.1598ZM353.798 92.6151C352.472 92.6151 351.822 91.4325 351.822 89.9357C351.822 88.4389 352.472 87.2404 353.798 87.2404C355.103 87.2404 355.753 88.4389 355.753 89.9357C355.753 91.4325 355.103 92.6151 353.798 92.6151ZM361.723 89.206C361.723 88.0234 362.437 87.3416 363.454 87.3416C364.45 87.3416 365.047 87.9968 365.047 89.0888V94H366.975V88.7905C366.98 86.8303 365.862 85.7116 364.173 85.7116C362.948 85.7116 362.107 86.2976 361.734 87.2085H361.638V85.8182H359.795V94H361.723V89.206Z" fill="#C5D1DB"/>
<path d="M231.039 110.5H232.402V109.461C232.402 108.657 232.754 107.98 233.185 107.347L232.397 106.782C231.582 107.437 231.039 108.572 231.039 109.477V110.5ZM233.755 110.5H235.119V109.461C235.119 108.657 235.47 107.98 235.902 107.347L235.114 106.782C234.299 107.437 233.755 108.572 233.755 109.477V110.5ZM237.399 107.091V118H238.965V110.1H239.066L242.283 117.984H243.583L246.8 110.106H246.902V118H248.468V107.091H246.47L242.997 115.571H242.869L239.396 107.091H237.399ZM251.74 121.068C253.055 121.068 253.886 120.381 254.36 119.092L257.743 109.834L256.022 109.818L253.95 116.168H253.865L251.793 109.818H250.088L253.082 118.107L252.885 118.65C252.48 119.737 251.91 119.827 251.036 119.587L250.653 120.892C250.845 120.978 251.26 121.068 251.74 121.068ZM264.987 118H266.606L268.268 112.093H268.391L270.053 118H271.677L274.08 109.818H272.434L270.841 115.8H270.761L269.163 109.818H267.517L265.909 115.827H265.829L264.225 109.818H262.579L264.987 118ZM278.789 118.165C281.095 118.165 282.602 116.477 282.602 113.946C282.602 111.4 281.095 109.712 278.789 109.712C276.482 109.712 274.975 111.4 274.975 113.946C274.975 116.477 276.482 118.165 278.789 118.165ZM278.794 116.828C277.286 116.828 276.583 115.512 276.583 113.941C276.583 112.375 277.286 111.043 278.794 111.043C280.291 111.043 280.994 112.375 280.994 113.941C280.994 115.512 280.291 116.828 278.794 116.828ZM284.38 118H285.973V113.004C285.973 111.933 286.799 111.161 287.928 111.161C288.258 111.161 288.631 111.219 288.759 111.256V109.733C288.599 109.712 288.285 109.696 288.082 109.696C287.123 109.696 286.303 110.239 286.005 111.118H285.92V109.818H284.38V118ZM290.137 118H291.73V115.097L292.523 114.303L295.304 118H297.259L293.722 113.328L297.035 109.818H295.128L291.868 113.281H291.73V107.091H290.137V118ZM298.487 118H300.079V109.818H298.487V118ZM299.291 108.556C299.84 108.556 300.298 108.13 300.298 107.608C300.298 107.086 299.84 106.654 299.291 106.654C298.737 106.654 298.284 107.086 298.284 107.608C298.284 108.13 298.737 108.556 299.291 108.556ZM303.815 113.142C303.815 111.837 304.614 111.091 305.722 111.091C306.803 111.091 307.458 111.8 307.458 112.988V118H309.051V112.796C309.051 110.772 307.938 109.712 306.265 109.712C305.035 109.712 304.23 110.282 303.852 111.15H303.751V109.818H302.222V118H303.815V113.142ZM314.617 121.239C316.7 121.239 318.309 120.285 318.309 118.181V109.818H316.748V111.145H316.631C316.348 110.638 315.784 109.712 314.26 109.712C312.284 109.712 310.83 111.272 310.83 113.877C310.83 116.487 312.316 117.877 314.25 117.877C315.752 117.877 316.332 117.031 316.62 116.509H316.721V118.117C316.721 119.401 315.842 119.955 314.633 119.955C313.307 119.955 312.79 119.289 312.508 118.82L311.139 119.385C311.57 120.386 312.662 121.239 314.617 121.239ZM314.601 116.556C313.179 116.556 312.439 115.464 312.439 113.856C312.439 112.284 313.163 111.065 314.601 111.065C315.992 111.065 316.737 112.199 316.737 113.856C316.737 115.544 315.976 116.556 314.601 116.556ZM326.007 113.142C326.007 111.837 326.833 111.091 327.967 111.091C329.065 111.091 329.72 111.789 329.72 112.988V118H331.312V112.796C331.312 110.756 330.194 109.712 328.511 109.712C327.238 109.712 326.471 110.266 326.087 111.15H325.986V107.091H324.414V118H326.007V113.142ZM336.884 118.165C339.191 118.165 340.698 116.477 340.698 113.946C340.698 111.4 339.191 109.712 336.884 109.712C334.578 109.712 333.07 111.4 333.07 113.946C333.07 116.477 334.578 118.165 336.884 118.165ZM336.89 116.828C335.382 116.828 334.679 115.512 334.679 113.941C334.679 112.375 335.382 111.043 336.89 111.043C338.386 111.043 339.089 112.375 339.089 113.941C339.089 115.512 338.386 116.828 336.89 116.828ZM347.659 114.607C347.664 115.997 346.631 116.658 345.736 116.658C344.75 116.658 344.069 115.944 344.069 114.831V109.818H342.476V115.022C342.476 117.052 343.589 118.107 345.161 118.107C346.391 118.107 347.227 117.457 347.606 116.583H347.691V118H349.257V109.818H347.659V114.607ZM351.397 118H352.99V113.004C352.99 111.933 353.815 111.161 354.944 111.161C355.275 111.161 355.648 111.219 355.775 111.256V109.733C355.616 109.712 355.301 109.696 355.099 109.696C354.14 109.696 353.32 110.239 353.021 111.118H352.936V109.818H351.397V118ZM363.285 111.816C362.954 110.543 361.958 109.712 360.19 109.712C358.342 109.712 357.031 110.686 357.031 112.135C357.031 113.297 357.734 114.069 359.268 114.41L360.653 114.713C361.442 114.889 361.809 115.241 361.809 115.752C361.809 116.386 361.133 116.881 360.089 116.881C359.135 116.881 358.523 116.471 358.331 115.667L356.791 115.901C357.058 117.35 358.262 118.165 360.099 118.165C362.076 118.165 363.445 117.116 363.445 115.635C363.445 114.479 362.709 113.765 361.207 113.419L359.908 113.121C359.007 112.908 358.619 112.604 358.624 112.05C358.619 111.422 359.3 110.974 360.206 110.974C361.197 110.974 361.655 111.523 361.841 112.071L363.285 111.816ZM366.245 118.101C366.826 118.101 367.31 117.627 367.31 117.036C367.31 116.455 366.826 115.976 366.245 115.976C365.659 115.976 365.18 116.455 365.18 117.036C365.18 117.627 365.659 118.101 366.245 118.101ZM370.493 118.101C371.074 118.101 371.558 117.627 371.558 117.036C371.558 116.455 371.074 115.976 370.493 115.976C369.907 115.976 369.428 116.455 369.428 117.036C369.428 117.627 369.907 118.101 370.493 118.101ZM374.741 118.101C375.322 118.101 375.806 117.627 375.806 117.036C375.806 116.455 375.322 115.976 374.741 115.976C374.155 115.976 373.676 116.455 373.676 117.036C373.676 117.627 374.155 118.101 374.741 118.101ZM378.239 107.091H376.876V108.13C376.876 108.955 376.514 109.632 376.098 110.244L376.886 110.809C377.707 110.148 378.239 109.019 378.239 108.114V107.091ZM380.951 107.091H379.587V108.13C379.587 108.955 379.225 109.632 378.809 110.244L379.598 110.809C380.418 110.148 380.951 109.019 380.951 108.114V107.091Z" fill="#C5D1DB"/>
<circle cx="829" cy="217" r="8" fill="url(#paint7_linear_1601_16967)"/>
<path d="M846.309 222H848.238V213.818H846.309V222ZM847.279 212.657C847.891 212.657 848.392 212.188 848.392 211.613C848.392 211.032 847.891 210.564 847.279 210.564C846.661 210.564 846.16 211.032 846.16 211.613C846.16 212.188 846.661 212.657 847.279 212.657ZM854.756 213.818H853.142V211.858H851.214V213.818H850.053V215.31H851.214V219.859C851.203 221.398 852.322 222.154 853.771 222.112C854.319 222.096 854.697 221.989 854.905 221.92L854.58 220.413C854.474 220.439 854.255 220.487 854.016 220.487C853.531 220.487 853.142 220.317 853.142 219.539V215.31H854.756V213.818ZM860.353 222.16C862.26 222.16 863.57 221.228 863.911 219.805L862.111 219.603C861.85 220.295 861.211 220.658 860.38 220.658C859.133 220.658 858.308 219.837 858.292 218.436H863.991V217.845C863.991 214.974 862.265 213.712 860.252 213.712C857.908 213.712 856.379 215.432 856.379 217.957C856.379 220.525 857.887 222.16 860.353 222.16ZM858.297 217.137C858.355 216.093 859.128 215.214 860.278 215.214C861.386 215.214 862.132 216.023 862.143 217.137H858.297ZM866.072 222H868.001V217.025C868.001 216.018 868.672 215.336 869.503 215.336C870.318 215.336 870.877 215.885 870.877 216.727V222H872.768V216.897C872.768 215.975 873.317 215.336 874.249 215.336C875.027 215.336 875.644 215.794 875.644 216.806V222H877.578V216.508C877.578 214.681 876.523 213.712 875.021 213.712C873.833 213.712 872.928 214.298 872.566 215.208H872.48C872.166 214.282 871.372 213.712 870.27 213.712C869.173 213.712 868.352 214.276 868.011 215.208H867.915V213.818H866.072V222ZM880.07 222H886.85V220.343H882.046V211.091H880.07V222ZM888.93 222H890.859V213.818H888.93V222ZM889.9 212.657C890.512 212.657 891.013 212.188 891.013 211.613C891.013 211.032 890.512 210.564 889.9 210.564C889.282 210.564 888.781 211.032 888.781 211.613C888.781 212.188 889.282 212.657 889.9 212.657ZM899.758 215.981C899.492 214.596 898.384 213.712 896.466 213.712C894.495 213.712 893.153 214.681 893.158 216.194C893.153 217.387 893.888 218.175 895.46 218.5L896.855 218.793C897.606 218.958 897.958 219.262 897.958 219.725C897.958 220.285 897.35 220.706 896.434 220.706C895.55 220.706 894.975 220.322 894.81 219.587L892.929 219.768C893.169 221.27 894.431 222.16 896.44 222.16C898.485 222.16 899.929 221.1 899.934 219.55C899.929 218.383 899.178 217.669 897.633 217.334L896.237 217.036C895.406 216.849 895.076 216.561 895.081 216.087C895.076 215.533 895.689 215.15 896.493 215.15C897.382 215.15 897.851 215.635 898 216.173L899.758 215.981ZM906.06 213.818H904.446V211.858H902.517V213.818H901.356V215.31H902.517V219.859C902.507 221.398 903.625 222.154 905.074 222.112C905.623 222.096 906.001 221.989 906.209 221.92L905.884 220.413C905.777 220.439 905.559 220.487 905.319 220.487C904.834 220.487 904.446 220.317 904.446 219.539V215.31H906.06V213.818Z" fill="#6048E5"/>
<path d="M847.169 248.269H850.669V247.007H848.692V235.943H850.669V234.681H847.169V248.269ZM853.248 246.101C853.829 246.101 854.313 245.627 854.313 245.036C854.313 244.455 853.829 243.976 853.248 243.976C852.662 243.976 852.183 244.455 852.183 245.036C852.183 245.627 852.662 246.101 853.248 246.101ZM857.496 246.101C858.077 246.101 858.561 245.627 858.561 245.036C858.561 244.455 858.077 243.976 857.496 243.976C856.91 243.976 856.431 244.455 856.431 245.036C856.431 245.627 856.91 246.101 857.496 246.101ZM861.744 246.101C862.325 246.101 862.809 245.627 862.809 245.036C862.809 244.455 862.325 243.976 861.744 243.976C861.158 243.976 860.679 244.455 860.679 245.036C860.679 245.627 861.158 246.101 861.744 246.101ZM867.83 234.681H864.33V235.943H866.306V247.007H864.33V248.269H867.83V234.681Z" fill="#64778C"/>
<line x1="717.5" y1="365" x2="717.5" y2="444" stroke="url(#paint8_linear_1601_16967)"/>
<circle cx="1008" cy="265" r="8" fill="url(#paint9_linear_1601_16967)"/>
<path d="M1027.34 259.091H1025.41V270H1027.34V259.091ZM1029.77 270H1031.7V261.818H1029.77V270ZM1030.74 260.657C1031.35 260.657 1031.86 260.188 1031.86 259.613C1031.86 259.032 1031.35 258.564 1030.74 258.564C1030.12 258.564 1029.62 259.032 1029.62 259.613C1029.62 260.188 1030.12 260.657 1030.74 260.657ZM1040.6 263.981C1040.33 262.596 1039.23 261.712 1037.31 261.712C1035.34 261.712 1034 262.681 1034 264.194C1034 265.387 1034.73 266.175 1036.3 266.5L1037.7 266.793C1038.45 266.958 1038.8 267.262 1038.8 267.725C1038.8 268.285 1038.19 268.706 1037.28 268.706C1036.39 268.706 1035.82 268.322 1035.65 267.587L1033.77 267.768C1034.01 269.27 1035.27 270.16 1037.28 270.16C1039.33 270.16 1040.77 269.1 1040.78 267.55C1040.77 266.383 1040.02 265.669 1038.47 265.334L1037.08 265.036C1036.25 264.849 1035.92 264.561 1035.92 264.087C1035.92 263.533 1036.53 263.15 1037.33 263.15C1038.22 263.15 1038.69 263.635 1038.84 264.173L1040.6 263.981ZM1046.9 261.818H1045.29V259.858H1043.36V261.818H1042.2V263.31H1043.36V267.859C1043.35 269.398 1044.47 270.154 1045.92 270.112C1046.46 270.096 1046.84 269.989 1047.05 269.92L1046.73 268.413C1046.62 268.439 1046.4 268.487 1046.16 268.487C1045.68 268.487 1045.29 268.317 1045.29 267.539V263.31H1046.9V261.818ZM1051.2 259.091H1049.23V270H1051.2V259.091ZM1057.79 261.818H1056.18V259.858H1054.25V261.818H1053.09V263.31H1054.25V267.859C1054.24 269.398 1055.36 270.154 1056.81 270.112C1057.36 270.096 1057.73 269.989 1057.94 269.92L1057.62 268.413C1057.51 268.439 1057.29 268.487 1057.05 268.487C1056.57 268.487 1056.18 268.317 1056.18 267.539V263.31H1057.79V261.818ZM1063.39 270.16C1065.3 270.16 1066.61 269.228 1066.95 267.805L1065.15 267.603C1064.89 268.295 1064.25 268.658 1063.42 268.658C1062.17 268.658 1061.34 267.837 1061.33 266.436H1067.03V265.845C1067.03 262.974 1065.3 261.712 1063.29 261.712C1060.94 261.712 1059.42 263.432 1059.42 265.957C1059.42 268.525 1060.92 270.16 1063.39 270.16ZM1061.33 265.137C1061.39 264.093 1062.16 263.214 1063.31 263.214C1064.42 263.214 1065.17 264.023 1065.18 265.137H1061.33ZM1069.11 270H1071.04V265.025C1071.04 264.018 1071.71 263.336 1072.54 263.336C1073.35 263.336 1073.91 263.885 1073.91 264.727V270H1075.8V264.897C1075.8 263.975 1076.35 263.336 1077.28 263.336C1078.06 263.336 1078.68 263.794 1078.68 264.806V270H1080.61V264.508C1080.61 262.681 1079.56 261.712 1078.06 261.712C1076.87 261.712 1075.96 262.298 1075.6 263.208H1075.52C1075.2 262.282 1074.41 261.712 1073.31 261.712C1072.21 261.712 1071.39 262.276 1071.05 263.208H1070.95V261.818H1069.11V270Z" fill="#6048E5"/>
<path d="M1024.97 286.5H1026.33V285.461C1026.33 284.657 1026.68 283.98 1027.12 283.347L1026.33 282.782C1025.51 283.437 1024.97 284.572 1024.97 285.477V286.5ZM1027.69 286.5H1029.05V285.461C1029.05 284.657 1029.4 283.98 1029.83 283.347L1029.04 282.782C1028.23 283.437 1027.69 284.572 1027.69 285.477V286.5ZM1033.46 294H1035.13L1037.42 285.829H1037.51L1039.8 294H1041.46L1044.49 283.091H1042.75L1040.63 291.544H1040.53L1038.32 283.091H1036.61L1034.4 291.539H1034.3L1032.17 283.091H1030.44L1033.46 294ZM1045.35 294H1046.94V289.004C1046.94 287.933 1047.77 287.161 1048.9 287.161C1049.23 287.161 1049.6 287.219 1049.73 287.256V285.733C1049.57 285.712 1049.26 285.696 1049.05 285.696C1048.09 285.696 1047.27 286.239 1046.98 287.118H1046.89V285.818H1045.35V294ZM1051.11 294H1052.7V285.818H1051.11V294ZM1051.91 284.556C1052.46 284.556 1052.92 284.13 1052.92 283.608C1052.92 283.086 1052.46 282.654 1051.91 282.654C1051.36 282.654 1050.91 283.086 1050.91 283.608C1050.91 284.13 1051.36 284.556 1051.91 284.556ZM1058.66 285.818H1056.98V283.858H1055.39V285.818H1054.19V287.097H1055.39V291.928C1055.39 293.414 1056.52 294.133 1057.78 294.107C1058.28 294.101 1058.63 294.005 1058.81 293.936L1058.52 292.62C1058.42 292.642 1058.22 292.69 1057.97 292.69C1057.45 292.69 1056.98 292.519 1056.98 291.598V287.097H1058.66V285.818ZM1063.86 294.165C1065.65 294.165 1066.91 293.286 1067.27 291.955L1065.76 291.683C1065.48 292.455 1064.78 292.849 1063.88 292.849C1062.52 292.849 1061.6 291.965 1061.56 290.388H1067.37V289.824C1067.37 286.868 1065.6 285.712 1063.75 285.712C1061.47 285.712 1059.97 287.448 1059.97 289.962C1059.97 292.503 1061.45 294.165 1063.86 294.165ZM1061.56 289.195C1061.63 288.034 1062.47 287.027 1063.76 287.027C1065 287.027 1065.81 287.944 1065.81 289.195H1061.56ZM1076.93 285.818H1075.25V283.858H1073.66V285.818H1072.46V287.097H1073.66V291.928C1073.65 293.414 1074.79 294.133 1076.05 294.107C1076.55 294.101 1076.89 294.005 1077.08 293.936L1076.79 292.62C1076.68 292.642 1076.49 292.69 1076.23 292.69C1075.71 292.69 1075.25 292.519 1075.25 291.598V287.097H1076.93V285.818ZM1082.13 294.165C1083.91 294.165 1085.18 293.286 1085.54 291.955L1084.03 291.683C1083.74 292.455 1083.05 292.849 1082.15 292.849C1080.78 292.849 1079.87 291.965 1079.82 290.388H1085.64V289.824C1085.64 286.868 1083.87 285.712 1082.02 285.712C1079.74 285.712 1078.24 287.448 1078.24 289.962C1078.24 292.503 1079.72 294.165 1082.13 294.165ZM1079.83 289.195C1079.89 288.034 1080.73 287.027 1082.03 287.027C1083.26 287.027 1084.07 287.944 1084.08 289.195H1079.83ZM1093.54 287.816C1093.21 286.543 1092.21 285.712 1090.44 285.712C1088.59 285.712 1087.28 286.686 1087.28 288.135C1087.28 289.297 1087.99 290.069 1089.52 290.41L1090.91 290.713C1091.7 290.889 1092.06 291.241 1092.06 291.752C1092.06 292.386 1091.39 292.881 1090.34 292.881C1089.39 292.881 1088.78 292.471 1088.58 291.667L1087.04 291.901C1087.31 293.35 1088.52 294.165 1090.35 294.165C1092.33 294.165 1093.7 293.116 1093.7 291.635C1093.7 290.479 1092.96 289.765 1091.46 289.419L1090.16 289.121C1089.26 288.908 1088.87 288.604 1088.88 288.05C1088.87 287.422 1089.55 286.974 1090.46 286.974C1091.45 286.974 1091.91 287.523 1092.09 288.071L1093.54 287.816ZM1099.27 285.818H1097.59V283.858H1096V285.818H1094.8V287.097H1096V291.928C1095.99 293.414 1097.13 294.133 1098.38 294.107C1098.89 294.101 1099.23 294.005 1099.42 293.936L1099.13 292.62C1099.02 292.642 1098.83 292.69 1098.57 292.69C1098.05 292.69 1097.59 292.519 1097.59 291.598V287.097H1099.27V285.818ZM1107.03 287.816C1106.7 286.543 1105.7 285.712 1103.93 285.712C1102.09 285.712 1100.78 286.686 1100.78 288.135C1100.78 289.297 1101.48 290.069 1103.01 290.41L1104.4 290.713C1105.19 290.889 1105.55 291.241 1105.55 291.752C1105.55 292.386 1104.88 292.881 1103.83 292.881C1102.88 292.881 1102.27 292.471 1102.08 291.667L1100.54 291.901C1100.8 293.35 1102.01 294.165 1103.84 294.165C1105.82 294.165 1107.19 293.116 1107.19 291.635C1107.19 290.479 1106.45 289.765 1104.95 289.419L1103.65 289.121C1102.75 288.908 1102.36 288.604 1102.37 288.05C1102.36 287.422 1103.04 286.974 1103.95 286.974C1104.94 286.974 1105.4 287.523 1105.59 288.071L1107.03 287.816ZM1110.31 283.091H1108.95V284.13C1108.95 284.955 1108.58 285.632 1108.17 286.244L1108.96 286.809C1109.78 286.148 1110.31 285.019 1110.31 284.114V283.091ZM1113.02 283.091H1111.66V284.13C1111.66 284.955 1111.29 285.632 1110.88 286.244L1111.67 286.809C1112.49 286.148 1113.02 285.019 1113.02 284.114V283.091Z" fill="#64778C"/>
<circle cx="894" cy="82" r="8" fill="url(#paint10_linear_1601_16967)"/>
<path d="M913.34 76.0909H911.411V87H913.34V76.0909ZM915.773 87H917.701V78.8182H915.773V87ZM916.742 77.657C917.355 77.657 917.855 77.1882 917.855 76.6129C917.855 76.0323 917.355 75.5636 916.742 75.5636C916.124 75.5636 915.623 76.0323 915.623 76.6129C915.623 77.1882 916.124 77.657 916.742 77.657ZM926.6 80.9808C926.334 79.5959 925.226 78.7116 923.308 78.7116C921.337 78.7116 919.995 79.6811 920 81.1939C919.995 82.3871 920.73 83.1754 922.302 83.5004L923.697 83.7933C924.448 83.9585 924.8 84.2621 924.8 84.7255C924.8 85.2848 924.193 85.7056 923.276 85.7056C922.392 85.7056 921.817 85.3221 921.652 84.587L919.771 84.7681C920.011 86.2702 921.274 87.1598 923.282 87.1598C925.327 87.1598 926.771 86.0998 926.776 84.5497C926.771 83.3832 926.02 82.6694 924.475 82.3338L923.079 82.0355C922.248 81.8491 921.918 81.5614 921.923 81.0874C921.918 80.5334 922.531 80.1499 923.335 80.1499C924.225 80.1499 924.693 80.6346 924.842 81.1726L926.6 80.9808ZM932.902 78.8182H931.288V76.858H929.359V78.8182H928.198V80.3097H929.359V84.8587C929.349 86.3981 930.467 87.1545 931.916 87.1119C932.465 87.0959 932.843 86.9893 933.051 86.9201L932.726 85.4126C932.619 85.4393 932.401 85.4872 932.161 85.4872C931.676 85.4872 931.288 85.3168 931.288 84.5391V80.3097H932.902V78.8182ZM937.202 76.0909H935.225V87H937.202V76.0909ZM943.792 78.8182H942.178V76.858H940.25V78.8182H939.088V80.3097H940.25V84.8587C940.239 86.3981 941.358 87.1545 942.806 87.1119C943.355 87.0959 943.733 86.9893 943.941 86.9201L943.616 85.4126C943.51 85.4393 943.291 85.4872 943.051 85.4872C942.567 85.4872 942.178 85.3168 942.178 84.5391V80.3097H943.792V78.8182ZM949.389 87.1598C951.296 87.1598 952.606 86.2276 952.947 84.8054L951.147 84.603C950.886 85.2955 950.246 85.6577 949.415 85.6577C948.169 85.6577 947.343 84.8374 947.327 83.4364H953.027V82.8452C953.027 79.9741 951.301 78.7116 949.288 78.7116C946.944 78.7116 945.415 80.4322 945.415 82.957C945.415 85.5245 946.923 87.1598 949.389 87.1598ZM947.333 82.1367C947.391 81.0927 948.164 80.2138 949.314 80.2138C950.422 80.2138 951.168 81.0234 951.179 82.1367H947.333ZM955.108 87H957.037V82.0249C957.037 81.0181 957.708 80.3363 958.539 80.3363C959.354 80.3363 959.913 80.8849 959.913 81.7266V87H961.804V81.897C961.804 80.9755 962.353 80.3363 963.285 80.3363C964.062 80.3363 964.68 80.7944 964.68 81.8065V87H966.614V81.5082C966.614 79.6811 965.559 78.7116 964.057 78.7116C962.869 78.7116 961.964 79.2976 961.602 80.2085H961.516C961.202 79.2816 960.408 78.7116 959.306 78.7116C958.208 78.7116 957.388 79.2763 957.047 80.2085H956.951V78.8182H955.108V87Z" fill="#6048E5"/>
<path d="M911.099 103.5H912.462V102.461C912.462 101.657 912.814 100.98 913.245 100.347L912.457 99.782C911.642 100.437 911.099 101.572 911.099 102.477V103.5ZM913.815 103.5H915.179V102.461C915.179 101.657 915.53 100.98 915.962 100.347L915.174 99.782C914.359 100.437 913.815 101.572 913.815 102.477V103.5ZM919.105 100.091H917.459V111H919.105V100.091ZM921.374 111H922.967V105.956C922.967 104.853 923.739 104.086 924.644 104.086C925.529 104.086 926.141 104.672 926.141 105.561V111H927.729V105.785C927.729 104.8 928.331 104.086 929.369 104.086C930.211 104.086 930.903 104.555 930.903 105.663V111H932.496V105.513C932.496 103.644 931.452 102.712 929.971 102.712C928.794 102.712 927.91 103.276 927.516 104.15H927.43C927.073 103.255 926.322 102.712 925.23 102.712C924.149 102.712 923.345 103.25 923.004 104.15H922.903V102.818H921.374V111ZM934.631 114.068H936.223V109.727H936.319C936.607 110.249 937.193 111.16 938.684 111.16C940.666 111.16 942.104 109.572 942.104 106.925C942.104 104.272 940.645 102.712 938.668 102.712C937.15 102.712 936.602 103.638 936.319 104.145H936.186V102.818H934.631V114.068ZM936.191 106.909C936.191 105.199 936.937 104.065 938.327 104.065C939.771 104.065 940.495 105.284 940.495 106.909C940.495 108.55 939.75 109.801 938.327 109.801C936.958 109.801 936.191 108.63 936.191 106.909ZM945.481 100.091H943.889V111H945.481V100.091ZM951.15 111.165C952.935 111.165 954.197 110.286 954.559 108.955L953.052 108.683C952.764 109.455 952.072 109.849 951.166 109.849C949.803 109.849 948.886 108.965 948.844 107.388H954.66V106.824C954.66 103.868 952.892 102.712 951.038 102.712C948.758 102.712 947.256 104.448 947.256 106.962C947.256 109.503 948.737 111.165 951.15 111.165ZM948.849 106.195C948.913 105.034 949.755 104.027 951.049 104.027C952.285 104.027 953.094 104.944 953.1 106.195H948.849ZM956.428 111H958.02V105.956C958.02 104.853 958.793 104.086 959.698 104.086C960.582 104.086 961.195 104.672 961.195 105.561V111H962.782V105.785C962.782 104.8 963.384 104.086 964.423 104.086C965.265 104.086 965.957 104.555 965.957 105.663V111H967.55V105.513C967.55 103.644 966.506 102.712 965.025 102.712C963.848 102.712 962.963 103.276 962.569 104.15H962.484C962.127 103.255 961.376 102.712 960.284 102.712C959.203 102.712 958.398 103.25 958.058 104.15H957.956V102.818H956.428V111ZM973.211 111.165C974.995 111.165 976.258 110.286 976.62 108.955L975.112 108.683C974.825 109.455 974.132 109.849 973.227 109.849C971.863 109.849 970.947 108.965 970.904 107.388H976.721V106.824C976.721 103.868 974.953 102.712 973.099 102.712C970.819 102.712 969.317 104.448 969.317 106.962C969.317 109.503 970.798 111.165 973.211 111.165ZM970.91 106.195C970.973 105.034 971.815 104.027 973.11 104.027C974.345 104.027 975.155 104.944 975.16 106.195H970.91ZM980.081 106.142C980.081 104.837 980.88 104.091 981.988 104.091C983.069 104.091 983.724 104.8 983.724 105.988V111H985.317V105.796C985.317 103.772 984.204 102.712 982.531 102.712C981.301 102.712 980.496 103.282 980.118 104.15H980.017V102.818H978.488V111H980.081V106.142ZM991.272 102.818H989.594V100.858H988.002V102.818H986.803V104.097H988.002V108.928C987.996 110.414 989.131 111.133 990.388 111.107C990.894 111.101 991.235 111.005 991.421 110.936L991.134 109.62C991.027 109.642 990.83 109.69 990.574 109.69C990.058 109.69 989.594 109.519 989.594 108.598V104.097H991.272V102.818ZM1000.07 111.16C1001.56 111.16 1002.14 110.249 1002.43 109.727H1002.56V111H1004.12V100.091H1002.53V104.145H1002.43C1002.14 103.638 1001.6 102.712 1000.08 102.712C998.101 102.712 996.647 104.272 996.647 106.925C996.647 109.572 998.08 111.16 1000.07 111.16ZM1000.42 109.801C998.996 109.801 998.256 108.55 998.256 106.909C998.256 105.284 998.98 104.065 1000.42 104.065C1001.81 104.065 1002.55 105.199 1002.55 106.909C1002.55 108.63 1001.79 109.801 1000.42 109.801ZM1006.39 111H1007.99V106.004C1007.99 104.933 1008.81 104.161 1009.94 104.161C1010.27 104.161 1010.64 104.219 1010.77 104.256V102.733C1010.61 102.712 1010.3 102.696 1010.1 102.696C1009.14 102.696 1008.32 103.239 1008.02 104.118H1007.93V102.818H1006.39V111ZM1015.3 111.165C1017.61 111.165 1019.12 109.477 1019.12 106.946C1019.12 104.4 1017.61 102.712 1015.3 102.712C1013 102.712 1011.49 104.4 1011.49 106.946C1011.49 109.477 1013 111.165 1015.3 111.165ZM1015.31 109.828C1013.8 109.828 1013.1 108.512 1013.1 106.941C1013.1 105.375 1013.8 104.043 1015.31 104.043C1016.81 104.043 1017.51 105.375 1017.51 106.941C1017.51 108.512 1016.81 109.828 1015.31 109.828ZM1020.9 114.068H1022.49V109.727H1022.58C1022.87 110.249 1023.46 111.16 1024.95 111.16C1026.93 111.16 1028.37 109.572 1028.37 106.925C1028.37 104.272 1026.91 102.712 1024.93 102.712C1023.41 102.712 1022.87 103.638 1022.58 104.145H1022.45V102.818H1020.9V114.068ZM1022.46 106.909C1022.46 105.199 1023.2 104.065 1024.59 104.065C1026.04 104.065 1026.76 105.284 1026.76 106.909C1026.76 108.55 1026.01 109.801 1024.59 109.801C1023.22 109.801 1022.46 108.63 1022.46 106.909ZM1033.22 111.16C1034.71 111.16 1035.29 110.249 1035.58 109.727H1035.71V111H1037.27V100.091H1035.68V104.145H1035.58C1035.29 103.638 1034.75 102.712 1033.23 102.712C1031.25 102.712 1029.8 104.272 1029.8 106.925C1029.8 109.572 1031.23 111.16 1033.22 111.16ZM1033.57 109.801C1032.15 109.801 1031.4 108.55 1031.4 106.909C1031.4 105.284 1032.13 104.065 1033.57 104.065C1034.96 104.065 1035.7 105.199 1035.7 106.909C1035.7 108.63 1034.94 109.801 1033.57 109.801ZM1042.99 111.165C1045.3 111.165 1046.8 109.477 1046.8 106.946C1046.8 104.4 1045.3 102.712 1042.99 102.712C1040.68 102.712 1039.18 104.4 1039.18 106.946C1039.18 109.477 1040.68 111.165 1042.99 111.165ZM1042.99 109.828C1041.49 109.828 1040.78 108.512 1040.78 106.941C1040.78 105.375 1041.49 104.043 1042.99 104.043C1044.49 104.043 1045.19 105.375 1045.19 106.941C1045.19 108.512 1044.49 109.828 1042.99 109.828ZM1050.11 111H1051.73L1053.39 105.093H1053.51L1055.17 111H1056.8L1059.2 102.818H1057.55L1055.96 108.8H1055.88L1054.28 102.818H1052.64L1051.03 108.827H1050.95L1049.34 102.818H1047.7L1050.11 111ZM1062.3 106.142C1062.3 104.837 1063.1 104.091 1064.21 104.091C1065.29 104.091 1065.95 104.8 1065.95 105.988V111H1067.54V105.796C1067.54 103.772 1066.43 102.712 1064.75 102.712C1063.52 102.712 1062.72 103.282 1062.34 104.15H1062.24V102.818H1060.71V111H1062.3V106.142ZM1073.64 111H1075.24V105.956C1075.24 104.853 1076.01 104.086 1076.91 104.086C1077.8 104.086 1078.41 104.672 1078.41 105.561V111H1080V105.785C1080 104.8 1080.6 104.086 1081.64 104.086C1082.48 104.086 1083.17 104.555 1083.17 105.663V111H1084.77V105.513C1084.77 103.644 1083.72 102.712 1082.24 102.712C1081.06 102.712 1080.18 103.276 1079.79 104.15H1079.7C1079.34 103.255 1078.59 102.712 1077.5 102.712C1076.42 102.712 1075.62 103.25 1075.27 104.15H1075.17V102.818H1073.64V111ZM1090.43 111.165C1092.21 111.165 1093.47 110.286 1093.84 108.955L1092.33 108.683C1092.04 109.455 1091.35 109.849 1090.44 109.849C1089.08 109.849 1088.16 108.965 1088.12 107.388H1093.94V106.824C1093.94 103.868 1092.17 102.712 1090.32 102.712C1088.04 102.712 1086.53 104.448 1086.53 106.962C1086.53 109.503 1088.01 111.165 1090.43 111.165ZM1088.13 106.195C1088.19 105.034 1089.03 104.027 1090.33 104.027C1091.56 104.027 1092.37 104.944 1092.38 106.195H1088.13ZM1097.3 106.142C1097.3 104.837 1098.1 104.091 1099.2 104.091C1100.29 104.091 1100.94 104.8 1100.94 105.988V111H1102.53V105.796C1102.53 103.772 1101.42 102.712 1099.75 102.712C1098.52 102.712 1097.71 103.282 1097.33 104.15H1097.23V102.818H1095.7V111H1097.3V106.142ZM1109.85 107.607C1109.86 108.997 1108.82 109.658 1107.93 109.658C1106.94 109.658 1106.26 108.944 1106.26 107.831V102.818H1104.67V108.022C1104.67 110.052 1105.78 111.107 1107.35 111.107C1108.58 111.107 1109.42 110.457 1109.8 109.583H1109.88V111H1111.45V102.818H1109.85V107.607ZM1115.18 100.091H1113.82V101.13C1113.82 101.955 1113.45 102.632 1113.04 103.244L1113.83 103.809C1114.65 103.148 1115.18 102.019 1115.18 101.114V100.091ZM1117.89 100.091H1116.53V101.13C1116.53 101.955 1116.16 102.632 1115.75 103.244L1116.54 103.809C1117.36 103.148 1117.89 102.019 1117.89 101.114V100.091Z" fill="#64778C"/>
<circle opacity="0.1" cx="717" cy="317" r="47.5" stroke="#6048E5"/>
<circle opacity="0.3" cx="717" cy="317" r="15" stroke="#6048E5" stroke-width="2"/>
<circle cx="717" cy="317" r="9" fill="url(#paint11_linear_1601_16967)"/>
<path d="M686.453 355H688.429V351.314H690.517C693.037 351.314 694.39 349.801 694.39 347.702C694.39 345.62 693.053 344.091 690.544 344.091H686.453V355ZM688.429 349.689V345.742H690.24C691.721 345.742 692.376 346.541 692.376 347.702C692.376 348.864 691.721 349.689 690.251 349.689H688.429ZM696.556 355H703.694V353.343H698.532V350.366H703.284V348.709H698.532V345.748H703.651V344.091H696.556V355ZM706.118 355H708.094V351.005H710.107L712.249 355H714.454L712.094 350.675C713.378 350.158 714.054 349.061 714.054 347.58C714.054 345.497 712.712 344.091 710.209 344.091H706.118V355ZM708.094 349.364V345.742H709.905C711.38 345.742 712.041 346.419 712.041 347.58C712.041 348.741 711.38 349.364 709.916 349.364H708.094ZM722.252 347.09H724.154C724.116 345.247 722.545 343.942 720.223 343.942C717.932 343.942 716.212 345.231 716.217 347.159C716.217 348.725 717.33 349.625 719.125 350.089L720.366 350.408C721.544 350.707 722.321 351.074 722.327 351.921C722.321 352.853 721.437 353.477 720.148 353.477C718.912 353.477 717.953 352.923 717.874 351.777H715.929C716.009 353.945 717.623 355.165 720.164 355.165C722.779 355.165 724.298 353.86 724.303 351.937C724.298 350.046 722.737 349.183 721.096 348.794L720.073 348.539C719.179 348.326 718.209 347.947 718.22 347.037C718.225 346.216 718.96 345.614 720.196 345.614C721.373 345.614 722.151 346.163 722.252 347.09ZM736.263 349.545C736.263 346.019 734.111 343.942 731.25 343.942C728.384 343.942 726.238 346.019 726.238 349.545C726.238 353.066 728.384 355.149 731.25 355.149C734.111 355.149 736.263 353.072 736.263 349.545ZM734.276 349.545C734.276 352.028 733.029 353.375 731.25 353.375C729.476 353.375 728.225 352.028 728.225 349.545C728.225 347.063 729.476 345.716 731.25 345.716C733.029 345.716 734.276 347.063 734.276 349.545ZM747.546 344.091H745.58V351.527H745.484L740.349 344.091H738.581V355H740.557V347.569H740.648L745.788 355H747.546V344.091Z" fill="#6048E5"/>
<rect width="1437" height="88" fill="url(#paint12_linear_1601_16967)"/>
<defs>
<linearGradient id="paint0_linear_1601_16967" x1="568" y1="271" x2="568" y2="287" gradientUnits="userSpaceOnUse">
<stop stop-color="#7963F5"/>
<stop offset="1" stop-color="#5D46DB"/>
</linearGradient>
<linearGradient id="paint1_linear_1601_16967" x1="729" y1="306.001" x2="819.726" y2="301.018" gradientUnits="userSpaceOnUse">
<stop stop-color="#BDB4FE"/>
<stop offset="1" stop-color="#BDB4FE" stop-opacity="0"/>
</linearGradient>
<linearGradient id="paint2_linear_1601_16967" x1="832" y1="209.001" x2="887.812" y2="207.742" gradientUnits="userSpaceOnUse">
<stop stop-color="#BDB4FE"/>
<stop offset="1" stop-color="#BDB4FE" stop-opacity="0"/>
</linearGradient>
<linearGradient id="paint3_linear_1601_16967" x1="837" y1="222" x2="999.62" y2="253.07" gradientUnits="userSpaceOnUse">
<stop stop-color="#BDB4FE" stop-opacity="0"/>
<stop offset="1" stop-color="#BDB4FE"/>
</linearGradient>
<linearGradient id="paint4_linear_1601_16967" x1="701" y1="312" x2="579.5" y2="285" gradientUnits="userSpaceOnUse">
<stop stop-color="#BDB4FE"/>
<stop offset="1" stop-color="#BDB4FE" stop-opacity="0"/>
</linearGradient>
<linearGradient id="paint5_linear_1601_16967" x1="708" y1="303.001" x2="629.48" y2="300.65" gradientUnits="userSpaceOnUse">
<stop stop-color="#BDB4FE"/>
<stop offset="1" stop-color="#BDB4FE" stop-opacity="0"/>
</linearGradient>
<linearGradient id="paint6_linear_1601_16967" x1="620" y1="161" x2="620" y2="177" gradientUnits="userSpaceOnUse">
<stop stop-color="#7963F5"/>
<stop offset="1" stop-color="#5D46DB"/>
</linearGradient>
<linearGradient id="paint7_linear_1601_16967" x1="829" y1="209" x2="829" y2="225" gradientUnits="userSpaceOnUse">
<stop stop-color="#7963F5"/>
<stop offset="1" stop-color="#5D46DB"/>
</linearGradient>
<linearGradient id="paint8_linear_1601_16967" x1="716" y1="365" x2="746.874" y2="373.604" gradientUnits="userSpaceOnUse">
<stop stop-color="#BDB4FE"/>
<stop offset="1" stop-color="#BDB4FE" stop-opacity="0"/>
</linearGradient>
<linearGradient id="paint9_linear_1601_16967" x1="1008" y1="257" x2="1008" y2="273" gradientUnits="userSpaceOnUse">
<stop stop-color="#7963F5"/>
<stop offset="1" stop-color="#5D46DB"/>
</linearGradient>
<linearGradient id="paint10_linear_1601_16967" x1="894" y1="74" x2="894" y2="90" gradientUnits="userSpaceOnUse">
<stop stop-color="#7963F5"/>
<stop offset="1" stop-color="#5D46DB"/>
</linearGradient>
<linearGradient id="paint11_linear_1601_16967" x1="717" y1="308" x2="717" y2="326" gradientUnits="userSpaceOnUse">
<stop stop-color="#7963F5"/>
<stop offset="1" stop-color="#5D46DB"/>
</linearGradient>
<linearGradient id="paint12_linear_1601_16967" x1="718.5" y1="0" x2="718.5" y2="88" gradientUnits="userSpaceOnUse">
<stop stop-color="white"/>
<stop offset="1" stop-color="white" stop-opacity="0"/>
</linearGradient>
</defs>
</svg>
