<svg width="413" height="350" viewBox="0 0 413 350" fill="none" xmlns="http://www.w3.org/2000/svg">
<path d="M5.48289 191.818H3.78367V191.174C3.78367 190.534 4.05001 190.178 4.76911 190.178C5.07274 190.178 5.32842 190.247 5.48822 190.295L5.87707 188.803C5.62671 188.718 5.07806 188.58 4.41223 188.58C2.99 188.58 1.85541 189.395 1.85541 191.046V191.818H0.646245V193.31H1.85541V200H3.78367V193.31H5.48289V191.818ZM7.44301 200H9.37128V191.818H7.44301V200ZM8.41247 190.657C9.02505 190.657 9.52576 190.188 9.52576 189.613C9.52576 189.032 9.02505 188.564 8.41247 188.564C7.79458 188.564 7.29387 189.032 7.29387 189.613C7.29387 190.188 7.79458 190.657 8.41247 190.657ZM11.8041 200H13.7324V195.19C13.7324 194.151 14.5154 193.416 15.5755 193.416C15.9004 193.416 16.3052 193.475 16.4703 193.528V191.754C16.2946 191.722 15.9909 191.701 15.7779 191.701C14.8404 191.701 14.0573 192.234 13.759 193.182H13.6738V191.818H11.8041V200ZM24.668 193.981C24.4017 192.596 23.2937 191.712 21.3761 191.712C19.4052 191.712 18.0629 192.681 18.0682 194.194C18.0629 195.387 18.798 196.175 20.3694 196.5L21.765 196.793C22.516 196.958 22.8676 197.262 22.8676 197.725C22.8676 198.285 22.2604 198.706 21.3442 198.706C20.4599 198.706 19.8847 198.322 19.7195 197.587L17.8392 197.768C18.0789 199.27 19.3413 200.16 21.3495 200.16C23.3949 200.16 24.8385 199.1 24.8438 197.55C24.8385 196.383 24.0874 195.669 22.5427 195.334L21.1471 195.036C20.3161 194.849 19.9859 194.561 19.9912 194.087C19.9859 193.533 20.5984 193.15 21.4028 193.15C22.2923 193.15 22.7611 193.635 22.9102 194.173L24.668 193.981ZM30.9694 191.818H29.3554V189.858H27.4272V191.818H26.2659V193.31H27.4272V197.859C27.4165 199.398 28.5351 200.154 29.984 200.112C30.5326 200.096 30.9108 199.989 31.1186 199.92L30.7936 198.413C30.6871 198.439 30.4687 198.487 30.229 198.487C29.7443 198.487 29.3554 198.317 29.3554 197.539V193.31H30.9694V191.818ZM42.2579 189.091H40.2924V196.527H40.1965L35.0616 189.091H33.2931V200H35.2693V192.569H35.3598L40.5001 200H42.2579V189.091ZM47.1304 200.165C48.4142 200.165 49.1812 199.563 49.5328 198.876H49.5967V200H51.4504V194.524C51.4504 192.362 49.6872 191.712 48.1265 191.712C46.406 191.712 45.085 192.479 44.6588 193.97L46.4593 194.226C46.651 193.667 47.1943 193.187 48.1372 193.187C49.0321 193.187 49.5221 193.645 49.5221 194.45V194.482C49.5221 195.036 48.9415 195.062 47.498 195.217C45.9106 195.387 44.3925 195.861 44.3925 197.704C44.3925 199.313 45.5697 200.165 47.1304 200.165ZM47.6311 198.748C46.8268 198.748 46.2515 198.381 46.2515 197.672C46.2515 196.932 46.8961 196.623 47.759 196.5C48.265 196.431 49.2771 196.303 49.5274 196.101V197.065C49.5274 197.976 48.7924 198.748 47.6311 198.748ZM53.8393 200H55.7676V195.025C55.7676 194.018 56.4387 193.336 57.2697 193.336C58.0847 193.336 58.644 193.885 58.644 194.727V200H60.535V194.897C60.535 193.975 61.0836 193.336 62.0158 193.336C62.7935 193.336 63.4114 193.794 63.4114 194.806V200H65.345V194.508C65.345 192.681 64.2903 191.712 62.7882 191.712C61.6003 191.712 60.6948 192.298 60.3326 193.208H60.2473C59.9331 192.282 59.1394 191.712 58.0367 191.712C56.9394 191.712 56.1191 192.276 55.7782 193.208H55.6823V191.818H53.8393V200ZM71.3734 200.16C73.2803 200.16 74.5907 199.228 74.9316 197.805L73.1312 197.603C72.8702 198.295 72.231 198.658 71.4 198.658C70.1536 198.658 69.3279 197.837 69.3119 196.436H75.0115V195.845C75.0115 192.974 73.2857 191.712 71.2722 191.712C68.9284 191.712 67.3997 193.432 67.3997 195.957C67.3997 198.525 68.9071 200.16 71.3734 200.16ZM69.3173 195.137C69.3759 194.093 70.1482 193.214 71.2988 193.214C72.4068 193.214 73.1525 194.023 73.1632 195.137H69.3173Z" fill="#6048E5"/>
<path d="M1.68142 213.091V224H3.24747V216.1H3.34868L6.56601 223.984H7.86572L11.0831 216.106H11.1843V224H12.7503V213.091H10.7528L7.27979 221.571H7.15194L3.67893 213.091H1.68142ZM17.3965 224.181C18.7495 224.181 19.5112 223.494 19.8149 222.881H19.8788V224H21.4342V218.567C21.4342 216.186 19.5592 215.712 18.2595 215.712C16.7786 215.712 15.415 216.308 14.8823 217.8L16.3791 218.141C16.6135 217.56 17.2101 217.001 18.2808 217.001C19.3088 217.001 19.8362 217.539 19.8362 218.466V218.503C19.8362 219.083 19.2396 219.073 17.7694 219.243C16.2193 219.424 14.632 219.829 14.632 221.688C14.632 223.297 15.8411 224.181 17.3965 224.181ZM17.7428 222.903C16.8426 222.903 16.1927 222.498 16.1927 221.71C16.1927 220.857 16.9491 220.554 17.8706 220.431C18.3873 220.362 19.6124 220.223 19.8415 219.994V221.049C19.8415 222.018 19.0691 222.903 17.7428 222.903ZM23.5555 224H25.1482V219.004C25.1482 217.933 25.9739 217.161 27.1031 217.161C27.4334 217.161 27.8062 217.219 27.9341 217.256V215.733C27.7743 215.712 27.46 215.696 27.2576 215.696C26.2988 215.696 25.4785 216.239 25.1802 217.118H25.0949V215.818H23.5555V224ZM29.3124 224H30.9051V215.818H29.3124V224ZM30.1167 214.556C30.6653 214.556 31.1234 214.13 31.1234 213.608C31.1234 213.086 30.6653 212.654 30.1167 212.654C29.5627 212.654 29.11 213.086 29.11 213.608C29.11 214.13 29.5627 214.556 30.1167 214.556ZM35.4288 224.181C36.7817 224.181 37.5435 223.494 37.8471 222.881H37.911V224H39.4664V218.567C39.4664 216.186 37.5914 215.712 36.2917 215.712C34.8109 215.712 33.4472 216.308 32.9146 217.8L34.4114 218.141C34.6457 217.56 35.2423 217.001 36.313 217.001C37.341 217.001 37.8684 217.539 37.8684 218.466V218.503C37.8684 219.083 37.2718 219.073 35.8016 219.243C34.2516 219.424 32.6642 219.829 32.6642 221.688C32.6642 223.297 33.8734 224.181 35.4288 224.181ZM35.775 222.903C34.8748 222.903 34.2249 222.498 34.2249 221.71C34.2249 220.857 34.9813 220.554 35.9028 220.431C36.4195 220.362 37.6447 220.223 37.8737 219.994V221.049C37.8737 222.018 37.1013 222.903 35.775 222.903Z" fill="#64778C"/>
<circle cx="92" cy="195" r="8" fill="url(#paint0_linear_1659_16186)"/>
<path d="M228 136L181 207" stroke="url(#paint1_linear_1659_16186)"/>
<path d="M166 21L226.5 120" stroke="url(#paint2_linear_1659_16186)"/>
<path d="M253 27.5L235.5 118" stroke="url(#paint3_linear_1659_16186)"/>
<path d="M98 197L157.148 217.999" stroke="url(#paint4_linear_1659_16186)"/>
<path d="M148 111L169 206" stroke="url(#paint5_linear_1659_16186)"/>
<path d="M85.4643 111H87.3926V102.818H85.4643V111ZM86.4338 101.657C87.0463 101.657 87.547 101.188 87.547 100.613C87.547 100.032 87.0463 99.5636 86.4338 99.5636C85.8159 99.5636 85.3152 100.032 85.3152 100.613C85.3152 101.188 85.8159 101.657 86.4338 101.657ZM89.8254 111H91.7537V106.025C91.7537 105.018 92.4249 104.336 93.2558 104.336C94.0708 104.336 94.6301 104.885 94.6301 105.727V111H96.5211V105.897C96.5211 104.975 97.0698 104.336 98.0019 104.336C98.7796 104.336 99.3975 104.794 99.3975 105.806V111H101.331V105.508C101.331 103.681 100.276 102.712 98.7743 102.712C97.5864 102.712 96.6809 103.298 96.3187 104.208H96.2335C95.9192 103.282 95.1255 102.712 94.0229 102.712C92.9256 102.712 92.1053 103.276 91.7644 104.208H91.6685V102.818H89.8254V111ZM106.092 111.165C107.375 111.165 108.143 110.563 108.494 109.876H108.558V111H110.412V105.524C110.412 103.362 108.649 102.712 107.088 102.712C105.367 102.712 104.046 103.479 103.62 104.97L105.421 105.226C105.612 104.667 106.156 104.187 107.098 104.187C107.993 104.187 108.483 104.645 108.483 105.45V105.482C108.483 106.036 107.903 106.062 106.459 106.217C104.872 106.387 103.354 106.861 103.354 108.704C103.354 110.313 104.531 111.165 106.092 111.165ZM106.592 109.748C105.788 109.748 105.213 109.381 105.213 108.672C105.213 107.932 105.857 107.623 106.72 107.5C107.226 107.431 108.238 107.303 108.489 107.101V108.065C108.489 108.976 107.754 109.748 106.592 109.748ZM116.359 114.239C118.569 114.239 120.199 113.227 120.199 111.133V102.818H118.298V104.171H118.191C117.898 103.58 117.286 102.712 115.842 102.712C113.951 102.712 112.465 104.192 112.465 106.882C112.465 109.551 113.951 110.883 115.837 110.883C117.238 110.883 117.893 110.132 118.191 109.53H118.287V111.08C118.287 112.284 117.488 112.779 116.391 112.779C115.23 112.779 114.718 112.23 114.484 111.751L112.747 112.172C113.099 113.317 114.276 114.239 116.359 114.239ZM116.375 109.37C115.102 109.37 114.431 108.379 114.431 106.872C114.431 105.386 115.091 104.294 116.375 104.294C117.616 104.294 118.298 105.322 118.298 106.872C118.298 108.433 117.605 109.37 116.375 109.37ZM126.248 111.16C128.155 111.16 129.465 110.228 129.806 108.805L128.006 108.603C127.745 109.295 127.105 109.658 126.274 109.658C125.028 109.658 124.202 108.837 124.186 107.436H129.886V106.845C129.886 103.974 128.16 102.712 126.147 102.712C123.803 102.712 122.274 104.432 122.274 106.957C122.274 109.525 123.782 111.16 126.248 111.16ZM124.192 106.137C124.25 105.093 125.023 104.214 126.173 104.214C127.281 104.214 128.027 105.023 128.038 106.137H124.192Z" fill="#6048E5"/>
<path d="M3.13894 130.142C3.13894 128.837 3.96458 128.091 5.09917 128.091C6.19647 128.091 6.85165 128.789 6.85165 129.988V135H8.44434V129.796C8.44434 127.756 7.32573 126.712 5.64249 126.712C4.36941 126.712 3.60236 127.266 3.21884 128.15H3.11763V124.091H1.54625V135H3.13894V130.142ZM14.3889 126.818H12.711V124.858H11.1183V126.818H9.91983V128.097H11.1183V132.928C11.113 134.414 12.2476 135.133 13.5047 135.107C14.0107 135.101 14.3517 135.005 14.5381 134.936L14.2504 133.62C14.1439 133.642 13.9468 133.69 13.6911 133.69C13.1744 133.69 12.711 133.519 12.711 132.598V128.097H14.3889V126.818ZM19.97 126.818H18.2921V124.858H16.6994V126.818H15.5009V128.097H16.6994V132.928C16.6941 134.414 17.8287 135.133 19.0858 135.107C19.5918 135.101 19.9327 135.005 20.1191 134.936L19.8315 133.62C19.725 133.642 19.5279 133.69 19.2722 133.69C18.7555 133.69 18.2921 133.519 18.2921 132.598V128.097H19.97V126.818ZM21.7318 138.068H23.3245V133.727H23.4204C23.708 134.249 24.2939 135.16 25.7854 135.16C27.767 135.16 29.2052 133.572 29.2052 130.925C29.2052 128.272 27.7457 126.712 25.7694 126.712C24.2513 126.712 23.7027 127.638 23.4204 128.145H23.2872V126.818H21.7318V138.068ZM23.2925 130.909C23.2925 129.199 24.0383 128.065 25.4285 128.065C26.8721 128.065 27.5965 129.284 27.5965 130.909C27.5965 132.55 26.8508 133.801 25.4285 133.801C24.0596 133.801 23.2925 132.63 23.2925 130.909ZM37.1207 128.816C36.7904 127.543 35.7943 126.712 34.0258 126.712C32.1775 126.712 30.8671 127.686 30.8671 129.135C30.8671 130.297 31.5702 131.069 33.1043 131.41L34.4893 131.713C35.2776 131.889 35.6452 132.241 35.6452 132.752C35.6452 133.386 34.9687 133.881 33.9246 133.881C32.9711 133.881 32.3586 133.471 32.1668 132.667L30.6274 132.901C30.8937 134.35 32.0976 135.165 33.9353 135.165C35.9115 135.165 37.2805 134.116 37.2805 132.635C37.2805 131.479 36.5454 130.765 35.0432 130.419L33.7435 130.121C32.8433 129.908 32.4545 129.604 32.4598 129.05C32.4545 128.422 33.1363 127.974 34.0418 127.974C35.0326 127.974 35.4907 128.523 35.6771 129.071L37.1207 128.816ZM40.081 129.146C40.6616 129.146 41.1463 128.672 41.1463 128.081C41.1463 127.5 40.6616 127.021 40.081 127.021C39.495 127.021 39.0156 127.5 39.0156 128.081C39.0156 128.672 39.495 129.146 40.081 129.146ZM40.081 135.101C40.6616 135.101 41.1463 134.627 41.1463 134.036C41.1463 133.455 40.6616 132.976 40.081 132.976C39.495 132.976 39.0156 133.455 39.0156 134.036C39.0156 134.627 39.495 135.101 40.081 135.101ZM47.4345 123.58H46.0123L42.4966 136.641H43.9189L47.4345 123.58ZM52.9423 123.58H51.5201L48.0044 136.641H49.4267L52.9423 123.58ZM54.2953 138.068H55.888V133.727H55.9838C56.2715 134.249 56.8574 135.16 58.3489 135.16C60.3304 135.16 61.7686 133.572 61.7686 130.925C61.7686 128.272 60.3091 126.712 58.3329 126.712C56.8148 126.712 56.2662 127.638 55.9838 128.145H55.8507V126.818H54.2953V138.068ZM55.856 130.909C55.856 129.199 56.6017 128.065 57.992 128.065C59.4355 128.065 60.16 129.284 60.16 130.909C60.16 132.55 59.4142 133.801 57.992 133.801C56.623 133.801 55.856 132.63 55.856 130.909ZM63.5531 135H65.1458V130.004C65.1458 128.933 65.9714 128.161 67.1007 128.161C67.4309 128.161 67.8038 128.219 67.9316 128.256V126.733C67.7718 126.712 67.4576 126.696 67.2551 126.696C66.2963 126.696 65.476 127.239 65.1777 128.118H65.0925V126.818H63.5531V135ZM72.4633 135.165C74.7698 135.165 76.2773 133.477 76.2773 130.946C76.2773 128.4 74.7698 126.712 72.4633 126.712C70.1569 126.712 68.6494 128.4 68.6494 130.946C68.6494 133.477 70.1569 135.165 72.4633 135.165ZM72.4687 133.828C70.9612 133.828 70.2581 132.512 70.2581 130.941C70.2581 129.375 70.9612 128.043 72.4687 128.043C73.9655 128.043 74.6686 129.375 74.6686 130.941C74.6686 132.512 73.9655 133.828 72.4687 133.828ZM81.9489 126.818H80.1857V126.083C80.1857 125.359 80.484 124.964 81.2617 124.964C81.592 124.964 81.8263 125.039 81.9755 125.087L82.3484 123.798C82.1246 123.713 81.6612 123.58 81.0167 123.58C79.7223 123.58 78.5877 124.336 78.5877 125.87V126.818H77.3253V128.097H78.5877V135H80.1857V128.097H81.9489V126.818ZM83.5922 135H85.1848V126.818H83.5922V135ZM84.3965 125.556C84.9451 125.556 85.4032 125.13 85.4032 124.608C85.4032 124.086 84.9451 123.654 84.3965 123.654C83.8425 123.654 83.3897 124.086 83.3897 124.608C83.3897 125.13 83.8425 125.556 84.3965 125.556ZM88.9202 124.091H87.3275V135H88.9202V124.091ZM94.5891 135.165C96.3736 135.165 97.636 134.286 97.9982 132.955L96.4908 132.683C96.2031 133.455 95.5107 133.849 94.6051 133.849C93.2415 133.849 92.3253 132.965 92.2827 131.388H98.0994V130.824C98.0994 127.868 96.331 126.712 94.4773 126.712C92.1974 126.712 90.6953 128.448 90.6953 130.962C90.6953 133.503 92.1761 135.165 94.5891 135.165ZM92.288 130.195C92.3519 129.034 93.1935 128.027 94.4879 128.027C95.7237 128.027 96.5334 128.944 96.5387 130.195H92.288ZM100.916 135.101C101.497 135.101 101.981 134.627 101.981 134.036C101.981 133.455 101.497 132.976 100.916 132.976C100.33 132.976 99.8506 133.455 99.8506 134.036C99.8506 134.627 100.33 135.101 100.916 135.101ZM104.115 138.068H105.707V133.727H105.803C106.091 134.249 106.677 135.16 108.168 135.16C110.15 135.16 111.588 133.572 111.588 130.925C111.588 128.272 110.128 126.712 108.152 126.712C106.634 126.712 106.085 127.638 105.803 128.145H105.67V126.818H104.115V138.068ZM105.675 130.909C105.675 129.199 106.421 128.065 107.811 128.065C109.255 128.065 109.979 129.284 109.979 130.909C109.979 132.55 109.234 133.801 107.811 133.801C106.442 133.801 105.675 132.63 105.675 130.909ZM114.965 130.142C114.965 128.837 115.764 128.091 116.872 128.091C117.953 128.091 118.609 128.8 118.609 129.988V135H120.201V129.796C120.201 127.772 119.088 126.712 117.415 126.712C116.185 126.712 115.381 127.282 115.002 128.15H114.901V126.818H113.372V135H114.965V130.142ZM125.768 138.239C127.85 138.239 129.459 137.285 129.459 135.181V126.818H127.898V128.145H127.781C127.499 127.638 126.934 126.712 125.411 126.712C123.435 126.712 121.98 128.272 121.98 130.877C121.98 133.487 123.467 134.877 125.4 134.877C126.902 134.877 127.483 134.031 127.771 133.509H127.872V135.117C127.872 136.401 126.993 136.955 125.784 136.955C124.457 136.955 123.941 136.289 123.658 135.82L122.289 136.385C122.721 137.386 123.813 138.239 125.768 138.239ZM125.752 133.556C124.329 133.556 123.589 132.464 123.589 130.856C123.589 129.284 124.313 128.065 125.752 128.065C127.142 128.065 127.888 129.199 127.888 130.856C127.888 132.544 127.126 133.556 125.752 133.556Z" fill="#64778C"/>
<circle cx="147" cy="106" r="8" fill="url(#paint6_linear_1659_16186)"/>
<circle cx="233" cy="127" r="8" fill="url(#paint7_linear_1659_16186)"/>
<path d="M250.309 132H252.238V123.818H250.309V132ZM251.279 122.657C251.891 122.657 252.392 122.188 252.392 121.613C252.392 121.032 251.891 120.564 251.279 120.564C250.661 120.564 250.16 121.032 250.16 121.613C250.16 122.188 250.661 122.657 251.279 122.657ZM258.756 123.818H257.142V121.858H255.214V123.818H254.053V125.31H255.214V129.859C255.203 131.398 256.322 132.154 257.771 132.112C258.319 132.096 258.697 131.989 258.905 131.92L258.58 130.413C258.474 130.439 258.255 130.487 258.016 130.487C257.531 130.487 257.142 130.317 257.142 129.539V125.31H258.756V123.818ZM264.353 132.16C266.26 132.16 267.57 131.228 267.911 129.805L266.111 129.603C265.85 130.295 265.211 130.658 264.38 130.658C263.133 130.658 262.308 129.837 262.292 128.436H267.991V127.845C267.991 124.974 266.265 123.712 264.252 123.712C261.908 123.712 260.379 125.432 260.379 127.957C260.379 130.525 261.887 132.16 264.353 132.16ZM262.297 127.137C262.355 126.093 263.128 125.214 264.278 125.214C265.386 125.214 266.132 126.023 266.143 127.137H262.297ZM270.072 132H272.001V127.025C272.001 126.018 272.672 125.336 273.503 125.336C274.318 125.336 274.877 125.885 274.877 126.727V132H276.768V126.897C276.768 125.975 277.317 125.336 278.249 125.336C279.027 125.336 279.644 125.794 279.644 126.806V132H281.578V126.508C281.578 124.681 280.523 123.712 279.021 123.712C277.833 123.712 276.928 124.298 276.566 125.208H276.48C276.166 124.282 275.372 123.712 274.27 123.712C273.173 123.712 272.352 124.276 272.011 125.208H271.915V123.818H270.072V132ZM284.07 132H290.85V130.343H286.046V121.091H284.07V132ZM292.93 132H294.859V123.818H292.93V132ZM293.9 122.657C294.512 122.657 295.013 122.188 295.013 121.613C295.013 121.032 294.512 120.564 293.9 120.564C293.282 120.564 292.781 121.032 292.781 121.613C292.781 122.188 293.282 122.657 293.9 122.657ZM303.758 125.981C303.492 124.596 302.384 123.712 300.466 123.712C298.495 123.712 297.153 124.681 297.158 126.194C297.153 127.387 297.888 128.175 299.46 128.5L300.855 128.793C301.606 128.958 301.958 129.262 301.958 129.725C301.958 130.285 301.35 130.706 300.434 130.706C299.55 130.706 298.975 130.322 298.81 129.587L296.929 129.768C297.169 131.27 298.431 132.16 300.44 132.16C302.485 132.16 303.929 131.1 303.934 129.55C303.929 128.383 303.178 127.669 301.633 127.334L300.237 127.036C299.406 126.849 299.076 126.561 299.081 126.087C299.076 125.533 299.689 125.15 300.493 125.15C301.382 125.15 301.851 125.635 302 126.173L303.758 125.981ZM310.06 123.818H308.446V121.858H306.517V123.818H305.356V125.31H306.517V129.859C306.507 131.398 307.625 132.154 309.074 132.112C309.623 132.096 310.001 131.989 310.209 131.92L309.884 130.413C309.777 130.439 309.559 130.487 309.319 130.487C308.834 130.487 308.446 130.317 308.446 129.539V125.31H310.06V123.818Z" fill="#6048E5"/>
<path d="M251.169 158.269H254.669V157.007H252.692V145.943H254.669V144.681H251.169V158.269ZM257.248 156.101C257.829 156.101 258.313 155.627 258.313 155.036C258.313 154.455 257.829 153.976 257.248 153.976C256.662 153.976 256.183 154.455 256.183 155.036C256.183 155.627 256.662 156.101 257.248 156.101ZM261.496 156.101C262.077 156.101 262.561 155.627 262.561 155.036C262.561 154.455 262.077 153.976 261.496 153.976C260.91 153.976 260.431 154.455 260.431 155.036C260.431 155.627 260.91 156.101 261.496 156.101ZM265.744 156.101C266.325 156.101 266.809 155.627 266.809 155.036C266.809 154.455 266.325 153.976 265.744 153.976C265.158 153.976 264.679 154.455 264.679 155.036C264.679 155.627 265.158 156.101 265.744 156.101ZM271.83 144.681H268.33V145.943H270.306V157.007H268.33V158.269H271.83V144.681Z" fill="#64778C"/>
<line x1="173.5" y1="271" x2="173.5" y2="350" stroke="url(#paint8_linear_1659_16186)"/>
<circle cx="161" cy="12" r="8" fill="url(#paint9_linear_1659_16186)"/>
<path d="M92.3396 6.09091H90.4114V17H92.3396V6.09091ZM94.7725 17H96.7008V8.81818H94.7725V17ZM95.742 7.65696C96.3545 7.65696 96.8552 7.18821 96.8552 6.61293C96.8552 6.03232 96.3545 5.56357 95.742 5.56357C95.1241 5.56357 94.6234 6.03232 94.6234 6.61293C94.6234 7.18821 95.1241 7.65696 95.742 7.65696ZM105.6 10.9808C105.334 9.59588 104.226 8.71165 102.308 8.71165C100.337 8.71165 98.9951 9.68111 99.0005 11.1939C98.9951 12.3871 99.7302 13.1754 101.302 13.5004L102.697 13.7933C103.448 13.9585 103.8 14.2621 103.8 14.7255C103.8 15.2848 103.193 15.7056 102.276 15.7056C101.392 15.7056 100.817 15.3221 100.652 14.587L98.7714 14.7681C99.0111 16.2702 100.274 17.1598 102.282 17.1598C104.327 17.1598 105.771 16.0998 105.776 14.5497C105.771 13.3832 105.02 12.6694 103.475 12.3338L102.079 12.0355C101.248 11.8491 100.918 11.5614 100.923 11.0874C100.918 10.5334 101.531 10.1499 102.335 10.1499C103.225 10.1499 103.693 10.6346 103.842 11.1726L105.6 10.9808ZM111.902 8.81818H110.288V6.85795H108.359V8.81818H107.198V10.3097H108.359V14.8587C108.349 16.3981 109.467 17.1545 110.916 17.1119C111.465 17.0959 111.843 16.9893 112.051 16.9201L111.726 15.4126C111.619 15.4393 111.401 15.4872 111.161 15.4872C110.676 15.4872 110.288 15.3168 110.288 14.5391V10.3097H111.902V8.81818ZM116.202 6.09091H114.225V17H116.202V6.09091ZM122.792 8.81818H121.178V6.85795H119.25V8.81818H118.088V10.3097H119.25V14.8587C119.239 16.3981 120.358 17.1545 121.806 17.1119C122.355 17.0959 122.733 16.9893 122.941 16.9201L122.616 15.4126C122.51 15.4393 122.291 15.4872 122.051 15.4872C121.567 15.4872 121.178 15.3168 121.178 14.5391V10.3097H122.792V8.81818ZM128.389 17.1598C130.296 17.1598 131.606 16.2276 131.947 14.8054L130.147 14.603C129.886 15.2955 129.246 15.6577 128.415 15.6577C127.169 15.6577 126.343 14.8374 126.327 13.4364H132.027V12.8452C132.027 9.97408 130.301 8.71165 128.288 8.71165C125.944 8.71165 124.415 10.4322 124.415 12.957C124.415 15.5245 125.923 17.1598 128.389 17.1598ZM126.333 12.1367C126.391 11.0927 127.164 10.2138 128.314 10.2138C129.422 10.2138 130.168 11.0234 130.179 12.1367H126.333ZM134.108 17H136.037V12.0249C136.037 11.0181 136.708 10.3363 137.539 10.3363C138.354 10.3363 138.913 10.8849 138.913 11.7266V17H140.804V11.897C140.804 10.9755 141.353 10.3363 142.285 10.3363C143.062 10.3363 143.68 10.7944 143.68 11.8065V17H145.614V11.5082C145.614 9.68111 144.559 8.71165 143.057 8.71165C141.869 8.71165 140.964 9.29759 140.602 10.2085H140.516C140.202 9.2816 139.408 8.71165 138.306 8.71165C137.208 8.71165 136.388 9.27628 136.047 10.2085H135.951V8.81818H134.108V17Z" fill="#6048E5"/>
<path d="M57.9688 33.5H59.3324V32.4613C59.3324 31.657 59.684 30.9805 60.1155 30.3466L59.3271 29.782C58.5121 30.4371 57.9688 31.5717 57.9688 32.4773V33.5ZM60.6854 33.5H62.0491V32.4613C62.0491 31.657 62.4006 30.9805 62.8321 30.3466L62.0437 29.782C61.2287 30.4371 60.6854 31.5717 60.6854 32.4773V33.5ZM66.4649 41H68.1268L70.4226 32.8288H70.5079L72.8037 41H74.4603L77.4912 30.0909H75.7547L73.6346 38.5444H73.5334L71.3228 30.0909H69.6076L67.3971 38.5391H67.2959L65.1705 30.0909H63.4393L66.4649 41ZM78.3514 41H79.9441V36.0036C79.9441 34.9329 80.7698 34.1605 81.899 34.1605C82.2293 34.1605 82.6021 34.2191 82.73 34.2564V32.733C82.5702 32.7116 82.2559 32.6957 82.0535 32.6957C81.0947 32.6957 80.2744 33.239 79.9761 34.1179H79.8908V32.8182H78.3514V41ZM84.1083 41H85.701V32.8182H84.1083V41ZM84.9126 31.5558C85.4612 31.5558 85.9193 31.1296 85.9193 30.6076C85.9193 30.0856 85.4612 29.6541 84.9126 29.6541C84.3586 29.6541 83.9059 30.0856 83.9059 30.6076C83.9059 31.1296 84.3586 31.5558 84.9126 31.5558ZM91.6629 32.8182H89.985V30.858H88.3923V32.8182H87.1938V34.0966H88.3923V38.9279C88.3869 40.4141 89.5215 41.1332 90.7786 41.1065C91.2847 41.1012 91.6256 41.0053 91.812 40.9361L91.5244 39.6204C91.4178 39.6417 91.2207 39.6896 90.9651 39.6896C90.4484 39.6896 89.985 39.5192 89.985 38.5977V34.0966H91.6629V32.8182ZM96.8631 41.1651C98.6475 41.1651 99.9099 40.2862 100.272 38.9545L98.7647 38.6829C98.4771 39.4553 97.7846 39.8494 96.879 39.8494C95.5154 39.8494 94.5992 38.9652 94.5566 37.3885H100.373V36.8239C100.373 33.8675 98.6049 32.7116 96.7512 32.7116C94.4714 32.7116 92.9692 34.4482 92.9692 36.9624C92.9692 39.5032 94.4501 41.1651 96.8631 41.1651ZM94.5619 36.1953C94.6258 35.0341 95.4675 34.0273 96.7619 34.0273C97.9976 34.0273 98.8073 34.9435 98.8126 36.1953H94.5619ZM109.929 32.8182H108.252V30.858H106.659V32.8182H105.46V34.0966H106.659V38.9279C106.654 40.4141 107.788 41.1332 109.045 41.1065C109.551 41.1012 109.892 41.0053 110.079 40.9361L109.791 39.6204C109.684 39.6417 109.487 39.6896 109.232 39.6896C108.715 39.6896 108.252 39.5192 108.252 38.5977V34.0966H109.929V32.8182ZM115.13 41.1651C116.914 41.1651 118.177 40.2862 118.539 38.9545L117.031 38.6829C116.744 39.4553 116.051 39.8494 115.146 39.8494C113.782 39.8494 112.866 38.9652 112.823 37.3885H118.64V36.8239C118.64 33.8675 116.871 32.7116 115.018 32.7116C112.738 32.7116 111.236 34.4482 111.236 36.9624C111.236 39.5032 112.717 41.1651 115.13 41.1651ZM112.829 36.1953C112.892 35.0341 113.734 34.0273 115.028 34.0273C116.264 34.0273 117.074 34.9435 117.079 36.1953H112.829ZM126.538 34.8157C126.208 33.5426 125.212 32.7116 123.443 32.7116C121.595 32.7116 120.285 33.6864 120.285 35.1353C120.285 36.2965 120.988 37.0689 122.522 37.4098L123.907 37.7134C124.695 37.8892 125.063 38.2408 125.063 38.7521C125.063 39.386 124.386 39.8814 123.342 39.8814C122.389 39.8814 121.776 39.4712 121.584 38.6669L120.045 38.9013C120.311 40.3501 121.515 41.1651 123.353 41.1651C125.329 41.1651 126.698 40.1158 126.698 38.6349C126.698 37.479 125.963 36.7653 124.461 36.419L123.161 36.1207C122.261 35.9077 121.872 35.604 121.877 35.0501C121.872 34.4215 122.554 33.9741 123.459 33.9741C124.45 33.9741 124.908 34.5227 125.095 35.0714L126.538 34.8157ZM132.268 32.8182H130.59V30.858H128.998V32.8182H127.799V34.0966H128.998V38.9279C128.992 40.4141 130.127 41.1332 131.384 41.1065C131.89 41.1012 132.231 41.0053 132.417 40.9361L132.13 39.6204C132.023 39.6417 131.826 39.6896 131.571 39.6896C131.054 39.6896 130.59 39.5192 130.59 38.5977V34.0966H132.268V32.8182ZM140.029 34.8157C139.699 33.5426 138.703 32.7116 136.935 32.7116C135.086 32.7116 133.776 33.6864 133.776 35.1353C133.776 36.2965 134.479 37.0689 136.013 37.4098L137.398 37.7134C138.186 37.8892 138.554 38.2408 138.554 38.7521C138.554 39.386 137.877 39.8814 136.833 39.8814C135.88 39.8814 135.267 39.4712 135.076 38.6669L133.536 38.9013C133.802 40.3501 135.006 41.1651 136.844 41.1651C138.82 41.1651 140.189 40.1158 140.189 38.6349C140.189 37.479 139.454 36.7653 137.952 36.419L136.652 36.1207C135.752 35.9077 135.363 35.604 135.368 35.0501C135.363 34.4215 136.045 33.9741 136.951 33.9741C137.941 33.9741 138.399 34.5227 138.586 35.0714L140.029 34.8157ZM143.309 30.0909H141.946V31.1296C141.946 31.9553 141.583 32.6317 141.168 33.2443L141.956 33.8089C142.777 33.1484 143.309 32.0192 143.309 31.1136V30.0909ZM146.021 30.0909H144.657V31.1296C144.657 31.9553 144.295 32.6317 143.879 33.2443L144.668 33.8089C145.488 33.1484 146.021 32.0192 146.021 31.1136V30.0909Z" fill="#64778C"/>
<circle cx="256" cy="17" r="8" fill="url(#paint10_linear_1659_16186)"/>
<path d="M275.34 11.0909H273.411V22H275.34V11.0909ZM277.773 22H279.701V13.8182H277.773V22ZM278.742 12.657C279.355 12.657 279.855 12.1882 279.855 11.6129C279.855 11.0323 279.355 10.5636 278.742 10.5636C278.124 10.5636 277.623 11.0323 277.623 11.6129C277.623 12.1882 278.124 12.657 278.742 12.657ZM288.6 15.9808C288.334 14.5959 287.226 13.7116 285.308 13.7116C283.337 13.7116 281.995 14.6811 282 16.1939C281.995 17.3871 282.73 18.1754 284.302 18.5004L285.697 18.7933C286.448 18.9585 286.8 19.2621 286.8 19.7255C286.8 20.2848 286.193 20.7056 285.276 20.7056C284.392 20.7056 283.817 20.3221 283.652 19.587L281.771 19.7681C282.011 21.2702 283.274 22.1598 285.282 22.1598C287.327 22.1598 288.771 21.0998 288.776 19.5497C288.771 18.3832 288.02 17.6694 286.475 17.3338L285.079 17.0355C284.248 16.8491 283.918 16.5614 283.923 16.0874C283.918 15.5334 284.531 15.1499 285.335 15.1499C286.225 15.1499 286.693 15.6346 286.842 16.1726L288.6 15.9808ZM294.902 13.8182H293.288V11.858H291.359V13.8182H290.198V15.3097H291.359V19.8587C291.349 21.3981 292.467 22.1545 293.916 22.1119C294.465 22.0959 294.843 21.9893 295.051 21.9201L294.726 20.4126C294.619 20.4393 294.401 20.4872 294.161 20.4872C293.676 20.4872 293.288 20.3168 293.288 19.5391V15.3097H294.902V13.8182ZM299.202 11.0909H297.225V22H299.202V11.0909ZM305.792 13.8182H304.178V11.858H302.25V13.8182H301.088V15.3097H302.25V19.8587C302.239 21.3981 303.358 22.1545 304.806 22.1119C305.355 22.0959 305.733 21.9893 305.941 21.9201L305.616 20.4126C305.51 20.4393 305.291 20.4872 305.051 20.4872C304.567 20.4872 304.178 20.3168 304.178 19.5391V15.3097H305.792V13.8182ZM311.389 22.1598C313.296 22.1598 314.606 21.2276 314.947 19.8054L313.147 19.603C312.886 20.2955 312.246 20.6577 311.415 20.6577C310.169 20.6577 309.343 19.8374 309.327 18.4364H315.027V17.8452C315.027 14.9741 313.301 13.7116 311.288 13.7116C308.944 13.7116 307.415 15.4322 307.415 17.957C307.415 20.5245 308.923 22.1598 311.389 22.1598ZM309.333 17.1367C309.391 16.0927 310.164 15.2138 311.314 15.2138C312.422 15.2138 313.168 16.0234 313.179 17.1367H309.333ZM317.108 22H319.037V17.0249C319.037 16.0181 319.708 15.3363 320.539 15.3363C321.354 15.3363 321.913 15.8849 321.913 16.7266V22H323.804V16.897C323.804 15.9755 324.353 15.3363 325.285 15.3363C326.062 15.3363 326.68 15.7944 326.68 16.8065V22H328.614V16.5082C328.614 14.6811 327.559 13.7116 326.057 13.7116C324.869 13.7116 323.964 14.2976 323.602 15.2085H323.516C323.202 14.2816 322.408 13.7116 321.306 13.7116C320.208 13.7116 319.388 14.2763 319.047 15.2085H318.951V13.8182H317.108V22Z" fill="#6048E5"/>
<path d="M272.756 38.5H274.12V37.4613C274.12 36.657 274.472 35.9805 274.903 35.3466L274.115 34.782C273.3 35.4371 272.756 36.5717 272.756 37.4773V38.5ZM275.473 38.5H276.837V37.4613C276.837 36.657 277.188 35.9805 277.62 35.3466L276.831 34.782C276.016 35.4371 275.473 36.5717 275.473 37.4773V38.5ZM280.762 35.0909H279.116V46H280.762V35.0909ZM283.032 46H284.624V40.9556C284.624 39.853 285.397 39.0859 286.302 39.0859C287.186 39.0859 287.799 39.6719 287.799 40.5614V46H289.386V40.7852C289.386 39.7997 289.988 39.0859 291.027 39.0859C291.869 39.0859 292.561 39.5547 292.561 40.6626V46H294.154V40.5135C294.154 38.6438 293.11 37.7116 291.629 37.7116C290.452 37.7116 289.567 38.2763 289.173 39.1499H289.088C288.731 38.255 287.98 37.7116 286.888 37.7116C285.807 37.7116 285.002 38.2496 284.662 39.1499H284.56V37.8182H283.032V46ZM296.288 49.0682H297.881V44.7269H297.977C298.265 45.2489 298.851 46.1598 300.342 46.1598C302.324 46.1598 303.762 44.5724 303.762 41.9251C303.762 39.2724 302.302 37.7116 300.326 37.7116C298.808 37.7116 298.259 38.6385 297.977 39.1445H297.844V37.8182H296.288V49.0682ZM297.849 41.9091C297.849 40.1992 298.595 39.0646 299.985 39.0646C301.429 39.0646 302.153 40.2844 302.153 41.9091C302.153 43.5497 301.407 44.8015 299.985 44.8015C298.616 44.8015 297.849 43.6296 297.849 41.9091ZM307.139 35.0909H305.546V46H307.139V35.0909ZM312.808 46.1651C314.592 46.1651 315.855 45.2862 316.217 43.9545L314.71 43.6829C314.422 44.4553 313.729 44.8494 312.824 44.8494C311.46 44.8494 310.544 43.9652 310.501 42.3885H316.318V41.8239C316.318 38.8675 314.55 37.7116 312.696 37.7116C310.416 37.7116 308.914 39.4482 308.914 41.9624C308.914 44.5032 310.395 46.1651 312.808 46.1651ZM310.507 41.1953C310.571 40.0341 311.412 39.0273 312.707 39.0273C313.942 39.0273 314.752 39.9435 314.757 41.1953H310.507ZM318.085 46H319.678V40.9556C319.678 39.853 320.45 39.0859 321.356 39.0859C322.24 39.0859 322.853 39.6719 322.853 40.5614V46H324.44V40.7852C324.44 39.7997 325.042 39.0859 326.081 39.0859C326.922 39.0859 327.615 39.5547 327.615 40.6626V46H329.207V40.5135C329.207 38.6438 328.163 37.7116 326.683 37.7116C325.505 37.7116 324.621 38.2763 324.227 39.1499H324.142C323.785 38.255 323.034 37.7116 321.942 37.7116C320.861 37.7116 320.056 38.2496 319.715 39.1499H319.614V37.8182H318.085V46ZM334.868 46.1651C336.653 46.1651 337.915 45.2862 338.278 43.9545L336.77 43.6829C336.482 44.4553 335.79 44.8494 334.884 44.8494C333.521 44.8494 332.605 43.9652 332.562 42.3885H338.379V41.8239C338.379 38.8675 336.61 37.7116 334.757 37.7116C332.477 37.7116 330.975 39.4482 330.975 41.9624C330.975 44.5032 332.455 46.1651 334.868 46.1651ZM332.567 41.1953C332.631 40.0341 333.473 39.0273 334.767 39.0273C336.003 39.0273 336.813 39.9435 336.818 41.1953H332.567ZM341.739 41.142C341.739 39.837 342.538 39.0913 343.646 39.0913C344.727 39.0913 345.382 39.7997 345.382 40.9876V46H346.975V40.7958C346.975 38.7717 345.861 37.7116 344.189 37.7116C342.958 37.7116 342.154 38.2816 341.776 39.1499H341.675V37.8182H340.146V46H341.739V41.142ZM352.93 37.8182H351.252V35.858H349.659V37.8182H348.461V39.0966H349.659V43.9279C349.654 45.4141 350.789 46.1332 352.046 46.1065C352.552 46.1012 352.893 46.0053 353.079 45.9361L352.791 44.6204C352.685 44.6417 352.488 44.6896 352.232 44.6896C351.715 44.6896 351.252 44.5192 351.252 43.5977V39.0966H352.93V37.8182ZM276.134 66.1598C277.625 66.1598 278.211 65.2489 278.499 64.7269H278.632V66H280.187V55.0909H278.594V59.1445H278.499C278.211 58.6385 277.668 57.7116 276.144 57.7116C274.168 57.7116 272.714 59.2724 272.714 61.9251C272.714 64.5724 274.147 66.1598 276.134 66.1598ZM276.485 64.8015C275.063 64.8015 274.322 63.5497 274.322 61.9091C274.322 60.2844 275.047 59.0646 276.485 59.0646C277.875 59.0646 278.621 60.1992 278.621 61.9091C278.621 63.6296 277.859 64.8015 276.485 64.8015ZM282.46 66H284.053V61.0036C284.053 59.9329 284.879 59.1605 286.008 59.1605C286.338 59.1605 286.711 59.2191 286.839 59.2564V57.733C286.679 57.7116 286.365 57.6957 286.162 57.6957C285.204 57.6957 284.383 58.239 284.085 59.1179H284V57.8182H282.46V66ZM291.371 66.1651C293.677 66.1651 295.184 64.4766 295.184 61.9464C295.184 59.4002 293.677 57.7116 291.371 57.7116C289.064 57.7116 287.557 59.4002 287.557 61.9464C287.557 64.4766 289.064 66.1651 291.371 66.1651ZM291.376 64.8281C289.868 64.8281 289.165 63.5124 289.165 61.9411C289.165 60.375 289.868 59.0433 291.376 59.0433C292.873 59.0433 293.576 60.375 293.576 61.9411C293.576 63.5124 292.873 64.8281 291.376 64.8281ZM296.962 69.0682H298.555V64.7269H298.651C298.938 65.2489 299.524 66.1598 301.016 66.1598C302.997 66.1598 304.436 64.5724 304.436 61.9251C304.436 59.2724 302.976 57.7116 301 57.7116C299.482 57.7116 298.933 58.6385 298.651 59.1445H298.518V57.8182H296.962V69.0682ZM298.523 61.9091C298.523 60.1992 299.269 59.0646 300.659 59.0646C302.103 59.0646 302.827 60.2844 302.827 61.9091C302.827 63.5497 302.081 64.8015 300.659 64.8015C299.29 64.8015 298.523 63.6296 298.523 61.9091ZM309.283 66.1598C310.774 66.1598 311.36 65.2489 311.648 64.7269H311.781V66H313.337V55.0909H311.744V59.1445H311.648C311.36 58.6385 310.817 57.7116 309.294 57.7116C307.317 57.7116 305.863 59.2724 305.863 61.9251C305.863 64.5724 307.296 66.1598 309.283 66.1598ZM309.634 64.8015C308.212 64.8015 307.472 63.5497 307.472 61.9091C307.472 60.2844 308.196 59.0646 309.634 59.0646C311.025 59.0646 311.771 60.1992 311.771 61.9091C311.771 63.6296 311.009 64.8015 309.634 64.8015ZM319.056 66.1651C321.363 66.1651 322.87 64.4766 322.87 61.9464C322.87 59.4002 321.363 57.7116 319.056 57.7116C316.75 57.7116 315.242 59.4002 315.242 61.9464C315.242 64.4766 316.75 66.1651 319.056 66.1651ZM319.061 64.8281C317.554 64.8281 316.851 63.5124 316.851 61.9411C316.851 60.375 317.554 59.0433 319.061 59.0433C320.558 59.0433 321.261 60.375 321.261 61.9411C321.261 63.5124 320.558 64.8281 319.061 64.8281ZM326.173 66H327.792L329.454 60.0927H329.576L331.238 66H332.863L335.265 57.8182H333.619L332.027 63.8001H331.947L330.349 57.8182H328.703L327.094 63.8267H327.014L325.411 57.8182H323.765L326.173 66ZM338.369 61.142C338.369 59.837 339.168 59.0913 340.276 59.0913C341.358 59.0913 342.013 59.7997 342.013 60.9876V66H343.606V60.7958C343.606 58.7717 342.492 57.7116 340.82 57.7116C339.589 57.7116 338.785 58.2816 338.407 59.1499H338.305V57.8182H336.777V66H338.369V61.142ZM349.711 66H351.304V60.9556C351.304 59.853 352.076 59.0859 352.982 59.0859C353.866 59.0859 354.479 59.6719 354.479 60.5614V66H356.066V60.7852C356.066 59.7997 356.668 59.0859 357.707 59.0859C358.548 59.0859 359.241 59.5547 359.241 60.6626V66H360.833V60.5135C360.833 58.6438 359.789 57.7116 358.309 57.7116C357.131 57.7116 356.247 58.2763 355.853 59.1499H355.768C355.411 58.255 354.66 57.7116 353.568 57.7116C352.487 57.7116 351.682 58.2496 351.341 59.1499H351.24V57.8182H349.711V66ZM366.494 66.1651C368.279 66.1651 369.541 65.2862 369.903 63.9545L368.396 63.6829C368.108 64.4553 367.416 64.8494 366.51 64.8494C365.147 64.8494 364.231 63.9652 364.188 62.3885H370.005V61.8239C370.005 58.8675 368.236 57.7116 366.383 57.7116C364.103 57.7116 362.601 59.4482 362.601 61.9624C362.601 64.5032 364.081 66.1651 366.494 66.1651ZM364.193 61.1953C364.257 60.0341 365.099 59.0273 366.393 59.0273C367.629 59.0273 368.439 59.9435 368.444 61.1953H364.193ZM373.365 61.142C373.365 59.837 374.164 59.0913 375.271 59.0913C376.353 59.0913 377.008 59.7997 377.008 60.9876V66H378.601V60.7958C378.601 58.7717 377.487 57.7116 375.815 57.7116C374.584 57.7116 373.78 58.2816 373.402 59.1499H373.301V57.8182H371.772V66H373.365V61.142ZM385.92 62.6069C385.925 63.9972 384.892 64.6577 383.997 64.6577C383.011 64.6577 382.329 63.9439 382.329 62.8306V57.8182H380.737V63.0224C380.737 65.0518 381.85 66.1065 383.421 66.1065C384.652 66.1065 385.488 65.4567 385.866 64.5831H385.952V66H387.518V57.8182H385.92V62.6069ZM391.246 55.0909H389.883V56.1296C389.883 56.9553 389.52 57.6317 389.105 58.2443L389.893 58.8089C390.714 58.1484 391.246 57.0192 391.246 56.1136V55.0909ZM393.958 55.0909H392.594V56.1296C392.594 56.9553 392.232 57.6317 391.816 58.2443L392.605 58.8089C393.425 58.1484 393.958 57.0192 393.958 56.1136V55.0909Z" fill="#64778C"/>
<circle opacity="0.1" cx="173" cy="223" r="47.5" stroke="#6048E5"/>
<circle opacity="0.3" cx="173" cy="223" r="15" stroke="#6048E5" stroke-width="2"/>
<circle cx="173" cy="223" r="9" fill="url(#paint11_linear_1659_16186)"/>
<path d="M142.453 261H144.429V257.314H146.517C149.037 257.314 150.39 255.801 150.39 253.702C150.39 251.62 149.053 250.091 146.544 250.091H142.453V261ZM144.429 255.689V251.742H146.24C147.721 251.742 148.376 252.541 148.376 253.702C148.376 254.864 147.721 255.689 146.251 255.689H144.429ZM152.556 261H159.694V259.343H154.532V256.366H159.284V254.709H154.532V251.748H159.651V250.091H152.556V261ZM162.118 261H164.094V257.005H166.107L168.249 261H170.454L168.094 256.675C169.378 256.158 170.054 255.061 170.054 253.58C170.054 251.497 168.712 250.091 166.209 250.091H162.118V261ZM164.094 255.364V251.742H165.905C167.38 251.742 168.041 252.419 168.041 253.58C168.041 254.741 167.38 255.364 165.916 255.364H164.094ZM178.252 253.09H180.154C180.116 251.247 178.545 249.942 176.223 249.942C173.932 249.942 172.212 251.231 172.217 253.159C172.217 254.725 173.33 255.625 175.125 256.089L176.366 256.408C177.544 256.707 178.321 257.074 178.327 257.921C178.321 258.853 177.437 259.477 176.148 259.477C174.912 259.477 173.953 258.923 173.874 257.777H171.929C172.009 259.945 173.623 261.165 176.164 261.165C178.779 261.165 180.298 259.86 180.303 257.937C180.298 256.046 178.737 255.183 177.096 254.794L176.073 254.539C175.179 254.326 174.209 253.947 174.22 253.037C174.225 252.216 174.96 251.614 176.196 251.614C177.373 251.614 178.151 252.163 178.252 253.09ZM192.263 255.545C192.263 252.019 190.111 249.942 187.25 249.942C184.384 249.942 182.238 252.019 182.238 255.545C182.238 259.066 184.384 261.149 187.25 261.149C190.111 261.149 192.263 259.072 192.263 255.545ZM190.276 255.545C190.276 258.028 189.029 259.375 187.25 259.375C185.476 259.375 184.225 258.028 184.225 255.545C184.225 253.063 185.476 251.716 187.25 251.716C189.029 251.716 190.276 253.063 190.276 255.545ZM203.546 250.091H201.58V257.527H201.484L196.349 250.091H194.581V261H196.557V253.569H196.648L201.788 261H203.546V250.091Z" fill="#6048E5"/>
<defs>
<linearGradient id="paint0_linear_1659_16186" x1="92" y1="187" x2="92" y2="203" gradientUnits="userSpaceOnUse">
<stop stop-color="#7963F5"/>
<stop offset="1" stop-color="#5D46DB"/>
</linearGradient>
<linearGradient id="paint1_linear_1659_16186" x1="185" y1="212.001" x2="243.896" y2="210.338" gradientUnits="userSpaceOnUse">
<stop stop-color="#BDB4FE"/>
<stop offset="1" stop-color="#BDB4FE" stop-opacity="0"/>
</linearGradient>
<linearGradient id="paint2_linear_1659_16186" x1="229" y1="117.436" x2="278.883" y2="63.7292" gradientUnits="userSpaceOnUse">
<stop stop-color="#BDB4FE"/>
<stop offset="1" stop-color="#BDB4FE" stop-opacity="0"/>
</linearGradient>
<linearGradient id="paint3_linear_1659_16186" x1="227" y1="-38.4999" x2="264.817" y2="35.0369" gradientUnits="userSpaceOnUse">
<stop stop-color="#BDB4FE" stop-opacity="0"/>
<stop offset="1" stop-color="#BDB4FE"/>
</linearGradient>
<linearGradient id="paint4_linear_1659_16186" x1="157.148" y1="218" x2="97.0533" y2="209.39" gradientUnits="userSpaceOnUse">
<stop stop-color="#BDB4FE"/>
<stop offset="1" stop-color="#BDB4FE" stop-opacity="0"/>
</linearGradient>
<linearGradient id="paint5_linear_1659_16186" x1="169" y1="206.001" x2="147.287" y2="205.77" gradientUnits="userSpaceOnUse">
<stop stop-color="#BDB4FE"/>
<stop offset="1" stop-color="#BDB4FE" stop-opacity="0"/>
</linearGradient>
<linearGradient id="paint6_linear_1659_16186" x1="147" y1="98" x2="147" y2="114" gradientUnits="userSpaceOnUse">
<stop stop-color="#7963F5"/>
<stop offset="1" stop-color="#5D46DB"/>
</linearGradient>
<linearGradient id="paint7_linear_1659_16186" x1="233" y1="119" x2="233" y2="135" gradientUnits="userSpaceOnUse">
<stop stop-color="#7963F5"/>
<stop offset="1" stop-color="#5D46DB"/>
</linearGradient>
<linearGradient id="paint8_linear_1659_16186" x1="172" y1="271" x2="202.874" y2="279.604" gradientUnits="userSpaceOnUse">
<stop stop-color="#BDB4FE"/>
<stop offset="1" stop-color="#BDB4FE" stop-opacity="0"/>
</linearGradient>
<linearGradient id="paint9_linear_1659_16186" x1="161" y1="4" x2="161" y2="20" gradientUnits="userSpaceOnUse">
<stop stop-color="#7963F5"/>
<stop offset="1" stop-color="#5D46DB"/>
</linearGradient>
<linearGradient id="paint10_linear_1659_16186" x1="256" y1="9" x2="256" y2="25" gradientUnits="userSpaceOnUse">
<stop stop-color="#7963F5"/>
<stop offset="1" stop-color="#5D46DB"/>
</linearGradient>
<linearGradient id="paint11_linear_1659_16186" x1="173" y1="214" x2="173" y2="232" gradientUnits="userSpaceOnUse">
<stop stop-color="#7963F5"/>
<stop offset="1" stop-color="#5D46DB"/>
</linearGradient>
</defs>
</svg>
