<svg width="418" height="232" viewBox="0 0 418 232" fill="none" xmlns="http://www.w3.org/2000/svg">
<path d="M0 6.00001C0 2.6863 2.68629 0 6 0H412C415.314 0 418 2.68629 418 6V226C418 229.314 415.314 232 412 232H5.99999C2.68628 232 0 229.314 0 226V6.00001Z" fill="#37434F"/>
<path d="M27.9111 40.1914C27.9111 39.8633 28.002 39.6113 28.1836 39.4355C28.3652 39.2598 28.6201 39.1719 28.9482 39.1719C29.2764 39.1719 29.5283 39.2598 29.7041 39.4355C29.8799 39.6113 29.9678 39.8633 29.9678 40.1914C29.9678 40.5312 29.8799 40.7891 29.7041 40.9648C29.5283 41.1406 29.2764 41.2285 28.9482 41.2285C28.2568 41.2285 27.9111 40.8828 27.9111 40.1914ZM40.9629 38.1611L42.624 38.3896C42.4424 39.2568 42.0088 39.9424 41.3232 40.4463C40.6377 40.9443 39.7881 41.1934 38.7744 41.1934C37.5615 41.1934 36.6211 40.8242 35.9531 40.0859C35.291 39.3418 34.96 38.2812 34.96 36.9043C34.96 36.0078 35.0947 35.2139 35.3643 34.5225C35.6396 33.8311 36.0674 33.2773 36.6475 32.8613C37.2275 32.4395 37.9248 32.2285 38.7393 32.2285C39.6123 32.2285 40.3945 32.4541 41.0859 32.9053C41.7773 33.3564 42.2402 33.9482 42.4746 34.6807L40.8838 35.1465C40.7432 34.6602 40.4795 34.2793 40.0928 34.0039C39.7119 33.7285 39.2725 33.5908 38.7744 33.5908C38.0361 33.5908 37.4824 33.8867 37.1133 34.4785C36.75 35.0703 36.5684 35.9082 36.5684 36.9922C36.5684 37.9238 36.7617 38.6328 37.1484 39.1191C37.5352 39.6055 38.1064 39.8486 38.8623 39.8486C39.4307 39.8486 39.8994 39.7051 40.2686 39.418C40.6377 39.125 40.8691 38.7061 40.9629 38.1611ZM48.249 41.1934C47.3232 41.1934 46.5469 40.9766 45.9199 40.543C45.293 40.1094 44.9795 39.5059 44.9795 38.7324C44.9795 37.8652 45.4014 37.209 46.2451 36.7637C47.0947 36.3184 48.3486 36.0957 50.0068 36.0957C50.1064 36.0957 50.2529 36.0986 50.4463 36.1045C50.6455 36.1104 50.792 36.1133 50.8857 36.1133C50.8447 35.3574 50.6045 34.7422 50.165 34.2676C49.7314 33.7871 49.1777 33.5469 48.5039 33.5469C47.7012 33.5469 46.8662 33.96 45.999 34.7861L45.1289 33.7227C45.5742 33.2422 46.084 32.873 46.6582 32.6152C47.2324 32.3574 47.833 32.2285 48.46 32.2285C49.5908 32.2285 50.5195 32.6094 51.2461 33.3711C51.9785 34.1328 52.3447 35.0996 52.3447 36.2715V40.8945L52.2656 40.8242V41H50.4639C50.6396 40.748 50.7598 40.502 50.8242 40.2617C50.25 40.8828 49.3916 41.1934 48.249 41.1934ZM46.4648 38.7324C46.4648 39.1133 46.626 39.4121 46.9482 39.6289C47.2705 39.8457 47.6777 39.9541 48.1699 39.9541C48.6738 39.9541 49.1719 39.8398 49.6641 39.6113C50.1621 39.3828 50.5693 39.0547 50.8857 38.627V37.3965H50.0596C48.8115 37.3965 47.9004 37.502 47.3262 37.7129C46.752 37.918 46.4648 38.2578 46.4648 38.7324ZM61.4414 41H54.8408V39.7695H57.4424V33.6787L55.7285 33.5732V32.4482H59.0859C58.957 32.6533 58.8779 32.8701 58.8486 33.0986C59.335 32.5186 60.126 32.2285 61.2217 32.2285C61.6084 32.2285 62.1914 32.3721 62.9707 32.6592L62.0566 34.0742C61.5938 33.8223 61.166 33.6963 60.7734 33.6963C60.3105 33.6963 59.8975 33.8281 59.5342 34.0918C59.1709 34.3496 58.9424 34.6865 58.8486 35.1025V39.7695H61.3096V39.9365C61.3096 40.376 61.3535 40.7305 61.4414 41ZM64.5879 36.4824C64.5879 35.1348 64.916 34.0889 65.5723 33.3447C66.2344 32.6006 67.1514 32.2285 68.3232 32.2285C69.3662 32.2285 70.1865 32.5771 70.7842 33.2744V29.2842L72.2432 29.3721V39.9365C72.2432 40.3936 72.2812 40.748 72.3574 41H70.7842V40.4727C70.1338 40.9531 69.375 41.1934 68.5078 41.1934C67.3359 41.1934 66.3896 40.7627 65.6689 39.9014C64.9482 39.04 64.5879 37.9004 64.5879 36.4824ZM68.3848 33.5117C67.6699 33.5117 67.0986 33.7842 66.6709 34.3291C66.2432 34.8682 66.0293 35.5918 66.0293 36.5C66.0293 37.4668 66.2637 38.2607 66.7324 38.8818C67.2012 39.5029 67.8018 39.8135 68.5342 39.8135C69.6533 39.8135 70.4033 39.4297 70.7842 38.6621V35.0762C70.5146 34.5781 70.1689 34.1943 69.7471 33.9248C69.3252 33.6494 68.8711 33.5117 68.3848 33.5117ZM27.9111 132.191C27.9111 131.863 28.002 131.611 28.1836 131.436C28.3652 131.26 28.6201 131.172 28.9482 131.172C29.2764 131.172 29.5283 131.26 29.7041 131.436C29.8799 131.611 29.9678 131.863 29.9678 132.191C29.9678 132.531 29.8799 132.789 29.7041 132.965C29.5283 133.141 29.2764 133.229 28.9482 133.229C28.2568 133.229 27.9111 132.883 27.9111 132.191ZM40.9629 130.161L42.624 130.39C42.4424 131.257 42.0088 131.942 41.3232 132.446C40.6377 132.944 39.7881 133.193 38.7744 133.193C37.5615 133.193 36.6211 132.824 35.9531 132.086C35.291 131.342 34.96 130.281 34.96 128.904C34.96 128.008 35.0947 127.214 35.3643 126.522C35.6396 125.831 36.0674 125.277 36.6475 124.861C37.2275 124.439 37.9248 124.229 38.7393 124.229C39.6123 124.229 40.3945 124.454 41.0859 124.905C41.7773 125.356 42.2402 125.948 42.4746 126.681L40.8838 127.146C40.7432 126.66 40.4795 126.279 40.0928 126.004C39.7119 125.729 39.2725 125.591 38.7744 125.591C38.0361 125.591 37.4824 125.887 37.1133 126.479C36.75 127.07 36.5684 127.908 36.5684 128.992C36.5684 129.924 36.7617 130.633 37.1484 131.119C37.5352 131.605 38.1064 131.849 38.8623 131.849C39.4307 131.849 39.8994 131.705 40.2686 131.418C40.6377 131.125 40.8691 130.706 40.9629 130.161ZM48.249 133.193C47.3232 133.193 46.5469 132.977 45.9199 132.543C45.293 132.109 44.9795 131.506 44.9795 130.732C44.9795 129.865 45.4014 129.209 46.2451 128.764C47.0947 128.318 48.3486 128.096 50.0068 128.096C50.1064 128.096 50.2529 128.099 50.4463 128.104C50.6455 128.11 50.792 128.113 50.8857 128.113C50.8447 127.357 50.6045 126.742 50.165 126.268C49.7314 125.787 49.1777 125.547 48.5039 125.547C47.7012 125.547 46.8662 125.96 45.999 126.786L45.1289 125.723C45.5742 125.242 46.084 124.873 46.6582 124.615C47.2324 124.357 47.833 124.229 48.46 124.229C49.5908 124.229 50.5195 124.609 51.2461 125.371C51.9785 126.133 52.3447 127.1 52.3447 128.271V132.895L52.2656 132.824V133H50.4639C50.6396 132.748 50.7598 132.502 50.8242 132.262C50.25 132.883 49.3916 133.193 48.249 133.193ZM46.4648 130.732C46.4648 131.113 46.626 131.412 46.9482 131.629C47.2705 131.846 47.6777 131.954 48.1699 131.954C48.6738 131.954 49.1719 131.84 49.6641 131.611C50.1621 131.383 50.5693 131.055 50.8857 130.627V129.396H50.0596C48.8115 129.396 47.9004 129.502 47.3262 129.713C46.752 129.918 46.4648 130.258 46.4648 130.732ZM61.4414 133H54.8408V131.77H57.4424V125.679L55.7285 125.573V124.448H59.0859C58.957 124.653 58.8779 124.87 58.8486 125.099C59.335 124.519 60.126 124.229 61.2217 124.229C61.6084 124.229 62.1914 124.372 62.9707 124.659L62.0566 126.074C61.5938 125.822 61.166 125.696 60.7734 125.696C60.3105 125.696 59.8975 125.828 59.5342 126.092C59.1709 126.35 58.9424 126.687 58.8486 127.103V131.77H61.3096V131.937C61.3096 132.376 61.3535 132.73 61.4414 133ZM64.5879 128.482C64.5879 127.135 64.916 126.089 65.5723 125.345C66.2344 124.601 67.1514 124.229 68.3232 124.229C69.3662 124.229 70.1865 124.577 70.7842 125.274V121.284L72.2432 121.372V131.937C72.2432 132.394 72.2812 132.748 72.3574 133H70.7842V132.473C70.1338 132.953 69.375 133.193 68.5078 133.193C67.3359 133.193 66.3896 132.763 65.6689 131.901C64.9482 131.04 64.5879 129.9 64.5879 128.482ZM68.3848 125.512C67.6699 125.512 67.0986 125.784 66.6709 126.329C66.2432 126.868 66.0293 127.592 66.0293 128.5C66.0293 129.467 66.2637 130.261 66.7324 130.882C67.2012 131.503 67.8018 131.813 68.5342 131.813C69.6533 131.813 70.4033 131.43 70.7842 130.662V127.076C70.5146 126.578 70.1689 126.194 69.7471 125.925C69.3252 125.649 68.8711 125.512 68.3848 125.512ZM81.4189 127.779V129.177H75.46V127.779H81.4189ZM85.585 133C85.3564 132.074 85.1807 131.348 85.0576 130.82C84.9404 130.287 84.8027 129.613 84.6445 128.799C84.4922 127.984 84.3809 127.208 84.3105 126.47C84.2402 125.726 84.2051 124.979 84.2051 124.229H85.6465C85.6465 126.221 85.916 128.315 86.4551 130.513C87.041 128.96 87.4365 127.624 87.6416 126.505H89.083C89.2705 127.659 89.625 128.995 90.1465 130.513C90.7031 128.433 90.9814 126.338 90.9814 124.229H92.4404C92.4404 124.979 92.3994 125.729 92.3174 126.479C92.2412 127.223 92.1211 127.993 91.957 128.79C91.793 129.581 91.6377 130.261 91.4912 130.829C91.3506 131.392 91.1572 132.115 90.9111 133H89.5752C88.9248 131.277 88.5029 129.953 88.3096 129.027C88.0928 129.871 87.6299 131.195 86.9209 133H85.585ZM101.537 133H94.9365V131.77H97.5469V125.679L95.8418 125.573V124.448H98.9619V131.77H101.423V131.937C101.423 132.394 101.461 132.748 101.537 133ZM97.0811 122.154C97.0811 121.826 97.1689 121.577 97.3447 121.407C97.5205 121.237 97.7754 121.152 98.1094 121.152C98.7773 121.152 99.1113 121.486 99.1113 122.154C99.1113 122.834 98.7773 123.174 98.1094 123.174C97.4238 123.174 97.0811 122.834 97.0811 122.154ZM104.657 125.784V124.448H105.993V121.284L107.443 121.372V124.448H111.003V125.784H107.443V129.906C107.443 130.498 107.593 130.961 107.892 131.295C108.196 131.623 108.562 131.787 108.99 131.787C109.324 131.787 109.641 131.682 109.939 131.471C110.244 131.26 110.487 130.943 110.669 130.521L111.979 131.11C111.656 131.813 111.231 132.341 110.704 132.692C110.177 133.038 109.617 133.211 109.025 133.211C108.205 133.211 107.493 132.909 106.89 132.306C106.292 131.702 105.993 130.902 105.993 129.906V125.784H104.657ZM114.422 121.284L115.872 121.372V125.187C116.136 124.894 116.49 124.662 116.936 124.492C117.381 124.316 117.832 124.229 118.289 124.229C118.828 124.229 119.303 124.352 119.713 124.598C120.129 124.844 120.457 125.178 120.697 125.6C120.943 126.016 121.125 126.473 121.242 126.971C121.365 127.469 121.427 127.993 121.427 128.544V131.937C121.427 132.376 121.471 132.73 121.559 133H119.897V128.245C119.897 127.507 119.695 126.892 119.291 126.399C118.893 125.907 118.354 125.661 117.674 125.661C116.912 125.661 116.312 126.054 115.872 126.839V133H114.422V121.284ZM130.901 127.779V129.177H124.942V127.779H130.901ZM137.317 133.193C136.392 133.193 135.615 132.977 134.988 132.543C134.361 132.109 134.048 131.506 134.048 130.732C134.048 129.865 134.47 129.209 135.313 128.764C136.163 128.318 137.417 128.096 139.075 128.096C139.175 128.096 139.321 128.099 139.515 128.104C139.714 128.11 139.86 128.113 139.954 128.113C139.913 127.357 139.673 126.742 139.233 126.268C138.8 125.787 138.246 125.547 137.572 125.547C136.77 125.547 135.935 125.96 135.067 126.786L134.197 125.723C134.643 125.242 135.152 124.873 135.727 124.615C136.301 124.357 136.901 124.229 137.528 124.229C138.659 124.229 139.588 124.609 140.314 125.371C141.047 126.133 141.413 127.1 141.413 128.271V132.895L141.334 132.824V133H139.532C139.708 132.748 139.828 132.502 139.893 132.262C139.318 132.883 138.46 133.193 137.317 133.193ZM135.533 130.732C135.533 131.113 135.694 131.412 136.017 131.629C136.339 131.846 136.746 131.954 137.238 131.954C137.742 131.954 138.24 131.84 138.732 131.611C139.23 131.383 139.638 131.055 139.954 130.627V129.396H139.128C137.88 129.396 136.969 129.502 136.395 129.713C135.82 129.918 135.533 130.258 135.533 130.732ZM151.055 133H144.454V131.77H146.985V122.603L145.28 122.497V121.372H148.444V131.77H150.914V131.937C150.914 132.358 150.961 132.713 151.055 133ZM153.841 124.448H155.713C155.566 124.653 155.446 124.905 155.353 125.204C155.944 124.554 156.744 124.229 157.752 124.229C158.924 124.229 159.838 124.604 160.494 125.354C161.156 126.098 161.487 127.146 161.487 128.5C161.487 129.918 161.127 131.058 160.406 131.919C159.691 132.78 158.748 133.211 157.576 133.211C156.721 133.211 155.959 132.965 155.291 132.473V135.927L153.841 136.032V124.448ZM155.291 127.076V130.662C155.672 131.43 156.422 131.813 157.541 131.813C158.273 131.813 158.874 131.506 159.343 130.891C159.812 130.27 160.046 129.479 160.046 128.518C160.046 127.609 159.832 126.886 159.404 126.347C158.977 125.802 158.405 125.529 157.69 125.529C157.198 125.529 156.741 125.664 156.319 125.934C155.903 126.203 155.561 126.584 155.291 127.076ZM163.904 121.284L165.354 121.372V125.187C165.618 124.894 165.973 124.662 166.418 124.492C166.863 124.316 167.314 124.229 167.771 124.229C168.311 124.229 168.785 124.352 169.195 124.598C169.611 124.844 169.939 125.178 170.18 125.6C170.426 126.016 170.607 126.473 170.725 126.971C170.848 127.469 170.909 127.993 170.909 128.544V131.937C170.909 132.376 170.953 132.73 171.041 133H169.38V128.245C169.38 127.507 169.178 126.892 168.773 126.399C168.375 125.907 167.836 125.661 167.156 125.661C166.395 125.661 165.794 126.054 165.354 126.839V133H163.904V121.284ZM176.903 133.193C175.978 133.193 175.201 132.977 174.574 132.543C173.947 132.109 173.634 131.506 173.634 130.732C173.634 129.865 174.056 129.209 174.899 128.764C175.749 128.318 177.003 128.096 178.661 128.096C178.761 128.096 178.907 128.099 179.101 128.104C179.3 128.11 179.446 128.113 179.54 128.113C179.499 127.357 179.259 126.742 178.819 126.268C178.386 125.787 177.832 125.547 177.158 125.547C176.355 125.547 175.521 125.96 174.653 126.786L173.783 125.723C174.229 125.242 174.738 124.873 175.312 124.615C175.887 124.357 176.487 124.229 177.114 124.229C178.245 124.229 179.174 124.609 179.9 125.371C180.633 126.133 180.999 127.1 180.999 128.271V132.895L180.92 132.824V133H179.118C179.294 132.748 179.414 132.502 179.479 132.262C178.904 132.883 178.046 133.193 176.903 133.193ZM175.119 130.732C175.119 131.113 175.28 131.412 175.603 131.629C175.925 131.846 176.332 131.954 176.824 131.954C177.328 131.954 177.826 131.84 178.318 131.611C178.816 131.383 179.224 131.055 179.54 130.627V129.396H178.714C177.466 129.396 176.555 129.502 175.98 129.713C175.406 129.918 175.119 130.258 175.119 130.732Z" fill="#BDB4FE"/>
<path d="M146.669 62.752C146.669 62.418 146.757 62.166 146.933 61.9961C147.114 61.8203 147.372 61.7324 147.706 61.7324C148.386 61.7324 148.726 62.0723 148.726 62.752C148.726 63.4316 148.386 63.7715 147.706 63.7715C147.015 63.7715 146.669 63.4316 146.669 62.752ZM146.669 57.1445C146.669 56.8164 146.757 56.5674 146.933 56.3975C147.114 56.2275 147.372 56.1426 147.706 56.1426C148.386 56.1426 148.726 56.4766 148.726 57.1445C148.726 57.8359 148.386 58.1816 147.706 58.1816C147.015 58.1816 146.669 57.8359 146.669 57.1445ZM166.673 64L163.649 55.4482H165.188L167.394 61.6445L169.793 55.4482H171.322L168.07 64H166.673ZM176.903 64.1934C175.978 64.1934 175.201 63.9766 174.574 63.543C173.947 63.1094 173.634 62.5059 173.634 61.7324C173.634 60.8652 174.056 60.209 174.899 59.7637C175.749 59.3184 177.003 59.0957 178.661 59.0957C178.761 59.0957 178.907 59.0986 179.101 59.1045C179.3 59.1104 179.446 59.1133 179.54 59.1133C179.499 58.3574 179.259 57.7422 178.819 57.2676C178.386 56.7871 177.832 56.5469 177.158 56.5469C176.355 56.5469 175.521 56.96 174.653 57.7861L173.783 56.7227C174.229 56.2422 174.738 55.873 175.312 55.6152C175.887 55.3574 176.487 55.2285 177.114 55.2285C178.245 55.2285 179.174 55.6094 179.9 56.3711C180.633 57.1328 180.999 58.0996 180.999 59.2715V63.8945L180.92 63.8242V64H179.118C179.294 63.748 179.414 63.502 179.479 63.2617C178.904 63.8828 178.046 64.1934 176.903 64.1934ZM175.119 61.7324C175.119 62.1133 175.28 62.4121 175.603 62.6289C175.925 62.8457 176.332 62.9541 176.824 62.9541C177.328 62.9541 177.826 62.8398 178.318 62.6113C178.816 62.3828 179.224 62.0547 179.54 61.627V60.3965H178.714C177.466 60.3965 176.555 60.502 175.98 60.7129C175.406 60.918 175.119 61.2578 175.119 61.7324ZM190.096 64H183.495V62.7695H186.097V56.6787L184.383 56.5732V55.4482H187.74C187.611 55.6533 187.532 55.8701 187.503 56.0986C187.989 55.5186 188.78 55.2285 189.876 55.2285C190.263 55.2285 190.846 55.3721 191.625 55.6592L190.711 57.0742C190.248 56.8223 189.82 56.6963 189.428 56.6963C188.965 56.6963 188.552 56.8281 188.188 57.0918C187.825 57.3496 187.597 57.6865 187.503 58.1025V62.7695H189.964V62.9365C189.964 63.376 190.008 63.7305 190.096 64ZM196.661 59.5791C196.661 60.8447 196.872 61.9697 197.294 62.9541C197.722 63.9326 198.451 64.9727 199.482 66.0742L198.586 66.9883C197.32 65.8047 196.403 64.627 195.835 63.4551C195.267 62.2832 194.982 60.9912 194.982 59.5791C194.982 58.1787 195.264 56.9072 195.826 55.7646C196.395 54.6162 197.314 53.4473 198.586 52.2578L199.482 53.1719C198.445 54.2793 197.716 55.3105 197.294 56.2656C196.872 57.2207 196.661 58.3252 196.661 59.5791ZM210.073 58.7793V60.1768H204.114V58.7793H210.073ZM219.97 58.7793V60.1768H214.011V58.7793H219.97ZM228.996 61.1611L230.657 61.3896C230.476 62.2568 230.042 62.9424 229.356 63.4463C228.671 63.9443 227.821 64.1934 226.808 64.1934C225.595 64.1934 224.654 63.8242 223.986 63.0859C223.324 62.3418 222.993 61.2812 222.993 59.9043C222.993 59.0078 223.128 58.2139 223.397 57.5225C223.673 56.8311 224.101 56.2773 224.681 55.8613C225.261 55.4395 225.958 55.2285 226.772 55.2285C227.646 55.2285 228.428 55.4541 229.119 55.9053C229.811 56.3564 230.273 56.9482 230.508 57.6807L228.917 58.1465C228.776 57.6602 228.513 57.2793 228.126 57.0039C227.745 56.7285 227.306 56.5908 226.808 56.5908C226.069 56.5908 225.516 56.8867 225.146 57.4785C224.783 58.0703 224.602 58.9082 224.602 59.9922C224.602 60.9238 224.795 61.6328 225.182 62.1191C225.568 62.6055 226.14 62.8486 226.896 62.8486C227.464 62.8486 227.933 62.7051 228.302 62.418C228.671 62.125 228.902 61.7061 228.996 61.1611ZM239.631 63.0156C238.91 63.8125 237.952 64.2109 236.757 64.2109C235.562 64.2109 234.606 63.8125 233.892 63.0156C233.183 62.2129 232.828 61.126 232.828 59.7549C232.828 58.3896 233.18 57.2939 233.883 56.4678C234.586 55.6416 235.535 55.2285 236.73 55.2285C237.938 55.2285 238.904 55.6445 239.631 56.4766C240.357 57.3086 240.721 58.4072 240.721 59.7725C240.721 61.1318 240.357 62.2129 239.631 63.0156ZM236.81 62.9541C237.524 62.9541 238.084 62.6787 238.488 62.1279C238.898 61.5713 239.104 60.7861 239.104 59.7725C239.104 58.7412 238.896 57.9326 238.479 57.3467C238.069 56.7549 237.501 56.459 236.774 56.459C236.048 56.459 235.479 56.752 235.069 57.3379C234.659 57.918 234.454 58.7178 234.454 59.7373C234.454 60.7568 234.662 61.5479 235.078 62.1104C235.494 62.6729 236.071 62.9541 236.81 62.9541ZM250.02 64H243.419V62.7695H245.95V53.6025L244.245 53.4971V52.3721H247.409V62.7695H249.879V62.9365C249.879 63.3584 249.926 63.7129 250.02 64ZM259.424 63.0156C258.703 63.8125 257.745 64.2109 256.55 64.2109C255.354 64.2109 254.399 63.8125 253.685 63.0156C252.976 62.2129 252.621 61.126 252.621 59.7549C252.621 58.3896 252.973 57.2939 253.676 56.4678C254.379 55.6416 255.328 55.2285 256.523 55.2285C257.73 55.2285 258.697 55.6445 259.424 56.4766C260.15 57.3086 260.514 58.4072 260.514 59.7725C260.514 61.1318 260.15 62.2129 259.424 63.0156ZM256.603 62.9541C257.317 62.9541 257.877 62.6787 258.281 62.1279C258.691 61.5713 258.896 60.7861 258.896 59.7725C258.896 58.7412 258.688 57.9326 258.272 57.3467C257.862 56.7549 257.294 56.459 256.567 56.459C255.841 56.459 255.272 56.752 254.862 57.3379C254.452 57.918 254.247 58.7178 254.247 59.7373C254.247 60.7568 254.455 61.5479 254.871 62.1104C255.287 62.6729 255.864 62.9541 256.603 62.9541ZM269.268 64H262.667V62.7695H265.269V56.6787L263.555 56.5732V55.4482H266.912C266.783 55.6533 266.704 55.8701 266.675 56.0986C267.161 55.5186 267.952 55.2285 269.048 55.2285C269.435 55.2285 270.018 55.3721 270.797 55.6592L269.883 57.0742C269.42 56.8223 268.992 56.6963 268.6 56.6963C268.137 56.6963 267.724 56.8281 267.36 57.0918C266.997 57.3496 266.769 57.6865 266.675 58.1025V62.7695H269.136V62.9365C269.136 63.376 269.18 63.7305 269.268 64ZM279.349 58.7793V60.1768H273.39V58.7793H279.349ZM283.066 55.6152L282.899 54.1738C283.556 54.0449 284.13 53.8223 284.622 53.5059C285.12 53.1895 285.501 52.7881 285.765 52.3018H287.171V62.7695H289.676V62.9189C289.676 63.3525 289.723 63.7129 289.816 64H283.172V62.7695H285.721V54.5957C285.17 55.1406 284.285 55.4805 283.066 55.6152ZM296.681 59.5791C296.681 58.3252 296.47 57.2207 296.048 56.2656C295.626 55.3105 294.896 54.2793 293.859 53.1719L294.756 52.2578C296.027 53.4473 296.944 54.6162 297.507 55.7646C298.075 56.9072 298.359 58.1787 298.359 59.5791C298.359 60.9912 298.075 62.2832 297.507 63.4551C296.938 64.627 296.021 65.8047 294.756 66.9883L293.859 66.0742C294.891 64.9727 295.617 63.9326 296.039 62.9541C296.467 61.9697 296.681 60.8447 296.681 59.5791ZM305.074 65.9336L304.222 65.5029C304.304 65.3799 304.45 65.0957 304.661 64.6504C304.872 64.2109 305.051 63.7979 305.197 63.4111C305.074 63.2471 305.013 63.0273 305.013 62.752C305.013 62.418 305.101 62.166 305.276 61.9961C305.458 61.8203 305.716 61.7324 306.05 61.7324C306.425 61.7324 306.688 61.832 306.841 62.0312C306.993 62.2246 307.069 62.5117 307.069 62.8926C307.052 63.1094 306.987 63.2881 306.876 63.4287C306.671 63.8916 306.369 64.3926 305.971 64.9316C305.572 65.4707 305.273 65.8047 305.074 65.9336ZM305.013 57.1445C305.013 56.8164 305.101 56.5674 305.276 56.3975C305.458 56.2275 305.716 56.1426 306.05 56.1426C306.729 56.1426 307.069 56.4766 307.069 57.1445C307.069 57.8359 306.729 58.1816 306.05 58.1816C305.358 58.1816 305.013 57.8359 305.013 57.1445ZM146.669 154.752C146.669 154.418 146.757 154.166 146.933 153.996C147.114 153.82 147.372 153.732 147.706 153.732C148.386 153.732 148.726 154.072 148.726 154.752C148.726 155.432 148.386 155.771 147.706 155.771C147.015 155.771 146.669 155.432 146.669 154.752ZM146.669 149.145C146.669 148.816 146.757 148.567 146.933 148.397C147.114 148.228 147.372 148.143 147.706 148.143C148.386 148.143 148.726 148.477 148.726 149.145C148.726 149.836 148.386 150.182 147.706 150.182C147.015 150.182 146.669 149.836 146.669 149.145ZM163.904 144.284L165.354 144.372V148.187C165.618 147.894 165.973 147.662 166.418 147.492C166.863 147.316 167.314 147.229 167.771 147.229C168.311 147.229 168.785 147.352 169.195 147.598C169.611 147.844 169.939 148.178 170.18 148.6C170.426 149.016 170.607 149.473 170.725 149.971C170.848 150.469 170.909 150.993 170.909 151.544V154.937C170.909 155.376 170.953 155.73 171.041 156H169.38V151.245C169.38 150.507 169.178 149.892 168.773 149.399C168.375 148.907 167.836 148.661 167.156 148.661C166.395 148.661 165.794 149.054 165.354 149.839V156H163.904V144.284ZM177.879 151.008C178.98 151.219 179.769 151.512 180.243 151.887C180.718 152.262 180.955 152.777 180.955 153.434C180.955 154.248 180.642 154.916 180.015 155.438C179.388 155.953 178.562 156.211 177.536 156.211C176.007 156.211 174.797 155.59 173.906 154.348L174.864 153.346C175.737 154.383 176.631 154.901 177.545 154.901C178.09 154.901 178.564 154.758 178.969 154.471C179.373 154.184 179.575 153.844 179.575 153.451C179.575 153.205 179.449 153.012 179.197 152.871C178.945 152.725 178.491 152.587 177.835 152.458C176.569 152.206 175.658 151.872 175.102 151.456C174.551 151.034 174.275 150.483 174.275 149.804C174.275 149.03 174.58 148.409 175.189 147.94C175.805 147.466 176.616 147.229 177.624 147.229C178.339 147.229 178.978 147.354 179.54 147.606C180.103 147.858 180.548 148.222 180.876 148.696L179.962 149.628C179.599 149.241 179.244 148.966 178.898 148.802C178.559 148.638 178.163 148.556 177.712 148.556C177.12 148.556 176.628 148.667 176.235 148.89C175.849 149.112 175.655 149.394 175.655 149.733C175.655 150.044 175.837 150.299 176.2 150.498C176.563 150.697 177.123 150.867 177.879 151.008ZM190.641 156H184.04V154.77H186.571V145.603L184.866 145.497V144.372H188.03V154.77H190.5V154.937C190.5 155.358 190.547 155.713 190.641 156ZM196.661 151.579C196.661 152.845 196.872 153.97 197.294 154.954C197.722 155.933 198.451 156.973 199.482 158.074L198.586 158.988C197.32 157.805 196.403 156.627 195.835 155.455C195.267 154.283 194.982 152.991 194.982 151.579C194.982 150.179 195.264 148.907 195.826 147.765C196.395 146.616 197.314 145.447 198.586 144.258L199.482 145.172C198.445 146.279 197.716 147.311 197.294 148.266C196.872 149.221 196.661 150.325 196.661 151.579ZM206.259 156L203.235 147.448H204.773L206.979 153.645L209.379 147.448H210.908L207.656 156H206.259ZM216.489 156.193C215.563 156.193 214.787 155.977 214.16 155.543C213.533 155.109 213.22 154.506 213.22 153.732C213.22 152.865 213.642 152.209 214.485 151.764C215.335 151.318 216.589 151.096 218.247 151.096C218.347 151.096 218.493 151.099 218.687 151.104C218.886 151.11 219.032 151.113 219.126 151.113C219.085 150.357 218.845 149.742 218.405 149.268C217.972 148.787 217.418 148.547 216.744 148.547C215.941 148.547 215.106 148.96 214.239 149.786L213.369 148.723C213.814 148.242 214.324 147.873 214.898 147.615C215.473 147.357 216.073 147.229 216.7 147.229C217.831 147.229 218.76 147.609 219.486 148.371C220.219 149.133 220.585 150.1 220.585 151.271V155.895L220.506 155.824V156H218.704C218.88 155.748 219 155.502 219.064 155.262C218.49 155.883 217.632 156.193 216.489 156.193ZM214.705 153.732C214.705 154.113 214.866 154.412 215.188 154.629C215.511 154.846 215.918 154.954 216.41 154.954C216.914 154.954 217.412 154.84 217.904 154.611C218.402 154.383 218.81 154.055 219.126 153.627V152.396H218.3C217.052 152.396 216.141 152.502 215.566 152.713C214.992 152.918 214.705 153.258 214.705 153.732ZM229.682 156H223.081V154.77H225.683V148.679L223.969 148.573V147.448H227.326C227.197 147.653 227.118 147.87 227.089 148.099C227.575 147.519 228.366 147.229 229.462 147.229C229.849 147.229 230.432 147.372 231.211 147.659L230.297 149.074C229.834 148.822 229.406 148.696 229.014 148.696C228.551 148.696 228.138 148.828 227.774 149.092C227.411 149.35 227.183 149.687 227.089 150.103V154.77H229.55V154.937C229.55 155.376 229.594 155.73 229.682 156ZM236.247 151.579C236.247 152.845 236.458 153.97 236.88 154.954C237.308 155.933 238.037 156.973 239.068 158.074L238.172 158.988C236.906 157.805 235.989 156.627 235.421 155.455C234.853 154.283 234.568 152.991 234.568 151.579C234.568 150.179 234.85 148.907 235.412 147.765C235.98 146.616 236.9 145.447 238.172 144.258L239.068 145.172C238.031 146.279 237.302 147.311 236.88 148.266C236.458 149.221 236.247 150.325 236.247 151.579ZM249.659 150.779V152.177H243.7V150.779H249.659ZM259.556 150.779V152.177H253.597V150.779H259.556ZM268.582 153.161L270.243 153.39C270.062 154.257 269.628 154.942 268.942 155.446C268.257 155.944 267.407 156.193 266.394 156.193C265.181 156.193 264.24 155.824 263.572 155.086C262.91 154.342 262.579 153.281 262.579 151.904C262.579 151.008 262.714 150.214 262.983 149.522C263.259 148.831 263.687 148.277 264.267 147.861C264.847 147.439 265.544 147.229 266.358 147.229C267.231 147.229 268.014 147.454 268.705 147.905C269.396 148.356 269.859 148.948 270.094 149.681L268.503 150.146C268.362 149.66 268.099 149.279 267.712 149.004C267.331 148.729 266.892 148.591 266.394 148.591C265.655 148.591 265.102 148.887 264.732 149.479C264.369 150.07 264.188 150.908 264.188 151.992C264.188 152.924 264.381 153.633 264.768 154.119C265.154 154.605 265.726 154.849 266.481 154.849C267.05 154.849 267.519 154.705 267.888 154.418C268.257 154.125 268.488 153.706 268.582 153.161ZM279.217 155.016C278.496 155.812 277.538 156.211 276.343 156.211C275.147 156.211 274.192 155.812 273.478 155.016C272.769 154.213 272.414 153.126 272.414 151.755C272.414 150.39 272.766 149.294 273.469 148.468C274.172 147.642 275.121 147.229 276.316 147.229C277.523 147.229 278.49 147.645 279.217 148.477C279.943 149.309 280.307 150.407 280.307 151.772C280.307 153.132 279.943 154.213 279.217 155.016ZM276.396 154.954C277.11 154.954 277.67 154.679 278.074 154.128C278.484 153.571 278.689 152.786 278.689 151.772C278.689 150.741 278.481 149.933 278.065 149.347C277.655 148.755 277.087 148.459 276.36 148.459C275.634 148.459 275.065 148.752 274.655 149.338C274.245 149.918 274.04 150.718 274.04 151.737C274.04 152.757 274.248 153.548 274.664 154.11C275.08 154.673 275.657 154.954 276.396 154.954ZM289.605 156H283.005V154.77H285.536V145.603L283.831 145.497V144.372H286.995V154.77H289.465V154.937C289.465 155.358 289.512 155.713 289.605 156ZM299.01 155.016C298.289 155.812 297.331 156.211 296.136 156.211C294.94 156.211 293.985 155.812 293.271 155.016C292.562 154.213 292.207 153.126 292.207 151.755C292.207 150.39 292.559 149.294 293.262 148.468C293.965 147.642 294.914 147.229 296.109 147.229C297.316 147.229 298.283 147.645 299.01 148.477C299.736 149.309 300.1 150.407 300.1 151.772C300.1 153.132 299.736 154.213 299.01 155.016ZM296.188 154.954C296.903 154.954 297.463 154.679 297.867 154.128C298.277 153.571 298.482 152.786 298.482 151.772C298.482 150.741 298.274 149.933 297.858 149.347C297.448 148.755 296.88 148.459 296.153 148.459C295.427 148.459 294.858 148.752 294.448 149.338C294.038 149.918 293.833 150.718 293.833 151.737C293.833 152.757 294.041 153.548 294.457 154.11C294.873 154.673 295.45 154.954 296.188 154.954ZM308.854 156H302.253V154.77H304.854V148.679L303.141 148.573V147.448H306.498C306.369 147.653 306.29 147.87 306.261 148.099C306.747 147.519 307.538 147.229 308.634 147.229C309.021 147.229 309.604 147.372 310.383 147.659L309.469 149.074C309.006 148.822 308.578 148.696 308.186 148.696C307.723 148.696 307.31 148.828 306.946 149.092C306.583 149.35 306.354 149.687 306.261 150.103V154.77H308.722V154.937C308.722 155.376 308.766 155.73 308.854 156ZM318.935 150.779V152.177H312.976V150.779H318.935ZM322.652 147.615L322.485 146.174C323.142 146.045 323.716 145.822 324.208 145.506C324.706 145.189 325.087 144.788 325.351 144.302H326.757V154.77H329.262V154.919C329.262 155.353 329.309 155.713 329.402 156H322.758V154.77H325.307V146.596C324.756 147.141 323.871 147.48 322.652 147.615ZM336.267 151.579C336.267 150.325 336.056 149.221 335.634 148.266C335.212 147.311 334.482 146.279 333.445 145.172L334.342 144.258C335.613 145.447 336.53 146.616 337.093 147.765C337.661 148.907 337.945 150.179 337.945 151.579C337.945 152.991 337.661 154.283 337.093 155.455C336.524 156.627 335.607 157.805 334.342 158.988L333.445 158.074C334.477 156.973 335.203 155.933 335.625 154.954C336.053 153.97 336.267 152.845 336.267 151.579ZM358.397 143.353L359.479 144.029L352.685 158.057L351.604 157.38L358.397 143.353ZM44.6631 173.146C44.6631 171.98 44.8359 170.935 45.1816 170.009C45.5332 169.083 46.0166 168.362 46.6318 167.847C47.2529 167.331 47.9502 167.073 48.7236 167.073C49.4971 167.073 50.1943 167.334 50.8154 167.855C51.4424 168.377 51.9316 169.104 52.2832 170.035C52.6406 170.961 52.8193 172.004 52.8193 173.164C52.8193 174.312 52.6436 175.35 52.292 176.275C51.9463 177.195 51.46 177.919 50.833 178.446C50.2061 178.968 49.5029 179.229 48.7236 179.229C47.9443 179.229 47.2441 178.968 46.623 178.446C46.0078 177.919 45.5273 177.192 45.1816 176.267C44.8359 175.341 44.6631 174.301 44.6631 173.146ZM46.6318 175.862L50.2617 169.147C49.8398 168.526 49.333 168.216 48.7412 168.216C48.0205 168.216 47.4287 168.679 46.9658 169.604C46.5029 170.53 46.2715 171.758 46.2715 173.287C46.2715 174.248 46.3916 175.106 46.6318 175.862ZM47.335 177.181C47.7334 177.661 48.1963 177.901 48.7236 177.901C49.4619 177.901 50.0625 177.474 50.5254 176.618C50.9883 175.763 51.2197 174.652 51.2197 173.287C51.2197 172.285 51.1084 171.38 50.8857 170.571L47.335 177.181ZM57.6006 178.191C57.6006 177.863 57.6914 177.611 57.873 177.436C58.0547 177.26 58.3096 177.172 58.6377 177.172C58.9658 177.172 59.2178 177.26 59.3936 177.436C59.5693 177.611 59.6572 177.863 59.6572 178.191C59.6572 178.531 59.5693 178.789 59.3936 178.965C59.2178 179.141 58.9658 179.229 58.6377 179.229C57.9463 179.229 57.6006 178.883 57.6006 178.191ZM66.3457 173.287H65.0449L65.5371 167.302H71.5049V168.541H66.8818L66.6006 171.723C66.999 171.312 67.6055 171.107 68.4199 171.107C69.5039 171.107 70.377 171.468 71.0391 172.188C71.7012 172.903 72.0322 173.844 72.0322 175.01C72.0322 176.223 71.6836 177.23 70.9863 178.033C70.2949 178.83 69.4189 179.229 68.3584 179.229C67.2041 179.229 66.0645 178.672 64.9395 177.559L65.915 176.601C66.6299 177.409 67.418 177.813 68.2793 177.813C69.0176 177.813 69.5859 177.57 69.9844 177.084C70.3887 176.598 70.5908 175.921 70.5908 175.054C70.5908 174.198 70.3887 173.548 69.9844 173.103C69.5859 172.651 69.0117 172.426 68.2617 172.426C67.8223 172.426 67.4326 172.505 67.0928 172.663C66.7529 172.815 66.5039 173.023 66.3457 173.287ZM78.958 174.579C78.958 173.325 78.7471 172.221 78.3252 171.266C77.9033 170.311 77.1738 169.279 76.1367 168.172L77.0332 167.258C78.3047 168.447 79.2217 169.616 79.7842 170.765C80.3525 171.907 80.6367 173.179 80.6367 174.579C80.6367 175.991 80.3525 177.283 79.7842 178.455C79.2158 179.627 78.2988 180.805 77.0332 181.988L76.1367 181.074C77.168 179.973 77.8945 178.933 78.3164 177.954C78.7441 176.97 78.958 175.845 78.958 174.579ZM87.3516 180.934L86.499 180.503C86.5811 180.38 86.7275 180.096 86.9385 179.65C87.1494 179.211 87.3281 178.798 87.4746 178.411C87.3516 178.247 87.29 178.027 87.29 177.752C87.29 177.418 87.3779 177.166 87.5537 176.996C87.7354 176.82 87.9932 176.732 88.3271 176.732C88.7021 176.732 88.9658 176.832 89.1182 177.031C89.2705 177.225 89.3467 177.512 89.3467 177.893C89.3291 178.109 89.2646 178.288 89.1533 178.429C88.9482 178.892 88.6465 179.393 88.248 179.932C87.8496 180.471 87.5508 180.805 87.3516 180.934ZM87.29 172.145C87.29 171.816 87.3779 171.567 87.5537 171.397C87.7354 171.228 87.9932 171.143 88.3271 171.143C89.0068 171.143 89.3467 171.477 89.3467 172.145C89.3467 172.836 89.0068 173.182 88.3271 173.182C87.6357 173.182 87.29 172.836 87.29 172.145Z" fill="#D8DFE5"/>
<path d="M85.8662 37.3086V35.9287C86.1943 35.9287 86.4785 35.8994 86.7188 35.8408C86.9648 35.7764 87.1553 35.7002 87.29 35.6123C87.4248 35.5186 87.5303 35.4043 87.6064 35.2695C87.6885 35.1348 87.7383 35.0088 87.7559 34.8916C87.7793 34.7686 87.791 34.6309 87.791 34.4785C87.791 34.0684 87.6855 33.5469 87.4746 32.9141C87.2812 32.3574 87.1846 31.9092 87.1846 31.5693C87.1846 30.8135 87.4629 30.2451 88.0195 29.8643C88.5762 29.4775 89.2939 29.2842 90.1729 29.2842C90.3896 29.2842 90.5889 29.29 90.7705 29.3018V30.4971C90.5479 30.4619 90.3193 30.4443 90.085 30.4443C89.1768 30.4443 88.7227 30.793 88.7227 31.4902C88.7227 31.7773 88.8076 32.1963 88.9775 32.7471C89.1826 33.415 89.2852 34.001 89.2852 34.5049C89.2852 35.624 88.8809 36.3184 88.0723 36.5879C88.3594 36.6992 88.5967 36.875 88.7842 37.1152C88.9717 37.3555 89.1006 37.6191 89.1709 37.9062C89.2471 38.1875 89.2852 38.4951 89.2852 38.8291C89.2852 39.3271 89.1709 39.9072 88.9424 40.5693C88.7959 40.9678 88.7227 41.3223 88.7227 41.6328C88.7227 42.043 88.8545 42.3418 89.1182 42.5293C89.3818 42.7227 89.7275 42.8193 90.1553 42.8193C90.167 42.8193 90.3721 42.7988 90.7705 42.7578V43.9268C90.6006 43.9443 90.416 43.9531 90.2168 43.9531C89.3203 43.9531 88.5908 43.7451 88.0283 43.3291C87.4658 42.9131 87.1846 42.2979 87.1846 41.4834C87.1846 41.1201 87.2812 40.6895 87.4746 40.1914C87.6855 39.6816 87.791 39.2158 87.791 38.7939C87.791 38.6416 87.7793 38.5068 87.7559 38.3896C87.7383 38.2725 87.6885 38.1436 87.6064 38.0029C87.5303 37.8564 87.4248 37.7363 87.29 37.6426C87.1611 37.5488 86.9736 37.4697 86.7275 37.4053C86.4873 37.3408 86.2002 37.3086 85.8662 37.3086ZM26.5049 76.4971V75.3018C26.6865 75.29 26.8857 75.2842 27.1025 75.2842C27.9814 75.2842 28.6992 75.4775 29.2559 75.8643C29.8125 76.2451 30.0908 76.8135 30.0908 77.5693C30.0908 77.9092 29.9941 78.3574 29.8008 78.9141C29.5957 79.5293 29.4932 80.0508 29.4932 80.4785C29.4932 80.6719 29.5137 80.8418 29.5547 80.9883C29.5957 81.1348 29.6777 81.2871 29.8008 81.4453C29.9238 81.5977 30.1201 81.7178 30.3896 81.8057C30.6592 81.8877 30.999 81.9287 31.4092 81.9287V83.3086C31.0752 83.3086 30.7852 83.3408 30.5391 83.4053C30.2988 83.4697 30.1113 83.5488 29.9766 83.6426C29.8477 83.7363 29.7451 83.8564 29.6689 84.0029C29.5928 84.1436 29.543 84.2725 29.5195 84.3896C29.502 84.5068 29.4932 84.6416 29.4932 84.7939C29.4932 85.2334 29.5957 85.6992 29.8008 86.1914C29.9941 86.6895 30.0908 87.1201 30.0908 87.4834C30.0908 88.2979 29.8096 88.9131 29.2471 89.3291C28.6846 89.7451 27.9551 89.9531 27.0586 89.9531C26.8594 89.9531 26.6748 89.9443 26.5049 89.9268V88.7578C26.9033 88.7988 27.1084 88.8193 27.1201 88.8193C27.5479 88.8193 27.8965 88.7227 28.166 88.5293C28.4414 88.3418 28.5791 88.043 28.5791 87.6328C28.5791 87.3691 28.4971 87.0146 28.333 86.5693C28.1045 85.9072 27.9902 85.3271 27.9902 84.8291C27.9902 84.4951 28.0254 84.1875 28.0957 83.9062C28.1719 83.6191 28.3037 83.3555 28.4912 83.1152C28.6787 82.875 28.916 82.6992 29.2031 82.5879C28.3945 82.3184 27.9902 81.624 27.9902 80.5049C27.9902 80.0244 28.0957 79.4385 28.3066 78.7471C28.4883 78.1611 28.5791 77.7422 28.5791 77.4902C28.5791 76.793 28.1191 76.4443 27.1992 76.4443C26.959 76.4443 26.7275 76.4619 26.5049 76.4971ZM194.728 129.309V127.929C195.056 127.929 195.34 127.899 195.58 127.841C195.826 127.776 196.017 127.7 196.151 127.612C196.286 127.519 196.392 127.404 196.468 127.27C196.55 127.135 196.6 127.009 196.617 126.892C196.641 126.769 196.652 126.631 196.652 126.479C196.652 126.068 196.547 125.547 196.336 124.914C196.143 124.357 196.046 123.909 196.046 123.569C196.046 122.813 196.324 122.245 196.881 121.864C197.438 121.478 198.155 121.284 199.034 121.284C199.251 121.284 199.45 121.29 199.632 121.302V122.497C199.409 122.462 199.181 122.444 198.946 122.444C198.038 122.444 197.584 122.793 197.584 123.49C197.584 123.777 197.669 124.196 197.839 124.747C198.044 125.415 198.146 126.001 198.146 126.505C198.146 127.624 197.742 128.318 196.934 128.588C197.221 128.699 197.458 128.875 197.646 129.115C197.833 129.355 197.962 129.619 198.032 129.906C198.108 130.188 198.146 130.495 198.146 130.829C198.146 131.327 198.032 131.907 197.804 132.569C197.657 132.968 197.584 133.322 197.584 133.633C197.584 134.043 197.716 134.342 197.979 134.529C198.243 134.723 198.589 134.819 199.017 134.819C199.028 134.819 199.233 134.799 199.632 134.758V135.927C199.462 135.944 199.277 135.953 199.078 135.953C198.182 135.953 197.452 135.745 196.89 135.329C196.327 134.913 196.046 134.298 196.046 133.483C196.046 133.12 196.143 132.689 196.336 132.191C196.547 131.682 196.652 131.216 196.652 130.794C196.652 130.642 196.641 130.507 196.617 130.39C196.6 130.272 196.55 130.144 196.468 130.003C196.392 129.856 196.286 129.736 196.151 129.643C196.022 129.549 195.835 129.47 195.589 129.405C195.349 129.341 195.062 129.309 194.728 129.309ZM26.5049 191.497V190.302C26.6865 190.29 26.8857 190.284 27.1025 190.284C27.9814 190.284 28.6992 190.478 29.2559 190.864C29.8125 191.245 30.0908 191.813 30.0908 192.569C30.0908 192.909 29.9941 193.357 29.8008 193.914C29.5957 194.529 29.4932 195.051 29.4932 195.479C29.4932 195.672 29.5137 195.842 29.5547 195.988C29.5957 196.135 29.6777 196.287 29.8008 196.445C29.9238 196.598 30.1201 196.718 30.3896 196.806C30.6592 196.888 30.999 196.929 31.4092 196.929V198.309C31.0752 198.309 30.7852 198.341 30.5391 198.405C30.2988 198.47 30.1113 198.549 29.9766 198.643C29.8477 198.736 29.7451 198.856 29.6689 199.003C29.5928 199.144 29.543 199.272 29.5195 199.39C29.502 199.507 29.4932 199.642 29.4932 199.794C29.4932 200.233 29.5957 200.699 29.8008 201.191C29.9941 201.689 30.0908 202.12 30.0908 202.483C30.0908 203.298 29.8096 203.913 29.2471 204.329C28.6846 204.745 27.9551 204.953 27.0586 204.953C26.8594 204.953 26.6748 204.944 26.5049 204.927V203.758C26.9033 203.799 27.1084 203.819 27.1201 203.819C27.5479 203.819 27.8965 203.723 28.166 203.529C28.4414 203.342 28.5791 203.043 28.5791 202.633C28.5791 202.369 28.4971 202.015 28.333 201.569C28.1045 200.907 27.9902 200.327 27.9902 199.829C27.9902 199.495 28.0254 199.188 28.0957 198.906C28.1719 198.619 28.3037 198.355 28.4912 198.115C28.6787 197.875 28.916 197.699 29.2031 197.588C28.3945 197.318 27.9902 196.624 27.9902 195.505C27.9902 195.024 28.0957 194.438 28.3066 193.747C28.4883 193.161 28.5791 192.742 28.5791 192.49C28.5791 191.793 28.1191 191.444 27.1992 191.444C26.959 191.444 26.7275 191.462 26.5049 191.497Z" fill="#FEB173"/>
<path d="M45.0674 52.2842L46.5264 52.3896V56.2744C47.124 55.5771 47.9443 55.2285 48.9873 55.2285C50.1592 55.2285 51.0732 55.6035 51.7295 56.3535C52.3857 57.0977 52.7139 58.1465 52.7139 59.5C52.7139 60.918 52.3535 62.0576 51.6328 62.9189C50.918 63.7803 49.9746 64.2109 48.8027 64.2109C48.0352 64.2109 47.3467 64.0146 46.7373 63.6221C46.8135 63.8096 46.8809 63.9355 46.9395 64H45.0674V52.2842ZM46.5264 58.0762V61.6621C46.9072 62.4297 47.6572 62.8135 48.7764 62.8135C49.5029 62.8135 50.1006 62.5059 50.5693 61.8906C51.0439 61.2695 51.2812 60.4785 51.2812 59.5176C51.2812 58.6094 51.0674 57.8857 50.6396 57.3467C50.2119 56.8018 49.6406 56.5293 48.9258 56.5293C48.4336 56.5293 47.9766 56.6641 47.5547 56.9336C47.1387 57.2031 46.7959 57.584 46.5264 58.0762ZM58.1455 64.1934C57.2197 64.1934 56.4434 63.9766 55.8164 63.543C55.1895 63.1094 54.876 62.5059 54.876 61.7324C54.876 60.8652 55.2979 60.209 56.1416 59.7637C56.9912 59.3184 58.2451 59.0957 59.9033 59.0957C60.0029 59.0957 60.1494 59.0986 60.3428 59.1045C60.542 59.1104 60.6885 59.1133 60.7822 59.1133C60.7412 58.3574 60.501 57.7422 60.0615 57.2676C59.6279 56.7871 59.0742 56.5469 58.4004 56.5469C57.5977 56.5469 56.7627 56.96 55.8955 57.7861L55.0254 56.7227C55.4707 56.2422 55.9805 55.873 56.5547 55.6152C57.1289 55.3574 57.7295 55.2285 58.3564 55.2285C59.4873 55.2285 60.416 55.6094 61.1426 56.3711C61.875 57.1328 62.2412 58.0996 62.2412 59.2715V63.8945L62.1621 63.8242V64H60.3604C60.5361 63.748 60.6562 63.502 60.7207 63.2617C60.1465 63.8828 59.2881 64.1934 58.1455 64.1934ZM56.3613 61.7324C56.3613 62.1133 56.5225 62.4121 56.8447 62.6289C57.167 62.8457 57.5742 62.9541 58.0664 62.9541C58.5703 62.9541 59.0684 62.8398 59.5605 62.6113C60.0586 62.3828 60.4658 62.0547 60.7822 61.627V60.3965H59.9561C58.708 60.3965 57.7969 60.502 57.2227 60.7129C56.6484 60.918 56.3613 61.2578 56.3613 61.7324ZM70.6523 61.1611L72.3135 61.3896C72.1318 62.2568 71.6982 62.9424 71.0127 63.4463C70.3271 63.9443 69.4775 64.1934 68.4639 64.1934C67.251 64.1934 66.3105 63.8242 65.6426 63.0859C64.9805 62.3418 64.6494 61.2812 64.6494 59.9043C64.6494 59.0078 64.7842 58.2139 65.0537 57.5225C65.3291 56.8311 65.7568 56.2773 66.3369 55.8613C66.917 55.4395 67.6143 55.2285 68.4287 55.2285C69.3018 55.2285 70.084 55.4541 70.7754 55.9053C71.4668 56.3564 71.9297 56.9482 72.1641 57.6807L70.5732 58.1465C70.4326 57.6602 70.1689 57.2793 69.7822 57.0039C69.4014 56.7285 68.9619 56.5908 68.4639 56.5908C67.7256 56.5908 67.1719 56.8867 66.8027 57.4785C66.4395 58.0703 66.2578 58.9082 66.2578 59.9922C66.2578 60.9238 66.4512 61.6328 66.8379 62.1191C67.2246 62.6055 67.7959 62.8486 68.5518 62.8486C69.1201 62.8486 69.5889 62.7051 69.958 62.418C70.3271 62.125 70.5586 61.7061 70.6523 61.1611ZM75.1611 52.2842L76.6201 52.3721V58.709L80.3379 55.4482H82.3945L78.0703 59.3506L82.8604 64H80.6191L76.9365 60.3877L76.6201 60.6689V64H75.1611V52.2842ZM84.3105 59.0957C84.3105 57.9121 84.6357 56.9717 85.2861 56.2744C85.9424 55.5771 86.8418 55.2285 87.9844 55.2285C89.0449 55.2285 89.874 55.5566 90.4717 56.2129V55.4482H92.0625C91.9746 55.7178 91.9307 56.0723 91.9307 56.5117V63.7891C91.9307 64.6504 91.6025 65.3389 90.9463 65.8545C90.29 66.3701 89.417 66.6279 88.3271 66.6279C87.5479 66.6279 86.8096 66.4932 86.1123 66.2236C85.4209 65.96 84.9111 65.6143 84.583 65.1865L85.4619 64.123C86.1533 64.9082 87.123 65.3008 88.3711 65.3008C89.7715 65.3008 90.4717 64.7969 90.4717 63.7891V62.3828C89.6924 62.9219 88.8545 63.1914 87.958 63.1914C86.8682 63.1914 85.9863 62.8135 85.3125 62.0576C84.6445 61.2959 84.3105 60.3086 84.3105 59.0957ZM88.0723 56.4854C87.3809 56.4854 86.8154 56.7373 86.376 57.2412C85.9365 57.7451 85.7168 58.3691 85.7168 59.1133C85.7168 59.8809 85.9424 60.5225 86.3936 61.0381C86.8506 61.5537 87.4395 61.8115 88.1602 61.8115C88.6289 61.8115 89.0713 61.7002 89.4873 61.4775C89.9033 61.249 90.2314 60.9385 90.4717 60.5459V57.9971C90.208 57.5107 89.8652 57.1387 89.4434 56.8809C89.0215 56.6172 88.5645 56.4854 88.0723 56.4854ZM101.027 64H94.4268V62.7695H97.0283V56.6787L95.3145 56.5732V55.4482H98.6719C98.543 55.6533 98.4639 55.8701 98.4346 56.0986C98.9209 55.5186 99.7119 55.2285 100.808 55.2285C101.194 55.2285 101.777 55.3721 102.557 55.6592L101.643 57.0742C101.18 56.8223 100.752 56.6963 100.359 56.6963C99.8965 56.6963 99.4834 56.8281 99.1201 57.0918C98.7568 57.3496 98.5283 57.6865 98.4346 58.1025V62.7695H100.896V62.9365C100.896 63.376 100.939 63.7305 101.027 64ZM110.977 63.0156C110.256 63.8125 109.298 64.2109 108.103 64.2109C106.907 64.2109 105.952 63.8125 105.237 63.0156C104.528 62.2129 104.174 61.126 104.174 59.7549C104.174 58.3896 104.525 57.2939 105.229 56.4678C105.932 55.6416 106.881 55.2285 108.076 55.2285C109.283 55.2285 110.25 55.6445 110.977 56.4766C111.703 57.3086 112.066 58.4072 112.066 59.7725C112.066 61.1318 111.703 62.2129 110.977 63.0156ZM108.155 62.9541C108.87 62.9541 109.43 62.6787 109.834 62.1279C110.244 61.5713 110.449 60.7861 110.449 59.7725C110.449 58.7412 110.241 57.9326 109.825 57.3467C109.415 56.7549 108.847 56.459 108.12 56.459C107.394 56.459 106.825 56.752 106.415 57.3379C106.005 57.918 105.8 58.7178 105.8 59.7373C105.8 60.7568 106.008 61.5479 106.424 62.1104C106.84 62.6729 107.417 62.9541 108.155 62.9541ZM114.343 55.4307H115.872V60.3438C115.872 61.0352 116.08 61.6387 116.496 62.1543C116.912 62.6641 117.425 62.9189 118.034 62.9189C118.415 62.9189 118.743 62.8047 119.019 62.5762C119.3 62.3477 119.602 61.9785 119.924 61.4688V55.4482H121.365V62.9365C121.365 63.376 121.409 63.7305 121.497 64H119.924V63.0859C119.66 63.4316 119.312 63.707 118.878 63.9121C118.444 64.1113 118.002 64.2109 117.551 64.2109C116.941 64.2109 116.388 64.0205 115.89 63.6396C115.397 63.2588 115.017 62.752 114.747 62.1191C114.478 61.4805 114.343 60.7832 114.343 60.0273V55.4307ZM125.918 64H124.477V55.4482H126.357C126.217 55.6533 126.105 55.8701 126.023 56.0986C126.299 55.835 126.65 55.624 127.078 55.4658C127.512 55.3076 127.945 55.2285 128.379 55.2285C128.906 55.2285 129.372 55.3516 129.776 55.5977C130.187 55.8438 130.512 56.1748 130.752 56.5908C130.998 57.0068 131.18 57.4668 131.297 57.9707C131.42 58.4688 131.481 58.9932 131.481 59.5439V62.9365C131.481 63.3584 131.528 63.7129 131.622 64H129.943V59.2451C129.943 58.5127 129.744 57.9004 129.346 57.4082C128.953 56.9102 128.426 56.6611 127.764 56.6611C126.984 56.6611 126.369 57.0566 125.918 57.8477V64ZM133.863 59.4824C133.863 58.1348 134.191 57.0889 134.848 56.3447C135.51 55.6006 136.427 55.2285 137.599 55.2285C138.642 55.2285 139.462 55.5771 140.06 56.2744V52.2842L141.519 52.3721V62.9365C141.519 63.3936 141.557 63.748 141.633 64H140.06V63.4727C139.409 63.9531 138.65 64.1934 137.783 64.1934C136.611 64.1934 135.665 63.7627 134.944 62.9014C134.224 62.04 133.863 60.9004 133.863 59.4824ZM137.66 56.5117C136.945 56.5117 136.374 56.7842 135.946 57.3291C135.519 57.8682 135.305 58.5918 135.305 59.5C135.305 60.4668 135.539 61.2607 136.008 61.8818C136.477 62.5029 137.077 62.8135 137.81 62.8135C138.929 62.8135 139.679 62.4297 140.06 61.6621V58.0762C139.79 57.5781 139.444 57.1943 139.022 56.9248C138.601 56.6494 138.146 56.5117 137.66 56.5117ZM45.0674 144.284L46.5264 144.39V148.274C47.124 147.577 47.9443 147.229 48.9873 147.229C50.1592 147.229 51.0732 147.604 51.7295 148.354C52.3857 149.098 52.7139 150.146 52.7139 151.5C52.7139 152.918 52.3535 154.058 51.6328 154.919C50.918 155.78 49.9746 156.211 48.8027 156.211C48.0352 156.211 47.3467 156.015 46.7373 155.622C46.8135 155.81 46.8809 155.936 46.9395 156H45.0674V144.284ZM46.5264 150.076V153.662C46.9072 154.43 47.6572 154.813 48.7764 154.813C49.5029 154.813 50.1006 154.506 50.5693 153.891C51.0439 153.27 51.2812 152.479 51.2812 151.518C51.2812 150.609 51.0674 149.886 50.6396 149.347C50.2119 148.802 49.6406 148.529 48.9258 148.529C48.4336 148.529 47.9766 148.664 47.5547 148.934C47.1387 149.203 46.7959 149.584 46.5264 150.076ZM58.1455 156.193C57.2197 156.193 56.4434 155.977 55.8164 155.543C55.1895 155.109 54.876 154.506 54.876 153.732C54.876 152.865 55.2979 152.209 56.1416 151.764C56.9912 151.318 58.2451 151.096 59.9033 151.096C60.0029 151.096 60.1494 151.099 60.3428 151.104C60.542 151.11 60.6885 151.113 60.7822 151.113C60.7412 150.357 60.501 149.742 60.0615 149.268C59.6279 148.787 59.0742 148.547 58.4004 148.547C57.5977 148.547 56.7627 148.96 55.8955 149.786L55.0254 148.723C55.4707 148.242 55.9805 147.873 56.5547 147.615C57.1289 147.357 57.7295 147.229 58.3564 147.229C59.4873 147.229 60.416 147.609 61.1426 148.371C61.875 149.133 62.2412 150.1 62.2412 151.271V155.895L62.1621 155.824V156H60.3604C60.5361 155.748 60.6562 155.502 60.7207 155.262C60.1465 155.883 59.2881 156.193 58.1455 156.193ZM56.3613 153.732C56.3613 154.113 56.5225 154.412 56.8447 154.629C57.167 154.846 57.5742 154.954 58.0664 154.954C58.5703 154.954 59.0684 154.84 59.5605 154.611C60.0586 154.383 60.4658 154.055 60.7822 153.627V152.396H59.9561C58.708 152.396 57.7969 152.502 57.2227 152.713C56.6484 152.918 56.3613 153.258 56.3613 153.732ZM70.6523 153.161L72.3135 153.39C72.1318 154.257 71.6982 154.942 71.0127 155.446C70.3271 155.944 69.4775 156.193 68.4639 156.193C67.251 156.193 66.3105 155.824 65.6426 155.086C64.9805 154.342 64.6494 153.281 64.6494 151.904C64.6494 151.008 64.7842 150.214 65.0537 149.522C65.3291 148.831 65.7568 148.277 66.3369 147.861C66.917 147.439 67.6143 147.229 68.4287 147.229C69.3018 147.229 70.084 147.454 70.7754 147.905C71.4668 148.356 71.9297 148.948 72.1641 149.681L70.5732 150.146C70.4326 149.66 70.1689 149.279 69.7822 149.004C69.4014 148.729 68.9619 148.591 68.4639 148.591C67.7256 148.591 67.1719 148.887 66.8027 149.479C66.4395 150.07 66.2578 150.908 66.2578 151.992C66.2578 152.924 66.4512 153.633 66.8379 154.119C67.2246 154.605 67.7959 154.849 68.5518 154.849C69.1201 154.849 69.5889 154.705 69.958 154.418C70.3271 154.125 70.5586 153.706 70.6523 153.161ZM75.1611 144.284L76.6201 144.372V150.709L80.3379 147.448H82.3945L78.0703 151.351L82.8604 156H80.6191L76.9365 152.388L76.6201 152.669V156H75.1611V144.284ZM84.3105 151.096C84.3105 149.912 84.6357 148.972 85.2861 148.274C85.9424 147.577 86.8418 147.229 87.9844 147.229C89.0449 147.229 89.874 147.557 90.4717 148.213V147.448H92.0625C91.9746 147.718 91.9307 148.072 91.9307 148.512V155.789C91.9307 156.65 91.6025 157.339 90.9463 157.854C90.29 158.37 89.417 158.628 88.3271 158.628C87.5479 158.628 86.8096 158.493 86.1123 158.224C85.4209 157.96 84.9111 157.614 84.583 157.187L85.4619 156.123C86.1533 156.908 87.123 157.301 88.3711 157.301C89.7715 157.301 90.4717 156.797 90.4717 155.789V154.383C89.6924 154.922 88.8545 155.191 87.958 155.191C86.8682 155.191 85.9863 154.813 85.3125 154.058C84.6445 153.296 84.3105 152.309 84.3105 151.096ZM88.0723 148.485C87.3809 148.485 86.8154 148.737 86.376 149.241C85.9365 149.745 85.7168 150.369 85.7168 151.113C85.7168 151.881 85.9424 152.522 86.3936 153.038C86.8506 153.554 87.4395 153.812 88.1602 153.812C88.6289 153.812 89.0713 153.7 89.4873 153.478C89.9033 153.249 90.2314 152.938 90.4717 152.546V149.997C90.208 149.511 89.8652 149.139 89.4434 148.881C89.0215 148.617 88.5645 148.485 88.0723 148.485ZM101.027 156H94.4268V154.77H97.0283V148.679L95.3145 148.573V147.448H98.6719C98.543 147.653 98.4639 147.87 98.4346 148.099C98.9209 147.519 99.7119 147.229 100.808 147.229C101.194 147.229 101.777 147.372 102.557 147.659L101.643 149.074C101.18 148.822 100.752 148.696 100.359 148.696C99.8965 148.696 99.4834 148.828 99.1201 149.092C98.7568 149.35 98.5283 149.687 98.4346 150.103V154.77H100.896V154.937C100.896 155.376 100.939 155.73 101.027 156ZM110.977 155.016C110.256 155.812 109.298 156.211 108.103 156.211C106.907 156.211 105.952 155.812 105.237 155.016C104.528 154.213 104.174 153.126 104.174 151.755C104.174 150.39 104.525 149.294 105.229 148.468C105.932 147.642 106.881 147.229 108.076 147.229C109.283 147.229 110.25 147.645 110.977 148.477C111.703 149.309 112.066 150.407 112.066 151.772C112.066 153.132 111.703 154.213 110.977 155.016ZM108.155 154.954C108.87 154.954 109.43 154.679 109.834 154.128C110.244 153.571 110.449 152.786 110.449 151.772C110.449 150.741 110.241 149.933 109.825 149.347C109.415 148.755 108.847 148.459 108.12 148.459C107.394 148.459 106.825 148.752 106.415 149.338C106.005 149.918 105.8 150.718 105.8 151.737C105.8 152.757 106.008 153.548 106.424 154.11C106.84 154.673 107.417 154.954 108.155 154.954ZM114.343 147.431H115.872V152.344C115.872 153.035 116.08 153.639 116.496 154.154C116.912 154.664 117.425 154.919 118.034 154.919C118.415 154.919 118.743 154.805 119.019 154.576C119.3 154.348 119.602 153.979 119.924 153.469V147.448H121.365V154.937C121.365 155.376 121.409 155.73 121.497 156H119.924V155.086C119.66 155.432 119.312 155.707 118.878 155.912C118.444 156.111 118.002 156.211 117.551 156.211C116.941 156.211 116.388 156.021 115.89 155.64C115.397 155.259 115.017 154.752 114.747 154.119C114.478 153.48 114.343 152.783 114.343 152.027V147.431ZM125.918 156H124.477V147.448H126.357C126.217 147.653 126.105 147.87 126.023 148.099C126.299 147.835 126.65 147.624 127.078 147.466C127.512 147.308 127.945 147.229 128.379 147.229C128.906 147.229 129.372 147.352 129.776 147.598C130.187 147.844 130.512 148.175 130.752 148.591C130.998 149.007 131.18 149.467 131.297 149.971C131.42 150.469 131.481 150.993 131.481 151.544V154.937C131.481 155.358 131.528 155.713 131.622 156H129.943V151.245C129.943 150.513 129.744 149.9 129.346 149.408C128.953 148.91 128.426 148.661 127.764 148.661C126.984 148.661 126.369 149.057 125.918 149.848V156ZM133.863 151.482C133.863 150.135 134.191 149.089 134.848 148.345C135.51 147.601 136.427 147.229 137.599 147.229C138.642 147.229 139.462 147.577 140.06 148.274V144.284L141.519 144.372V154.937C141.519 155.394 141.557 155.748 141.633 156H140.06V155.473C139.409 155.953 138.65 156.193 137.783 156.193C136.611 156.193 135.665 155.763 134.944 154.901C134.224 154.04 133.863 152.9 133.863 151.482ZM137.66 148.512C136.945 148.512 136.374 148.784 135.946 149.329C135.519 149.868 135.305 150.592 135.305 151.5C135.305 152.467 135.539 153.261 136.008 153.882C136.477 154.503 137.077 154.813 137.81 154.813C138.929 154.813 139.679 154.43 140.06 153.662V150.076C139.79 149.578 139.444 149.194 139.022 148.925C138.601 148.649 138.146 148.512 137.66 148.512Z" fill="#9ED9E9"/>
<path d="M6 1H412V-1H6V1ZM417 6V226H419V6H417ZM412 231H5.99999V233H412V231ZM1 226V6.00001H-1V226H1ZM5.99999 231C3.23857 231 1 228.761 1 226H-1C-1 229.866 2.134 233 5.99999 233V231ZM417 226C417 228.761 414.761 231 412 231V233C415.866 233 419 229.866 419 226H417ZM412 1C414.761 1 417 3.23857 417 6H419C419 2.13401 415.866 -1 412 -1V1ZM6 -1C2.13401 -1 -1 2.13401 -1 6.00001H1C1 3.23858 3.23858 1 6 1V-1Z" fill="#4D5C6C"/>
</svg>
