<svg width="300" height="200" viewBox="0 0 300 200" fill="none" xmlns="http://www.w3.org/2000/svg">
<rect x="0.5" y="0.5" width="299" height="199" rx="3.5" fill="#37434F"/>
<path d="M27.2593 37.3262C27.2593 37.0527 27.335 36.8428 27.4863 36.6963C27.6377 36.5498 27.8501 36.4766 28.1235 36.4766C28.397 36.4766 28.6069 36.5498 28.7534 36.6963C28.8999 36.8428 28.9731 37.0527 28.9731 37.3262C28.9731 37.6094 28.8999 37.8242 28.7534 37.9707C28.6069 38.1172 28.397 38.1904 28.1235 38.1904C27.5474 38.1904 27.2593 37.9023 27.2593 37.3262ZM38.1357 35.6343L39.52 35.8247C39.3687 36.5474 39.0073 37.1187 38.436 37.5386C37.8647 37.9536 37.1567 38.1611 36.312 38.1611C35.3013 38.1611 34.5176 37.8535 33.9609 37.2383C33.4092 36.6182 33.1333 35.7344 33.1333 34.5869C33.1333 33.8398 33.2456 33.1782 33.4702 32.6021C33.6997 32.0259 34.0562 31.5645 34.5396 31.2178C35.0229 30.8662 35.604 30.6904 36.2827 30.6904C37.0103 30.6904 37.6621 30.8784 38.2383 31.2544C38.8145 31.6304 39.2002 32.1235 39.3955 32.7339L38.0698 33.1221C37.9526 32.7168 37.7329 32.3994 37.4106 32.1699C37.0933 31.9404 36.7271 31.8257 36.312 31.8257C35.6968 31.8257 35.2354 32.0723 34.9277 32.5654C34.625 33.0586 34.4736 33.7568 34.4736 34.6602C34.4736 35.4365 34.6348 36.0273 34.957 36.4326C35.2793 36.8379 35.7554 37.0405 36.3853 37.0405C36.8589 37.0405 37.2495 36.9209 37.5571 36.6816C37.8647 36.4375 38.0576 36.0884 38.1357 35.6343ZM44.2075 38.1611C43.436 38.1611 42.7891 37.9805 42.2666 37.6191C41.7441 37.2578 41.4829 36.7549 41.4829 36.1104C41.4829 35.3877 41.8345 34.8408 42.5376 34.4697C43.2456 34.0986 44.2905 33.9131 45.6724 33.9131C45.7554 33.9131 45.8774 33.9155 46.0386 33.9204C46.2046 33.9253 46.3267 33.9277 46.4048 33.9277C46.3706 33.2979 46.1704 32.7852 45.8042 32.3896C45.4429 31.9893 44.9814 31.7891 44.4199 31.7891C43.751 31.7891 43.0552 32.1333 42.3325 32.8218L41.6074 31.9355C41.9785 31.5352 42.4033 31.2275 42.8818 31.0127C43.3604 30.7979 43.8608 30.6904 44.3833 30.6904C45.3257 30.6904 46.0996 31.0078 46.7051 31.6426C47.3154 32.2773 47.6206 33.083 47.6206 34.0596V37.9121L47.5547 37.8535V38H46.0532C46.1997 37.79 46.2998 37.585 46.3535 37.3848C45.875 37.9023 45.1597 38.1611 44.2075 38.1611ZM42.7207 36.1104C42.7207 36.4277 42.855 36.6768 43.1235 36.8574C43.3921 37.0381 43.7314 37.1284 44.1416 37.1284C44.5615 37.1284 44.9766 37.0332 45.3867 36.8428C45.8018 36.6523 46.1411 36.3789 46.4048 36.0225V34.9971H45.7163C44.6763 34.9971 43.917 35.085 43.4385 35.2607C42.96 35.4316 42.7207 35.7148 42.7207 36.1104ZM55.2012 38H49.7007V36.9746H51.8687V31.8989L50.4404 31.811V30.8735H53.2383C53.1309 31.0444 53.0649 31.2251 53.0405 31.4155C53.4458 30.9321 54.105 30.6904 55.0181 30.6904C55.3403 30.6904 55.8262 30.8101 56.4756 31.0493L55.7139 32.2285C55.3281 32.0186 54.9717 31.9136 54.6445 31.9136C54.2588 31.9136 53.9146 32.0234 53.6118 32.2432C53.3091 32.458 53.1187 32.7388 53.0405 33.0854V36.9746H55.0913V37.1138C55.0913 37.48 55.1279 37.7754 55.2012 38ZM57.8232 34.2354C57.8232 33.1123 58.0967 32.2407 58.6436 31.6206C59.1953 31.0005 59.9595 30.6904 60.936 30.6904C61.8052 30.6904 62.4888 30.981 62.9868 31.562V28.2368L64.2026 28.3101V37.1138C64.2026 37.4946 64.2344 37.79 64.2979 38H62.9868V37.5605C62.4448 37.9609 61.8125 38.1611 61.0898 38.1611C60.1133 38.1611 59.3247 37.8022 58.7241 37.0845C58.1235 36.3667 57.8232 35.417 57.8232 34.2354ZM60.9873 31.7598C60.3916 31.7598 59.9155 31.9868 59.5591 32.4409C59.2026 32.8901 59.0244 33.4932 59.0244 34.25C59.0244 35.0557 59.2197 35.7173 59.6104 36.2349C60.001 36.7524 60.5015 37.0112 61.1118 37.0112C62.0444 37.0112 62.6694 36.6914 62.9868 36.0518V33.0635C62.7622 32.6484 62.4741 32.3286 62.1226 32.104C61.771 31.8745 61.3926 31.7598 60.9873 31.7598ZM27.2593 113.326C27.2593 113.053 27.335 112.843 27.4863 112.696C27.6377 112.55 27.8501 112.477 28.1235 112.477C28.397 112.477 28.6069 112.55 28.7534 112.696C28.8999 112.843 28.9731 113.053 28.9731 113.326C28.9731 113.609 28.8999 113.824 28.7534 113.971C28.6069 114.117 28.397 114.19 28.1235 114.19C27.5474 114.19 27.2593 113.902 27.2593 113.326ZM38.1357 111.634L39.52 111.825C39.3687 112.547 39.0073 113.119 38.436 113.539C37.8647 113.954 37.1567 114.161 36.312 114.161C35.3013 114.161 34.5176 113.854 33.9609 113.238C33.4092 112.618 33.1333 111.734 33.1333 110.587C33.1333 109.84 33.2456 109.178 33.4702 108.602C33.6997 108.026 34.0562 107.564 34.5396 107.218C35.0229 106.866 35.604 106.69 36.2827 106.69C37.0103 106.69 37.6621 106.878 38.2383 107.254C38.8145 107.63 39.2002 108.124 39.3955 108.734L38.0698 109.122C37.9526 108.717 37.7329 108.399 37.4106 108.17C37.0933 107.94 36.7271 107.826 36.312 107.826C35.6968 107.826 35.2354 108.072 34.9277 108.565C34.625 109.059 34.4736 109.757 34.4736 110.66C34.4736 111.437 34.6348 112.027 34.957 112.433C35.2793 112.838 35.7554 113.041 36.3853 113.041C36.8589 113.041 37.2495 112.921 37.5571 112.682C37.8647 112.438 38.0576 112.088 38.1357 111.634ZM44.2075 114.161C43.436 114.161 42.7891 113.98 42.2666 113.619C41.7441 113.258 41.4829 112.755 41.4829 112.11C41.4829 111.388 41.8345 110.841 42.5376 110.47C43.2456 110.099 44.2905 109.913 45.6724 109.913C45.7554 109.913 45.8774 109.916 46.0386 109.92C46.2046 109.925 46.3267 109.928 46.4048 109.928C46.3706 109.298 46.1704 108.785 45.8042 108.39C45.4429 107.989 44.9814 107.789 44.4199 107.789C43.751 107.789 43.0552 108.133 42.3325 108.822L41.6074 107.936C41.9785 107.535 42.4033 107.228 42.8818 107.013C43.3604 106.798 43.8608 106.69 44.3833 106.69C45.3257 106.69 46.0996 107.008 46.7051 107.643C47.3154 108.277 47.6206 109.083 47.6206 110.06V113.912L47.5547 113.854V114H46.0532C46.1997 113.79 46.2998 113.585 46.3535 113.385C45.875 113.902 45.1597 114.161 44.2075 114.161ZM42.7207 112.11C42.7207 112.428 42.855 112.677 43.1235 112.857C43.3921 113.038 43.7314 113.128 44.1416 113.128C44.5615 113.128 44.9766 113.033 45.3867 112.843C45.8018 112.652 46.1411 112.379 46.4048 112.022V110.997H45.7163C44.6763 110.997 43.917 111.085 43.4385 111.261C42.96 111.432 42.7207 111.715 42.7207 112.11ZM55.2012 114H49.7007V112.975H51.8687V107.899L50.4404 107.811V106.874H53.2383C53.1309 107.044 53.0649 107.225 53.0405 107.416C53.4458 106.932 54.105 106.69 55.0181 106.69C55.3403 106.69 55.8262 106.81 56.4756 107.049L55.7139 108.229C55.3281 108.019 54.9717 107.914 54.6445 107.914C54.2588 107.914 53.9146 108.023 53.6118 108.243C53.3091 108.458 53.1187 108.739 53.0405 109.085V112.975H55.0913V113.114C55.0913 113.48 55.1279 113.775 55.2012 114ZM57.8232 110.235C57.8232 109.112 58.0967 108.241 58.6436 107.621C59.1953 107 59.9595 106.69 60.936 106.69C61.8052 106.69 62.4888 106.981 62.9868 107.562V104.237L64.2026 104.31V113.114C64.2026 113.495 64.2344 113.79 64.2979 114H62.9868V113.561C62.4448 113.961 61.8125 114.161 61.0898 114.161C60.1133 114.161 59.3247 113.802 58.7241 113.084C58.1235 112.367 57.8232 111.417 57.8232 110.235ZM60.9873 107.76C60.3916 107.76 59.9155 107.987 59.5591 108.441C59.2026 108.89 59.0244 109.493 59.0244 110.25C59.0244 111.056 59.2197 111.717 59.6104 112.235C60.001 112.752 60.5015 113.011 61.1118 113.011C62.0444 113.011 62.6694 112.691 62.9868 112.052V109.063C62.7622 108.648 62.4741 108.329 62.1226 108.104C61.771 107.875 61.3926 107.76 60.9873 107.76ZM71.8491 109.649V110.814H66.8833V109.649H71.8491ZM75.3208 114C75.1304 113.229 74.9839 112.623 74.8813 112.184C74.7837 111.739 74.6689 111.178 74.5371 110.499C74.4102 109.82 74.3174 109.173 74.2588 108.558C74.2002 107.938 74.1709 107.315 74.1709 106.69H75.3721C75.3721 108.351 75.5967 110.096 76.0459 111.927C76.5342 110.633 76.8638 109.52 77.0347 108.587H78.2358C78.3921 109.549 78.6875 110.663 79.1221 111.927C79.5859 110.194 79.8179 108.448 79.8179 106.69H81.0337C81.0337 107.315 80.9995 107.94 80.9312 108.565C80.8677 109.186 80.7676 109.828 80.6309 110.492C80.4941 111.151 80.3647 111.717 80.2427 112.191C80.1255 112.66 79.9644 113.263 79.7593 114H78.646C78.104 112.564 77.7524 111.461 77.5913 110.689C77.4106 111.393 77.0249 112.496 76.4341 114H75.3208ZM88.6143 114H83.1138V112.975H85.2891V107.899L83.8682 107.811V106.874H86.4683V112.975H88.519V113.114C88.519 113.495 88.5508 113.79 88.6143 114ZM84.9009 104.962C84.9009 104.688 84.9741 104.481 85.1206 104.339C85.2671 104.198 85.4795 104.127 85.7578 104.127C86.3145 104.127 86.5928 104.405 86.5928 104.962C86.5928 105.528 86.3145 105.812 85.7578 105.812C85.1865 105.812 84.9009 105.528 84.9009 104.962ZM91.2144 107.987V106.874H92.3276V104.237L93.5361 104.31V106.874H96.5024V107.987H93.5361V111.422C93.5361 111.915 93.6606 112.301 93.9097 112.579C94.1636 112.853 94.4688 112.989 94.8252 112.989C95.1035 112.989 95.3672 112.901 95.6162 112.726C95.8701 112.55 96.0728 112.286 96.2241 111.935L97.3154 112.425C97.0469 113.011 96.6929 113.451 96.2534 113.744C95.814 114.032 95.3477 114.176 94.8545 114.176C94.1709 114.176 93.5776 113.924 93.0747 113.421C92.5767 112.918 92.3276 112.252 92.3276 111.422V107.987H91.2144ZM99.3516 104.237L100.56 104.31V107.489C100.78 107.245 101.075 107.052 101.446 106.91C101.817 106.764 102.193 106.69 102.574 106.69C103.023 106.69 103.419 106.793 103.761 106.998C104.107 107.203 104.381 107.481 104.581 107.833C104.786 108.18 104.938 108.561 105.035 108.976C105.138 109.391 105.189 109.828 105.189 110.287V113.114C105.189 113.48 105.226 113.775 105.299 114H103.915V110.038C103.915 109.422 103.746 108.91 103.409 108.5C103.077 108.089 102.628 107.884 102.062 107.884C101.427 107.884 100.926 108.211 100.56 108.866V114H99.3516V104.237ZM113.084 109.649V110.814H108.119V109.649H113.084ZM118.431 114.161C117.66 114.161 117.013 113.98 116.49 113.619C115.968 113.258 115.707 112.755 115.707 112.11C115.707 111.388 116.058 110.841 116.761 110.47C117.469 110.099 118.514 109.913 119.896 109.913C119.979 109.913 120.101 109.916 120.262 109.92C120.428 109.925 120.55 109.928 120.628 109.928C120.594 109.298 120.394 108.785 120.028 108.39C119.667 107.989 119.205 107.789 118.644 107.789C117.975 107.789 117.279 108.133 116.556 108.822L115.831 107.936C116.202 107.535 116.627 107.228 117.105 107.013C117.584 106.798 118.084 106.69 118.607 106.69C119.549 106.69 120.323 107.008 120.929 107.643C121.539 108.277 121.844 109.083 121.844 110.06V113.912L121.778 113.854V114H120.277C120.423 113.79 120.523 113.585 120.577 113.385C120.099 113.902 119.383 114.161 118.431 114.161ZM116.944 112.11C116.944 112.428 117.079 112.677 117.347 112.857C117.616 113.038 117.955 113.128 118.365 113.128C118.785 113.128 119.2 113.033 119.61 112.843C120.025 112.652 120.365 112.379 120.628 112.022V110.997H119.94C118.9 110.997 118.141 111.085 117.662 111.261C117.184 111.432 116.944 111.715 116.944 112.11ZM129.879 114H124.378V112.975H126.488V105.335L125.067 105.248V104.31H127.704V112.975H129.762V113.114C129.762 113.465 129.801 113.761 129.879 114ZM132.201 106.874H133.761C133.639 107.044 133.539 107.254 133.46 107.503C133.954 106.961 134.62 106.69 135.46 106.69C136.437 106.69 137.198 107.003 137.745 107.628C138.297 108.248 138.573 109.122 138.573 110.25C138.573 111.432 138.272 112.381 137.672 113.099C137.076 113.817 136.29 114.176 135.313 114.176C134.601 114.176 133.966 113.971 133.409 113.561V116.439L132.201 116.527V106.874ZM133.409 109.063V112.052C133.727 112.691 134.352 113.011 135.284 113.011C135.895 113.011 136.395 112.755 136.786 112.242C137.176 111.725 137.372 111.065 137.372 110.265C137.372 109.508 137.193 108.905 136.837 108.456C136.48 108.001 136.004 107.774 135.409 107.774C134.999 107.774 134.618 107.887 134.266 108.111C133.919 108.336 133.634 108.653 133.409 109.063ZM140.587 104.237L141.795 104.31V107.489C142.015 107.245 142.311 107.052 142.682 106.91C143.053 106.764 143.429 106.69 143.81 106.69C144.259 106.69 144.654 106.793 144.996 106.998C145.343 107.203 145.616 107.481 145.816 107.833C146.021 108.18 146.173 108.561 146.271 108.976C146.373 109.391 146.424 109.828 146.424 110.287V113.114C146.424 113.48 146.461 113.775 146.534 114H145.15V110.038C145.15 109.422 144.981 108.91 144.645 108.5C144.312 108.089 143.863 107.884 143.297 107.884C142.662 107.884 142.162 108.211 141.795 108.866V114H140.587V104.237ZM151.419 114.161C150.648 114.161 150.001 113.98 149.479 113.619C148.956 113.258 148.695 112.755 148.695 112.11C148.695 111.388 149.046 110.841 149.75 110.47C150.458 110.099 151.502 109.913 152.884 109.913C152.967 109.913 153.089 109.916 153.25 109.92C153.417 109.925 153.539 109.928 153.617 109.928C153.583 109.298 153.382 108.785 153.016 108.39C152.655 107.989 152.193 107.789 151.632 107.789C150.963 107.789 150.267 108.133 149.544 108.822L148.819 107.936C149.19 107.535 149.615 107.228 150.094 107.013C150.572 106.798 151.073 106.69 151.595 106.69C152.538 106.69 153.312 107.008 153.917 107.643C154.527 108.277 154.833 109.083 154.833 110.06V113.912L154.767 113.854V114H153.265C153.412 113.79 153.512 113.585 153.565 113.385C153.087 113.902 152.372 114.161 151.419 114.161ZM149.933 112.11C149.933 112.428 150.067 112.677 150.335 112.857C150.604 113.038 150.943 113.128 151.354 113.128C151.773 113.128 152.188 113.033 152.599 112.843C153.014 112.652 153.353 112.379 153.617 112.022V110.997H152.928C151.888 110.997 151.129 111.085 150.65 111.261C150.172 111.432 149.933 111.715 149.933 112.11Z" fill="#BDB4FE"/>
<path d="M126.224 55.96C126.224 55.6816 126.297 55.4717 126.444 55.3301C126.595 55.1836 126.81 55.1104 127.088 55.1104C127.655 55.1104 127.938 55.3936 127.938 55.96C127.938 56.5264 127.655 56.8096 127.088 56.8096C126.512 56.8096 126.224 56.5264 126.224 55.96ZM126.224 51.2871C126.224 51.0137 126.297 50.8062 126.444 50.6646C126.595 50.5229 126.81 50.4521 127.088 50.4521C127.655 50.4521 127.938 50.7305 127.938 51.2871C127.938 51.8633 127.655 52.1514 127.088 52.1514C126.512 52.1514 126.224 51.8633 126.224 51.2871ZM142.894 57L140.375 49.8735H141.656L143.495 55.0371L145.494 49.8735H146.769L144.059 57H142.894ZM151.419 57.1611C150.648 57.1611 150.001 56.9805 149.479 56.6191C148.956 56.2578 148.695 55.7549 148.695 55.1104C148.695 54.3877 149.046 53.8408 149.75 53.4697C150.458 53.0986 151.502 52.9131 152.884 52.9131C152.967 52.9131 153.089 52.9155 153.25 52.9204C153.417 52.9253 153.539 52.9277 153.617 52.9277C153.583 52.2979 153.382 51.7852 153.016 51.3896C152.655 50.9893 152.193 50.7891 151.632 50.7891C150.963 50.7891 150.267 51.1333 149.544 51.8218L148.819 50.9355C149.19 50.5352 149.615 50.2275 150.094 50.0127C150.572 49.7979 151.073 49.6904 151.595 49.6904C152.538 49.6904 153.312 50.0078 153.917 50.6426C154.527 51.2773 154.833 52.083 154.833 53.0596V56.9121L154.767 56.8535V57H153.265C153.412 56.79 153.512 56.585 153.565 56.3848C153.087 56.9023 152.372 57.1611 151.419 57.1611ZM149.933 55.1104C149.933 55.4277 150.067 55.6768 150.335 55.8574C150.604 56.0381 150.943 56.1284 151.354 56.1284C151.773 56.1284 152.188 56.0332 152.599 55.8428C153.014 55.6523 153.353 55.3789 153.617 55.0225V53.9971H152.928C151.888 53.9971 151.129 54.085 150.65 54.2607C150.172 54.4316 149.933 54.7148 149.933 55.1104ZM162.413 57H156.913V55.9746H159.081V50.8989L157.652 50.811V49.8735H160.45C160.343 50.0444 160.277 50.2251 160.252 50.4155C160.658 49.9321 161.317 49.6904 162.23 49.6904C162.552 49.6904 163.038 49.8101 163.688 50.0493L162.926 51.2285C162.54 51.0186 162.184 50.9136 161.856 50.9136C161.471 50.9136 161.126 51.0234 160.824 51.2432C160.521 51.458 160.331 51.7388 160.252 52.0854V55.9746H162.303V56.1138C162.303 56.48 162.34 56.7754 162.413 57ZM167.884 53.3159C167.884 54.3706 168.06 55.3081 168.412 56.1284C168.768 56.9438 169.376 57.8105 170.235 58.7285L169.488 59.4902C168.434 58.5039 167.669 57.5225 167.196 56.5459C166.722 55.5693 166.485 54.4927 166.485 53.3159C166.485 52.1489 166.72 51.0894 167.188 50.1372C167.662 49.1802 168.429 48.2061 169.488 47.2148L170.235 47.9766C169.371 48.8994 168.763 49.7588 168.412 50.5547C168.06 51.3506 167.884 52.271 167.884 53.3159ZM179.061 52.6494V53.814H174.095V52.6494H179.061ZM187.308 52.6494V53.814H182.342V52.6494H187.308ZM194.83 54.6343L196.214 54.8247C196.063 55.5474 195.702 56.1187 195.13 56.5386C194.559 56.9536 193.851 57.1611 193.006 57.1611C191.996 57.1611 191.212 56.8535 190.655 56.2383C190.104 55.6182 189.828 54.7344 189.828 53.5869C189.828 52.8398 189.94 52.1782 190.165 51.6021C190.394 51.0259 190.75 50.5645 191.234 50.2178C191.717 49.8662 192.298 49.6904 192.977 49.6904C193.705 49.6904 194.356 49.8784 194.933 50.2544C195.509 50.6304 195.895 51.1235 196.09 51.7339L194.764 52.1221C194.647 51.7168 194.427 51.3994 194.105 51.1699C193.788 50.9404 193.421 50.8257 193.006 50.8257C192.391 50.8257 191.93 51.0723 191.622 51.5654C191.319 52.0586 191.168 52.7568 191.168 53.6602C191.168 54.4365 191.329 55.0273 191.651 55.4326C191.974 55.8379 192.45 56.0405 193.08 56.0405C193.553 56.0405 193.944 55.9209 194.251 55.6816C194.559 55.4375 194.752 55.0884 194.83 54.6343ZM203.692 56.1797C203.092 56.8438 202.293 57.1758 201.297 57.1758C200.301 57.1758 199.505 56.8438 198.91 56.1797C198.319 55.5107 198.023 54.605 198.023 53.4624C198.023 52.3247 198.316 51.4116 198.902 50.7231C199.488 50.0347 200.279 49.6904 201.275 49.6904C202.281 49.6904 203.087 50.0371 203.692 50.7305C204.298 51.4238 204.601 52.3394 204.601 53.4771C204.601 54.6099 204.298 55.5107 203.692 56.1797ZM201.341 56.1284C201.937 56.1284 202.403 55.8989 202.74 55.4399C203.082 54.9761 203.253 54.3218 203.253 53.4771C203.253 52.6177 203.08 51.9438 202.733 51.4556C202.391 50.9624 201.917 50.7158 201.312 50.7158C200.707 50.7158 200.233 50.96 199.891 51.4482C199.549 51.9316 199.378 52.5981 199.378 53.4478C199.378 54.2974 199.552 54.9565 199.898 55.4253C200.245 55.894 200.726 56.1284 201.341 56.1284ZM212.35 57H206.849V55.9746H208.958V48.3354L207.538 48.2476V47.3101H210.174V55.9746H212.232V56.1138C212.232 56.4653 212.271 56.7607 212.35 57ZM220.187 56.1797C219.586 56.8438 218.788 57.1758 217.792 57.1758C216.795 57.1758 216 56.8438 215.404 56.1797C214.813 55.5107 214.518 54.605 214.518 53.4624C214.518 52.3247 214.811 51.4116 215.396 50.7231C215.982 50.0347 216.773 49.6904 217.77 49.6904C218.775 49.6904 219.581 50.0371 220.187 50.7305C220.792 51.4238 221.095 52.3394 221.095 53.4771C221.095 54.6099 220.792 55.5107 220.187 56.1797ZM217.835 56.1284C218.431 56.1284 218.897 55.8989 219.234 55.4399C219.576 54.9761 219.747 54.3218 219.747 53.4771C219.747 52.6177 219.574 51.9438 219.227 51.4556C218.885 50.9624 218.412 50.7158 217.806 50.7158C217.201 50.7158 216.727 50.96 216.385 51.4482C216.043 51.9316 215.873 52.5981 215.873 53.4478C215.873 54.2974 216.046 54.9565 216.393 55.4253C216.739 55.894 217.22 56.1284 217.835 56.1284ZM228.39 57H222.889V55.9746H225.057V50.8989L223.629 50.811V49.8735H226.427C226.319 50.0444 226.253 50.2251 226.229 50.4155C226.634 49.9321 227.293 49.6904 228.207 49.6904C228.529 49.6904 229.015 49.8101 229.664 50.0493L228.902 51.2285C228.517 51.0186 228.16 50.9136 227.833 50.9136C227.447 50.9136 227.103 51.0234 226.8 51.2432C226.498 51.458 226.307 51.7388 226.229 52.0854V55.9746H228.28V56.1138C228.28 56.48 228.316 56.7754 228.39 57ZM236.791 52.6494V53.814H231.825V52.6494H236.791ZM239.889 50.0127L239.75 48.8115C240.296 48.7041 240.775 48.5186 241.185 48.2549C241.6 47.9912 241.917 47.6567 242.137 47.2515H243.309V55.9746H245.396V56.0991C245.396 56.4604 245.436 56.7607 245.514 57H239.977V55.9746H242.101V49.1631C241.642 49.6172 240.904 49.9004 239.889 50.0127ZM251.234 53.3159C251.234 52.271 251.058 51.3506 250.707 50.5547C250.355 49.7588 249.747 48.8994 248.883 47.9766L249.63 47.2148C250.689 48.2061 251.454 49.1802 251.922 50.1372C252.396 51.0894 252.633 52.1489 252.633 53.3159C252.633 54.4927 252.396 55.5693 251.922 56.5459C251.449 57.5225 250.685 58.5039 249.63 59.4902L248.883 58.7285C249.742 57.8105 250.348 56.9438 250.699 56.1284C251.056 55.3081 251.234 54.3706 251.234 53.3159ZM258.229 58.6113L257.518 58.2524C257.586 58.1499 257.708 57.9131 257.884 57.542C258.06 57.1758 258.209 56.8315 258.331 56.5093C258.229 56.3726 258.177 56.1895 258.177 55.96C258.177 55.6816 258.25 55.4717 258.397 55.3301C258.548 55.1836 258.763 55.1104 259.042 55.1104C259.354 55.1104 259.574 55.1934 259.701 55.3594C259.828 55.5205 259.891 55.7598 259.891 56.0771C259.876 56.2578 259.823 56.4067 259.73 56.5239C259.559 56.9097 259.308 57.3271 258.976 57.7764C258.644 58.2256 258.395 58.5039 258.229 58.6113ZM258.177 51.2871C258.177 51.0137 258.25 50.8062 258.397 50.6646C258.548 50.5229 258.763 50.4521 259.042 50.4521C259.608 50.4521 259.891 50.7305 259.891 51.2871C259.891 51.8633 259.608 52.1514 259.042 52.1514C258.465 52.1514 258.177 51.8633 258.177 51.2871ZM126.224 131.96C126.224 131.682 126.297 131.472 126.444 131.33C126.595 131.184 126.81 131.11 127.088 131.11C127.655 131.11 127.938 131.394 127.938 131.96C127.938 132.526 127.655 132.81 127.088 132.81C126.512 132.81 126.224 132.526 126.224 131.96ZM126.224 127.287C126.224 127.014 126.297 126.806 126.444 126.665C126.595 126.523 126.81 126.452 127.088 126.452C127.655 126.452 127.938 126.73 127.938 127.287C127.938 127.863 127.655 128.151 127.088 128.151C126.512 128.151 126.224 127.863 126.224 127.287ZM140.587 123.237L141.795 123.31V126.489C142.015 126.245 142.311 126.052 142.682 125.91C143.053 125.764 143.429 125.69 143.81 125.69C144.259 125.69 144.654 125.793 144.996 125.998C145.343 126.203 145.616 126.481 145.816 126.833C146.021 127.18 146.173 127.561 146.271 127.976C146.373 128.391 146.424 128.828 146.424 129.287V132.114C146.424 132.48 146.461 132.775 146.534 133H145.15V129.038C145.15 128.422 144.981 127.91 144.645 127.5C144.312 127.089 143.863 126.884 143.297 126.884C142.662 126.884 142.162 127.211 141.795 127.866V133H140.587V123.237ZM152.232 128.84C153.15 129.016 153.807 129.26 154.203 129.572C154.598 129.885 154.796 130.314 154.796 130.861C154.796 131.54 154.535 132.097 154.012 132.531C153.49 132.961 152.801 133.176 151.947 133.176C150.672 133.176 149.664 132.658 148.922 131.623L149.72 130.788C150.448 131.652 151.192 132.084 151.954 132.084C152.408 132.084 152.804 131.965 153.141 131.726C153.478 131.486 153.646 131.203 153.646 130.876C153.646 130.671 153.541 130.51 153.331 130.393C153.121 130.271 152.743 130.156 152.196 130.048C151.141 129.838 150.382 129.56 149.918 129.213C149.459 128.862 149.229 128.403 149.229 127.836C149.229 127.192 149.483 126.674 149.991 126.284C150.504 125.888 151.18 125.69 152.02 125.69C152.616 125.69 153.148 125.795 153.617 126.005C154.085 126.215 154.457 126.518 154.73 126.914L153.968 127.69C153.666 127.368 153.37 127.138 153.082 127.001C152.799 126.865 152.469 126.796 152.093 126.796C151.6 126.796 151.19 126.889 150.863 127.075C150.541 127.26 150.379 127.495 150.379 127.778C150.379 128.037 150.531 128.249 150.833 128.415C151.136 128.581 151.603 128.723 152.232 128.84ZM162.867 133H157.367V131.975H159.476V124.335L158.055 124.248V123.31H160.692V131.975H162.75V132.114C162.75 132.465 162.789 132.761 162.867 133ZM167.884 129.316C167.884 130.371 168.06 131.308 168.412 132.128C168.768 132.944 169.376 133.811 170.235 134.729L169.488 135.49C168.434 134.504 167.669 133.522 167.196 132.546C166.722 131.569 166.485 130.493 166.485 129.316C166.485 128.149 166.72 127.089 167.188 126.137C167.662 125.18 168.429 124.206 169.488 123.215L170.235 123.977C169.371 124.899 168.763 125.759 168.412 126.555C168.06 127.351 167.884 128.271 167.884 129.316ZM175.882 133L173.363 125.874H174.645L176.483 131.037L178.482 125.874H179.757L177.047 133H175.882ZM184.408 133.161C183.636 133.161 182.989 132.98 182.467 132.619C181.944 132.258 181.683 131.755 181.683 131.11C181.683 130.388 182.035 129.841 182.738 129.47C183.446 129.099 184.491 128.913 185.873 128.913C185.956 128.913 186.078 128.916 186.239 128.92C186.405 128.925 186.527 128.928 186.605 128.928C186.571 128.298 186.371 127.785 186.004 127.39C185.643 126.989 185.182 126.789 184.62 126.789C183.951 126.789 183.255 127.133 182.533 127.822L181.808 126.936C182.179 126.535 182.604 126.228 183.082 126.013C183.561 125.798 184.061 125.69 184.583 125.69C185.526 125.69 186.3 126.008 186.905 126.643C187.516 127.277 187.821 128.083 187.821 129.06V132.912L187.755 132.854V133H186.253C186.4 132.79 186.5 132.585 186.554 132.385C186.075 132.902 185.36 133.161 184.408 133.161ZM182.921 131.11C182.921 131.428 183.055 131.677 183.324 131.857C183.592 132.038 183.932 132.128 184.342 132.128C184.762 132.128 185.177 132.033 185.587 131.843C186.002 131.652 186.341 131.379 186.605 131.022V129.997H185.917C184.876 129.997 184.117 130.085 183.639 130.261C183.16 130.432 182.921 130.715 182.921 131.11ZM195.401 133H189.901V131.975H192.069V126.899L190.641 126.811V125.874H193.438C193.331 126.044 193.265 126.225 193.241 126.416C193.646 125.932 194.305 125.69 195.218 125.69C195.541 125.69 196.026 125.81 196.676 126.049L195.914 127.229C195.528 127.019 195.172 126.914 194.845 126.914C194.459 126.914 194.115 127.023 193.812 127.243C193.509 127.458 193.319 127.739 193.241 128.085V131.975H195.292V132.114C195.292 132.48 195.328 132.775 195.401 133ZM200.873 129.316C200.873 130.371 201.048 131.308 201.4 132.128C201.756 132.944 202.364 133.811 203.224 134.729L202.477 135.49C201.422 134.504 200.658 133.522 200.184 132.546C199.71 131.569 199.474 130.493 199.474 129.316C199.474 128.149 199.708 127.089 200.177 126.137C200.65 125.18 201.417 124.206 202.477 123.215L203.224 123.977C202.359 124.899 201.751 125.759 201.4 126.555C201.048 127.351 200.873 128.271 200.873 129.316ZM212.049 128.649V129.814H207.083V128.649H212.049ZM220.296 128.649V129.814H215.331V128.649H220.296ZM46.3828 149.634L47.7671 149.825C47.6157 150.547 47.2544 151.119 46.6831 151.539C46.1118 151.954 45.4038 152.161 44.5591 152.161C43.5483 152.161 42.7646 151.854 42.208 151.238C41.6562 150.618 41.3804 149.734 41.3804 148.587C41.3804 147.84 41.4927 147.178 41.7173 146.602C41.9468 146.026 42.3032 145.564 42.7866 145.218C43.27 144.866 43.8511 144.69 44.5298 144.69C45.2573 144.69 45.9092 144.878 46.4854 145.254C47.0615 145.63 47.4473 146.124 47.6426 146.734L46.3169 147.122C46.1997 146.717 45.98 146.399 45.6577 146.17C45.3403 145.94 44.9741 145.826 44.5591 145.826C43.9438 145.826 43.4824 146.072 43.1748 146.565C42.8721 147.059 42.7207 147.757 42.7207 148.66C42.7207 149.437 42.8818 150.027 43.2041 150.433C43.5264 150.838 44.0024 151.041 44.6323 151.041C45.106 151.041 45.4966 150.921 45.8042 150.682C46.1118 150.438 46.3047 150.088 46.3828 149.634ZM55.2451 151.18C54.6445 151.844 53.8462 152.176 52.8501 152.176C51.854 152.176 51.0581 151.844 50.4624 151.18C49.8716 150.511 49.5762 149.605 49.5762 148.462C49.5762 147.325 49.8691 146.412 50.4551 145.723C51.041 145.035 51.832 144.69 52.8281 144.69C53.834 144.69 54.6396 145.037 55.2451 145.73C55.8506 146.424 56.1533 147.339 56.1533 148.477C56.1533 149.61 55.8506 150.511 55.2451 151.18ZM52.894 151.128C53.4897 151.128 53.9561 150.899 54.293 150.44C54.6348 149.976 54.8057 149.322 54.8057 148.477C54.8057 147.618 54.6323 146.944 54.2856 146.456C53.9438 145.962 53.4702 145.716 52.8647 145.716C52.2593 145.716 51.7856 145.96 51.4438 146.448C51.1021 146.932 50.9312 147.598 50.9312 148.448C50.9312 149.297 51.1045 149.957 51.4512 150.425C51.7979 150.894 52.2788 151.128 52.894 151.128ZM63.9023 152H58.4019V150.975H60.5112V143.335L59.0903 143.248V142.31H61.7271V150.975H63.7852V151.114C63.7852 151.465 63.8242 151.761 63.9023 152ZM71.7393 151.18C71.1387 151.844 70.3403 152.176 69.3442 152.176C68.3481 152.176 67.5522 151.844 66.9565 151.18C66.3657 150.511 66.0703 149.605 66.0703 148.462C66.0703 147.325 66.3633 146.412 66.9492 145.723C67.5352 145.035 68.3262 144.69 69.3223 144.69C70.3281 144.69 71.1338 145.037 71.7393 145.73C72.3447 146.424 72.6475 147.339 72.6475 148.477C72.6475 149.61 72.3447 150.511 71.7393 151.18ZM69.3882 151.128C69.9839 151.128 70.4502 150.899 70.7871 150.44C71.1289 149.976 71.2998 149.322 71.2998 148.477C71.2998 147.618 71.1265 146.944 70.7798 146.456C70.438 145.962 69.9644 145.716 69.3589 145.716C68.7534 145.716 68.2798 145.96 67.938 146.448C67.5962 146.932 67.4253 147.598 67.4253 148.448C67.4253 149.297 67.5986 149.957 67.9453 150.425C68.292 150.894 68.7729 151.128 69.3882 151.128ZM79.9424 152H74.4419V150.975H76.6099V145.899L75.1816 145.811V144.874H77.9795C77.8721 145.044 77.8062 145.225 77.7817 145.416C78.187 144.932 78.8462 144.69 79.7593 144.69C80.0815 144.69 80.5674 144.81 81.2168 145.049L80.4551 146.229C80.0693 146.019 79.7129 145.914 79.3857 145.914C79 145.914 78.6558 146.023 78.353 146.243C78.0503 146.458 77.8599 146.739 77.7817 147.085V150.975H79.8325V151.114C79.8325 151.48 79.8691 151.775 79.9424 152ZM88.3433 147.649V148.814H83.3774V147.649H88.3433ZM91.4414 145.013L91.3022 143.812C91.8491 143.704 92.3276 143.519 92.7378 143.255C93.1528 142.991 93.4702 142.657 93.6899 142.251H94.8618V150.975H96.9492V151.099C96.9492 151.46 96.9883 151.761 97.0664 152H91.5293V150.975H93.6533V144.163C93.1943 144.617 92.457 144.9 91.4414 145.013ZM102.787 148.316C102.787 147.271 102.611 146.351 102.259 145.555C101.908 144.759 101.3 143.899 100.436 142.977L101.183 142.215C102.242 143.206 103.006 144.18 103.475 145.137C103.949 146.089 104.186 147.149 104.186 148.316C104.186 149.493 103.949 150.569 103.475 151.546C103.001 152.522 102.237 153.504 101.183 154.49L100.436 153.729C101.295 152.811 101.9 151.944 102.252 151.128C102.608 150.308 102.787 149.371 102.787 148.316ZM121.229 141.46L122.13 142.024L116.468 153.714L115.567 153.15L121.229 141.46ZM131.937 147.122C131.937 146.15 132.081 145.279 132.369 144.507C132.662 143.736 133.065 143.135 133.578 142.706C134.095 142.276 134.676 142.061 135.321 142.061C135.965 142.061 136.546 142.278 137.064 142.713C137.586 143.147 137.994 143.753 138.287 144.529C138.585 145.301 138.734 146.17 138.734 147.137C138.734 148.094 138.587 148.958 138.294 149.729C138.006 150.496 137.601 151.099 137.079 151.539C136.556 151.973 135.97 152.19 135.321 152.19C134.671 152.19 134.088 151.973 133.57 151.539C133.058 151.099 132.657 150.494 132.369 149.722C132.081 148.951 131.937 148.084 131.937 147.122ZM133.578 149.385L136.603 143.79C136.251 143.272 135.829 143.013 135.335 143.013C134.735 143.013 134.242 143.399 133.856 144.17C133.47 144.942 133.277 145.965 133.277 147.239C133.277 148.04 133.377 148.755 133.578 149.385ZM134.164 150.484C134.496 150.884 134.881 151.084 135.321 151.084C135.936 151.084 136.437 150.728 136.822 150.015C137.208 149.302 137.401 148.377 137.401 147.239C137.401 146.404 137.308 145.65 137.123 144.976L134.164 150.484ZM142.718 151.326C142.718 151.053 142.794 150.843 142.945 150.696C143.097 150.55 143.309 150.477 143.583 150.477C143.856 150.477 144.066 150.55 144.212 150.696C144.359 150.843 144.432 151.053 144.432 151.326C144.432 151.609 144.359 151.824 144.212 151.971C144.066 152.117 143.856 152.19 143.583 152.19C143.006 152.19 142.718 151.902 142.718 151.326ZM150.006 147.239H148.922L149.332 142.251H154.305V143.284H150.453L150.218 145.936C150.55 145.594 151.056 145.423 151.734 145.423C152.638 145.423 153.365 145.723 153.917 146.324C154.469 146.919 154.745 147.703 154.745 148.675C154.745 149.686 154.454 150.525 153.873 151.194C153.297 151.858 152.567 152.19 151.683 152.19C150.721 152.19 149.771 151.727 148.834 150.799L149.647 150C150.243 150.674 150.899 151.011 151.617 151.011C152.232 151.011 152.706 150.809 153.038 150.403C153.375 149.998 153.543 149.434 153.543 148.711C153.543 147.999 153.375 147.457 153.038 147.085C152.706 146.709 152.228 146.521 151.603 146.521C151.236 146.521 150.912 146.587 150.628 146.719C150.345 146.846 150.138 147.02 150.006 147.239ZM160.516 148.316C160.516 147.271 160.34 146.351 159.989 145.555C159.637 144.759 159.029 143.899 158.165 142.977L158.912 142.215C159.972 143.206 160.736 144.18 161.205 145.137C161.678 146.089 161.915 147.149 161.915 148.316C161.915 149.493 161.678 150.569 161.205 151.546C160.731 152.522 159.967 153.504 158.912 154.49L158.165 153.729C159.024 152.811 159.63 151.944 159.981 151.128C160.338 150.308 160.516 149.371 160.516 148.316ZM167.511 153.611L166.8 153.252C166.869 153.15 166.991 152.913 167.167 152.542C167.342 152.176 167.491 151.832 167.613 151.509C167.511 151.373 167.459 151.189 167.459 150.96C167.459 150.682 167.533 150.472 167.679 150.33C167.831 150.184 168.045 150.11 168.324 150.11C168.636 150.11 168.856 150.193 168.983 150.359C169.11 150.521 169.173 150.76 169.173 151.077C169.159 151.258 169.105 151.407 169.012 151.524C168.841 151.91 168.59 152.327 168.258 152.776C167.926 153.226 167.677 153.504 167.511 153.611ZM167.459 146.287C167.459 146.014 167.533 145.806 167.679 145.665C167.831 145.523 168.045 145.452 168.324 145.452C168.89 145.452 169.173 145.73 169.173 146.287C169.173 146.863 168.89 147.151 168.324 147.151C167.748 147.151 167.459 146.863 167.459 146.287Z" fill="#D8DFE5"/>
<path d="M75.5552 34.9238V33.7739C75.8286 33.7739 76.0654 33.7495 76.2656 33.7007C76.4707 33.647 76.6294 33.5835 76.7417 33.5103C76.854 33.4321 76.9419 33.3369 77.0054 33.2246C77.0737 33.1123 77.1152 33.0073 77.1299 32.9097C77.1494 32.8071 77.1592 32.6924 77.1592 32.5654C77.1592 32.2236 77.0713 31.7891 76.8955 31.2617C76.7344 30.7979 76.6538 30.4243 76.6538 30.1411C76.6538 29.5112 76.8857 29.0376 77.3496 28.7202C77.8135 28.3979 78.4116 28.2368 79.144 28.2368C79.3247 28.2368 79.4907 28.2417 79.6421 28.2515V29.2476C79.4565 29.2183 79.2661 29.2036 79.0708 29.2036C78.314 29.2036 77.9355 29.4941 77.9355 30.0752C77.9355 30.3145 78.0063 30.6636 78.1479 31.1226C78.3188 31.6792 78.4043 32.1675 78.4043 32.5874C78.4043 33.52 78.0674 34.0986 77.3936 34.3232C77.6328 34.416 77.8306 34.5625 77.9868 34.7627C78.1431 34.9629 78.2505 35.1826 78.3091 35.4219C78.3726 35.6562 78.4043 35.9126 78.4043 36.1909C78.4043 36.606 78.3091 37.0894 78.1187 37.6411C77.9966 37.9731 77.9355 38.2686 77.9355 38.5273C77.9355 38.8691 78.0454 39.1182 78.2651 39.2744C78.4849 39.4355 78.7729 39.5161 79.1294 39.5161C79.1392 39.5161 79.3101 39.499 79.6421 39.4648V40.439C79.5005 40.4536 79.3467 40.4609 79.1807 40.4609C78.4336 40.4609 77.8257 40.2876 77.3569 39.9409C76.8882 39.5942 76.6538 39.0815 76.6538 38.4028C76.6538 38.1001 76.7344 37.7412 76.8955 37.3262C77.0713 36.9014 77.1592 36.5132 77.1592 36.1616C77.1592 36.0347 77.1494 35.9224 77.1299 35.8247C77.1152 35.7271 77.0737 35.6196 77.0054 35.5024C76.9419 35.3804 76.854 35.2803 76.7417 35.2021C76.6343 35.124 76.478 35.0581 76.2729 35.0044C76.0728 34.9507 75.8335 34.9238 75.5552 34.9238ZM26.0874 67.2476V66.2515C26.2388 66.2417 26.4048 66.2368 26.5854 66.2368C27.3179 66.2368 27.916 66.3979 28.3799 66.7202C28.8438 67.0376 29.0757 67.5112 29.0757 68.1411C29.0757 68.4243 28.9951 68.7979 28.834 69.2617C28.6631 69.7744 28.5776 70.209 28.5776 70.5654C28.5776 70.7266 28.5947 70.8682 28.6289 70.9902C28.6631 71.1123 28.7314 71.2393 28.834 71.3711C28.9365 71.498 29.1001 71.5981 29.3247 71.6714C29.5493 71.7397 29.8325 71.7739 30.1743 71.7739V72.9238C29.896 72.9238 29.6543 72.9507 29.4492 73.0044C29.249 73.0581 29.0928 73.124 28.9805 73.2021C28.873 73.2803 28.7876 73.3804 28.7241 73.5024C28.6606 73.6196 28.6191 73.7271 28.5996 73.8247C28.585 73.9224 28.5776 74.0347 28.5776 74.1616C28.5776 74.5278 28.6631 74.916 28.834 75.3262C28.9951 75.7412 29.0757 76.1001 29.0757 76.4028C29.0757 77.0815 28.8413 77.5942 28.3726 77.9409C27.9038 78.2876 27.2959 78.4609 26.5488 78.4609C26.3828 78.4609 26.229 78.4536 26.0874 78.439V77.4648C26.4194 77.499 26.5903 77.5161 26.6001 77.5161C26.9565 77.5161 27.2471 77.4355 27.4717 77.2744C27.7012 77.1182 27.8159 76.8691 27.8159 76.5273C27.8159 76.3076 27.7476 76.0122 27.6108 75.6411C27.4204 75.0894 27.3252 74.606 27.3252 74.1909C27.3252 73.9126 27.3545 73.6562 27.4131 73.4219C27.4766 73.1826 27.5864 72.9629 27.7427 72.7627C27.8989 72.5625 28.0967 72.416 28.3359 72.3232C27.6621 72.0986 27.3252 71.52 27.3252 70.5874C27.3252 70.187 27.4131 69.6987 27.5889 69.1226C27.7402 68.6343 27.8159 68.2852 27.8159 68.0752C27.8159 67.4941 27.4326 67.2036 26.666 67.2036C26.4658 67.2036 26.2729 67.2183 26.0874 67.2476ZM166.273 110.924V109.774C166.546 109.774 166.783 109.75 166.983 109.701C167.188 109.647 167.347 109.583 167.459 109.51C167.572 109.432 167.66 109.337 167.723 109.225C167.792 109.112 167.833 109.007 167.848 108.91C167.867 108.807 167.877 108.692 167.877 108.565C167.877 108.224 167.789 107.789 167.613 107.262C167.452 106.798 167.372 106.424 167.372 106.141C167.372 105.511 167.604 105.038 168.067 104.72C168.531 104.398 169.129 104.237 169.862 104.237C170.042 104.237 170.208 104.242 170.36 104.251V105.248C170.174 105.218 169.984 105.204 169.789 105.204C169.032 105.204 168.653 105.494 168.653 106.075C168.653 106.314 168.724 106.664 168.866 107.123C169.037 107.679 169.122 108.167 169.122 108.587C169.122 109.52 168.785 110.099 168.111 110.323C168.351 110.416 168.548 110.562 168.705 110.763C168.861 110.963 168.968 111.183 169.027 111.422C169.09 111.656 169.122 111.913 169.122 112.191C169.122 112.606 169.027 113.089 168.836 113.641C168.714 113.973 168.653 114.269 168.653 114.527C168.653 114.869 168.763 115.118 168.983 115.274C169.203 115.436 169.491 115.516 169.847 115.516C169.857 115.516 170.028 115.499 170.36 115.465V116.439C170.218 116.454 170.064 116.461 169.898 116.461C169.151 116.461 168.543 116.288 168.075 115.941C167.606 115.594 167.372 115.082 167.372 114.403C167.372 114.1 167.452 113.741 167.613 113.326C167.789 112.901 167.877 112.513 167.877 112.162C167.877 112.035 167.867 111.922 167.848 111.825C167.833 111.727 167.792 111.62 167.723 111.502C167.66 111.38 167.572 111.28 167.459 111.202C167.352 111.124 167.196 111.058 166.991 111.004C166.791 110.951 166.551 110.924 166.273 110.924ZM26.0874 162.248V161.251C26.2388 161.242 26.4048 161.237 26.5854 161.237C27.3179 161.237 27.916 161.398 28.3799 161.72C28.8438 162.038 29.0757 162.511 29.0757 163.141C29.0757 163.424 28.9951 163.798 28.834 164.262C28.6631 164.774 28.5776 165.209 28.5776 165.565C28.5776 165.727 28.5947 165.868 28.6289 165.99C28.6631 166.112 28.7314 166.239 28.834 166.371C28.9365 166.498 29.1001 166.598 29.3247 166.671C29.5493 166.74 29.8325 166.774 30.1743 166.774V167.924C29.896 167.924 29.6543 167.951 29.4492 168.004C29.249 168.058 29.0928 168.124 28.9805 168.202C28.873 168.28 28.7876 168.38 28.7241 168.502C28.6606 168.62 28.6191 168.727 28.5996 168.825C28.585 168.922 28.5776 169.035 28.5776 169.162C28.5776 169.528 28.6631 169.916 28.834 170.326C28.9951 170.741 29.0757 171.1 29.0757 171.403C29.0757 172.082 28.8413 172.594 28.3726 172.941C27.9038 173.288 27.2959 173.461 26.5488 173.461C26.3828 173.461 26.229 173.454 26.0874 173.439V172.465C26.4194 172.499 26.5903 172.516 26.6001 172.516C26.9565 172.516 27.2471 172.436 27.4717 172.274C27.7012 172.118 27.8159 171.869 27.8159 171.527C27.8159 171.308 27.7476 171.012 27.6108 170.641C27.4204 170.089 27.3252 169.606 27.3252 169.191C27.3252 168.913 27.3545 168.656 27.4131 168.422C27.4766 168.183 27.5864 167.963 27.7427 167.763C27.8989 167.562 28.0967 167.416 28.3359 167.323C27.6621 167.099 27.3252 166.52 27.3252 165.587C27.3252 165.187 27.4131 164.699 27.5889 164.123C27.7402 163.634 27.8159 163.285 27.8159 163.075C27.8159 162.494 27.4326 162.204 26.666 162.204C26.4658 162.204 26.2729 162.218 26.0874 162.248Z" fill="#FEB173"/>
<path d="M41.5562 47.2368L42.772 47.3247V50.562C43.27 49.981 43.9536 49.6904 44.8228 49.6904C45.7993 49.6904 46.561 50.0029 47.1079 50.6279C47.6548 51.248 47.9282 52.1221 47.9282 53.25C47.9282 54.4316 47.6279 55.3813 47.0273 56.0991C46.4316 56.8169 45.6455 57.1758 44.6689 57.1758C44.0293 57.1758 43.4556 57.0122 42.9478 56.6851C43.0112 56.8413 43.0674 56.9463 43.1162 57H41.5562V47.2368ZM42.772 52.0635V55.0518C43.0894 55.6914 43.7144 56.0112 44.647 56.0112C45.2524 56.0112 45.7505 55.7549 46.1411 55.2422C46.5366 54.7246 46.7344 54.0654 46.7344 53.2646C46.7344 52.5078 46.5562 51.9048 46.1997 51.4556C45.8433 51.0015 45.3672 50.7744 44.7715 50.7744C44.3613 50.7744 43.9805 50.8867 43.6289 51.1113C43.2822 51.3359 42.9966 51.6533 42.772 52.0635ZM52.4546 57.1611C51.6831 57.1611 51.0361 56.9805 50.5137 56.6191C49.9912 56.2578 49.73 55.7549 49.73 55.1104C49.73 54.3877 50.0815 53.8408 50.7847 53.4697C51.4927 53.0986 52.5376 52.9131 53.9194 52.9131C54.0024 52.9131 54.1245 52.9155 54.2856 52.9204C54.4517 52.9253 54.5737 52.9277 54.6519 52.9277C54.6177 52.2979 54.4175 51.7852 54.0513 51.3896C53.6899 50.9893 53.2285 50.7891 52.667 50.7891C51.998 50.7891 51.3022 51.1333 50.5796 51.8218L49.8545 50.9355C50.2256 50.5352 50.6504 50.2275 51.1289 50.0127C51.6074 49.7979 52.1079 49.6904 52.6304 49.6904C53.5728 49.6904 54.3467 50.0078 54.9521 50.6426C55.5625 51.2773 55.8677 52.083 55.8677 53.0596V56.9121L55.8018 56.8535V57H54.3003C54.4468 56.79 54.5469 56.585 54.6006 56.3848C54.1221 56.9023 53.4067 57.1611 52.4546 57.1611ZM50.9678 55.1104C50.9678 55.4277 51.1021 55.6768 51.3706 55.8574C51.6392 56.0381 51.9785 56.1284 52.3887 56.1284C52.8086 56.1284 53.2236 56.0332 53.6338 55.8428C54.0488 55.6523 54.3882 55.3789 54.6519 55.0225V53.9971H53.9634C52.9233 53.9971 52.1641 54.085 51.6855 54.2607C51.207 54.4316 50.9678 54.7148 50.9678 55.1104ZM62.877 54.6343L64.2612 54.8247C64.1099 55.5474 63.7485 56.1187 63.1772 56.5386C62.606 56.9536 61.8979 57.1611 61.0532 57.1611C60.0425 57.1611 59.2588 56.8535 58.7021 56.2383C58.1504 55.6182 57.8745 54.7344 57.8745 53.5869C57.8745 52.8398 57.9868 52.1782 58.2114 51.6021C58.4409 51.0259 58.7974 50.5645 59.2808 50.2178C59.7642 49.8662 60.3452 49.6904 61.0239 49.6904C61.7515 49.6904 62.4033 49.8784 62.9795 50.2544C63.5557 50.6304 63.9414 51.1235 64.1367 51.7339L62.811 52.1221C62.6938 51.7168 62.4741 51.3994 62.1519 51.1699C61.8345 50.9404 61.4683 50.8257 61.0532 50.8257C60.438 50.8257 59.9766 51.0723 59.6689 51.5654C59.3662 52.0586 59.2148 52.7568 59.2148 53.6602C59.2148 54.4365 59.376 55.0273 59.6982 55.4326C60.0205 55.8379 60.4966 56.0405 61.1265 56.0405C61.6001 56.0405 61.9907 55.9209 62.2983 55.6816C62.606 55.4375 62.7988 55.0884 62.877 54.6343ZM66.6343 47.2368L67.8501 47.3101V52.5908L70.9482 49.8735H72.6621L69.0586 53.1255L73.0503 57H71.1826L68.1138 53.9897L67.8501 54.2241V57H66.6343V47.2368ZM74.2588 52.9131C74.2588 51.9268 74.5298 51.1431 75.0718 50.562C75.6187 49.981 76.3682 49.6904 77.3203 49.6904C78.2041 49.6904 78.895 49.9639 79.3931 50.5107V49.8735H80.7188C80.6455 50.0981 80.6089 50.3936 80.6089 50.7598V56.8242C80.6089 57.542 80.3354 58.1157 79.7886 58.5454C79.2417 58.9751 78.5142 59.1899 77.606 59.1899C76.9565 59.1899 76.3413 59.0776 75.7603 58.853C75.1841 58.6333 74.7593 58.3452 74.4858 57.9888L75.2183 57.1025C75.7944 57.7568 76.6025 58.084 77.6426 58.084C78.8096 58.084 79.3931 57.6641 79.3931 56.8242V55.6523C78.7437 56.1016 78.0454 56.3262 77.2983 56.3262C76.3901 56.3262 75.6553 56.0112 75.0938 55.3813C74.5371 54.7466 74.2588 53.9238 74.2588 52.9131ZM77.3936 50.7378C76.8174 50.7378 76.3462 50.9478 75.98 51.3677C75.6138 51.7876 75.4307 52.3076 75.4307 52.9277C75.4307 53.5674 75.6187 54.1021 75.9946 54.5317C76.3755 54.9614 76.8662 55.1763 77.4668 55.1763C77.8574 55.1763 78.2261 55.0835 78.5728 54.8979C78.9194 54.7075 79.1929 54.4487 79.3931 54.1216V51.9976C79.1733 51.5923 78.8877 51.2822 78.5361 51.0674C78.1846 50.8477 77.8037 50.7378 77.3936 50.7378ZM88.1895 57H82.689V55.9746H84.8569V50.8989L83.4287 50.811V49.8735H86.2266C86.1191 50.0444 86.0532 50.2251 86.0288 50.4155C86.4341 49.9321 87.0933 49.6904 88.0063 49.6904C88.3286 49.6904 88.8145 49.8101 89.4639 50.0493L88.7021 51.2285C88.3164 51.0186 87.96 50.9136 87.6328 50.9136C87.2471 50.9136 86.9028 51.0234 86.6001 51.2432C86.2974 51.458 86.1069 51.7388 86.0288 52.0854V55.9746H88.0796V56.1138C88.0796 56.48 88.1162 56.7754 88.1895 57ZM96.4805 56.1797C95.8799 56.8438 95.0815 57.1758 94.0854 57.1758C93.0894 57.1758 92.2935 56.8438 91.6978 56.1797C91.1069 55.5107 90.8115 54.605 90.8115 53.4624C90.8115 52.3247 91.1045 51.4116 91.6904 50.7231C92.2764 50.0347 93.0674 49.6904 94.0635 49.6904C95.0693 49.6904 95.875 50.0371 96.4805 50.7305C97.0859 51.4238 97.3887 52.3394 97.3887 53.4771C97.3887 54.6099 97.0859 55.5107 96.4805 56.1797ZM94.1294 56.1284C94.7251 56.1284 95.1914 55.8989 95.5283 55.4399C95.8701 54.9761 96.041 54.3218 96.041 53.4771C96.041 52.6177 95.8677 51.9438 95.521 51.4556C95.1792 50.9624 94.7056 50.7158 94.1001 50.7158C93.4946 50.7158 93.021 50.96 92.6792 51.4482C92.3374 51.9316 92.1665 52.5981 92.1665 53.4478C92.1665 54.2974 92.3398 54.9565 92.6865 55.4253C93.0332 55.894 93.5142 56.1284 94.1294 56.1284ZM99.2856 49.8589H100.56V53.9531C100.56 54.5293 100.733 55.0322 101.08 55.4619C101.427 55.8867 101.854 56.0991 102.362 56.0991C102.679 56.0991 102.953 56.0039 103.182 55.8135C103.417 55.623 103.668 55.3154 103.937 54.8906V49.8735H105.138V56.1138C105.138 56.48 105.174 56.7754 105.248 57H103.937V56.2383C103.717 56.5264 103.426 56.7559 103.065 56.9268C102.704 57.0928 102.335 57.1758 101.959 57.1758C101.451 57.1758 100.99 57.0171 100.575 56.6997C100.165 56.3823 99.8472 55.96 99.6226 55.4326C99.3979 54.9004 99.2856 54.3193 99.2856 53.6895V49.8589ZM108.932 57H107.73V49.8735H109.298C109.181 50.0444 109.088 50.2251 109.02 50.4155C109.249 50.1958 109.542 50.02 109.898 49.8882C110.26 49.7563 110.621 49.6904 110.982 49.6904C111.422 49.6904 111.81 49.793 112.147 49.998C112.489 50.2031 112.76 50.479 112.96 50.8257C113.165 51.1724 113.316 51.5557 113.414 51.9756C113.517 52.3906 113.568 52.8276 113.568 53.2866V56.1138C113.568 56.4653 113.607 56.7607 113.685 57H112.286V53.0376C112.286 52.4272 112.12 51.917 111.788 51.5068C111.461 51.0918 111.021 50.8843 110.47 50.8843C109.82 50.8843 109.308 51.2139 108.932 51.873V57ZM115.553 53.2354C115.553 52.1123 115.826 51.2407 116.373 50.6206C116.925 50.0005 117.689 49.6904 118.666 49.6904C119.535 49.6904 120.218 49.981 120.716 50.562V47.2368L121.932 47.3101V56.1138C121.932 56.4946 121.964 56.79 122.027 57H120.716V56.5605C120.174 56.9609 119.542 57.1611 118.819 57.1611C117.843 57.1611 117.054 56.8022 116.454 56.0845C115.853 55.3667 115.553 54.417 115.553 53.2354ZM118.717 50.7598C118.121 50.7598 117.645 50.9868 117.289 51.4409C116.932 51.8901 116.754 52.4932 116.754 53.25C116.754 54.0557 116.949 54.7173 117.34 55.2349C117.73 55.7524 118.231 56.0112 118.841 56.0112C119.774 56.0112 120.399 55.6914 120.716 55.0518V52.0635C120.492 51.6484 120.204 51.3286 119.852 51.104C119.5 50.8745 119.122 50.7598 118.717 50.7598ZM41.5562 123.237L42.772 123.325V126.562C43.27 125.981 43.9536 125.69 44.8228 125.69C45.7993 125.69 46.561 126.003 47.1079 126.628C47.6548 127.248 47.9282 128.122 47.9282 129.25C47.9282 130.432 47.6279 131.381 47.0273 132.099C46.4316 132.817 45.6455 133.176 44.6689 133.176C44.0293 133.176 43.4556 133.012 42.9478 132.685C43.0112 132.841 43.0674 132.946 43.1162 133H41.5562V123.237ZM42.772 128.063V131.052C43.0894 131.691 43.7144 132.011 44.647 132.011C45.2524 132.011 45.7505 131.755 46.1411 131.242C46.5366 130.725 46.7344 130.065 46.7344 129.265C46.7344 128.508 46.5562 127.905 46.1997 127.456C45.8433 127.001 45.3672 126.774 44.7715 126.774C44.3613 126.774 43.9805 126.887 43.6289 127.111C43.2822 127.336 42.9966 127.653 42.772 128.063ZM52.4546 133.161C51.6831 133.161 51.0361 132.98 50.5137 132.619C49.9912 132.258 49.73 131.755 49.73 131.11C49.73 130.388 50.0815 129.841 50.7847 129.47C51.4927 129.099 52.5376 128.913 53.9194 128.913C54.0024 128.913 54.1245 128.916 54.2856 128.92C54.4517 128.925 54.5737 128.928 54.6519 128.928C54.6177 128.298 54.4175 127.785 54.0513 127.39C53.6899 126.989 53.2285 126.789 52.667 126.789C51.998 126.789 51.3022 127.133 50.5796 127.822L49.8545 126.936C50.2256 126.535 50.6504 126.228 51.1289 126.013C51.6074 125.798 52.1079 125.69 52.6304 125.69C53.5728 125.69 54.3467 126.008 54.9521 126.643C55.5625 127.277 55.8677 128.083 55.8677 129.06V132.912L55.8018 132.854V133H54.3003C54.4468 132.79 54.5469 132.585 54.6006 132.385C54.1221 132.902 53.4067 133.161 52.4546 133.161ZM50.9678 131.11C50.9678 131.428 51.1021 131.677 51.3706 131.857C51.6392 132.038 51.9785 132.128 52.3887 132.128C52.8086 132.128 53.2236 132.033 53.6338 131.843C54.0488 131.652 54.3882 131.379 54.6519 131.022V129.997H53.9634C52.9233 129.997 52.1641 130.085 51.6855 130.261C51.207 130.432 50.9678 130.715 50.9678 131.11ZM62.877 130.634L64.2612 130.825C64.1099 131.547 63.7485 132.119 63.1772 132.539C62.606 132.954 61.8979 133.161 61.0532 133.161C60.0425 133.161 59.2588 132.854 58.7021 132.238C58.1504 131.618 57.8745 130.734 57.8745 129.587C57.8745 128.84 57.9868 128.178 58.2114 127.602C58.4409 127.026 58.7974 126.564 59.2808 126.218C59.7642 125.866 60.3452 125.69 61.0239 125.69C61.7515 125.69 62.4033 125.878 62.9795 126.254C63.5557 126.63 63.9414 127.124 64.1367 127.734L62.811 128.122C62.6938 127.717 62.4741 127.399 62.1519 127.17C61.8345 126.94 61.4683 126.826 61.0532 126.826C60.438 126.826 59.9766 127.072 59.6689 127.565C59.3662 128.059 59.2148 128.757 59.2148 129.66C59.2148 130.437 59.376 131.027 59.6982 131.433C60.0205 131.838 60.4966 132.041 61.1265 132.041C61.6001 132.041 61.9907 131.921 62.2983 131.682C62.606 131.438 62.7988 131.088 62.877 130.634ZM66.6343 123.237L67.8501 123.31V128.591L70.9482 125.874H72.6621L69.0586 129.125L73.0503 133H71.1826L68.1138 129.99L67.8501 130.224V133H66.6343V123.237ZM74.2588 128.913C74.2588 127.927 74.5298 127.143 75.0718 126.562C75.6187 125.981 76.3682 125.69 77.3203 125.69C78.2041 125.69 78.895 125.964 79.3931 126.511V125.874H80.7188C80.6455 126.098 80.6089 126.394 80.6089 126.76V132.824C80.6089 133.542 80.3354 134.116 79.7886 134.545C79.2417 134.975 78.5142 135.19 77.606 135.19C76.9565 135.19 76.3413 135.078 75.7603 134.853C75.1841 134.633 74.7593 134.345 74.4858 133.989L75.2183 133.103C75.7944 133.757 76.6025 134.084 77.6426 134.084C78.8096 134.084 79.3931 133.664 79.3931 132.824V131.652C78.7437 132.102 78.0454 132.326 77.2983 132.326C76.3901 132.326 75.6553 132.011 75.0938 131.381C74.5371 130.747 74.2588 129.924 74.2588 128.913ZM77.3936 126.738C76.8174 126.738 76.3462 126.948 75.98 127.368C75.6138 127.788 75.4307 128.308 75.4307 128.928C75.4307 129.567 75.6187 130.102 75.9946 130.532C76.3755 130.961 76.8662 131.176 77.4668 131.176C77.8574 131.176 78.2261 131.083 78.5728 130.898C78.9194 130.708 79.1929 130.449 79.3931 130.122V127.998C79.1733 127.592 78.8877 127.282 78.5361 127.067C78.1846 126.848 77.8037 126.738 77.3936 126.738ZM88.1895 133H82.689V131.975H84.8569V126.899L83.4287 126.811V125.874H86.2266C86.1191 126.044 86.0532 126.225 86.0288 126.416C86.4341 125.932 87.0933 125.69 88.0063 125.69C88.3286 125.69 88.8145 125.81 89.4639 126.049L88.7021 127.229C88.3164 127.019 87.96 126.914 87.6328 126.914C87.2471 126.914 86.9028 127.023 86.6001 127.243C86.2974 127.458 86.1069 127.739 86.0288 128.085V131.975H88.0796V132.114C88.0796 132.48 88.1162 132.775 88.1895 133ZM96.4805 132.18C95.8799 132.844 95.0815 133.176 94.0854 133.176C93.0894 133.176 92.2935 132.844 91.6978 132.18C91.1069 131.511 90.8115 130.605 90.8115 129.462C90.8115 128.325 91.1045 127.412 91.6904 126.723C92.2764 126.035 93.0674 125.69 94.0635 125.69C95.0693 125.69 95.875 126.037 96.4805 126.73C97.0859 127.424 97.3887 128.339 97.3887 129.477C97.3887 130.61 97.0859 131.511 96.4805 132.18ZM94.1294 132.128C94.7251 132.128 95.1914 131.899 95.5283 131.44C95.8701 130.976 96.041 130.322 96.041 129.477C96.041 128.618 95.8677 127.944 95.521 127.456C95.1792 126.962 94.7056 126.716 94.1001 126.716C93.4946 126.716 93.021 126.96 92.6792 127.448C92.3374 127.932 92.1665 128.598 92.1665 129.448C92.1665 130.297 92.3398 130.957 92.6865 131.425C93.0332 131.894 93.5142 132.128 94.1294 132.128ZM99.2856 125.859H100.56V129.953C100.56 130.529 100.733 131.032 101.08 131.462C101.427 131.887 101.854 132.099 102.362 132.099C102.679 132.099 102.953 132.004 103.182 131.813C103.417 131.623 103.668 131.315 103.937 130.891V125.874H105.138V132.114C105.138 132.48 105.174 132.775 105.248 133H103.937V132.238C103.717 132.526 103.426 132.756 103.065 132.927C102.704 133.093 102.335 133.176 101.959 133.176C101.451 133.176 100.99 133.017 100.575 132.7C100.165 132.382 99.8472 131.96 99.6226 131.433C99.3979 130.9 99.2856 130.319 99.2856 129.689V125.859ZM108.932 133H107.73V125.874H109.298C109.181 126.044 109.088 126.225 109.02 126.416C109.249 126.196 109.542 126.02 109.898 125.888C110.26 125.756 110.621 125.69 110.982 125.69C111.422 125.69 111.81 125.793 112.147 125.998C112.489 126.203 112.76 126.479 112.96 126.826C113.165 127.172 113.316 127.556 113.414 127.976C113.517 128.391 113.568 128.828 113.568 129.287V132.114C113.568 132.465 113.607 132.761 113.685 133H112.286V129.038C112.286 128.427 112.12 127.917 111.788 127.507C111.461 127.092 111.021 126.884 110.47 126.884C109.82 126.884 109.308 127.214 108.932 127.873V133ZM115.553 129.235C115.553 128.112 115.826 127.241 116.373 126.621C116.925 126 117.689 125.69 118.666 125.69C119.535 125.69 120.218 125.981 120.716 126.562V123.237L121.932 123.31V132.114C121.932 132.495 121.964 132.79 122.027 133H120.716V132.561C120.174 132.961 119.542 133.161 118.819 133.161C117.843 133.161 117.054 132.802 116.454 132.084C115.853 131.367 115.553 130.417 115.553 129.235ZM118.717 126.76C118.121 126.76 117.645 126.987 117.289 127.441C116.932 127.89 116.754 128.493 116.754 129.25C116.754 130.056 116.949 130.717 117.34 131.235C117.73 131.752 118.231 132.011 118.841 132.011C119.774 132.011 120.399 131.691 120.716 131.052V128.063C120.492 127.648 120.204 127.329 119.852 127.104C119.5 126.875 119.122 126.76 118.717 126.76Z" fill="#9ED9E9"/>
<rect x="0.5" y="0.5" width="299" height="199" rx="3.5" stroke="#4D5C6C"/>
</svg>
