<svg width="302" height="200" viewBox="0 0 302 200" fill="none" xmlns="http://www.w3.org/2000/svg">
<rect x="1" y="0.5" width="300" height="199" rx="3.5" fill="white"/>
<path d="M33.6186 31V20.8182H37.2479C38.04 20.8182 38.6963 20.9624 39.2166 21.2507C39.737 21.5391 40.1264 21.9335 40.3849 22.4339C40.6435 22.9311 40.7727 23.4912 40.7727 24.1143C40.7727 24.7408 40.6418 25.3042 40.38 25.8047C40.1214 26.3018 39.7304 26.6963 39.2067 26.9879C38.6863 27.2763 38.0317 27.4205 37.2429 27.4205H34.7472V26.1179H37.1037C37.6042 26.1179 38.0102 26.0317 38.3217 25.8594C38.6333 25.6837 38.862 25.4451 39.0078 25.1435C39.1536 24.8419 39.2266 24.4988 39.2266 24.1143C39.2266 23.7299 39.1536 23.3885 39.0078 23.0902C38.862 22.7919 38.6316 22.5582 38.3168 22.3892C38.0052 22.2202 37.5942 22.1357 37.0838 22.1357H35.1548V31H33.6186ZM44.6083 31.169C44.1244 31.169 43.6869 31.0795 43.2958 30.9006C42.9047 30.7183 42.5948 30.4548 42.3661 30.1101C42.1407 29.7654 42.0281 29.3428 42.0281 28.8423C42.0281 28.4115 42.1109 28.0568 42.2766 27.7784C42.4424 27.5 42.6661 27.2796 42.9478 27.1172C43.2295 26.9548 43.5444 26.8321 43.8924 26.7493C44.2404 26.6664 44.5951 26.6035 44.9563 26.5604C45.4137 26.5073 45.7849 26.4643 46.07 26.4311C46.355 26.3946 46.5621 26.3366 46.6914 26.2571C46.8207 26.1776 46.8853 26.0483 46.8853 25.8693V25.8345C46.8853 25.4003 46.7627 25.0639 46.5174 24.8253C46.2755 24.5866 45.9142 24.4673 45.4336 24.4673C44.9331 24.4673 44.5387 24.5784 44.2504 24.8004C43.9653 25.0192 43.7681 25.2628 43.6587 25.5312L42.2617 25.2131C42.4274 24.7491 42.6694 24.3745 42.9876 24.0895C43.3091 23.8011 43.6786 23.5923 44.0962 23.4631C44.5138 23.3305 44.953 23.2642 45.4137 23.2642C45.7186 23.2642 46.0418 23.3007 46.3832 23.3736C46.7279 23.4432 47.0494 23.5724 47.3477 23.7614C47.6493 23.9503 47.8962 24.2204 48.0884 24.5717C48.2807 24.9197 48.3768 25.3722 48.3768 25.929V31H46.9251V29.956H46.8654C46.7693 30.1482 46.6251 30.3371 46.4329 30.5227C46.2406 30.7083 45.9937 30.8625 45.6921 30.9851C45.3905 31.1077 45.0292 31.169 44.6083 31.169ZM44.9315 29.9759C45.3424 29.9759 45.6938 29.8946 45.9854 29.7322C46.2804 29.5698 46.5041 29.3577 46.6566 29.0959C46.8124 28.8307 46.8903 28.5473 46.8903 28.2457V27.2614C46.8372 27.3144 46.7345 27.3641 46.582 27.4105C46.4329 27.4536 46.2622 27.4917 46.07 27.5249C45.8777 27.5547 45.6905 27.5829 45.5082 27.6094C45.3259 27.6326 45.1734 27.6525 45.0508 27.669C44.7624 27.7055 44.4989 27.7668 44.2603 27.853C44.025 27.9392 43.8361 28.0634 43.6935 28.2259C43.5543 28.3849 43.4847 28.5971 43.4847 28.8622C43.4847 29.2301 43.6206 29.5085 43.8924 29.6974C44.1642 29.883 44.5105 29.9759 44.9315 29.9759ZM56.079 25.228L54.7317 25.4666C54.6754 25.2943 54.5859 25.1302 54.4632 24.9744C54.3439 24.8187 54.1815 24.6911 53.976 24.5916C53.7705 24.4922 53.5137 24.4425 53.2054 24.4425C52.7845 24.4425 52.4332 24.5369 52.1515 24.7259C51.8697 24.9115 51.7289 25.1518 51.7289 25.4467C51.7289 25.7019 51.8233 25.9074 52.0123 26.0632C52.2012 26.219 52.5061 26.3466 52.927 26.446L54.1401 26.7244C54.8427 26.8868 55.3664 27.1371 55.7111 27.4751C56.0558 27.8132 56.2282 28.2524 56.2282 28.7926C56.2282 29.25 56.0956 29.6577 55.8304 30.0156C55.5686 30.3703 55.2024 30.6487 54.7317 30.8509C54.2644 31.053 53.7225 31.1541 53.106 31.1541C52.2509 31.1541 51.5532 30.9718 51.013 30.6072C50.4727 30.2393 50.1413 29.7173 50.0186 29.0412L51.4554 28.8224C51.5449 29.197 51.7289 29.4804 52.0073 29.6726C52.2857 29.8615 52.6486 29.956 53.0961 29.956C53.5833 29.956 53.9727 29.8549 54.2644 29.6527C54.556 29.4472 54.7019 29.197 54.7019 28.902C54.7019 28.6634 54.6124 28.4628 54.4334 28.3004C54.2578 28.138 53.9876 28.0154 53.623 27.9325L52.3304 27.6491C51.6178 27.4867 51.0908 27.2282 50.7495 26.8736C50.4114 26.5189 50.2424 26.0698 50.2424 25.5263C50.2424 25.0755 50.3683 24.6811 50.6202 24.343C50.8721 24.005 51.2201 23.7415 51.6642 23.5526C52.1084 23.3603 52.6171 23.2642 53.1905 23.2642C54.0158 23.2642 54.6654 23.4432 55.1394 23.8011C55.6133 24.1558 55.9266 24.6314 56.079 25.228ZM61.4272 23.3636V24.5568H57.256V23.3636H61.4272ZM58.3746 21.5341H59.8612V28.7578C59.8612 29.0462 59.9042 29.2633 59.9904 29.4091C60.0766 29.5516 60.1876 29.6494 60.3235 29.7024C60.4627 29.7521 60.6135 29.777 60.7759 29.777C60.8952 29.777 60.9996 29.7687 61.0891 29.7521C61.1786 29.7356 61.2482 29.7223 61.2979 29.7124L61.5664 30.9403C61.4802 30.9735 61.3576 31.0066 61.1985 31.0398C61.0394 31.0762 60.8406 31.0961 60.6019 31.0994C60.2108 31.1061 59.8462 31.0365 59.5082 30.8906C59.1701 30.7448 58.8967 30.5194 58.6879 30.2145C58.479 29.9096 58.3746 29.5268 58.3746 29.0661V21.5341ZM66.2807 31.1541C65.5283 31.1541 64.8804 30.9934 64.3368 30.6719C63.7966 30.3471 63.379 29.8913 63.084 29.3047C62.7923 28.7147 62.6465 28.0237 62.6465 27.2315C62.6465 26.4493 62.7923 25.7599 63.084 25.1634C63.379 24.5668 63.79 24.1011 64.3169 23.7663C64.8472 23.4316 65.467 23.2642 66.1763 23.2642C66.6072 23.2642 67.0248 23.3355 67.4292 23.478C67.8335 23.6205 68.1964 23.8442 68.5179 24.1491C68.8394 24.4541 69.093 24.8501 69.2786 25.3374C69.4642 25.8213 69.557 26.4096 69.557 27.1023V27.6293H63.4867V26.5156H68.1003C68.1003 26.1245 68.0208 25.7782 67.8617 25.4766C67.7026 25.1716 67.4789 24.9313 67.1905 24.7557C66.9055 24.58 66.5707 24.4922 66.1863 24.4922C65.7686 24.4922 65.4041 24.5949 65.0925 24.8004C64.7843 25.0026 64.5456 25.2678 64.3766 25.5959C64.2109 25.9207 64.128 26.2737 64.128 26.6548V27.5249C64.128 28.0353 64.2175 28.4695 64.3965 28.8274C64.5788 29.1854 64.8323 29.4588 65.1571 29.6477C65.4819 29.8333 65.8614 29.9261 66.2956 29.9261C66.5774 29.9261 66.8342 29.8864 67.0662 29.8068C67.2982 29.724 67.4988 29.6013 67.6678 29.4389C67.8368 29.2765 67.9661 29.076 68.0556 28.8374L69.4625 29.0909C69.3498 29.5052 69.1477 29.8681 68.856 30.1797C68.5676 30.4879 68.2047 30.7282 67.7672 30.9006C67.333 31.0696 66.8375 31.1541 66.2807 31.1541ZM77.1337 31.169C76.6498 31.169 76.2123 31.0795 75.8212 30.9006C75.4301 30.7183 75.1202 30.4548 74.8915 30.1101C74.6661 29.7654 74.5534 29.3428 74.5534 28.8423C74.5534 28.4115 74.6363 28.0568 74.802 27.7784C74.9677 27.5 75.1915 27.2796 75.4732 27.1172C75.7549 26.9548 76.0698 26.8321 76.4178 26.7493C76.7658 26.6664 77.1204 26.6035 77.4817 26.5604C77.9391 26.5073 78.3103 26.4643 78.5953 26.4311C78.8804 26.3946 79.0875 26.3366 79.2168 26.2571C79.3461 26.1776 79.4107 26.0483 79.4107 25.8693V25.8345C79.4107 25.4003 79.2881 25.0639 79.0428 24.8253C78.8008 24.5866 78.4396 24.4673 77.959 24.4673C77.4585 24.4673 77.0641 24.5784 76.7757 24.8004C76.4907 25.0192 76.2935 25.2628 76.1841 25.5312L74.7871 25.2131C74.9528 24.7491 75.1948 24.3745 75.513 24.0895C75.8345 23.8011 76.204 23.5923 76.6216 23.4631C77.0392 23.3305 77.4784 23.2642 77.9391 23.2642C78.244 23.2642 78.5672 23.3007 78.9086 23.3736C79.2533 23.4432 79.5748 23.5724 79.873 23.7614C80.1747 23.9503 80.4216 24.2204 80.6138 24.5717C80.806 24.9197 80.9022 25.3722 80.9022 25.929V31H79.4505V29.956H79.3908C79.2947 30.1482 79.1505 30.3371 78.9583 30.5227C78.766 30.7083 78.5191 30.8625 78.2175 30.9851C77.9159 31.1077 77.5546 31.169 77.1337 31.169ZM77.4569 29.9759C77.8678 29.9759 78.2192 29.8946 78.5108 29.7322C78.8058 29.5698 79.0295 29.3577 79.182 29.0959C79.3378 28.8307 79.4157 28.5473 79.4157 28.2457V27.2614C79.3626 27.3144 79.2599 27.3641 79.1074 27.4105C78.9583 27.4536 78.7876 27.4917 78.5953 27.5249C78.4031 27.5547 78.2159 27.5829 78.0336 27.6094C77.8513 27.6326 77.6988 27.6525 77.5762 27.669C77.2878 27.7055 77.0243 27.7668 76.7857 27.853C76.5504 27.9392 76.3614 28.0634 76.2189 28.2259C76.0797 28.3849 76.0101 28.5971 76.0101 28.8622C76.0101 29.2301 76.146 29.5085 76.4178 29.6974C76.6896 29.883 77.0359 29.9759 77.4569 29.9759ZM88.0737 20.8182V31H86.5872V20.8182H88.0737ZM90.0735 31V23.3636H91.56V31H90.0735ZM90.8242 22.1854C90.5657 22.1854 90.3436 22.0992 90.158 21.9268C89.9757 21.7512 89.8846 21.5424 89.8846 21.3004C89.8846 21.0552 89.9757 20.8464 90.158 20.674C90.3436 20.4983 90.5657 20.4105 90.8242 20.4105C91.0827 20.4105 91.3031 20.4983 91.4854 20.674C91.671 20.8464 91.7638 21.0552 91.7638 21.3004C91.7638 21.5424 91.671 21.7512 91.4854 21.9268C91.3031 22.0992 91.0827 22.1854 90.8242 22.1854ZM95.0463 26.4659V31H93.5598V23.3636H94.9867V24.6065H95.0811C95.2568 24.2022 95.5319 23.8774 95.9064 23.6321C96.2843 23.3868 96.7599 23.2642 97.3333 23.2642C97.8536 23.2642 98.3094 23.3736 98.7005 23.5923C99.0916 23.8078 99.3948 24.1293 99.6103 24.5568C99.8257 24.9844 99.9334 25.513 99.9334 26.1428V31H98.4469V26.3217C98.4469 25.7682 98.3027 25.3357 98.0144 25.0241C97.726 24.7093 97.33 24.5518 96.8262 24.5518C96.4815 24.5518 96.1749 24.6264 95.9064 24.7756C95.6413 24.9247 95.4308 25.1435 95.275 25.4318C95.1226 25.7169 95.0463 26.0616 95.0463 26.4659ZM103.294 28.4098L103.284 26.5952H103.543L106.585 23.3636H108.365L104.895 27.0426H104.661L103.294 28.4098ZM101.927 31V20.8182H103.414V31H101.927ZM106.749 31L104.015 27.3707L105.039 26.3317L108.574 31H106.749ZM116.99 23.3636V24.5568H112.819V23.3636H116.99ZM113.937 21.5341H115.424V28.7578C115.424 29.0462 115.467 29.2633 115.553 29.4091C115.639 29.5516 115.75 29.6494 115.886 29.7024C116.025 29.7521 116.176 29.777 116.338 29.777C116.458 29.777 116.562 29.7687 116.652 29.7521C116.741 29.7356 116.811 29.7223 116.86 29.7124L117.129 30.9403C117.043 30.9735 116.92 31.0066 116.761 31.0398C116.602 31.0762 116.403 31.0961 116.164 31.0994C115.773 31.1061 115.409 31.0365 115.071 30.8906C114.733 30.7448 114.459 30.5194 114.25 30.2145C114.042 29.9096 113.937 29.5268 113.937 29.0661V21.5341ZM121.769 31.1541C121.053 31.1541 120.428 30.9901 119.894 30.6619C119.361 30.3338 118.946 29.8748 118.651 29.2848C118.356 28.6948 118.209 28.0054 118.209 27.2166C118.209 26.4245 118.356 25.7318 118.651 25.1385C118.946 24.5452 119.361 24.0845 119.894 23.7564C120.428 23.4283 121.053 23.2642 121.769 23.2642C122.485 23.2642 123.109 23.4283 123.643 23.7564C124.177 24.0845 124.591 24.5452 124.886 25.1385C125.181 25.7318 125.328 26.4245 125.328 27.2166C125.328 28.0054 125.181 28.6948 124.886 29.2848C124.591 29.8748 124.177 30.3338 123.643 30.6619C123.109 30.9901 122.485 31.1541 121.769 31.1541ZM121.774 29.9062C122.238 29.9062 122.622 29.7836 122.927 29.5384C123.232 29.2931 123.457 28.9666 123.603 28.5589C123.752 28.1513 123.827 27.7022 123.827 27.2116C123.827 26.7244 123.752 26.277 123.603 25.8693C123.457 25.4583 123.232 25.1286 122.927 24.88C122.622 24.6314 122.238 24.5071 121.774 24.5071C121.306 24.5071 120.919 24.6314 120.61 24.88C120.305 25.1286 120.078 25.4583 119.929 25.8693C119.783 26.277 119.71 26.7244 119.71 27.2116C119.71 27.7022 119.783 28.1513 119.929 28.5589C120.078 28.9666 120.305 29.2931 120.61 29.5384C120.919 29.7836 121.306 29.9062 121.774 29.9062ZM133.984 31.1541C133.231 31.1541 132.584 30.9934 132.04 30.6719C131.5 30.3471 131.082 29.8913 130.787 29.3047C130.495 28.7147 130.35 28.0237 130.35 27.2315C130.35 26.4493 130.495 25.7599 130.787 25.1634C131.082 24.5668 131.493 24.1011 132.02 23.7663C132.55 23.4316 133.17 23.2642 133.879 23.2642C134.31 23.2642 134.728 23.3355 135.132 23.478C135.537 23.6205 135.9 23.8442 136.221 24.1491C136.543 24.4541 136.796 24.8501 136.982 25.3374C137.167 25.8213 137.26 26.4096 137.26 27.1023V27.6293H131.19V26.5156H135.803C135.803 26.1245 135.724 25.7782 135.565 25.4766C135.406 25.1716 135.182 24.9313 134.894 24.7557C134.609 24.58 134.274 24.4922 133.889 24.4922C133.472 24.4922 133.107 24.5949 132.796 24.8004C132.487 25.0026 132.249 25.2678 132.08 25.5959C131.914 25.9207 131.831 26.2737 131.831 26.6548V27.5249C131.831 28.0353 131.921 28.4695 132.1 28.8274C132.282 29.1854 132.535 29.4588 132.86 29.6477C133.185 29.8333 133.565 29.9261 133.999 29.9261C134.28 29.9261 134.537 29.8864 134.769 29.8068C135.001 29.724 135.202 29.6013 135.371 29.4389C135.54 29.2765 135.669 29.076 135.759 28.8374L137.166 29.0909C137.053 29.5052 136.851 29.8681 136.559 30.1797C136.271 30.4879 135.908 30.7282 135.47 30.9006C135.036 31.0696 134.541 31.1541 133.984 31.1541ZM138.909 31V23.3636H140.336V24.6065H140.431C140.59 24.1856 140.85 23.8575 141.211 23.6222C141.573 23.3835 142.005 23.2642 142.509 23.2642C143.019 23.2642 143.447 23.3835 143.792 23.6222C144.14 23.8608 144.396 24.1889 144.562 24.6065H144.642C144.824 24.1989 145.114 23.8741 145.512 23.6321C145.909 23.3868 146.383 23.2642 146.934 23.2642C147.626 23.2642 148.191 23.4813 148.629 23.9155C149.07 24.3497 149.29 25.0043 149.29 25.8793V31H147.804V26.0185C147.804 25.5014 147.663 25.1269 147.381 24.8949C147.099 24.6629 146.763 24.5469 146.372 24.5469C145.888 24.5469 145.512 24.696 145.243 24.9943C144.975 25.2893 144.841 25.6688 144.841 26.1328V31H143.359V25.924C143.359 25.5097 143.23 25.1766 142.971 24.9247C142.713 24.6728 142.376 24.5469 141.962 24.5469C141.68 24.5469 141.42 24.6214 141.181 24.7706C140.946 24.9164 140.756 25.1203 140.61 25.3821C140.467 25.6439 140.396 25.9472 140.396 26.2919V31H138.909ZM151.402 31V20.8182H152.888V24.6016H152.978C153.064 24.4425 153.188 24.2585 153.351 24.0497C153.513 23.8409 153.738 23.6586 154.027 23.5028C154.315 23.3438 154.696 23.2642 155.17 23.2642C155.787 23.2642 156.337 23.42 156.821 23.7315C157.305 24.0431 157.684 24.4922 157.959 25.0788C158.238 25.6655 158.377 26.3714 158.377 27.1967C158.377 28.022 158.239 28.7296 157.964 29.3196C157.689 29.9062 157.311 30.3587 156.831 30.6768C156.35 30.9917 155.802 31.1491 155.185 31.1491C154.721 31.1491 154.342 31.0713 154.047 30.9155C153.755 30.7597 153.526 30.5774 153.361 30.3686C153.195 30.1598 153.067 29.9742 152.978 29.8118H152.854V31H151.402ZM152.858 27.1818C152.858 27.7187 152.936 28.1894 153.092 28.5938C153.248 28.9981 153.473 29.3146 153.768 29.5433C154.063 29.7687 154.425 29.8814 154.852 29.8814C155.296 29.8814 155.667 29.7637 155.966 29.5284C156.264 29.2898 156.489 28.9666 156.642 28.5589C156.798 28.1513 156.876 27.6922 156.876 27.1818C156.876 26.678 156.799 26.2256 156.647 25.8246C156.498 25.4235 156.272 25.107 155.971 24.875C155.672 24.643 155.3 24.527 154.852 24.527C154.421 24.527 154.057 24.638 153.758 24.8601C153.463 25.0821 153.24 25.392 153.087 25.7898C152.935 26.1875 152.858 26.6515 152.858 27.1818ZM163.337 31.1541C162.585 31.1541 161.937 30.9934 161.393 30.6719C160.853 30.3471 160.436 29.8913 160.141 29.3047C159.849 28.7147 159.703 28.0237 159.703 27.2315C159.703 26.4493 159.849 25.7599 160.141 25.1634C160.436 24.5668 160.847 24.1011 161.374 23.7663C161.904 23.4316 162.524 23.2642 163.233 23.2642C163.664 23.2642 164.081 23.3355 164.486 23.478C164.89 23.6205 165.253 23.8442 165.575 24.1491C165.896 24.4541 166.15 24.8501 166.335 25.3374C166.521 25.8213 166.614 26.4096 166.614 27.1023V27.6293H160.543V26.5156H165.157C165.157 26.1245 165.077 25.7782 164.918 25.4766C164.759 25.1716 164.536 24.9313 164.247 24.7557C163.962 24.58 163.627 24.4922 163.243 24.4922C162.825 24.4922 162.461 24.5949 162.149 24.8004C161.841 25.0026 161.602 25.2678 161.433 25.5959C161.268 25.9207 161.185 26.2737 161.185 26.6548V27.5249C161.185 28.0353 161.274 28.4695 161.453 28.8274C161.635 29.1854 161.889 29.4588 162.214 29.6477C162.539 29.8333 162.918 29.9261 163.352 29.9261C163.634 29.9261 163.891 29.8864 164.123 29.8068C164.355 29.724 164.555 29.6013 164.724 29.4389C164.893 29.2765 165.023 29.076 165.112 28.8374L166.519 29.0909C166.406 29.5052 166.204 29.8681 165.913 30.1797C165.624 30.4879 165.261 30.7282 164.824 30.9006C164.39 31.0696 163.894 31.1541 163.337 31.1541ZM171.122 31.1491C170.505 31.1491 169.955 30.9917 169.471 30.6768C168.99 30.3587 168.613 29.9062 168.338 29.3196C168.066 28.7296 167.93 28.022 167.93 27.1967C167.93 26.3714 168.067 25.6655 168.343 25.0788C168.621 24.4922 169.002 24.0431 169.486 23.7315C169.97 23.42 170.518 23.2642 171.132 23.2642C171.606 23.2642 171.987 23.3438 172.275 23.5028C172.567 23.6586 172.792 23.8409 172.951 24.0497C173.114 24.2585 173.24 24.4425 173.329 24.6016H173.419V20.8182H174.905V31H173.453V29.8118H173.329C173.24 29.9742 173.11 30.1598 172.941 30.3686C172.776 30.5774 172.547 30.7597 172.255 30.9155C171.963 31.0713 171.586 31.1491 171.122 31.1491ZM171.45 29.8814C171.877 29.8814 172.239 29.7687 172.534 29.5433C172.832 29.3146 173.057 28.9981 173.21 28.5938C173.365 28.1894 173.443 27.7187 173.443 27.1818C173.443 26.6515 173.367 26.1875 173.215 25.7898C173.062 25.392 172.838 25.0821 172.544 24.8601C172.249 24.638 171.884 24.527 171.45 24.527C171.002 24.527 170.629 24.643 170.331 24.875C170.033 25.107 169.807 25.4235 169.655 25.8246C169.506 26.2256 169.431 26.678 169.431 27.1818C169.431 27.6922 169.508 28.1513 169.66 28.5589C169.812 28.9666 170.038 29.2898 170.336 29.5284C170.638 29.7637 171.009 29.8814 171.45 29.8814ZM179.885 31.1491C179.269 31.1491 178.719 30.9917 178.235 30.6768C177.754 30.3587 177.376 29.9062 177.101 29.3196C176.829 28.7296 176.694 28.022 176.694 27.1967C176.694 26.3714 176.831 25.6655 177.106 25.0788C177.385 24.4922 177.766 24.0431 178.25 23.7315C178.734 23.42 179.282 23.2642 179.895 23.2642C180.369 23.2642 180.75 23.3438 181.039 23.5028C181.33 23.6586 181.556 23.8409 181.715 24.0497C181.877 24.2585 182.003 24.4425 182.093 24.6016H182.182V20.8182H183.669V31H182.217V29.8118H182.093C182.003 29.9742 181.874 30.1598 181.705 30.3686C181.539 30.5774 181.31 30.7597 181.019 30.9155C180.727 31.0713 180.349 31.1491 179.885 31.1491ZM180.213 29.8814C180.641 29.8814 181.002 29.7687 181.297 29.5433C181.596 29.3146 181.821 28.9981 181.973 28.5938C182.129 28.1894 182.207 27.7187 182.207 27.1818C182.207 26.6515 182.131 26.1875 181.978 25.7898C181.826 25.392 181.602 25.0821 181.307 24.8601C181.012 24.638 180.648 24.527 180.213 24.527C179.766 24.527 179.393 24.643 179.095 24.875C178.797 25.107 178.571 25.4235 178.419 25.8246C178.27 26.2256 178.195 26.678 178.195 27.1818C178.195 27.6922 178.271 28.1513 178.424 28.5589C178.576 28.9666 178.801 29.2898 179.1 29.5284C179.401 29.7637 179.773 29.8814 180.213 29.8814ZM188.013 31.169C187.529 31.169 187.091 31.0795 186.7 30.9006C186.309 30.7183 185.999 30.4548 185.77 30.1101C185.545 29.7654 185.432 29.3428 185.432 28.8423C185.432 28.4115 185.515 28.0568 185.681 27.7784C185.847 27.5 186.07 27.2796 186.352 27.1172C186.634 26.9548 186.949 26.8321 187.297 26.7493C187.645 26.6664 187.999 26.6035 188.361 26.5604C188.818 26.5073 189.189 26.4643 189.474 26.4311C189.759 26.3946 189.966 26.3366 190.096 26.2571C190.225 26.1776 190.29 26.0483 190.29 25.8693V25.8345C190.29 25.4003 190.167 25.0639 189.922 24.8253C189.68 24.5866 189.318 24.4673 188.838 24.4673C188.337 24.4673 187.943 24.5784 187.655 24.8004C187.37 25.0192 187.172 25.2628 187.063 25.5312L185.666 25.2131C185.832 24.7491 186.074 24.3745 186.392 24.0895C186.713 23.8011 187.083 23.5923 187.501 23.4631C187.918 23.3305 188.357 23.2642 188.818 23.2642C189.123 23.2642 189.446 23.3007 189.787 23.3736C190.132 23.4432 190.454 23.5724 190.752 23.7614C191.054 23.9503 191.3 24.2204 191.493 24.5717C191.685 24.9197 191.781 25.3722 191.781 25.929V31H190.329V29.956H190.27C190.174 30.1482 190.029 30.3371 189.837 30.5227C189.645 30.7083 189.398 30.8625 189.096 30.9851C188.795 31.1077 188.434 31.169 188.013 31.169ZM188.336 29.9759C188.747 29.9759 189.098 29.8946 189.39 29.7322C189.685 29.5698 189.908 29.3577 190.061 29.0959C190.217 28.8307 190.295 28.5473 190.295 28.2457V27.2614C190.242 27.3144 190.139 27.3641 189.986 27.4105C189.837 27.4536 189.666 27.4917 189.474 27.5249C189.282 27.5547 189.095 27.5829 188.912 27.6094C188.73 27.6326 188.578 27.6525 188.455 27.669C188.167 27.7055 187.903 27.7668 187.665 27.853C187.429 27.9392 187.24 28.0634 187.098 28.2259C186.959 28.3849 186.889 28.5971 186.889 28.8622C186.889 29.2301 187.025 29.5085 187.297 29.6974C187.568 29.883 187.915 29.9759 188.336 29.9759ZM193.88 31V20.8182H195.367V24.6016H195.456C195.542 24.4425 195.667 24.2585 195.829 24.0497C195.992 23.8409 196.217 23.6586 196.505 23.5028C196.794 23.3438 197.175 23.2642 197.649 23.2642C198.265 23.2642 198.815 23.42 199.299 23.7315C199.783 24.0431 200.163 24.4922 200.438 25.0788C200.716 25.6655 200.855 26.3714 200.855 27.1967C200.855 28.022 200.718 28.7296 200.443 29.3196C200.168 29.9062 199.79 30.3587 199.309 30.6768C198.829 30.9917 198.28 31.1491 197.664 31.1491C197.2 31.1491 196.82 31.0713 196.525 30.9155C196.234 30.7597 196.005 30.5774 195.839 30.3686C195.673 30.1598 195.546 29.9742 195.456 29.8118H195.332V31H193.88ZM195.337 27.1818C195.337 27.7187 195.415 28.1894 195.571 28.5938C195.726 28.9981 195.952 29.3146 196.247 29.5433C196.542 29.7687 196.903 29.8814 197.331 29.8814C197.775 29.8814 198.146 29.7637 198.444 29.5284C198.743 29.2898 198.968 28.9666 199.12 28.5589C199.276 28.1513 199.354 27.6922 199.354 27.1818C199.354 26.678 199.278 26.2256 199.125 25.8246C198.976 25.4235 198.751 25.107 198.449 24.875C198.151 24.643 197.778 24.527 197.331 24.527C196.9 24.527 196.535 24.638 196.237 24.8601C195.942 25.0821 195.718 25.392 195.566 25.7898C195.413 26.1875 195.337 26.6515 195.337 27.1818ZM204.011 20.8182V31H202.525V20.8182H204.011ZM209.302 31.1541C208.55 31.1541 207.902 30.9934 207.358 30.6719C206.818 30.3471 206.4 29.8913 206.105 29.3047C205.814 28.7147 205.668 28.0237 205.668 27.2315C205.668 26.4493 205.814 25.7599 206.105 25.1634C206.4 24.5668 206.811 24.1011 207.338 23.7663C207.869 23.4316 208.489 23.2642 209.198 23.2642C209.629 23.2642 210.046 23.3355 210.451 23.478C210.855 23.6205 211.218 23.8442 211.539 24.1491C211.861 24.4541 212.114 24.8501 212.3 25.3374C212.486 25.8213 212.578 26.4096 212.578 27.1023V27.6293H206.508V26.5156H211.122C211.122 26.1245 211.042 25.7782 210.883 25.4766C210.724 25.1716 210.5 24.9313 210.212 24.7557C209.927 24.58 209.592 24.4922 209.208 24.4922C208.79 24.4922 208.426 24.5949 208.114 24.8004C207.806 25.0026 207.567 25.2678 207.398 25.5959C207.232 25.9207 207.15 26.2737 207.15 26.6548V27.5249C207.15 28.0353 207.239 28.4695 207.418 28.8274C207.6 29.1854 207.854 29.4588 208.179 29.6477C208.503 29.8333 208.883 29.9261 209.317 29.9261C209.599 29.9261 209.856 29.8864 210.088 29.8068C210.32 29.724 210.52 29.6013 210.689 29.4389C210.858 29.2765 210.988 29.076 211.077 28.8374L212.484 29.0909C212.371 29.5052 212.169 29.8681 211.877 30.1797C211.589 30.4879 211.226 30.7282 210.789 30.9006C210.355 31.0696 209.859 31.1541 209.302 31.1541ZM221.15 31.1541C220.41 31.1541 219.774 30.9867 219.24 30.652C218.71 30.3139 218.302 29.8482 218.017 29.255C217.732 28.6617 217.59 27.9822 217.59 27.2166C217.59 26.4411 217.736 25.7566 218.027 25.1634C218.319 24.5668 218.73 24.1011 219.26 23.7663C219.791 23.4316 220.415 23.2642 221.135 23.2642C221.715 23.2642 222.232 23.3719 222.686 23.5874C223.14 23.7995 223.506 24.0978 223.784 24.4822C224.066 24.8667 224.234 25.3158 224.287 25.8295H222.84C222.76 25.4716 222.578 25.1634 222.293 24.9048C222.011 24.6463 221.633 24.517 221.159 24.517C220.745 24.517 220.382 24.6264 220.071 24.8452C219.762 25.0606 219.522 25.3688 219.35 25.7699C219.177 26.1676 219.091 26.6383 219.091 27.1818C219.091 27.7386 219.176 28.2192 219.345 28.6236C219.514 29.0279 219.752 29.3411 220.061 29.5632C220.372 29.7853 220.739 29.8963 221.159 29.8963C221.441 29.8963 221.696 29.8449 221.925 29.7422C222.157 29.6361 222.351 29.4853 222.507 29.2898C222.666 29.0942 222.777 28.8589 222.84 28.5838H224.287C224.234 29.0777 224.073 29.5185 223.804 29.9062C223.536 30.294 223.176 30.599 222.725 30.821C222.278 31.0431 221.753 31.1541 221.15 31.1541ZM229.093 31.1541C228.377 31.1541 227.752 30.9901 227.219 30.6619C226.685 30.3338 226.271 29.8748 225.976 29.2848C225.681 28.6948 225.533 28.0054 225.533 27.2166C225.533 26.4245 225.681 25.7318 225.976 25.1385C226.271 24.5452 226.685 24.0845 227.219 23.7564C227.752 23.4283 228.377 23.2642 229.093 23.2642C229.809 23.2642 230.434 23.4283 230.967 23.7564C231.501 24.0845 231.915 24.5452 232.21 25.1385C232.505 25.7318 232.653 26.4245 232.653 27.2166C232.653 28.0054 232.505 28.6948 232.21 29.2848C231.915 29.8748 231.501 30.3338 230.967 30.6619C230.434 30.9901 229.809 31.1541 229.093 31.1541ZM229.098 29.9062C229.562 29.9062 229.946 29.7836 230.251 29.5384C230.556 29.2931 230.782 28.9666 230.927 28.5589C231.077 28.1513 231.151 27.7022 231.151 27.2116C231.151 26.7244 231.077 26.277 230.927 25.8693C230.782 25.4583 230.556 25.1286 230.251 24.88C229.946 24.6314 229.562 24.5071 229.098 24.5071C228.631 24.5071 228.243 24.6314 227.934 24.88C227.63 25.1286 227.403 25.4583 227.253 25.8693C227.108 26.277 227.035 26.7244 227.035 27.2116C227.035 27.7022 227.108 28.1513 227.253 28.5589C227.403 28.9666 227.63 29.2931 227.934 29.5384C228.243 29.7836 228.631 29.9062 229.098 29.9062ZM235.798 26.4659V31H234.312V23.3636H235.739V24.6065H235.833C236.009 24.2022 236.284 23.8774 236.658 23.6321C237.036 23.3868 237.512 23.2642 238.085 23.2642C238.606 23.2642 239.061 23.3736 239.452 23.5923C239.844 23.8078 240.147 24.1293 240.362 24.5568C240.578 24.9844 240.685 25.513 240.685 26.1428V31H239.199V26.3217C239.199 25.7682 239.055 25.3357 238.766 25.0241C238.478 24.7093 238.082 24.5518 237.578 24.5518C237.233 24.5518 236.927 24.6264 236.658 24.7756C236.393 24.9247 236.183 25.1435 236.027 25.4318C235.875 25.7169 235.798 26.0616 235.798 26.4659ZM246.244 23.3636V24.5568H242.072V23.3636H246.244ZM243.191 21.5341H244.678V28.7578C244.678 29.0462 244.721 29.2633 244.807 29.4091C244.893 29.5516 245.004 29.6494 245.14 29.7024C245.279 29.7521 245.43 29.777 245.592 29.777C245.712 29.777 245.816 29.7687 245.906 29.7521C245.995 29.7356 246.065 29.7223 246.114 29.7124L246.383 30.9403C246.297 30.9735 246.174 31.0066 246.015 31.0398C245.856 31.0762 245.657 31.0961 245.418 31.0994C245.027 31.1061 244.663 31.0365 244.325 30.8906C243.987 30.7448 243.713 30.5194 243.504 30.2145C243.295 29.9096 243.191 29.5268 243.191 29.0661V21.5341ZM251.097 31.1541C250.345 31.1541 249.697 30.9934 249.153 30.6719C248.613 30.3471 248.195 29.8913 247.9 29.3047C247.609 28.7147 247.463 28.0237 247.463 27.2315C247.463 26.4493 247.609 25.7599 247.9 25.1634C248.195 24.5668 248.606 24.1011 249.133 23.7663C249.664 23.4316 250.283 23.2642 250.993 23.2642C251.424 23.2642 251.841 23.3355 252.246 23.478C252.65 23.6205 253.013 23.8442 253.334 24.1491C253.656 24.4541 253.909 24.8501 254.095 25.3374C254.281 25.8213 254.373 26.4096 254.373 27.1023V27.6293H248.303V26.5156H252.917C252.917 26.1245 252.837 25.7782 252.678 25.4766C252.519 25.1716 252.295 24.9313 252.007 24.7557C251.722 24.58 251.387 24.4922 251.003 24.4922C250.585 24.4922 250.22 24.5949 249.909 24.8004C249.601 25.0026 249.362 25.2678 249.193 25.5959C249.027 25.9207 248.944 26.2737 248.944 26.6548V27.5249C248.944 28.0353 249.034 28.4695 249.213 28.8274C249.395 29.1854 249.649 29.4588 249.974 29.6477C250.298 29.8333 250.678 29.9261 251.112 29.9261C251.394 29.9261 251.651 29.8864 251.883 29.8068C252.115 29.724 252.315 29.6013 252.484 29.4389C252.653 29.2765 252.782 29.076 252.872 28.8374L254.279 29.0909C254.166 29.5052 253.964 29.8681 253.672 30.1797C253.384 30.4879 253.021 30.7282 252.584 30.9006C252.149 31.0696 251.654 31.1541 251.097 31.1541ZM257.509 26.4659V31H256.023V23.3636H257.45V24.6065H257.544C257.72 24.2022 257.995 23.8774 258.369 23.6321C258.747 23.3868 259.223 23.2642 259.796 23.2642C260.317 23.2642 260.772 23.3736 261.163 23.5923C261.554 23.8078 261.858 24.1293 262.073 24.5568C262.289 24.9844 262.396 25.513 262.396 26.1428V31H260.91V26.3217C260.91 25.7682 260.766 25.3357 260.477 25.0241C260.189 24.7093 259.793 24.5518 259.289 24.5518C258.944 24.5518 258.638 24.6264 258.369 24.7756C258.104 24.9247 257.894 25.1435 257.738 25.4318C257.585 25.7169 257.509 26.0616 257.509 26.4659ZM267.955 23.3636V24.5568H263.783V23.3636H267.955ZM264.902 21.5341H266.388V28.7578C266.388 29.0462 266.432 29.2633 266.518 29.4091C266.604 29.5516 266.715 29.6494 266.851 29.7024C266.99 29.7521 267.141 29.777 267.303 29.777C267.423 29.777 267.527 29.7687 267.616 29.7521C267.706 29.7356 267.776 29.7223 267.825 29.7124L268.094 30.9403C268.008 30.9735 267.885 31.0066 267.726 31.0398C267.567 31.0762 267.368 31.0961 267.129 31.0994C266.738 31.1061 266.374 31.0365 266.036 30.8906C265.697 30.7448 265.424 30.5194 265.215 30.2145C265.006 29.9096 264.902 29.5268 264.902 29.0661V21.5341Z" fill="#37434F"/>
<g filter="url(#filter0_d_2247_16818)">
<path d="M16.5 52C16.5 49.7909 18.2909 48 20.5 48H281.5C283.709 48 285.5 49.7909 285.5 52V84C285.5 86.2091 283.709 88 281.5 88H20.5C18.2909 88 16.5 86.2091 16.5 84V52Z" fill="white"/>
<path d="M34.7472 68.4062V73H33.5739V62.8182H34.7472V66.5568H34.8466C35.0256 66.1624 35.294 65.8492 35.652 65.6172C36.0133 65.3819 36.4938 65.2642 37.0938 65.2642C37.6141 65.2642 38.0698 65.3686 38.4609 65.5774C38.852 65.7829 39.1553 66.0994 39.3707 66.527C39.5895 66.9512 39.6989 67.4915 39.6989 68.1477V73H38.5256V68.2273C38.5256 67.6207 38.3681 67.1518 38.0533 66.8203C37.7417 66.4856 37.3092 66.3182 36.7557 66.3182C36.3712 66.3182 36.0265 66.3994 35.7216 66.5618C35.42 66.7242 35.1813 66.9612 35.0057 67.2727C34.8333 67.5843 34.7472 67.9621 34.7472 68.4062ZM45.1664 65.3636V66.358H41.209V65.3636H45.1664ZM42.3624 63.5341H43.5357V70.8125C43.5357 71.1439 43.5837 71.3925 43.6799 71.5582C43.7793 71.7206 43.9052 71.83 44.0577 71.8864C44.2135 71.9394 44.3775 71.9659 44.5499 71.9659C44.6792 71.9659 44.7852 71.9593 44.8681 71.946C44.9509 71.9295 45.0172 71.9162 45.0669 71.9062L45.3056 72.9602C45.226 72.9901 45.115 73.0199 44.9725 73.0497C44.83 73.0829 44.6493 73.0994 44.4306 73.0994C44.0991 73.0994 43.7743 73.0282 43.4561 72.8857C43.1413 72.7431 42.8794 72.526 42.6706 72.2344C42.4651 71.9427 42.3624 71.5748 42.3624 71.1307V63.5341ZM50.2523 65.3636V66.358H46.2949V65.3636H50.2523ZM47.4483 63.5341H48.6216V70.8125C48.6216 71.1439 48.6697 71.3925 48.7658 71.5582C48.8652 71.7206 48.9912 71.83 49.1436 71.8864C49.2994 71.9394 49.4635 71.9659 49.6358 71.9659C49.7651 71.9659 49.8712 71.9593 49.954 71.946C50.0369 71.9295 50.1032 71.9162 50.1529 71.9062L50.3915 72.9602C50.312 72.9901 50.2009 73.0199 50.0584 73.0497C49.9159 73.0829 49.7353 73.0994 49.5165 73.0994C49.1851 73.0994 48.8603 73.0282 48.5421 72.8857C48.2272 72.7431 47.9654 72.526 47.7566 72.2344C47.5511 71.9427 47.4483 71.5748 47.4483 71.1307V63.5341ZM52.0172 75.8636V65.3636H53.1507V66.5767H53.29C53.3761 66.4441 53.4954 66.2751 53.6479 66.0696C53.8037 65.8608 54.0257 65.6752 54.3141 65.5128C54.6058 65.3471 55.0002 65.2642 55.4973 65.2642C56.1403 65.2642 56.7071 65.425 57.1976 65.7464C57.6882 66.0679 58.071 66.5237 58.3461 67.1136C58.6212 67.7036 58.7587 68.3996 58.7587 69.2017C58.7587 70.0104 58.6212 70.7114 58.3461 71.3047C58.071 71.8946 57.6898 72.352 57.2026 72.6768C56.7154 72.9983 56.1536 73.1591 55.5172 73.1591C55.0267 73.1591 54.6339 73.0779 54.339 72.9155C54.044 72.7498 53.8169 72.5625 53.6578 72.3537C53.4988 72.1416 53.3761 71.9659 53.29 71.8267H53.1905V75.8636H52.0172ZM53.1706 69.1818C53.1706 69.7585 53.2551 70.2673 53.4242 70.7081C53.5932 71.1456 53.8401 71.4886 54.165 71.7372C54.4898 71.9825 54.8875 72.1051 55.3581 72.1051C55.8487 72.1051 56.258 71.9759 56.5861 71.7173C56.9176 71.4555 57.1661 71.1042 57.3319 70.6634C57.5009 70.2192 57.5854 69.7254 57.5854 69.1818C57.5854 68.6449 57.5025 68.161 57.3368 67.7301C57.1744 67.2959 56.9275 66.9529 56.5961 66.701C56.2679 66.4458 55.8553 66.3182 55.3581 66.3182C54.8809 66.3182 54.4798 66.4392 54.155 66.6811C53.8302 66.9197 53.5849 67.2545 53.4192 67.6854C53.2535 68.1129 53.1706 68.6117 53.1706 69.1818ZM65.9576 67.0739L64.9036 67.3722C64.8373 67.1965 64.7395 67.0258 64.6103 66.8601C64.4843 66.6911 64.312 66.5518 64.0932 66.4425C63.8745 66.3331 63.5944 66.2784 63.253 66.2784C62.7857 66.2784 62.3962 66.3861 62.0847 66.6016C61.7765 66.8137 61.6223 67.0838 61.6223 67.4119C61.6223 67.7036 61.7284 67.9339 61.9405 68.103C62.1526 68.272 62.4841 68.4129 62.9348 68.5256L64.0684 68.804C64.7511 68.9697 65.2599 69.2232 65.5946 69.5646C65.9294 69.9027 66.0968 70.3385 66.0968 70.8722C66.0968 71.3097 65.9708 71.7008 65.7189 72.0455C65.4703 72.3902 65.1223 72.6619 64.6749 72.8608C64.2275 73.0597 63.7071 73.1591 63.1138 73.1591C62.3349 73.1591 61.6903 72.9901 61.1799 72.652C60.6694 72.3139 60.3463 71.8201 60.2104 71.1705L61.324 70.892C61.4301 71.303 61.6306 71.6113 61.9256 71.8168C62.2239 72.0223 62.6133 72.125 63.0939 72.125C63.6408 72.125 64.075 72.009 64.3965 71.777C64.7213 71.5417 64.8837 71.2599 64.8837 70.9318C64.8837 70.6667 64.7909 70.4446 64.6053 70.2656C64.4197 70.0833 64.1346 69.9474 63.7502 69.858L62.4775 69.5597C61.7781 69.3939 61.2644 69.1371 60.9363 68.7891C60.6114 68.4377 60.449 67.9986 60.449 67.4716C60.449 67.0407 60.57 66.6596 60.812 66.3281C61.0572 65.9967 61.3903 65.7365 61.8113 65.5476C62.2355 65.3587 62.7161 65.2642 63.253 65.2642C64.0087 65.2642 64.602 65.4299 65.0328 65.7614C65.467 66.0928 65.7753 66.5303 65.9576 67.0739ZM68.718 73.0795C68.4728 73.0795 68.2623 72.9917 68.0866 72.8161C67.911 72.6404 67.8232 72.4299 67.8232 72.1847C67.8232 71.9394 67.911 71.7289 68.0866 71.5533C68.2623 71.3776 68.4728 71.2898 68.718 71.2898C68.9633 71.2898 69.1738 71.3776 69.3494 71.5533C69.5251 71.7289 69.6129 71.9394 69.6129 72.1847C69.6129 72.3471 69.5715 72.4962 69.4886 72.6321C69.4091 72.768 69.3014 72.8774 69.1655 72.9602C69.0329 73.0398 68.8838 73.0795 68.718 73.0795ZM68.718 67.4119C68.4728 67.4119 68.2623 67.3241 68.0866 67.1484C67.911 66.9728 67.8232 66.7623 67.8232 66.517C67.8232 66.2718 67.911 66.0613 68.0866 65.8857C68.2623 65.71 68.4728 65.6222 68.718 65.6222C68.9633 65.6222 69.1738 65.71 69.3494 65.8857C69.5251 66.0613 69.6129 66.2718 69.6129 66.517C69.6129 66.6795 69.5715 66.8286 69.4886 66.9645C69.4091 67.1004 69.3014 67.2098 69.1655 67.2926C69.0329 67.3722 68.8838 67.4119 68.718 67.4119ZM75.3178 62.3409L72.0366 74.5312H70.9627L74.244 62.3409H75.3178ZM80.3081 62.3409L77.0268 74.5312H75.9529L79.2342 62.3409H80.3081ZM84.9006 73.1591C84.1648 73.1591 83.5301 72.9967 82.9964 72.6719C82.4661 72.3438 82.0568 71.8864 81.7685 71.2997C81.4834 70.7098 81.3409 70.0237 81.3409 69.2415C81.3409 68.4593 81.4834 67.7699 81.7685 67.1733C82.0568 66.5734 82.4579 66.1061 82.9716 65.7713C83.4886 65.4332 84.0919 65.2642 84.7812 65.2642C85.179 65.2642 85.5717 65.3305 85.9595 65.4631C86.3473 65.5956 86.7003 65.8111 87.0185 66.1094C87.3366 66.4044 87.5902 66.7955 87.7791 67.2827C87.968 67.7699 88.0625 68.3698 88.0625 69.0824V69.5795H82.1761V68.5653H86.8693C86.8693 68.1345 86.7831 67.75 86.6108 67.4119C86.4418 67.0739 86.1998 66.8071 85.8849 66.6115C85.5734 66.416 85.2055 66.3182 84.7812 66.3182C84.3139 66.3182 83.9096 66.4342 83.5682 66.6662C83.2301 66.8949 82.9699 67.1932 82.7876 67.5611C82.6054 67.929 82.5142 68.3234 82.5142 68.7443V69.4205C82.5142 69.9972 82.6136 70.486 82.8125 70.8871C83.0147 71.2848 83.2947 71.5881 83.6527 71.7969C84.0107 72.0024 84.4266 72.1051 84.9006 72.1051C85.2088 72.1051 85.4872 72.062 85.7358 71.9759C85.9877 71.8864 86.2048 71.7538 86.3871 71.5781C86.5694 71.3991 86.7102 71.1771 86.8097 70.9119L87.9432 71.2301C87.8239 71.6146 87.6233 71.9527 87.3416 72.2443C87.0599 72.5327 86.7119 72.758 86.2976 72.9205C85.8833 73.0795 85.4176 73.1591 84.9006 73.1591ZM90.5172 65.3636L92.3468 68.4858L94.1763 65.3636H95.5286L93.0627 69.1818L95.5286 73H94.1763L92.3468 70.0369L90.5172 73H89.165L91.5911 69.1818L89.165 65.3636H90.5172ZM99.4499 73.179C98.966 73.179 98.5269 73.0878 98.1325 72.9055C97.738 72.7199 97.4248 72.4531 97.1928 72.1051C96.9608 71.7538 96.8448 71.3295 96.8448 70.8324C96.8448 70.3949 96.931 70.0402 97.1033 69.7685C97.2757 69.4934 97.506 69.2779 97.7944 69.1222C98.0827 68.9664 98.4009 68.8504 98.7489 68.7741C99.1003 68.6946 99.4532 68.6316 99.8079 68.5852C100.272 68.5256 100.648 68.4808 100.936 68.451C101.228 68.4179 101.44 68.3632 101.573 68.2869C101.709 68.2107 101.777 68.0781 101.777 67.8892V67.8494C101.777 67.3589 101.642 66.9777 101.374 66.706C101.109 66.4342 100.706 66.2983 100.166 66.2983C99.6057 66.2983 99.1665 66.4209 98.8484 66.6662C98.5302 66.9115 98.3065 67.1733 98.1772 67.4517L97.0636 67.054C97.2624 66.59 97.5276 66.2287 97.859 65.9702C98.1938 65.7083 98.5584 65.526 98.9528 65.4233C99.3505 65.3172 99.7416 65.2642 100.126 65.2642C100.371 65.2642 100.653 65.294 100.971 65.3537C101.293 65.41 101.603 65.5277 101.901 65.7067C102.203 65.8857 102.453 66.1558 102.652 66.517C102.85 66.8783 102.95 67.3622 102.95 67.9688V73H101.777V71.9659H101.717C101.637 72.1316 101.505 72.3089 101.319 72.4979C101.134 72.6868 100.887 72.8475 100.578 72.9801C100.27 73.1127 99.8941 73.179 99.4499 73.179ZM99.6289 72.125C100.093 72.125 100.484 72.0339 100.802 71.8516C101.124 71.6693 101.366 71.4339 101.528 71.1456C101.694 70.8572 101.777 70.554 101.777 70.2358V69.1619C101.727 69.2216 101.618 69.2763 101.449 69.326C101.283 69.3724 101.091 69.4138 100.872 69.4503C100.656 69.4834 100.446 69.5133 100.24 69.5398C100.038 69.563 99.8742 69.5829 99.7482 69.5994C99.4433 69.6392 99.1583 69.7038 98.8931 69.7933C98.6313 69.8795 98.4192 70.0104 98.2567 70.1861C98.0977 70.3584 98.0181 70.5937 98.0181 70.892C98.0181 71.2997 98.1689 71.608 98.4705 71.8168C98.7754 72.0223 99.1616 72.125 99.6289 72.125ZM105.091 73V65.3636H106.225V66.5568H106.324C106.483 66.1491 106.74 65.8326 107.095 65.6072C107.45 65.3786 107.876 65.2642 108.373 65.2642C108.876 65.2642 109.296 65.3786 109.631 65.6072C109.969 65.8326 110.232 66.1491 110.421 66.5568H110.501C110.696 66.1624 110.989 65.8492 111.381 65.6172C111.772 65.3819 112.241 65.2642 112.787 65.2642C113.47 65.2642 114.029 65.478 114.463 65.9055C114.897 66.3298 115.114 66.991 115.114 67.8892V73H113.941V67.8892C113.941 67.3258 113.787 66.9231 113.479 66.6811C113.17 66.4392 112.807 66.3182 112.39 66.3182C111.853 66.3182 111.437 66.4806 111.142 66.8054C110.847 67.1269 110.699 67.5346 110.699 68.0284V73H109.506V67.7699C109.506 67.3357 109.365 66.986 109.084 66.7209C108.802 66.4524 108.439 66.3182 107.995 66.3182C107.69 66.3182 107.405 66.3994 107.14 66.5618C106.878 66.7242 106.666 66.9496 106.503 67.2379C106.344 67.523 106.265 67.8527 106.265 68.2273V73H105.091ZM117.259 75.8636V65.3636H118.393V66.5767H118.532C118.618 66.4441 118.738 66.2751 118.89 66.0696C119.046 65.8608 119.268 65.6752 119.556 65.5128C119.848 65.3471 120.242 65.2642 120.74 65.2642C121.383 65.2642 121.949 65.425 122.44 65.7464C122.93 66.0679 123.313 66.5237 123.588 67.1136C123.863 67.7036 124.001 68.3996 124.001 69.2017C124.001 70.0104 123.863 70.7114 123.588 71.3047C123.313 71.8946 122.932 72.352 122.445 72.6768C121.958 72.9983 121.396 73.1591 120.759 73.1591C120.269 73.1591 119.876 73.0779 119.581 72.9155C119.286 72.7498 119.059 72.5625 118.9 72.3537C118.741 72.1416 118.618 71.9659 118.532 71.8267H118.433V75.8636H117.259ZM118.413 69.1818C118.413 69.7585 118.497 70.2673 118.666 70.7081C118.835 71.1456 119.082 71.4886 119.407 71.7372C119.732 71.9825 120.13 72.1051 120.6 72.1051C121.091 72.1051 121.5 71.9759 121.828 71.7173C122.16 71.4555 122.408 71.1042 122.574 70.6634C122.743 70.2192 122.828 69.7254 122.828 69.1818C122.828 68.6449 122.745 68.161 122.579 67.7301C122.417 67.2959 122.17 66.9529 121.838 66.701C121.51 66.4458 121.097 66.3182 120.6 66.3182C120.123 66.3182 119.722 66.4392 119.397 66.6811C119.072 66.9197 118.827 67.2545 118.661 67.6854C118.496 68.1129 118.413 68.6117 118.413 69.1818ZM126.964 62.8182V73H125.791V62.8182H126.964ZM132.315 73.1591C131.579 73.1591 130.944 72.9967 130.411 72.6719C129.88 72.3438 129.471 71.8864 129.183 71.2997C128.897 70.7098 128.755 70.0237 128.755 69.2415C128.755 68.4593 128.897 67.7699 129.183 67.1733C129.471 66.5734 129.872 66.1061 130.386 65.7713C130.903 65.4332 131.506 65.2642 132.195 65.2642C132.593 65.2642 132.986 65.3305 133.374 65.4631C133.761 65.5956 134.114 65.8111 134.433 66.1094C134.751 66.4044 135.004 66.7955 135.193 67.2827C135.382 67.7699 135.477 68.3698 135.477 69.0824V69.5795H129.59V68.5653H134.283C134.283 68.1345 134.197 67.75 134.025 67.4119C133.856 67.0739 133.614 66.8071 133.299 66.6115C132.987 66.416 132.62 66.3182 132.195 66.3182C131.728 66.3182 131.324 66.4342 130.982 66.6662C130.644 66.8949 130.384 67.1932 130.202 67.5611C130.019 67.929 129.928 68.3234 129.928 68.7443V69.4205C129.928 69.9972 130.028 70.486 130.227 70.8871C130.429 71.2848 130.709 71.5881 131.067 71.7969C131.425 72.0024 131.841 72.1051 132.315 72.1051C132.623 72.1051 132.901 72.062 133.15 71.9759C133.402 71.8864 133.619 71.7538 133.801 71.5781C133.983 71.3991 134.124 71.1771 134.224 70.9119L135.357 71.2301C135.238 71.6146 135.037 71.9527 134.756 72.2443C134.474 72.5327 134.126 72.758 133.712 72.9205C133.297 73.0795 132.832 73.1591 132.315 73.1591ZM138.116 73.0795C137.871 73.0795 137.661 72.9917 137.485 72.8161C137.309 72.6404 137.222 72.4299 137.222 72.1847C137.222 71.9394 137.309 71.7289 137.485 71.5533C137.661 71.3776 137.871 71.2898 138.116 71.2898C138.362 71.2898 138.572 71.3776 138.748 71.5533C138.924 71.7289 139.011 71.9394 139.011 72.1847C139.011 72.3471 138.97 72.4962 138.887 72.6321C138.808 72.768 138.7 72.8774 138.564 72.9602C138.431 73.0398 138.282 73.0795 138.116 73.0795ZM144.219 73.1591C143.503 73.1591 142.887 72.9901 142.37 72.652C141.853 72.3139 141.455 71.8482 141.176 71.255C140.898 70.6617 140.759 69.9839 140.759 69.2216C140.759 68.446 140.901 67.7616 141.186 67.1683C141.475 66.5717 141.876 66.1061 142.39 65.7713C142.907 65.4332 143.51 65.2642 144.199 65.2642C144.736 65.2642 145.22 65.3636 145.651 65.5625C146.082 65.7614 146.435 66.0398 146.71 66.3977C146.985 66.7557 147.156 67.1733 147.222 67.6506H146.049C145.959 67.3026 145.76 66.9943 145.452 66.7259C145.147 66.4541 144.736 66.3182 144.219 66.3182C143.762 66.3182 143.361 66.4375 143.016 66.6761C142.675 66.9115 142.408 67.2446 142.216 67.6754C142.027 68.103 141.932 68.6051 141.932 69.1818C141.932 69.7718 142.025 70.2855 142.211 70.723C142.4 71.1605 142.665 71.5002 143.006 71.7422C143.351 71.9841 143.755 72.1051 144.219 72.1051C144.524 72.1051 144.801 72.0521 145.049 71.946C145.298 71.84 145.508 71.6875 145.681 71.4886C145.853 71.2898 145.976 71.0511 146.049 70.7727H147.222C147.156 71.2235 146.992 71.6295 146.73 71.9908C146.471 72.3487 146.128 72.6338 145.701 72.8459C145.276 73.0547 144.783 73.1591 144.219 73.1591ZM152.039 73.1591C151.35 73.1591 150.745 72.995 150.225 72.6669C149.708 72.3388 149.303 71.8797 149.012 71.2898C148.723 70.6998 148.579 70.0104 148.579 69.2216C148.579 68.4261 148.723 67.7318 149.012 67.1385C149.303 66.5452 149.708 66.0845 150.225 65.7564C150.745 65.4283 151.35 65.2642 152.039 65.2642C152.729 65.2642 153.332 65.4283 153.849 65.7564C154.369 66.0845 154.774 66.5452 155.062 67.1385C155.354 67.7318 155.5 68.4261 155.5 69.2216C155.5 70.0104 155.354 70.6998 155.062 71.2898C154.774 71.8797 154.369 72.3388 153.849 72.6669C153.332 72.995 152.729 73.1591 152.039 73.1591ZM152.039 72.1051C152.563 72.1051 152.994 71.9709 153.332 71.7024C153.67 71.4339 153.92 71.081 154.083 70.6435C154.245 70.206 154.326 69.732 154.326 69.2216C154.326 68.7112 154.245 68.2356 154.083 67.7947C153.92 67.3539 153.67 66.9976 153.332 66.7259C152.994 66.4541 152.563 66.3182 152.039 66.3182C151.516 66.3182 151.085 66.4541 150.747 66.7259C150.409 66.9976 150.158 67.3539 149.996 67.7947C149.834 68.2356 149.752 68.7112 149.752 69.2216C149.752 69.732 149.834 70.206 149.996 70.6435C150.158 71.081 150.409 71.4339 150.747 71.7024C151.085 71.9709 151.516 72.1051 152.039 72.1051ZM157.291 73V65.3636H158.424V66.5568H158.524C158.683 66.1491 158.94 65.8326 159.294 65.6072C159.649 65.3786 160.075 65.2642 160.572 65.2642C161.076 65.2642 161.495 65.3786 161.83 65.6072C162.168 65.8326 162.431 66.1491 162.62 66.5568H162.7C162.895 66.1624 163.189 65.8492 163.58 65.6172C163.971 65.3819 164.44 65.2642 164.987 65.2642C165.669 65.2642 166.228 65.478 166.662 65.9055C167.096 66.3298 167.313 66.991 167.313 67.8892V73H166.14V67.8892C166.14 67.3258 165.986 66.9231 165.678 66.6811C165.369 66.4392 165.007 66.3182 164.589 66.3182C164.052 66.3182 163.636 66.4806 163.341 66.8054C163.046 67.1269 162.899 67.5346 162.899 68.0284V73H161.705V67.7699C161.705 67.3357 161.565 66.986 161.283 66.7209C161.001 66.4524 160.638 66.3182 160.194 66.3182C159.889 66.3182 159.604 66.3994 159.339 66.5618C159.077 66.7242 158.865 66.9496 158.703 67.2379C158.544 67.523 158.464 67.8527 158.464 68.2273V73H157.291Z" fill="#64778C"/>
<path d="M20.5 49H281.5V47H20.5V49ZM284.5 52V84H286.5V52H284.5ZM281.5 87H20.5V89H281.5V87ZM17.5 84V52H15.5V84H17.5ZM20.5 87C18.8431 87 17.5 85.6569 17.5 84H15.5C15.5 86.7614 17.7386 89 20.5 89V87ZM284.5 84C284.5 85.6569 283.157 87 281.5 87V89C284.261 89 286.5 86.7614 286.5 84H284.5ZM281.5 49C283.157 49 284.5 50.3431 284.5 52H286.5C286.5 49.2386 284.261 47 281.5 47V49ZM20.5 47C17.7386 47 15.5 49.2386 15.5 52H17.5C17.5 50.3431 18.8431 49 20.5 49V47Z" fill="#DDE7F0"/>
</g>
<path d="M16.5 98C16.5 95.7909 18.2909 94 20.5 94H281.5C283.709 94 285.5 95.7909 285.5 98V132C285.5 134.209 283.709 136 281.5 136H20.5C18.2909 136 16.5 134.209 16.5 132V98Z" fill="#6F59EC"/>
<path d="M128.502 120V109.818H135.124V111.364H130.347V114.129H134.781V115.675H130.347V118.454H135.164V120H128.502ZM136.927 120V112.364H138.647V113.661H138.736C138.895 113.224 139.159 112.882 139.527 112.637C139.895 112.388 140.334 112.264 140.844 112.264C141.361 112.264 141.797 112.39 142.152 112.642C142.51 112.891 142.762 113.23 142.907 113.661H142.987C143.156 113.237 143.441 112.899 143.842 112.647C144.247 112.392 144.725 112.264 145.279 112.264C145.982 112.264 146.555 112.486 146.999 112.93C147.443 113.375 147.665 114.022 147.665 114.874V120H145.861V115.153C145.861 114.679 145.735 114.332 145.483 114.114C145.231 113.892 144.923 113.781 144.558 113.781C144.124 113.781 143.784 113.916 143.539 114.188C143.297 114.457 143.176 114.806 143.176 115.237V120H141.411V115.078C141.411 114.684 141.292 114.369 141.053 114.134C140.818 113.898 140.51 113.781 140.128 113.781C139.87 113.781 139.635 113.847 139.422 113.979C139.21 114.109 139.041 114.293 138.915 114.531C138.789 114.767 138.726 115.042 138.726 115.357V120H136.927ZM149.571 120V109.818H151.37V113.626H151.445C151.538 113.441 151.669 113.244 151.838 113.035C152.007 112.823 152.235 112.642 152.524 112.493C152.812 112.34 153.18 112.264 153.627 112.264C154.217 112.264 154.749 112.415 155.223 112.717C155.701 113.015 156.078 113.457 156.357 114.044C156.639 114.627 156.779 115.343 156.779 116.192C156.779 117.03 156.642 117.743 156.367 118.33C156.092 118.916 155.717 119.364 155.243 119.672C154.769 119.98 154.232 120.134 153.632 120.134C153.195 120.134 152.832 120.061 152.544 119.915C152.255 119.77 152.023 119.594 151.848 119.388C151.675 119.18 151.541 118.982 151.445 118.797H151.341V120H149.571ZM151.336 116.182C151.336 116.676 151.405 117.108 151.544 117.479C151.687 117.851 151.891 118.141 152.156 118.349C152.424 118.555 152.749 118.658 153.13 118.658C153.528 118.658 153.861 118.552 154.13 118.339C154.398 118.124 154.6 117.831 154.736 117.46C154.875 117.085 154.945 116.659 154.945 116.182C154.945 115.708 154.877 115.287 154.741 114.919C154.605 114.551 154.403 114.263 154.135 114.054C153.866 113.845 153.531 113.741 153.13 113.741C152.746 113.741 152.419 113.842 152.151 114.044C151.882 114.246 151.679 114.53 151.539 114.894C151.404 115.259 151.336 115.688 151.336 116.182ZM161.69 120.149C160.925 120.149 160.263 119.99 159.706 119.672C159.153 119.35 158.727 118.896 158.429 118.31C158.131 117.72 157.981 117.025 157.981 116.227C157.981 115.441 158.131 114.752 158.429 114.158C158.73 113.562 159.151 113.098 159.692 112.766C160.232 112.432 160.867 112.264 161.596 112.264C162.066 112.264 162.51 112.34 162.928 112.493C163.349 112.642 163.72 112.874 164.042 113.189C164.367 113.504 164.622 113.905 164.807 114.392C164.993 114.876 165.086 115.453 165.086 116.122V116.674H158.827V115.461H163.361C163.357 115.116 163.283 114.81 163.137 114.541C162.991 114.269 162.787 114.056 162.525 113.9C162.267 113.744 161.965 113.666 161.621 113.666C161.253 113.666 160.93 113.756 160.651 113.935C160.373 114.11 160.156 114.342 160 114.631C159.847 114.916 159.769 115.229 159.766 115.57V116.629C159.766 117.073 159.847 117.455 160.01 117.773C160.172 118.088 160.399 118.33 160.691 118.499C160.983 118.664 161.324 118.747 161.715 118.747C161.977 118.747 162.214 118.711 162.426 118.638C162.638 118.562 162.822 118.451 162.978 118.305C163.134 118.159 163.251 117.978 163.331 117.763L165.011 117.952C164.905 118.396 164.703 118.784 164.405 119.115C164.11 119.443 163.732 119.698 163.271 119.881C162.81 120.06 162.283 120.149 161.69 120.149ZM169.442 120.134C168.842 120.134 168.305 119.98 167.831 119.672C167.357 119.364 166.983 118.916 166.708 118.33C166.433 117.743 166.295 117.03 166.295 116.192C166.295 115.343 166.434 114.627 166.713 114.044C166.994 113.457 167.374 113.015 167.851 112.717C168.328 112.415 168.86 112.264 169.447 112.264C169.895 112.264 170.262 112.34 170.551 112.493C170.839 112.642 171.068 112.823 171.237 113.035C171.406 113.244 171.537 113.441 171.63 113.626H171.704V109.818H173.509V120H171.739V118.797H171.63C171.537 118.982 171.403 119.18 171.227 119.388C171.051 119.594 170.819 119.77 170.531 119.915C170.243 120.061 169.88 120.134 169.442 120.134ZM169.944 118.658C170.325 118.658 170.65 118.555 170.919 118.349C171.187 118.141 171.391 117.851 171.53 117.479C171.669 117.108 171.739 116.676 171.739 116.182C171.739 115.688 171.669 115.259 171.53 114.894C171.394 114.53 171.192 114.246 170.924 114.044C170.658 113.842 170.332 113.741 169.944 113.741C169.543 113.741 169.208 113.845 168.94 114.054C168.672 114.263 168.469 114.551 168.333 114.919C168.198 115.287 168.13 115.708 168.13 116.182C168.13 116.659 168.198 117.085 168.333 117.46C168.473 117.831 168.676 118.124 168.945 118.339C169.217 118.552 169.55 118.658 169.944 118.658Z" fill="white"/>
<path d="M35.4934 162L32.8713 152.545H34.3716L36.2136 159.867H36.3013L38.2172 152.545H39.7037L41.6195 159.872H41.7072L43.5446 152.545H45.0495L42.4228 162H40.987L38.9973 154.918H38.9235L36.9338 162H35.4934ZM48.5281 162.143C47.8633 162.143 47.2831 161.991 46.7876 161.686C46.2921 161.381 45.9074 160.955 45.6335 160.407C45.3596 159.859 45.2227 159.219 45.2227 158.487C45.2227 157.751 45.3596 157.108 45.6335 156.557C45.9074 156.006 46.2921 155.578 46.7876 155.274C47.2831 154.969 47.8633 154.817 48.5281 154.817C49.1928 154.817 49.773 154.969 50.2685 155.274C50.764 155.578 51.1487 156.006 51.4226 156.557C51.6965 157.108 51.8335 157.751 51.8335 158.487C51.8335 159.219 51.6965 159.859 51.4226 160.407C51.1487 160.955 50.764 161.381 50.2685 161.686C49.773 161.991 49.1928 162.143 48.5281 162.143ZM48.5327 160.984C48.9635 160.984 49.3205 160.871 49.6037 160.643C49.8868 160.415 50.0961 160.112 50.2315 159.733C50.37 159.355 50.4393 158.938 50.4393 158.482C50.4393 158.03 50.37 157.614 50.2315 157.236C50.0961 156.854 49.8868 156.548 49.6037 156.317C49.3205 156.086 48.9635 155.971 48.5327 155.971C48.0987 155.971 47.7386 156.086 47.4524 156.317C47.1693 156.548 46.9585 156.854 46.82 157.236C46.6845 157.614 46.6168 158.03 46.6168 158.482C46.6168 158.938 46.6845 159.355 46.82 159.733C46.9585 160.112 47.1693 160.415 47.4524 160.643C47.7386 160.871 48.0987 160.984 48.5327 160.984ZM53.3742 162V154.909H54.7084V156.036H54.7822C54.9115 155.654 55.1392 155.354 55.4655 155.135C55.7948 154.914 56.1672 154.803 56.5827 154.803C56.6688 154.803 56.7704 154.806 56.8873 154.812C57.0074 154.818 57.1012 154.826 57.1689 154.835V156.156C57.1135 156.14 57.0151 156.123 56.8735 156.105C56.7319 156.083 56.5903 156.072 56.4488 156.072C56.1225 156.072 55.8317 156.142 55.5763 156.28C55.3239 156.416 55.1238 156.605 54.9761 156.848C54.8284 157.088 54.7545 157.362 54.7545 157.67V162H53.3742ZM59.633 159.595L59.6238 157.91H59.8638L62.6891 154.909H64.3418L61.1195 158.325H60.9025L59.633 159.595ZM58.3635 162V152.545H59.7438V162H58.3635ZM62.8414 162L60.3024 158.63L61.2534 157.665L64.5357 162H62.8414ZM70.9134 156.64L69.6623 156.862C69.61 156.702 69.5269 156.549 69.413 156.405C69.3022 156.26 69.1514 156.142 68.9606 156.049C68.7698 155.957 68.5313 155.911 68.245 155.911C67.8542 155.911 67.5279 155.999 67.2663 156.174C67.0047 156.346 66.8739 156.569 66.8739 156.843C66.8739 157.08 66.9616 157.271 67.1371 157.416C67.3125 157.56 67.5956 157.679 67.9865 157.771L69.1129 158.03C69.7654 158.181 70.2517 158.413 70.5717 158.727C70.8918 159.041 71.0518 159.449 71.0518 159.95C71.0518 160.375 70.9287 160.754 70.6825 161.086C70.4394 161.415 70.0993 161.674 69.6623 161.862C69.2283 162.049 68.7251 162.143 68.1527 162.143C67.3587 162.143 66.7108 161.974 66.2092 161.635C65.7075 161.294 65.3997 160.809 65.2859 160.181L66.62 159.978C66.7031 160.326 66.8739 160.589 67.1325 160.767C67.391 160.943 67.728 161.031 68.1435 161.031C68.5959 161.031 68.9575 160.937 69.2283 160.749C69.4992 160.558 69.6346 160.326 69.6346 160.052C69.6346 159.83 69.5515 159.644 69.3853 159.493C69.2222 159.342 68.9714 159.229 68.6328 159.152L67.4325 158.888C66.7708 158.738 66.2815 158.498 65.9645 158.168C65.6506 157.839 65.4936 157.422 65.4936 156.917C65.4936 156.499 65.6106 156.132 65.8445 155.819C66.0784 155.505 66.4015 155.26 66.8139 155.085C67.2263 154.906 67.6987 154.817 68.2312 154.817C68.9975 154.817 69.6007 154.983 70.0408 155.315C70.4809 155.645 70.7718 156.086 70.9134 156.64ZM77.5472 162L75.4606 154.909H76.8871L78.2766 160.116H78.3459L79.7401 154.909H81.1665L82.5515 160.093H82.6207L84.0011 154.909H85.4276L83.3455 162H81.9375L80.4972 156.88H80.391L78.9506 162H77.5472ZM86.7375 162V154.909H88.1178V162H86.7375ZM87.4346 153.815C87.1945 153.815 86.9883 153.735 86.816 153.575C86.6467 153.412 86.5621 153.218 86.5621 152.993C86.5621 152.766 86.6467 152.572 86.816 152.412C86.9883 152.248 87.1945 152.167 87.4346 152.167C87.6746 152.167 87.8793 152.248 88.0486 152.412C88.2209 152.572 88.3071 152.766 88.3071 152.993C88.3071 153.218 88.2209 153.412 88.0486 153.575C87.8793 153.735 87.6746 153.815 87.4346 153.815ZM93.2848 154.909V156.017H89.4116V154.909H93.2848ZM90.4503 153.21H91.8306V159.918C91.8306 160.186 91.8706 160.387 91.9506 160.523C92.0307 160.655 92.1338 160.746 92.2599 160.795C92.3892 160.841 92.5292 160.864 92.68 160.864C92.7908 160.864 92.8878 160.857 92.9709 160.841C93.054 160.826 93.1186 160.814 93.1648 160.804L93.4141 161.945C93.334 161.975 93.2202 162.006 93.0724 162.037C92.9247 162.071 92.7401 162.089 92.5185 162.092C92.1553 162.098 91.8168 162.034 91.5028 161.898C91.1889 161.763 90.935 161.554 90.7411 161.271C90.5472 160.987 90.4503 160.632 90.4503 160.204V153.21ZM96.3444 157.79V162H94.964V152.545H96.3259V156.063H96.4136C96.5798 155.682 96.8337 155.378 97.1753 155.154C97.517 154.929 97.9632 154.817 98.5141 154.817C99.0004 154.817 99.4251 154.917 99.7883 155.117C100.155 155.317 100.438 155.615 100.638 156.012C100.841 156.406 100.942 156.899 100.942 157.49V162H99.5621V157.656C99.5621 157.136 99.4282 156.733 99.1604 156.446C98.8927 156.157 98.5203 156.012 98.0432 156.012C97.717 156.012 97.4246 156.082 97.1661 156.22C96.9107 156.359 96.7091 156.562 96.5613 156.83C96.4167 157.094 96.3444 157.414 96.3444 157.79ZM106.336 162V152.545H109.706C110.441 152.545 111.051 152.679 111.534 152.947C112.017 153.215 112.379 153.581 112.619 154.046C112.859 154.507 112.979 155.028 112.979 155.606C112.979 156.188 112.857 156.711 112.614 157.176C112.374 157.637 112.011 158.004 111.525 158.275C111.041 158.542 110.433 158.676 109.701 158.676H107.384V157.467H109.572C110.036 157.467 110.413 157.387 110.703 157.227C110.992 157.063 111.204 156.842 111.34 156.562C111.475 156.282 111.543 155.963 111.543 155.606C111.543 155.249 111.475 154.932 111.34 154.655C111.204 154.378 110.991 154.161 110.698 154.004C110.409 153.847 110.027 153.769 109.553 153.769H107.762V162H106.336ZM117.712 162H114.651V152.545H117.809C118.735 152.545 119.531 152.735 120.195 153.113C120.86 153.489 121.37 154.029 121.723 154.734C122.08 155.435 122.259 156.277 122.259 157.259C122.259 158.244 122.079 159.09 121.719 159.798C121.362 160.506 120.845 161.051 120.168 161.432C119.491 161.811 118.672 162 117.712 162ZM116.078 160.754H117.633C118.353 160.754 118.952 160.618 119.429 160.347C119.906 160.073 120.263 159.678 120.5 159.161C120.737 158.641 120.856 158.007 120.856 157.259C120.856 156.517 120.737 155.888 120.5 155.371C120.266 154.854 119.917 154.461 119.452 154.194C118.987 153.926 118.41 153.792 117.721 153.792H116.078V160.754ZM124.033 162V152.545H129.896V153.773H125.459V156.654H129.476V157.877H125.459V162H124.033ZM136.853 156.64L135.602 156.862C135.549 156.702 135.466 156.549 135.352 156.405C135.242 156.26 135.091 156.142 134.9 156.049C134.709 155.957 134.471 155.911 134.184 155.911C133.794 155.911 133.467 155.999 133.206 156.174C132.944 156.346 132.813 156.569 132.813 156.843C132.813 157.08 132.901 157.271 133.077 157.416C133.252 157.56 133.535 157.679 133.926 157.771L135.052 158.03C135.705 158.181 136.191 158.413 136.511 158.727C136.831 159.041 136.991 159.449 136.991 159.95C136.991 160.375 136.868 160.754 136.622 161.086C136.379 161.415 136.039 161.674 135.602 161.862C135.168 162.049 134.665 162.143 134.092 162.143C133.298 162.143 132.65 161.974 132.149 161.635C131.647 161.294 131.339 160.809 131.225 160.181L132.559 159.978C132.643 160.326 132.813 160.589 133.072 160.767C133.33 160.943 133.667 161.031 134.083 161.031C134.535 161.031 134.897 160.937 135.168 160.749C135.439 160.558 135.574 160.326 135.574 160.052C135.574 159.83 135.491 159.644 135.325 159.493C135.162 159.342 134.911 159.229 134.572 159.152L133.372 158.888C132.71 158.738 132.221 158.498 131.904 158.168C131.59 157.839 131.433 157.422 131.433 156.917C131.433 156.499 131.55 156.132 131.784 155.819C132.018 155.505 132.341 155.26 132.753 155.085C133.166 154.906 133.638 154.817 134.171 154.817C134.937 154.817 135.54 154.983 135.98 155.315C136.42 155.645 136.711 156.086 136.853 156.64ZM140.305 160.707L140.236 161.211C140.189 161.58 140.111 161.965 140 162.365C139.892 162.768 139.78 163.142 139.663 163.487C139.549 163.831 139.455 164.105 139.381 164.308H138.403C138.443 164.117 138.498 163.859 138.569 163.533C138.64 163.21 138.709 162.848 138.777 162.448C138.844 162.048 138.895 161.64 138.929 161.224L138.975 160.707H140.305ZM152.051 155.532C151.962 155.252 151.842 155.001 151.691 154.78C151.544 154.555 151.367 154.364 151.16 154.207C150.954 154.047 150.719 153.926 150.454 153.843C150.193 153.76 149.905 153.718 149.591 153.718C149.058 153.718 148.578 153.855 148.15 154.129C147.723 154.403 147.384 154.804 147.135 155.334C146.889 155.86 146.766 156.505 146.766 157.268C146.766 158.034 146.89 158.682 147.139 159.212C147.389 159.741 147.73 160.143 148.164 160.417C148.598 160.69 149.092 160.827 149.646 160.827C150.16 160.827 150.608 160.723 150.99 160.513C151.374 160.304 151.671 160.009 151.881 159.627C152.093 159.242 152.199 158.79 152.199 158.27L152.568 158.339H149.863V157.162H153.579V158.238C153.579 159.032 153.41 159.721 153.072 160.306C152.736 160.887 152.271 161.337 151.677 161.654C151.087 161.971 150.409 162.129 149.646 162.129C148.791 162.129 148.04 161.932 147.393 161.538C146.75 161.144 146.248 160.586 145.888 159.863C145.528 159.136 145.348 158.275 145.348 157.277C145.348 156.523 145.453 155.846 145.662 155.246C145.871 154.646 146.165 154.137 146.544 153.718C146.926 153.296 147.373 152.975 147.887 152.753C148.404 152.529 148.969 152.416 149.582 152.416C150.092 152.416 150.568 152.492 151.008 152.642C151.451 152.793 151.845 153.007 152.19 153.284C152.538 153.561 152.825 153.89 153.053 154.272C153.281 154.651 153.435 155.071 153.515 155.532H152.051ZM158.266 162.143C157.602 162.143 157.021 161.991 156.526 161.686C156.03 161.381 155.646 160.955 155.372 160.407C155.098 159.859 154.961 159.219 154.961 158.487C154.961 157.751 155.098 157.108 155.372 156.557C155.646 156.006 156.03 155.578 156.526 155.274C157.021 154.969 157.602 154.817 158.266 154.817C158.931 154.817 159.511 154.969 160.007 155.274C160.502 155.578 160.887 156.006 161.161 156.557C161.435 157.108 161.572 157.751 161.572 158.487C161.572 159.219 161.435 159.859 161.161 160.407C160.887 160.955 160.502 161.381 160.007 161.686C159.511 161.991 158.931 162.143 158.266 162.143ZM158.271 160.984C158.702 160.984 159.059 160.871 159.342 160.643C159.625 160.415 159.834 160.112 159.97 159.733C160.108 159.355 160.178 158.938 160.178 158.482C160.178 158.03 160.108 157.614 159.97 157.236C159.834 156.854 159.625 156.548 159.342 156.317C159.059 156.086 158.702 155.971 158.271 155.971C157.837 155.971 157.477 156.086 157.191 156.317C156.908 156.548 156.697 156.854 156.558 157.236C156.423 157.614 156.355 158.03 156.355 158.482C156.355 158.938 156.423 159.355 156.558 159.733C156.697 160.112 156.908 160.415 157.191 160.643C157.477 160.871 157.837 160.984 158.271 160.984ZM166.099 162.143C165.435 162.143 164.854 161.991 164.359 161.686C163.863 161.381 163.479 160.955 163.205 160.407C162.931 159.859 162.794 159.219 162.794 158.487C162.794 157.751 162.931 157.108 163.205 156.557C163.479 156.006 163.863 155.578 164.359 155.274C164.854 154.969 165.435 154.817 166.099 154.817C166.764 154.817 167.344 154.969 167.84 155.274C168.335 155.578 168.72 156.006 168.994 156.557C169.268 157.108 169.405 157.751 169.405 158.487C169.405 159.219 169.268 159.859 168.994 160.407C168.72 160.955 168.335 161.381 167.84 161.686C167.344 161.991 166.764 162.143 166.099 162.143ZM166.104 160.984C166.535 160.984 166.892 160.871 167.175 160.643C167.458 160.415 167.667 160.112 167.803 159.733C167.941 159.355 168.011 158.938 168.011 158.482C168.011 158.03 167.941 157.614 167.803 157.236C167.667 156.854 167.458 156.548 167.175 156.317C166.892 156.086 166.535 155.971 166.104 155.971C165.67 155.971 165.31 156.086 165.024 156.317C164.741 156.548 164.53 156.854 164.391 157.236C164.256 157.614 164.188 158.03 164.188 158.482C164.188 158.938 164.256 159.355 164.391 159.733C164.53 160.112 164.741 160.415 165.024 160.643C165.31 160.871 165.67 160.984 166.104 160.984ZM173.919 164.807C173.355 164.807 172.871 164.733 172.464 164.585C172.061 164.438 171.732 164.242 171.476 163.999C171.221 163.756 171.03 163.49 170.904 163.2L172.09 162.711C172.173 162.846 172.284 162.989 172.423 163.14C172.564 163.294 172.755 163.425 172.995 163.533C173.238 163.64 173.551 163.694 173.932 163.694C174.456 163.694 174.888 163.567 175.23 163.311C175.571 163.059 175.742 162.656 175.742 162.102V160.707H175.654C175.571 160.858 175.451 161.026 175.294 161.211C175.14 161.395 174.928 161.555 174.657 161.691C174.386 161.826 174.034 161.894 173.6 161.894C173.04 161.894 172.535 161.763 172.086 161.501C171.64 161.237 171.286 160.847 171.024 160.333C170.765 159.816 170.636 159.181 170.636 158.427C170.636 157.673 170.764 157.027 171.019 156.488C171.278 155.949 171.632 155.537 172.081 155.251C172.53 154.961 173.04 154.817 173.609 154.817C174.049 154.817 174.405 154.891 174.676 155.038C174.946 155.183 175.157 155.352 175.308 155.546C175.462 155.74 175.58 155.911 175.664 156.059H175.765V154.909H177.118V162.157C177.118 162.766 176.976 163.266 176.693 163.657C176.41 164.048 176.027 164.337 175.544 164.525C175.063 164.713 174.522 164.807 173.919 164.807ZM173.905 160.749C174.302 160.749 174.637 160.657 174.911 160.472C175.188 160.284 175.397 160.016 175.539 159.669C175.684 159.318 175.756 158.898 175.756 158.408C175.756 157.931 175.685 157.511 175.544 157.148C175.402 156.785 175.194 156.502 174.92 156.299C174.646 156.092 174.308 155.989 173.905 155.989C173.489 155.989 173.143 156.097 172.866 156.312C172.589 156.525 172.38 156.814 172.238 157.18C172.1 157.547 172.03 157.956 172.03 158.408C172.03 158.873 172.101 159.281 172.243 159.632C172.384 159.983 172.594 160.257 172.871 160.453C173.151 160.65 173.495 160.749 173.905 160.749ZM180.349 152.545V162H178.969V152.545H180.349ZM185.262 162.143C184.564 162.143 183.962 161.994 183.457 161.695C182.956 161.394 182.568 160.971 182.294 160.426C182.023 159.878 181.888 159.236 181.888 158.501C181.888 157.774 182.023 157.134 182.294 156.58C182.568 156.026 182.949 155.594 183.439 155.283C183.931 154.972 184.507 154.817 185.165 154.817C185.565 154.817 185.953 154.883 186.329 155.015C186.704 155.148 187.041 155.355 187.34 155.638C187.638 155.922 187.874 156.289 188.046 156.742C188.218 157.191 188.305 157.737 188.305 158.381V158.87H182.668V157.836H186.952C186.952 157.473 186.878 157.151 186.73 156.871C186.583 156.588 186.375 156.365 186.107 156.202C185.842 156.039 185.532 155.957 185.175 155.957C184.787 155.957 184.448 156.052 184.159 156.243C183.873 156.431 183.651 156.677 183.494 156.982C183.34 157.283 183.263 157.611 183.263 157.965V158.773C183.263 159.247 183.347 159.65 183.513 159.983C183.682 160.315 183.917 160.569 184.219 160.744C184.521 160.917 184.873 161.003 185.276 161.003C185.538 161.003 185.776 160.966 185.992 160.892C186.207 160.815 186.393 160.701 186.55 160.55C186.707 160.4 186.827 160.213 186.91 159.992L188.217 160.227C188.112 160.612 187.925 160.949 187.654 161.238C187.386 161.525 187.049 161.748 186.643 161.908C186.239 162.065 185.779 162.143 185.262 162.143ZM196.448 162H193.387V152.545H196.545C197.471 152.545 198.267 152.735 198.932 153.113C199.597 153.489 200.106 154.029 200.46 154.734C200.817 155.435 200.995 156.277 200.995 157.259C200.995 158.244 200.815 159.09 200.455 159.798C200.098 160.506 199.581 161.051 198.904 161.432C198.227 161.811 197.408 162 196.448 162ZM194.814 160.754H196.37C197.09 160.754 197.688 160.618 198.165 160.347C198.642 160.073 198.999 159.678 199.236 159.161C199.473 158.641 199.592 158.007 199.592 157.259C199.592 156.517 199.473 155.888 199.236 155.371C199.003 154.854 198.653 154.461 198.188 154.194C197.724 153.926 197.147 153.792 196.457 153.792H194.814V160.754ZM202.658 162V154.909H203.993V156.036H204.066C204.196 155.654 204.423 155.354 204.75 155.135C205.079 154.914 205.451 154.803 205.867 154.803C205.953 154.803 206.055 154.806 206.172 154.812C206.292 154.818 206.385 154.826 206.453 154.835V156.156C206.398 156.14 206.299 156.123 206.158 156.105C206.016 156.083 205.875 156.072 205.733 156.072C205.407 156.072 205.116 156.142 204.86 156.28C204.608 156.416 204.408 156.605 204.26 156.848C204.113 157.088 204.039 157.362 204.039 157.67V162H202.658ZM207.648 162V154.909H209.028V162H207.648ZM208.345 153.815C208.105 153.815 207.898 153.735 207.726 153.575C207.557 153.412 207.472 153.218 207.472 152.993C207.472 152.766 207.557 152.572 207.726 152.412C207.898 152.248 208.105 152.167 208.345 152.167C208.585 152.167 208.789 152.248 208.959 152.412C209.131 152.572 209.217 152.766 209.217 152.993C209.217 153.218 209.131 153.412 208.959 153.575C208.789 153.735 208.585 153.815 208.345 153.815ZM216.951 154.909L214.38 162H212.902L210.326 154.909H211.808L213.604 160.366H213.678L215.469 154.909H216.951ZM221.063 162.143C220.364 162.143 219.763 161.994 219.258 161.695C218.756 161.394 218.369 160.971 218.095 160.426C217.824 159.878 217.688 159.236 217.688 158.501C217.688 157.774 217.824 157.134 218.095 156.58C218.369 156.026 218.75 155.594 219.24 155.283C219.732 154.972 220.308 154.817 220.966 154.817C221.366 154.817 221.754 154.883 222.13 155.015C222.505 155.148 222.842 155.355 223.141 155.638C223.439 155.922 223.675 156.289 223.847 156.742C224.019 157.191 224.105 157.737 224.105 158.381V158.87H218.469V157.836H222.753C222.753 157.473 222.679 157.151 222.531 156.871C222.383 156.588 222.176 156.365 221.908 156.202C221.643 156.039 221.332 155.957 220.975 155.957C220.588 155.957 220.249 156.052 219.96 156.243C219.674 156.431 219.452 156.677 219.295 156.982C219.141 157.283 219.064 157.611 219.064 157.965V158.773C219.064 159.247 219.147 159.65 219.313 159.983C219.483 160.315 219.718 160.569 220.02 160.744C220.321 160.917 220.674 161.003 221.077 161.003C221.339 161.003 221.577 160.966 221.793 160.892C222.008 160.815 222.194 160.701 222.351 160.55C222.508 160.4 222.628 160.213 222.711 159.992L224.018 160.227C223.913 160.612 223.725 160.949 223.454 161.238C223.187 161.525 222.85 161.748 222.443 161.908C222.04 162.065 221.58 162.143 221.063 162.143ZM227.433 160.707L227.363 161.211C227.317 161.58 227.239 161.965 227.128 162.365C227.02 162.768 226.908 163.142 226.791 163.487C226.677 163.831 226.583 164.105 226.509 164.308H225.531C225.571 164.117 225.626 163.859 225.697 163.533C225.768 163.21 225.837 162.848 225.905 162.448C225.972 162.048 226.023 161.64 226.057 161.224L226.103 160.707H227.433ZM232.781 152.545H234.512L237.522 159.895H237.633L240.643 152.545H242.374V162H241.017V155.158H240.929L238.141 161.986H237.014L234.226 155.154H234.138V162H232.781V152.545ZM246.401 162.157C245.951 162.157 245.545 162.074 245.182 161.908C244.819 161.738 244.531 161.494 244.319 161.174C244.109 160.854 244.005 160.461 244.005 159.996C244.005 159.596 244.082 159.267 244.236 159.009C244.389 158.75 244.597 158.545 244.859 158.395C245.12 158.244 245.413 158.13 245.736 158.053C246.059 157.976 246.388 157.917 246.724 157.877C247.149 157.828 247.493 157.788 247.758 157.757C248.023 157.724 248.215 157.67 248.335 157.596C248.455 157.522 248.515 157.402 248.515 157.236V157.203C248.515 156.8 248.401 156.488 248.173 156.266C247.949 156.045 247.613 155.934 247.167 155.934C246.702 155.934 246.336 156.037 246.068 156.243C245.804 156.446 245.62 156.673 245.519 156.922L244.222 156.626C244.376 156.196 244.6 155.848 244.896 155.583C245.194 155.315 245.537 155.121 245.925 155.001C246.313 154.878 246.721 154.817 247.149 154.817C247.432 154.817 247.732 154.851 248.049 154.918C248.369 154.983 248.667 155.103 248.944 155.278C249.224 155.454 249.454 155.705 249.632 156.031C249.811 156.354 249.9 156.774 249.9 157.291V162H248.552V161.031H248.497C248.407 161.209 248.273 161.384 248.095 161.557C247.916 161.729 247.687 161.872 247.407 161.986C247.127 162.1 246.792 162.157 246.401 162.157ZM246.701 161.049C247.082 161.049 247.409 160.974 247.679 160.823C247.953 160.672 248.161 160.475 248.303 160.232C248.447 159.986 248.52 159.723 248.52 159.442V158.528C248.47 158.578 248.375 158.624 248.233 158.667C248.095 158.707 247.936 158.742 247.758 158.773C247.579 158.801 247.406 158.827 247.236 158.852C247.067 158.873 246.925 158.892 246.812 158.907C246.544 158.941 246.299 158.998 246.078 159.078C245.859 159.158 245.684 159.273 245.551 159.424C245.422 159.572 245.357 159.769 245.357 160.015C245.357 160.357 245.484 160.615 245.736 160.79C245.988 160.963 246.31 161.049 246.701 161.049ZM251.738 164.659V154.909H253.086V156.059H253.202C253.282 155.911 253.397 155.74 253.548 155.546C253.699 155.352 253.908 155.183 254.176 155.038C254.444 154.891 254.798 154.817 255.238 154.817C255.81 154.817 256.321 154.961 256.77 155.251C257.22 155.54 257.572 155.957 257.828 156.502C258.086 157.047 258.215 157.702 258.215 158.468C258.215 159.235 258.088 159.892 257.832 160.44C257.577 160.984 257.226 161.404 256.78 161.7C256.333 161.992 255.824 162.138 255.252 162.138C254.821 162.138 254.468 162.066 254.194 161.922C253.924 161.777 253.711 161.608 253.557 161.414C253.403 161.22 253.285 161.047 253.202 160.897H253.119V164.659H251.738ZM253.091 158.455C253.091 158.953 253.163 159.39 253.308 159.766C253.453 160.141 253.662 160.435 253.936 160.647C254.21 160.857 254.545 160.961 254.942 160.961C255.355 160.961 255.699 160.852 255.976 160.634C256.253 160.412 256.463 160.112 256.604 159.733C256.749 159.355 256.821 158.929 256.821 158.455C256.821 157.987 256.75 157.567 256.609 157.194C256.47 156.822 256.261 156.528 255.981 156.312C255.704 156.097 255.358 155.989 254.942 155.989C254.542 155.989 254.204 156.092 253.927 156.299C253.653 156.505 253.445 156.793 253.303 157.162C253.162 157.531 253.091 157.962 253.091 158.455ZM265.075 156.64L263.824 156.862C263.772 156.702 263.689 156.549 263.575 156.405C263.464 156.26 263.314 156.142 263.123 156.049C262.932 155.957 262.693 155.911 262.407 155.911C262.016 155.911 261.69 155.999 261.428 156.174C261.167 156.346 261.036 156.569 261.036 156.843C261.036 157.08 261.124 157.271 261.299 157.416C261.475 157.56 261.758 157.679 262.149 157.771L263.275 158.03C263.927 158.181 264.414 158.413 264.734 158.727C265.054 159.041 265.214 159.449 265.214 159.95C265.214 160.375 265.091 160.754 264.845 161.086C264.602 161.415 264.261 161.674 263.824 161.862C263.39 162.049 262.887 162.143 262.315 162.143C261.521 162.143 260.873 161.974 260.371 161.635C259.87 161.294 259.562 160.809 259.448 160.181L260.782 159.978C260.865 160.326 261.036 160.589 261.295 160.767C261.553 160.943 261.89 161.031 262.306 161.031C262.758 161.031 263.12 160.937 263.39 160.749C263.661 160.558 263.797 160.326 263.797 160.052C263.797 159.83 263.714 159.644 263.547 159.493C263.384 159.342 263.133 159.229 262.795 159.152L261.595 158.888C260.933 158.738 260.444 158.498 260.127 158.168C259.813 157.839 259.656 157.422 259.656 156.917C259.656 156.499 259.773 156.132 260.007 155.819C260.24 155.505 260.564 155.26 260.976 155.085C261.388 154.906 261.861 154.817 262.393 154.817C263.16 154.817 263.763 154.983 264.203 155.315C264.643 155.645 264.934 156.086 265.075 156.64ZM268.527 160.707L268.458 161.211C268.412 161.58 268.334 161.965 268.223 162.365C268.115 162.768 268.003 163.142 267.886 163.487C267.772 163.831 267.678 164.105 267.604 164.308H266.625C266.665 164.117 266.721 163.859 266.792 163.533C266.862 163.21 266.932 162.848 266.999 162.448C267.067 162.048 267.118 161.64 267.152 161.224L267.198 160.707H268.527ZM62.0289 180V170.545H67.8919V171.773H63.4554V174.654H67.4718V175.877H63.4554V180H62.0289ZM69.5353 180V172.909H70.9157V180H69.5353ZM70.2324 171.815C69.9924 171.815 69.7862 171.735 69.6138 171.575C69.4445 171.412 69.3599 171.218 69.3599 170.993C69.3599 170.766 69.4445 170.572 69.6138 170.412C69.7862 170.248 69.9924 170.167 70.2324 170.167C70.4725 170.167 70.6771 170.248 70.8464 170.412C71.0188 170.572 71.1049 170.766 71.1049 170.993C71.1049 171.218 71.0188 171.412 70.8464 171.575C70.6771 171.735 70.4725 171.815 70.2324 171.815ZM75.7456 182.807C75.1824 182.807 74.6977 182.733 74.2915 182.585C73.8883 182.438 73.559 182.242 73.3035 181.999C73.0481 181.756 72.8573 181.49 72.7311 181.2L73.9175 180.711C74.0006 180.846 74.1114 180.989 74.2499 181.14C74.3915 181.294 74.5823 181.425 74.8224 181.533C75.0655 181.64 75.3779 181.694 75.7595 181.694C76.2827 181.694 76.7151 181.567 77.0567 181.311C77.3983 181.059 77.5692 180.656 77.5692 180.102V178.707H77.4814C77.3983 178.858 77.2783 179.026 77.1214 179.211C76.9675 179.395 76.7551 179.555 76.4843 179.691C76.2135 179.826 75.8611 179.894 75.4271 179.894C74.867 179.894 74.3622 179.763 73.9129 179.501C73.4666 179.237 73.1127 178.847 72.8511 178.333C72.5926 177.816 72.4633 177.181 72.4633 176.427C72.4633 175.673 72.5911 175.027 72.8465 174.488C73.105 173.949 73.459 173.537 73.9083 173.251C74.3576 172.961 74.867 172.817 75.4363 172.817C75.8765 172.817 76.2319 172.891 76.5028 173.038C76.7736 173.183 76.9844 173.352 77.1352 173.546C77.2891 173.74 77.4076 173.911 77.4907 174.059H77.5922V172.909H78.9449V180.157C78.9449 180.766 78.8033 181.266 78.5202 181.657C78.237 182.048 77.8538 182.337 77.3706 182.525C76.8905 182.713 76.3489 182.807 75.7456 182.807ZM75.7318 178.749C76.1288 178.749 76.4643 178.657 76.7382 178.472C77.0152 178.284 77.2245 178.016 77.366 177.669C77.5107 177.318 77.583 176.898 77.583 176.408C77.583 175.931 77.5122 175.511 77.3706 175.148C77.2291 174.785 77.0213 174.502 76.7474 174.299C76.4735 174.092 76.135 173.989 75.7318 173.989C75.3163 173.989 74.9701 174.097 74.6931 174.312C74.4161 174.525 74.2068 174.814 74.0653 175.18C73.9268 175.547 73.8575 175.956 73.8575 176.408C73.8575 176.873 73.9283 177.281 74.0699 177.632C74.2114 177.983 74.4207 178.257 74.6977 178.453C74.9778 178.65 75.3225 178.749 75.7318 178.749ZM80.7961 180V172.909H82.121V174.063H82.2087C82.3564 173.672 82.598 173.368 82.9335 173.149C83.269 172.928 83.6706 172.817 84.1384 172.817C84.6124 172.817 85.0094 172.928 85.3295 173.149C85.6526 173.371 85.8911 173.675 86.045 174.063H86.1189C86.2881 173.685 86.5574 173.383 86.9268 173.158C87.2961 172.931 87.7362 172.817 88.2471 172.817C88.8903 172.817 89.415 173.018 89.8213 173.422C90.2306 173.825 90.4353 174.433 90.4353 175.245V180H89.055V175.374C89.055 174.894 88.9242 174.546 88.6626 174.331C88.401 174.116 88.0886 174.008 87.7254 174.008C87.2761 174.008 86.9268 174.146 86.6775 174.423C86.4282 174.697 86.3035 175.05 86.3035 175.48V180H84.9278V175.287C84.9278 174.902 84.8078 174.593 84.5677 174.359C84.3277 174.125 84.0153 174.008 83.6306 174.008C83.369 174.008 83.1274 174.077 82.9058 174.216C82.6873 174.351 82.5103 174.54 82.3749 174.783C82.2426 175.027 82.1764 175.308 82.1764 175.628V180H80.7961ZM94.3489 180.157C93.8996 180.157 93.4933 180.074 93.1301 179.908C92.767 179.738 92.4792 179.494 92.2669 179.174C92.0576 178.854 91.9529 178.461 91.9529 177.996C91.9529 177.596 92.0299 177.267 92.1838 177.009C92.3377 176.75 92.5454 176.545 92.807 176.395C93.0686 176.244 93.361 176.13 93.6841 176.053C94.0073 175.976 94.3366 175.917 94.6721 175.877C95.0968 175.828 95.4415 175.788 95.7061 175.757C95.9708 175.724 96.1632 175.67 96.2832 175.596C96.4032 175.522 96.4632 175.402 96.4632 175.236V175.203C96.4632 174.8 96.3494 174.488 96.1216 174.266C95.897 174.045 95.5615 173.934 95.1152 173.934C94.6505 173.934 94.2843 174.037 94.0165 174.243C93.7518 174.446 93.5687 174.673 93.4672 174.922L92.1699 174.626C92.3238 174.196 92.5485 173.848 92.8439 173.583C93.1425 173.315 93.4856 173.121 93.8734 173.001C94.2612 172.878 94.669 172.817 95.0968 172.817C95.3799 172.817 95.68 172.851 95.997 172.918C96.3171 172.983 96.6156 173.103 96.8926 173.278C97.1726 173.454 97.4019 173.705 97.5804 174.031C97.7589 174.354 97.8482 174.774 97.8482 175.291V180H96.5002V179.031H96.4448C96.3555 179.209 96.2217 179.384 96.0431 179.557C95.8646 179.729 95.6354 179.872 95.3553 179.986C95.0752 180.1 94.7398 180.157 94.3489 180.157ZM94.649 179.049C95.0306 179.049 95.3568 178.974 95.6277 178.823C95.9016 178.672 96.1093 178.475 96.2509 178.232C96.3955 177.986 96.4679 177.723 96.4679 177.442V176.528C96.4186 176.578 96.3232 176.624 96.1816 176.667C96.0431 176.707 95.8846 176.742 95.7061 176.773C95.5276 176.801 95.3538 176.827 95.1845 176.852C95.0152 176.873 94.8736 176.892 94.7598 176.907C94.492 176.941 94.2473 176.998 94.0257 177.078C93.8072 177.158 93.6318 177.273 93.4995 177.424C93.3702 177.572 93.3056 177.769 93.3056 178.015C93.3056 178.357 93.4318 178.615 93.6841 178.79C93.9365 178.963 94.2581 179.049 94.649 179.049ZM105.782 180.138C105.209 180.138 104.698 179.992 104.249 179.7C103.803 179.404 103.452 178.984 103.196 178.44C102.944 177.892 102.818 177.235 102.818 176.468C102.818 175.702 102.946 175.047 103.201 174.502C103.46 173.957 103.813 173.54 104.263 173.251C104.712 172.961 105.221 172.817 105.791 172.817C106.231 172.817 106.585 172.891 106.853 173.038C107.123 173.183 107.333 173.352 107.48 173.546C107.631 173.74 107.748 173.911 107.831 174.059H107.914V170.545H109.295V180H107.947V178.897H107.831C107.748 179.047 107.628 179.22 107.471 179.414C107.317 179.608 107.105 179.777 106.834 179.922C106.563 180.066 106.212 180.138 105.782 180.138ZM106.086 178.961C106.483 178.961 106.819 178.857 107.093 178.647C107.37 178.435 107.579 178.141 107.721 177.766C107.865 177.39 107.938 176.953 107.938 176.455C107.938 175.962 107.867 175.531 107.725 175.162C107.584 174.793 107.376 174.505 107.102 174.299C106.828 174.092 106.489 173.989 106.086 173.989C105.671 173.989 105.325 174.097 105.048 174.312C104.771 174.528 104.561 174.822 104.42 175.194C104.281 175.567 104.212 175.987 104.212 176.455C104.212 176.929 104.283 177.355 104.424 177.733C104.566 178.112 104.775 178.412 105.052 178.634C105.332 178.852 105.677 178.961 106.086 178.961ZM114.252 180.143C113.587 180.143 113.007 179.991 112.511 179.686C112.016 179.381 111.631 178.955 111.357 178.407C111.083 177.859 110.946 177.219 110.946 176.487C110.946 175.751 111.083 175.108 111.357 174.557C111.631 174.006 112.016 173.578 112.511 173.274C113.007 172.969 113.587 172.817 114.252 172.817C114.916 172.817 115.497 172.969 115.992 173.274C116.488 173.578 116.872 174.006 117.146 174.557C117.42 175.108 117.557 175.751 117.557 176.487C117.557 177.219 117.42 177.859 117.146 178.407C116.872 178.955 116.488 179.381 115.992 179.686C115.497 179.991 114.916 180.143 114.252 180.143ZM114.256 178.984C114.687 178.984 115.044 178.871 115.327 178.643C115.61 178.415 115.82 178.112 115.955 177.733C116.094 177.355 116.163 176.938 116.163 176.482C116.163 176.03 116.094 175.614 115.955 175.236C115.82 174.854 115.61 174.548 115.327 174.317C115.044 174.086 114.687 173.971 114.256 173.971C113.822 173.971 113.462 174.086 113.176 174.317C112.893 174.548 112.682 174.854 112.544 175.236C112.408 175.614 112.34 176.03 112.34 176.482C112.34 176.938 112.408 177.355 112.544 177.733C112.682 178.112 112.893 178.415 113.176 178.643C113.462 178.871 113.822 178.984 114.256 178.984ZM122.085 180.143C121.398 180.143 120.807 179.988 120.312 179.677C119.82 179.363 119.441 178.931 119.176 178.38C118.912 177.829 118.779 177.198 118.779 176.487C118.779 175.767 118.915 175.131 119.186 174.58C119.456 174.026 119.838 173.594 120.33 173.283C120.823 172.972 121.403 172.817 122.071 172.817C122.609 172.817 123.09 172.917 123.511 173.117C123.933 173.314 124.273 173.591 124.531 173.948C124.793 174.305 124.948 174.722 124.998 175.199H123.654C123.58 174.866 123.411 174.58 123.146 174.34C122.885 174.1 122.534 173.98 122.094 173.98C121.709 173.98 121.372 174.082 121.083 174.285C120.797 174.485 120.574 174.771 120.414 175.143C120.253 175.513 120.173 175.95 120.173 176.455C120.173 176.972 120.252 177.418 120.409 177.793C120.566 178.169 120.787 178.46 121.074 178.666C121.363 178.872 121.703 178.975 122.094 178.975C122.356 178.975 122.593 178.927 122.805 178.832C123.02 178.734 123.2 178.594 123.345 178.412C123.493 178.23 123.596 178.012 123.654 177.756H124.998C124.948 178.215 124.799 178.624 124.55 178.984C124.301 179.344 123.967 179.628 123.548 179.834C123.133 180.04 122.645 180.143 122.085 180.143ZM130.966 177.059V172.909H132.351V180H130.993V178.772H130.919C130.756 179.151 130.495 179.466 130.135 179.718C129.778 179.968 129.333 180.092 128.801 180.092C128.345 180.092 127.942 179.992 127.591 179.792C127.243 179.589 126.969 179.289 126.769 178.892C126.572 178.495 126.474 178.004 126.474 177.419V172.909H127.854V177.253C127.854 177.736 127.988 178.121 128.256 178.407C128.524 178.694 128.871 178.837 129.299 178.837C129.558 178.837 129.815 178.772 130.07 178.643C130.329 178.513 130.542 178.318 130.712 178.056C130.884 177.795 130.969 177.462 130.966 177.059ZM134.205 180V172.909H135.53V174.063H135.618C135.766 173.672 136.007 173.368 136.343 173.149C136.678 172.928 137.08 172.817 137.548 172.817C138.022 172.817 138.419 172.928 138.739 173.149C139.062 173.371 139.3 173.675 139.454 174.063H139.528C139.697 173.685 139.967 173.383 140.336 173.158C140.705 172.931 141.145 172.817 141.656 172.817C142.299 172.817 142.824 173.018 143.23 173.422C143.64 173.825 143.844 174.433 143.844 175.245V180H142.464V175.374C142.464 174.894 142.333 174.546 142.072 174.331C141.81 174.116 141.498 174.008 141.135 174.008C140.685 174.008 140.336 174.146 140.087 174.423C139.837 174.697 139.713 175.05 139.713 175.48V180H138.337V175.287C138.337 174.902 138.217 174.593 137.977 174.359C137.737 174.125 137.424 174.008 137.04 174.008C136.778 174.008 136.537 174.077 136.315 174.216C136.096 174.351 135.92 174.54 135.784 174.783C135.652 175.027 135.586 175.308 135.586 175.628V180H134.205ZM148.751 180.143C148.052 180.143 147.45 179.994 146.946 179.695C146.444 179.394 146.056 178.971 145.782 178.426C145.511 177.878 145.376 177.236 145.376 176.501C145.376 175.774 145.511 175.134 145.782 174.58C146.056 174.026 146.438 173.594 146.927 173.283C147.42 172.972 147.995 172.817 148.654 172.817C149.054 172.817 149.442 172.883 149.817 173.015C150.193 173.148 150.53 173.355 150.828 173.638C151.127 173.922 151.362 174.289 151.534 174.742C151.707 175.191 151.793 175.737 151.793 176.381V176.87H146.156V175.836H150.44C150.44 175.473 150.366 175.151 150.219 174.871C150.071 174.588 149.863 174.365 149.595 174.202C149.331 174.039 149.02 173.957 148.663 173.957C148.275 173.957 147.937 174.052 147.647 174.243C147.361 174.431 147.139 174.677 146.983 174.982C146.829 175.283 146.752 175.611 146.752 175.965V176.773C146.752 177.247 146.835 177.65 147.001 177.983C147.17 178.315 147.406 178.569 147.707 178.744C148.009 178.917 148.361 179.003 148.764 179.003C149.026 179.003 149.265 178.966 149.48 178.892C149.695 178.815 149.882 178.701 150.039 178.55C150.196 178.4 150.316 178.213 150.399 177.992L151.705 178.227C151.601 178.612 151.413 178.949 151.142 179.238C150.874 179.525 150.537 179.748 150.131 179.908C149.728 180.065 149.268 180.143 148.751 180.143ZM154.705 175.79V180H153.324V172.909H154.649V174.063H154.737C154.9 173.688 155.156 173.386 155.503 173.158C155.854 172.931 156.296 172.817 156.828 172.817C157.311 172.817 157.735 172.918 158.098 173.121C158.461 173.321 158.743 173.62 158.943 174.017C159.143 174.414 159.243 174.905 159.243 175.49V180H157.862V175.656C157.862 175.142 157.729 174.74 157.461 174.451C157.193 174.159 156.825 174.012 156.357 174.012C156.037 174.012 155.753 174.082 155.503 174.22C155.257 174.359 155.062 174.562 154.917 174.83C154.776 175.094 154.705 175.414 154.705 175.79ZM164.404 172.909V174.017H160.531V172.909H164.404ZM161.569 171.21H162.95V177.918C162.95 178.186 162.99 178.387 163.07 178.523C163.15 178.655 163.253 178.746 163.379 178.795C163.508 178.841 163.648 178.864 163.799 178.864C163.91 178.864 164.007 178.857 164.09 178.841C164.173 178.826 164.238 178.814 164.284 178.804L164.533 179.945C164.453 179.975 164.339 180.006 164.192 180.037C164.044 180.071 163.859 180.089 163.638 180.092C163.274 180.098 162.936 180.034 162.622 179.898C162.308 179.763 162.054 179.554 161.86 179.271C161.666 178.987 161.569 178.632 161.569 178.204V171.21ZM171.13 174.64L169.879 174.862C169.827 174.702 169.744 174.549 169.63 174.405C169.519 174.26 169.368 174.142 169.177 174.049C168.987 173.957 168.748 173.911 168.462 173.911C168.071 173.911 167.745 173.999 167.483 174.174C167.222 174.346 167.091 174.569 167.091 174.843C167.091 175.08 167.178 175.271 167.354 175.416C167.529 175.56 167.812 175.679 168.203 175.771L169.33 176.03C169.982 176.181 170.468 176.413 170.789 176.727C171.109 177.041 171.269 177.449 171.269 177.95C171.269 178.375 171.146 178.754 170.899 179.086C170.656 179.415 170.316 179.674 169.879 179.862C169.445 180.049 168.942 180.143 168.369 180.143C167.575 180.143 166.928 179.974 166.426 179.635C165.924 179.294 165.617 178.809 165.503 178.181L166.837 177.978C166.92 178.326 167.091 178.589 167.349 178.767C167.608 178.943 167.945 179.031 168.36 179.031C168.813 179.031 169.174 178.937 169.445 178.749C169.716 178.558 169.851 178.326 169.851 178.052C169.851 177.83 169.768 177.644 169.602 177.493C169.439 177.342 169.188 177.229 168.85 177.152L167.649 176.888C166.988 176.738 166.498 176.498 166.181 176.168C165.867 175.839 165.71 175.422 165.71 174.917C165.71 174.499 165.827 174.132 166.061 173.819C166.295 173.505 166.618 173.26 167.031 173.085C167.443 172.906 167.916 172.817 168.448 172.817C169.214 172.817 169.818 172.983 170.258 173.315C170.698 173.645 170.989 174.086 171.13 174.64ZM174.582 178.707L174.513 179.211C174.467 179.58 174.388 179.965 174.277 180.365C174.17 180.768 174.057 181.142 173.94 181.487C173.827 181.831 173.733 182.105 173.659 182.308H172.68C172.72 182.117 172.776 181.859 172.846 181.533C172.917 181.21 172.986 180.848 173.054 180.448C173.122 180.048 173.173 179.64 173.206 179.224L173.253 178.707H174.582ZM181.883 180.157C181.434 180.157 181.027 180.074 180.664 179.908C180.301 179.738 180.013 179.494 179.801 179.174C179.592 178.854 179.487 178.461 179.487 177.996C179.487 177.596 179.564 177.267 179.718 177.009C179.872 176.75 180.08 176.545 180.341 176.395C180.603 176.244 180.895 176.13 181.218 176.053C181.541 175.976 181.871 175.917 182.206 175.877C182.631 175.828 182.976 175.788 183.24 175.757C183.505 175.724 183.697 175.67 183.817 175.596C183.937 175.522 183.997 175.402 183.997 175.236V175.203C183.997 174.8 183.884 174.488 183.656 174.266C183.431 174.045 183.096 173.934 182.649 173.934C182.185 173.934 181.818 174.037 181.551 174.243C181.286 174.446 181.103 174.673 181.001 174.922L179.704 174.626C179.858 174.196 180.083 173.848 180.378 173.583C180.677 173.315 181.02 173.121 181.408 173.001C181.795 172.878 182.203 172.817 182.631 172.817C182.914 172.817 183.214 172.851 183.531 172.918C183.851 172.983 184.15 173.103 184.427 173.278C184.707 173.454 184.936 173.705 185.115 174.031C185.293 174.354 185.382 174.774 185.382 175.291V180H184.034V179.031H183.979C183.89 179.209 183.756 179.384 183.577 179.557C183.399 179.729 183.17 179.872 182.889 179.986C182.609 180.1 182.274 180.157 181.883 180.157ZM182.183 179.049C182.565 179.049 182.891 178.974 183.162 178.823C183.436 178.672 183.643 178.475 183.785 178.232C183.93 177.986 184.002 177.723 184.002 177.442V176.528C183.953 176.578 183.857 176.624 183.716 176.667C183.577 176.707 183.419 176.742 183.24 176.773C183.062 176.801 182.888 176.827 182.719 176.852C182.549 176.873 182.408 176.892 182.294 176.907C182.026 176.941 181.782 176.998 181.56 177.078C181.341 177.158 181.166 177.273 181.034 177.424C180.904 177.572 180.84 177.769 180.84 178.015C180.84 178.357 180.966 178.615 181.218 178.79C181.471 178.963 181.792 179.049 182.183 179.049ZM188.601 175.79V180H187.221V172.909H188.546V174.063H188.634C188.797 173.688 189.052 173.386 189.4 173.158C189.751 172.931 190.192 172.817 190.725 172.817C191.208 172.817 191.631 172.918 191.994 173.121C192.357 173.321 192.639 173.62 192.839 174.017C193.039 174.414 193.139 174.905 193.139 175.49V180H191.759V175.656C191.759 175.142 191.625 174.74 191.357 174.451C191.089 174.159 190.722 174.012 190.254 174.012C189.934 174.012 189.649 174.082 189.4 174.22C189.154 174.359 188.958 174.562 188.814 174.83C188.672 175.094 188.601 175.414 188.601 175.79ZM197.645 180.138C197.072 180.138 196.562 179.992 196.112 179.7C195.666 179.404 195.315 178.984 195.06 178.44C194.807 177.892 194.681 177.235 194.681 176.468C194.681 175.702 194.809 175.047 195.064 174.502C195.323 173.957 195.677 173.54 196.126 173.251C196.575 172.961 197.085 172.817 197.654 172.817C198.094 172.817 198.448 172.891 198.716 173.038C198.987 173.183 199.196 173.352 199.344 173.546C199.495 173.74 199.612 173.911 199.695 174.059H199.778V170.545H201.158V180H199.81V178.897H199.695C199.612 179.047 199.491 179.22 199.335 179.414C199.181 179.608 198.968 179.777 198.697 179.922C198.427 180.066 198.076 180.138 197.645 180.138ZM197.95 178.961C198.347 178.961 198.682 178.857 198.956 178.647C199.233 178.435 199.442 178.141 199.584 177.766C199.728 177.39 199.801 176.953 199.801 176.455C199.801 175.962 199.73 175.531 199.588 175.162C199.447 174.793 199.239 174.505 198.965 174.299C198.691 174.092 198.353 173.989 197.95 173.989C197.534 173.989 197.188 174.097 196.911 174.312C196.634 174.528 196.425 174.822 196.283 175.194C196.145 175.567 196.075 175.987 196.075 176.455C196.075 176.929 196.146 177.355 196.288 177.733C196.429 178.112 196.638 178.412 196.915 178.634C197.196 178.852 197.54 178.961 197.95 178.961ZM206.569 180V172.909H207.893V174.063H207.981C208.129 173.672 208.371 173.368 208.706 173.149C209.041 172.928 209.443 172.817 209.911 172.817C210.385 172.817 210.782 172.928 211.102 173.149C211.425 173.371 211.664 173.675 211.817 174.063H211.891C212.061 173.685 212.33 173.383 212.699 173.158C213.069 172.931 213.509 172.817 214.02 172.817C214.663 172.817 215.188 173.018 215.594 173.422C216.003 173.825 216.208 174.433 216.208 175.245V180H214.827V175.374C214.827 174.894 214.697 174.546 214.435 174.331C214.173 174.116 213.861 174.008 213.498 174.008C213.049 174.008 212.699 174.146 212.45 174.423C212.201 174.697 212.076 175.05 212.076 175.48V180H210.7V175.287C210.7 174.902 210.58 174.593 210.34 174.359C210.1 174.125 209.788 174.008 209.403 174.008C209.141 174.008 208.9 174.077 208.678 174.216C208.46 174.351 208.283 174.54 208.147 174.783C208.015 175.027 207.949 175.308 207.949 175.628V180H206.569ZM221.045 180.143C220.38 180.143 219.8 179.991 219.304 179.686C218.809 179.381 218.424 178.955 218.15 178.407C217.876 177.859 217.739 177.219 217.739 176.487C217.739 175.751 217.876 175.108 218.15 174.557C218.424 174.006 218.809 173.578 219.304 173.274C219.8 172.969 220.38 172.817 221.045 172.817C221.709 172.817 222.29 172.969 222.785 173.274C223.281 173.578 223.665 174.006 223.939 174.557C224.213 175.108 224.35 175.751 224.35 176.487C224.35 177.219 224.213 177.859 223.939 178.407C223.665 178.955 223.281 179.381 222.785 179.686C222.29 179.991 221.709 180.143 221.045 180.143ZM221.049 178.984C221.48 178.984 221.837 178.871 222.12 178.643C222.403 178.415 222.613 178.112 222.748 177.733C222.887 177.355 222.956 176.938 222.956 176.482C222.956 176.03 222.887 175.614 222.748 175.236C222.613 174.854 222.403 174.548 222.12 174.317C221.837 174.086 221.48 173.971 221.049 173.971C220.615 173.971 220.255 174.086 219.969 174.317C219.686 174.548 219.475 174.854 219.337 175.236C219.201 175.614 219.133 176.03 219.133 176.482C219.133 176.938 219.201 177.355 219.337 177.733C219.475 178.112 219.686 178.415 219.969 178.643C220.255 178.871 220.615 178.984 221.049 178.984ZM225.891 180V172.909H227.225V174.036H227.299C227.428 173.654 227.656 173.354 227.982 173.135C228.311 172.914 228.684 172.803 229.099 172.803C229.185 172.803 229.287 172.806 229.404 172.812C229.524 172.818 229.618 172.826 229.686 172.835V174.156C229.63 174.14 229.532 174.123 229.39 174.105C229.249 174.083 229.107 174.072 228.965 174.072C228.639 174.072 228.348 174.142 228.093 174.28C227.84 174.416 227.64 174.605 227.493 174.848C227.345 175.088 227.271 175.362 227.271 175.67V180H225.891ZM233.682 180.143C232.984 180.143 232.382 179.994 231.877 179.695C231.376 179.394 230.988 178.971 230.714 178.426C230.443 177.878 230.308 177.236 230.308 176.501C230.308 175.774 230.443 175.134 230.714 174.58C230.988 174.026 231.369 173.594 231.859 173.283C232.351 172.972 232.927 172.817 233.585 172.817C233.985 172.817 234.373 172.883 234.749 173.015C235.124 173.148 235.461 173.355 235.76 173.638C236.058 173.922 236.294 174.289 236.466 174.742C236.638 175.191 236.725 175.737 236.725 176.381V176.87H231.088V175.836H235.372C235.372 175.473 235.298 175.151 235.15 174.871C235.003 174.588 234.795 174.365 234.527 174.202C234.262 174.039 233.952 173.957 233.595 173.957C233.207 173.957 232.868 174.052 232.579 174.243C232.293 174.431 232.071 174.677 231.914 174.982C231.76 175.283 231.683 175.611 231.683 175.965V176.773C231.683 177.247 231.766 177.65 231.933 177.983C232.102 178.315 232.337 178.569 232.639 178.744C232.941 178.917 233.293 179.003 233.696 179.003C233.958 179.003 234.196 178.966 234.412 178.892C234.627 178.815 234.813 178.701 234.97 178.55C235.127 178.4 235.247 178.213 235.33 177.992L236.637 178.227C236.532 178.612 236.344 178.949 236.074 179.238C235.806 179.525 235.469 179.748 235.063 179.908C234.659 180.065 234.199 180.143 233.682 180.143ZM239.165 180.088C238.913 180.088 238.696 179.998 238.515 179.82C238.333 179.638 238.242 179.42 238.242 179.164C238.242 178.912 238.333 178.697 238.515 178.518C238.696 178.337 238.913 178.246 239.165 178.246C239.418 178.246 239.635 178.337 239.816 178.518C239.998 178.697 240.089 178.912 240.089 179.164C240.089 179.334 240.046 179.489 239.96 179.631C239.876 179.769 239.766 179.88 239.627 179.963C239.489 180.046 239.335 180.088 239.165 180.088Z" fill="#91A5BA"/>
<rect x="1" y="0.5" width="300" height="199" rx="3.5" stroke="#EBF2F7"/>
<defs>
<filter id="filter0_d_2247_16818" x="14.5" y="47" width="273" height="44" filterUnits="userSpaceOnUse" color-interpolation-filters="sRGB">
<feFlood flood-opacity="0" result="BackgroundImageFix"/>
<feColorMatrix in="SourceAlpha" type="matrix" values="0 0 0 0 0 0 0 0 0 0 0 0 0 0 0 0 0 0 127 0" result="hardAlpha"/>
<feOffset dy="1"/>
<feGaussianBlur stdDeviation="1"/>
<feColorMatrix type="matrix" values="0 0 0 0 0 0 0 0 0 0 0 0 0 0 0 0 0 0 0.05 0"/>
<feBlend mode="normal" in2="BackgroundImageFix" result="effect1_dropShadow_2247_16818"/>
<feBlend mode="normal" in="SourceGraphic" in2="effect1_dropShadow_2247_16818" result="shape"/>
</filter>
</defs>
</svg>
