<svg width="655" height="271" viewBox="0 0 655 271" fill="none" xmlns="http://www.w3.org/2000/svg">
<g filter="url(#filter0_ddd_1379_16676)">
<path d="M11 13C11 9.68629 13.6863 7 17 7H638C641.314 7 644 9.68629 644 13V134C644 137.314 641.314 140 638 140H17C13.6863 140 11 137.314 11 134V13Z" fill="white"/>
<path d="M36.2784 46H38.0341V40.9261H43.8352V46H45.5966V34.3636H43.8352V39.4205H38.0341V34.3636H36.2784V46ZM52.4091 34.3636H50.6989L47.7955 36.2614V37.9432L50.5795 36.125H50.6477V46H52.4091V34.3636Z" fill="#64778C"/>
<path d="M39.3944 63.549H53.8959C57.8143 63.549 60.7988 64.6293 62.8495 66.7899C64.9002 68.9138 65.9256 71.7336 65.9256 75.2491C65.9256 78.7646 64.9002 81.6027 62.8495 83.7632C60.7988 85.8872 57.8143 86.9492 53.8959 86.9492H46.5353V102H39.3944V63.549ZM53.6213 80.3576C55.2326 80.3576 56.4776 79.9364 57.3565 79.0942C58.2354 78.2519 58.6748 76.9702 58.6748 75.2491C58.6748 73.5279 58.2354 72.2462 57.3565 71.404C56.4776 70.5617 55.2326 70.1406 53.6213 70.1406H46.5353V80.3576H53.6213ZM70.6551 74.3153H77.4665V78.8195C78.4552 77.2449 79.6637 76.0364 81.0919 75.1942C82.52 74.3153 84.0398 73.8758 85.651 73.8758C86.6764 73.8758 87.7933 74.0589 89.0018 74.4251L87.7384 80.7421C86.8961 80.2294 85.944 79.9731 84.882 79.9731C82.7214 79.9731 80.9454 80.9618 79.5538 82.9393C78.1622 84.8801 77.4665 87.9562 77.4665 92.1675V102H70.6551V74.3153ZM104.797 102.439C101.904 102.439 99.3957 101.817 97.2717 100.572C95.1478 99.3267 93.5182 97.6239 92.383 95.4633C91.2844 93.3027 90.7351 90.8675 90.7351 88.1576C90.7351 85.4478 91.2844 83.0125 92.383 80.8519C93.5182 78.6914 95.1478 76.9885 97.2717 75.7435C99.3957 74.4984 101.904 73.8758 104.797 73.8758C107.69 73.8758 110.199 74.4984 112.323 75.7435C114.447 76.9885 116.058 78.6914 117.156 80.8519C118.292 83.0125 118.859 85.4478 118.859 88.1576C118.859 90.8675 118.292 93.3027 117.156 95.4633C116.058 97.6239 114.447 99.3267 112.323 100.572C110.199 101.817 107.69 102.439 104.797 102.439ZM104.797 96.6169C106.921 96.6169 108.606 95.8112 109.851 94.1999C111.096 92.552 111.718 90.5379 111.718 88.1576C111.718 85.7773 111.096 83.7815 109.851 82.1703C108.606 80.5224 106.921 79.6984 104.797 79.6984C102.673 79.6984 100.989 80.5224 99.7436 82.1703C98.4985 83.7815 97.876 85.7773 97.876 88.1576C97.876 90.5379 98.4985 92.552 99.7436 94.1999C100.989 95.8112 102.673 96.6169 104.797 96.6169ZM135.876 102.439C132.69 102.439 130.2 101.579 128.406 99.8577C126.612 98.1366 125.714 95.5915 125.714 92.2225V80.1379H121.43V74.3153H125.714V67.3941L132.526 63.1096V74.3153H139.831V80.1379H132.526V92.1126C132.526 93.7605 132.819 94.9323 133.405 95.6281C134.027 96.2873 134.943 96.6169 136.151 96.6169C137.067 96.6169 137.945 96.3971 138.788 95.9577L140.381 101.451C138.952 102.11 137.451 102.439 135.876 102.439ZM156.294 102.439C153.401 102.439 150.893 101.817 148.769 100.572C146.645 99.3267 145.015 97.6239 143.88 95.4633C142.781 93.3027 142.232 90.8675 142.232 88.1576C142.232 85.4478 142.781 83.0125 143.88 80.8519C145.015 78.6914 146.645 76.9885 148.769 75.7435C150.893 74.4984 153.401 73.8758 156.294 73.8758C159.187 73.8758 161.695 74.4984 163.819 75.7435C165.943 76.9885 167.555 78.6914 168.653 80.8519C169.788 83.0125 170.356 85.4478 170.356 88.1576C170.356 90.8675 169.788 93.3027 168.653 95.4633C167.555 97.6239 165.943 99.3267 163.819 100.572C161.695 101.817 159.187 102.439 156.294 102.439ZM156.294 96.6169C158.418 96.6169 160.103 95.8112 161.348 94.1999C162.593 92.552 163.215 90.5379 163.215 88.1576C163.215 85.7773 162.593 83.7815 161.348 82.1703C160.103 80.5224 158.418 79.6984 156.294 79.6984C154.17 79.6984 152.486 80.5224 151.24 82.1703C149.995 83.7815 149.373 85.7773 149.373 88.1576C149.373 90.5379 149.995 92.552 151.24 94.1999C152.486 95.8112 154.17 96.6169 156.294 96.6169ZM188.467 102.439C185.574 102.439 183.102 101.817 181.051 100.572C179.037 99.2901 177.517 97.569 176.492 95.4084C175.467 93.2478 174.954 90.8309 174.954 88.1576C174.954 85.4844 175.467 83.0675 176.492 80.9069C177.517 78.7463 179.037 77.0435 181.051 75.7984C183.102 74.5167 185.574 73.8758 188.467 73.8758C191.543 73.8758 194.143 74.5533 196.267 75.9082C198.427 77.2266 200.02 79.1857 201.046 81.7858L194.948 84.2576C194.216 82.7562 193.319 81.621 192.257 80.8519C191.232 80.0829 189.968 79.6984 188.467 79.6984C186.379 79.6984 184.786 80.4857 183.688 82.0604C182.626 83.5984 182.095 85.6309 182.095 88.1576C182.095 90.6844 182.626 92.7351 183.688 94.3098C184.786 95.8478 186.379 96.6169 188.467 96.6169C189.968 96.6169 191.232 96.2323 192.257 95.4633C193.319 94.6943 194.216 93.5591 194.948 92.0577L201.046 94.5295C200.02 97.1295 198.427 99.107 196.267 100.462C194.143 101.78 191.543 102.439 188.467 102.439ZM219.378 102.439C216.485 102.439 213.976 101.817 211.852 100.572C209.728 99.3267 208.099 97.6239 206.964 95.4633C205.865 93.3027 205.316 90.8675 205.316 88.1576C205.316 85.4478 205.865 83.0125 206.964 80.8519C208.099 78.6914 209.728 76.9885 211.852 75.7435C213.976 74.4984 216.485 73.8758 219.378 73.8758C222.271 73.8758 224.779 74.4984 226.903 75.7435C229.027 76.9885 230.638 78.6914 231.737 80.8519C232.872 83.0125 233.44 85.4478 233.44 88.1576C233.44 90.8675 232.872 93.3027 231.737 95.4633C230.638 97.6239 229.027 99.3267 226.903 100.572C224.779 101.817 222.271 102.439 219.378 102.439ZM219.378 96.6169C221.502 96.6169 223.186 95.8112 224.431 94.1999C225.676 92.552 226.299 90.5379 226.299 88.1576C226.299 85.7773 225.676 83.7815 224.431 82.1703C223.186 80.5224 221.502 79.6984 219.378 79.6984C217.254 79.6984 215.569 80.5224 214.324 82.1703C213.079 83.7815 212.457 85.7773 212.457 88.1576C212.457 90.5379 213.079 92.552 214.324 94.1999C215.569 95.8112 217.254 96.6169 219.378 96.6169ZM239.576 63.1096H246.387V102H239.576V63.1096ZM267.684 74.3153H274.496V77.1716C274.935 76.366 275.759 75.6153 276.968 74.9195C278.213 74.2237 279.622 73.8758 281.197 73.8758C285.262 73.8758 288.375 75.1758 290.535 77.7759C292.732 80.3393 293.831 83.7999 293.831 88.1576C293.831 92.5154 292.732 95.9943 290.535 98.5943C288.375 101.158 285.262 102.439 281.197 102.439C279.842 102.439 278.542 102.146 277.297 101.561C276.052 100.975 275.118 100.279 274.496 99.4732V113.206H267.684V74.3153ZM280.263 96.6169C282.131 96.6169 283.669 95.8661 284.877 94.3647C286.086 92.8633 286.69 90.7943 286.69 88.1576C286.69 85.4844 286.086 83.4153 284.877 81.9505C283.669 80.4491 282.131 79.6984 280.263 79.6984C278.396 79.6984 276.858 80.4491 275.649 81.9505C274.477 83.4153 273.891 85.4844 273.891 88.1576C273.891 90.8309 274.477 92.9182 275.649 94.4197C276.858 95.8845 278.396 96.6169 280.263 96.6169ZM299.977 74.3153H306.789V78.8195C307.777 77.2449 308.986 76.0364 310.414 75.1942C311.842 74.3153 313.362 73.8758 314.973 73.8758C315.998 73.8758 317.115 74.0589 318.324 74.4251L317.06 80.7421C316.218 80.2294 315.266 79.9731 314.204 79.9731C312.043 79.9731 310.267 80.9618 308.876 82.9393C307.484 84.8801 306.789 87.9562 306.789 92.1675V102H299.977V74.3153ZM326.288 70.7448C325.043 70.7448 323.999 70.3237 323.157 69.4814C322.315 68.6392 321.894 67.5955 321.894 66.3504C321.894 65.1053 322.315 64.0617 323.157 63.2194C323.999 62.3772 325.043 61.956 326.288 61.956C327.533 61.956 328.577 62.3772 329.419 63.2194C330.261 64.0617 330.683 65.1053 330.683 66.3504C330.683 67.5955 330.261 68.6392 329.419 69.4814C328.577 70.3237 327.533 70.7448 326.288 70.7448ZM322.883 74.3153H329.694V102H322.883V74.3153ZM337.151 74.3153H343.963V78.7646C345.025 77.2632 346.288 76.073 347.753 75.1942C349.218 74.3153 350.811 73.8758 352.532 73.8758C355.095 73.8758 357.146 74.5899 358.684 76.0181C360.259 77.4463 361.046 79.5153 361.046 82.2252V102H354.235V84.2576C354.235 82.6829 353.869 81.5294 353.136 80.797C352.44 80.0646 351.488 79.6984 350.28 79.6984C349.145 79.6984 348.101 80.1379 347.149 81.0167C346.197 81.8956 345.428 83.1956 344.842 84.9168C344.256 86.6013 343.963 88.6154 343.963 90.9591V102H337.151V74.3153ZM380.722 102.439C377.829 102.439 375.357 101.817 373.306 100.572C371.292 99.2901 369.772 97.569 368.747 95.4084C367.722 93.2478 367.209 90.8309 367.209 88.1576C367.209 85.4844 367.722 83.0675 368.747 80.9069C369.772 78.7463 371.292 77.0435 373.306 75.7984C375.357 74.5167 377.829 73.8758 380.722 73.8758C383.798 73.8758 386.398 74.5533 388.522 75.9082C390.682 77.2266 392.275 79.1857 393.301 81.7858L387.203 84.2576C386.471 82.7562 385.574 81.621 384.512 80.8519C383.487 80.0829 382.223 79.6984 380.722 79.6984C378.634 79.6984 377.041 80.4857 375.943 82.0604C374.881 83.5984 374.35 85.6309 374.35 88.1576C374.35 90.6844 374.881 92.7351 375.943 94.3098C377.041 95.8478 378.634 96.6169 380.722 96.6169C382.223 96.6169 383.487 96.2323 384.512 95.4633C385.574 94.6943 386.471 93.5591 387.203 92.0577L393.301 94.5295C392.275 97.1295 390.682 99.107 388.522 100.462C386.398 101.78 383.798 102.439 380.722 102.439ZM402.514 70.7448C401.269 70.7448 400.226 70.3237 399.383 69.4814C398.541 68.6392 398.12 67.5955 398.12 66.3504C398.12 65.1053 398.541 64.0617 399.383 63.2194C400.226 62.3772 401.269 61.956 402.514 61.956C403.759 61.956 404.803 62.3772 405.645 63.2194C406.488 64.0617 406.909 65.1053 406.909 66.3504C406.909 67.5955 406.488 68.6392 405.645 69.4814C404.803 70.3237 403.759 70.7448 402.514 70.7448ZM399.109 74.3153H405.92V102H399.109V74.3153ZM413.592 74.3153H420.403V77.1716C420.843 76.366 421.667 75.6153 422.875 74.9195C424.12 74.2237 425.53 73.8758 427.105 73.8758C431.17 73.8758 434.282 75.1758 436.443 77.7759C438.64 80.3393 439.739 83.7999 439.739 88.1576C439.739 92.5154 438.64 95.9943 436.443 98.5943C434.282 101.158 431.17 102.439 427.105 102.439C425.75 102.439 424.45 102.146 423.205 101.561C421.96 100.975 421.026 100.279 420.403 99.4732V113.206H413.592V74.3153ZM426.171 96.6169C428.039 96.6169 429.577 95.8661 430.785 94.3647C431.994 92.8633 432.598 90.7943 432.598 88.1576C432.598 85.4844 431.994 83.4153 430.785 81.9505C429.577 80.4491 428.039 79.6984 426.171 79.6984C424.304 79.6984 422.765 80.4491 421.557 81.9505C420.385 83.4153 419.799 85.4844 419.799 88.1576C419.799 90.8309 420.385 92.9182 421.557 94.4197C422.765 95.8845 424.304 96.6169 426.171 96.6169ZM445.885 63.1096H452.696V102H445.885V63.1096ZM472.123 102.439C469.121 102.439 466.612 101.744 464.598 100.352C462.621 98.9239 461.156 97.1295 460.204 94.969C459.288 92.7718 458.83 90.5013 458.83 88.1576C458.83 85.814 459.288 83.5618 460.204 81.4012C461.156 79.204 462.621 77.4097 464.598 76.0181C466.612 74.5899 469.121 73.8758 472.123 73.8758C475.016 73.8758 477.433 74.5716 479.374 75.9632C481.315 77.3181 482.743 79.0393 483.659 81.1266C484.574 83.2139 485.032 85.3562 485.032 87.5534V90.3548H465.971C466.045 92.0394 466.649 93.5042 467.784 94.7492C468.956 95.9943 470.531 96.6169 472.508 96.6169C474.046 96.6169 475.328 96.269 476.353 95.5732C477.415 94.8774 478.367 93.7971 479.209 92.3323L484.702 94.3647C483.567 96.9647 481.974 98.9605 479.924 100.352C477.909 101.744 475.309 102.439 472.123 102.439ZM478.056 84.9717C477.726 83.4337 477.067 82.1703 476.078 81.1815C475.126 80.1928 473.808 79.6984 472.123 79.6984C470.512 79.6984 469.176 80.2111 468.114 81.2365C467.052 82.2618 466.392 83.5069 466.136 84.9717H478.056ZM499.578 102.439C496.721 102.439 494.323 101.707 492.382 100.242C490.478 98.7774 489.214 97.0197 488.592 94.969L494.03 92.0577C494.543 93.4858 495.257 94.6028 496.172 95.4084C497.124 96.214 498.241 96.6169 499.523 96.6169C500.512 96.6169 501.336 96.4154 501.995 96.0126C502.654 95.5732 502.983 94.8774 502.983 93.9253C502.983 93.083 502.581 92.4056 501.775 91.8929C501.006 91.3436 499.797 90.776 498.15 90.19C497.893 90.1168 497.509 89.9703 496.996 89.7506C494.872 88.9083 493.224 87.8464 492.052 86.5647C490.881 85.283 490.295 83.6351 490.295 81.621C490.295 80.1928 490.679 78.8928 491.448 77.7209C492.217 76.5491 493.261 75.6153 494.579 74.9195C495.934 74.2237 497.454 73.8758 499.138 73.8758C501.006 73.8758 502.709 74.2787 504.247 75.0843C505.785 75.8533 506.975 76.9519 507.817 78.3801L503.752 82.1153C502.654 80.5041 501.171 79.6984 499.303 79.6984C498.571 79.6984 497.93 79.8998 497.381 80.3026C496.868 80.6688 496.612 81.1632 496.612 81.7858C496.612 82.4449 496.996 83.0675 497.765 83.6534C498.534 84.2027 500.036 84.8801 502.269 85.6858C504.393 86.4548 506.023 87.4619 507.158 88.7069C508.33 89.952 508.916 91.545 508.916 93.4858C508.916 96.1957 508.055 98.3746 506.334 100.023C504.613 101.634 502.361 102.439 499.578 102.439Z" fill="#37434F"/>
<path d="M17 8H638V6H17V8ZM643 13V134H645V13H643ZM638 139H17V141H638V139ZM12 134V13H10V134H12ZM17 139C14.2386 139 12 136.761 12 134H10C10 137.866 13.134 141 17 141V139ZM643 134C643 136.761 640.761 139 638 139V141C641.866 141 645 137.866 645 134H643ZM638 8C640.761 8 643 10.2386 643 13H645C645 9.134 641.866 6 638 6V8ZM17 6C13.134 6 10 9.13401 10 13H12C12 10.2386 14.2386 8 17 8V6Z" fill="#FAFBFC"/>
</g>
<g filter="url(#filter1_ddd_1379_16676)">
<rect x="11" y="152" width="633" height="104" rx="6" fill="white"/>
<path d="M36.2784 191H38.0341V185.926H43.8352V191H45.5966V179.364H43.8352V184.42H38.0341V179.364H36.2784V191ZM52.0455 191.159C54.4205 191.159 56.1648 189.739 56.1591 187.807C56.1648 186.335 55.2727 185.278 53.7273 185.04V184.949C54.9432 184.636 55.733 183.682 55.7273 182.375C55.733 180.665 54.3295 179.205 52.0909 179.205C49.9545 179.205 48.2386 180.494 48.1818 182.386H49.8807C49.9205 181.318 50.9261 180.67 52.0682 180.67C53.2557 180.67 54.0341 181.392 54.0284 182.466C54.0341 183.591 53.1307 184.33 51.8409 184.33H50.858V185.761H51.8409C53.4545 185.761 54.3864 186.58 54.3864 187.75C54.3864 188.881 53.4034 189.648 52.0341 189.648C50.7727 189.648 49.7898 189 49.7216 187.966H47.9375C48.0114 189.864 49.6932 191.159 52.0455 191.159Z" fill="#64778C"/>
<path d="M37.3348 205.309H40.9073L45.9144 218.361L50.9216 205.309H54.466V225H51.3717V211.666L47.0115 223.2H44.8174L40.4572 211.666V225H37.3348V205.309ZM62.1356 225.225C60.8791 225.225 59.8383 224.859 59.0131 224.128C58.2067 223.378 57.8035 222.309 57.8035 220.921C57.8035 219.477 58.3474 218.343 59.4351 217.517C60.5228 216.692 62.0043 216.28 63.8796 216.28H66.3551V215.661C66.3551 214.817 66.1019 214.198 65.5955 213.804C65.108 213.392 64.461 213.185 63.6546 213.185C62.2668 213.185 61.3573 213.823 60.926 215.098L58.338 214.508C58.563 213.345 59.1632 212.407 60.1383 211.695C61.1135 210.963 62.2856 210.597 63.6546 210.597C65.4174 210.597 66.7958 211.085 67.7897 212.06C68.8024 213.017 69.3087 214.414 69.3087 216.252V225H66.9177L66.5238 223.087C65.4737 224.512 64.0109 225.225 62.1356 225.225ZM62.8388 222.637C63.4202 222.637 63.9734 222.506 64.4985 222.243C65.0423 221.962 65.483 221.559 65.8206 221.034C66.1769 220.49 66.3551 219.833 66.3551 219.065V218.699H63.9921C62.9795 218.699 62.2106 218.886 61.6855 219.261C61.1604 219.618 60.8978 220.162 60.8978 220.893C60.8978 221.418 61.076 221.84 61.4323 222.159C61.7886 222.478 62.2575 222.637 62.8388 222.637ZM73.0669 205.084H76.0487V216.589L81.0558 210.822H84.7127L78.918 217.349L85.1347 225H81.4778L76.0487 218.08V225H73.0669V205.084ZM88.87 208.741C88.2887 208.741 87.8105 208.553 87.4354 208.178C87.0604 207.784 86.8728 207.306 86.8728 206.744C86.8728 206.181 87.0604 205.712 87.4354 205.337C87.8105 204.943 88.2887 204.746 88.87 204.746C89.4514 204.746 89.9296 204.943 90.3047 205.337C90.6797 205.712 90.8673 206.181 90.8673 206.744C90.8673 207.306 90.6797 207.784 90.3047 208.178C89.9296 208.553 89.4514 208.741 88.87 208.741ZM87.3792 210.822H90.3609V225H87.3792V210.822ZM94.3292 210.822H97.311V213.298C97.8361 212.473 98.4925 211.816 99.2801 211.329C100.068 210.841 100.921 210.597 101.84 210.597C103.153 210.597 104.203 210.982 104.991 211.751C105.797 212.501 106.2 213.579 106.2 214.986V225H103.246V215.773C103.246 214.911 103.04 214.264 102.628 213.832C102.234 213.401 101.671 213.185 100.94 213.185C100.283 213.185 99.6739 213.429 99.1113 213.917C98.5675 214.386 98.1268 215.07 97.7892 215.97C97.4704 216.87 97.311 217.939 97.311 219.177V225H94.3292V210.822ZM115.081 230.964C113.206 230.964 111.696 230.551 110.552 229.726C109.408 228.919 108.836 227.775 108.836 226.294C108.836 225.694 108.939 225.15 109.146 224.662C109.371 224.175 109.68 223.762 110.074 223.425C109.511 222.862 109.23 222.121 109.23 221.202C109.23 220.584 109.38 220.03 109.68 219.543C109.999 219.055 110.43 218.661 110.974 218.361C110.299 217.536 109.961 216.542 109.961 215.38C109.961 214.423 110.186 213.589 110.637 212.876C111.087 212.145 111.696 211.582 112.465 211.188C113.253 210.794 114.115 210.597 115.053 210.597C115.953 210.597 116.816 210.804 117.641 211.216L120.229 209.81L121.467 211.863L119.441 212.904C119.891 213.598 120.116 214.423 120.116 215.38C120.116 216.336 119.891 217.17 119.441 217.883C118.991 218.596 118.382 219.149 117.613 219.543C116.844 219.918 115.991 220.105 115.053 220.105C114.228 220.105 113.478 219.965 112.803 219.683C112.259 219.965 111.987 220.368 111.987 220.893C111.987 221.268 112.118 221.559 112.381 221.765C112.643 221.953 112.999 222.046 113.45 222.046H116.572C118.035 222.046 119.188 222.393 120.032 223.087C120.895 223.762 121.326 224.756 121.326 226.069C121.326 227.7 120.726 228.919 119.526 229.726C118.325 230.551 116.844 230.964 115.081 230.964ZM115.053 217.658C115.709 217.658 116.244 217.452 116.656 217.039C117.088 216.627 117.303 216.073 117.303 215.38C117.303 214.667 117.088 214.104 116.656 213.692C116.244 213.26 115.709 213.045 115.053 213.045C114.397 213.045 113.853 213.26 113.421 213.692C112.99 214.104 112.774 214.667 112.774 215.38C112.774 216.073 112.99 216.627 113.421 217.039C113.853 217.452 114.397 217.658 115.053 217.658ZM115.081 228.432C116.094 228.432 116.891 228.244 117.472 227.869C118.072 227.513 118.372 226.988 118.372 226.294C118.372 225.656 118.157 225.206 117.725 224.944C117.313 224.681 116.722 224.55 115.953 224.55H113.759C113.159 224.55 112.634 224.512 112.184 224.437C111.809 224.869 111.621 225.431 111.621 226.125C111.621 226.857 111.921 227.419 112.521 227.813C113.14 228.226 113.993 228.432 115.081 228.432ZM135.503 225.225C134.041 225.225 132.84 224.85 131.903 224.1C130.965 223.35 130.346 222.44 130.046 221.371L132.437 220.105C133.037 221.793 134.059 222.637 135.503 222.637C136.085 222.637 136.563 222.496 136.938 222.215C137.313 221.915 137.501 221.484 137.501 220.921C137.501 220.527 137.36 220.199 137.079 219.937C136.816 219.674 136.507 219.468 136.15 219.318C135.794 219.149 135.213 218.905 134.406 218.586C133.3 218.174 132.447 217.649 131.847 217.011C131.246 216.355 130.946 215.511 130.946 214.479C130.946 213.748 131.134 213.092 131.509 212.51C131.884 211.91 132.4 211.441 133.056 211.104C133.731 210.766 134.481 210.597 135.307 210.597C136.263 210.597 137.107 210.794 137.838 211.188C138.57 211.563 139.151 212.126 139.582 212.876L137.754 214.536C137.154 213.635 136.347 213.185 135.335 213.185C134.885 213.185 134.51 213.307 134.209 213.551C133.909 213.795 133.759 214.123 133.759 214.536C133.759 214.948 133.966 215.314 134.378 215.633C134.81 215.952 135.597 216.327 136.741 216.758C139.029 217.583 140.173 218.915 140.173 220.752C140.173 222.121 139.742 223.209 138.879 224.015C138.035 224.822 136.91 225.225 135.503 225.225ZM146.575 224.353L141.456 210.822H144.465L148.038 220.499L151.385 210.822H154.367L147.138 230.739H144.269L146.575 224.353ZM160.886 225.225C159.424 225.225 158.223 224.85 157.286 224.1C156.348 223.35 155.729 222.44 155.429 221.371L157.82 220.105C158.42 221.793 159.442 222.637 160.886 222.637C161.468 222.637 161.946 222.496 162.321 222.215C162.696 221.915 162.884 221.484 162.884 220.921C162.884 220.527 162.743 220.199 162.462 219.937C162.199 219.674 161.89 219.468 161.533 219.318C161.177 219.149 160.596 218.905 159.789 218.586C158.683 218.174 157.83 217.649 157.229 217.011C156.629 216.355 156.329 215.511 156.329 214.479C156.329 213.748 156.517 213.092 156.892 212.51C157.267 211.91 157.783 211.441 158.439 211.104C159.114 210.766 159.864 210.597 160.689 210.597C161.646 210.597 162.49 210.794 163.221 211.188C163.953 211.563 164.534 212.126 164.965 212.876L163.137 214.536C162.537 213.635 161.73 213.185 160.718 213.185C160.267 213.185 159.892 213.307 159.592 213.551C159.292 213.795 159.142 214.123 159.142 214.536C159.142 214.948 159.349 215.314 159.761 215.633C160.192 215.952 160.98 216.327 162.124 216.758C164.412 217.583 165.556 218.915 165.556 220.752C165.556 222.121 165.125 223.209 164.262 224.015C163.418 224.822 162.293 225.225 160.886 225.225ZM173.843 225.225C172.361 225.225 171.199 224.812 170.355 223.987C169.53 223.162 169.117 221.924 169.117 220.274V213.41H166.838V210.822H169.117V206.969L172.099 205.084V210.822H175.868V213.41H172.099V220.33C172.099 221.156 172.258 221.746 172.577 222.103C172.896 222.459 173.365 222.637 173.984 222.637C174.546 222.637 175.043 222.515 175.474 222.271L176.178 224.719C175.503 225.056 174.724 225.225 173.843 225.225ZM183.938 225.225C182.494 225.225 181.275 224.878 180.282 224.184C179.288 223.49 178.537 222.59 178.031 221.484C177.544 220.359 177.3 219.168 177.3 217.911C177.3 216.655 177.544 215.473 178.031 214.367C178.537 213.242 179.288 212.332 180.282 211.638C181.275 210.944 182.494 210.597 183.938 210.597C185.345 210.597 186.536 210.926 187.511 211.582C188.486 212.238 189.218 213.092 189.705 214.142C190.193 215.192 190.436 216.298 190.436 217.461V218.699H180.394C180.432 219.805 180.769 220.743 181.407 221.512C182.063 222.262 182.954 222.637 184.079 222.637C184.942 222.637 185.654 222.44 186.217 222.046C186.798 221.653 187.323 221.034 187.792 220.19L190.24 221.146C189.621 222.515 188.805 223.537 187.792 224.212C186.78 224.887 185.495 225.225 183.938 225.225ZM187.398 216.28C187.23 215.361 186.855 214.62 186.273 214.057C185.711 213.476 184.932 213.185 183.938 213.185C183.02 213.185 182.26 213.485 181.66 214.086C181.06 214.667 180.675 215.398 180.507 216.28H187.398ZM193.691 210.822H196.673V213.298C197.742 211.498 199.139 210.597 200.864 210.597C201.839 210.597 202.664 210.851 203.339 211.357C204.033 211.845 204.521 212.585 204.802 213.579C205.308 212.66 205.946 211.938 206.715 211.413C207.503 210.869 208.337 210.597 209.219 210.597C210.569 210.597 211.6 210.982 212.313 211.751C213.025 212.52 213.382 213.617 213.382 215.042V225H210.428V215.52C210.428 214.714 210.259 214.123 209.922 213.748C209.603 213.373 209.106 213.185 208.431 213.185C207.793 213.185 207.212 213.42 206.687 213.889C206.181 214.357 205.777 215.051 205.477 215.97C205.177 216.87 205.027 217.968 205.027 219.261V225H202.074V215.52C202.074 214.714 201.905 214.123 201.567 213.748C201.248 213.373 200.751 213.185 200.076 213.185C199.082 213.185 198.267 213.739 197.629 214.845C196.991 215.933 196.673 217.48 196.673 219.487V225H193.691V210.822ZM221.707 225.225C220.244 225.225 219.044 224.85 218.106 224.1C217.168 223.35 216.549 222.44 216.249 221.371L218.64 220.105C219.24 221.793 220.262 222.637 221.707 222.637C222.288 222.637 222.766 222.496 223.141 222.215C223.516 221.915 223.704 221.484 223.704 220.921C223.704 220.527 223.563 220.199 223.282 219.937C223.019 219.674 222.71 219.468 222.353 219.318C221.997 219.149 221.416 218.905 220.609 218.586C219.503 218.174 218.65 217.649 218.05 217.011C217.449 216.355 217.149 215.511 217.149 214.479C217.149 213.748 217.337 213.092 217.712 212.51C218.087 211.91 218.603 211.441 219.259 211.104C219.934 210.766 220.684 210.597 221.51 210.597C222.466 210.597 223.31 210.794 224.041 211.188C224.773 211.563 225.354 212.126 225.785 212.876L223.957 214.536C223.357 213.635 222.55 213.185 221.538 213.185C221.088 213.185 220.713 213.307 220.413 213.551C220.112 213.795 219.962 214.123 219.962 214.536C219.962 214.948 220.169 215.314 220.581 215.633C221.013 215.952 221.8 216.327 222.944 216.758C225.232 217.583 226.376 218.915 226.376 220.752C226.376 222.121 225.945 223.209 225.082 224.015C224.238 224.822 223.113 225.225 221.707 225.225ZM238.118 208.741C237.537 208.741 237.059 208.553 236.684 208.178C236.309 207.784 236.121 207.306 236.121 206.744C236.121 206.181 236.309 205.712 236.684 205.337C237.059 204.943 237.537 204.746 238.118 204.746C238.7 204.746 239.178 204.943 239.553 205.337C239.928 205.712 240.116 206.181 240.116 206.744C240.116 207.306 239.928 207.784 239.553 208.178C239.178 208.553 238.7 208.741 238.118 208.741ZM236.627 210.822H239.609V225H236.627V210.822ZM243.578 210.822H246.559V213.298C247.084 212.473 247.741 211.816 248.528 211.329C249.316 210.841 250.169 210.597 251.088 210.597C252.401 210.597 253.451 210.982 254.239 211.751C255.045 212.501 255.448 213.579 255.448 214.986V225H252.495V215.773C252.495 214.911 252.288 214.264 251.876 213.832C251.482 213.401 250.92 213.185 250.188 213.185C249.532 213.185 248.922 213.429 248.36 213.917C247.816 214.386 247.375 215.07 247.038 215.97C246.719 216.87 246.559 217.939 246.559 219.177V225H243.578V210.822ZM264.524 225.225C263.042 225.225 261.879 224.812 261.036 223.987C260.21 223.162 259.798 221.924 259.798 220.274V213.41H257.519V210.822H259.798V206.969L262.78 205.084V210.822H266.549V213.41H262.78V220.33C262.78 221.156 262.939 221.746 263.258 222.103C263.577 222.459 264.045 222.637 264.664 222.637C265.227 222.637 265.724 222.515 266.155 222.271L266.858 224.719C266.183 225.056 265.405 225.225 264.524 225.225ZM274.619 225.225C273.175 225.225 271.956 224.878 270.962 224.184C269.968 223.49 269.218 222.59 268.712 221.484C268.224 220.359 267.981 219.168 267.981 217.911C267.981 216.655 268.224 215.473 268.712 214.367C269.218 213.242 269.968 212.332 270.962 211.638C271.956 210.944 273.175 210.597 274.619 210.597C276.026 210.597 277.217 210.926 278.192 211.582C279.167 212.238 279.898 213.092 280.386 214.142C280.873 215.192 281.117 216.298 281.117 217.461V218.699H271.075C271.112 219.805 271.45 220.743 272.088 221.512C272.744 222.262 273.635 222.637 274.76 222.637C275.623 222.637 276.335 222.44 276.898 222.046C277.479 221.653 278.004 221.034 278.473 220.19L280.92 221.146C280.302 222.515 279.486 223.537 278.473 224.212C277.46 224.887 276.176 225.225 274.619 225.225ZM278.079 216.28C277.91 215.361 277.535 214.62 276.954 214.057C276.391 213.476 275.613 213.185 274.619 213.185C273.7 213.185 272.941 213.485 272.341 214.086C271.741 214.667 271.356 215.398 271.187 216.28H278.079ZM284.372 210.822H287.353V213.185C287.822 212.341 288.422 211.704 289.154 211.273C289.885 210.822 290.682 210.597 291.545 210.597C292.089 210.597 292.698 210.71 293.373 210.935L292.811 213.692C292.342 213.41 291.798 213.27 291.179 213.27C290.073 213.27 289.154 213.814 288.422 214.901C287.71 215.97 287.353 217.611 287.353 219.824V225H284.372V210.822ZM301.33 225.225C299.886 225.225 298.63 224.897 297.561 224.24C296.51 223.584 295.704 222.703 295.141 221.596C294.579 220.49 294.298 219.261 294.298 217.911C294.298 216.561 294.579 215.333 295.141 214.226C295.704 213.12 296.51 212.238 297.561 211.582C298.63 210.926 299.886 210.597 301.33 210.597C302.755 210.597 304.002 210.926 305.071 211.582C306.14 212.238 306.956 213.12 307.519 214.226C308.081 215.333 308.363 216.561 308.363 217.911C308.363 219.261 308.081 220.49 307.519 221.596C306.956 222.703 306.14 223.584 305.071 224.24C304.002 224.897 302.755 225.225 301.33 225.225ZM301.33 222.637C302.549 222.637 303.505 222.178 304.199 221.259C304.893 220.34 305.24 219.224 305.24 217.911C305.24 216.599 304.893 215.483 304.199 214.564C303.505 213.645 302.549 213.185 301.33 213.185C300.111 213.185 299.145 213.645 298.433 214.564C297.739 215.483 297.392 216.599 297.392 217.911C297.392 219.224 297.739 220.34 298.433 221.259C299.145 222.178 300.111 222.637 301.33 222.637ZM311.622 210.822H314.604V212.454C314.886 211.966 315.364 211.535 316.039 211.16C316.733 210.785 317.502 210.597 318.346 210.597C320.408 210.597 321.993 211.263 323.1 212.595C324.206 213.926 324.759 215.698 324.759 217.911C324.759 220.124 324.206 221.896 323.1 223.228C321.993 224.559 320.408 225.225 318.346 225.225C317.614 225.225 316.892 225.066 316.18 224.747C315.486 224.409 314.961 223.987 314.604 223.481V230.739H311.622V210.822ZM317.98 222.637C319.086 222.637 319.977 222.215 320.652 221.371C321.327 220.509 321.665 219.355 321.665 217.911C321.665 216.467 321.327 215.323 320.652 214.479C319.977 213.617 319.086 213.185 317.98 213.185C316.892 213.185 316.011 213.617 315.336 214.479C314.661 215.323 314.323 216.467 314.323 217.911C314.323 219.355 314.661 220.509 315.336 221.371C316.011 222.215 316.892 222.637 317.98 222.637ZM333.874 225.225C332.43 225.225 331.211 224.878 330.217 224.184C329.223 223.49 328.473 222.59 327.966 221.484C327.479 220.359 327.235 219.168 327.235 217.911C327.235 216.655 327.479 215.473 327.966 214.367C328.473 213.242 329.223 212.332 330.217 211.638C331.211 210.944 332.43 210.597 333.874 210.597C335.28 210.597 336.471 210.926 337.446 211.582C338.421 212.238 339.153 213.092 339.64 214.142C340.128 215.192 340.372 216.298 340.372 217.461V218.699H330.329C330.367 219.805 330.704 220.743 331.342 221.512C331.998 222.262 332.889 222.637 334.014 222.637C334.877 222.637 335.589 222.44 336.152 222.046C336.733 221.653 337.259 221.034 337.727 220.19L340.175 221.146C339.556 222.515 338.74 223.537 337.727 224.212C336.715 224.887 335.43 225.225 333.874 225.225ZM337.334 216.28C337.165 215.361 336.79 214.62 336.208 214.057C335.646 213.476 334.867 213.185 333.874 213.185C332.955 213.185 332.195 213.485 331.595 214.086C330.995 214.667 330.61 215.398 330.442 216.28H337.334ZM343.626 210.822H346.608V213.185C347.076 212.341 347.677 211.704 348.408 211.273C349.139 210.822 349.936 210.597 350.799 210.597C351.343 210.597 351.952 210.71 352.627 210.935L352.065 213.692C351.596 213.41 351.052 213.27 350.433 213.27C349.327 213.27 348.408 213.814 347.677 214.901C346.964 215.97 346.608 217.611 346.608 219.824V225H343.626V210.822ZM357.885 225.225C356.629 225.225 355.588 224.859 354.763 224.128C353.956 223.378 353.553 222.309 353.553 220.921C353.553 219.477 354.097 218.343 355.185 217.517C356.272 216.692 357.754 216.28 359.629 216.28H362.105V215.661C362.105 214.817 361.851 214.198 361.345 213.804C360.858 213.392 360.211 213.185 359.404 213.185C358.016 213.185 357.107 213.823 356.676 215.098L354.088 214.508C354.313 213.345 354.913 212.407 355.888 211.695C356.863 210.963 358.035 210.597 359.404 210.597C361.167 210.597 362.545 211.085 363.539 212.06C364.552 213.017 365.058 214.414 365.058 216.252V225H362.667L362.273 223.087C361.223 224.512 359.76 225.225 357.885 225.225ZM358.588 222.637C359.17 222.637 359.723 222.506 360.248 222.243C360.792 221.962 361.233 221.559 361.57 221.034C361.926 220.49 362.105 219.833 362.105 219.065V218.699H359.742C358.729 218.699 357.96 218.886 357.435 219.261C356.91 219.618 356.647 220.162 356.647 220.893C356.647 221.418 356.826 221.84 357.182 222.159C357.538 222.478 358.007 222.637 358.588 222.637ZM375.54 225.225C374.714 225.225 373.946 225.047 373.233 224.691C372.539 224.316 372.061 223.894 371.798 223.425V225H368.816V205.084H371.798V212.313C372.173 211.826 372.698 211.423 373.374 211.104C374.067 210.766 374.789 210.597 375.54 210.597C377.602 210.597 379.187 211.263 380.294 212.595C381.4 213.926 381.953 215.698 381.953 217.911C381.953 220.124 381.4 221.896 380.294 223.228C379.187 224.559 377.602 225.225 375.54 225.225ZM375.174 222.637C376.28 222.637 377.171 222.215 377.846 221.371C378.521 220.509 378.859 219.355 378.859 217.911C378.859 216.467 378.521 215.323 377.846 214.479C377.171 213.617 376.28 213.185 375.174 213.185C374.086 213.185 373.205 213.617 372.53 214.479C371.855 215.323 371.517 216.467 371.517 217.911C371.517 219.355 371.855 220.509 372.53 221.371C373.205 222.215 374.086 222.637 375.174 222.637ZM385.217 205.084H388.198V225H385.217V205.084ZM398.1 225.225C396.656 225.225 395.437 224.878 394.443 224.184C393.449 223.49 392.699 222.59 392.193 221.484C391.705 220.359 391.461 219.168 391.461 217.911C391.461 216.655 391.705 215.473 392.193 214.367C392.699 213.242 393.449 212.332 394.443 211.638C395.437 210.944 396.656 210.597 398.1 210.597C399.507 210.597 400.697 210.926 401.673 211.582C402.648 212.238 403.379 213.092 403.867 214.142C404.354 215.192 404.598 216.298 404.598 217.461V218.699H394.556C394.593 219.805 394.931 220.743 395.568 221.512C396.225 222.262 397.116 222.637 398.241 222.637C399.103 222.637 399.816 222.44 400.379 222.046C400.96 221.653 401.485 221.034 401.954 220.19L404.401 221.146C403.782 222.515 402.967 223.537 401.954 224.212C400.941 224.887 399.657 225.225 398.1 225.225ZM401.56 216.28C401.391 215.361 401.016 214.62 400.435 214.057C399.872 213.476 399.094 213.185 398.1 213.185C397.181 213.185 396.422 213.485 395.822 214.086C395.221 214.667 394.837 215.398 394.668 216.28H401.56Z" fill="#4D5C6C"/>
<rect x="11.5" y="152.5" width="632" height="103" rx="5.5" stroke="#FAFBFC"/>
</g>
<defs>
<filter id="filter0_ddd_1379_16676" x="0" y="0" width="655" height="155" filterUnits="userSpaceOnUse" color-interpolation-filters="sRGB">
<feFlood flood-opacity="0" result="BackgroundImageFix"/>
<feColorMatrix in="SourceAlpha" type="matrix" values="0 0 0 0 0 0 0 0 0 0 0 0 0 0 0 0 0 0 127 0" result="hardAlpha"/>
<feOffset dy="0.5"/>
<feGaussianBlur stdDeviation="0.5"/>
<feColorMatrix type="matrix" values="0 0 0 0 0.152941 0 0 0 0 0.196078 0 0 0 0 0.337255 0 0 0 0.15 0"/>
<feBlend mode="multiply" in2="BackgroundImageFix" result="effect1_dropShadow_1379_16676"/>
<feColorMatrix in="SourceAlpha" type="matrix" values="0 0 0 0 0 0 0 0 0 0 0 0 0 0 0 0 0 0 127 0" result="hardAlpha"/>
<feOffset dy="2.59259"/>
<feGaussianBlur stdDeviation="3.22106"/>
<feColorMatrix type="matrix" values="0 0 0 0 0.152941 0 0 0 0 0.196078 0 0 0 0 0.337255 0 0 0 0.08 0"/>
<feBlend mode="normal" in2="effect1_dropShadow_1379_16676" result="effect2_dropShadow_1379_16676"/>
<feColorMatrix in="SourceAlpha" type="matrix" values="0 0 0 0 0 0 0 0 0 0 0 0 0 0 0 0 0 0 127 0" result="hardAlpha"/>
<feOffset dy="4"/>
<feGaussianBlur stdDeviation="5.5"/>
<feColorMatrix type="matrix" values="0 0 0 0 0.152941 0 0 0 0 0.196078 0 0 0 0 0.337255 0 0 0 0.04 0"/>
<feBlend mode="normal" in2="effect2_dropShadow_1379_16676" result="effect3_dropShadow_1379_16676"/>
<feBlend mode="normal" in="SourceGraphic" in2="effect3_dropShadow_1379_16676" result="shape"/>
</filter>
<filter id="filter1_ddd_1379_16676" x="0" y="145" width="655" height="126" filterUnits="userSpaceOnUse" color-interpolation-filters="sRGB">
<feFlood flood-opacity="0" result="BackgroundImageFix"/>
<feColorMatrix in="SourceAlpha" type="matrix" values="0 0 0 0 0 0 0 0 0 0 0 0 0 0 0 0 0 0 127 0" result="hardAlpha"/>
<feOffset dy="0.5"/>
<feGaussianBlur stdDeviation="0.5"/>
<feColorMatrix type="matrix" values="0 0 0 0 0.152941 0 0 0 0 0.196078 0 0 0 0 0.337255 0 0 0 0.15 0"/>
<feBlend mode="multiply" in2="BackgroundImageFix" result="effect1_dropShadow_1379_16676"/>
<feColorMatrix in="SourceAlpha" type="matrix" values="0 0 0 0 0 0 0 0 0 0 0 0 0 0 0 0 0 0 127 0" result="hardAlpha"/>
<feOffset dy="2.59259"/>
<feGaussianBlur stdDeviation="3.22106"/>
<feColorMatrix type="matrix" values="0 0 0 0 0.152941 0 0 0 0 0.196078 0 0 0 0 0.337255 0 0 0 0.08 0"/>
<feBlend mode="normal" in2="effect1_dropShadow_1379_16676" result="effect2_dropShadow_1379_16676"/>
<feColorMatrix in="SourceAlpha" type="matrix" values="0 0 0 0 0 0 0 0 0 0 0 0 0 0 0 0 0 0 127 0" result="hardAlpha"/>
<feOffset dy="4"/>
<feGaussianBlur stdDeviation="5.5"/>
<feColorMatrix type="matrix" values="0 0 0 0 0.152941 0 0 0 0 0.196078 0 0 0 0 0.337255 0 0 0 0.04 0"/>
<feBlend mode="normal" in2="effect2_dropShadow_1379_16676" result="effect3_dropShadow_1379_16676"/>
<feBlend mode="normal" in="SourceGraphic" in2="effect3_dropShadow_1379_16676" result="shape"/>
</filter>
</defs>
</svg>
