<svg width="300" height="118" viewBox="0 0 300 118" fill="none" xmlns="http://www.w3.org/2000/svg">
<rect x="0.5" y="0.5" width="299" height="117" rx="3.5" fill="white"/>
<path d="M34.8122 29.3936H39.3819V49.7818H49.8221V54H34.8122V29.3936ZM60.9438 54.2812C59.0925 54.2812 57.4872 53.8828 56.128 53.086C54.7688 52.2893 53.7259 51.1996 52.9995 49.8169C52.2964 48.4343 51.9449 46.8759 51.9449 45.1417C51.9449 43.4075 52.2964 41.8491 52.9995 40.4665C53.7259 39.0838 54.7688 37.9941 56.128 37.1973C57.4872 36.4006 59.0925 36.0022 60.9438 36.0022C62.7952 36.0022 64.4004 36.4006 65.7597 37.1973C67.1189 37.9941 68.15 39.0838 68.853 40.4665C69.5795 41.8491 69.9427 43.4075 69.9427 45.1417C69.9427 46.8759 69.5795 48.4343 68.853 49.8169C68.15 51.1996 67.1189 52.2893 65.7597 53.086C64.4004 53.8828 62.7952 54.2812 60.9438 54.2812ZM60.9438 50.5551C62.303 50.5551 63.381 50.0395 64.1778 49.0084C64.9746 47.9539 65.373 46.6649 65.373 45.1417C65.373 43.6184 64.9746 42.3413 64.1778 41.3101C63.381 40.2556 62.303 39.7283 60.9438 39.7283C59.5846 39.7283 58.5066 40.2556 57.7098 41.3101C56.9131 42.3413 56.5147 43.6184 56.5147 45.1417C56.5147 46.6649 56.9131 47.9539 57.7098 49.0084C58.5066 50.0395 59.5846 50.5551 60.9438 50.5551ZM73.8693 36.2834H78.2282V39.1659C78.8609 38.1582 79.6343 37.3848 80.5482 36.8458C81.4622 36.2834 82.4347 36.0022 83.4658 36.0022C84.122 36.0022 84.8368 36.1193 85.6101 36.3537L84.8016 40.3962C84.2626 40.0681 83.6533 39.904 82.9737 39.904C81.5911 39.904 80.4545 40.5368 79.564 41.8023C78.6734 43.0443 78.2282 45.0128 78.2282 47.7078V54H73.8693V36.2834ZM95.2261 54.2812C93.3044 54.2812 91.6992 53.836 90.4103 52.9454C89.1448 52.0315 88.2074 50.8832 87.5981 49.5005C87.0122 48.0945 86.7193 46.6415 86.7193 45.1417C86.7193 43.6419 87.0122 42.2006 87.5981 40.818C88.2074 39.4119 89.1448 38.2636 90.4103 37.3731C91.6992 36.4592 93.3044 36.0022 95.2261 36.0022C97.0774 36.0022 98.6241 36.4474 99.8662 37.338C101.108 38.205 102.022 39.3065 102.608 40.6422C103.194 41.978 103.487 43.3489 103.487 44.755V46.5478H91.2891C91.3359 47.6258 91.7226 48.5632 92.4491 49.3599C93.199 50.1567 94.2067 50.5551 95.4722 50.5551C96.4564 50.5551 97.2766 50.3325 97.9328 49.8872C98.6124 49.442 99.2217 48.7506 99.7607 47.8132L103.276 49.1139C102.549 50.7777 101.53 52.0549 100.218 52.9454C98.9288 53.836 97.2649 54.2812 95.2261 54.2812ZM99.0225 43.1029C98.8116 42.1186 98.3898 41.3101 97.757 40.6774C97.1477 40.0447 96.3041 39.7283 95.2261 39.7283C94.195 39.7283 93.3396 40.0564 92.66 40.7125C91.9804 41.3687 91.5586 42.1655 91.3945 43.1029H99.0225ZM107.408 36.2834H111.767V39.1307C112.446 38.0996 113.185 37.3262 113.981 36.8107C114.802 36.2717 115.762 36.0022 116.864 36.0022C118.012 36.0022 119.032 36.3068 119.922 36.9161C120.813 37.5254 121.445 38.4394 121.82 39.658C122.453 38.5097 123.238 37.6192 124.175 36.9864C125.136 36.3303 126.156 36.0022 127.234 36.0022C128.874 36.0022 130.163 36.4826 131.1 37.4434C132.038 38.4042 132.506 39.74 132.506 41.4507V54H128.148V42.1889C128.148 40.5485 127.421 39.7283 125.968 39.7283C124.843 39.7283 123.918 40.361 123.191 41.6265C122.488 42.892 122.137 44.7199 122.137 47.1102V54H117.778V42.1889C117.778 40.5485 117.051 39.7283 115.598 39.7283C114.473 39.7283 113.548 40.3962 112.821 41.732C112.118 43.0443 111.767 44.9659 111.767 47.4969V54H107.408V36.2834ZM148.309 33.9985C147.513 33.9985 146.845 33.729 146.306 33.19C145.767 32.651 145.497 31.9831 145.497 31.1864C145.497 30.3896 145.767 29.7217 146.306 29.1827C146.845 28.6437 147.513 28.3742 148.309 28.3742C149.106 28.3742 149.774 28.6437 150.313 29.1827C150.852 29.7217 151.122 30.3896 151.122 31.1864C151.122 31.9831 150.852 32.651 150.313 33.19C149.774 33.729 149.106 33.9985 148.309 33.9985ZM146.13 36.2834H150.489V54H146.13V36.2834ZM155.399 36.2834H159.757V38.1113C160.039 37.5957 160.566 37.1153 161.339 36.6701C162.136 36.2248 163.038 36.0022 164.046 36.0022C166.647 36.0022 168.639 36.8341 170.022 38.498C171.428 40.1384 172.131 42.353 172.131 45.1417C172.131 47.9304 171.428 50.1567 170.022 51.8206C168.639 53.461 166.647 54.2812 164.046 54.2812C163.179 54.2812 162.347 54.0937 161.55 53.7188C160.753 53.3438 160.156 52.8986 159.757 52.383V61.171H155.399V36.2834ZM163.448 50.5551C164.644 50.5551 165.628 50.0747 166.401 49.1139C167.175 48.1531 167.561 46.829 167.561 45.1417C167.561 43.431 167.175 42.1069 166.401 41.1695C165.628 40.2087 164.644 39.7283 163.448 39.7283C162.253 39.7283 161.269 40.2087 160.496 41.1695C159.746 42.1069 159.371 43.431 159.371 45.1417C159.371 46.8524 159.746 48.1882 160.496 49.149C161.269 50.0864 162.253 50.5551 163.448 50.5551ZM181.417 54.2812C179.589 54.2812 178.054 53.8125 176.812 52.8751C175.594 51.9377 174.785 50.8129 174.387 49.5005L177.867 47.6375C178.195 48.5514 178.652 49.2662 179.238 49.7818C179.847 50.2973 180.562 50.5551 181.382 50.5551C182.015 50.5551 182.542 50.4262 182.964 50.1684C183.386 49.8872 183.597 49.442 183.597 48.8327C183.597 48.2937 183.339 47.8601 182.823 47.532C182.331 47.1805 181.558 46.8173 180.503 46.4423C180.339 46.3955 180.093 46.3017 179.765 46.1611C178.406 45.6221 177.351 44.9425 176.601 44.1223C175.851 43.3021 175.476 42.2475 175.476 40.9586C175.476 40.0447 175.723 39.2127 176.215 38.4628C176.707 37.7129 177.375 37.1153 178.218 36.6701C179.085 36.2248 180.058 36.0022 181.136 36.0022C182.331 36.0022 183.421 36.26 184.405 36.7755C185.389 37.2676 186.151 37.9707 186.69 38.8846L184.089 41.275C183.386 40.2438 182.437 39.7283 181.241 39.7283C180.773 39.7283 180.363 39.8572 180.011 40.115C179.683 40.3493 179.519 40.6657 179.519 41.0641C179.519 41.4859 179.765 41.8843 180.257 42.2592C180.749 42.6108 181.71 43.0443 183.14 43.5599C184.499 44.052 185.542 44.6964 186.268 45.4932C187.018 46.29 187.393 47.3094 187.393 48.5514C187.393 50.2856 186.842 51.68 185.741 52.7345C184.639 53.7657 183.198 54.2812 181.417 54.2812ZM196.239 54.2812C194.599 54.2812 193.275 53.8242 192.267 52.9103C191.283 51.9963 190.791 50.6723 190.791 48.9381V36.2834H195.15V47.6375C195.15 48.6452 195.372 49.3834 195.818 49.8521C196.286 50.3208 196.907 50.5551 197.681 50.5551C198.407 50.5551 199.075 50.2739 199.684 49.7115C200.294 49.149 200.786 48.3288 201.161 47.2508C201.536 46.1494 201.723 44.8488 201.723 43.3489V36.2834H206.082V54H201.723V51.1527C201.044 52.1135 200.235 52.8751 199.298 53.4376C198.36 54 197.341 54.2812 196.239 54.2812ZM211.01 36.2834H215.369V39.1307C216.049 38.0996 216.787 37.3262 217.584 36.8107C218.404 36.2717 219.365 36.0022 220.466 36.0022C221.614 36.0022 222.634 36.3068 223.524 36.9161C224.415 37.5254 225.048 38.4394 225.423 39.658C226.055 38.5097 226.84 37.6192 227.778 36.9864C228.739 36.3303 229.758 36.0022 230.836 36.0022C232.476 36.0022 233.765 36.4826 234.703 37.4434C235.64 38.4042 236.109 39.74 236.109 41.4507V54H231.75V42.1889C231.75 40.5485 231.023 39.7283 229.57 39.7283C228.446 39.7283 227.52 40.361 226.793 41.6265C226.09 42.892 225.739 44.7199 225.739 47.1102V54H221.38V42.1889C221.38 40.5485 220.654 39.7283 219.201 39.7283C218.076 39.7283 217.15 40.3962 216.424 41.732C215.721 43.0443 215.369 44.9659 215.369 47.4969V54H211.01V36.2834Z" fill="#37434F"/>
<path d="M33.321 88V77.0909H34.642V86.8281H39.7131V88H33.321ZM44.9119 88.1705C44.1733 88.1705 43.5252 87.9947 42.9677 87.6431C42.4137 87.2915 41.9805 86.7997 41.668 86.1676C41.359 85.5355 41.2045 84.7969 41.2045 83.9517C41.2045 83.0994 41.359 82.3555 41.668 81.7198C41.9805 81.0842 42.4137 80.5906 42.9677 80.239C43.5252 79.8874 44.1733 79.7116 44.9119 79.7116C45.6506 79.7116 46.2969 79.8874 46.8509 80.239C47.4084 80.5906 47.8416 81.0842 48.1506 81.7198C48.4631 82.3555 48.6193 83.0994 48.6193 83.9517C48.6193 84.7969 48.4631 85.5355 48.1506 86.1676C47.8416 86.7997 47.4084 87.2915 46.8509 87.6431C46.2969 87.9947 45.6506 88.1705 44.9119 88.1705ZM44.9119 87.0412C45.473 87.0412 45.9347 86.8974 46.2969 86.6097C46.6591 86.3221 46.9272 85.9439 47.1012 85.4751C47.2752 85.0064 47.3622 84.4986 47.3622 83.9517C47.3622 83.4048 47.2752 82.8952 47.1012 82.4229C46.9272 81.9506 46.6591 81.5689 46.2969 81.2777C45.9347 80.9865 45.473 80.8409 44.9119 80.8409C44.3509 80.8409 43.8892 80.9865 43.527 81.2777C43.1648 81.5689 42.8967 81.9506 42.7227 82.4229C42.5487 82.8952 42.4616 83.4048 42.4616 83.9517C42.4616 84.4986 42.5487 85.0064 42.7227 85.4751C42.8967 85.9439 43.1648 86.3221 43.527 86.6097C43.8892 86.8974 44.3509 87.0412 44.9119 87.0412ZM50.5383 88V79.8182H51.7528V81.054H51.838C51.9871 80.6491 52.257 80.3207 52.6476 80.0685C53.0383 79.8164 53.4786 79.6903 53.9687 79.6903C54.061 79.6903 54.1764 79.6921 54.3149 79.6957C54.4534 79.6992 54.5582 79.7045 54.6292 79.7116V80.9901C54.5866 80.9794 54.4889 80.9634 54.3362 80.9421C54.1871 80.9173 54.029 80.9048 53.8621 80.9048C53.4644 80.9048 53.1093 80.9883 52.7968 81.1552C52.4878 81.3185 52.2428 81.5458 52.0617 81.837C51.8841 82.1246 51.7954 82.4531 51.7954 82.8224V88H50.5383ZM59.3007 88.1705C58.5123 88.1705 57.8323 87.9964 57.2606 87.6484C56.6924 87.2969 56.2538 86.8068 55.9449 86.1783C55.6395 85.5462 55.4868 84.8111 55.4868 83.973C55.4868 83.1349 55.6395 82.3963 55.9449 81.7571C56.2538 81.1143 56.6835 80.6136 57.2339 80.255C57.7879 79.8928 58.4342 79.7116 59.1729 79.7116C59.599 79.7116 60.0198 79.7827 60.4353 79.9247C60.8508 80.0668 61.229 80.2976 61.5699 80.6172C61.9108 80.9332 62.1824 81.3523 62.3849 81.8743C62.5873 82.3963 62.6885 83.0391 62.6885 83.8026V84.3352H56.3817V83.2486H61.4101C61.4101 82.7869 61.3177 82.375 61.1331 82.0128C60.952 81.6506 60.6927 81.3647 60.3554 81.1552C60.0216 80.9457 59.6274 80.8409 59.1729 80.8409C58.6721 80.8409 58.2389 80.9652 57.8731 81.2138C57.5109 81.4588 57.2322 81.7784 57.0368 82.1726C56.8415 82.5668 56.7439 82.9893 56.7439 83.4403V84.1648C56.7439 84.7827 56.8504 85.3065 57.0635 85.7362C57.2801 86.1623 57.5802 86.4872 57.9637 86.7109C58.3472 86.9311 58.7929 87.0412 59.3007 87.0412C59.6309 87.0412 59.9292 86.995 60.1956 86.9027C60.4655 86.8068 60.6981 86.6648 60.8934 86.4766C61.0887 86.2848 61.2396 86.0469 61.3461 85.7628L62.5606 86.1037C62.4328 86.5156 62.218 86.8778 61.9161 87.1903C61.6143 87.4993 61.2414 87.7408 60.7975 87.9148C60.3536 88.0852 59.8547 88.1705 59.3007 88.1705ZM64.6008 88V79.8182H65.8153V81.0966H65.9218C66.0922 80.6598 66.3675 80.3207 66.7474 80.0792C67.1274 79.8342 67.5837 79.7116 68.1164 79.7116C68.6562 79.7116 69.1054 79.8342 69.464 80.0792C69.8263 80.3207 70.1086 80.6598 70.311 81.0966H70.3962C70.6057 80.674 70.92 80.3384 71.339 80.0898C71.7581 79.8377 72.2606 79.7116 72.8465 79.7116C73.578 79.7116 74.1764 79.9407 74.6416 80.3988C75.1068 80.8533 75.3394 81.5618 75.3394 82.5241V88H74.0823V82.5241C74.0823 81.9205 73.9172 81.489 73.5869 81.2298C73.2567 80.9705 72.8678 80.8409 72.4204 80.8409C71.8451 80.8409 71.3994 81.0149 71.0834 81.3629C70.7673 81.7074 70.6093 82.1442 70.6093 82.6733V88H69.3309V82.3963C69.3309 81.9311 69.18 81.5565 68.8781 81.2724C68.5763 80.9847 68.1874 80.8409 67.7116 80.8409C67.3849 80.8409 67.0795 80.9279 66.7954 81.1019C66.5148 81.2759 66.2876 81.5174 66.1135 81.8263C65.9431 82.1317 65.8579 82.4851 65.8579 82.8864V88H64.6008ZM81.8566 88V79.8182H83.1137V88H81.8566ZM82.4958 78.4545C82.2508 78.4545 82.0395 78.3711 81.8619 78.2042C81.6879 78.0373 81.6009 77.8366 81.6009 77.6023C81.6009 77.3679 81.6879 77.1673 81.8619 77.0004C82.0395 76.8335 82.2508 76.75 82.4958 76.75C82.7409 76.75 82.9504 76.8335 83.1244 77.0004C83.3019 77.1673 83.3907 77.3679 83.3907 77.6023C83.3907 77.8366 83.3019 78.0373 83.1244 78.2042C82.9504 78.3711 82.7409 78.4545 82.4958 78.4545ZM85.4162 91.0682V79.8182H86.6307V81.1179H86.7798C86.8722 80.9759 87 80.7947 87.1634 80.5746C87.3303 80.3509 87.5682 80.152 87.8771 79.978C88.1896 79.8004 88.6122 79.7116 89.1449 79.7116C89.8338 79.7116 90.4411 79.8839 90.9666 80.2283C91.4922 80.5728 91.9023 81.0611 92.1971 81.6932C92.4918 82.3253 92.6392 83.071 92.6392 83.9304C92.6392 84.7969 92.4918 85.5479 92.1971 86.1836C91.9023 86.8157 91.494 87.3058 90.9719 87.6538C90.4499 87.9982 89.848 88.1705 89.1662 88.1705C88.6406 88.1705 88.2198 88.0835 87.9038 87.9094C87.5877 87.7319 87.3445 87.5312 87.174 87.3075C87.0036 87.0803 86.8722 86.892 86.7798 86.7429H86.6733V91.0682H85.4162ZM86.652 83.9091C86.652 84.527 86.7425 85.0721 86.9237 85.5444C87.1048 86.0131 87.3693 86.3807 87.7173 86.647C88.0653 86.9098 88.4915 87.0412 88.9957 87.0412C89.5213 87.0412 89.9599 86.9027 90.3114 86.6257C90.6665 86.3452 90.9329 85.9687 91.1104 85.4964C91.2915 85.0206 91.3821 84.4915 91.3821 83.9091C91.3821 83.3338 91.2933 82.8153 91.1158 82.3537C90.9418 81.8885 90.6772 81.521 90.3221 81.2511C89.9705 80.9776 89.5284 80.8409 88.9957 80.8409C88.4844 80.8409 88.0547 80.9705 87.7067 81.2298C87.3587 81.4854 87.0959 81.8441 86.9183 82.3058C86.7408 82.7638 86.652 83.2983 86.652 83.9091ZM100.352 81.6506L99.223 81.9702C99.152 81.782 99.0472 81.5991 98.9087 81.4215C98.7738 81.2404 98.5891 81.0913 98.3548 80.9741C98.1204 80.8569 97.8203 80.7983 97.4545 80.7983C96.9538 80.7983 96.5366 80.9137 96.2028 81.1445C95.8725 81.3718 95.7074 81.6612 95.7074 82.0128C95.7074 82.3253 95.821 82.5721 96.0483 82.7532C96.2756 82.9343 96.6307 83.0852 97.1136 83.206L98.3281 83.5043C99.0597 83.6818 99.6048 83.9535 99.9634 84.3192C100.322 84.6815 100.501 85.1484 100.501 85.7202C100.501 86.1889 100.366 86.608 100.097 86.9773C99.8303 87.3466 99.4574 87.6378 98.978 87.8509C98.4986 88.0639 97.9411 88.1705 97.3054 88.1705C96.4709 88.1705 95.7802 87.9893 95.2333 87.6271C94.6864 87.2649 94.3402 86.7358 94.1946 86.0398L95.3878 85.7415C95.5014 86.1818 95.7163 86.5121 96.0323 86.7322C96.3519 86.9524 96.7692 87.0625 97.2841 87.0625C97.87 87.0625 98.3352 86.9382 98.6797 86.6896C99.0277 86.4375 99.2017 86.1357 99.2017 85.7841C99.2017 85.5 99.1023 85.2621 98.9034 85.0703C98.7045 84.875 98.3991 84.7294 97.9872 84.6335L96.6236 84.3139C95.8743 84.1364 95.3239 83.8612 94.9723 83.4883C94.6243 83.1119 94.4503 82.6413 94.4503 82.0767C94.4503 81.6151 94.5799 81.2067 94.8391 80.8516C95.1019 80.4964 95.4588 80.2177 95.9098 80.0153C96.3643 79.8129 96.8793 79.7116 97.4545 79.7116C98.2642 79.7116 98.8999 79.8892 99.3615 80.2443C99.8267 80.5994 100.157 81.0682 100.352 81.6506ZM107.55 84.6548V79.8182H108.807V88H107.55V86.6151H107.465C107.273 87.0305 106.975 87.3839 106.57 87.6751C106.165 87.9627 105.654 88.1065 105.036 88.1065C104.524 88.1065 104.07 87.9947 103.672 87.771C103.274 87.5437 102.962 87.2028 102.735 86.7482C102.507 86.2901 102.394 85.7131 102.394 85.017V79.8182H103.651V84.9318C103.651 85.5284 103.818 86.0043 104.152 86.3594C104.489 86.7145 104.919 86.892 105.441 86.892C105.753 86.892 106.071 86.8121 106.394 86.6523C106.721 86.4925 106.994 86.2475 107.214 85.9173C107.438 85.587 107.55 85.1662 107.55 84.6548ZM111.11 88V79.8182H112.324V81.0966H112.431C112.601 80.6598 112.876 80.3207 113.256 80.0792C113.636 79.8342 114.093 79.7116 114.625 79.7116C115.165 79.7116 115.614 79.8342 115.973 80.0792C116.335 80.3207 116.617 80.6598 116.82 81.0966H116.905C117.115 80.674 117.429 80.3384 117.848 80.0898C118.267 79.8377 118.769 79.7116 119.355 79.7116C120.087 79.7116 120.685 79.9407 121.15 80.3988C121.616 80.8533 121.848 81.5618 121.848 82.5241V88H120.591V82.5241C120.591 81.9205 120.426 81.489 120.096 81.2298C119.765 80.9705 119.377 80.8409 118.929 80.8409C118.354 80.8409 117.908 81.0149 117.592 81.3629C117.276 81.7074 117.118 82.1442 117.118 82.6733V88H115.84V82.3963C115.84 81.9311 115.689 81.5565 115.387 81.2724C115.085 80.9847 114.696 80.8409 114.22 80.8409C113.894 80.8409 113.588 80.9279 113.304 81.1019C113.024 81.2759 112.796 81.5174 112.622 81.8263C112.452 82.1317 112.367 82.4851 112.367 82.8864V88H111.11ZM131.455 88.1705C130.773 88.1705 130.171 87.9982 129.649 87.6538C129.127 87.3058 128.719 86.8157 128.424 86.1836C128.129 85.5479 127.982 84.7969 127.982 83.9304C127.982 83.071 128.129 82.3253 128.424 81.6932C128.719 81.0611 129.129 80.5728 129.654 80.2283C130.18 79.8839 130.787 79.7116 131.476 79.7116C132.009 79.7116 132.43 79.8004 132.739 79.978C133.051 80.152 133.289 80.3509 133.452 80.5746C133.619 80.7947 133.749 80.9759 133.841 81.1179H133.948V77.0909H135.205V88H133.99V86.7429H133.841C133.749 86.892 133.618 87.0803 133.447 87.3075C133.277 87.5312 133.033 87.7319 132.717 87.9094C132.401 88.0835 131.98 88.1705 131.455 88.1705ZM131.625 87.0412C132.13 87.0412 132.556 86.9098 132.904 86.647C133.252 86.3807 133.516 86.0131 133.697 85.5444C133.879 85.0721 133.969 84.527 133.969 83.9091C133.969 83.2983 133.88 82.7638 133.703 82.3058C133.525 81.8441 133.262 81.4854 132.914 81.2298C132.566 80.9705 132.137 80.8409 131.625 80.8409C131.093 80.8409 130.649 80.9776 130.294 81.2511C129.942 81.521 129.678 81.8885 129.5 82.3537C129.326 82.8153 129.239 83.3338 129.239 83.9091C129.239 84.4915 129.328 85.0206 129.505 85.4964C129.686 85.9687 129.953 86.3452 130.304 86.6257C130.659 86.9027 131.1 87.0412 131.625 87.0412ZM141.006 88.1705C140.267 88.1705 139.619 87.9947 139.061 87.6431C138.507 87.2915 138.074 86.7997 137.762 86.1676C137.453 85.5355 137.298 84.7969 137.298 83.9517C137.298 83.0994 137.453 82.3555 137.762 81.7198C138.074 81.0842 138.507 80.5906 139.061 80.239C139.619 79.8874 140.267 79.7116 141.006 79.7116C141.744 79.7116 142.391 79.8874 142.945 80.239C143.502 80.5906 143.935 81.0842 144.244 81.7198C144.557 82.3555 144.713 83.0994 144.713 83.9517C144.713 84.7969 144.557 85.5355 144.244 86.1676C143.935 86.7997 143.502 87.2915 142.945 87.6431C142.391 87.9947 141.744 88.1705 141.006 88.1705ZM141.006 87.0412C141.567 87.0412 142.028 86.8974 142.391 86.6097C142.753 86.3221 143.021 85.9439 143.195 85.4751C143.369 85.0064 143.456 84.4986 143.456 83.9517C143.456 83.4048 143.369 82.8952 143.195 82.4229C143.021 81.9506 142.753 81.5689 142.391 81.2777C142.028 80.9865 141.567 80.8409 141.006 80.8409C140.445 80.8409 139.983 80.9865 139.621 81.2777C139.259 81.5689 138.99 81.9506 138.816 82.4229C138.642 82.8952 138.555 83.4048 138.555 83.9517C138.555 84.4986 138.642 85.0064 138.816 85.4751C138.99 85.9439 139.259 86.3221 139.621 86.6097C139.983 86.8974 140.445 87.0412 141.006 87.0412ZM147.889 77.0909V88H146.632V77.0909H147.889ZM153.515 88.1705C152.777 88.1705 152.129 87.9947 151.571 87.6431C151.017 87.2915 150.584 86.7997 150.271 86.1676C149.963 85.5355 149.808 84.7969 149.808 83.9517C149.808 83.0994 149.963 82.3555 150.271 81.7198C150.584 81.0842 151.017 80.5906 151.571 80.239C152.129 79.8874 152.777 79.7116 153.515 79.7116C154.254 79.7116 154.9 79.8874 155.454 80.239C156.012 80.5906 156.445 81.0842 156.754 81.7198C157.067 82.3555 157.223 83.0994 157.223 83.9517C157.223 84.7969 157.067 85.5355 156.754 86.1676C156.445 86.7997 156.012 87.2915 155.454 87.6431C154.9 87.9947 154.254 88.1705 153.515 88.1705ZM153.515 87.0412C154.077 87.0412 154.538 86.8974 154.9 86.6097C155.263 86.3221 155.531 85.9439 155.705 85.4751C155.879 85.0064 155.966 84.4986 155.966 83.9517C155.966 83.4048 155.879 82.8952 155.705 82.4229C155.531 81.9506 155.263 81.5689 154.9 81.2777C154.538 80.9865 154.077 80.8409 153.515 80.8409C152.954 80.8409 152.493 80.9865 152.131 81.2777C151.768 81.5689 151.5 81.9506 151.326 82.4229C151.152 82.8952 151.065 83.4048 151.065 83.9517C151.065 84.4986 151.152 85.0064 151.326 85.4751C151.5 85.9439 151.768 86.3221 152.131 86.6097C152.493 86.8974 152.954 87.0412 153.515 87.0412ZM159.142 88V79.8182H160.356V81.054H160.441C160.591 80.6491 160.861 80.3207 161.251 80.0685C161.642 79.8164 162.082 79.6903 162.572 79.6903C162.665 79.6903 162.78 79.6921 162.918 79.6957C163.057 79.6992 163.162 79.7045 163.233 79.7116V80.9901C163.19 80.9794 163.092 80.9634 162.94 80.9421C162.791 80.9173 162.633 80.9048 162.466 80.9048C162.068 80.9048 161.713 80.9883 161.4 81.1552C161.091 81.3185 160.846 81.5458 160.665 81.837C160.488 82.1246 160.399 82.4531 160.399 82.8224V88H159.142ZM174.737 81.6506L173.608 81.9702C173.537 81.782 173.432 81.5991 173.294 81.4215C173.159 81.2404 172.974 81.0913 172.74 80.9741C172.505 80.8569 172.205 80.7983 171.839 80.7983C171.339 80.7983 170.921 80.9137 170.588 81.1445C170.257 81.3718 170.092 81.6612 170.092 82.0128C170.092 82.3253 170.206 82.5721 170.433 82.7532C170.66 82.9343 171.015 83.0852 171.498 83.206L172.713 83.5043C173.444 83.6818 173.99 83.9535 174.348 84.3192C174.707 84.6815 174.886 85.1484 174.886 85.7202C174.886 86.1889 174.751 86.608 174.481 86.9773C174.215 87.3466 173.842 87.6378 173.363 87.8509C172.883 88.0639 172.326 88.1705 171.69 88.1705C170.856 88.1705 170.165 87.9893 169.618 87.6271C169.071 87.2649 168.725 86.7358 168.579 86.0398L169.773 85.7415C169.886 86.1818 170.101 86.5121 170.417 86.7322C170.737 86.9524 171.154 87.0625 171.669 87.0625C172.255 87.0625 172.72 86.9382 173.064 86.6896C173.412 86.4375 173.586 86.1357 173.586 85.7841C173.586 85.5 173.487 85.2621 173.288 85.0703C173.089 84.875 172.784 84.7294 172.372 84.6335L171.008 84.3139C170.259 84.1364 169.709 83.8612 169.357 83.4883C169.009 83.1119 168.835 82.6413 168.835 82.0767C168.835 81.6151 168.965 81.2067 169.224 80.8516C169.487 80.4964 169.844 80.2177 170.295 80.0153C170.749 79.8129 171.264 79.7116 171.839 79.7116C172.649 79.7116 173.285 79.8892 173.746 80.2443C174.211 80.5994 174.542 81.0682 174.737 81.6506ZM176.778 88V79.8182H178.036V88H176.778ZM177.418 78.4545C177.173 78.4545 176.961 78.3711 176.784 78.2042C176.61 78.0373 176.523 77.8366 176.523 77.6023C176.523 77.3679 176.61 77.1673 176.784 77.0004C176.961 76.8335 177.173 76.75 177.418 76.75C177.663 76.75 177.872 76.8335 178.046 77.0004C178.224 77.1673 178.313 77.3679 178.313 77.6023C178.313 77.8366 178.224 78.0373 178.046 78.2042C177.872 78.3711 177.663 78.4545 177.418 78.4545ZM183.896 79.8182V80.8835H179.656V79.8182H183.896ZM180.892 77.858H182.149V85.6562C182.149 86.0114 182.201 86.2777 182.304 86.4553C182.41 86.6293 182.545 86.7464 182.708 86.8068C182.875 86.8636 183.051 86.892 183.236 86.892C183.374 86.892 183.488 86.8849 183.577 86.8707C183.665 86.853 183.737 86.8388 183.79 86.8281L184.045 87.9574C183.96 87.9893 183.841 88.0213 183.689 88.0533C183.536 88.0888 183.342 88.1065 183.108 88.1065C182.753 88.1065 182.405 88.0302 182.064 87.8775C181.727 87.7248 181.446 87.4922 181.222 87.1797C181.002 86.8672 180.892 86.473 180.892 85.9972V77.858ZM192.414 88.1918C191.895 88.1918 191.425 88.0941 191.002 87.8988C190.58 87.6999 190.244 87.4141 189.995 87.0412C189.747 86.6648 189.623 86.2102 189.623 85.6776C189.623 85.2088 189.715 84.8288 189.9 84.5376C190.084 84.2429 190.331 84.0121 190.64 83.8452C190.949 83.6783 191.29 83.554 191.663 83.4723C192.039 83.3871 192.417 83.3196 192.797 83.2699C193.294 83.206 193.697 83.158 194.006 83.1261C194.319 83.0906 194.546 83.032 194.688 82.9503C194.834 82.8686 194.907 82.7266 194.907 82.5241V82.4815C194.907 81.956 194.763 81.5476 194.475 81.2564C194.191 80.9652 193.76 80.8196 193.181 80.8196C192.581 80.8196 192.11 80.951 191.769 81.2138C191.428 81.4766 191.189 81.7571 191.05 82.0554L189.857 81.6293C190.07 81.1321 190.354 80.745 190.709 80.468C191.068 80.1875 191.458 79.9922 191.881 79.8821C192.307 79.7685 192.726 79.7116 193.138 79.7116C193.401 79.7116 193.703 79.7436 194.044 79.8075C194.388 79.8679 194.72 79.994 195.04 80.1857C195.363 80.3775 195.631 80.6669 195.844 81.054C196.057 81.4411 196.164 81.9595 196.164 82.6094V88H194.907V86.892H194.843C194.757 87.0696 194.615 87.2596 194.417 87.462C194.218 87.6644 193.953 87.8366 193.623 87.9787C193.293 88.1207 192.89 88.1918 192.414 88.1918ZM192.605 87.0625C193.103 87.0625 193.522 86.9648 193.863 86.7695C194.207 86.5742 194.466 86.3221 194.64 86.0131C194.818 85.7042 194.907 85.3793 194.907 85.0384V83.8878C194.853 83.9517 194.736 84.0103 194.555 84.0636C194.377 84.1133 194.172 84.1577 193.937 84.1967C193.706 84.2322 193.481 84.2642 193.261 84.2926C193.044 84.3175 192.868 84.3388 192.733 84.3565C192.407 84.3991 192.101 84.4684 191.817 84.5643C191.537 84.6566 191.309 84.7969 191.135 84.9851C190.965 85.1697 190.88 85.4219 190.88 85.7415C190.88 86.1783 191.041 86.5085 191.364 86.7322C191.691 86.9524 192.105 87.0625 192.605 87.0625ZM198.458 88V79.8182H199.673V81.0966H199.779C199.95 80.6598 200.225 80.3207 200.605 80.0792C200.985 79.8342 201.441 79.7116 201.974 79.7116C202.514 79.7116 202.963 79.8342 203.321 80.0792C203.684 80.3207 203.966 80.6598 204.168 81.0966H204.254C204.463 80.674 204.777 80.3384 205.196 80.0898C205.616 79.8377 206.118 79.7116 206.704 79.7116C207.435 79.7116 208.034 79.9407 208.499 80.3988C208.964 80.8533 209.197 81.5618 209.197 82.5241V88H207.94V82.5241C207.94 81.9205 207.775 81.489 207.444 81.2298C207.114 80.9705 206.725 80.8409 206.278 80.8409C205.703 80.8409 205.257 81.0149 204.941 81.3629C204.625 81.7074 204.467 82.1442 204.467 82.6733V88H203.188V82.3963C203.188 81.9311 203.037 81.5565 202.736 81.2724C202.434 80.9847 202.045 80.8409 201.569 80.8409C201.242 80.8409 200.937 80.9279 200.653 81.1019C200.372 81.2759 200.145 81.5174 199.971 81.8263C199.801 82.1317 199.715 82.4851 199.715 82.8864V88H198.458ZM214.926 88.1705C214.137 88.1705 213.457 87.9964 212.886 87.6484C212.317 87.2969 211.879 86.8068 211.57 86.1783C211.264 85.5462 211.112 84.8111 211.112 83.973C211.112 83.1349 211.264 82.3963 211.57 81.7571C211.879 81.1143 212.309 80.6136 212.859 80.255C213.413 79.8928 214.059 79.7116 214.798 79.7116C215.224 79.7116 215.645 79.7827 216.06 79.9247C216.476 80.0668 216.854 80.2976 217.195 80.6172C217.536 80.9332 217.807 81.3523 218.01 81.8743C218.212 82.3963 218.313 83.0391 218.313 83.8026V84.3352H212.007V83.2486H217.035C217.035 82.7869 216.943 82.375 216.758 82.0128C216.577 81.6506 216.318 81.3647 215.98 81.1552C215.647 80.9457 215.252 80.8409 214.798 80.8409C214.297 80.8409 213.864 80.9652 213.498 81.2138C213.136 81.4588 212.857 81.7784 212.662 82.1726C212.467 82.5668 212.369 82.9893 212.369 83.4403V84.1648C212.369 84.7827 212.475 85.3065 212.688 85.7362C212.905 86.1623 213.205 86.4872 213.589 86.7109C213.972 86.9311 214.418 87.0412 214.926 87.0412C215.256 87.0412 215.554 86.995 215.821 86.9027C216.09 86.8068 216.323 86.6648 216.518 86.4766C216.714 86.2848 216.865 86.0469 216.971 85.7628L218.186 86.1037C218.058 86.5156 217.843 86.8778 217.541 87.1903C217.239 87.4993 216.866 87.7408 216.422 87.9148C215.979 88.0852 215.48 88.1705 214.926 88.1705ZM223.784 79.8182V80.8835H219.544V79.8182H223.784ZM220.78 77.858H222.037V85.6562C222.037 86.0114 222.088 86.2777 222.191 86.4553C222.298 86.6293 222.433 86.7464 222.596 86.8068C222.763 86.8636 222.939 86.892 223.123 86.892C223.262 86.892 223.376 86.8849 223.464 86.8707C223.553 86.853 223.624 86.8388 223.677 86.8281L223.933 87.9574C223.848 87.9893 223.729 88.0213 223.576 88.0533C223.424 88.0888 223.23 88.1065 222.996 88.1065C222.641 88.1065 222.293 88.0302 221.952 87.8775C221.614 87.7248 221.334 87.4922 221.11 87.1797C220.89 86.8672 220.78 86.473 220.78 85.9972V77.858ZM226.591 88.0852C226.328 88.0852 226.103 87.9911 225.915 87.8029C225.726 87.6147 225.632 87.3892 225.632 87.1264C225.632 86.8636 225.726 86.6381 225.915 86.4499C226.103 86.2617 226.328 86.1676 226.591 86.1676C226.854 86.1676 227.079 86.2617 227.268 86.4499C227.456 86.6381 227.55 86.8636 227.55 87.1264C227.55 87.3004 227.506 87.4602 227.417 87.6058C227.332 87.7514 227.216 87.8686 227.071 87.9574C226.929 88.0426 226.769 88.0852 226.591 88.0852Z" fill="#4D5C6C"/>
<rect x="0.5" y="0.5" width="299" height="117" rx="3.5" stroke="#EBF2F7"/>
</svg>
