<svg width="302" height="200" viewBox="0 0 302 200" fill="none" xmlns="http://www.w3.org/2000/svg">
<rect x="1" y="0.5" width="300" height="199" rx="3.5" fill="white"/>
<path d="M78.25 42.5H45.75C43.6406 42.5 42 44.2188 42 46.25V73.75C42 75.8594 43.6406 77.5 45.75 77.5H78.25C80.2812 77.5 82 75.8594 82 73.75V46.25C82 44.2188 80.2812 42.5 78.25 42.5ZM45.75 76.25C44.3438 76.25 43.25 75.1562 43.25 73.75V69.7656L51.5312 61.4844C51.7656 61.25 52.1562 61.25 52.3906 61.4844L58.5625 67.6562L49.9688 76.25H45.75ZM80.75 73.75C80.75 75.1562 79.5781 76.25 78.25 76.25H51.6875L71.5312 56.4844C71.7656 56.25 72.1562 56.25 72.3906 56.4844L80.75 64.7656V73.75ZM80.75 63.0469L73.25 55.625C72.5469 54.8438 71.375 54.8438 70.6719 55.625L59.5 66.7969L53.25 60.5469C52.4688 59.8438 51.2969 59.8438 50.5938 60.5469L43.25 68.0469V46.25C43.25 44.9219 44.3438 43.75 45.75 43.75H78.25C79.5781 43.75 80.75 44.9219 80.75 46.25V63.0469ZM52 48.125C49.5781 48.125 47.625 50.1562 47.625 52.5C47.625 54.9219 49.5781 56.875 52 56.875C54.3438 56.875 56.375 54.9219 56.375 52.5C56.375 50.1562 54.3438 48.125 52 48.125ZM52 55.625C50.2031 55.625 48.875 54.2969 48.875 52.5C48.875 50.7812 50.2031 49.375 52 49.375C53.7188 49.375 55.125 50.7812 55.125 52.5C55.125 54.2969 53.7188 55.625 52 55.625Z" fill="#C1CFDE"/>
<path d="M105.666 44.8182H107.207V51.5149C107.207 52.2275 107.04 52.8589 106.705 53.4091C106.371 53.956 105.9 54.3868 105.293 54.7017C104.687 55.0133 103.976 55.169 103.161 55.169C102.348 55.169 101.639 55.0133 101.033 54.7017C100.426 54.3868 99.9555 53.956 99.6207 53.4091C99.286 52.8589 99.1186 52.2275 99.1186 51.5149V44.8182H100.655V51.3906C100.655 51.8513 100.756 52.2607 100.958 52.6186C101.164 52.9766 101.454 53.2583 101.828 53.4638C102.203 53.666 102.647 53.767 103.161 53.767C103.678 53.767 104.123 53.666 104.498 53.4638C104.876 53.2583 105.164 52.9766 105.363 52.6186C105.565 52.2607 105.666 51.8513 105.666 51.3906V44.8182ZM109.322 57.8636V47.3636H110.773V48.6016H110.898C110.984 48.4425 111.108 48.2585 111.27 48.0497C111.433 47.8409 111.658 47.6586 111.947 47.5028C112.235 47.3438 112.616 47.2642 113.09 47.2642C113.706 47.2642 114.257 47.42 114.741 47.7315C115.224 48.0431 115.604 48.4922 115.879 49.0788C116.157 49.6655 116.297 50.3714 116.297 51.1967C116.297 52.022 116.159 52.7296 115.884 53.3196C115.609 53.9062 115.231 54.3587 114.751 54.6768C114.27 54.9917 113.721 55.1491 113.105 55.1491C112.641 55.1491 112.261 55.0713 111.966 54.9155C111.675 54.7597 111.446 54.5774 111.28 54.3686C111.115 54.1598 110.987 53.9742 110.898 53.8118H110.808V57.8636H109.322ZM110.778 51.1818C110.778 51.7187 110.856 52.1894 111.012 52.5938C111.168 52.9981 111.393 53.3146 111.688 53.5433C111.983 53.7687 112.344 53.8814 112.772 53.8814C113.216 53.8814 113.587 53.7637 113.885 53.5284C114.184 53.2898 114.409 52.9666 114.562 52.5589C114.717 52.1513 114.795 51.6922 114.795 51.1818C114.795 50.678 114.719 50.2256 114.567 49.8246C114.417 49.4235 114.192 49.107 113.89 48.875C113.592 48.643 113.219 48.527 112.772 48.527C112.341 48.527 111.976 48.638 111.678 48.8601C111.383 49.0821 111.159 49.392 111.007 49.7898C110.854 50.1875 110.778 50.6515 110.778 51.1818ZM119.449 44.8182V55H117.962V44.8182H119.449ZM124.665 55.1541C123.949 55.1541 123.324 54.9901 122.791 54.6619C122.257 54.3338 121.843 53.8748 121.548 53.2848C121.253 52.6948 121.105 52.0054 121.105 51.2166C121.105 50.4245 121.253 49.7318 121.548 49.1385C121.843 48.5452 122.257 48.0845 122.791 47.7564C123.324 47.4283 123.949 47.2642 124.665 47.2642C125.381 47.2642 126.006 47.4283 126.539 47.7564C127.073 48.0845 127.487 48.5452 127.782 49.1385C128.077 49.7318 128.225 50.4245 128.225 51.2166C128.225 52.0054 128.077 52.6948 127.782 53.2848C127.487 53.8748 127.073 54.3338 126.539 54.6619C126.006 54.9901 125.381 55.1541 124.665 55.1541ZM124.67 53.9062C125.134 53.9062 125.519 53.7836 125.824 53.5384C126.128 53.2931 126.354 52.9666 126.5 52.5589C126.649 52.1513 126.723 51.7022 126.723 51.2116C126.723 50.7244 126.649 50.277 126.5 49.8693C126.354 49.4583 126.128 49.1286 125.824 48.88C125.519 48.6314 125.134 48.5071 124.67 48.5071C124.203 48.5071 123.815 48.6314 123.507 48.88C123.202 49.1286 122.975 49.4583 122.826 49.8693C122.68 50.277 122.607 50.7244 122.607 51.2116C122.607 51.7022 122.68 52.1513 122.826 52.5589C122.975 52.9666 123.202 53.2931 123.507 53.5384C123.815 53.7836 124.203 53.9062 124.67 53.9062ZM132.106 55.169C131.622 55.169 131.185 55.0795 130.794 54.9006C130.403 54.7183 130.093 54.4548 129.864 54.1101C129.639 53.7654 129.526 53.3428 129.526 52.8423C129.526 52.4115 129.609 52.0568 129.775 51.7784C129.94 51.5 130.164 51.2796 130.446 51.1172C130.728 50.9548 131.042 50.8321 131.39 50.7493C131.738 50.6664 132.093 50.6035 132.454 50.5604C132.912 50.5073 133.283 50.4643 133.568 50.4311C133.853 50.3946 134.06 50.3366 134.189 50.2571C134.319 50.1776 134.383 50.0483 134.383 49.8693V49.8345C134.383 49.4003 134.261 49.0639 134.015 48.8253C133.773 48.5866 133.412 48.4673 132.932 48.4673C132.431 48.4673 132.037 48.5784 131.748 48.8004C131.463 49.0192 131.266 49.2628 131.157 49.5312L129.76 49.2131C129.925 48.7491 130.167 48.3745 130.486 48.0895C130.807 47.8011 131.177 47.5923 131.594 47.4631C132.012 47.3305 132.451 47.2642 132.912 47.2642C133.217 47.2642 133.54 47.3007 133.881 47.3736C134.226 47.4432 134.547 47.5724 134.846 47.7614C135.147 47.9503 135.394 48.2204 135.586 48.5717C135.779 48.9197 135.875 49.3722 135.875 49.929V55H134.423V53.956H134.363C134.267 54.1482 134.123 54.3371 133.931 54.5227C133.739 54.7083 133.492 54.8625 133.19 54.9851C132.889 55.1077 132.527 55.169 132.106 55.169ZM132.43 53.9759C132.84 53.9759 133.192 53.8946 133.483 53.7322C133.778 53.5698 134.002 53.3577 134.155 53.0959C134.31 52.8307 134.388 52.5473 134.388 52.2457V51.2614C134.335 51.3144 134.233 51.3641 134.08 51.4105C133.931 51.4536 133.76 51.4917 133.568 51.5249C133.376 51.5547 133.189 51.5829 133.006 51.6094C132.824 51.6326 132.671 51.6525 132.549 51.669C132.26 51.7055 131.997 51.7668 131.758 51.853C131.523 51.9392 131.334 52.0634 131.192 52.2259C131.052 52.3849 130.983 52.5971 130.983 52.8622C130.983 53.2301 131.119 53.5085 131.39 53.6974C131.662 53.883 132.009 53.9759 132.43 53.9759ZM140.713 55.1491C140.097 55.1491 139.547 54.9917 139.063 54.6768C138.582 54.3587 138.204 53.9062 137.929 53.3196C137.658 52.7296 137.522 52.022 137.522 51.1967C137.522 50.3714 137.659 49.6655 137.934 49.0788C138.213 48.4922 138.594 48.0431 139.078 47.7315C139.562 47.42 140.11 47.2642 140.723 47.2642C141.197 47.2642 141.578 47.3438 141.867 47.5028C142.158 47.6586 142.384 47.8409 142.543 48.0497C142.705 48.2585 142.831 48.4425 142.921 48.6016H143.01V44.8182H144.497V55H143.045V53.8118H142.921C142.831 53.9742 142.702 54.1598 142.533 54.3686C142.367 54.5774 142.139 54.7597 141.847 54.9155C141.555 55.0713 141.177 55.1491 140.713 55.1491ZM141.042 53.8814C141.469 53.8814 141.83 53.7687 142.125 53.5433C142.424 53.3146 142.649 52.9981 142.801 52.5938C142.957 52.1894 143.035 51.7187 143.035 51.1818C143.035 50.6515 142.959 50.1875 142.806 49.7898C142.654 49.392 142.43 49.0821 142.135 48.8601C141.84 48.638 141.476 48.527 141.042 48.527C140.594 48.527 140.221 48.643 139.923 48.875C139.625 49.107 139.399 49.4235 139.247 49.8246C139.098 50.2256 139.023 50.678 139.023 51.1818C139.023 51.6922 139.099 52.1513 139.252 52.5589C139.404 52.9666 139.63 53.2898 139.928 53.5284C140.23 53.7637 140.601 53.8814 141.042 53.8814ZM152.546 55.169C152.062 55.169 151.624 55.0795 151.233 54.9006C150.842 54.7183 150.532 54.4548 150.304 54.1101C150.078 53.7654 149.966 53.3428 149.966 52.8423C149.966 52.4115 150.048 52.0568 150.214 51.7784C150.38 51.5 150.604 51.2796 150.885 51.1172C151.167 50.9548 151.482 50.8321 151.83 50.7493C152.178 50.6664 152.533 50.6035 152.894 50.5604C153.351 50.5073 153.722 50.4643 154.007 50.4311C154.292 50.3946 154.5 50.3366 154.629 50.2571C154.758 50.1776 154.823 50.0483 154.823 49.8693V49.8345C154.823 49.4003 154.7 49.0639 154.455 48.8253C154.213 48.5866 153.852 48.4673 153.371 48.4673C152.871 48.4673 152.476 48.5784 152.188 48.8004C151.903 49.0192 151.706 49.2628 151.596 49.5312L150.199 49.2131C150.365 48.7491 150.607 48.3745 150.925 48.0895C151.247 47.8011 151.616 47.5923 152.034 47.4631C152.451 47.3305 152.891 47.2642 153.351 47.2642C153.656 47.2642 153.979 47.3007 154.321 47.3736C154.665 47.4432 154.987 47.5724 155.285 47.7614C155.587 47.9503 155.834 48.2204 156.026 48.5717C156.218 48.9197 156.314 49.3722 156.314 49.929V55H154.863V53.956H154.803C154.707 54.1482 154.563 54.3371 154.37 54.5227C154.178 54.7083 153.931 54.8625 153.63 54.9851C153.328 55.1077 152.967 55.169 152.546 55.169ZM152.869 53.9759C153.28 53.9759 153.631 53.8946 153.923 53.7322C154.218 53.5698 154.442 53.3577 154.594 53.0959C154.75 52.8307 154.828 52.5473 154.828 52.2457V51.2614C154.775 51.3144 154.672 51.3641 154.52 51.4105C154.37 51.4536 154.2 51.4917 154.007 51.5249C153.815 51.5547 153.628 51.5829 153.446 51.6094C153.263 51.6326 153.111 51.6525 152.988 51.669C152.7 51.7055 152.436 51.7668 152.198 51.853C151.962 51.9392 151.774 52.0634 151.631 52.2259C151.492 52.3849 151.422 52.5971 151.422 52.8622C151.422 53.2301 151.558 53.5085 151.83 53.6974C152.102 53.883 152.448 53.9759 152.869 53.9759ZM165.634 47.3636V48.5568H161.318V47.3636H165.634ZM162.501 55V46.4787C162.501 46.0014 162.606 45.6053 162.815 45.2905C163.023 44.9723 163.3 44.7353 163.645 44.5795C163.99 44.4205 164.364 44.3409 164.768 44.3409C165.067 44.3409 165.322 44.3658 165.534 44.4155C165.746 44.4619 165.904 44.505 166.006 44.5447L165.658 45.7479C165.589 45.728 165.499 45.7048 165.39 45.6783C165.281 45.6484 165.148 45.6335 164.992 45.6335C164.631 45.6335 164.372 45.723 164.217 45.902C164.064 46.081 163.988 46.3395 163.988 46.6776V55H162.501ZM167.167 55V47.3636H168.654V55H167.167ZM167.918 46.1854C167.659 46.1854 167.437 46.0992 167.252 45.9268C167.069 45.7512 166.978 45.5424 166.978 45.3004C166.978 45.0552 167.069 44.8464 167.252 44.674C167.437 44.4983 167.659 44.4105 167.918 44.4105C168.176 44.4105 168.397 44.4983 168.579 44.674C168.765 44.8464 168.858 45.0552 168.858 45.3004C168.858 45.5424 168.765 45.7512 168.579 45.9268C168.397 46.0992 168.176 46.1854 167.918 46.1854ZM172.14 44.8182V55H170.654V44.8182H172.14ZM177.431 55.1541C176.679 55.1541 176.031 54.9934 175.487 54.6719C174.947 54.3471 174.529 53.8913 174.234 53.3047C173.943 52.7147 173.797 52.0237 173.797 51.2315C173.797 50.4493 173.943 49.7599 174.234 49.1634C174.529 48.5668 174.94 48.1011 175.467 47.7663C175.998 47.4316 176.617 47.2642 177.327 47.2642C177.758 47.2642 178.175 47.3355 178.58 47.478C178.984 47.6205 179.347 47.8442 179.668 48.1491C179.99 48.4541 180.243 48.8501 180.429 49.3374C180.615 49.8213 180.707 50.4096 180.707 51.1023V51.6293H174.637V50.5156H179.251C179.251 50.1245 179.171 49.7782 179.012 49.4766C178.853 49.1716 178.629 48.9313 178.341 48.7557C178.056 48.58 177.721 48.4922 177.337 48.4922C176.919 48.4922 176.554 48.5949 176.243 48.8004C175.935 49.0026 175.696 49.2678 175.527 49.5959C175.361 49.9207 175.278 50.2737 175.278 50.6548V51.5249C175.278 52.0353 175.368 52.4695 175.547 52.8274C175.729 53.1854 175.983 53.4588 176.308 53.6477C176.632 53.8333 177.012 53.9261 177.446 53.9261C177.728 53.9261 177.985 53.8864 178.217 53.8068C178.449 53.724 178.649 53.6013 178.818 53.4389C178.987 53.2765 179.116 53.076 179.206 52.8374L180.613 53.0909C180.5 53.5052 180.298 53.8681 180.006 54.1797C179.718 54.4879 179.355 54.7282 178.918 54.9006C178.483 55.0696 177.988 55.1541 177.431 55.1541Z" fill="#6F59EC"/>
<path d="M102.216 75.1541C101.5 75.1541 100.875 74.9901 100.342 74.6619C99.808 74.3338 99.3937 73.8748 99.0987 73.2848C98.8037 72.6948 98.6562 72.0054 98.6562 71.2166C98.6562 70.4245 98.8037 69.7318 99.0987 69.1385C99.3937 68.5452 99.808 68.0845 100.342 67.7564C100.875 67.4283 101.5 67.2642 102.216 67.2642C102.932 67.2642 103.557 67.4283 104.09 67.7564C104.624 68.0845 105.038 68.5452 105.333 69.1385C105.628 69.7318 105.776 70.4245 105.776 71.2166C105.776 72.0054 105.628 72.6948 105.333 73.2848C105.038 73.8748 104.624 74.3338 104.09 74.6619C103.557 74.9901 102.932 75.1541 102.216 75.1541ZM102.221 73.9062C102.685 73.9062 103.069 73.7836 103.374 73.5384C103.679 73.2931 103.905 72.9666 104.05 72.5589C104.2 72.1513 104.274 71.7022 104.274 71.2116C104.274 70.7244 104.2 70.277 104.05 69.8693C103.905 69.4583 103.679 69.1286 103.374 68.88C103.069 68.6314 102.685 68.5071 102.221 68.5071C101.754 68.5071 101.366 68.6314 101.058 68.88C100.753 69.1286 100.526 69.4583 100.376 69.8693C100.231 70.277 100.158 70.7244 100.158 71.2116C100.158 71.7022 100.231 72.1513 100.376 72.5589C100.526 72.9666 100.753 73.2931 101.058 73.5384C101.366 73.7836 101.754 73.9062 102.221 73.9062ZM107.435 75V67.3636H108.872V68.5767H108.951C109.09 68.1657 109.336 67.8426 109.687 67.6072C110.042 67.3686 110.443 67.2493 110.89 67.2493C110.983 67.2493 111.092 67.2526 111.218 67.2592C111.347 67.2659 111.449 67.2741 111.521 67.2841V68.706C111.462 68.6894 111.356 68.6712 111.203 68.6513C111.051 68.6281 110.898 68.6165 110.746 68.6165C110.395 68.6165 110.081 68.6911 109.806 68.8402C109.535 68.986 109.319 69.1899 109.16 69.4517C109.001 69.7102 108.921 70.0052 108.921 70.3366V75H107.435ZM119.372 75.1491C118.755 75.1491 118.205 74.9917 117.721 74.6768C117.24 74.3587 116.863 73.9062 116.588 73.3196C116.316 72.7296 116.18 72.022 116.18 71.1967C116.18 70.3714 116.317 69.6655 116.593 69.0788C116.871 68.4922 117.252 68.0431 117.736 67.7315C118.22 67.42 118.768 67.2642 119.382 67.2642C119.856 67.2642 120.237 67.3438 120.525 67.5028C120.817 67.6586 121.042 67.8409 121.201 68.0497C121.364 68.2585 121.49 68.4425 121.579 68.6016H121.669V64.8182H123.155V75H121.703V73.8118H121.579C121.49 73.9742 121.36 74.1598 121.191 74.3686C121.026 74.5774 120.797 74.7597 120.505 74.9155C120.213 75.0713 119.836 75.1491 119.372 75.1491ZM119.7 73.8814C120.127 73.8814 120.489 73.7687 120.784 73.5433C121.082 73.3146 121.307 72.9981 121.46 72.5938C121.615 72.1894 121.693 71.7187 121.693 71.1818C121.693 70.6515 121.617 70.1875 121.465 69.7898C121.312 69.392 121.088 69.0821 120.794 68.8601C120.499 68.638 120.134 68.527 119.7 68.527C119.252 68.527 118.879 68.643 118.581 68.875C118.283 69.107 118.057 69.4235 117.905 69.8246C117.756 70.2256 117.681 70.678 117.681 71.1818C117.681 71.6922 117.758 72.1513 117.91 72.5589C118.062 72.9666 118.288 73.2898 118.586 73.5284C118.888 73.7637 119.259 73.8814 119.7 73.8814ZM125.277 75V67.3636H126.713V68.5767H126.793C126.932 68.1657 127.177 67.8426 127.529 67.6072C127.883 67.3686 128.284 67.2493 128.732 67.2493C128.825 67.2493 128.934 67.2526 129.06 67.2592C129.189 67.2659 129.29 67.2741 129.363 67.2841V68.706C129.304 68.6894 129.198 68.6712 129.045 68.6513C128.893 68.6281 128.74 68.6165 128.588 68.6165C128.236 68.6165 127.923 68.6911 127.648 68.8402C127.376 68.986 127.161 69.1899 127.002 69.4517C126.843 69.7102 126.763 70.0052 126.763 70.3366V75H125.277ZM132.804 75.169C132.32 75.169 131.882 75.0795 131.491 74.9006C131.1 74.7183 130.79 74.4548 130.561 74.1101C130.336 73.7654 130.223 73.3428 130.223 72.8423C130.223 72.4115 130.306 72.0568 130.472 71.7784C130.638 71.5 130.861 71.2796 131.143 71.1172C131.425 70.9548 131.74 70.8321 132.088 70.7493C132.436 70.6664 132.79 70.6035 133.152 70.5604C133.609 70.5073 133.98 70.4643 134.265 70.4311C134.55 70.3946 134.757 70.3366 134.887 70.2571C135.016 70.1776 135.081 70.0483 135.081 69.8693V69.8345C135.081 69.4003 134.958 69.0639 134.713 68.8253C134.471 68.5866 134.109 68.4673 133.629 68.4673C133.128 68.4673 132.734 68.5784 132.446 68.8004C132.161 69.0192 131.963 69.2628 131.854 69.5312L130.457 69.2131C130.623 68.7491 130.865 68.3745 131.183 68.0895C131.504 67.8011 131.874 67.5923 132.292 67.4631C132.709 67.3305 133.148 67.2642 133.609 67.2642C133.914 67.2642 134.237 67.3007 134.578 67.3736C134.923 67.4432 135.245 67.5724 135.543 67.7614C135.845 67.9503 136.092 68.2204 136.284 68.5717C136.476 68.9197 136.572 69.3722 136.572 69.929V75H135.12V73.956H135.061C134.965 74.1482 134.82 74.3371 134.628 74.5227C134.436 74.7083 134.189 74.8625 133.887 74.9851C133.586 75.1077 133.225 75.169 132.804 75.169ZM133.127 73.9759C133.538 73.9759 133.889 73.8946 134.181 73.7322C134.476 73.5698 134.699 73.3577 134.852 73.0959C135.008 72.8307 135.086 72.5473 135.086 72.2457V71.2614C135.033 71.3144 134.93 71.3641 134.777 71.4105C134.628 71.4536 134.458 71.4917 134.265 71.5249C134.073 71.5547 133.886 71.5829 133.703 71.6094C133.521 71.6326 133.369 71.6525 133.246 71.669C132.958 71.7055 132.694 71.7668 132.456 71.853C132.22 71.9392 132.031 72.0634 131.889 72.2259C131.75 72.3849 131.68 72.5971 131.68 72.8622C131.68 73.2301 131.816 73.5085 132.088 73.6974C132.359 73.883 132.706 73.9759 133.127 73.9759ZM141.754 78.0227C141.147 78.0227 140.625 77.9432 140.188 77.7841C139.753 77.625 139.399 77.4145 139.124 77.1527C138.849 76.8909 138.643 76.6042 138.507 76.2926L139.785 75.7656C139.874 75.9115 139.994 76.0656 140.143 76.228C140.295 76.3937 140.501 76.5346 140.759 76.6506C141.021 76.7666 141.358 76.8246 141.769 76.8246C142.332 76.8246 142.798 76.687 143.166 76.4119C143.534 76.1402 143.718 75.706 143.718 75.1094V73.608H143.623C143.534 73.7704 143.404 73.951 143.235 74.1499C143.07 74.3487 142.841 74.5211 142.549 74.6669C142.258 74.8127 141.878 74.8857 141.411 74.8857C140.807 74.8857 140.264 74.7448 139.78 74.4631C139.299 74.178 138.918 73.7588 138.637 73.2053C138.358 72.6484 138.219 71.964 138.219 71.152C138.219 70.34 138.356 69.6439 138.632 69.0639C138.91 68.4839 139.291 68.0398 139.775 67.7315C140.259 67.42 140.807 67.2642 141.421 67.2642C141.895 67.2642 142.277 67.3438 142.569 67.5028C142.861 67.6586 143.088 67.8409 143.25 68.0497C143.416 68.2585 143.544 68.4425 143.633 68.6016H143.742V67.3636H145.199V75.169C145.199 75.8253 145.047 76.3639 144.742 76.7848C144.437 77.2057 144.024 77.5173 143.504 77.7195C142.987 77.9216 142.403 78.0227 141.754 78.0227ZM141.739 73.6527C142.166 73.6527 142.528 73.5533 142.823 73.3544C143.121 73.1522 143.346 72.8639 143.499 72.4893C143.655 72.1115 143.732 71.6591 143.732 71.1321C143.732 70.6184 143.656 70.166 143.504 69.7749C143.351 69.3838 143.128 69.0788 142.833 68.8601C142.538 68.638 142.173 68.527 141.739 68.527C141.291 68.527 140.919 68.643 140.62 68.875C140.322 69.1037 140.097 69.4152 139.944 69.8097C139.795 70.2041 139.72 70.6449 139.72 71.1321C139.72 71.6326 139.797 72.0717 139.949 72.4496C140.102 72.8274 140.327 73.1224 140.625 73.3345C140.927 73.5466 141.298 73.6527 141.739 73.6527ZM153.12 75.169C152.636 75.169 152.199 75.0795 151.808 74.9006C151.416 74.7183 151.107 74.4548 150.878 74.1101C150.652 73.7654 150.54 73.3428 150.54 72.8423C150.54 72.4115 150.623 72.0568 150.788 71.7784C150.954 71.5 151.178 71.2796 151.46 71.1172C151.741 70.9548 152.056 70.8321 152.404 70.7493C152.752 70.6664 153.107 70.6035 153.468 70.5604C153.925 70.5073 154.297 70.4643 154.582 70.4311C154.867 70.3946 155.074 70.3366 155.203 70.2571C155.332 70.1776 155.397 70.0483 155.397 69.8693V69.8345C155.397 69.4003 155.274 69.0639 155.029 68.8253C154.787 68.5866 154.426 68.4673 153.945 68.4673C153.445 68.4673 153.05 68.5784 152.762 68.8004C152.477 69.0192 152.28 69.2628 152.17 69.5312L150.773 69.2131C150.939 68.7491 151.181 68.3745 151.499 68.0895C151.821 67.8011 152.19 67.5923 152.608 67.4631C153.026 67.3305 153.465 67.2642 153.925 67.2642C154.23 67.2642 154.554 67.3007 154.895 67.3736C155.24 67.4432 155.561 67.5724 155.859 67.7614C156.161 67.9503 156.408 68.2204 156.6 68.5717C156.792 68.9197 156.888 69.3722 156.888 69.929V75H155.437V73.956H155.377C155.281 74.1482 155.137 74.3371 154.945 74.5227C154.752 74.7083 154.505 74.8625 154.204 74.9851C153.902 75.1077 153.541 75.169 153.12 75.169ZM153.443 73.9759C153.854 73.9759 154.205 73.8946 154.497 73.7322C154.792 73.5698 155.016 73.3577 155.168 73.0959C155.324 72.8307 155.402 72.5473 155.402 72.2457V71.2614C155.349 71.3144 155.246 71.3641 155.094 71.4105C154.945 71.4536 154.774 71.4917 154.582 71.5249C154.389 71.5547 154.202 71.5829 154.02 71.6094C153.838 71.6326 153.685 71.6525 153.562 71.669C153.274 71.7055 153.011 71.7668 152.772 71.853C152.537 71.9392 152.348 72.0634 152.205 72.2259C152.066 72.3849 151.996 72.5971 151.996 72.8622C151.996 73.2301 152.132 73.5085 152.404 73.6974C152.676 73.883 153.022 73.9759 153.443 73.9759ZM160.355 70.4659V75H158.868V67.3636H160.295V68.6065H160.39C160.565 68.2022 160.84 67.8774 161.215 67.6321C161.593 67.3868 162.068 67.2642 162.642 67.2642C163.162 67.2642 163.618 67.3736 164.009 67.5923C164.4 67.8078 164.703 68.1293 164.919 68.5568C165.134 68.9844 165.242 69.513 165.242 70.1428V75H163.756V70.3217C163.756 69.7682 163.611 69.3357 163.323 69.0241C163.035 68.7093 162.639 68.5518 162.135 68.5518C161.79 68.5518 161.483 68.6264 161.215 68.7756C160.95 68.9247 160.739 69.1435 160.584 69.4318C160.431 69.7169 160.355 70.0616 160.355 70.4659ZM170.094 75.1491C169.478 75.1491 168.928 74.9917 168.444 74.6768C167.963 74.3587 167.585 73.9062 167.31 73.3196C167.038 72.7296 166.903 72.022 166.903 71.1967C166.903 70.3714 167.04 69.6655 167.315 69.0788C167.594 68.4922 167.975 68.0431 168.459 67.7315C168.943 67.42 169.491 67.2642 170.104 67.2642C170.578 67.2642 170.959 67.3438 171.248 67.5028C171.539 67.6586 171.765 67.8409 171.924 68.0497C172.086 68.2585 172.212 68.4425 172.302 68.6016H172.391V64.8182H173.878V75H172.426V73.8118H172.302C172.212 73.9742 172.083 74.1598 171.914 74.3686C171.748 74.5774 171.519 74.7597 171.228 74.9155C170.936 75.0713 170.558 75.1491 170.094 75.1491ZM170.422 73.8814C170.85 73.8814 171.211 73.7687 171.506 73.5433C171.805 73.3146 172.03 72.9981 172.182 72.5938C172.338 72.1894 172.416 71.7187 172.416 71.1818C172.416 70.6515 172.34 70.1875 172.187 69.7898C172.035 69.392 171.811 69.0821 171.516 68.8601C171.221 68.638 170.857 68.527 170.422 68.527C169.975 68.527 169.602 68.643 169.304 68.875C169.006 69.107 168.78 69.4235 168.628 69.8246C168.479 70.2256 168.404 70.678 168.404 71.1818C168.404 71.6922 168.48 72.1513 168.633 72.5589C168.785 72.9666 169.01 73.2898 169.309 73.5284C169.61 73.7637 169.982 73.8814 170.422 73.8814ZM182.563 75.1491C181.947 75.1491 181.396 74.9917 180.912 74.6768C180.432 74.3587 180.054 73.9062 179.779 73.3196C179.507 72.7296 179.371 72.022 179.371 71.1967C179.371 70.3714 179.509 69.6655 179.784 69.0788C180.062 68.4922 180.443 68.0431 180.927 67.7315C181.411 67.42 181.96 67.2642 182.573 67.2642C183.047 67.2642 183.428 67.3438 183.716 67.5028C184.008 67.6586 184.233 67.8409 184.393 68.0497C184.555 68.2585 184.681 68.4425 184.77 68.6016H184.86V64.8182H186.346V75H184.895V73.8118H184.77C184.681 73.9742 184.552 74.1598 184.383 74.3686C184.217 74.5774 183.988 74.7597 183.697 74.9155C183.405 75.0713 183.027 75.1491 182.563 75.1491ZM182.891 73.8814C183.319 73.8814 183.68 73.7687 183.975 73.5433C184.273 73.3146 184.499 72.9981 184.651 72.5938C184.807 72.1894 184.885 71.7187 184.885 71.1818C184.885 70.6515 184.809 70.1875 184.656 69.7898C184.504 69.392 184.28 69.0821 183.985 68.8601C183.69 68.638 183.325 68.527 182.891 68.527C182.444 68.527 182.071 68.643 181.773 68.875C181.474 69.107 181.249 69.4235 181.096 69.8246C180.947 70.2256 180.873 70.678 180.873 71.1818C180.873 71.6922 180.949 72.1513 181.101 72.5589C181.254 72.9666 181.479 73.2898 181.778 73.5284C182.079 73.7637 182.45 73.8814 182.891 73.8814ZM188.468 75V67.3636H189.905V68.5767H189.984C190.124 68.1657 190.369 67.8426 190.72 67.6072C191.075 67.3686 191.476 67.2493 191.923 67.2493C192.016 67.2493 192.125 67.2526 192.251 67.2592C192.381 67.2659 192.482 67.2741 192.555 67.2841V68.706C192.495 68.6894 192.389 68.6712 192.237 68.6513C192.084 68.6281 191.932 68.6165 191.779 68.6165C191.428 68.6165 191.115 68.6911 190.839 68.8402C190.568 68.986 190.352 69.1899 190.193 69.4517C190.034 69.7102 189.955 70.0052 189.955 70.3366V75H188.468ZM196.784 75.1541C196.068 75.1541 195.444 74.9901 194.91 74.6619C194.376 74.3338 193.962 73.8748 193.667 73.2848C193.372 72.6948 193.225 72.0054 193.225 71.2166C193.225 70.4245 193.372 69.7318 193.667 69.1385C193.962 68.5452 194.376 68.0845 194.91 67.7564C195.444 67.4283 196.068 67.2642 196.784 67.2642C197.5 67.2642 198.125 67.4283 198.659 67.7564C199.192 68.0845 199.606 68.5452 199.901 69.1385C200.196 69.7318 200.344 70.4245 200.344 71.2166C200.344 72.0054 200.196 72.6948 199.901 73.2848C199.606 73.8748 199.192 74.3338 198.659 74.6619C198.125 74.9901 197.5 75.1541 196.784 75.1541ZM196.789 73.9062C197.253 73.9062 197.638 73.7836 197.943 73.5384C198.248 73.2931 198.473 72.9666 198.619 72.5589C198.768 72.1513 198.843 71.7022 198.843 71.2116C198.843 70.7244 198.768 70.277 198.619 69.8693C198.473 69.4583 198.248 69.1286 197.943 68.88C197.638 68.6314 197.253 68.5071 196.789 68.5071C196.322 68.5071 195.934 68.6314 195.626 68.88C195.321 69.1286 195.094 69.4583 194.945 69.8693C194.799 70.277 194.726 70.7244 194.726 71.2116C194.726 71.7022 194.799 72.1513 194.945 72.5589C195.094 72.9666 195.321 73.2931 195.626 73.5384C195.934 73.7836 196.322 73.9062 196.789 73.9062ZM202.003 77.8636V67.3636H203.455V68.6016H203.579C203.665 68.4425 203.79 68.2585 203.952 68.0497C204.114 67.8409 204.34 67.6586 204.628 67.5028C204.917 67.3438 205.298 67.2642 205.772 67.2642C206.388 67.2642 206.938 67.42 207.422 67.7315C207.906 68.0431 208.286 68.4922 208.561 69.0788C208.839 69.6655 208.978 70.3714 208.978 71.1967C208.978 72.022 208.841 72.7296 208.566 73.3196C208.291 73.9062 207.913 74.3587 207.432 74.6768C206.952 74.9917 206.403 75.1491 205.787 75.1491C205.323 75.1491 204.943 75.0713 204.648 74.9155C204.356 74.7597 204.128 74.5774 203.962 74.3686C203.796 74.1598 203.669 73.9742 203.579 73.8118H203.49V77.8636H202.003ZM203.46 71.1818C203.46 71.7187 203.538 72.1894 203.694 72.5938C203.849 72.9981 204.075 73.3146 204.37 73.5433C204.665 73.7687 205.026 73.8814 205.453 73.8814C205.898 73.8814 206.269 73.7637 206.567 73.5284C206.865 73.2898 207.091 72.9666 207.243 72.5589C207.399 72.1513 207.477 71.6922 207.477 71.1818C207.477 70.678 207.401 70.2256 207.248 69.8246C207.099 69.4235 206.874 69.107 206.572 68.875C206.274 68.643 205.901 68.527 205.453 68.527C205.023 68.527 204.658 68.638 204.36 68.8601C204.065 69.0821 203.841 69.392 203.689 69.7898C203.536 70.1875 203.46 70.6515 203.46 71.1818Z" fill="#37434F"/>
<path d="M99.0387 101V91.5455H102.409C103.144 91.5455 103.754 91.6793 104.237 91.9471C104.72 92.2148 105.082 92.5811 105.322 93.0458C105.562 93.5075 105.682 94.0276 105.682 94.6062C105.682 95.1879 105.56 95.7111 105.317 96.1758C105.077 96.6374 104.714 97.0037 104.228 97.2745C103.744 97.5423 103.137 97.6761 102.404 97.6761H100.087V96.4666H102.275C102.74 96.4666 103.117 96.3866 103.406 96.2266C103.695 96.0634 103.908 95.8419 104.043 95.5618C104.178 95.2817 104.246 94.9632 104.246 94.6062C104.246 94.2492 104.178 93.9322 104.043 93.6552C103.908 93.3782 103.694 93.1612 103.401 93.0043C103.112 92.8473 102.73 92.7688 102.256 92.7688H100.465V101H99.0387ZM114.985 91.5455V101H113.674L108.868 94.0661H108.781V101H107.354V91.5455H108.674L113.485 98.4886H113.573V91.5455H114.985ZM123.464 94.5323C123.375 94.2522 123.255 94.0014 123.104 93.7798C122.957 93.5552 122.78 93.3643 122.574 93.2074C122.367 93.0473 122.132 92.9258 121.867 92.8427C121.606 92.7596 121.318 92.718 121.004 92.718C120.471 92.718 119.991 92.855 119.564 93.1289C119.136 93.4028 118.797 93.8045 118.548 94.3338C118.302 94.8601 118.179 95.5049 118.179 96.2681C118.179 97.0344 118.303 97.6823 118.553 98.2116C118.802 98.741 119.143 99.1426 119.577 99.4165C120.011 99.6905 120.505 99.8274 121.059 99.8274C121.573 99.8274 122.021 99.7228 122.403 99.5135C122.787 99.3042 123.084 99.0088 123.294 98.6271C123.506 98.2424 123.612 97.79 123.612 97.2699L123.982 97.3391H121.276V96.1619H124.993V97.2376C124.993 98.0316 124.823 98.721 124.485 99.3058C124.149 99.8874 123.685 100.337 123.091 100.654C122.5 100.971 121.823 101.129 121.059 101.129C120.204 101.129 119.453 100.932 118.806 100.538C118.163 100.144 117.662 99.5858 117.301 98.8626C116.941 98.1362 116.761 97.2745 116.761 96.2773C116.761 95.5233 116.866 94.8462 117.075 94.2461C117.285 93.646 117.578 93.1366 117.957 92.718C118.339 92.2964 118.786 91.9748 119.3 91.7532C119.817 91.5285 120.382 91.4162 120.995 91.4162C121.506 91.4162 121.981 91.4916 122.421 91.6424C122.864 91.7932 123.258 92.0071 123.603 92.2841C123.951 92.5611 124.239 92.8904 124.466 93.272C124.694 93.6506 124.848 94.0707 124.928 94.5323H123.464ZM128.488 99.7074L128.419 100.211C128.373 100.58 128.294 100.965 128.184 101.365C128.076 101.768 127.964 102.142 127.847 102.487C127.733 102.831 127.639 103.105 127.565 103.308H126.586C126.626 103.117 126.682 102.859 126.753 102.533C126.823 102.21 126.893 101.848 126.96 101.448C127.028 101.048 127.079 100.64 127.113 100.224L127.159 99.7074H128.488ZM137.511 91.5455H138.933V98.2486C138.933 98.8549 138.813 99.3735 138.573 99.8043C138.336 100.235 138.002 100.565 137.571 100.792C137.14 101.017 136.636 101.129 136.057 101.129C135.525 101.129 135.046 101.032 134.621 100.838C134.2 100.645 133.866 100.363 133.62 99.9936C133.376 99.6212 133.255 99.1688 133.255 98.6364H134.672C134.672 98.898 134.732 99.1242 134.852 99.315C134.975 99.5058 135.143 99.6551 135.355 99.7628C135.571 99.8674 135.817 99.9197 136.094 99.9197C136.396 99.9197 136.651 99.8567 136.86 99.7305C137.073 99.6012 137.234 99.4119 137.345 99.1626C137.456 98.9134 137.511 98.6087 137.511 98.2486V91.5455ZM141.009 101V91.5455H144.379C145.115 91.5455 145.724 91.6793 146.208 91.9471C146.691 92.2148 147.052 92.5811 147.292 93.0458C147.532 93.5075 147.653 94.0276 147.653 94.6062C147.653 95.1879 147.531 95.7111 147.288 96.1758C147.048 96.6374 146.685 97.0037 146.198 97.2745C145.715 97.5423 145.107 97.6761 144.375 97.6761H142.057V96.4666H144.246C144.71 96.4666 145.087 96.3866 145.377 96.2266C145.666 96.0634 145.878 95.8419 146.014 95.5618C146.149 95.2817 146.217 94.9632 146.217 94.6062C146.217 94.2492 146.149 93.9322 146.014 93.6552C145.878 93.3782 145.664 93.1612 145.372 93.0043C145.083 92.8473 144.701 92.7688 144.227 92.7688H142.436V101H141.009ZM155.723 94.5323C155.634 94.2522 155.514 94.0014 155.363 93.7798C155.215 93.5552 155.039 93.3643 154.832 93.2074C154.626 93.0473 154.391 92.9258 154.126 92.8427C153.864 92.7596 153.577 92.718 153.263 92.718C152.73 92.718 152.25 92.855 151.822 93.1289C151.395 93.4028 151.056 93.8045 150.807 94.3338C150.561 94.8601 150.437 95.5049 150.437 96.2681C150.437 97.0344 150.562 97.6823 150.811 98.2116C151.061 98.741 151.402 99.1426 151.836 99.4165C152.27 99.6905 152.764 99.8274 153.318 99.8274C153.832 99.8274 154.28 99.7228 154.661 99.5135C155.046 99.3042 155.343 99.0088 155.552 98.6271C155.765 98.2424 155.871 97.79 155.871 97.2699L156.24 97.3391H153.535V96.1619H157.251V97.2376C157.251 98.0316 157.082 98.721 156.744 99.3058C156.408 99.8874 155.943 100.337 155.349 100.654C154.758 100.971 154.081 101.129 153.318 101.129C152.463 101.129 151.712 100.932 151.065 100.538C150.422 100.144 149.92 99.5858 149.56 98.8626C149.2 98.1362 149.02 97.2745 149.02 96.2773C149.02 95.5233 149.125 94.8462 149.334 94.2461C149.543 93.646 149.837 93.1366 150.216 92.718C150.597 92.2964 151.045 91.9748 151.559 91.7532C152.076 91.5285 152.641 91.4162 153.253 91.4162C153.764 91.4162 154.24 91.4916 154.68 91.6424C155.123 91.7932 155.517 92.0071 155.862 92.2841C156.21 92.5611 156.497 92.8904 156.725 93.272C156.953 93.6506 157.107 94.0707 157.187 94.5323H155.723ZM160.747 99.7074L160.678 100.211C160.632 100.58 160.553 100.965 160.442 101.365C160.335 101.768 160.222 102.142 160.105 102.487C159.992 102.831 159.898 103.105 159.824 103.308H158.845C158.885 103.117 158.941 102.859 159.011 102.533C159.082 102.21 159.151 101.848 159.219 101.448C159.287 101.048 159.338 100.64 159.371 100.224L159.418 99.7074H160.747ZM172.494 94.5323C172.405 94.2522 172.285 94.0014 172.134 93.7798C171.986 93.5552 171.809 93.3643 171.603 93.2074C171.397 93.0473 171.161 92.9258 170.896 92.8427C170.635 92.7596 170.347 92.718 170.033 92.718C169.501 92.718 169.021 92.855 168.593 93.1289C168.165 93.4028 167.827 93.8045 167.577 94.3338C167.331 94.8601 167.208 95.5049 167.208 96.2681C167.208 97.0344 167.333 97.6823 167.582 98.2116C167.831 98.741 168.173 99.1426 168.607 99.4165C169.041 99.6905 169.535 99.8274 170.089 99.8274C170.603 99.8274 171.05 99.7228 171.432 99.5135C171.817 99.3042 172.114 99.0088 172.323 98.6271C172.535 98.2424 172.642 97.79 172.642 97.2699L173.011 97.3391H170.306V96.1619H174.022V97.2376C174.022 98.0316 173.853 98.721 173.514 99.3058C173.179 99.8874 172.714 100.337 172.12 100.654C171.529 100.971 170.852 101.129 170.089 101.129C169.233 101.129 168.482 100.932 167.836 100.538C167.193 100.144 166.691 99.5858 166.331 98.8626C165.971 98.1362 165.791 97.2745 165.791 96.2773C165.791 95.5233 165.895 94.8462 166.105 94.2461C166.314 93.646 166.608 93.1366 166.986 92.718C167.368 92.2964 167.816 91.9748 168.33 91.7532C168.847 91.5285 169.412 91.4162 170.024 91.4162C170.535 91.4162 171.01 91.4916 171.45 91.6424C171.894 91.7932 172.288 92.0071 172.632 92.2841C172.98 92.5611 173.268 92.8904 173.496 93.272C173.723 93.6506 173.877 94.0707 173.957 94.5323H172.494ZM177.259 91.5455V101H175.833V91.5455H177.259ZM179.337 101V91.5455H185.199V92.7734H180.763V95.6541H184.779V96.8775H180.763V101H179.337ZM194.775 98.0593V93.9091H196.16V101H194.803V99.772H194.729C194.566 100.151 194.304 100.466 193.944 100.718C193.587 100.968 193.143 101.092 192.61 101.092C192.155 101.092 191.751 100.992 191.401 100.792C191.053 100.589 190.779 100.289 190.579 99.892C190.382 99.495 190.283 99.0041 190.283 98.4194V93.9091H191.664V98.2532C191.664 98.7364 191.798 99.1211 192.065 99.4073C192.333 99.6935 192.681 99.8366 193.109 99.8366C193.367 99.8366 193.624 99.772 193.88 99.6428C194.138 99.5135 194.352 99.3181 194.521 99.0565C194.694 98.7949 194.778 98.4625 194.775 98.0593ZM198.015 103.659V93.9091H199.363V95.0586H199.478C199.558 94.9109 199.674 94.7401 199.824 94.5462C199.975 94.3523 200.185 94.183 200.452 94.0384C200.72 93.8906 201.074 93.8168 201.514 93.8168C202.087 93.8168 202.597 93.9614 203.047 94.2507C203.496 94.54 203.849 94.957 204.104 95.5018C204.362 96.0465 204.492 96.7021 204.492 97.4684C204.492 98.2347 204.364 98.8918 204.109 99.4396C203.853 99.9844 203.502 100.404 203.056 100.7C202.61 100.992 202.1 101.138 201.528 101.138C201.097 101.138 200.745 101.066 200.471 100.922C200.2 100.777 199.988 100.608 199.834 100.414C199.68 100.22 199.561 100.047 199.478 99.8967H199.395V103.659H198.015ZM199.367 97.4545C199.367 97.9531 199.44 98.3902 199.584 98.7656C199.729 99.1411 199.938 99.435 200.212 99.6474C200.486 99.8567 200.822 99.9613 201.219 99.9613C201.631 99.9613 201.976 99.852 202.253 99.6335C202.53 99.4119 202.739 99.1119 202.881 98.7333C203.025 98.3548 203.098 97.9285 203.098 97.4545C203.098 96.9867 203.027 96.5666 202.885 96.1942C202.747 95.8219 202.537 95.5279 202.257 95.3125C201.98 95.0971 201.634 94.9893 201.219 94.9893C200.819 94.9893 200.48 95.0924 200.203 95.2987C199.929 95.5049 199.721 95.7926 199.58 96.1619C199.438 96.5312 199.367 96.9621 199.367 97.4545ZM212.789 93.9091V95.017H208.915V93.9091H212.789ZM209.954 92.2102H211.335V98.918C211.335 99.1857 211.375 99.3873 211.455 99.5227C211.535 99.6551 211.638 99.7459 211.764 99.7951C211.893 99.8413 212.033 99.8643 212.184 99.8643C212.295 99.8643 212.392 99.8567 212.475 99.8413C212.558 99.8259 212.623 99.8136 212.669 99.8043L212.918 100.945C212.838 100.975 212.724 101.006 212.576 101.037C212.429 101.071 212.244 101.089 212.022 101.092C211.659 101.098 211.321 101.034 211.007 100.898C210.693 100.763 210.439 100.554 210.245 100.271C210.051 99.9875 209.954 99.632 209.954 99.2042V92.2102ZM217.226 101.143C216.562 101.143 215.981 100.991 215.486 100.686C214.99 100.381 214.606 99.9551 214.332 99.4073C214.058 98.8595 213.921 98.2193 213.921 97.4869C213.921 96.7513 214.058 96.1081 214.332 95.5572C214.606 95.0063 214.99 94.5785 215.486 94.2738C215.981 93.9691 216.562 93.8168 217.226 93.8168C217.891 93.8168 218.471 93.9691 218.967 94.2738C219.462 94.5785 219.847 95.0063 220.121 95.5572C220.395 96.1081 220.532 96.7513 220.532 97.4869C220.532 98.2193 220.395 98.8595 220.121 99.4073C219.847 99.9551 219.462 100.381 218.967 100.686C218.471 100.991 217.891 101.143 217.226 101.143ZM217.231 99.9844C217.662 99.9844 218.019 99.8705 218.302 99.6428C218.585 99.415 218.794 99.1119 218.93 98.7333C219.068 98.3548 219.138 97.9377 219.138 97.4822C219.138 97.0298 219.068 96.6143 218.93 96.2358C218.794 95.8542 218.585 95.5479 218.302 95.3171C218.019 95.0863 217.662 94.9709 217.231 94.9709C216.797 94.9709 216.437 95.0863 216.151 95.3171C215.868 95.5479 215.657 95.8542 215.518 96.2358C215.383 96.6143 215.315 97.0298 215.315 97.4822C215.315 97.9377 215.383 98.3548 215.518 98.7333C215.657 99.1119 215.868 99.415 216.151 99.6428C216.437 99.8705 216.797 99.9844 217.231 99.9844ZM229.081 91.5455V101H227.65V92.9766H227.595L225.333 94.4538V93.0874L227.692 91.5455H229.081ZM234.93 101.157C234.201 101.154 233.578 100.962 233.061 100.58C232.544 100.198 232.148 99.6428 231.874 98.9134C231.6 98.1839 231.464 97.3053 231.464 96.2773C231.464 95.2525 231.6 94.3769 231.874 93.6506C232.151 92.9242 232.548 92.3703 233.065 91.9886C233.586 91.607 234.207 91.4162 234.93 91.4162C235.654 91.4162 236.274 91.6085 236.791 91.9933C237.308 92.3749 237.703 92.9289 237.977 93.6552C238.254 94.3784 238.393 95.2525 238.393 96.2773C238.393 97.3084 238.256 98.1886 237.982 98.918C237.708 99.6443 237.313 100.2 236.796 100.585C236.278 100.966 235.657 101.157 234.93 101.157ZM234.93 99.9244C235.571 99.9244 236.071 99.612 236.431 98.9872C236.794 98.3625 236.976 97.4592 236.976 96.2773C236.976 95.4925 236.892 94.8293 236.726 94.2876C236.563 93.7429 236.328 93.3305 236.02 93.0504C235.715 92.7673 235.352 92.6257 234.93 92.6257C234.293 92.6257 233.793 92.9396 233.43 93.5675C233.067 94.1953 232.884 95.0986 232.881 96.2773C232.881 97.0652 232.962 97.7315 233.125 98.2763C233.292 98.8179 233.527 99.2288 233.832 99.5089C234.136 99.7859 234.503 99.9244 234.93 99.9244ZM240.16 91.5455H241.891L244.901 98.8949H245.012L248.022 91.5455H249.753V101H248.396V94.1584H248.308L245.52 100.986H244.393L241.605 94.1538H241.517V101H240.16V91.5455ZM251.827 101V91.5455H255.289C255.96 91.5455 256.516 91.6562 256.956 91.8778C257.396 92.0964 257.725 92.3933 257.944 92.7688C258.162 93.1412 258.271 93.5613 258.271 94.0291C258.271 94.4231 258.199 94.7554 258.054 95.0263C257.91 95.294 257.716 95.5095 257.473 95.6726C257.233 95.8326 256.968 95.9496 256.679 96.0234V96.1158C256.993 96.1312 257.299 96.2327 257.597 96.4205C257.899 96.6051 258.148 96.8683 258.345 97.2099C258.542 97.5515 258.641 97.967 258.641 98.4563C258.641 98.9395 258.527 99.3735 258.299 99.7582C258.074 100.14 257.727 100.443 257.256 100.668C256.785 100.889 256.183 101 255.451 101H251.827ZM253.253 99.7766H255.312C255.995 99.7766 256.485 99.6443 256.78 99.3796C257.076 99.1149 257.223 98.7841 257.223 98.3871C257.223 98.0885 257.148 97.8146 256.997 97.5653C256.846 97.3161 256.631 97.1175 256.351 96.9698C256.074 96.8221 255.745 96.7482 255.363 96.7482H253.253V99.7766ZM253.253 95.6357H255.165C255.485 95.6357 255.772 95.5741 256.028 95.451C256.286 95.3279 256.491 95.1555 256.642 94.9339C256.796 94.7093 256.873 94.4446 256.873 94.1399C256.873 93.7491 256.736 93.4213 256.462 93.1566C256.188 92.8919 255.768 92.7596 255.201 92.7596H253.253V95.6357Z" fill="#91A5BA"/>
<rect x="17" y="16.5" width="268" height="113" rx="3.5" stroke="#C1CFDE" stroke-dasharray="6 6"/>
<g filter="url(#filter0_d_2245_17669)">
<path d="M16.5 148C16.5 144.686 19.1863 142 22.5 142H197.5V184H22.5C19.1863 184 16.5 181.314 16.5 178V148Z" fill="white"/>
<path d="M33.733 168V157.818H39.8778V158.912H34.9659V162.352H39.5597V163.446H34.9659V166.906H39.9574V168H33.733ZM43.1143 163.406V168H41.9411V160.364H43.0746V161.557H43.174C43.353 161.169 43.6248 160.857 43.9893 160.622C44.3539 160.384 44.8246 160.264 45.4013 160.264C45.9183 160.264 46.3707 160.37 46.7585 160.582C47.1463 160.791 47.4479 161.109 47.6634 161.537C47.8788 161.961 47.9865 162.498 47.9865 163.148V168H46.8132V163.227C46.8132 162.627 46.6574 162.16 46.3459 161.825C46.0343 161.487 45.6068 161.318 45.0632 161.318C44.6887 161.318 44.3539 161.399 44.0589 161.562C43.7673 161.724 43.5369 161.961 43.3679 162.273C43.1989 162.584 43.1143 162.962 43.1143 163.406ZM53.4515 160.364V161.358H49.4941V160.364H53.4515ZM50.6475 158.534H51.8208V165.812C51.8208 166.144 51.8689 166.393 51.965 166.558C52.0645 166.721 52.1904 166.83 52.3429 166.886C52.4986 166.939 52.6627 166.966 52.835 166.966C52.9643 166.966 53.0704 166.959 53.1532 166.946C53.2361 166.929 53.3024 166.916 53.3521 166.906L53.5907 167.96C53.5112 167.99 53.4002 168.02 53.2576 168.05C53.1151 168.083 52.9345 168.099 52.7157 168.099C52.3843 168.099 52.0595 168.028 51.7413 167.886C51.4264 167.743 51.1646 167.526 50.9558 167.234C50.7503 166.943 50.6475 166.575 50.6475 166.131V158.534ZM58.3361 168.159C57.6003 168.159 56.9656 167.997 56.432 167.672C55.9017 167.344 55.4924 166.886 55.204 166.3C54.919 165.71 54.7765 165.024 54.7765 164.241C54.7765 163.459 54.919 162.77 55.204 162.173C55.4924 161.573 55.8934 161.106 56.4071 160.771C56.9242 160.433 57.5274 160.264 58.2168 160.264C58.6145 160.264 59.0073 160.33 59.3951 160.463C59.7828 160.596 60.1358 160.811 60.454 161.109C60.7722 161.404 61.0257 161.795 61.2147 162.283C61.4036 162.77 61.498 163.37 61.498 164.082V164.58H55.6117V163.565H60.3049C60.3049 163.134 60.2187 162.75 60.0463 162.412C59.8773 162.074 59.6354 161.807 59.3205 161.612C59.0089 161.416 58.641 161.318 58.2168 161.318C57.7495 161.318 57.3451 161.434 57.0037 161.666C56.6657 161.895 56.4055 162.193 56.2232 162.561C56.0409 162.929 55.9498 163.323 55.9498 163.744V164.42C55.9498 164.997 56.0492 165.486 56.248 165.887C56.4502 166.285 56.7303 166.588 57.0882 166.797C57.4462 167.002 57.8622 167.105 58.3361 167.105C58.6444 167.105 58.9228 167.062 59.1713 166.976C59.4232 166.886 59.6403 166.754 59.8226 166.578C60.0049 166.399 60.1458 166.177 60.2452 165.912L61.3787 166.23C61.2594 166.615 61.0589 166.953 60.7772 167.244C60.4954 167.533 60.1474 167.758 59.7331 167.92C59.3188 168.08 58.8532 168.159 58.3361 168.159ZM63.2828 168V160.364H64.4164V161.517H64.4959C64.6351 161.139 64.887 160.833 65.2516 160.597C65.6162 160.362 66.0272 160.244 66.4846 160.244C66.5707 160.244 66.6784 160.246 66.8077 160.249C66.937 160.253 67.0347 160.258 67.101 160.264V161.457C67.0613 161.447 66.9701 161.433 66.8276 161.413C66.6884 161.389 66.5409 161.378 66.3851 161.378C66.0139 161.378 65.6825 161.456 65.3908 161.612C65.1025 161.764 64.8738 161.976 64.7047 162.248C64.539 162.516 64.4561 162.823 64.4561 163.168V168H63.2828ZM72.4293 168V160.364H73.6026V168H72.4293ZM73.0259 159.091C72.7972 159.091 72.6 159.013 72.4343 158.857C72.2719 158.701 72.1907 158.514 72.1907 158.295C72.1907 158.077 72.2719 157.889 72.4343 157.734C72.6 157.578 72.7972 157.5 73.0259 157.5C73.2546 157.5 73.4502 157.578 73.6126 157.734C73.7783 157.889 73.8612 158.077 73.8612 158.295C73.8612 158.514 73.7783 158.701 73.6126 158.857C73.4502 159.013 73.2546 159.091 73.0259 159.091ZM75.7516 168V160.364H76.8851V161.557H76.9846C77.1436 161.149 77.4005 160.833 77.7551 160.607C78.1098 160.379 78.5357 160.264 79.0328 160.264C79.5366 160.264 79.9559 160.379 80.2907 160.607C80.6287 160.833 80.8922 161.149 81.0811 161.557H81.1607C81.3562 161.162 81.6496 160.849 82.0407 160.617C82.4318 160.382 82.9007 160.264 83.4476 160.264C84.1304 160.264 84.6889 160.478 85.123 160.906C85.5572 161.33 85.7743 161.991 85.7743 162.889V168H84.601V162.889C84.601 162.326 84.4469 161.923 84.1387 161.681C83.8304 161.439 83.4675 161.318 83.0499 161.318C82.513 161.318 82.097 161.481 81.802 161.805C81.507 162.127 81.3596 162.535 81.3596 163.028V168H80.1664V162.77C80.1664 162.336 80.0255 161.986 79.7438 161.721C79.4621 161.452 79.0991 161.318 78.655 161.318C78.3501 161.318 78.065 161.399 77.7999 161.562C77.5381 161.724 77.3259 161.95 77.1635 162.238C77.0044 162.523 76.9249 162.853 76.9249 163.227V168H75.7516ZM90.1667 168.179C89.6828 168.179 89.2437 168.088 88.8493 167.906C88.4548 167.72 88.1416 167.453 87.9096 167.105C87.6776 166.754 87.5616 166.33 87.5616 165.832C87.5616 165.395 87.6478 165.04 87.8201 164.768C87.9925 164.493 88.2228 164.278 88.5112 164.122C88.7995 163.966 89.1177 163.85 89.4657 163.774C89.8171 163.695 90.17 163.632 90.5247 163.585C90.9887 163.526 91.3649 163.481 91.6532 163.451C91.9449 163.418 92.157 163.363 92.2896 163.287C92.4255 163.211 92.4934 163.078 92.4934 162.889V162.849C92.4934 162.359 92.3592 161.978 92.0907 161.706C91.8256 161.434 91.4229 161.298 90.8826 161.298C90.3225 161.298 89.8833 161.421 89.5652 161.666C89.247 161.911 89.0233 162.173 88.894 162.452L87.7804 162.054C87.9792 161.59 88.2444 161.229 88.5758 160.97C88.9106 160.708 89.2752 160.526 89.6696 160.423C90.0673 160.317 90.4584 160.264 90.8429 160.264C91.0881 160.264 91.3699 160.294 91.688 160.354C92.0095 160.41 92.3194 160.528 92.6177 160.707C92.9193 160.886 93.1696 161.156 93.3684 161.517C93.5673 161.878 93.6667 162.362 93.6667 162.969V168H92.4934V166.966H92.4338C92.3542 167.132 92.2217 167.309 92.036 167.498C91.8504 167.687 91.6035 167.848 91.2953 167.98C90.987 168.113 90.6109 168.179 90.1667 168.179ZM90.3457 167.125C90.8097 167.125 91.2008 167.034 91.519 166.852C91.8405 166.669 92.0824 166.434 92.2449 166.146C92.4106 165.857 92.4934 165.554 92.4934 165.236V164.162C92.4437 164.222 92.3343 164.276 92.1653 164.326C91.9996 164.372 91.8074 164.414 91.5886 164.45C91.3732 164.483 91.1627 164.513 90.9572 164.54C90.755 164.563 90.591 164.583 90.465 164.599C90.1601 164.639 89.8751 164.704 89.6099 164.793C89.3481 164.879 89.1359 165.01 88.9735 165.186C88.8145 165.358 88.7349 165.594 88.7349 165.892C88.7349 166.3 88.8857 166.608 89.1873 166.817C89.4922 167.022 89.8784 167.125 90.3457 167.125ZM98.8906 171.023C98.3239 171.023 97.8366 170.95 97.429 170.804C97.0213 170.661 96.6816 170.473 96.4098 170.237C96.1413 170.005 95.9276 169.757 95.7685 169.491L96.7031 168.835C96.8092 168.974 96.9434 169.134 97.1058 169.312C97.2682 169.495 97.4903 169.652 97.772 169.785C98.0571 169.921 98.4299 169.989 98.8906 169.989C99.5071 169.989 100.016 169.839 100.417 169.541C100.818 169.243 101.018 168.776 101.018 168.139V166.588H100.919C100.833 166.727 100.71 166.9 100.551 167.105C100.395 167.307 100.17 167.488 99.875 167.647C99.5833 167.803 99.1889 167.881 98.6918 167.881C98.0753 167.881 97.5218 167.735 97.0312 167.443C96.544 167.152 96.1579 166.727 95.8729 166.17C95.5911 165.614 95.4503 164.937 95.4503 164.142C95.4503 163.36 95.5878 162.679 95.8629 162.099C96.138 161.515 96.5208 161.065 97.0114 160.746C97.5019 160.425 98.0687 160.264 98.7116 160.264C99.2088 160.264 99.6032 160.347 99.8949 160.513C100.19 160.675 100.415 160.861 100.571 161.07C100.73 161.275 100.853 161.444 100.939 161.577H101.058V160.364H102.192V168.219C102.192 168.875 102.043 169.409 101.744 169.82C101.449 170.234 101.052 170.537 100.551 170.729C100.054 170.925 99.5005 171.023 98.8906 171.023ZM98.8509 166.827C99.3215 166.827 99.7192 166.719 100.044 166.504C100.369 166.288 100.616 165.978 100.785 165.574C100.954 165.17 101.038 164.686 101.038 164.122C101.038 163.572 100.955 163.086 100.79 162.665C100.624 162.245 100.379 161.915 100.054 161.676C99.7292 161.437 99.3281 161.318 98.8509 161.318C98.3537 161.318 97.9394 161.444 97.608 161.696C97.2798 161.948 97.0329 162.286 96.8672 162.71C96.7048 163.134 96.6236 163.605 96.6236 164.122C96.6236 164.652 96.7064 165.121 96.8722 165.529C97.0412 165.933 97.2898 166.252 97.6179 166.484C97.9493 166.712 98.3603 166.827 98.8509 166.827ZM107.541 168.159C106.805 168.159 106.171 167.997 105.637 167.672C105.107 167.344 104.697 166.886 104.409 166.3C104.124 165.71 103.982 165.024 103.982 164.241C103.982 163.459 104.124 162.77 104.409 162.173C104.697 161.573 105.098 161.106 105.612 160.771C106.129 160.433 106.732 160.264 107.422 160.264C107.82 160.264 108.212 160.33 108.6 160.463C108.988 160.596 109.341 160.811 109.659 161.109C109.977 161.404 110.231 161.795 110.42 162.283C110.609 162.77 110.703 163.37 110.703 164.082V164.58H104.817V163.565H109.51C109.51 163.134 109.424 162.75 109.251 162.412C109.082 162.074 108.84 161.807 108.526 161.612C108.214 161.416 107.846 161.318 107.422 161.318C106.955 161.318 106.55 161.434 106.209 161.666C105.871 161.895 105.611 162.193 105.428 162.561C105.246 162.929 105.155 163.323 105.155 163.744V164.42C105.155 164.997 105.254 165.486 105.453 165.887C105.655 166.285 105.935 166.588 106.293 166.797C106.651 167.002 107.067 167.105 107.541 167.105C107.849 167.105 108.128 167.062 108.376 166.976C108.628 166.886 108.845 166.754 109.028 166.578C109.21 166.399 109.351 166.177 109.45 165.912L110.584 166.23C110.464 166.615 110.264 166.953 109.982 167.244C109.701 167.533 109.353 167.758 108.938 167.92C108.524 168.08 108.058 168.159 107.541 168.159ZM123.266 157.818H124.499V164.56C124.499 165.256 124.335 165.877 124.007 166.424C123.682 166.968 123.223 167.397 122.63 167.712C122.037 168.023 121.341 168.179 120.542 168.179C119.743 168.179 119.047 168.023 118.454 167.712C117.861 167.397 117.4 166.968 117.072 166.424C116.747 165.877 116.585 165.256 116.585 164.56V157.818H117.817V164.46C117.817 164.957 117.927 165.4 118.146 165.788C118.364 166.172 118.676 166.475 119.08 166.697C119.488 166.916 119.975 167.026 120.542 167.026C121.109 167.026 121.596 166.916 122.004 166.697C122.411 166.475 122.723 166.172 122.938 165.788C123.157 165.4 123.266 164.957 123.266 164.46V157.818ZM126.961 168V157.818H130.402C131.197 157.818 131.85 157.954 132.361 158.226C132.871 158.494 133.249 158.864 133.494 159.335C133.739 159.805 133.862 160.34 133.862 160.94C133.862 161.54 133.739 162.072 133.494 162.536C133.249 163 132.873 163.365 132.366 163.63C131.858 163.892 131.211 164.023 130.422 164.023H127.638V162.909H130.382C130.925 162.909 131.363 162.83 131.694 162.67C132.029 162.511 132.271 162.286 132.42 161.994C132.573 161.699 132.649 161.348 132.649 160.94C132.649 160.533 132.573 160.176 132.42 159.871C132.268 159.567 132.024 159.331 131.689 159.165C131.355 158.996 130.912 158.912 130.362 158.912H128.194V168H126.961ZM131.754 163.426L134.26 168H132.828L130.362 163.426H131.754ZM135.917 168V157.818H137.15V166.906H141.882V168H135.917Z" fill="#64778C"/>
<path d="M197.5 142H198.5V141H197.5V142ZM197.5 184V185H198.5V184H197.5ZM22.5 143H197.5V141H22.5V143ZM196.5 142V184H198.5V142H196.5ZM197.5 183H22.5V185H197.5V183ZM17.5 178V148H15.5V178H17.5ZM22.5 183C19.7386 183 17.5 180.761 17.5 178H15.5C15.5 181.866 18.634 185 22.5 185V183ZM22.5 141C18.634 141 15.5 144.134 15.5 148H17.5C17.5 145.239 19.7386 143 22.5 143V141Z" fill="#DDE7F0"/>
</g>
<path d="M197.5 142H281.5C283.709 142 285.5 143.791 285.5 146V180C285.5 182.209 283.709 184 281.5 184H197.5V142Z" fill="#6F59EC"/>
<path d="M219.002 168V157.818H225.624V159.364H220.847V162.129H225.281V163.675H220.847V166.454H225.664V168H219.002ZM227.427 168V160.364H229.147V161.661H229.236C229.395 161.224 229.659 160.882 230.027 160.637C230.395 160.388 230.834 160.264 231.344 160.264C231.861 160.264 232.297 160.39 232.652 160.642C233.01 160.891 233.262 161.23 233.407 161.661H233.487C233.656 161.237 233.941 160.899 234.342 160.647C234.747 160.392 235.225 160.264 235.779 160.264C236.482 160.264 237.055 160.486 237.499 160.93C237.943 161.375 238.165 162.022 238.165 162.874V168H236.361V163.153C236.361 162.679 236.235 162.332 235.983 162.114C235.731 161.892 235.423 161.781 235.058 161.781C234.624 161.781 234.284 161.916 234.039 162.188C233.797 162.457 233.676 162.806 233.676 163.237V168H231.911V163.078C231.911 162.684 231.792 162.369 231.553 162.134C231.318 161.898 231.01 161.781 230.628 161.781C230.37 161.781 230.135 161.847 229.922 161.979C229.71 162.109 229.541 162.293 229.415 162.531C229.289 162.767 229.226 163.042 229.226 163.357V168H227.427ZM240.071 168V157.818H241.87V161.626H241.945C242.038 161.441 242.169 161.244 242.338 161.035C242.507 160.823 242.735 160.642 243.024 160.493C243.312 160.34 243.68 160.264 244.127 160.264C244.717 160.264 245.249 160.415 245.723 160.717C246.201 161.015 246.578 161.457 246.857 162.044C247.139 162.627 247.279 163.343 247.279 164.192C247.279 165.03 247.142 165.743 246.867 166.33C246.592 166.916 246.217 167.364 245.743 167.672C245.269 167.98 244.732 168.134 244.132 168.134C243.695 168.134 243.332 168.061 243.044 167.915C242.755 167.77 242.523 167.594 242.348 167.388C242.175 167.18 242.041 166.982 241.945 166.797H241.841V168H240.071ZM241.836 164.182C241.836 164.676 241.905 165.108 242.044 165.479C242.187 165.851 242.391 166.141 242.656 166.349C242.924 166.555 243.249 166.658 243.63 166.658C244.028 166.658 244.361 166.552 244.63 166.339C244.898 166.124 245.1 165.831 245.236 165.46C245.375 165.085 245.445 164.659 245.445 164.182C245.445 163.708 245.377 163.287 245.241 162.919C245.105 162.551 244.903 162.263 244.635 162.054C244.366 161.845 244.031 161.741 243.63 161.741C243.246 161.741 242.919 161.842 242.651 162.044C242.382 162.246 242.179 162.53 242.039 162.894C241.904 163.259 241.836 163.688 241.836 164.182ZM252.19 168.149C251.425 168.149 250.763 167.99 250.206 167.672C249.653 167.35 249.227 166.896 248.929 166.31C248.631 165.72 248.481 165.025 248.481 164.227C248.481 163.441 248.631 162.752 248.929 162.158C249.23 161.562 249.651 161.098 250.192 160.766C250.732 160.432 251.367 160.264 252.096 160.264C252.566 160.264 253.01 160.34 253.428 160.493C253.849 160.642 254.22 160.874 254.542 161.189C254.867 161.504 255.122 161.905 255.307 162.392C255.493 162.876 255.586 163.453 255.586 164.122V164.674H249.327V163.461H253.861C253.857 163.116 253.783 162.81 253.637 162.541C253.491 162.269 253.287 162.056 253.025 161.9C252.767 161.744 252.465 161.666 252.121 161.666C251.753 161.666 251.43 161.756 251.151 161.935C250.873 162.11 250.656 162.342 250.5 162.631C250.347 162.916 250.269 163.229 250.266 163.57V164.629C250.266 165.073 250.347 165.455 250.51 165.773C250.672 166.088 250.899 166.33 251.191 166.499C251.483 166.664 251.824 166.747 252.215 166.747C252.477 166.747 252.714 166.711 252.926 166.638C253.138 166.562 253.322 166.451 253.478 166.305C253.634 166.159 253.751 165.978 253.831 165.763L255.511 165.952C255.405 166.396 255.203 166.784 254.905 167.115C254.61 167.443 254.232 167.698 253.771 167.881C253.31 168.06 252.783 168.149 252.19 168.149ZM259.942 168.134C259.342 168.134 258.805 167.98 258.331 167.672C257.857 167.364 257.483 166.916 257.208 166.33C256.933 165.743 256.795 165.03 256.795 164.192C256.795 163.343 256.934 162.627 257.213 162.044C257.494 161.457 257.874 161.015 258.351 160.717C258.828 160.415 259.36 160.264 259.947 160.264C260.395 160.264 260.762 160.34 261.051 160.493C261.339 160.642 261.568 160.823 261.737 161.035C261.906 161.244 262.037 161.441 262.13 161.626H262.204V157.818H264.009V168H262.239V166.797H262.13C262.037 166.982 261.903 167.18 261.727 167.388C261.551 167.594 261.319 167.77 261.031 167.915C260.743 168.061 260.38 168.134 259.942 168.134ZM260.444 166.658C260.825 166.658 261.15 166.555 261.419 166.349C261.687 166.141 261.891 165.851 262.03 165.479C262.169 165.108 262.239 164.676 262.239 164.182C262.239 163.688 262.169 163.259 262.03 162.894C261.894 162.53 261.692 162.246 261.424 162.044C261.158 161.842 260.832 161.741 260.444 161.741C260.043 161.741 259.708 161.845 259.44 162.054C259.172 162.263 258.969 162.551 258.833 162.919C258.698 163.287 258.63 163.708 258.63 164.182C258.63 164.659 258.698 165.085 258.833 165.46C258.973 165.831 259.176 166.124 259.445 166.339C259.717 166.552 260.05 166.658 260.444 166.658Z" fill="white"/>
<rect x="1" y="0.5" width="300" height="199" rx="3.5" stroke="#EBF2F7"/>
<defs>
<filter id="filter0_d_2245_17669" x="14.5" y="141" width="185" height="46" filterUnits="userSpaceOnUse" color-interpolation-filters="sRGB">
<feFlood flood-opacity="0" result="BackgroundImageFix"/>
<feColorMatrix in="SourceAlpha" type="matrix" values="0 0 0 0 0 0 0 0 0 0 0 0 0 0 0 0 0 0 127 0" result="hardAlpha"/>
<feOffset dy="1"/>
<feGaussianBlur stdDeviation="1"/>
<feColorMatrix type="matrix" values="0 0 0 0 0 0 0 0 0 0 0 0 0 0 0 0 0 0 0.05 0"/>
<feBlend mode="normal" in2="BackgroundImageFix" result="effect1_dropShadow_2245_17669"/>
<feBlend mode="normal" in="SourceGraphic" in2="effect1_dropShadow_2245_17669" result="shape"/>
</filter>
</defs>
</svg>
