<svg width="507" height="415" viewBox="0 0 507 415" fill="none" xmlns="http://www.w3.org/2000/svg">
<path d="M59.2974 293.818V295.31H54.4608V293.818H59.2974ZM55.67 302V293.046C55.67 292.495 55.7836 292.037 56.0109 291.672C56.2417 291.306 56.5506 291.032 56.9377 290.851C57.3248 290.67 57.7545 290.58 58.2268 290.58C58.5606 290.58 58.8571 290.606 59.1163 290.659C59.3756 290.713 59.5673 290.761 59.6916 290.803L59.3081 292.295C59.2264 292.27 59.1234 292.245 58.9991 292.22C58.8749 292.192 58.7364 292.178 58.5837 292.178C58.225 292.178 57.9711 292.265 57.8219 292.439C57.6763 292.609 57.6035 292.854 57.6035 293.174V302H55.67ZM66.4724 298.559V293.818H68.4007V302H66.531V300.546H66.4458C66.2611 301.004 65.9575 301.379 65.5349 301.67C65.1159 301.961 64.5992 302.107 63.9848 302.107C63.4486 302.107 62.9745 301.988 62.5626 301.75C62.1542 301.508 61.8346 301.158 61.6038 300.7C61.373 300.239 61.2576 299.681 61.2576 299.028V293.818H63.1858V298.729C63.1858 299.248 63.3279 299.66 63.612 299.965C63.8961 300.271 64.2689 300.423 64.7306 300.423C65.0147 300.423 65.2899 300.354 65.5562 300.216C65.8225 300.077 66.0409 299.871 66.2114 299.598C66.3854 299.321 66.4724 298.974 66.4724 298.559ZM72.7618 291.091V302H70.8335V291.091H72.7618ZM77.1229 291.091V302H75.1947V291.091H77.1229ZM88.6059 291.091V302H86.8481L81.7078 294.569H81.6172V302H79.641V291.091H81.4095L86.5444 298.527H86.6403V291.091H88.6059ZM93.4784 302.165C92.9599 302.165 92.4929 302.073 92.0774 301.888C91.6655 301.7 91.3388 301.423 91.0973 301.057C90.8594 300.691 90.7404 300.24 90.7404 299.704C90.7404 299.243 90.8257 298.861 90.9961 298.559C91.1666 298.257 91.3992 298.016 91.6939 297.835C91.9887 297.653 92.3207 297.517 92.69 297.424C93.0629 297.328 93.4482 297.259 93.8459 297.217C94.3253 297.167 94.7142 297.123 95.0125 297.083C95.3108 297.041 95.5274 296.977 95.6623 296.892C95.8008 296.803 95.8701 296.666 95.8701 296.482V296.45C95.8701 296.048 95.7511 295.738 95.5132 295.517C95.2752 295.297 94.9326 295.187 94.4851 295.187C94.0128 295.187 93.6382 295.29 93.3612 295.496C93.0877 295.702 92.9031 295.945 92.8072 296.226L91.0068 295.97C91.1488 295.473 91.3832 295.058 91.7099 294.724C92.0366 294.386 92.4361 294.134 92.9084 293.967C93.3807 293.797 93.9027 293.712 94.4745 293.712C94.8686 293.712 95.261 293.758 95.6517 293.85C96.0423 293.942 96.3992 294.095 96.7223 294.308C97.0455 294.518 97.3047 294.804 97.5 295.166C97.6989 295.528 97.7983 295.981 97.7983 296.524V302H95.9446V300.876H95.8807C95.7635 301.103 95.5984 301.316 95.3853 301.515C95.1758 301.711 94.9113 301.869 94.5917 301.989C94.2756 302.107 93.9045 302.165 93.4784 302.165ZM93.9791 300.748C94.3662 300.748 94.7017 300.672 94.9858 300.519C95.2699 300.363 95.4883 300.157 95.641 299.901C95.7973 299.646 95.8754 299.367 95.8754 299.065V298.101C95.815 298.151 95.712 298.197 95.5664 298.239C95.4244 298.282 95.2646 298.319 95.087 298.351C94.9095 298.383 94.7337 298.412 94.5597 298.436C94.3857 298.461 94.2348 298.483 94.1069 298.5C93.8193 298.539 93.5618 298.603 93.3346 298.692C93.1073 298.781 92.9279 298.905 92.7966 299.065C92.6652 299.221 92.5995 299.424 92.5995 299.672C92.5995 300.027 92.7291 300.295 92.9883 300.477C93.2475 300.658 93.5778 300.748 93.9791 300.748ZM100.187 302V293.818H102.03V295.208H102.126C102.297 294.74 102.579 294.374 102.973 294.111C103.367 293.845 103.838 293.712 104.385 293.712C104.939 293.712 105.406 293.847 105.786 294.116C106.169 294.383 106.439 294.747 106.595 295.208H106.681C106.862 294.754 107.167 294.392 107.597 294.122C108.03 293.848 108.543 293.712 109.136 293.712C109.889 293.712 110.503 293.95 110.979 294.425C111.455 294.901 111.693 295.596 111.693 296.508V302H109.759V296.806C109.759 296.299 109.624 295.928 109.355 295.693C109.085 295.455 108.754 295.336 108.364 295.336C107.899 295.336 107.535 295.482 107.272 295.773C107.013 296.061 106.883 296.435 106.883 296.897V302H104.992V296.727C104.992 296.304 104.864 295.967 104.608 295.714C104.356 295.462 104.026 295.336 103.618 295.336C103.341 295.336 103.089 295.407 102.861 295.549C102.634 295.688 102.453 295.885 102.318 296.141C102.183 296.393 102.116 296.687 102.116 297.025V302H100.187ZM117.721 302.16C116.901 302.16 116.193 301.989 115.596 301.648C115.003 301.304 114.547 300.817 114.227 300.189C113.907 299.557 113.748 298.813 113.748 297.957C113.748 297.115 113.907 296.377 114.227 295.741C114.55 295.102 115.001 294.605 115.58 294.25C116.159 293.891 116.839 293.712 117.62 293.712C118.124 293.712 118.6 293.793 119.048 293.957C119.499 294.116 119.896 294.365 120.241 294.702C120.589 295.04 120.862 295.469 121.061 295.991C121.26 296.51 121.359 297.128 121.359 297.845V298.436H114.653V297.137H119.511C119.508 296.767 119.428 296.439 119.271 296.151C119.115 295.86 118.897 295.631 118.616 295.464C118.339 295.297 118.016 295.214 117.647 295.214C117.253 295.214 116.906 295.31 116.608 295.501C116.31 295.69 116.077 295.938 115.91 296.247C115.747 296.553 115.663 296.888 115.66 297.254V298.388C115.66 298.864 115.747 299.273 115.921 299.614C116.095 299.951 116.338 300.21 116.651 300.391C116.963 300.569 117.329 300.658 117.748 300.658C118.028 300.658 118.282 300.619 118.51 300.54C118.737 300.459 118.934 300.34 119.101 300.184C119.268 300.027 119.394 299.834 119.479 299.603L121.28 299.805C121.166 300.281 120.949 300.697 120.63 301.052C120.314 301.403 119.909 301.677 119.415 301.872C118.922 302.064 118.357 302.16 117.721 302.16Z" fill="#6048E5"/>
<path d="M24.5637 315.091H26.5613L30.0343 323.571H30.1621L33.6351 315.091H35.6326V326H34.0666V318.106H33.9654L30.748 325.984H29.4483L26.231 318.1H26.1298V326H24.5637V315.091ZM40.2789 326.181C39.7604 326.181 39.2916 326.085 38.8726 325.893C38.4536 325.698 38.1215 325.416 37.8765 325.047C37.635 324.677 37.5143 324.224 37.5143 323.688C37.5143 323.227 37.6031 322.847 37.7806 322.548C37.9582 322.25 38.1979 322.014 38.4997 321.84C38.8016 321.666 39.1389 321.534 39.5118 321.446C39.8847 321.357 40.2646 321.289 40.6517 321.243C41.1418 321.186 41.5395 321.14 41.8449 321.105C42.1503 321.066 42.3722 321.004 42.5107 320.918C42.6492 320.833 42.7185 320.695 42.7185 320.503V320.466C42.7185 320 42.5871 319.64 42.3243 319.384C42.0651 319.129 41.678 319.001 41.1631 319.001C40.6269 319.001 40.2043 319.12 39.8953 319.358C39.5899 319.592 39.3786 319.853 39.2615 320.141L37.7646 319.8C37.9422 319.303 38.2014 318.901 38.5423 318.596C38.8868 318.287 39.2828 318.063 39.7302 317.925C40.1776 317.783 40.6482 317.712 41.1418 317.712C41.4685 317.712 41.8147 317.751 42.1805 317.829C42.5498 317.903 42.8943 318.042 43.2139 318.244C43.537 318.447 43.8016 318.736 44.0075 319.113C44.2135 319.485 44.3165 319.97 44.3165 320.567V326H42.7611V324.881H42.6972C42.5942 325.087 42.4397 325.29 42.2338 325.489C42.0278 325.687 41.7632 325.853 41.4401 325.984C41.1169 326.115 40.7298 326.181 40.2789 326.181ZM40.6251 324.903C41.0654 324.903 41.4419 324.816 41.7544 324.642C42.0704 324.468 42.3101 324.24 42.4735 323.96C42.6404 323.676 42.7238 323.372 42.7238 323.049V321.994C42.667 322.051 42.5569 322.104 42.3936 322.154C42.2338 322.2 42.0509 322.241 41.8449 322.277C41.6389 322.309 41.4383 322.339 41.243 322.367C41.0477 322.392 40.8843 322.413 40.7529 322.431C40.444 322.47 40.1617 322.536 39.906 322.628C39.6539 322.721 39.4514 322.854 39.2987 323.028C39.1496 323.198 39.075 323.425 39.075 323.71C39.075 324.104 39.2206 324.402 39.5118 324.604C39.803 324.803 40.1741 324.903 40.6251 324.903ZM46.4379 326V317.818H47.9773V319.118H48.0625C48.2116 318.678 48.4744 318.331 48.8509 318.079C49.2308 317.824 49.6605 317.696 50.1399 317.696C50.2393 317.696 50.3565 317.699 50.4915 317.706C50.63 317.713 50.7383 317.722 50.8164 317.733V319.256C50.7525 319.239 50.6388 319.219 50.4755 319.198C50.3121 319.173 50.1488 319.161 49.9854 319.161C49.609 319.161 49.2734 319.24 48.9787 319.4C48.6875 319.556 48.4567 319.775 48.2862 320.055C48.1158 320.332 48.0305 320.648 48.0305 321.004V326H46.4379ZM52.1947 326V317.818H53.7874V326H52.1947ZM52.999 316.556C52.722 316.556 52.4841 316.463 52.2852 316.279C52.0899 316.091 51.9923 315.867 51.9923 315.608C51.9923 315.345 52.0899 315.121 52.2852 314.936C52.4841 314.748 52.722 314.654 52.999 314.654C53.276 314.654 53.5122 314.748 53.7075 314.936C53.9063 315.121 54.0058 315.345 54.0058 315.608C54.0058 315.867 53.9063 316.091 53.7075 316.279C53.5122 316.463 53.276 316.556 52.999 316.556ZM58.3111 326.181C57.7926 326.181 57.3239 326.085 56.9048 325.893C56.4858 325.698 56.1538 325.416 55.9087 325.047C55.6673 324.677 55.5465 324.224 55.5465 323.688C55.5465 323.227 55.6353 322.847 55.8129 322.548C55.9904 322.25 56.2301 322.014 56.532 321.84C56.8338 321.666 57.1712 321.534 57.544 321.446C57.9169 321.357 58.2969 321.289 58.6839 321.243C59.174 321.186 59.5717 321.14 59.8771 321.105C60.1825 321.066 60.4045 321.004 60.543 320.918C60.6815 320.833 60.7507 320.695 60.7507 320.503V320.466C60.7507 320 60.6193 319.64 60.3565 319.384C60.0973 319.129 59.7102 319.001 59.1953 319.001C58.6591 319.001 58.2365 319.12 57.9276 319.358C57.6222 319.592 57.4109 319.853 57.2937 320.141L55.7969 319.8C55.9744 319.303 56.2337 318.901 56.5746 318.596C56.919 318.287 57.315 318.063 57.7624 317.925C58.2099 317.783 58.6804 317.712 59.174 317.712C59.5007 317.712 59.8469 317.751 60.2127 317.829C60.582 317.903 60.9265 318.042 61.2461 318.244C61.5692 318.447 61.8338 318.736 62.0398 319.113C62.2457 319.485 62.3487 319.97 62.3487 320.567V326H60.7933V324.881H60.7294C60.6264 325.087 60.4719 325.29 60.266 325.489C60.06 325.687 59.7955 325.853 59.4723 325.984C59.1491 326.115 58.7621 326.181 58.3111 326.181ZM58.6573 324.903C59.0977 324.903 59.4741 324.816 59.7866 324.642C60.1026 324.468 60.3423 324.24 60.5057 323.96C60.6726 323.676 60.756 323.372 60.756 323.049V321.994C60.6992 322.051 60.5891 322.104 60.4258 322.154C60.266 322.2 60.0831 322.241 59.8771 322.277C59.6712 322.309 59.4705 322.339 59.2752 322.367C59.0799 322.392 58.9165 322.413 58.7852 322.431C58.4762 322.47 58.1939 322.536 57.9382 322.628C57.6861 322.721 57.4837 322.854 57.331 323.028C57.1818 323.198 57.1072 323.425 57.1072 323.71C57.1072 324.104 57.2528 324.402 57.544 324.604C57.8352 324.803 58.2063 324.903 58.6573 324.903ZM68.5676 315.091H70.5652L74.0382 323.571H74.166L77.639 315.091H79.6365V326H78.0705V318.106H77.9693L74.752 325.984H73.4522L70.2349 318.1H70.1337V326H68.5676V315.091ZM84.2828 326.181C83.7643 326.181 83.2955 326.085 82.8765 325.893C82.4575 325.698 82.1254 325.416 81.8804 325.047C81.6389 324.677 81.5182 324.224 81.5182 323.688C81.5182 323.227 81.607 322.847 81.7845 322.548C81.9621 322.25 82.2018 322.014 82.5036 321.84C82.8055 321.666 83.1428 321.534 83.5157 321.446C83.8886 321.357 84.2686 321.289 84.6556 321.243C85.1457 321.186 85.5434 321.14 85.8488 321.105C86.1542 321.066 86.3762 321.004 86.5146 320.918C86.6531 320.833 86.7224 320.695 86.7224 320.503V320.466C86.7224 320 86.591 319.64 86.3282 319.384C86.069 319.129 85.6819 319.001 85.167 319.001C84.6308 319.001 84.2082 319.12 83.8992 319.358C83.5938 319.592 83.3825 319.853 83.2654 320.141L81.7686 319.8C81.9461 319.303 82.2053 318.901 82.5463 318.596C82.8907 318.287 83.2867 318.063 83.7341 317.925C84.1816 317.783 84.6521 317.712 85.1457 317.712C85.4724 317.712 85.8186 317.751 86.1844 317.829C86.5537 317.903 86.8982 318.042 87.2178 318.244C87.5409 318.447 87.8055 318.736 88.0115 319.113C88.2174 319.485 88.3204 319.97 88.3204 320.567V326H86.765V324.881H86.7011C86.5981 325.087 86.4436 325.29 86.2377 325.489C86.0317 325.687 85.7671 325.853 85.444 325.984C85.1208 326.115 84.7338 326.181 84.2828 326.181ZM84.629 324.903C85.0693 324.903 85.4458 324.816 85.7583 324.642C86.0743 324.468 86.314 324.24 86.4774 323.96C86.6443 323.676 86.7277 323.372 86.7277 323.049V321.994C86.6709 322.051 86.5608 322.104 86.3975 322.154C86.2377 322.2 86.0548 322.241 85.8488 322.277C85.6428 322.309 85.4422 322.339 85.2469 322.367C85.0516 322.392 84.8882 322.413 84.7568 322.431C84.4479 322.47 84.1656 322.536 83.9099 322.628C83.6578 322.721 83.4553 322.854 83.3026 323.028C83.1535 323.198 83.0789 323.425 83.0789 323.71C83.0789 324.104 83.2245 324.402 83.5157 324.604C83.8069 324.803 84.178 324.903 84.629 324.903ZM92.0344 321.142V326H90.4418V315.091H92.0131V319.15H92.1143C92.3061 318.71 92.5991 318.36 92.9933 318.1C93.3874 317.841 93.9023 317.712 94.538 317.712C95.0991 317.712 95.5891 317.827 96.0082 318.058C96.4308 318.289 96.7575 318.633 96.9883 319.091C97.2227 319.546 97.3398 320.114 97.3398 320.796V326H95.7472V320.988C95.7472 320.387 95.5927 319.922 95.2837 319.592C94.9748 319.258 94.5451 319.091 93.9947 319.091C93.6183 319.091 93.2809 319.171 92.9826 319.331C92.6879 319.491 92.4553 319.725 92.2848 320.034C92.1179 320.339 92.0344 320.709 92.0344 321.142ZM101.846 326.181C101.328 326.181 100.859 326.085 100.44 325.893C100.021 325.698 99.6889 325.416 99.4439 325.047C99.2024 324.677 99.0817 324.224 99.0817 323.688C99.0817 323.227 99.1705 322.847 99.348 322.548C99.5256 322.25 99.7653 322.014 100.067 321.84C100.369 321.666 100.706 321.534 101.079 321.446C101.452 321.357 101.832 321.289 102.219 321.243C102.709 321.186 103.107 321.14 103.412 321.105C103.718 321.066 103.94 321.004 104.078 320.918C104.217 320.833 104.286 320.695 104.286 320.503V320.466C104.286 320 104.154 319.64 103.892 319.384C103.632 319.129 103.245 319.001 102.73 319.001C102.194 319.001 101.772 319.12 101.463 319.358C101.157 319.592 100.946 319.853 100.829 320.141L99.332 319.8C99.5096 319.303 99.7688 318.901 100.11 318.596C100.454 318.287 100.85 318.063 101.298 317.925C101.745 317.783 102.216 317.712 102.709 317.712C103.036 317.712 103.382 317.751 103.748 317.829C104.117 317.903 104.462 318.042 104.781 318.244C105.104 318.447 105.369 318.736 105.575 319.113C105.781 319.485 105.884 319.97 105.884 320.567V326H104.328V324.881H104.265C104.162 325.087 104.007 325.29 103.801 325.489C103.595 325.687 103.331 325.853 103.007 325.984C102.684 326.115 102.297 326.181 101.846 326.181ZM102.192 324.903C102.633 324.903 103.009 324.816 103.322 324.642C103.638 324.468 103.877 324.24 104.041 323.96C104.208 323.676 104.291 323.372 104.291 323.049V321.994C104.234 322.051 104.124 322.104 103.961 322.154C103.801 322.2 103.618 322.241 103.412 322.277C103.206 322.309 103.006 322.339 102.81 322.367C102.615 322.392 102.452 322.413 102.32 322.431C102.011 322.47 101.729 322.536 101.473 322.628C101.221 322.721 101.019 322.854 100.866 323.028C100.717 323.198 100.642 323.425 100.642 323.71C100.642 324.104 100.788 324.402 101.079 324.604C101.37 324.803 101.741 324.903 102.192 324.903ZM109.598 321.142V326H108.005V317.818H109.534V319.15H109.635C109.823 318.717 110.118 318.369 110.519 318.106C110.924 317.843 111.434 317.712 112.048 317.712C112.606 317.712 113.094 317.829 113.513 318.063C113.932 318.294 114.257 318.638 114.488 319.097C114.719 319.555 114.834 320.121 114.834 320.796V326H113.241V320.988C113.241 320.395 113.087 319.931 112.778 319.597C112.469 319.26 112.045 319.091 111.505 319.091C111.136 319.091 110.807 319.171 110.519 319.331C110.235 319.491 110.01 319.725 109.843 320.034C109.68 320.339 109.598 320.709 109.598 321.142ZM116.97 326V317.818H118.563V326H116.97ZM117.774 316.556C117.497 316.556 117.259 316.463 117.061 316.279C116.865 316.091 116.768 315.867 116.768 315.608C116.768 315.345 116.865 315.121 117.061 314.936C117.259 314.748 117.497 314.654 117.774 314.654C118.051 314.654 118.288 314.748 118.483 314.936C118.682 315.121 118.781 315.345 118.781 315.608C118.781 315.867 118.682 316.091 118.483 316.279C118.288 316.463 118.051 316.556 117.774 316.556Z" fill="#64778C"/>
<circle cx="138" cy="297" r="8" fill="url(#paint0_linear_1659_16185)"/>
<path d="M233 212L223 297" stroke="url(#paint1_linear_1659_16185)"/>
<path d="M224.5 112L233.5 192.5" stroke="url(#paint2_linear_1659_16185)"/>
<path d="M323 256L240 208" stroke="url(#paint3_linear_1659_16185)"/>
<path d="M260 21L229.5 91" stroke="url(#paint4_linear_1659_16185)"/>
<path d="M405.5 192L337.5 255.5" stroke="url(#paint5_linear_1659_16185)"/>
<path d="M136 299.5L201.999 314" stroke="url(#paint6_linear_1659_16185)"/>
<path d="M152.5 221.5L209 303" stroke="url(#paint7_linear_1659_16185)"/>
<path d="M85.4643 218H87.3926V209.818H85.4643V218ZM86.4338 208.657C87.0463 208.657 87.547 208.188 87.547 207.613C87.547 207.032 87.0463 206.564 86.4338 206.564C85.8159 206.564 85.3152 207.032 85.3152 207.613C85.3152 208.188 85.8159 208.657 86.4338 208.657ZM89.8254 218H91.7537V213.025C91.7537 212.018 92.4249 211.336 93.2558 211.336C94.0708 211.336 94.6301 211.885 94.6301 212.727V218H96.5211V212.897C96.5211 211.975 97.0698 211.336 98.0019 211.336C98.7796 211.336 99.3975 211.794 99.3975 212.806V218H101.331V212.508C101.331 210.681 100.276 209.712 98.7743 209.712C97.5864 209.712 96.6809 210.298 96.3187 211.208H96.2335C95.9192 210.282 95.1255 209.712 94.0229 209.712C92.9256 209.712 92.1053 210.276 91.7644 211.208H91.6685V209.818H89.8254V218ZM106.092 218.165C107.375 218.165 108.143 217.563 108.494 216.876H108.558V218H110.412V212.524C110.412 210.362 108.649 209.712 107.088 209.712C105.367 209.712 104.046 210.479 103.62 211.97L105.421 212.226C105.612 211.667 106.156 211.187 107.098 211.187C107.993 211.187 108.483 211.645 108.483 212.45V212.482C108.483 213.036 107.903 213.062 106.459 213.217C104.872 213.387 103.354 213.861 103.354 215.704C103.354 217.313 104.531 218.165 106.092 218.165ZM106.592 216.748C105.788 216.748 105.213 216.381 105.213 215.672C105.213 214.932 105.857 214.623 106.72 214.5C107.226 214.431 108.238 214.303 108.489 214.101V215.065C108.489 215.976 107.754 216.748 106.592 216.748ZM116.359 221.239C118.569 221.239 120.199 220.227 120.199 218.133V209.818H118.298V211.171H118.191C117.898 210.58 117.286 209.712 115.842 209.712C113.951 209.712 112.465 211.192 112.465 213.882C112.465 216.551 113.951 217.883 115.837 217.883C117.238 217.883 117.893 217.132 118.191 216.53H118.287V218.08C118.287 219.284 117.488 219.779 116.391 219.779C115.23 219.779 114.718 219.23 114.484 218.751L112.747 219.172C113.099 220.317 114.276 221.239 116.359 221.239ZM116.375 216.37C115.102 216.37 114.431 215.379 114.431 213.872C114.431 212.386 115.091 211.294 116.375 211.294C117.616 211.294 118.298 212.322 118.298 213.872C118.298 215.433 117.605 216.37 116.375 216.37ZM126.248 218.16C128.155 218.16 129.465 217.228 129.806 215.805L128.006 215.603C127.745 216.295 127.105 216.658 126.274 216.658C125.028 216.658 124.202 215.837 124.186 214.436H129.886V213.845C129.886 210.974 128.16 209.712 126.147 209.712C123.803 209.712 122.274 211.432 122.274 213.957C122.274 216.525 123.782 218.16 126.248 218.16ZM124.192 213.137C124.25 212.093 125.023 211.214 126.173 211.214C127.281 211.214 128.027 212.023 128.038 213.137H124.192Z" fill="#6048E5"/>
<path d="M3.13894 237.142C3.13894 235.837 3.96458 235.091 5.09917 235.091C6.19647 235.091 6.85165 235.789 6.85165 236.988V242H8.44434V236.796C8.44434 234.756 7.32573 233.712 5.64249 233.712C4.36941 233.712 3.60236 234.266 3.21884 235.15H3.11763V231.091H1.54625V242H3.13894V237.142ZM14.3889 233.818H12.711V231.858H11.1183V233.818H9.91983V235.097H11.1183V239.928C11.113 241.414 12.2476 242.133 13.5047 242.107C14.0107 242.101 14.3517 242.005 14.5381 241.936L14.2504 240.62C14.1439 240.642 13.9468 240.69 13.6911 240.69C13.1744 240.69 12.711 240.519 12.711 239.598V235.097H14.3889V233.818ZM19.97 233.818H18.2921V231.858H16.6994V233.818H15.5009V235.097H16.6994V239.928C16.6941 241.414 17.8287 242.133 19.0858 242.107C19.5918 242.101 19.9327 242.005 20.1191 241.936L19.8315 240.62C19.725 240.642 19.5279 240.69 19.2722 240.69C18.7555 240.69 18.2921 240.519 18.2921 239.598V235.097H19.97V233.818ZM21.7318 245.068H23.3245V240.727H23.4204C23.708 241.249 24.2939 242.16 25.7854 242.16C27.767 242.16 29.2052 240.572 29.2052 237.925C29.2052 235.272 27.7457 233.712 25.7694 233.712C24.2513 233.712 23.7027 234.638 23.4204 235.145H23.2872V233.818H21.7318V245.068ZM23.2925 237.909C23.2925 236.199 24.0383 235.065 25.4285 235.065C26.8721 235.065 27.5965 236.284 27.5965 237.909C27.5965 239.55 26.8508 240.801 25.4285 240.801C24.0596 240.801 23.2925 239.63 23.2925 237.909ZM37.1207 235.816C36.7904 234.543 35.7943 233.712 34.0258 233.712C32.1775 233.712 30.8671 234.686 30.8671 236.135C30.8671 237.297 31.5702 238.069 33.1043 238.41L34.4893 238.713C35.2776 238.889 35.6452 239.241 35.6452 239.752C35.6452 240.386 34.9687 240.881 33.9246 240.881C32.9711 240.881 32.3586 240.471 32.1668 239.667L30.6274 239.901C30.8937 241.35 32.0976 242.165 33.9353 242.165C35.9115 242.165 37.2805 241.116 37.2805 239.635C37.2805 238.479 36.5454 237.765 35.0432 237.419L33.7435 237.121C32.8433 236.908 32.4545 236.604 32.4598 236.05C32.4545 235.422 33.1363 234.974 34.0418 234.974C35.0326 234.974 35.4907 235.523 35.6771 236.071L37.1207 235.816ZM40.081 236.146C40.6616 236.146 41.1463 235.672 41.1463 235.081C41.1463 234.5 40.6616 234.021 40.081 234.021C39.495 234.021 39.0156 234.5 39.0156 235.081C39.0156 235.672 39.495 236.146 40.081 236.146ZM40.081 242.101C40.6616 242.101 41.1463 241.627 41.1463 241.036C41.1463 240.455 40.6616 239.976 40.081 239.976C39.495 239.976 39.0156 240.455 39.0156 241.036C39.0156 241.627 39.495 242.101 40.081 242.101ZM47.4345 230.58H46.0123L42.4966 243.641H43.9189L47.4345 230.58ZM52.9423 230.58H51.5201L48.0044 243.641H49.4267L52.9423 230.58ZM54.2953 245.068H55.888V240.727H55.9838C56.2715 241.249 56.8574 242.16 58.3489 242.16C60.3304 242.16 61.7686 240.572 61.7686 237.925C61.7686 235.272 60.3091 233.712 58.3329 233.712C56.8148 233.712 56.2662 234.638 55.9838 235.145H55.8507V233.818H54.2953V245.068ZM55.856 237.909C55.856 236.199 56.6017 235.065 57.992 235.065C59.4355 235.065 60.16 236.284 60.16 237.909C60.16 239.55 59.4142 240.801 57.992 240.801C56.623 240.801 55.856 239.63 55.856 237.909ZM63.5531 242H65.1458V237.004C65.1458 235.933 65.9714 235.161 67.1007 235.161C67.4309 235.161 67.8038 235.219 67.9316 235.256V233.733C67.7718 233.712 67.4576 233.696 67.2551 233.696C66.2963 233.696 65.476 234.239 65.1777 235.118H65.0925V233.818H63.5531V242ZM72.4633 242.165C74.7698 242.165 76.2773 240.477 76.2773 237.946C76.2773 235.4 74.7698 233.712 72.4633 233.712C70.1569 233.712 68.6494 235.4 68.6494 237.946C68.6494 240.477 70.1569 242.165 72.4633 242.165ZM72.4687 240.828C70.9612 240.828 70.2581 239.512 70.2581 237.941C70.2581 236.375 70.9612 235.043 72.4687 235.043C73.9655 235.043 74.6686 236.375 74.6686 237.941C74.6686 239.512 73.9655 240.828 72.4687 240.828ZM81.9489 233.818H80.1857V233.083C80.1857 232.359 80.484 231.964 81.2617 231.964C81.592 231.964 81.8263 232.039 81.9755 232.087L82.3484 230.798C82.1246 230.713 81.6612 230.58 81.0167 230.58C79.7223 230.58 78.5877 231.336 78.5877 232.87V233.818H77.3253V235.097H78.5877V242H80.1857V235.097H81.9489V233.818ZM83.5922 242H85.1848V233.818H83.5922V242ZM84.3965 232.556C84.9451 232.556 85.4032 232.13 85.4032 231.608C85.4032 231.086 84.9451 230.654 84.3965 230.654C83.8425 230.654 83.3897 231.086 83.3897 231.608C83.3897 232.13 83.8425 232.556 84.3965 232.556ZM88.9202 231.091H87.3275V242H88.9202V231.091ZM94.5891 242.165C96.3736 242.165 97.636 241.286 97.9982 239.955L96.4908 239.683C96.2031 240.455 95.5107 240.849 94.6051 240.849C93.2415 240.849 92.3253 239.965 92.2827 238.388H98.0994V237.824C98.0994 234.868 96.331 233.712 94.4773 233.712C92.1974 233.712 90.6953 235.448 90.6953 237.962C90.6953 240.503 92.1761 242.165 94.5891 242.165ZM92.288 237.195C92.3519 236.034 93.1935 235.027 94.4879 235.027C95.7237 235.027 96.5334 235.944 96.5387 237.195H92.288ZM100.916 242.101C101.497 242.101 101.981 241.627 101.981 241.036C101.981 240.455 101.497 239.976 100.916 239.976C100.33 239.976 99.8506 240.455 99.8506 241.036C99.8506 241.627 100.33 242.101 100.916 242.101ZM104.115 245.068H105.707V240.727H105.803C106.091 241.249 106.677 242.16 108.168 242.16C110.15 242.16 111.588 240.572 111.588 237.925C111.588 235.272 110.128 233.712 108.152 233.712C106.634 233.712 106.085 234.638 105.803 235.145H105.67V233.818H104.115V245.068ZM105.675 237.909C105.675 236.199 106.421 235.065 107.811 235.065C109.255 235.065 109.979 236.284 109.979 237.909C109.979 239.55 109.234 240.801 107.811 240.801C106.442 240.801 105.675 239.63 105.675 237.909ZM114.965 237.142C114.965 235.837 115.764 235.091 116.872 235.091C117.953 235.091 118.609 235.8 118.609 236.988V242H120.201V236.796C120.201 234.772 119.088 233.712 117.415 233.712C116.185 233.712 115.381 234.282 115.002 235.15H114.901V233.818H113.372V242H114.965V237.142ZM125.768 245.239C127.85 245.239 129.459 244.285 129.459 242.181V233.818H127.898V235.145H127.781C127.499 234.638 126.934 233.712 125.411 233.712C123.435 233.712 121.98 235.272 121.98 237.877C121.98 240.487 123.467 241.877 125.4 241.877C126.902 241.877 127.483 241.031 127.771 240.509H127.872V242.117C127.872 243.401 126.993 243.955 125.784 243.955C124.457 243.955 123.941 243.289 123.658 242.82L122.289 243.385C122.721 244.386 123.813 245.239 125.768 245.239ZM125.752 240.556C124.329 240.556 123.589 239.464 123.589 237.856C123.589 236.284 124.313 235.065 125.752 235.065C127.142 235.065 127.888 236.199 127.888 237.856C127.888 239.544 127.126 240.556 125.752 240.556Z" fill="#64778C"/>
<circle cx="147" cy="213" r="8" fill="url(#paint8_linear_1659_16185)"/>
<circle cx="234" cy="203" r="8" fill="url(#paint9_linear_1659_16185)"/>
<path d="M251.309 208H253.238V199.818H251.309V208ZM252.279 198.657C252.891 198.657 253.392 198.188 253.392 197.613C253.392 197.032 252.891 196.564 252.279 196.564C251.661 196.564 251.16 197.032 251.16 197.613C251.16 198.188 251.661 198.657 252.279 198.657ZM259.756 199.818H258.142V197.858H256.214V199.818H255.053V201.31H256.214V205.859C256.203 207.398 257.322 208.154 258.771 208.112C259.319 208.096 259.697 207.989 259.905 207.92L259.58 206.413C259.474 206.439 259.255 206.487 259.016 206.487C258.531 206.487 258.142 206.317 258.142 205.539V201.31H259.756V199.818ZM265.353 208.16C267.26 208.16 268.57 207.228 268.911 205.805L267.111 205.603C266.85 206.295 266.211 206.658 265.38 206.658C264.133 206.658 263.308 205.837 263.292 204.436H268.991V203.845C268.991 200.974 267.265 199.712 265.252 199.712C262.908 199.712 261.379 201.432 261.379 203.957C261.379 206.525 262.887 208.16 265.353 208.16ZM263.297 203.137C263.355 202.093 264.128 201.214 265.278 201.214C266.386 201.214 267.132 202.023 267.143 203.137H263.297ZM271.072 208H273.001V203.025C273.001 202.018 273.672 201.336 274.503 201.336C275.318 201.336 275.877 201.885 275.877 202.727V208H277.768V202.897C277.768 201.975 278.317 201.336 279.249 201.336C280.027 201.336 280.644 201.794 280.644 202.806V208H282.578V202.508C282.578 200.681 281.523 199.712 280.021 199.712C278.833 199.712 277.928 200.298 277.566 201.208H277.48C277.166 200.282 276.372 199.712 275.27 199.712C274.173 199.712 273.352 200.276 273.011 201.208H272.915V199.818H271.072V208ZM285.07 208H291.85V206.343H287.046V197.091H285.07V208ZM293.93 208H295.859V199.818H293.93V208ZM294.9 198.657C295.512 198.657 296.013 198.188 296.013 197.613C296.013 197.032 295.512 196.564 294.9 196.564C294.282 196.564 293.781 197.032 293.781 197.613C293.781 198.188 294.282 198.657 294.9 198.657ZM304.758 201.981C304.492 200.596 303.384 199.712 301.466 199.712C299.495 199.712 298.153 200.681 298.158 202.194C298.153 203.387 298.888 204.175 300.46 204.5L301.855 204.793C302.606 204.958 302.958 205.262 302.958 205.725C302.958 206.285 302.35 206.706 301.434 206.706C300.55 206.706 299.975 206.322 299.81 205.587L297.929 205.768C298.169 207.27 299.431 208.16 301.44 208.16C303.485 208.16 304.929 207.1 304.934 205.55C304.929 204.383 304.178 203.669 302.633 203.334L301.237 203.036C300.406 202.849 300.076 202.561 300.081 202.087C300.076 201.533 300.689 201.15 301.493 201.15C302.382 201.15 302.851 201.635 303 202.173L304.758 201.981ZM311.06 199.818H309.446V197.858H307.517V199.818H306.356V201.31H307.517V205.859C307.507 207.398 308.625 208.154 310.074 208.112C310.623 208.096 311.001 207.989 311.209 207.92L310.884 206.413C310.777 206.439 310.559 206.487 310.319 206.487C309.834 206.487 309.446 206.317 309.446 205.539V201.31H311.06V199.818Z" fill="#6048E5"/>
<path d="M252.169 234.269H255.669V233.007H253.692V221.943H255.669V220.681H252.169V234.269ZM258.248 232.101C258.829 232.101 259.313 231.627 259.313 231.036C259.313 230.455 258.829 229.976 258.248 229.976C257.662 229.976 257.183 230.455 257.183 231.036C257.183 231.627 257.662 232.101 258.248 232.101ZM262.496 232.101C263.077 232.101 263.561 231.627 263.561 231.036C263.561 230.455 263.077 229.976 262.496 229.976C261.91 229.976 261.431 230.455 261.431 231.036C261.431 231.627 261.91 232.101 262.496 232.101ZM266.744 232.101C267.325 232.101 267.809 231.627 267.809 231.036C267.809 230.455 267.325 229.976 266.744 229.976C266.158 229.976 265.679 230.455 265.679 231.036C265.679 231.627 266.158 232.101 266.744 232.101ZM272.83 220.681H269.33V221.943H271.306V233.007H269.33V234.269H272.83V220.681Z" fill="#64778C"/>
<line x1="221.5" y1="357" x2="221.5" y2="415" stroke="url(#paint10_linear_1659_16185)"/>
<circle cx="224" cy="102" r="8" fill="url(#paint11_linear_1659_16185)"/>
<path d="M243.34 96.0909H241.411V107H243.34V96.0909ZM245.773 107H247.701V98.8182H245.773V107ZM246.742 97.657C247.355 97.657 247.855 97.1882 247.855 96.6129C247.855 96.0323 247.355 95.5636 246.742 95.5636C246.124 95.5636 245.623 96.0323 245.623 96.6129C245.623 97.1882 246.124 97.657 246.742 97.657ZM256.6 100.981C256.334 99.5959 255.226 98.7116 253.308 98.7116C251.337 98.7116 249.995 99.6811 250 101.194C249.995 102.387 250.73 103.175 252.302 103.5L253.697 103.793C254.448 103.958 254.8 104.262 254.8 104.725C254.8 105.285 254.193 105.706 253.276 105.706C252.392 105.706 251.817 105.322 251.652 104.587L249.771 104.768C250.011 106.27 251.274 107.16 253.282 107.16C255.327 107.16 256.771 106.1 256.776 104.55C256.771 103.383 256.02 102.669 254.475 102.334L253.079 102.036C252.248 101.849 251.918 101.561 251.923 101.087C251.918 100.533 252.531 100.15 253.335 100.15C254.225 100.15 254.693 100.635 254.842 101.173L256.6 100.981ZM262.902 98.8182H261.288V96.858H259.359V98.8182H258.198V100.31H259.359V104.859C259.349 106.398 260.467 107.154 261.916 107.112C262.465 107.096 262.843 106.989 263.051 106.92L262.726 105.413C262.619 105.439 262.401 105.487 262.161 105.487C261.676 105.487 261.288 105.317 261.288 104.539V100.31H262.902V98.8182ZM267.202 96.0909H265.225V107H267.202V96.0909ZM273.792 98.8182H272.178V96.858H270.25V98.8182H269.088V100.31H270.25V104.859C270.239 106.398 271.358 107.154 272.806 107.112C273.355 107.096 273.733 106.989 273.941 106.92L273.616 105.413C273.51 105.439 273.291 105.487 273.051 105.487C272.567 105.487 272.178 105.317 272.178 104.539V100.31H273.792V98.8182ZM279.389 107.16C281.296 107.16 282.606 106.228 282.947 104.805L281.147 104.603C280.886 105.295 280.246 105.658 279.415 105.658C278.169 105.658 277.343 104.837 277.327 103.436H283.027V102.845C283.027 99.9741 281.301 98.7116 279.288 98.7116C276.944 98.7116 275.415 100.432 275.415 102.957C275.415 105.525 276.923 107.16 279.389 107.16ZM277.333 102.137C277.391 101.093 278.164 100.214 279.314 100.214C280.422 100.214 281.168 101.023 281.179 102.137H277.333ZM285.108 107H287.037V102.025C287.037 101.018 287.708 100.336 288.539 100.336C289.354 100.336 289.913 100.885 289.913 101.727V107H291.804V101.897C291.804 100.975 292.353 100.336 293.285 100.336C294.062 100.336 294.68 100.794 294.68 101.806V107H296.614V101.508C296.614 99.6811 295.559 98.7116 294.057 98.7116C292.869 98.7116 291.964 99.2976 291.602 100.208H291.516C291.202 99.2816 290.408 98.7116 289.306 98.7116C288.208 98.7116 287.388 99.2763 287.047 100.208H286.951V98.8182H285.108V107Z" fill="#6048E5"/>
<path d="M241.243 123.5V122.477C241.243 122.175 241.3 121.858 241.414 121.524C241.527 121.19 241.685 120.87 241.888 120.565C242.09 120.26 242.328 119.999 242.602 119.782L243.39 120.347C243.173 120.663 242.989 120.993 242.836 121.337C242.683 121.682 242.607 122.056 242.607 122.461V123.5H241.243ZM243.96 123.5V122.477C243.96 122.175 244.017 121.858 244.13 121.524C244.244 121.19 244.402 120.87 244.604 120.565C244.807 120.26 245.045 119.999 245.318 119.782L246.106 120.347C245.89 120.663 245.705 120.993 245.553 121.337C245.4 121.682 245.323 122.056 245.323 122.461V123.5H243.96ZM249.249 120.091V131H247.603V120.091H249.249ZM251.518 131V122.818H253.047V124.15H253.148C253.319 123.699 253.598 123.347 253.985 123.095C254.372 122.839 254.835 122.712 255.375 122.712C255.922 122.712 256.38 122.839 256.749 123.095C257.122 123.351 257.397 123.702 257.575 124.15H257.66C257.855 123.713 258.166 123.365 258.592 123.106C259.018 122.843 259.526 122.712 260.116 122.712C260.858 122.712 261.463 122.944 261.932 123.409C262.404 123.875 262.641 124.576 262.641 125.513V131H261.048V125.663C261.048 125.109 260.897 124.707 260.595 124.459C260.293 124.21 259.933 124.086 259.514 124.086C258.995 124.086 258.592 124.246 258.305 124.565C258.017 124.881 257.873 125.288 257.873 125.785V131H256.286V125.561C256.286 125.118 256.147 124.761 255.87 124.491C255.593 124.221 255.233 124.086 254.789 124.086C254.487 124.086 254.208 124.166 253.953 124.326C253.701 124.482 253.496 124.7 253.34 124.981C253.187 125.261 253.111 125.586 253.111 125.956V131H251.518ZM264.775 134.068V122.818H266.331V124.145H266.464C266.556 123.974 266.689 123.777 266.863 123.553C267.037 123.33 267.279 123.134 267.588 122.967C267.897 122.797 268.305 122.712 268.813 122.712C269.473 122.712 270.063 122.879 270.581 123.212C271.1 123.546 271.506 124.027 271.801 124.656C272.099 125.284 272.249 126.041 272.249 126.925C272.249 127.809 272.101 128.567 271.807 129.2C271.512 129.828 271.107 130.313 270.592 130.654C270.077 130.991 269.489 131.16 268.829 131.16C268.332 131.16 267.925 131.076 267.609 130.909C267.297 130.743 267.052 130.547 266.874 130.324C266.696 130.1 266.56 129.901 266.464 129.727H266.368V134.068H264.775ZM266.336 126.909C266.336 127.484 266.419 127.989 266.586 128.422C266.753 128.855 266.995 129.194 267.311 129.439C267.627 129.681 268.014 129.801 268.472 129.801C268.948 129.801 269.346 129.675 269.665 129.423C269.985 129.168 270.226 128.821 270.39 128.385C270.557 127.948 270.64 127.456 270.64 126.909C270.64 126.369 270.558 125.885 270.395 125.455C270.235 125.025 269.994 124.686 269.67 124.438C269.351 124.189 268.951 124.065 268.472 124.065C268.01 124.065 267.62 124.184 267.3 124.422C266.984 124.659 266.744 124.991 266.581 125.418C266.418 125.844 266.336 126.341 266.336 126.909ZM275.626 120.091V131H274.033V120.091H275.626ZM281.295 131.165C280.489 131.165 279.794 130.993 279.212 130.648C278.633 130.3 278.186 129.812 277.87 129.184C277.557 128.551 277.401 127.811 277.401 126.962C277.401 126.124 277.557 125.386 277.87 124.746C278.186 124.107 278.626 123.608 279.191 123.25C279.759 122.891 280.423 122.712 281.183 122.712C281.644 122.712 282.092 122.788 282.525 122.941C282.958 123.093 283.347 123.333 283.692 123.66C284.036 123.987 284.308 124.411 284.507 124.933C284.706 125.451 284.805 126.082 284.805 126.824V127.388H278.301V126.195H283.244C283.244 125.776 283.159 125.405 282.989 125.082C282.818 124.755 282.578 124.498 282.269 124.31C281.964 124.121 281.605 124.027 281.193 124.027C280.746 124.027 280.355 124.137 280.022 124.358C279.691 124.574 279.436 124.858 279.255 125.21C279.077 125.558 278.988 125.936 278.988 126.344V127.277C278.988 127.824 279.084 128.289 279.276 128.672C279.471 129.056 279.743 129.349 280.091 129.551C280.439 129.75 280.845 129.849 281.311 129.849C281.613 129.849 281.888 129.807 282.136 129.722C282.385 129.633 282.6 129.501 282.781 129.327C282.962 129.153 283.1 128.939 283.196 128.683L284.704 128.955C284.583 129.398 284.366 129.787 284.054 130.121C283.745 130.451 283.356 130.709 282.887 130.893C282.422 131.075 281.891 131.165 281.295 131.165ZM286.572 131V122.818H288.101V124.15H288.202C288.373 123.699 288.651 123.347 289.038 123.095C289.425 122.839 289.889 122.712 290.429 122.712C290.976 122.712 291.434 122.839 291.803 123.095C292.176 123.351 292.451 123.702 292.629 124.15H292.714C292.909 123.713 293.22 123.365 293.646 123.106C294.072 122.843 294.58 122.712 295.169 122.712C295.912 122.712 296.517 122.944 296.986 123.409C297.458 123.875 297.694 124.576 297.694 125.513V131H296.102V125.663C296.102 125.109 295.951 124.707 295.649 124.459C295.347 124.21 294.987 124.086 294.568 124.086C294.049 124.086 293.646 124.246 293.358 124.565C293.071 124.881 292.927 125.288 292.927 125.785V131H291.34V125.561C291.34 125.118 291.201 124.761 290.924 124.491C290.647 124.221 290.287 124.086 289.843 124.086C289.541 124.086 289.262 124.166 289.006 124.326C288.754 124.482 288.55 124.7 288.394 124.981C288.241 125.261 288.165 125.586 288.165 125.956V131H286.572ZM303.355 131.165C302.549 131.165 301.855 130.993 301.273 130.648C300.694 130.3 300.246 129.812 299.93 129.184C299.618 128.551 299.461 127.811 299.461 126.962C299.461 126.124 299.618 125.386 299.93 124.746C300.246 124.107 300.687 123.608 301.251 123.25C301.819 122.891 302.483 122.712 303.243 122.712C303.705 122.712 304.152 122.788 304.586 122.941C305.019 123.093 305.408 123.333 305.752 123.66C306.097 123.987 306.368 124.411 306.567 124.933C306.766 125.451 306.866 126.082 306.866 126.824V127.388H300.362V126.195H305.305C305.305 125.776 305.22 125.405 305.049 125.082C304.879 124.755 304.639 124.498 304.33 124.31C304.025 124.121 303.666 124.027 303.254 124.027C302.807 124.027 302.416 124.137 302.082 124.358C301.752 124.574 301.496 124.858 301.315 125.21C301.138 125.558 301.049 125.936 301.049 126.344V127.277C301.049 127.824 301.145 128.289 301.336 128.672C301.532 129.056 301.803 129.349 302.151 129.551C302.499 129.75 302.906 129.849 303.371 129.849C303.673 129.849 303.948 129.807 304.197 129.722C304.445 129.633 304.66 129.501 304.841 129.327C305.023 129.153 305.161 128.939 305.257 128.683L306.764 128.955C306.644 129.398 306.427 129.787 306.114 130.121C305.806 130.451 305.417 130.709 304.948 130.893C304.483 131.075 303.952 131.165 303.355 131.165ZM310.225 126.142V131H308.633V122.818H310.161V124.15H310.263C310.451 123.717 310.746 123.369 311.147 123.106C311.552 122.843 312.061 122.712 312.676 122.712C313.233 122.712 313.721 122.829 314.14 123.063C314.56 123.294 314.884 123.638 315.115 124.097C315.346 124.555 315.462 125.121 315.462 125.796V131H313.869V125.988C313.869 125.395 313.714 124.931 313.405 124.597C313.096 124.26 312.672 124.091 312.132 124.091C311.763 124.091 311.435 124.171 311.147 124.331C310.863 124.491 310.637 124.725 310.47 125.034C310.307 125.339 310.225 125.709 310.225 126.142ZM321.417 122.818V124.097H316.948V122.818H321.417ZM318.146 120.858H319.739V128.598C319.739 128.907 319.785 129.139 319.877 129.295C319.97 129.448 320.089 129.553 320.234 129.61C320.383 129.663 320.545 129.69 320.719 129.69C320.847 129.69 320.959 129.681 321.055 129.663C321.15 129.645 321.225 129.631 321.278 129.62L321.566 130.936C321.474 130.972 321.342 131.007 321.172 131.043C321.001 131.082 320.788 131.103 320.533 131.107C320.114 131.114 319.723 131.039 319.361 130.883C318.998 130.727 318.705 130.485 318.482 130.158C318.258 129.832 318.146 129.422 318.146 128.928V120.858ZM333.226 122.957C333.169 122.452 332.935 122.062 332.523 121.785C332.111 121.504 331.593 121.364 330.968 121.364C330.52 121.364 330.133 121.435 329.806 121.577C329.48 121.716 329.226 121.907 329.045 122.152C328.867 122.394 328.778 122.669 328.778 122.978C328.778 123.237 328.839 123.461 328.959 123.649C329.084 123.837 329.245 123.995 329.444 124.123C329.647 124.248 329.863 124.352 330.094 124.438C330.325 124.519 330.547 124.587 330.76 124.64L331.825 124.917C332.173 125.002 332.53 125.118 332.896 125.263C333.262 125.409 333.601 125.6 333.913 125.838C334.226 126.076 334.478 126.371 334.67 126.723C334.865 127.074 334.963 127.495 334.963 127.985C334.963 128.603 334.803 129.152 334.483 129.631C334.167 130.11 333.707 130.489 333.104 130.766C332.503 131.043 331.777 131.181 330.925 131.181C330.108 131.181 329.402 131.051 328.805 130.792C328.208 130.533 327.741 130.165 327.404 129.69C327.067 129.21 326.88 128.642 326.845 127.985H328.496C328.528 128.379 328.656 128.708 328.879 128.971C329.107 129.23 329.396 129.423 329.748 129.551C330.103 129.675 330.492 129.738 330.914 129.738C331.379 129.738 331.793 129.665 332.155 129.519C332.521 129.37 332.809 129.164 333.018 128.901C333.228 128.635 333.333 128.324 333.333 127.969C333.333 127.646 333.24 127.381 333.056 127.175C332.875 126.969 332.628 126.799 332.315 126.664C332.006 126.529 331.656 126.41 331.266 126.307L329.977 125.956C329.103 125.718 328.411 125.368 327.899 124.906C327.392 124.445 327.138 123.834 327.138 123.074C327.138 122.445 327.308 121.897 327.649 121.428C327.99 120.959 328.452 120.595 329.034 120.336C329.616 120.073 330.273 119.942 331.005 119.942C331.743 119.942 332.395 120.071 332.96 120.331C333.528 120.59 333.975 120.947 334.302 121.401C334.629 121.852 334.799 122.371 334.813 122.957H333.226ZM336.802 131V122.818H338.394V131H336.802ZM337.606 121.556C337.329 121.556 337.091 121.463 336.892 121.279C336.697 121.091 336.599 120.867 336.599 120.608C336.599 120.345 336.697 120.121 336.892 119.936C337.091 119.748 337.329 119.654 337.606 119.654C337.883 119.654 338.119 119.748 338.314 119.936C338.513 120.121 338.613 120.345 338.613 120.608C338.613 120.867 338.513 121.091 338.314 121.279C338.119 121.463 337.883 121.556 337.606 121.556ZM343.6 131.16C342.939 131.16 342.35 130.991 341.831 130.654C341.316 130.313 340.912 129.828 340.617 129.2C340.326 128.567 340.18 127.809 340.18 126.925C340.18 126.041 340.327 125.284 340.622 124.656C340.92 124.027 341.329 123.546 341.847 123.212C342.366 122.879 342.954 122.712 343.61 122.712C344.118 122.712 344.527 122.797 344.836 122.967C345.148 123.134 345.39 123.33 345.56 123.553C345.734 123.777 345.869 123.974 345.965 124.145H346.061V120.091H347.653V131H346.098V129.727H345.965C345.869 129.901 345.731 130.1 345.549 130.324C345.372 130.547 345.127 130.743 344.814 130.909C344.502 131.076 344.097 131.16 343.6 131.16ZM343.951 129.801C344.409 129.801 344.797 129.681 345.113 129.439C345.432 129.194 345.674 128.855 345.837 128.422C346.004 127.989 346.087 127.484 346.087 126.909C346.087 126.341 346.006 125.844 345.842 125.418C345.679 124.991 345.439 124.659 345.123 124.422C344.807 124.184 344.417 124.065 343.951 124.065C343.472 124.065 343.072 124.189 342.753 124.438C342.433 124.686 342.192 125.025 342.028 125.455C341.869 125.885 341.789 126.369 341.789 126.909C341.789 127.456 341.87 127.948 342.034 128.385C342.197 128.821 342.439 129.168 342.758 129.423C343.081 129.675 343.479 129.801 343.951 129.801ZM353.453 131.165C352.647 131.165 351.953 130.993 351.37 130.648C350.791 130.3 350.344 129.812 350.028 129.184C349.715 128.551 349.559 127.811 349.559 126.962C349.559 126.124 349.715 125.386 350.028 124.746C350.344 124.107 350.784 123.608 351.349 123.25C351.917 122.891 352.581 122.712 353.341 122.712C353.803 122.712 354.25 122.788 354.683 122.941C355.117 123.093 355.505 123.333 355.85 123.66C356.194 123.987 356.466 124.411 356.665 124.933C356.864 125.451 356.963 126.082 356.963 126.824V127.388H350.459V126.195H355.402C355.402 125.776 355.317 125.405 355.147 125.082C354.976 124.755 354.737 124.498 354.428 124.31C354.122 124.121 353.764 124.027 353.352 124.027C352.904 124.027 352.514 124.137 352.18 124.358C351.85 124.574 351.594 124.858 351.413 125.21C351.235 125.558 351.146 125.936 351.146 126.344V127.277C351.146 127.824 351.242 128.289 351.434 128.672C351.629 129.056 351.901 129.349 352.249 129.551C352.597 129.75 353.004 129.849 353.469 129.849C353.771 129.849 354.046 129.807 354.295 129.722C354.543 129.633 354.758 129.501 354.939 129.327C355.12 129.153 355.259 128.939 355.355 128.683L356.862 128.955C356.741 129.398 356.525 129.787 356.212 130.121C355.903 130.451 355.514 130.709 355.046 130.893C354.58 131.075 354.049 131.165 353.453 131.165ZM358.858 131V120.091H360.451V124.145H360.547C360.639 123.974 360.772 123.777 360.946 123.553C361.12 123.33 361.362 123.134 361.671 122.967C361.98 122.797 362.388 122.712 362.896 122.712C363.556 122.712 364.146 122.879 364.664 123.212C365.183 123.546 365.589 124.027 365.884 124.656C366.182 125.284 366.332 126.041 366.332 126.925C366.332 127.809 366.184 128.567 365.889 129.2C365.595 129.828 365.19 130.313 364.675 130.654C364.16 130.991 363.572 131.16 362.912 131.16C362.415 131.16 362.008 131.076 361.692 130.909C361.379 130.743 361.134 130.547 360.957 130.324C360.779 130.1 360.643 129.901 360.547 129.727H360.414V131H358.858ZM360.419 126.909C360.419 127.484 360.502 127.989 360.669 128.422C360.836 128.855 361.078 129.194 361.394 129.439C361.71 129.681 362.097 129.801 362.555 129.801C363.031 129.801 363.428 129.675 363.748 129.423C364.068 129.168 364.309 128.821 364.473 128.385C364.639 127.948 364.723 127.456 364.723 126.909C364.723 126.369 364.641 125.885 364.478 125.455C364.318 125.025 364.077 124.686 363.753 124.438C363.434 124.189 363.034 124.065 362.555 124.065C362.093 124.065 361.703 124.184 361.383 124.422C361.067 124.659 360.827 124.991 360.664 125.418C360.501 125.844 360.419 126.341 360.419 126.909ZM370.501 131.181C369.983 131.181 369.514 131.085 369.095 130.893C368.676 130.698 368.344 130.416 368.099 130.047C367.857 129.677 367.736 129.224 367.736 128.688C367.736 128.227 367.825 127.847 368.003 127.548C368.18 127.25 368.42 127.014 368.722 126.84C369.024 126.666 369.361 126.534 369.734 126.446C370.107 126.357 370.487 126.289 370.874 126.243C371.364 126.186 371.762 126.14 372.067 126.105C372.372 126.066 372.594 126.004 372.733 125.918C372.871 125.833 372.941 125.695 372.941 125.503V125.466C372.941 125 372.809 124.64 372.546 124.384C372.287 124.129 371.9 124.001 371.385 124.001C370.849 124.001 370.426 124.12 370.117 124.358C369.812 124.592 369.601 124.853 369.484 125.141L367.987 124.8C368.164 124.303 368.424 123.901 368.765 123.596C369.109 123.287 369.505 123.063 369.952 122.925C370.4 122.783 370.87 122.712 371.364 122.712C371.691 122.712 372.037 122.751 372.403 122.829C372.772 122.903 373.116 123.042 373.436 123.244C373.759 123.447 374.024 123.736 374.23 124.113C374.436 124.485 374.539 124.97 374.539 125.567V131H372.983V129.881H372.919C372.816 130.087 372.662 130.29 372.456 130.489C372.25 130.687 371.985 130.853 371.662 130.984C371.339 131.115 370.952 131.181 370.501 131.181ZM370.847 129.903C371.288 129.903 371.664 129.816 371.977 129.642C372.293 129.468 372.532 129.24 372.696 128.96C372.863 128.676 372.946 128.372 372.946 128.049V126.994C372.889 127.051 372.779 127.104 372.616 127.154C372.456 127.2 372.273 127.241 372.067 127.277C371.861 127.309 371.66 127.339 371.465 127.367C371.27 127.392 371.106 127.413 370.975 127.431C370.666 127.47 370.384 127.536 370.128 127.628C369.876 127.721 369.674 127.854 369.521 128.028C369.372 128.198 369.297 128.425 369.297 128.71C369.297 129.104 369.443 129.402 369.734 129.604C370.025 129.803 370.396 129.903 370.847 129.903ZM376.66 131V122.818H378.199V124.118H378.285C378.434 123.678 378.697 123.331 379.073 123.079C379.453 122.824 379.883 122.696 380.362 122.696C380.462 122.696 380.579 122.699 380.714 122.706C380.852 122.713 380.96 122.722 381.039 122.733V124.256C380.975 124.239 380.861 124.219 380.698 124.198C380.534 124.173 380.371 124.161 380.208 124.161C379.831 124.161 379.496 124.24 379.201 124.4C378.91 124.556 378.679 124.775 378.508 125.055C378.338 125.332 378.253 125.648 378.253 126.004V131H376.66ZM384.035 120.091V121.114C384.035 121.415 383.978 121.733 383.864 122.067C383.754 122.397 383.598 122.715 383.396 123.021C383.193 123.326 382.955 123.589 382.682 123.809L381.894 123.244C382.103 122.939 382.284 122.614 382.437 122.27C382.593 121.925 382.671 121.545 382.671 121.13V120.091H384.035ZM386.746 120.091V121.114C386.746 121.415 386.689 121.733 386.576 122.067C386.466 122.397 386.309 122.715 386.107 123.021C385.905 123.326 385.667 123.589 385.393 123.809L384.605 123.244C384.814 122.939 384.995 122.614 385.148 122.27C385.304 121.925 385.383 121.545 385.383 121.13V120.091H386.746Z" fill="#64778C"/>
<circle cx="265" cy="12" r="8" fill="url(#paint12_linear_1659_16185)"/>
<path d="M285.452 17.1438C286.858 17.1438 287.492 16.3075 287.796 15.7109H287.913V17H289.809V6.09091H287.876V10.1712H287.796C287.503 9.5799 286.901 8.71165 285.457 8.71165C283.566 8.71165 282.08 10.1925 282.08 12.9197C282.08 15.6151 283.524 17.1438 285.452 17.1438ZM285.99 15.5618C284.717 15.5618 284.046 14.4432 284.046 12.9091C284.046 11.3857 284.706 10.2937 285.99 10.2937C287.231 10.2937 287.913 11.3217 287.913 12.9091C287.913 14.4964 287.22 15.5618 285.99 15.5618ZM297.529 13.5589C297.529 14.8054 296.639 15.4233 295.787 15.4233C294.86 15.4233 294.242 14.7681 294.242 13.7294V8.81818H292.314V14.0277C292.314 15.9933 293.433 17.1065 295.041 17.1065C296.266 17.1065 297.129 16.462 297.502 15.5458H297.587V17H299.457V8.81818H297.529V13.5589ZM305.512 17.1598C307.419 17.1598 308.729 16.2276 309.07 14.8054L307.27 14.603C307.009 15.2955 306.37 15.6577 305.539 15.6577C304.292 15.6577 303.467 14.8374 303.451 13.4364H309.15V12.8452C309.15 9.97408 307.424 8.71165 305.411 8.71165C303.067 8.71165 301.538 10.4322 301.538 12.957C301.538 15.5245 303.046 17.1598 305.512 17.1598ZM303.456 12.1367C303.515 11.0927 304.287 10.2138 305.437 10.2138C306.545 10.2138 307.291 11.0234 307.302 12.1367H303.456ZM315.013 17C318.337 17 320.308 14.9439 320.308 11.5348C320.308 8.13636 318.337 6.09091 315.088 6.09091H311.317V17H315.013ZM313.293 15.2901V7.80078H314.976C317.192 7.80078 318.348 9.03658 318.348 11.5348C318.348 14.0437 317.192 15.2901 314.918 15.2901H313.293ZM324.905 17.1651C326.189 17.1651 326.956 16.5632 327.307 15.8761H327.371V17H329.225V11.5241C329.225 9.36151 327.462 8.71165 325.901 8.71165C324.181 8.71165 322.86 9.47869 322.433 10.9702L324.234 11.2259C324.426 10.6665 324.969 10.1871 325.912 10.1871C326.807 10.1871 327.297 10.6452 327.297 11.4496V11.4815C327.297 12.0355 326.716 12.0621 325.273 12.2166C323.685 12.3871 322.167 12.8612 322.167 14.7042C322.167 16.3129 323.344 17.1651 324.905 17.1651ZM325.406 15.7482C324.601 15.7482 324.026 15.3807 324.026 14.6722C324.026 13.9318 324.671 13.6229 325.534 13.5004C326.04 13.4311 327.052 13.3033 327.302 13.1009V14.065C327.302 14.9759 326.567 15.7482 325.406 15.7482ZM335.699 8.81818H334.086V6.85795H332.157V8.81818H330.996V10.3097H332.157V14.8587C332.147 16.3981 333.265 17.1545 334.714 17.1119C335.263 17.0959 335.641 16.9893 335.849 16.9201L335.524 15.4126C335.417 15.4393 335.199 15.4872 334.959 15.4872C334.474 15.4872 334.086 15.3168 334.086 14.5391V10.3097H335.699V8.81818ZM341.296 17.1598C343.203 17.1598 344.514 16.2276 344.855 14.8054L343.054 14.603C342.793 15.2955 342.154 15.6577 341.323 15.6577C340.077 15.6577 339.251 14.8374 339.235 13.4364H344.935V12.8452C344.935 9.97408 343.209 8.71165 341.195 8.71165C338.851 8.71165 337.323 10.4322 337.323 12.957C337.323 15.5245 338.83 17.1598 341.296 17.1598ZM339.24 12.1367C339.299 11.0927 340.071 10.2138 341.222 10.2138C342.33 10.2138 343.076 11.0234 343.086 12.1367H339.24Z" fill="#6048E5"/>
<path d="M282.371 41H289.551V39.5884H284.64V39.5085L286.808 37.2393C288.805 35.2205 289.375 34.2564 289.375 33.0366C289.375 31.2841 287.948 29.9418 285.892 29.9418C283.851 29.9418 282.36 31.2628 282.36 33.255H283.931C283.926 32.0831 284.682 31.3161 285.86 31.3161C286.968 31.3161 287.809 31.9979 287.809 33.0845C287.809 34.0487 287.234 34.7411 286.062 35.9822L282.371 39.8068V41ZM295.368 41.1811C297.887 41.1811 299.363 39.125 299.363 35.5508C299.363 32.0032 297.866 29.9418 295.368 29.9418C292.864 29.9418 291.373 31.9979 291.367 35.5508C291.367 39.1197 292.843 41.1758 295.368 41.1811ZM295.368 39.7589C293.892 39.7589 293.003 38.2781 293.003 35.5508C293.008 32.8342 293.898 31.3374 295.368 31.3374C296.833 31.3374 297.728 32.8342 297.728 35.5508C297.728 38.2781 296.838 39.7589 295.368 39.7589ZM305.429 29.5795H304.006L300.491 42.6406H301.913L305.429 29.5795ZM310.899 30.0909H309.296L306.574 31.87V33.4467L309.184 31.7422H309.248V41H310.899V30.0909ZM317.989 30.0909H316.386L313.664 31.87V33.4467L316.274 31.7422H316.338V41H317.989V30.0909ZM325.116 29.5795H323.694L320.178 42.6406H321.6L325.116 29.5795ZM326.448 41H333.628V39.5884H328.717V39.5085L330.885 37.2393C332.882 35.2205 333.452 34.2564 333.452 33.0366C333.452 31.2841 332.025 29.9418 329.969 29.9418C327.929 29.9418 326.437 31.2628 326.437 33.255H328.009C328.003 32.0831 328.76 31.3161 329.937 31.3161C331.045 31.3161 331.886 31.9979 331.886 33.0845C331.886 34.0487 331.311 34.7411 330.139 35.9822L326.448 39.8068V41ZM339.445 41.1811C341.964 41.1811 343.44 39.125 343.44 35.5508C343.44 32.0032 341.943 29.9418 339.445 29.9418C336.941 29.9418 335.45 31.9979 335.445 35.5508C335.445 39.1197 336.92 41.1758 339.445 41.1811ZM339.445 39.7589C337.969 39.7589 337.08 38.2781 337.08 35.5508C337.085 32.8342 337.975 31.3374 339.445 31.3374C340.91 31.3374 341.805 32.8342 341.805 35.5508C341.805 38.2781 340.915 39.7589 339.445 39.7589ZM345.33 41H352.51V39.5884H347.599V39.5085L349.767 37.2393C351.764 35.2205 352.334 34.2564 352.334 33.0366C352.334 31.2841 350.907 29.9418 348.851 29.9418C346.81 29.9418 345.319 31.2628 345.319 33.255H346.89C346.885 32.0831 347.641 31.3161 348.819 31.3161C349.927 31.3161 350.768 31.9979 350.768 33.0845C350.768 34.0487 350.193 34.7411 349.021 35.9822L345.33 39.8068V41ZM354.529 41H361.709V39.5884H356.798V39.5085L358.966 37.2393C360.964 35.2205 361.533 34.2564 361.533 33.0366C361.533 31.2841 360.106 29.9418 358.05 29.9418C356.01 29.9418 354.518 31.2628 354.518 33.255H356.09C356.084 32.0831 356.841 31.3161 358.018 31.3161C359.126 31.3161 359.967 31.9979 359.967 33.0845C359.967 34.0487 359.392 34.7411 358.22 35.9822L354.529 39.8068V41Z" fill="#64778C"/>
<circle cx="412" cy="185" r="8" fill="url(#paint13_linear_1659_16185)"/>
<path d="M432.452 190.144C433.858 190.144 434.492 189.308 434.796 188.711H434.913V190H436.809V179.091H434.876V183.171H434.796C434.503 182.58 433.901 181.712 432.457 181.712C430.566 181.712 429.08 183.192 429.08 185.92C429.08 188.615 430.524 190.144 432.452 190.144ZM432.99 188.562C431.717 188.562 431.046 187.443 431.046 185.909C431.046 184.386 431.706 183.294 432.99 183.294C434.231 183.294 434.913 184.322 434.913 185.909C434.913 187.496 434.22 188.562 432.99 188.562ZM444.529 186.559C444.529 187.805 443.639 188.423 442.787 188.423C441.86 188.423 441.242 187.768 441.242 186.729V181.818H439.314V187.028C439.314 188.993 440.433 190.107 442.041 190.107C443.266 190.107 444.129 189.462 444.502 188.546H444.587V190H446.457V181.818H444.529V186.559ZM452.512 190.16C454.419 190.16 455.729 189.228 456.07 187.805L454.27 187.603C454.009 188.295 453.37 188.658 452.539 188.658C451.292 188.658 450.467 187.837 450.451 186.436H456.15V185.845C456.15 182.974 454.424 181.712 452.411 181.712C450.067 181.712 448.538 183.432 448.538 185.957C448.538 188.525 450.046 190.16 452.512 190.16ZM450.456 185.137C450.515 184.093 451.287 183.214 452.437 183.214C453.545 183.214 454.291 184.023 454.302 185.137H450.456ZM462.013 190C465.337 190 467.308 187.944 467.308 184.535C467.308 181.136 465.337 179.091 462.088 179.091H458.317V190H462.013ZM460.293 188.29V180.801H461.976C464.192 180.801 465.348 182.037 465.348 184.535C465.348 187.044 464.192 188.29 461.918 188.29H460.293ZM471.905 190.165C473.189 190.165 473.956 189.563 474.307 188.876H474.371V190H476.225V184.524C476.225 182.362 474.462 181.712 472.901 181.712C471.181 181.712 469.86 182.479 469.433 183.97L471.234 184.226C471.426 183.667 471.969 183.187 472.912 183.187C473.807 183.187 474.297 183.645 474.297 184.45V184.482C474.297 185.036 473.716 185.062 472.273 185.217C470.685 185.387 469.167 185.861 469.167 187.704C469.167 189.313 470.344 190.165 471.905 190.165ZM472.406 188.748C471.601 188.748 471.026 188.381 471.026 187.672C471.026 186.932 471.671 186.623 472.534 186.5C473.04 186.431 474.052 186.303 474.302 186.101V187.065C474.302 187.976 473.567 188.748 472.406 188.748ZM482.699 181.818H481.086V179.858H479.157V181.818H477.996V183.31H479.157V187.859C479.147 189.398 480.265 190.154 481.714 190.112C482.263 190.096 482.641 189.989 482.849 189.92L482.524 188.413C482.417 188.439 482.199 188.487 481.959 188.487C481.474 188.487 481.086 188.317 481.086 187.539V183.31H482.699V181.818ZM488.296 190.16C490.203 190.16 491.514 189.228 491.855 187.805L490.054 187.603C489.793 188.295 489.154 188.658 488.323 188.658C487.077 188.658 486.251 187.837 486.235 186.436H491.935V185.845C491.935 182.974 490.209 181.712 488.195 181.712C485.851 181.712 484.323 183.432 484.323 185.957C484.323 188.525 485.83 190.16 488.296 190.16ZM486.24 185.137C486.299 184.093 487.071 183.214 488.222 183.214C489.33 183.214 490.076 184.023 490.086 185.137H486.24Z" fill="#6048E5"/>
<path d="M433.562 203.091H431.959L429.237 204.87V206.447L431.847 204.742H431.911V214H433.562V203.091ZM436.881 214H438.601L443.347 204.55V203.091H436.135V204.502H441.643V204.582L436.881 214ZM449.376 202.58H447.954L444.438 215.641H445.86L449.376 202.58ZM454.846 203.091H453.243L450.521 204.87V206.447L453.131 204.742H453.195V214H454.846V203.091ZM461.936 203.091H460.333L457.611 204.87V206.447L460.221 204.742H460.285V214H461.936V203.091ZM469.063 202.58H467.641L464.126 215.641H465.548L469.063 202.58ZM470.395 214H477.575V212.588H472.664V212.509L474.832 210.239C476.83 208.221 477.4 207.256 477.4 206.037C477.4 204.284 475.972 202.942 473.916 202.942C471.876 202.942 470.384 204.263 470.384 206.255H471.956C471.95 205.083 472.707 204.316 473.884 204.316C474.992 204.316 475.834 204.998 475.834 206.085C475.834 207.049 475.258 207.741 474.086 208.982L470.395 212.807V214ZM483.392 214.181C485.912 214.181 487.387 212.125 487.387 208.551C487.387 205.003 485.89 202.942 483.392 202.942C480.889 202.942 479.397 204.998 479.392 208.551C479.392 212.12 480.867 214.176 483.392 214.181ZM483.392 212.759C481.917 212.759 481.027 211.278 481.027 208.551C481.032 205.834 481.922 204.337 483.392 204.337C484.857 204.337 485.752 205.834 485.752 208.551C485.752 211.278 484.862 212.759 483.392 212.759ZM489.277 214H496.457V212.588H491.546V212.509L493.714 210.239C495.712 208.221 496.282 207.256 496.282 206.037C496.282 204.284 494.854 202.942 492.798 202.942C490.758 202.942 489.266 204.263 489.266 206.255H490.838C490.832 205.083 491.589 204.316 492.766 204.316C493.874 204.316 494.715 204.998 494.715 206.085C494.715 207.049 494.14 207.741 492.968 208.982L489.277 212.807V214ZM498.476 214H505.657V212.588H500.745V212.509L502.913 210.239C504.911 208.221 505.481 207.256 505.481 206.037C505.481 204.284 504.053 202.942 501.997 202.942C499.957 202.942 498.465 204.263 498.465 206.255H500.037C500.032 205.083 500.788 204.316 501.965 204.316C503.073 204.316 503.915 204.998 503.915 206.085C503.915 207.049 503.339 207.741 502.168 208.982L498.476 212.807V214Z" fill="#64778C"/>
<circle cx="331" cy="262" r="8" fill="url(#paint14_linear_1659_16185)"/>
<path d="M350.34 256.091H348.411V267H350.34V256.091ZM352.773 267H354.701V258.818H352.773V267ZM353.742 257.657C354.355 257.657 354.855 257.188 354.855 256.613C354.855 256.032 354.355 255.564 353.742 255.564C353.124 255.564 352.623 256.032 352.623 256.613C352.623 257.188 353.124 257.657 353.742 257.657ZM363.6 260.981C363.334 259.596 362.226 258.712 360.308 258.712C358.337 258.712 356.995 259.681 357 261.194C356.995 262.387 357.73 263.175 359.302 263.5L360.697 263.793C361.448 263.958 361.8 264.262 361.8 264.725C361.8 265.285 361.193 265.706 360.276 265.706C359.392 265.706 358.817 265.322 358.652 264.587L356.771 264.768C357.011 266.27 358.274 267.16 360.282 267.16C362.327 267.16 363.771 266.1 363.776 264.55C363.771 263.383 363.02 262.669 361.475 262.334L360.079 262.036C359.248 261.849 358.918 261.561 358.923 261.087C358.918 260.533 359.531 260.15 360.335 260.15C361.225 260.15 361.693 260.635 361.842 261.173L363.6 260.981ZM369.902 258.818H368.288V256.858H366.359V258.818H365.198V260.31H366.359V264.859C366.349 266.398 367.467 267.154 368.916 267.112C369.465 267.096 369.843 266.989 370.051 266.92L369.726 265.413C369.619 265.439 369.401 265.487 369.161 265.487C368.676 265.487 368.288 265.317 368.288 264.539V260.31H369.902V258.818ZM374.202 256.091H372.225V267H374.202V256.091ZM380.792 258.818H379.178V256.858H377.25V258.818H376.088V260.31H377.25V264.859C377.239 266.398 378.358 267.154 379.806 267.112C380.355 267.096 380.733 266.989 380.941 266.92L380.616 265.413C380.51 265.439 380.291 265.487 380.051 265.487C379.567 265.487 379.178 265.317 379.178 264.539V260.31H380.792V258.818ZM386.389 267.16C388.296 267.16 389.606 266.228 389.947 264.805L388.147 264.603C387.886 265.295 387.246 265.658 386.415 265.658C385.169 265.658 384.343 264.837 384.327 263.436H390.027V262.845C390.027 259.974 388.301 258.712 386.288 258.712C383.944 258.712 382.415 260.432 382.415 262.957C382.415 265.525 383.923 267.16 386.389 267.16ZM384.333 262.137C384.391 261.093 385.164 260.214 386.314 260.214C387.422 260.214 388.168 261.023 388.179 262.137H384.333ZM392.108 267H394.037V262.025C394.037 261.018 394.708 260.336 395.539 260.336C396.354 260.336 396.913 260.885 396.913 261.727V267H398.804V261.897C398.804 260.975 399.353 260.336 400.285 260.336C401.062 260.336 401.68 260.794 401.68 261.806V267H403.614V261.508C403.614 259.681 402.559 258.712 401.057 258.712C399.869 258.712 398.964 259.298 398.602 260.208H398.516C398.202 259.282 397.408 258.712 396.306 258.712C395.208 258.712 394.388 259.276 394.047 260.208H393.951V258.818H392.108V267Z" fill="#6048E5"/>
<path d="M347.969 283.5H349.332V282.461C349.332 281.657 349.684 280.98 350.115 280.347L349.327 279.782C348.512 280.437 347.969 281.572 347.969 282.477V283.5ZM350.685 283.5H352.049V282.461C352.049 281.657 352.401 280.98 352.832 280.347L352.044 279.782C351.229 280.437 350.685 281.572 350.685 282.477V283.5ZM356.465 291H358.127L360.423 282.829H360.508L362.804 291H364.46L367.491 280.091H365.755L363.635 288.544H363.533L361.323 280.091H359.608L357.397 288.539H357.296L355.17 280.091H353.439L356.465 291ZM368.351 291H369.944V286.004C369.944 284.933 370.77 284.161 371.899 284.161C372.229 284.161 372.602 284.219 372.73 284.256V282.733C372.57 282.712 372.256 282.696 372.053 282.696C371.095 282.696 370.274 283.239 369.976 284.118H369.891V282.818H368.351V291ZM374.108 291H375.701V282.818H374.108V291ZM374.913 281.556C375.461 281.556 375.919 281.13 375.919 280.608C375.919 280.086 375.461 279.654 374.913 279.654C374.359 279.654 373.906 280.086 373.906 280.608C373.906 281.13 374.359 281.556 374.913 281.556ZM381.663 282.818H379.985V280.858H378.392V282.818H377.194V284.097H378.392V288.928C378.387 290.414 379.522 291.133 380.779 291.107C381.285 291.101 381.626 291.005 381.812 290.936L381.524 289.62C381.418 289.642 381.221 289.69 380.965 289.69C380.448 289.69 379.985 289.519 379.985 288.598V284.097H381.663V282.818ZM386.863 291.165C388.648 291.165 389.91 290.286 390.272 288.955L388.765 288.683C388.477 289.455 387.785 289.849 386.879 289.849C385.515 289.849 384.599 288.965 384.557 287.388H390.373V286.824C390.373 283.868 388.605 282.712 386.751 282.712C384.471 282.712 382.969 284.448 382.969 286.962C382.969 289.503 384.45 291.165 386.863 291.165ZM384.562 286.195C384.626 285.034 385.467 284.027 386.762 284.027C387.998 284.027 388.807 284.944 388.813 286.195H384.562ZM399.929 282.818H398.252V280.858H396.659V282.818H395.46V284.097H396.659V288.928C396.654 290.414 397.788 291.133 399.045 291.107C399.551 291.101 399.892 291.005 400.079 290.936L399.791 289.62C399.684 289.642 399.487 289.69 399.232 289.69C398.715 289.69 398.252 289.519 398.252 288.598V284.097H399.929V282.818ZM405.13 291.165C406.914 291.165 408.177 290.286 408.539 288.955L407.031 288.683C406.744 289.455 406.051 289.849 405.146 289.849C403.782 289.849 402.866 288.965 402.823 287.388H408.64V286.824C408.64 283.868 406.871 282.712 405.018 282.712C402.738 282.712 401.236 284.448 401.236 286.962C401.236 289.503 402.717 291.165 405.13 291.165ZM402.829 286.195C402.892 285.034 403.734 284.027 405.028 284.027C406.264 284.027 407.074 284.944 407.079 286.195H402.829ZM416.538 284.816C416.208 283.543 415.212 282.712 413.443 282.712C411.595 282.712 410.285 283.686 410.285 285.135C410.285 286.297 410.988 287.069 412.522 287.41L413.907 287.713C414.695 287.889 415.063 288.241 415.063 288.752C415.063 289.386 414.386 289.881 413.342 289.881C412.389 289.881 411.776 289.471 411.584 288.667L410.045 288.901C410.311 290.35 411.515 291.165 413.353 291.165C415.329 291.165 416.698 290.116 416.698 288.635C416.698 287.479 415.963 286.765 414.461 286.419L413.161 286.121C412.261 285.908 411.872 285.604 411.877 285.05C411.872 284.422 412.554 283.974 413.459 283.974C414.45 283.974 414.908 284.523 415.095 285.071L416.538 284.816ZM422.268 282.818H420.59V280.858H418.998V282.818H417.799V284.097H418.998V288.928C418.992 290.414 420.127 291.133 421.384 291.107C421.89 291.101 422.231 291.005 422.417 290.936L422.13 289.62C422.023 289.642 421.826 289.69 421.571 289.69C421.054 289.69 420.59 289.519 420.59 288.598V284.097H422.268V282.818ZM430.029 284.816C429.699 283.543 428.703 282.712 426.935 282.712C425.086 282.712 423.776 283.686 423.776 285.135C423.776 286.297 424.479 287.069 426.013 287.41L427.398 287.713C428.186 287.889 428.554 288.241 428.554 288.752C428.554 289.386 427.877 289.881 426.833 289.881C425.88 289.881 425.267 289.471 425.076 288.667L423.536 288.901C423.802 290.35 425.006 291.165 426.844 291.165C428.82 291.165 430.189 290.116 430.189 288.635C430.189 287.479 429.454 286.765 427.952 286.419L426.652 286.121C425.752 285.908 425.363 285.604 425.368 285.05C425.363 284.422 426.045 283.974 426.951 283.974C427.941 283.974 428.399 284.523 428.586 285.071L430.029 284.816ZM433.309 280.091H431.946V281.13C431.946 281.955 431.583 282.632 431.168 283.244L431.956 283.809C432.777 283.148 433.309 282.019 433.309 281.114V280.091ZM436.021 280.091H434.657V281.13C434.657 281.955 434.295 282.632 433.879 283.244L434.668 283.809C435.488 283.148 436.021 282.019 436.021 281.114V280.091Z" fill="#64778C"/>
<circle opacity="0.1" cx="221" cy="314" r="69.5" stroke="#6048E5"/>
<circle opacity="0.1" cx="221" cy="314" r="18.5" stroke="#6048E5"/>
<circle opacity="0.3" cx="221" cy="314" r="15" stroke="#6048E5" stroke-width="2"/>
<circle cx="221" cy="314" r="9" fill="url(#paint15_linear_1659_16185)"/>
<path d="M190.453 350H192.429V346.314H194.517C197.037 346.314 198.39 344.801 198.39 342.702C198.39 340.62 197.053 339.091 194.544 339.091H190.453V350ZM192.429 344.689V340.742H194.24C195.721 340.742 196.376 341.541 196.376 342.702C196.376 343.864 195.721 344.689 194.251 344.689H192.429ZM200.556 350H207.694V348.343H202.532V345.366H207.284V343.709H202.532V340.748H207.651V339.091H200.556V350ZM210.118 350H212.094V346.005H214.107L216.249 350H218.454L216.094 345.675C217.378 345.158 218.054 344.061 218.054 342.58C218.054 340.497 216.712 339.091 214.209 339.091H210.118V350ZM212.094 344.364V340.742H213.905C215.38 340.742 216.041 341.419 216.041 342.58C216.041 343.741 215.38 344.364 213.916 344.364H212.094ZM226.252 342.09H228.154C228.116 340.247 226.545 338.942 224.223 338.942C221.932 338.942 220.212 340.231 220.217 342.159C220.217 343.725 221.33 344.625 223.125 345.089L224.366 345.408C225.544 345.707 226.321 346.074 226.327 346.921C226.321 347.853 225.437 348.477 224.148 348.477C222.912 348.477 221.953 347.923 221.874 346.777H219.929C220.009 348.945 221.623 350.165 224.164 350.165C226.779 350.165 228.298 348.86 228.303 346.937C228.298 345.046 226.737 344.183 225.096 343.794L224.073 343.539C223.179 343.326 222.209 342.947 222.22 342.037C222.225 341.216 222.96 340.614 224.196 340.614C225.373 340.614 226.151 341.163 226.252 342.09ZM240.263 344.545C240.263 341.019 238.111 338.942 235.25 338.942C232.384 338.942 230.238 341.019 230.238 344.545C230.238 348.066 232.384 350.149 235.25 350.149C238.111 350.149 240.263 348.072 240.263 344.545ZM238.276 344.545C238.276 347.028 237.029 348.375 235.25 348.375C233.476 348.375 232.225 347.028 232.225 344.545C232.225 342.063 233.476 340.716 235.25 340.716C237.029 340.716 238.276 342.063 238.276 344.545ZM251.546 339.091H249.58V346.527H249.484L244.349 339.091H242.581V350H244.557V342.569H244.648L249.788 350H251.546V339.091Z" fill="#6048E5"/>
<defs>
<linearGradient id="paint0_linear_1659_16185" x1="138" y1="289" x2="138" y2="305" gradientUnits="userSpaceOnUse">
<stop stop-color="#7963F5"/>
<stop offset="1" stop-color="#5D46DB"/>
</linearGradient>
<linearGradient id="paint1_linear_1659_16185" x1="232" y1="303.001" x2="300.118" y2="300" gradientUnits="userSpaceOnUse">
<stop stop-color="#BDB4FE"/>
<stop offset="1" stop-color="#BDB4FE" stop-opacity="0"/>
</linearGradient>
<linearGradient id="paint2_linear_1659_16185" x1="230" y1="194.001" x2="269.278" y2="193.176" gradientUnits="userSpaceOnUse">
<stop stop-color="#BDB4FE"/>
<stop offset="1" stop-color="#BDB4FE" stop-opacity="0"/>
</linearGradient>
<linearGradient id="paint3_linear_1659_16185" x1="240" y1="208" x2="402.62" y2="239.07" gradientUnits="userSpaceOnUse">
<stop stop-color="#BDB4FE" stop-opacity="0"/>
<stop offset="1" stop-color="#BDB4FE"/>
</linearGradient>
<linearGradient id="paint4_linear_1659_16185" x1="85.5096" y1="51.5099" x2="253.274" y2="5.3986" gradientUnits="userSpaceOnUse">
<stop stop-color="#BDB4FE" stop-opacity="0"/>
<stop offset="1" stop-color="#BDB4FE"/>
</linearGradient>
<linearGradient id="paint5_linear_1659_16185" x1="226.245" y1="235.529" x2="409.318" y2="197.307" gradientUnits="userSpaceOnUse">
<stop stop-color="#BDB4FE" stop-opacity="0"/>
<stop offset="1" stop-color="#BDB4FE"/>
</linearGradient>
<linearGradient id="paint6_linear_1659_16185" x1="202" y1="314" x2="80.7576" y2="228.365" gradientUnits="userSpaceOnUse">
<stop stop-color="#BDB4FE"/>
<stop offset="1" stop-color="#BDB4FE" stop-opacity="0"/>
</linearGradient>
<linearGradient id="paint7_linear_1659_16185" x1="209" y1="303.001" x2="87.3008" y2="296.727" gradientUnits="userSpaceOnUse">
<stop stop-color="#BDB4FE"/>
<stop offset="1" stop-color="#BDB4FE" stop-opacity="0"/>
</linearGradient>
<linearGradient id="paint8_linear_1659_16185" x1="147" y1="205" x2="147" y2="221" gradientUnits="userSpaceOnUse">
<stop stop-color="#7963F5"/>
<stop offset="1" stop-color="#5D46DB"/>
</linearGradient>
<linearGradient id="paint9_linear_1659_16185" x1="234" y1="195" x2="234" y2="211" gradientUnits="userSpaceOnUse">
<stop stop-color="#7963F5"/>
<stop offset="1" stop-color="#5D46DB"/>
</linearGradient>
<linearGradient id="paint10_linear_1659_16185" x1="220" y1="357" x2="249.082" y2="368.038" gradientUnits="userSpaceOnUse">
<stop stop-color="#BDB4FE"/>
<stop offset="1" stop-color="#BDB4FE" stop-opacity="0"/>
</linearGradient>
<linearGradient id="paint11_linear_1659_16185" x1="224" y1="94" x2="224" y2="110" gradientUnits="userSpaceOnUse">
<stop stop-color="#7963F5"/>
<stop offset="1" stop-color="#5D46DB"/>
</linearGradient>
<linearGradient id="paint12_linear_1659_16185" x1="265" y1="4" x2="265" y2="20" gradientUnits="userSpaceOnUse">
<stop stop-color="#7963F5"/>
<stop offset="1" stop-color="#5D46DB"/>
</linearGradient>
<linearGradient id="paint13_linear_1659_16185" x1="412" y1="177" x2="412" y2="193" gradientUnits="userSpaceOnUse">
<stop stop-color="#7963F5"/>
<stop offset="1" stop-color="#5D46DB"/>
</linearGradient>
<linearGradient id="paint14_linear_1659_16185" x1="331" y1="254" x2="331" y2="270" gradientUnits="userSpaceOnUse">
<stop stop-color="#7963F5"/>
<stop offset="1" stop-color="#5D46DB"/>
</linearGradient>
<linearGradient id="paint15_linear_1659_16185" x1="221" y1="305" x2="221" y2="323" gradientUnits="userSpaceOnUse">
<stop stop-color="#7963F5"/>
<stop offset="1" stop-color="#5D46DB"/>
</linearGradient>
</defs>
</svg>
