<svg width="507" height="415" viewBox="0 0 507 415" fill="none" xmlns="http://www.w3.org/2000/svg">
<path d="M40.4829 293.818H38.7837V293.174C38.7837 292.534 39.05 292.178 39.7691 292.178C40.0727 292.178 40.3284 292.247 40.4882 292.295L40.8771 290.803C40.6267 290.718 40.0781 290.58 39.4122 290.58C37.99 290.58 36.8554 291.395 36.8554 293.046V293.818H35.6462V295.31H36.8554V302H38.7837V295.31H40.4829V293.818ZM42.443 302H44.3713V293.818H42.443V302ZM43.4125 292.657C44.025 292.657 44.5258 292.188 44.5258 291.613C44.5258 291.032 44.025 290.564 43.4125 290.564C42.7946 290.564 42.2939 291.032 42.2939 291.613C42.2939 292.188 42.7946 292.657 43.4125 292.657ZM46.8041 302H48.7324V297.19C48.7324 296.151 49.5154 295.416 50.5755 295.416C50.9004 295.416 51.3052 295.475 51.4703 295.528V293.754C51.2946 293.722 50.9909 293.701 50.7779 293.701C49.8404 293.701 49.0573 294.234 48.759 295.182H48.6738V293.818H46.8041V302ZM59.668 295.981C59.4017 294.596 58.2937 293.712 56.3761 293.712C54.4052 293.712 53.0629 294.681 53.0682 296.194C53.0629 297.387 53.798 298.175 55.3694 298.5L56.765 298.793C57.516 298.958 57.8676 299.262 57.8676 299.725C57.8676 300.285 57.2604 300.706 56.3442 300.706C55.4599 300.706 54.8847 300.322 54.7195 299.587L52.8392 299.768C53.0789 301.27 54.3413 302.16 56.3495 302.16C58.3949 302.16 59.8385 301.1 59.8438 299.55C59.8385 298.383 59.0874 297.669 57.5427 297.334L56.1471 297.036C55.3161 296.849 54.9859 296.561 54.9912 296.087C54.9859 295.533 55.5984 295.15 56.4028 295.15C57.2923 295.15 57.7611 295.635 57.9102 296.173L59.668 295.981ZM65.9694 293.818H64.3554V291.858H62.4272V293.818H61.2659V295.31H62.4272V299.859C62.4165 301.398 63.5351 302.154 64.984 302.112C65.5326 302.096 65.9108 301.989 66.1186 301.92L65.7936 300.413C65.6871 300.439 65.4687 300.487 65.229 300.487C64.7443 300.487 64.3554 300.317 64.3554 299.539V295.31H65.9694V293.818ZM77.2579 291.091H75.2924V298.527H75.1965L70.0616 291.091H68.2931V302H70.2693V294.569H70.3598L75.5001 302H77.2579V291.091ZM82.1304 302.165C83.4142 302.165 84.1812 301.563 84.5328 300.876H84.5967V302H86.4504V296.524C86.4504 294.362 84.6872 293.712 83.1265 293.712C81.406 293.712 80.085 294.479 79.6588 295.97L81.4593 296.226C81.651 295.667 82.1943 295.187 83.1372 295.187C84.0321 295.187 84.5221 295.645 84.5221 296.45V296.482C84.5221 297.036 83.9415 297.062 82.498 297.217C80.9106 297.387 79.3925 297.861 79.3925 299.704C79.3925 301.313 80.5697 302.165 82.1304 302.165ZM82.6311 300.748C81.8268 300.748 81.2515 300.381 81.2515 299.672C81.2515 298.932 81.8961 298.623 82.759 298.5C83.265 298.431 84.2771 298.303 84.5274 298.101V299.065C84.5274 299.976 83.7924 300.748 82.6311 300.748ZM88.8393 302H90.7676V297.025C90.7676 296.018 91.4387 295.336 92.2697 295.336C93.0847 295.336 93.644 295.885 93.644 296.727V302H95.535V296.897C95.535 295.975 96.0836 295.336 97.0158 295.336C97.7935 295.336 98.4114 295.794 98.4114 296.806V302H100.345V296.508C100.345 294.681 99.2903 293.712 97.7882 293.712C96.6003 293.712 95.6948 294.298 95.3326 295.208H95.2473C94.9331 294.282 94.1394 293.712 93.0367 293.712C91.9394 293.712 91.1191 294.276 90.7782 295.208H90.6823V293.818H88.8393V302ZM106.373 302.16C108.28 302.16 109.591 301.228 109.932 299.805L108.131 299.603C107.87 300.295 107.231 300.658 106.4 300.658C105.154 300.658 104.328 299.837 104.312 298.436H110.012V297.845C110.012 294.974 108.286 293.712 106.272 293.712C103.928 293.712 102.4 295.432 102.4 297.957C102.4 300.525 103.907 302.16 106.373 302.16ZM104.317 297.137C104.376 296.093 105.148 295.214 106.299 295.214C107.407 295.214 108.152 296.023 108.163 297.137H104.317Z" fill="#6048E5"/>
<path d="M36.6814 315.091V326H38.2475V318.1H38.3487L41.566 325.984H42.8657L46.0831 318.106H46.1843V326H47.7503V315.091H45.7528L42.2798 323.571H42.1519L38.6789 315.091H36.6814ZM52.3965 326.181C53.7495 326.181 54.5112 325.494 54.8149 324.881H54.8788V326H56.4342V320.567C56.4342 318.186 54.5592 317.712 53.2595 317.712C51.7786 317.712 50.415 318.308 49.8823 319.8L51.3791 320.141C51.6135 319.56 52.2101 319.001 53.2808 319.001C54.3088 319.001 54.8362 319.539 54.8362 320.466V320.503C54.8362 321.083 54.2396 321.073 52.7694 321.243C51.2193 321.424 49.632 321.829 49.632 323.688C49.632 325.297 50.8411 326.181 52.3965 326.181ZM52.7428 324.903C51.8426 324.903 51.1927 324.498 51.1927 323.71C51.1927 322.857 51.9491 322.554 52.8706 322.431C53.3873 322.362 54.6124 322.223 54.8415 321.994V323.049C54.8415 324.018 54.0691 324.903 52.7428 324.903ZM58.5555 326H60.1482V321.004C60.1482 319.933 60.9739 319.161 62.1031 319.161C62.4334 319.161 62.8062 319.219 62.9341 319.256V317.733C62.7743 317.712 62.46 317.696 62.2576 317.696C61.2988 317.696 60.4785 318.239 60.1802 319.118H60.0949V317.818H58.5555V326ZM64.3124 326H65.9051V317.818H64.3124V326ZM65.1167 316.556C65.6653 316.556 66.1234 316.13 66.1234 315.608C66.1234 315.086 65.6653 314.654 65.1167 314.654C64.5627 314.654 64.11 315.086 64.11 315.608C64.11 316.13 64.5627 316.556 65.1167 316.556ZM70.4288 326.181C71.7817 326.181 72.5435 325.494 72.8471 324.881H72.911V326H74.4664V320.567C74.4664 318.186 72.5914 317.712 71.2917 317.712C69.8109 317.712 68.4472 318.308 67.9146 319.8L69.4114 320.141C69.6457 319.56 70.2423 319.001 71.313 319.001C72.341 319.001 72.8684 319.539 72.8684 320.466V320.503C72.8684 321.083 72.2718 321.073 70.8016 321.243C69.2516 321.424 67.6642 321.829 67.6642 323.688C67.6642 325.297 68.8734 326.181 70.4288 326.181ZM70.775 324.903C69.8748 324.903 69.2249 324.498 69.2249 323.71C69.2249 322.857 69.9813 322.554 70.9028 322.431C71.4195 322.362 72.6447 322.223 72.8737 321.994V323.049C72.8737 324.018 72.1013 324.903 70.775 324.903Z" fill="#64778C"/>
<circle cx="127" cy="297" r="8" fill="url(#paint0_linear_1659_16185)"/>
<path d="M233 212L223 297" stroke="url(#paint1_linear_1659_16185)"/>
<path d="M224.5 112L233.5 192.5" stroke="url(#paint2_linear_1659_16185)"/>
<path d="M323 256L240 208" stroke="url(#paint3_linear_1659_16185)"/>
<path d="M260 21L229.5 91" stroke="url(#paint4_linear_1659_16185)"/>
<path d="M405.5 192L337.5 255.5" stroke="url(#paint5_linear_1659_16185)"/>
<path d="M136 299.5L201.999 314" stroke="url(#paint6_linear_1659_16185)"/>
<path d="M152.5 221.5L209 303" stroke="url(#paint7_linear_1659_16185)"/>
<path d="M85.4643 218H87.3926V209.818H85.4643V218ZM86.4338 208.657C87.0463 208.657 87.547 208.188 87.547 207.613C87.547 207.032 87.0463 206.564 86.4338 206.564C85.8159 206.564 85.3152 207.032 85.3152 207.613C85.3152 208.188 85.8159 208.657 86.4338 208.657ZM89.8254 218H91.7537V213.025C91.7537 212.018 92.4249 211.336 93.2558 211.336C94.0708 211.336 94.6301 211.885 94.6301 212.727V218H96.5211V212.897C96.5211 211.975 97.0698 211.336 98.0019 211.336C98.7796 211.336 99.3975 211.794 99.3975 212.806V218H101.331V212.508C101.331 210.681 100.276 209.712 98.7743 209.712C97.5864 209.712 96.6809 210.298 96.3187 211.208H96.2335C95.9192 210.282 95.1255 209.712 94.0229 209.712C92.9256 209.712 92.1053 210.276 91.7644 211.208H91.6685V209.818H89.8254V218ZM106.092 218.165C107.375 218.165 108.143 217.563 108.494 216.876H108.558V218H110.412V212.524C110.412 210.362 108.649 209.712 107.088 209.712C105.367 209.712 104.046 210.479 103.62 211.97L105.421 212.226C105.612 211.667 106.156 211.187 107.098 211.187C107.993 211.187 108.483 211.645 108.483 212.45V212.482C108.483 213.036 107.903 213.062 106.459 213.217C104.872 213.387 103.354 213.861 103.354 215.704C103.354 217.313 104.531 218.165 106.092 218.165ZM106.592 216.748C105.788 216.748 105.213 216.381 105.213 215.672C105.213 214.932 105.857 214.623 106.72 214.5C107.226 214.431 108.238 214.303 108.489 214.101V215.065C108.489 215.976 107.754 216.748 106.592 216.748ZM116.359 221.239C118.569 221.239 120.199 220.227 120.199 218.133V209.818H118.298V211.171H118.191C117.898 210.58 117.286 209.712 115.842 209.712C113.951 209.712 112.465 211.192 112.465 213.882C112.465 216.551 113.951 217.883 115.837 217.883C117.238 217.883 117.893 217.132 118.191 216.53H118.287V218.08C118.287 219.284 117.488 219.779 116.391 219.779C115.23 219.779 114.718 219.23 114.484 218.751L112.747 219.172C113.099 220.317 114.276 221.239 116.359 221.239ZM116.375 216.37C115.102 216.37 114.431 215.379 114.431 213.872C114.431 212.386 115.091 211.294 116.375 211.294C117.616 211.294 118.298 212.322 118.298 213.872C118.298 215.433 117.605 216.37 116.375 216.37ZM126.248 218.16C128.155 218.16 129.465 217.228 129.806 215.805L128.006 215.603C127.745 216.295 127.105 216.658 126.274 216.658C125.028 216.658 124.202 215.837 124.186 214.436H129.886V213.845C129.886 210.974 128.16 209.712 126.147 209.712C123.803 209.712 122.274 211.432 122.274 213.957C122.274 216.525 123.782 218.16 126.248 218.16ZM124.192 213.137C124.25 212.093 125.023 211.214 126.173 211.214C127.281 211.214 128.027 212.023 128.038 213.137H124.192Z" fill="#6048E5"/>
<path d="M3.13894 237.142C3.13894 235.837 3.96458 235.091 5.09917 235.091C6.19647 235.091 6.85165 235.789 6.85165 236.988V242H8.44434V236.796C8.44434 234.756 7.32573 233.712 5.64249 233.712C4.36941 233.712 3.60236 234.266 3.21884 235.15H3.11763V231.091H1.54625V242H3.13894V237.142ZM14.3889 233.818H12.711V231.858H11.1183V233.818H9.91983V235.097H11.1183V239.928C11.113 241.414 12.2476 242.133 13.5047 242.107C14.0107 242.101 14.3517 242.005 14.5381 241.936L14.2504 240.62C14.1439 240.642 13.9468 240.69 13.6911 240.69C13.1744 240.69 12.711 240.519 12.711 239.598V235.097H14.3889V233.818ZM19.97 233.818H18.2921V231.858H16.6994V233.818H15.5009V235.097H16.6994V239.928C16.6941 241.414 17.8287 242.133 19.0858 242.107C19.5918 242.101 19.9327 242.005 20.1191 241.936L19.8315 240.62C19.725 240.642 19.5279 240.69 19.2722 240.69C18.7555 240.69 18.2921 240.519 18.2921 239.598V235.097H19.97V233.818ZM21.7318 245.068H23.3245V240.727H23.4204C23.708 241.249 24.2939 242.16 25.7854 242.16C27.767 242.16 29.2052 240.572 29.2052 237.925C29.2052 235.272 27.7457 233.712 25.7694 233.712C24.2513 233.712 23.7027 234.638 23.4204 235.145H23.2872V233.818H21.7318V245.068ZM23.2925 237.909C23.2925 236.199 24.0383 235.065 25.4285 235.065C26.8721 235.065 27.5965 236.284 27.5965 237.909C27.5965 239.55 26.8508 240.801 25.4285 240.801C24.0596 240.801 23.2925 239.63 23.2925 237.909ZM37.1207 235.816C36.7904 234.543 35.7943 233.712 34.0258 233.712C32.1775 233.712 30.8671 234.686 30.8671 236.135C30.8671 237.297 31.5702 238.069 33.1043 238.41L34.4893 238.713C35.2776 238.889 35.6452 239.241 35.6452 239.752C35.6452 240.386 34.9687 240.881 33.9246 240.881C32.9711 240.881 32.3586 240.471 32.1668 239.667L30.6274 239.901C30.8937 241.35 32.0976 242.165 33.9353 242.165C35.9115 242.165 37.2805 241.116 37.2805 239.635C37.2805 238.479 36.5454 237.765 35.0432 237.419L33.7435 237.121C32.8433 236.908 32.4545 236.604 32.4598 236.05C32.4545 235.422 33.1363 234.974 34.0418 234.974C35.0326 234.974 35.4907 235.523 35.6771 236.071L37.1207 235.816ZM40.081 236.146C40.6616 236.146 41.1463 235.672 41.1463 235.081C41.1463 234.5 40.6616 234.021 40.081 234.021C39.495 234.021 39.0156 234.5 39.0156 235.081C39.0156 235.672 39.495 236.146 40.081 236.146ZM40.081 242.101C40.6616 242.101 41.1463 241.627 41.1463 241.036C41.1463 240.455 40.6616 239.976 40.081 239.976C39.495 239.976 39.0156 240.455 39.0156 241.036C39.0156 241.627 39.495 242.101 40.081 242.101ZM47.4345 230.58H46.0123L42.4966 243.641H43.9189L47.4345 230.58ZM52.9423 230.58H51.5201L48.0044 243.641H49.4267L52.9423 230.58ZM54.2953 245.068H55.888V240.727H55.9838C56.2715 241.249 56.8574 242.16 58.3489 242.16C60.3304 242.16 61.7686 240.572 61.7686 237.925C61.7686 235.272 60.3091 233.712 58.3329 233.712C56.8148 233.712 56.2662 234.638 55.9838 235.145H55.8507V233.818H54.2953V245.068ZM55.856 237.909C55.856 236.199 56.6017 235.065 57.992 235.065C59.4355 235.065 60.16 236.284 60.16 237.909C60.16 239.55 59.4142 240.801 57.992 240.801C56.623 240.801 55.856 239.63 55.856 237.909ZM63.5531 242H65.1458V237.004C65.1458 235.933 65.9714 235.161 67.1007 235.161C67.4309 235.161 67.8038 235.219 67.9316 235.256V233.733C67.7718 233.712 67.4576 233.696 67.2551 233.696C66.2963 233.696 65.476 234.239 65.1777 235.118H65.0925V233.818H63.5531V242ZM72.4633 242.165C74.7698 242.165 76.2773 240.477 76.2773 237.946C76.2773 235.4 74.7698 233.712 72.4633 233.712C70.1569 233.712 68.6494 235.4 68.6494 237.946C68.6494 240.477 70.1569 242.165 72.4633 242.165ZM72.4687 240.828C70.9612 240.828 70.2581 239.512 70.2581 237.941C70.2581 236.375 70.9612 235.043 72.4687 235.043C73.9655 235.043 74.6686 236.375 74.6686 237.941C74.6686 239.512 73.9655 240.828 72.4687 240.828ZM81.9489 233.818H80.1857V233.083C80.1857 232.359 80.484 231.964 81.2617 231.964C81.592 231.964 81.8263 232.039 81.9755 232.087L82.3484 230.798C82.1246 230.713 81.6612 230.58 81.0167 230.58C79.7223 230.58 78.5877 231.336 78.5877 232.87V233.818H77.3253V235.097H78.5877V242H80.1857V235.097H81.9489V233.818ZM83.5922 242H85.1848V233.818H83.5922V242ZM84.3965 232.556C84.9451 232.556 85.4032 232.13 85.4032 231.608C85.4032 231.086 84.9451 230.654 84.3965 230.654C83.8425 230.654 83.3897 231.086 83.3897 231.608C83.3897 232.13 83.8425 232.556 84.3965 232.556ZM88.9202 231.091H87.3275V242H88.9202V231.091ZM94.5891 242.165C96.3736 242.165 97.636 241.286 97.9982 239.955L96.4908 239.683C96.2031 240.455 95.5107 240.849 94.6051 240.849C93.2415 240.849 92.3253 239.965 92.2827 238.388H98.0994V237.824C98.0994 234.868 96.331 233.712 94.4773 233.712C92.1974 233.712 90.6953 235.448 90.6953 237.962C90.6953 240.503 92.1761 242.165 94.5891 242.165ZM92.288 237.195C92.3519 236.034 93.1935 235.027 94.4879 235.027C95.7237 235.027 96.5334 235.944 96.5387 237.195H92.288ZM100.916 242.101C101.497 242.101 101.981 241.627 101.981 241.036C101.981 240.455 101.497 239.976 100.916 239.976C100.33 239.976 99.8506 240.455 99.8506 241.036C99.8506 241.627 100.33 242.101 100.916 242.101ZM104.115 245.068H105.707V240.727H105.803C106.091 241.249 106.677 242.16 108.168 242.16C110.15 242.16 111.588 240.572 111.588 237.925C111.588 235.272 110.128 233.712 108.152 233.712C106.634 233.712 106.085 234.638 105.803 235.145H105.67V233.818H104.115V245.068ZM105.675 237.909C105.675 236.199 106.421 235.065 107.811 235.065C109.255 235.065 109.979 236.284 109.979 237.909C109.979 239.55 109.234 240.801 107.811 240.801C106.442 240.801 105.675 239.63 105.675 237.909ZM114.965 237.142C114.965 235.837 115.764 235.091 116.872 235.091C117.953 235.091 118.609 235.8 118.609 236.988V242H120.201V236.796C120.201 234.772 119.088 233.712 117.415 233.712C116.185 233.712 115.381 234.282 115.002 235.15H114.901V233.818H113.372V242H114.965V237.142ZM125.768 245.239C127.85 245.239 129.459 244.285 129.459 242.181V233.818H127.898V235.145H127.781C127.499 234.638 126.934 233.712 125.411 233.712C123.435 233.712 121.98 235.272 121.98 237.877C121.98 240.487 123.467 241.877 125.4 241.877C126.902 241.877 127.483 241.031 127.771 240.509H127.872V242.117C127.872 243.401 126.993 243.955 125.784 243.955C124.457 243.955 123.941 243.289 123.658 242.82L122.289 243.385C122.721 244.386 123.813 245.239 125.768 245.239ZM125.752 240.556C124.329 240.556 123.589 239.464 123.589 237.856C123.589 236.284 124.313 235.065 125.752 235.065C127.142 235.065 127.888 236.199 127.888 237.856C127.888 239.544 127.126 240.556 125.752 240.556Z" fill="#64778C"/>
<circle cx="147" cy="213" r="8" fill="url(#paint8_linear_1659_16185)"/>
<circle cx="234" cy="203" r="8" fill="url(#paint9_linear_1659_16185)"/>
<path d="M251.309 208H253.238V199.818H251.309V208ZM252.279 198.657C252.891 198.657 253.392 198.188 253.392 197.613C253.392 197.032 252.891 196.564 252.279 196.564C251.661 196.564 251.16 197.032 251.16 197.613C251.16 198.188 251.661 198.657 252.279 198.657ZM259.756 199.818H258.142V197.858H256.214V199.818H255.053V201.31H256.214V205.859C256.203 207.398 257.322 208.154 258.771 208.112C259.319 208.096 259.697 207.989 259.905 207.92L259.58 206.413C259.474 206.439 259.255 206.487 259.016 206.487C258.531 206.487 258.142 206.317 258.142 205.539V201.31H259.756V199.818ZM265.353 208.16C267.26 208.16 268.57 207.228 268.911 205.805L267.111 205.603C266.85 206.295 266.211 206.658 265.38 206.658C264.133 206.658 263.308 205.837 263.292 204.436H268.991V203.845C268.991 200.974 267.265 199.712 265.252 199.712C262.908 199.712 261.379 201.432 261.379 203.957C261.379 206.525 262.887 208.16 265.353 208.16ZM263.297 203.137C263.355 202.093 264.128 201.214 265.278 201.214C266.386 201.214 267.132 202.023 267.143 203.137H263.297ZM271.072 208H273.001V203.025C273.001 202.018 273.672 201.336 274.503 201.336C275.318 201.336 275.877 201.885 275.877 202.727V208H277.768V202.897C277.768 201.975 278.317 201.336 279.249 201.336C280.027 201.336 280.644 201.794 280.644 202.806V208H282.578V202.508C282.578 200.681 281.523 199.712 280.021 199.712C278.833 199.712 277.928 200.298 277.566 201.208H277.48C277.166 200.282 276.372 199.712 275.27 199.712C274.173 199.712 273.352 200.276 273.011 201.208H272.915V199.818H271.072V208ZM285.07 208H291.85V206.343H287.046V197.091H285.07V208ZM293.93 208H295.859V199.818H293.93V208ZM294.9 198.657C295.512 198.657 296.013 198.188 296.013 197.613C296.013 197.032 295.512 196.564 294.9 196.564C294.282 196.564 293.781 197.032 293.781 197.613C293.781 198.188 294.282 198.657 294.9 198.657ZM304.758 201.981C304.492 200.596 303.384 199.712 301.466 199.712C299.495 199.712 298.153 200.681 298.158 202.194C298.153 203.387 298.888 204.175 300.46 204.5L301.855 204.793C302.606 204.958 302.958 205.262 302.958 205.725C302.958 206.285 302.35 206.706 301.434 206.706C300.55 206.706 299.975 206.322 299.81 205.587L297.929 205.768C298.169 207.27 299.431 208.16 301.44 208.16C303.485 208.16 304.929 207.1 304.934 205.55C304.929 204.383 304.178 203.669 302.633 203.334L301.237 203.036C300.406 202.849 300.076 202.561 300.081 202.087C300.076 201.533 300.689 201.15 301.493 201.15C302.382 201.15 302.851 201.635 303 202.173L304.758 201.981ZM311.06 199.818H309.446V197.858H307.517V199.818H306.356V201.31H307.517V205.859C307.507 207.398 308.625 208.154 310.074 208.112C310.623 208.096 311.001 207.989 311.209 207.92L310.884 206.413C310.777 206.439 310.559 206.487 310.319 206.487C309.834 206.487 309.446 206.317 309.446 205.539V201.31H311.06V199.818Z" fill="#6048E5"/>
<path d="M252.169 234.269H255.669V233.007H253.692V221.943H255.669V220.681H252.169V234.269ZM258.248 232.101C258.829 232.101 259.313 231.627 259.313 231.036C259.313 230.455 258.829 229.976 258.248 229.976C257.662 229.976 257.183 230.455 257.183 231.036C257.183 231.627 257.662 232.101 258.248 232.101ZM262.496 232.101C263.077 232.101 263.561 231.627 263.561 231.036C263.561 230.455 263.077 229.976 262.496 229.976C261.91 229.976 261.431 230.455 261.431 231.036C261.431 231.627 261.91 232.101 262.496 232.101ZM266.744 232.101C267.325 232.101 267.809 231.627 267.809 231.036C267.809 230.455 267.325 229.976 266.744 229.976C266.158 229.976 265.679 230.455 265.679 231.036C265.679 231.627 266.158 232.101 266.744 232.101ZM272.83 220.681H269.33V221.943H271.306V233.007H269.33V234.269H272.83V220.681Z" fill="#64778C"/>
<line x1="221.5" y1="357" x2="221.5" y2="415" stroke="url(#paint10_linear_1659_16185)"/>
<circle cx="224" cy="102" r="8" fill="url(#paint11_linear_1659_16185)"/>
<path d="M243.34 96.0909H241.411V107H243.34V96.0909ZM245.773 107H247.701V98.8182H245.773V107ZM246.742 97.657C247.355 97.657 247.855 97.1882 247.855 96.6129C247.855 96.0323 247.355 95.5636 246.742 95.5636C246.124 95.5636 245.623 96.0323 245.623 96.6129C245.623 97.1882 246.124 97.657 246.742 97.657ZM256.6 100.981C256.334 99.5959 255.226 98.7116 253.308 98.7116C251.337 98.7116 249.995 99.6811 250 101.194C249.995 102.387 250.73 103.175 252.302 103.5L253.697 103.793C254.448 103.958 254.8 104.262 254.8 104.725C254.8 105.285 254.193 105.706 253.276 105.706C252.392 105.706 251.817 105.322 251.652 104.587L249.771 104.768C250.011 106.27 251.274 107.16 253.282 107.16C255.327 107.16 256.771 106.1 256.776 104.55C256.771 103.383 256.02 102.669 254.475 102.334L253.079 102.036C252.248 101.849 251.918 101.561 251.923 101.087C251.918 100.533 252.531 100.15 253.335 100.15C254.225 100.15 254.693 100.635 254.842 101.173L256.6 100.981ZM262.902 98.8182H261.288V96.858H259.359V98.8182H258.198V100.31H259.359V104.859C259.349 106.398 260.467 107.154 261.916 107.112C262.465 107.096 262.843 106.989 263.051 106.92L262.726 105.413C262.619 105.439 262.401 105.487 262.161 105.487C261.676 105.487 261.288 105.317 261.288 104.539V100.31H262.902V98.8182ZM267.202 96.0909H265.225V107H267.202V96.0909ZM273.792 98.8182H272.178V96.858H270.25V98.8182H269.088V100.31H270.25V104.859C270.239 106.398 271.358 107.154 272.806 107.112C273.355 107.096 273.733 106.989 273.941 106.92L273.616 105.413C273.51 105.439 273.291 105.487 273.051 105.487C272.567 105.487 272.178 105.317 272.178 104.539V100.31H273.792V98.8182ZM279.389 107.16C281.296 107.16 282.606 106.228 282.947 104.805L281.147 104.603C280.886 105.295 280.246 105.658 279.415 105.658C278.169 105.658 277.343 104.837 277.327 103.436H283.027V102.845C283.027 99.9741 281.301 98.7116 279.288 98.7116C276.944 98.7116 275.415 100.432 275.415 102.957C275.415 105.525 276.923 107.16 279.389 107.16ZM277.333 102.137C277.391 101.093 278.164 100.214 279.314 100.214C280.422 100.214 281.168 101.023 281.179 102.137H277.333ZM285.108 107H287.037V102.025C287.037 101.018 287.708 100.336 288.539 100.336C289.354 100.336 289.913 100.885 289.913 101.727V107H291.804V101.897C291.804 100.975 292.353 100.336 293.285 100.336C294.062 100.336 294.68 100.794 294.68 101.806V107H296.614V101.508C296.614 99.6811 295.559 98.7116 294.057 98.7116C292.869 98.7116 291.964 99.2976 291.602 100.208H291.516C291.202 99.2816 290.408 98.7116 289.306 98.7116C288.208 98.7116 287.388 99.2763 287.047 100.208H286.951V98.8182H285.108V107Z" fill="#6048E5"/>
<path d="M241.099 123.5H242.462V122.461C242.462 121.657 242.814 120.98 243.245 120.347L242.457 119.782C241.642 120.437 241.099 121.572 241.099 122.477V123.5ZM243.815 123.5H245.179V122.461C245.179 121.657 245.53 120.98 245.962 120.347L245.174 119.782C244.359 120.437 243.815 121.572 243.815 122.477V123.5ZM249.105 120.091H247.459V131H249.105V120.091ZM251.374 131H252.967V125.956C252.967 124.853 253.739 124.086 254.644 124.086C255.529 124.086 256.141 124.672 256.141 125.561V131H257.729V125.785C257.729 124.8 258.331 124.086 259.369 124.086C260.211 124.086 260.903 124.555 260.903 125.663V131H262.496V125.513C262.496 123.644 261.452 122.712 259.971 122.712C258.794 122.712 257.91 123.276 257.516 124.15H257.43C257.073 123.255 256.322 122.712 255.23 122.712C254.149 122.712 253.345 123.25 253.004 124.15H252.903V122.818H251.374V131ZM264.631 134.068H266.223V129.727H266.319C266.607 130.249 267.193 131.16 268.684 131.16C270.666 131.16 272.104 129.572 272.104 126.925C272.104 124.272 270.645 122.712 268.668 122.712C267.15 122.712 266.602 123.638 266.319 124.145H266.186V122.818H264.631V134.068ZM266.191 126.909C266.191 125.199 266.937 124.065 268.327 124.065C269.771 124.065 270.495 125.284 270.495 126.909C270.495 128.55 269.75 129.801 268.327 129.801C266.958 129.801 266.191 128.63 266.191 126.909ZM275.481 120.091H273.889V131H275.481V120.091ZM281.15 131.165C282.935 131.165 284.197 130.286 284.559 128.955L283.052 128.683C282.764 129.455 282.072 129.849 281.166 129.849C279.803 129.849 278.886 128.965 278.844 127.388H284.66V126.824C284.66 123.868 282.892 122.712 281.038 122.712C278.758 122.712 277.256 124.448 277.256 126.962C277.256 129.503 278.737 131.165 281.15 131.165ZM278.849 126.195C278.913 125.034 279.755 124.027 281.049 124.027C282.285 124.027 283.094 124.944 283.1 126.195H278.849ZM286.428 131H288.02V125.956C288.02 124.853 288.793 124.086 289.698 124.086C290.582 124.086 291.195 124.672 291.195 125.561V131H292.782V125.785C292.782 124.8 293.384 124.086 294.423 124.086C295.265 124.086 295.957 124.555 295.957 125.663V131H297.55V125.513C297.55 123.644 296.506 122.712 295.025 122.712C293.848 122.712 292.963 123.276 292.569 124.15H292.484C292.127 123.255 291.376 122.712 290.284 122.712C289.203 122.712 288.398 123.25 288.058 124.15H287.956V122.818H286.428V131ZM303.211 131.165C304.995 131.165 306.258 130.286 306.62 128.955L305.112 128.683C304.825 129.455 304.132 129.849 303.227 129.849C301.863 129.849 300.947 128.965 300.904 127.388H306.721V126.824C306.721 123.868 304.953 122.712 303.099 122.712C300.819 122.712 299.317 124.448 299.317 126.962C299.317 129.503 300.798 131.165 303.211 131.165ZM300.91 126.195C300.973 125.034 301.815 124.027 303.11 124.027C304.345 124.027 305.155 124.944 305.16 126.195H300.91ZM310.081 126.142C310.081 124.837 310.88 124.091 311.988 124.091C313.069 124.091 313.724 124.8 313.724 125.988V131H315.317V125.796C315.317 123.772 314.204 122.712 312.531 122.712C311.301 122.712 310.496 123.282 310.118 124.15H310.017V122.818H308.488V131H310.081V126.142ZM321.272 122.818H319.594V120.858H318.002V122.818H316.803V124.097H318.002V128.928C317.996 130.414 319.131 131.133 320.388 131.107C320.894 131.101 321.235 131.005 321.421 130.936L321.134 129.62C321.027 129.642 320.83 129.69 320.574 129.69C320.058 129.69 319.594 129.519 319.594 128.598V124.097H321.272V122.818ZM330.067 131.16C331.558 131.16 332.144 130.249 332.432 129.727H332.565V131H334.12V120.091H332.528V124.145H332.432C332.144 123.638 331.601 122.712 330.077 122.712C328.101 122.712 326.647 124.272 326.647 126.925C326.647 129.572 328.08 131.16 330.067 131.16ZM330.418 129.801C328.996 129.801 328.256 128.55 328.256 126.909C328.256 125.284 328.98 124.065 330.418 124.065C331.808 124.065 332.554 125.199 332.554 126.909C332.554 128.63 331.792 129.801 330.418 129.801ZM336.393 131H337.986V126.004C337.986 124.933 338.812 124.161 339.941 124.161C340.271 124.161 340.644 124.219 340.772 124.256V122.733C340.612 122.712 340.298 122.696 340.095 122.696C339.137 122.696 338.316 123.239 338.018 124.118H337.933V122.818H336.393V131ZM345.304 131.165C347.61 131.165 349.118 129.477 349.118 126.946C349.118 124.4 347.61 122.712 345.304 122.712C342.997 122.712 341.49 124.4 341.49 126.946C341.49 129.477 342.997 131.165 345.304 131.165ZM345.309 129.828C343.802 129.828 343.098 128.512 343.098 126.941C343.098 125.375 343.802 124.043 345.309 124.043C346.806 124.043 347.509 125.375 347.509 126.941C347.509 128.512 346.806 129.828 345.309 129.828ZM350.895 134.068H352.488V129.727H352.584C352.872 130.249 353.458 131.16 354.949 131.16C356.931 131.16 358.369 129.572 358.369 126.925C358.369 124.272 356.909 122.712 354.933 122.712C353.415 122.712 352.866 123.638 352.584 124.145H352.451V122.818H350.895V134.068ZM352.456 126.909C352.456 125.199 353.202 124.065 354.592 124.065C356.036 124.065 356.76 125.284 356.76 126.909C356.76 128.55 356.014 129.801 354.592 129.801C353.223 129.801 352.456 128.63 352.456 126.909ZM363.216 131.16C364.708 131.16 365.293 130.249 365.581 129.727H365.714V131H367.27V120.091H365.677V124.145H365.581C365.293 123.638 364.75 122.712 363.227 122.712C361.25 122.712 359.796 124.272 359.796 126.925C359.796 129.572 361.229 131.16 363.216 131.16ZM363.568 129.801C362.145 129.801 361.405 128.55 361.405 126.909C361.405 125.284 362.129 124.065 363.568 124.065C364.958 124.065 365.704 125.199 365.704 126.909C365.704 128.63 364.942 129.801 363.568 129.801ZM372.989 131.165C375.296 131.165 376.803 129.477 376.803 126.946C376.803 124.4 375.296 122.712 372.989 122.712C370.683 122.712 369.175 124.4 369.175 126.946C369.175 129.477 370.683 131.165 372.989 131.165ZM372.995 129.828C371.487 129.828 370.784 128.512 370.784 126.941C370.784 125.375 371.487 124.043 372.995 124.043C374.491 124.043 375.194 125.375 375.194 126.941C375.194 128.512 374.491 129.828 372.995 129.828ZM380.106 131H381.725L383.387 125.093H383.509L385.171 131H386.796L389.198 122.818H387.552L385.96 128.8H385.88L384.282 122.818H382.636L381.027 128.827H380.947L379.344 122.818H377.698L380.106 131ZM392.303 126.142C392.303 124.837 393.102 124.091 394.209 124.091C395.291 124.091 395.946 124.8 395.946 125.988V131H397.539V125.796C397.539 123.772 396.425 122.712 394.753 122.712C393.522 122.712 392.718 123.282 392.34 124.15H392.239V122.818H390.71V131H392.303V126.142ZM403.644 131H405.237V125.956C405.237 124.853 406.009 124.086 406.915 124.086C407.799 124.086 408.412 124.672 408.412 125.561V131H409.999V125.785C409.999 124.8 410.601 124.086 411.64 124.086C412.481 124.086 413.174 124.555 413.174 125.663V131H414.767V125.513C414.767 123.644 413.723 122.712 412.242 122.712C411.064 122.712 410.18 123.276 409.786 124.15H409.701C409.344 123.255 408.593 122.712 407.501 122.712C406.42 122.712 405.615 123.25 405.274 124.15H405.173V122.818H403.644V131ZM420.428 131.165C422.212 131.165 423.474 130.286 423.837 128.955L422.329 128.683C422.042 129.455 421.349 129.849 420.443 129.849C419.08 129.849 418.164 128.965 418.121 127.388H423.938V126.824C423.938 123.868 422.169 122.712 420.316 122.712C418.036 122.712 416.534 124.448 416.534 126.962C416.534 129.503 418.015 131.165 420.428 131.165ZM418.126 126.195C418.19 125.034 419.032 124.027 420.326 124.027C421.562 124.027 422.372 124.944 422.377 126.195H418.126ZM427.298 126.142C427.298 124.837 428.097 124.091 429.205 124.091C430.286 124.091 430.941 124.8 430.941 125.988V131H432.534V125.796C432.534 123.772 431.42 122.712 429.748 122.712C428.517 122.712 427.713 123.282 427.335 124.15H427.234V122.818H425.705V131H427.298V126.142ZM439.853 127.607C439.858 128.997 438.825 129.658 437.93 129.658C436.944 129.658 436.262 128.944 436.262 127.831V122.818H434.67V128.022C434.67 130.052 435.783 131.107 437.354 131.107C438.585 131.107 439.421 130.457 439.799 129.583H439.885V131H441.451V122.818H439.853V127.607ZM445.179 120.091H443.816V121.13C443.816 121.955 443.454 122.632 443.038 123.244L443.826 123.809C444.647 123.148 445.179 122.019 445.179 121.114V120.091ZM447.891 120.091H446.527V121.13C446.527 121.955 446.165 122.632 445.749 123.244L446.538 123.809C447.358 123.148 447.891 122.019 447.891 121.114V120.091Z" fill="#64778C"/>
<circle cx="265" cy="12" r="8" fill="url(#paint12_linear_1659_16185)"/>
<path d="M285.452 17.1438C286.858 17.1438 287.492 16.3075 287.796 15.7109H287.913V17H289.809V6.09091H287.876V10.1712H287.796C287.503 9.5799 286.901 8.71165 285.457 8.71165C283.566 8.71165 282.08 10.1925 282.08 12.9197C282.08 15.6151 283.524 17.1438 285.452 17.1438ZM285.99 15.5618C284.717 15.5618 284.046 14.4432 284.046 12.9091C284.046 11.3857 284.706 10.2937 285.99 10.2937C287.231 10.2937 287.913 11.3217 287.913 12.9091C287.913 14.4964 287.22 15.5618 285.99 15.5618ZM297.529 13.5589C297.529 14.8054 296.639 15.4233 295.787 15.4233C294.86 15.4233 294.242 14.7681 294.242 13.7294V8.81818H292.314V14.0277C292.314 15.9933 293.433 17.1065 295.041 17.1065C296.266 17.1065 297.129 16.462 297.502 15.5458H297.587V17H299.457V8.81818H297.529V13.5589ZM305.512 17.1598C307.419 17.1598 308.729 16.2276 309.07 14.8054L307.27 14.603C307.009 15.2955 306.37 15.6577 305.539 15.6577C304.292 15.6577 303.467 14.8374 303.451 13.4364H309.15V12.8452C309.15 9.97408 307.424 8.71165 305.411 8.71165C303.067 8.71165 301.538 10.4322 301.538 12.957C301.538 15.5245 303.046 17.1598 305.512 17.1598ZM303.456 12.1367C303.515 11.0927 304.287 10.2138 305.437 10.2138C306.545 10.2138 307.291 11.0234 307.302 12.1367H303.456ZM315.013 17C318.337 17 320.308 14.9439 320.308 11.5348C320.308 8.13636 318.337 6.09091 315.088 6.09091H311.317V17H315.013ZM313.293 15.2901V7.80078H314.976C317.192 7.80078 318.348 9.03658 318.348 11.5348C318.348 14.0437 317.192 15.2901 314.918 15.2901H313.293ZM324.905 17.1651C326.189 17.1651 326.956 16.5632 327.307 15.8761H327.371V17H329.225V11.5241C329.225 9.36151 327.462 8.71165 325.901 8.71165C324.181 8.71165 322.86 9.47869 322.433 10.9702L324.234 11.2259C324.426 10.6665 324.969 10.1871 325.912 10.1871C326.807 10.1871 327.297 10.6452 327.297 11.4496V11.4815C327.297 12.0355 326.716 12.0621 325.273 12.2166C323.685 12.3871 322.167 12.8612 322.167 14.7042C322.167 16.3129 323.344 17.1651 324.905 17.1651ZM325.406 15.7482C324.601 15.7482 324.026 15.3807 324.026 14.6722C324.026 13.9318 324.671 13.6229 325.534 13.5004C326.04 13.4311 327.052 13.3033 327.302 13.1009V14.065C327.302 14.9759 326.567 15.7482 325.406 15.7482ZM335.699 8.81818H334.086V6.85795H332.157V8.81818H330.996V10.3097H332.157V14.8587C332.147 16.3981 333.265 17.1545 334.714 17.1119C335.263 17.0959 335.641 16.9893 335.849 16.9201L335.524 15.4126C335.417 15.4393 335.199 15.4872 334.959 15.4872C334.474 15.4872 334.086 15.3168 334.086 14.5391V10.3097H335.699V8.81818ZM341.296 17.1598C343.203 17.1598 344.514 16.2276 344.855 14.8054L343.054 14.603C342.793 15.2955 342.154 15.6577 341.323 15.6577C340.077 15.6577 339.251 14.8374 339.235 13.4364H344.935V12.8452C344.935 9.97408 343.209 8.71165 341.195 8.71165C338.851 8.71165 337.323 10.4322 337.323 12.957C337.323 15.5245 338.83 17.1598 341.296 17.1598ZM339.24 12.1367C339.299 11.0927 340.071 10.2138 341.222 10.2138C342.33 10.2138 343.076 11.0234 343.086 12.1367H339.24Z" fill="#6048E5"/>
<path d="M282.371 41H289.551V39.5884H284.64V39.5085L286.808 37.2393C288.805 35.2205 289.375 34.2564 289.375 33.0366C289.375 31.2841 287.948 29.9418 285.892 29.9418C283.851 29.9418 282.36 31.2628 282.36 33.255H283.931C283.926 32.0831 284.682 31.3161 285.86 31.3161C286.968 31.3161 287.809 31.9979 287.809 33.0845C287.809 34.0487 287.234 34.7411 286.062 35.9822L282.371 39.8068V41ZM295.368 41.1811C297.887 41.1811 299.363 39.125 299.363 35.5508C299.363 32.0032 297.866 29.9418 295.368 29.9418C292.864 29.9418 291.373 31.9979 291.367 35.5508C291.367 39.1197 292.843 41.1758 295.368 41.1811ZM295.368 39.7589C293.892 39.7589 293.003 38.2781 293.003 35.5508C293.008 32.8342 293.898 31.3374 295.368 31.3374C296.833 31.3374 297.728 32.8342 297.728 35.5508C297.728 38.2781 296.838 39.7589 295.368 39.7589ZM305.429 29.5795H304.006L300.491 42.6406H301.913L305.429 29.5795ZM310.899 30.0909H309.296L306.574 31.87V33.4467L309.184 31.7422H309.248V41H310.899V30.0909ZM317.989 30.0909H316.386L313.664 31.87V33.4467L316.274 31.7422H316.338V41H317.989V30.0909ZM325.116 29.5795H323.694L320.178 42.6406H321.6L325.116 29.5795ZM326.448 41H333.628V39.5884H328.717V39.5085L330.885 37.2393C332.882 35.2205 333.452 34.2564 333.452 33.0366C333.452 31.2841 332.025 29.9418 329.969 29.9418C327.929 29.9418 326.437 31.2628 326.437 33.255H328.009C328.003 32.0831 328.76 31.3161 329.937 31.3161C331.045 31.3161 331.886 31.9979 331.886 33.0845C331.886 34.0487 331.311 34.7411 330.139 35.9822L326.448 39.8068V41ZM339.445 41.1811C341.964 41.1811 343.44 39.125 343.44 35.5508C343.44 32.0032 341.943 29.9418 339.445 29.9418C336.941 29.9418 335.45 31.9979 335.445 35.5508C335.445 39.1197 336.92 41.1758 339.445 41.1811ZM339.445 39.7589C337.969 39.7589 337.08 38.2781 337.08 35.5508C337.085 32.8342 337.975 31.3374 339.445 31.3374C340.91 31.3374 341.805 32.8342 341.805 35.5508C341.805 38.2781 340.915 39.7589 339.445 39.7589ZM345.33 41H352.51V39.5884H347.599V39.5085L349.767 37.2393C351.764 35.2205 352.334 34.2564 352.334 33.0366C352.334 31.2841 350.907 29.9418 348.851 29.9418C346.81 29.9418 345.319 31.2628 345.319 33.255H346.89C346.885 32.0831 347.641 31.3161 348.819 31.3161C349.927 31.3161 350.768 31.9979 350.768 33.0845C350.768 34.0487 350.193 34.7411 349.021 35.9822L345.33 39.8068V41ZM354.529 41H361.709V39.5884H356.798V39.5085L358.966 37.2393C360.964 35.2205 361.533 34.2564 361.533 33.0366C361.533 31.2841 360.106 29.9418 358.05 29.9418C356.01 29.9418 354.518 31.2628 354.518 33.255H356.09C356.084 32.0831 356.841 31.3161 358.018 31.3161C359.126 31.3161 359.967 31.9979 359.967 33.0845C359.967 34.0487 359.392 34.7411 358.22 35.9822L354.529 39.8068V41Z" fill="#64778C"/>
<circle cx="412" cy="185" r="8" fill="url(#paint13_linear_1659_16185)"/>
<path d="M432.452 190.144C433.858 190.144 434.492 189.308 434.796 188.711H434.913V190H436.809V179.091H434.876V183.171H434.796C434.503 182.58 433.901 181.712 432.457 181.712C430.566 181.712 429.08 183.192 429.08 185.92C429.08 188.615 430.524 190.144 432.452 190.144ZM432.99 188.562C431.717 188.562 431.046 187.443 431.046 185.909C431.046 184.386 431.706 183.294 432.99 183.294C434.231 183.294 434.913 184.322 434.913 185.909C434.913 187.496 434.22 188.562 432.99 188.562ZM444.529 186.559C444.529 187.805 443.639 188.423 442.787 188.423C441.86 188.423 441.242 187.768 441.242 186.729V181.818H439.314V187.028C439.314 188.993 440.433 190.107 442.041 190.107C443.266 190.107 444.129 189.462 444.502 188.546H444.587V190H446.457V181.818H444.529V186.559ZM452.512 190.16C454.419 190.16 455.729 189.228 456.07 187.805L454.27 187.603C454.009 188.295 453.37 188.658 452.539 188.658C451.292 188.658 450.467 187.837 450.451 186.436H456.15V185.845C456.15 182.974 454.424 181.712 452.411 181.712C450.067 181.712 448.538 183.432 448.538 185.957C448.538 188.525 450.046 190.16 452.512 190.16ZM450.456 185.137C450.515 184.093 451.287 183.214 452.437 183.214C453.545 183.214 454.291 184.023 454.302 185.137H450.456ZM462.013 190C465.337 190 467.308 187.944 467.308 184.535C467.308 181.136 465.337 179.091 462.088 179.091H458.317V190H462.013ZM460.293 188.29V180.801H461.976C464.192 180.801 465.348 182.037 465.348 184.535C465.348 187.044 464.192 188.29 461.918 188.29H460.293ZM471.905 190.165C473.189 190.165 473.956 189.563 474.307 188.876H474.371V190H476.225V184.524C476.225 182.362 474.462 181.712 472.901 181.712C471.181 181.712 469.86 182.479 469.433 183.97L471.234 184.226C471.426 183.667 471.969 183.187 472.912 183.187C473.807 183.187 474.297 183.645 474.297 184.45V184.482C474.297 185.036 473.716 185.062 472.273 185.217C470.685 185.387 469.167 185.861 469.167 187.704C469.167 189.313 470.344 190.165 471.905 190.165ZM472.406 188.748C471.601 188.748 471.026 188.381 471.026 187.672C471.026 186.932 471.671 186.623 472.534 186.5C473.04 186.431 474.052 186.303 474.302 186.101V187.065C474.302 187.976 473.567 188.748 472.406 188.748ZM482.699 181.818H481.086V179.858H479.157V181.818H477.996V183.31H479.157V187.859C479.147 189.398 480.265 190.154 481.714 190.112C482.263 190.096 482.641 189.989 482.849 189.92L482.524 188.413C482.417 188.439 482.199 188.487 481.959 188.487C481.474 188.487 481.086 188.317 481.086 187.539V183.31H482.699V181.818ZM488.296 190.16C490.203 190.16 491.514 189.228 491.855 187.805L490.054 187.603C489.793 188.295 489.154 188.658 488.323 188.658C487.077 188.658 486.251 187.837 486.235 186.436H491.935V185.845C491.935 182.974 490.209 181.712 488.195 181.712C485.851 181.712 484.323 183.432 484.323 185.957C484.323 188.525 485.83 190.16 488.296 190.16ZM486.24 185.137C486.299 184.093 487.071 183.214 488.222 183.214C489.33 183.214 490.076 184.023 490.086 185.137H486.24Z" fill="#6048E5"/>
<path d="M433.562 203.091H431.959L429.237 204.87V206.447L431.847 204.742H431.911V214H433.562V203.091ZM436.881 214H438.601L443.347 204.55V203.091H436.135V204.502H441.643V204.582L436.881 214ZM449.376 202.58H447.954L444.438 215.641H445.86L449.376 202.58ZM454.846 203.091H453.243L450.521 204.87V206.447L453.131 204.742H453.195V214H454.846V203.091ZM461.936 203.091H460.333L457.611 204.87V206.447L460.221 204.742H460.285V214H461.936V203.091ZM469.063 202.58H467.641L464.126 215.641H465.548L469.063 202.58ZM470.395 214H477.575V212.588H472.664V212.509L474.832 210.239C476.83 208.221 477.4 207.256 477.4 206.037C477.4 204.284 475.972 202.942 473.916 202.942C471.876 202.942 470.384 204.263 470.384 206.255H471.956C471.95 205.083 472.707 204.316 473.884 204.316C474.992 204.316 475.834 204.998 475.834 206.085C475.834 207.049 475.258 207.741 474.086 208.982L470.395 212.807V214ZM483.392 214.181C485.912 214.181 487.387 212.125 487.387 208.551C487.387 205.003 485.89 202.942 483.392 202.942C480.889 202.942 479.397 204.998 479.392 208.551C479.392 212.12 480.867 214.176 483.392 214.181ZM483.392 212.759C481.917 212.759 481.027 211.278 481.027 208.551C481.032 205.834 481.922 204.337 483.392 204.337C484.857 204.337 485.752 205.834 485.752 208.551C485.752 211.278 484.862 212.759 483.392 212.759ZM489.277 214H496.457V212.588H491.546V212.509L493.714 210.239C495.712 208.221 496.282 207.256 496.282 206.037C496.282 204.284 494.854 202.942 492.798 202.942C490.758 202.942 489.266 204.263 489.266 206.255H490.838C490.832 205.083 491.589 204.316 492.766 204.316C493.874 204.316 494.715 204.998 494.715 206.085C494.715 207.049 494.14 207.741 492.968 208.982L489.277 212.807V214ZM498.476 214H505.657V212.588H500.745V212.509L502.913 210.239C504.911 208.221 505.481 207.256 505.481 206.037C505.481 204.284 504.053 202.942 501.997 202.942C499.957 202.942 498.465 204.263 498.465 206.255H500.037C500.032 205.083 500.788 204.316 501.965 204.316C503.073 204.316 503.915 204.998 503.915 206.085C503.915 207.049 503.339 207.741 502.168 208.982L498.476 212.807V214Z" fill="#64778C"/>
<circle cx="331" cy="262" r="8" fill="url(#paint14_linear_1659_16185)"/>
<path d="M350.34 256.091H348.411V267H350.34V256.091ZM352.773 267H354.701V258.818H352.773V267ZM353.742 257.657C354.355 257.657 354.855 257.188 354.855 256.613C354.855 256.032 354.355 255.564 353.742 255.564C353.124 255.564 352.623 256.032 352.623 256.613C352.623 257.188 353.124 257.657 353.742 257.657ZM363.6 260.981C363.334 259.596 362.226 258.712 360.308 258.712C358.337 258.712 356.995 259.681 357 261.194C356.995 262.387 357.73 263.175 359.302 263.5L360.697 263.793C361.448 263.958 361.8 264.262 361.8 264.725C361.8 265.285 361.193 265.706 360.276 265.706C359.392 265.706 358.817 265.322 358.652 264.587L356.771 264.768C357.011 266.27 358.274 267.16 360.282 267.16C362.327 267.16 363.771 266.1 363.776 264.55C363.771 263.383 363.02 262.669 361.475 262.334L360.079 262.036C359.248 261.849 358.918 261.561 358.923 261.087C358.918 260.533 359.531 260.15 360.335 260.15C361.225 260.15 361.693 260.635 361.842 261.173L363.6 260.981ZM369.902 258.818H368.288V256.858H366.359V258.818H365.198V260.31H366.359V264.859C366.349 266.398 367.467 267.154 368.916 267.112C369.465 267.096 369.843 266.989 370.051 266.92L369.726 265.413C369.619 265.439 369.401 265.487 369.161 265.487C368.676 265.487 368.288 265.317 368.288 264.539V260.31H369.902V258.818ZM374.202 256.091H372.225V267H374.202V256.091ZM380.792 258.818H379.178V256.858H377.25V258.818H376.088V260.31H377.25V264.859C377.239 266.398 378.358 267.154 379.806 267.112C380.355 267.096 380.733 266.989 380.941 266.92L380.616 265.413C380.51 265.439 380.291 265.487 380.051 265.487C379.567 265.487 379.178 265.317 379.178 264.539V260.31H380.792V258.818ZM386.389 267.16C388.296 267.16 389.606 266.228 389.947 264.805L388.147 264.603C387.886 265.295 387.246 265.658 386.415 265.658C385.169 265.658 384.343 264.837 384.327 263.436H390.027V262.845C390.027 259.974 388.301 258.712 386.288 258.712C383.944 258.712 382.415 260.432 382.415 262.957C382.415 265.525 383.923 267.16 386.389 267.16ZM384.333 262.137C384.391 261.093 385.164 260.214 386.314 260.214C387.422 260.214 388.168 261.023 388.179 262.137H384.333ZM392.108 267H394.037V262.025C394.037 261.018 394.708 260.336 395.539 260.336C396.354 260.336 396.913 260.885 396.913 261.727V267H398.804V261.897C398.804 260.975 399.353 260.336 400.285 260.336C401.062 260.336 401.68 260.794 401.68 261.806V267H403.614V261.508C403.614 259.681 402.559 258.712 401.057 258.712C399.869 258.712 398.964 259.298 398.602 260.208H398.516C398.202 259.282 397.408 258.712 396.306 258.712C395.208 258.712 394.388 259.276 394.047 260.208H393.951V258.818H392.108V267Z" fill="#6048E5"/>
<path d="M347.969 283.5H349.332V282.461C349.332 281.657 349.684 280.98 350.115 280.347L349.327 279.782C348.512 280.437 347.969 281.572 347.969 282.477V283.5ZM350.685 283.5H352.049V282.461C352.049 281.657 352.401 280.98 352.832 280.347L352.044 279.782C351.229 280.437 350.685 281.572 350.685 282.477V283.5ZM356.465 291H358.127L360.423 282.829H360.508L362.804 291H364.46L367.491 280.091H365.755L363.635 288.544H363.533L361.323 280.091H359.608L357.397 288.539H357.296L355.17 280.091H353.439L356.465 291ZM368.351 291H369.944V286.004C369.944 284.933 370.77 284.161 371.899 284.161C372.229 284.161 372.602 284.219 372.73 284.256V282.733C372.57 282.712 372.256 282.696 372.053 282.696C371.095 282.696 370.274 283.239 369.976 284.118H369.891V282.818H368.351V291ZM374.108 291H375.701V282.818H374.108V291ZM374.913 281.556C375.461 281.556 375.919 281.13 375.919 280.608C375.919 280.086 375.461 279.654 374.913 279.654C374.359 279.654 373.906 280.086 373.906 280.608C373.906 281.13 374.359 281.556 374.913 281.556ZM381.663 282.818H379.985V280.858H378.392V282.818H377.194V284.097H378.392V288.928C378.387 290.414 379.522 291.133 380.779 291.107C381.285 291.101 381.626 291.005 381.812 290.936L381.524 289.62C381.418 289.642 381.221 289.69 380.965 289.69C380.448 289.69 379.985 289.519 379.985 288.598V284.097H381.663V282.818ZM386.863 291.165C388.648 291.165 389.91 290.286 390.272 288.955L388.765 288.683C388.477 289.455 387.785 289.849 386.879 289.849C385.515 289.849 384.599 288.965 384.557 287.388H390.373V286.824C390.373 283.868 388.605 282.712 386.751 282.712C384.471 282.712 382.969 284.448 382.969 286.962C382.969 289.503 384.45 291.165 386.863 291.165ZM384.562 286.195C384.626 285.034 385.467 284.027 386.762 284.027C387.998 284.027 388.807 284.944 388.813 286.195H384.562ZM399.929 282.818H398.252V280.858H396.659V282.818H395.46V284.097H396.659V288.928C396.654 290.414 397.788 291.133 399.045 291.107C399.551 291.101 399.892 291.005 400.079 290.936L399.791 289.62C399.684 289.642 399.487 289.69 399.232 289.69C398.715 289.69 398.252 289.519 398.252 288.598V284.097H399.929V282.818ZM405.13 291.165C406.914 291.165 408.177 290.286 408.539 288.955L407.031 288.683C406.744 289.455 406.051 289.849 405.146 289.849C403.782 289.849 402.866 288.965 402.823 287.388H408.64V286.824C408.64 283.868 406.871 282.712 405.018 282.712C402.738 282.712 401.236 284.448 401.236 286.962C401.236 289.503 402.717 291.165 405.13 291.165ZM402.829 286.195C402.892 285.034 403.734 284.027 405.028 284.027C406.264 284.027 407.074 284.944 407.079 286.195H402.829ZM416.538 284.816C416.208 283.543 415.212 282.712 413.443 282.712C411.595 282.712 410.285 283.686 410.285 285.135C410.285 286.297 410.988 287.069 412.522 287.41L413.907 287.713C414.695 287.889 415.063 288.241 415.063 288.752C415.063 289.386 414.386 289.881 413.342 289.881C412.389 289.881 411.776 289.471 411.584 288.667L410.045 288.901C410.311 290.35 411.515 291.165 413.353 291.165C415.329 291.165 416.698 290.116 416.698 288.635C416.698 287.479 415.963 286.765 414.461 286.419L413.161 286.121C412.261 285.908 411.872 285.604 411.877 285.05C411.872 284.422 412.554 283.974 413.459 283.974C414.45 283.974 414.908 284.523 415.095 285.071L416.538 284.816ZM422.268 282.818H420.59V280.858H418.998V282.818H417.799V284.097H418.998V288.928C418.992 290.414 420.127 291.133 421.384 291.107C421.89 291.101 422.231 291.005 422.417 290.936L422.13 289.62C422.023 289.642 421.826 289.69 421.571 289.69C421.054 289.69 420.59 289.519 420.59 288.598V284.097H422.268V282.818ZM430.029 284.816C429.699 283.543 428.703 282.712 426.935 282.712C425.086 282.712 423.776 283.686 423.776 285.135C423.776 286.297 424.479 287.069 426.013 287.41L427.398 287.713C428.186 287.889 428.554 288.241 428.554 288.752C428.554 289.386 427.877 289.881 426.833 289.881C425.88 289.881 425.267 289.471 425.076 288.667L423.536 288.901C423.802 290.35 425.006 291.165 426.844 291.165C428.82 291.165 430.189 290.116 430.189 288.635C430.189 287.479 429.454 286.765 427.952 286.419L426.652 286.121C425.752 285.908 425.363 285.604 425.368 285.05C425.363 284.422 426.045 283.974 426.951 283.974C427.941 283.974 428.399 284.523 428.586 285.071L430.029 284.816ZM433.309 280.091H431.946V281.13C431.946 281.955 431.583 282.632 431.168 283.244L431.956 283.809C432.777 283.148 433.309 282.019 433.309 281.114V280.091ZM436.021 280.091H434.657V281.13C434.657 281.955 434.295 282.632 433.879 283.244L434.668 283.809C435.488 283.148 436.021 282.019 436.021 281.114V280.091Z" fill="#64778C"/>
<circle opacity="0.1" cx="221" cy="314" r="69.5" stroke="#6048E5"/>
<circle opacity="0.1" cx="221" cy="314" r="18.5" stroke="#6048E5"/>
<circle opacity="0.3" cx="221" cy="314" r="15" stroke="#6048E5" stroke-width="2"/>
<circle cx="221" cy="314" r="9" fill="url(#paint15_linear_1659_16185)"/>
<path d="M190.453 350H192.429V346.314H194.517C197.037 346.314 198.39 344.801 198.39 342.702C198.39 340.62 197.053 339.091 194.544 339.091H190.453V350ZM192.429 344.689V340.742H194.24C195.721 340.742 196.376 341.541 196.376 342.702C196.376 343.864 195.721 344.689 194.251 344.689H192.429ZM200.556 350H207.694V348.343H202.532V345.366H207.284V343.709H202.532V340.748H207.651V339.091H200.556V350ZM210.118 350H212.094V346.005H214.107L216.249 350H218.454L216.094 345.675C217.378 345.158 218.054 344.061 218.054 342.58C218.054 340.497 216.712 339.091 214.209 339.091H210.118V350ZM212.094 344.364V340.742H213.905C215.38 340.742 216.041 341.419 216.041 342.58C216.041 343.741 215.38 344.364 213.916 344.364H212.094ZM226.252 342.09H228.154C228.116 340.247 226.545 338.942 224.223 338.942C221.932 338.942 220.212 340.231 220.217 342.159C220.217 343.725 221.33 344.625 223.125 345.089L224.366 345.408C225.544 345.707 226.321 346.074 226.327 346.921C226.321 347.853 225.437 348.477 224.148 348.477C222.912 348.477 221.953 347.923 221.874 346.777H219.929C220.009 348.945 221.623 350.165 224.164 350.165C226.779 350.165 228.298 348.86 228.303 346.937C228.298 345.046 226.737 344.183 225.096 343.794L224.073 343.539C223.179 343.326 222.209 342.947 222.22 342.037C222.225 341.216 222.96 340.614 224.196 340.614C225.373 340.614 226.151 341.163 226.252 342.09ZM240.263 344.545C240.263 341.019 238.111 338.942 235.25 338.942C232.384 338.942 230.238 341.019 230.238 344.545C230.238 348.066 232.384 350.149 235.25 350.149C238.111 350.149 240.263 348.072 240.263 344.545ZM238.276 344.545C238.276 347.028 237.029 348.375 235.25 348.375C233.476 348.375 232.225 347.028 232.225 344.545C232.225 342.063 233.476 340.716 235.25 340.716C237.029 340.716 238.276 342.063 238.276 344.545ZM251.546 339.091H249.58V346.527H249.484L244.349 339.091H242.581V350H244.557V342.569H244.648L249.788 350H251.546V339.091Z" fill="#6048E5"/>
<defs>
<linearGradient id="paint0_linear_1659_16185" x1="127" y1="289" x2="127" y2="305" gradientUnits="userSpaceOnUse">
<stop stop-color="#7963F5"/>
<stop offset="1" stop-color="#5D46DB"/>
</linearGradient>
<linearGradient id="paint1_linear_1659_16185" x1="232" y1="303.001" x2="300.118" y2="300" gradientUnits="userSpaceOnUse">
<stop stop-color="#BDB4FE"/>
<stop offset="1" stop-color="#BDB4FE" stop-opacity="0"/>
</linearGradient>
<linearGradient id="paint2_linear_1659_16185" x1="230" y1="194.001" x2="269.278" y2="193.176" gradientUnits="userSpaceOnUse">
<stop stop-color="#BDB4FE"/>
<stop offset="1" stop-color="#BDB4FE" stop-opacity="0"/>
</linearGradient>
<linearGradient id="paint3_linear_1659_16185" x1="240" y1="208" x2="402.62" y2="239.07" gradientUnits="userSpaceOnUse">
<stop stop-color="#BDB4FE" stop-opacity="0"/>
<stop offset="1" stop-color="#BDB4FE"/>
</linearGradient>
<linearGradient id="paint4_linear_1659_16185" x1="85.5096" y1="51.5099" x2="253.274" y2="5.3986" gradientUnits="userSpaceOnUse">
<stop stop-color="#BDB4FE" stop-opacity="0"/>
<stop offset="1" stop-color="#BDB4FE"/>
</linearGradient>
<linearGradient id="paint5_linear_1659_16185" x1="226.245" y1="235.529" x2="409.318" y2="197.307" gradientUnits="userSpaceOnUse">
<stop stop-color="#BDB4FE" stop-opacity="0"/>
<stop offset="1" stop-color="#BDB4FE"/>
</linearGradient>
<linearGradient id="paint6_linear_1659_16185" x1="202" y1="314" x2="80.7576" y2="228.365" gradientUnits="userSpaceOnUse">
<stop stop-color="#BDB4FE"/>
<stop offset="1" stop-color="#BDB4FE" stop-opacity="0"/>
</linearGradient>
<linearGradient id="paint7_linear_1659_16185" x1="209" y1="303.001" x2="87.3008" y2="296.727" gradientUnits="userSpaceOnUse">
<stop stop-color="#BDB4FE"/>
<stop offset="1" stop-color="#BDB4FE" stop-opacity="0"/>
</linearGradient>
<linearGradient id="paint8_linear_1659_16185" x1="147" y1="205" x2="147" y2="221" gradientUnits="userSpaceOnUse">
<stop stop-color="#7963F5"/>
<stop offset="1" stop-color="#5D46DB"/>
</linearGradient>
<linearGradient id="paint9_linear_1659_16185" x1="234" y1="195" x2="234" y2="211" gradientUnits="userSpaceOnUse">
<stop stop-color="#7963F5"/>
<stop offset="1" stop-color="#5D46DB"/>
</linearGradient>
<linearGradient id="paint10_linear_1659_16185" x1="220" y1="357" x2="249.082" y2="368.038" gradientUnits="userSpaceOnUse">
<stop stop-color="#BDB4FE"/>
<stop offset="1" stop-color="#BDB4FE" stop-opacity="0"/>
</linearGradient>
<linearGradient id="paint11_linear_1659_16185" x1="224" y1="94" x2="224" y2="110" gradientUnits="userSpaceOnUse">
<stop stop-color="#7963F5"/>
<stop offset="1" stop-color="#5D46DB"/>
</linearGradient>
<linearGradient id="paint12_linear_1659_16185" x1="265" y1="4" x2="265" y2="20" gradientUnits="userSpaceOnUse">
<stop stop-color="#7963F5"/>
<stop offset="1" stop-color="#5D46DB"/>
</linearGradient>
<linearGradient id="paint13_linear_1659_16185" x1="412" y1="177" x2="412" y2="193" gradientUnits="userSpaceOnUse">
<stop stop-color="#7963F5"/>
<stop offset="1" stop-color="#5D46DB"/>
</linearGradient>
<linearGradient id="paint14_linear_1659_16185" x1="331" y1="254" x2="331" y2="270" gradientUnits="userSpaceOnUse">
<stop stop-color="#7963F5"/>
<stop offset="1" stop-color="#5D46DB"/>
</linearGradient>
<linearGradient id="paint15_linear_1659_16185" x1="221" y1="305" x2="221" y2="323" gradientUnits="userSpaceOnUse">
<stop stop-color="#7963F5"/>
<stop offset="1" stop-color="#5D46DB"/>
</linearGradient>
</defs>
</svg>
