<svg width="1437" height="398" viewBox="0 0 1437 398" fill="none" xmlns="http://www.w3.org/2000/svg">
<circle cx="1253" cy="309" r="7" stroke="#C5D1DB" stroke-width="2"/>
<path d="M1273.82 314.16C1275.73 314.16 1277.04 313.228 1277.38 311.805L1275.58 311.603C1275.32 312.295 1274.68 312.658 1273.85 312.658C1272.6 312.658 1271.77 311.837 1271.76 310.436H1277.46V309.845C1277.46 306.974 1275.73 305.712 1273.72 305.712C1271.37 305.712 1269.84 307.432 1269.84 309.957C1269.84 312.525 1271.35 314.16 1273.82 314.16ZM1271.76 309.137C1271.82 308.093 1272.59 307.214 1273.74 307.214C1274.85 307.214 1275.6 308.023 1275.61 309.137H1271.76ZM1279.54 314H1281.47V309.025C1281.47 308.018 1282.14 307.336 1282.97 307.336C1283.78 307.336 1284.34 307.885 1284.34 308.727V314H1286.23V308.897C1286.23 307.975 1286.78 307.336 1287.71 307.336C1288.49 307.336 1289.11 307.794 1289.11 308.806V314H1291.04V308.508C1291.04 306.681 1289.99 305.712 1288.49 305.712C1287.3 305.712 1286.39 306.298 1286.03 307.208H1285.95C1285.63 306.282 1284.84 305.712 1283.74 305.712C1282.64 305.712 1281.82 306.276 1281.48 307.208H1281.38V305.818H1279.54V314ZM1295.8 314.165C1297.09 314.165 1297.85 313.563 1298.21 312.876H1298.27V314H1300.12V308.524C1300.12 306.362 1298.36 305.712 1296.8 305.712C1295.08 305.712 1293.76 306.479 1293.33 307.97L1295.13 308.226C1295.32 307.667 1295.87 307.187 1296.81 307.187C1297.71 307.187 1298.2 307.645 1298.2 308.45V308.482C1298.2 309.036 1297.62 309.062 1296.17 309.217C1294.58 309.387 1293.07 309.861 1293.07 311.704C1293.07 313.313 1294.24 314.165 1295.8 314.165ZM1296.3 312.748C1295.5 312.748 1294.93 312.381 1294.93 311.672C1294.93 310.932 1295.57 310.623 1296.43 310.5C1296.94 310.431 1297.95 310.303 1298.2 310.101V311.065C1298.2 311.976 1297.47 312.748 1296.3 312.748ZM1302.51 314H1304.44V305.818H1302.51V314ZM1303.48 304.657C1304.1 304.657 1304.6 304.188 1304.6 303.613C1304.6 303.032 1304.1 302.564 1303.48 302.564C1302.86 302.564 1302.36 303.032 1302.36 303.613C1302.36 304.188 1302.86 304.657 1303.48 304.657ZM1308.8 303.091H1306.87V314H1308.8V303.091Z" fill="#C5D1DB"/>
<path d="M1270.35 334H1271.83V329.292C1271.83 328.263 1272.55 327.547 1273.4 327.547C1274.22 327.547 1274.8 328.094 1274.8 328.924V334H1276.28V329.133C1276.28 328.213 1276.84 327.547 1277.81 327.547C1278.59 327.547 1279.24 327.984 1279.24 329.018V334H1280.73V328.879C1280.73 327.134 1279.75 326.264 1278.37 326.264C1277.27 326.264 1276.45 326.791 1276.08 327.607H1276C1275.67 326.771 1274.97 326.264 1273.95 326.264C1272.94 326.264 1272.19 326.766 1271.87 327.607H1271.77V326.364H1270.35V334ZM1284.94 334.169C1286.21 334.169 1286.92 333.528 1287.2 332.956H1287.26V334H1288.71V328.929C1288.71 326.707 1286.96 326.264 1285.75 326.264C1284.37 326.264 1283.09 326.821 1282.6 328.213L1283.99 328.531C1284.21 327.989 1284.77 327.467 1285.77 327.467C1286.73 327.467 1287.22 327.969 1287.22 328.835V328.869C1287.22 329.411 1286.66 329.401 1285.29 329.56C1283.84 329.729 1282.36 330.107 1282.36 331.842C1282.36 333.344 1283.49 334.169 1284.94 334.169ZM1285.27 332.976C1284.43 332.976 1283.82 332.598 1283.82 331.862C1283.82 331.067 1284.52 330.783 1285.38 330.669C1285.87 330.604 1287.01 330.475 1287.22 330.261V331.246C1287.22 332.151 1286.5 332.976 1285.27 332.976ZM1292.18 329.466C1292.18 328.248 1292.95 327.552 1294.01 327.552C1295.03 327.552 1295.64 328.203 1295.64 329.322V334H1297.13V329.143C1297.13 327.239 1296.08 326.264 1294.51 326.264C1293.33 326.264 1292.61 326.781 1292.25 327.607H1292.16V323.818H1290.69V334H1292.18V329.466ZM1301.33 334.169C1302.6 334.169 1303.31 333.528 1303.59 332.956H1303.65V334H1305.1V328.929C1305.1 326.707 1303.35 326.264 1302.14 326.264C1300.76 326.264 1299.49 326.821 1298.99 328.213L1300.39 328.531C1300.6 327.989 1301.16 327.467 1302.16 327.467C1303.12 327.467 1303.61 327.969 1303.61 328.835V328.869C1303.61 329.411 1303.06 329.401 1301.68 329.56C1300.24 329.729 1298.75 330.107 1298.75 331.842C1298.75 333.344 1299.88 334.169 1301.33 334.169ZM1301.66 332.976C1300.82 332.976 1300.21 332.598 1300.21 331.862C1300.21 331.067 1300.92 330.783 1301.78 330.669C1302.26 330.604 1303.4 330.475 1303.62 330.261V331.246C1303.62 332.151 1302.9 332.976 1301.66 332.976ZM1308.57 329.466C1308.57 328.248 1309.32 327.552 1310.35 327.552C1311.36 327.552 1311.97 328.213 1311.97 329.322V334H1313.46V329.143C1313.46 327.254 1312.42 326.264 1310.86 326.264C1309.71 326.264 1308.96 326.796 1308.6 327.607H1308.51V326.364H1307.08V334H1308.57V329.466ZM1315.45 334H1316.94V326.364H1315.45V334ZM1316.2 325.185C1316.71 325.185 1317.14 324.788 1317.14 324.3C1317.14 323.813 1316.71 323.411 1316.2 323.411C1315.68 323.411 1315.26 323.813 1315.26 324.3C1315.26 324.788 1315.68 325.185 1316.2 325.185ZM1325.07 336.769C1326.22 336.769 1327.54 336.456 1328.16 336.168L1327.81 335.079C1327.39 335.228 1326.25 335.591 1325.13 335.591C1321.79 335.591 1319.99 333.746 1319.99 330.445C1319.99 327.283 1321.77 325.24 1324.95 325.24C1327.86 325.24 1329.59 327.109 1329.59 329.635C1329.59 331.793 1329.31 332.762 1328.41 332.762C1327.9 332.762 1327.61 332.344 1327.61 331.822V327.209H1326.39V327.766H1326.32C1326.18 327.328 1325.31 326.935 1324.27 327.06C1322.83 327.229 1321.6 328.417 1321.6 330.376C1321.6 332.419 1322.65 333.786 1324.32 333.851C1325.45 333.901 1326.19 333.374 1326.42 332.787H1326.48C1326.6 333.587 1327.47 333.94 1328.32 333.911C1330.44 333.871 1330.84 331.783 1330.84 329.685C1330.84 326.692 1328.8 324.087 1325 324.087C1321.01 324.087 1318.67 326.518 1318.67 330.435C1318.67 334.467 1320.96 336.769 1325.07 336.769ZM1324.61 332.633C1323.31 332.633 1322.86 331.519 1322.86 330.316C1322.86 329.173 1323.51 328.263 1324.63 328.263C1325.85 328.263 1326.39 328.8 1326.4 330.311C1326.4 331.862 1325.9 332.633 1324.61 332.633ZM1332.49 334H1333.97V326.364H1332.49V334ZM1333.24 325.185C1333.75 325.185 1334.18 324.788 1334.18 324.3C1334.18 323.813 1333.75 323.411 1333.24 323.411C1332.72 323.411 1332.3 323.813 1332.3 324.3C1332.3 324.788 1332.72 325.185 1333.24 325.185ZM1337.46 329.466C1337.46 328.248 1338.2 327.552 1339.24 327.552C1340.25 327.552 1340.86 328.213 1340.86 329.322V334H1342.35V329.143C1342.35 327.254 1341.31 326.264 1339.75 326.264C1338.6 326.264 1337.85 326.796 1337.49 327.607H1337.4V326.364H1335.97V334H1337.46V329.466ZM1344.46 334H1345.91V332.812H1346.03C1346.3 333.299 1346.85 334.149 1348.24 334.149C1350.09 334.149 1351.43 332.668 1351.43 330.197C1351.43 327.721 1350.07 326.264 1348.23 326.264C1346.81 326.264 1346.3 327.129 1346.03 327.602H1345.94V323.818H1344.46V334ZM1345.92 330.182C1345.92 328.586 1346.61 327.527 1347.91 327.527C1349.26 327.527 1349.93 328.665 1349.93 330.182C1349.93 331.713 1349.24 332.881 1347.91 332.881C1346.63 332.881 1345.92 331.788 1345.92 330.182ZM1356.32 334.154C1358.47 334.154 1359.88 332.578 1359.88 330.217C1359.88 327.84 1358.47 326.264 1356.32 326.264C1354.17 326.264 1352.76 327.84 1352.76 330.217C1352.76 332.578 1354.17 334.154 1356.32 334.154ZM1356.32 332.906C1354.92 332.906 1354.26 331.678 1354.26 330.212C1354.26 328.75 1354.92 327.507 1356.32 327.507C1357.72 327.507 1358.38 328.75 1358.38 330.212C1358.38 331.678 1357.72 332.906 1356.32 332.906ZM1362.4 326.364H1360.77L1363.11 330.182L1360.74 334H1362.37L1364.08 331.146L1365.8 334H1367.43L1365.03 330.182L1367.41 326.364H1365.78L1364.08 329.337L1362.4 326.364ZM1369.91 334.094C1370.46 334.094 1370.91 333.652 1370.91 333.1C1370.91 332.558 1370.46 332.111 1369.91 332.111C1369.37 332.111 1368.92 332.558 1368.92 333.1C1368.92 333.652 1369.37 334.094 1369.91 334.094ZM1376.12 334.154C1377.92 334.154 1379.09 333.07 1379.25 331.584H1377.81C1377.62 332.409 1376.98 332.896 1376.13 332.896C1374.87 332.896 1374.06 331.847 1374.06 330.182C1374.06 328.546 1374.88 327.517 1376.13 327.517C1377.07 327.517 1377.65 328.114 1377.81 328.83H1379.25C1379.09 327.288 1377.84 326.264 1376.1 326.264C1373.95 326.264 1372.56 327.885 1372.56 330.217C1372.56 332.518 1373.9 334.154 1376.12 334.154ZM1384.06 334.154C1386.21 334.154 1387.62 332.578 1387.62 330.217C1387.62 327.84 1386.21 326.264 1384.06 326.264C1381.91 326.264 1380.5 327.84 1380.5 330.217C1380.5 332.578 1381.91 334.154 1384.06 334.154ZM1384.06 332.906C1382.66 332.906 1382 331.678 1382 330.212C1382 328.75 1382.66 327.507 1384.06 327.507C1385.46 327.507 1386.12 328.75 1386.12 330.212C1386.12 331.678 1385.46 332.906 1384.06 332.906ZM1389.28 334H1390.77V329.292C1390.77 328.263 1391.49 327.547 1392.33 327.547C1393.16 327.547 1393.73 328.094 1393.73 328.924V334H1395.21V329.133C1395.21 328.213 1395.77 327.547 1396.74 327.547C1397.53 327.547 1398.17 327.984 1398.17 329.018V334H1399.66V328.879C1399.66 327.134 1398.68 326.264 1397.3 326.264C1396.2 326.264 1395.38 326.791 1395.01 327.607H1394.93C1394.6 326.771 1393.9 326.264 1392.88 326.264C1391.87 326.264 1391.12 326.766 1390.8 327.607H1390.71V326.364H1389.28V334Z" fill="#C5D1DB"/>
<a href="mailto:mahani@inbox.com">
<rect fill="black" fill-opacity="0" x="0.347656" y="-0.971591" width="131.301" height="16.9432"/>
</a>
<path d="M115.986 290.091H114.058V301H115.986V290.091ZM120.773 301.165C122.057 301.165 122.824 300.563 123.176 299.876H123.24V301H125.093V295.524C125.093 293.362 123.33 292.712 121.769 292.712C120.049 292.712 118.728 293.479 118.302 294.97L120.102 295.226C120.294 294.667 120.837 294.187 121.78 294.187C122.675 294.187 123.165 294.645 123.165 295.45V295.482C123.165 296.036 122.584 296.062 121.141 296.217C119.554 296.387 118.035 296.861 118.035 298.704C118.035 300.313 119.213 301.165 120.773 301.165ZM121.274 299.748C120.47 299.748 119.894 299.381 119.894 298.672C119.894 297.932 120.539 297.623 121.402 297.5C121.908 297.431 122.92 297.303 123.17 297.101V298.065C123.17 298.976 122.435 299.748 121.274 299.748ZM133.949 294.981C133.683 293.596 132.575 292.712 130.657 292.712C128.686 292.712 127.344 293.681 127.349 295.194C127.344 296.387 128.079 297.175 129.65 297.5L131.046 297.793C131.797 297.958 132.148 298.262 132.148 298.725C132.148 299.285 131.541 299.706 130.625 299.706C129.741 299.706 129.166 299.322 129 298.587L127.12 298.768C127.36 300.27 128.622 301.16 130.63 301.16C132.676 301.16 134.119 300.1 134.125 298.55C134.119 297.383 133.368 296.669 131.824 296.334L130.428 296.036C129.597 295.849 129.267 295.561 129.272 295.087C129.267 294.533 129.879 294.15 130.684 294.15C131.573 294.15 132.042 294.635 132.191 295.173L133.949 294.981ZM140.25 292.818H138.636V290.858H136.708V292.818H135.547V294.31H136.708V298.859C136.697 300.398 137.816 301.154 139.265 301.112C139.813 301.096 140.192 300.989 140.399 300.92L140.074 299.413C139.968 299.439 139.75 299.487 139.51 299.487C139.025 299.487 138.636 299.317 138.636 298.539V294.31H140.25V292.818ZM151.539 290.091H149.573V297.527H149.477L144.342 290.091H142.574V301H144.55V293.569H144.641L149.781 301H151.539V290.091ZM156.411 301.165C157.695 301.165 158.462 300.563 158.814 299.876H158.878V301H160.731V295.524C160.731 293.362 158.968 292.712 157.407 292.712C155.687 292.712 154.366 293.479 153.94 294.97L155.74 295.226C155.932 294.667 156.475 294.187 157.418 294.187C158.313 294.187 158.803 294.645 158.803 295.45V295.482C158.803 296.036 158.222 296.062 156.779 296.217C155.191 296.387 153.673 296.861 153.673 298.704C153.673 300.313 154.851 301.165 156.411 301.165ZM156.912 299.748C156.108 299.748 155.532 299.381 155.532 298.672C155.532 297.932 156.177 297.623 157.04 297.5C157.546 297.431 158.558 297.303 158.808 297.101V298.065C158.808 298.976 158.073 299.748 156.912 299.748ZM163.12 301H165.048V296.025C165.048 295.018 165.72 294.336 166.551 294.336C167.366 294.336 167.925 294.885 167.925 295.727V301H169.816V295.897C169.816 294.975 170.364 294.336 171.297 294.336C172.074 294.336 172.692 294.794 172.692 295.806V301H174.626V295.508C174.626 293.681 173.571 292.712 172.069 292.712C170.881 292.712 169.976 293.298 169.613 294.208H169.528C169.214 293.282 168.42 292.712 167.318 292.712C166.22 292.712 165.4 293.276 165.059 294.208H164.963V292.818H163.12V301ZM180.654 301.16C182.561 301.16 183.872 300.228 184.212 298.805L182.412 298.603C182.151 299.295 181.512 299.658 180.681 299.658C179.434 299.658 178.609 298.837 178.593 297.436H184.292V296.845C184.292 293.974 182.567 292.712 180.553 292.712C178.209 292.712 176.681 294.432 176.681 296.957C176.681 299.525 178.188 301.16 180.654 301.16ZM178.598 296.137C178.657 295.093 179.429 294.214 180.58 294.214C181.688 294.214 182.433 295.023 182.444 296.137H178.598Z" fill="#C5D1DB"/>
<path d="M114.566 314.091V325H116.132V317.1H116.233L119.45 324.984H120.75L123.967 317.106H124.069V325H125.635V314.091H123.637L120.164 322.571H120.036L116.563 314.091H114.566ZM130.281 325.181C131.634 325.181 132.396 324.494 132.699 323.881H132.763V325H134.318V319.567C134.318 317.186 132.443 316.712 131.144 316.712C129.663 316.712 128.299 317.308 127.767 318.8L129.263 319.141C129.498 318.56 130.094 318.001 131.165 318.001C132.193 318.001 132.72 318.539 132.72 319.466V319.503C132.72 320.083 132.124 320.073 130.654 320.243C129.104 320.424 127.516 320.829 127.516 322.688C127.516 324.297 128.725 325.181 130.281 325.181ZM130.627 323.903C129.727 323.903 129.077 323.498 129.077 322.71C129.077 321.857 129.833 321.554 130.755 321.431C131.272 321.362 132.497 321.223 132.726 320.994V322.049C132.726 323.018 131.953 323.903 130.627 323.903ZM138.032 320.142C138.032 318.837 138.858 318.091 139.993 318.091C141.09 318.091 141.745 318.789 141.745 319.988V325H143.338V319.796C143.338 317.756 142.219 316.712 140.536 316.712C139.263 316.712 138.496 317.266 138.112 318.15H138.011V314.091H136.44V325H138.032V320.142ZM147.844 325.181C149.197 325.181 149.959 324.494 150.263 323.881H150.327V325H151.882V319.567C151.882 317.186 150.007 316.712 148.707 316.712C147.226 316.712 145.863 317.308 145.33 318.8L146.827 319.141C147.061 318.56 147.658 318.001 148.729 318.001C149.757 318.001 150.284 318.539 150.284 319.466V319.503C150.284 320.083 149.687 320.073 148.217 320.243C146.667 320.424 145.08 320.829 145.08 322.688C145.08 324.297 146.289 325.181 147.844 325.181ZM148.191 323.903C147.29 323.903 146.64 323.498 146.64 322.71C146.64 321.857 147.397 321.554 148.318 321.431C148.835 321.362 150.06 321.223 150.289 320.994V322.049C150.289 323.018 149.517 323.903 148.191 323.903ZM155.596 320.142C155.596 318.837 156.395 318.091 157.503 318.091C158.584 318.091 159.239 318.8 159.239 319.988V325H160.832V319.796C160.832 317.772 159.719 316.712 158.046 316.712C156.816 316.712 156.011 317.282 155.633 318.15H155.532V316.818H154.003V325H155.596V320.142ZM162.968 325H164.561V316.818H162.968V325ZM163.772 315.556C164.321 315.556 164.779 315.13 164.779 314.608C164.779 314.086 164.321 313.654 163.772 313.654C163.218 313.654 162.766 314.086 162.766 314.608C162.766 315.13 163.218 315.556 163.772 315.556Z" fill="#C5D1DB"/>
<circle cx="201" cy="296" r="7" stroke="#C5D1DB" stroke-width="2"/>
<circle cx="176" cy="119" r="7" stroke="#C5D1DB" stroke-width="2"/>
<path d="M193.046 127.068H194.974V122.711H195.054C195.358 123.308 195.992 124.144 197.398 124.144C199.326 124.144 200.77 122.615 200.77 119.92C200.77 117.192 199.284 115.712 197.393 115.712C195.949 115.712 195.347 116.58 195.054 117.171H194.942V115.818H193.046V127.068ZM194.937 119.909C194.937 118.322 195.619 117.294 196.86 117.294C198.144 117.294 198.804 118.386 198.804 119.909C198.804 121.443 198.133 122.562 196.86 122.562C195.63 122.562 194.937 121.496 194.937 119.909ZM202.871 124H204.799V119.19C204.799 118.151 205.582 117.416 206.642 117.416C206.967 117.416 207.372 117.475 207.537 117.528V115.754C207.362 115.722 207.058 115.701 206.845 115.701C205.907 115.701 205.124 116.234 204.826 117.182H204.741V115.818H202.871V124ZM212.5 124.16C214.897 124.16 216.421 122.471 216.421 119.941C216.421 117.406 214.897 115.712 212.5 115.712C210.103 115.712 208.58 117.406 208.58 119.941C208.58 122.471 210.103 124.16 212.5 124.16ZM212.511 122.615C211.185 122.615 210.535 121.433 210.535 119.936C210.535 118.439 211.185 117.24 212.511 117.24C213.816 117.24 214.466 118.439 214.466 119.936C214.466 121.433 213.816 122.615 212.511 122.615ZM222.652 115.818H220.952V115.174C220.952 114.534 221.219 114.178 221.938 114.178C222.241 114.178 222.497 114.247 222.657 114.295L223.046 112.803C222.795 112.718 222.247 112.58 221.581 112.58C220.159 112.58 219.024 113.395 219.024 115.046V115.818H217.815V117.31H219.024V124H220.952V117.31H222.652V115.818ZM224.612 124H226.54V115.818H224.612V124ZM225.581 114.657C226.194 114.657 226.695 114.188 226.695 113.613C226.695 113.032 226.194 112.564 225.581 112.564C224.963 112.564 224.463 113.032 224.463 113.613C224.463 114.188 224.963 114.657 225.581 114.657ZM230.901 113.091H228.973V124H230.901V113.091ZM236.956 124.16C238.863 124.16 240.174 123.228 240.514 121.805L238.714 121.603C238.453 122.295 237.814 122.658 236.983 122.658C235.736 122.658 234.911 121.837 234.895 120.436H240.594V119.845C240.594 116.974 238.868 115.712 236.855 115.712C234.511 115.712 232.982 117.432 232.982 119.957C232.982 122.525 234.49 124.16 236.956 124.16ZM234.9 119.137C234.959 118.093 235.731 117.214 236.882 117.214C237.99 117.214 238.735 118.023 238.746 119.137H234.9ZM246.458 124C249.781 124 251.752 121.944 251.752 118.535C251.752 115.136 249.781 113.091 246.532 113.091H242.761V124H246.458ZM244.737 122.29V114.801H246.42C248.636 114.801 249.792 116.037 249.792 118.535C249.792 121.044 248.636 122.29 246.362 122.29H244.737ZM257.617 124.16C259.524 124.16 260.834 123.228 261.175 121.805L259.375 121.603C259.114 122.295 258.475 122.658 257.644 122.658C256.397 122.658 255.571 121.837 255.555 120.436H261.255V119.845C261.255 116.974 259.529 115.712 257.516 115.712C255.172 115.712 253.643 117.432 253.643 119.957C253.643 122.525 255.151 124.16 257.617 124.16ZM255.561 119.137C255.619 118.093 256.392 117.214 257.542 117.214C258.65 117.214 259.396 118.023 259.407 119.137H255.561ZM269.803 117.981C269.537 116.596 268.429 115.712 266.511 115.712C264.54 115.712 263.198 116.681 263.203 118.194C263.198 119.387 263.933 120.175 265.504 120.5L266.9 120.793C267.651 120.958 268.003 121.262 268.003 121.725C268.003 122.285 267.395 122.706 266.479 122.706C265.595 122.706 265.02 122.322 264.854 121.587L262.974 121.768C263.214 123.27 264.476 124.16 266.484 124.16C268.53 124.16 269.973 123.1 269.979 121.55C269.973 120.383 269.222 119.669 267.678 119.334L266.282 119.036C265.451 118.849 265.121 118.561 265.126 118.087C265.121 117.533 265.733 117.15 266.538 117.15C267.427 117.15 267.896 117.635 268.045 118.173L269.803 117.981ZM275.588 124.16C277.644 124.16 278.954 122.94 279.093 121.203H277.25C277.084 122.082 276.451 122.588 275.604 122.588C274.4 122.588 273.622 121.582 273.622 119.909C273.622 118.258 274.416 117.267 275.604 117.267C276.531 117.267 277.1 117.864 277.25 118.652H279.093C278.959 116.878 277.575 115.712 275.577 115.712C273.18 115.712 271.667 117.443 271.667 119.941C271.667 122.418 273.143 124.16 275.588 124.16ZM281.126 124H283.054V119.19C283.054 118.151 283.837 117.416 284.897 117.416C285.222 117.416 285.627 117.475 285.792 117.528V115.754C285.616 115.722 285.313 115.701 285.1 115.701C284.162 115.701 283.379 116.234 283.081 117.182H282.996V115.818H281.126V124ZM287.523 124H289.452V115.818H287.523V124ZM288.493 114.657C289.105 114.657 289.606 114.188 289.606 113.613C289.606 113.032 289.105 112.564 288.493 112.564C287.875 112.564 287.374 113.032 287.374 113.613C287.374 114.188 287.875 114.657 288.493 114.657ZM291.884 127.068H293.813V122.711H293.893C294.196 123.308 294.83 124.144 296.236 124.144C298.165 124.144 299.608 122.615 299.608 119.92C299.608 117.192 298.122 115.712 296.231 115.712C294.787 115.712 294.186 116.58 293.893 117.171H293.781V115.818H291.884V127.068ZM293.775 119.909C293.775 118.322 294.457 117.294 295.698 117.294C296.982 117.294 297.643 118.386 297.643 119.909C297.643 121.443 296.971 122.562 295.698 122.562C294.468 122.562 293.775 121.496 293.775 119.909ZM305.795 115.818H304.181V113.858H302.253V115.818H301.092V117.31H302.253V121.859C302.242 123.398 303.361 124.154 304.81 124.112C305.358 124.096 305.736 123.989 305.944 123.92L305.619 122.413C305.513 122.439 305.294 122.487 305.055 122.487C304.57 122.487 304.181 122.317 304.181 121.539V117.31H305.795V115.818ZM307.858 124H309.786V115.818H307.858V124ZM308.827 114.657C309.44 114.657 309.94 114.188 309.94 113.613C309.94 113.032 309.44 112.564 308.827 112.564C308.209 112.564 307.709 113.032 307.709 113.613C307.709 114.188 308.209 114.657 308.827 114.657ZM315.788 124.16C318.185 124.16 319.708 122.471 319.708 119.941C319.708 117.406 318.185 115.712 315.788 115.712C313.391 115.712 311.867 117.406 311.867 119.941C311.867 122.471 313.391 124.16 315.788 124.16ZM315.798 122.615C314.472 122.615 313.822 121.433 313.822 119.936C313.822 118.439 314.472 117.24 315.798 117.24C317.103 117.24 317.753 118.439 317.753 119.936C317.753 121.433 317.103 122.615 315.798 122.615ZM323.723 119.206C323.723 118.023 324.437 117.342 325.454 117.342C326.45 117.342 327.047 117.997 327.047 119.089V124H328.975V118.79C328.98 116.83 327.862 115.712 326.173 115.712C324.948 115.712 324.107 116.298 323.734 117.208H323.638V115.818H321.795V124H323.723V119.206Z" fill="#C5D1DB"/>
<path d="M193.039 140.5H194.402V139.461C194.402 138.657 194.754 137.98 195.185 137.347L194.397 136.782C193.582 137.437 193.039 138.572 193.039 139.477V140.5ZM195.755 140.5H197.119V139.461C197.119 138.657 197.47 137.98 197.902 137.347L197.114 136.782C196.299 137.437 195.755 138.572 195.755 139.477V140.5ZM199.399 137.091V148H200.965V140.1H201.066L204.283 147.984H205.583L208.8 140.106H208.902V148H210.468V137.091H208.47L204.997 145.571H204.869L201.396 137.091H199.399ZM213.74 151.068C215.055 151.068 215.886 150.381 216.36 149.092L219.743 139.834L218.022 139.818L215.95 146.168H215.865L213.793 139.818H212.088L215.082 148.107L214.885 148.65C214.48 149.737 213.91 149.827 213.036 149.587L212.653 150.892C212.845 150.978 213.26 151.068 213.74 151.068ZM226.987 148H228.606L230.268 142.093H230.391L232.053 148H233.677L236.08 139.818H234.434L232.841 145.8H232.761L231.163 139.818H229.517L227.909 145.827H227.829L226.225 139.818H224.579L226.987 148ZM240.789 148.165C243.095 148.165 244.602 146.477 244.602 143.946C244.602 141.4 243.095 139.712 240.789 139.712C238.482 139.712 236.975 141.4 236.975 143.946C236.975 146.477 238.482 148.165 240.789 148.165ZM240.794 146.828C239.286 146.828 238.583 145.512 238.583 143.941C238.583 142.375 239.286 141.043 240.794 141.043C242.291 141.043 242.994 142.375 242.994 143.941C242.994 145.512 242.291 146.828 240.794 146.828ZM246.38 148H247.973V143.004C247.973 141.933 248.799 141.161 249.928 141.161C250.258 141.161 250.631 141.219 250.759 141.256V139.733C250.599 139.712 250.285 139.696 250.082 139.696C249.123 139.696 248.303 140.239 248.005 141.118H247.92V139.818H246.38V148ZM252.137 148H253.73V145.097L254.523 144.303L257.304 148H259.259L255.722 143.328L259.035 139.818H257.128L253.868 143.281H253.73V137.091H252.137V148ZM260.487 148H262.079V139.818H260.487V148ZM261.291 138.556C261.84 138.556 262.298 138.13 262.298 137.608C262.298 137.086 261.84 136.654 261.291 136.654C260.737 136.654 260.284 137.086 260.284 137.608C260.284 138.13 260.737 138.556 261.291 138.556ZM265.815 143.142C265.815 141.837 266.614 141.091 267.722 141.091C268.803 141.091 269.458 141.8 269.458 142.988V148H271.051V142.796C271.051 140.772 269.938 139.712 268.265 139.712C267.035 139.712 266.23 140.282 265.852 141.15H265.751V139.818H264.222V148H265.815V143.142ZM276.617 151.239C278.7 151.239 280.309 150.285 280.309 148.181V139.818H278.748V141.145H278.631C278.348 140.638 277.784 139.712 276.26 139.712C274.284 139.712 272.83 141.272 272.83 143.877C272.83 146.487 274.316 147.877 276.25 147.877C277.752 147.877 278.332 147.031 278.62 146.509H278.721V148.117C278.721 149.401 277.842 149.955 276.633 149.955C275.307 149.955 274.79 149.289 274.508 148.82L273.139 149.385C273.57 150.386 274.662 151.239 276.617 151.239ZM276.601 146.556C275.179 146.556 274.439 145.464 274.439 143.856C274.439 142.284 275.163 141.065 276.601 141.065C277.992 141.065 278.737 142.199 278.737 143.856C278.737 145.544 277.976 146.556 276.601 146.556ZM288.007 143.142C288.007 141.837 288.833 141.091 289.967 141.091C291.065 141.091 291.72 141.789 291.72 142.988V148H293.312V142.796C293.312 140.756 292.194 139.712 290.511 139.712C289.238 139.712 288.471 140.266 288.087 141.15H287.986V137.091H286.414V148H288.007V143.142ZM298.884 148.165C301.191 148.165 302.698 146.477 302.698 143.946C302.698 141.4 301.191 139.712 298.884 139.712C296.578 139.712 295.07 141.4 295.07 143.946C295.07 146.477 296.578 148.165 298.884 148.165ZM298.89 146.828C297.382 146.828 296.679 145.512 296.679 143.941C296.679 142.375 297.382 141.043 298.89 141.043C300.386 141.043 301.089 142.375 301.089 143.941C301.089 145.512 300.386 146.828 298.89 146.828ZM309.659 144.607C309.664 145.997 308.631 146.658 307.736 146.658C306.75 146.658 306.069 145.944 306.069 144.831V139.818H304.476V145.022C304.476 147.052 305.589 148.107 307.161 148.107C308.391 148.107 309.227 147.457 309.606 146.583H309.691V148H311.257V139.818H309.659V144.607ZM313.397 148H314.99V143.004C314.99 141.933 315.815 141.161 316.944 141.161C317.275 141.161 317.648 141.219 317.775 141.256V139.733C317.616 139.712 317.301 139.696 317.099 139.696C316.14 139.696 315.32 140.239 315.021 141.118H314.936V139.818H313.397V148ZM325.285 141.816C324.954 140.543 323.958 139.712 322.19 139.712C320.342 139.712 319.031 140.686 319.031 142.135C319.031 143.297 319.734 144.069 321.268 144.41L322.653 144.713C323.442 144.889 323.809 145.241 323.809 145.752C323.809 146.386 323.133 146.881 322.089 146.881C321.135 146.881 320.523 146.471 320.331 145.667L318.791 145.901C319.058 147.35 320.262 148.165 322.099 148.165C324.076 148.165 325.445 147.116 325.445 145.635C325.445 144.479 324.709 143.765 323.207 143.419L321.908 143.121C321.007 142.908 320.619 142.604 320.624 142.05C320.619 141.422 321.3 140.974 322.206 140.974C323.197 140.974 323.655 141.523 323.841 142.071L325.285 141.816ZM328.245 148.101C328.826 148.101 329.31 147.627 329.31 147.036C329.31 146.455 328.826 145.976 328.245 145.976C327.659 145.976 327.18 146.455 327.18 147.036C327.18 147.627 327.659 148.101 328.245 148.101ZM332.493 148.101C333.074 148.101 333.558 147.627 333.558 147.036C333.558 146.455 333.074 145.976 332.493 145.976C331.907 145.976 331.428 146.455 331.428 147.036C331.428 147.627 331.907 148.101 332.493 148.101ZM336.741 148.101C337.322 148.101 337.806 147.627 337.806 147.036C337.806 146.455 337.322 145.976 336.741 145.976C336.155 145.976 335.676 146.455 335.676 147.036C335.676 147.627 336.155 148.101 336.741 148.101ZM340.239 137.091H338.876V138.13C338.876 138.955 338.514 139.632 338.098 140.244L338.886 140.809C339.707 140.148 340.239 139.019 340.239 138.114V137.091ZM342.951 137.091H341.587V138.13C341.587 138.955 341.225 139.632 340.809 140.244L341.598 140.809C342.418 140.148 342.951 139.019 342.951 138.114V137.091Z" fill="#C5D1DB"/>
<path d="M424.483 278.818H422.784V278.174C422.784 277.534 423.05 277.178 423.769 277.178C424.073 277.178 424.328 277.247 424.488 277.295L424.877 275.803C424.627 275.718 424.078 275.58 423.412 275.58C421.99 275.58 420.855 276.395 420.855 278.046V278.818H419.646V280.31H420.855V287H422.784V280.31H424.483V278.818ZM426.443 287H428.371V278.818H426.443V287ZM427.412 277.657C428.025 277.657 428.526 277.188 428.526 276.613C428.526 276.032 428.025 275.564 427.412 275.564C426.795 275.564 426.294 276.032 426.294 276.613C426.294 277.188 426.795 277.657 427.412 277.657ZM430.804 287H432.732V282.19C432.732 281.151 433.515 280.416 434.575 280.416C434.9 280.416 435.305 280.475 435.47 280.528V278.754C435.295 278.722 434.991 278.701 434.778 278.701C433.84 278.701 433.057 279.234 432.759 280.182H432.674V278.818H430.804V287ZM443.668 280.981C443.402 279.596 442.294 278.712 440.376 278.712C438.405 278.712 437.063 279.681 437.068 281.194C437.063 282.387 437.798 283.175 439.369 283.5L440.765 283.793C441.516 283.958 441.868 284.262 441.868 284.725C441.868 285.285 441.26 285.706 440.344 285.706C439.46 285.706 438.885 285.322 438.72 284.587L436.839 284.768C437.079 286.27 438.341 287.16 440.349 287.16C442.395 287.16 443.838 286.1 443.844 284.55C443.838 283.383 443.087 282.669 441.543 282.334L440.147 282.036C439.316 281.849 438.986 281.561 438.991 281.087C438.986 280.533 439.598 280.15 440.403 280.15C441.292 280.15 441.761 280.635 441.91 281.173L443.668 280.981ZM449.969 278.818H448.355V276.858H446.427V278.818H445.266V280.31H446.427V284.859C446.417 286.398 447.535 287.154 448.984 287.112C449.533 287.096 449.911 286.989 450.119 286.92L449.794 285.413C449.687 285.439 449.469 285.487 449.229 285.487C448.744 285.487 448.355 285.317 448.355 284.539V280.31H449.969V278.818ZM461.258 276.091H459.292V283.527H459.196L454.062 276.091H452.293V287H454.269V279.569H454.36L459.5 287H461.258V276.091ZM466.13 287.165C467.414 287.165 468.181 286.563 468.533 285.876H468.597V287H470.45V281.524C470.45 279.362 468.687 278.712 467.127 278.712C465.406 278.712 464.085 279.479 463.659 280.97L465.459 281.226C465.651 280.667 466.194 280.187 467.137 280.187C468.032 280.187 468.522 280.645 468.522 281.45V281.482C468.522 282.036 467.942 282.062 466.498 282.217C464.911 282.387 463.392 282.861 463.392 284.704C463.392 286.313 464.57 287.165 466.13 287.165ZM466.631 285.748C465.827 285.748 465.252 285.381 465.252 284.672C465.252 283.932 465.896 283.623 466.759 283.5C467.265 283.431 468.277 283.303 468.527 283.101V284.065C468.527 284.976 467.792 285.748 466.631 285.748ZM472.839 287H474.768V282.025C474.768 281.018 475.439 280.336 476.27 280.336C477.085 280.336 477.644 280.885 477.644 281.727V287H479.535V281.897C479.535 280.975 480.084 280.336 481.016 280.336C481.793 280.336 482.411 280.794 482.411 281.806V287H484.345V281.508C484.345 279.681 483.29 278.712 481.788 278.712C480.6 278.712 479.695 279.298 479.333 280.208H479.247C478.933 279.282 478.139 278.712 477.037 278.712C475.939 278.712 475.119 279.276 474.778 280.208H474.682V278.818H472.839V287ZM490.373 287.16C492.28 287.16 493.591 286.228 493.932 284.805L492.131 284.603C491.87 285.295 491.231 285.658 490.4 285.658C489.154 285.658 488.328 284.837 488.312 283.436H494.012V282.845C494.012 279.974 492.286 278.712 490.272 278.712C487.928 278.712 486.4 280.432 486.4 282.957C486.4 285.525 487.907 287.16 490.373 287.16ZM488.317 282.137C488.376 281.093 489.148 280.214 490.299 280.214C491.407 280.214 492.152 281.023 492.163 282.137H488.317Z" fill="#6048E5"/>
<path d="M420.681 300.091V311H422.247V303.1H422.349L425.566 310.984H426.866L430.083 303.106H430.184V311H431.75V300.091H429.753L426.28 308.571H426.152L422.679 300.091H420.681ZM436.397 311.181C437.75 311.181 438.511 310.494 438.815 309.881H438.879V311H440.434V305.567C440.434 303.186 438.559 302.712 437.259 302.712C435.779 302.712 434.415 303.308 433.882 304.8L435.379 305.141C435.614 304.56 436.21 304.001 437.281 304.001C438.309 304.001 438.836 304.539 438.836 305.466V305.503C438.836 306.083 438.24 306.073 436.769 306.243C435.219 306.424 433.632 306.829 433.632 308.688C433.632 310.297 434.841 311.181 436.397 311.181ZM436.743 309.903C435.843 309.903 435.193 309.498 435.193 308.71C435.193 307.857 435.949 307.554 436.871 307.431C437.387 307.362 438.612 307.223 438.841 306.994V308.049C438.841 309.018 438.069 309.903 436.743 309.903ZM442.556 311H444.148V306.004C444.148 304.933 444.974 304.161 446.103 304.161C446.433 304.161 446.806 304.219 446.934 304.256V302.733C446.774 302.712 446.46 302.696 446.258 302.696C445.299 302.696 444.478 303.239 444.18 304.118H444.095V302.818H442.556V311ZM448.312 311H449.905V302.818H448.312V311ZM449.117 301.556C449.665 301.556 450.123 301.13 450.123 300.608C450.123 300.086 449.665 299.654 449.117 299.654C448.563 299.654 448.11 300.086 448.11 300.608C448.11 301.13 448.563 301.556 449.117 301.556ZM454.429 311.181C455.782 311.181 456.543 310.494 456.847 309.881H456.911V311H458.466V305.567C458.466 303.186 456.591 302.712 455.292 302.712C453.811 302.712 452.447 303.308 451.915 304.8L453.411 305.141C453.646 304.56 454.242 304.001 455.313 304.001C456.341 304.001 456.868 304.539 456.868 305.466V305.503C456.868 306.083 456.272 306.073 454.802 306.243C453.252 306.424 451.664 306.829 451.664 308.688C451.664 310.297 452.873 311.181 454.429 311.181ZM454.775 309.903C453.875 309.903 453.225 309.498 453.225 308.71C453.225 307.857 453.981 307.554 454.903 307.431C455.42 307.362 456.645 307.223 456.874 306.994V308.049C456.874 309.018 456.101 309.903 454.775 309.903Z" fill="#64778C"/>
<circle cx="511" cy="282" r="8" fill="url(#paint0_linear_1601_17766)"/>
<path d="M840 111L802 198" stroke="url(#paint1_linear_1601_17766)"/>
<path d="M971 252L808 211" stroke="url(#paint2_linear_1601_17766)"/>
<path d="M1133 204L989 250" stroke="url(#paint3_linear_1601_17766)"/>
<path d="M523 284L698 297" stroke="url(#paint4_linear_1601_17766)"/>
<path d="M587 176L705 286" stroke="url(#paint5_linear_1601_17766)"/>
<path d="M517.464 173H519.393V164.818H517.464V173ZM518.434 163.657C519.046 163.657 519.547 163.188 519.547 162.613C519.547 162.032 519.046 161.564 518.434 161.564C517.816 161.564 517.315 162.032 517.315 162.613C517.315 163.188 517.816 163.657 518.434 163.657ZM521.825 173H523.754V168.025C523.754 167.018 524.425 166.336 525.256 166.336C526.071 166.336 526.63 166.885 526.63 167.727V173H528.521V167.897C528.521 166.975 529.07 166.336 530.002 166.336C530.78 166.336 531.398 166.794 531.398 167.806V173H533.331V167.508C533.331 165.681 532.276 164.712 530.774 164.712C529.586 164.712 528.681 165.298 528.319 166.208H528.233C527.919 165.282 527.126 164.712 526.023 164.712C524.926 164.712 524.105 165.276 523.764 166.208H523.668V164.818H521.825V173ZM538.092 173.165C539.375 173.165 540.143 172.563 540.494 171.876H540.558V173H542.412V167.524C542.412 165.362 540.649 164.712 539.088 164.712C537.367 164.712 536.046 165.479 535.62 166.97L537.421 167.226C537.612 166.667 538.156 166.187 539.098 166.187C539.993 166.187 540.483 166.645 540.483 167.45V167.482C540.483 168.036 539.903 168.062 538.459 168.217C536.872 168.387 535.354 168.861 535.354 170.704C535.354 172.313 536.531 173.165 538.092 173.165ZM538.592 171.748C537.788 171.748 537.213 171.381 537.213 170.672C537.213 169.932 537.857 169.623 538.72 169.5C539.226 169.431 540.238 169.303 540.489 169.101V170.065C540.489 170.976 539.754 171.748 538.592 171.748ZM548.359 176.239C550.569 176.239 552.199 175.227 552.199 173.133V164.818H550.298V166.171H550.191C549.898 165.58 549.286 164.712 547.842 164.712C545.951 164.712 544.465 166.192 544.465 168.882C544.465 171.551 545.951 172.883 547.837 172.883C549.238 172.883 549.893 172.132 550.191 171.53H550.287V173.08C550.287 174.284 549.488 174.779 548.391 174.779C547.23 174.779 546.718 174.23 546.484 173.751L544.747 174.172C545.099 175.317 546.276 176.239 548.359 176.239ZM548.375 171.37C547.102 171.37 546.431 170.379 546.431 168.872C546.431 167.386 547.091 166.294 548.375 166.294C549.616 166.294 550.298 167.322 550.298 168.872C550.298 170.433 549.605 171.37 548.375 171.37ZM558.248 173.16C560.155 173.16 561.465 172.228 561.806 170.805L560.006 170.603C559.745 171.295 559.105 171.658 558.274 171.658C557.028 171.658 556.202 170.837 556.186 169.436H561.886V168.845C561.886 165.974 560.16 164.712 558.147 164.712C555.803 164.712 554.274 166.432 554.274 168.957C554.274 171.525 555.782 173.16 558.248 173.16ZM556.192 168.137C556.25 167.093 557.023 166.214 558.173 166.214C559.281 166.214 560.027 167.023 560.038 168.137H556.192Z" fill="#6048E5"/>
<path d="M435.139 192.142C435.139 190.837 435.965 190.091 437.099 190.091C438.196 190.091 438.852 190.789 438.852 191.988V197H440.444V191.796C440.444 189.756 439.326 188.712 437.642 188.712C436.369 188.712 435.602 189.266 435.219 190.15H435.118V186.091H433.546V197H435.139V192.142ZM446.389 188.818H444.711V186.858H443.118V188.818H441.92V190.097H443.118V194.928C443.113 196.414 444.248 197.133 445.505 197.107C446.011 197.101 446.352 197.005 446.538 196.936L446.25 195.62C446.144 195.642 445.947 195.69 445.691 195.69C445.174 195.69 444.711 195.519 444.711 194.598V190.097H446.389V188.818ZM451.97 188.818H450.292V186.858H448.699V188.818H447.501V190.097H448.699V194.928C448.694 196.414 449.829 197.133 451.086 197.107C451.592 197.101 451.933 197.005 452.119 196.936L451.831 195.62C451.725 195.642 451.528 195.69 451.272 195.69C450.756 195.69 450.292 195.519 450.292 194.598V190.097H451.97V188.818ZM453.732 200.068H455.324V195.727H455.42C455.708 196.249 456.294 197.16 457.785 197.16C459.767 197.16 461.205 195.572 461.205 192.925C461.205 190.272 459.746 188.712 457.769 188.712C456.251 188.712 455.703 189.638 455.42 190.145H455.287V188.818H453.732V200.068ZM455.293 192.909C455.293 191.199 456.038 190.065 457.429 190.065C458.872 190.065 459.597 191.284 459.597 192.909C459.597 194.55 458.851 195.801 457.429 195.801C456.06 195.801 455.293 194.63 455.293 192.909ZM469.121 190.816C468.79 189.543 467.794 188.712 466.026 188.712C464.177 188.712 462.867 189.686 462.867 191.135C462.867 192.297 463.57 193.069 465.104 193.41L466.489 193.713C467.278 193.889 467.645 194.241 467.645 194.752C467.645 195.386 466.969 195.881 465.925 195.881C464.971 195.881 464.359 195.471 464.167 194.667L462.627 194.901C462.894 196.35 464.098 197.165 465.935 197.165C467.911 197.165 469.28 196.116 469.28 194.635C469.28 193.479 468.545 192.765 467.043 192.419L465.744 192.121C464.843 191.908 464.454 191.604 464.46 191.05C464.454 190.422 465.136 189.974 466.042 189.974C467.033 189.974 467.491 190.523 467.677 191.071L469.121 190.816ZM472.081 191.146C472.662 191.146 473.146 190.672 473.146 190.081C473.146 189.5 472.662 189.021 472.081 189.021C471.495 189.021 471.016 189.5 471.016 190.081C471.016 190.672 471.495 191.146 472.081 191.146ZM472.081 197.101C472.662 197.101 473.146 196.627 473.146 196.036C473.146 195.455 472.662 194.976 472.081 194.976C471.495 194.976 471.016 195.455 471.016 196.036C471.016 196.627 471.495 197.101 472.081 197.101ZM479.434 185.58H478.012L474.497 198.641H475.919L479.434 185.58ZM484.942 185.58H483.52L480.004 198.641H481.427L484.942 185.58ZM486.295 200.068H487.888V195.727H487.984C488.271 196.249 488.857 197.16 490.349 197.16C492.33 197.16 493.769 195.572 493.769 192.925C493.769 190.272 492.309 188.712 490.333 188.712C488.815 188.712 488.266 189.638 487.984 190.145H487.851V188.818H486.295V200.068ZM487.856 192.909C487.856 191.199 488.602 190.065 489.992 190.065C491.436 190.065 492.16 191.284 492.16 192.909C492.16 194.55 491.414 195.801 489.992 195.801C488.623 195.801 487.856 194.63 487.856 192.909ZM495.553 197H497.146V192.004C497.146 190.933 497.971 190.161 499.101 190.161C499.431 190.161 499.804 190.219 499.932 190.256V188.733C499.772 188.712 499.458 188.696 499.255 188.696C498.296 188.696 497.476 189.239 497.178 190.118H497.093V188.818H495.553V197ZM504.463 197.165C506.77 197.165 508.277 195.477 508.277 192.946C508.277 190.4 506.77 188.712 504.463 188.712C502.157 188.712 500.649 190.4 500.649 192.946C500.649 195.477 502.157 197.165 504.463 197.165ZM504.469 195.828C502.961 195.828 502.258 194.512 502.258 192.941C502.258 191.375 502.961 190.043 504.469 190.043C505.965 190.043 506.669 191.375 506.669 192.941C506.669 194.512 505.965 195.828 504.469 195.828ZM513.949 188.818H512.186V188.083C512.186 187.359 512.484 186.964 513.262 186.964C513.592 186.964 513.826 187.039 513.975 187.087L514.348 185.798C514.125 185.713 513.661 185.58 513.017 185.58C511.722 185.58 510.588 186.336 510.588 187.87V188.818H509.325V190.097H510.588V197H512.186V190.097H513.949V188.818ZM515.592 197H517.185V188.818H515.592V197ZM516.396 187.556C516.945 187.556 517.403 187.13 517.403 186.608C517.403 186.086 516.945 185.654 516.396 185.654C515.843 185.654 515.39 186.086 515.39 186.608C515.39 187.13 515.843 187.556 516.396 187.556ZM520.92 186.091H519.328V197H520.92V186.091ZM526.589 197.165C528.374 197.165 529.636 196.286 529.998 194.955L528.491 194.683C528.203 195.455 527.511 195.849 526.605 195.849C525.241 195.849 524.325 194.965 524.283 193.388H530.099V192.824C530.099 189.868 528.331 188.712 526.477 188.712C524.197 188.712 522.695 190.448 522.695 192.962C522.695 195.503 524.176 197.165 526.589 197.165ZM524.288 192.195C524.352 191.034 525.194 190.027 526.488 190.027C527.724 190.027 528.533 190.944 528.539 192.195H524.288ZM532.916 197.101C533.497 197.101 533.981 196.627 533.981 196.036C533.981 195.455 533.497 194.976 532.916 194.976C532.33 194.976 531.851 195.455 531.851 196.036C531.851 196.627 532.33 197.101 532.916 197.101ZM536.115 200.068H537.707V195.727H537.803C538.091 196.249 538.677 197.16 540.168 197.16C542.15 197.16 543.588 195.572 543.588 192.925C543.588 190.272 542.128 188.712 540.152 188.712C538.634 188.712 538.085 189.638 537.803 190.145H537.67V188.818H536.115V200.068ZM537.675 192.909C537.675 191.199 538.421 190.065 539.811 190.065C541.255 190.065 541.979 191.284 541.979 192.909C541.979 194.55 541.234 195.801 539.811 195.801C538.442 195.801 537.675 194.63 537.675 192.909ZM546.965 192.142C546.965 190.837 547.764 190.091 548.872 190.091C549.953 190.091 550.609 190.8 550.609 191.988V197H552.201V191.796C552.201 189.772 551.088 188.712 549.415 188.712C548.185 188.712 547.381 189.282 547.002 190.15H546.901V188.818H545.372V197H546.965V192.142ZM557.768 200.239C559.85 200.239 561.459 199.285 561.459 197.181V188.818H559.898V190.145H559.781C559.499 189.638 558.934 188.712 557.411 188.712C555.435 188.712 553.98 190.272 553.98 192.877C553.98 195.487 555.467 196.877 557.4 196.877C558.902 196.877 559.483 196.031 559.771 195.509H559.872V197.117C559.872 198.401 558.993 198.955 557.784 198.955C556.457 198.955 555.941 198.289 555.658 197.82L554.289 198.385C554.721 199.386 555.813 200.239 557.768 200.239ZM557.752 195.556C556.329 195.556 555.589 194.464 555.589 192.856C555.589 191.284 556.313 190.065 557.752 190.065C559.142 190.065 559.888 191.199 559.888 192.856C559.888 194.544 559.126 195.556 557.752 195.556Z" fill="#9EACBA"/>
<circle cx="579" cy="168" r="8" fill="url(#paint6_linear_1601_17766)"/>
<circle cx="799" cy="206" r="8" fill="url(#paint7_linear_1601_17766)"/>
<path d="M816.309 211H818.238V202.818H816.309V211ZM817.279 201.657C817.891 201.657 818.392 201.188 818.392 200.613C818.392 200.032 817.891 199.564 817.279 199.564C816.661 199.564 816.16 200.032 816.16 200.613C816.16 201.188 816.661 201.657 817.279 201.657ZM824.756 202.818H823.142V200.858H821.214V202.818H820.053V204.31H821.214V208.859C821.203 210.398 822.322 211.154 823.771 211.112C824.319 211.096 824.697 210.989 824.905 210.92L824.58 209.413C824.474 209.439 824.255 209.487 824.016 209.487C823.531 209.487 823.142 209.317 823.142 208.539V204.31H824.756V202.818ZM830.353 211.16C832.26 211.16 833.57 210.228 833.911 208.805L832.111 208.603C831.85 209.295 831.211 209.658 830.38 209.658C829.133 209.658 828.308 208.837 828.292 207.436H833.991V206.845C833.991 203.974 832.265 202.712 830.252 202.712C827.908 202.712 826.379 204.432 826.379 206.957C826.379 209.525 827.887 211.16 830.353 211.16ZM828.297 206.137C828.355 205.093 829.128 204.214 830.278 204.214C831.386 204.214 832.132 205.023 832.143 206.137H828.297ZM836.072 211H838.001V206.025C838.001 205.018 838.672 204.336 839.503 204.336C840.318 204.336 840.877 204.885 840.877 205.727V211H842.768V205.897C842.768 204.975 843.317 204.336 844.249 204.336C845.027 204.336 845.644 204.794 845.644 205.806V211H847.578V205.508C847.578 203.681 846.523 202.712 845.021 202.712C843.833 202.712 842.928 203.298 842.566 204.208H842.48C842.166 203.282 841.372 202.712 840.27 202.712C839.173 202.712 838.352 203.276 838.011 204.208H837.915V202.818H836.072V211ZM850.07 211H856.85V209.343H852.046V200.091H850.07V211ZM858.93 211H860.859V202.818H858.93V211ZM859.9 201.657C860.512 201.657 861.013 201.188 861.013 200.613C861.013 200.032 860.512 199.564 859.9 199.564C859.282 199.564 858.781 200.032 858.781 200.613C858.781 201.188 859.282 201.657 859.9 201.657ZM869.758 204.981C869.492 203.596 868.384 202.712 866.466 202.712C864.495 202.712 863.153 203.681 863.158 205.194C863.153 206.387 863.888 207.175 865.46 207.5L866.855 207.793C867.606 207.958 867.958 208.262 867.958 208.725C867.958 209.285 867.35 209.706 866.434 209.706C865.55 209.706 864.975 209.322 864.81 208.587L862.929 208.768C863.169 210.27 864.431 211.16 866.44 211.16C868.485 211.16 869.929 210.1 869.934 208.55C869.929 207.383 869.178 206.669 867.633 206.334L866.237 206.036C865.406 205.849 865.076 205.561 865.081 205.087C865.076 204.533 865.689 204.15 866.493 204.15C867.382 204.15 867.851 204.635 868 205.173L869.758 204.981ZM876.06 202.818H874.446V200.858H872.517V202.818H871.356V204.31H872.517V208.859C872.507 210.398 873.625 211.154 875.074 211.112C875.623 211.096 876.001 210.989 876.209 210.92L875.884 209.413C875.777 209.439 875.559 209.487 875.319 209.487C874.834 209.487 874.446 209.317 874.446 208.539V204.31H876.06V202.818Z" fill="#6048E5"/>
<path d="M817.169 237.269H820.669V236.007H818.692V224.943H820.669V223.681H817.169V237.269ZM823.248 235.101C823.829 235.101 824.313 234.627 824.313 234.036C824.313 233.455 823.829 232.976 823.248 232.976C822.662 232.976 822.183 233.455 822.183 234.036C822.183 234.627 822.662 235.101 823.248 235.101ZM827.496 235.101C828.077 235.101 828.561 234.627 828.561 234.036C828.561 233.455 828.077 232.976 827.496 232.976C826.91 232.976 826.431 233.455 826.431 234.036C826.431 234.627 826.91 235.101 827.496 235.101ZM831.744 235.101C832.325 235.101 832.809 234.627 832.809 234.036C832.809 233.455 832.325 232.976 831.744 232.976C831.158 232.976 830.679 233.455 830.679 234.036C830.679 234.627 831.158 235.101 831.744 235.101ZM837.83 223.681H834.33V224.943H836.306V236.007H834.33V237.269H837.83V223.681Z" fill="#64778C"/>
<line x1="717.5" y1="340" x2="717.5" y2="398" stroke="url(#paint8_linear_1601_17766)"/>
<circle cx="844" cy="105" r="8" fill="url(#paint9_linear_1601_17766)"/>
<path d="M863.34 99.0909H861.411V110H863.34V99.0909ZM865.773 110H867.701V101.818H865.773V110ZM866.742 100.657C867.355 100.657 867.855 100.188 867.855 99.6129C867.855 99.0323 867.355 98.5636 866.742 98.5636C866.124 98.5636 865.623 99.0323 865.623 99.6129C865.623 100.188 866.124 100.657 866.742 100.657ZM876.6 103.981C876.334 102.596 875.226 101.712 873.308 101.712C871.337 101.712 869.995 102.681 870 104.194C869.995 105.387 870.73 106.175 872.302 106.5L873.697 106.793C874.448 106.958 874.8 107.262 874.8 107.725C874.8 108.285 874.193 108.706 873.276 108.706C872.392 108.706 871.817 108.322 871.652 107.587L869.771 107.768C870.011 109.27 871.274 110.16 873.282 110.16C875.327 110.16 876.771 109.1 876.776 107.55C876.771 106.383 876.02 105.669 874.475 105.334L873.079 105.036C872.248 104.849 871.918 104.561 871.923 104.087C871.918 103.533 872.531 103.15 873.335 103.15C874.225 103.15 874.693 103.635 874.842 104.173L876.6 103.981ZM882.902 101.818H881.288V99.858H879.359V101.818H878.198V103.31H879.359V107.859C879.349 109.398 880.467 110.154 881.916 110.112C882.465 110.096 882.843 109.989 883.051 109.92L882.726 108.413C882.619 108.439 882.401 108.487 882.161 108.487C881.676 108.487 881.288 108.317 881.288 107.539V103.31H882.902V101.818ZM887.202 99.0909H885.225V110H887.202V99.0909ZM893.792 101.818H892.178V99.858H890.25V101.818H889.088V103.31H890.25V107.859C890.239 109.398 891.358 110.154 892.806 110.112C893.355 110.096 893.733 109.989 893.941 109.92L893.616 108.413C893.51 108.439 893.291 108.487 893.051 108.487C892.567 108.487 892.178 108.317 892.178 107.539V103.31H893.792V101.818ZM899.389 110.16C901.296 110.16 902.606 109.228 902.947 107.805L901.147 107.603C900.886 108.295 900.246 108.658 899.415 108.658C898.169 108.658 897.343 107.837 897.327 106.436H903.027V105.845C903.027 102.974 901.301 101.712 899.288 101.712C896.944 101.712 895.415 103.432 895.415 105.957C895.415 108.525 896.923 110.16 899.389 110.16ZM897.333 105.137C897.391 104.093 898.164 103.214 899.314 103.214C900.422 103.214 901.168 104.023 901.179 105.137H897.333ZM905.108 110H907.037V105.025C907.037 104.018 907.708 103.336 908.539 103.336C909.354 103.336 909.913 103.885 909.913 104.727V110H911.804V104.897C911.804 103.975 912.353 103.336 913.285 103.336C914.062 103.336 914.68 103.794 914.68 104.806V110H916.614V104.508C916.614 102.681 915.559 101.712 914.057 101.712C912.869 101.712 911.964 102.298 911.602 103.208H911.516C911.202 102.282 910.408 101.712 909.306 101.712C908.208 101.712 907.388 102.276 907.047 103.208H906.951V101.818H905.108V110Z" fill="#6048E5"/>
<path d="M861.099 126.5H862.462V125.461C862.462 124.657 862.814 123.98 863.245 123.347L862.457 122.782C861.642 123.437 861.099 124.572 861.099 125.477V126.5ZM863.815 126.5H865.179V125.461C865.179 124.657 865.53 123.98 865.962 123.347L865.174 122.782C864.359 123.437 863.815 124.572 863.815 125.477V126.5ZM869.105 123.091H867.459V134H869.105V123.091ZM871.374 134H872.967V128.956C872.967 127.853 873.739 127.086 874.644 127.086C875.529 127.086 876.141 127.672 876.141 128.561V134H877.729V128.785C877.729 127.8 878.331 127.086 879.369 127.086C880.211 127.086 880.903 127.555 880.903 128.663V134H882.496V128.513C882.496 126.644 881.452 125.712 879.971 125.712C878.794 125.712 877.91 126.276 877.516 127.15H877.43C877.073 126.255 876.322 125.712 875.23 125.712C874.149 125.712 873.345 126.25 873.004 127.15H872.903V125.818H871.374V134ZM884.631 137.068H886.223V132.727H886.319C886.607 133.249 887.193 134.16 888.684 134.16C890.666 134.16 892.104 132.572 892.104 129.925C892.104 127.272 890.645 125.712 888.668 125.712C887.15 125.712 886.602 126.638 886.319 127.145H886.186V125.818H884.631V137.068ZM886.191 129.909C886.191 128.199 886.937 127.065 888.327 127.065C889.771 127.065 890.495 128.284 890.495 129.909C890.495 131.55 889.75 132.801 888.327 132.801C886.958 132.801 886.191 131.63 886.191 129.909ZM895.481 123.091H893.889V134H895.481V123.091ZM901.15 134.165C902.935 134.165 904.197 133.286 904.559 131.955L903.052 131.683C902.764 132.455 902.072 132.849 901.166 132.849C899.803 132.849 898.886 131.965 898.844 130.388H904.66V129.824C904.66 126.868 902.892 125.712 901.038 125.712C898.758 125.712 897.256 127.448 897.256 129.962C897.256 132.503 898.737 134.165 901.15 134.165ZM898.849 129.195C898.913 128.034 899.755 127.027 901.049 127.027C902.285 127.027 903.094 127.944 903.1 129.195H898.849ZM906.428 134H908.02V128.956C908.02 127.853 908.793 127.086 909.698 127.086C910.582 127.086 911.195 127.672 911.195 128.561V134H912.782V128.785C912.782 127.8 913.384 127.086 914.423 127.086C915.265 127.086 915.957 127.555 915.957 128.663V134H917.55V128.513C917.55 126.644 916.506 125.712 915.025 125.712C913.848 125.712 912.963 126.276 912.569 127.15H912.484C912.127 126.255 911.376 125.712 910.284 125.712C909.203 125.712 908.398 126.25 908.058 127.15H907.956V125.818H906.428V134ZM923.211 134.165C924.995 134.165 926.258 133.286 926.62 131.955L925.112 131.683C924.825 132.455 924.132 132.849 923.227 132.849C921.863 132.849 920.947 131.965 920.904 130.388H926.721V129.824C926.721 126.868 924.953 125.712 923.099 125.712C920.819 125.712 919.317 127.448 919.317 129.962C919.317 132.503 920.798 134.165 923.211 134.165ZM920.91 129.195C920.973 128.034 921.815 127.027 923.11 127.027C924.345 127.027 925.155 127.944 925.16 129.195H920.91ZM930.081 129.142C930.081 127.837 930.88 127.091 931.988 127.091C933.069 127.091 933.724 127.8 933.724 128.988V134H935.317V128.796C935.317 126.772 934.204 125.712 932.531 125.712C931.301 125.712 930.496 126.282 930.118 127.15H930.017V125.818H928.488V134H930.081V129.142ZM941.272 125.818H939.594V123.858H938.002V125.818H936.803V127.097H938.002V131.928C937.996 133.414 939.131 134.133 940.388 134.107C940.894 134.101 941.235 134.005 941.421 133.936L941.134 132.62C941.027 132.642 940.83 132.69 940.574 132.69C940.058 132.69 939.594 132.519 939.594 131.598V127.097H941.272V125.818ZM950.067 134.16C951.558 134.16 952.144 133.249 952.432 132.727H952.565V134H954.12V123.091H952.528V127.145H952.432C952.144 126.638 951.601 125.712 950.077 125.712C948.101 125.712 946.647 127.272 946.647 129.925C946.647 132.572 948.08 134.16 950.067 134.16ZM950.418 132.801C948.996 132.801 948.256 131.55 948.256 129.909C948.256 128.284 948.98 127.065 950.418 127.065C951.808 127.065 952.554 128.199 952.554 129.909C952.554 131.63 951.792 132.801 950.418 132.801ZM956.393 134H957.986V129.004C957.986 127.933 958.812 127.161 959.941 127.161C960.271 127.161 960.644 127.219 960.772 127.256V125.733C960.612 125.712 960.298 125.696 960.095 125.696C959.137 125.696 958.316 126.239 958.018 127.118H957.933V125.818H956.393V134ZM965.304 134.165C967.61 134.165 969.118 132.477 969.118 129.946C969.118 127.4 967.61 125.712 965.304 125.712C962.997 125.712 961.49 127.4 961.49 129.946C961.49 132.477 962.997 134.165 965.304 134.165ZM965.309 132.828C963.802 132.828 963.098 131.512 963.098 129.941C963.098 128.375 963.802 127.043 965.309 127.043C966.806 127.043 967.509 128.375 967.509 129.941C967.509 131.512 966.806 132.828 965.309 132.828ZM970.895 137.068H972.488V132.727H972.584C972.872 133.249 973.458 134.16 974.949 134.16C976.931 134.16 978.369 132.572 978.369 129.925C978.369 127.272 976.909 125.712 974.933 125.712C973.415 125.712 972.866 126.638 972.584 127.145H972.451V125.818H970.895V137.068ZM972.456 129.909C972.456 128.199 973.202 127.065 974.592 127.065C976.036 127.065 976.76 128.284 976.76 129.909C976.76 131.55 976.014 132.801 974.592 132.801C973.223 132.801 972.456 131.63 972.456 129.909ZM983.216 134.16C984.708 134.16 985.293 133.249 985.581 132.727H985.714V134H987.27V123.091H985.677V127.145H985.581C985.293 126.638 984.75 125.712 983.227 125.712C981.25 125.712 979.796 127.272 979.796 129.925C979.796 132.572 981.229 134.16 983.216 134.16ZM983.568 132.801C982.145 132.801 981.405 131.55 981.405 129.909C981.405 128.284 982.129 127.065 983.568 127.065C984.958 127.065 985.704 128.199 985.704 129.909C985.704 131.63 984.942 132.801 983.568 132.801ZM992.989 134.165C995.296 134.165 996.803 132.477 996.803 129.946C996.803 127.4 995.296 125.712 992.989 125.712C990.683 125.712 989.175 127.4 989.175 129.946C989.175 132.477 990.683 134.165 992.989 134.165ZM992.995 132.828C991.487 132.828 990.784 131.512 990.784 129.941C990.784 128.375 991.487 127.043 992.995 127.043C994.491 127.043 995.194 128.375 995.194 129.941C995.194 131.512 994.491 132.828 992.995 132.828ZM1000.11 134H1001.73L1003.39 128.093H1003.51L1005.17 134H1006.8L1009.2 125.818H1007.55L1005.96 131.8H1005.88L1004.28 125.818H1002.64L1001.03 131.827H1000.95L999.344 125.818H997.698L1000.11 134ZM1012.3 129.142C1012.3 127.837 1013.1 127.091 1014.21 127.091C1015.29 127.091 1015.95 127.8 1015.95 128.988V134H1017.54V128.796C1017.54 126.772 1016.43 125.712 1014.75 125.712C1013.52 125.712 1012.72 126.282 1012.34 127.15H1012.24V125.818H1010.71V134H1012.3V129.142ZM1023.64 134H1025.24V128.956C1025.24 127.853 1026.01 127.086 1026.91 127.086C1027.8 127.086 1028.41 127.672 1028.41 128.561V134H1030V128.785C1030 127.8 1030.6 127.086 1031.64 127.086C1032.48 127.086 1033.17 127.555 1033.17 128.663V134H1034.77V128.513C1034.77 126.644 1033.72 125.712 1032.24 125.712C1031.06 125.712 1030.18 126.276 1029.79 127.15H1029.7C1029.34 126.255 1028.59 125.712 1027.5 125.712C1026.42 125.712 1025.62 126.25 1025.27 127.15H1025.17V125.818H1023.64V134ZM1040.43 134.165C1042.21 134.165 1043.47 133.286 1043.84 131.955L1042.33 131.683C1042.04 132.455 1041.35 132.849 1040.44 132.849C1039.08 132.849 1038.16 131.965 1038.12 130.388H1043.94V129.824C1043.94 126.868 1042.17 125.712 1040.32 125.712C1038.04 125.712 1036.53 127.448 1036.53 129.962C1036.53 132.503 1038.01 134.165 1040.43 134.165ZM1038.13 129.195C1038.19 128.034 1039.03 127.027 1040.33 127.027C1041.56 127.027 1042.37 127.944 1042.38 129.195H1038.13ZM1047.3 129.142C1047.3 127.837 1048.1 127.091 1049.2 127.091C1050.29 127.091 1050.94 127.8 1050.94 128.988V134H1052.53V128.796C1052.53 126.772 1051.42 125.712 1049.75 125.712C1048.52 125.712 1047.71 126.282 1047.33 127.15H1047.23V125.818H1045.7V134H1047.3V129.142ZM1059.85 130.607C1059.86 131.997 1058.82 132.658 1057.93 132.658C1056.94 132.658 1056.26 131.944 1056.26 130.831V125.818H1054.67V131.022C1054.67 133.052 1055.78 134.107 1057.35 134.107C1058.58 134.107 1059.42 133.457 1059.8 132.583H1059.88V134H1061.45V125.818H1059.85V130.607ZM1065.18 123.091H1063.82V124.13C1063.82 124.955 1063.45 125.632 1063.04 126.244L1063.83 126.809C1064.65 126.148 1065.18 125.019 1065.18 124.114V123.091ZM1067.89 123.091H1066.53V124.13C1066.53 124.955 1066.16 125.632 1065.75 126.244L1066.54 126.809C1067.36 126.148 1067.89 125.019 1067.89 124.114V123.091Z" fill="#64778C"/>
<circle cx="1140" cy="202" r="8" fill="url(#paint10_linear_1601_17766)"/>
<path d="M1160.45 207.144C1161.86 207.144 1162.49 206.308 1162.8 205.711H1162.91V207H1164.81V196.091H1162.88V200.171H1162.8C1162.5 199.58 1161.9 198.712 1160.46 198.712C1158.57 198.712 1157.08 200.192 1157.08 202.92C1157.08 205.615 1158.52 207.144 1160.45 207.144ZM1160.99 205.562C1159.72 205.562 1159.05 204.443 1159.05 202.909C1159.05 201.386 1159.71 200.294 1160.99 200.294C1162.23 200.294 1162.91 201.322 1162.91 202.909C1162.91 204.496 1162.22 205.562 1160.99 205.562ZM1172.53 203.559C1172.53 204.805 1171.64 205.423 1170.79 205.423C1169.86 205.423 1169.24 204.768 1169.24 203.729V198.818H1167.31V204.028C1167.31 205.993 1168.43 207.107 1170.04 207.107C1171.27 207.107 1172.13 206.462 1172.5 205.546H1172.59V207H1174.46V198.818H1172.53V203.559ZM1180.51 207.16C1182.42 207.16 1183.73 206.228 1184.07 204.805L1182.27 204.603C1182.01 205.295 1181.37 205.658 1180.54 205.658C1179.29 205.658 1178.47 204.837 1178.45 203.436H1184.15V202.845C1184.15 199.974 1182.42 198.712 1180.41 198.712C1178.07 198.712 1176.54 200.432 1176.54 202.957C1176.54 205.525 1178.05 207.16 1180.51 207.16ZM1178.46 202.137C1178.51 201.093 1179.29 200.214 1180.44 200.214C1181.55 200.214 1182.29 201.023 1182.3 202.137H1178.46ZM1190.01 207C1193.34 207 1195.31 204.944 1195.31 201.535C1195.31 198.136 1193.34 196.091 1190.09 196.091H1186.32V207H1190.01ZM1188.29 205.29V197.801H1189.98C1192.19 197.801 1193.35 199.037 1193.35 201.535C1193.35 204.044 1192.19 205.29 1189.92 205.29H1188.29ZM1199.91 207.165C1201.19 207.165 1201.96 206.563 1202.31 205.876H1202.37V207H1204.22V201.524C1204.22 199.362 1202.46 198.712 1200.9 198.712C1199.18 198.712 1197.86 199.479 1197.43 200.97L1199.23 201.226C1199.43 200.667 1199.97 200.187 1200.91 200.187C1201.81 200.187 1202.3 200.645 1202.3 201.45V201.482C1202.3 202.036 1201.72 202.062 1200.27 202.217C1198.69 202.387 1197.17 202.861 1197.17 204.704C1197.17 206.313 1198.34 207.165 1199.91 207.165ZM1200.41 205.748C1199.6 205.748 1199.03 205.381 1199.03 204.672C1199.03 203.932 1199.67 203.623 1200.53 203.5C1201.04 203.431 1202.05 203.303 1202.3 203.101V204.065C1202.3 204.976 1201.57 205.748 1200.41 205.748ZM1210.7 198.818H1209.09V196.858H1207.16V198.818H1206V200.31H1207.16V204.859C1207.15 206.398 1208.27 207.154 1209.71 207.112C1210.26 207.096 1210.64 206.989 1210.85 206.92L1210.52 205.413C1210.42 205.439 1210.2 205.487 1209.96 205.487C1209.47 205.487 1209.09 205.317 1209.09 204.539V200.31H1210.7V198.818ZM1216.3 207.16C1218.2 207.16 1219.51 206.228 1219.85 204.805L1218.05 204.603C1217.79 205.295 1217.15 205.658 1216.32 205.658C1215.08 205.658 1214.25 204.837 1214.23 203.436H1219.93V202.845C1219.93 199.974 1218.21 198.712 1216.2 198.712C1213.85 198.712 1212.32 200.432 1212.32 202.957C1212.32 205.525 1213.83 207.16 1216.3 207.16ZM1214.24 202.137C1214.3 201.093 1215.07 200.214 1216.22 200.214C1217.33 200.214 1218.08 201.023 1218.09 202.137H1214.24Z" fill="#6048E5"/>
<path d="M1161.56 220.091H1159.96L1157.24 221.87V223.447L1159.85 221.742H1159.91V231H1161.56V220.091ZM1164.88 231H1166.6L1171.35 221.55V220.091H1164.14V221.502H1169.64V221.582L1164.88 231ZM1177.38 219.58H1175.95L1172.44 232.641H1173.86L1177.38 219.58ZM1182.85 220.091H1181.24L1178.52 221.87V223.447L1181.13 221.742H1181.2V231H1182.85V220.091ZM1189.94 220.091H1188.33L1185.61 221.87V223.447L1188.22 221.742H1188.28V231H1189.94V220.091ZM1197.06 219.58H1195.64L1192.13 232.641H1193.55L1197.06 219.58ZM1198.4 231H1205.58V229.588H1200.66V229.509L1202.83 227.239C1204.83 225.221 1205.4 224.256 1205.4 223.037C1205.4 221.284 1203.97 219.942 1201.92 219.942C1199.88 219.942 1198.38 221.263 1198.38 223.255H1199.96C1199.95 222.083 1200.71 221.316 1201.88 221.316C1202.99 221.316 1203.83 221.998 1203.83 223.085C1203.83 224.049 1203.26 224.741 1202.09 225.982L1198.4 229.807V231ZM1211.39 231.181C1213.91 231.181 1215.39 229.125 1215.39 225.551C1215.39 222.003 1213.89 219.942 1211.39 219.942C1208.89 219.942 1207.4 221.998 1207.39 225.551C1207.39 229.12 1208.87 231.176 1211.39 231.181ZM1211.39 229.759C1209.92 229.759 1209.03 228.278 1209.03 225.551C1209.03 222.834 1209.92 221.337 1211.39 221.337C1212.86 221.337 1213.75 222.834 1213.75 225.551C1213.75 228.278 1212.86 229.759 1211.39 229.759ZM1217.28 231H1224.46V229.588H1219.55V229.509L1221.71 227.239C1223.71 225.221 1224.28 224.256 1224.28 223.037C1224.28 221.284 1222.85 219.942 1220.8 219.942C1218.76 219.942 1217.27 221.263 1217.27 223.255H1218.84C1218.83 222.083 1219.59 221.316 1220.77 221.316C1221.87 221.316 1222.72 221.998 1222.72 223.085C1222.72 224.049 1222.14 224.741 1220.97 225.982L1217.28 229.807V231ZM1226.48 231H1233.66V229.588H1228.75V229.509L1230.91 227.239C1232.91 225.221 1233.48 224.256 1233.48 223.037C1233.48 221.284 1232.05 219.942 1230 219.942C1227.96 219.942 1226.47 221.263 1226.47 223.255H1228.04C1228.03 222.083 1228.79 221.316 1229.97 221.316C1231.07 221.316 1231.91 221.998 1231.91 223.085C1231.91 224.049 1231.34 224.741 1230.17 225.982L1226.48 229.807V231Z" fill="#64778C"/>
<circle cx="979" cy="255" r="8" fill="url(#paint11_linear_1601_17766)"/>
<path d="M998.34 249.091H996.411V260H998.34V249.091ZM1000.77 260H1002.7V251.818H1000.77V260ZM1001.74 250.657C1002.35 250.657 1002.86 250.188 1002.86 249.613C1002.86 249.032 1002.35 248.564 1001.74 248.564C1001.12 248.564 1000.62 249.032 1000.62 249.613C1000.62 250.188 1001.12 250.657 1001.74 250.657ZM1011.6 253.981C1011.33 252.596 1010.23 251.712 1008.31 251.712C1006.34 251.712 1005 252.681 1005 254.194C1005 255.387 1005.73 256.175 1007.3 256.5L1008.7 256.793C1009.45 256.958 1009.8 257.262 1009.8 257.725C1009.8 258.285 1009.19 258.706 1008.28 258.706C1007.39 258.706 1006.82 258.322 1006.65 257.587L1004.77 257.768C1005.01 259.27 1006.27 260.16 1008.28 260.16C1010.33 260.16 1011.77 259.1 1011.78 257.55C1011.77 256.383 1011.02 255.669 1009.47 255.334L1008.08 255.036C1007.25 254.849 1006.92 254.561 1006.92 254.087C1006.92 253.533 1007.53 253.15 1008.33 253.15C1009.22 253.15 1009.69 253.635 1009.84 254.173L1011.6 253.981ZM1017.9 251.818H1016.29V249.858H1014.36V251.818H1013.2V253.31H1014.36V257.859C1014.35 259.398 1015.47 260.154 1016.92 260.112C1017.46 260.096 1017.84 259.989 1018.05 259.92L1017.73 258.413C1017.62 258.439 1017.4 258.487 1017.16 258.487C1016.68 258.487 1016.29 258.317 1016.29 257.539V253.31H1017.9V251.818ZM1022.2 249.091H1020.23V260H1022.2V249.091ZM1028.79 251.818H1027.18V249.858H1025.25V251.818H1024.09V253.31H1025.25V257.859C1025.24 259.398 1026.36 260.154 1027.81 260.112C1028.36 260.096 1028.73 259.989 1028.94 259.92L1028.62 258.413C1028.51 258.439 1028.29 258.487 1028.05 258.487C1027.57 258.487 1027.18 258.317 1027.18 257.539V253.31H1028.79V251.818ZM1034.39 260.16C1036.3 260.16 1037.61 259.228 1037.95 257.805L1036.15 257.603C1035.89 258.295 1035.25 258.658 1034.42 258.658C1033.17 258.658 1032.34 257.837 1032.33 256.436H1038.03V255.845C1038.03 252.974 1036.3 251.712 1034.29 251.712C1031.94 251.712 1030.42 253.432 1030.42 255.957C1030.42 258.525 1031.92 260.16 1034.39 260.16ZM1032.33 255.137C1032.39 254.093 1033.16 253.214 1034.31 253.214C1035.42 253.214 1036.17 254.023 1036.18 255.137H1032.33ZM1040.11 260H1042.04V255.025C1042.04 254.018 1042.71 253.336 1043.54 253.336C1044.35 253.336 1044.91 253.885 1044.91 254.727V260H1046.8V254.897C1046.8 253.975 1047.35 253.336 1048.28 253.336C1049.06 253.336 1049.68 253.794 1049.68 254.806V260H1051.61V254.508C1051.61 252.681 1050.56 251.712 1049.06 251.712C1047.87 251.712 1046.96 252.298 1046.6 253.208H1046.52C1046.2 252.282 1045.41 251.712 1044.31 251.712C1043.21 251.712 1042.39 252.276 1042.05 253.208H1041.95V251.818H1040.11V260Z" fill="#6048E5"/>
<path d="M995.969 276.5H997.332V275.461C997.332 274.657 997.684 273.98 998.115 273.347L997.327 272.782C996.512 273.437 995.969 274.572 995.969 275.477V276.5ZM998.685 276.5H1000.05V275.461C1000.05 274.657 1000.4 273.98 1000.83 273.347L1000.04 272.782C999.229 273.437 998.685 274.572 998.685 275.477V276.5ZM1004.46 284H1006.13L1008.42 275.829H1008.51L1010.8 284H1012.46L1015.49 273.091H1013.75L1011.63 281.544H1011.53L1009.32 273.091H1007.61L1005.4 281.539H1005.3L1003.17 273.091H1001.44L1004.46 284ZM1016.35 284H1017.94V279.004C1017.94 277.933 1018.77 277.161 1019.9 277.161C1020.23 277.161 1020.6 277.219 1020.73 277.256V275.733C1020.57 275.712 1020.26 275.696 1020.05 275.696C1019.09 275.696 1018.27 276.239 1017.98 277.118H1017.89V275.818H1016.35V284ZM1022.11 284H1023.7V275.818H1022.11V284ZM1022.91 274.556C1023.46 274.556 1023.92 274.13 1023.92 273.608C1023.92 273.086 1023.46 272.654 1022.91 272.654C1022.36 272.654 1021.91 273.086 1021.91 273.608C1021.91 274.13 1022.36 274.556 1022.91 274.556ZM1029.66 275.818H1027.98V273.858H1026.39V275.818H1025.19V277.097H1026.39V281.928C1026.39 283.414 1027.52 284.133 1028.78 284.107C1029.28 284.101 1029.63 284.005 1029.81 283.936L1029.52 282.62C1029.42 282.642 1029.22 282.69 1028.97 282.69C1028.45 282.69 1027.98 282.519 1027.98 281.598V277.097H1029.66V275.818ZM1034.86 284.165C1036.65 284.165 1037.91 283.286 1038.27 281.955L1036.76 281.683C1036.48 282.455 1035.78 282.849 1034.88 282.849C1033.52 282.849 1032.6 281.965 1032.56 280.388H1038.37V279.824C1038.37 276.868 1036.6 275.712 1034.75 275.712C1032.47 275.712 1030.97 277.448 1030.97 279.962C1030.97 282.503 1032.45 284.165 1034.86 284.165ZM1032.56 279.195C1032.63 278.034 1033.47 277.027 1034.76 277.027C1036 277.027 1036.81 277.944 1036.81 279.195H1032.56ZM1047.93 275.818H1046.25V273.858H1044.66V275.818H1043.46V277.097H1044.66V281.928C1044.65 283.414 1045.79 284.133 1047.05 284.107C1047.55 284.101 1047.89 284.005 1048.08 283.936L1047.79 282.62C1047.68 282.642 1047.49 282.69 1047.23 282.69C1046.71 282.69 1046.25 282.519 1046.25 281.598V277.097H1047.93V275.818ZM1053.13 284.165C1054.91 284.165 1056.18 283.286 1056.54 281.955L1055.03 281.683C1054.74 282.455 1054.05 282.849 1053.15 282.849C1051.78 282.849 1050.87 281.965 1050.82 280.388H1056.64V279.824C1056.64 276.868 1054.87 275.712 1053.02 275.712C1050.74 275.712 1049.24 277.448 1049.24 279.962C1049.24 282.503 1050.72 284.165 1053.13 284.165ZM1050.83 279.195C1050.89 278.034 1051.73 277.027 1053.03 277.027C1054.26 277.027 1055.07 277.944 1055.08 279.195H1050.83ZM1064.54 277.816C1064.21 276.543 1063.21 275.712 1061.44 275.712C1059.59 275.712 1058.28 276.686 1058.28 278.135C1058.28 279.297 1058.99 280.069 1060.52 280.41L1061.91 280.713C1062.7 280.889 1063.06 281.241 1063.06 281.752C1063.06 282.386 1062.39 282.881 1061.34 282.881C1060.39 282.881 1059.78 282.471 1059.58 281.667L1058.04 281.901C1058.31 283.35 1059.52 284.165 1061.35 284.165C1063.33 284.165 1064.7 283.116 1064.7 281.635C1064.7 280.479 1063.96 279.765 1062.46 279.419L1061.16 279.121C1060.26 278.908 1059.87 278.604 1059.88 278.05C1059.87 277.422 1060.55 276.974 1061.46 276.974C1062.45 276.974 1062.91 277.523 1063.09 278.071L1064.54 277.816ZM1070.27 275.818H1068.59V273.858H1067V275.818H1065.8V277.097H1067V281.928C1066.99 283.414 1068.13 284.133 1069.38 284.107C1069.89 284.101 1070.23 284.005 1070.42 283.936L1070.13 282.62C1070.02 282.642 1069.83 282.69 1069.57 282.69C1069.05 282.69 1068.59 282.519 1068.59 281.598V277.097H1070.27V275.818ZM1078.03 277.816C1077.7 276.543 1076.7 275.712 1074.93 275.712C1073.09 275.712 1071.78 276.686 1071.78 278.135C1071.78 279.297 1072.48 280.069 1074.01 280.41L1075.4 280.713C1076.19 280.889 1076.55 281.241 1076.55 281.752C1076.55 282.386 1075.88 282.881 1074.83 282.881C1073.88 282.881 1073.27 282.471 1073.08 281.667L1071.54 281.901C1071.8 283.35 1073.01 284.165 1074.84 284.165C1076.82 284.165 1078.19 283.116 1078.19 281.635C1078.19 280.479 1077.45 279.765 1075.95 279.419L1074.65 279.121C1073.75 278.908 1073.36 278.604 1073.37 278.05C1073.36 277.422 1074.04 276.974 1074.95 276.974C1075.94 276.974 1076.4 277.523 1076.59 278.071L1078.03 277.816ZM1081.31 273.091H1079.95V274.13C1079.95 274.955 1079.58 275.632 1079.17 276.244L1079.96 276.809C1080.78 276.148 1081.31 275.019 1081.31 274.114V273.091ZM1084.02 273.091H1082.66V274.13C1082.66 274.955 1082.29 275.632 1081.88 276.244L1082.67 276.809C1083.49 276.148 1084.02 275.019 1084.02 274.114V273.091Z" fill="#64778C"/>
<circle opacity="0.1" cx="717" cy="297" r="69.5" stroke="#6048E5"/>
<circle opacity="0.1" cx="717" cy="297" r="18.5" stroke="#6048E5"/>
<circle opacity="0.3" cx="717" cy="297" r="15" stroke="#6048E5" stroke-width="2"/>
<circle cx="717" cy="297" r="9" fill="url(#paint12_linear_1601_17766)"/>
<path d="M686.453 333H688.429V329.314H690.517C693.037 329.314 694.39 327.801 694.39 325.702C694.39 323.62 693.053 322.091 690.544 322.091H686.453V333ZM688.429 327.689V323.742H690.24C691.721 323.742 692.376 324.541 692.376 325.702C692.376 326.864 691.721 327.689 690.251 327.689H688.429ZM696.556 333H703.694V331.343H698.532V328.366H703.284V326.709H698.532V323.748H703.651V322.091H696.556V333ZM706.118 333H708.094V329.005H710.107L712.249 333H714.454L712.094 328.675C713.378 328.158 714.054 327.061 714.054 325.58C714.054 323.497 712.712 322.091 710.209 322.091H706.118V333ZM708.094 327.364V323.742H709.905C711.38 323.742 712.041 324.419 712.041 325.58C712.041 326.741 711.38 327.364 709.916 327.364H708.094ZM722.252 325.09H724.154C724.116 323.247 722.545 321.942 720.223 321.942C717.932 321.942 716.212 323.231 716.217 325.159C716.217 326.725 717.33 327.625 719.125 328.089L720.366 328.408C721.544 328.707 722.321 329.074 722.327 329.921C722.321 330.853 721.437 331.477 720.148 331.477C718.912 331.477 717.953 330.923 717.874 329.777H715.929C716.009 331.945 717.623 333.165 720.164 333.165C722.779 333.165 724.298 331.86 724.303 329.937C724.298 328.046 722.737 327.183 721.096 326.794L720.073 326.539C719.179 326.326 718.209 325.947 718.22 325.037C718.225 324.216 718.96 323.614 720.196 323.614C721.373 323.614 722.151 324.163 722.252 325.09ZM736.263 327.545C736.263 324.019 734.111 321.942 731.25 321.942C728.384 321.942 726.238 324.019 726.238 327.545C726.238 331.066 728.384 333.149 731.25 333.149C734.111 333.149 736.263 331.072 736.263 327.545ZM734.276 327.545C734.276 330.028 733.029 331.375 731.25 331.375C729.476 331.375 728.225 330.028 728.225 327.545C728.225 325.063 729.476 323.716 731.25 323.716C733.029 323.716 734.276 325.063 734.276 327.545ZM747.546 322.091H745.58V329.527H745.484L740.349 322.091H738.581V333H740.557V325.569H740.648L745.788 333H747.546V322.091Z" fill="#6048E5"/>
<rect y="-1" width="1437" height="99" fill="url(#paint13_linear_1601_17766)"/>
<defs>
<linearGradient id="paint0_linear_1601_17766" x1="511" y1="274" x2="511" y2="290" gradientUnits="userSpaceOnUse">
<stop stop-color="#7963F5"/>
<stop offset="1" stop-color="#5D46DB"/>
</linearGradient>
<linearGradient id="paint1_linear_1601_17766" x1="802" y1="198.001" x2="841.278" y2="197.176" gradientUnits="userSpaceOnUse">
<stop stop-color="#BDB4FE"/>
<stop offset="1" stop-color="#BDB4FE" stop-opacity="0"/>
</linearGradient>
<linearGradient id="paint2_linear_1601_17766" x1="808" y1="211" x2="970.62" y2="242.07" gradientUnits="userSpaceOnUse">
<stop stop-color="#BDB4FE" stop-opacity="0"/>
<stop offset="1" stop-color="#BDB4FE"/>
</linearGradient>
<linearGradient id="paint3_linear_1601_17766" x1="948.245" y1="246.529" x2="1131.32" y2="208.307" gradientUnits="userSpaceOnUse">
<stop stop-color="#BDB4FE" stop-opacity="0"/>
<stop offset="1" stop-color="#BDB4FE"/>
</linearGradient>
<linearGradient id="paint4_linear_1601_17766" x1="698" y1="297" x2="576.758" y2="211.365" gradientUnits="userSpaceOnUse">
<stop stop-color="#BDB4FE"/>
<stop offset="1" stop-color="#BDB4FE" stop-opacity="0"/>
</linearGradient>
<linearGradient id="paint5_linear_1601_17766" x1="705" y1="286.001" x2="583.301" y2="279.727" gradientUnits="userSpaceOnUse">
<stop stop-color="#BDB4FE"/>
<stop offset="1" stop-color="#BDB4FE" stop-opacity="0"/>
</linearGradient>
<linearGradient id="paint6_linear_1601_17766" x1="579" y1="160" x2="579" y2="176" gradientUnits="userSpaceOnUse">
<stop stop-color="#7963F5"/>
<stop offset="1" stop-color="#5D46DB"/>
</linearGradient>
<linearGradient id="paint7_linear_1601_17766" x1="799" y1="198" x2="799" y2="214" gradientUnits="userSpaceOnUse">
<stop stop-color="#7963F5"/>
<stop offset="1" stop-color="#5D46DB"/>
</linearGradient>
<linearGradient id="paint8_linear_1601_17766" x1="716" y1="340" x2="745.082" y2="351.038" gradientUnits="userSpaceOnUse">
<stop stop-color="#BDB4FE"/>
<stop offset="1" stop-color="#BDB4FE" stop-opacity="0"/>
</linearGradient>
<linearGradient id="paint9_linear_1601_17766" x1="844" y1="97" x2="844" y2="113" gradientUnits="userSpaceOnUse">
<stop stop-color="#7963F5"/>
<stop offset="1" stop-color="#5D46DB"/>
</linearGradient>
<linearGradient id="paint10_linear_1601_17766" x1="1140" y1="194" x2="1140" y2="210" gradientUnits="userSpaceOnUse">
<stop stop-color="#7963F5"/>
<stop offset="1" stop-color="#5D46DB"/>
</linearGradient>
<linearGradient id="paint11_linear_1601_17766" x1="979" y1="247" x2="979" y2="263" gradientUnits="userSpaceOnUse">
<stop stop-color="#7963F5"/>
<stop offset="1" stop-color="#5D46DB"/>
</linearGradient>
<linearGradient id="paint12_linear_1601_17766" x1="717" y1="288" x2="717" y2="306" gradientUnits="userSpaceOnUse">
<stop stop-color="#7963F5"/>
<stop offset="1" stop-color="#5D46DB"/>
</linearGradient>
<linearGradient id="paint13_linear_1601_17766" x1="718.5" y1="-1" x2="718.5" y2="98" gradientUnits="userSpaceOnUse">
<stop stop-color="white"/>
<stop offset="1" stop-color="white" stop-opacity="0"/>
</linearGradient>
</defs>
</svg>
