<svg width="1036" height="305" viewBox="0 0 1036 305" fill="none" xmlns="http://www.w3.org/2000/svg">
<path d="M595 121L529 193" stroke="url(#paint0_linear_1601_17765)"/>
<path d="M225.483 185.818H223.784V185.174C223.784 184.534 224.05 184.178 224.769 184.178C225.073 184.178 225.328 184.247 225.488 184.295L225.877 182.803C225.627 182.718 225.078 182.58 224.412 182.58C222.99 182.58 221.855 183.395 221.855 185.046V185.818H220.646V187.31H221.855V194H223.784V187.31H225.483V185.818ZM227.443 194H229.371V185.818H227.443V194ZM228.412 184.657C229.025 184.657 229.526 184.188 229.526 183.613C229.526 183.032 229.025 182.564 228.412 182.564C227.795 182.564 227.294 183.032 227.294 183.613C227.294 184.188 227.795 184.657 228.412 184.657ZM231.804 194H233.732V189.19C233.732 188.151 234.515 187.416 235.575 187.416C235.9 187.416 236.305 187.475 236.47 187.528V185.754C236.295 185.722 235.991 185.701 235.778 185.701C234.84 185.701 234.057 186.234 233.759 187.182H233.674V185.818H231.804V194ZM244.668 187.981C244.402 186.596 243.294 185.712 241.376 185.712C239.405 185.712 238.063 186.681 238.068 188.194C238.063 189.387 238.798 190.175 240.369 190.5L241.765 190.793C242.516 190.958 242.868 191.262 242.868 191.725C242.868 192.285 242.26 192.706 241.344 192.706C240.46 192.706 239.885 192.322 239.72 191.587L237.839 191.768C238.079 193.27 239.341 194.16 241.349 194.16C243.395 194.16 244.838 193.1 244.844 191.55C244.838 190.383 244.087 189.669 242.543 189.334L241.147 189.036C240.316 188.849 239.986 188.561 239.991 188.087C239.986 187.533 240.598 187.15 241.403 187.15C242.292 187.15 242.761 187.635 242.91 188.173L244.668 187.981ZM250.969 185.818H249.355V183.858H247.427V185.818H246.266V187.31H247.427V191.859C247.417 193.398 248.535 194.154 249.984 194.112C250.533 194.096 250.911 193.989 251.119 193.92L250.794 192.413C250.687 192.439 250.469 192.487 250.229 192.487C249.744 192.487 249.355 192.317 249.355 191.539V187.31H250.969V185.818ZM262.258 183.091H260.292V190.527H260.196L255.062 183.091H253.293V194H255.269V186.569H255.36L260.5 194H262.258V183.091ZM267.13 194.165C268.414 194.165 269.181 193.563 269.533 192.876H269.597V194H271.45V188.524C271.45 186.362 269.687 185.712 268.127 185.712C266.406 185.712 265.085 186.479 264.659 187.97L266.459 188.226C266.651 187.667 267.194 187.187 268.137 187.187C269.032 187.187 269.522 187.645 269.522 188.45V188.482C269.522 189.036 268.942 189.062 267.498 189.217C265.911 189.387 264.392 189.861 264.392 191.704C264.392 193.313 265.57 194.165 267.13 194.165ZM267.631 192.748C266.827 192.748 266.252 192.381 266.252 191.672C266.252 190.932 266.896 190.623 267.759 190.5C268.265 190.431 269.277 190.303 269.527 190.101V191.065C269.527 191.976 268.792 192.748 267.631 192.748ZM273.839 194H275.768V189.025C275.768 188.018 276.439 187.336 277.27 187.336C278.085 187.336 278.644 187.885 278.644 188.727V194H280.535V188.897C280.535 187.975 281.084 187.336 282.016 187.336C282.793 187.336 283.411 187.794 283.411 188.806V194H285.345V188.508C285.345 186.681 284.29 185.712 282.788 185.712C281.6 185.712 280.695 186.298 280.333 187.208H280.247C279.933 186.282 279.139 185.712 278.037 185.712C276.939 185.712 276.119 186.276 275.778 187.208H275.682V185.818H273.839V194ZM291.373 194.16C293.28 194.16 294.591 193.228 294.932 191.805L293.131 191.603C292.87 192.295 292.231 192.658 291.4 192.658C290.154 192.658 289.328 191.837 289.312 190.436H295.012V189.845C295.012 186.974 293.286 185.712 291.272 185.712C288.928 185.712 287.4 187.432 287.4 189.957C287.4 192.525 288.907 194.16 291.373 194.16ZM289.317 189.137C289.376 188.093 290.148 187.214 291.299 187.214C292.407 187.214 293.152 188.023 293.163 189.137H289.317Z" fill="#6048E5"/>
<path d="M221.681 207.091V218H223.247V210.1H223.349L226.566 217.984H227.866L231.083 210.106H231.184V218H232.75V207.091H230.753L227.28 215.571H227.152L223.679 207.091H221.681ZM237.397 218.181C238.75 218.181 239.511 217.494 239.815 216.881H239.879V218H241.434V212.567C241.434 210.186 239.559 209.712 238.259 209.712C236.779 209.712 235.415 210.308 234.882 211.8L236.379 212.141C236.614 211.56 237.21 211.001 238.281 211.001C239.309 211.001 239.836 211.539 239.836 212.466V212.503C239.836 213.083 239.24 213.073 237.769 213.243C236.219 213.424 234.632 213.829 234.632 215.688C234.632 217.297 235.841 218.181 237.397 218.181ZM237.743 216.903C236.843 216.903 236.193 216.498 236.193 215.71C236.193 214.857 236.949 214.554 237.871 214.431C238.387 214.362 239.612 214.223 239.841 213.994V215.049C239.841 216.018 239.069 216.903 237.743 216.903ZM243.556 218H245.148V213.004C245.148 211.933 245.974 211.161 247.103 211.161C247.433 211.161 247.806 211.219 247.934 211.256V209.733C247.774 209.712 247.46 209.696 247.258 209.696C246.299 209.696 245.478 210.239 245.18 211.118H245.095V209.818H243.556V218ZM249.312 218H250.905V209.818H249.312V218ZM250.117 208.556C250.665 208.556 251.123 208.13 251.123 207.608C251.123 207.086 250.665 206.654 250.117 206.654C249.563 206.654 249.11 207.086 249.11 207.608C249.11 208.13 249.563 208.556 250.117 208.556ZM255.429 218.181C256.782 218.181 257.543 217.494 257.847 216.881H257.911V218H259.466V212.567C259.466 210.186 257.591 209.712 256.292 209.712C254.811 209.712 253.447 210.308 252.915 211.8L254.411 212.141C254.646 211.56 255.242 211.001 256.313 211.001C257.341 211.001 257.868 211.539 257.868 212.466V212.503C257.868 213.083 257.272 213.073 255.802 213.243C254.252 213.424 252.664 213.829 252.664 215.688C252.664 217.297 253.873 218.181 255.429 218.181ZM255.775 216.903C254.875 216.903 254.225 216.498 254.225 215.71C254.225 214.857 254.981 214.554 255.903 214.431C256.42 214.362 257.645 214.223 257.874 213.994V215.049C257.874 216.018 257.101 216.903 255.775 216.903Z" fill="#64778C"/>
<circle cx="312" cy="189" r="8" fill="url(#paint1_linear_1601_17765)"/>
<path d="M641 18L603 105" stroke="url(#paint2_linear_1601_17765)"/>
<path d="M772 159L609 118" stroke="url(#paint3_linear_1601_17765)"/>
<path d="M934 111L790 157" stroke="url(#paint4_linear_1601_17765)"/>
<path d="M324 191L499 204" stroke="url(#paint5_linear_1601_17765)"/>
<path d="M388 83L506 193" stroke="url(#paint6_linear_1601_17765)"/>
<path d="M318.464 80H320.393V71.8182H318.464V80ZM319.434 70.657C320.046 70.657 320.547 70.1882 320.547 69.6129C320.547 69.0323 320.046 68.5636 319.434 68.5636C318.816 68.5636 318.315 69.0323 318.315 69.6129C318.315 70.1882 318.816 70.657 319.434 70.657ZM322.825 80H324.754V75.0249C324.754 74.0181 325.425 73.3363 326.256 73.3363C327.071 73.3363 327.63 73.8849 327.63 74.7266V80H329.521V74.897C329.521 73.9755 330.07 73.3363 331.002 73.3363C331.78 73.3363 332.398 73.7944 332.398 74.8065V80H334.331V74.5082C334.331 72.6811 333.276 71.7116 331.774 71.7116C330.586 71.7116 329.681 72.2976 329.319 73.2085H329.233C328.919 72.2816 328.126 71.7116 327.023 71.7116C325.926 71.7116 325.105 72.2763 324.764 73.2085H324.668V71.8182H322.825V80ZM339.092 80.1651C340.375 80.1651 341.143 79.5632 341.494 78.8761H341.558V80H343.412V74.5241C343.412 72.3615 341.649 71.7116 340.088 71.7116C338.367 71.7116 337.046 72.4787 336.62 73.9702L338.421 74.2259C338.612 73.6665 339.156 73.1871 340.098 73.1871C340.993 73.1871 341.483 73.6452 341.483 74.4496V74.4815C341.483 75.0355 340.903 75.0621 339.459 75.2166C337.872 75.3871 336.354 75.8612 336.354 77.7042C336.354 79.3129 337.531 80.1651 339.092 80.1651ZM339.592 78.7482C338.788 78.7482 338.213 78.3807 338.213 77.6722C338.213 76.9318 338.857 76.6229 339.72 76.5004C340.226 76.4311 341.238 76.3033 341.489 76.1009V77.065C341.489 77.9759 340.754 78.7482 339.592 78.7482ZM349.359 83.2386C351.569 83.2386 353.199 82.2266 353.199 80.1332V71.8182H351.298V73.1712H351.191C350.898 72.5799 350.286 71.7116 348.842 71.7116C346.951 71.7116 345.465 73.1925 345.465 75.8825C345.465 78.5511 346.951 79.8828 348.837 79.8828C350.238 79.8828 350.893 79.1317 351.191 78.5298H351.287V80.0799C351.287 81.2837 350.488 81.7791 349.391 81.7791C348.23 81.7791 347.718 81.2305 347.484 80.7511L345.747 81.1719C346.099 82.3171 347.276 83.2386 349.359 83.2386ZM349.375 78.37C348.102 78.37 347.431 77.3793 347.431 75.8718C347.431 74.3857 348.091 73.2937 349.375 73.2937C350.616 73.2937 351.298 74.3217 351.298 75.8718C351.298 77.4325 350.605 78.37 349.375 78.37ZM359.248 80.1598C361.155 80.1598 362.465 79.2276 362.806 77.8054L361.006 77.603C360.745 78.2955 360.105 78.6577 359.274 78.6577C358.028 78.6577 357.202 77.8374 357.186 76.4364H362.886V75.8452C362.886 72.9741 361.16 71.7116 359.147 71.7116C356.803 71.7116 355.274 73.4322 355.274 75.957C355.274 78.5245 356.782 80.1598 359.248 80.1598ZM357.192 75.1367C357.25 74.0927 358.023 73.2138 359.173 73.2138C360.281 73.2138 361.027 74.0234 361.038 75.1367H357.192Z" fill="#6048E5"/>
<path d="M236.139 99.142C236.139 97.837 236.965 97.0913 238.099 97.0913C239.196 97.0913 239.852 97.7891 239.852 98.9876V104H241.444V98.7958C241.444 96.7557 240.326 95.7116 238.642 95.7116C237.369 95.7116 236.602 96.2656 236.219 97.1499H236.118V93.0909H234.546V104H236.139V99.142ZM247.389 95.8182H245.711V93.858H244.118V95.8182H242.92V97.0966H244.118V101.928C244.113 103.414 245.248 104.133 246.505 104.107C247.011 104.101 247.352 104.005 247.538 103.936L247.25 102.62C247.144 102.642 246.947 102.69 246.691 102.69C246.174 102.69 245.711 102.519 245.711 101.598V97.0966H247.389V95.8182ZM252.97 95.8182H251.292V93.858H249.699V95.8182H248.501V97.0966H249.699V101.928C249.694 103.414 250.829 104.133 252.086 104.107C252.592 104.101 252.933 104.005 253.119 103.936L252.831 102.62C252.725 102.642 252.528 102.69 252.272 102.69C251.756 102.69 251.292 102.519 251.292 101.598V97.0966H252.97V95.8182ZM254.732 107.068H256.324V102.727H256.42C256.708 103.249 257.294 104.16 258.785 104.16C260.767 104.16 262.205 102.572 262.205 99.9251C262.205 97.2724 260.746 95.7116 258.769 95.7116C257.251 95.7116 256.703 96.6385 256.42 97.1445H256.287V95.8182H254.732V107.068ZM256.293 99.9091C256.293 98.1992 257.038 97.0646 258.429 97.0646C259.872 97.0646 260.597 98.2844 260.597 99.9091C260.597 101.55 259.851 102.801 258.429 102.801C257.06 102.801 256.293 101.63 256.293 99.9091ZM270.121 97.8157C269.79 96.5426 268.794 95.7116 267.026 95.7116C265.177 95.7116 263.867 96.6864 263.867 98.1353C263.867 99.2965 264.57 100.069 266.104 100.41L267.489 100.713C268.278 100.889 268.645 101.241 268.645 101.752C268.645 102.386 267.969 102.881 266.925 102.881C265.971 102.881 265.359 102.471 265.167 101.667L263.627 101.901C263.894 103.35 265.098 104.165 266.935 104.165C268.911 104.165 270.28 103.116 270.28 101.635C270.28 100.479 269.545 99.7653 268.043 99.419L266.744 99.1207C265.843 98.9077 265.454 98.604 265.46 98.0501C265.454 97.4215 266.136 96.9741 267.042 96.9741C268.033 96.9741 268.491 97.5227 268.677 98.0714L270.121 97.8157ZM273.081 98.146C273.662 98.146 274.146 97.6719 274.146 97.0806C274.146 96.5 273.662 96.0206 273.081 96.0206C272.495 96.0206 272.016 96.5 272.016 97.0806C272.016 97.6719 272.495 98.146 273.081 98.146ZM273.081 104.101C273.662 104.101 274.146 103.627 274.146 103.036C274.146 102.455 273.662 101.976 273.081 101.976C272.495 101.976 272.016 102.455 272.016 103.036C272.016 103.627 272.495 104.101 273.081 104.101ZM280.434 92.5795H279.012L275.497 105.641H276.919L280.434 92.5795ZM285.942 92.5795H284.52L281.004 105.641H282.427L285.942 92.5795ZM287.295 107.068H288.888V102.727H288.984C289.271 103.249 289.857 104.16 291.349 104.16C293.33 104.16 294.769 102.572 294.769 99.9251C294.769 97.2724 293.309 95.7116 291.333 95.7116C289.815 95.7116 289.266 96.6385 288.984 97.1445H288.851V95.8182H287.295V107.068ZM288.856 99.9091C288.856 98.1992 289.602 97.0646 290.992 97.0646C292.436 97.0646 293.16 98.2844 293.16 99.9091C293.16 101.55 292.414 102.801 290.992 102.801C289.623 102.801 288.856 101.63 288.856 99.9091ZM296.553 104H298.146V99.0036C298.146 97.9329 298.971 97.1605 300.101 97.1605C300.431 97.1605 300.804 97.2191 300.932 97.2564V95.733C300.772 95.7116 300.458 95.6957 300.255 95.6957C299.296 95.6957 298.476 96.239 298.178 97.1179H298.093V95.8182H296.553V104ZM305.463 104.165C307.77 104.165 309.277 102.477 309.277 99.9464C309.277 97.4002 307.77 95.7116 305.463 95.7116C303.157 95.7116 301.649 97.4002 301.649 99.9464C301.649 102.477 303.157 104.165 305.463 104.165ZM305.469 102.828C303.961 102.828 303.258 101.512 303.258 99.9411C303.258 98.375 303.961 97.0433 305.469 97.0433C306.965 97.0433 307.669 98.375 307.669 99.9411C307.669 101.512 306.965 102.828 305.469 102.828ZM314.949 95.8182H313.186V95.0831C313.186 94.3587 313.484 93.9645 314.262 93.9645C314.592 93.9645 314.826 94.0391 314.975 94.087L315.348 92.7979C315.125 92.7127 314.661 92.5795 314.017 92.5795C312.722 92.5795 311.588 93.3359 311.588 94.87V95.8182H310.325V97.0966H311.588V104H313.186V97.0966H314.949V95.8182ZM316.592 104H318.185V95.8182H316.592V104ZM317.396 94.5558C317.945 94.5558 318.403 94.1296 318.403 93.6076C318.403 93.0856 317.945 92.6541 317.396 92.6541C316.843 92.6541 316.39 93.0856 316.39 93.6076C316.39 94.1296 316.843 94.5558 317.396 94.5558ZM321.92 93.0909H320.328V104H321.92V93.0909ZM327.589 104.165C329.374 104.165 330.636 103.286 330.998 101.955L329.491 101.683C329.203 102.455 328.511 102.849 327.605 102.849C326.241 102.849 325.325 101.965 325.283 100.388H331.099V99.8239C331.099 96.8675 329.331 95.7116 327.477 95.7116C325.197 95.7116 323.695 97.4482 323.695 99.9624C323.695 102.503 325.176 104.165 327.589 104.165ZM325.288 99.1953C325.352 98.0341 326.194 97.0273 327.488 97.0273C328.724 97.0273 329.533 97.9435 329.539 99.1953H325.288ZM333.916 104.101C334.497 104.101 334.981 103.627 334.981 103.036C334.981 102.455 334.497 101.976 333.916 101.976C333.33 101.976 332.851 102.455 332.851 103.036C332.851 103.627 333.33 104.101 333.916 104.101ZM337.115 107.068H338.707V102.727H338.803C339.091 103.249 339.677 104.16 341.168 104.16C343.15 104.16 344.588 102.572 344.588 99.9251C344.588 97.2724 343.128 95.7116 341.152 95.7116C339.634 95.7116 339.085 96.6385 338.803 97.1445H338.67V95.8182H337.115V107.068ZM338.675 99.9091C338.675 98.1992 339.421 97.0646 340.811 97.0646C342.255 97.0646 342.979 98.2844 342.979 99.9091C342.979 101.55 342.234 102.801 340.811 102.801C339.442 102.801 338.675 101.63 338.675 99.9091ZM347.965 99.142C347.965 97.837 348.764 97.0913 349.872 97.0913C350.953 97.0913 351.609 97.7997 351.609 98.9876V104H353.201V98.7958C353.201 96.7717 352.088 95.7116 350.415 95.7116C349.185 95.7116 348.381 96.2816 348.002 97.1499H347.901V95.8182H346.372V104H347.965V99.142ZM358.768 107.239C360.85 107.239 362.459 106.285 362.459 104.181V95.8182H360.898V97.1445H360.781C360.499 96.6385 359.934 95.7116 358.411 95.7116C356.435 95.7116 354.98 97.2724 354.98 99.8771C354.98 102.487 356.467 103.877 358.4 103.877C359.902 103.877 360.483 103.031 360.771 102.509H360.872V104.117C360.872 105.401 359.993 105.955 358.784 105.955C357.457 105.955 356.941 105.289 356.658 104.82L355.289 105.385C355.721 106.386 356.813 107.239 358.768 107.239ZM358.752 102.556C357.329 102.556 356.589 101.464 356.589 99.8558C356.589 98.2844 357.313 97.0646 358.752 97.0646C360.142 97.0646 360.888 98.1992 360.888 99.8558C360.888 101.544 360.126 102.556 358.752 102.556Z" fill="#9EACBA"/>
<circle cx="380" cy="75" r="8" fill="url(#paint7_linear_1601_17765)"/>
<circle cx="600" cy="113" r="8" fill="url(#paint8_linear_1601_17765)"/>
<path d="M617.309 118H619.238V109.818H617.309V118ZM618.279 108.657C618.891 108.657 619.392 108.188 619.392 107.613C619.392 107.032 618.891 106.564 618.279 106.564C617.661 106.564 617.16 107.032 617.16 107.613C617.16 108.188 617.661 108.657 618.279 108.657ZM625.756 109.818H624.142V107.858H622.214V109.818H621.053V111.31H622.214V115.859C622.203 117.398 623.322 118.154 624.771 118.112C625.319 118.096 625.697 117.989 625.905 117.92L625.58 116.413C625.474 116.439 625.255 116.487 625.016 116.487C624.531 116.487 624.142 116.317 624.142 115.539V111.31H625.756V109.818ZM631.353 118.16C633.26 118.16 634.57 117.228 634.911 115.805L633.111 115.603C632.85 116.295 632.211 116.658 631.38 116.658C630.133 116.658 629.308 115.837 629.292 114.436H634.991V113.845C634.991 110.974 633.265 109.712 631.252 109.712C628.908 109.712 627.379 111.432 627.379 113.957C627.379 116.525 628.887 118.16 631.353 118.16ZM629.297 113.137C629.355 112.093 630.128 111.214 631.278 111.214C632.386 111.214 633.132 112.023 633.143 113.137H629.297ZM637.072 118H639.001V113.025C639.001 112.018 639.672 111.336 640.503 111.336C641.318 111.336 641.877 111.885 641.877 112.727V118H643.768V112.897C643.768 111.975 644.317 111.336 645.249 111.336C646.027 111.336 646.644 111.794 646.644 112.806V118H648.578V112.508C648.578 110.681 647.523 109.712 646.021 109.712C644.833 109.712 643.928 110.298 643.566 111.208H643.48C643.166 110.282 642.372 109.712 641.27 109.712C640.173 109.712 639.352 110.276 639.011 111.208H638.915V109.818H637.072V118ZM651.07 118H657.85V116.343H653.046V107.091H651.07V118ZM659.93 118H661.859V109.818H659.93V118ZM660.9 108.657C661.512 108.657 662.013 108.188 662.013 107.613C662.013 107.032 661.512 106.564 660.9 106.564C660.282 106.564 659.781 107.032 659.781 107.613C659.781 108.188 660.282 108.657 660.9 108.657ZM670.758 111.981C670.492 110.596 669.384 109.712 667.466 109.712C665.495 109.712 664.153 110.681 664.158 112.194C664.153 113.387 664.888 114.175 666.46 114.5L667.855 114.793C668.606 114.958 668.958 115.262 668.958 115.725C668.958 116.285 668.35 116.706 667.434 116.706C666.55 116.706 665.975 116.322 665.81 115.587L663.929 115.768C664.169 117.27 665.431 118.16 667.44 118.16C669.485 118.16 670.929 117.1 670.934 115.55C670.929 114.383 670.178 113.669 668.633 113.334L667.237 113.036C666.406 112.849 666.076 112.561 666.081 112.087C666.076 111.533 666.689 111.15 667.493 111.15C668.382 111.15 668.851 111.635 669 112.173L670.758 111.981ZM677.06 109.818H675.446V107.858H673.517V109.818H672.356V111.31H673.517V115.859C673.507 117.398 674.625 118.154 676.074 118.112C676.623 118.096 677.001 117.989 677.209 117.92L676.884 116.413C676.777 116.439 676.559 116.487 676.319 116.487C675.834 116.487 675.446 116.317 675.446 115.539V111.31H677.06V109.818Z" fill="#6048E5"/>
<path d="M618.169 144.269H621.669V143.007H619.692V131.943H621.669V130.681H618.169V144.269ZM624.248 142.101C624.829 142.101 625.313 141.627 625.313 141.036C625.313 140.455 624.829 139.976 624.248 139.976C623.662 139.976 623.183 140.455 623.183 141.036C623.183 141.627 623.662 142.101 624.248 142.101ZM628.496 142.101C629.077 142.101 629.561 141.627 629.561 141.036C629.561 140.455 629.077 139.976 628.496 139.976C627.91 139.976 627.431 140.455 627.431 141.036C627.431 141.627 627.91 142.101 628.496 142.101ZM632.744 142.101C633.325 142.101 633.809 141.627 633.809 141.036C633.809 140.455 633.325 139.976 632.744 139.976C632.158 139.976 631.679 140.455 631.679 141.036C631.679 141.627 632.158 142.101 632.744 142.101ZM638.83 130.681H635.33V131.943H637.306V143.007H635.33V144.269H638.83V130.681Z" fill="#64778C"/>
<line x1="518.5" y1="247" x2="518.5" y2="305" stroke="url(#paint9_linear_1601_17765)"/>
<circle cx="645" cy="12" r="8" fill="url(#paint10_linear_1601_17765)"/>
<path d="M664.34 6.09091H662.411V17H664.34V6.09091ZM666.773 17H668.701V8.81818H666.773V17ZM667.742 7.65696C668.355 7.65696 668.855 7.18821 668.855 6.61293C668.855 6.03232 668.355 5.56357 667.742 5.56357C667.124 5.56357 666.623 6.03232 666.623 6.61293C666.623 7.18821 667.124 7.65696 667.742 7.65696ZM677.6 10.9808C677.334 9.59588 676.226 8.71165 674.308 8.71165C672.337 8.71165 670.995 9.68111 671 11.1939C670.995 12.3871 671.73 13.1754 673.302 13.5004L674.697 13.7933C675.448 13.9585 675.8 14.2621 675.8 14.7255C675.8 15.2848 675.193 15.7056 674.276 15.7056C673.392 15.7056 672.817 15.3221 672.652 14.587L670.771 14.7681C671.011 16.2702 672.274 17.1598 674.282 17.1598C676.327 17.1598 677.771 16.0998 677.776 14.5497C677.771 13.3832 677.02 12.6694 675.475 12.3338L674.079 12.0355C673.248 11.8491 672.918 11.5614 672.923 11.0874C672.918 10.5334 673.531 10.1499 674.335 10.1499C675.225 10.1499 675.693 10.6346 675.842 11.1726L677.6 10.9808ZM683.902 8.81818H682.288V6.85795H680.359V8.81818H679.198V10.3097H680.359V14.8587C680.349 16.3981 681.467 17.1545 682.916 17.1119C683.465 17.0959 683.843 16.9893 684.051 16.9201L683.726 15.4126C683.619 15.4393 683.401 15.4872 683.161 15.4872C682.676 15.4872 682.288 15.3168 682.288 14.5391V10.3097H683.902V8.81818ZM688.202 6.09091H686.225V17H688.202V6.09091ZM694.792 8.81818H693.178V6.85795H691.25V8.81818H690.088V10.3097H691.25V14.8587C691.239 16.3981 692.358 17.1545 693.806 17.1119C694.355 17.0959 694.733 16.9893 694.941 16.9201L694.616 15.4126C694.51 15.4393 694.291 15.4872 694.051 15.4872C693.567 15.4872 693.178 15.3168 693.178 14.5391V10.3097H694.792V8.81818ZM700.389 17.1598C702.296 17.1598 703.606 16.2276 703.947 14.8054L702.147 14.603C701.886 15.2955 701.246 15.6577 700.415 15.6577C699.169 15.6577 698.343 14.8374 698.327 13.4364H704.027V12.8452C704.027 9.97408 702.301 8.71165 700.288 8.71165C697.944 8.71165 696.415 10.4322 696.415 12.957C696.415 15.5245 697.923 17.1598 700.389 17.1598ZM698.333 12.1367C698.391 11.0927 699.164 10.2138 700.314 10.2138C701.422 10.2138 702.168 11.0234 702.179 12.1367H698.333ZM706.108 17H708.037V12.0249C708.037 11.0181 708.708 10.3363 709.539 10.3363C710.354 10.3363 710.913 10.8849 710.913 11.7266V17H712.804V11.897C712.804 10.9755 713.353 10.3363 714.285 10.3363C715.062 10.3363 715.68 10.7944 715.68 11.8065V17H717.614V11.5082C717.614 9.68111 716.559 8.71165 715.057 8.71165C713.869 8.71165 712.964 9.29759 712.602 10.2085H712.516C712.202 9.2816 711.408 8.71165 710.306 8.71165C709.208 8.71165 708.388 9.27628 708.047 10.2085H707.951V8.81818H706.108V17Z" fill="#6048E5"/>
<path d="M662.099 33.5H663.462V32.4613C663.462 31.657 663.814 30.9805 664.245 30.3466L663.457 29.782C662.642 30.4371 662.099 31.5717 662.099 32.4773V33.5ZM664.815 33.5H666.179V32.4613C666.179 31.657 666.53 30.9805 666.962 30.3466L666.174 29.782C665.359 30.4371 664.815 31.5717 664.815 32.4773V33.5ZM670.105 30.0909H668.459V41H670.105V30.0909ZM672.374 41H673.967V35.9556C673.967 34.853 674.739 34.0859 675.644 34.0859C676.529 34.0859 677.141 34.6719 677.141 35.5614V41H678.729V35.7852C678.729 34.7997 679.331 34.0859 680.369 34.0859C681.211 34.0859 681.903 34.5547 681.903 35.6626V41H683.496V35.5135C683.496 33.6438 682.452 32.7116 680.971 32.7116C679.794 32.7116 678.91 33.2763 678.516 34.1499H678.43C678.073 33.255 677.322 32.7116 676.23 32.7116C675.149 32.7116 674.345 33.2496 674.004 34.1499H673.903V32.8182H672.374V41ZM685.631 44.0682H687.223V39.7269H687.319C687.607 40.2489 688.193 41.1598 689.684 41.1598C691.666 41.1598 693.104 39.5724 693.104 36.9251C693.104 34.2724 691.645 32.7116 689.668 32.7116C688.15 32.7116 687.602 33.6385 687.319 34.1445H687.186V32.8182H685.631V44.0682ZM687.191 36.9091C687.191 35.1992 687.937 34.0646 689.327 34.0646C690.771 34.0646 691.495 35.2844 691.495 36.9091C691.495 38.5497 690.75 39.8015 689.327 39.8015C687.958 39.8015 687.191 38.6296 687.191 36.9091ZM696.481 30.0909H694.889V41H696.481V30.0909ZM702.15 41.1651C703.935 41.1651 705.197 40.2862 705.559 38.9545L704.052 38.6829C703.764 39.4553 703.072 39.8494 702.166 39.8494C700.803 39.8494 699.886 38.9652 699.844 37.3885H705.66V36.8239C705.66 33.8675 703.892 32.7116 702.038 32.7116C699.758 32.7116 698.256 34.4482 698.256 36.9624C698.256 39.5032 699.737 41.1651 702.15 41.1651ZM699.849 36.1953C699.913 35.0341 700.755 34.0273 702.049 34.0273C703.285 34.0273 704.094 34.9435 704.1 36.1953H699.849ZM707.428 41H709.02V35.9556C709.02 34.853 709.793 34.0859 710.698 34.0859C711.582 34.0859 712.195 34.6719 712.195 35.5614V41H713.782V35.7852C713.782 34.7997 714.384 34.0859 715.423 34.0859C716.265 34.0859 716.957 34.5547 716.957 35.6626V41H718.55V35.5135C718.55 33.6438 717.506 32.7116 716.025 32.7116C714.848 32.7116 713.963 33.2763 713.569 34.1499H713.484C713.127 33.255 712.376 32.7116 711.284 32.7116C710.203 32.7116 709.398 33.2496 709.058 34.1499H708.956V32.8182H707.428V41ZM724.211 41.1651C725.995 41.1651 727.258 40.2862 727.62 38.9545L726.112 38.6829C725.825 39.4553 725.132 39.8494 724.227 39.8494C722.863 39.8494 721.947 38.9652 721.904 37.3885H727.721V36.8239C727.721 33.8675 725.953 32.7116 724.099 32.7116C721.819 32.7116 720.317 34.4482 720.317 36.9624C720.317 39.5032 721.798 41.1651 724.211 41.1651ZM721.91 36.1953C721.973 35.0341 722.815 34.0273 724.11 34.0273C725.345 34.0273 726.155 34.9435 726.16 36.1953H721.91ZM731.081 36.142C731.081 34.837 731.88 34.0913 732.988 34.0913C734.069 34.0913 734.724 34.7997 734.724 35.9876V41H736.317V35.7958C736.317 33.7717 735.204 32.7116 733.531 32.7116C732.301 32.7116 731.496 33.2816 731.118 34.1499H731.017V32.8182H729.488V41H731.081V36.142ZM742.272 32.8182H740.594V30.858H739.002V32.8182H737.803V34.0966H739.002V38.9279C738.996 40.4141 740.131 41.1332 741.388 41.1065C741.894 41.1012 742.235 41.0053 742.421 40.9361L742.134 39.6204C742.027 39.6417 741.83 39.6896 741.574 39.6896C741.058 39.6896 740.594 39.5192 740.594 38.5977V34.0966H742.272V32.8182ZM751.067 41.1598C752.558 41.1598 753.144 40.2489 753.432 39.7269H753.565V41H755.12V30.0909H753.528V34.1445H753.432C753.144 33.6385 752.601 32.7116 751.077 32.7116C749.101 32.7116 747.647 34.2724 747.647 36.9251C747.647 39.5724 749.08 41.1598 751.067 41.1598ZM751.418 39.8015C749.996 39.8015 749.256 38.5497 749.256 36.9091C749.256 35.2844 749.98 34.0646 751.418 34.0646C752.808 34.0646 753.554 35.1992 753.554 36.9091C753.554 38.6296 752.792 39.8015 751.418 39.8015ZM757.393 41H758.986V36.0036C758.986 34.9329 759.812 34.1605 760.941 34.1605C761.271 34.1605 761.644 34.2191 761.772 34.2564V32.733C761.612 32.7116 761.298 32.6957 761.095 32.6957C760.137 32.6957 759.316 33.239 759.018 34.1179H758.933V32.8182H757.393V41ZM766.304 41.1651C768.61 41.1651 770.118 39.4766 770.118 36.9464C770.118 34.4002 768.61 32.7116 766.304 32.7116C763.997 32.7116 762.49 34.4002 762.49 36.9464C762.49 39.4766 763.997 41.1651 766.304 41.1651ZM766.309 39.8281C764.802 39.8281 764.098 38.5124 764.098 36.9411C764.098 35.375 764.802 34.0433 766.309 34.0433C767.806 34.0433 768.509 35.375 768.509 36.9411C768.509 38.5124 767.806 39.8281 766.309 39.8281ZM771.895 44.0682H773.488V39.7269H773.584C773.872 40.2489 774.458 41.1598 775.949 41.1598C777.931 41.1598 779.369 39.5724 779.369 36.9251C779.369 34.2724 777.909 32.7116 775.933 32.7116C774.415 32.7116 773.866 33.6385 773.584 34.1445H773.451V32.8182H771.895V44.0682ZM773.456 36.9091C773.456 35.1992 774.202 34.0646 775.592 34.0646C777.036 34.0646 777.76 35.2844 777.76 36.9091C777.76 38.5497 777.014 39.8015 775.592 39.8015C774.223 39.8015 773.456 38.6296 773.456 36.9091ZM784.216 41.1598C785.708 41.1598 786.293 40.2489 786.581 39.7269H786.714V41H788.27V30.0909H786.677V34.1445H786.581C786.293 33.6385 785.75 32.7116 784.227 32.7116C782.25 32.7116 780.796 34.2724 780.796 36.9251C780.796 39.5724 782.229 41.1598 784.216 41.1598ZM784.568 39.8015C783.145 39.8015 782.405 38.5497 782.405 36.9091C782.405 35.2844 783.129 34.0646 784.568 34.0646C785.958 34.0646 786.704 35.1992 786.704 36.9091C786.704 38.6296 785.942 39.8015 784.568 39.8015ZM793.989 41.1651C796.296 41.1651 797.803 39.4766 797.803 36.9464C797.803 34.4002 796.296 32.7116 793.989 32.7116C791.683 32.7116 790.175 34.4002 790.175 36.9464C790.175 39.4766 791.683 41.1651 793.989 41.1651ZM793.995 39.8281C792.487 39.8281 791.784 38.5124 791.784 36.9411C791.784 35.375 792.487 34.0433 793.995 34.0433C795.491 34.0433 796.194 35.375 796.194 36.9411C796.194 38.5124 795.491 39.8281 793.995 39.8281ZM801.106 41H802.725L804.387 35.0927H804.509L806.171 41H807.796L810.198 32.8182H808.552L806.96 38.8001H806.88L805.282 32.8182H803.636L802.027 38.8267H801.947L800.344 32.8182H798.698L801.106 41ZM813.303 36.142C813.303 34.837 814.102 34.0913 815.209 34.0913C816.291 34.0913 816.946 34.7997 816.946 35.9876V41H818.539V35.7958C818.539 33.7717 817.425 32.7116 815.753 32.7116C814.522 32.7116 813.718 33.2816 813.34 34.1499H813.239V32.8182H811.71V41H813.303V36.142ZM824.644 41H826.237V35.9556C826.237 34.853 827.009 34.0859 827.915 34.0859C828.799 34.0859 829.412 34.6719 829.412 35.5614V41H830.999V35.7852C830.999 34.7997 831.601 34.0859 832.64 34.0859C833.481 34.0859 834.174 34.5547 834.174 35.6626V41H835.767V35.5135C835.767 33.6438 834.723 32.7116 833.242 32.7116C832.064 32.7116 831.18 33.2763 830.786 34.1499H830.701C830.344 33.255 829.593 32.7116 828.501 32.7116C827.42 32.7116 826.615 33.2496 826.274 34.1499H826.173V32.8182H824.644V41ZM841.428 41.1651C843.212 41.1651 844.474 40.2862 844.837 38.9545L843.329 38.6829C843.042 39.4553 842.349 39.8494 841.443 39.8494C840.08 39.8494 839.164 38.9652 839.121 37.3885H844.938V36.8239C844.938 33.8675 843.169 32.7116 841.316 32.7116C839.036 32.7116 837.534 34.4482 837.534 36.9624C837.534 39.5032 839.015 41.1651 841.428 41.1651ZM839.126 36.1953C839.19 35.0341 840.032 34.0273 841.326 34.0273C842.562 34.0273 843.372 34.9435 843.377 36.1953H839.126ZM848.298 36.142C848.298 34.837 849.097 34.0913 850.205 34.0913C851.286 34.0913 851.941 34.7997 851.941 35.9876V41H853.534V35.7958C853.534 33.7717 852.42 32.7116 850.748 32.7116C849.517 32.7116 848.713 33.2816 848.335 34.1499H848.234V32.8182H846.705V41H848.298V36.142ZM860.853 37.6069C860.858 38.9972 859.825 39.6577 858.93 39.6577C857.944 39.6577 857.262 38.9439 857.262 37.8306V32.8182H855.67V38.0224C855.67 40.0518 856.783 41.1065 858.354 41.1065C859.585 41.1065 860.421 40.4567 860.799 39.5831H860.885V41H862.451V32.8182H860.853V37.6069ZM866.179 30.0909H864.816V31.1296C864.816 31.9553 864.454 32.6317 864.038 33.2443L864.826 33.8089C865.647 33.1484 866.179 32.0192 866.179 31.1136V30.0909ZM868.891 30.0909H867.527V31.1296C867.527 31.9553 867.165 32.6317 866.749 33.2443L867.538 33.8089C868.358 33.1484 868.891 32.0192 868.891 31.1136V30.0909Z" fill="#64778C"/>
<circle cx="941" cy="109" r="8" fill="url(#paint11_linear_1601_17765)"/>
<path d="M961.452 114.144C962.858 114.144 963.492 113.308 963.796 112.711H963.913V114H965.809V103.091H963.876V107.171H963.796C963.503 106.58 962.901 105.712 961.457 105.712C959.566 105.712 958.08 107.192 958.08 109.92C958.08 112.615 959.524 114.144 961.452 114.144ZM961.99 112.562C960.717 112.562 960.046 111.443 960.046 109.909C960.046 108.386 960.706 107.294 961.99 107.294C963.231 107.294 963.913 108.322 963.913 109.909C963.913 111.496 963.22 112.562 961.99 112.562ZM973.529 110.559C973.529 111.805 972.639 112.423 971.787 112.423C970.86 112.423 970.242 111.768 970.242 110.729V105.818H968.314V111.028C968.314 112.993 969.433 114.107 971.041 114.107C972.266 114.107 973.129 113.462 973.502 112.546H973.587V114H975.457V105.818H973.529V110.559ZM981.512 114.16C983.419 114.16 984.729 113.228 985.07 111.805L983.27 111.603C983.009 112.295 982.37 112.658 981.539 112.658C980.292 112.658 979.467 111.837 979.451 110.436H985.15V109.845C985.15 106.974 983.424 105.712 981.411 105.712C979.067 105.712 977.538 107.432 977.538 109.957C977.538 112.525 979.046 114.16 981.512 114.16ZM979.456 109.137C979.515 108.093 980.287 107.214 981.437 107.214C982.545 107.214 983.291 108.023 983.302 109.137H979.456ZM991.013 114C994.337 114 996.308 111.944 996.308 108.535C996.308 105.136 994.337 103.091 991.088 103.091H987.317V114H991.013ZM989.293 112.29V104.801H990.976C993.192 104.801 994.348 106.037 994.348 108.535C994.348 111.044 993.192 112.29 990.918 112.29H989.293ZM1000.91 114.165C1002.19 114.165 1002.96 113.563 1003.31 112.876H1003.37V114H1005.22V108.524C1005.22 106.362 1003.46 105.712 1001.9 105.712C1000.18 105.712 998.86 106.479 998.433 107.97L1000.23 108.226C1000.43 107.667 1000.97 107.187 1001.91 107.187C1002.81 107.187 1003.3 107.645 1003.3 108.45V108.482C1003.3 109.036 1002.72 109.062 1001.27 109.217C999.685 109.387 998.167 109.861 998.167 111.704C998.167 113.313 999.344 114.165 1000.91 114.165ZM1001.41 112.748C1000.6 112.748 1000.03 112.381 1000.03 111.672C1000.03 110.932 1000.67 110.623 1001.53 110.5C1002.04 110.431 1003.05 110.303 1003.3 110.101V111.065C1003.3 111.976 1002.57 112.748 1001.41 112.748ZM1011.7 105.818H1010.09V103.858H1008.16V105.818H1007V107.31H1008.16V111.859C1008.15 113.398 1009.27 114.154 1010.71 114.112C1011.26 114.096 1011.64 113.989 1011.85 113.92L1011.52 112.413C1011.42 112.439 1011.2 112.487 1010.96 112.487C1010.47 112.487 1010.09 112.317 1010.09 111.539V107.31H1011.7V105.818ZM1017.3 114.16C1019.2 114.16 1020.51 113.228 1020.85 111.805L1019.05 111.603C1018.79 112.295 1018.15 112.658 1017.32 112.658C1016.08 112.658 1015.25 111.837 1015.23 110.436H1020.93V109.845C1020.93 106.974 1019.21 105.712 1017.2 105.712C1014.85 105.712 1013.32 107.432 1013.32 109.957C1013.32 112.525 1014.83 114.16 1017.3 114.16ZM1015.24 109.137C1015.3 108.093 1016.07 107.214 1017.22 107.214C1018.33 107.214 1019.08 108.023 1019.09 109.137H1015.24Z" fill="#6048E5"/>
<path d="M962.562 127.091H960.959L958.237 128.87V130.447L960.847 128.742H960.911V138H962.562V127.091ZM965.881 138H967.601L972.347 128.55V127.091H965.135V128.502H970.643V128.582L965.881 138ZM978.376 126.58H976.954L973.438 139.641H974.86L978.376 126.58ZM983.846 127.091H982.243L979.521 128.87V130.447L982.131 128.742H982.195V138H983.846V127.091ZM990.936 127.091H989.333L986.611 128.87V130.447L989.221 128.742H989.285V138H990.936V127.091ZM998.063 126.58H996.641L993.126 139.641H994.548L998.063 126.58ZM999.395 138H1006.58V136.588H1001.66V136.509L1003.83 134.239C1005.83 132.221 1006.4 131.256 1006.4 130.037C1006.4 128.284 1004.97 126.942 1002.92 126.942C1000.88 126.942 999.384 128.263 999.384 130.255H1000.96C1000.95 129.083 1001.71 128.316 1002.88 128.316C1003.99 128.316 1004.83 128.998 1004.83 130.085C1004.83 131.049 1004.26 131.741 1003.09 132.982L999.395 136.807V138ZM1012.39 138.181C1014.91 138.181 1016.39 136.125 1016.39 132.551C1016.39 129.003 1014.89 126.942 1012.39 126.942C1009.89 126.942 1008.4 128.998 1008.39 132.551C1008.39 136.12 1009.87 138.176 1012.39 138.181ZM1012.39 136.759C1010.92 136.759 1010.03 135.278 1010.03 132.551C1010.03 129.834 1010.92 128.337 1012.39 128.337C1013.86 128.337 1014.75 129.834 1014.75 132.551C1014.75 135.278 1013.86 136.759 1012.39 136.759ZM1018.28 138H1025.46V136.588H1020.55V136.509L1022.71 134.239C1024.71 132.221 1025.28 131.256 1025.28 130.037C1025.28 128.284 1023.85 126.942 1021.8 126.942C1019.76 126.942 1018.27 128.263 1018.27 130.255H1019.84C1019.83 129.083 1020.59 128.316 1021.77 128.316C1022.87 128.316 1023.72 128.998 1023.72 130.085C1023.72 131.049 1023.14 131.741 1021.97 132.982L1018.28 136.807V138ZM1027.48 138H1034.66V136.588H1029.75V136.509L1031.91 134.239C1033.91 132.221 1034.48 131.256 1034.48 130.037C1034.48 128.284 1033.05 126.942 1031 126.942C1028.96 126.942 1027.47 128.263 1027.47 130.255H1029.04C1029.03 129.083 1029.79 128.316 1030.97 128.316C1032.07 128.316 1032.91 128.998 1032.91 130.085C1032.91 131.049 1032.34 131.741 1031.17 132.982L1027.48 136.807V138Z" fill="#64778C"/>
<circle cx="780" cy="162" r="8" fill="url(#paint12_linear_1601_17765)"/>
<path d="M799.34 156.091H797.411V167H799.34V156.091ZM801.773 167H803.701V158.818H801.773V167ZM802.742 157.657C803.355 157.657 803.855 157.188 803.855 156.613C803.855 156.032 803.355 155.564 802.742 155.564C802.124 155.564 801.623 156.032 801.623 156.613C801.623 157.188 802.124 157.657 802.742 157.657ZM812.6 160.981C812.334 159.596 811.226 158.712 809.308 158.712C807.337 158.712 805.995 159.681 806 161.194C805.995 162.387 806.73 163.175 808.302 163.5L809.697 163.793C810.448 163.958 810.8 164.262 810.8 164.725C810.8 165.285 810.193 165.706 809.276 165.706C808.392 165.706 807.817 165.322 807.652 164.587L805.771 164.768C806.011 166.27 807.274 167.16 809.282 167.16C811.327 167.16 812.771 166.1 812.776 164.55C812.771 163.383 812.02 162.669 810.475 162.334L809.079 162.036C808.248 161.849 807.918 161.561 807.923 161.087C807.918 160.533 808.531 160.15 809.335 160.15C810.225 160.15 810.693 160.635 810.842 161.173L812.6 160.981ZM818.902 158.818H817.288V156.858H815.359V158.818H814.198V160.31H815.359V164.859C815.349 166.398 816.467 167.154 817.916 167.112C818.465 167.096 818.843 166.989 819.051 166.92L818.726 165.413C818.619 165.439 818.401 165.487 818.161 165.487C817.676 165.487 817.288 165.317 817.288 164.539V160.31H818.902V158.818ZM823.202 156.091H821.225V167H823.202V156.091ZM829.792 158.818H828.178V156.858H826.25V158.818H825.088V160.31H826.25V164.859C826.239 166.398 827.358 167.154 828.806 167.112C829.355 167.096 829.733 166.989 829.941 166.92L829.616 165.413C829.51 165.439 829.291 165.487 829.051 165.487C828.567 165.487 828.178 165.317 828.178 164.539V160.31H829.792V158.818ZM835.389 167.16C837.296 167.16 838.606 166.228 838.947 164.805L837.147 164.603C836.886 165.295 836.246 165.658 835.415 165.658C834.169 165.658 833.343 164.837 833.327 163.436H839.027V162.845C839.027 159.974 837.301 158.712 835.288 158.712C832.944 158.712 831.415 160.432 831.415 162.957C831.415 165.525 832.923 167.16 835.389 167.16ZM833.333 162.137C833.391 161.093 834.164 160.214 835.314 160.214C836.422 160.214 837.168 161.023 837.179 162.137H833.333ZM841.108 167H843.037V162.025C843.037 161.018 843.708 160.336 844.539 160.336C845.354 160.336 845.913 160.885 845.913 161.727V167H847.804V161.897C847.804 160.975 848.353 160.336 849.285 160.336C850.062 160.336 850.68 160.794 850.68 161.806V167H852.614V161.508C852.614 159.681 851.559 158.712 850.057 158.712C848.869 158.712 847.964 159.298 847.602 160.208H847.516C847.202 159.282 846.408 158.712 845.306 158.712C844.208 158.712 843.388 159.276 843.047 160.208H842.951V158.818H841.108V167Z" fill="#6048E5"/>
<path d="M796.969 183.5H798.332V182.461C798.332 181.657 798.684 180.98 799.115 180.347L798.327 179.782C797.512 180.437 796.969 181.572 796.969 182.477V183.5ZM799.685 183.5H801.049V182.461C801.049 181.657 801.401 180.98 801.832 180.347L801.044 179.782C800.229 180.437 799.685 181.572 799.685 182.477V183.5ZM805.465 191H807.127L809.423 182.829H809.508L811.804 191H813.46L816.491 180.091H814.755L812.635 188.544H812.533L810.323 180.091H808.608L806.397 188.539H806.296L804.17 180.091H802.439L805.465 191ZM817.351 191H818.944V186.004C818.944 184.933 819.77 184.161 820.899 184.161C821.229 184.161 821.602 184.219 821.73 184.256V182.733C821.57 182.712 821.256 182.696 821.053 182.696C820.095 182.696 819.274 183.239 818.976 184.118H818.891V182.818H817.351V191ZM823.108 191H824.701V182.818H823.108V191ZM823.913 181.556C824.461 181.556 824.919 181.13 824.919 180.608C824.919 180.086 824.461 179.654 823.913 179.654C823.359 179.654 822.906 180.086 822.906 180.608C822.906 181.13 823.359 181.556 823.913 181.556ZM830.663 182.818H828.985V180.858H827.392V182.818H826.194V184.097H827.392V188.928C827.387 190.414 828.522 191.133 829.779 191.107C830.285 191.101 830.626 191.005 830.812 190.936L830.524 189.62C830.418 189.642 830.221 189.69 829.965 189.69C829.448 189.69 828.985 189.519 828.985 188.598V184.097H830.663V182.818ZM835.863 191.165C837.648 191.165 838.91 190.286 839.272 188.955L837.765 188.683C837.477 189.455 836.785 189.849 835.879 189.849C834.515 189.849 833.599 188.965 833.557 187.388H839.373V186.824C839.373 183.868 837.605 182.712 835.751 182.712C833.471 182.712 831.969 184.448 831.969 186.962C831.969 189.503 833.45 191.165 835.863 191.165ZM833.562 186.195C833.626 185.034 834.467 184.027 835.762 184.027C836.998 184.027 837.807 184.944 837.813 186.195H833.562ZM848.929 182.818H847.252V180.858H845.659V182.818H844.46V184.097H845.659V188.928C845.654 190.414 846.788 191.133 848.045 191.107C848.551 191.101 848.892 191.005 849.079 190.936L848.791 189.62C848.684 189.642 848.487 189.69 848.232 189.69C847.715 189.69 847.252 189.519 847.252 188.598V184.097H848.929V182.818ZM854.13 191.165C855.914 191.165 857.177 190.286 857.539 188.955L856.031 188.683C855.744 189.455 855.051 189.849 854.146 189.849C852.782 189.849 851.866 188.965 851.823 187.388H857.64V186.824C857.64 183.868 855.871 182.712 854.018 182.712C851.738 182.712 850.236 184.448 850.236 186.962C850.236 189.503 851.717 191.165 854.13 191.165ZM851.829 186.195C851.892 185.034 852.734 184.027 854.028 184.027C855.264 184.027 856.074 184.944 856.079 186.195H851.829ZM865.538 184.816C865.208 183.543 864.212 182.712 862.443 182.712C860.595 182.712 859.285 183.686 859.285 185.135C859.285 186.297 859.988 187.069 861.522 187.41L862.907 187.713C863.695 187.889 864.063 188.241 864.063 188.752C864.063 189.386 863.386 189.881 862.342 189.881C861.389 189.881 860.776 189.471 860.584 188.667L859.045 188.901C859.311 190.35 860.515 191.165 862.353 191.165C864.329 191.165 865.698 190.116 865.698 188.635C865.698 187.479 864.963 186.765 863.461 186.419L862.161 186.121C861.261 185.908 860.872 185.604 860.877 185.05C860.872 184.422 861.554 183.974 862.459 183.974C863.45 183.974 863.908 184.523 864.095 185.071L865.538 184.816ZM871.268 182.818H869.59V180.858H867.998V182.818H866.799V184.097H867.998V188.928C867.992 190.414 869.127 191.133 870.384 191.107C870.89 191.101 871.231 191.005 871.417 190.936L871.13 189.62C871.023 189.642 870.826 189.69 870.571 189.69C870.054 189.69 869.59 189.519 869.59 188.598V184.097H871.268V182.818ZM879.029 184.816C878.699 183.543 877.703 182.712 875.935 182.712C874.086 182.712 872.776 183.686 872.776 185.135C872.776 186.297 873.479 187.069 875.013 187.41L876.398 187.713C877.186 187.889 877.554 188.241 877.554 188.752C877.554 189.386 876.877 189.881 875.833 189.881C874.88 189.881 874.267 189.471 874.076 188.667L872.536 188.901C872.802 190.35 874.006 191.165 875.844 191.165C877.82 191.165 879.189 190.116 879.189 188.635C879.189 187.479 878.454 186.765 876.952 186.419L875.652 186.121C874.752 185.908 874.363 185.604 874.368 185.05C874.363 184.422 875.045 183.974 875.951 183.974C876.941 183.974 877.399 184.523 877.586 185.071L879.029 184.816ZM882.309 180.091H880.946V181.13C880.946 181.955 880.583 182.632 880.168 183.244L880.956 183.809C881.777 183.148 882.309 182.019 882.309 181.114V180.091ZM885.021 180.091H883.657V181.13C883.657 181.955 883.295 182.632 882.879 183.244L883.668 183.809C884.488 183.148 885.021 182.019 885.021 181.114V180.091Z" fill="#64778C"/>
<circle opacity="0.1" cx="518" cy="204" r="69.5" stroke="#6048E5"/>
<circle opacity="0.1" cx="518" cy="204" r="18.5" stroke="#6048E5"/>
<circle opacity="0.3" cx="518" cy="204" r="15" stroke="#6048E5" stroke-width="2"/>
<circle cx="518" cy="204" r="9" fill="url(#paint13_linear_1601_17765)"/>
<path d="M487.453 240H489.429V236.314H491.517C494.037 236.314 495.39 234.801 495.39 232.702C495.39 230.62 494.053 229.091 491.544 229.091H487.453V240ZM489.429 234.689V230.742H491.24C492.721 230.742 493.376 231.541 493.376 232.702C493.376 233.864 492.721 234.689 491.251 234.689H489.429ZM497.556 240H504.694V238.343H499.532V235.366H504.284V233.709H499.532V230.748H504.651V229.091H497.556V240ZM507.118 240H509.094V236.005H511.107L513.249 240H515.454L513.094 235.675C514.378 235.158 515.054 234.061 515.054 232.58C515.054 230.497 513.712 229.091 511.209 229.091H507.118V240ZM509.094 234.364V230.742H510.905C512.38 230.742 513.041 231.419 513.041 232.58C513.041 233.741 512.38 234.364 510.916 234.364H509.094ZM523.252 232.09H525.154C525.116 230.247 523.545 228.942 521.223 228.942C518.932 228.942 517.212 230.231 517.217 232.159C517.217 233.725 518.33 234.625 520.125 235.089L521.366 235.408C522.544 235.707 523.321 236.074 523.327 236.921C523.321 237.853 522.437 238.477 521.148 238.477C519.912 238.477 518.953 237.923 518.874 236.777H516.929C517.009 238.945 518.623 240.165 521.164 240.165C523.779 240.165 525.298 238.86 525.303 236.937C525.298 235.046 523.737 234.183 522.096 233.794L521.073 233.539C520.179 233.326 519.209 232.947 519.22 232.037C519.225 231.216 519.96 230.614 521.196 230.614C522.373 230.614 523.151 231.163 523.252 232.09ZM537.263 234.545C537.263 231.019 535.111 228.942 532.25 228.942C529.384 228.942 527.238 231.019 527.238 234.545C527.238 238.066 529.384 240.149 532.25 240.149C535.111 240.149 537.263 238.072 537.263 234.545ZM535.276 234.545C535.276 237.028 534.029 238.375 532.25 238.375C530.476 238.375 529.225 237.028 529.225 234.545C529.225 232.063 530.476 230.716 532.25 230.716C534.029 230.716 535.276 232.063 535.276 234.545ZM548.546 229.091H546.58V236.527H546.484L541.349 229.091H539.581V240H541.557V232.569H541.648L546.788 240H548.546V229.091Z" fill="#6048E5"/>
<defs>
<linearGradient id="paint0_linear_1601_17765" x1="529" y1="193.001" x2="597.118" y2="190" gradientUnits="userSpaceOnUse">
<stop stop-color="#BDB4FE"/>
<stop offset="1" stop-color="#BDB4FE" stop-opacity="0"/>
</linearGradient>
<linearGradient id="paint1_linear_1601_17765" x1="312" y1="181" x2="312" y2="197" gradientUnits="userSpaceOnUse">
<stop stop-color="#7963F5"/>
<stop offset="1" stop-color="#5D46DB"/>
</linearGradient>
<linearGradient id="paint2_linear_1601_17765" x1="603" y1="105.001" x2="642.278" y2="104.176" gradientUnits="userSpaceOnUse">
<stop stop-color="#BDB4FE"/>
<stop offset="1" stop-color="#BDB4FE" stop-opacity="0"/>
</linearGradient>
<linearGradient id="paint3_linear_1601_17765" x1="609" y1="118" x2="771.62" y2="149.07" gradientUnits="userSpaceOnUse">
<stop stop-color="#BDB4FE" stop-opacity="0"/>
<stop offset="1" stop-color="#BDB4FE"/>
</linearGradient>
<linearGradient id="paint4_linear_1601_17765" x1="749.245" y1="153.529" x2="932.318" y2="115.307" gradientUnits="userSpaceOnUse">
<stop stop-color="#BDB4FE" stop-opacity="0"/>
<stop offset="1" stop-color="#BDB4FE"/>
</linearGradient>
<linearGradient id="paint5_linear_1601_17765" x1="499" y1="204" x2="377.758" y2="118.365" gradientUnits="userSpaceOnUse">
<stop stop-color="#BDB4FE"/>
<stop offset="1" stop-color="#BDB4FE" stop-opacity="0"/>
</linearGradient>
<linearGradient id="paint6_linear_1601_17765" x1="506" y1="193.001" x2="384.301" y2="186.727" gradientUnits="userSpaceOnUse">
<stop stop-color="#BDB4FE"/>
<stop offset="1" stop-color="#BDB4FE" stop-opacity="0"/>
</linearGradient>
<linearGradient id="paint7_linear_1601_17765" x1="380" y1="67" x2="380" y2="83" gradientUnits="userSpaceOnUse">
<stop stop-color="#7963F5"/>
<stop offset="1" stop-color="#5D46DB"/>
</linearGradient>
<linearGradient id="paint8_linear_1601_17765" x1="600" y1="105" x2="600" y2="121" gradientUnits="userSpaceOnUse">
<stop stop-color="#7963F5"/>
<stop offset="1" stop-color="#5D46DB"/>
</linearGradient>
<linearGradient id="paint9_linear_1601_17765" x1="517" y1="247" x2="546.082" y2="258.038" gradientUnits="userSpaceOnUse">
<stop stop-color="#BDB4FE"/>
<stop offset="1" stop-color="#BDB4FE" stop-opacity="0"/>
</linearGradient>
<linearGradient id="paint10_linear_1601_17765" x1="645" y1="4" x2="645" y2="20" gradientUnits="userSpaceOnUse">
<stop stop-color="#7963F5"/>
<stop offset="1" stop-color="#5D46DB"/>
</linearGradient>
<linearGradient id="paint11_linear_1601_17765" x1="941" y1="101" x2="941" y2="117" gradientUnits="userSpaceOnUse">
<stop stop-color="#7963F5"/>
<stop offset="1" stop-color="#5D46DB"/>
</linearGradient>
<linearGradient id="paint12_linear_1601_17765" x1="780" y1="154" x2="780" y2="170" gradientUnits="userSpaceOnUse">
<stop stop-color="#7963F5"/>
<stop offset="1" stop-color="#5D46DB"/>
</linearGradient>
<linearGradient id="paint13_linear_1601_17765" x1="518" y1="195" x2="518" y2="213" gradientUnits="userSpaceOnUse">
<stop stop-color="#7963F5"/>
<stop offset="1" stop-color="#5D46DB"/>
</linearGradient>
</defs>
</svg>
