<svg width="124" height="48" viewBox="0 0 124 48" fill="none" xmlns="http://www.w3.org/2000/svg">
<path d="M0 0H124V41.1429H62V48H34.4444V41.1429H0V0ZM6.88889 34.2857H20.6667V13.7143H27.5556V34.2857H34.4444V6.85714H6.88889V34.2857ZM41.3333 6.85714V41.1429H55.1111V34.2857H68.8889V6.85714H41.3333ZM55.1111 13.7143H62V27.4286H55.1111V13.7143ZM75.7778 6.85714V34.2857H89.5556V13.7143H96.4444V34.2857H103.333V13.7143H110.222V34.2857H117.111V6.85714H75.7778Z" fill="black"/>
<path d="M6.88889 34.2857H20.6667V13.7143H27.5555V34.2857H34.4444V6.85712H6.88889V34.2857Z" fill="white"/>
<path d="M41.3333 6.85712V41.1428H55.1111V34.2857H68.8889V6.85712H41.3333ZM62 27.4285H55.1111V13.7143H62V27.4285Z" fill="white"/>
<path d="M75.7778 6.85712V34.2857H89.5555V13.7143H96.4444V34.2857H103.333V13.7143H110.222V34.2857H117.111V6.85712H75.7778Z" fill="white"/>
</svg>
