<svg width="300" height="124" viewBox="0 0 300 124" fill="none" xmlns="http://www.w3.org/2000/svg">
<rect x="0.5" y="0.5" width="299" height="123" rx="3.5" fill="white"/>
<path d="M25.321 33V22.0909H26.642V31.8281H31.7131V33H25.321ZM36.9119 33.1705C36.1733 33.1705 35.5252 32.9947 34.9677 32.6431C34.4137 32.2915 33.9805 31.7997 33.668 31.1676C33.359 30.5355 33.2045 29.7969 33.2045 28.9517C33.2045 28.0994 33.359 27.3555 33.668 26.7198C33.9805 26.0842 34.4137 25.5906 34.9677 25.239C35.5252 24.8874 36.1733 24.7116 36.9119 24.7116C37.6506 24.7116 38.2969 24.8874 38.8509 25.239C39.4084 25.5906 39.8416 26.0842 40.1506 26.7198C40.4631 27.3555 40.6193 28.0994 40.6193 28.9517C40.6193 29.7969 40.4631 30.5355 40.1506 31.1676C39.8416 31.7997 39.4084 32.2915 38.8509 32.6431C38.2969 32.9947 37.6506 33.1705 36.9119 33.1705ZM36.9119 32.0412C37.473 32.0412 37.9347 31.8974 38.2969 31.6097C38.6591 31.3221 38.9272 30.9439 39.1012 30.4751C39.2752 30.0064 39.3622 29.4986 39.3622 28.9517C39.3622 28.4048 39.2752 27.8952 39.1012 27.4229C38.9272 26.9506 38.6591 26.5689 38.2969 26.2777C37.9347 25.9865 37.473 25.8409 36.9119 25.8409C36.3509 25.8409 35.8892 25.9865 35.527 26.2777C35.1648 26.5689 34.8967 26.9506 34.7227 27.4229C34.5487 27.8952 34.4616 28.4048 34.4616 28.9517C34.4616 29.4986 34.5487 30.0064 34.7227 30.4751C34.8967 30.9439 35.1648 31.3221 35.527 31.6097C35.8892 31.8974 36.3509 32.0412 36.9119 32.0412ZM42.5383 33V24.8182H43.7528V26.054H43.838C43.9871 25.6491 44.257 25.3207 44.6476 25.0685C45.0383 24.8164 45.4786 24.6903 45.9687 24.6903C46.061 24.6903 46.1764 24.6921 46.3149 24.6957C46.4534 24.6992 46.5582 24.7045 46.6292 24.7116V25.9901C46.5866 25.9794 46.4889 25.9634 46.3362 25.9421C46.1871 25.9173 46.029 25.9048 45.8621 25.9048C45.4644 25.9048 45.1093 25.9883 44.7968 26.1552C44.4878 26.3185 44.2428 26.5458 44.0617 26.837C43.8841 27.1246 43.7954 27.4531 43.7954 27.8224V33H42.5383ZM51.3007 33.1705C50.5123 33.1705 49.8323 32.9964 49.2606 32.6484C48.6924 32.2969 48.2538 31.8068 47.9449 31.1783C47.6395 30.5462 47.4868 29.8111 47.4868 28.973C47.4868 28.1349 47.6395 27.3963 47.9449 26.7571C48.2538 26.1143 48.6835 25.6136 49.2339 25.255C49.7879 24.8928 50.4342 24.7116 51.1729 24.7116C51.599 24.7116 52.0198 24.7827 52.4353 24.9247C52.8508 25.0668 53.229 25.2976 53.5699 25.6172C53.9108 25.9332 54.1824 26.3523 54.3849 26.8743C54.5873 27.3963 54.6885 28.0391 54.6885 28.8026V29.3352H48.3817V28.2486H53.4101C53.4101 27.7869 53.3177 27.375 53.1331 27.0128C52.952 26.6506 52.6927 26.3647 52.3554 26.1552C52.0216 25.9457 51.6274 25.8409 51.1729 25.8409C50.6721 25.8409 50.2389 25.9652 49.8731 26.2138C49.5109 26.4588 49.2322 26.7784 49.0368 27.1726C48.8415 27.5668 48.7439 27.9893 48.7439 28.4403V29.1648C48.7439 29.7827 48.8504 30.3065 49.0635 30.7362C49.2801 31.1623 49.5802 31.4872 49.9637 31.7109C50.3472 31.9311 50.7929 32.0412 51.3007 32.0412C51.6309 32.0412 51.9292 31.995 52.1956 31.9027C52.4655 31.8068 52.6981 31.6648 52.8934 31.4766C53.0887 31.2848 53.2396 31.0469 53.3461 30.7628L54.5606 31.1037C54.4328 31.5156 54.218 31.8778 53.9161 32.1903C53.6143 32.4993 53.2414 32.7408 52.7975 32.9148C52.3536 33.0852 51.8547 33.1705 51.3007 33.1705ZM56.6008 33V24.8182H57.8153V26.0966H57.9218C58.0922 25.6598 58.3675 25.3207 58.7474 25.0792C59.1274 24.8342 59.5837 24.7116 60.1164 24.7116C60.6562 24.7116 61.1054 24.8342 61.464 25.0792C61.8263 25.3207 62.1086 25.6598 62.311 26.0966H62.3962C62.6057 25.674 62.92 25.3384 63.339 25.0898C63.7581 24.8377 64.2606 24.7116 64.8465 24.7116C65.578 24.7116 66.1764 24.9407 66.6416 25.3988C67.1068 25.8533 67.3394 26.5618 67.3394 27.5241V33H66.0823V27.5241C66.0823 26.9205 65.9172 26.489 65.5869 26.2298C65.2567 25.9705 64.8678 25.8409 64.4204 25.8409C63.8451 25.8409 63.3994 26.0149 63.0834 26.3629C62.7673 26.7074 62.6093 27.1442 62.6093 27.6733V33H61.3309V27.3963C61.3309 26.9311 61.18 26.5565 60.8781 26.2724C60.5763 25.9847 60.1874 25.8409 59.7116 25.8409C59.3849 25.8409 59.0795 25.9279 58.7954 26.1019C58.5148 26.2759 58.2876 26.5174 58.1135 26.8263C57.9431 27.1317 57.8579 27.4851 57.8579 27.8864V33H56.6008ZM73.8566 33V24.8182H75.1137V33H73.8566ZM74.4958 23.4545C74.2508 23.4545 74.0395 23.3711 73.8619 23.2042C73.6879 23.0373 73.6009 22.8366 73.6009 22.6023C73.6009 22.3679 73.6879 22.1673 73.8619 22.0004C74.0395 21.8335 74.2508 21.75 74.4958 21.75C74.7409 21.75 74.9504 21.8335 75.1244 22.0004C75.3019 22.1673 75.3907 22.3679 75.3907 22.6023C75.3907 22.8366 75.3019 23.0373 75.1244 23.2042C74.9504 23.3711 74.7409 23.4545 74.4958 23.4545ZM77.4162 36.0682V24.8182H78.6307V26.1179H78.7798C78.8722 25.9759 79 25.7947 79.1634 25.5746C79.3303 25.3509 79.5682 25.152 79.8771 24.978C80.1896 24.8004 80.6122 24.7116 81.1449 24.7116C81.8338 24.7116 82.4411 24.8839 82.9666 25.2283C83.4922 25.5728 83.9023 26.0611 84.1971 26.6932C84.4918 27.3253 84.6392 28.071 84.6392 28.9304C84.6392 29.7969 84.4918 30.5479 84.1971 31.1836C83.9023 31.8157 83.494 32.3058 82.9719 32.6538C82.4499 32.9982 81.848 33.1705 81.1662 33.1705C80.6406 33.1705 80.2198 33.0835 79.9038 32.9094C79.5877 32.7319 79.3445 32.5312 79.174 32.3075C79.0036 32.0803 78.8722 31.892 78.7798 31.7429H78.6733V36.0682H77.4162ZM78.652 28.9091C78.652 29.527 78.7425 30.0721 78.9237 30.5444C79.1048 31.0131 79.3693 31.3807 79.7173 31.647C80.0653 31.9098 80.4915 32.0412 80.9957 32.0412C81.5213 32.0412 81.9599 31.9027 82.3114 31.6257C82.6665 31.3452 82.9329 30.9687 83.1104 30.4964C83.2915 30.0206 83.3821 29.4915 83.3821 28.9091C83.3821 28.3338 83.2933 27.8153 83.1158 27.3537C82.9418 26.8885 82.6772 26.521 82.3221 26.2511C81.9705 25.9776 81.5284 25.8409 80.9957 25.8409C80.4844 25.8409 80.0547 25.9705 79.7067 26.2298C79.3587 26.4854 79.0959 26.8441 78.9183 27.3058C78.7408 27.7638 78.652 28.2983 78.652 28.9091ZM92.3523 26.6506L91.223 26.9702C91.152 26.782 91.0472 26.5991 90.9087 26.4215C90.7738 26.2404 90.5891 26.0913 90.3548 25.9741C90.1204 25.8569 89.8203 25.7983 89.4545 25.7983C88.9538 25.7983 88.5366 25.9137 88.2028 26.1445C87.8725 26.3718 87.7074 26.6612 87.7074 27.0128C87.7074 27.3253 87.821 27.5721 88.0483 27.7532C88.2756 27.9343 88.6307 28.0852 89.1136 28.206L90.3281 28.5043C91.0597 28.6818 91.6048 28.9535 91.9634 29.3192C92.3221 29.6815 92.5014 30.1484 92.5014 30.7202C92.5014 31.1889 92.3665 31.608 92.0966 31.9773C91.8303 32.3466 91.4574 32.6378 90.978 32.8509C90.4986 33.0639 89.9411 33.1705 89.3054 33.1705C88.4709 33.1705 87.7802 32.9893 87.2333 32.6271C86.6864 32.2649 86.3402 31.7358 86.1946 31.0398L87.3878 30.7415C87.5014 31.1818 87.7163 31.5121 88.0323 31.7322C88.3519 31.9524 88.7692 32.0625 89.2841 32.0625C89.87 32.0625 90.3352 31.9382 90.6797 31.6896C91.0277 31.4375 91.2017 31.1357 91.2017 30.7841C91.2017 30.5 91.1023 30.2621 90.9034 30.0703C90.7045 29.875 90.3991 29.7294 89.9872 29.6335L88.6236 29.3139C87.8743 29.1364 87.3239 28.8612 86.9723 28.4883C86.6243 28.1119 86.4503 27.6413 86.4503 27.0767C86.4503 26.6151 86.5799 26.2067 86.8391 25.8516C87.1019 25.4964 87.4588 25.2177 87.9098 25.0153C88.3643 24.8129 88.8793 24.7116 89.4545 24.7116C90.2642 24.7116 90.8999 24.8892 91.3615 25.2443C91.8267 25.5994 92.157 26.0682 92.3523 26.6506ZM99.55 29.6548V24.8182H100.807V33H99.55V31.6151H99.4648C99.273 32.0305 98.9747 32.3839 98.5699 32.6751C98.165 32.9627 97.6537 33.1065 97.0358 33.1065C96.5244 33.1065 96.0699 32.9947 95.6721 32.771C95.2744 32.5437 94.9619 32.2028 94.7346 31.7482C94.5074 31.2901 94.3937 30.7131 94.3937 30.017V24.8182H95.6508V29.9318C95.6508 30.5284 95.8177 31.0043 96.1515 31.3594C96.4889 31.7145 96.9186 31.892 97.4406 31.892C97.7531 31.892 98.0709 31.8121 98.3941 31.6523C98.7208 31.4925 98.9942 31.2475 99.2144 30.9173C99.4381 30.587 99.55 30.1662 99.55 29.6548ZM103.11 33V24.8182H104.324V26.0966H104.431C104.601 25.6598 104.876 25.3207 105.256 25.0792C105.636 24.8342 106.093 24.7116 106.625 24.7116C107.165 24.7116 107.614 24.8342 107.973 25.0792C108.335 25.3207 108.617 25.6598 108.82 26.0966H108.905C109.115 25.674 109.429 25.3384 109.848 25.0898C110.267 24.8377 110.769 24.7116 111.355 24.7116C112.087 24.7116 112.685 24.9407 113.15 25.3988C113.616 25.8533 113.848 26.5618 113.848 27.5241V33H112.591V27.5241C112.591 26.9205 112.426 26.489 112.096 26.2298C111.765 25.9705 111.377 25.8409 110.929 25.8409C110.354 25.8409 109.908 26.0149 109.592 26.3629C109.276 26.7074 109.118 27.1442 109.118 27.6733V33H107.84V27.3963C107.84 26.9311 107.689 26.5565 107.387 26.2724C107.085 25.9847 106.696 25.8409 106.22 25.8409C105.894 25.8409 105.588 25.9279 105.304 26.1019C105.024 26.2759 104.796 26.5174 104.622 26.8263C104.452 27.1317 104.367 27.4851 104.367 27.8864V33H103.11ZM123.455 33.1705C122.773 33.1705 122.171 32.9982 121.649 32.6538C121.127 32.3058 120.719 31.8157 120.424 31.1836C120.129 30.5479 119.982 29.7969 119.982 28.9304C119.982 28.071 120.129 27.3253 120.424 26.6932C120.719 26.0611 121.129 25.5728 121.654 25.2283C122.18 24.8839 122.787 24.7116 123.476 24.7116C124.009 24.7116 124.43 24.8004 124.739 24.978C125.051 25.152 125.289 25.3509 125.452 25.5746C125.619 25.7947 125.749 25.9759 125.841 26.1179H125.948V22.0909H127.205V33H125.99V31.7429H125.841C125.749 31.892 125.618 32.0803 125.447 32.3075C125.277 32.5312 125.033 32.7319 124.717 32.9094C124.401 33.0835 123.98 33.1705 123.455 33.1705ZM123.625 32.0412C124.13 32.0412 124.556 31.9098 124.904 31.647C125.252 31.3807 125.516 31.0131 125.697 30.5444C125.879 30.0721 125.969 29.527 125.969 28.9091C125.969 28.2983 125.88 27.7638 125.703 27.3058C125.525 26.8441 125.262 26.4854 124.914 26.2298C124.566 25.9705 124.137 25.8409 123.625 25.8409C123.093 25.8409 122.649 25.9776 122.294 26.2511C121.942 26.521 121.678 26.8885 121.5 27.3537C121.326 27.8153 121.239 28.3338 121.239 28.9091C121.239 29.4915 121.328 30.0206 121.505 30.4964C121.686 30.9687 121.953 31.3452 122.304 31.6257C122.659 31.9027 123.1 32.0412 123.625 32.0412ZM133.006 33.1705C132.267 33.1705 131.619 32.9947 131.061 32.6431C130.507 32.2915 130.074 31.7997 129.762 31.1676C129.453 30.5355 129.298 29.7969 129.298 28.9517C129.298 28.0994 129.453 27.3555 129.762 26.7198C130.074 26.0842 130.507 25.5906 131.061 25.239C131.619 24.8874 132.267 24.7116 133.006 24.7116C133.744 24.7116 134.391 24.8874 134.945 25.239C135.502 25.5906 135.935 26.0842 136.244 26.7198C136.557 27.3555 136.713 28.0994 136.713 28.9517C136.713 29.7969 136.557 30.5355 136.244 31.1676C135.935 31.7997 135.502 32.2915 134.945 32.6431C134.391 32.9947 133.744 33.1705 133.006 33.1705ZM133.006 32.0412C133.567 32.0412 134.028 31.8974 134.391 31.6097C134.753 31.3221 135.021 30.9439 135.195 30.4751C135.369 30.0064 135.456 29.4986 135.456 28.9517C135.456 28.4048 135.369 27.8952 135.195 27.4229C135.021 26.9506 134.753 26.5689 134.391 26.2777C134.028 25.9865 133.567 25.8409 133.006 25.8409C132.445 25.8409 131.983 25.9865 131.621 26.2777C131.259 26.5689 130.99 26.9506 130.816 27.4229C130.642 27.8952 130.555 28.4048 130.555 28.9517C130.555 29.4986 130.642 30.0064 130.816 30.4751C130.99 30.9439 131.259 31.3221 131.621 31.6097C131.983 31.8974 132.445 32.0412 133.006 32.0412ZM139.889 22.0909V33H138.632V22.0909H139.889ZM145.515 33.1705C144.777 33.1705 144.129 32.9947 143.571 32.6431C143.017 32.2915 142.584 31.7997 142.271 31.1676C141.963 30.5355 141.808 29.7969 141.808 28.9517C141.808 28.0994 141.963 27.3555 142.271 26.7198C142.584 26.0842 143.017 25.5906 143.571 25.239C144.129 24.8874 144.777 24.7116 145.515 24.7116C146.254 24.7116 146.9 24.8874 147.454 25.239C148.012 25.5906 148.445 26.0842 148.754 26.7198C149.067 27.3555 149.223 28.0994 149.223 28.9517C149.223 29.7969 149.067 30.5355 148.754 31.1676C148.445 31.7997 148.012 32.2915 147.454 32.6431C146.9 32.9947 146.254 33.1705 145.515 33.1705ZM145.515 32.0412C146.077 32.0412 146.538 31.8974 146.9 31.6097C147.263 31.3221 147.531 30.9439 147.705 30.4751C147.879 30.0064 147.966 29.4986 147.966 28.9517C147.966 28.4048 147.879 27.8952 147.705 27.4229C147.531 26.9506 147.263 26.5689 146.9 26.2777C146.538 25.9865 146.077 25.8409 145.515 25.8409C144.954 25.8409 144.493 25.9865 144.131 26.2777C143.768 26.5689 143.5 26.9506 143.326 27.4229C143.152 27.8952 143.065 28.4048 143.065 28.9517C143.065 29.4986 143.152 30.0064 143.326 30.4751C143.5 30.9439 143.768 31.3221 144.131 31.6097C144.493 31.8974 144.954 32.0412 145.515 32.0412ZM151.142 33V24.8182H152.356V26.054H152.441C152.591 25.6491 152.861 25.3207 153.251 25.0685C153.642 24.8164 154.082 24.6903 154.572 24.6903C154.665 24.6903 154.78 24.6921 154.918 24.6957C155.057 24.6992 155.162 24.7045 155.233 24.7116V25.9901C155.19 25.9794 155.092 25.9634 154.94 25.9421C154.791 25.9173 154.633 25.9048 154.466 25.9048C154.068 25.9048 153.713 25.9883 153.4 26.1552C153.091 26.3185 152.846 26.5458 152.665 26.837C152.488 27.1246 152.399 27.4531 152.399 27.8224V33H151.142ZM166.737 26.6506L165.608 26.9702C165.537 26.782 165.432 26.5991 165.294 26.4215C165.159 26.2404 164.974 26.0913 164.74 25.9741C164.505 25.8569 164.205 25.7983 163.839 25.7983C163.339 25.7983 162.921 25.9137 162.588 26.1445C162.257 26.3718 162.092 26.6612 162.092 27.0128C162.092 27.3253 162.206 27.5721 162.433 27.7532C162.66 27.9343 163.015 28.0852 163.498 28.206L164.713 28.5043C165.444 28.6818 165.99 28.9535 166.348 29.3192C166.707 29.6815 166.886 30.1484 166.886 30.7202C166.886 31.1889 166.751 31.608 166.481 31.9773C166.215 32.3466 165.842 32.6378 165.363 32.8509C164.883 33.0639 164.326 33.1705 163.69 33.1705C162.856 33.1705 162.165 32.9893 161.618 32.6271C161.071 32.2649 160.725 31.7358 160.579 31.0398L161.773 30.7415C161.886 31.1818 162.101 31.5121 162.417 31.7322C162.737 31.9524 163.154 32.0625 163.669 32.0625C164.255 32.0625 164.72 31.9382 165.064 31.6896C165.412 31.4375 165.586 31.1357 165.586 30.7841C165.586 30.5 165.487 30.2621 165.288 30.0703C165.089 29.875 164.784 29.7294 164.372 29.6335L163.008 29.3139C162.259 29.1364 161.709 28.8612 161.357 28.4883C161.009 28.1119 160.835 27.6413 160.835 27.0767C160.835 26.6151 160.965 26.2067 161.224 25.8516C161.487 25.4964 161.844 25.2177 162.295 25.0153C162.749 24.8129 163.264 24.7116 163.839 24.7116C164.649 24.7116 165.285 24.8892 165.746 25.2443C166.211 25.5994 166.542 26.0682 166.737 26.6506ZM168.778 33V24.8182H170.036V33H168.778ZM169.418 23.4545C169.173 23.4545 168.961 23.3711 168.784 23.2042C168.61 23.0373 168.523 22.8366 168.523 22.6023C168.523 22.3679 168.61 22.1673 168.784 22.0004C168.961 21.8335 169.173 21.75 169.418 21.75C169.663 21.75 169.872 21.8335 170.046 22.0004C170.224 22.1673 170.313 22.3679 170.313 22.6023C170.313 22.8366 170.224 23.0373 170.046 23.2042C169.872 23.3711 169.663 23.4545 169.418 23.4545ZM175.896 24.8182V25.8835H171.656V24.8182H175.896ZM172.892 22.858H174.149V30.6562C174.149 31.0114 174.201 31.2777 174.304 31.4553C174.41 31.6293 174.545 31.7464 174.708 31.8068C174.875 31.8636 175.051 31.892 175.236 31.892C175.374 31.892 175.488 31.8849 175.577 31.8707C175.665 31.853 175.737 31.8388 175.79 31.8281L176.045 32.9574C175.96 32.9893 175.841 33.0213 175.689 33.0533C175.536 33.0888 175.342 33.1065 175.108 33.1065C174.753 33.1065 174.405 33.0302 174.064 32.8775C173.727 32.7248 173.446 32.4922 173.222 32.1797C173.002 31.8672 172.892 31.473 172.892 30.9972V22.858ZM184.414 33.1918C183.895 33.1918 183.425 33.0941 183.002 32.8988C182.58 32.6999 182.244 32.4141 181.995 32.0412C181.747 31.6648 181.623 31.2102 181.623 30.6776C181.623 30.2088 181.715 29.8288 181.9 29.5376C182.084 29.2429 182.331 29.0121 182.64 28.8452C182.949 28.6783 183.29 28.554 183.663 28.4723C184.039 28.3871 184.417 28.3196 184.797 28.2699C185.294 28.206 185.697 28.158 186.006 28.1261C186.319 28.0906 186.546 28.032 186.688 27.9503C186.834 27.8686 186.907 27.7266 186.907 27.5241V27.4815C186.907 26.956 186.763 26.5476 186.475 26.2564C186.191 25.9652 185.76 25.8196 185.181 25.8196C184.581 25.8196 184.11 25.951 183.769 26.2138C183.428 26.4766 183.189 26.7571 183.05 27.0554L181.857 26.6293C182.07 26.1321 182.354 25.745 182.709 25.468C183.068 25.1875 183.458 24.9922 183.881 24.8821C184.307 24.7685 184.726 24.7116 185.138 24.7116C185.401 24.7116 185.703 24.7436 186.044 24.8075C186.388 24.8679 186.72 24.994 187.04 25.1857C187.363 25.3775 187.631 25.6669 187.844 26.054C188.057 26.4411 188.164 26.9595 188.164 27.6094V33H186.907V31.892H186.843C186.757 32.0696 186.615 32.2596 186.417 32.462C186.218 32.6644 185.953 32.8366 185.623 32.9787C185.293 33.1207 184.89 33.1918 184.414 33.1918ZM184.605 32.0625C185.103 32.0625 185.522 31.9648 185.863 31.7695C186.207 31.5742 186.466 31.3221 186.64 31.0131C186.818 30.7042 186.907 30.3793 186.907 30.0384V28.8878C186.853 28.9517 186.736 29.0103 186.555 29.0636C186.377 29.1133 186.172 29.1577 185.937 29.1967C185.706 29.2322 185.481 29.2642 185.261 29.2926C185.044 29.3175 184.868 29.3388 184.733 29.3565C184.407 29.3991 184.101 29.4684 183.817 29.5643C183.537 29.6566 183.309 29.7969 183.135 29.9851C182.965 30.1697 182.88 30.4219 182.88 30.7415C182.88 31.1783 183.041 31.5085 183.364 31.7322C183.691 31.9524 184.105 32.0625 184.605 32.0625ZM190.458 33V24.8182H191.673V26.0966H191.779C191.95 25.6598 192.225 25.3207 192.605 25.0792C192.985 24.8342 193.441 24.7116 193.974 24.7116C194.514 24.7116 194.963 24.8342 195.321 25.0792C195.684 25.3207 195.966 25.6598 196.168 26.0966H196.254C196.463 25.674 196.777 25.3384 197.196 25.0898C197.616 24.8377 198.118 24.7116 198.704 24.7116C199.435 24.7116 200.034 24.9407 200.499 25.3988C200.964 25.8533 201.197 26.5618 201.197 27.5241V33H199.94V27.5241C199.94 26.9205 199.775 26.489 199.444 26.2298C199.114 25.9705 198.725 25.8409 198.278 25.8409C197.703 25.8409 197.257 26.0149 196.941 26.3629C196.625 26.7074 196.467 27.1442 196.467 27.6733V33H195.188V27.3963C195.188 26.9311 195.037 26.5565 194.736 26.2724C194.434 25.9847 194.045 25.8409 193.569 25.8409C193.242 25.8409 192.937 25.9279 192.653 26.1019C192.372 26.2759 192.145 26.5174 191.971 26.8263C191.801 27.1317 191.715 27.4851 191.715 27.8864V33H190.458ZM206.926 33.1705C206.137 33.1705 205.457 32.9964 204.886 32.6484C204.317 32.2969 203.879 31.8068 203.57 31.1783C203.264 30.5462 203.112 29.8111 203.112 28.973C203.112 28.1349 203.264 27.3963 203.57 26.7571C203.879 26.1143 204.309 25.6136 204.859 25.255C205.413 24.8928 206.059 24.7116 206.798 24.7116C207.224 24.7116 207.645 24.7827 208.06 24.9247C208.476 25.0668 208.854 25.2976 209.195 25.6172C209.536 25.9332 209.807 26.3523 210.01 26.8743C210.212 27.3963 210.313 28.0391 210.313 28.8026V29.3352H204.007V28.2486H209.035C209.035 27.7869 208.943 27.375 208.758 27.0128C208.577 26.6506 208.318 26.3647 207.98 26.1552C207.647 25.9457 207.252 25.8409 206.798 25.8409C206.297 25.8409 205.864 25.9652 205.498 26.2138C205.136 26.4588 204.857 26.7784 204.662 27.1726C204.467 27.5668 204.369 27.9893 204.369 28.4403V29.1648C204.369 29.7827 204.475 30.3065 204.688 30.7362C204.905 31.1623 205.205 31.4872 205.589 31.7109C205.972 31.9311 206.418 32.0412 206.926 32.0412C207.256 32.0412 207.554 31.995 207.821 31.9027C208.09 31.8068 208.323 31.6648 208.518 31.4766C208.714 31.2848 208.865 31.0469 208.971 30.7628L210.186 31.1037C210.058 31.5156 209.843 31.8778 209.541 32.1903C209.239 32.4993 208.866 32.7408 208.422 32.9148C207.979 33.0852 207.48 33.1705 206.926 33.1705ZM215.784 24.8182V25.8835H211.544V24.8182H215.784ZM212.78 22.858H214.037V30.6562C214.037 31.0114 214.088 31.2777 214.191 31.4553C214.298 31.6293 214.433 31.7464 214.596 31.8068C214.763 31.8636 214.939 31.892 215.123 31.892C215.262 31.892 215.376 31.8849 215.464 31.8707C215.553 31.853 215.624 31.8388 215.677 31.8281L215.933 32.9574C215.848 32.9893 215.729 33.0213 215.576 33.0533C215.424 33.0888 215.23 33.1065 214.996 33.1065C214.641 33.1065 214.293 33.0302 213.952 32.8775C213.614 32.7248 213.334 32.4922 213.11 32.1797C212.89 31.8672 212.78 31.473 212.78 30.9972V22.858ZM219.55 31.5085L219.465 32.0838C219.404 32.4886 219.312 32.9219 219.188 33.3835C219.067 33.8452 218.941 34.2802 218.81 34.6886C218.678 35.0969 218.57 35.4219 218.485 35.6634H217.526C217.572 35.4361 217.632 35.136 217.707 34.7631C217.782 34.3903 217.856 33.973 217.931 33.5114C218.009 33.0533 218.073 32.5845 218.122 32.1051L218.186 31.5085H219.55ZM28.4744 56.1705C27.7074 56.1705 27.0469 55.9893 26.4929 55.6271C25.9389 55.2649 25.5128 54.766 25.2145 54.1303C24.9162 53.4947 24.767 52.7685 24.767 51.9517C24.767 51.1207 24.9197 50.3874 25.2251 49.7518C25.5341 49.1126 25.9638 48.6136 26.5142 48.255C27.0682 47.8928 27.7145 47.7116 28.4531 47.7116C29.0284 47.7116 29.5469 47.8182 30.0085 48.0312C30.4702 48.2443 30.8484 48.5426 31.1431 48.9261C31.4379 49.3097 31.6207 49.7571 31.6918 50.2685H30.4347C30.3388 49.8956 30.1257 49.5653 29.7955 49.2777C29.4688 48.9865 29.0284 48.8409 28.4744 48.8409C27.9844 48.8409 27.5547 48.9687 27.1854 49.2244C26.8196 49.4766 26.5337 49.8335 26.3278 50.2951C26.1254 50.7532 26.0241 51.2912 26.0241 51.9091C26.0241 52.5412 26.1236 53.0916 26.3224 53.5604C26.5249 54.0291 26.8089 54.3931 27.1747 54.6523C27.544 54.9116 27.9773 55.0412 28.4744 55.0412C28.8011 55.0412 29.0977 54.9844 29.364 54.8707C29.6303 54.7571 29.8558 54.5938 30.0405 54.3807C30.2251 54.1676 30.3565 53.9119 30.4347 53.6136H31.6918C31.6207 54.0966 31.445 54.5316 31.1644 54.9187C30.8874 55.3022 30.5199 55.6076 30.0618 55.8349C29.6072 56.0586 29.0781 56.1705 28.4744 56.1705ZM36.8533 56.1705C36.1147 56.1705 35.4666 55.9947 34.9091 55.6431C34.3551 55.2915 33.9219 54.7997 33.6094 54.1676C33.3004 53.5355 33.146 52.7969 33.146 51.9517C33.146 51.0994 33.3004 50.3555 33.6094 49.7198C33.9219 49.0842 34.3551 48.5906 34.9091 48.239C35.4666 47.8874 36.1147 47.7116 36.8533 47.7116C37.592 47.7116 38.2383 47.8874 38.7923 48.239C39.3498 48.5906 39.783 49.0842 40.092 49.7198C40.4045 50.3555 40.5607 51.0994 40.5607 51.9517C40.5607 52.7969 40.4045 53.5355 40.092 54.1676C39.783 54.7997 39.3498 55.2915 38.7923 55.6431C38.2383 55.9947 37.592 56.1705 36.8533 56.1705ZM36.8533 55.0412C37.4144 55.0412 37.8761 54.8974 38.2383 54.6097C38.6005 54.3221 38.8686 53.9439 39.0426 53.4751C39.2166 53.0064 39.3036 52.4986 39.3036 51.9517C39.3036 51.4048 39.2166 50.8952 39.0426 50.4229C38.8686 49.9506 38.6005 49.5689 38.2383 49.2777C37.8761 48.9865 37.4144 48.8409 36.8533 48.8409C36.2923 48.8409 35.8306 48.9865 35.4684 49.2777C35.1062 49.5689 34.8381 49.9506 34.6641 50.4229C34.4901 50.8952 34.4031 51.4048 34.4031 51.9517C34.4031 52.4986 34.4901 53.0064 34.6641 53.4751C34.8381 53.9439 35.1062 54.3221 35.4684 54.6097C35.8306 54.8974 36.2923 55.0412 36.8533 55.0412ZM43.7368 51.0781V56H42.4797V47.8182H43.6942V49.0966H43.8007C43.9925 48.6811 44.2836 48.3473 44.6743 48.0952C45.0649 47.8395 45.5692 47.7116 46.1871 47.7116C46.741 47.7116 47.2258 47.8253 47.6412 48.0526C48.0567 48.2763 48.3799 48.6172 48.6107 49.0753C48.8415 49.5298 48.9569 50.1051 48.9569 50.8011V56H47.6998V50.8864C47.6998 50.2436 47.5329 49.7429 47.1991 49.3842C46.8653 49.022 46.4072 48.8409 45.8248 48.8409C45.4236 48.8409 45.0649 48.9279 44.7488 49.1019C44.4363 49.2759 44.1895 49.5298 44.0084 49.8636C43.8273 50.1974 43.7368 50.6023 43.7368 51.0781ZM57.0495 49.6506L55.9203 49.9702C55.8493 49.782 55.7445 49.5991 55.606 49.4215C55.4711 49.2404 55.2864 49.0913 55.052 48.9741C54.8176 48.8569 54.5176 48.7983 54.1518 48.7983C53.6511 48.7983 53.2338 48.9137 52.9 49.1445C52.5698 49.3718 52.4047 49.6612 52.4047 50.0128C52.4047 50.3253 52.5183 50.5721 52.7456 50.7532C52.9728 50.9343 53.3279 51.0852 53.8109 51.206L55.0254 51.5043C55.7569 51.6818 56.302 51.9535 56.6607 52.3192C57.0194 52.6815 57.1987 53.1484 57.1987 53.7202C57.1987 54.1889 57.0637 54.608 56.7939 54.9773C56.5275 55.3466 56.1547 55.6378 55.6752 55.8509C55.1958 56.0639 54.6383 56.1705 54.0027 56.1705C53.1681 56.1705 52.4775 55.9893 51.9306 55.6271C51.3837 55.2649 51.0375 54.7358 50.8919 54.0398L52.085 53.7415C52.1987 54.1818 52.4135 54.5121 52.7296 54.7322C53.0492 54.9524 53.4664 55.0625 53.9814 55.0625C54.5673 55.0625 55.0325 54.9382 55.377 54.6896C55.725 54.4375 55.899 54.1357 55.899 53.7841C55.899 53.5 55.7995 53.2621 55.6007 53.0703C55.4018 52.875 55.0964 52.7294 54.6845 52.6335L53.3208 52.3139C52.5716 52.1364 52.0211 51.8612 51.6696 51.4883C51.3216 51.1119 51.1475 50.6413 51.1475 50.0767C51.1475 49.6151 51.2772 49.2067 51.5364 48.8516C51.7992 48.4964 52.1561 48.2177 52.6071 48.0153C53.0616 47.8129 53.5765 47.7116 54.1518 47.7116C54.9615 47.7116 55.5971 47.8892 56.0588 48.2443C56.524 48.5994 56.8542 49.0682 57.0495 49.6506ZM62.5214 56.1705C61.733 56.1705 61.053 55.9964 60.4813 55.6484C59.9131 55.2969 59.4745 54.8068 59.1656 54.1783C58.8602 53.5462 58.7075 52.8111 58.7075 51.973C58.7075 51.1349 58.8602 50.3963 59.1656 49.7571C59.4745 49.1143 59.9042 48.6136 60.4546 48.255C61.0086 47.8928 61.6549 47.7116 62.3936 47.7116C62.8197 47.7116 63.2405 47.7827 63.656 47.9247C64.0715 48.0668 64.4497 48.2976 64.7906 48.6172C65.1315 48.9332 65.4031 49.3523 65.6056 49.8743C65.808 50.3963 65.9092 51.0391 65.9092 51.8026V52.3352H59.6024V51.2486H64.6308C64.6308 50.7869 64.5384 50.375 64.3538 50.0128C64.1727 49.6506 63.9134 49.3647 63.5761 49.1552C63.2423 48.9457 62.8481 48.8409 62.3936 48.8409C61.8928 48.8409 61.4596 48.9652 61.0938 49.2138C60.7316 49.4588 60.4529 49.7784 60.2575 50.1726C60.0622 50.5668 59.9646 50.9893 59.9646 51.4403V52.1648C59.9646 52.7827 60.0711 53.3065 60.2842 53.7362C60.5008 54.1623 60.8009 54.4872 61.1844 54.7109C61.5679 54.9311 62.0136 55.0412 62.5214 55.0412C62.8517 55.0412 63.1499 54.995 63.4163 54.9027C63.6862 54.8068 63.9188 54.6648 64.1141 54.4766C64.3094 54.2848 64.4603 54.0469 64.5669 53.7628L65.7813 54.1037C65.6535 54.5156 65.4387 54.8778 65.1368 55.1903C64.835 55.4993 64.4621 55.7408 64.0182 55.9148C63.5743 56.0852 63.0754 56.1705 62.5214 56.1705ZM71.1453 56.1705C70.3783 56.1705 69.7178 55.9893 69.1638 55.6271C68.6098 55.2649 68.1837 54.766 67.8854 54.1303C67.5871 53.4947 67.4379 52.7685 67.4379 51.9517C67.4379 51.1207 67.5906 50.3874 67.896 49.7518C68.205 49.1126 68.6347 48.6136 69.1851 48.255C69.7391 47.8928 70.3854 47.7116 71.124 47.7116C71.6993 47.7116 72.2178 47.8182 72.6794 48.0312C73.1411 48.2443 73.5193 48.5426 73.814 48.9261C74.1088 49.3097 74.2916 49.7571 74.3627 50.2685H73.1056C73.0097 49.8956 72.7966 49.5653 72.4664 49.2777C72.1396 48.9865 71.6993 48.8409 71.1453 48.8409C70.6553 48.8409 70.2256 48.9687 69.8563 49.2244C69.4905 49.4766 69.2046 49.8335 68.9987 50.2951C68.7963 50.7532 68.695 51.2912 68.695 51.9091C68.695 52.5412 68.7945 53.0916 68.9933 53.5604C69.1958 54.0291 69.4798 54.3931 69.8456 54.6523C70.2149 54.9116 70.6482 55.0412 71.1453 55.0412C71.472 55.0412 71.7686 54.9844 72.0349 54.8707C72.3012 54.7571 72.5267 54.5938 72.7114 54.3807C72.896 54.1676 73.0274 53.9119 73.1056 53.6136H74.3627C74.2916 54.0966 74.1159 54.5316 73.8353 54.9187C73.5583 55.3022 73.1908 55.6076 72.7327 55.8349C72.2781 56.0586 71.749 56.1705 71.1453 56.1705ZM79.7586 47.8182V48.8835H75.5186V47.8182H79.7586ZM76.7544 45.858H78.0115V53.6562C78.0115 54.0114 78.0629 54.2777 78.1659 54.4553C78.2725 54.6293 78.4074 54.7464 78.5708 54.8068C78.7377 54.8636 78.9134 54.892 79.0981 54.892C79.2366 54.892 79.3502 54.8849 79.439 54.8707C79.5278 54.853 79.5988 54.8388 79.6521 54.8281L79.9078 55.9574C79.8225 55.9893 79.7036 56.0213 79.5509 56.0533C79.3982 56.0888 79.2046 56.1065 78.9703 56.1065C78.6151 56.1065 78.2671 56.0302 77.9262 55.8775C77.5889 55.7248 77.3083 55.4922 77.0846 55.1797C76.8644 54.8672 76.7544 54.473 76.7544 53.9972V45.858ZM84.9921 56.1705C84.2037 56.1705 83.5237 55.9964 82.952 55.6484C82.3838 55.2969 81.9452 54.8068 81.6363 54.1783C81.3309 53.5462 81.1782 52.8111 81.1782 51.973C81.1782 51.1349 81.3309 50.3963 81.6363 49.7571C81.9452 49.1143 82.3749 48.6136 82.9253 48.255C83.4793 47.8928 84.1256 47.7116 84.8643 47.7116C85.2904 47.7116 85.7112 47.7827 86.1267 47.9247C86.5422 48.0668 86.9204 48.2976 87.2613 48.6172C87.6022 48.9332 87.8738 49.3523 88.0763 49.8743C88.2787 50.3963 88.3799 51.0391 88.3799 51.8026V52.3352H82.0731V51.2486H87.1015C87.1015 50.7869 87.0091 50.375 86.8245 50.0128C86.6434 49.6506 86.3841 49.3647 86.0468 49.1552C85.713 48.9457 85.3188 48.8409 84.8643 48.8409C84.3635 48.8409 83.9303 48.9652 83.5645 49.2138C83.2023 49.4588 82.9236 49.7784 82.7282 50.1726C82.5329 50.5668 82.4353 50.9893 82.4353 51.4403V52.1648C82.4353 52.7827 82.5418 53.3065 82.7549 53.7362C82.9715 54.1623 83.2716 54.4872 83.6551 54.7109C84.0386 54.9311 84.4843 55.0412 84.9921 55.0412C85.3224 55.0412 85.6207 54.995 85.887 54.9027C86.1569 54.8068 86.3895 54.6648 86.5848 54.4766C86.7801 54.2848 86.931 54.0469 87.0376 53.7628L88.252 54.1037C88.1242 54.5156 87.9094 54.8778 87.6075 55.1903C87.3057 55.4993 86.9328 55.7408 86.4889 55.9148C86.045 56.0852 85.5461 56.1705 84.9921 56.1705ZM93.8504 47.8182V48.8835H89.6104V47.8182H93.8504ZM90.8461 45.858H92.1032V53.6562C92.1032 54.0114 92.1547 54.2777 92.2577 54.4553C92.3643 54.6293 92.4992 54.7464 92.6626 54.8068C92.8295 54.8636 93.0052 54.892 93.1899 54.892C93.3284 54.892 93.442 54.8849 93.5308 54.8707C93.6196 54.853 93.6906 54.8388 93.7439 54.8281L93.9996 55.9574C93.9143 55.9893 93.7954 56.0213 93.6427 56.0533C93.49 56.0888 93.2964 56.1065 93.0621 56.1065C92.7069 56.1065 92.3589 56.0302 92.018 55.8775C91.6807 55.7248 91.4001 55.4922 91.1764 55.1797C90.9562 54.8672 90.8461 54.473 90.8461 53.9972V45.858ZM100.898 52.6548V47.8182H102.155V56H100.898V54.6151H100.812C100.621 55.0305 100.322 55.3839 99.9175 55.6751C99.5127 55.9627 99.0013 56.1065 98.3834 56.1065C97.8721 56.1065 97.4175 55.9947 97.0198 55.771C96.6221 55.5437 96.3096 55.2028 96.0823 54.7482C95.855 54.2901 95.7414 53.7131 95.7414 53.017V47.8182H96.9985V52.9318C96.9985 53.5284 97.1654 54.0043 97.4992 54.3594C97.8366 54.7145 98.2662 54.892 98.7883 54.892C99.1008 54.892 99.4186 54.8121 99.7417 54.6523C100.068 54.4925 100.342 54.2475 100.562 53.9173C100.786 53.587 100.898 53.1662 100.898 52.6548ZM104.457 56V47.8182H105.672V49.054H105.757C105.906 48.6491 106.176 48.3207 106.567 48.0685C106.957 47.8164 107.398 47.6903 107.888 47.6903C107.98 47.6903 108.095 47.6921 108.234 47.6957C108.372 47.6992 108.477 47.7045 108.548 47.7116V48.9901C108.506 48.9794 108.408 48.9634 108.255 48.9421C108.106 48.9173 107.948 48.9048 107.781 48.9048C107.383 48.9048 107.028 48.9883 106.716 49.1552C106.407 49.3185 106.162 49.5458 105.981 49.837C105.803 50.1246 105.714 50.4531 105.714 50.8224V56H104.457ZM116.665 56.1918C116.146 56.1918 115.676 56.0941 115.253 55.8988C114.831 55.6999 114.495 55.4141 114.246 55.0412C113.998 54.6648 113.873 54.2102 113.873 53.6776C113.873 53.2088 113.966 52.8288 114.15 52.5376C114.335 52.2429 114.582 52.0121 114.891 51.8452C115.2 51.6783 115.541 51.554 115.914 51.4723C116.29 51.3871 116.668 51.3196 117.048 51.2699C117.545 51.206 117.948 51.158 118.257 51.1261C118.57 51.0906 118.797 51.032 118.939 50.9503C119.085 50.8686 119.158 50.7266 119.158 50.5241V50.4815C119.158 49.956 119.014 49.5476 118.726 49.2564C118.442 48.9652 118.011 48.8196 117.432 48.8196C116.832 48.8196 116.361 48.951 116.02 49.2138C115.679 49.4766 115.44 49.7571 115.301 50.0554L114.108 49.6293C114.321 49.1321 114.605 48.745 114.96 48.468C115.319 48.1875 115.709 47.9922 116.132 47.8821C116.558 47.7685 116.977 47.7116 117.389 47.7116C117.652 47.7116 117.954 47.7436 118.295 47.8075C118.639 47.8679 118.971 47.994 119.291 48.1857C119.614 48.3775 119.882 48.6669 120.095 49.054C120.308 49.4411 120.415 49.9595 120.415 50.6094V56H119.158V54.892H119.094C119.008 55.0696 118.866 55.2596 118.668 55.462C118.469 55.6644 118.204 55.8366 117.874 55.9787C117.544 56.1207 117.141 56.1918 116.665 56.1918ZM116.856 55.0625C117.354 55.0625 117.773 54.9648 118.114 54.7695C118.458 54.5742 118.717 54.3221 118.891 54.0131C119.069 53.7042 119.158 53.3793 119.158 53.0384V51.8878C119.104 51.9517 118.987 52.0103 118.806 52.0636C118.628 52.1133 118.422 52.1577 118.188 52.1967C117.957 52.2322 117.732 52.2642 117.512 52.2926C117.295 52.3175 117.119 52.3388 116.984 52.3565C116.658 52.3991 116.352 52.4684 116.068 52.5643C115.788 52.6566 115.56 52.7969 115.386 52.9851C115.216 53.1697 115.131 53.4219 115.131 53.7415C115.131 54.1783 115.292 54.5085 115.615 54.7322C115.942 54.9524 116.356 55.0625 116.856 55.0625ZM125.799 56.1705C125.117 56.1705 124.515 55.9982 123.993 55.6538C123.471 55.3058 123.063 54.8157 122.768 54.1836C122.473 53.5479 122.326 52.7969 122.326 51.9304C122.326 51.071 122.473 50.3253 122.768 49.6932C123.063 49.0611 123.473 48.5728 123.998 48.2283C124.524 47.8839 125.131 47.7116 125.82 47.7116C126.353 47.7116 126.773 47.8004 127.082 47.978C127.395 48.152 127.633 48.3509 127.796 48.5746C127.963 48.7947 128.093 48.9759 128.185 49.1179H128.292V45.0909H129.549V56H128.334V54.7429H128.185C128.093 54.892 127.961 55.0803 127.791 55.3075C127.62 55.5312 127.377 55.7319 127.061 55.9094C126.745 56.0835 126.324 56.1705 125.799 56.1705ZM125.969 55.0412C126.473 55.0412 126.9 54.9098 127.248 54.647C127.596 54.3807 127.86 54.0131 128.041 53.5444C128.222 53.0721 128.313 52.527 128.313 51.9091C128.313 51.2983 128.224 50.7638 128.047 50.3058C127.869 49.8441 127.606 49.4854 127.258 49.2298C126.91 48.9705 126.48 48.8409 125.969 48.8409C125.436 48.8409 124.993 48.9776 124.637 49.2511C124.286 49.521 124.021 49.8885 123.844 50.3537C123.67 50.8153 123.583 51.3338 123.583 51.9091C123.583 52.4915 123.672 53.0206 123.849 53.4964C124.03 53.9687 124.297 54.3452 124.648 54.6257C125.003 54.9027 125.444 55.0412 125.969 55.0412ZM132.026 56V47.8182H133.283V56H132.026ZM132.665 46.4545C132.42 46.4545 132.208 46.3711 132.031 46.2042C131.857 46.0373 131.77 45.8366 131.77 45.6023C131.77 45.3679 131.857 45.1673 132.031 45.0004C132.208 44.8335 132.42 44.75 132.665 44.75C132.91 44.75 133.119 44.8335 133.293 45.0004C133.471 45.1673 133.56 45.3679 133.56 45.6023C133.56 45.8366 133.471 46.0373 133.293 46.2042C133.119 46.3711 132.91 46.4545 132.665 46.4545ZM135.585 59.0682V47.8182H136.8V49.1179H136.949C137.041 48.9759 137.169 48.7947 137.332 48.5746C137.499 48.3509 137.737 48.152 138.046 47.978C138.359 47.8004 138.781 47.7116 139.314 47.7116C140.003 47.7116 140.61 47.8839 141.136 48.2283C141.661 48.5728 142.071 49.0611 142.366 49.6932C142.661 50.3253 142.808 51.071 142.808 51.9304C142.808 52.7969 142.661 53.5479 142.366 54.1836C142.071 54.8157 141.663 55.3058 141.141 55.6538C140.619 55.9982 140.017 56.1705 139.335 56.1705C138.81 56.1705 138.389 56.0835 138.073 55.9094C137.757 55.7319 137.513 55.5312 137.343 55.3075C137.172 55.0803 137.041 54.892 136.949 54.7429H136.842V59.0682H135.585ZM136.821 51.9091C136.821 52.527 136.911 53.0721 137.093 53.5444C137.274 54.0131 137.538 54.3807 137.886 54.647C138.234 54.9098 138.66 55.0412 139.165 55.0412C139.69 55.0412 140.129 54.9027 140.48 54.6257C140.835 54.3452 141.102 53.9687 141.279 53.4964C141.46 53.0206 141.551 52.4915 141.551 51.9091C141.551 51.3338 141.462 50.8153 141.285 50.3537C141.111 49.8885 140.846 49.521 140.491 49.2511C140.139 48.9776 139.697 48.8409 139.165 48.8409C138.653 48.8409 138.224 48.9705 137.876 49.2298C137.528 49.4854 137.265 49.8441 137.087 50.3058C136.91 50.7638 136.821 51.2983 136.821 51.9091ZM144.726 56V47.8182H145.983V56H144.726ZM145.365 46.4545C145.12 46.4545 144.909 46.3711 144.731 46.2042C144.557 46.0373 144.47 45.8366 144.47 45.6023C144.47 45.3679 144.557 45.1673 144.731 45.0004C144.909 44.8335 145.12 44.75 145.365 44.75C145.61 44.75 145.82 44.8335 145.994 45.0004C146.171 45.1673 146.26 45.3679 146.26 45.6023C146.26 45.8366 146.171 46.0373 145.994 46.2042C145.82 46.3711 145.61 46.4545 145.365 46.4545ZM154.081 49.6506L152.952 49.9702C152.881 49.782 152.776 49.5991 152.637 49.4215C152.502 49.2404 152.318 49.0913 152.083 48.9741C151.849 48.8569 151.549 48.7983 151.183 48.7983C150.682 48.7983 150.265 48.9137 149.931 49.1445C149.601 49.3718 149.436 49.6612 149.436 50.0128C149.436 50.3253 149.55 50.5721 149.777 50.7532C150.004 50.9343 150.359 51.0852 150.842 51.206L152.057 51.5043C152.788 51.6818 153.333 51.9535 153.692 52.3192C154.051 52.6815 154.23 53.1484 154.23 53.7202C154.23 54.1889 154.095 54.608 153.825 54.9773C153.559 55.3466 153.186 55.6378 152.706 55.8509C152.227 56.0639 151.67 56.1705 151.034 56.1705C150.199 56.1705 149.509 55.9893 148.962 55.6271C148.415 55.2649 148.069 54.7358 147.923 54.0398L149.116 53.7415C149.23 54.1818 149.445 54.5121 149.761 54.7322C150.08 54.9524 150.498 55.0625 151.013 55.0625C151.599 55.0625 152.064 54.9382 152.408 54.6896C152.756 54.4375 152.93 54.1357 152.93 53.7841C152.93 53.5 152.831 53.2621 152.632 53.0703C152.433 52.875 152.128 52.7294 151.716 52.6335L150.352 52.3139C149.603 52.1364 149.052 51.8612 148.701 51.4883C148.353 51.1119 148.179 50.6413 148.179 50.0767C148.179 49.6151 148.308 49.2067 148.568 48.8516C148.83 48.4964 149.187 48.2177 149.638 48.0153C150.093 47.8129 150.608 47.7116 151.183 47.7116C151.993 47.7116 152.628 47.8892 153.09 48.2443C153.555 48.5994 153.885 49.0682 154.081 49.6506ZM159.446 56.1705C158.679 56.1705 158.019 55.9893 157.465 55.6271C156.911 55.2649 156.484 54.766 156.186 54.1303C155.888 53.4947 155.739 52.7685 155.739 51.9517C155.739 51.1207 155.891 50.3874 156.197 49.7518C156.506 49.1126 156.935 48.6136 157.486 48.255C158.04 47.8928 158.686 47.7116 159.425 47.7116C160 47.7116 160.519 47.8182 160.98 48.0312C161.442 48.2443 161.82 48.5426 162.115 48.9261C162.41 49.3097 162.592 49.7571 162.663 50.2685H161.406C161.31 49.8956 161.097 49.5653 160.767 49.2777C160.44 48.9865 160 48.8409 159.446 48.8409C158.956 48.8409 158.526 48.9687 158.157 49.2244C157.791 49.4766 157.505 49.8335 157.299 50.2951C157.097 50.7532 156.996 51.2912 156.996 51.9091C156.996 52.5412 157.095 53.0916 157.294 53.5604C157.497 54.0291 157.781 54.3931 158.146 54.6523C158.516 54.9116 158.949 55.0412 159.446 55.0412C159.773 55.0412 160.069 54.9844 160.336 54.8707C160.602 54.7571 160.828 54.5938 161.012 54.3807C161.197 54.1676 161.328 53.9119 161.406 53.6136H162.663C162.592 54.0966 162.417 54.5316 162.136 54.9187C161.859 55.3022 161.492 55.6076 161.033 55.8349C160.579 56.0586 160.05 56.1705 159.446 56.1705ZM164.501 56V47.8182H165.758V56H164.501ZM165.14 46.4545C164.895 46.4545 164.684 46.3711 164.506 46.2042C164.332 46.0373 164.245 45.8366 164.245 45.6023C164.245 45.3679 164.332 45.1673 164.506 45.0004C164.684 44.8335 164.895 44.75 165.14 44.75C165.385 44.75 165.595 44.8335 165.769 45.0004C165.946 45.1673 166.035 45.3679 166.035 45.6023C166.035 45.8366 165.946 46.0373 165.769 46.2042C165.595 46.3711 165.385 46.4545 165.14 46.4545ZM169.318 51.0781V56H168.061V47.8182H169.275V49.0966H169.382C169.574 48.6811 169.865 48.3473 170.255 48.0952C170.646 47.8395 171.15 47.7116 171.768 47.7116C172.322 47.7116 172.807 47.8253 173.222 48.0526C173.638 48.2763 173.961 48.6172 174.192 49.0753C174.423 49.5298 174.538 50.1051 174.538 50.8011V56H173.281V50.8864C173.281 50.2436 173.114 49.7429 172.78 49.3842C172.446 49.022 171.988 48.8409 171.406 48.8409C171.005 48.8409 170.646 48.9279 170.33 49.1019C170.017 49.2759 169.771 49.5298 169.589 49.8636C169.408 50.1974 169.318 50.6023 169.318 51.0781ZM180.138 59.2386C179.53 59.2386 179.008 59.1605 178.572 59.0043C178.135 58.8516 177.771 58.6491 177.48 58.397C177.192 58.1484 176.963 57.8821 176.793 57.598L177.794 56.8949C177.908 57.044 178.051 57.2145 178.225 57.4062C178.399 57.6016 178.637 57.7702 178.939 57.9123C179.245 58.0579 179.644 58.1307 180.138 58.1307C180.798 58.1307 181.343 57.9709 181.773 57.6513C182.203 57.3317 182.418 56.831 182.418 56.1491V54.4872H182.311C182.219 54.6364 182.087 54.821 181.917 55.0412C181.75 55.2578 181.508 55.4513 181.192 55.6218C180.88 55.7887 180.457 55.8722 179.925 55.8722C179.264 55.8722 178.671 55.7159 178.146 55.4034C177.623 55.0909 177.21 54.6364 176.904 54.0398C176.603 53.4432 176.452 52.7187 176.452 51.8665C176.452 51.0284 176.599 50.2987 176.894 49.6772C177.188 49.0522 177.599 48.5692 178.124 48.2283C178.65 47.8839 179.257 47.7116 179.946 47.7116C180.479 47.7116 180.901 47.8004 181.214 47.978C181.53 48.152 181.771 48.3509 181.938 48.5746C182.109 48.7947 182.24 48.9759 182.332 49.1179H182.46V47.8182H183.675V56.2344C183.675 56.9375 183.515 57.5092 183.195 57.9496C182.879 58.3935 182.453 58.7184 181.917 58.9244C181.384 59.1339 180.791 59.2386 180.138 59.2386ZM180.095 54.7429C180.599 54.7429 181.025 54.6275 181.373 54.3967C181.722 54.1658 181.986 53.8338 182.167 53.4006C182.348 52.9673 182.439 52.4489 182.439 51.8452C182.439 51.2557 182.35 50.7354 182.172 50.2844C181.995 49.8335 181.732 49.4801 181.384 49.2244C181.036 48.9687 180.606 48.8409 180.095 48.8409C179.562 48.8409 179.119 48.9759 178.763 49.2457C178.412 49.5156 178.147 49.8778 177.97 50.3324C177.796 50.7869 177.709 51.2912 177.709 51.8452C177.709 52.4134 177.797 52.9158 177.975 53.3526C178.156 53.7859 178.422 54.1268 178.774 54.3754C179.129 54.6204 179.57 54.7429 180.095 54.7429ZM193.625 56.1705C192.837 56.1705 192.157 55.9964 191.585 55.6484C191.017 55.2969 190.578 54.8068 190.269 54.1783C189.964 53.5462 189.811 52.8111 189.811 51.973C189.811 51.1349 189.964 50.3963 190.269 49.7571C190.578 49.1143 191.008 48.6136 191.558 48.255C192.112 47.8928 192.758 47.7116 193.497 47.7116C193.923 47.7116 194.344 47.7827 194.759 47.9247C195.175 48.0668 195.553 48.2976 195.894 48.6172C196.235 48.9332 196.507 49.3523 196.709 49.8743C196.911 50.3963 197.013 51.0391 197.013 51.8026V52.3352H190.706V51.2486H195.734C195.734 50.7869 195.642 50.375 195.457 50.0128C195.276 49.6506 195.017 49.3647 194.68 49.1552C194.346 48.9457 193.952 48.8409 193.497 48.8409C192.996 48.8409 192.563 48.9652 192.197 49.2138C191.835 49.4588 191.556 49.7784 191.361 50.1726C191.166 50.5668 191.068 50.9893 191.068 51.4403V52.1648C191.068 52.7827 191.175 53.3065 191.388 53.7362C191.604 54.1623 191.904 54.4872 192.288 54.7109C192.671 54.9311 193.117 55.0412 193.625 55.0412C193.955 55.0412 194.253 54.995 194.52 54.9027C194.79 54.8068 195.022 54.6648 195.218 54.4766C195.413 54.2848 195.564 54.0469 195.67 53.7628L196.885 54.1037C196.757 54.5156 196.542 54.8778 196.24 55.1903C195.938 55.4993 195.566 55.7408 195.122 55.9148C194.678 56.0852 194.179 56.1705 193.625 56.1705ZM200.182 45.0909V56H198.925V45.0909H200.182ZM202.485 56V47.8182H203.742V56H202.485ZM203.124 46.4545C202.879 46.4545 202.667 46.3711 202.49 46.2042C202.316 46.0373 202.229 45.8366 202.229 45.6023C202.229 45.3679 202.316 45.1673 202.49 45.0004C202.667 44.8335 202.879 44.75 203.124 44.75C203.369 44.75 203.578 44.8335 203.752 45.0004C203.93 45.1673 204.019 45.3679 204.019 45.6023C204.019 45.8366 203.93 46.0373 203.752 46.2042C203.578 46.3711 203.369 46.4545 203.124 46.4545ZM209.602 47.8182V48.8835H205.362V47.8182H209.602ZM206.598 45.858H207.855V53.6562C207.855 54.0114 207.907 54.2777 208.01 54.4553C208.116 54.6293 208.251 54.7464 208.415 54.8068C208.581 54.8636 208.757 54.892 208.942 54.892C209.08 54.892 209.194 54.8849 209.283 54.8707C209.372 54.853 209.443 54.8388 209.496 54.8281L209.752 55.9574C209.666 55.9893 209.547 56.0213 209.395 56.0533C209.242 56.0888 209.048 56.1065 208.814 56.1065C208.459 56.1065 208.111 56.0302 207.77 55.8775C207.433 55.7248 207.152 55.4922 206.928 55.1797C206.708 54.8672 206.598 54.473 206.598 53.9972V45.858ZM213.368 54.5085L213.283 55.0838C213.223 55.4886 213.13 55.9219 213.006 56.3835C212.885 56.8452 212.759 57.2802 212.628 57.6886C212.497 58.0969 212.388 58.4219 212.303 58.6634H211.344C211.39 58.4361 211.451 58.136 211.525 57.7631C211.6 57.3903 211.674 56.973 211.749 56.5114C211.827 56.0533 211.891 55.5845 211.941 55.1051L212.005 54.5085H213.368ZM225.712 49.6506L224.582 49.9702C224.511 49.782 224.407 49.5991 224.268 49.4215C224.133 49.2404 223.949 49.0913 223.714 48.9741C223.48 48.8569 223.18 48.7983 222.814 48.7983C222.313 48.7983 221.896 48.9137 221.562 49.1445C221.232 49.3718 221.067 49.6612 221.067 50.0128C221.067 50.3253 221.18 50.5721 221.408 50.7532C221.635 50.9343 221.99 51.0852 222.473 51.206L223.688 51.5043C224.419 51.6818 224.964 51.9535 225.323 52.3192C225.681 52.6815 225.861 53.1484 225.861 53.7202C225.861 54.1889 225.726 54.608 225.456 54.9773C225.19 55.3466 224.817 55.6378 224.337 55.8509C223.858 56.0639 223.3 56.1705 222.665 56.1705C221.83 56.1705 221.14 55.9893 220.593 55.6271C220.046 55.2649 219.7 54.7358 219.554 54.0398L220.747 53.7415C220.861 54.1818 221.076 54.5121 221.392 54.7322C221.711 54.9524 222.129 55.0625 222.643 55.0625C223.229 55.0625 223.695 54.9382 224.039 54.6896C224.387 54.4375 224.561 54.1357 224.561 53.7841C224.561 53.5 224.462 53.2621 224.263 53.0703C224.064 52.875 223.759 52.7294 223.347 52.6335L221.983 52.3139C221.234 52.1364 220.683 51.8612 220.332 51.4883C219.984 51.1119 219.81 50.6413 219.81 50.0767C219.81 49.6151 219.939 49.2067 220.199 48.8516C220.461 48.4964 220.818 48.2177 221.269 48.0153C221.724 47.8129 222.239 47.7116 222.814 47.7116C223.624 47.7116 224.259 47.8892 224.721 48.2443C225.186 48.5994 225.516 49.0682 225.712 49.6506ZM231.184 56.1705C230.395 56.1705 229.715 55.9964 229.143 55.6484C228.575 55.2969 228.137 54.8068 227.828 54.1783C227.522 53.5462 227.37 52.8111 227.37 51.973C227.37 51.1349 227.522 50.3963 227.828 49.7571C228.137 49.1143 228.566 48.6136 229.117 48.255C229.671 47.8928 230.317 47.7116 231.056 47.7116C231.482 47.7116 231.903 47.7827 232.318 47.9247C232.734 48.0668 233.112 48.2976 233.453 48.6172C233.794 48.9332 234.065 49.3523 234.268 49.8743C234.47 50.3963 234.571 51.0391 234.571 51.8026V52.3352H228.264V51.2486H233.293C233.293 50.7869 233.201 50.375 233.016 50.0128C232.835 49.6506 232.576 49.3647 232.238 49.1552C231.904 48.9457 231.51 48.8409 231.056 48.8409C230.555 48.8409 230.122 48.9652 229.756 49.2138C229.394 49.4588 229.115 49.7784 228.92 50.1726C228.724 50.5668 228.627 50.9893 228.627 51.4403V52.1648C228.627 52.7827 228.733 53.3065 228.946 53.7362C229.163 54.1623 229.463 54.4872 229.847 54.7109C230.23 54.9311 230.676 55.0412 231.184 55.0412C231.514 55.0412 231.812 54.995 232.078 54.9027C232.348 54.8068 232.581 54.6648 232.776 54.4766C232.972 54.2848 233.122 54.0469 233.229 53.7628L234.443 54.1037C234.316 54.5156 234.101 54.8778 233.799 55.1903C233.497 55.4993 233.124 55.7408 232.68 55.9148C232.236 56.0852 231.737 56.1705 231.184 56.1705ZM239.573 56.1705C238.891 56.1705 238.289 55.9982 237.767 55.6538C237.245 55.3058 236.837 54.8157 236.542 54.1836C236.247 53.5479 236.1 52.7969 236.1 51.9304C236.1 51.071 236.247 50.3253 236.542 49.6932C236.837 49.0611 237.247 48.5728 237.773 48.2283C238.298 47.8839 238.905 47.7116 239.594 47.7116C240.127 47.7116 240.548 47.8004 240.857 47.978C241.169 48.152 241.407 48.3509 241.571 48.5746C241.737 48.7947 241.867 48.9759 241.959 49.1179H242.066V45.0909H243.323V56H242.109V54.7429H241.959C241.867 54.892 241.736 55.0803 241.565 55.3075C241.395 55.5312 241.152 55.7319 240.835 55.9094C240.519 56.0835 240.099 56.1705 239.573 56.1705ZM239.744 55.0412C240.248 55.0412 240.674 54.9098 241.022 54.647C241.37 54.3807 241.634 54.0131 241.816 53.5444C241.997 53.0721 242.087 52.527 242.087 51.9091C242.087 51.2983 241.998 50.7638 241.821 50.3058C241.643 49.8441 241.381 49.4854 241.033 49.2298C240.685 48.9705 240.255 48.8409 239.744 48.8409C239.211 48.8409 238.767 48.9776 238.412 49.2511C238.06 49.521 237.796 49.8885 237.618 50.3537C237.444 50.8153 237.357 51.3338 237.357 51.9091C237.357 52.4915 237.446 53.0206 237.623 53.4964C237.805 53.9687 238.071 54.3452 238.422 54.6257C238.778 54.9027 239.218 55.0412 239.744 55.0412ZM253.108 56.1705C252.426 56.1705 251.824 55.9982 251.302 55.6538C250.78 55.3058 250.372 54.8157 250.077 54.1836C249.783 53.5479 249.635 52.7969 249.635 51.9304C249.635 51.071 249.783 50.3253 250.077 49.6932C250.372 49.0611 250.782 48.5728 251.308 48.2283C251.833 47.8839 252.441 47.7116 253.13 47.7116C253.662 47.7116 254.083 47.8004 254.392 47.978C254.704 48.152 254.942 48.3509 255.106 48.5746C255.273 48.7947 255.402 48.9759 255.495 49.1179H255.601V45.0909H256.858V56H255.644V54.7429H255.495C255.402 54.892 255.271 55.0803 255.1 55.3075C254.93 55.5312 254.687 55.7319 254.371 55.9094C254.055 56.0835 253.634 56.1705 253.108 56.1705ZM253.279 55.0412C253.783 55.0412 254.209 54.9098 254.557 54.647C254.905 54.3807 255.17 54.0131 255.351 53.5444C255.532 53.0721 255.622 52.527 255.622 51.9091C255.622 51.2983 255.534 50.7638 255.356 50.3058C255.179 49.8441 254.916 49.4854 254.568 49.2298C254.22 48.9705 253.79 48.8409 253.279 48.8409C252.746 48.8409 252.302 48.9776 251.947 49.2511C251.595 49.521 251.331 49.8885 251.153 50.3537C250.979 50.8153 250.892 51.3338 250.892 51.9091C250.892 52.4915 250.981 53.0206 251.159 53.4964C251.34 53.9687 251.606 54.3452 251.958 54.6257C252.313 54.9027 252.753 55.0412 253.279 55.0412ZM262.659 56.1705C261.92 56.1705 261.272 55.9947 260.715 55.6431C260.161 55.2915 259.728 54.7997 259.415 54.1676C259.106 53.5355 258.952 52.7969 258.952 51.9517C258.952 51.0994 259.106 50.3555 259.415 49.7198C259.728 49.0842 260.161 48.5906 260.715 48.239C261.272 47.8874 261.92 47.7116 262.659 47.7116C263.398 47.7116 264.044 47.8874 264.598 48.239C265.155 48.5906 265.589 49.0842 265.898 49.7198C266.21 50.3555 266.366 51.0994 266.366 51.9517C266.366 52.7969 266.21 53.5355 265.898 54.1676C265.589 54.7997 265.155 55.2915 264.598 55.6431C264.044 55.9947 263.398 56.1705 262.659 56.1705ZM262.659 55.0412C263.22 55.0412 263.682 54.8974 264.044 54.6097C264.406 54.3221 264.674 53.9439 264.848 53.4751C265.022 53.0064 265.109 52.4986 265.109 51.9517C265.109 51.4048 265.022 50.8952 264.848 50.4229C264.674 49.9506 264.406 49.5689 264.044 49.2777C263.682 48.9865 263.22 48.8409 262.659 48.8409C262.098 48.8409 261.636 48.9865 261.274 49.2777C260.912 49.5689 260.644 49.9506 260.47 50.4229C260.296 50.8952 260.209 51.4048 260.209 51.9517C260.209 52.4986 260.296 53.0064 260.47 53.4751C260.644 53.9439 260.912 54.3221 261.274 54.6097C261.636 54.8974 262.098 55.0412 262.659 55.0412ZM28.581 79.1705C27.7926 79.1705 27.1126 78.9964 26.5408 78.6484C25.9727 78.2969 25.5341 77.8068 25.2251 77.1783C24.9197 76.5462 24.767 75.8111 24.767 74.973C24.767 74.1349 24.9197 73.3963 25.2251 72.7571C25.5341 72.1143 25.9638 71.6136 26.5142 71.255C27.0682 70.8928 27.7145 70.7116 28.4531 70.7116C28.8793 70.7116 29.3001 70.7827 29.7156 70.9247C30.131 71.0668 30.5092 71.2976 30.8501 71.6172C31.1911 71.9332 31.4627 72.3523 31.6651 72.8743C31.8675 73.3963 31.9688 74.0391 31.9688 74.8026V75.3352H25.6619V74.2486H30.6903C30.6903 73.7869 30.598 73.375 30.4134 73.0128C30.2322 72.6506 29.973 72.3647 29.6357 72.1552C29.3018 71.9457 28.9077 71.8409 28.4531 71.8409C27.9524 71.8409 27.5192 71.9652 27.1534 72.2138C26.7912 72.4588 26.5124 72.7784 26.3171 73.1726C26.1218 73.5668 26.0241 73.9893 26.0241 74.4403V75.1648C26.0241 75.7827 26.1307 76.3065 26.3438 76.7362C26.5604 77.1623 26.8604 77.4872 27.244 77.7109C27.6275 77.9311 28.0732 78.0412 28.581 78.0412C28.9112 78.0412 29.2095 77.995 29.4759 77.9027C29.7457 77.8068 29.9783 77.6648 30.1737 77.4766C30.369 77.2848 30.5199 77.0469 30.6264 76.7628L31.8409 77.1037C31.7131 77.5156 31.4982 77.8778 31.1964 78.1903C30.8945 78.4993 30.5217 78.7408 30.0778 78.9148C29.6339 79.0852 29.1349 79.1705 28.581 79.1705ZM33.881 79V70.8182H35.1381V79H33.881ZM34.5202 69.4545C34.2752 69.4545 34.0639 69.3711 33.8864 69.2042C33.7124 69.0373 33.6254 68.8366 33.6254 68.6023C33.6254 68.3679 33.7124 68.1673 33.8864 68.0004C34.0639 67.8335 34.2752 67.75 34.5202 67.75C34.7653 67.75 34.9748 67.8335 35.1488 68.0004C35.3263 68.1673 35.4151 68.3679 35.4151 68.6023C35.4151 68.8366 35.3263 69.0373 35.1488 69.2042C34.9748 69.3711 34.7653 69.4545 34.5202 69.4545ZM42.5969 75.6548V70.8182H43.854V79H42.5969V77.6151H42.5116C42.3199 78.0305 42.0216 78.3839 41.6167 78.6751C41.2119 78.9627 40.7006 79.1065 40.0827 79.1065C39.5713 79.1065 39.1167 78.9947 38.719 78.771C38.3213 78.5437 38.0088 78.2028 37.7815 77.7482C37.5542 77.2901 37.4406 76.7131 37.4406 76.017V70.8182H38.6977V75.9318C38.6977 76.5284 38.8646 77.0043 39.1984 77.3594C39.5358 77.7145 39.9655 77.892 40.4875 77.892C40.8 77.892 41.1178 77.8121 41.441 77.6523C41.7677 77.4925 42.0411 77.2475 42.2613 76.9173C42.485 76.587 42.5969 76.1662 42.5969 75.6548ZM51.9519 72.6506L50.8226 72.9702C50.7516 72.782 50.6468 72.5991 50.5083 72.4215C50.3734 72.2404 50.1887 72.0913 49.9544 71.9741C49.72 71.8569 49.4199 71.7983 49.0542 71.7983C48.5534 71.7983 48.1362 71.9137 47.8024 72.1445C47.4721 72.3718 47.307 72.6612 47.307 73.0128C47.307 73.3253 47.4206 73.5721 47.6479 73.7532C47.8752 73.9343 48.2303 74.0852 48.7132 74.206L49.9277 74.5043C50.6593 74.6818 51.2044 74.9535 51.563 75.3192C51.9217 75.6815 52.101 76.1484 52.101 76.7202C52.101 77.1889 51.9661 77.608 51.6962 77.9773C51.4299 78.3466 51.057 78.6378 50.5776 78.8509C50.0982 79.0639 49.5407 79.1705 48.905 79.1705C48.0705 79.1705 47.3798 78.9893 46.8329 78.6271C46.286 78.2649 45.9398 77.7358 45.7942 77.0398L46.9874 76.7415C47.101 77.1818 47.3159 77.5121 47.6319 77.7322C47.9515 77.9524 48.3688 78.0625 48.8837 78.0625C49.4696 78.0625 49.9348 77.9382 50.2793 77.6896C50.6273 77.4375 50.8013 77.1357 50.8013 76.7841C50.8013 76.5 50.7019 76.2621 50.503 76.0703C50.3042 75.875 49.9988 75.7294 49.5868 75.6335L48.2232 75.3139C47.4739 75.1364 46.9235 74.8612 46.5719 74.4883C46.2239 74.1119 46.0499 73.6413 46.0499 73.0767C46.0499 72.6151 46.1795 72.2067 46.4387 71.8516C46.7015 71.4964 47.0584 71.2177 47.5094 71.0153C47.964 70.8129 48.4789 70.7116 49.0542 70.7116C49.8638 70.7116 50.4995 70.8892 50.9611 71.2443C51.4263 71.5994 51.7566 72.0682 51.9519 72.6506ZM53.9933 79V70.8182H55.2078V72.0966H55.3144C55.4848 71.6598 55.76 71.3207 56.14 71.0792C56.52 70.8342 56.9763 70.7116 57.509 70.7116C58.0487 70.7116 58.498 70.8342 58.8566 71.0792C59.2188 71.3207 59.5012 71.6598 59.7036 72.0966H59.7888C59.9983 71.674 60.3126 71.3384 60.7316 71.0898C61.1507 70.8377 61.6531 70.7116 62.2391 70.7116C62.9706 70.7116 63.569 70.9407 64.0342 71.3988C64.4994 71.8533 64.732 72.5618 64.732 73.5241V79H63.4749V73.5241C63.4749 72.9205 63.3097 72.489 62.9795 72.2298C62.6492 71.9705 62.2604 71.8409 61.8129 71.8409C61.2377 71.8409 60.792 72.0149 60.4759 72.3629C60.1599 72.7074 60.0019 73.1442 60.0019 73.6733V79H58.7235V73.3963C58.7235 72.9311 58.5725 72.5565 58.2707 72.2724C57.9688 71.9847 57.58 71.8409 57.1041 71.8409C56.7774 71.8409 56.472 71.9279 56.1879 72.1019C55.9074 72.2759 55.6801 72.5174 55.5061 72.8263C55.3357 73.1317 55.2504 73.4851 55.2504 73.8864V79H53.9933ZM70.3543 79.1705C69.6157 79.1705 68.9676 78.9947 68.4101 78.6431C67.8561 78.2915 67.4229 77.7997 67.1104 77.1676C66.8014 76.5355 66.6469 75.7969 66.6469 74.9517C66.6469 74.0994 66.8014 73.3555 67.1104 72.7198C67.4229 72.0842 67.8561 71.5906 68.4101 71.239C68.9676 70.8874 69.6157 70.7116 70.3543 70.7116C71.093 70.7116 71.7393 70.8874 72.2932 71.239C72.8508 71.5906 73.284 72.0842 73.593 72.7198C73.9055 73.3555 74.0617 74.0994 74.0617 74.9517C74.0617 75.7969 73.9055 76.5355 73.593 77.1676C73.284 77.7997 72.8508 78.2915 72.2932 78.6431C71.7393 78.9947 71.093 79.1705 70.3543 79.1705ZM70.3543 78.0412C70.9154 78.0412 71.377 77.8974 71.7393 77.6097C72.1015 77.3221 72.3696 76.9439 72.5436 76.4751C72.7176 76.0064 72.8046 75.4986 72.8046 74.9517C72.8046 74.4048 72.7176 73.8952 72.5436 73.4229C72.3696 72.9506 72.1015 72.5689 71.7393 72.2777C71.377 71.9865 70.9154 71.8409 70.3543 71.8409C69.7932 71.8409 69.3316 71.9865 68.9694 72.2777C68.6072 72.5689 68.339 72.9506 68.165 73.4229C67.991 73.8952 67.904 74.4048 67.904 74.9517C67.904 75.4986 67.991 76.0064 68.165 76.4751C68.339 76.9439 68.6072 77.3221 68.9694 77.6097C69.3316 77.8974 69.7932 78.0412 70.3543 78.0412ZM79.0701 79.1705C78.3883 79.1705 77.7864 78.9982 77.2644 78.6538C76.7424 78.3058 76.334 77.8157 76.0392 77.1836C75.7445 76.5479 75.5971 75.7969 75.5971 74.9304C75.5971 74.071 75.7445 73.3253 76.0392 72.6932C76.334 72.0611 76.7441 71.5728 77.2697 71.2283C77.7953 70.8839 78.4025 70.7116 79.0914 70.7116C79.6241 70.7116 80.0449 70.8004 80.3539 70.978C80.6664 71.152 80.9043 71.3509 81.0676 71.5746C81.2346 71.7947 81.3642 71.9759 81.4565 72.1179H81.563V68.0909H82.8201V79H81.6056V77.7429H81.4565C81.3642 77.892 81.2328 78.0803 81.0623 78.3075C80.8919 78.5312 80.6486 78.7319 80.3326 78.9094C80.0165 79.0835 79.5957 79.1705 79.0701 79.1705ZM79.2406 78.0412C79.7449 78.0412 80.171 77.9098 80.519 77.647C80.867 77.3807 81.1316 77.0131 81.3127 76.5444C81.4938 76.0721 81.5843 75.527 81.5843 74.9091C81.5843 74.2983 81.4956 73.7638 81.318 73.3058C81.1404 72.8441 80.8777 72.4854 80.5297 72.2298C80.1816 71.9705 79.752 71.8409 79.2406 71.8409C78.7079 71.8409 78.264 71.9776 77.9089 72.2511C77.5574 72.521 77.2928 72.8885 77.1152 73.3537C76.9412 73.8153 76.8542 74.3338 76.8542 74.9091C76.8542 75.4915 76.943 76.0206 77.1206 76.4964C77.3017 76.9687 77.568 77.3452 77.9196 77.6257C78.2747 77.9027 78.715 78.0412 79.2406 78.0412ZM93.074 70.8182V71.8835H88.834V70.8182H93.074ZM90.0698 68.858H91.3269V76.6562C91.3269 77.0114 91.3784 77.2777 91.4814 77.4553C91.5879 77.6293 91.7228 77.7464 91.8862 77.8068C92.0531 77.8636 92.2289 77.892 92.4135 77.892C92.552 77.892 92.6657 77.8849 92.7544 77.8707C92.8432 77.853 92.9142 77.8388 92.9675 77.8281L93.2232 78.9574C93.138 78.9893 93.019 79.0213 92.8663 79.0533C92.7136 79.0888 92.5201 79.1065 92.2857 79.1065C91.9306 79.1065 91.5826 79.0302 91.2417 78.8775C90.9043 78.7248 90.6238 78.4922 90.4 78.1797C90.1799 77.8672 90.0698 77.473 90.0698 76.9972V68.858ZM98.3075 79.1705C97.5192 79.1705 96.8391 78.9964 96.2674 78.6484C95.6992 78.2969 95.2607 77.8068 94.9517 77.1783C94.6463 76.5462 94.4936 75.8111 94.4936 74.973C94.4936 74.1349 94.6463 73.3963 94.9517 72.7571C95.2607 72.1143 95.6903 71.6136 96.2408 71.255C96.7947 70.8928 97.4411 70.7116 98.1797 70.7116C98.6058 70.7116 99.0266 70.7827 99.4421 70.9247C99.8576 71.0668 100.236 71.2976 100.577 71.6172C100.918 71.9332 101.189 72.3523 101.392 72.8743C101.594 73.3963 101.695 74.0391 101.695 74.8026V75.3352H95.3885V74.2486H100.417C100.417 73.7869 100.325 73.375 100.14 73.0128C99.9588 72.6506 99.6996 72.3647 99.3622 72.1552C99.0284 71.9457 98.6342 71.8409 98.1797 71.8409C97.679 71.8409 97.2457 71.9652 96.88 72.2138C96.5178 72.4588 96.239 72.7784 96.0437 73.1726C95.8484 73.5668 95.7507 73.9893 95.7507 74.4403V75.1648C95.7507 75.7827 95.8572 76.3065 96.0703 76.7362C96.2869 77.1623 96.587 77.4872 96.9705 77.7109C97.354 77.9311 97.7997 78.0412 98.3075 78.0412C98.6378 78.0412 98.9361 77.995 99.2024 77.9027C99.4723 77.8068 99.7049 77.6648 99.9002 77.4766C100.096 77.2848 100.246 77.0469 100.353 76.7628L101.567 77.1037C101.44 77.5156 101.225 77.8778 100.923 78.1903C100.621 78.4993 100.248 78.7408 99.8043 78.9148C99.3604 79.0852 98.8615 79.1705 98.3075 79.1705ZM103.608 79V70.8182H104.822V72.0966H104.929C105.099 71.6598 105.374 71.3207 105.754 71.0792C106.134 70.8342 106.591 70.7116 107.123 70.7116C107.663 70.7116 108.112 70.8342 108.471 71.0792C108.833 71.3207 109.115 71.6598 109.318 72.0966H109.403C109.613 71.674 109.927 71.3384 110.346 71.0898C110.765 70.8377 111.267 70.7116 111.853 70.7116C112.585 70.7116 113.183 70.9407 113.648 71.3988C114.114 71.8533 114.346 72.5618 114.346 73.5241V79H113.089V73.5241C113.089 72.9205 112.924 72.489 112.594 72.2298C112.263 71.9705 111.875 71.8409 111.427 71.8409C110.852 71.8409 110.406 72.0149 110.09 72.3629C109.774 72.7074 109.616 73.1442 109.616 73.6733V79H108.338V73.3963C108.338 72.9311 108.187 72.5565 107.885 72.2724C107.583 71.9847 107.194 71.8409 106.718 71.8409C106.392 71.8409 106.086 71.9279 105.802 72.1019C105.522 72.2759 105.294 72.5174 105.12 72.8263C104.95 73.1317 104.865 73.4851 104.865 73.8864V79H103.608ZM116.645 82.0682V70.8182H117.859V72.1179H118.008C118.101 71.9759 118.229 71.7947 118.392 71.5746C118.559 71.3509 118.797 71.152 119.106 70.978C119.418 70.8004 119.841 70.7116 120.373 70.7116C121.062 70.7116 121.67 70.8839 122.195 71.2283C122.721 71.5728 123.131 72.0611 123.426 72.6932C123.72 73.3253 123.868 74.071 123.868 74.9304C123.868 75.7969 123.72 76.5479 123.426 77.1836C123.131 77.8157 122.722 78.3058 122.2 78.6538C121.678 78.9982 121.077 79.1705 120.395 79.1705C119.869 79.1705 119.448 79.0835 119.132 78.9094C118.816 78.7319 118.573 78.5312 118.403 78.3075C118.232 78.0803 118.101 77.892 118.008 77.7429H117.902V82.0682H116.645ZM117.881 74.9091C117.881 75.527 117.971 76.0721 118.152 76.5444C118.333 77.0131 118.598 77.3807 118.946 77.647C119.294 77.9098 119.72 78.0412 120.224 78.0412C120.75 78.0412 121.188 77.9027 121.54 77.6257C121.895 77.3452 122.161 76.9687 122.339 76.4964C122.52 76.0206 122.611 75.4915 122.611 74.9091C122.611 74.3338 122.522 73.8153 122.344 73.3537C122.17 72.8885 121.906 72.521 121.551 72.2511C121.199 71.9776 120.757 71.8409 120.224 71.8409C119.713 71.8409 119.283 71.9705 118.935 72.2298C118.587 72.4854 118.324 72.8441 118.147 73.3058C117.969 73.7638 117.881 74.2983 117.881 74.9091ZM129.109 79.1705C128.371 79.1705 127.722 78.9947 127.165 78.6431C126.611 78.2915 126.178 77.7997 125.865 77.1676C125.556 76.5355 125.402 75.7969 125.402 74.9517C125.402 74.0994 125.556 73.3555 125.865 72.7198C126.178 72.0842 126.611 71.5906 127.165 71.239C127.722 70.8874 128.371 70.7116 129.109 70.7116C129.848 70.7116 130.494 70.8874 131.048 71.239C131.606 71.5906 132.039 72.0842 132.348 72.7198C132.66 73.3555 132.817 74.0994 132.817 74.9517C132.817 75.7969 132.66 76.5355 132.348 77.1676C132.039 77.7997 131.606 78.2915 131.048 78.6431C130.494 78.9947 129.848 79.1705 129.109 79.1705ZM129.109 78.0412C129.67 78.0412 130.132 77.8974 130.494 77.6097C130.856 77.3221 131.124 76.9439 131.298 76.4751C131.472 76.0064 131.559 75.4986 131.559 74.9517C131.559 74.4048 131.472 73.8952 131.298 73.4229C131.124 72.9506 130.856 72.5689 130.494 72.2777C130.132 71.9865 129.67 71.8409 129.109 71.8409C128.548 71.8409 128.086 71.9865 127.724 72.2777C127.362 72.5689 127.094 72.9506 126.92 73.4229C126.746 73.8952 126.659 74.4048 126.659 74.9517C126.659 75.4986 126.746 76.0064 126.92 76.4751C127.094 76.9439 127.362 77.3221 127.724 77.6097C128.086 77.8974 128.548 78.0412 129.109 78.0412ZM134.736 79V70.8182H135.95V72.054H136.035C136.184 71.6491 136.454 71.3207 136.845 71.0685C137.236 70.8164 137.676 70.6903 138.166 70.6903C138.258 70.6903 138.374 70.6921 138.512 70.6957C138.651 70.6992 138.755 70.7045 138.826 70.7116V71.9901C138.784 71.9794 138.686 71.9634 138.533 71.9421C138.384 71.9173 138.226 71.9048 138.059 71.9048C137.662 71.9048 137.307 71.9883 136.994 72.1552C136.685 72.3185 136.44 72.5458 136.259 72.837C136.081 73.1246 135.993 73.4531 135.993 73.8224V79H134.736ZM144.535 79V70.8182H145.792V79H144.535ZM145.175 69.4545C144.93 69.4545 144.718 69.3711 144.541 69.2042C144.367 69.0373 144.28 68.8366 144.28 68.6023C144.28 68.3679 144.367 68.1673 144.541 68.0004C144.718 67.8335 144.93 67.75 145.175 67.75C145.42 67.75 145.629 67.8335 145.803 68.0004C145.981 68.1673 146.069 68.3679 146.069 68.6023C146.069 68.8366 145.981 69.0373 145.803 69.2042C145.629 69.3711 145.42 69.4545 145.175 69.4545ZM149.352 74.0781V79H148.095V70.8182H149.309V72.0966H149.416C149.608 71.6811 149.899 71.3473 150.29 71.0952C150.68 70.8395 151.184 70.7116 151.802 70.7116C152.356 70.7116 152.841 70.8253 153.256 71.0526C153.672 71.2763 153.995 71.6172 154.226 72.0753C154.457 72.5298 154.572 73.1051 154.572 73.8011V79H153.315V73.8864C153.315 73.2436 153.148 72.7429 152.814 72.3842C152.481 72.022 152.022 71.8409 151.44 71.8409C151.039 71.8409 150.68 71.9279 150.364 72.1019C150.052 72.2759 149.805 72.5298 149.624 72.8636C149.443 73.1974 149.352 73.6023 149.352 74.0781ZM160.193 79.1705C159.426 79.1705 158.766 78.9893 158.212 78.6271C157.658 78.2649 157.232 77.766 156.933 77.1303C156.635 76.4947 156.486 75.7685 156.486 74.9517C156.486 74.1207 156.638 73.3874 156.944 72.7518C157.253 72.1126 157.683 71.6136 158.233 71.255C158.787 70.8928 159.433 70.7116 160.172 70.7116C160.747 70.7116 161.266 70.8182 161.727 71.0312C162.189 71.2443 162.567 71.5426 162.862 71.9261C163.157 72.3097 163.339 72.7571 163.411 73.2685H162.153C162.058 72.8956 161.844 72.5653 161.514 72.2777C161.188 71.9865 160.747 71.8409 160.193 71.8409C159.703 71.8409 159.273 71.9687 158.904 72.2244C158.538 72.4766 158.252 72.8335 158.047 73.2951C157.844 73.7532 157.743 74.2912 157.743 74.9091C157.743 75.5412 157.842 76.0916 158.041 76.5604C158.244 77.0291 158.528 77.3931 158.893 77.6523C159.263 77.9116 159.696 78.0412 160.193 78.0412C160.52 78.0412 160.816 77.9844 161.083 77.8707C161.349 77.7571 161.575 77.5938 161.759 77.3807C161.944 77.1676 162.075 76.9119 162.153 76.6136H163.411C163.339 77.0966 163.164 77.5316 162.883 77.9187C162.606 78.3022 162.239 78.6076 161.781 78.8349C161.326 79.0586 160.797 79.1705 160.193 79.1705ZM165.248 79V70.8182H166.505V79H165.248ZM165.887 69.4545C165.642 69.4545 165.431 69.3711 165.254 69.2042C165.08 69.0373 164.993 68.8366 164.993 68.6023C164.993 68.3679 165.08 68.1673 165.254 68.0004C165.431 67.8335 165.642 67.75 165.887 67.75C166.132 67.75 166.342 67.8335 166.516 68.0004C166.694 68.1673 166.782 68.3679 166.782 68.6023C166.782 68.8366 166.694 69.0373 166.516 69.2042C166.342 69.3711 166.132 69.4545 165.887 69.4545ZM171.897 79.1705C171.215 79.1705 170.614 78.9982 170.092 78.6538C169.57 78.3058 169.161 77.8157 168.866 77.1836C168.572 76.5479 168.424 75.7969 168.424 74.9304C168.424 74.071 168.572 73.3253 168.866 72.6932C169.161 72.0611 169.571 71.5728 170.097 71.2283C170.622 70.8839 171.23 70.7116 171.919 70.7116C172.451 70.7116 172.872 70.8004 173.181 70.978C173.494 71.152 173.731 71.3509 173.895 71.5746C174.062 71.7947 174.191 71.9759 174.284 72.1179H174.39V68.0909H175.647V79H174.433V77.7429H174.284C174.191 77.892 174.06 78.0803 173.889 78.3075C173.719 78.5312 173.476 78.7319 173.16 78.9094C172.844 79.0835 172.423 79.1705 171.897 79.1705ZM172.068 78.0412C172.572 78.0412 172.998 77.9098 173.346 77.647C173.694 77.3807 173.959 77.0131 174.14 76.5444C174.321 76.0721 174.411 75.527 174.411 74.9091C174.411 74.2983 174.323 73.7638 174.145 73.3058C173.968 72.8441 173.705 72.4854 173.357 72.2298C173.009 71.9705 172.579 71.8409 172.068 71.8409C171.535 71.8409 171.091 71.9776 170.736 72.2511C170.384 72.521 170.12 72.8885 169.942 73.3537C169.768 73.8153 169.681 74.3338 169.681 74.9091C169.681 75.4915 169.77 76.0206 169.948 76.4964C170.129 76.9687 170.395 77.3452 170.747 77.6257C171.102 77.9027 171.542 78.0412 172.068 78.0412ZM178.124 79V70.8182H179.381V79H178.124ZM178.763 69.4545C178.518 69.4545 178.307 69.3711 178.13 69.2042C177.956 69.0373 177.869 68.8366 177.869 68.6023C177.869 68.3679 177.956 68.1673 178.13 68.0004C178.307 67.8335 178.518 67.75 178.763 67.75C179.008 67.75 179.218 67.8335 179.392 68.0004C179.57 68.1673 179.658 68.3679 179.658 68.6023C179.658 68.8366 179.57 69.0373 179.392 69.2042C179.218 69.3711 179.008 69.4545 178.763 69.4545ZM184.773 79.1705C184.091 79.1705 183.49 78.9982 182.968 78.6538C182.445 78.3058 182.037 77.8157 181.742 77.1836C181.448 76.5479 181.3 75.7969 181.3 74.9304C181.3 74.071 181.448 73.3253 181.742 72.6932C182.037 72.0611 182.447 71.5728 182.973 71.2283C183.498 70.8839 184.106 70.7116 184.795 70.7116C185.327 70.7116 185.748 70.8004 186.057 70.978C186.369 71.152 186.607 71.3509 186.771 71.5746C186.938 71.7947 187.067 71.9759 187.16 72.1179H187.266V68.0909H188.523V79H187.309V77.7429H187.16C187.067 77.892 186.936 78.0803 186.765 78.3075C186.595 78.5312 186.352 78.7319 186.036 78.9094C185.72 79.0835 185.299 79.1705 184.773 79.1705ZM184.944 78.0412C185.448 78.0412 185.874 77.9098 186.222 77.647C186.57 77.3807 186.835 77.0131 187.016 76.5444C187.197 76.0721 187.287 75.527 187.287 74.9091C187.287 74.2983 187.199 73.7638 187.021 73.3058C186.844 72.8441 186.581 72.4854 186.233 72.2298C185.885 71.9705 185.455 71.8409 184.944 71.8409C184.411 71.8409 183.967 71.9776 183.612 72.2511C183.26 72.521 182.996 72.8885 182.818 73.3537C182.644 73.8153 182.557 74.3338 182.557 74.9091C182.557 75.4915 182.646 76.0206 182.824 76.4964C183.005 76.9687 183.271 77.3452 183.623 77.6257C183.978 77.9027 184.418 78.0412 184.944 78.0412ZM196.156 75.6548V70.8182H197.414V79H196.156V77.6151H196.071C195.879 78.0305 195.581 78.3839 195.176 78.6751C194.771 78.9627 194.26 79.1065 193.642 79.1065C193.131 79.1065 192.676 78.9947 192.279 78.771C191.881 78.5437 191.568 78.2028 191.341 77.7482C191.114 77.2901 191 76.7131 191 76.017V70.8182H192.257V75.9318C192.257 76.5284 192.424 77.0043 192.758 77.3594C193.095 77.7145 193.525 77.892 194.047 77.892C194.36 77.892 194.677 77.8121 195.001 77.6523C195.327 77.4925 195.601 77.2475 195.821 76.9173C196.045 76.587 196.156 76.1662 196.156 75.6548ZM200.973 74.0781V79H199.716V70.8182H200.93V72.0966H201.037C201.229 71.6811 201.52 71.3473 201.911 71.0952C202.301 70.8395 202.805 70.7116 203.423 70.7116C203.977 70.7116 204.462 70.8253 204.878 71.0526C205.293 71.2763 205.616 71.6172 205.847 72.0753C206.078 72.5298 206.193 73.1051 206.193 73.8011V79H204.936V73.8864C204.936 73.2436 204.769 72.7429 204.435 72.3842C204.102 72.022 203.644 71.8409 203.061 71.8409C202.66 71.8409 202.301 71.9279 201.985 72.1019C201.673 72.2759 201.426 72.5298 201.245 72.8636C201.064 73.1974 200.973 73.6023 200.973 74.0781ZM212.049 70.8182V71.8835H207.809V70.8182H212.049ZM209.044 68.858H210.301V76.6562C210.301 77.0114 210.353 77.2777 210.456 77.4553C210.563 77.6293 210.697 77.7464 210.861 77.8068C211.028 77.8636 211.203 77.892 211.388 77.892C211.527 77.892 211.64 77.8849 211.729 77.8707C211.818 77.853 211.889 77.8388 211.942 77.8281L212.198 78.9574C212.113 78.9893 211.994 79.0213 211.841 79.0533C211.688 79.0888 211.495 79.1065 211.26 79.1065C210.905 79.1065 210.557 79.0302 210.216 78.8775C209.879 78.7248 209.598 78.4922 209.375 78.1797C209.154 77.8672 209.044 77.473 209.044 76.9972V68.858ZM223.315 75.6548V70.8182H224.572V79H223.315V77.6151H223.229C223.038 78.0305 222.739 78.3839 222.335 78.6751C221.93 78.9627 221.418 79.1065 220.8 79.1065C220.289 79.1065 219.835 78.9947 219.437 78.771C219.039 78.5437 218.727 78.2028 218.499 77.7482C218.272 77.2901 218.158 76.7131 218.158 76.017V70.8182H219.415V75.9318C219.415 76.5284 219.582 77.0043 219.916 77.3594C220.254 77.7145 220.683 77.892 221.205 77.892C221.518 77.892 221.836 77.8121 222.159 77.6523C222.485 77.4925 222.759 77.2475 222.979 76.9173C223.203 76.587 223.315 76.1662 223.315 75.6548ZM230.432 70.8182V71.8835H226.192V70.8182H230.432ZM227.428 68.858H228.685V76.6562C228.685 77.0114 228.737 77.2777 228.84 77.4553C228.946 77.6293 229.081 77.7464 229.245 77.8068C229.411 77.8636 229.587 77.892 229.772 77.892C229.91 77.892 230.024 77.8849 230.113 77.8707C230.202 77.853 230.273 77.8388 230.326 77.8281L230.582 78.9574C230.496 78.9893 230.377 79.0213 230.225 79.0533C230.072 79.0888 229.878 79.1065 229.644 79.1065C229.289 79.1065 228.941 79.0302 228.6 78.8775C228.263 78.7248 227.982 78.4922 227.758 78.1797C227.538 77.8672 227.428 77.473 227.428 76.9972V68.858ZM26.4077 91.0909V102H25.1506V91.0909H26.4077ZM31.1178 102.192C30.5993 102.192 30.1288 102.094 29.7062 101.899C29.2836 101.7 28.9481 101.414 28.6995 101.041C28.4509 100.665 28.3266 100.21 28.3266 99.6776C28.3266 99.2088 28.4189 98.8288 28.6036 98.5376C28.7883 98.2429 29.0351 98.0121 29.344 97.8452C29.653 97.6783 29.9939 97.554 30.3667 97.4723C30.7432 97.3871 31.1214 97.3196 31.5013 97.2699C31.9985 97.206 32.4015 97.158 32.7105 97.1261C33.023 97.0906 33.2503 97.032 33.3923 96.9503C33.5379 96.8686 33.6107 96.7266 33.6107 96.5241V96.4815C33.6107 95.956 33.4669 95.5476 33.1792 95.2564C32.8952 94.9652 32.4637 94.8196 31.8849 94.8196C31.2847 94.8196 30.8142 94.951 30.4733 95.2138C30.1324 95.4766 29.8927 95.7571 29.7542 96.0554L28.561 95.6293C28.7741 95.1321 29.0581 94.745 29.4133 94.468C29.7719 94.1875 30.1626 93.9922 30.5851 93.8821C31.0113 93.7685 31.4303 93.7116 31.8422 93.7116C32.105 93.7116 32.4069 93.7436 32.7478 93.8075C33.0922 93.8679 33.4243 93.994 33.7439 94.1857C34.067 94.3775 34.3351 94.6669 34.5482 95.054C34.7613 95.4411 34.8678 95.9595 34.8678 96.6094V102H33.6107V100.892H33.5468C33.4616 101.07 33.3195 101.26 33.1207 101.462C32.9218 101.664 32.6572 101.837 32.327 101.979C31.9967 102.121 31.5937 102.192 31.1178 102.192ZM31.3096 101.062C31.8067 101.062 32.2258 100.965 32.5667 100.77C32.9111 100.574 33.1704 100.322 33.3444 100.013C33.5219 99.7042 33.6107 99.3793 33.6107 99.0384V97.8878C33.5574 97.9517 33.4403 98.0103 33.2591 98.0636C33.0816 98.1133 32.8756 98.1577 32.6412 98.1967C32.4104 98.2322 32.1849 98.2642 31.9648 98.2926C31.7481 98.3175 31.5724 98.3388 31.4374 98.3565C31.1107 98.3991 30.8053 98.4684 30.5212 98.5643C30.2407 98.6566 30.0134 98.7969 29.8394 98.9851C29.6689 99.1697 29.5837 99.4219 29.5837 99.7415C29.5837 100.178 29.7453 100.509 30.0684 100.732C30.3952 100.952 30.8089 101.062 31.3096 101.062ZM37.3327 102V91.0909H38.5898V95.1179H38.6964C38.7887 94.9759 38.9165 94.7947 39.0799 94.5746C39.2468 94.3509 39.4847 94.152 39.7937 93.978C40.1062 93.8004 40.5288 93.7116 41.0614 93.7116C41.7504 93.7116 42.3576 93.8839 42.8832 94.2283C43.4087 94.5728 43.8189 95.0611 44.1136 95.6932C44.4084 96.3253 44.5558 97.071 44.5558 97.9304C44.5558 98.7969 44.4084 99.5479 44.1136 100.184C43.8189 100.816 43.4105 101.306 42.8885 101.654C42.3665 101.998 41.7646 102.17 41.0827 102.17C40.5572 102.17 40.1364 102.083 39.8203 101.909C39.5043 101.732 39.261 101.531 39.0906 101.308C38.9201 101.08 38.7887 100.892 38.6964 100.743H38.5472V102H37.3327ZM38.5685 97.9091C38.5685 98.527 38.6591 99.0721 38.8402 99.5444C39.0213 100.013 39.2859 100.381 39.6339 100.647C39.9819 100.91 40.408 101.041 40.9123 101.041C41.4379 101.041 41.8764 100.903 42.228 100.626C42.5831 100.345 42.8494 99.9687 43.027 99.4964C43.2081 99.0206 43.2987 98.4915 43.2987 97.9091C43.2987 97.3338 43.2099 96.8153 43.0323 96.3537C42.8583 95.8885 42.5938 95.521 42.2386 95.2511C41.8871 94.9776 41.445 94.8409 40.9123 94.8409C40.4009 94.8409 39.9712 94.9705 39.6232 95.2298C39.2752 95.4854 39.0124 95.8441 38.8349 96.3058C38.6573 96.7638 38.5685 97.2983 38.5685 97.9091ZM49.8026 102.17C49.0639 102.17 48.4158 101.995 47.8583 101.643C47.3043 101.292 46.8711 100.8 46.5586 100.168C46.2496 99.5355 46.0952 98.7969 46.0952 97.9517C46.0952 97.0994 46.2496 96.3555 46.5586 95.7198C46.8711 95.0842 47.3043 94.5906 47.8583 94.239C48.4158 93.8874 49.0639 93.7116 49.8026 93.7116C50.5412 93.7116 51.1875 93.8874 51.7415 94.239C52.299 94.5906 52.7322 95.0842 53.0412 95.7198C53.3537 96.3555 53.5099 97.0994 53.5099 97.9517C53.5099 98.7969 53.3537 99.5355 53.0412 100.168C52.7322 100.8 52.299 101.292 51.7415 101.643C51.1875 101.995 50.5412 102.17 49.8026 102.17ZM49.8026 101.041C50.3636 101.041 50.8253 100.897 51.1875 100.61C51.5497 100.322 51.8178 99.9439 51.9918 99.4751C52.1658 99.0064 52.2528 98.4986 52.2528 97.9517C52.2528 97.4048 52.1658 96.8952 51.9918 96.4229C51.8178 95.9506 51.5497 95.5689 51.1875 95.2777C50.8253 94.9865 50.3636 94.8409 49.8026 94.8409C49.2415 94.8409 48.7798 94.9865 48.4176 95.2777C48.0554 95.5689 47.7873 95.9506 47.6133 96.4229C47.4393 96.8952 47.3523 97.4048 47.3523 97.9517C47.3523 98.4986 47.4393 99.0064 47.6133 99.4751C47.7873 99.9439 48.0554 100.322 48.4176 100.61C48.7798 100.897 49.2415 101.041 49.8026 101.041ZM55.4289 102V93.8182H56.6434V95.054H56.7286C56.8778 94.6491 57.1476 94.3207 57.5383 94.0685C57.9289 93.8164 58.3692 93.6903 58.8593 93.6903C58.9516 93.6903 59.067 93.6921 59.2055 93.6957C59.344 93.6992 59.4488 93.7045 59.5198 93.7116V94.9901C59.4772 94.9794 59.3795 94.9634 59.2268 94.9421C59.0777 94.9173 58.9197 94.9048 58.7528 94.9048C58.355 94.9048 57.9999 94.9883 57.6874 95.1552C57.3785 95.3185 57.1334 95.5458 56.9523 95.837C56.7748 96.1246 56.686 96.4531 56.686 96.8224V102H55.4289ZM64.1913 102.17C63.403 102.17 62.7229 101.996 62.1512 101.648C61.583 101.297 61.1444 100.807 60.8355 100.178C60.5301 99.5462 60.3774 98.8111 60.3774 97.973C60.3774 97.1349 60.5301 96.3963 60.8355 95.7571C61.1444 95.1143 61.5741 94.6136 62.1246 94.255C62.6785 93.8928 63.3248 93.7116 64.0635 93.7116C64.4896 93.7116 64.9104 93.7827 65.3259 93.9247C65.7414 94.0668 66.1196 94.2976 66.4605 94.6172C66.8014 94.9332 67.0731 95.3523 67.2755 95.8743C67.4779 96.3963 67.5791 97.0391 67.5791 97.8026V98.3352H61.2723V97.2486H66.3007C66.3007 96.7869 66.2084 96.375 66.0237 96.0128C65.8426 95.6506 65.5834 95.3647 65.246 95.1552C64.9122 94.9457 64.518 94.8409 64.0635 94.8409C63.5628 94.8409 63.1295 94.9652 62.7638 95.2138C62.4015 95.4588 62.1228 95.7784 61.9275 96.1726C61.7322 96.5668 61.6345 96.9893 61.6345 97.4403V98.1648C61.6345 98.7827 61.741 99.3065 61.9541 99.7362C62.1707 100.162 62.4708 100.487 62.8543 100.711C63.2378 100.931 63.6835 101.041 64.1913 101.041C64.5216 101.041 64.8199 100.995 65.0862 100.903C65.3561 100.807 65.5887 100.665 65.784 100.477C65.9793 100.285 66.1302 100.047 66.2368 99.7628L67.4513 100.104C67.3234 100.516 67.1086 100.878 66.8067 101.19C66.5049 101.499 66.132 101.741 65.6881 101.915C65.2442 102.085 64.7453 102.17 64.1913 102.17ZM77.1405 102.17C76.3522 102.17 75.6721 101.996 75.1004 101.648C74.5322 101.297 74.0937 100.807 73.7847 100.178C73.4793 99.5462 73.3266 98.8111 73.3266 97.973C73.3266 97.1349 73.4793 96.3963 73.7847 95.7571C74.0937 95.1143 74.5233 94.6136 75.0738 94.255C75.6278 93.8928 76.2741 93.7116 77.0127 93.7116C77.4388 93.7116 77.8596 93.7827 78.2751 93.9247C78.6906 94.0668 79.0688 94.2976 79.4097 94.6172C79.7506 94.9332 80.0223 95.3523 80.2247 95.8743C80.4271 96.3963 80.5283 97.0391 80.5283 97.8026V98.3352H74.2215V97.2486H79.2499C79.2499 96.7869 79.1576 96.375 78.9729 96.0128C78.7918 95.6506 78.5326 95.3647 78.1952 95.1552C77.8614 94.9457 77.4672 94.8409 77.0127 94.8409C76.512 94.8409 76.0787 94.9652 75.713 95.2138C75.3508 95.4588 75.072 95.7784 74.8767 96.1726C74.6814 96.5668 74.5837 96.9893 74.5837 97.4403V98.1648C74.5837 98.7827 74.6903 99.3065 74.9033 99.7362C75.1199 100.162 75.42 100.487 75.8035 100.711C76.1871 100.931 76.6327 101.041 77.1405 101.041C77.4708 101.041 77.7691 100.995 78.0354 100.903C78.3053 100.807 78.5379 100.665 78.7332 100.477C78.9285 100.285 79.0795 100.047 79.186 99.7628L80.4005 100.104C80.2726 100.516 80.0578 100.878 79.7559 101.19C79.4541 101.499 79.0812 101.741 78.6373 101.915C78.1934 102.085 77.6945 102.17 77.1405 102.17ZM85.9988 93.8182V94.8835H81.7588V93.8182H85.9988ZM82.9946 91.858H84.2517V99.6562C84.2517 100.011 84.3032 100.278 84.4062 100.455C84.5127 100.629 84.6476 100.746 84.811 100.807C84.9779 100.864 85.1537 100.892 85.3383 100.892C85.4768 100.892 85.5905 100.885 85.6792 100.871C85.768 100.853 85.839 100.839 85.8923 100.828L86.148 101.957C86.0628 101.989 85.9438 102.021 85.7911 102.053C85.6384 102.089 85.4449 102.107 85.2105 102.107C84.8554 102.107 84.5074 102.03 84.1665 101.877C83.8291 101.725 83.5486 101.492 83.3248 101.18C83.1047 100.867 82.9946 100.473 82.9946 99.9972V91.858ZM95.1981 102.17C94.5162 102.17 93.9143 101.998 93.3923 101.654C92.8703 101.306 92.4619 100.816 92.1672 100.184C91.8724 99.5479 91.7251 98.7969 91.7251 97.9304C91.7251 97.071 91.8724 96.3253 92.1672 95.6932C92.4619 95.0611 92.8721 94.5728 93.3976 94.2283C93.9232 93.8839 94.5305 93.7116 95.2194 93.7116C95.752 93.7116 96.1729 93.8004 96.4818 93.978C96.7943 94.152 97.0322 94.3509 97.1956 94.5746C97.3625 94.7947 97.4921 94.9759 97.5844 95.1179H97.691V91.0909H98.9481V102H97.7336V100.743H97.5844C97.4921 100.892 97.3607 101.08 97.1903 101.308C97.0198 101.531 96.7765 101.732 96.4605 101.909C96.1444 102.083 95.7236 102.17 95.1981 102.17ZM95.3685 101.041C95.8728 101.041 96.2989 100.91 96.6469 100.647C96.9949 100.381 97.2595 100.013 97.4406 99.5444C97.6217 99.0721 97.7123 98.527 97.7123 97.9091C97.7123 97.2983 97.6235 96.7638 97.4459 96.3058C97.2684 95.8441 97.0056 95.4854 96.6576 95.2298C96.3096 94.9705 95.8799 94.8409 95.3685 94.8409C94.8358 94.8409 94.392 94.9776 94.0368 95.2511C93.6853 95.521 93.4207 95.8885 93.2432 96.3537C93.0692 96.8153 92.9822 97.3338 92.9822 97.9091C92.9822 98.4915 93.0709 99.0206 93.2485 99.4964C93.4296 99.9687 93.6959 100.345 94.0475 100.626C94.4026 100.903 94.843 101.041 95.3685 101.041ZM104.749 102.17C104.01 102.17 103.362 101.995 102.805 101.643C102.251 101.292 101.817 100.8 101.505 100.168C101.196 99.5355 101.041 98.7969 101.041 97.9517C101.041 97.0994 101.196 96.3555 101.505 95.7198C101.817 95.0842 102.251 94.5906 102.805 94.239C103.362 93.8874 104.01 93.7116 104.749 93.7116C105.487 93.7116 106.134 93.8874 106.688 94.239C107.245 94.5906 107.679 95.0842 107.987 95.7198C108.3 96.3555 108.456 97.0994 108.456 97.9517C108.456 98.7969 108.3 99.5355 107.987 100.168C107.679 100.8 107.245 101.292 106.688 101.643C106.134 101.995 105.487 102.17 104.749 102.17ZM104.749 101.041C105.31 101.041 105.772 100.897 106.134 100.61C106.496 100.322 106.764 99.9439 106.938 99.4751C107.112 99.0064 107.199 98.4986 107.199 97.9517C107.199 97.4048 107.112 96.8952 106.938 96.4229C106.764 95.9506 106.496 95.5689 106.134 95.2777C105.772 94.9865 105.31 94.8409 104.749 94.8409C104.188 94.8409 103.726 94.9865 103.364 95.2777C103.002 95.5689 102.734 95.9506 102.56 96.4229C102.386 96.8952 102.299 97.4048 102.299 97.9517C102.299 98.4986 102.386 99.0064 102.56 99.4751C102.734 99.9439 103.002 100.322 103.364 100.61C103.726 100.897 104.188 101.041 104.749 101.041ZM111.632 91.0909V102H110.375V91.0909H111.632ZM117.259 102.17C116.52 102.17 115.872 101.995 115.314 101.643C114.76 101.292 114.327 100.8 114.015 100.168C113.706 99.5355 113.551 98.7969 113.551 97.9517C113.551 97.0994 113.706 96.3555 114.015 95.7198C114.327 95.0842 114.76 94.5906 115.314 94.239C115.872 93.8874 116.52 93.7116 117.259 93.7116C117.997 93.7116 118.644 93.8874 119.198 94.239C119.755 94.5906 120.188 95.0842 120.497 95.7198C120.81 96.3555 120.966 97.0994 120.966 97.9517C120.966 98.7969 120.81 99.5355 120.497 100.168C120.188 100.8 119.755 101.292 119.198 101.643C118.644 101.995 117.997 102.17 117.259 102.17ZM117.259 101.041C117.82 101.041 118.281 100.897 118.644 100.61C119.006 100.322 119.274 99.9439 119.448 99.4751C119.622 99.0064 119.709 98.4986 119.709 97.9517C119.709 97.4048 119.622 96.8952 119.448 96.4229C119.274 95.9506 119.006 95.5689 118.644 95.2777C118.281 94.9865 117.82 94.8409 117.259 94.8409C116.698 94.8409 116.236 94.9865 115.874 95.2777C115.511 95.5689 115.243 95.9506 115.069 96.4229C114.895 96.8952 114.808 97.4048 114.808 97.9517C114.808 98.4986 114.895 99.0064 115.069 99.4751C115.243 99.9439 115.511 100.322 115.874 100.61C116.236 100.897 116.698 101.041 117.259 101.041ZM122.885 102V93.8182H124.099V95.054H124.185C124.334 94.6491 124.604 94.3207 124.994 94.0685C125.385 93.8164 125.825 93.6903 126.315 93.6903C126.408 93.6903 126.523 93.6921 126.662 93.6957C126.8 93.6992 126.905 93.7045 126.976 93.7116V94.9901C126.933 94.9794 126.836 94.9634 126.683 94.9421C126.534 94.9173 126.376 94.9048 126.209 94.9048C125.811 94.9048 125.456 94.9883 125.143 95.1552C124.835 95.3185 124.589 95.5458 124.408 95.837C124.231 96.1246 124.142 96.4531 124.142 96.8224V102H122.885ZM131.647 102.17C130.859 102.17 130.179 101.996 129.607 101.648C129.039 101.297 128.6 100.807 128.292 100.178C127.986 99.5462 127.833 98.8111 127.833 97.973C127.833 97.1349 127.986 96.3963 128.292 95.7571C128.6 95.1143 129.03 94.6136 129.581 94.255C130.135 93.8928 130.781 93.7116 131.52 93.7116C131.946 93.7116 132.366 93.7827 132.782 93.9247C133.197 94.0668 133.576 94.2976 133.917 94.6172C134.257 94.9332 134.529 95.3523 134.732 95.8743C134.934 96.3963 135.035 97.0391 135.035 97.8026V98.3352H128.728V97.2486H133.757C133.757 96.7869 133.664 96.375 133.48 96.0128C133.299 95.6506 133.039 95.3647 132.702 95.1552C132.368 94.9457 131.974 94.8409 131.52 94.8409C131.019 94.8409 130.586 94.9652 130.22 95.2138C129.858 95.4588 129.579 95.7784 129.384 96.1726C129.188 96.5668 129.091 96.9893 129.091 97.4403V98.1648C129.091 98.7827 129.197 99.3065 129.41 99.7362C129.627 100.162 129.927 100.487 130.31 100.711C130.694 100.931 131.14 101.041 131.647 101.041C131.978 101.041 132.276 100.995 132.542 100.903C132.812 100.807 133.045 100.665 133.24 100.477C133.435 100.285 133.586 100.047 133.693 99.7628L134.907 100.104C134.779 100.516 134.565 100.878 134.263 101.19C133.961 101.499 133.588 101.741 133.144 101.915C132.7 102.085 132.201 102.17 131.647 102.17ZM141.166 102V93.8182H142.381V95.0966H142.487C142.658 94.6598 142.933 94.3207 143.313 94.0792C143.693 93.8342 144.149 93.7116 144.682 93.7116C145.222 93.7116 145.671 93.8342 146.029 94.0792C146.392 94.3207 146.674 94.6598 146.876 95.0966H146.962C147.171 94.674 147.485 94.3384 147.904 94.0898C148.324 93.8377 148.826 93.7116 149.412 93.7116C150.143 93.7116 150.742 93.9407 151.207 94.3988C151.672 94.8533 151.905 95.5618 151.905 96.5241V102H150.648V96.5241C150.648 95.9205 150.483 95.489 150.152 95.2298C149.822 94.9705 149.433 94.8409 148.986 94.8409C148.411 94.8409 147.965 95.0149 147.649 95.3629C147.333 95.7074 147.175 96.1442 147.175 96.6733V102H145.896V96.3963C145.896 95.9311 145.745 95.5565 145.444 95.2724C145.142 94.9847 144.753 94.8409 144.277 94.8409C143.95 94.8409 143.645 94.9279 143.361 95.1019C143.08 95.2759 142.853 95.5174 142.679 95.8263C142.509 96.1317 142.423 96.4851 142.423 96.8864V102H141.166ZM156.611 102.192C156.093 102.192 155.622 102.094 155.199 101.899C154.777 101.7 154.441 101.414 154.193 101.041C153.944 100.665 153.82 100.21 153.82 99.6776C153.82 99.2088 153.912 98.8288 154.097 98.5376C154.281 98.2429 154.528 98.0121 154.837 97.8452C155.146 97.6783 155.487 97.554 155.86 97.4723C156.236 97.3871 156.615 97.3196 156.994 97.2699C157.492 97.206 157.895 97.158 158.204 97.1261C158.516 97.0906 158.743 97.032 158.885 96.9503C159.031 96.8686 159.104 96.7266 159.104 96.5241V96.4815C159.104 95.956 158.96 95.5476 158.672 95.2564C158.388 94.9652 157.957 94.8196 157.378 94.8196C156.778 94.8196 156.307 94.951 155.966 95.2138C155.626 95.4766 155.386 95.7571 155.247 96.0554L154.054 95.6293C154.267 95.1321 154.551 94.745 154.906 94.468C155.265 94.1875 155.656 93.9922 156.078 93.8821C156.504 93.7685 156.923 93.7116 157.335 93.7116C157.598 93.7116 157.9 93.7436 158.241 93.8075C158.585 93.8679 158.917 93.994 159.237 94.1857C159.56 94.3775 159.828 94.6669 160.041 95.054C160.254 95.4411 160.361 95.9595 160.361 96.6094V102H159.104V100.892H159.04C158.955 101.07 158.813 101.26 158.614 101.462C158.415 101.664 158.15 101.837 157.82 101.979C157.49 102.121 157.087 102.192 156.611 102.192ZM156.803 101.062C157.3 101.062 157.719 100.965 158.06 100.77C158.404 100.574 158.664 100.322 158.838 100.013C159.015 99.7042 159.104 99.3793 159.104 99.0384V97.8878C159.051 97.9517 158.933 98.0103 158.752 98.0636C158.575 98.1133 158.369 98.1577 158.134 98.1967C157.904 98.2322 157.678 98.2642 157.458 98.2926C157.241 98.3175 157.066 98.3388 156.931 98.3565C156.604 98.3991 156.298 98.4684 156.014 98.5643C155.734 98.6566 155.507 98.7969 155.333 98.9851C155.162 99.1697 155.077 99.4219 155.077 99.7415C155.077 100.178 155.238 100.509 155.562 100.732C155.888 100.952 156.302 101.062 156.803 101.062ZM165.958 105.239C165.351 105.239 164.829 105.161 164.392 105.004C163.955 104.852 163.591 104.649 163.3 104.397C163.012 104.148 162.783 103.882 162.613 103.598L163.614 102.895C163.728 103.044 163.872 103.214 164.046 103.406C164.22 103.602 164.458 103.77 164.759 103.912C165.065 104.058 165.464 104.131 165.958 104.131C166.619 104.131 167.164 103.971 167.593 103.651C168.023 103.332 168.238 102.831 168.238 102.149V100.487H168.131C168.039 100.636 167.908 100.821 167.737 101.041C167.57 101.258 167.329 101.451 167.013 101.622C166.7 101.789 166.278 101.872 165.745 101.872C165.084 101.872 164.491 101.716 163.966 101.403C163.444 101.091 163.03 100.636 162.725 100.04C162.423 99.4432 162.272 98.7187 162.272 97.8665C162.272 97.0284 162.419 96.2987 162.714 95.6772C163.009 95.0522 163.419 94.5692 163.945 94.2283C164.47 93.8839 165.077 93.7116 165.766 93.7116C166.299 93.7116 166.722 93.8004 167.034 93.978C167.35 94.152 167.592 94.3509 167.758 94.5746C167.929 94.7947 168.06 94.9759 168.153 95.1179H168.28V93.8182H169.495V102.234C169.495 102.938 169.335 103.509 169.016 103.95C168.699 104.393 168.273 104.718 167.737 104.924C167.204 105.134 166.611 105.239 165.958 105.239ZM165.915 100.743C166.42 100.743 166.846 100.627 167.194 100.397C167.542 100.166 167.806 99.8338 167.987 99.4006C168.169 98.9673 168.259 98.4489 168.259 97.8452C168.259 97.2557 168.17 96.7354 167.993 96.2844C167.815 95.8335 167.552 95.4801 167.204 95.2244C166.856 94.9687 166.427 94.8409 165.915 94.8409C165.383 94.8409 164.939 94.9759 164.584 95.2457C164.232 95.5156 163.968 95.8778 163.79 96.3324C163.616 96.7869 163.529 97.2912 163.529 97.8452C163.529 98.4134 163.618 98.9158 163.795 99.3526C163.976 99.7859 164.243 100.127 164.594 100.375C164.949 100.62 165.39 100.743 165.915 100.743ZM173.053 97.0781V102H171.796V93.8182H173.011V95.0966H173.117C173.309 94.6811 173.6 94.3473 173.991 94.0952C174.381 93.8395 174.886 93.7116 175.503 93.7116C176.057 93.7116 176.542 93.8253 176.958 94.0526C177.373 94.2763 177.696 94.6172 177.927 95.0753C178.158 95.5298 178.273 96.1051 178.273 96.8011V102H177.016V96.8864C177.016 96.2436 176.849 95.7429 176.516 95.3842C176.182 95.022 175.724 94.8409 175.141 94.8409C174.74 94.8409 174.381 94.9279 174.065 95.1019C173.753 95.2759 173.506 95.5298 173.325 95.8636C173.144 96.1974 173.053 96.6023 173.053 97.0781ZM182.978 102.192C182.46 102.192 181.989 102.094 181.567 101.899C181.144 101.7 180.808 101.414 180.56 101.041C180.311 100.665 180.187 100.21 180.187 99.6776C180.187 99.2088 180.279 98.8288 180.464 98.5376C180.649 98.2429 180.895 98.0121 181.204 97.8452C181.513 97.6783 181.854 97.554 182.227 97.4723C182.604 97.3871 182.982 97.3196 183.362 97.2699C183.859 97.206 184.262 97.158 184.571 97.1261C184.883 97.0906 185.111 97.032 185.253 96.9503C185.398 96.8686 185.471 96.7266 185.471 96.5241V96.4815C185.471 95.956 185.327 95.5476 185.04 95.2564C184.756 94.9652 184.324 94.8196 183.745 94.8196C183.145 94.8196 182.675 94.951 182.334 95.2138C181.993 95.4766 181.753 95.7571 181.615 96.0554L180.421 95.6293C180.634 95.1321 180.919 94.745 181.274 94.468C181.632 94.1875 182.023 93.9922 182.445 93.8821C182.872 93.7685 183.291 93.7116 183.703 93.7116C183.965 93.7116 184.267 93.7436 184.608 93.8075C184.953 93.8679 185.285 93.994 185.604 94.1857C185.927 94.3775 186.195 94.6669 186.409 95.054C186.622 95.4411 186.728 95.9595 186.728 96.6094V102H185.471V100.892H185.407C185.322 101.07 185.18 101.26 184.981 101.462C184.782 101.664 184.518 101.837 184.187 101.979C183.857 102.121 183.454 102.192 182.978 102.192ZM183.17 101.062C183.667 101.062 184.086 100.965 184.427 100.77C184.771 100.574 185.031 100.322 185.205 100.013C185.382 99.7042 185.471 99.3793 185.471 99.0384V97.8878C185.418 97.9517 185.301 98.0103 185.119 98.0636C184.942 98.1133 184.736 98.1577 184.502 98.1967C184.271 98.2322 184.045 98.2642 183.825 98.2926C183.608 98.3175 183.433 98.3388 183.298 98.3565C182.971 98.3991 182.666 98.4684 182.382 98.5643C182.101 98.6566 181.874 98.7969 181.7 98.9851C181.529 99.1697 181.444 99.4219 181.444 99.7415C181.444 100.178 181.606 100.509 181.929 100.732C182.256 100.952 182.669 101.062 183.17 101.062ZM195.649 102.192C195.131 102.192 194.66 102.094 194.237 101.899C193.815 101.7 193.479 101.414 193.231 101.041C192.982 100.665 192.858 100.21 192.858 99.6776C192.858 99.2088 192.95 98.8288 193.135 98.5376C193.32 98.2429 193.566 98.0121 193.875 97.8452C194.184 97.6783 194.525 97.554 194.898 97.4723C195.274 97.3871 195.653 97.3196 196.033 97.2699C196.53 97.206 196.933 97.158 197.242 97.1261C197.554 97.0906 197.782 97.032 197.924 96.9503C198.069 96.8686 198.142 96.7266 198.142 96.5241V96.4815C198.142 95.956 197.998 95.5476 197.71 95.2564C197.426 94.9652 196.995 94.8196 196.416 94.8196C195.816 94.8196 195.345 94.951 195.005 95.2138C194.664 95.4766 194.424 95.7571 194.285 96.0554L193.092 95.6293C193.305 95.1321 193.589 94.745 193.945 94.468C194.303 94.1875 194.694 93.9922 195.116 93.8821C195.543 93.7685 195.962 93.7116 196.373 93.7116C196.636 93.7116 196.938 93.7436 197.279 93.8075C197.623 93.8679 197.956 93.994 198.275 94.1857C198.598 94.3775 198.866 94.6669 199.079 95.054C199.293 95.4411 199.399 95.9595 199.399 96.6094V102H198.142V100.892H198.078C197.993 101.07 197.851 101.26 197.652 101.462C197.453 101.664 197.188 101.837 196.858 101.979C196.528 102.121 196.125 102.192 195.649 102.192ZM195.841 101.062C196.338 101.062 196.757 100.965 197.098 100.77C197.442 100.574 197.702 100.322 197.876 100.013C198.053 99.7042 198.142 99.3793 198.142 99.0384V97.8878C198.089 97.9517 197.972 98.0103 197.79 98.0636C197.613 98.1133 197.407 98.1577 197.172 98.1967C196.942 98.2322 196.716 98.2642 196.496 98.2926C196.279 98.3175 196.104 98.3388 195.969 98.3565C195.642 98.3991 195.337 98.4684 195.052 98.5643C194.772 98.6566 194.545 98.7969 194.371 98.9851C194.2 99.1697 194.115 99.4219 194.115 99.7415C194.115 100.178 194.277 100.509 194.6 100.732C194.926 100.952 195.34 101.062 195.841 101.062ZM202.951 91.0909V102H201.694V91.0909H202.951ZM205.253 102V93.8182H206.51V102H205.253ZM205.892 92.4545C205.647 92.4545 205.436 92.3711 205.258 92.2042C205.084 92.0373 204.997 91.8366 204.997 91.6023C204.997 91.3679 205.084 91.1673 205.258 91.0004C205.436 90.8335 205.647 90.75 205.892 90.75C206.137 90.75 206.347 90.8335 206.521 91.0004C206.698 91.1673 206.787 91.3679 206.787 91.6023C206.787 91.8366 206.698 92.0373 206.521 92.2042C206.347 92.3711 206.137 92.4545 205.892 92.4545ZM214.395 105.068V100.743H214.289C214.196 100.892 214.065 101.08 213.894 101.308C213.724 101.531 213.481 101.732 213.165 101.909C212.849 102.083 212.428 102.17 211.902 102.17C211.22 102.17 210.618 101.998 210.096 101.654C209.574 101.306 209.166 100.816 208.871 100.184C208.577 99.5479 208.429 98.7969 208.429 97.9304C208.429 97.071 208.577 96.3253 208.871 95.6932C209.166 95.0611 209.576 94.5728 210.102 94.2283C210.627 93.8839 211.235 93.7116 211.923 93.7116C212.456 93.7116 212.877 93.8004 213.186 93.978C213.498 94.152 213.736 94.3509 213.9 94.5746C214.067 94.7947 214.196 94.9759 214.289 95.1179H214.438V93.8182H215.652V105.068H214.395ZM212.073 101.041C212.577 101.041 213.003 100.91 213.351 100.647C213.699 100.381 213.964 100.013 214.145 99.5444C214.326 99.0721 214.416 98.527 214.416 97.9091C214.416 97.2983 214.328 96.7638 214.15 96.3058C213.972 95.8441 213.71 95.4854 213.362 95.2298C213.014 94.9705 212.584 94.8409 212.073 94.8409C211.54 94.8409 211.096 94.9776 210.741 95.2511C210.389 95.521 210.125 95.8885 209.947 96.3537C209.773 96.8153 209.686 97.3338 209.686 97.9091C209.686 98.4915 209.775 99.0206 209.953 99.4964C210.134 99.9687 210.4 100.345 210.752 100.626C211.107 100.903 211.547 101.041 212.073 101.041ZM223.11 98.6548V93.8182H224.367V102H223.11V100.615H223.024C222.833 101.031 222.534 101.384 222.129 101.675C221.725 101.963 221.213 102.107 220.595 102.107C220.084 102.107 219.629 101.995 219.232 101.771C218.834 101.544 218.521 101.203 218.294 100.748C218.067 100.29 217.953 99.7131 217.953 99.017V93.8182H219.21V98.9318C219.21 99.5284 219.377 100.004 219.711 100.359C220.048 100.714 220.478 100.892 221 100.892C221.313 100.892 221.631 100.812 221.954 100.652C222.28 100.493 222.554 100.248 222.774 99.9173C222.998 99.587 223.11 99.1662 223.11 98.6548ZM229.077 102.192C228.558 102.192 228.088 102.094 227.665 101.899C227.243 101.7 226.907 101.414 226.658 101.041C226.41 100.665 226.286 100.21 226.286 99.6776C226.286 99.2088 226.378 98.8288 226.563 98.5376C226.747 98.2429 226.994 98.0121 227.303 97.8452C227.612 97.6783 227.953 97.554 228.326 97.4723C228.702 97.3871 229.08 97.3196 229.46 97.2699C229.957 97.206 230.361 97.158 230.669 97.1261C230.982 97.0906 231.209 97.032 231.351 96.9503C231.497 96.8686 231.57 96.7266 231.57 96.5241V96.4815C231.57 95.956 231.426 95.5476 231.138 95.2564C230.854 94.9652 230.423 94.8196 229.844 94.8196C229.244 94.8196 228.773 94.951 228.432 95.2138C228.091 95.4766 227.852 95.7571 227.713 96.0554L226.52 95.6293C226.733 95.1321 227.017 94.745 227.372 94.468C227.731 94.1875 228.122 93.9922 228.544 93.8821C228.97 93.7685 229.389 93.7116 229.801 93.7116C230.064 93.7116 230.366 93.7436 230.707 93.8075C231.051 93.8679 231.383 93.994 231.703 94.1857C232.026 94.3775 232.294 94.6669 232.507 95.054C232.72 95.4411 232.827 95.9595 232.827 96.6094V102H231.57V100.892H231.506C231.421 101.07 231.278 101.26 231.08 101.462C230.881 101.664 230.616 101.837 230.286 101.979C229.956 102.121 229.553 102.192 229.077 102.192ZM229.269 101.062C229.766 101.062 230.185 100.965 230.526 100.77C230.87 100.574 231.129 100.322 231.303 100.013C231.481 99.7042 231.57 99.3793 231.57 99.0384V97.8878C231.516 97.9517 231.399 98.0103 231.218 98.0636C231.041 98.1133 230.835 98.1577 230.6 98.1967C230.369 98.2322 230.144 98.2642 229.924 98.2926C229.707 98.3175 229.531 98.3388 229.396 98.3565C229.07 98.3991 228.764 98.4684 228.48 98.5643C228.2 98.6566 227.972 98.7969 227.798 98.9851C227.628 99.1697 227.543 99.4219 227.543 99.7415C227.543 100.178 227.704 100.509 228.027 100.732C228.354 100.952 228.768 101.062 229.269 101.062ZM236.037 102.085C235.775 102.085 235.549 101.991 235.361 101.803C235.173 101.615 235.079 101.389 235.079 101.126C235.079 100.864 235.173 100.638 235.361 100.45C235.549 100.262 235.775 100.168 236.037 100.168C236.3 100.168 236.526 100.262 236.714 100.45C236.902 100.638 236.996 100.864 236.996 101.126C236.996 101.3 236.952 101.46 236.863 101.606C236.778 101.751 236.662 101.869 236.517 101.957C236.375 102.043 236.215 102.085 236.037 102.085Z" fill="#4D5C6C"/>
<rect x="0.5" y="0.5" width="299" height="123" rx="3.5" stroke="#EBF2F7"/>
</svg>
