<svg width="435" height="298" viewBox="0 0 435 298" fill="none" xmlns="http://www.w3.org/2000/svg">
<circle cx="252" cy="47" r="8" fill="url(#paint0_linear_1659_16187)"/>
<path d="M272.818 52.1598C274.725 52.1598 276.036 51.2276 276.377 49.8054L274.576 49.603C274.315 50.2955 273.676 50.6577 272.845 50.6577C271.599 50.6577 270.773 49.8374 270.757 48.4364H276.457V47.8452C276.457 44.9741 274.731 43.7116 272.717 43.7116C270.373 43.7116 268.845 45.4322 268.845 47.957C268.845 50.5245 270.352 52.1598 272.818 52.1598ZM270.762 47.1367C270.821 46.0927 271.593 45.2138 272.744 45.2138C273.852 45.2138 274.598 46.0234 274.608 47.1367H270.762ZM278.538 52H280.466V47.0249C280.466 46.0181 281.137 45.3363 281.968 45.3363C282.783 45.3363 283.343 45.8849 283.343 46.7266V52H285.234V46.897C285.234 45.9755 285.782 45.3363 286.714 45.3363C287.492 45.3363 288.11 45.7944 288.11 46.8065V52H290.044V46.5082C290.044 44.6811 288.989 43.7116 287.487 43.7116C286.299 43.7116 285.393 44.2976 285.031 45.2085H284.946C284.632 44.2816 283.838 43.7116 282.735 43.7116C281.638 43.7116 280.818 44.2763 280.477 45.2085H280.381V43.8182H278.538V52ZM294.804 52.1651C296.088 52.1651 296.855 51.5632 297.206 50.8761H297.27V52H299.124V46.5241C299.124 44.3615 297.361 43.7116 295.8 43.7116C294.08 43.7116 292.759 44.4787 292.333 45.9702L294.133 46.2259C294.325 45.6665 294.868 45.1871 295.811 45.1871C296.706 45.1871 297.196 45.6452 297.196 46.4496V46.4815C297.196 47.0355 296.615 47.0621 295.172 47.2166C293.584 47.3871 292.066 47.8612 292.066 49.7042C292.066 51.3129 293.243 52.1651 294.804 52.1651ZM295.305 50.7482C294.501 50.7482 293.925 50.3807 293.925 49.6722C293.925 48.9318 294.57 48.6229 295.433 48.5004C295.939 48.4311 296.951 48.3033 297.201 48.1009V49.065C297.201 49.9759 296.466 50.7482 295.305 50.7482ZM301.513 52H303.441V43.8182H301.513V52ZM302.482 42.657C303.095 42.657 303.596 42.1882 303.596 41.6129C303.596 41.0323 303.095 40.5636 302.482 40.5636C301.865 40.5636 301.364 41.0323 301.364 41.6129C301.364 42.1882 301.865 42.657 302.482 42.657ZM307.802 41.0909H305.874V52H307.802V41.0909Z" fill="#6048E5"/>
<path d="M269.347 72H270.833V67.2919C270.833 66.2628 271.554 65.5469 272.4 65.5469C273.225 65.5469 273.797 66.0938 273.797 66.924V72H275.278V67.1328C275.278 66.2131 275.84 65.5469 276.809 65.5469C277.595 65.5469 278.241 65.9844 278.241 67.0185V72H279.728V66.8793C279.728 65.1342 278.753 64.2642 277.371 64.2642C276.272 64.2642 275.447 64.7912 275.079 65.6065H275C274.667 64.7713 273.966 64.2642 272.946 64.2642C271.937 64.2642 271.186 64.7663 270.868 65.6065H270.774V64.3636H269.347V72ZM283.942 72.169C285.205 72.169 285.916 71.5277 286.199 70.956H286.259V72H287.711V66.929C287.711 64.7067 285.961 64.2642 284.748 64.2642C283.366 64.2642 282.093 64.821 281.596 66.2131L282.993 66.5312C283.211 65.9893 283.768 65.4673 284.768 65.4673C285.727 65.4673 286.219 65.9695 286.219 66.8345V66.8693C286.219 67.4112 285.662 67.4013 284.29 67.5604C282.844 67.7294 281.362 68.1072 281.362 69.8423C281.362 71.3438 282.491 72.169 283.942 72.169ZM284.265 70.9759C283.425 70.9759 282.819 70.598 282.819 69.8622C282.819 69.0668 283.525 68.7834 284.385 68.669C284.867 68.6044 286.01 68.4751 286.224 68.2614V69.2457C286.224 70.1506 285.503 70.9759 284.265 70.9759ZM291.177 67.4659C291.177 66.2479 291.948 65.5518 293.007 65.5518C294.031 65.5518 294.642 66.2031 294.642 67.3217V72H296.129V67.1428C296.129 65.2386 295.085 64.2642 293.514 64.2642C292.326 64.2642 291.61 64.7812 291.252 65.6065H291.157V61.8182H289.691V72H291.177V67.4659ZM300.335 72.169C301.598 72.169 302.309 71.5277 302.592 70.956H302.652V72H304.103V66.929C304.103 64.7067 302.353 64.2642 301.14 64.2642C299.758 64.2642 298.485 64.821 297.988 66.2131L299.385 66.5312C299.604 65.9893 300.161 65.4673 301.16 65.4673C302.12 65.4673 302.612 65.9695 302.612 66.8345V66.8693C302.612 67.4112 302.055 67.4013 300.683 67.5604C299.236 67.7294 297.755 68.1072 297.755 69.8423C297.755 71.3438 298.883 72.169 300.335 72.169ZM300.658 70.9759C299.818 70.9759 299.211 70.598 299.211 69.8622C299.211 69.0668 299.917 68.7834 300.777 68.669C301.26 68.6044 302.403 68.4751 302.617 68.2614V69.2457C302.617 70.1506 301.896 70.9759 300.658 70.9759ZM307.57 67.4659C307.57 66.2479 308.316 65.5518 309.35 65.5518C310.359 65.5518 310.97 66.2131 310.97 67.3217V72H312.457V67.1428C312.457 65.2536 311.418 64.2642 309.857 64.2642C308.708 64.2642 307.958 64.7962 307.605 65.6065H307.51V64.3636H306.083V72H307.57V67.4659ZM314.45 72H315.937V64.3636H314.45V72ZM315.201 63.1854C315.713 63.1854 316.141 62.7876 316.141 62.3004C316.141 61.8132 315.713 61.4105 315.201 61.4105C314.684 61.4105 314.262 61.8132 314.262 62.3004C314.262 62.7876 314.684 63.1854 315.201 63.1854ZM324.067 74.7692C325.215 74.7692 326.543 74.456 327.159 74.1676L326.811 73.0788C326.393 73.228 325.245 73.5909 324.131 73.5909C320.786 73.5909 318.991 71.7464 318.991 68.4453C318.991 65.2834 320.766 63.2401 323.947 63.2401C326.856 63.2401 328.591 65.1094 328.586 67.6349C328.591 69.7926 328.312 70.7621 327.408 70.7621C326.896 70.7621 326.612 70.3445 326.612 69.8224V65.2088H325.389V65.7656H325.325C325.175 65.3281 324.31 64.9354 323.271 65.0597C321.835 65.2287 320.602 66.4169 320.602 68.3757C320.602 70.419 321.646 71.7862 323.321 71.8509C324.455 71.9006 325.19 71.3736 325.424 70.7869H325.484C325.603 71.5874 326.468 71.9403 327.318 71.9105C329.441 71.8707 329.844 69.7827 329.844 67.6847C329.844 64.6918 327.795 62.0866 323.997 62.0866C320.015 62.0866 317.673 64.5178 317.668 68.4354C317.673 72.4673 319.955 74.7692 324.067 74.7692ZM323.609 70.6328C322.312 70.6328 321.864 69.5192 321.859 68.3161C321.864 67.1726 322.506 66.2628 323.629 66.2628C324.847 66.2628 325.394 66.7997 325.399 68.3111C325.404 69.8622 324.902 70.6328 323.609 70.6328ZM331.486 72H332.972V64.3636H331.486V72ZM332.236 63.1854C332.748 63.1854 333.176 62.7876 333.176 62.3004C333.176 61.8132 332.748 61.4105 332.236 61.4105C331.719 61.4105 331.297 61.8132 331.297 62.3004C331.297 62.7876 331.719 63.1854 332.236 63.1854ZM336.458 67.4659C336.458 66.2479 337.204 65.5518 338.238 65.5518C339.248 65.5518 339.859 66.2131 339.859 67.3217V72H341.346V67.1428C341.346 65.2536 340.306 64.2642 338.745 64.2642C337.597 64.2642 336.846 64.7962 336.493 65.6065H336.399V64.3636H334.972V72H336.458V67.4659ZM343.458 72H344.91V70.8118H345.034C345.303 71.299 345.85 72.1491 347.242 72.1491C349.091 72.1491 350.434 70.6676 350.434 68.1967C350.434 65.7209 349.071 64.2642 347.227 64.2642C345.81 64.2642 345.298 65.1293 345.034 65.6016H344.945V61.8182H343.458V72ZM344.915 68.1818C344.915 66.5859 345.611 65.527 346.909 65.527C348.256 65.527 348.932 66.6655 348.932 68.1818C348.932 69.7131 348.236 70.8814 346.909 70.8814C345.631 70.8814 344.915 69.7876 344.915 68.1818ZM355.319 72.1541C357.472 72.1541 358.879 70.5781 358.879 68.2166C358.879 65.8402 357.472 64.2642 355.319 64.2642C353.167 64.2642 351.76 65.8402 351.76 68.2166C351.76 70.5781 353.167 72.1541 355.319 72.1541ZM355.324 70.9062C353.917 70.9062 353.261 69.6783 353.261 68.2116C353.261 66.75 353.917 65.5071 355.324 65.5071C356.721 65.5071 357.378 66.75 357.378 68.2116C357.378 69.6783 356.721 70.9062 355.324 70.9062ZM361.397 64.3636H359.767L362.113 68.1818L359.737 72H361.367L363.083 69.1463L364.803 72H366.428L364.027 68.1818L366.409 64.3636H364.783L363.083 67.3366L361.397 64.3636ZM368.914 72.0945C369.456 72.0945 369.909 71.652 369.909 71.1001C369.909 70.5582 369.456 70.1108 368.914 70.1108C368.367 70.1108 367.92 70.5582 367.92 71.1001C367.92 71.652 368.367 72.0945 368.914 72.0945ZM375.116 72.1541C376.921 72.1541 378.089 71.0703 378.253 69.5838H376.807C376.618 70.4091 375.976 70.8963 375.126 70.8963C373.868 70.8963 373.058 69.8473 373.058 68.1818C373.058 66.5462 373.883 65.517 375.126 65.517C376.071 65.517 376.648 66.1136 376.807 66.8295H378.253C378.094 65.2884 376.836 64.2642 375.101 64.2642C372.949 64.2642 371.557 65.8849 371.557 68.2166C371.557 70.5185 372.899 72.1541 375.116 72.1541ZM383.06 72.1541C385.212 72.1541 386.619 70.5781 386.619 68.2166C386.619 65.8402 385.212 64.2642 383.06 64.2642C380.907 64.2642 379.5 65.8402 379.5 68.2166C379.5 70.5781 380.907 72.1541 383.06 72.1541ZM383.065 70.9062C381.658 70.9062 381.001 69.6783 381.001 68.2116C381.001 66.75 381.658 65.5071 383.065 65.5071C384.462 65.5071 385.118 66.75 385.118 68.2116C385.118 69.6783 384.462 70.9062 383.065 70.9062ZM388.279 72H389.765V67.2919C389.765 66.2628 390.486 65.5469 391.331 65.5469C392.156 65.5469 392.728 66.0938 392.728 66.924V72H394.21V67.1328C394.21 66.2131 394.771 65.5469 395.741 65.5469C396.526 65.5469 397.173 65.9844 397.173 67.0185V72H398.659V66.8793C398.659 65.1342 397.685 64.2642 396.303 64.2642C395.204 64.2642 394.379 64.7912 394.011 65.6065H393.931C393.598 64.7713 392.897 64.2642 391.878 64.2642C390.869 64.2642 390.118 64.7663 389.8 65.6065H389.705V64.3636H388.279V72Z" fill="#64778C"/>
<a href="mailto:mahani@inbox.com">
<rect fill="black" fill-opacity="0" x="0.347656" y="-0.971591" width="131.301" height="16.9432"/>
</a>
<path d="M5.48289 80.8182H3.78367V80.1737C3.78367 79.5344 4.05001 79.1776 4.76911 79.1776C5.07274 79.1776 5.32842 79.2468 5.48822 79.2947L5.87707 77.8033C5.62671 77.718 5.07806 77.5795 4.41223 77.5795C2.99 77.5795 1.85541 78.3945 1.85541 80.0458V80.8182H0.646245V82.3097H1.85541V89H3.78367V82.3097H5.48289V80.8182ZM7.44301 89H9.37128V80.8182H7.44301V89ZM8.41247 79.657C9.02505 79.657 9.52576 79.1882 9.52576 78.6129C9.52576 78.0323 9.02505 77.5636 8.41247 77.5636C7.79458 77.5636 7.29387 78.0323 7.29387 78.6129C7.29387 79.1882 7.79458 79.657 8.41247 79.657ZM11.8041 89H13.7324V84.19C13.7324 83.1513 14.5154 82.4162 15.5755 82.4162C15.9004 82.4162 16.3052 82.4748 16.4703 82.5281V80.7543C16.2946 80.7223 15.9909 80.701 15.7779 80.701C14.8404 80.701 14.0573 81.2337 13.759 82.1818H13.6738V80.8182H11.8041V89ZM24.668 82.9808C24.4017 81.5959 23.2937 80.7116 21.3761 80.7116C19.4052 80.7116 18.0629 81.6811 18.0682 83.1939C18.0629 84.3871 18.798 85.1754 20.3694 85.5004L21.765 85.7933C22.516 85.9585 22.8676 86.2621 22.8676 86.7255C22.8676 87.2848 22.2604 87.7056 21.3442 87.7056C20.4599 87.7056 19.8847 87.3221 19.7195 86.587L17.8392 86.7681C18.0789 88.2702 19.3413 89.1598 21.3495 89.1598C23.3949 89.1598 24.8385 88.0998 24.8438 86.5497C24.8385 85.3832 24.0874 84.6694 22.5427 84.3338L21.1471 84.0355C20.3161 83.8491 19.9859 83.5614 19.9912 83.0874C19.9859 82.5334 20.5984 82.1499 21.4028 82.1499C22.2923 82.1499 22.7611 82.6346 22.9102 83.1726L24.668 82.9808ZM30.9694 80.8182H29.3554V78.858H27.4272V80.8182H26.2659V82.3097H27.4272V86.8587C27.4165 88.3981 28.5351 89.1545 29.984 89.1119C30.5326 89.0959 30.9108 88.9893 31.1186 88.9201L30.7936 87.4126C30.6871 87.4393 30.4687 87.4872 30.229 87.4872C29.7443 87.4872 29.3554 87.3168 29.3554 86.5391V82.3097H30.9694V80.8182ZM42.2579 78.0909H40.2924V85.527H40.1965L35.0616 78.0909H33.2931V89H35.2693V81.5692H35.3598L40.5001 89H42.2579V78.0909ZM47.1304 89.1651C48.4142 89.1651 49.1812 88.5632 49.5328 87.8761H49.5967V89H51.4504V83.5241C51.4504 81.3615 49.6872 80.7116 48.1265 80.7116C46.406 80.7116 45.085 81.4787 44.6588 82.9702L46.4593 83.2259C46.651 82.6665 47.1943 82.1871 48.1372 82.1871C49.0321 82.1871 49.5221 82.6452 49.5221 83.4496V83.4815C49.5221 84.0355 48.9415 84.0621 47.498 84.2166C45.9106 84.3871 44.3925 84.8612 44.3925 86.7042C44.3925 88.3129 45.5697 89.1651 47.1304 89.1651ZM47.6311 87.7482C46.8268 87.7482 46.2515 87.3807 46.2515 86.6722C46.2515 85.9318 46.8961 85.6229 47.759 85.5004C48.265 85.4311 49.2771 85.3033 49.5274 85.1009V86.065C49.5274 86.9759 48.7924 87.7482 47.6311 87.7482ZM53.8393 89H55.7676V84.0249C55.7676 83.0181 56.4387 82.3363 57.2697 82.3363C58.0847 82.3363 58.644 82.8849 58.644 83.7266V89H60.535V83.897C60.535 82.9755 61.0836 82.3363 62.0158 82.3363C62.7935 82.3363 63.4114 82.7944 63.4114 83.8065V89H65.345V83.5082C65.345 81.6811 64.2903 80.7116 62.7882 80.7116C61.6003 80.7116 60.6948 81.2976 60.3326 82.2085H60.2473C59.9331 81.2816 59.1394 80.7116 58.0367 80.7116C56.9394 80.7116 56.1191 81.2763 55.7782 82.2085H55.6823V80.8182H53.8393V89ZM71.3734 89.1598C73.2803 89.1598 74.5907 88.2276 74.9316 86.8054L73.1312 86.603C72.8702 87.2955 72.231 87.6577 71.4 87.6577C70.1536 87.6577 69.3279 86.8374 69.3119 85.4364H75.0115V84.8452C75.0115 81.9741 73.2857 80.7116 71.2722 80.7116C68.9284 80.7116 67.3997 82.4322 67.3997 84.957C67.3997 87.5245 68.9071 89.1598 71.3734 89.1598ZM69.3173 84.1367C69.3759 83.0927 70.1482 82.2138 71.2988 82.2138C72.4068 82.2138 73.1525 83.0234 73.1632 84.1367H69.3173Z" fill="#6048E5"/>
<path d="M1.68142 102.091V113H3.24747V105.1H3.34868L6.56601 112.984H7.86572L11.0831 105.106H11.1843V113H12.7503V102.091H10.7528L7.27979 110.571H7.15194L3.67893 102.091H1.68142ZM17.3965 113.181C18.7495 113.181 19.5112 112.494 19.8149 111.881H19.8788V113H21.4342V107.567C21.4342 105.186 19.5592 104.712 18.2595 104.712C16.7786 104.712 15.415 105.308 14.8823 106.8L16.3791 107.141C16.6135 106.56 17.2101 106.001 18.2808 106.001C19.3088 106.001 19.8362 106.539 19.8362 107.466V107.503C19.8362 108.083 19.2396 108.073 17.7694 108.243C16.2193 108.424 14.632 108.829 14.632 110.688C14.632 112.297 15.8411 113.181 17.3965 113.181ZM17.7428 111.903C16.8426 111.903 16.1927 111.498 16.1927 110.71C16.1927 109.857 16.9491 109.554 17.8706 109.431C18.3873 109.362 19.6124 109.223 19.8415 108.994V110.049C19.8415 111.018 19.0691 111.903 17.7428 111.903ZM23.5555 113H25.1482V108.004C25.1482 106.933 25.9739 106.161 27.1031 106.161C27.4334 106.161 27.8062 106.219 27.9341 106.256V104.733C27.7743 104.712 27.46 104.696 27.2576 104.696C26.2988 104.696 25.4785 105.239 25.1802 106.118H25.0949V104.818H23.5555V113ZM29.3124 113H30.9051V104.818H29.3124V113ZM30.1167 103.556C30.6653 103.556 31.1234 103.13 31.1234 102.608C31.1234 102.086 30.6653 101.654 30.1167 101.654C29.5627 101.654 29.11 102.086 29.11 102.608C29.11 103.13 29.5627 103.556 30.1167 103.556ZM35.4288 113.181C36.7817 113.181 37.5435 112.494 37.8471 111.881H37.911V113H39.4664V107.567C39.4664 105.186 37.5914 104.712 36.2917 104.712C34.8109 104.712 33.4472 105.308 32.9146 106.8L34.4114 107.141C34.6457 106.56 35.2423 106.001 36.313 106.001C37.341 106.001 37.8684 106.539 37.8684 107.466V107.503C37.8684 108.083 37.2718 108.073 35.8016 108.243C34.2516 108.424 32.6642 108.829 32.6642 110.688C32.6642 112.297 33.8734 113.181 35.4288 113.181ZM35.775 111.903C34.8748 111.903 34.2249 111.498 34.2249 110.71C34.2249 109.857 34.9813 109.554 35.9028 109.431C36.4195 109.362 37.6447 109.223 37.8737 108.994V110.049C37.8737 111.018 37.1013 111.903 35.775 111.903Z" fill="#64778C"/>
<circle cx="92" cy="84" r="8" fill="url(#paint1_linear_1659_16187)"/>
<path d="M2.98612 153.091H1.05786V164H2.98612V153.091ZM7.77339 164.165C9.05713 164.165 9.82417 163.563 10.1757 162.876H10.2397V164H12.0934V158.524C12.0934 156.362 10.3302 155.712 8.76949 155.712C7.04896 155.712 5.72794 156.479 5.3018 157.97L7.10223 158.226C7.29399 157.667 7.83731 157.187 8.78014 157.187C9.67503 157.187 10.1651 157.645 10.1651 158.45V158.482C10.1651 159.036 9.58447 159.062 8.14093 159.217C6.55358 159.387 5.03547 159.861 5.03547 161.704C5.03547 163.313 6.21267 164.165 7.77339 164.165ZM8.2741 162.748C7.46977 162.748 6.89449 162.381 6.89449 161.672C6.89449 160.932 7.53902 160.623 8.40194 160.5C8.90798 160.431 9.92005 160.303 10.1704 160.101V161.065C10.1704 161.976 9.43532 162.748 8.2741 162.748ZM20.9489 157.981C20.6826 156.596 19.5746 155.712 17.657 155.712C15.6861 155.712 14.3438 156.681 14.3491 158.194C14.3438 159.387 15.0789 160.175 16.6502 160.5L18.0458 160.793C18.7969 160.958 19.1485 161.262 19.1485 161.725C19.1485 162.285 18.5412 162.706 17.625 162.706C16.7408 162.706 16.1655 162.322 16.0004 161.587L14.1201 161.768C14.3598 163.27 15.6222 164.16 17.6304 164.16C19.6758 164.16 21.1193 163.1 21.1247 161.55C21.1193 160.383 20.3683 159.669 18.8235 159.334L17.4279 159.036C16.597 158.849 16.2667 158.561 16.272 158.087C16.2667 157.533 16.8793 157.15 17.6836 157.15C18.5732 157.15 19.0419 157.635 19.1911 158.173L20.9489 157.981ZM27.2503 155.818H25.6363V153.858H23.708V155.818H22.5468V157.31H23.708V161.859C23.6974 163.398 24.816 164.154 26.2648 164.112C26.8135 164.096 27.1917 163.989 27.3994 163.92L27.0745 162.413C26.968 162.439 26.7496 162.487 26.5099 162.487C26.0251 162.487 25.6363 162.317 25.6363 161.539V157.31H27.2503V155.818ZM38.5388 153.091H36.5732V160.527H36.4774L31.3424 153.091H29.5739V164H31.5501V156.569H31.6407L36.781 164H38.5388V153.091ZM43.4113 164.165C44.695 164.165 45.4621 163.563 45.8136 162.876H45.8775V164H47.7312V158.524C47.7312 156.362 45.9681 155.712 44.4074 155.712C42.6869 155.712 41.3658 156.479 40.9397 157.97L42.7401 158.226C42.9319 157.667 43.4752 157.187 44.418 157.187C45.3129 157.187 45.803 157.645 45.803 158.45V158.482C45.803 159.036 45.2224 159.062 43.7788 159.217C42.1915 159.387 40.6734 159.861 40.6734 161.704C40.6734 163.313 41.8506 164.165 43.4113 164.165ZM43.912 162.748C43.1077 162.748 42.5324 162.381 42.5324 161.672C42.5324 160.932 43.1769 160.623 44.0398 160.5C44.5459 160.431 45.5579 160.303 45.8083 160.101V161.065C45.8083 161.976 45.0732 162.748 43.912 162.748ZM50.1202 164H52.0484V159.025C52.0484 158.018 52.7196 157.336 53.5506 157.336C54.3655 157.336 54.9248 157.885 54.9248 158.727V164H56.8158V158.897C56.8158 157.975 57.3645 157.336 58.2967 157.336C59.0744 157.336 59.6923 157.794 59.6923 158.806V164H61.6258V158.508C61.6258 156.681 60.5712 155.712 59.069 155.712C57.8812 155.712 56.9756 156.298 56.6134 157.208H56.5282C56.2139 156.282 55.4202 155.712 54.3176 155.712C53.2203 155.712 52.4 156.276 52.0591 157.208H51.9632V155.818H50.1202V164ZM67.6542 164.16C69.5612 164.16 70.8716 163.228 71.2125 161.805L69.412 161.603C69.151 162.295 68.5118 162.658 67.6809 162.658C66.4344 162.658 65.6088 161.837 65.5928 160.436H71.2924V159.845C71.2924 156.974 69.5665 155.712 67.553 155.712C65.2093 155.712 63.6805 157.432 63.6805 159.957C63.6805 162.525 65.188 164.16 67.6542 164.16ZM65.5981 159.137C65.6567 158.093 66.4291 157.214 67.5797 157.214C68.6876 157.214 69.4334 158.023 69.444 159.137H65.5981Z" fill="#6048E5"/>
<path d="M1.5657 177.091V188H3.13175V180.1H3.23295L6.45028 187.984H7.75L10.9673 180.106H11.0685V188H12.6346V177.091H10.6371L7.16406 185.571H7.03622L3.56321 177.091H1.5657ZM17.2808 188.181C18.6338 188.181 19.3955 187.494 19.6991 186.881H19.7631V188H21.3184V182.567C21.3184 180.186 19.4434 179.712 18.1437 179.712C16.6629 179.712 15.2993 180.308 14.7666 181.8L16.2634 182.141C16.4978 181.56 17.0944 181.001 18.165 181.001C19.1931 181.001 19.7204 181.539 19.7204 182.466V182.503C19.7204 183.083 19.1238 183.073 17.6537 183.243C16.1036 183.424 14.5162 183.829 14.5162 185.688C14.5162 187.297 15.7254 188.181 17.2808 188.181ZM17.627 186.903C16.7268 186.903 16.077 186.498 16.077 185.71C16.077 184.857 16.8334 184.554 17.7549 184.431C18.2716 184.362 19.4967 184.223 19.7258 183.994V185.049C19.7258 186.018 18.9534 186.903 17.627 186.903ZM25.0325 183.142C25.0325 181.837 25.8581 181.091 26.9927 181.091C28.09 181.091 28.7452 181.789 28.7452 182.988V188H30.3379V182.796C30.3379 180.756 29.2193 179.712 27.536 179.712C26.263 179.712 25.4959 180.266 25.1124 181.15H25.0112V177.091H23.4398V188H25.0325V183.142ZM34.8443 188.181C36.1973 188.181 36.959 187.494 37.2626 186.881H37.3265V188H38.8819V182.567C38.8819 180.186 37.0069 179.712 35.7072 179.712C34.2264 179.712 32.8627 180.308 32.3301 181.8L33.8269 182.141C34.0613 181.56 34.6578 181.001 35.7285 181.001C36.7566 181.001 37.2839 181.539 37.2839 182.466V182.503C37.2839 183.083 36.6873 183.073 35.2172 183.243C33.6671 183.424 32.0797 183.829 32.0797 185.688C32.0797 187.297 33.2889 188.181 34.8443 188.181ZM35.1905 186.903C34.2903 186.903 33.6404 186.498 33.6404 185.71C33.6404 184.857 34.3968 184.554 35.3184 184.431C35.835 184.362 37.0602 184.223 37.2892 183.994V185.049C37.2892 186.018 36.5169 186.903 35.1905 186.903ZM42.596 183.142C42.596 181.837 43.395 181.091 44.5029 181.091C45.5843 181.091 46.2394 181.8 46.2394 182.988V188H47.8321V182.796C47.8321 180.772 46.7188 179.712 45.0463 179.712C43.8158 179.712 43.0115 180.282 42.6333 181.15H42.532V179.818H41.0033V188H42.596V183.142ZM49.9681 188H51.5608V179.818H49.9681V188ZM50.7725 178.556C51.3211 178.556 51.7792 178.13 51.7792 177.608C51.7792 177.086 51.3211 176.654 50.7725 176.654C50.2185 176.654 49.7657 177.086 49.7657 177.608C49.7657 178.13 50.2185 178.556 50.7725 178.556Z" fill="#64778C"/>
<circle cx="88" cy="159" r="8" fill="url(#paint2_linear_1659_16187)"/>
<path d="M192.5 23L174.5 161.5" stroke="url(#paint3_linear_1659_16187)"/>
<path d="M260.5 134L189.5 171" stroke="url(#paint4_linear_1659_16187)"/>
<path d="M248 55.5L183.5 165" stroke="url(#paint5_linear_1659_16187)"/>
<path d="M97.5 161L158.001 174.999" stroke="url(#paint6_linear_1659_16187)"/>
<path d="M98 91.5L161 167" stroke="url(#paint7_linear_1659_16187)"/>
<path d="M132.464 17H134.393V8.81818H132.464V17ZM133.434 7.65696C134.046 7.65696 134.547 7.18821 134.547 6.61293C134.547 6.03232 134.046 5.56357 133.434 5.56357C132.816 5.56357 132.315 6.03232 132.315 6.61293C132.315 7.18821 132.816 7.65696 133.434 7.65696ZM136.825 17H138.754V12.0249C138.754 11.0181 139.425 10.3363 140.256 10.3363C141.071 10.3363 141.63 10.8849 141.63 11.7266V17H143.521V11.897C143.521 10.9755 144.07 10.3363 145.002 10.3363C145.78 10.3363 146.398 10.7944 146.398 11.8065V17H148.331V11.5082C148.331 9.68111 147.276 8.71165 145.774 8.71165C144.586 8.71165 143.681 9.29759 143.319 10.2085H143.233C142.919 9.2816 142.126 8.71165 141.023 8.71165C139.926 8.71165 139.105 9.27628 138.764 10.2085H138.668V8.81818H136.825V17ZM153.092 17.1651C154.375 17.1651 155.143 16.5632 155.494 15.8761H155.558V17H157.412V11.5241C157.412 9.36151 155.649 8.71165 154.088 8.71165C152.367 8.71165 151.046 9.47869 150.62 10.9702L152.421 11.2259C152.612 10.6665 153.156 10.1871 154.098 10.1871C154.993 10.1871 155.483 10.6452 155.483 11.4496V11.4815C155.483 12.0355 154.903 12.0621 153.459 12.2166C151.872 12.3871 150.354 12.8612 150.354 14.7042C150.354 16.3129 151.531 17.1651 153.092 17.1651ZM153.592 15.7482C152.788 15.7482 152.213 15.3807 152.213 14.6722C152.213 13.9318 152.857 13.6229 153.72 13.5004C154.226 13.4311 155.238 13.3033 155.489 13.1009V14.065C155.489 14.9759 154.754 15.7482 153.592 15.7482ZM163.359 20.2386C165.569 20.2386 167.199 19.2266 167.199 17.1332V8.81818H165.298V10.1712H165.191C164.898 9.5799 164.286 8.71165 162.842 8.71165C160.951 8.71165 159.465 10.1925 159.465 12.8825C159.465 15.5511 160.951 16.8828 162.837 16.8828C164.238 16.8828 164.893 16.1317 165.191 15.5298H165.287V17.0799C165.287 18.2837 164.488 18.7791 163.391 18.7791C162.23 18.7791 161.718 18.2305 161.484 17.7511L159.747 18.1719C160.099 19.3171 161.276 20.2386 163.359 20.2386ZM163.375 15.37C162.102 15.37 161.431 14.3793 161.431 12.8718C161.431 11.3857 162.091 10.2937 163.375 10.2937C164.616 10.2937 165.298 11.3217 165.298 12.8718C165.298 14.4325 164.605 15.37 163.375 15.37ZM173.248 17.1598C175.155 17.1598 176.465 16.2276 176.806 14.8054L175.006 14.603C174.745 15.2955 174.105 15.6577 173.274 15.6577C172.028 15.6577 171.202 14.8374 171.186 13.4364H176.886V12.8452C176.886 9.97408 175.16 8.71165 173.147 8.71165C170.803 8.71165 169.274 10.4322 169.274 12.957C169.274 15.5245 170.782 17.1598 173.248 17.1598ZM171.192 12.1367C171.25 11.0927 172.023 10.2138 173.173 10.2138C174.281 10.2138 175.027 11.0234 175.038 12.1367H171.192Z" fill="#6048E5"/>
<path d="M50.1389 36.142C50.1389 34.837 50.9646 34.0913 52.0992 34.0913C53.1965 34.0913 53.8517 34.7891 53.8517 35.9876V41H55.4443V35.7958C55.4443 33.7557 54.3257 32.7116 52.6425 32.7116C51.3694 32.7116 50.6024 33.2656 50.2188 34.1499H50.1176V30.0909H48.5463V41H50.1389V36.142ZM61.3889 32.8182H59.711V30.858H58.1183V32.8182H56.9198V34.0966H58.1183V38.9279C58.113 40.4141 59.2476 41.1332 60.5047 41.1065C61.0107 41.1012 61.3517 41.0053 61.5381 40.9361L61.2504 39.6204C61.1439 39.6417 60.9468 39.6896 60.6911 39.6896C60.1744 39.6896 59.711 39.5192 59.711 38.5977V34.0966H61.3889V32.8182ZM66.97 32.8182H65.2921V30.858H63.6994V32.8182H62.5009V34.0966H63.6994V38.9279C63.6941 40.4141 64.8287 41.1332 66.0858 41.1065C66.5918 41.1012 66.9327 41.0053 67.1191 40.9361L66.8315 39.6204C66.725 39.6417 66.5279 39.6896 66.2722 39.6896C65.7555 39.6896 65.2921 39.5192 65.2921 38.5977V34.0966H66.97V32.8182ZM68.7318 44.0682H70.3245V39.7269H70.4204C70.708 40.2489 71.2939 41.1598 72.7854 41.1598C74.767 41.1598 76.2052 39.5724 76.2052 36.9251C76.2052 34.2724 74.7457 32.7116 72.7694 32.7116C71.2513 32.7116 70.7027 33.6385 70.4204 34.1445H70.2872V32.8182H68.7318V44.0682ZM70.2925 36.9091C70.2925 35.1992 71.0383 34.0646 72.4285 34.0646C73.8721 34.0646 74.5965 35.2844 74.5965 36.9091C74.5965 38.5497 73.8508 39.8015 72.4285 39.8015C71.0596 39.8015 70.2925 38.6296 70.2925 36.9091ZM84.1207 34.8157C83.7904 33.5426 82.7943 32.7116 81.0258 32.7116C79.1775 32.7116 77.8671 33.6864 77.8671 35.1353C77.8671 36.2965 78.5702 37.0689 80.1043 37.4098L81.4893 37.7134C82.2776 37.8892 82.6452 38.2408 82.6452 38.7521C82.6452 39.386 81.9687 39.8814 80.9246 39.8814C79.9711 39.8814 79.3586 39.4712 79.1668 38.6669L77.6274 38.9013C77.8937 40.3501 79.0976 41.1651 80.9353 41.1651C82.9115 41.1651 84.2805 40.1158 84.2805 38.6349C84.2805 37.479 83.5454 36.7653 82.0432 36.419L80.7435 36.1207C79.8433 35.9077 79.4545 35.604 79.4598 35.0501C79.4545 34.4215 80.1363 33.9741 81.0418 33.9741C82.0326 33.9741 82.4907 34.5227 82.6771 35.0714L84.1207 34.8157ZM87.081 35.146C87.6616 35.146 88.1463 34.6719 88.1463 34.0806C88.1463 33.5 87.6616 33.0206 87.081 33.0206C86.495 33.0206 86.0156 33.5 86.0156 34.0806C86.0156 34.6719 86.495 35.146 87.081 35.146ZM87.081 41.1012C87.6616 41.1012 88.1463 40.6271 88.1463 40.0359C88.1463 39.4553 87.6616 38.9759 87.081 38.9759C86.495 38.9759 86.0156 39.4553 86.0156 40.0359C86.0156 40.6271 86.495 41.1012 87.081 41.1012ZM94.4345 29.5795H93.0123L89.4966 42.6406H90.9189L94.4345 29.5795ZM99.9423 29.5795H98.5201L95.0044 42.6406H96.4267L99.9423 29.5795ZM101.295 44.0682H102.888V39.7269H102.984C103.271 40.2489 103.857 41.1598 105.349 41.1598C107.33 41.1598 108.769 39.5724 108.769 36.9251C108.769 34.2724 107.309 32.7116 105.333 32.7116C103.815 32.7116 103.266 33.6385 102.984 34.1445H102.851V32.8182H101.295V44.0682ZM102.856 36.9091C102.856 35.1992 103.602 34.0646 104.992 34.0646C106.436 34.0646 107.16 35.2844 107.16 36.9091C107.16 38.5497 106.414 39.8015 104.992 39.8015C103.623 39.8015 102.856 38.6296 102.856 36.9091ZM110.553 41H112.146V36.0036C112.146 34.9329 112.971 34.1605 114.101 34.1605C114.431 34.1605 114.804 34.2191 114.932 34.2564V32.733C114.772 32.7116 114.458 32.6957 114.255 32.6957C113.296 32.6957 112.476 33.239 112.178 34.1179H112.093V32.8182H110.553V41ZM119.463 41.1651C121.77 41.1651 123.277 39.4766 123.277 36.9464C123.277 34.4002 121.77 32.7116 119.463 32.7116C117.157 32.7116 115.649 34.4002 115.649 36.9464C115.649 39.4766 117.157 41.1651 119.463 41.1651ZM119.469 39.8281C117.961 39.8281 117.258 38.5124 117.258 36.9411C117.258 35.375 117.961 34.0433 119.469 34.0433C120.965 34.0433 121.669 35.375 121.669 36.9411C121.669 38.5124 120.965 39.8281 119.469 39.8281ZM128.949 32.8182H127.186V32.0831C127.186 31.3587 127.484 30.9645 128.262 30.9645C128.592 30.9645 128.826 31.0391 128.975 31.087L129.348 29.7979C129.125 29.7127 128.661 29.5795 128.017 29.5795C126.722 29.5795 125.588 30.3359 125.588 31.87V32.8182H124.325V34.0966H125.588V41H127.186V34.0966H128.949V32.8182ZM130.592 41H132.185V32.8182H130.592V41ZM131.396 31.5558C131.945 31.5558 132.403 31.1296 132.403 30.6076C132.403 30.0856 131.945 29.6541 131.396 29.6541C130.843 29.6541 130.39 30.0856 130.39 30.6076C130.39 31.1296 130.843 31.5558 131.396 31.5558ZM135.92 30.0909H134.328V41H135.92V30.0909ZM141.589 41.1651C143.374 41.1651 144.636 40.2862 144.998 38.9545L143.491 38.6829C143.203 39.4553 142.511 39.8494 141.605 39.8494C140.241 39.8494 139.325 38.9652 139.283 37.3885H145.099V36.8239C145.099 33.8675 143.331 32.7116 141.477 32.7116C139.197 32.7116 137.695 34.4482 137.695 36.9624C137.695 39.5032 139.176 41.1651 141.589 41.1651ZM139.288 36.1953C139.352 35.0341 140.194 34.0273 141.488 34.0273C142.724 34.0273 143.533 34.9435 143.539 36.1953H139.288ZM147.916 41.1012C148.497 41.1012 148.981 40.6271 148.981 40.0359C148.981 39.4553 148.497 38.9759 147.916 38.9759C147.33 38.9759 146.851 39.4553 146.851 40.0359C146.851 40.6271 147.33 41.1012 147.916 41.1012ZM151.115 44.0682H152.707V39.7269H152.803C153.091 40.2489 153.677 41.1598 155.168 41.1598C157.15 41.1598 158.588 39.5724 158.588 36.9251C158.588 34.2724 157.128 32.7116 155.152 32.7116C153.634 32.7116 153.085 33.6385 152.803 34.1445H152.67V32.8182H151.115V44.0682ZM152.675 36.9091C152.675 35.1992 153.421 34.0646 154.811 34.0646C156.255 34.0646 156.979 35.2844 156.979 36.9091C156.979 38.5497 156.234 39.8015 154.811 39.8015C153.442 39.8015 152.675 38.6296 152.675 36.9091ZM161.965 36.142C161.965 34.837 162.764 34.0913 163.872 34.0913C164.953 34.0913 165.609 34.7997 165.609 35.9876V41H167.201V35.7958C167.201 33.7717 166.088 32.7116 164.415 32.7116C163.185 32.7116 162.381 33.2816 162.002 34.1499H161.901V32.8182H160.372V41H161.965V36.142ZM172.768 44.2386C174.85 44.2386 176.459 43.2852 176.459 41.1811V32.8182H174.898V34.1445H174.781C174.499 33.6385 173.934 32.7116 172.411 32.7116C170.435 32.7116 168.98 34.2724 168.98 36.8771C168.98 39.4872 170.467 40.8775 172.4 40.8775C173.902 40.8775 174.483 40.0305 174.771 39.5085H174.872V41.1172C174.872 42.4009 173.993 42.9549 172.784 42.9549C171.457 42.9549 170.941 42.2891 170.658 41.8203L169.289 42.3849C169.721 43.3864 170.813 44.2386 172.768 44.2386ZM172.752 39.5565C171.329 39.5565 170.589 38.4645 170.589 36.8558C170.589 35.2844 171.313 34.0646 172.752 34.0646C174.142 34.0646 174.888 35.1992 174.888 36.8558C174.888 38.5444 174.126 39.5565 172.752 39.5565Z" fill="#64778C"/>
<circle cx="194" cy="12" r="8" fill="url(#paint8_linear_1659_16187)"/>
<circle cx="267" cy="129" r="8" fill="url(#paint9_linear_1659_16187)"/>
<path d="M284.046 137.068H285.974V132.711H286.054C286.358 133.308 286.992 134.144 288.398 134.144C290.326 134.144 291.77 132.615 291.77 129.92C291.77 127.192 290.284 125.712 288.393 125.712C286.949 125.712 286.347 126.58 286.054 127.171H285.942V125.818H284.046V137.068ZM285.937 129.909C285.937 128.322 286.619 127.294 287.86 127.294C289.144 127.294 289.804 128.386 289.804 129.909C289.804 131.443 289.133 132.562 287.86 132.562C286.63 132.562 285.937 131.496 285.937 129.909ZM293.871 134H295.799V129.19C295.799 128.151 296.582 127.416 297.642 127.416C297.967 127.416 298.372 127.475 298.537 127.528V125.754C298.362 125.722 298.058 125.701 297.845 125.701C296.907 125.701 296.124 126.234 295.826 127.182H295.741V125.818H293.871V134ZM303.5 134.16C305.897 134.16 307.421 132.471 307.421 129.941C307.421 127.406 305.897 125.712 303.5 125.712C301.103 125.712 299.58 127.406 299.58 129.941C299.58 132.471 301.103 134.16 303.5 134.16ZM303.511 132.615C302.185 132.615 301.535 131.433 301.535 129.936C301.535 128.439 302.185 127.24 303.511 127.24C304.816 127.24 305.466 128.439 305.466 129.936C305.466 131.433 304.816 132.615 303.511 132.615ZM313.652 125.818H311.952V125.174C311.952 124.534 312.219 124.178 312.938 124.178C313.241 124.178 313.497 124.247 313.657 124.295L314.046 122.803C313.795 122.718 313.247 122.58 312.581 122.58C311.159 122.58 310.024 123.395 310.024 125.046V125.818H308.815V127.31H310.024V134H311.952V127.31H313.652V125.818ZM315.612 134H317.54V125.818H315.612V134ZM316.581 124.657C317.194 124.657 317.695 124.188 317.695 123.613C317.695 123.032 317.194 122.564 316.581 122.564C315.963 122.564 315.463 123.032 315.463 123.613C315.463 124.188 315.963 124.657 316.581 124.657ZM321.901 123.091H319.973V134H321.901V123.091ZM327.956 134.16C329.863 134.16 331.174 133.228 331.514 131.805L329.714 131.603C329.453 132.295 328.814 132.658 327.983 132.658C326.736 132.658 325.911 131.837 325.895 130.436H331.594V129.845C331.594 126.974 329.868 125.712 327.855 125.712C325.511 125.712 323.982 127.432 323.982 129.957C323.982 132.525 325.49 134.16 327.956 134.16ZM325.9 129.137C325.959 128.093 326.731 127.214 327.882 127.214C328.99 127.214 329.735 128.023 329.746 129.137H325.9ZM337.458 134C340.781 134 342.752 131.944 342.752 128.535C342.752 125.136 340.781 123.091 337.532 123.091H333.761V134H337.458ZM335.737 132.29V124.801H337.42C339.636 124.801 340.792 126.037 340.792 128.535C340.792 131.044 339.636 132.29 337.362 132.29H335.737ZM348.617 134.16C350.524 134.16 351.834 133.228 352.175 131.805L350.375 131.603C350.114 132.295 349.475 132.658 348.644 132.658C347.397 132.658 346.571 131.837 346.555 130.436H352.255V129.845C352.255 126.974 350.529 125.712 348.516 125.712C346.172 125.712 344.643 127.432 344.643 129.957C344.643 132.525 346.151 134.16 348.617 134.16ZM346.561 129.137C346.619 128.093 347.392 127.214 348.542 127.214C349.65 127.214 350.396 128.023 350.407 129.137H346.561ZM360.803 127.981C360.537 126.596 359.429 125.712 357.511 125.712C355.54 125.712 354.198 126.681 354.203 128.194C354.198 129.387 354.933 130.175 356.504 130.5L357.9 130.793C358.651 130.958 359.003 131.262 359.003 131.725C359.003 132.285 358.395 132.706 357.479 132.706C356.595 132.706 356.02 132.322 355.854 131.587L353.974 131.768C354.214 133.27 355.476 134.16 357.484 134.16C359.53 134.16 360.973 133.1 360.979 131.55C360.973 130.383 360.222 129.669 358.678 129.334L357.282 129.036C356.451 128.849 356.121 128.561 356.126 128.087C356.121 127.533 356.733 127.15 357.538 127.15C358.427 127.15 358.896 127.635 359.045 128.173L360.803 127.981ZM366.588 134.16C368.644 134.16 369.954 132.94 370.093 131.203H368.25C368.084 132.082 367.451 132.588 366.604 132.588C365.4 132.588 364.622 131.582 364.622 129.909C364.622 128.258 365.416 127.267 366.604 127.267C367.531 127.267 368.1 127.864 368.25 128.652H370.093C369.959 126.878 368.575 125.712 366.577 125.712C364.18 125.712 362.667 127.443 362.667 129.941C362.667 132.418 364.143 134.16 366.588 134.16ZM372.126 134H374.054V129.19C374.054 128.151 374.837 127.416 375.897 127.416C376.222 127.416 376.627 127.475 376.792 127.528V125.754C376.616 125.722 376.313 125.701 376.1 125.701C375.162 125.701 374.379 126.234 374.081 127.182H373.996V125.818H372.126V134ZM378.523 134H380.452V125.818H378.523V134ZM379.493 124.657C380.105 124.657 380.606 124.188 380.606 123.613C380.606 123.032 380.105 122.564 379.493 122.564C378.875 122.564 378.374 123.032 378.374 123.613C378.374 124.188 378.875 124.657 379.493 124.657ZM382.884 137.068H384.813V132.711H384.893C385.196 133.308 385.83 134.144 387.236 134.144C389.165 134.144 390.608 132.615 390.608 129.92C390.608 127.192 389.122 125.712 387.231 125.712C385.787 125.712 385.186 126.58 384.893 127.171H384.781V125.818H382.884V137.068ZM384.775 129.909C384.775 128.322 385.457 127.294 386.698 127.294C387.982 127.294 388.643 128.386 388.643 129.909C388.643 131.443 387.971 132.562 386.698 132.562C385.468 132.562 384.775 131.496 384.775 129.909ZM396.795 125.818H395.181V123.858H393.253V125.818H392.092V127.31H393.253V131.859C393.242 133.398 394.361 134.154 395.81 134.112C396.358 134.096 396.736 133.989 396.944 133.92L396.619 132.413C396.513 132.439 396.294 132.487 396.055 132.487C395.57 132.487 395.181 132.317 395.181 131.539V127.31H396.795V125.818ZM398.858 134H400.786V125.818H398.858V134ZM399.827 124.657C400.44 124.657 400.94 124.188 400.94 123.613C400.94 123.032 400.44 122.564 399.827 122.564C399.209 122.564 398.709 123.032 398.709 123.613C398.709 124.188 399.209 124.657 399.827 124.657ZM406.788 134.16C409.185 134.16 410.708 132.471 410.708 129.941C410.708 127.406 409.185 125.712 406.788 125.712C404.391 125.712 402.867 127.406 402.867 129.941C402.867 132.471 404.391 134.16 406.788 134.16ZM406.798 132.615C405.472 132.615 404.822 131.433 404.822 129.936C404.822 128.439 405.472 127.24 406.798 127.24C408.103 127.24 408.753 128.439 408.753 129.936C408.753 131.433 408.103 132.615 406.798 132.615ZM414.723 129.206C414.723 128.023 415.437 127.342 416.454 127.342C417.45 127.342 418.047 127.997 418.047 129.089V134H419.975V128.79C419.98 126.83 418.862 125.712 417.173 125.712C415.948 125.712 415.107 126.298 414.734 127.208H414.638V125.818H412.795V134H414.723V129.206Z" fill="#6048E5"/>
<path d="M284.039 150.5H285.402V149.461C285.402 148.657 285.754 147.98 286.185 147.347L285.397 146.782C284.582 147.437 284.039 148.572 284.039 149.477V150.5ZM286.755 150.5H288.119V149.461C288.119 148.657 288.47 147.98 288.902 147.347L288.114 146.782C287.299 147.437 286.755 148.572 286.755 149.477V150.5ZM290.399 147.091V158H291.965V150.1H292.066L295.283 157.984H296.583L299.8 150.106H299.902V158H301.468V147.091H299.47L295.997 155.571H295.869L292.396 147.091H290.399ZM304.74 161.068C306.055 161.068 306.886 160.381 307.36 159.092L310.743 149.834L309.022 149.818L306.95 156.168H306.865L304.793 149.818H303.088L306.082 158.107L305.885 158.65C305.48 159.737 304.91 159.827 304.036 159.587L303.653 160.892C303.845 160.978 304.26 161.068 304.74 161.068ZM317.987 158H319.606L321.268 152.093H321.391L323.053 158H324.677L327.08 149.818H325.434L323.841 155.8H323.761L322.163 149.818H320.517L318.909 155.827H318.829L317.225 149.818H315.579L317.987 158ZM331.789 158.165C334.095 158.165 335.602 156.477 335.602 153.946C335.602 151.4 334.095 149.712 331.789 149.712C329.482 149.712 327.975 151.4 327.975 153.946C327.975 156.477 329.482 158.165 331.789 158.165ZM331.794 156.828C330.286 156.828 329.583 155.512 329.583 153.941C329.583 152.375 330.286 151.043 331.794 151.043C333.291 151.043 333.994 152.375 333.994 153.941C333.994 155.512 333.291 156.828 331.794 156.828ZM337.38 158H338.973V153.004C338.973 151.933 339.799 151.161 340.928 151.161C341.258 151.161 341.631 151.219 341.759 151.256V149.733C341.599 149.712 341.285 149.696 341.082 149.696C340.123 149.696 339.303 150.239 339.005 151.118H338.92V149.818H337.38V158ZM343.137 158H344.73V155.097L345.523 154.303L348.304 158H350.259L346.722 153.328L350.035 149.818H348.128L344.868 153.281H344.73V147.091H343.137V158ZM351.487 158H353.079V149.818H351.487V158ZM352.291 148.556C352.84 148.556 353.298 148.13 353.298 147.608C353.298 147.086 352.84 146.654 352.291 146.654C351.737 146.654 351.284 147.086 351.284 147.608C351.284 148.13 351.737 148.556 352.291 148.556ZM356.815 153.142C356.815 151.837 357.614 151.091 358.722 151.091C359.803 151.091 360.458 151.8 360.458 152.988V158H362.051V152.796C362.051 150.772 360.938 149.712 359.265 149.712C358.035 149.712 357.23 150.282 356.852 151.15H356.751V149.818H355.222V158H356.815V153.142ZM367.617 161.239C369.7 161.239 371.309 160.285 371.309 158.181V149.818H369.748V151.145H369.631C369.348 150.638 368.784 149.712 367.26 149.712C365.284 149.712 363.83 151.272 363.83 153.877C363.83 156.487 365.316 157.877 367.25 157.877C368.752 157.877 369.332 157.031 369.62 156.509H369.721V158.117C369.721 159.401 368.842 159.955 367.633 159.955C366.307 159.955 365.79 159.289 365.508 158.82L364.139 159.385C364.57 160.386 365.662 161.239 367.617 161.239ZM367.601 156.556C366.179 156.556 365.439 155.464 365.439 153.856C365.439 152.284 366.163 151.065 367.601 151.065C368.992 151.065 369.737 152.199 369.737 153.856C369.737 155.544 368.976 156.556 367.601 156.556ZM379.007 153.142C379.007 151.837 379.833 151.091 380.967 151.091C382.065 151.091 382.72 151.789 382.72 152.988V158H384.312V152.796C384.312 150.756 383.194 149.712 381.511 149.712C380.238 149.712 379.471 150.266 379.087 151.15H378.986V147.091H377.414V158H379.007V153.142ZM389.884 158.165C392.191 158.165 393.698 156.477 393.698 153.946C393.698 151.4 392.191 149.712 389.884 149.712C387.578 149.712 386.07 151.4 386.07 153.946C386.07 156.477 387.578 158.165 389.884 158.165ZM389.89 156.828C388.382 156.828 387.679 155.512 387.679 153.941C387.679 152.375 388.382 151.043 389.89 151.043C391.386 151.043 392.089 152.375 392.089 153.941C392.089 155.512 391.386 156.828 389.89 156.828ZM400.659 154.607C400.664 155.997 399.631 156.658 398.736 156.658C397.75 156.658 397.069 155.944 397.069 154.831V149.818H395.476V155.022C395.476 157.052 396.589 158.107 398.161 158.107C399.391 158.107 400.227 157.457 400.606 156.583H400.691V158H402.257V149.818H400.659V154.607ZM404.397 158H405.99V153.004C405.99 151.933 406.815 151.161 407.944 151.161C408.275 151.161 408.648 151.219 408.775 151.256V149.733C408.616 149.712 408.301 149.696 408.099 149.696C407.14 149.696 406.32 150.239 406.021 151.118H405.936V149.818H404.397V158ZM416.285 151.816C415.954 150.543 414.958 149.712 413.19 149.712C411.342 149.712 410.031 150.686 410.031 152.135C410.031 153.297 410.734 154.069 412.268 154.41L413.653 154.713C414.442 154.889 414.809 155.241 414.809 155.752C414.809 156.386 414.133 156.881 413.089 156.881C412.135 156.881 411.523 156.471 411.331 155.667L409.791 155.901C410.058 157.35 411.262 158.165 413.099 158.165C415.076 158.165 416.445 157.116 416.445 155.635C416.445 154.479 415.709 153.765 414.207 153.419L412.908 153.121C412.007 152.908 411.619 152.604 411.624 152.05C411.619 151.422 412.3 150.974 413.206 150.974C414.197 150.974 414.655 151.523 414.841 152.071L416.285 151.816ZM419.245 158.101C419.826 158.101 420.31 157.627 420.31 157.036C420.31 156.455 419.826 155.976 419.245 155.976C418.659 155.976 418.18 156.455 418.18 157.036C418.18 157.627 418.659 158.101 419.245 158.101ZM423.493 158.101C424.074 158.101 424.558 157.627 424.558 157.036C424.558 156.455 424.074 155.976 423.493 155.976C422.907 155.976 422.428 156.455 422.428 157.036C422.428 157.627 422.907 158.101 423.493 158.101ZM427.741 158.101C428.322 158.101 428.806 157.627 428.806 157.036C428.806 156.455 428.322 155.976 427.741 155.976C427.155 155.976 426.676 156.455 426.676 157.036C426.676 157.627 427.155 158.101 427.741 158.101ZM431.239 147.091H429.876V148.13C429.876 148.955 429.514 149.632 429.098 150.244L429.886 150.809C430.707 150.148 431.239 149.019 431.239 148.114V147.091ZM433.951 147.091H432.587V148.13C432.587 148.955 432.225 149.632 431.809 150.244L432.598 150.809C433.418 150.148 433.951 149.019 433.951 148.114V147.091Z" fill="#64778C"/>
<line x1="174.5" y1="228" x2="174.5" y2="298" stroke="url(#paint10_linear_1659_16187)"/>
<circle opacity="0.05" cx="174" cy="179" r="88.5" stroke="#6048E5"/>
<circle opacity="0.3" cx="174" cy="179" r="15" stroke="#6048E5" stroke-width="2"/>
<circle cx="174" cy="179" r="9" fill="url(#paint11_linear_1659_16187)"/>
<path d="M143.453 215H145.429V211.314H147.517C150.037 211.314 151.39 209.801 151.39 207.702C151.39 205.62 150.053 204.091 147.544 204.091H143.453V215ZM145.429 209.689V205.742H147.24C148.721 205.742 149.376 206.541 149.376 207.702C149.376 208.864 148.721 209.689 147.251 209.689H145.429ZM153.556 215H160.694V213.343H155.532V210.366H160.284V208.709H155.532V205.748H160.651V204.091H153.556V215ZM163.118 215H165.094V211.005H167.107L169.249 215H171.454L169.094 210.675C170.378 210.158 171.054 209.061 171.054 207.58C171.054 205.497 169.712 204.091 167.209 204.091H163.118V215ZM165.094 209.364V205.742H166.905C168.38 205.742 169.041 206.419 169.041 207.58C169.041 208.741 168.38 209.364 166.916 209.364H165.094ZM179.252 207.09H181.154C181.116 205.247 179.545 203.942 177.223 203.942C174.932 203.942 173.212 205.231 173.217 207.159C173.217 208.725 174.33 209.625 176.125 210.089L177.366 210.408C178.544 210.707 179.321 211.074 179.327 211.921C179.321 212.853 178.437 213.477 177.148 213.477C175.912 213.477 174.953 212.923 174.874 211.777H172.929C173.009 213.945 174.623 215.165 177.164 215.165C179.779 215.165 181.298 213.86 181.303 211.937C181.298 210.046 179.737 209.183 178.096 208.794L177.073 208.539C176.179 208.326 175.209 207.947 175.22 207.037C175.225 206.216 175.96 205.614 177.196 205.614C178.373 205.614 179.151 206.163 179.252 207.09ZM193.263 209.545C193.263 206.019 191.111 203.942 188.25 203.942C185.384 203.942 183.238 206.019 183.238 209.545C183.238 213.066 185.384 215.149 188.25 215.149C191.111 215.149 193.263 213.072 193.263 209.545ZM191.276 209.545C191.276 212.028 190.029 213.375 188.25 213.375C186.476 213.375 185.225 212.028 185.225 209.545C185.225 207.063 186.476 205.716 188.25 205.716C190.029 205.716 191.276 207.063 191.276 209.545ZM204.546 204.091H202.58V211.527H202.484L197.349 204.091H195.581V215H197.557V207.569H197.648L202.788 215H204.546V204.091Z" fill="#6048E5"/>
<defs>
<linearGradient id="paint0_linear_1659_16187" x1="252" y1="39" x2="252" y2="55" gradientUnits="userSpaceOnUse">
<stop stop-color="#7963F5"/>
<stop offset="1" stop-color="#5D46DB"/>
</linearGradient>
<linearGradient id="paint1_linear_1659_16187" x1="92" y1="76" x2="92" y2="92" gradientUnits="userSpaceOnUse">
<stop stop-color="#7963F5"/>
<stop offset="1" stop-color="#5D46DB"/>
</linearGradient>
<linearGradient id="paint2_linear_1659_16187" x1="88" y1="151" x2="88" y2="167" gradientUnits="userSpaceOnUse">
<stop stop-color="#7963F5"/>
<stop offset="1" stop-color="#5D46DB"/>
</linearGradient>
<linearGradient id="paint3_linear_1659_16187" x1="177" y1="164.001" x2="249.351" y2="162.411" gradientUnits="userSpaceOnUse">
<stop stop-color="#BDB4FE"/>
<stop offset="1" stop-color="#BDB4FE" stop-opacity="0"/>
</linearGradient>
<linearGradient id="paint4_linear_1659_16187" x1="190" y1="177" x2="337.329" y2="128.361" gradientUnits="userSpaceOnUse">
<stop stop-color="#BDB4FE"/>
<stop offset="1" stop-color="#BDB4FE" stop-opacity="0"/>
</linearGradient>
<linearGradient id="paint5_linear_1659_16187" x1="187" y1="171.001" x2="373.176" y2="157.392" gradientUnits="userSpaceOnUse">
<stop stop-color="#BDB4FE"/>
<stop offset="1" stop-color="#BDB4FE" stop-opacity="0"/>
</linearGradient>
<linearGradient id="paint6_linear_1659_16187" x1="158" y1="175" x2="-7.93952" y2="119.43" gradientUnits="userSpaceOnUse">
<stop stop-color="#BDB4FE"/>
<stop offset="1" stop-color="#BDB4FE" stop-opacity="0"/>
</linearGradient>
<linearGradient id="paint7_linear_1659_16187" x1="165" y1="166.001" x2="40.1411" y2="160.239" gradientUnits="userSpaceOnUse">
<stop stop-color="#BDB4FE"/>
<stop offset="1" stop-color="#BDB4FE" stop-opacity="0"/>
</linearGradient>
<linearGradient id="paint8_linear_1659_16187" x1="194" y1="4" x2="194" y2="20" gradientUnits="userSpaceOnUse">
<stop stop-color="#7963F5"/>
<stop offset="1" stop-color="#5D46DB"/>
</linearGradient>
<linearGradient id="paint9_linear_1659_16187" x1="267" y1="121" x2="267" y2="137" gradientUnits="userSpaceOnUse">
<stop stop-color="#7963F5"/>
<stop offset="1" stop-color="#5D46DB"/>
</linearGradient>
<linearGradient id="paint10_linear_1659_16187" x1="173" y1="228" x2="203.277" y2="237.522" gradientUnits="userSpaceOnUse">
<stop stop-color="#BDB4FE"/>
<stop offset="1" stop-color="#BDB4FE" stop-opacity="0"/>
</linearGradient>
<linearGradient id="paint11_linear_1659_16187" x1="174" y1="170" x2="174" y2="188" gradientUnits="userSpaceOnUse">
<stop stop-color="#7963F5"/>
<stop offset="1" stop-color="#5D46DB"/>
</linearGradient>
</defs>
</svg>
