<svg width="490" height="298" viewBox="0 0 490 298" fill="none" xmlns="http://www.w3.org/2000/svg">
<circle cx="307" cy="47" r="8" fill="url(#paint0_linear_1659_16187)"/>
<path d="M327.818 52.1598C329.725 52.1598 331.036 51.2276 331.377 49.8054L329.576 49.603C329.315 50.2955 328.676 50.6577 327.845 50.6577C326.599 50.6577 325.773 49.8374 325.757 48.4364H331.457V47.8452C331.457 44.9741 329.731 43.7116 327.717 43.7116C325.373 43.7116 323.845 45.4322 323.845 47.957C323.845 50.5245 325.352 52.1598 327.818 52.1598ZM325.762 47.1367C325.821 46.0927 326.593 45.2138 327.744 45.2138C328.852 45.2138 329.598 46.0234 329.608 47.1367H325.762ZM333.538 52H335.466V47.0249C335.466 46.0181 336.137 45.3363 336.968 45.3363C337.783 45.3363 338.343 45.8849 338.343 46.7266V52H340.234V46.897C340.234 45.9755 340.782 45.3363 341.714 45.3363C342.492 45.3363 343.11 45.7944 343.11 46.8065V52H345.044V46.5082C345.044 44.6811 343.989 43.7116 342.487 43.7116C341.299 43.7116 340.393 44.2976 340.031 45.2085H339.946C339.632 44.2816 338.838 43.7116 337.735 43.7116C336.638 43.7116 335.818 44.2763 335.477 45.2085H335.381V43.8182H333.538V52ZM349.804 52.1651C351.088 52.1651 351.855 51.5632 352.206 50.8761H352.27V52H354.124V46.5241C354.124 44.3615 352.361 43.7116 350.8 43.7116C349.08 43.7116 347.759 44.4787 347.333 45.9702L349.133 46.2259C349.325 45.6665 349.868 45.1871 350.811 45.1871C351.706 45.1871 352.196 45.6452 352.196 46.4496V46.4815C352.196 47.0355 351.615 47.0621 350.172 47.2166C348.584 47.3871 347.066 47.8612 347.066 49.7042C347.066 51.3129 348.243 52.1651 349.804 52.1651ZM350.305 50.7482C349.501 50.7482 348.925 50.3807 348.925 49.6722C348.925 48.9318 349.57 48.6229 350.433 48.5004C350.939 48.4311 351.951 48.3033 352.201 48.1009V49.065C352.201 49.9759 351.466 50.7482 350.305 50.7482ZM356.513 52H358.441V43.8182H356.513V52ZM357.482 42.657C358.095 42.657 358.596 42.1882 358.596 41.6129C358.596 41.0323 358.095 40.5636 357.482 40.5636C356.865 40.5636 356.364 41.0323 356.364 41.6129C356.364 42.1882 356.865 42.657 357.482 42.657ZM362.802 41.0909H360.874V52H362.802V41.0909Z" fill="#6048E5"/>
<path d="M324.347 72H325.833V67.2919C325.833 66.2628 326.554 65.5469 327.4 65.5469C328.225 65.5469 328.797 66.0938 328.797 66.924V72H330.278V67.1328C330.278 66.2131 330.84 65.5469 331.809 65.5469C332.595 65.5469 333.241 65.9844 333.241 67.0185V72H334.728V66.8793C334.728 65.1342 333.753 64.2642 332.371 64.2642C331.272 64.2642 330.447 64.7912 330.079 65.6065H330C329.667 64.7713 328.966 64.2642 327.946 64.2642C326.937 64.2642 326.186 64.7663 325.868 65.6065H325.774V64.3636H324.347V72ZM338.942 72.169C340.205 72.169 340.916 71.5277 341.199 70.956H341.259V72H342.711V66.929C342.711 64.7067 340.961 64.2642 339.748 64.2642C338.366 64.2642 337.093 64.821 336.596 66.2131L337.993 66.5312C338.211 65.9893 338.768 65.4673 339.768 65.4673C340.727 65.4673 341.219 65.9695 341.219 66.8345V66.8693C341.219 67.4112 340.662 67.4013 339.29 67.5604C337.844 67.7294 336.362 68.1072 336.362 69.8423C336.362 71.3438 337.491 72.169 338.942 72.169ZM339.265 70.9759C338.425 70.9759 337.819 70.598 337.819 69.8622C337.819 69.0668 338.525 68.7834 339.385 68.669C339.867 68.6044 341.01 68.4751 341.224 68.2614V69.2457C341.224 70.1506 340.503 70.9759 339.265 70.9759ZM346.177 67.4659C346.177 66.2479 346.948 65.5518 348.007 65.5518C349.031 65.5518 349.642 66.2031 349.642 67.3217V72H351.129V67.1428C351.129 65.2386 350.085 64.2642 348.514 64.2642C347.326 64.2642 346.61 64.7812 346.252 65.6065H346.157V61.8182H344.691V72H346.177V67.4659ZM355.335 72.169C356.598 72.169 357.309 71.5277 357.592 70.956H357.652V72H359.103V66.929C359.103 64.7067 357.353 64.2642 356.14 64.2642C354.758 64.2642 353.485 64.821 352.988 66.2131L354.385 66.5312C354.604 65.9893 355.161 65.4673 356.16 65.4673C357.12 65.4673 357.612 65.9695 357.612 66.8345V66.8693C357.612 67.4112 357.055 67.4013 355.683 67.5604C354.236 67.7294 352.755 68.1072 352.755 69.8423C352.755 71.3438 353.883 72.169 355.335 72.169ZM355.658 70.9759C354.818 70.9759 354.211 70.598 354.211 69.8622C354.211 69.0668 354.917 68.7834 355.777 68.669C356.26 68.6044 357.403 68.4751 357.617 68.2614V69.2457C357.617 70.1506 356.896 70.9759 355.658 70.9759ZM362.57 67.4659C362.57 66.2479 363.316 65.5518 364.35 65.5518C365.359 65.5518 365.97 66.2131 365.97 67.3217V72H367.457V67.1428C367.457 65.2536 366.418 64.2642 364.857 64.2642C363.708 64.2642 362.958 64.7962 362.605 65.6065H362.51V64.3636H361.083V72H362.57V67.4659ZM369.45 72H370.937V64.3636H369.45V72ZM370.201 63.1854C370.713 63.1854 371.141 62.7876 371.141 62.3004C371.141 61.8132 370.713 61.4105 370.201 61.4105C369.684 61.4105 369.262 61.8132 369.262 62.3004C369.262 62.7876 369.684 63.1854 370.201 63.1854ZM379.067 74.7692C380.215 74.7692 381.543 74.456 382.159 74.1676L381.811 73.0788C381.393 73.228 380.245 73.5909 379.131 73.5909C375.786 73.5909 373.991 71.7464 373.991 68.4453C373.991 65.2834 375.766 63.2401 378.947 63.2401C381.856 63.2401 383.591 65.1094 383.586 67.6349C383.591 69.7926 383.312 70.7621 382.408 70.7621C381.896 70.7621 381.612 70.3445 381.612 69.8224V65.2088H380.389V65.7656H380.325C380.175 65.3281 379.31 64.9354 378.271 65.0597C376.835 65.2287 375.602 66.4169 375.602 68.3757C375.602 70.419 376.646 71.7862 378.321 71.8509C379.455 71.9006 380.19 71.3736 380.424 70.7869H380.484C380.603 71.5874 381.468 71.9403 382.318 71.9105C384.441 71.8707 384.844 69.7827 384.844 67.6847C384.844 64.6918 382.795 62.0866 378.997 62.0866C375.015 62.0866 372.673 64.5178 372.668 68.4354C372.673 72.4673 374.955 74.7692 379.067 74.7692ZM378.609 70.6328C377.312 70.6328 376.864 69.5192 376.859 68.3161C376.864 67.1726 377.506 66.2628 378.629 66.2628C379.847 66.2628 380.394 66.7997 380.399 68.3111C380.404 69.8622 379.902 70.6328 378.609 70.6328ZM386.486 72H387.972V64.3636H386.486V72ZM387.236 63.1854C387.748 63.1854 388.176 62.7876 388.176 62.3004C388.176 61.8132 387.748 61.4105 387.236 61.4105C386.719 61.4105 386.297 61.8132 386.297 62.3004C386.297 62.7876 386.719 63.1854 387.236 63.1854ZM391.458 67.4659C391.458 66.2479 392.204 65.5518 393.238 65.5518C394.248 65.5518 394.859 66.2131 394.859 67.3217V72H396.346V67.1428C396.346 65.2536 395.306 64.2642 393.745 64.2642C392.597 64.2642 391.846 64.7962 391.493 65.6065H391.399V64.3636H389.972V72H391.458V67.4659ZM398.458 72H399.91V70.8118H400.034C400.303 71.299 400.85 72.1491 402.242 72.1491C404.091 72.1491 405.434 70.6676 405.434 68.1967C405.434 65.7209 404.071 64.2642 402.227 64.2642C400.81 64.2642 400.298 65.1293 400.034 65.6016H399.945V61.8182H398.458V72ZM399.915 68.1818C399.915 66.5859 400.611 65.527 401.909 65.527C403.256 65.527 403.932 66.6655 403.932 68.1818C403.932 69.7131 403.236 70.8814 401.909 70.8814C400.631 70.8814 399.915 69.7876 399.915 68.1818ZM410.319 72.1541C412.472 72.1541 413.879 70.5781 413.879 68.2166C413.879 65.8402 412.472 64.2642 410.319 64.2642C408.167 64.2642 406.76 65.8402 406.76 68.2166C406.76 70.5781 408.167 72.1541 410.319 72.1541ZM410.324 70.9062C408.917 70.9062 408.261 69.6783 408.261 68.2116C408.261 66.75 408.917 65.5071 410.324 65.5071C411.721 65.5071 412.378 66.75 412.378 68.2116C412.378 69.6783 411.721 70.9062 410.324 70.9062ZM416.397 64.3636H414.767L417.113 68.1818L414.737 72H416.367L418.083 69.1463L419.803 72H421.428L419.027 68.1818L421.409 64.3636H419.783L418.083 67.3366L416.397 64.3636ZM423.914 72.0945C424.456 72.0945 424.909 71.652 424.909 71.1001C424.909 70.5582 424.456 70.1108 423.914 70.1108C423.367 70.1108 422.92 70.5582 422.92 71.1001C422.92 71.652 423.367 72.0945 423.914 72.0945ZM430.116 72.1541C431.921 72.1541 433.089 71.0703 433.253 69.5838H431.807C431.618 70.4091 430.976 70.8963 430.126 70.8963C428.868 70.8963 428.058 69.8473 428.058 68.1818C428.058 66.5462 428.883 65.517 430.126 65.517C431.071 65.517 431.648 66.1136 431.807 66.8295H433.253C433.094 65.2884 431.836 64.2642 430.101 64.2642C427.949 64.2642 426.557 65.8849 426.557 68.2166C426.557 70.5185 427.899 72.1541 430.116 72.1541ZM438.06 72.1541C440.212 72.1541 441.619 70.5781 441.619 68.2166C441.619 65.8402 440.212 64.2642 438.06 64.2642C435.907 64.2642 434.5 65.8402 434.5 68.2166C434.5 70.5781 435.907 72.1541 438.06 72.1541ZM438.065 70.9062C436.658 70.9062 436.001 69.6783 436.001 68.2116C436.001 66.75 436.658 65.5071 438.065 65.5071C439.462 65.5071 440.118 66.75 440.118 68.2116C440.118 69.6783 439.462 70.9062 438.065 70.9062ZM443.279 72H444.765V67.2919C444.765 66.2628 445.486 65.5469 446.331 65.5469C447.156 65.5469 447.728 66.0938 447.728 66.924V72H449.21V67.1328C449.21 66.2131 449.771 65.5469 450.741 65.5469C451.526 65.5469 452.173 65.9844 452.173 67.0185V72H453.659V66.8793C453.659 65.1342 452.685 64.2642 451.303 64.2642C450.204 64.2642 449.379 64.7912 449.011 65.6065H448.931C448.598 64.7713 447.897 64.2642 446.878 64.2642C445.869 64.2642 445.118 64.7663 444.8 65.6065H444.705V64.3636H443.279V72Z" fill="#64778C"/>
<a href="mailto:mahani@inbox.com">
<rect fill="black" fill-opacity="0" x="0.347656" y="-0.971591" width="131.301" height="16.9432"/>
</a>
<path d="M85.9378 89V80.8182H87.8661V89H85.9378ZM86.9073 79.657C86.6019 79.657 86.3391 79.5558 86.1189 79.3533C85.8988 79.1474 85.7887 78.9006 85.7887 78.6129C85.7887 78.3217 85.8988 78.0749 86.1189 77.8725C86.3391 77.6665 86.6019 77.5636 86.9073 77.5636C87.2162 77.5636 87.479 77.6665 87.6956 77.8725C87.9158 78.0749 88.0259 78.3217 88.0259 78.6129C88.0259 78.9006 87.9158 79.1474 87.6956 79.3533C87.479 79.5558 87.2162 79.657 86.9073 79.657ZM90.299 89V80.8182H92.142V82.2085H92.2379C92.4083 81.7397 92.6907 81.3739 93.0848 81.1112C93.479 80.8448 93.9495 80.7116 94.4964 80.7116C95.0504 80.7116 95.5174 80.8466 95.8973 81.1165C96.2809 81.3828 96.5507 81.7468 96.707 82.2085H96.7922C96.9733 81.7539 97.2787 81.3917 97.7084 81.1218C98.1416 80.8484 98.6548 80.7116 99.2478 80.7116C100.001 80.7116 100.615 80.9496 101.091 81.4254C101.567 81.9013 101.805 82.5955 101.805 83.5082V89H99.8711V83.8065C99.8711 83.2987 99.7361 82.9276 99.4662 82.6932C99.1963 82.4553 98.8661 82.3363 98.4755 82.3363C98.0103 82.3363 97.6463 82.4819 97.3835 82.7731C97.1242 83.0607 96.9946 83.4354 96.9946 83.897V89H95.1037V83.7266C95.1037 83.304 94.9758 82.9666 94.7201 82.7145C94.468 82.4624 94.1377 82.3363 93.7294 82.3363C93.4524 82.3363 93.2002 82.4073 92.973 82.5494C92.7457 82.6879 92.5646 82.8849 92.4296 83.1406C92.2947 83.3928 92.2272 83.6875 92.2272 84.0249V89H90.299ZM106.565 89.1651C106.047 89.1651 105.58 89.0728 105.164 88.8881C104.752 88.6999 104.426 88.4229 104.184 88.0572C103.946 87.6914 103.827 87.2404 103.827 86.7042C103.827 86.2425 103.913 85.8608 104.083 85.5589C104.253 85.2571 104.486 85.0156 104.781 84.8345C105.076 84.6534 105.408 84.5167 105.777 84.4244C106.15 84.3285 106.535 84.2592 106.933 84.2166C107.412 84.1669 107.801 84.1225 108.099 84.0835C108.398 84.0408 108.614 83.9769 108.749 83.8917C108.888 83.8029 108.957 83.6662 108.957 83.4815V83.4496C108.957 83.0483 108.838 82.7376 108.6 82.5174C108.362 82.2972 108.019 82.1871 107.572 82.1871C107.1 82.1871 106.725 82.2901 106.448 82.4961C106.175 82.7021 105.99 82.9453 105.894 83.2259L104.094 82.9702C104.236 82.473 104.47 82.0575 104.797 81.7237C105.124 81.3864 105.523 81.1342 105.995 80.9673C106.468 80.7969 106.99 80.7116 107.561 80.7116C107.956 80.7116 108.348 80.7578 108.739 80.8501C109.129 80.9425 109.486 81.0952 109.809 81.3082C110.132 81.5178 110.392 81.8036 110.587 82.1658C110.786 82.5281 110.885 82.9808 110.885 83.5241V89H109.032V87.8761H108.968C108.85 88.1033 108.685 88.3164 108.472 88.5153C108.263 88.7106 107.998 88.8686 107.679 88.9893C107.363 89.1065 106.991 89.1651 106.565 89.1651ZM107.066 87.7482C107.453 87.7482 107.789 87.6719 108.073 87.5192C108.357 87.3629 108.575 87.157 108.728 86.9013C108.884 86.6456 108.962 86.3668 108.962 86.065V85.1009C108.902 85.1506 108.799 85.1967 108.653 85.2393C108.511 85.282 108.352 85.3192 108.174 85.3512C107.996 85.3832 107.821 85.4116 107.647 85.4364C107.473 85.4613 107.322 85.4826 107.194 85.5004C106.906 85.5394 106.649 85.6033 106.421 85.6921C106.194 85.7809 106.015 85.9052 105.883 86.065C105.752 86.2212 105.686 86.4237 105.686 86.6722C105.686 87.0273 105.816 87.2955 106.075 87.4766C106.334 87.6577 106.665 87.7482 107.066 87.7482ZM116.832 92.2386C116.14 92.2386 115.545 92.1445 115.048 91.9563C114.551 91.7717 114.151 91.5231 113.849 91.2106C113.548 90.8981 113.338 90.5518 113.221 90.1719L114.957 89.7511C115.036 89.9109 115.149 90.0689 115.298 90.2251C115.447 90.3849 115.648 90.5163 115.9 90.6193C116.156 90.7259 116.477 90.7791 116.864 90.7791C117.411 90.7791 117.864 90.646 118.223 90.3796C118.581 90.1168 118.761 89.6836 118.761 89.0799V87.5298H118.665C118.565 87.7287 118.42 87.9329 118.228 88.1424C118.04 88.3519 117.789 88.5277 117.477 88.6697C117.168 88.8118 116.779 88.8828 116.31 88.8828C115.682 88.8828 115.112 88.7354 114.601 88.4407C114.093 88.1424 113.688 87.6985 113.386 87.109C113.088 86.516 112.939 85.7738 112.939 84.8825C112.939 83.984 113.088 83.2259 113.386 82.608C113.688 81.9865 114.094 81.516 114.606 81.1964C115.117 80.8732 115.687 80.7116 116.316 80.7116C116.795 80.7116 117.189 80.7933 117.498 80.9567C117.811 81.1165 118.059 81.31 118.244 81.5373C118.429 81.761 118.569 81.9723 118.665 82.1712H118.771V80.8182H120.673V89.1332C120.673 89.8327 120.506 90.4116 120.172 90.8697C119.838 91.3278 119.382 91.6705 118.803 91.8977C118.224 92.125 117.567 92.2386 116.832 92.2386ZM116.848 87.37C117.257 87.37 117.605 87.2706 117.892 87.0717C118.18 86.8729 118.398 86.587 118.548 86.2141C118.697 85.8413 118.771 85.3938 118.771 84.8718C118.771 84.3569 118.697 83.9059 118.548 83.5188C118.402 83.1317 118.185 82.8317 117.898 82.6186C117.614 82.402 117.264 82.2937 116.848 82.2937C116.419 82.2937 116.06 82.4055 115.772 82.6293C115.485 82.853 115.268 83.1602 115.123 83.5508C114.977 83.9379 114.904 84.3782 114.904 84.8718C114.904 85.3725 114.977 85.8111 115.123 86.1875C115.272 86.5604 115.49 86.8516 115.778 87.0611C116.069 87.267 116.426 87.37 116.848 87.37ZM126.721 89.1598C125.901 89.1598 125.193 88.9893 124.596 88.6484C124.003 88.304 123.547 87.8175 123.227 87.1889C122.907 86.5568 122.748 85.8129 122.748 84.957C122.748 84.1154 122.907 83.3768 123.227 82.7411C123.55 82.1019 124.001 81.6048 124.58 81.2496C125.159 80.891 125.839 80.7116 126.62 80.7116C127.124 80.7116 127.6 80.7933 128.048 80.9567C128.499 81.1165 128.896 81.3651 129.241 81.7024C129.589 82.0398 129.862 82.4695 130.061 82.9915C130.26 83.5099 130.359 84.1278 130.359 84.8452V85.4364H123.653V84.1367H128.511C128.508 83.7674 128.428 83.4389 128.271 83.1513C128.115 82.8601 127.897 82.631 127.616 82.4641C127.339 82.2972 127.016 82.2138 126.647 82.2138C126.253 82.2138 125.906 82.3097 125.608 82.5014C125.31 82.6896 125.077 82.9382 124.91 83.2472C124.747 83.5526 124.663 83.8881 124.66 84.2539V85.3885C124.66 85.8643 124.747 86.2727 124.921 86.6136C125.095 86.951 125.338 87.2102 125.651 87.3913C125.963 87.5689 126.329 87.6577 126.748 87.6577C127.028 87.6577 127.282 87.6186 127.51 87.5405C127.737 87.4588 127.934 87.3398 128.101 87.1836C128.268 87.0273 128.394 86.8338 128.479 86.603L130.28 86.8054C130.166 87.2812 129.949 87.6967 129.63 88.0518C129.314 88.4034 128.909 88.6768 128.415 88.8722C127.922 89.0639 127.357 89.1598 126.721 89.1598Z" fill="#6048E5"/>
<path d="M3.13894 108.142V113H1.54625V102.091H3.11763V106.15H3.21884C3.4106 105.71 3.70357 105.36 4.09775 105.1C4.49192 104.841 5.00684 104.712 5.64249 104.712C6.20357 104.712 6.69363 104.827 7.11266 105.058C7.53525 105.289 7.86195 105.633 8.09277 106.091C8.32715 106.546 8.44434 107.114 8.44434 107.796V113H6.85165V107.988C6.85165 107.387 6.69718 106.922 6.38823 106.592C6.07928 106.258 5.64959 106.091 5.09917 106.091C4.72275 106.091 4.38539 106.171 4.08709 106.331C3.79235 106.491 3.55975 106.725 3.38929 107.034C3.22239 107.339 3.13894 107.709 3.13894 108.142ZM14.3889 104.818V106.097H9.91983V104.818H14.3889ZM11.1183 102.858H12.711V110.598C12.711 110.907 12.7572 111.139 12.8495 111.295C12.9419 111.448 13.0608 111.553 13.2064 111.61C13.3556 111.663 13.5171 111.69 13.6911 111.69C13.819 111.69 13.9308 111.681 14.0267 111.663C14.1226 111.645 14.1972 111.631 14.2504 111.62L14.5381 112.936C14.4458 112.972 14.3144 113.007 14.1439 113.043C13.9735 113.082 13.7604 113.103 13.5047 113.107C13.0857 113.114 12.695 113.039 12.3328 112.883C11.9706 112.727 11.6776 112.485 11.4539 112.158C11.2302 111.832 11.1183 111.422 11.1183 110.928V102.858ZM19.97 104.818V106.097H15.5009V104.818H19.97ZM16.6994 102.858H18.2921V110.598C18.2921 110.907 18.3382 111.139 18.4306 111.295C18.5229 111.448 18.6419 111.553 18.7875 111.61C18.9366 111.663 19.0982 111.69 19.2722 111.69C19.4 111.69 19.5119 111.681 19.6078 111.663C19.7037 111.645 19.7782 111.631 19.8315 111.62L20.1191 112.936C20.0268 112.972 19.8954 113.007 19.725 113.043C19.5545 113.082 19.3414 113.103 19.0858 113.107C18.6667 113.114 18.2761 113.039 17.9139 112.883C17.5517 112.727 17.2587 112.485 17.035 112.158C16.8113 111.832 16.6994 111.422 16.6994 110.928V102.858ZM21.7318 116.068V104.818H23.2872V106.145H23.4204C23.5127 105.974 23.6459 105.777 23.8199 105.553C23.9939 105.33 24.2354 105.134 24.5443 104.967C24.8532 104.797 25.2616 104.712 25.7694 104.712C26.43 104.712 27.0194 104.879 27.5379 105.212C28.0564 105.546 28.463 106.027 28.7577 106.656C29.056 107.284 29.2052 108.041 29.2052 108.925C29.2052 109.809 29.0578 110.567 28.7631 111.2C28.4683 111.828 28.0635 112.313 27.5486 112.654C27.0336 112.991 26.4459 113.16 25.7854 113.16C25.2883 113.16 24.8817 113.076 24.5656 112.909C24.2531 112.743 24.0081 112.547 23.8305 112.324C23.653 112.1 23.5162 111.901 23.4204 111.727H23.3245V116.068H21.7318ZM23.2925 108.909C23.2925 109.484 23.376 109.989 23.5429 110.422C23.7098 110.855 23.9513 111.194 24.2673 111.439C24.5834 111.681 24.9704 111.801 25.4285 111.801C25.9044 111.801 26.3021 111.675 26.6217 111.423C26.9413 111.168 27.1828 110.821 27.3461 110.385C27.5131 109.948 27.5965 109.456 27.5965 108.909C27.5965 108.369 27.5148 107.885 27.3515 107.455C27.1917 107.025 26.9502 106.686 26.627 106.438C26.3074 106.189 25.9079 106.065 25.4285 106.065C24.9669 106.065 24.5763 106.184 24.2567 106.422C23.9406 106.659 23.7009 106.991 23.5376 107.418C23.3742 107.844 23.2925 108.341 23.2925 108.909ZM37.1207 106.816L35.6771 107.071C35.6167 106.887 35.5209 106.711 35.3895 106.544C35.2616 106.377 35.0876 106.24 34.8675 106.134C34.6473 106.027 34.3721 105.974 34.0418 105.974C33.5908 105.974 33.2144 106.075 32.9126 106.278C32.6107 106.477 32.4598 106.734 32.4598 107.05C32.4598 107.324 32.561 107.544 32.7634 107.711C32.9658 107.877 33.2925 108.014 33.7435 108.121L35.0432 108.419C35.7961 108.593 36.3572 108.861 36.7265 109.223C37.0958 109.586 37.2805 110.056 37.2805 110.635C37.2805 111.125 37.1384 111.562 36.8543 111.945C36.5738 112.325 36.1814 112.624 35.6771 112.84C35.1764 113.057 34.5958 113.165 33.9353 113.165C33.0191 113.165 32.2716 112.97 31.6927 112.579C31.1139 112.185 30.7588 111.626 30.6274 110.901L32.1668 110.667C32.2627 111.068 32.4598 111.372 32.7581 111.578C33.0564 111.78 33.4452 111.881 33.9246 111.881C34.4466 111.881 34.8639 111.773 35.1764 111.556C35.4889 111.336 35.6452 111.068 35.6452 110.752C35.6452 110.496 35.5493 110.282 35.3575 110.108C35.1693 109.934 34.8799 109.802 34.4893 109.713L33.1043 109.41C32.3408 109.236 31.7762 108.959 31.4104 108.579C31.0482 108.199 30.8671 107.718 30.8671 107.135C30.8671 106.652 31.002 106.23 31.2719 105.868C31.5418 105.505 31.9147 105.223 32.3905 105.021C32.8664 104.815 33.4115 104.712 34.0258 104.712C34.9101 104.712 35.6061 104.903 36.1139 105.287C36.6217 105.667 36.9573 106.176 37.1207 106.816ZM40.081 113.101C39.7898 113.101 39.5394 112.998 39.3299 112.792C39.1204 112.583 39.0156 112.331 39.0156 112.036C39.0156 111.745 39.1204 111.496 39.3299 111.29C39.5394 111.081 39.7898 110.976 40.081 110.976C40.3722 110.976 40.6225 111.081 40.832 111.29C41.0415 111.496 41.1463 111.745 41.1463 112.036C41.1463 112.231 41.0966 112.411 40.9972 112.574C40.9013 112.734 40.7734 112.862 40.6136 112.957C40.4538 113.053 40.2763 113.101 40.081 113.101ZM40.081 107.146C39.7898 107.146 39.5394 107.041 39.3299 106.832C39.1204 106.622 39.0156 106.372 39.0156 106.081C39.0156 105.789 39.1204 105.541 39.3299 105.335C39.5394 105.125 39.7898 105.021 40.081 105.021C40.3722 105.021 40.6225 105.125 40.832 105.335C41.0415 105.541 41.1463 105.789 41.1463 106.081C41.1463 106.276 41.0966 106.455 40.9972 106.619C40.9013 106.778 40.7734 106.906 40.6136 107.002C40.4538 107.098 40.2763 107.146 40.081 107.146ZM47.4345 101.58L43.9189 114.641H42.4966L46.0123 101.58H47.4345ZM52.9423 101.58L49.4267 114.641H48.0044L51.5201 101.58H52.9423ZM54.2953 116.068V104.818H55.8507V106.145H55.9838C56.0762 105.974 56.2093 105.777 56.3833 105.553C56.5574 105.33 56.7988 105.134 57.1078 104.967C57.4167 104.797 57.8251 104.712 58.3329 104.712C58.9934 104.712 59.5829 104.879 60.1014 105.212C60.6199 105.546 61.0265 106.027 61.3212 106.656C61.6195 107.284 61.7686 108.041 61.7686 108.925C61.7686 109.809 61.6213 110.567 61.3265 111.2C61.0318 111.828 60.627 112.313 60.112 112.654C59.5971 112.991 59.0094 113.16 58.3489 113.16C57.8517 113.16 57.4451 113.076 57.1291 112.909C56.8166 112.743 56.5716 112.547 56.394 112.324C56.2164 112.1 56.0797 111.901 55.9838 111.727H55.888V116.068H54.2953ZM55.856 108.909C55.856 109.484 55.9395 109.989 56.1064 110.422C56.2733 110.855 56.5147 111.194 56.8308 111.439C57.1468 111.681 57.5339 111.801 57.992 111.801C58.4679 111.801 58.8656 111.675 59.1852 111.423C59.5048 111.168 59.7463 110.821 59.9096 110.385C60.0765 109.948 60.16 109.456 60.16 108.909C60.16 108.369 60.0783 107.885 59.915 107.455C59.7551 107.025 59.5137 106.686 59.1905 106.438C58.8709 106.189 58.4714 106.065 57.992 106.065C57.5304 106.065 57.1397 106.184 56.8201 106.422C56.5041 106.659 56.2644 106.991 56.101 107.418C55.9377 107.844 55.856 108.341 55.856 108.909ZM63.5531 113V104.818H65.0925V106.118H65.1777C65.3269 105.678 65.5897 105.331 65.9661 105.079C66.3461 104.824 66.7757 104.696 67.2551 104.696C67.3546 104.696 67.4718 104.699 67.6067 104.706C67.7452 104.713 67.8535 104.722 67.9316 104.733V106.256C67.8677 106.239 67.7541 106.219 67.5907 106.198C67.4274 106.173 67.264 106.161 67.1007 106.161C66.7243 106.161 66.3887 106.24 66.0939 106.4C65.8027 106.556 65.5719 106.775 65.4015 107.055C65.231 107.332 65.1458 107.648 65.1458 108.004V113H63.5531ZM72.4633 113.165C71.6963 113.165 71.0269 112.989 70.4552 112.638C69.8834 112.286 69.4395 111.794 69.1235 111.162C68.8074 110.53 68.6494 109.792 68.6494 108.946C68.6494 108.098 68.8074 107.355 69.1235 106.72C69.4395 106.084 69.8834 105.591 70.4552 105.239C71.0269 104.887 71.6963 104.712 72.4633 104.712C73.2304 104.712 73.8998 104.887 74.4715 105.239C75.0432 105.591 75.4871 106.084 75.8032 106.72C76.1192 107.355 76.2773 108.098 76.2773 108.946C76.2773 109.792 76.1192 110.53 75.8032 111.162C75.4871 111.794 75.0432 112.286 74.4715 112.638C73.8998 112.989 73.2304 113.165 72.4633 113.165ZM72.4687 111.828C72.9658 111.828 73.3778 111.697 73.7045 111.434C74.0312 111.171 74.2726 110.821 74.4289 110.385C74.5887 109.948 74.6686 109.467 74.6686 108.941C74.6686 108.419 74.5887 107.94 74.4289 107.503C74.2726 107.062 74.0312 106.709 73.7045 106.443C73.3778 106.176 72.9658 106.043 72.4687 106.043C71.968 106.043 71.5525 106.176 71.2222 106.443C70.8955 106.709 70.6523 107.062 70.4925 107.503C70.3362 107.94 70.2581 108.419 70.2581 108.941C70.2581 109.467 70.3362 109.948 70.4925 110.385C70.6523 110.821 70.8955 111.171 71.2222 111.434C71.5525 111.697 71.968 111.828 72.4687 111.828ZM81.9489 104.818V106.097H77.3253V104.818H81.9489ZM78.593 113V103.87C78.593 103.359 78.7049 102.934 78.9286 102.597C79.1523 102.256 79.4489 102.002 79.8182 101.835C80.1875 101.665 80.5888 101.58 81.022 101.58C81.3416 101.58 81.6151 101.606 81.8423 101.659C82.0696 101.709 82.2383 101.755 82.3484 101.798L81.9755 103.087C81.9009 103.066 81.805 103.041 81.6879 103.012C81.5707 102.98 81.4286 102.964 81.2617 102.964C80.8746 102.964 80.5977 103.06 80.4308 103.252C80.2674 103.444 80.1857 103.721 80.1857 104.083V113H78.593ZM83.5922 113V104.818H85.1848V113H83.5922ZM84.3965 103.556C84.1195 103.556 83.8816 103.463 83.6827 103.279C83.4874 103.091 83.3897 102.867 83.3897 102.608C83.3897 102.345 83.4874 102.121 83.6827 101.936C83.8816 101.748 84.1195 101.654 84.3965 101.654C84.6735 101.654 84.9096 101.748 85.1049 101.936C85.3038 102.121 85.4032 102.345 85.4032 102.608C85.4032 102.867 85.3038 103.091 85.1049 103.279C84.9096 103.463 84.6735 103.556 84.3965 103.556ZM88.9202 102.091V113H87.3275V102.091H88.9202ZM94.5891 113.165C93.783 113.165 93.0888 112.993 92.5064 112.648C91.9276 112.3 91.4801 111.812 91.1641 111.184C90.8516 110.551 90.6953 109.811 90.6953 108.962C90.6953 108.124 90.8516 107.386 91.1641 106.746C91.4801 106.107 91.9205 105.608 92.4851 105.25C93.0533 104.891 93.7173 104.712 94.4773 104.712C94.9389 104.712 95.3864 104.788 95.8196 104.941C96.2528 105.093 96.6417 105.333 96.9862 105.66C97.3306 105.987 97.6023 106.411 97.8011 106.933C98 107.451 98.0994 108.082 98.0994 108.824V109.388H91.5955V108.195H96.5387C96.5387 107.776 96.4535 107.405 96.283 107.082C96.1126 106.755 95.8729 106.498 95.5639 106.31C95.2585 106.121 94.8999 106.027 94.4879 106.027C94.0405 106.027 93.6499 106.137 93.3161 106.358C92.9858 106.574 92.7301 106.858 92.549 107.21C92.3714 107.558 92.2827 107.936 92.2827 108.344V109.277C92.2827 109.824 92.3786 110.289 92.5703 110.672C92.7656 111.056 93.0373 111.349 93.3853 111.551C93.7333 111.75 94.1399 111.849 94.6051 111.849C94.907 111.849 95.1822 111.807 95.4308 111.722C95.6793 111.633 95.8942 111.501 96.0753 111.327C96.2564 111.153 96.3949 110.939 96.4908 110.683L97.9982 110.955C97.8775 111.398 97.6609 111.787 97.3484 112.121C97.0394 112.451 96.6506 112.709 96.1818 112.893C95.7166 113.075 95.1857 113.165 94.5891 113.165ZM100.916 113.101C100.625 113.101 100.374 112.998 100.165 112.792C99.9553 112.583 99.8506 112.331 99.8506 112.036C99.8506 111.745 99.9553 111.496 100.165 111.29C100.374 111.081 100.625 110.976 100.916 110.976C101.207 110.976 101.457 111.081 101.667 111.29C101.877 111.496 101.981 111.745 101.981 112.036C101.981 112.231 101.932 112.411 101.832 112.574C101.736 112.734 101.608 112.862 101.449 112.957C101.289 113.053 101.111 113.101 100.916 113.101ZM104.115 116.068V104.818H105.67V106.145H105.803C105.896 105.974 106.029 105.777 106.203 105.553C106.377 105.33 106.618 105.134 106.927 104.967C107.236 104.797 107.644 104.712 108.152 104.712C108.813 104.712 109.402 104.879 109.921 105.212C110.439 105.546 110.846 106.027 111.141 106.656C111.439 107.284 111.588 108.041 111.588 108.925C111.588 109.809 111.441 110.567 111.146 111.2C110.851 111.828 110.446 112.313 109.931 112.654C109.416 112.991 108.829 113.16 108.168 113.16C107.671 113.16 107.264 113.076 106.948 112.909C106.636 112.743 106.391 112.547 106.213 112.324C106.036 112.1 105.899 111.901 105.803 111.727H105.707V116.068H104.115ZM105.675 108.909C105.675 109.484 105.759 109.989 105.926 110.422C106.093 110.855 106.334 111.194 106.65 111.439C106.966 111.681 107.353 111.801 107.811 111.801C108.287 111.801 108.685 111.675 109.005 111.423C109.324 111.168 109.566 110.821 109.729 110.385C109.896 109.948 109.979 109.456 109.979 108.909C109.979 108.369 109.898 107.885 109.734 107.455C109.574 107.025 109.333 106.686 109.01 106.438C108.69 106.189 108.291 106.065 107.811 106.065C107.35 106.065 106.959 106.184 106.639 106.422C106.323 106.659 106.084 106.991 105.92 107.418C105.757 107.844 105.675 108.341 105.675 108.909ZM114.965 108.142V113H113.372V104.818H114.901V106.15H115.002C115.191 105.717 115.485 105.369 115.887 105.106C116.291 104.843 116.801 104.712 117.415 104.712C117.973 104.712 118.461 104.829 118.88 105.063C119.299 105.294 119.624 105.638 119.855 106.097C120.086 106.555 120.201 107.121 120.201 107.796V113H118.609V107.988C118.609 107.395 118.454 106.931 118.145 106.597C117.836 106.26 117.412 106.091 116.872 106.091C116.503 106.091 116.174 106.171 115.887 106.331C115.603 106.491 115.377 106.725 115.21 107.034C115.047 107.339 114.965 107.709 114.965 108.142ZM125.768 116.239C125.118 116.239 124.559 116.153 124.09 115.983C123.625 115.813 123.245 115.587 122.95 115.306C122.655 115.026 122.435 114.719 122.289 114.385L123.658 113.82C123.754 113.977 123.882 114.142 124.042 114.316C124.205 114.493 124.425 114.644 124.702 114.768C124.983 114.893 125.343 114.955 125.784 114.955C126.387 114.955 126.886 114.808 127.28 114.513C127.675 114.222 127.872 113.756 127.872 113.117V111.509H127.771C127.675 111.683 127.536 111.876 127.355 112.089C127.177 112.302 126.932 112.487 126.62 112.643C126.307 112.799 125.901 112.877 125.4 112.877C124.754 112.877 124.171 112.727 123.653 112.425C123.138 112.119 122.73 111.67 122.428 111.077C122.13 110.48 121.98 109.747 121.98 108.877C121.98 108.007 122.128 107.261 122.422 106.64C122.721 106.018 123.129 105.543 123.648 105.212C124.166 104.879 124.754 104.712 125.411 104.712C125.919 104.712 126.329 104.797 126.641 104.967C126.954 105.134 127.197 105.33 127.371 105.553C127.549 105.777 127.685 105.974 127.781 106.145H127.898V104.818H129.459V113.181C129.459 113.884 129.296 114.461 128.969 114.912C128.642 115.363 128.2 115.697 127.643 115.914C127.089 116.13 126.464 116.239 125.768 116.239ZM125.752 111.556C126.21 111.556 126.597 111.45 126.913 111.237C127.233 111.02 127.474 110.711 127.637 110.31C127.804 109.905 127.888 109.42 127.888 108.856C127.888 108.305 127.806 107.821 127.643 107.402C127.479 106.983 127.24 106.656 126.924 106.422C126.608 106.184 126.217 106.065 125.752 106.065C125.272 106.065 124.873 106.189 124.553 106.438C124.234 106.683 123.992 107.016 123.829 107.439C123.669 107.862 123.589 108.334 123.589 108.856C123.589 109.392 123.671 109.863 123.834 110.267C123.997 110.672 124.239 110.988 124.559 111.216C124.882 111.443 125.279 111.556 125.752 111.556Z" fill="#64778C"/>
<circle cx="147" cy="84" r="8" fill="url(#paint1_linear_1659_16187)"/>
<path d="M33.4931 167.068V155.818H35.3894V157.171H35.5013C35.6007 156.972 35.741 156.761 35.9221 156.537C36.1032 156.31 36.3482 156.116 36.6572 155.957C36.9661 155.793 37.3603 155.712 37.8397 155.712C38.4718 155.712 39.0418 155.873 39.5496 156.196C40.0609 156.516 40.4658 156.99 40.7641 157.619C41.0659 158.244 41.2168 159.011 41.2168 159.92C41.2168 160.818 41.0695 161.582 40.7747 162.21C40.48 162.839 40.0787 163.318 39.5709 163.648C39.0631 163.979 38.4878 164.144 37.845 164.144C37.3763 164.144 36.9874 164.066 36.6785 163.909C36.3695 163.753 36.121 163.565 35.9327 163.345C35.7481 163.121 35.6043 162.91 35.5013 162.711H35.4214V167.068H33.4931ZM35.3841 159.909C35.3841 160.438 35.4587 160.902 35.6078 161.299C35.7605 161.697 35.9789 162.008 36.263 162.232C36.5506 162.452 36.8986 162.562 37.307 162.562C37.7332 162.562 38.0901 162.448 38.3777 162.221C38.6653 161.99 38.882 161.676 39.0276 161.278C39.1767 160.877 39.2513 160.42 39.2513 159.909C39.2513 159.401 39.1785 158.95 39.0329 158.556C38.8873 158.162 38.6707 157.853 38.383 157.629C38.0954 157.406 37.7367 157.294 37.307 157.294C36.8951 157.294 36.5453 157.402 36.2577 157.619C35.97 157.835 35.7516 158.139 35.6025 158.529C35.4569 158.92 35.3841 159.38 35.3841 159.909ZM43.3181 164V155.818H45.1878V157.182H45.273C45.4222 156.71 45.6778 156.346 46.0401 156.09C46.4058 155.831 46.8231 155.701 47.2918 155.701C47.3984 155.701 47.5173 155.706 47.6487 155.717C47.7837 155.724 47.8955 155.737 47.9843 155.754V157.528C47.9026 157.5 47.773 157.475 47.5955 157.453C47.4214 157.429 47.2528 157.416 47.0894 157.416C46.7379 157.416 46.4218 157.493 46.1413 157.645C45.8643 157.794 45.6459 158.002 45.4861 158.268C45.3263 158.535 45.2464 158.842 45.2464 159.19V164H43.3181ZM53.0006 164.16C52.1803 164.16 51.4719 163.989 50.8753 163.648C50.2822 163.304 49.8259 162.817 49.5063 162.189C49.1867 161.557 49.0269 160.813 49.0269 159.957C49.0269 159.115 49.1867 158.377 49.5063 157.741C49.8295 157.102 50.2804 156.605 50.8593 156.25C51.4381 155.891 52.1182 155.712 52.8994 155.712C53.4037 155.712 53.8795 155.793 54.327 155.957C54.778 156.116 55.1757 156.365 55.5202 156.702C55.8682 157.04 56.1416 157.469 56.3405 157.991C56.5393 158.51 56.6388 159.128 56.6388 159.845V160.436H49.9324V159.137H54.7904C54.7868 158.767 54.7069 158.439 54.5507 158.151C54.3944 157.86 54.176 157.631 53.8955 157.464C53.6185 157.297 53.2954 157.214 52.926 157.214C52.5319 157.214 52.1856 157.31 51.8873 157.501C51.589 157.69 51.3564 157.938 51.1895 158.247C51.0262 158.553 50.9427 158.888 50.9392 159.254V160.388C50.9392 160.864 51.0262 161.273 51.2002 161.614C51.3742 161.951 51.6175 162.21 51.93 162.391C52.2425 162.569 52.6082 162.658 53.0273 162.658C53.3078 162.658 53.5617 162.619 53.789 162.54C54.0162 162.459 54.2133 162.34 54.3802 162.184C54.5471 162.027 54.6732 161.834 54.7584 161.603L56.5589 161.805C56.4452 162.281 56.2286 162.697 55.909 163.052C55.5929 163.403 55.1881 163.677 54.6945 163.872C54.2009 164.064 53.6363 164.16 53.0006 164.16ZM62.8642 155.818V157.31H58.0276V155.818H62.8642ZM59.2368 164V155.046C59.2368 154.495 59.3504 154.037 59.5777 153.672C59.8085 153.306 60.1174 153.032 60.5045 152.851C60.8916 152.67 61.3213 152.58 61.7936 152.58C62.1274 152.58 62.4239 152.606 62.6831 152.659C62.9424 152.713 63.1341 152.761 63.2584 152.803L62.8749 154.295C62.7932 154.27 62.6902 154.245 62.5659 154.22C62.4417 154.192 62.3032 154.178 62.1505 154.178C61.7918 154.178 61.5379 154.265 61.3887 154.439C61.2431 154.609 61.1703 154.854 61.1703 155.174V164H59.2368ZM68.1389 164.16C67.3186 164.16 66.6101 163.989 66.0135 163.648C65.4205 163.304 64.9642 162.817 64.6446 162.189C64.325 161.557 64.1652 160.813 64.1652 159.957C64.1652 159.115 64.325 158.377 64.6446 157.741C64.9677 157.102 65.4187 156.605 65.9976 156.25C66.5764 155.891 67.2564 155.712 68.0377 155.712C68.542 155.712 69.0178 155.793 69.4653 155.957C69.9162 156.116 70.314 156.365 70.6584 156.702C71.0064 157.04 71.2799 157.469 71.4787 157.991C71.6776 158.51 71.777 159.128 71.777 159.845V160.436H65.0707V159.137H69.9287C69.9251 158.767 69.8452 158.439 69.689 158.151C69.5327 157.86 69.3143 157.631 69.0338 157.464C68.7568 157.297 68.4336 157.214 68.0643 157.214C67.6702 157.214 67.3239 157.31 67.0256 157.501C66.7273 157.69 66.4947 157.938 66.3278 158.247C66.1645 158.553 66.081 158.888 66.0775 159.254V160.388C66.0775 160.864 66.1645 161.273 66.3385 161.614C66.5125 161.951 66.7557 162.21 67.0682 162.391C67.3807 162.569 67.7465 162.658 68.1655 162.658C68.4461 162.658 68.7 162.619 68.9273 162.54C69.1545 162.459 69.3516 162.34 69.5185 162.184C69.6854 162.027 69.8115 161.834 69.8967 161.603L71.6971 161.805C71.5835 162.281 71.3669 162.697 71.0473 163.052C70.7312 163.403 70.3264 163.677 69.8328 163.872C69.3392 164.064 68.7746 164.16 68.1389 164.16ZM73.8583 164V155.818H75.728V157.182H75.8132C75.9624 156.71 76.2181 156.346 76.5803 156.09C76.9461 155.831 77.3633 155.701 77.8321 155.701C77.9386 155.701 78.0576 155.706 78.189 155.717C78.3239 155.724 78.4358 155.737 78.5245 155.754V157.528C78.4429 157.5 78.3132 157.475 78.1357 157.453C77.9617 157.429 77.793 157.416 77.6297 157.416C77.2781 157.416 76.962 157.493 76.6815 157.645C76.4045 157.794 76.1861 158.002 76.0263 158.268C75.8665 158.535 75.7866 158.842 75.7866 159.19V164H73.8583ZM80.2556 164V155.818H82.1253V157.182H82.2105C82.3597 156.71 82.6153 156.346 82.9776 156.09C83.3433 155.831 83.7606 155.701 84.2293 155.701C84.3359 155.701 84.4548 155.706 84.5862 155.717C84.7212 155.724 84.833 155.737 84.9218 155.754V157.528C84.8401 157.5 84.7105 157.475 84.533 157.453C84.3589 157.429 84.1903 157.416 84.0269 157.416C83.6754 157.416 83.3593 157.493 83.0788 157.645C82.8018 157.794 82.5834 158.002 82.4236 158.268C82.2638 158.535 82.1839 158.842 82.1839 159.19V164H80.2556ZM89.9381 164.16C89.1178 164.16 88.4094 163.989 87.8128 163.648C87.2197 163.304 86.7634 162.817 86.4438 162.189C86.1242 161.557 85.9644 160.813 85.9644 159.957C85.9644 159.115 86.1242 158.377 86.4438 157.741C86.767 157.102 87.218 156.605 87.7968 156.25C88.3756 155.891 89.0557 155.712 89.8369 155.712C90.3412 155.712 90.817 155.793 91.2645 155.957C91.7155 156.116 92.1132 156.365 92.4577 156.702C92.8057 157.04 93.0791 157.469 93.278 157.991C93.4768 158.51 93.5763 159.128 93.5763 159.845V160.436H86.8699V159.137H91.7279C91.7243 158.767 91.6444 158.439 91.4882 158.151C91.3319 157.86 91.1135 157.631 90.833 157.464C90.556 157.297 90.2329 157.214 89.8635 157.214C89.4694 157.214 89.1231 157.31 88.8248 157.501C88.5265 157.69 88.2939 157.938 88.127 158.247C87.9637 158.553 87.8802 158.888 87.8767 159.254V160.388C87.8767 160.864 87.9637 161.273 88.1377 161.614C88.3117 161.951 88.555 162.21 88.8675 162.391C89.18 162.569 89.5457 162.658 89.9648 162.658C90.2453 162.658 90.4992 162.619 90.7265 162.54C90.9537 162.459 91.1508 162.34 91.3177 162.184C91.4846 162.027 91.6107 161.834 91.6959 161.603L93.4964 161.805C93.3827 162.281 93.1661 162.697 92.8465 163.052C92.5305 163.403 92.1256 163.677 91.632 163.872C91.1384 164.064 90.5738 164.16 89.9381 164.16ZM98.6938 164.144C98.051 164.144 97.4757 163.979 96.9679 163.648C96.4601 163.318 96.0588 162.839 95.7641 162.21C95.4694 161.582 95.322 160.818 95.322 159.92C95.322 159.011 95.4711 158.244 95.7694 157.619C96.0713 156.99 96.4779 156.516 96.9892 156.196C97.5006 155.873 98.0706 155.712 98.6991 155.712C99.1785 155.712 99.5727 155.793 99.8816 155.957C100.191 156.116 100.436 156.31 100.617 156.537C100.798 156.761 100.938 156.972 101.038 157.171H101.117V153.091H103.051V164H101.155V162.711H101.038C100.938 162.91 100.794 163.121 100.606 163.345C100.418 163.565 100.169 163.753 99.8603 163.909C99.5514 164.066 99.1625 164.144 98.6938 164.144ZM99.2318 162.562C99.6402 162.562 99.9882 162.452 100.276 162.232C100.563 162.008 100.782 161.697 100.931 161.299C101.08 160.902 101.155 160.438 101.155 159.909C101.155 159.38 101.08 158.92 100.931 158.529C100.785 158.139 100.569 157.835 100.281 157.619C99.997 157.402 99.6473 157.294 99.2318 157.294C98.8021 157.294 98.4434 157.406 98.1558 157.629C97.8681 157.853 97.6515 158.162 97.5059 158.556C97.3603 158.95 97.2875 159.401 97.2875 159.909C97.2875 160.42 97.3603 160.877 97.5059 161.278C97.6551 161.676 97.8735 161.99 98.1611 162.221C98.4523 162.448 98.8092 162.562 99.2318 162.562ZM114.606 153.091V164H112.848L107.708 156.569H107.617V164H105.641V153.091H107.41L112.544 160.527H112.64V153.091H114.606ZM119.478 164.165C118.96 164.165 118.493 164.073 118.077 163.888C117.666 163.7 117.339 163.423 117.097 163.057C116.859 162.691 116.74 162.24 116.74 161.704C116.74 161.243 116.826 160.861 116.996 160.559C117.167 160.257 117.399 160.016 117.694 159.835C117.989 159.653 118.321 159.517 118.69 159.424C119.063 159.328 119.448 159.259 119.846 159.217C120.325 159.167 120.714 159.123 121.012 159.083C121.311 159.041 121.527 158.977 121.662 158.892C121.801 158.803 121.87 158.666 121.87 158.482V158.45C121.87 158.048 121.751 157.738 121.513 157.517C121.275 157.297 120.933 157.187 120.485 157.187C120.013 157.187 119.638 157.29 119.361 157.496C119.088 157.702 118.903 157.945 118.807 158.226L117.007 157.97C117.149 157.473 117.383 157.058 117.71 156.724C118.037 156.386 118.436 156.134 118.908 155.967C119.381 155.797 119.903 155.712 120.474 155.712C120.869 155.712 121.261 155.758 121.652 155.85C122.042 155.942 122.399 156.095 122.722 156.308C123.045 156.518 123.305 156.804 123.5 157.166C123.699 157.528 123.798 157.981 123.798 158.524V164H121.945V162.876H121.881C121.764 163.103 121.598 163.316 121.385 163.515C121.176 163.711 120.911 163.869 120.592 163.989C120.276 164.107 119.905 164.165 119.478 164.165ZM119.979 162.748C120.366 162.748 120.702 162.672 120.986 162.519C121.27 162.363 121.488 162.157 121.641 161.901C121.797 161.646 121.875 161.367 121.875 161.065V160.101C121.815 160.151 121.712 160.197 121.566 160.239C121.424 160.282 121.265 160.319 121.087 160.351C120.909 160.383 120.734 160.412 120.56 160.436C120.386 160.461 120.235 160.483 120.107 160.5C119.819 160.539 119.562 160.603 119.335 160.692C119.107 160.781 118.928 160.905 118.797 161.065C118.665 161.221 118.599 161.424 118.599 161.672C118.599 162.027 118.729 162.295 118.988 162.477C119.248 162.658 119.578 162.748 119.979 162.748ZM126.187 164V155.818H128.03V157.208H128.126C128.297 156.74 128.579 156.374 128.973 156.111C129.367 155.845 129.838 155.712 130.385 155.712C130.939 155.712 131.406 155.847 131.786 156.116C132.169 156.383 132.439 156.747 132.595 157.208H132.681C132.862 156.754 133.167 156.392 133.597 156.122C134.03 155.848 134.543 155.712 135.136 155.712C135.889 155.712 136.503 155.95 136.979 156.425C137.455 156.901 137.693 157.596 137.693 158.508V164H135.759V158.806C135.759 158.299 135.624 157.928 135.355 157.693C135.085 157.455 134.754 157.336 134.364 157.336C133.899 157.336 133.535 157.482 133.272 157.773C133.013 158.061 132.883 158.435 132.883 158.897V164H130.992V158.727C130.992 158.304 130.864 157.967 130.608 157.714C130.356 157.462 130.026 157.336 129.618 157.336C129.341 157.336 129.089 157.407 128.861 157.549C128.634 157.688 128.453 157.885 128.318 158.141C128.183 158.393 128.116 158.687 128.116 159.025V164H126.187ZM143.721 164.16C142.901 164.16 142.193 163.989 141.596 163.648C141.003 163.304 140.547 162.817 140.227 162.189C139.907 161.557 139.748 160.813 139.748 159.957C139.748 159.115 139.907 158.377 140.227 157.741C140.55 157.102 141.001 156.605 141.58 156.25C142.159 155.891 142.839 155.712 143.62 155.712C144.124 155.712 144.6 155.793 145.048 155.957C145.499 156.116 145.896 156.365 146.241 156.702C146.589 157.04 146.862 157.469 147.061 157.991C147.26 158.51 147.359 159.128 147.359 159.845V160.436H140.653V159.137H145.511C145.508 158.767 145.428 158.439 145.271 158.151C145.115 157.86 144.897 157.631 144.616 157.464C144.339 157.297 144.016 157.214 143.647 157.214C143.253 157.214 142.906 157.31 142.608 157.501C142.31 157.69 142.077 157.938 141.91 158.247C141.747 158.553 141.663 158.888 141.66 159.254V160.388C141.66 160.864 141.747 161.273 141.921 161.614C142.095 161.951 142.338 162.21 142.651 162.391C142.963 162.569 143.329 162.658 143.748 162.658C144.028 162.658 144.282 162.619 144.51 162.54C144.737 162.459 144.934 162.34 145.101 162.184C145.268 162.027 145.394 161.834 145.479 161.603L147.28 161.805C147.166 162.281 146.949 162.697 146.63 163.052C146.314 163.403 145.909 163.677 145.415 163.872C144.922 164.064 144.357 164.16 143.721 164.16Z" fill="#6048E5"/>
<path d="M33.6814 177.091H35.6789L39.1519 185.571H39.2798L42.7528 177.091H44.7503V188H43.1843V180.106H43.0831L39.8657 187.984H38.566L35.3487 180.1H35.2475V188H33.6814V177.091ZM49.3965 188.181C48.8781 188.181 48.4093 188.085 47.9903 187.893C47.5712 187.698 47.2392 187.416 46.9942 187.047C46.7527 186.677 46.632 186.224 46.632 185.688C46.632 185.227 46.7207 184.847 46.8983 184.548C47.0759 184.25 47.3156 184.014 47.6174 183.84C47.9193 183.666 48.2566 183.534 48.6295 183.446C49.0024 183.357 49.3823 183.289 49.7694 183.243C50.2595 183.186 50.6572 183.14 50.9626 183.105C51.268 183.066 51.4899 183.004 51.6284 182.918C51.7669 182.833 51.8362 182.695 51.8362 182.503V182.466C51.8362 182 51.7048 181.64 51.442 181.384C51.1828 181.129 50.7957 181.001 50.2808 181.001C49.7445 181.001 49.322 181.12 49.013 181.358C48.7076 181.592 48.4963 181.853 48.3791 182.141L46.8823 181.8C47.0599 181.303 47.3191 180.901 47.66 180.596C48.0045 180.287 48.4004 180.063 48.8479 179.925C49.2953 179.783 49.7658 179.712 50.2595 179.712C50.5862 179.712 50.9324 179.751 51.2982 179.829C51.6675 179.903 52.0119 180.042 52.3315 180.244C52.6547 180.447 52.9193 180.736 53.1252 181.113C53.3312 181.485 53.4342 181.97 53.4342 182.567V188H51.8788V186.881H51.8149C51.7119 187.087 51.5574 187.29 51.3514 187.489C51.1455 187.687 50.8809 187.853 50.5578 187.984C50.2346 188.115 49.8475 188.181 49.3965 188.181ZM49.7428 186.903C50.1831 186.903 50.5595 186.816 50.872 186.642C51.1881 186.468 51.4278 186.24 51.5911 185.96C51.758 185.676 51.8415 185.372 51.8415 185.049V183.994C51.7847 184.051 51.6746 184.104 51.5112 184.154C51.3514 184.2 51.1685 184.241 50.9626 184.277C50.7566 184.309 50.556 184.339 50.3607 184.367C50.1653 184.392 50.002 184.413 49.8706 184.431C49.5617 184.47 49.2793 184.536 49.0237 184.628C48.7715 184.721 48.5691 184.854 48.4164 185.028C48.2673 185.198 48.1927 185.425 48.1927 185.71C48.1927 186.104 48.3383 186.402 48.6295 186.604C48.9207 186.803 49.2918 186.903 49.7428 186.903ZM55.5555 188V179.818H57.0949V181.118H57.1802C57.3293 180.678 57.5921 180.331 57.9685 180.079C58.3485 179.824 58.7782 179.696 59.2576 179.696C59.357 179.696 59.4742 179.699 59.6092 179.706C59.7476 179.713 59.856 179.722 59.9341 179.733V181.256C59.8702 181.239 59.7565 181.219 59.5932 181.198C59.4298 181.173 59.2665 181.161 59.1031 181.161C58.7267 181.161 58.3911 181.24 58.0964 181.4C57.8052 181.556 57.5744 181.775 57.4039 182.055C57.2334 182.332 57.1482 182.648 57.1482 183.004V188H55.5555ZM61.3124 188V179.818H62.9051V188H61.3124ZM62.1167 178.556C61.8397 178.556 61.6018 178.463 61.4029 178.279C61.2076 178.091 61.11 177.867 61.11 177.608C61.11 177.345 61.2076 177.121 61.4029 176.936C61.6018 176.748 61.8397 176.654 62.1167 176.654C62.3937 176.654 62.6298 176.748 62.8252 176.936C63.024 177.121 63.1234 177.345 63.1234 177.608C63.1234 177.867 63.024 178.091 62.8252 178.279C62.6298 178.463 62.3937 178.556 62.1167 178.556ZM67.4288 188.181C66.9103 188.181 66.4415 188.085 66.0225 187.893C65.6035 187.698 65.2714 187.416 65.0264 187.047C64.7849 186.677 64.6642 186.224 64.6642 185.688C64.6642 185.227 64.753 184.847 64.9305 184.548C65.1081 184.25 65.3478 184.014 65.6496 183.84C65.9515 183.666 66.2888 183.534 66.6617 183.446C67.0346 183.357 67.4146 183.289 67.8016 183.243C68.2917 183.186 68.6894 183.14 68.9948 183.105C69.3002 183.066 69.5222 183.004 69.6606 182.918C69.7991 182.833 69.8684 182.695 69.8684 182.503V182.466C69.8684 182 69.737 181.64 69.4742 181.384C69.215 181.129 68.8279 181.001 68.313 181.001C67.7768 181.001 67.3542 181.12 67.0452 181.358C66.7398 181.592 66.5285 181.853 66.4114 182.141L64.9146 181.8C65.0921 181.303 65.3513 180.901 65.6922 180.596C66.0367 180.287 66.4327 180.063 66.8801 179.925C67.3275 179.783 67.7981 179.712 68.2917 179.712C68.6184 179.712 68.9646 179.751 69.3304 179.829C69.6997 179.903 70.0442 180.042 70.3638 180.244C70.6869 180.447 70.9515 180.736 71.1574 181.113C71.3634 181.485 71.4664 181.97 71.4664 182.567V188H69.911V186.881H69.8471C69.7441 187.087 69.5896 187.29 69.3837 187.489C69.1777 187.687 68.9131 187.853 68.59 187.984C68.2668 188.115 67.8797 188.181 67.4288 188.181ZM67.775 186.903C68.2153 186.903 68.5918 186.816 68.9043 186.642C69.2203 186.468 69.46 186.24 69.6234 185.96C69.7903 185.676 69.8737 185.372 69.8737 185.049V183.994C69.8169 184.051 69.7068 184.104 69.5435 184.154C69.3837 184.2 69.2008 184.241 68.9948 184.277C68.7888 184.309 68.5882 184.339 68.3929 184.367C68.1976 184.392 68.0342 184.413 67.9028 184.431C67.5939 184.47 67.3116 184.536 67.0559 184.628C66.8038 184.721 66.6013 184.854 66.4486 185.028C66.2995 185.198 66.2249 185.425 66.2249 185.71C66.2249 186.104 66.3705 186.402 66.6617 186.604C66.9529 186.803 67.324 186.903 67.775 186.903Z" fill="#64778C"/>
<circle cx="164" cy="159" r="8" fill="url(#paint2_linear_1659_16187)"/>
<path d="M247.5 23L229.5 161.5" stroke="url(#paint3_linear_1659_16187)"/>
<path d="M315.5 134L244.5 171" stroke="url(#paint4_linear_1659_16187)"/>
<path d="M303 55.5L238.5 165" stroke="url(#paint5_linear_1659_16187)"/>
<path d="M152.5 161L213.001 174.999" stroke="url(#paint6_linear_1659_16187)"/>
<path d="M153 91.5L216 167" stroke="url(#paint7_linear_1659_16187)"/>
<path d="M170.216 8.81818V10.3097H165.38V8.81818H170.216ZM166.589 17V8.04581C166.589 7.49538 166.702 7.03729 166.93 6.67152C167.16 6.30575 167.469 6.03232 167.856 5.85121C168.244 5.6701 168.673 5.57954 169.146 5.57954C169.479 5.57954 169.776 5.60618 170.035 5.65945C170.294 5.71271 170.486 5.76065 170.61 5.80327L170.227 7.29474C170.145 7.26989 170.042 7.24503 169.918 7.22017C169.794 7.19176 169.655 7.17756 169.502 7.17756C169.144 7.17756 168.89 7.26456 168.741 7.43857C168.595 7.60902 168.522 7.85405 168.522 8.17365V17H166.589ZM177.391 13.5589V8.81818H179.319V17H177.45V15.5458H177.365C177.18 16.0039 176.876 16.3786 176.454 16.6697C176.035 16.9609 175.518 17.1065 174.904 17.1065C174.367 17.1065 173.893 16.9876 173.481 16.7496C173.073 16.5082 172.753 16.1584 172.523 15.7003C172.292 15.2386 172.176 14.6811 172.176 14.0277V8.81818H174.105V13.7294C174.105 14.2479 174.247 14.6598 174.531 14.9652C174.815 15.2706 175.188 15.4233 175.649 15.4233C175.933 15.4233 176.209 15.354 176.475 15.2156C176.741 15.0771 176.96 14.8711 177.13 14.5977C177.304 14.3207 177.391 13.9744 177.391 13.5589ZM183.681 6.09091V17H181.752V6.09091H183.681ZM188.042 6.09091V17H186.113V6.09091H188.042ZM199.525 6.09091V17H197.767L192.627 9.56925H192.536V17H190.56V6.09091H192.328L197.463 13.527H197.559V6.09091H199.525ZM204.397 17.1651C203.879 17.1651 203.412 17.0728 202.996 16.8881C202.584 16.6999 202.258 16.4229 202.016 16.0572C201.778 15.6914 201.659 15.2404 201.659 14.7042C201.659 14.2425 201.744 13.8608 201.915 13.5589C202.085 13.2571 202.318 13.0156 202.613 12.8345C202.907 12.6534 203.239 12.5167 203.609 12.4244C203.982 12.3285 204.367 12.2592 204.765 12.2166C205.244 12.1669 205.633 12.1225 205.931 12.0835C206.23 12.0408 206.446 11.9769 206.581 11.8917C206.72 11.8029 206.789 11.6662 206.789 11.4815V11.4496C206.789 11.0483 206.67 10.7376 206.432 10.5174C206.194 10.2972 205.851 10.1871 205.404 10.1871C204.932 10.1871 204.557 10.2901 204.28 10.4961C204.006 10.7021 203.822 10.9453 203.726 11.2259L201.926 10.9702C202.068 10.473 202.302 10.0575 202.629 9.72372C202.955 9.38636 203.355 9.13423 203.827 8.96733C204.299 8.79688 204.821 8.71165 205.393 8.71165C205.787 8.71165 206.18 8.75781 206.57 8.85014C206.961 8.94247 207.318 9.09517 207.641 9.30824C207.964 9.51776 208.223 9.80362 208.419 10.1658C208.618 10.5281 208.717 10.9808 208.717 11.5241V17H206.863V15.8761H206.799C206.682 16.1033 206.517 16.3164 206.304 16.5153C206.095 16.7106 205.83 16.8686 205.51 16.9893C205.194 17.1065 204.823 17.1651 204.397 17.1651ZM204.898 15.7482C205.285 15.7482 205.62 15.6719 205.905 15.5192C206.189 15.3629 206.407 15.157 206.56 14.9013C206.716 14.6456 206.794 14.3668 206.794 14.065V13.1009C206.734 13.1506 206.631 13.1967 206.485 13.2393C206.343 13.282 206.183 13.3192 206.006 13.3512C205.828 13.3832 205.652 13.4116 205.478 13.4364C205.304 13.4613 205.154 13.4826 205.026 13.5004C204.738 13.5394 204.481 13.6033 204.253 13.6921C204.026 13.7809 203.847 13.9052 203.715 14.065C203.584 14.2212 203.518 14.4237 203.518 14.6722C203.518 15.0273 203.648 15.2955 203.907 15.4766C204.166 15.6577 204.497 15.7482 204.898 15.7482ZM211.106 17V8.81818H212.949V10.2085H213.045C213.215 9.7397 213.498 9.37393 213.892 9.11115C214.286 8.84482 214.757 8.71165 215.303 8.71165C215.857 8.71165 216.324 8.84659 216.704 9.11648C217.088 9.38281 217.358 9.7468 217.514 10.2085H217.599C217.78 9.75391 218.086 9.39169 218.515 9.1218C218.949 8.84837 219.462 8.71165 220.055 8.71165C220.808 8.71165 221.422 8.94957 221.898 9.42543C222.374 9.90128 222.612 10.5955 222.612 11.5082V17H220.678V11.8065C220.678 11.2987 220.543 10.9276 220.273 10.6932C220.003 10.4553 219.673 10.3363 219.282 10.3363C218.817 10.3363 218.453 10.4819 218.191 10.7731C217.931 11.0607 217.802 11.4354 217.802 11.897V17H215.911V11.7266C215.911 11.304 215.783 10.9666 215.527 10.7145C215.275 10.4624 214.945 10.3363 214.536 10.3363C214.259 10.3363 214.007 10.4073 213.78 10.5494C213.553 10.6879 213.372 10.8849 213.237 11.1406C213.102 11.3928 213.034 11.6875 213.034 12.0249V17H211.106ZM228.64 17.1598C227.82 17.1598 227.111 16.9893 226.515 16.6484C225.922 16.304 225.465 15.8175 225.146 15.1889C224.826 14.5568 224.666 13.8129 224.666 12.957C224.666 12.1154 224.826 11.3768 225.146 10.7411C225.469 10.1019 225.92 9.60476 226.499 9.24964C227.078 8.89098 227.758 8.71165 228.539 8.71165C229.043 8.71165 229.519 8.79332 229.966 8.95668C230.417 9.11648 230.815 9.36506 231.16 9.70241C231.508 10.0398 231.781 10.4695 231.98 10.9915C232.179 11.5099 232.278 12.1278 232.278 12.8452V13.4364H225.572V12.1367H230.43C230.426 11.7674 230.346 11.4389 230.19 11.1513C230.034 10.8601 229.816 10.631 229.535 10.4641C229.258 10.2972 228.935 10.2138 228.566 10.2138C228.171 10.2138 227.825 10.3097 227.527 10.5014C227.228 10.6896 226.996 10.9382 226.829 11.2472C226.666 11.5526 226.582 11.8881 226.579 12.2539V13.3885C226.579 13.8643 226.666 14.2727 226.84 14.6136C227.014 14.951 227.257 15.2102 227.569 15.3913C227.882 15.5689 228.248 15.6577 228.667 15.6577C228.947 15.6577 229.201 15.6186 229.428 15.5405C229.656 15.4588 229.853 15.3398 230.02 15.1836C230.187 15.0273 230.313 14.8338 230.398 14.603L232.198 14.8054C232.085 15.2812 231.868 15.6967 231.548 16.0518C231.232 16.4034 230.828 16.6768 230.334 16.8722C229.84 17.0639 229.276 17.1598 228.64 17.1598Z" fill="#6048E5"/>
<path d="M137.564 30.0909H139.561L143.034 38.571H143.162L146.635 30.0909H148.633V41H147.067V33.1058H146.965L143.748 40.984H142.448L139.231 33.1005H139.13V41H137.564V30.0909ZM153.279 41.1811C152.76 41.1811 152.292 41.0852 151.873 40.8935C151.454 40.6982 151.122 40.4158 150.877 40.0465C150.635 39.6772 150.514 39.2244 150.514 38.6882C150.514 38.2266 150.603 37.8466 150.781 37.5483C150.958 37.25 151.198 37.0138 151.5 36.8398C151.802 36.6658 152.139 36.5344 152.512 36.4457C152.885 36.3569 153.265 36.2894 153.652 36.2433C154.142 36.1864 154.54 36.1403 154.845 36.1048C155.15 36.0657 155.372 36.0036 155.511 35.9183C155.649 35.8331 155.718 35.6946 155.718 35.5028V35.4656C155.718 35.0004 155.587 34.6399 155.324 34.3842C155.065 34.1286 154.678 34.0007 154.163 34.0007C153.627 34.0007 153.204 34.1197 152.895 34.3576C152.59 34.592 152.379 34.853 152.261 35.1406L150.765 34.7997C150.942 34.3026 151.201 33.9013 151.542 33.5959C151.887 33.2869 152.283 33.0632 152.73 32.9247C153.178 32.7827 153.648 32.7116 154.142 32.7116C154.468 32.7116 154.815 32.7507 155.18 32.8288C155.55 32.9034 155.894 33.0419 156.214 33.2443C156.537 33.4467 156.802 33.7362 157.008 34.1126C157.214 34.4854 157.316 34.9702 157.316 35.5668V41H155.761V39.8814H155.697C155.594 40.0874 155.44 40.2898 155.234 40.4886C155.028 40.6875 154.763 40.8526 154.44 40.984C154.117 41.1154 153.73 41.1811 153.279 41.1811ZM153.625 39.9027C154.065 39.9027 154.442 39.8157 154.754 39.6417C155.07 39.4677 155.31 39.2404 155.473 38.9599C155.64 38.6758 155.724 38.3722 155.724 38.049V36.9943C155.667 37.0511 155.557 37.1044 155.394 37.1541C155.234 37.2003 155.051 37.2411 154.845 37.2766C154.639 37.3086 154.438 37.3388 154.243 37.3672C154.048 37.392 153.884 37.4134 153.753 37.4311C153.444 37.4702 153.162 37.5359 152.906 37.6282C152.654 37.7205 152.451 37.8537 152.299 38.0277C152.15 38.1982 152.075 38.4254 152.075 38.7095C152.075 39.1037 152.221 39.402 152.512 39.6044C152.803 39.8033 153.174 39.9027 153.625 39.9027ZM159.438 41V32.8182H160.977V34.1179H161.062C161.212 33.6776 161.474 33.3313 161.851 33.0792C162.231 32.8235 162.661 32.6957 163.14 32.6957C163.239 32.6957 163.357 32.6992 163.491 32.7063C163.63 32.7134 163.738 32.7223 163.816 32.733V34.2564C163.752 34.2386 163.639 34.2191 163.475 34.1978C163.312 34.1729 163.149 34.1605 162.985 34.1605C162.609 34.1605 162.273 34.2404 161.979 34.4002C161.688 34.5565 161.457 34.7749 161.286 35.0554C161.116 35.3324 161.031 35.6484 161.031 36.0036V41H159.438ZM165.195 41V32.8182H166.787V41H165.195ZM165.999 31.5558C165.722 31.5558 165.484 31.4634 165.285 31.2788C165.09 31.0906 164.992 30.8668 164.992 30.6076C164.992 30.3448 165.09 30.1211 165.285 29.9364C165.484 29.7482 165.722 29.6541 165.999 29.6541C166.276 29.6541 166.512 29.7482 166.707 29.9364C166.906 30.1211 167.006 30.3448 167.006 30.6076C167.006 30.8668 166.906 31.0906 166.707 31.2788C166.512 31.4634 166.276 31.5558 165.999 31.5558ZM171.311 41.1811C170.793 41.1811 170.324 41.0852 169.905 40.8935C169.486 40.6982 169.154 40.4158 168.909 40.0465C168.667 39.6772 168.547 39.2244 168.547 38.6882C168.547 38.2266 168.635 37.8466 168.813 37.5483C168.99 37.25 169.23 37.0138 169.532 36.8398C169.834 36.6658 170.171 36.5344 170.544 36.4457C170.917 36.3569 171.297 36.2894 171.684 36.2433C172.174 36.1864 172.572 36.1403 172.877 36.1048C173.183 36.0657 173.404 36.0036 173.543 35.9183C173.681 35.8331 173.751 35.6946 173.751 35.5028V35.4656C173.751 35.0004 173.619 34.6399 173.357 34.3842C173.097 34.1286 172.71 34.0007 172.195 34.0007C171.659 34.0007 171.237 34.1197 170.928 34.3576C170.622 34.592 170.411 34.853 170.294 35.1406L168.797 34.7997C168.974 34.3026 169.234 33.9013 169.575 33.5959C169.919 33.2869 170.315 33.0632 170.762 32.9247C171.21 32.7827 171.68 32.7116 172.174 32.7116C172.501 32.7116 172.847 32.7507 173.213 32.8288C173.582 32.9034 173.926 33.0419 174.246 33.2443C174.569 33.4467 174.834 33.7362 175.04 34.1126C175.246 34.4854 175.349 34.9702 175.349 35.5668V41H173.793V39.8814H173.729C173.626 40.0874 173.472 40.2898 173.266 40.4886C173.06 40.6875 172.795 40.8526 172.472 40.984C172.149 41.1154 171.762 41.1811 171.311 41.1811ZM171.657 39.9027C172.098 39.9027 172.474 39.8157 172.787 39.6417C173.103 39.4677 173.342 39.2404 173.506 38.9599C173.673 38.6758 173.756 38.3722 173.756 38.049V36.9943C173.699 37.0511 173.589 37.1044 173.426 37.1541C173.266 37.2003 173.083 37.2411 172.877 37.2766C172.671 37.3086 172.471 37.3388 172.275 37.3672C172.08 37.392 171.917 37.4134 171.785 37.4311C171.476 37.4702 171.194 37.5359 170.938 37.6282C170.686 37.7205 170.484 37.8537 170.331 38.0277C170.182 38.1982 170.107 38.4254 170.107 38.7095C170.107 39.1037 170.253 39.402 170.544 39.6044C170.835 39.8033 171.206 39.9027 171.657 39.9027ZM181.568 30.0909H183.565L187.038 38.571H187.166L190.639 30.0909H192.637V41H191.07V33.1058H190.969L187.752 40.984H186.452L183.235 33.1005H183.134V41H181.568V30.0909ZM197.283 41.1811C196.764 41.1811 196.296 41.0852 195.877 40.8935C195.457 40.6982 195.125 40.4158 194.88 40.0465C194.639 39.6772 194.518 39.2244 194.518 38.6882C194.518 38.2266 194.607 37.8466 194.785 37.5483C194.962 37.25 195.202 37.0138 195.504 36.8398C195.805 36.6658 196.143 36.5344 196.516 36.4457C196.889 36.3569 197.269 36.2894 197.656 36.2433C198.146 36.1864 198.543 36.1403 198.849 36.1048C199.154 36.0657 199.376 36.0036 199.515 35.9183C199.653 35.8331 199.722 35.6946 199.722 35.5028V35.4656C199.722 35.0004 199.591 34.6399 199.328 34.3842C199.069 34.1286 198.682 34.0007 198.167 34.0007C197.631 34.0007 197.208 34.1197 196.899 34.3576C196.594 34.592 196.383 34.853 196.265 35.1406L194.769 34.7997C194.946 34.3026 195.205 33.9013 195.546 33.5959C195.891 33.2869 196.287 33.0632 196.734 32.9247C197.182 32.7827 197.652 32.7116 198.146 32.7116C198.472 32.7116 198.819 32.7507 199.184 32.8288C199.554 32.9034 199.898 33.0419 200.218 33.2443C200.541 33.4467 200.805 33.7362 201.011 34.1126C201.217 34.4854 201.32 34.9702 201.32 35.5668V41H199.765V39.8814H199.701C199.598 40.0874 199.444 40.2898 199.238 40.4886C199.032 40.6875 198.767 40.8526 198.444 40.984C198.121 41.1154 197.734 41.1811 197.283 41.1811ZM197.629 39.9027C198.069 39.9027 198.446 39.8157 198.758 39.6417C199.074 39.4677 199.314 39.2404 199.477 38.9599C199.644 38.6758 199.728 38.3722 199.728 38.049V36.9943C199.671 37.0511 199.561 37.1044 199.397 37.1541C199.238 37.2003 199.055 37.2411 198.849 37.2766C198.643 37.3086 198.442 37.3388 198.247 37.3672C198.052 37.392 197.888 37.4134 197.757 37.4311C197.448 37.4702 197.166 37.5359 196.91 37.6282C196.658 37.7205 196.455 37.8537 196.303 38.0277C196.153 38.1982 196.079 38.4254 196.079 38.7095C196.079 39.1037 196.225 39.402 196.516 39.6044C196.807 39.8033 197.178 39.9027 197.629 39.9027ZM205.034 36.142V41H203.442V30.0909H205.013V34.1499H205.114C205.306 33.7095 205.599 33.3597 205.993 33.1005C206.387 32.8413 206.902 32.7116 207.538 32.7116C208.099 32.7116 208.589 32.8271 209.008 33.0579C209.431 33.2887 209.757 33.6332 209.988 34.0913C210.223 34.5458 210.34 35.114 210.34 35.7958V41H208.747V35.9876C208.747 35.3874 208.593 34.9222 208.284 34.592C207.975 34.2582 207.545 34.0913 206.995 34.0913C206.618 34.0913 206.281 34.1712 205.983 34.331C205.688 34.4908 205.455 34.7251 205.285 35.0341C205.118 35.3395 205.034 35.7088 205.034 36.142ZM214.846 41.1811C214.328 41.1811 213.859 41.0852 213.44 40.8935C213.021 40.6982 212.689 40.4158 212.444 40.0465C212.202 39.6772 212.082 39.2244 212.082 38.6882C212.082 38.2266 212.17 37.8466 212.348 37.5483C212.526 37.25 212.765 37.0138 213.067 36.8398C213.369 36.6658 213.706 36.5344 214.079 36.4457C214.452 36.3569 214.832 36.2894 215.219 36.2433C215.709 36.1864 216.107 36.1403 216.412 36.1048C216.718 36.0657 216.94 36.0036 217.078 35.9183C217.217 35.8331 217.286 35.6946 217.286 35.5028V35.4656C217.286 35.0004 217.154 34.6399 216.892 34.3842C216.632 34.1286 216.245 34.0007 215.73 34.0007C215.194 34.0007 214.772 34.1197 214.463 34.3576C214.157 34.592 213.946 34.853 213.829 35.1406L212.332 34.7997C212.51 34.3026 212.769 33.9013 213.11 33.5959C213.454 33.2869 213.85 33.0632 214.298 32.9247C214.745 32.7827 215.216 32.7116 215.709 32.7116C216.036 32.7116 216.382 32.7507 216.748 32.8288C217.117 32.9034 217.462 33.0419 217.781 33.2443C218.104 33.4467 218.369 33.7362 218.575 34.1126C218.781 34.4854 218.884 34.9702 218.884 35.5668V41H217.328V39.8814H217.265C217.162 40.0874 217.007 40.2898 216.801 40.4886C216.595 40.6875 216.331 40.8526 216.007 40.984C215.684 41.1154 215.297 41.1811 214.846 41.1811ZM215.192 39.9027C215.633 39.9027 216.009 39.8157 216.322 39.6417C216.638 39.4677 216.877 39.2404 217.041 38.9599C217.208 38.6758 217.291 38.3722 217.291 38.049V36.9943C217.234 37.0511 217.124 37.1044 216.961 37.1541C216.801 37.2003 216.618 37.2411 216.412 37.2766C216.206 37.3086 216.006 37.3388 215.81 37.3672C215.615 37.392 215.452 37.4134 215.32 37.4311C215.011 37.4702 214.729 37.5359 214.473 37.6282C214.221 37.7205 214.019 37.8537 213.866 38.0277C213.717 38.1982 213.642 38.4254 213.642 38.7095C213.642 39.1037 213.788 39.402 214.079 39.6044C214.37 39.8033 214.741 39.9027 215.192 39.9027ZM222.598 36.142V41H221.005V32.8182H222.534V34.1499H222.635C222.823 33.7166 223.118 33.3686 223.519 33.1058C223.924 32.843 224.434 32.7116 225.048 32.7116C225.606 32.7116 226.094 32.8288 226.513 33.0632C226.932 33.294 227.257 33.6385 227.488 34.0966C227.719 34.5547 227.834 35.1211 227.834 35.7958V41H226.241V35.9876C226.241 35.3945 226.087 34.9311 225.778 34.5973C225.469 34.2599 225.045 34.0913 224.505 34.0913C224.136 34.0913 223.807 34.1712 223.519 34.331C223.235 34.4908 223.01 34.7251 222.843 35.0341C222.68 35.3395 222.598 35.7088 222.598 36.142ZM229.97 41V32.8182H231.563V41H229.97ZM230.774 31.5558C230.497 31.5558 230.259 31.4634 230.061 31.2788C229.865 31.0906 229.768 30.8668 229.768 30.6076C229.768 30.3448 229.865 30.1211 230.061 29.9364C230.259 29.7482 230.497 29.6541 230.774 29.6541C231.051 29.6541 231.288 29.7482 231.483 29.9364C231.682 30.1211 231.781 30.3448 231.781 30.6076C231.781 30.8668 231.682 31.0906 231.483 31.2788C231.288 31.4634 231.051 31.5558 230.774 31.5558Z" fill="#64778C"/>
<circle cx="249" cy="12" r="8" fill="url(#paint8_linear_1659_16187)"/>
<circle cx="322" cy="129" r="8" fill="url(#paint9_linear_1659_16187)"/>
<path d="M339.046 137.068H340.974V132.711H341.054C341.358 133.308 341.992 134.144 343.398 134.144C345.326 134.144 346.77 132.615 346.77 129.92C346.77 127.192 345.284 125.712 343.393 125.712C341.949 125.712 341.347 126.58 341.054 127.171H340.942V125.818H339.046V137.068ZM340.937 129.909C340.937 128.322 341.619 127.294 342.86 127.294C344.144 127.294 344.804 128.386 344.804 129.909C344.804 131.443 344.133 132.562 342.86 132.562C341.63 132.562 340.937 131.496 340.937 129.909ZM348.871 134H350.799V129.19C350.799 128.151 351.582 127.416 352.642 127.416C352.967 127.416 353.372 127.475 353.537 127.528V125.754C353.362 125.722 353.058 125.701 352.845 125.701C351.907 125.701 351.124 126.234 350.826 127.182H350.741V125.818H348.871V134ZM358.5 134.16C360.897 134.16 362.421 132.471 362.421 129.941C362.421 127.406 360.897 125.712 358.5 125.712C356.103 125.712 354.58 127.406 354.58 129.941C354.58 132.471 356.103 134.16 358.5 134.16ZM358.511 132.615C357.185 132.615 356.535 131.433 356.535 129.936C356.535 128.439 357.185 127.24 358.511 127.24C359.816 127.24 360.466 128.439 360.466 129.936C360.466 131.433 359.816 132.615 358.511 132.615ZM368.652 125.818H366.952V125.174C366.952 124.534 367.219 124.178 367.938 124.178C368.241 124.178 368.497 124.247 368.657 124.295L369.046 122.803C368.795 122.718 368.247 122.58 367.581 122.58C366.159 122.58 365.024 123.395 365.024 125.046V125.818H363.815V127.31H365.024V134H366.952V127.31H368.652V125.818ZM370.612 134H372.54V125.818H370.612V134ZM371.581 124.657C372.194 124.657 372.695 124.188 372.695 123.613C372.695 123.032 372.194 122.564 371.581 122.564C370.963 122.564 370.463 123.032 370.463 123.613C370.463 124.188 370.963 124.657 371.581 124.657ZM376.901 123.091H374.973V134H376.901V123.091ZM382.956 134.16C384.863 134.16 386.174 133.228 386.514 131.805L384.714 131.603C384.453 132.295 383.814 132.658 382.983 132.658C381.736 132.658 380.911 131.837 380.895 130.436H386.594V129.845C386.594 126.974 384.868 125.712 382.855 125.712C380.511 125.712 378.982 127.432 378.982 129.957C378.982 132.525 380.49 134.16 382.956 134.16ZM380.9 129.137C380.959 128.093 381.731 127.214 382.882 127.214C383.99 127.214 384.735 128.023 384.746 129.137H380.9ZM392.458 134C395.781 134 397.752 131.944 397.752 128.535C397.752 125.136 395.781 123.091 392.532 123.091H388.761V134H392.458ZM390.737 132.29V124.801H392.42C394.636 124.801 395.792 126.037 395.792 128.535C395.792 131.044 394.636 132.29 392.362 132.29H390.737ZM403.617 134.16C405.524 134.16 406.834 133.228 407.175 131.805L405.375 131.603C405.114 132.295 404.475 132.658 403.644 132.658C402.397 132.658 401.571 131.837 401.555 130.436H407.255V129.845C407.255 126.974 405.529 125.712 403.516 125.712C401.172 125.712 399.643 127.432 399.643 129.957C399.643 132.525 401.151 134.16 403.617 134.16ZM401.561 129.137C401.619 128.093 402.392 127.214 403.542 127.214C404.65 127.214 405.396 128.023 405.407 129.137H401.561ZM415.803 127.981C415.537 126.596 414.429 125.712 412.511 125.712C410.54 125.712 409.198 126.681 409.203 128.194C409.198 129.387 409.933 130.175 411.504 130.5L412.9 130.793C413.651 130.958 414.003 131.262 414.003 131.725C414.003 132.285 413.395 132.706 412.479 132.706C411.595 132.706 411.02 132.322 410.854 131.587L408.974 131.768C409.214 133.27 410.476 134.16 412.484 134.16C414.53 134.16 415.973 133.1 415.979 131.55C415.973 130.383 415.222 129.669 413.678 129.334L412.282 129.036C411.451 128.849 411.121 128.561 411.126 128.087C411.121 127.533 411.733 127.15 412.538 127.15C413.427 127.15 413.896 127.635 414.045 128.173L415.803 127.981ZM421.588 134.16C423.644 134.16 424.954 132.94 425.093 131.203H423.25C423.084 132.082 422.451 132.588 421.604 132.588C420.4 132.588 419.622 131.582 419.622 129.909C419.622 128.258 420.416 127.267 421.604 127.267C422.531 127.267 423.1 127.864 423.25 128.652H425.093C424.959 126.878 423.575 125.712 421.577 125.712C419.18 125.712 417.667 127.443 417.667 129.941C417.667 132.418 419.143 134.16 421.588 134.16ZM427.126 134H429.054V129.19C429.054 128.151 429.837 127.416 430.897 127.416C431.222 127.416 431.627 127.475 431.792 127.528V125.754C431.616 125.722 431.313 125.701 431.1 125.701C430.162 125.701 429.379 126.234 429.081 127.182H428.996V125.818H427.126V134ZM433.523 134H435.452V125.818H433.523V134ZM434.493 124.657C435.105 124.657 435.606 124.188 435.606 123.613C435.606 123.032 435.105 122.564 434.493 122.564C433.875 122.564 433.374 123.032 433.374 123.613C433.374 124.188 433.875 124.657 434.493 124.657ZM437.884 137.068H439.813V132.711H439.893C440.196 133.308 440.83 134.144 442.236 134.144C444.165 134.144 445.608 132.615 445.608 129.92C445.608 127.192 444.122 125.712 442.231 125.712C440.787 125.712 440.186 126.58 439.893 127.171H439.781V125.818H437.884V137.068ZM439.775 129.909C439.775 128.322 440.457 127.294 441.698 127.294C442.982 127.294 443.643 128.386 443.643 129.909C443.643 131.443 442.971 132.562 441.698 132.562C440.468 132.562 439.775 131.496 439.775 129.909ZM451.795 125.818H450.181V123.858H448.253V125.818H447.092V127.31H448.253V131.859C448.242 133.398 449.361 134.154 450.81 134.112C451.358 134.096 451.736 133.989 451.944 133.92L451.619 132.413C451.513 132.439 451.294 132.487 451.055 132.487C450.57 132.487 450.181 132.317 450.181 131.539V127.31H451.795V125.818ZM453.858 134H455.786V125.818H453.858V134ZM454.827 124.657C455.44 124.657 455.94 124.188 455.94 123.613C455.94 123.032 455.44 122.564 454.827 122.564C454.209 122.564 453.709 123.032 453.709 123.613C453.709 124.188 454.209 124.657 454.827 124.657ZM461.788 134.16C464.185 134.16 465.708 132.471 465.708 129.941C465.708 127.406 464.185 125.712 461.788 125.712C459.391 125.712 457.867 127.406 457.867 129.941C457.867 132.471 459.391 134.16 461.788 134.16ZM461.798 132.615C460.472 132.615 459.822 131.433 459.822 129.936C459.822 128.439 460.472 127.24 461.798 127.24C463.103 127.24 463.753 128.439 463.753 129.936C463.753 131.433 463.103 132.615 461.798 132.615ZM469.723 129.206C469.723 128.023 470.437 127.342 471.454 127.342C472.45 127.342 473.047 127.997 473.047 129.089V134H474.975V128.79C474.98 126.83 473.862 125.712 472.173 125.712C470.948 125.712 470.107 126.298 469.734 127.208H469.638V125.818H467.795V134H469.723V129.206Z" fill="#6048E5"/>
<path d="M339.039 150.5H340.402V149.461C340.402 148.657 340.754 147.98 341.185 147.347L340.397 146.782C339.582 147.437 339.039 148.572 339.039 149.477V150.5ZM341.755 150.5H343.119V149.461C343.119 148.657 343.47 147.98 343.902 147.347L343.114 146.782C342.299 147.437 341.755 148.572 341.755 149.477V150.5ZM345.399 147.091V158H346.965V150.1H347.066L350.283 157.984H351.583L354.8 150.106H354.902V158H356.468V147.091H354.47L350.997 155.571H350.869L347.396 147.091H345.399ZM359.74 161.068C361.055 161.068 361.886 160.381 362.36 159.092L365.743 149.834L364.022 149.818L361.95 156.168H361.865L359.793 149.818H358.088L361.082 158.107L360.885 158.65C360.48 159.737 359.91 159.827 359.036 159.587L358.653 160.892C358.845 160.978 359.26 161.068 359.74 161.068ZM372.987 158H374.606L376.268 152.093H376.391L378.053 158H379.677L382.08 149.818H380.434L378.841 155.8H378.761L377.163 149.818H375.517L373.909 155.827H373.829L372.225 149.818H370.579L372.987 158ZM386.789 158.165C389.095 158.165 390.602 156.477 390.602 153.946C390.602 151.4 389.095 149.712 386.789 149.712C384.482 149.712 382.975 151.4 382.975 153.946C382.975 156.477 384.482 158.165 386.789 158.165ZM386.794 156.828C385.286 156.828 384.583 155.512 384.583 153.941C384.583 152.375 385.286 151.043 386.794 151.043C388.291 151.043 388.994 152.375 388.994 153.941C388.994 155.512 388.291 156.828 386.794 156.828ZM392.38 158H393.973V153.004C393.973 151.933 394.799 151.161 395.928 151.161C396.258 151.161 396.631 151.219 396.759 151.256V149.733C396.599 149.712 396.285 149.696 396.082 149.696C395.123 149.696 394.303 150.239 394.005 151.118H393.92V149.818H392.38V158ZM398.137 158H399.73V155.097L400.523 154.303L403.304 158H405.259L401.722 153.328L405.035 149.818H403.128L399.868 153.281H399.73V147.091H398.137V158ZM406.487 158H408.079V149.818H406.487V158ZM407.291 148.556C407.84 148.556 408.298 148.13 408.298 147.608C408.298 147.086 407.84 146.654 407.291 146.654C406.737 146.654 406.284 147.086 406.284 147.608C406.284 148.13 406.737 148.556 407.291 148.556ZM411.815 153.142C411.815 151.837 412.614 151.091 413.722 151.091C414.803 151.091 415.458 151.8 415.458 152.988V158H417.051V152.796C417.051 150.772 415.938 149.712 414.265 149.712C413.035 149.712 412.23 150.282 411.852 151.15H411.751V149.818H410.222V158H411.815V153.142ZM422.617 161.239C424.7 161.239 426.309 160.285 426.309 158.181V149.818H424.748V151.145H424.631C424.348 150.638 423.784 149.712 422.26 149.712C420.284 149.712 418.83 151.272 418.83 153.877C418.83 156.487 420.316 157.877 422.25 157.877C423.752 157.877 424.332 157.031 424.62 156.509H424.721V158.117C424.721 159.401 423.842 159.955 422.633 159.955C421.307 159.955 420.79 159.289 420.508 158.82L419.139 159.385C419.57 160.386 420.662 161.239 422.617 161.239ZM422.601 156.556C421.179 156.556 420.439 155.464 420.439 153.856C420.439 152.284 421.163 151.065 422.601 151.065C423.992 151.065 424.737 152.199 424.737 153.856C424.737 155.544 423.976 156.556 422.601 156.556ZM434.007 153.142C434.007 151.837 434.833 151.091 435.967 151.091C437.065 151.091 437.72 151.789 437.72 152.988V158H439.312V152.796C439.312 150.756 438.194 149.712 436.511 149.712C435.238 149.712 434.471 150.266 434.087 151.15H433.986V147.091H432.414V158H434.007V153.142ZM444.884 158.165C447.191 158.165 448.698 156.477 448.698 153.946C448.698 151.4 447.191 149.712 444.884 149.712C442.578 149.712 441.07 151.4 441.07 153.946C441.07 156.477 442.578 158.165 444.884 158.165ZM444.89 156.828C443.382 156.828 442.679 155.512 442.679 153.941C442.679 152.375 443.382 151.043 444.89 151.043C446.386 151.043 447.089 152.375 447.089 153.941C447.089 155.512 446.386 156.828 444.89 156.828ZM455.659 154.607C455.664 155.997 454.631 156.658 453.736 156.658C452.75 156.658 452.069 155.944 452.069 154.831V149.818H450.476V155.022C450.476 157.052 451.589 158.107 453.161 158.107C454.391 158.107 455.227 157.457 455.606 156.583H455.691V158H457.257V149.818H455.659V154.607ZM459.397 158H460.99V153.004C460.99 151.933 461.815 151.161 462.944 151.161C463.275 151.161 463.648 151.219 463.775 151.256V149.733C463.616 149.712 463.301 149.696 463.099 149.696C462.14 149.696 461.32 150.239 461.021 151.118H460.936V149.818H459.397V158ZM471.285 151.816C470.954 150.543 469.958 149.712 468.19 149.712C466.342 149.712 465.031 150.686 465.031 152.135C465.031 153.297 465.734 154.069 467.268 154.41L468.653 154.713C469.442 154.889 469.809 155.241 469.809 155.752C469.809 156.386 469.133 156.881 468.089 156.881C467.135 156.881 466.523 156.471 466.331 155.667L464.791 155.901C465.058 157.35 466.262 158.165 468.099 158.165C470.076 158.165 471.445 157.116 471.445 155.635C471.445 154.479 470.709 153.765 469.207 153.419L467.908 153.121C467.007 152.908 466.619 152.604 466.624 152.05C466.619 151.422 467.3 150.974 468.206 150.974C469.197 150.974 469.655 151.523 469.841 152.071L471.285 151.816ZM474.245 158.101C474.826 158.101 475.31 157.627 475.31 157.036C475.31 156.455 474.826 155.976 474.245 155.976C473.659 155.976 473.18 156.455 473.18 157.036C473.18 157.627 473.659 158.101 474.245 158.101ZM478.493 158.101C479.074 158.101 479.558 157.627 479.558 157.036C479.558 156.455 479.074 155.976 478.493 155.976C477.907 155.976 477.428 156.455 477.428 157.036C477.428 157.627 477.907 158.101 478.493 158.101ZM482.741 158.101C483.322 158.101 483.806 157.627 483.806 157.036C483.806 156.455 483.322 155.976 482.741 155.976C482.155 155.976 481.676 156.455 481.676 157.036C481.676 157.627 482.155 158.101 482.741 158.101ZM486.239 147.091H484.876V148.13C484.876 148.955 484.514 149.632 484.098 150.244L484.886 150.809C485.707 150.148 486.239 149.019 486.239 148.114V147.091ZM488.951 147.091H487.587V148.13C487.587 148.955 487.225 149.632 486.809 150.244L487.598 150.809C488.418 150.148 488.951 149.019 488.951 148.114V147.091Z" fill="#64778C"/>
<line x1="229.5" y1="228" x2="229.5" y2="298" stroke="url(#paint10_linear_1659_16187)"/>
<circle opacity="0.05" cx="229" cy="179" r="88.5" stroke="#6048E5"/>
<circle opacity="0.3" cx="229" cy="179" r="15" stroke="#6048E5" stroke-width="2"/>
<circle cx="229" cy="179" r="9" fill="url(#paint11_linear_1659_16187)"/>
<path d="M198.453 215H200.429V211.314H202.517C205.037 211.314 206.39 209.801 206.39 207.702C206.39 205.62 205.053 204.091 202.544 204.091H198.453V215ZM200.429 209.689V205.742H202.24C203.721 205.742 204.376 206.541 204.376 207.702C204.376 208.864 203.721 209.689 202.251 209.689H200.429ZM208.556 215H215.694V213.343H210.532V210.366H215.284V208.709H210.532V205.748H215.651V204.091H208.556V215ZM218.118 215H220.094V211.005H222.107L224.249 215H226.454L224.094 210.675C225.378 210.158 226.054 209.061 226.054 207.58C226.054 205.497 224.712 204.091 222.209 204.091H218.118V215ZM220.094 209.364V205.742H221.905C223.38 205.742 224.041 206.419 224.041 207.58C224.041 208.741 223.38 209.364 221.916 209.364H220.094ZM234.252 207.09H236.154C236.116 205.247 234.545 203.942 232.223 203.942C229.932 203.942 228.212 205.231 228.217 207.159C228.217 208.725 229.33 209.625 231.125 210.089L232.366 210.408C233.544 210.707 234.321 211.074 234.327 211.921C234.321 212.853 233.437 213.477 232.148 213.477C230.912 213.477 229.953 212.923 229.874 211.777H227.929C228.009 213.945 229.623 215.165 232.164 215.165C234.779 215.165 236.298 213.86 236.303 211.937C236.298 210.046 234.737 209.183 233.096 208.794L232.073 208.539C231.179 208.326 230.209 207.947 230.22 207.037C230.225 206.216 230.96 205.614 232.196 205.614C233.373 205.614 234.151 206.163 234.252 207.09ZM248.263 209.545C248.263 206.019 246.111 203.942 243.25 203.942C240.384 203.942 238.238 206.019 238.238 209.545C238.238 213.066 240.384 215.149 243.25 215.149C246.111 215.149 248.263 213.072 248.263 209.545ZM246.276 209.545C246.276 212.028 245.029 213.375 243.25 213.375C241.476 213.375 240.225 212.028 240.225 209.545C240.225 207.063 241.476 205.716 243.25 205.716C245.029 205.716 246.276 207.063 246.276 209.545ZM259.546 204.091H257.58V211.527H257.484L252.349 204.091H250.581V215H252.557V207.569H252.648L257.788 215H259.546V204.091Z" fill="#6048E5"/>
<defs>
<linearGradient id="paint0_linear_1659_16187" x1="307" y1="39" x2="307" y2="55" gradientUnits="userSpaceOnUse">
<stop stop-color="#7963F5"/>
<stop offset="1" stop-color="#5D46DB"/>
</linearGradient>
<linearGradient id="paint1_linear_1659_16187" x1="147" y1="76" x2="147" y2="92" gradientUnits="userSpaceOnUse">
<stop stop-color="#7963F5"/>
<stop offset="1" stop-color="#5D46DB"/>
</linearGradient>
<linearGradient id="paint2_linear_1659_16187" x1="164" y1="151" x2="164" y2="167" gradientUnits="userSpaceOnUse">
<stop stop-color="#7963F5"/>
<stop offset="1" stop-color="#5D46DB"/>
</linearGradient>
<linearGradient id="paint3_linear_1659_16187" x1="232" y1="164.001" x2="304.351" y2="162.411" gradientUnits="userSpaceOnUse">
<stop stop-color="#BDB4FE"/>
<stop offset="1" stop-color="#BDB4FE" stop-opacity="0"/>
</linearGradient>
<linearGradient id="paint4_linear_1659_16187" x1="245" y1="177" x2="392.329" y2="128.361" gradientUnits="userSpaceOnUse">
<stop stop-color="#BDB4FE"/>
<stop offset="1" stop-color="#BDB4FE" stop-opacity="0"/>
</linearGradient>
<linearGradient id="paint5_linear_1659_16187" x1="242" y1="171.001" x2="428.176" y2="157.392" gradientUnits="userSpaceOnUse">
<stop stop-color="#BDB4FE"/>
<stop offset="1" stop-color="#BDB4FE" stop-opacity="0"/>
</linearGradient>
<linearGradient id="paint6_linear_1659_16187" x1="213" y1="175" x2="47.0605" y2="119.43" gradientUnits="userSpaceOnUse">
<stop stop-color="#BDB4FE"/>
<stop offset="1" stop-color="#BDB4FE" stop-opacity="0"/>
</linearGradient>
<linearGradient id="paint7_linear_1659_16187" x1="220" y1="166.001" x2="95.1411" y2="160.239" gradientUnits="userSpaceOnUse">
<stop stop-color="#BDB4FE"/>
<stop offset="1" stop-color="#BDB4FE" stop-opacity="0"/>
</linearGradient>
<linearGradient id="paint8_linear_1659_16187" x1="249" y1="4" x2="249" y2="20" gradientUnits="userSpaceOnUse">
<stop stop-color="#7963F5"/>
<stop offset="1" stop-color="#5D46DB"/>
</linearGradient>
<linearGradient id="paint9_linear_1659_16187" x1="322" y1="121" x2="322" y2="137" gradientUnits="userSpaceOnUse">
<stop stop-color="#7963F5"/>
<stop offset="1" stop-color="#5D46DB"/>
</linearGradient>
<linearGradient id="paint10_linear_1659_16187" x1="228" y1="228" x2="258.277" y2="237.522" gradientUnits="userSpaceOnUse">
<stop stop-color="#BDB4FE"/>
<stop offset="1" stop-color="#BDB4FE" stop-opacity="0"/>
</linearGradient>
<linearGradient id="paint11_linear_1659_16187" x1="229" y1="170" x2="229" y2="188" gradientUnits="userSpaceOnUse">
<stop stop-color="#7963F5"/>
<stop offset="1" stop-color="#5D46DB"/>
</linearGradient>
</defs>
</svg>
