<svg width="708" height="311" viewBox="0 0 708 311" fill="none" xmlns="http://www.w3.org/2000/svg">
<circle cx="560" cy="60" r="8" fill="url(#paint0_linear_1601_17367)"/>
<path d="M580.818 65.1598C582.725 65.1598 584.036 64.2276 584.377 62.8054L582.576 62.603C582.315 63.2955 581.676 63.6577 580.845 63.6577C579.599 63.6577 578.773 62.8374 578.757 61.4364H584.457V60.8452C584.457 57.9741 582.731 56.7116 580.717 56.7116C578.373 56.7116 576.845 58.4322 576.845 60.957C576.845 63.5245 578.352 65.1598 580.818 65.1598ZM578.762 60.1367C578.821 59.0927 579.593 58.2138 580.744 58.2138C581.852 58.2138 582.598 59.0234 582.608 60.1367H578.762ZM586.538 65H588.466V60.0249C588.466 59.0181 589.137 58.3363 589.968 58.3363C590.783 58.3363 591.343 58.8849 591.343 59.7266V65H593.234V59.897C593.234 58.9755 593.782 58.3363 594.714 58.3363C595.492 58.3363 596.11 58.7944 596.11 59.8065V65H598.044V59.5082C598.044 57.6811 596.989 56.7116 595.487 56.7116C594.299 56.7116 593.393 57.2976 593.031 58.2085H592.946C592.632 57.2816 591.838 56.7116 590.735 56.7116C589.638 56.7116 588.818 57.2763 588.477 58.2085H588.381V56.8182H586.538V65ZM602.804 65.1651C604.088 65.1651 604.855 64.5632 605.206 63.8761H605.27V65H607.124V59.5241C607.124 57.3615 605.361 56.7116 603.8 56.7116C602.08 56.7116 600.759 57.4787 600.333 58.9702L602.133 59.2259C602.325 58.6665 602.868 58.1871 603.811 58.1871C604.706 58.1871 605.196 58.6452 605.196 59.4496V59.4815C605.196 60.0355 604.615 60.0621 603.172 60.2166C601.584 60.3871 600.066 60.8612 600.066 62.7042C600.066 64.3129 601.243 65.1651 602.804 65.1651ZM603.305 63.7482C602.501 63.7482 601.925 63.3807 601.925 62.6722C601.925 61.9318 602.57 61.6229 603.433 61.5004C603.939 61.4311 604.951 61.3033 605.201 61.1009V62.065C605.201 62.9759 604.466 63.7482 603.305 63.7482ZM609.513 65H611.441V56.8182H609.513V65ZM610.482 55.657C611.095 55.657 611.596 55.1882 611.596 54.6129C611.596 54.0323 611.095 53.5636 610.482 53.5636C609.865 53.5636 609.364 54.0323 609.364 54.6129C609.364 55.1882 609.865 55.657 610.482 55.657ZM615.802 54.0909H613.874V65H615.802V54.0909Z" fill="#6048E5"/>
<path d="M577.347 85H578.833V80.2919C578.833 79.2628 579.554 78.5469 580.4 78.5469C581.225 78.5469 581.797 79.0938 581.797 79.924V85H583.278V80.1328C583.278 79.2131 583.84 78.5469 584.809 78.5469C585.595 78.5469 586.241 78.9844 586.241 80.0185V85H587.728V79.8793C587.728 78.1342 586.753 77.2642 585.371 77.2642C584.272 77.2642 583.447 77.7912 583.079 78.6065H583C582.667 77.7713 581.966 77.2642 580.946 77.2642C579.937 77.2642 579.186 77.7663 578.868 78.6065H578.774V77.3636H577.347V85ZM591.942 85.169C593.205 85.169 593.916 84.5277 594.199 83.956H594.259V85H595.711V79.929C595.711 77.7067 593.961 77.2642 592.748 77.2642C591.366 77.2642 590.093 77.821 589.596 79.2131L590.993 79.5312C591.211 78.9893 591.768 78.4673 592.768 78.4673C593.727 78.4673 594.219 78.9695 594.219 79.8345V79.8693C594.219 80.4112 593.662 80.4013 592.29 80.5604C590.844 80.7294 589.362 81.1072 589.362 82.8423C589.362 84.3438 590.491 85.169 591.942 85.169ZM592.265 83.9759C591.425 83.9759 590.819 83.598 590.819 82.8622C590.819 82.0668 591.525 81.7834 592.385 81.669C592.867 81.6044 594.01 81.4751 594.224 81.2614V82.2457C594.224 83.1506 593.503 83.9759 592.265 83.9759ZM599.177 80.4659C599.177 79.2479 599.948 78.5518 601.007 78.5518C602.031 78.5518 602.642 79.2031 602.642 80.3217V85H604.129V80.1428C604.129 78.2386 603.085 77.2642 601.514 77.2642C600.326 77.2642 599.61 77.7812 599.252 78.6065H599.157V74.8182H597.691V85H599.177V80.4659ZM608.335 85.169C609.598 85.169 610.309 84.5277 610.592 83.956H610.652V85H612.103V79.929C612.103 77.7067 610.353 77.2642 609.14 77.2642C607.758 77.2642 606.485 77.821 605.988 79.2131L607.385 79.5312C607.604 78.9893 608.161 78.4673 609.16 78.4673C610.12 78.4673 610.612 78.9695 610.612 79.8345V79.8693C610.612 80.4112 610.055 80.4013 608.683 80.5604C607.236 80.7294 605.755 81.1072 605.755 82.8423C605.755 84.3438 606.883 85.169 608.335 85.169ZM608.658 83.9759C607.818 83.9759 607.211 83.598 607.211 82.8622C607.211 82.0668 607.917 81.7834 608.777 81.669C609.26 81.6044 610.403 81.4751 610.617 81.2614V82.2457C610.617 83.1506 609.896 83.9759 608.658 83.9759ZM615.57 80.4659C615.57 79.2479 616.316 78.5518 617.35 78.5518C618.359 78.5518 618.97 79.2131 618.97 80.3217V85H620.457V80.1428C620.457 78.2536 619.418 77.2642 617.857 77.2642C616.708 77.2642 615.958 77.7962 615.605 78.6065H615.51V77.3636H614.083V85H615.57V80.4659ZM622.45 85H623.937V77.3636H622.45V85ZM623.201 76.1854C623.713 76.1854 624.141 75.7876 624.141 75.3004C624.141 74.8132 623.713 74.4105 623.201 74.4105C622.684 74.4105 622.262 74.8132 622.262 75.3004C622.262 75.7876 622.684 76.1854 623.201 76.1854ZM632.067 87.7692C633.215 87.7692 634.543 87.456 635.159 87.1676L634.811 86.0788C634.393 86.228 633.245 86.5909 632.131 86.5909C628.786 86.5909 626.991 84.7464 626.991 81.4453C626.991 78.2834 628.766 76.2401 631.947 76.2401C634.856 76.2401 636.591 78.1094 636.586 80.6349C636.591 82.7926 636.312 83.7621 635.408 83.7621C634.896 83.7621 634.612 83.3445 634.612 82.8224V78.2088H633.389V78.7656H633.325C633.175 78.3281 632.31 77.9354 631.271 78.0597C629.835 78.2287 628.602 79.4169 628.602 81.3757C628.602 83.419 629.646 84.7862 631.321 84.8509C632.455 84.9006 633.19 84.3736 633.424 83.7869H633.484C633.603 84.5874 634.468 84.9403 635.318 84.9105C637.441 84.8707 637.844 82.7827 637.844 80.6847C637.844 77.6918 635.795 75.0866 631.997 75.0866C628.015 75.0866 625.673 77.5178 625.668 81.4354C625.673 85.4673 627.955 87.7692 632.067 87.7692ZM631.609 83.6328C630.312 83.6328 629.864 82.5192 629.859 81.3161C629.864 80.1726 630.506 79.2628 631.629 79.2628C632.847 79.2628 633.394 79.7997 633.399 81.3111C633.404 82.8622 632.902 83.6328 631.609 83.6328ZM639.486 85H640.972V77.3636H639.486V85ZM640.236 76.1854C640.748 76.1854 641.176 75.7876 641.176 75.3004C641.176 74.8132 640.748 74.4105 640.236 74.4105C639.719 74.4105 639.297 74.8132 639.297 75.3004C639.297 75.7876 639.719 76.1854 640.236 76.1854ZM644.458 80.4659C644.458 79.2479 645.204 78.5518 646.238 78.5518C647.248 78.5518 647.859 79.2131 647.859 80.3217V85H649.346V80.1428C649.346 78.2536 648.306 77.2642 646.745 77.2642C645.597 77.2642 644.846 77.7962 644.493 78.6065H644.399V77.3636H642.972V85H644.458V80.4659ZM651.458 85H652.91V83.8118H653.034C653.303 84.299 653.85 85.1491 655.242 85.1491C657.091 85.1491 658.434 83.6676 658.434 81.1967C658.434 78.7209 657.071 77.2642 655.227 77.2642C653.81 77.2642 653.298 78.1293 653.034 78.6016H652.945V74.8182H651.458V85ZM652.915 81.1818C652.915 79.5859 653.611 78.527 654.909 78.527C656.256 78.527 656.932 79.6655 656.932 81.1818C656.932 82.7131 656.236 83.8814 654.909 83.8814C653.631 83.8814 652.915 82.7876 652.915 81.1818ZM663.319 85.1541C665.472 85.1541 666.879 83.5781 666.879 81.2166C666.879 78.8402 665.472 77.2642 663.319 77.2642C661.167 77.2642 659.76 78.8402 659.76 81.2166C659.76 83.5781 661.167 85.1541 663.319 85.1541ZM663.324 83.9062C661.917 83.9062 661.261 82.6783 661.261 81.2116C661.261 79.75 661.917 78.5071 663.324 78.5071C664.721 78.5071 665.378 79.75 665.378 81.2116C665.378 82.6783 664.721 83.9062 663.324 83.9062ZM669.397 77.3636H667.767L670.113 81.1818L667.737 85H669.367L671.083 82.1463L672.803 85H674.428L672.027 81.1818L674.409 77.3636H672.783L671.083 80.3366L669.397 77.3636ZM676.914 85.0945C677.456 85.0945 677.909 84.652 677.909 84.1001C677.909 83.5582 677.456 83.1108 676.914 83.1108C676.367 83.1108 675.92 83.5582 675.92 84.1001C675.92 84.652 676.367 85.0945 676.914 85.0945ZM683.116 85.1541C684.921 85.1541 686.089 84.0703 686.253 82.5838H684.807C684.618 83.4091 683.976 83.8963 683.126 83.8963C681.868 83.8963 681.058 82.8473 681.058 81.1818C681.058 79.5462 681.883 78.517 683.126 78.517C684.071 78.517 684.648 79.1136 684.807 79.8295H686.253C686.094 78.2884 684.836 77.2642 683.101 77.2642C680.949 77.2642 679.557 78.8849 679.557 81.2166C679.557 83.5185 680.899 85.1541 683.116 85.1541ZM691.06 85.1541C693.212 85.1541 694.619 83.5781 694.619 81.2166C694.619 78.8402 693.212 77.2642 691.06 77.2642C688.907 77.2642 687.5 78.8402 687.5 81.2166C687.5 83.5781 688.907 85.1541 691.06 85.1541ZM691.065 83.9062C689.658 83.9062 689.001 82.6783 689.001 81.2116C689.001 79.75 689.658 78.5071 691.065 78.5071C692.462 78.5071 693.118 79.75 693.118 81.2116C693.118 82.6783 692.462 83.9062 691.065 83.9062ZM696.279 85H697.765V80.2919C697.765 79.2628 698.486 78.5469 699.331 78.5469C700.156 78.5469 700.728 79.0938 700.728 79.924V85H702.21V80.1328C702.21 79.2131 702.771 78.5469 703.741 78.5469C704.526 78.5469 705.173 78.9844 705.173 80.0185V85H706.659V79.8793C706.659 78.1342 705.685 77.2642 704.303 77.2642C703.204 77.2642 702.379 77.7912 702.011 78.6065H701.931C701.598 77.7713 700.897 77.2642 699.878 77.2642C698.869 77.2642 698.118 77.7663 697.8 78.6065H697.705V77.3636H696.279V85Z" fill="#64778C"/>
<a href="mailto:mahani@inbox.com">
<rect fill="black" fill-opacity="0" x="0.347656" y="-0.971591" width="131.301" height="16.9432"/>
</a>
<path d="M133.483 44.8182H131.784V44.1737C131.784 43.5344 132.05 43.1776 132.769 43.1776C133.073 43.1776 133.328 43.2468 133.488 43.2947L133.877 41.8033C133.627 41.718 133.078 41.5795 132.412 41.5795C130.99 41.5795 129.855 42.3945 129.855 44.0458V44.8182H128.646V46.3097H129.855V53H131.784V46.3097H133.483V44.8182ZM135.443 53H137.371V44.8182H135.443V53ZM136.412 43.657C137.025 43.657 137.526 43.1882 137.526 42.6129C137.526 42.0323 137.025 41.5636 136.412 41.5636C135.795 41.5636 135.294 42.0323 135.294 42.6129C135.294 43.1882 135.795 43.657 136.412 43.657ZM139.804 53H141.732V48.19C141.732 47.1513 142.515 46.4162 143.575 46.4162C143.9 46.4162 144.305 46.4748 144.47 46.5281V44.7543C144.295 44.7223 143.991 44.701 143.778 44.701C142.84 44.701 142.057 45.2337 141.759 46.1818H141.674V44.8182H139.804V53ZM152.668 46.9808C152.402 45.5959 151.294 44.7116 149.376 44.7116C147.405 44.7116 146.063 45.6811 146.068 47.1939C146.063 48.3871 146.798 49.1754 148.369 49.5004L149.765 49.7933C150.516 49.9585 150.868 50.2621 150.868 50.7255C150.868 51.2848 150.26 51.7056 149.344 51.7056C148.46 51.7056 147.885 51.3221 147.72 50.587L145.839 50.7681C146.079 52.2702 147.341 53.1598 149.349 53.1598C151.395 53.1598 152.838 52.0998 152.844 50.5497C152.838 49.3832 152.087 48.6694 150.543 48.3338L149.147 48.0355C148.316 47.8491 147.986 47.5614 147.991 47.0874C147.986 46.5334 148.598 46.1499 149.403 46.1499C150.292 46.1499 150.761 46.6346 150.91 47.1726L152.668 46.9808ZM158.969 44.8182H157.355V42.858H155.427V44.8182H154.266V46.3097H155.427V50.8587C155.417 52.3981 156.535 53.1545 157.984 53.1119C158.533 53.0959 158.911 52.9893 159.119 52.9201L158.794 51.4126C158.687 51.4393 158.469 51.4872 158.229 51.4872C157.744 51.4872 157.355 51.3168 157.355 50.5391V46.3097H158.969V44.8182ZM170.258 42.0909H168.292V49.527H168.196L163.062 42.0909H161.293V53H163.269V45.5692H163.36L168.5 53H170.258V42.0909ZM175.13 53.1651C176.414 53.1651 177.181 52.5632 177.533 51.8761H177.597V53H179.45V47.5241C179.45 45.3615 177.687 44.7116 176.127 44.7116C174.406 44.7116 173.085 45.4787 172.659 46.9702L174.459 47.2259C174.651 46.6665 175.194 46.1871 176.137 46.1871C177.032 46.1871 177.522 46.6452 177.522 47.4496V47.4815C177.522 48.0355 176.942 48.0621 175.498 48.2166C173.911 48.3871 172.392 48.8612 172.392 50.7042C172.392 52.3129 173.57 53.1651 175.13 53.1651ZM175.631 51.7482C174.827 51.7482 174.252 51.3807 174.252 50.6722C174.252 49.9318 174.896 49.6229 175.759 49.5004C176.265 49.4311 177.277 49.3033 177.527 49.1009V50.065C177.527 50.9759 176.792 51.7482 175.631 51.7482ZM181.839 53H183.768V48.0249C183.768 47.0181 184.439 46.3363 185.27 46.3363C186.085 46.3363 186.644 46.8849 186.644 47.7266V53H188.535V47.897C188.535 46.9755 189.084 46.3363 190.016 46.3363C190.793 46.3363 191.411 46.7944 191.411 47.8065V53H193.345V47.5082C193.345 45.6811 192.29 44.7116 190.788 44.7116C189.6 44.7116 188.695 45.2976 188.333 46.2085H188.247C187.933 45.2816 187.139 44.7116 186.037 44.7116C184.939 44.7116 184.119 45.2763 183.778 46.2085H183.682V44.8182H181.839V53ZM199.373 53.1598C201.28 53.1598 202.591 52.2276 202.932 50.8054L201.131 50.603C200.87 51.2955 200.231 51.6577 199.4 51.6577C198.154 51.6577 197.328 50.8374 197.312 49.4364H203.012V48.8452C203.012 45.9741 201.286 44.7116 199.272 44.7116C196.928 44.7116 195.4 46.4322 195.4 48.957C195.4 51.5245 196.907 53.1598 199.373 53.1598ZM197.317 48.1367C197.376 47.0927 198.148 46.2138 199.299 46.2138C200.407 46.2138 201.152 47.0234 201.163 48.1367H197.317Z" fill="#6048E5"/>
<path d="M129.681 66.0909V77H131.247V69.1005H131.349L134.566 76.984H135.866L139.083 69.1058H139.184V77H140.75V66.0909H138.753L135.28 74.571H135.152L131.679 66.0909H129.681ZM145.397 77.1811C146.75 77.1811 147.511 76.494 147.815 75.8814H147.879V77H149.434V71.5668C149.434 69.1857 147.559 68.7116 146.259 68.7116C144.779 68.7116 143.415 69.3082 142.882 70.7997L144.379 71.1406C144.614 70.56 145.21 70.0007 146.281 70.0007C147.309 70.0007 147.836 70.5387 147.836 71.4656V71.5028C147.836 72.0835 147.24 72.0728 145.769 72.2433C144.219 72.4244 142.632 72.8292 142.632 74.6882C142.632 76.2969 143.841 77.1811 145.397 77.1811ZM145.743 75.9027C144.843 75.9027 144.193 75.4979 144.193 74.7095C144.193 73.8572 144.949 73.5536 145.871 73.4311C146.387 73.3619 147.612 73.2234 147.841 72.9943V74.049C147.841 75.0185 147.069 75.9027 145.743 75.9027ZM151.556 77H153.148V72.0036C153.148 70.9329 153.974 70.1605 155.103 70.1605C155.433 70.1605 155.806 70.2191 155.934 70.2564V68.733C155.774 68.7116 155.46 68.6957 155.258 68.6957C154.299 68.6957 153.478 69.239 153.18 70.1179H153.095V68.8182H151.556V77ZM157.312 77H158.905V68.8182H157.312V77ZM158.117 67.5558C158.665 67.5558 159.123 67.1296 159.123 66.6076C159.123 66.0856 158.665 65.6541 158.117 65.6541C157.563 65.6541 157.11 66.0856 157.11 66.6076C157.11 67.1296 157.563 67.5558 158.117 67.5558ZM163.429 77.1811C164.782 77.1811 165.543 76.494 165.847 75.8814H165.911V77H167.466V71.5668C167.466 69.1857 165.591 68.7116 164.292 68.7116C162.811 68.7116 161.447 69.3082 160.915 70.7997L162.411 71.1406C162.646 70.56 163.242 70.0007 164.313 70.0007C165.341 70.0007 165.868 70.5387 165.868 71.4656V71.5028C165.868 72.0835 165.272 72.0728 163.802 72.2433C162.252 72.4244 160.664 72.8292 160.664 74.6882C160.664 76.2969 161.873 77.1811 163.429 77.1811ZM163.775 75.9027C162.875 75.9027 162.225 75.4979 162.225 74.7095C162.225 73.8572 162.981 73.5536 163.903 73.4311C164.42 73.3619 165.645 73.2234 165.874 72.9943V74.049C165.874 75.0185 165.101 75.9027 163.775 75.9027Z" fill="#64778C"/>
<circle cx="220" cy="48" r="8" fill="url(#paint1_linear_1601_17367)"/>
<path d="M78.9861 156.091H77.0579V167H78.9861V156.091ZM83.7734 167.165C85.0571 167.165 85.8242 166.563 86.1757 165.876H86.2397V167H88.0934V161.524C88.0934 159.362 86.3302 158.712 84.7695 158.712C83.049 158.712 81.7279 159.479 81.3018 160.97L83.1022 161.226C83.294 160.667 83.8373 160.187 84.7801 160.187C85.675 160.187 86.1651 160.645 86.1651 161.45V161.482C86.1651 162.036 85.5845 162.062 84.1409 162.217C82.5536 162.387 81.0355 162.861 81.0355 164.704C81.0355 166.313 82.2127 167.165 83.7734 167.165ZM84.2741 165.748C83.4698 165.748 82.8945 165.381 82.8945 164.672C82.8945 163.932 83.539 163.623 84.4019 163.5C84.908 163.431 85.9201 163.303 86.1704 163.101V164.065C86.1704 164.976 85.4353 165.748 84.2741 165.748ZM96.9489 160.981C96.6826 159.596 95.5746 158.712 93.657 158.712C91.6861 158.712 90.3438 159.681 90.3491 161.194C90.3438 162.387 91.0789 163.175 92.6502 163.5L94.0458 163.793C94.7969 163.958 95.1485 164.262 95.1485 164.725C95.1485 165.285 94.5412 165.706 93.625 165.706C92.7408 165.706 92.1655 165.322 92.0004 164.587L90.1201 164.768C90.3598 166.27 91.6222 167.16 93.6304 167.16C95.6758 167.16 97.1193 166.1 97.1247 164.55C97.1193 163.383 96.3683 162.669 94.8235 162.334L93.4279 162.036C92.597 161.849 92.2667 161.561 92.272 161.087C92.2667 160.533 92.8793 160.15 93.6836 160.15C94.5732 160.15 95.0419 160.635 95.1911 161.173L96.9489 160.981ZM103.25 158.818H101.636V156.858H99.708V158.818H98.5468V160.31H99.708V164.859C99.6974 166.398 100.816 167.154 102.265 167.112C102.813 167.096 103.192 166.989 103.399 166.92L103.074 165.413C102.968 165.439 102.75 165.487 102.51 165.487C102.025 165.487 101.636 165.317 101.636 164.539V160.31H103.25V158.818ZM114.539 156.091H112.573V163.527H112.477L107.342 156.091H105.574V167H107.55V159.569H107.641L112.781 167H114.539V156.091ZM119.411 167.165C120.695 167.165 121.462 166.563 121.814 165.876H121.878V167H123.731V161.524C123.731 159.362 121.968 158.712 120.407 158.712C118.687 158.712 117.366 159.479 116.94 160.97L118.74 161.226C118.932 160.667 119.475 160.187 120.418 160.187C121.313 160.187 121.803 160.645 121.803 161.45V161.482C121.803 162.036 121.222 162.062 119.779 162.217C118.191 162.387 116.673 162.861 116.673 164.704C116.673 166.313 117.851 167.165 119.411 167.165ZM119.912 165.748C119.108 165.748 118.532 165.381 118.532 164.672C118.532 163.932 119.177 163.623 120.04 163.5C120.546 163.431 121.558 163.303 121.808 163.101V164.065C121.808 164.976 121.073 165.748 119.912 165.748ZM126.12 167H128.048V162.025C128.048 161.018 128.72 160.336 129.551 160.336C130.366 160.336 130.925 160.885 130.925 161.727V167H132.816V161.897C132.816 160.975 133.364 160.336 134.297 160.336C135.074 160.336 135.692 160.794 135.692 161.806V167H137.626V161.508C137.626 159.681 136.571 158.712 135.069 158.712C133.881 158.712 132.976 159.298 132.613 160.208H132.528C132.214 159.282 131.42 158.712 130.318 158.712C129.22 158.712 128.4 159.276 128.059 160.208H127.963V158.818H126.12V167ZM143.654 167.16C145.561 167.16 146.872 166.228 147.212 164.805L145.412 164.603C145.151 165.295 144.512 165.658 143.681 165.658C142.434 165.658 141.609 164.837 141.593 163.436H147.292V162.845C147.292 159.974 145.567 158.712 143.553 158.712C141.209 158.712 139.681 160.432 139.681 162.957C139.681 165.525 141.188 167.16 143.654 167.16ZM141.598 162.137C141.657 161.093 142.429 160.214 143.58 160.214C144.688 160.214 145.433 161.023 145.444 162.137H141.598Z" fill="#6048E5"/>
<path d="M77.5657 180.091V191H79.1317V183.1H79.233L82.4503 190.984H83.75L86.9673 183.106H87.0685V191H88.6346V180.091H86.6371L83.1641 188.571H83.0362L79.5632 180.091H77.5657ZM93.2808 191.181C94.6338 191.181 95.3955 190.494 95.6991 189.881H95.7631V191H97.3184V185.567C97.3184 183.186 95.4434 182.712 94.1437 182.712C92.6629 182.712 91.2993 183.308 90.7666 184.8L92.2634 185.141C92.4978 184.56 93.0944 184.001 94.165 184.001C95.1931 184.001 95.7204 184.539 95.7204 185.466V185.503C95.7204 186.083 95.1238 186.073 93.6537 186.243C92.1036 186.424 90.5162 186.829 90.5162 188.688C90.5162 190.297 91.7254 191.181 93.2808 191.181ZM93.627 189.903C92.7268 189.903 92.077 189.498 92.077 188.71C92.077 187.857 92.8334 187.554 93.7549 187.431C94.2716 187.362 95.4967 187.223 95.7258 186.994V188.049C95.7258 189.018 94.9534 189.903 93.627 189.903ZM101.032 186.142C101.032 184.837 101.858 184.091 102.993 184.091C104.09 184.091 104.745 184.789 104.745 185.988V191H106.338V185.796C106.338 183.756 105.219 182.712 103.536 182.712C102.263 182.712 101.496 183.266 101.112 184.15H101.011V180.091H99.4398V191H101.032V186.142ZM110.844 191.181C112.197 191.181 112.959 190.494 113.263 189.881H113.327V191H114.882V185.567C114.882 183.186 113.007 182.712 111.707 182.712C110.226 182.712 108.863 183.308 108.33 184.8L109.827 185.141C110.061 184.56 110.658 184.001 111.729 184.001C112.757 184.001 113.284 184.539 113.284 185.466V185.503C113.284 186.083 112.687 186.073 111.217 186.243C109.667 186.424 108.08 186.829 108.08 188.688C108.08 190.297 109.289 191.181 110.844 191.181ZM111.191 189.903C110.29 189.903 109.64 189.498 109.64 188.71C109.64 187.857 110.397 187.554 111.318 187.431C111.835 187.362 113.06 187.223 113.289 186.994V188.049C113.289 189.018 112.517 189.903 111.191 189.903ZM118.596 186.142C118.596 184.837 119.395 184.091 120.503 184.091C121.584 184.091 122.239 184.8 122.239 185.988V191H123.832V185.796C123.832 183.772 122.719 182.712 121.046 182.712C119.816 182.712 119.011 183.282 118.633 184.15H118.532V182.818H117.003V191H118.596V186.142ZM125.968 191H127.561V182.818H125.968V191ZM126.772 181.556C127.321 181.556 127.779 181.13 127.779 180.608C127.779 180.086 127.321 179.654 126.772 179.654C126.218 179.654 125.766 180.086 125.766 180.608C125.766 181.13 126.218 181.556 126.772 181.556Z" fill="#64778C"/>
<circle cx="164" cy="162" r="8" fill="url(#paint2_linear_1601_17367)"/>
<path d="M427 24L357 177" stroke="url(#paint3_linear_1601_17367)"/>
<path d="M528 167L370 190" stroke="url(#paint4_linear_1601_17367)"/>
<path d="M548 65L367 184" stroke="url(#paint5_linear_1601_17367)"/>
<path d="M160 161L338 188" stroke="url(#paint6_linear_1601_17367)"/>
<path d="M224 53L345 179" stroke="url(#paint7_linear_1601_17367)"/>
<path d="M369.464 17H371.393V8.81818H369.464V17ZM370.434 7.65696C371.046 7.65696 371.547 7.18821 371.547 6.61293C371.547 6.03232 371.046 5.56357 370.434 5.56357C369.816 5.56357 369.315 6.03232 369.315 6.61293C369.315 7.18821 369.816 7.65696 370.434 7.65696ZM373.825 17H375.754V12.0249C375.754 11.0181 376.425 10.3363 377.256 10.3363C378.071 10.3363 378.63 10.8849 378.63 11.7266V17H380.521V11.897C380.521 10.9755 381.07 10.3363 382.002 10.3363C382.78 10.3363 383.398 10.7944 383.398 11.8065V17H385.331V11.5082C385.331 9.68111 384.276 8.71165 382.774 8.71165C381.586 8.71165 380.681 9.29759 380.319 10.2085H380.233C379.919 9.2816 379.126 8.71165 378.023 8.71165C376.926 8.71165 376.105 9.27628 375.764 10.2085H375.668V8.81818H373.825V17ZM390.092 17.1651C391.375 17.1651 392.143 16.5632 392.494 15.8761H392.558V17H394.412V11.5241C394.412 9.36151 392.649 8.71165 391.088 8.71165C389.367 8.71165 388.046 9.47869 387.62 10.9702L389.421 11.2259C389.612 10.6665 390.156 10.1871 391.098 10.1871C391.993 10.1871 392.483 10.6452 392.483 11.4496V11.4815C392.483 12.0355 391.903 12.0621 390.459 12.2166C388.872 12.3871 387.354 12.8612 387.354 14.7042C387.354 16.3129 388.531 17.1651 390.092 17.1651ZM390.592 15.7482C389.788 15.7482 389.213 15.3807 389.213 14.6722C389.213 13.9318 389.857 13.6229 390.72 13.5004C391.226 13.4311 392.238 13.3033 392.489 13.1009V14.065C392.489 14.9759 391.754 15.7482 390.592 15.7482ZM400.359 20.2386C402.569 20.2386 404.199 19.2266 404.199 17.1332V8.81818H402.298V10.1712H402.191C401.898 9.5799 401.286 8.71165 399.842 8.71165C397.951 8.71165 396.465 10.1925 396.465 12.8825C396.465 15.5511 397.951 16.8828 399.837 16.8828C401.238 16.8828 401.893 16.1317 402.191 15.5298H402.287V17.0799C402.287 18.2837 401.488 18.7791 400.391 18.7791C399.23 18.7791 398.718 18.2305 398.484 17.7511L396.747 18.1719C397.099 19.3171 398.276 20.2386 400.359 20.2386ZM400.375 15.37C399.102 15.37 398.431 14.3793 398.431 12.8718C398.431 11.3857 399.091 10.2937 400.375 10.2937C401.616 10.2937 402.298 11.3217 402.298 12.8718C402.298 14.4325 401.605 15.37 400.375 15.37ZM410.248 17.1598C412.155 17.1598 413.465 16.2276 413.806 14.8054L412.006 14.603C411.745 15.2955 411.105 15.6577 410.274 15.6577C409.028 15.6577 408.202 14.8374 408.186 13.4364H413.886V12.8452C413.886 9.97408 412.16 8.71165 410.147 8.71165C407.803 8.71165 406.274 10.4322 406.274 12.957C406.274 15.5245 407.782 17.1598 410.248 17.1598ZM408.192 12.1367C408.25 11.0927 409.023 10.2138 410.173 10.2138C411.281 10.2138 412.027 11.0234 412.038 12.1367H408.192Z" fill="#6048E5"/>
<path d="M287.139 36.142C287.139 34.837 287.965 34.0913 289.099 34.0913C290.196 34.0913 290.852 34.7891 290.852 35.9876V41H292.444V35.7958C292.444 33.7557 291.326 32.7116 289.642 32.7116C288.369 32.7116 287.602 33.2656 287.219 34.1499H287.118V30.0909H285.546V41H287.139V36.142ZM298.389 32.8182H296.711V30.858H295.118V32.8182H293.92V34.0966H295.118V38.9279C295.113 40.4141 296.248 41.1332 297.505 41.1065C298.011 41.1012 298.352 41.0053 298.538 40.9361L298.25 39.6204C298.144 39.6417 297.947 39.6896 297.691 39.6896C297.174 39.6896 296.711 39.5192 296.711 38.5977V34.0966H298.389V32.8182ZM303.97 32.8182H302.292V30.858H300.699V32.8182H299.501V34.0966H300.699V38.9279C300.694 40.4141 301.829 41.1332 303.086 41.1065C303.592 41.1012 303.933 41.0053 304.119 40.9361L303.831 39.6204C303.725 39.6417 303.528 39.6896 303.272 39.6896C302.756 39.6896 302.292 39.5192 302.292 38.5977V34.0966H303.97V32.8182ZM305.732 44.0682H307.324V39.7269H307.42C307.708 40.2489 308.294 41.1598 309.785 41.1598C311.767 41.1598 313.205 39.5724 313.205 36.9251C313.205 34.2724 311.746 32.7116 309.769 32.7116C308.251 32.7116 307.703 33.6385 307.42 34.1445H307.287V32.8182H305.732V44.0682ZM307.293 36.9091C307.293 35.1992 308.038 34.0646 309.429 34.0646C310.872 34.0646 311.597 35.2844 311.597 36.9091C311.597 38.5497 310.851 39.8015 309.429 39.8015C308.06 39.8015 307.293 38.6296 307.293 36.9091ZM321.121 34.8157C320.79 33.5426 319.794 32.7116 318.026 32.7116C316.177 32.7116 314.867 33.6864 314.867 35.1353C314.867 36.2965 315.57 37.0689 317.104 37.4098L318.489 37.7134C319.278 37.8892 319.645 38.2408 319.645 38.7521C319.645 39.386 318.969 39.8814 317.925 39.8814C316.971 39.8814 316.359 39.4712 316.167 38.6669L314.627 38.9013C314.894 40.3501 316.098 41.1651 317.935 41.1651C319.911 41.1651 321.28 40.1158 321.28 38.6349C321.28 37.479 320.545 36.7653 319.043 36.419L317.744 36.1207C316.843 35.9077 316.454 35.604 316.46 35.0501C316.454 34.4215 317.136 33.9741 318.042 33.9741C319.033 33.9741 319.491 34.5227 319.677 35.0714L321.121 34.8157ZM324.081 35.146C324.662 35.146 325.146 34.6719 325.146 34.0806C325.146 33.5 324.662 33.0206 324.081 33.0206C323.495 33.0206 323.016 33.5 323.016 34.0806C323.016 34.6719 323.495 35.146 324.081 35.146ZM324.081 41.1012C324.662 41.1012 325.146 40.6271 325.146 40.0359C325.146 39.4553 324.662 38.9759 324.081 38.9759C323.495 38.9759 323.016 39.4553 323.016 40.0359C323.016 40.6271 323.495 41.1012 324.081 41.1012ZM331.434 29.5795H330.012L326.497 42.6406H327.919L331.434 29.5795ZM336.942 29.5795H335.52L332.004 42.6406H333.427L336.942 29.5795ZM338.295 44.0682H339.888V39.7269H339.984C340.271 40.2489 340.857 41.1598 342.349 41.1598C344.33 41.1598 345.769 39.5724 345.769 36.9251C345.769 34.2724 344.309 32.7116 342.333 32.7116C340.815 32.7116 340.266 33.6385 339.984 34.1445H339.851V32.8182H338.295V44.0682ZM339.856 36.9091C339.856 35.1992 340.602 34.0646 341.992 34.0646C343.436 34.0646 344.16 35.2844 344.16 36.9091C344.16 38.5497 343.414 39.8015 341.992 39.8015C340.623 39.8015 339.856 38.6296 339.856 36.9091ZM347.553 41H349.146V36.0036C349.146 34.9329 349.971 34.1605 351.101 34.1605C351.431 34.1605 351.804 34.2191 351.932 34.2564V32.733C351.772 32.7116 351.458 32.6957 351.255 32.6957C350.296 32.6957 349.476 33.239 349.178 34.1179H349.093V32.8182H347.553V41ZM356.463 41.1651C358.77 41.1651 360.277 39.4766 360.277 36.9464C360.277 34.4002 358.77 32.7116 356.463 32.7116C354.157 32.7116 352.649 34.4002 352.649 36.9464C352.649 39.4766 354.157 41.1651 356.463 41.1651ZM356.469 39.8281C354.961 39.8281 354.258 38.5124 354.258 36.9411C354.258 35.375 354.961 34.0433 356.469 34.0433C357.965 34.0433 358.669 35.375 358.669 36.9411C358.669 38.5124 357.965 39.8281 356.469 39.8281ZM365.949 32.8182H364.186V32.0831C364.186 31.3587 364.484 30.9645 365.262 30.9645C365.592 30.9645 365.826 31.0391 365.975 31.087L366.348 29.7979C366.125 29.7127 365.661 29.5795 365.017 29.5795C363.722 29.5795 362.588 30.3359 362.588 31.87V32.8182H361.325V34.0966H362.588V41H364.186V34.0966H365.949V32.8182ZM367.592 41H369.185V32.8182H367.592V41ZM368.396 31.5558C368.945 31.5558 369.403 31.1296 369.403 30.6076C369.403 30.0856 368.945 29.6541 368.396 29.6541C367.843 29.6541 367.39 30.0856 367.39 30.6076C367.39 31.1296 367.843 31.5558 368.396 31.5558ZM372.92 30.0909H371.328V41H372.92V30.0909ZM378.589 41.1651C380.374 41.1651 381.636 40.2862 381.998 38.9545L380.491 38.6829C380.203 39.4553 379.511 39.8494 378.605 39.8494C377.241 39.8494 376.325 38.9652 376.283 37.3885H382.099V36.8239C382.099 33.8675 380.331 32.7116 378.477 32.7116C376.197 32.7116 374.695 34.4482 374.695 36.9624C374.695 39.5032 376.176 41.1651 378.589 41.1651ZM376.288 36.1953C376.352 35.0341 377.194 34.0273 378.488 34.0273C379.724 34.0273 380.533 34.9435 380.539 36.1953H376.288ZM384.916 41.1012C385.497 41.1012 385.981 40.6271 385.981 40.0359C385.981 39.4553 385.497 38.9759 384.916 38.9759C384.33 38.9759 383.851 39.4553 383.851 40.0359C383.851 40.6271 384.33 41.1012 384.916 41.1012ZM388.115 44.0682H389.707V39.7269H389.803C390.091 40.2489 390.677 41.1598 392.168 41.1598C394.15 41.1598 395.588 39.5724 395.588 36.9251C395.588 34.2724 394.128 32.7116 392.152 32.7116C390.634 32.7116 390.085 33.6385 389.803 34.1445H389.67V32.8182H388.115V44.0682ZM389.675 36.9091C389.675 35.1992 390.421 34.0646 391.811 34.0646C393.255 34.0646 393.979 35.2844 393.979 36.9091C393.979 38.5497 393.234 39.8015 391.811 39.8015C390.442 39.8015 389.675 38.6296 389.675 36.9091ZM398.965 36.142C398.965 34.837 399.764 34.0913 400.872 34.0913C401.953 34.0913 402.609 34.7997 402.609 35.9876V41H404.201V35.7958C404.201 33.7717 403.088 32.7116 401.415 32.7116C400.185 32.7116 399.381 33.2816 399.002 34.1499H398.901V32.8182H397.372V41H398.965V36.142ZM409.768 44.2386C411.85 44.2386 413.459 43.2852 413.459 41.1811V32.8182H411.898V34.1445H411.781C411.499 33.6385 410.934 32.7116 409.411 32.7116C407.435 32.7116 405.98 34.2724 405.98 36.8771C405.98 39.4872 407.467 40.8775 409.4 40.8775C410.902 40.8775 411.483 40.0305 411.771 39.5085H411.872V41.1172C411.872 42.4009 410.993 42.9549 409.784 42.9549C408.457 42.9549 407.941 42.2891 407.658 41.8203L406.289 42.3849C406.721 43.3864 407.813 44.2386 409.768 44.2386ZM409.752 39.5565C408.329 39.5565 407.589 38.4645 407.589 36.8558C407.589 35.2844 408.313 34.0646 409.752 34.0646C411.142 34.0646 411.888 35.1992 411.888 36.8558C411.888 38.5444 411.126 39.5565 409.752 39.5565Z" fill="#64778C"/>
<circle cx="431" cy="12" r="8" fill="url(#paint8_linear_1601_17367)"/>
<circle cx="540" cy="165" r="8" fill="url(#paint9_linear_1601_17367)"/>
<path d="M557.046 173.068H558.974V168.711H559.054C559.358 169.308 559.992 170.144 561.398 170.144C563.326 170.144 564.77 168.615 564.77 165.92C564.77 163.192 563.284 161.712 561.393 161.712C559.949 161.712 559.347 162.58 559.054 163.171H558.942V161.818H557.046V173.068ZM558.937 165.909C558.937 164.322 559.619 163.294 560.86 163.294C562.144 163.294 562.804 164.386 562.804 165.909C562.804 167.443 562.133 168.562 560.86 168.562C559.63 168.562 558.937 167.496 558.937 165.909ZM566.871 170H568.799V165.19C568.799 164.151 569.582 163.416 570.642 163.416C570.967 163.416 571.372 163.475 571.537 163.528V161.754C571.362 161.722 571.058 161.701 570.845 161.701C569.907 161.701 569.124 162.234 568.826 163.182H568.741V161.818H566.871V170ZM576.5 170.16C578.897 170.16 580.421 168.471 580.421 165.941C580.421 163.406 578.897 161.712 576.5 161.712C574.103 161.712 572.58 163.406 572.58 165.941C572.58 168.471 574.103 170.16 576.5 170.16ZM576.511 168.615C575.185 168.615 574.535 167.433 574.535 165.936C574.535 164.439 575.185 163.24 576.511 163.24C577.816 163.24 578.466 164.439 578.466 165.936C578.466 167.433 577.816 168.615 576.511 168.615ZM586.652 161.818H584.952V161.174C584.952 160.534 585.219 160.178 585.938 160.178C586.241 160.178 586.497 160.247 586.657 160.295L587.046 158.803C586.795 158.718 586.247 158.58 585.581 158.58C584.159 158.58 583.024 159.395 583.024 161.046V161.818H581.815V163.31H583.024V170H584.952V163.31H586.652V161.818ZM588.612 170H590.54V161.818H588.612V170ZM589.581 160.657C590.194 160.657 590.695 160.188 590.695 159.613C590.695 159.032 590.194 158.564 589.581 158.564C588.963 158.564 588.463 159.032 588.463 159.613C588.463 160.188 588.963 160.657 589.581 160.657ZM594.901 159.091H592.973V170H594.901V159.091ZM600.956 170.16C602.863 170.16 604.174 169.228 604.514 167.805L602.714 167.603C602.453 168.295 601.814 168.658 600.983 168.658C599.736 168.658 598.911 167.837 598.895 166.436H604.594V165.845C604.594 162.974 602.868 161.712 600.855 161.712C598.511 161.712 596.982 163.432 596.982 165.957C596.982 168.525 598.49 170.16 600.956 170.16ZM598.9 165.137C598.959 164.093 599.731 163.214 600.882 163.214C601.99 163.214 602.735 164.023 602.746 165.137H598.9ZM610.458 170C613.781 170 615.752 167.944 615.752 164.535C615.752 161.136 613.781 159.091 610.532 159.091H606.761V170H610.458ZM608.737 168.29V160.801H610.42C612.636 160.801 613.792 162.037 613.792 164.535C613.792 167.044 612.636 168.29 610.362 168.29H608.737ZM621.617 170.16C623.524 170.16 624.834 169.228 625.175 167.805L623.375 167.603C623.114 168.295 622.475 168.658 621.644 168.658C620.397 168.658 619.571 167.837 619.555 166.436H625.255V165.845C625.255 162.974 623.529 161.712 621.516 161.712C619.172 161.712 617.643 163.432 617.643 165.957C617.643 168.525 619.151 170.16 621.617 170.16ZM619.561 165.137C619.619 164.093 620.392 163.214 621.542 163.214C622.65 163.214 623.396 164.023 623.407 165.137H619.561ZM633.803 163.981C633.537 162.596 632.429 161.712 630.511 161.712C628.54 161.712 627.198 162.681 627.203 164.194C627.198 165.387 627.933 166.175 629.504 166.5L630.9 166.793C631.651 166.958 632.003 167.262 632.003 167.725C632.003 168.285 631.395 168.706 630.479 168.706C629.595 168.706 629.02 168.322 628.854 167.587L626.974 167.768C627.214 169.27 628.476 170.16 630.484 170.16C632.53 170.16 633.973 169.1 633.979 167.55C633.973 166.383 633.222 165.669 631.678 165.334L630.282 165.036C629.451 164.849 629.121 164.561 629.126 164.087C629.121 163.533 629.733 163.15 630.538 163.15C631.427 163.15 631.896 163.635 632.045 164.173L633.803 163.981ZM639.588 170.16C641.644 170.16 642.954 168.94 643.093 167.203H641.25C641.084 168.082 640.451 168.588 639.604 168.588C638.4 168.588 637.622 167.582 637.622 165.909C637.622 164.258 638.416 163.267 639.604 163.267C640.531 163.267 641.1 163.864 641.25 164.652H643.093C642.959 162.878 641.575 161.712 639.577 161.712C637.18 161.712 635.667 163.443 635.667 165.941C635.667 168.418 637.143 170.16 639.588 170.16ZM645.126 170H647.054V165.19C647.054 164.151 647.837 163.416 648.897 163.416C649.222 163.416 649.627 163.475 649.792 163.528V161.754C649.616 161.722 649.313 161.701 649.1 161.701C648.162 161.701 647.379 162.234 647.081 163.182H646.996V161.818H645.126V170ZM651.523 170H653.452V161.818H651.523V170ZM652.493 160.657C653.105 160.657 653.606 160.188 653.606 159.613C653.606 159.032 653.105 158.564 652.493 158.564C651.875 158.564 651.374 159.032 651.374 159.613C651.374 160.188 651.875 160.657 652.493 160.657ZM655.884 173.068H657.813V168.711H657.893C658.196 169.308 658.83 170.144 660.236 170.144C662.165 170.144 663.608 168.615 663.608 165.92C663.608 163.192 662.122 161.712 660.231 161.712C658.787 161.712 658.186 162.58 657.893 163.171H657.781V161.818H655.884V173.068ZM657.775 165.909C657.775 164.322 658.457 163.294 659.698 163.294C660.982 163.294 661.643 164.386 661.643 165.909C661.643 167.443 660.971 168.562 659.698 168.562C658.468 168.562 657.775 167.496 657.775 165.909ZM669.795 161.818H668.181V159.858H666.253V161.818H665.092V163.31H666.253V167.859C666.242 169.398 667.361 170.154 668.81 170.112C669.358 170.096 669.736 169.989 669.944 169.92L669.619 168.413C669.513 168.439 669.294 168.487 669.055 168.487C668.57 168.487 668.181 168.317 668.181 167.539V163.31H669.795V161.818ZM671.858 170H673.786V161.818H671.858V170ZM672.827 160.657C673.44 160.657 673.94 160.188 673.94 159.613C673.94 159.032 673.44 158.564 672.827 158.564C672.209 158.564 671.709 159.032 671.709 159.613C671.709 160.188 672.209 160.657 672.827 160.657ZM679.788 170.16C682.185 170.16 683.708 168.471 683.708 165.941C683.708 163.406 682.185 161.712 679.788 161.712C677.391 161.712 675.867 163.406 675.867 165.941C675.867 168.471 677.391 170.16 679.788 170.16ZM679.798 168.615C678.472 168.615 677.822 167.433 677.822 165.936C677.822 164.439 678.472 163.24 679.798 163.24C681.103 163.24 681.753 164.439 681.753 165.936C681.753 167.433 681.103 168.615 679.798 168.615ZM687.723 165.206C687.723 164.023 688.437 163.342 689.454 163.342C690.45 163.342 691.047 163.997 691.047 165.089V170H692.975V164.79C692.98 162.83 691.862 161.712 690.173 161.712C688.948 161.712 688.107 162.298 687.734 163.208H687.638V161.818H685.795V170H687.723V165.206Z" fill="#6048E5"/>
<path d="M557.039 186.5H558.402V185.461C558.402 184.657 558.754 183.98 559.185 183.347L558.397 182.782C557.582 183.437 557.039 184.572 557.039 185.477V186.5ZM559.755 186.5H561.119V185.461C561.119 184.657 561.47 183.98 561.902 183.347L561.114 182.782C560.299 183.437 559.755 184.572 559.755 185.477V186.5ZM563.399 183.091V194H564.965V186.1H565.066L568.283 193.984H569.583L572.8 186.106H572.902V194H574.468V183.091H572.47L568.997 191.571H568.869L565.396 183.091H563.399ZM577.74 197.068C579.055 197.068 579.886 196.381 580.36 195.092L583.743 185.834L582.022 185.818L579.95 192.168H579.865L577.793 185.818H576.088L579.082 194.107L578.885 194.65C578.48 195.737 577.91 195.827 577.036 195.587L576.653 196.892C576.845 196.978 577.26 197.068 577.74 197.068ZM590.987 194H592.606L594.268 188.093H594.391L596.053 194H597.677L600.08 185.818H598.434L596.841 191.8H596.761L595.163 185.818H593.517L591.909 191.827H591.829L590.225 185.818H588.579L590.987 194ZM604.789 194.165C607.095 194.165 608.602 192.477 608.602 189.946C608.602 187.4 607.095 185.712 604.789 185.712C602.482 185.712 600.975 187.4 600.975 189.946C600.975 192.477 602.482 194.165 604.789 194.165ZM604.794 192.828C603.286 192.828 602.583 191.512 602.583 189.941C602.583 188.375 603.286 187.043 604.794 187.043C606.291 187.043 606.994 188.375 606.994 189.941C606.994 191.512 606.291 192.828 604.794 192.828ZM610.38 194H611.973V189.004C611.973 187.933 612.799 187.161 613.928 187.161C614.258 187.161 614.631 187.219 614.759 187.256V185.733C614.599 185.712 614.285 185.696 614.082 185.696C613.123 185.696 612.303 186.239 612.005 187.118H611.92V185.818H610.38V194ZM616.137 194H617.73V191.097L618.523 190.303L621.304 194H623.259L619.722 189.328L623.035 185.818H621.128L617.868 189.281H617.73V183.091H616.137V194ZM624.487 194H626.079V185.818H624.487V194ZM625.291 184.556C625.84 184.556 626.298 184.13 626.298 183.608C626.298 183.086 625.84 182.654 625.291 182.654C624.737 182.654 624.284 183.086 624.284 183.608C624.284 184.13 624.737 184.556 625.291 184.556ZM629.815 189.142C629.815 187.837 630.614 187.091 631.722 187.091C632.803 187.091 633.458 187.8 633.458 188.988V194H635.051V188.796C635.051 186.772 633.938 185.712 632.265 185.712C631.035 185.712 630.23 186.282 629.852 187.15H629.751V185.818H628.222V194H629.815V189.142ZM640.617 197.239C642.7 197.239 644.309 196.285 644.309 194.181V185.818H642.748V187.145H642.631C642.348 186.638 641.784 185.712 640.26 185.712C638.284 185.712 636.83 187.272 636.83 189.877C636.83 192.487 638.316 193.877 640.25 193.877C641.752 193.877 642.332 193.031 642.62 192.509H642.721V194.117C642.721 195.401 641.842 195.955 640.633 195.955C639.307 195.955 638.79 195.289 638.508 194.82L637.139 195.385C637.57 196.386 638.662 197.239 640.617 197.239ZM640.601 192.556C639.179 192.556 638.439 191.464 638.439 189.856C638.439 188.284 639.163 187.065 640.601 187.065C641.992 187.065 642.737 188.199 642.737 189.856C642.737 191.544 641.976 192.556 640.601 192.556ZM652.007 189.142C652.007 187.837 652.833 187.091 653.967 187.091C655.065 187.091 655.72 187.789 655.72 188.988V194H657.312V188.796C657.312 186.756 656.194 185.712 654.511 185.712C653.238 185.712 652.471 186.266 652.087 187.15H651.986V183.091H650.414V194H652.007V189.142ZM662.884 194.165C665.191 194.165 666.698 192.477 666.698 189.946C666.698 187.4 665.191 185.712 662.884 185.712C660.578 185.712 659.07 187.4 659.07 189.946C659.07 192.477 660.578 194.165 662.884 194.165ZM662.89 192.828C661.382 192.828 660.679 191.512 660.679 189.941C660.679 188.375 661.382 187.043 662.89 187.043C664.386 187.043 665.089 188.375 665.089 189.941C665.089 191.512 664.386 192.828 662.89 192.828ZM673.659 190.607C673.664 191.997 672.631 192.658 671.736 192.658C670.75 192.658 670.069 191.944 670.069 190.831V185.818H668.476V191.022C668.476 193.052 669.589 194.107 671.161 194.107C672.391 194.107 673.227 193.457 673.606 192.583H673.691V194H675.257V185.818H673.659V190.607ZM677.397 194H678.99V189.004C678.99 187.933 679.815 187.161 680.944 187.161C681.275 187.161 681.648 187.219 681.775 187.256V185.733C681.616 185.712 681.301 185.696 681.099 185.696C680.14 185.696 679.32 186.239 679.021 187.118H678.936V185.818H677.397V194ZM689.285 187.816C688.954 186.543 687.958 185.712 686.19 185.712C684.342 185.712 683.031 186.686 683.031 188.135C683.031 189.297 683.734 190.069 685.268 190.41L686.653 190.713C687.442 190.889 687.809 191.241 687.809 191.752C687.809 192.386 687.133 192.881 686.089 192.881C685.135 192.881 684.523 192.471 684.331 191.667L682.791 191.901C683.058 193.35 684.262 194.165 686.099 194.165C688.076 194.165 689.445 193.116 689.445 191.635C689.445 190.479 688.709 189.765 687.207 189.419L685.908 189.121C685.007 188.908 684.619 188.604 684.624 188.05C684.619 187.422 685.3 186.974 686.206 186.974C687.197 186.974 687.655 187.523 687.841 188.071L689.285 187.816ZM692.245 194.101C692.826 194.101 693.31 193.627 693.31 193.036C693.31 192.455 692.826 191.976 692.245 191.976C691.659 191.976 691.18 192.455 691.18 193.036C691.18 193.627 691.659 194.101 692.245 194.101ZM696.493 194.101C697.074 194.101 697.558 193.627 697.558 193.036C697.558 192.455 697.074 191.976 696.493 191.976C695.907 191.976 695.428 192.455 695.428 193.036C695.428 193.627 695.907 194.101 696.493 194.101ZM700.741 194.101C701.322 194.101 701.806 193.627 701.806 193.036C701.806 192.455 701.322 191.976 700.741 191.976C700.155 191.976 699.676 192.455 699.676 193.036C699.676 193.627 700.155 194.101 700.741 194.101ZM704.239 183.091H702.876V184.13C702.876 184.955 702.514 185.632 702.098 186.244L702.886 186.809C703.707 186.148 704.239 185.019 704.239 184.114V183.091ZM706.951 183.091H705.587V184.13C705.587 184.955 705.225 185.632 704.809 186.244L705.598 186.809C706.418 186.148 706.951 185.019 706.951 184.114V183.091Z" fill="#64778C"/>
<line x1="354.5" y1="241" x2="354.5" y2="311" stroke="url(#paint10_linear_1601_17367)"/>
<circle opacity="0.05" cx="354" cy="192" r="88.5" stroke="#6048E5"/>
<circle opacity="0.3" cx="354" cy="192" r="15" stroke="#6048E5" stroke-width="2"/>
<circle cx="354" cy="192" r="9" fill="url(#paint11_linear_1601_17367)"/>
<path d="M323.453 228H325.429V224.314H327.517C330.037 224.314 331.39 222.801 331.39 220.702C331.39 218.62 330.053 217.091 327.544 217.091H323.453V228ZM325.429 222.689V218.742H327.24C328.721 218.742 329.376 219.541 329.376 220.702C329.376 221.864 328.721 222.689 327.251 222.689H325.429ZM333.556 228H340.694V226.343H335.532V223.366H340.284V221.709H335.532V218.748H340.651V217.091H333.556V228ZM343.118 228H345.094V224.005H347.107L349.249 228H351.454L349.094 223.675C350.378 223.158 351.054 222.061 351.054 220.58C351.054 218.497 349.712 217.091 347.209 217.091H343.118V228ZM345.094 222.364V218.742H346.905C348.38 218.742 349.041 219.419 349.041 220.58C349.041 221.741 348.38 222.364 346.916 222.364H345.094ZM359.252 220.09H361.154C361.116 218.247 359.545 216.942 357.223 216.942C354.932 216.942 353.212 218.231 353.217 220.159C353.217 221.725 354.33 222.625 356.125 223.089L357.366 223.408C358.544 223.707 359.321 224.074 359.327 224.921C359.321 225.853 358.437 226.477 357.148 226.477C355.912 226.477 354.953 225.923 354.874 224.777H352.929C353.009 226.945 354.623 228.165 357.164 228.165C359.779 228.165 361.298 226.86 361.303 224.937C361.298 223.046 359.737 222.183 358.096 221.794L357.073 221.539C356.179 221.326 355.209 220.947 355.22 220.037C355.225 219.216 355.96 218.614 357.196 218.614C358.373 218.614 359.151 219.163 359.252 220.09ZM373.263 222.545C373.263 219.019 371.111 216.942 368.25 216.942C365.384 216.942 363.238 219.019 363.238 222.545C363.238 226.066 365.384 228.149 368.25 228.149C371.111 228.149 373.263 226.072 373.263 222.545ZM371.276 222.545C371.276 225.028 370.029 226.375 368.25 226.375C366.476 226.375 365.225 225.028 365.225 222.545C365.225 220.063 366.476 218.716 368.25 218.716C370.029 218.716 371.276 220.063 371.276 222.545ZM384.546 217.091H382.58V224.527H382.484L377.349 217.091H375.581V228H377.557V220.569H377.648L382.788 228H384.546V217.091Z" fill="#6048E5"/>
<defs>
<linearGradient id="paint0_linear_1601_17367" x1="560" y1="52" x2="560" y2="68" gradientUnits="userSpaceOnUse">
<stop stop-color="#7963F5"/>
<stop offset="1" stop-color="#5D46DB"/>
</linearGradient>
<linearGradient id="paint1_linear_1601_17367" x1="220" y1="40" x2="220" y2="56" gradientUnits="userSpaceOnUse">
<stop stop-color="#7963F5"/>
<stop offset="1" stop-color="#5D46DB"/>
</linearGradient>
<linearGradient id="paint2_linear_1601_17367" x1="164" y1="154" x2="164" y2="170" gradientUnits="userSpaceOnUse">
<stop stop-color="#7963F5"/>
<stop offset="1" stop-color="#5D46DB"/>
</linearGradient>
<linearGradient id="paint3_linear_1601_17367" x1="357" y1="177.001" x2="429.351" y2="175.411" gradientUnits="userSpaceOnUse">
<stop stop-color="#BDB4FE"/>
<stop offset="1" stop-color="#BDB4FE" stop-opacity="0"/>
</linearGradient>
<linearGradient id="paint4_linear_1601_17367" x1="370" y1="190" x2="517.329" y2="141.361" gradientUnits="userSpaceOnUse">
<stop stop-color="#BDB4FE"/>
<stop offset="1" stop-color="#BDB4FE" stop-opacity="0"/>
</linearGradient>
<linearGradient id="paint5_linear_1601_17367" x1="367" y1="184.001" x2="553.176" y2="170.392" gradientUnits="userSpaceOnUse">
<stop stop-color="#BDB4FE"/>
<stop offset="1" stop-color="#BDB4FE" stop-opacity="0"/>
</linearGradient>
<linearGradient id="paint6_linear_1601_17367" x1="338" y1="188" x2="172.06" y2="132.431" gradientUnits="userSpaceOnUse">
<stop stop-color="#BDB4FE"/>
<stop offset="1" stop-color="#BDB4FE" stop-opacity="0"/>
</linearGradient>
<linearGradient id="paint7_linear_1601_17367" x1="345" y1="179.001" x2="220.141" y2="173.239" gradientUnits="userSpaceOnUse">
<stop stop-color="#BDB4FE"/>
<stop offset="1" stop-color="#BDB4FE" stop-opacity="0"/>
</linearGradient>
<linearGradient id="paint8_linear_1601_17367" x1="431" y1="4" x2="431" y2="20" gradientUnits="userSpaceOnUse">
<stop stop-color="#7963F5"/>
<stop offset="1" stop-color="#5D46DB"/>
</linearGradient>
<linearGradient id="paint9_linear_1601_17367" x1="540" y1="157" x2="540" y2="173" gradientUnits="userSpaceOnUse">
<stop stop-color="#7963F5"/>
<stop offset="1" stop-color="#5D46DB"/>
</linearGradient>
<linearGradient id="paint10_linear_1601_17367" x1="353" y1="241" x2="383.277" y2="250.522" gradientUnits="userSpaceOnUse">
<stop stop-color="#BDB4FE"/>
<stop offset="1" stop-color="#BDB4FE" stop-opacity="0"/>
</linearGradient>
<linearGradient id="paint11_linear_1601_17367" x1="354" y1="183" x2="354" y2="201" gradientUnits="userSpaceOnUse">
<stop stop-color="#7963F5"/>
<stop offset="1" stop-color="#5D46DB"/>
</linearGradient>
</defs>
</svg>
