<svg width="1437" height="434" viewBox="0 0 1437 434" fill="none" xmlns="http://www.w3.org/2000/svg">
<circle cx="125" cy="163" r="7" stroke="#C5D1DB" stroke-width="2"/>
<path d="M142.289 168H144.217V165.251L144.92 164.5L147.424 168H149.73L146.374 163.35L149.544 159.818H147.291L144.35 163.105H144.217V157.091H142.289V168ZM153.207 163.206C153.207 162.023 153.921 161.342 154.938 161.342C155.934 161.342 156.531 161.997 156.531 163.089V168H158.459V162.79C158.465 160.83 157.346 159.712 155.657 159.712C154.432 159.712 153.591 160.298 153.218 161.208H153.122V159.818H151.279V168H153.207V163.206ZM164.438 168.16C166.835 168.16 168.359 166.471 168.359 163.941C168.359 161.406 166.835 159.712 164.438 159.712C162.041 159.712 160.518 161.406 160.518 163.941C160.518 166.471 162.041 168.16 164.438 168.16ZM164.449 166.615C163.123 166.615 162.473 165.433 162.473 163.936C162.473 162.439 163.123 161.24 164.449 161.24C165.754 161.24 166.404 162.439 166.404 163.936C166.404 165.433 165.754 166.615 164.449 166.615ZM171.914 168H173.928L175.462 162.471H175.574L177.108 168H179.116L181.433 159.818H179.462L178.045 165.539H177.965L176.495 159.818H174.551L173.081 165.571H173.006L171.568 159.818H169.603L171.914 168ZM189.696 161.981C189.43 160.596 188.322 159.712 186.404 159.712C184.433 159.712 183.091 160.681 183.096 162.194C183.091 163.387 183.826 164.175 185.397 164.5L186.793 164.793C187.544 164.958 187.896 165.262 187.896 165.725C187.896 166.285 187.288 166.706 186.372 166.706C185.488 166.706 184.913 166.322 184.748 165.587L182.867 165.768C183.107 167.27 184.369 168.16 186.378 168.16C188.423 168.16 189.867 167.1 189.872 165.55C189.867 164.383 189.115 163.669 187.571 163.334L186.175 163.036C185.344 162.849 185.014 162.561 185.019 162.087C185.014 161.533 185.626 161.15 186.431 161.15C187.32 161.15 187.789 161.635 187.938 162.173L189.696 161.981ZM191.997 168H198.778V166.343H193.973V157.091H191.997V168ZM203.212 168.165C204.496 168.165 205.263 167.563 205.615 166.876H205.679V168H207.532V162.524C207.532 160.362 205.769 159.712 204.208 159.712C202.488 159.712 201.167 160.479 200.741 161.97L202.541 162.226C202.733 161.667 203.276 161.187 204.219 161.187C205.114 161.187 205.604 161.645 205.604 162.45V162.482C205.604 163.036 205.023 163.062 203.58 163.217C201.993 163.387 200.474 163.861 200.474 165.704C200.474 167.313 201.652 168.165 203.212 168.165ZM203.713 166.748C202.909 166.748 202.333 166.381 202.333 165.672C202.333 164.932 202.978 164.623 203.841 164.5C204.347 164.431 205.359 164.303 205.609 164.101V165.065C205.609 165.976 204.874 166.748 203.713 166.748ZM211.849 163.206C211.849 162.023 212.563 161.342 213.581 161.342C214.577 161.342 215.173 161.997 215.173 163.089V168H217.102V162.79C217.107 160.83 215.988 159.712 214.3 159.712C213.075 159.712 212.233 160.298 211.86 161.208H211.764V159.818H209.921V168H211.849V163.206ZM223.07 171.239C225.281 171.239 226.911 170.227 226.911 168.133V159.818H225.009V161.171H224.902C224.61 160.58 223.997 159.712 222.553 159.712C220.662 159.712 219.176 161.192 219.176 163.882C219.176 166.551 220.662 167.883 222.548 167.883C223.949 167.883 224.604 167.132 224.902 166.53H224.998V168.08C224.998 169.284 224.199 169.779 223.102 169.779C221.941 169.779 221.429 169.23 221.195 168.751L219.459 169.172C219.81 170.317 220.987 171.239 223.07 171.239ZM223.086 166.37C221.813 166.37 221.142 165.379 221.142 163.872C221.142 162.386 221.802 161.294 223.086 161.294C224.327 161.294 225.009 162.322 225.009 163.872C225.009 165.433 224.317 166.37 223.086 166.37ZM234.552 164.559C234.552 165.805 233.662 166.423 232.81 166.423C231.883 166.423 231.265 165.768 231.265 164.729V159.818H229.337V165.028C229.337 166.993 230.455 168.107 232.064 168.107C233.289 168.107 234.152 167.462 234.525 166.546H234.61V168H236.48V159.818H234.552V164.559ZM241.267 168.165C242.551 168.165 243.318 167.563 243.67 166.876H243.734V168H245.587V162.524C245.587 160.362 243.824 159.712 242.263 159.712C240.543 159.712 239.222 160.479 238.796 161.97L240.596 162.226C240.788 161.667 241.331 161.187 242.274 161.187C243.169 161.187 243.659 161.645 243.659 162.45V162.482C243.659 163.036 243.078 163.062 241.635 163.217C240.047 163.387 238.529 163.861 238.529 165.704C238.529 167.313 239.707 168.165 241.267 168.165ZM241.768 166.748C240.964 166.748 240.388 166.381 240.388 165.672C240.388 164.932 241.033 164.623 241.896 164.5C242.402 164.431 243.414 164.303 243.664 164.101V165.065C243.664 165.976 242.929 166.748 241.768 166.748ZM251.534 171.239C253.745 171.239 255.375 170.227 255.375 168.133V159.818H253.473V161.171H253.367C253.074 160.58 252.461 159.712 251.018 159.712C249.127 159.712 247.641 161.192 247.641 163.882C247.641 166.551 249.127 167.883 251.012 167.883C252.413 167.883 253.068 167.132 253.367 166.53H253.463V168.08C253.463 169.284 252.664 169.779 251.566 169.779C250.405 169.779 249.894 169.23 249.659 168.751L247.923 169.172C248.274 170.317 249.452 171.239 251.534 171.239ZM251.55 166.37C250.277 166.37 249.606 165.379 249.606 163.872C249.606 162.386 250.267 161.294 251.55 161.294C252.791 161.294 253.473 162.322 253.473 163.872C253.473 165.433 252.781 166.37 251.55 166.37ZM261.423 168.16C263.33 168.16 264.641 167.228 264.982 165.805L263.181 165.603C262.92 166.295 262.281 166.658 261.45 166.658C260.203 166.658 259.378 165.837 259.362 164.436H265.061V163.845C265.061 160.974 263.336 159.712 261.322 159.712C258.978 159.712 257.45 161.432 257.45 163.957C257.45 166.525 258.957 168.16 261.423 168.16ZM259.367 163.137C259.426 162.093 260.198 161.214 261.349 161.214C262.457 161.214 263.202 162.023 263.213 163.137H259.367Z" fill="#C5D1DB"/>
<path d="M142.3 192H149.203V190.583H143.946V187.243H148.783V185.832H143.946V182.508H149.14V181.091H142.3V192ZM152.803 187.142C152.803 185.837 153.602 185.091 154.71 185.091C155.791 185.091 156.446 185.8 156.446 186.988V192H158.039V186.796C158.039 184.772 156.926 183.712 155.253 183.712C154.023 183.712 153.218 184.282 152.84 185.15H152.739V183.818H151.21V192H152.803V187.142ZM163.606 195.239C165.688 195.239 167.297 194.285 167.297 192.181V183.818H165.736V185.145H165.619C165.337 184.638 164.772 183.712 163.249 183.712C161.272 183.712 159.818 185.272 159.818 187.877C159.818 190.487 161.304 191.877 163.238 191.877C164.74 191.877 165.321 191.031 165.608 190.509H165.71V192.117C165.71 193.401 164.831 193.955 163.622 193.955C162.295 193.955 161.778 193.289 161.496 192.82L160.127 193.385C160.559 194.386 161.651 195.239 163.606 195.239ZM163.59 190.556C162.167 190.556 161.427 189.464 161.427 187.856C161.427 186.284 162.151 185.065 163.59 185.065C164.98 185.065 165.726 186.199 165.726 187.856C165.726 189.544 164.964 190.556 163.59 190.556ZM171.026 181.091H169.433V192H171.026V181.091ZM173.168 192H174.761V183.818H173.168V192ZM173.973 182.556C174.521 182.556 174.979 182.13 174.979 181.608C174.979 181.086 174.521 180.654 173.973 180.654C173.419 180.654 172.966 181.086 172.966 181.608C172.966 182.13 173.419 182.556 173.973 182.556ZM183.035 185.816C182.704 184.543 181.708 183.712 179.94 183.712C178.092 183.712 176.781 184.686 176.781 186.135C176.781 187.297 177.484 188.069 179.018 188.41L180.403 188.713C181.192 188.889 181.559 189.241 181.559 189.752C181.559 190.386 180.883 190.881 179.839 190.881C178.885 190.881 178.273 190.471 178.081 189.667L176.541 189.901C176.808 191.35 178.012 192.165 179.849 192.165C181.826 192.165 183.195 191.116 183.195 189.635C183.195 188.479 182.459 187.765 180.957 187.419L179.658 187.121C178.757 186.908 178.369 186.604 178.374 186.05C178.369 185.422 179.05 184.974 179.956 184.974C180.947 184.974 181.405 185.523 181.591 186.071L183.035 185.816ZM186.538 187.142C186.538 185.837 187.364 185.091 188.499 185.091C189.596 185.091 190.251 185.789 190.251 186.988V192H191.844V186.796C191.844 184.756 190.725 183.712 189.042 183.712C187.769 183.712 187.002 184.266 186.618 185.15H186.517V181.091H184.946V192H186.538V187.142Z" fill="#C5D1DB"/>
<circle cx="1393" cy="235" r="7" stroke="#C5D1DB" stroke-width="2"/>
<path d="M1413.45 240.144C1414.86 240.144 1415.49 239.308 1415.8 238.711H1415.91V240H1417.81V229.091H1415.88V233.171H1415.8C1415.5 232.58 1414.9 231.712 1413.46 231.712C1411.57 231.712 1410.08 233.192 1410.08 235.92C1410.08 238.615 1411.52 240.144 1413.45 240.144ZM1413.99 238.562C1412.72 238.562 1412.05 237.443 1412.05 235.909C1412.05 234.386 1412.71 233.294 1413.99 233.294C1415.23 233.294 1415.91 234.322 1415.91 235.909C1415.91 237.496 1415.22 238.562 1413.99 238.562ZM1425.53 236.559C1425.53 237.805 1424.64 238.423 1423.79 238.423C1422.86 238.423 1422.24 237.768 1422.24 236.729V231.818H1420.31V237.028C1420.31 238.993 1421.43 240.107 1423.04 240.107C1424.27 240.107 1425.13 239.462 1425.5 238.546H1425.59V240H1427.46V231.818H1425.53V236.559ZM1433.51 240.16C1435.42 240.16 1436.73 239.228 1437.07 237.805L1435.27 237.603C1435.01 238.295 1434.37 238.658 1433.54 238.658C1432.29 238.658 1431.47 237.837 1431.45 236.436H1437.15V235.845C1437.15 232.974 1435.42 231.712 1433.41 231.712C1431.07 231.712 1429.54 233.432 1429.54 235.957C1429.54 238.525 1431.05 240.16 1433.51 240.16ZM1431.46 235.137C1431.51 234.093 1432.29 233.214 1433.44 233.214C1434.55 233.214 1435.29 234.023 1435.3 235.137H1431.46ZM1443.01 240C1446.34 240 1448.31 237.944 1448.31 234.535C1448.31 231.136 1446.34 229.091 1443.09 229.091H1439.32V240H1443.01ZM1441.29 238.29V230.801H1442.98C1445.19 230.801 1446.35 232.037 1446.35 234.535C1446.35 237.044 1445.19 238.29 1442.92 238.29H1441.29ZM1452.91 240.165C1454.19 240.165 1454.96 239.563 1455.31 238.876H1455.37V240H1457.22V234.524C1457.22 232.362 1455.46 231.712 1453.9 231.712C1452.18 231.712 1450.86 232.479 1450.43 233.97L1452.23 234.226C1452.43 233.667 1452.97 233.187 1453.91 233.187C1454.81 233.187 1455.3 233.645 1455.3 234.45V234.482C1455.3 235.036 1454.72 235.062 1453.27 235.217C1451.69 235.387 1450.17 235.861 1450.17 237.704C1450.17 239.313 1451.34 240.165 1452.91 240.165ZM1453.41 238.748C1452.6 238.748 1452.03 238.381 1452.03 237.672C1452.03 236.932 1452.67 236.623 1453.53 236.5C1454.04 236.431 1455.05 236.303 1455.3 236.101V237.065C1455.3 237.976 1454.57 238.748 1453.41 238.748ZM1463.7 231.818H1462.09V229.858H1460.16V231.818H1459V233.31H1460.16V237.859C1460.15 239.398 1461.27 240.154 1462.71 240.112C1463.26 240.096 1463.64 239.989 1463.85 239.92L1463.52 238.413C1463.42 238.439 1463.2 238.487 1462.96 238.487C1462.47 238.487 1462.09 238.317 1462.09 237.539V233.31H1463.7V231.818ZM1469.3 240.16C1471.2 240.16 1472.51 239.228 1472.85 237.805L1471.05 237.603C1470.79 238.295 1470.15 238.658 1469.32 238.658C1468.08 238.658 1467.25 237.837 1467.23 236.436H1472.93V235.845C1472.93 232.974 1471.21 231.712 1469.2 231.712C1466.85 231.712 1465.32 233.432 1465.32 235.957C1465.32 238.525 1466.83 240.16 1469.3 240.16ZM1467.24 235.137C1467.3 234.093 1468.07 233.214 1469.22 233.214C1470.33 233.214 1471.08 234.023 1471.09 235.137H1467.24Z" fill="#C5D1DB"/>
<path d="M1414.56 253.091H1412.96L1410.24 254.87V256.447L1412.85 254.742H1412.91V264H1414.56V253.091ZM1417.88 264H1419.6L1424.35 254.55V253.091H1417.14V254.502H1422.64V254.582L1417.88 264ZM1430.38 252.58H1428.95L1425.44 265.641H1426.86L1430.38 252.58ZM1435.85 253.091H1434.24L1431.52 254.87V256.447L1434.13 254.742H1434.2V264H1435.85V253.091ZM1442.94 253.091H1441.33L1438.61 254.87V256.447L1441.22 254.742H1441.28V264H1442.94V253.091ZM1450.06 252.58H1448.64L1445.13 265.641H1446.55L1450.06 252.58ZM1451.4 264H1458.58V262.588H1453.66V262.509L1455.83 260.239C1457.83 258.221 1458.4 257.256 1458.4 256.037C1458.4 254.284 1456.97 252.942 1454.92 252.942C1452.88 252.942 1451.38 254.263 1451.38 256.255H1452.96C1452.95 255.083 1453.71 254.316 1454.88 254.316C1455.99 254.316 1456.83 254.998 1456.83 256.085C1456.83 257.049 1456.26 257.741 1455.09 258.982L1451.4 262.807V264ZM1464.39 264.181C1466.91 264.181 1468.39 262.125 1468.39 258.551C1468.39 255.003 1466.89 252.942 1464.39 252.942C1461.89 252.942 1460.4 254.998 1460.39 258.551C1460.39 262.12 1461.87 264.176 1464.39 264.181ZM1464.39 262.759C1462.92 262.759 1462.03 261.278 1462.03 258.551C1462.03 255.834 1462.92 254.337 1464.39 254.337C1465.86 254.337 1466.75 255.834 1466.75 258.551C1466.75 261.278 1465.86 262.759 1464.39 262.759ZM1470.28 264H1477.46V262.588H1472.55V262.509L1474.71 260.239C1476.71 258.221 1477.28 257.256 1477.28 256.037C1477.28 254.284 1475.85 252.942 1473.8 252.942C1471.76 252.942 1470.27 254.263 1470.27 256.255H1471.84C1471.83 255.083 1472.59 254.316 1473.77 254.316C1474.87 254.316 1475.72 254.998 1475.72 256.085C1475.72 257.049 1475.14 257.741 1473.97 258.982L1470.28 262.807V264ZM1479.48 264H1486.66V262.588H1481.75V262.509L1483.91 260.239C1485.91 258.221 1486.48 257.256 1486.48 256.037C1486.48 254.284 1485.05 252.942 1483 252.942C1480.96 252.942 1479.47 254.263 1479.47 256.255H1481.04C1481.03 255.083 1481.79 254.316 1482.97 254.316C1484.07 254.316 1484.91 254.998 1484.91 256.085C1484.91 257.049 1484.34 257.741 1483.17 258.982L1479.48 262.807V264Z" fill="#C5D1DB"/>
<circle cx="1218" cy="302" r="7" stroke="#C5D1DB" stroke-width="2"/>
<path d="M1237.34 296.091H1235.41V307H1237.34V296.091ZM1239.77 307H1241.7V298.818H1239.77V307ZM1240.74 297.657C1241.35 297.657 1241.86 297.188 1241.86 296.613C1241.86 296.032 1241.35 295.564 1240.74 295.564C1240.12 295.564 1239.62 296.032 1239.62 296.613C1239.62 297.188 1240.12 297.657 1240.74 297.657ZM1250.6 300.981C1250.33 299.596 1249.23 298.712 1247.31 298.712C1245.34 298.712 1244 299.681 1244 301.194C1244 302.387 1244.73 303.175 1246.3 303.5L1247.7 303.793C1248.45 303.958 1248.8 304.262 1248.8 304.725C1248.8 305.285 1248.19 305.706 1247.28 305.706C1246.39 305.706 1245.82 305.322 1245.65 304.587L1243.77 304.768C1244.01 306.27 1245.27 307.16 1247.28 307.16C1249.33 307.16 1250.77 306.1 1250.78 304.55C1250.77 303.383 1250.02 302.669 1248.47 302.334L1247.08 302.036C1246.25 301.849 1245.92 301.561 1245.92 301.087C1245.92 300.533 1246.53 300.15 1247.33 300.15C1248.22 300.15 1248.69 300.635 1248.84 301.173L1250.6 300.981ZM1256.9 298.818H1255.29V296.858H1253.36V298.818H1252.2V300.31H1253.36V304.859C1253.35 306.398 1254.47 307.154 1255.92 307.112C1256.46 307.096 1256.84 306.989 1257.05 306.92L1256.73 305.413C1256.62 305.439 1256.4 305.487 1256.16 305.487C1255.68 305.487 1255.29 305.317 1255.29 304.539V300.31H1256.9V298.818ZM1261.2 296.091H1259.23V307H1261.2V296.091ZM1267.79 298.818H1266.18V296.858H1264.25V298.818H1263.09V300.31H1264.25V304.859C1264.24 306.398 1265.36 307.154 1266.81 307.112C1267.36 307.096 1267.73 306.989 1267.94 306.92L1267.62 305.413C1267.51 305.439 1267.29 305.487 1267.05 305.487C1266.57 305.487 1266.18 305.317 1266.18 304.539V300.31H1267.79V298.818ZM1273.39 307.16C1275.3 307.16 1276.61 306.228 1276.95 304.805L1275.15 304.603C1274.89 305.295 1274.25 305.658 1273.42 305.658C1272.17 305.658 1271.34 304.837 1271.33 303.436H1277.03V302.845C1277.03 299.974 1275.3 298.712 1273.29 298.712C1270.94 298.712 1269.42 300.432 1269.42 302.957C1269.42 305.525 1270.92 307.16 1273.39 307.16ZM1271.33 302.137C1271.39 301.093 1272.16 300.214 1273.31 300.214C1274.42 300.214 1275.17 301.023 1275.18 302.137H1271.33ZM1279.11 307H1281.04V302.025C1281.04 301.018 1281.71 300.336 1282.54 300.336C1283.35 300.336 1283.91 300.885 1283.91 301.727V307H1285.8V301.897C1285.8 300.975 1286.35 300.336 1287.28 300.336C1288.06 300.336 1288.68 300.794 1288.68 301.806V307H1290.61V301.508C1290.61 299.681 1289.56 298.712 1288.06 298.712C1286.87 298.712 1285.96 299.298 1285.6 300.208H1285.52C1285.2 299.282 1284.41 298.712 1283.31 298.712C1282.21 298.712 1281.39 299.276 1281.05 300.208H1280.95V298.818H1279.11V307Z" fill="#C5D1DB"/>
<path d="M1234.97 323.5H1236.33V322.461C1236.33 321.657 1236.68 320.98 1237.12 320.347L1236.33 319.782C1235.51 320.437 1234.97 321.572 1234.97 322.477V323.5ZM1237.69 323.5H1239.05V322.461C1239.05 321.657 1239.4 320.98 1239.83 320.347L1239.04 319.782C1238.23 320.437 1237.69 321.572 1237.69 322.477V323.5ZM1243.46 331H1245.13L1247.42 322.829H1247.51L1249.8 331H1251.46L1254.49 320.091H1252.75L1250.63 328.544H1250.53L1248.32 320.091H1246.61L1244.4 328.539H1244.3L1242.17 320.091H1240.44L1243.46 331ZM1255.35 331H1256.94V326.004C1256.94 324.933 1257.77 324.161 1258.9 324.161C1259.23 324.161 1259.6 324.219 1259.73 324.256V322.733C1259.57 322.712 1259.26 322.696 1259.05 322.696C1258.09 322.696 1257.27 323.239 1256.98 324.118H1256.89V322.818H1255.35V331ZM1261.11 331H1262.7V322.818H1261.11V331ZM1261.91 321.556C1262.46 321.556 1262.92 321.13 1262.92 320.608C1262.92 320.086 1262.46 319.654 1261.91 319.654C1261.36 319.654 1260.91 320.086 1260.91 320.608C1260.91 321.13 1261.36 321.556 1261.91 321.556ZM1268.66 322.818H1266.98V320.858H1265.39V322.818H1264.19V324.097H1265.39V328.928C1265.39 330.414 1266.52 331.133 1267.78 331.107C1268.28 331.101 1268.63 331.005 1268.81 330.936L1268.52 329.62C1268.42 329.642 1268.22 329.69 1267.97 329.69C1267.45 329.69 1266.98 329.519 1266.98 328.598V324.097H1268.66V322.818ZM1273.86 331.165C1275.65 331.165 1276.91 330.286 1277.27 328.955L1275.76 328.683C1275.48 329.455 1274.78 329.849 1273.88 329.849C1272.52 329.849 1271.6 328.965 1271.56 327.388H1277.37V326.824C1277.37 323.868 1275.6 322.712 1273.75 322.712C1271.47 322.712 1269.97 324.448 1269.97 326.962C1269.97 329.503 1271.45 331.165 1273.86 331.165ZM1271.56 326.195C1271.63 325.034 1272.47 324.027 1273.76 324.027C1275 324.027 1275.81 324.944 1275.81 326.195H1271.56ZM1286.93 322.818H1285.25V320.858H1283.66V322.818H1282.46V324.097H1283.66V328.928C1283.65 330.414 1284.79 331.133 1286.05 331.107C1286.55 331.101 1286.89 331.005 1287.08 330.936L1286.79 329.62C1286.68 329.642 1286.49 329.69 1286.23 329.69C1285.71 329.69 1285.25 329.519 1285.25 328.598V324.097H1286.93V322.818ZM1292.13 331.165C1293.91 331.165 1295.18 330.286 1295.54 328.955L1294.03 328.683C1293.74 329.455 1293.05 329.849 1292.15 329.849C1290.78 329.849 1289.87 328.965 1289.82 327.388H1295.64V326.824C1295.64 323.868 1293.87 322.712 1292.02 322.712C1289.74 322.712 1288.24 324.448 1288.24 326.962C1288.24 329.503 1289.72 331.165 1292.13 331.165ZM1289.83 326.195C1289.89 325.034 1290.73 324.027 1292.03 324.027C1293.26 324.027 1294.07 324.944 1294.08 326.195H1289.83ZM1303.54 324.816C1303.21 323.543 1302.21 322.712 1300.44 322.712C1298.59 322.712 1297.28 323.686 1297.28 325.135C1297.28 326.297 1297.99 327.069 1299.52 327.41L1300.91 327.713C1301.7 327.889 1302.06 328.241 1302.06 328.752C1302.06 329.386 1301.39 329.881 1300.34 329.881C1299.39 329.881 1298.78 329.471 1298.58 328.667L1297.04 328.901C1297.31 330.35 1298.52 331.165 1300.35 331.165C1302.33 331.165 1303.7 330.116 1303.7 328.635C1303.7 327.479 1302.96 326.765 1301.46 326.419L1300.16 326.121C1299.26 325.908 1298.87 325.604 1298.88 325.05C1298.87 324.422 1299.55 323.974 1300.46 323.974C1301.45 323.974 1301.91 324.523 1302.09 325.071L1303.54 324.816ZM1309.27 322.818H1307.59V320.858H1306V322.818H1304.8V324.097H1306V328.928C1305.99 330.414 1307.13 331.133 1308.38 331.107C1308.89 331.101 1309.23 331.005 1309.42 330.936L1309.13 329.62C1309.02 329.642 1308.83 329.69 1308.57 329.69C1308.05 329.69 1307.59 329.519 1307.59 328.598V324.097H1309.27V322.818ZM1317.03 324.816C1316.7 323.543 1315.7 322.712 1313.93 322.712C1312.09 322.712 1310.78 323.686 1310.78 325.135C1310.78 326.297 1311.48 327.069 1313.01 327.41L1314.4 327.713C1315.19 327.889 1315.55 328.241 1315.55 328.752C1315.55 329.386 1314.88 329.881 1313.83 329.881C1312.88 329.881 1312.27 329.471 1312.08 328.667L1310.54 328.901C1310.8 330.35 1312.01 331.165 1313.84 331.165C1315.82 331.165 1317.19 330.116 1317.19 328.635C1317.19 327.479 1316.45 326.765 1314.95 326.419L1313.65 326.121C1312.75 325.908 1312.36 325.604 1312.37 325.05C1312.36 324.422 1313.04 323.974 1313.95 323.974C1314.94 323.974 1315.4 324.523 1315.59 325.071L1317.03 324.816ZM1320.31 320.091H1318.95V321.13C1318.95 321.955 1318.58 322.632 1318.17 323.244L1318.96 323.809C1319.78 323.148 1320.31 322.019 1320.31 321.114V320.091ZM1323.02 320.091H1321.66V321.13C1321.66 321.955 1321.29 322.632 1320.88 323.244L1321.67 323.809C1322.49 323.148 1323.02 322.019 1323.02 321.114V320.091Z" fill="#C5D1DB"/>
<circle cx="923" cy="183" r="8" fill="url(#paint0_linear_1601_17368)"/>
<path d="M943.818 188.16C945.725 188.16 947.036 187.228 947.377 185.805L945.576 185.603C945.315 186.295 944.676 186.658 943.845 186.658C942.599 186.658 941.773 185.837 941.757 184.436H947.457V183.845C947.457 180.974 945.731 179.712 943.717 179.712C941.373 179.712 939.845 181.432 939.845 183.957C939.845 186.525 941.352 188.16 943.818 188.16ZM941.762 183.137C941.821 182.093 942.593 181.214 943.744 181.214C944.852 181.214 945.598 182.023 945.608 183.137H941.762ZM949.538 188H951.466V183.025C951.466 182.018 952.137 181.336 952.968 181.336C953.783 181.336 954.343 181.885 954.343 182.727V188H956.234V182.897C956.234 181.975 956.782 181.336 957.714 181.336C958.492 181.336 959.11 181.794 959.11 182.806V188H961.044V182.508C961.044 180.681 959.989 179.712 958.487 179.712C957.299 179.712 956.393 180.298 956.031 181.208H955.946C955.632 180.282 954.838 179.712 953.735 179.712C952.638 179.712 951.818 180.276 951.477 181.208H951.381V179.818H949.538V188ZM965.804 188.165C967.088 188.165 967.855 187.563 968.206 186.876H968.27V188H970.124V182.524C970.124 180.362 968.361 179.712 966.8 179.712C965.08 179.712 963.759 180.479 963.333 181.97L965.133 182.226C965.325 181.667 965.868 181.187 966.811 181.187C967.706 181.187 968.196 181.645 968.196 182.45V182.482C968.196 183.036 967.615 183.062 966.172 183.217C964.584 183.387 963.066 183.861 963.066 185.704C963.066 187.313 964.243 188.165 965.804 188.165ZM966.305 186.748C965.501 186.748 964.925 186.381 964.925 185.672C964.925 184.932 965.57 184.623 966.433 184.5C966.939 184.431 967.951 184.303 968.201 184.101V185.065C968.201 185.976 967.466 186.748 966.305 186.748ZM972.513 188H974.441V179.818H972.513V188ZM973.482 178.657C974.095 178.657 974.596 178.188 974.596 177.613C974.596 177.032 974.095 176.564 973.482 176.564C972.865 176.564 972.364 177.032 972.364 177.613C972.364 178.188 972.865 178.657 973.482 178.657ZM978.802 177.091H976.874V188H978.802V177.091Z" fill="#6048E5"/>
<path d="M940.347 208H941.833V203.292C941.833 202.263 942.554 201.547 943.4 201.547C944.225 201.547 944.797 202.094 944.797 202.924V208H946.278V203.133C946.278 202.213 946.84 201.547 947.809 201.547C948.595 201.547 949.241 201.984 949.241 203.018V208H950.728V202.879C950.728 201.134 949.753 200.264 948.371 200.264C947.272 200.264 946.447 200.791 946.079 201.607H946C945.667 200.771 944.966 200.264 943.946 200.264C942.937 200.264 942.186 200.766 941.868 201.607H941.774V200.364H940.347V208ZM954.942 208.169C956.205 208.169 956.916 207.528 957.199 206.956H957.259V208H958.711V202.929C958.711 200.707 956.961 200.264 955.748 200.264C954.366 200.264 953.093 200.821 952.596 202.213L953.993 202.531C954.211 201.989 954.768 201.467 955.768 201.467C956.727 201.467 957.219 201.969 957.219 202.835V202.869C957.219 203.411 956.662 203.401 955.29 203.56C953.844 203.729 952.362 204.107 952.362 205.842C952.362 207.344 953.491 208.169 954.942 208.169ZM955.265 206.976C954.425 206.976 953.819 206.598 953.819 205.862C953.819 205.067 954.525 204.783 955.385 204.669C955.867 204.604 957.01 204.475 957.224 204.261V205.246C957.224 206.151 956.503 206.976 955.265 206.976ZM962.177 203.466C962.177 202.248 962.948 201.552 964.007 201.552C965.031 201.552 965.642 202.203 965.642 203.322V208H967.129V203.143C967.129 201.239 966.085 200.264 964.514 200.264C963.326 200.264 962.61 200.781 962.252 201.607H962.157V197.818H960.691V208H962.177V203.466ZM971.335 208.169C972.598 208.169 973.309 207.528 973.592 206.956H973.652V208H975.103V202.929C975.103 200.707 973.353 200.264 972.14 200.264C970.758 200.264 969.485 200.821 968.988 202.213L970.385 202.531C970.604 201.989 971.161 201.467 972.16 201.467C973.12 201.467 973.612 201.969 973.612 202.835V202.869C973.612 203.411 973.055 203.401 971.683 203.56C970.236 203.729 968.755 204.107 968.755 205.842C968.755 207.344 969.883 208.169 971.335 208.169ZM971.658 206.976C970.818 206.976 970.211 206.598 970.211 205.862C970.211 205.067 970.917 204.783 971.777 204.669C972.26 204.604 973.403 204.475 973.617 204.261V205.246C973.617 206.151 972.896 206.976 971.658 206.976ZM978.57 203.466C978.57 202.248 979.316 201.552 980.35 201.552C981.359 201.552 981.97 202.213 981.97 203.322V208H983.457V203.143C983.457 201.254 982.418 200.264 980.857 200.264C979.708 200.264 978.958 200.796 978.605 201.607H978.51V200.364H977.083V208H978.57V203.466ZM985.45 208H986.937V200.364H985.45V208ZM986.201 199.185C986.713 199.185 987.141 198.788 987.141 198.3C987.141 197.813 986.713 197.411 986.201 197.411C985.684 197.411 985.262 197.813 985.262 198.3C985.262 198.788 985.684 199.185 986.201 199.185ZM995.067 210.769C996.215 210.769 997.543 210.456 998.159 210.168L997.811 209.079C997.393 209.228 996.245 209.591 995.131 209.591C991.786 209.591 989.991 207.746 989.991 204.445C989.991 201.283 991.766 199.24 994.947 199.24C997.856 199.24 999.591 201.109 999.586 203.635C999.591 205.793 999.312 206.762 998.408 206.762C997.896 206.762 997.612 206.344 997.612 205.822V201.209H996.389V201.766H996.325C996.175 201.328 995.31 200.935 994.271 201.06C992.835 201.229 991.602 202.417 991.602 204.376C991.602 206.419 992.646 207.786 994.321 207.851C995.455 207.901 996.19 207.374 996.424 206.787H996.484C996.603 207.587 997.468 207.94 998.318 207.911C1000.44 207.871 1000.84 205.783 1000.84 203.685C1000.84 200.692 998.795 198.087 994.997 198.087C991.015 198.087 988.673 200.518 988.668 204.435C988.673 208.467 990.955 210.769 995.067 210.769ZM994.609 206.633C993.312 206.633 992.864 205.519 992.859 204.316C992.864 203.173 993.506 202.263 994.629 202.263C995.847 202.263 996.394 202.8 996.399 204.311C996.404 205.862 995.902 206.633 994.609 206.633ZM1002.49 208H1003.97V200.364H1002.49V208ZM1003.24 199.185C1003.75 199.185 1004.18 198.788 1004.18 198.3C1004.18 197.813 1003.75 197.411 1003.24 197.411C1002.72 197.411 1002.3 197.813 1002.3 198.3C1002.3 198.788 1002.72 199.185 1003.24 199.185ZM1007.46 203.466C1007.46 202.248 1008.2 201.552 1009.24 201.552C1010.25 201.552 1010.86 202.213 1010.86 203.322V208H1012.35V203.143C1012.35 201.254 1011.31 200.264 1009.75 200.264C1008.6 200.264 1007.85 200.796 1007.49 201.607H1007.4V200.364H1005.97V208H1007.46V203.466ZM1014.46 208H1015.91V206.812H1016.03C1016.3 207.299 1016.85 208.149 1018.24 208.149C1020.09 208.149 1021.43 206.668 1021.43 204.197C1021.43 201.721 1020.07 200.264 1018.23 200.264C1016.81 200.264 1016.3 201.129 1016.03 201.602H1015.94V197.818H1014.46V208ZM1015.92 204.182C1015.92 202.586 1016.61 201.527 1017.91 201.527C1019.26 201.527 1019.93 202.665 1019.93 204.182C1019.93 205.713 1019.24 206.881 1017.91 206.881C1016.63 206.881 1015.92 205.788 1015.92 204.182ZM1026.32 208.154C1028.47 208.154 1029.88 206.578 1029.88 204.217C1029.88 201.84 1028.47 200.264 1026.32 200.264C1024.17 200.264 1022.76 201.84 1022.76 204.217C1022.76 206.578 1024.17 208.154 1026.32 208.154ZM1026.32 206.906C1024.92 206.906 1024.26 205.678 1024.26 204.212C1024.26 202.75 1024.92 201.507 1026.32 201.507C1027.72 201.507 1028.38 202.75 1028.38 204.212C1028.38 205.678 1027.72 206.906 1026.32 206.906ZM1032.4 200.364H1030.77L1033.11 204.182L1030.74 208H1032.37L1034.08 205.146L1035.8 208H1037.43L1035.03 204.182L1037.41 200.364H1035.78L1034.08 203.337L1032.4 200.364ZM1039.91 208.094C1040.46 208.094 1040.91 207.652 1040.91 207.1C1040.91 206.558 1040.46 206.111 1039.91 206.111C1039.37 206.111 1038.92 206.558 1038.92 207.1C1038.92 207.652 1039.37 208.094 1039.91 208.094ZM1046.12 208.154C1047.92 208.154 1049.09 207.07 1049.25 205.584H1047.81C1047.62 206.409 1046.98 206.896 1046.13 206.896C1044.87 206.896 1044.06 205.847 1044.06 204.182C1044.06 202.546 1044.88 201.517 1046.13 201.517C1047.07 201.517 1047.65 202.114 1047.81 202.83H1049.25C1049.09 201.288 1047.84 200.264 1046.1 200.264C1043.95 200.264 1042.56 201.885 1042.56 204.217C1042.56 206.518 1043.9 208.154 1046.12 208.154ZM1054.06 208.154C1056.21 208.154 1057.62 206.578 1057.62 204.217C1057.62 201.84 1056.21 200.264 1054.06 200.264C1051.91 200.264 1050.5 201.84 1050.5 204.217C1050.5 206.578 1051.91 208.154 1054.06 208.154ZM1054.06 206.906C1052.66 206.906 1052 205.678 1052 204.212C1052 202.75 1052.66 201.507 1054.06 201.507C1055.46 201.507 1056.12 202.75 1056.12 204.212C1056.12 205.678 1055.46 206.906 1054.06 206.906ZM1059.28 208H1060.77V203.292C1060.77 202.263 1061.49 201.547 1062.33 201.547C1063.16 201.547 1063.73 202.094 1063.73 202.924V208H1065.21V203.133C1065.21 202.213 1065.77 201.547 1066.74 201.547C1067.53 201.547 1068.17 201.984 1068.17 203.018V208H1069.66V202.879C1069.66 201.134 1068.68 200.264 1067.3 200.264C1066.2 200.264 1065.38 200.791 1065.01 201.607H1064.93C1064.6 200.771 1063.9 200.264 1062.88 200.264C1061.87 200.264 1061.12 200.766 1060.8 201.607H1060.71V200.364H1059.28V208Z" fill="#64778C"/>
<a href="mailto:mahani@inbox.com">
<rect fill="black" fill-opacity="0" x="0.347656" y="-0.971591" width="131.301" height="16.9432"/>
</a>
<path d="M496.483 167.818H494.784V167.174C494.784 166.534 495.05 166.178 495.769 166.178C496.073 166.178 496.328 166.247 496.488 166.295L496.877 164.803C496.627 164.718 496.078 164.58 495.412 164.58C493.99 164.58 492.855 165.395 492.855 167.046V167.818H491.646V169.31H492.855V176H494.784V169.31H496.483V167.818ZM498.443 176H500.371V167.818H498.443V176ZM499.412 166.657C500.025 166.657 500.526 166.188 500.526 165.613C500.526 165.032 500.025 164.564 499.412 164.564C498.795 164.564 498.294 165.032 498.294 165.613C498.294 166.188 498.795 166.657 499.412 166.657ZM502.804 176H504.732V171.19C504.732 170.151 505.515 169.416 506.575 169.416C506.9 169.416 507.305 169.475 507.47 169.528V167.754C507.295 167.722 506.991 167.701 506.778 167.701C505.84 167.701 505.057 168.234 504.759 169.182H504.674V167.818H502.804V176ZM515.668 169.981C515.402 168.596 514.294 167.712 512.376 167.712C510.405 167.712 509.063 168.681 509.068 170.194C509.063 171.387 509.798 172.175 511.369 172.5L512.765 172.793C513.516 172.958 513.868 173.262 513.868 173.725C513.868 174.285 513.26 174.706 512.344 174.706C511.46 174.706 510.885 174.322 510.72 173.587L508.839 173.768C509.079 175.27 510.341 176.16 512.349 176.16C514.395 176.16 515.838 175.1 515.844 173.55C515.838 172.383 515.087 171.669 513.543 171.334L512.147 171.036C511.316 170.849 510.986 170.561 510.991 170.087C510.986 169.533 511.598 169.15 512.403 169.15C513.292 169.15 513.761 169.635 513.91 170.173L515.668 169.981ZM521.969 167.818H520.355V165.858H518.427V167.818H517.266V169.31H518.427V173.859C518.417 175.398 519.535 176.154 520.984 176.112C521.533 176.096 521.911 175.989 522.119 175.92L521.794 174.413C521.687 174.439 521.469 174.487 521.229 174.487C520.744 174.487 520.355 174.317 520.355 173.539V169.31H521.969V167.818ZM533.258 165.091H531.292V172.527H531.196L526.062 165.091H524.293V176H526.269V168.569H526.36L531.5 176H533.258V165.091ZM538.13 176.165C539.414 176.165 540.181 175.563 540.533 174.876H540.597V176H542.45V170.524C542.45 168.362 540.687 167.712 539.127 167.712C537.406 167.712 536.085 168.479 535.659 169.97L537.459 170.226C537.651 169.667 538.194 169.187 539.137 169.187C540.032 169.187 540.522 169.645 540.522 170.45V170.482C540.522 171.036 539.942 171.062 538.498 171.217C536.911 171.387 535.392 171.861 535.392 173.704C535.392 175.313 536.57 176.165 538.13 176.165ZM538.631 174.748C537.827 174.748 537.252 174.381 537.252 173.672C537.252 172.932 537.896 172.623 538.759 172.5C539.265 172.431 540.277 172.303 540.527 172.101V173.065C540.527 173.976 539.792 174.748 538.631 174.748ZM544.839 176H546.768V171.025C546.768 170.018 547.439 169.336 548.27 169.336C549.085 169.336 549.644 169.885 549.644 170.727V176H551.535V170.897C551.535 169.975 552.084 169.336 553.016 169.336C553.793 169.336 554.411 169.794 554.411 170.806V176H556.345V170.508C556.345 168.681 555.29 167.712 553.788 167.712C552.6 167.712 551.695 168.298 551.333 169.208H551.247C550.933 168.282 550.139 167.712 549.037 167.712C547.939 167.712 547.119 168.276 546.778 169.208H546.682V167.818H544.839V176ZM562.373 176.16C564.28 176.16 565.591 175.228 565.932 173.805L564.131 173.603C563.87 174.295 563.231 174.658 562.4 174.658C561.154 174.658 560.328 173.837 560.312 172.436H566.012V171.845C566.012 168.974 564.286 167.712 562.272 167.712C559.928 167.712 558.4 169.432 558.4 171.957C558.4 174.525 559.907 176.16 562.373 176.16ZM560.317 171.137C560.376 170.093 561.148 169.214 562.299 169.214C563.407 169.214 564.152 170.023 564.163 171.137H560.317Z" fill="#6048E5"/>
<path d="M492.681 189.091V200H494.247V192.1H494.349L497.566 199.984H498.866L502.083 192.106H502.184V200H503.75V189.091H501.753L498.28 197.571H498.152L494.679 189.091H492.681ZM508.397 200.181C509.75 200.181 510.511 199.494 510.815 198.881H510.879V200H512.434V194.567C512.434 192.186 510.559 191.712 509.259 191.712C507.779 191.712 506.415 192.308 505.882 193.8L507.379 194.141C507.614 193.56 508.21 193.001 509.281 193.001C510.309 193.001 510.836 193.539 510.836 194.466V194.503C510.836 195.083 510.24 195.073 508.769 195.243C507.219 195.424 505.632 195.829 505.632 197.688C505.632 199.297 506.841 200.181 508.397 200.181ZM508.743 198.903C507.843 198.903 507.193 198.498 507.193 197.71C507.193 196.857 507.949 196.554 508.871 196.431C509.387 196.362 510.612 196.223 510.841 195.994V197.049C510.841 198.018 510.069 198.903 508.743 198.903ZM514.556 200H516.148V195.004C516.148 193.933 516.974 193.161 518.103 193.161C518.433 193.161 518.806 193.219 518.934 193.256V191.733C518.774 191.712 518.46 191.696 518.258 191.696C517.299 191.696 516.478 192.239 516.18 193.118H516.095V191.818H514.556V200ZM520.312 200H521.905V191.818H520.312V200ZM521.117 190.556C521.665 190.556 522.123 190.13 522.123 189.608C522.123 189.086 521.665 188.654 521.117 188.654C520.563 188.654 520.11 189.086 520.11 189.608C520.11 190.13 520.563 190.556 521.117 190.556ZM526.429 200.181C527.782 200.181 528.543 199.494 528.847 198.881H528.911V200H530.466V194.567C530.466 192.186 528.591 191.712 527.292 191.712C525.811 191.712 524.447 192.308 523.915 193.8L525.411 194.141C525.646 193.56 526.242 193.001 527.313 193.001C528.341 193.001 528.868 193.539 528.868 194.466V194.503C528.868 195.083 528.272 195.073 526.802 195.243C525.252 195.424 523.664 195.829 523.664 197.688C523.664 199.297 524.873 200.181 526.429 200.181ZM526.775 198.903C525.875 198.903 525.225 198.498 525.225 197.71C525.225 196.857 525.981 196.554 526.903 196.431C527.42 196.362 528.645 196.223 528.874 195.994V197.049C528.874 198.018 528.101 198.903 526.775 198.903Z" fill="#64778C"/>
<circle cx="583" cy="171" r="8" fill="url(#paint1_linear_1601_17368)"/>
<path d="M441.986 279.091H440.058V290H441.986V279.091ZM446.773 290.165C448.057 290.165 448.824 289.563 449.176 288.876H449.24V290H451.093V284.524C451.093 282.362 449.33 281.712 447.769 281.712C446.049 281.712 444.728 282.479 444.302 283.97L446.102 284.226C446.294 283.667 446.837 283.187 447.78 283.187C448.675 283.187 449.165 283.645 449.165 284.45V284.482C449.165 285.036 448.584 285.062 447.141 285.217C445.554 285.387 444.035 285.861 444.035 287.704C444.035 289.313 445.213 290.165 446.773 290.165ZM447.274 288.748C446.47 288.748 445.894 288.381 445.894 287.672C445.894 286.932 446.539 286.623 447.402 286.5C447.908 286.431 448.92 286.303 449.17 286.101V287.065C449.17 287.976 448.435 288.748 447.274 288.748ZM459.949 283.981C459.683 282.596 458.575 281.712 456.657 281.712C454.686 281.712 453.344 282.681 453.349 284.194C453.344 285.387 454.079 286.175 455.65 286.5L457.046 286.793C457.797 286.958 458.148 287.262 458.148 287.725C458.148 288.285 457.541 288.706 456.625 288.706C455.741 288.706 455.166 288.322 455 287.587L453.12 287.768C453.36 289.27 454.622 290.16 456.63 290.16C458.676 290.16 460.119 289.1 460.125 287.55C460.119 286.383 459.368 285.669 457.824 285.334L456.428 285.036C455.597 284.849 455.267 284.561 455.272 284.087C455.267 283.533 455.879 283.15 456.684 283.15C457.573 283.15 458.042 283.635 458.191 284.173L459.949 283.981ZM466.25 281.818H464.636V279.858H462.708V281.818H461.547V283.31H462.708V287.859C462.697 289.398 463.816 290.154 465.265 290.112C465.813 290.096 466.192 289.989 466.399 289.92L466.074 288.413C465.968 288.439 465.75 288.487 465.51 288.487C465.025 288.487 464.636 288.317 464.636 287.539V283.31H466.25V281.818ZM477.539 279.091H475.573V286.527H475.477L470.342 279.091H468.574V290H470.55V282.569H470.641L475.781 290H477.539V279.091ZM482.411 290.165C483.695 290.165 484.462 289.563 484.814 288.876H484.878V290H486.731V284.524C486.731 282.362 484.968 281.712 483.407 281.712C481.687 281.712 480.366 282.479 479.94 283.97L481.74 284.226C481.932 283.667 482.475 283.187 483.418 283.187C484.313 283.187 484.803 283.645 484.803 284.45V284.482C484.803 285.036 484.222 285.062 482.779 285.217C481.191 285.387 479.673 285.861 479.673 287.704C479.673 289.313 480.851 290.165 482.411 290.165ZM482.912 288.748C482.108 288.748 481.532 288.381 481.532 287.672C481.532 286.932 482.177 286.623 483.04 286.5C483.546 286.431 484.558 286.303 484.808 286.101V287.065C484.808 287.976 484.073 288.748 482.912 288.748ZM489.12 290H491.048V285.025C491.048 284.018 491.72 283.336 492.551 283.336C493.366 283.336 493.925 283.885 493.925 284.727V290H495.816V284.897C495.816 283.975 496.364 283.336 497.297 283.336C498.074 283.336 498.692 283.794 498.692 284.806V290H500.626V284.508C500.626 282.681 499.571 281.712 498.069 281.712C496.881 281.712 495.976 282.298 495.613 283.208H495.528C495.214 282.282 494.42 281.712 493.318 281.712C492.22 281.712 491.4 282.276 491.059 283.208H490.963V281.818H489.12V290ZM506.654 290.16C508.561 290.16 509.872 289.228 510.212 287.805L508.412 287.603C508.151 288.295 507.512 288.658 506.681 288.658C505.434 288.658 504.609 287.837 504.593 286.436H510.292V285.845C510.292 282.974 508.567 281.712 506.553 281.712C504.209 281.712 502.681 283.432 502.681 285.957C502.681 288.525 504.188 290.16 506.654 290.16ZM504.598 285.137C504.657 284.093 505.429 283.214 506.58 283.214C507.688 283.214 508.433 284.023 508.444 285.137H504.598Z" fill="#6048E5"/>
<path d="M440.566 303.091V314H442.132V306.1H442.233L445.45 313.984H446.75L449.967 306.106H450.069V314H451.635V303.091H449.637L446.164 311.571H446.036L442.563 303.091H440.566ZM456.281 314.181C457.634 314.181 458.396 313.494 458.699 312.881H458.763V314H460.318V308.567C460.318 306.186 458.443 305.712 457.144 305.712C455.663 305.712 454.299 306.308 453.767 307.8L455.263 308.141C455.498 307.56 456.094 307.001 457.165 307.001C458.193 307.001 458.72 307.539 458.72 308.466V308.503C458.72 309.083 458.124 309.073 456.654 309.243C455.104 309.424 453.516 309.829 453.516 311.688C453.516 313.297 454.725 314.181 456.281 314.181ZM456.627 312.903C455.727 312.903 455.077 312.498 455.077 311.71C455.077 310.857 455.833 310.554 456.755 310.431C457.272 310.362 458.497 310.223 458.726 309.994V311.049C458.726 312.018 457.953 312.903 456.627 312.903ZM464.032 309.142C464.032 307.837 464.858 307.091 465.993 307.091C467.09 307.091 467.745 307.789 467.745 308.988V314H469.338V308.796C469.338 306.756 468.219 305.712 466.536 305.712C465.263 305.712 464.496 306.266 464.112 307.15H464.011V303.091H462.44V314H464.032V309.142ZM473.844 314.181C475.197 314.181 475.959 313.494 476.263 312.881H476.327V314H477.882V308.567C477.882 306.186 476.007 305.712 474.707 305.712C473.226 305.712 471.863 306.308 471.33 307.8L472.827 308.141C473.061 307.56 473.658 307.001 474.729 307.001C475.757 307.001 476.284 307.539 476.284 308.466V308.503C476.284 309.083 475.687 309.073 474.217 309.243C472.667 309.424 471.08 309.829 471.08 311.688C471.08 313.297 472.289 314.181 473.844 314.181ZM474.191 312.903C473.29 312.903 472.64 312.498 472.64 311.71C472.64 310.857 473.397 310.554 474.318 310.431C474.835 310.362 476.06 310.223 476.289 309.994V311.049C476.289 312.018 475.517 312.903 474.191 312.903ZM481.596 309.142C481.596 307.837 482.395 307.091 483.503 307.091C484.584 307.091 485.239 307.8 485.239 308.988V314H486.832V308.796C486.832 306.772 485.719 305.712 484.046 305.712C482.816 305.712 482.011 306.282 481.633 307.15H481.532V305.818H480.003V314H481.596V309.142ZM488.968 314H490.561V305.818H488.968V314ZM489.772 304.556C490.321 304.556 490.779 304.13 490.779 303.608C490.779 303.086 490.321 302.654 489.772 302.654C489.218 302.654 488.766 303.086 488.766 303.608C488.766 304.13 489.218 304.556 489.772 304.556Z" fill="#64778C"/>
<circle cx="527" cy="285" r="8" fill="url(#paint2_linear_1601_17368)"/>
<path d="M790 147L720 300" stroke="url(#paint3_linear_1601_17368)"/>
<path d="M891 290L733 313" stroke="url(#paint4_linear_1601_17368)"/>
<path d="M911 188L730 307" stroke="url(#paint5_linear_1601_17368)"/>
<path d="M523 284L701 311" stroke="url(#paint6_linear_1601_17368)"/>
<path d="M587 176L708 302" stroke="url(#paint7_linear_1601_17368)"/>
<path d="M732.464 140H734.393V131.818H732.464V140ZM733.434 130.657C734.046 130.657 734.547 130.188 734.547 129.613C734.547 129.032 734.046 128.564 733.434 128.564C732.816 128.564 732.315 129.032 732.315 129.613C732.315 130.188 732.816 130.657 733.434 130.657ZM736.825 140H738.754V135.025C738.754 134.018 739.425 133.336 740.256 133.336C741.071 133.336 741.63 133.885 741.63 134.727V140H743.521V134.897C743.521 133.975 744.07 133.336 745.002 133.336C745.78 133.336 746.398 133.794 746.398 134.806V140H748.331V134.508C748.331 132.681 747.276 131.712 745.774 131.712C744.586 131.712 743.681 132.298 743.319 133.208H743.233C742.919 132.282 742.126 131.712 741.023 131.712C739.926 131.712 739.105 132.276 738.764 133.208H738.668V131.818H736.825V140ZM753.092 140.165C754.375 140.165 755.143 139.563 755.494 138.876H755.558V140H757.412V134.524C757.412 132.362 755.649 131.712 754.088 131.712C752.367 131.712 751.046 132.479 750.62 133.97L752.421 134.226C752.612 133.667 753.156 133.187 754.098 133.187C754.993 133.187 755.483 133.645 755.483 134.45V134.482C755.483 135.036 754.903 135.062 753.459 135.217C751.872 135.387 750.354 135.861 750.354 137.704C750.354 139.313 751.531 140.165 753.092 140.165ZM753.592 138.748C752.788 138.748 752.213 138.381 752.213 137.672C752.213 136.932 752.857 136.623 753.72 136.5C754.226 136.431 755.238 136.303 755.489 136.101V137.065C755.489 137.976 754.754 138.748 753.592 138.748ZM763.359 143.239C765.569 143.239 767.199 142.227 767.199 140.133V131.818H765.298V133.171H765.191C764.898 132.58 764.286 131.712 762.842 131.712C760.951 131.712 759.465 133.192 759.465 135.882C759.465 138.551 760.951 139.883 762.837 139.883C764.238 139.883 764.893 139.132 765.191 138.53H765.287V140.08C765.287 141.284 764.488 141.779 763.391 141.779C762.23 141.779 761.718 141.23 761.484 140.751L759.747 141.172C760.099 142.317 761.276 143.239 763.359 143.239ZM763.375 138.37C762.102 138.37 761.431 137.379 761.431 135.872C761.431 134.386 762.091 133.294 763.375 133.294C764.616 133.294 765.298 134.322 765.298 135.872C765.298 137.433 764.605 138.37 763.375 138.37ZM773.248 140.16C775.155 140.16 776.465 139.228 776.806 137.805L775.006 137.603C774.745 138.295 774.105 138.658 773.274 138.658C772.028 138.658 771.202 137.837 771.186 136.436H776.886V135.845C776.886 132.974 775.16 131.712 773.147 131.712C770.803 131.712 769.274 133.432 769.274 135.957C769.274 138.525 770.782 140.16 773.248 140.16ZM771.192 135.137C771.25 134.093 772.023 133.214 773.173 133.214C774.281 133.214 775.027 134.023 775.038 135.137H771.192Z" fill="#6048E5"/>
<path d="M650.139 159.142C650.139 157.837 650.965 157.091 652.099 157.091C653.196 157.091 653.852 157.789 653.852 158.988V164H655.444V158.796C655.444 156.756 654.326 155.712 652.642 155.712C651.369 155.712 650.602 156.266 650.219 157.15H650.118V153.091H648.546V164H650.139V159.142ZM661.389 155.818H659.711V153.858H658.118V155.818H656.92V157.097H658.118V161.928C658.113 163.414 659.248 164.133 660.505 164.107C661.011 164.101 661.352 164.005 661.538 163.936L661.25 162.62C661.144 162.642 660.947 162.69 660.691 162.69C660.174 162.69 659.711 162.519 659.711 161.598V157.097H661.389V155.818ZM666.97 155.818H665.292V153.858H663.699V155.818H662.501V157.097H663.699V161.928C663.694 163.414 664.829 164.133 666.086 164.107C666.592 164.101 666.933 164.005 667.119 163.936L666.831 162.62C666.725 162.642 666.528 162.69 666.272 162.69C665.756 162.69 665.292 162.519 665.292 161.598V157.097H666.97V155.818ZM668.732 167.068H670.324V162.727H670.42C670.708 163.249 671.294 164.16 672.785 164.16C674.767 164.16 676.205 162.572 676.205 159.925C676.205 157.272 674.746 155.712 672.769 155.712C671.251 155.712 670.703 156.638 670.42 157.145H670.287V155.818H668.732V167.068ZM670.293 159.909C670.293 158.199 671.038 157.065 672.429 157.065C673.872 157.065 674.597 158.284 674.597 159.909C674.597 161.55 673.851 162.801 672.429 162.801C671.06 162.801 670.293 161.63 670.293 159.909ZM684.121 157.816C683.79 156.543 682.794 155.712 681.026 155.712C679.177 155.712 677.867 156.686 677.867 158.135C677.867 159.297 678.57 160.069 680.104 160.41L681.489 160.713C682.278 160.889 682.645 161.241 682.645 161.752C682.645 162.386 681.969 162.881 680.925 162.881C679.971 162.881 679.359 162.471 679.167 161.667L677.627 161.901C677.894 163.35 679.098 164.165 680.935 164.165C682.911 164.165 684.28 163.116 684.28 161.635C684.28 160.479 683.545 159.765 682.043 159.419L680.744 159.121C679.843 158.908 679.454 158.604 679.46 158.05C679.454 157.422 680.136 156.974 681.042 156.974C682.033 156.974 682.491 157.523 682.677 158.071L684.121 157.816ZM687.081 158.146C687.662 158.146 688.146 157.672 688.146 157.081C688.146 156.5 687.662 156.021 687.081 156.021C686.495 156.021 686.016 156.5 686.016 157.081C686.016 157.672 686.495 158.146 687.081 158.146ZM687.081 164.101C687.662 164.101 688.146 163.627 688.146 163.036C688.146 162.455 687.662 161.976 687.081 161.976C686.495 161.976 686.016 162.455 686.016 163.036C686.016 163.627 686.495 164.101 687.081 164.101ZM694.434 152.58H693.012L689.497 165.641H690.919L694.434 152.58ZM699.942 152.58H698.52L695.004 165.641H696.427L699.942 152.58ZM701.295 167.068H702.888V162.727H702.984C703.271 163.249 703.857 164.16 705.349 164.16C707.33 164.16 708.769 162.572 708.769 159.925C708.769 157.272 707.309 155.712 705.333 155.712C703.815 155.712 703.266 156.638 702.984 157.145H702.851V155.818H701.295V167.068ZM702.856 159.909C702.856 158.199 703.602 157.065 704.992 157.065C706.436 157.065 707.16 158.284 707.16 159.909C707.16 161.55 706.414 162.801 704.992 162.801C703.623 162.801 702.856 161.63 702.856 159.909ZM710.553 164H712.146V159.004C712.146 157.933 712.971 157.161 714.101 157.161C714.431 157.161 714.804 157.219 714.932 157.256V155.733C714.772 155.712 714.458 155.696 714.255 155.696C713.296 155.696 712.476 156.239 712.178 157.118H712.093V155.818H710.553V164ZM719.463 164.165C721.77 164.165 723.277 162.477 723.277 159.946C723.277 157.4 721.77 155.712 719.463 155.712C717.157 155.712 715.649 157.4 715.649 159.946C715.649 162.477 717.157 164.165 719.463 164.165ZM719.469 162.828C717.961 162.828 717.258 161.512 717.258 159.941C717.258 158.375 717.961 157.043 719.469 157.043C720.965 157.043 721.669 158.375 721.669 159.941C721.669 161.512 720.965 162.828 719.469 162.828ZM728.949 155.818H727.186V155.083C727.186 154.359 727.484 153.964 728.262 153.964C728.592 153.964 728.826 154.039 728.975 154.087L729.348 152.798C729.125 152.713 728.661 152.58 728.017 152.58C726.722 152.58 725.588 153.336 725.588 154.87V155.818H724.325V157.097H725.588V164H727.186V157.097H728.949V155.818ZM730.592 164H732.185V155.818H730.592V164ZM731.396 154.556C731.945 154.556 732.403 154.13 732.403 153.608C732.403 153.086 731.945 152.654 731.396 152.654C730.843 152.654 730.39 153.086 730.39 153.608C730.39 154.13 730.843 154.556 731.396 154.556ZM735.92 153.091H734.328V164H735.92V153.091ZM741.589 164.165C743.374 164.165 744.636 163.286 744.998 161.955L743.491 161.683C743.203 162.455 742.511 162.849 741.605 162.849C740.241 162.849 739.325 161.965 739.283 160.388H745.099V159.824C745.099 156.868 743.331 155.712 741.477 155.712C739.197 155.712 737.695 157.448 737.695 159.962C737.695 162.503 739.176 164.165 741.589 164.165ZM739.288 159.195C739.352 158.034 740.194 157.027 741.488 157.027C742.724 157.027 743.533 157.944 743.539 159.195H739.288ZM747.916 164.101C748.497 164.101 748.981 163.627 748.981 163.036C748.981 162.455 748.497 161.976 747.916 161.976C747.33 161.976 746.851 162.455 746.851 163.036C746.851 163.627 747.33 164.101 747.916 164.101ZM751.115 167.068H752.707V162.727H752.803C753.091 163.249 753.677 164.16 755.168 164.16C757.15 164.16 758.588 162.572 758.588 159.925C758.588 157.272 757.128 155.712 755.152 155.712C753.634 155.712 753.085 156.638 752.803 157.145H752.67V155.818H751.115V167.068ZM752.675 159.909C752.675 158.199 753.421 157.065 754.811 157.065C756.255 157.065 756.979 158.284 756.979 159.909C756.979 161.55 756.234 162.801 754.811 162.801C753.442 162.801 752.675 161.63 752.675 159.909ZM761.965 159.142C761.965 157.837 762.764 157.091 763.872 157.091C764.953 157.091 765.609 157.8 765.609 158.988V164H767.201V158.796C767.201 156.772 766.088 155.712 764.415 155.712C763.185 155.712 762.381 156.282 762.002 157.15H761.901V155.818H760.372V164H761.965V159.142ZM772.768 167.239C774.85 167.239 776.459 166.285 776.459 164.181V155.818H774.898V157.145H774.781C774.499 156.638 773.934 155.712 772.411 155.712C770.435 155.712 768.98 157.272 768.98 159.877C768.98 162.487 770.467 163.877 772.4 163.877C773.902 163.877 774.483 163.031 774.771 162.509H774.872V164.117C774.872 165.401 773.993 165.955 772.784 165.955C771.457 165.955 770.941 165.289 770.658 164.82L769.289 165.385C769.721 166.386 770.813 167.239 772.768 167.239ZM772.752 162.556C771.329 162.556 770.589 161.464 770.589 159.856C770.589 158.284 771.313 157.065 772.752 157.065C774.142 157.065 774.888 158.199 774.888 159.856C774.888 161.544 774.126 162.556 772.752 162.556Z" fill="#64778C"/>
<circle cx="794" cy="135" r="8" fill="url(#paint8_linear_1601_17368)"/>
<circle cx="903" cy="288" r="8" fill="url(#paint9_linear_1601_17368)"/>
<path d="M920.046 296.068H921.974V291.711H922.054C922.358 292.308 922.992 293.144 924.398 293.144C926.326 293.144 927.77 291.615 927.77 288.92C927.77 286.192 926.284 284.712 924.393 284.712C922.949 284.712 922.347 285.58 922.054 286.171H921.942V284.818H920.046V296.068ZM921.937 288.909C921.937 287.322 922.619 286.294 923.86 286.294C925.144 286.294 925.804 287.386 925.804 288.909C925.804 290.443 925.133 291.562 923.86 291.562C922.63 291.562 921.937 290.496 921.937 288.909ZM929.871 293H931.799V288.19C931.799 287.151 932.582 286.416 933.642 286.416C933.967 286.416 934.372 286.475 934.537 286.528V284.754C934.362 284.722 934.058 284.701 933.845 284.701C932.907 284.701 932.124 285.234 931.826 286.182H931.741V284.818H929.871V293ZM939.5 293.16C941.897 293.16 943.421 291.471 943.421 288.941C943.421 286.406 941.897 284.712 939.5 284.712C937.103 284.712 935.58 286.406 935.58 288.941C935.58 291.471 937.103 293.16 939.5 293.16ZM939.511 291.615C938.185 291.615 937.535 290.433 937.535 288.936C937.535 287.439 938.185 286.24 939.511 286.24C940.816 286.24 941.466 287.439 941.466 288.936C941.466 290.433 940.816 291.615 939.511 291.615ZM949.652 284.818H947.952V284.174C947.952 283.534 948.219 283.178 948.938 283.178C949.241 283.178 949.497 283.247 949.657 283.295L950.046 281.803C949.795 281.718 949.247 281.58 948.581 281.58C947.159 281.58 946.024 282.395 946.024 284.046V284.818H944.815V286.31H946.024V293H947.952V286.31H949.652V284.818ZM951.612 293H953.54V284.818H951.612V293ZM952.581 283.657C953.194 283.657 953.695 283.188 953.695 282.613C953.695 282.032 953.194 281.564 952.581 281.564C951.963 281.564 951.463 282.032 951.463 282.613C951.463 283.188 951.963 283.657 952.581 283.657ZM957.901 282.091H955.973V293H957.901V282.091ZM963.956 293.16C965.863 293.16 967.174 292.228 967.514 290.805L965.714 290.603C965.453 291.295 964.814 291.658 963.983 291.658C962.736 291.658 961.911 290.837 961.895 289.436H967.594V288.845C967.594 285.974 965.868 284.712 963.855 284.712C961.511 284.712 959.982 286.432 959.982 288.957C959.982 291.525 961.49 293.16 963.956 293.16ZM961.9 288.137C961.959 287.093 962.731 286.214 963.882 286.214C964.99 286.214 965.735 287.023 965.746 288.137H961.9ZM973.458 293C976.781 293 978.752 290.944 978.752 287.535C978.752 284.136 976.781 282.091 973.532 282.091H969.761V293H973.458ZM971.737 291.29V283.801H973.42C975.636 283.801 976.792 285.037 976.792 287.535C976.792 290.044 975.636 291.29 973.362 291.29H971.737ZM984.617 293.16C986.524 293.16 987.834 292.228 988.175 290.805L986.375 290.603C986.114 291.295 985.475 291.658 984.644 291.658C983.397 291.658 982.571 290.837 982.555 289.436H988.255V288.845C988.255 285.974 986.529 284.712 984.516 284.712C982.172 284.712 980.643 286.432 980.643 288.957C980.643 291.525 982.151 293.16 984.617 293.16ZM982.561 288.137C982.619 287.093 983.392 286.214 984.542 286.214C985.65 286.214 986.396 287.023 986.407 288.137H982.561ZM996.803 286.981C996.537 285.596 995.429 284.712 993.511 284.712C991.54 284.712 990.198 285.681 990.203 287.194C990.198 288.387 990.933 289.175 992.504 289.5L993.9 289.793C994.651 289.958 995.003 290.262 995.003 290.725C995.003 291.285 994.395 291.706 993.479 291.706C992.595 291.706 992.02 291.322 991.854 290.587L989.974 290.768C990.214 292.27 991.476 293.16 993.484 293.16C995.53 293.16 996.973 292.1 996.979 290.55C996.973 289.383 996.222 288.669 994.678 288.334L993.282 288.036C992.451 287.849 992.121 287.561 992.126 287.087C992.121 286.533 992.733 286.15 993.538 286.15C994.427 286.15 994.896 286.635 995.045 287.173L996.803 286.981ZM1002.59 293.16C1004.64 293.16 1005.95 291.94 1006.09 290.203H1004.25C1004.08 291.082 1003.45 291.588 1002.6 291.588C1001.4 291.588 1000.62 290.582 1000.62 288.909C1000.62 287.258 1001.42 286.267 1002.6 286.267C1003.53 286.267 1004.1 286.864 1004.25 287.652H1006.09C1005.96 285.878 1004.57 284.712 1002.58 284.712C1000.18 284.712 998.667 286.443 998.667 288.941C998.667 291.418 1000.14 293.16 1002.59 293.16ZM1008.13 293H1010.05V288.19C1010.05 287.151 1010.84 286.416 1011.9 286.416C1012.22 286.416 1012.63 286.475 1012.79 286.528V284.754C1012.62 284.722 1012.31 284.701 1012.1 284.701C1011.16 284.701 1010.38 285.234 1010.08 286.182H1010V284.818H1008.13V293ZM1014.52 293H1016.45V284.818H1014.52V293ZM1015.49 283.657C1016.11 283.657 1016.61 283.188 1016.61 282.613C1016.61 282.032 1016.11 281.564 1015.49 281.564C1014.87 281.564 1014.37 282.032 1014.37 282.613C1014.37 283.188 1014.87 283.657 1015.49 283.657ZM1018.88 296.068H1020.81V291.711H1020.89C1021.2 292.308 1021.83 293.144 1023.24 293.144C1025.16 293.144 1026.61 291.615 1026.61 288.92C1026.61 286.192 1025.12 284.712 1023.23 284.712C1021.79 284.712 1021.19 285.58 1020.89 286.171H1020.78V284.818H1018.88V296.068ZM1020.78 288.909C1020.78 287.322 1021.46 286.294 1022.7 286.294C1023.98 286.294 1024.64 287.386 1024.64 288.909C1024.64 290.443 1023.97 291.562 1022.7 291.562C1021.47 291.562 1020.78 290.496 1020.78 288.909ZM1032.8 284.818H1031.18V282.858H1029.25V284.818H1028.09V286.31H1029.25V290.859C1029.24 292.398 1030.36 293.154 1031.81 293.112C1032.36 293.096 1032.74 292.989 1032.94 292.92L1032.62 291.413C1032.51 291.439 1032.29 291.487 1032.05 291.487C1031.57 291.487 1031.18 291.317 1031.18 290.539V286.31H1032.8V284.818ZM1034.86 293H1036.79V284.818H1034.86V293ZM1035.83 283.657C1036.44 283.657 1036.94 283.188 1036.94 282.613C1036.94 282.032 1036.44 281.564 1035.83 281.564C1035.21 281.564 1034.71 282.032 1034.71 282.613C1034.71 283.188 1035.21 283.657 1035.83 283.657ZM1042.79 293.16C1045.18 293.16 1046.71 291.471 1046.71 288.941C1046.71 286.406 1045.18 284.712 1042.79 284.712C1040.39 284.712 1038.87 286.406 1038.87 288.941C1038.87 291.471 1040.39 293.16 1042.79 293.16ZM1042.8 291.615C1041.47 291.615 1040.82 290.433 1040.82 288.936C1040.82 287.439 1041.47 286.24 1042.8 286.24C1044.1 286.24 1044.75 287.439 1044.75 288.936C1044.75 290.433 1044.1 291.615 1042.8 291.615ZM1050.72 288.206C1050.72 287.023 1051.44 286.342 1052.45 286.342C1053.45 286.342 1054.05 286.997 1054.05 288.089V293H1055.98V287.79C1055.98 285.83 1054.86 284.712 1053.17 284.712C1051.95 284.712 1051.11 285.298 1050.73 286.208H1050.64V284.818H1048.79V293H1050.72V288.206Z" fill="#6048E5"/>
<path d="M920.039 309.5H921.402V308.461C921.402 307.657 921.754 306.98 922.185 306.347L921.397 305.782C920.582 306.437 920.039 307.572 920.039 308.477V309.5ZM922.755 309.5H924.119V308.461C924.119 307.657 924.47 306.98 924.902 306.347L924.114 305.782C923.299 306.437 922.755 307.572 922.755 308.477V309.5ZM926.399 306.091V317H927.965V309.1H928.066L931.283 316.984H932.583L935.8 309.106H935.902V317H937.468V306.091H935.47L931.997 314.571H931.869L928.396 306.091H926.399ZM940.74 320.068C942.055 320.068 942.886 319.381 943.36 318.092L946.743 308.834L945.022 308.818L942.95 315.168H942.865L940.793 308.818H939.088L942.082 317.107L941.885 317.65C941.48 318.737 940.91 318.827 940.036 318.587L939.653 319.892C939.845 319.978 940.26 320.068 940.74 320.068ZM953.987 317H955.606L957.268 311.093H957.391L959.053 317H960.677L963.08 308.818H961.434L959.841 314.8H959.761L958.163 308.818H956.517L954.909 314.827H954.829L953.225 308.818H951.579L953.987 317ZM967.789 317.165C970.095 317.165 971.602 315.477 971.602 312.946C971.602 310.4 970.095 308.712 967.789 308.712C965.482 308.712 963.975 310.4 963.975 312.946C963.975 315.477 965.482 317.165 967.789 317.165ZM967.794 315.828C966.286 315.828 965.583 314.512 965.583 312.941C965.583 311.375 966.286 310.043 967.794 310.043C969.291 310.043 969.994 311.375 969.994 312.941C969.994 314.512 969.291 315.828 967.794 315.828ZM973.38 317H974.973V312.004C974.973 310.933 975.799 310.161 976.928 310.161C977.258 310.161 977.631 310.219 977.759 310.256V308.733C977.599 308.712 977.285 308.696 977.082 308.696C976.123 308.696 975.303 309.239 975.005 310.118H974.92V308.818H973.38V317ZM979.137 317H980.73V314.097L981.523 313.303L984.304 317H986.259L982.722 312.328L986.035 308.818H984.128L980.868 312.281H980.73V306.091H979.137V317ZM987.487 317H989.079V308.818H987.487V317ZM988.291 307.556C988.84 307.556 989.298 307.13 989.298 306.608C989.298 306.086 988.84 305.654 988.291 305.654C987.737 305.654 987.284 306.086 987.284 306.608C987.284 307.13 987.737 307.556 988.291 307.556ZM992.815 312.142C992.815 310.837 993.614 310.091 994.722 310.091C995.803 310.091 996.458 310.8 996.458 311.988V317H998.051V311.796C998.051 309.772 996.938 308.712 995.265 308.712C994.035 308.712 993.23 309.282 992.852 310.15H992.751V308.818H991.222V317H992.815V312.142ZM1003.62 320.239C1005.7 320.239 1007.31 319.285 1007.31 317.181V308.818H1005.75V310.145H1005.63C1005.35 309.638 1004.78 308.712 1003.26 308.712C1001.28 308.712 999.83 310.272 999.83 312.877C999.83 315.487 1001.32 316.877 1003.25 316.877C1004.75 316.877 1005.33 316.031 1005.62 315.509H1005.72V317.117C1005.72 318.401 1004.84 318.955 1003.63 318.955C1002.31 318.955 1001.79 318.289 1001.51 317.82L1000.14 318.385C1000.57 319.386 1001.66 320.239 1003.62 320.239ZM1003.6 315.556C1002.18 315.556 1001.44 314.464 1001.44 312.856C1001.44 311.284 1002.16 310.065 1003.6 310.065C1004.99 310.065 1005.74 311.199 1005.74 312.856C1005.74 314.544 1004.98 315.556 1003.6 315.556ZM1015.01 312.142C1015.01 310.837 1015.83 310.091 1016.97 310.091C1018.06 310.091 1018.72 310.789 1018.72 311.988V317H1020.31V311.796C1020.31 309.756 1019.19 308.712 1017.51 308.712C1016.24 308.712 1015.47 309.266 1015.09 310.15H1014.99V306.091H1013.41V317H1015.01V312.142ZM1025.88 317.165C1028.19 317.165 1029.7 315.477 1029.7 312.946C1029.7 310.4 1028.19 308.712 1025.88 308.712C1023.58 308.712 1022.07 310.4 1022.07 312.946C1022.07 315.477 1023.58 317.165 1025.88 317.165ZM1025.89 315.828C1024.38 315.828 1023.68 314.512 1023.68 312.941C1023.68 311.375 1024.38 310.043 1025.89 310.043C1027.39 310.043 1028.09 311.375 1028.09 312.941C1028.09 314.512 1027.39 315.828 1025.89 315.828ZM1036.66 313.607C1036.66 314.997 1035.63 315.658 1034.74 315.658C1033.75 315.658 1033.07 314.944 1033.07 313.831V308.818H1031.48V314.022C1031.48 316.052 1032.59 317.107 1034.16 317.107C1035.39 317.107 1036.23 316.457 1036.61 315.583H1036.69V317H1038.26V308.818H1036.66V313.607ZM1040.4 317H1041.99V312.004C1041.99 310.933 1042.82 310.161 1043.94 310.161C1044.27 310.161 1044.65 310.219 1044.78 310.256V308.733C1044.62 308.712 1044.3 308.696 1044.1 308.696C1043.14 308.696 1042.32 309.239 1042.02 310.118H1041.94V308.818H1040.4V317ZM1052.28 310.816C1051.95 309.543 1050.96 308.712 1049.19 308.712C1047.34 308.712 1046.03 309.686 1046.03 311.135C1046.03 312.297 1046.73 313.069 1048.27 313.41L1049.65 313.713C1050.44 313.889 1050.81 314.241 1050.81 314.752C1050.81 315.386 1050.13 315.881 1049.09 315.881C1048.14 315.881 1047.52 315.471 1047.33 314.667L1045.79 314.901C1046.06 316.35 1047.26 317.165 1049.1 317.165C1051.08 317.165 1052.44 316.116 1052.44 314.635C1052.44 313.479 1051.71 312.765 1050.21 312.419L1048.91 312.121C1048.01 311.908 1047.62 311.604 1047.62 311.05C1047.62 310.422 1048.3 309.974 1049.21 309.974C1050.2 309.974 1050.65 310.523 1050.84 311.071L1052.28 310.816ZM1055.25 317.101C1055.83 317.101 1056.31 316.627 1056.31 316.036C1056.31 315.455 1055.83 314.976 1055.25 314.976C1054.66 314.976 1054.18 315.455 1054.18 316.036C1054.18 316.627 1054.66 317.101 1055.25 317.101ZM1059.49 317.101C1060.07 317.101 1060.56 316.627 1060.56 316.036C1060.56 315.455 1060.07 314.976 1059.49 314.976C1058.91 314.976 1058.43 315.455 1058.43 316.036C1058.43 316.627 1058.91 317.101 1059.49 317.101ZM1063.74 317.101C1064.32 317.101 1064.81 316.627 1064.81 316.036C1064.81 315.455 1064.32 314.976 1063.74 314.976C1063.16 314.976 1062.68 315.455 1062.68 316.036C1062.68 316.627 1063.16 317.101 1063.74 317.101ZM1067.24 306.091H1065.88V307.13C1065.88 307.955 1065.51 308.632 1065.1 309.244L1065.89 309.809C1066.71 309.148 1067.24 308.019 1067.24 307.114V306.091ZM1069.95 306.091H1068.59V307.13C1068.59 307.955 1068.22 308.632 1067.81 309.244L1068.6 309.809C1069.42 309.148 1069.95 308.019 1069.95 307.114V306.091Z" fill="#64778C"/>
<line x1="717.5" y1="364" x2="717.5" y2="434" stroke="url(#paint10_linear_1601_17368)"/>
<circle opacity="0.05" cx="717" cy="315" r="88.5" stroke="#6048E5"/>
<circle opacity="0.3" cx="717" cy="315" r="15" stroke="#6048E5" stroke-width="2"/>
<circle cx="717" cy="315" r="9" fill="url(#paint11_linear_1601_17368)"/>
<path d="M686.453 351H688.429V347.314H690.517C693.037 347.314 694.39 345.801 694.39 343.702C694.39 341.62 693.053 340.091 690.544 340.091H686.453V351ZM688.429 345.689V341.742H690.24C691.721 341.742 692.376 342.541 692.376 343.702C692.376 344.864 691.721 345.689 690.251 345.689H688.429ZM696.556 351H703.694V349.343H698.532V346.366H703.284V344.709H698.532V341.748H703.651V340.091H696.556V351ZM706.118 351H708.094V347.005H710.107L712.249 351H714.454L712.094 346.675C713.378 346.158 714.054 345.061 714.054 343.58C714.054 341.497 712.712 340.091 710.209 340.091H706.118V351ZM708.094 345.364V341.742H709.905C711.38 341.742 712.041 342.419 712.041 343.58C712.041 344.741 711.38 345.364 709.916 345.364H708.094ZM722.252 343.09H724.154C724.116 341.247 722.545 339.942 720.223 339.942C717.932 339.942 716.212 341.231 716.217 343.159C716.217 344.725 717.33 345.625 719.125 346.089L720.366 346.408C721.544 346.707 722.321 347.074 722.327 347.921C722.321 348.853 721.437 349.477 720.148 349.477C718.912 349.477 717.953 348.923 717.874 347.777H715.929C716.009 349.945 717.623 351.165 720.164 351.165C722.779 351.165 724.298 349.86 724.303 347.937C724.298 346.046 722.737 345.183 721.096 344.794L720.073 344.539C719.179 344.326 718.209 343.947 718.22 343.037C718.225 342.216 718.96 341.614 720.196 341.614C721.373 341.614 722.151 342.163 722.252 343.09ZM736.263 345.545C736.263 342.019 734.111 339.942 731.25 339.942C728.384 339.942 726.238 342.019 726.238 345.545C726.238 349.066 728.384 351.149 731.25 351.149C734.111 351.149 736.263 349.072 736.263 345.545ZM734.276 345.545C734.276 348.028 733.029 349.375 731.25 349.375C729.476 349.375 728.225 348.028 728.225 345.545C728.225 343.063 729.476 341.716 731.25 341.716C733.029 341.716 734.276 343.063 734.276 345.545ZM747.546 340.091H745.58V347.527H745.484L740.349 340.091H738.581V351H740.557V343.569H740.648L745.788 351H747.546V340.091Z" fill="#6048E5"/>
<rect y="-1" width="1437" height="99" fill="url(#paint12_linear_1601_17368)"/>
<defs>
<linearGradient id="paint0_linear_1601_17368" x1="923" y1="175" x2="923" y2="191" gradientUnits="userSpaceOnUse">
<stop stop-color="#7963F5"/>
<stop offset="1" stop-color="#5D46DB"/>
</linearGradient>
<linearGradient id="paint1_linear_1601_17368" x1="583" y1="163" x2="583" y2="179" gradientUnits="userSpaceOnUse">
<stop stop-color="#7963F5"/>
<stop offset="1" stop-color="#5D46DB"/>
</linearGradient>
<linearGradient id="paint2_linear_1601_17368" x1="527" y1="277" x2="527" y2="293" gradientUnits="userSpaceOnUse">
<stop stop-color="#7963F5"/>
<stop offset="1" stop-color="#5D46DB"/>
</linearGradient>
<linearGradient id="paint3_linear_1601_17368" x1="720" y1="300.001" x2="792.351" y2="298.411" gradientUnits="userSpaceOnUse">
<stop stop-color="#BDB4FE"/>
<stop offset="1" stop-color="#BDB4FE" stop-opacity="0"/>
</linearGradient>
<linearGradient id="paint4_linear_1601_17368" x1="733" y1="313" x2="880.329" y2="264.361" gradientUnits="userSpaceOnUse">
<stop stop-color="#BDB4FE"/>
<stop offset="1" stop-color="#BDB4FE" stop-opacity="0"/>
</linearGradient>
<linearGradient id="paint5_linear_1601_17368" x1="730" y1="307.001" x2="916.176" y2="293.392" gradientUnits="userSpaceOnUse">
<stop stop-color="#BDB4FE"/>
<stop offset="1" stop-color="#BDB4FE" stop-opacity="0"/>
</linearGradient>
<linearGradient id="paint6_linear_1601_17368" x1="701" y1="311" x2="535.06" y2="255.431" gradientUnits="userSpaceOnUse">
<stop stop-color="#BDB4FE"/>
<stop offset="1" stop-color="#BDB4FE" stop-opacity="0"/>
</linearGradient>
<linearGradient id="paint7_linear_1601_17368" x1="708" y1="302.001" x2="583.141" y2="296.239" gradientUnits="userSpaceOnUse">
<stop stop-color="#BDB4FE"/>
<stop offset="1" stop-color="#BDB4FE" stop-opacity="0"/>
</linearGradient>
<linearGradient id="paint8_linear_1601_17368" x1="794" y1="127" x2="794" y2="143" gradientUnits="userSpaceOnUse">
<stop stop-color="#7963F5"/>
<stop offset="1" stop-color="#5D46DB"/>
</linearGradient>
<linearGradient id="paint9_linear_1601_17368" x1="903" y1="280" x2="903" y2="296" gradientUnits="userSpaceOnUse">
<stop stop-color="#7963F5"/>
<stop offset="1" stop-color="#5D46DB"/>
</linearGradient>
<linearGradient id="paint10_linear_1601_17368" x1="716" y1="364" x2="746.277" y2="373.522" gradientUnits="userSpaceOnUse">
<stop stop-color="#BDB4FE"/>
<stop offset="1" stop-color="#BDB4FE" stop-opacity="0"/>
</linearGradient>
<linearGradient id="paint11_linear_1601_17368" x1="717" y1="306" x2="717" y2="324" gradientUnits="userSpaceOnUse">
<stop stop-color="#7963F5"/>
<stop offset="1" stop-color="#5D46DB"/>
</linearGradient>
<linearGradient id="paint12_linear_1601_17368" x1="718.5" y1="-1" x2="718.5" y2="98" gradientUnits="userSpaceOnUse">
<stop stop-color="white"/>
<stop offset="1" stop-color="white" stop-opacity="0"/>
</linearGradient>
</defs>
</svg>
