<?xml version="1.0" standalone="no"?>
<!DOCTYPE svg PUBLIC "-//W3C//DTD SVG 20010904//EN"
 "http://www.w3.org/TR/2001/REC-SVG-20010904/DTD/svg10.dtd">
<svg version="1.0" xmlns="http://www.w3.org/2000/svg"
 width="700.000000pt" height="700.000000pt" viewBox="0 0 700.000000 700.000000"
 preserveAspectRatio="xMidYMid meet">
<metadata>
Created by potrace 1.14, written by Peter Selinger 2001-2017
</metadata>
<g transform="translate(0.000000,700.000000) scale(0.100000,-0.100000)"
fill="#000000" stroke="none">
<path d="M1436 3803 l0 -2848 23 -80 c67 -242 232 -422 454 -498 122 -42 147
-44 467 -44 l310 -1 2 631 3 632 560 1 c600 1 636 2 821 39 700 140 1272 689
1447 1390 29 116 33 134 52 300 11 91 5 344 -9 420 -2 11 -7 40 -11 65 -11 65
-11 67 -35 160 -161 629 -667 1160 -1284 1346 -80 24 -194 47 -296 60 -30 4
-322 8 -647 9 -326 1 -595 4 -598 6 -2 3 -5 144 -5 315 -1 340 -6 379 -60 508
-90 214 -281 371 -515 421 -41 9 -157 14 -370 14 l-310 2 1 -2848z m2429 313
c123 -21 233 -76 316 -157 128 -126 191 -281 191 -470 0 -261 -140 -485 -359
-577 -118 -50 -139 -51 -750 -52 l-573 0 0 629 c0 411 3 630 10 633 19 6 1125
1 1165 -6z"/>
</g>
</svg>
