<svg width="1439" height="399" viewBox="0 0 1439 399" fill="none" xmlns="http://www.w3.org/2000/svg">
<circle cx="1359" cy="12" r="7" stroke="#C5D1DB" stroke-width="2"/>
<path d="M1376.23 8.81818V17.4421C1376.23 18.1293 1375.94 18.4968 1375.19 18.4968C1375.1 18.4968 1375.02 18.4915 1374.92 18.4862V20.0575C1375.06 20.0682 1375.17 20.0682 1375.31 20.0682C1377.12 20.0682 1378.16 19.2372 1378.16 17.4688V8.81818H1376.23ZM1377.19 7.65696C1377.8 7.65696 1378.3 7.18821 1378.3 6.61293C1378.3 6.03232 1377.8 5.56357 1377.19 5.56357C1376.57 5.56357 1376.07 6.03232 1376.07 6.61293C1376.07 7.18821 1376.57 7.65696 1377.19 7.65696ZM1384.16 17.1598C1386.56 17.1598 1388.08 15.4712 1388.08 12.9411C1388.08 10.4055 1386.56 8.71165 1384.16 8.71165C1381.76 8.71165 1380.24 10.4055 1380.24 12.9411C1380.24 15.4712 1381.76 17.1598 1384.16 17.1598ZM1384.17 15.6151C1382.84 15.6151 1382.19 14.4325 1382.19 12.9357C1382.19 11.4389 1382.84 10.2404 1384.17 10.2404C1385.47 10.2404 1386.12 11.4389 1386.12 12.9357C1386.12 14.4325 1385.47 15.6151 1384.17 15.6151ZM1390.25 17H1392.15V15.7109H1392.26C1392.56 16.3075 1393.2 17.1438 1394.6 17.1438C1396.53 17.1438 1397.97 15.6151 1397.97 12.9197C1397.97 10.1925 1396.49 8.71165 1394.6 8.71165C1393.15 8.71165 1392.55 9.5799 1392.26 10.1712H1392.18V6.09091H1390.25V17ZM1392.14 12.9091C1392.14 11.3217 1392.82 10.2937 1394.06 10.2937C1395.35 10.2937 1396.01 11.3857 1396.01 12.9091C1396.01 14.4432 1395.34 15.5618 1394.06 15.5618C1392.83 15.5618 1392.14 14.4964 1392.14 12.9091ZM1399.07 7.74751H1402.44V17H1404.4V7.74751H1407.77V6.09091H1399.07V7.74751ZM1409.82 17H1411.74V8.81818H1409.82V17ZM1410.78 7.65696C1411.4 7.65696 1411.9 7.18821 1411.9 6.61293C1411.9 6.03232 1411.4 5.56357 1410.78 5.56357C1410.17 5.56357 1409.67 6.03232 1409.67 6.61293C1409.67 7.18821 1410.17 7.65696 1410.78 7.65696ZM1418.26 8.81818H1416.65V6.85795H1414.72V8.81818H1413.56V10.3097H1414.72V14.8587C1414.71 16.3981 1415.83 17.1545 1417.28 17.1119C1417.83 17.0959 1418.2 16.9893 1418.41 16.9201L1418.09 15.4126C1417.98 15.4393 1417.76 15.4872 1417.52 15.4872C1417.04 15.4872 1416.65 15.3168 1416.65 14.5391V10.3097H1418.26V8.81818ZM1422.43 6.09091H1420.5V17H1422.43V6.09091ZM1428.48 17.1598C1430.39 17.1598 1431.7 16.2276 1432.04 14.8054L1430.24 14.603C1429.98 15.2955 1429.34 15.6577 1428.51 15.6577C1427.26 15.6577 1426.44 14.8374 1426.42 13.4364H1432.12V12.8452C1432.12 9.97408 1430.4 8.71165 1428.38 8.71165C1426.04 8.71165 1424.51 10.4322 1424.51 12.957C1424.51 15.5245 1426.02 17.1598 1428.48 17.1598ZM1426.43 12.1367C1426.49 11.0927 1427.26 10.2138 1428.41 10.2138C1429.52 10.2138 1430.26 11.0234 1430.27 12.1367H1426.43Z" fill="#C5D1DB"/>
<path d="M1376.3 41H1377.95V37.1648H1380.18C1382.71 37.1648 1383.97 35.636 1383.97 33.6225C1383.97 31.6143 1382.73 30.0909 1380.19 30.0909H1376.3V41ZM1377.95 35.7692V31.5025H1380.01C1381.64 31.5025 1382.31 32.3867 1382.31 33.6225C1382.31 34.8583 1381.64 35.7692 1380.04 35.7692H1377.95ZM1385.77 41H1387.36V36.0036C1387.36 34.9329 1388.19 34.1605 1389.32 34.1605C1389.65 34.1605 1390.02 34.2191 1390.15 34.2564V32.733C1389.99 32.7116 1389.67 32.6957 1389.47 32.6957C1388.51 32.6957 1387.69 33.239 1387.39 34.1179H1387.31V32.8182H1385.77V41ZM1394.68 41.1651C1396.99 41.1651 1398.49 39.4766 1398.49 36.9464C1398.49 34.4002 1396.99 32.7116 1394.68 32.7116C1392.37 32.7116 1390.86 34.4002 1390.86 36.9464C1390.86 39.4766 1392.37 41.1651 1394.68 41.1651ZM1394.68 39.8281C1393.18 39.8281 1392.47 38.5124 1392.47 36.9411C1392.47 35.375 1393.18 34.0433 1394.68 34.0433C1396.18 34.0433 1396.88 35.375 1396.88 36.9411C1396.88 38.5124 1396.18 39.8281 1394.68 39.8281ZM1403.33 41.1598C1404.82 41.1598 1405.41 40.2489 1405.7 39.7269H1405.83V41H1407.39V30.0909H1405.79V34.1445H1405.7C1405.41 33.6385 1404.87 32.7116 1403.34 32.7116C1401.37 32.7116 1399.91 34.2724 1399.91 36.9251C1399.91 39.5724 1401.35 41.1598 1403.33 41.1598ZM1403.68 39.8015C1402.26 39.8015 1401.52 38.5497 1401.52 36.9091C1401.52 35.2844 1402.25 34.0646 1403.68 34.0646C1405.08 34.0646 1405.82 35.1992 1405.82 36.9091C1405.82 38.6296 1405.06 39.8015 1403.68 39.8015ZM1414.84 37.6069C1414.85 38.9972 1413.81 39.6577 1412.92 39.6577C1411.93 39.6577 1411.25 38.9439 1411.25 37.8306V32.8182H1409.66V38.0224C1409.66 40.0518 1410.77 41.1065 1412.34 41.1065C1413.58 41.1065 1414.41 40.4567 1414.79 39.5831H1414.87V41H1416.44V32.8182H1414.84V37.6069ZM1422.03 41.1651C1423.96 41.1651 1425.21 40.0039 1425.39 38.4112H1423.84C1423.64 39.2955 1422.95 39.8175 1422.04 39.8175C1420.69 39.8175 1419.82 38.6935 1419.82 36.9091C1419.82 35.1566 1420.71 34.054 1422.04 34.054C1423.05 34.054 1423.67 34.6932 1423.84 35.4602H1425.39C1425.22 33.8089 1423.87 32.7116 1422.01 32.7116C1419.7 32.7116 1418.21 34.4482 1418.21 36.9464C1418.21 39.4126 1419.65 41.1651 1422.03 41.1651ZM1430.91 32.8182H1429.23V30.858H1427.64V32.8182H1426.44V34.0966H1427.64V38.9279C1427.63 40.4141 1428.77 41.1332 1430.03 41.1065C1430.53 41.1012 1430.87 41.0053 1431.06 40.9361L1430.77 39.6204C1430.67 39.6417 1430.47 39.6896 1430.21 39.6896C1429.7 39.6896 1429.23 39.5192 1429.23 38.5977V34.0966H1430.91V32.8182ZM1436.77 41H1443.67V39.5831H1438.42V36.2433H1443.25V34.8317H1438.42V31.5078H1443.61V30.0909H1436.77V41ZM1447.27 36.142C1447.27 34.837 1448.07 34.0913 1449.18 34.0913C1450.26 34.0913 1450.92 34.7997 1450.92 35.9876V41H1452.51V35.7958C1452.51 33.7717 1451.4 32.7116 1449.72 32.7116C1448.49 32.7116 1447.69 33.2816 1447.31 34.1499H1447.21V32.8182H1445.68V41H1447.27V36.142ZM1458.08 44.2386C1460.16 44.2386 1461.77 43.2852 1461.77 41.1811V32.8182H1460.21V34.1445H1460.09C1459.81 33.6385 1459.24 32.7116 1457.72 32.7116C1455.74 32.7116 1454.29 34.2724 1454.29 36.8771C1454.29 39.4872 1455.77 40.8775 1457.71 40.8775C1459.21 40.8775 1459.79 40.0305 1460.08 39.5085H1460.18V41.1172C1460.18 42.4009 1459.3 42.9549 1458.09 42.9549C1456.77 42.9549 1456.25 42.2891 1455.97 41.8203L1454.6 42.3849C1455.03 43.3864 1456.12 44.2386 1458.08 44.2386ZM1458.06 39.5565C1456.64 39.5565 1455.9 38.4645 1455.9 36.8558C1455.9 35.2844 1456.62 34.0646 1458.06 34.0646C1459.45 34.0646 1460.2 35.1992 1460.2 36.8558C1460.2 38.5444 1459.43 39.5565 1458.06 39.5565ZM1463.9 41H1465.5V32.8182H1463.9V41ZM1464.71 31.5558C1465.26 31.5558 1465.71 31.1296 1465.71 30.6076C1465.71 30.0856 1465.26 29.6541 1464.71 29.6541C1464.15 29.6541 1463.7 30.0856 1463.7 30.6076C1463.7 31.1296 1464.15 31.5558 1464.71 31.5558ZM1469.23 36.142C1469.23 34.837 1470.03 34.0913 1471.14 34.0913C1472.22 34.0913 1472.87 34.7997 1472.87 35.9876V41H1474.47V35.7958C1474.47 33.7717 1473.35 32.7116 1471.68 32.7116C1470.45 32.7116 1469.65 33.2816 1469.27 34.1499H1469.17V32.8182H1467.64V41H1469.23V36.142ZM1480.13 41.1651C1481.91 41.1651 1483.18 40.2862 1483.54 38.9545L1482.03 38.6829C1481.74 39.4553 1481.05 39.8494 1480.15 39.8494C1478.78 39.8494 1477.87 38.9652 1477.82 37.3885H1483.64V36.8239C1483.64 33.8675 1481.87 32.7116 1480.02 32.7116C1477.74 32.7116 1476.24 34.4482 1476.24 36.9624C1476.24 39.5032 1477.72 41.1651 1480.13 41.1651ZM1477.83 36.1953C1477.89 35.0341 1478.73 34.0273 1480.03 34.0273C1481.26 34.0273 1482.07 34.9435 1482.08 36.1953H1477.83ZM1488.93 41.1651C1490.72 41.1651 1491.98 40.2862 1492.34 38.9545L1490.84 38.6829C1490.55 39.4553 1489.85 39.8494 1488.95 39.8494C1487.59 39.8494 1486.67 38.9652 1486.63 37.3885H1492.44V36.8239C1492.44 33.8675 1490.68 32.7116 1488.82 32.7116C1486.54 32.7116 1485.04 34.4482 1485.04 36.9624C1485.04 39.5032 1486.52 41.1651 1488.93 41.1651ZM1486.63 36.1953C1486.7 35.0341 1487.54 34.0273 1488.83 34.0273C1490.07 34.0273 1490.88 34.9435 1490.88 36.1953H1486.63ZM1494.21 41H1495.8V36.0036C1495.8 34.9329 1496.63 34.1605 1497.76 34.1605C1498.09 34.1605 1498.46 34.2191 1498.59 34.2564V32.733C1498.43 32.7116 1498.12 32.6957 1497.91 32.6957C1496.95 32.6957 1496.13 33.239 1495.84 34.1179H1495.75V32.8182H1494.21V41Z" fill="#C5D1DB"/>
<circle cx="127" cy="128" r="7" stroke="#C5D1DB" stroke-width="2"/>
<path d="M144.289 133H146.217V130.251L146.92 129.5L149.424 133H151.73L148.374 128.35L151.544 124.818H149.291L146.35 128.105H146.217V122.091H144.289V133ZM155.207 128.206C155.207 127.023 155.921 126.342 156.938 126.342C157.934 126.342 158.531 126.997 158.531 128.089V133H160.459V127.79C160.465 125.83 159.346 124.712 157.657 124.712C156.432 124.712 155.591 125.298 155.218 126.208H155.122V124.818H153.279V133H155.207V128.206ZM166.438 133.16C168.835 133.16 170.359 131.471 170.359 128.941C170.359 126.406 168.835 124.712 166.438 124.712C164.041 124.712 162.518 126.406 162.518 128.941C162.518 131.471 164.041 133.16 166.438 133.16ZM166.449 131.615C165.123 131.615 164.473 130.433 164.473 128.936C164.473 127.439 165.123 126.24 166.449 126.24C167.754 126.24 168.404 127.439 168.404 128.936C168.404 130.433 167.754 131.615 166.449 131.615ZM173.914 133H175.928L177.462 127.471H177.574L179.108 133H181.116L183.433 124.818H181.462L180.045 130.539H179.965L178.495 124.818H176.551L175.081 130.571H175.006L173.568 124.818H171.603L173.914 133ZM191.696 126.981C191.43 125.596 190.322 124.712 188.404 124.712C186.433 124.712 185.091 125.681 185.096 127.194C185.091 128.387 185.826 129.175 187.397 129.5L188.793 129.793C189.544 129.958 189.896 130.262 189.896 130.725C189.896 131.285 189.288 131.706 188.372 131.706C187.488 131.706 186.913 131.322 186.748 130.587L184.867 130.768C185.107 132.27 186.369 133.16 188.378 133.16C190.423 133.16 191.867 132.1 191.872 130.55C191.867 129.383 191.115 128.669 189.571 128.334L188.175 128.036C187.344 127.849 187.014 127.561 187.019 127.087C187.014 126.533 187.626 126.15 188.431 126.15C189.32 126.15 189.789 126.635 189.938 127.173L191.696 126.981ZM193.997 133H200.778V131.343H195.973V122.091H193.997V133ZM205.212 133.165C206.496 133.165 207.263 132.563 207.615 131.876H207.679V133H209.532V127.524C209.532 125.362 207.769 124.712 206.208 124.712C204.488 124.712 203.167 125.479 202.741 126.97L204.541 127.226C204.733 126.667 205.276 126.187 206.219 126.187C207.114 126.187 207.604 126.645 207.604 127.45V127.482C207.604 128.036 207.023 128.062 205.58 128.217C203.993 128.387 202.474 128.861 202.474 130.704C202.474 132.313 203.652 133.165 205.212 133.165ZM205.713 131.748C204.909 131.748 204.333 131.381 204.333 130.672C204.333 129.932 204.978 129.623 205.841 129.5C206.347 129.431 207.359 129.303 207.609 129.101V130.065C207.609 130.976 206.874 131.748 205.713 131.748ZM213.849 128.206C213.849 127.023 214.563 126.342 215.581 126.342C216.577 126.342 217.173 126.997 217.173 128.089V133H219.102V127.79C219.107 125.83 217.988 124.712 216.3 124.712C215.075 124.712 214.233 125.298 213.86 126.208H213.764V124.818H211.921V133H213.849V128.206ZM225.07 136.239C227.281 136.239 228.911 135.227 228.911 133.133V124.818H227.009V126.171H226.902C226.61 125.58 225.997 124.712 224.553 124.712C222.662 124.712 221.176 126.192 221.176 128.882C221.176 131.551 222.662 132.883 224.548 132.883C225.949 132.883 226.604 132.132 226.902 131.53H226.998V133.08C226.998 134.284 226.199 134.779 225.102 134.779C223.941 134.779 223.429 134.23 223.195 133.751L221.459 134.172C221.81 135.317 222.987 136.239 225.07 136.239ZM225.086 131.37C223.813 131.37 223.142 130.379 223.142 128.872C223.142 127.386 223.802 126.294 225.086 126.294C226.327 126.294 227.009 127.322 227.009 128.872C227.009 130.433 226.317 131.37 225.086 131.37ZM236.552 129.559C236.552 130.805 235.662 131.423 234.81 131.423C233.883 131.423 233.265 130.768 233.265 129.729V124.818H231.337V130.028C231.337 131.993 232.455 133.107 234.064 133.107C235.289 133.107 236.152 132.462 236.525 131.546H236.61V133H238.48V124.818H236.552V129.559ZM243.267 133.165C244.551 133.165 245.318 132.563 245.67 131.876H245.734V133H247.587V127.524C247.587 125.362 245.824 124.712 244.263 124.712C242.543 124.712 241.222 125.479 240.796 126.97L242.596 127.226C242.788 126.667 243.331 126.187 244.274 126.187C245.169 126.187 245.659 126.645 245.659 127.45V127.482C245.659 128.036 245.078 128.062 243.635 128.217C242.047 128.387 240.529 128.861 240.529 130.704C240.529 132.313 241.707 133.165 243.267 133.165ZM243.768 131.748C242.964 131.748 242.388 131.381 242.388 130.672C242.388 129.932 243.033 129.623 243.896 129.5C244.402 129.431 245.414 129.303 245.664 129.101V130.065C245.664 130.976 244.929 131.748 243.768 131.748ZM253.534 136.239C255.745 136.239 257.375 135.227 257.375 133.133V124.818H255.473V126.171H255.367C255.074 125.58 254.461 124.712 253.018 124.712C251.127 124.712 249.641 126.192 249.641 128.882C249.641 131.551 251.127 132.883 253.012 132.883C254.413 132.883 255.068 132.132 255.367 131.53H255.463V133.08C255.463 134.284 254.664 134.779 253.566 134.779C252.405 134.779 251.894 134.23 251.659 133.751L249.923 134.172C250.274 135.317 251.452 136.239 253.534 136.239ZM253.55 131.37C252.277 131.37 251.606 130.379 251.606 128.872C251.606 127.386 252.267 126.294 253.55 126.294C254.791 126.294 255.473 127.322 255.473 128.872C255.473 130.433 254.781 131.37 253.55 131.37ZM263.423 133.16C265.33 133.16 266.641 132.228 266.982 130.805L265.181 130.603C264.92 131.295 264.281 131.658 263.45 131.658C262.203 131.658 261.378 130.837 261.362 129.436H267.061V128.845C267.061 125.974 265.336 124.712 263.322 124.712C260.978 124.712 259.45 126.432 259.45 128.957C259.45 131.525 260.957 133.16 263.423 133.16ZM261.367 128.137C261.426 127.093 262.198 126.214 263.349 126.214C264.457 126.214 265.202 127.023 265.213 128.137H261.367Z" fill="#C5D1DB"/>
<path d="M144.3 157H151.203V155.583H145.946V152.243H150.783V150.832H145.946V147.508H151.14V146.091H144.3V157ZM154.803 152.142C154.803 150.837 155.602 150.091 156.71 150.091C157.791 150.091 158.446 150.8 158.446 151.988V157H160.039V151.796C160.039 149.772 158.926 148.712 157.253 148.712C156.023 148.712 155.218 149.282 154.84 150.15H154.739V148.818H153.21V157H154.803V152.142ZM165.606 160.239C167.688 160.239 169.297 159.285 169.297 157.181V148.818H167.736V150.145H167.619C167.337 149.638 166.772 148.712 165.249 148.712C163.272 148.712 161.818 150.272 161.818 152.877C161.818 155.487 163.304 156.877 165.238 156.877C166.74 156.877 167.321 156.031 167.608 155.509H167.71V157.117C167.71 158.401 166.831 158.955 165.622 158.955C164.295 158.955 163.778 158.289 163.496 157.82L162.127 158.385C162.559 159.386 163.651 160.239 165.606 160.239ZM165.59 155.556C164.167 155.556 163.427 154.464 163.427 152.856C163.427 151.284 164.151 150.065 165.59 150.065C166.98 150.065 167.726 151.199 167.726 152.856C167.726 154.544 166.964 155.556 165.59 155.556ZM173.026 146.091H171.433V157H173.026V146.091ZM175.168 157H176.761V148.818H175.168V157ZM175.973 147.556C176.521 147.556 176.979 147.13 176.979 146.608C176.979 146.086 176.521 145.654 175.973 145.654C175.419 145.654 174.966 146.086 174.966 146.608C174.966 147.13 175.419 147.556 175.973 147.556ZM185.035 150.816C184.704 149.543 183.708 148.712 181.94 148.712C180.092 148.712 178.781 149.686 178.781 151.135C178.781 152.297 179.484 153.069 181.018 153.41L182.403 153.713C183.192 153.889 183.559 154.241 183.559 154.752C183.559 155.386 182.883 155.881 181.839 155.881C180.885 155.881 180.273 155.471 180.081 154.667L178.541 154.901C178.808 156.35 180.012 157.165 181.849 157.165C183.826 157.165 185.195 156.116 185.195 154.635C185.195 153.479 184.459 152.765 182.957 152.419L181.658 152.121C180.757 151.908 180.369 151.604 180.374 151.05C180.369 150.422 181.05 149.974 181.956 149.974C182.947 149.974 183.405 150.523 183.591 151.071L185.035 150.816ZM188.538 152.142C188.538 150.837 189.364 150.091 190.499 150.091C191.596 150.091 192.251 150.789 192.251 151.988V157H193.844V151.796C193.844 149.756 192.725 148.712 191.042 148.712C189.769 148.712 189.002 149.266 188.618 150.15H188.517V146.091H186.946V157H188.538V152.142Z" fill="#C5D1DB"/>
<circle cx="1161" cy="36" r="7" stroke="#C5D1DB" stroke-width="2"/>
<path d="M1178.31 41H1180.24V32.8182H1178.31V41ZM1179.28 31.657C1179.89 31.657 1180.39 31.1882 1180.39 30.6129C1180.39 30.0323 1179.89 29.5636 1179.28 29.5636C1178.66 29.5636 1178.16 30.0323 1178.16 30.6129C1178.16 31.1882 1178.66 31.657 1179.28 31.657ZM1186.76 32.8182H1185.14V30.858H1183.21V32.8182H1182.05V34.3097H1183.21V38.8587C1183.2 40.3981 1184.32 41.1545 1185.77 41.1119C1186.32 41.0959 1186.7 40.9893 1186.91 40.9201L1186.58 39.4126C1186.47 39.4393 1186.26 39.4872 1186.02 39.4872C1185.53 39.4872 1185.14 39.3168 1185.14 38.5391V34.3097H1186.76V32.8182ZM1192.35 41.1598C1194.26 41.1598 1195.57 40.2276 1195.91 38.8054L1194.11 38.603C1193.85 39.2955 1193.21 39.6577 1192.38 39.6577C1191.13 39.6577 1190.31 38.8374 1190.29 37.4364H1195.99V36.8452C1195.99 33.9741 1194.27 32.7116 1192.25 32.7116C1189.91 32.7116 1188.38 34.4322 1188.38 36.957C1188.38 39.5245 1189.89 41.1598 1192.35 41.1598ZM1190.3 36.1367C1190.36 35.0927 1191.13 34.2138 1192.28 34.2138C1193.39 34.2138 1194.13 35.0234 1194.14 36.1367H1190.3ZM1198.07 41H1200V36.0249C1200 35.0181 1200.67 34.3363 1201.5 34.3363C1202.32 34.3363 1202.88 34.8849 1202.88 35.7266V41H1204.77V35.897C1204.77 34.9755 1205.32 34.3363 1206.25 34.3363C1207.03 34.3363 1207.64 34.7944 1207.64 35.8065V41H1209.58V35.5082C1209.58 33.6811 1208.52 32.7116 1207.02 32.7116C1205.83 32.7116 1204.93 33.2976 1204.57 34.2085H1204.48C1204.17 33.2816 1203.37 32.7116 1202.27 32.7116C1201.17 32.7116 1200.35 33.2763 1200.01 34.2085H1199.92V32.8182H1198.07V41ZM1212.07 41H1218.85V39.3434H1214.05V30.0909H1212.07V41ZM1220.93 41H1222.86V32.8182H1220.93V41ZM1221.9 31.657C1222.51 31.657 1223.01 31.1882 1223.01 30.6129C1223.01 30.0323 1222.51 29.5636 1221.9 29.5636C1221.28 29.5636 1220.78 30.0323 1220.78 30.6129C1220.78 31.1882 1221.28 31.657 1221.9 31.657ZM1231.76 34.9808C1231.49 33.5959 1230.38 32.7116 1228.47 32.7116C1226.5 32.7116 1225.15 33.6811 1225.16 35.1939C1225.15 36.3871 1225.89 37.1754 1227.46 37.5004L1228.86 37.7933C1229.61 37.9585 1229.96 38.2621 1229.96 38.7255C1229.96 39.2848 1229.35 39.7056 1228.43 39.7056C1227.55 39.7056 1226.97 39.3221 1226.81 38.587L1224.93 38.7681C1225.17 40.2702 1226.43 41.1598 1228.44 41.1598C1230.49 41.1598 1231.93 40.0998 1231.93 38.5497C1231.93 37.3832 1231.18 36.6694 1229.63 36.3338L1228.24 36.0355C1227.41 35.8491 1227.08 35.5614 1227.08 35.0874C1227.08 34.5334 1227.69 34.1499 1228.49 34.1499C1229.38 34.1499 1229.85 34.6346 1230 35.1726L1231.76 34.9808ZM1238.06 32.8182H1236.45V30.858H1234.52V32.8182H1233.36V34.3097H1234.52V38.8587C1234.51 40.3981 1235.63 41.1545 1237.07 41.1119C1237.62 41.0959 1238 40.9893 1238.21 40.9201L1237.88 39.4126C1237.78 39.4393 1237.56 39.4872 1237.32 39.4872C1236.83 39.4872 1236.45 39.3168 1236.45 38.5391V34.3097H1238.06V32.8182Z" fill="#C5D1DB"/>
<path d="M1179.17 67.2692H1182.67V66.0067H1180.69V54.9432H1182.67V53.6808H1179.17V67.2692ZM1185.25 65.1012C1185.83 65.1012 1186.31 64.6271 1186.31 64.0359C1186.31 63.4553 1185.83 62.9759 1185.25 62.9759C1184.66 62.9759 1184.18 63.4553 1184.18 64.0359C1184.18 64.6271 1184.66 65.1012 1185.25 65.1012ZM1189.5 65.1012C1190.08 65.1012 1190.56 64.6271 1190.56 64.0359C1190.56 63.4553 1190.08 62.9759 1189.5 62.9759C1188.91 62.9759 1188.43 63.4553 1188.43 64.0359C1188.43 64.6271 1188.91 65.1012 1189.5 65.1012ZM1193.74 65.1012C1194.32 65.1012 1194.81 64.6271 1194.81 64.0359C1194.81 63.4553 1194.32 62.9759 1193.74 62.9759C1193.16 62.9759 1192.68 63.4553 1192.68 64.0359C1192.68 64.6271 1193.16 65.1012 1193.74 65.1012ZM1199.83 53.6808H1196.33V54.9432H1198.31V66.0067H1196.33V67.2692H1199.83V53.6808Z" fill="#C5D1DB"/>
<circle cx="1395" cy="200" r="7" stroke="#C5D1DB" stroke-width="2"/>
<path d="M1415.45 205.144C1416.86 205.144 1417.49 204.308 1417.8 203.711H1417.91V205H1419.81V194.091H1417.88V198.171H1417.8C1417.5 197.58 1416.9 196.712 1415.46 196.712C1413.57 196.712 1412.08 198.192 1412.08 200.92C1412.08 203.615 1413.52 205.144 1415.45 205.144ZM1415.99 203.562C1414.72 203.562 1414.05 202.443 1414.05 200.909C1414.05 199.386 1414.71 198.294 1415.99 198.294C1417.23 198.294 1417.91 199.322 1417.91 200.909C1417.91 202.496 1417.22 203.562 1415.99 203.562ZM1427.53 201.559C1427.53 202.805 1426.64 203.423 1425.79 203.423C1424.86 203.423 1424.24 202.768 1424.24 201.729V196.818H1422.31V202.028C1422.31 203.993 1423.43 205.107 1425.04 205.107C1426.27 205.107 1427.13 204.462 1427.5 203.546H1427.59V205H1429.46V196.818H1427.53V201.559ZM1435.51 205.16C1437.42 205.16 1438.73 204.228 1439.07 202.805L1437.27 202.603C1437.01 203.295 1436.37 203.658 1435.54 203.658C1434.29 203.658 1433.47 202.837 1433.45 201.436H1439.15V200.845C1439.15 197.974 1437.42 196.712 1435.41 196.712C1433.07 196.712 1431.54 198.432 1431.54 200.957C1431.54 203.525 1433.05 205.16 1435.51 205.16ZM1433.46 200.137C1433.51 199.093 1434.29 198.214 1435.44 198.214C1436.55 198.214 1437.29 199.023 1437.3 200.137H1433.46ZM1445.01 205C1448.34 205 1450.31 202.944 1450.31 199.535C1450.31 196.136 1448.34 194.091 1445.09 194.091H1441.32V205H1445.01ZM1443.29 203.29V195.801H1444.98C1447.19 195.801 1448.35 197.037 1448.35 199.535C1448.35 202.044 1447.19 203.29 1444.92 203.29H1443.29ZM1454.91 205.165C1456.19 205.165 1456.96 204.563 1457.31 203.876H1457.37V205H1459.22V199.524C1459.22 197.362 1457.46 196.712 1455.9 196.712C1454.18 196.712 1452.86 197.479 1452.43 198.97L1454.23 199.226C1454.43 198.667 1454.97 198.187 1455.91 198.187C1456.81 198.187 1457.3 198.645 1457.3 199.45V199.482C1457.3 200.036 1456.72 200.062 1455.27 200.217C1453.69 200.387 1452.17 200.861 1452.17 202.704C1452.17 204.313 1453.34 205.165 1454.91 205.165ZM1455.41 203.748C1454.6 203.748 1454.03 203.381 1454.03 202.672C1454.03 201.932 1454.67 201.623 1455.53 201.5C1456.04 201.431 1457.05 201.303 1457.3 201.101V202.065C1457.3 202.976 1456.57 203.748 1455.41 203.748ZM1465.7 196.818H1464.09V194.858H1462.16V196.818H1461V198.31H1462.16V202.859C1462.15 204.398 1463.27 205.154 1464.71 205.112C1465.26 205.096 1465.64 204.989 1465.85 204.92L1465.52 203.413C1465.42 203.439 1465.2 203.487 1464.96 203.487C1464.47 203.487 1464.09 203.317 1464.09 202.539V198.31H1465.7V196.818ZM1471.3 205.16C1473.2 205.16 1474.51 204.228 1474.85 202.805L1473.05 202.603C1472.79 203.295 1472.15 203.658 1471.32 203.658C1470.08 203.658 1469.25 202.837 1469.23 201.436H1474.93V200.845C1474.93 197.974 1473.21 196.712 1471.2 196.712C1468.85 196.712 1467.32 198.432 1467.32 200.957C1467.32 203.525 1468.83 205.16 1471.3 205.16ZM1469.24 200.137C1469.3 199.093 1470.07 198.214 1471.22 198.214C1472.33 198.214 1473.08 199.023 1473.09 200.137H1469.24Z" fill="#C5D1DB"/>
<path d="M1416.56 218.091H1414.96L1412.24 219.87V221.447L1414.85 219.742H1414.91V229H1416.56V218.091ZM1419.88 229H1421.6L1426.35 219.55V218.091H1419.14V219.502H1424.64V219.582L1419.88 229ZM1432.38 217.58H1430.95L1427.44 230.641H1428.86L1432.38 217.58ZM1437.85 218.091H1436.24L1433.52 219.87V221.447L1436.13 219.742H1436.2V229H1437.85V218.091ZM1444.94 218.091H1443.33L1440.61 219.87V221.447L1443.22 219.742H1443.28V229H1444.94V218.091ZM1452.06 217.58H1450.64L1447.13 230.641H1448.55L1452.06 217.58ZM1453.4 229H1460.58V227.588H1455.66V227.509L1457.83 225.239C1459.83 223.221 1460.4 222.256 1460.4 221.037C1460.4 219.284 1458.97 217.942 1456.92 217.942C1454.88 217.942 1453.38 219.263 1453.38 221.255H1454.96C1454.95 220.083 1455.71 219.316 1456.88 219.316C1457.99 219.316 1458.83 219.998 1458.83 221.085C1458.83 222.049 1458.26 222.741 1457.09 223.982L1453.4 227.807V229ZM1466.39 229.181C1468.91 229.181 1470.39 227.125 1470.39 223.551C1470.39 220.003 1468.89 217.942 1466.39 217.942C1463.89 217.942 1462.4 219.998 1462.39 223.551C1462.39 227.12 1463.87 229.176 1466.39 229.181ZM1466.39 227.759C1464.92 227.759 1464.03 226.278 1464.03 223.551C1464.03 220.834 1464.92 219.337 1466.39 219.337C1467.86 219.337 1468.75 220.834 1468.75 223.551C1468.75 226.278 1467.86 227.759 1466.39 227.759ZM1472.28 229H1479.46V227.588H1474.55V227.509L1476.71 225.239C1478.71 223.221 1479.28 222.256 1479.28 221.037C1479.28 219.284 1477.85 217.942 1475.8 217.942C1473.76 217.942 1472.27 219.263 1472.27 221.255H1473.84C1473.83 220.083 1474.59 219.316 1475.77 219.316C1476.87 219.316 1477.72 219.998 1477.72 221.085C1477.72 222.049 1477.14 222.741 1475.97 223.982L1472.28 227.807V229ZM1481.48 229H1488.66V227.588H1483.75V227.509L1485.91 225.239C1487.91 223.221 1488.48 222.256 1488.48 221.037C1488.48 219.284 1487.05 217.942 1485 217.942C1482.96 217.942 1481.47 219.263 1481.47 221.255H1483.04C1483.03 220.083 1483.79 219.316 1484.97 219.316C1486.07 219.316 1486.91 219.998 1486.91 221.085C1486.91 222.049 1486.34 222.741 1485.17 223.982L1481.48 227.807V229Z" fill="#C5D1DB"/>
<circle cx="1220" cy="267" r="7" stroke="#C5D1DB" stroke-width="2"/>
<path d="M1239.34 261.091H1237.41V272H1239.34V261.091ZM1241.77 272H1243.7V263.818H1241.77V272ZM1242.74 262.657C1243.35 262.657 1243.86 262.188 1243.86 261.613C1243.86 261.032 1243.35 260.564 1242.74 260.564C1242.12 260.564 1241.62 261.032 1241.62 261.613C1241.62 262.188 1242.12 262.657 1242.74 262.657ZM1252.6 265.981C1252.33 264.596 1251.23 263.712 1249.31 263.712C1247.34 263.712 1246 264.681 1246 266.194C1246 267.387 1246.73 268.175 1248.3 268.5L1249.7 268.793C1250.45 268.958 1250.8 269.262 1250.8 269.725C1250.8 270.285 1250.19 270.706 1249.28 270.706C1248.39 270.706 1247.82 270.322 1247.65 269.587L1245.77 269.768C1246.01 271.27 1247.27 272.16 1249.28 272.16C1251.33 272.16 1252.77 271.1 1252.78 269.55C1252.77 268.383 1252.02 267.669 1250.47 267.334L1249.08 267.036C1248.25 266.849 1247.92 266.561 1247.92 266.087C1247.92 265.533 1248.53 265.15 1249.33 265.15C1250.22 265.15 1250.69 265.635 1250.84 266.173L1252.6 265.981ZM1258.9 263.818H1257.29V261.858H1255.36V263.818H1254.2V265.31H1255.36V269.859C1255.35 271.398 1256.47 272.154 1257.92 272.112C1258.46 272.096 1258.84 271.989 1259.05 271.92L1258.73 270.413C1258.62 270.439 1258.4 270.487 1258.16 270.487C1257.68 270.487 1257.29 270.317 1257.29 269.539V265.31H1258.9V263.818ZM1263.2 261.091H1261.23V272H1263.2V261.091ZM1269.79 263.818H1268.18V261.858H1266.25V263.818H1265.09V265.31H1266.25V269.859C1266.24 271.398 1267.36 272.154 1268.81 272.112C1269.36 272.096 1269.73 271.989 1269.94 271.92L1269.62 270.413C1269.51 270.439 1269.29 270.487 1269.05 270.487C1268.57 270.487 1268.18 270.317 1268.18 269.539V265.31H1269.79V263.818ZM1275.39 272.16C1277.3 272.16 1278.61 271.228 1278.95 269.805L1277.15 269.603C1276.89 270.295 1276.25 270.658 1275.42 270.658C1274.17 270.658 1273.34 269.837 1273.33 268.436H1279.03V267.845C1279.03 264.974 1277.3 263.712 1275.29 263.712C1272.94 263.712 1271.42 265.432 1271.42 267.957C1271.42 270.525 1272.92 272.16 1275.39 272.16ZM1273.33 267.137C1273.39 266.093 1274.16 265.214 1275.31 265.214C1276.42 265.214 1277.17 266.023 1277.18 267.137H1273.33ZM1281.11 272H1283.04V267.025C1283.04 266.018 1283.71 265.336 1284.54 265.336C1285.35 265.336 1285.91 265.885 1285.91 266.727V272H1287.8V266.897C1287.8 265.975 1288.35 265.336 1289.28 265.336C1290.06 265.336 1290.68 265.794 1290.68 266.806V272H1292.61V266.508C1292.61 264.681 1291.56 263.712 1290.06 263.712C1288.87 263.712 1287.96 264.298 1287.6 265.208H1287.52C1287.2 264.282 1286.41 263.712 1285.31 263.712C1284.21 263.712 1283.39 264.276 1283.05 265.208H1282.95V263.818H1281.11V272Z" fill="#C5D1DB"/>
<path d="M1236.97 288.5H1238.33V287.461C1238.33 286.657 1238.68 285.98 1239.12 285.347L1238.33 284.782C1237.51 285.437 1236.97 286.572 1236.97 287.477V288.5ZM1239.69 288.5H1241.05V287.461C1241.05 286.657 1241.4 285.98 1241.83 285.347L1241.04 284.782C1240.23 285.437 1239.69 286.572 1239.69 287.477V288.5ZM1245.46 296H1247.13L1249.42 287.829H1249.51L1251.8 296H1253.46L1256.49 285.091H1254.75L1252.63 293.544H1252.53L1250.32 285.091H1248.61L1246.4 293.539H1246.3L1244.17 285.091H1242.44L1245.46 296ZM1257.35 296H1258.94V291.004C1258.94 289.933 1259.77 289.161 1260.9 289.161C1261.23 289.161 1261.6 289.219 1261.73 289.256V287.733C1261.57 287.712 1261.26 287.696 1261.05 287.696C1260.09 287.696 1259.27 288.239 1258.98 289.118H1258.89V287.818H1257.35V296ZM1263.11 296H1264.7V287.818H1263.11V296ZM1263.91 286.556C1264.46 286.556 1264.92 286.13 1264.92 285.608C1264.92 285.086 1264.46 284.654 1263.91 284.654C1263.36 284.654 1262.91 285.086 1262.91 285.608C1262.91 286.13 1263.36 286.556 1263.91 286.556ZM1270.66 287.818H1268.98V285.858H1267.39V287.818H1266.19V289.097H1267.39V293.928C1267.39 295.414 1268.52 296.133 1269.78 296.107C1270.28 296.101 1270.63 296.005 1270.81 295.936L1270.52 294.62C1270.42 294.642 1270.22 294.69 1269.97 294.69C1269.45 294.69 1268.98 294.519 1268.98 293.598V289.097H1270.66V287.818ZM1275.86 296.165C1277.65 296.165 1278.91 295.286 1279.27 293.955L1277.76 293.683C1277.48 294.455 1276.78 294.849 1275.88 294.849C1274.52 294.849 1273.6 293.965 1273.56 292.388H1279.37V291.824C1279.37 288.868 1277.6 287.712 1275.75 287.712C1273.47 287.712 1271.97 289.448 1271.97 291.962C1271.97 294.503 1273.45 296.165 1275.86 296.165ZM1273.56 291.195C1273.63 290.034 1274.47 289.027 1275.76 289.027C1277 289.027 1277.81 289.944 1277.81 291.195H1273.56ZM1288.93 287.818H1287.25V285.858H1285.66V287.818H1284.46V289.097H1285.66V293.928C1285.65 295.414 1286.79 296.133 1288.05 296.107C1288.55 296.101 1288.89 296.005 1289.08 295.936L1288.79 294.62C1288.68 294.642 1288.49 294.69 1288.23 294.69C1287.71 294.69 1287.25 294.519 1287.25 293.598V289.097H1288.93V287.818ZM1294.13 296.165C1295.91 296.165 1297.18 295.286 1297.54 293.955L1296.03 293.683C1295.74 294.455 1295.05 294.849 1294.15 294.849C1292.78 294.849 1291.87 293.965 1291.82 292.388H1297.64V291.824C1297.64 288.868 1295.87 287.712 1294.02 287.712C1291.74 287.712 1290.24 289.448 1290.24 291.962C1290.24 294.503 1291.72 296.165 1294.13 296.165ZM1291.83 291.195C1291.89 290.034 1292.73 289.027 1294.03 289.027C1295.26 289.027 1296.07 289.944 1296.08 291.195H1291.83ZM1305.54 289.816C1305.21 288.543 1304.21 287.712 1302.44 287.712C1300.59 287.712 1299.28 288.686 1299.28 290.135C1299.28 291.297 1299.99 292.069 1301.52 292.41L1302.91 292.713C1303.7 292.889 1304.06 293.241 1304.06 293.752C1304.06 294.386 1303.39 294.881 1302.34 294.881C1301.39 294.881 1300.78 294.471 1300.58 293.667L1299.04 293.901C1299.31 295.35 1300.52 296.165 1302.35 296.165C1304.33 296.165 1305.7 295.116 1305.7 293.635C1305.7 292.479 1304.96 291.765 1303.46 291.419L1302.16 291.121C1301.26 290.908 1300.87 290.604 1300.88 290.05C1300.87 289.422 1301.55 288.974 1302.46 288.974C1303.45 288.974 1303.91 289.523 1304.09 290.071L1305.54 289.816ZM1311.27 287.818H1309.59V285.858H1308V287.818H1306.8V289.097H1308V293.928C1307.99 295.414 1309.13 296.133 1310.38 296.107C1310.89 296.101 1311.23 296.005 1311.42 295.936L1311.13 294.62C1311.02 294.642 1310.83 294.69 1310.57 294.69C1310.05 294.69 1309.59 294.519 1309.59 293.598V289.097H1311.27V287.818ZM1319.03 289.816C1318.7 288.543 1317.7 287.712 1315.93 287.712C1314.09 287.712 1312.78 288.686 1312.78 290.135C1312.78 291.297 1313.48 292.069 1315.01 292.41L1316.4 292.713C1317.19 292.889 1317.55 293.241 1317.55 293.752C1317.55 294.386 1316.88 294.881 1315.83 294.881C1314.88 294.881 1314.27 294.471 1314.08 293.667L1312.54 293.901C1312.8 295.35 1314.01 296.165 1315.84 296.165C1317.82 296.165 1319.19 295.116 1319.19 293.635C1319.19 292.479 1318.45 291.765 1316.95 291.419L1315.65 291.121C1314.75 290.908 1314.36 290.604 1314.37 290.05C1314.36 289.422 1315.04 288.974 1315.95 288.974C1316.94 288.974 1317.4 289.523 1317.59 290.071L1319.03 289.816ZM1322.31 285.091H1320.95V286.13C1320.95 286.955 1320.58 287.632 1320.17 288.244L1320.96 288.809C1321.78 288.148 1322.31 287.019 1322.31 286.114V285.091ZM1325.02 285.091H1323.66V286.13C1323.66 286.955 1323.29 287.632 1322.88 288.244L1323.67 288.809C1324.49 288.148 1325.02 287.019 1325.02 286.114V285.091Z" fill="#C5D1DB"/>
<circle cx="925" cy="148" r="8" fill="url(#paint0_linear_1363_17102)"/>
<path d="M945.818 153.16C947.725 153.16 949.036 152.228 949.377 150.805L947.576 150.603C947.315 151.295 946.676 151.658 945.845 151.658C944.599 151.658 943.773 150.837 943.757 149.436H949.457V148.845C949.457 145.974 947.731 144.712 945.717 144.712C943.373 144.712 941.845 146.432 941.845 148.957C941.845 151.525 943.352 153.16 945.818 153.16ZM943.762 148.137C943.821 147.093 944.593 146.214 945.744 146.214C946.852 146.214 947.598 147.023 947.608 148.137H943.762ZM951.538 153H953.466V148.025C953.466 147.018 954.137 146.336 954.968 146.336C955.783 146.336 956.343 146.885 956.343 147.727V153H958.234V147.897C958.234 146.975 958.782 146.336 959.714 146.336C960.492 146.336 961.11 146.794 961.11 147.806V153H963.044V147.508C963.044 145.681 961.989 144.712 960.487 144.712C959.299 144.712 958.393 145.298 958.031 146.208H957.946C957.632 145.282 956.838 144.712 955.735 144.712C954.638 144.712 953.818 145.276 953.477 146.208H953.381V144.818H951.538V153ZM967.804 153.165C969.088 153.165 969.855 152.563 970.206 151.876H970.27V153H972.124V147.524C972.124 145.362 970.361 144.712 968.8 144.712C967.08 144.712 965.759 145.479 965.333 146.97L967.133 147.226C967.325 146.667 967.868 146.187 968.811 146.187C969.706 146.187 970.196 146.645 970.196 147.45V147.482C970.196 148.036 969.615 148.062 968.172 148.217C966.584 148.387 965.066 148.861 965.066 150.704C965.066 152.313 966.243 153.165 967.804 153.165ZM968.305 151.748C967.501 151.748 966.925 151.381 966.925 150.672C966.925 149.932 967.57 149.623 968.433 149.5C968.939 149.431 969.951 149.303 970.201 149.101V150.065C970.201 150.976 969.466 151.748 968.305 151.748ZM974.513 153H976.441V144.818H974.513V153ZM975.482 143.657C976.095 143.657 976.596 143.188 976.596 142.613C976.596 142.032 976.095 141.564 975.482 141.564C974.865 141.564 974.364 142.032 974.364 142.613C974.364 143.188 974.865 143.657 975.482 143.657ZM980.802 142.091H978.874V153H980.802V142.091Z" fill="#6048E5"/>
<path d="M942.347 173H943.833V168.292C943.833 167.263 944.554 166.547 945.4 166.547C946.225 166.547 946.797 167.094 946.797 167.924V173H948.278V168.133C948.278 167.213 948.84 166.547 949.809 166.547C950.595 166.547 951.241 166.984 951.241 168.018V173H952.728V167.879C952.728 166.134 951.753 165.264 950.371 165.264C949.272 165.264 948.447 165.791 948.079 166.607H948C947.667 165.771 946.966 165.264 945.946 165.264C944.937 165.264 944.186 165.766 943.868 166.607H943.774V165.364H942.347V173ZM956.942 173.169C958.205 173.169 958.916 172.528 959.199 171.956H959.259V173H960.711V167.929C960.711 165.707 958.961 165.264 957.748 165.264C956.366 165.264 955.093 165.821 954.596 167.213L955.993 167.531C956.211 166.989 956.768 166.467 957.768 166.467C958.727 166.467 959.219 166.969 959.219 167.835V167.869C959.219 168.411 958.662 168.401 957.29 168.56C955.844 168.729 954.362 169.107 954.362 170.842C954.362 172.344 955.491 173.169 956.942 173.169ZM957.265 171.976C956.425 171.976 955.819 171.598 955.819 170.862C955.819 170.067 956.525 169.783 957.385 169.669C957.867 169.604 959.01 169.475 959.224 169.261V170.246C959.224 171.151 958.503 171.976 957.265 171.976ZM964.177 168.466C964.177 167.248 964.948 166.552 966.007 166.552C967.031 166.552 967.642 167.203 967.642 168.322V173H969.129V168.143C969.129 166.239 968.085 165.264 966.514 165.264C965.326 165.264 964.61 165.781 964.252 166.607H964.157V162.818H962.691V173H964.177V168.466ZM973.335 173.169C974.598 173.169 975.309 172.528 975.592 171.956H975.652V173H977.103V167.929C977.103 165.707 975.353 165.264 974.14 165.264C972.758 165.264 971.485 165.821 970.988 167.213L972.385 167.531C972.604 166.989 973.161 166.467 974.16 166.467C975.12 166.467 975.612 166.969 975.612 167.835V167.869C975.612 168.411 975.055 168.401 973.683 168.56C972.236 168.729 970.755 169.107 970.755 170.842C970.755 172.344 971.883 173.169 973.335 173.169ZM973.658 171.976C972.818 171.976 972.211 171.598 972.211 170.862C972.211 170.067 972.917 169.783 973.777 169.669C974.26 169.604 975.403 169.475 975.617 169.261V170.246C975.617 171.151 974.896 171.976 973.658 171.976ZM980.57 168.466C980.57 167.248 981.316 166.552 982.35 166.552C983.359 166.552 983.97 167.213 983.97 168.322V173H985.457V168.143C985.457 166.254 984.418 165.264 982.857 165.264C981.708 165.264 980.958 165.796 980.605 166.607H980.51V165.364H979.083V173H980.57V168.466ZM987.45 173H988.937V165.364H987.45V173ZM988.201 164.185C988.713 164.185 989.141 163.788 989.141 163.3C989.141 162.813 988.713 162.411 988.201 162.411C987.684 162.411 987.262 162.813 987.262 163.3C987.262 163.788 987.684 164.185 988.201 164.185ZM997.067 175.769C998.215 175.769 999.543 175.456 1000.16 175.168L999.811 174.079C999.393 174.228 998.245 174.591 997.131 174.591C993.786 174.591 991.991 172.746 991.991 169.445C991.991 166.283 993.766 164.24 996.947 164.24C999.856 164.24 1001.59 166.109 1001.59 168.635C1001.59 170.793 1001.31 171.762 1000.41 171.762C999.896 171.762 999.612 171.344 999.612 170.822V166.209H998.389V166.766H998.325C998.175 166.328 997.31 165.935 996.271 166.06C994.835 166.229 993.602 167.417 993.602 169.376C993.602 171.419 994.646 172.786 996.321 172.851C997.455 172.901 998.19 172.374 998.424 171.787H998.484C998.603 172.587 999.468 172.94 1000.32 172.911C1002.44 172.871 1002.84 170.783 1002.84 168.685C1002.84 165.692 1000.8 163.087 996.997 163.087C993.015 163.087 990.673 165.518 990.668 169.435C990.673 173.467 992.955 175.769 997.067 175.769ZM996.609 171.633C995.312 171.633 994.864 170.519 994.859 169.316C994.864 168.173 995.506 167.263 996.629 167.263C997.847 167.263 998.394 167.8 998.399 169.311C998.404 170.862 997.902 171.633 996.609 171.633ZM1004.49 173H1005.97V165.364H1004.49V173ZM1005.24 164.185C1005.75 164.185 1006.18 163.788 1006.18 163.3C1006.18 162.813 1005.75 162.411 1005.24 162.411C1004.72 162.411 1004.3 162.813 1004.3 163.3C1004.3 163.788 1004.72 164.185 1005.24 164.185ZM1009.46 168.466C1009.46 167.248 1010.2 166.552 1011.24 166.552C1012.25 166.552 1012.86 167.213 1012.86 168.322V173H1014.35V168.143C1014.35 166.254 1013.31 165.264 1011.75 165.264C1010.6 165.264 1009.85 165.796 1009.49 166.607H1009.4V165.364H1007.97V173H1009.46V168.466ZM1016.46 173H1017.91V171.812H1018.03C1018.3 172.299 1018.85 173.149 1020.24 173.149C1022.09 173.149 1023.43 171.668 1023.43 169.197C1023.43 166.721 1022.07 165.264 1020.23 165.264C1018.81 165.264 1018.3 166.129 1018.03 166.602H1017.94V162.818H1016.46V173ZM1017.92 169.182C1017.92 167.586 1018.61 166.527 1019.91 166.527C1021.26 166.527 1021.93 167.665 1021.93 169.182C1021.93 170.713 1021.24 171.881 1019.91 171.881C1018.63 171.881 1017.92 170.788 1017.92 169.182ZM1028.32 173.154C1030.47 173.154 1031.88 171.578 1031.88 169.217C1031.88 166.84 1030.47 165.264 1028.32 165.264C1026.17 165.264 1024.76 166.84 1024.76 169.217C1024.76 171.578 1026.17 173.154 1028.32 173.154ZM1028.32 171.906C1026.92 171.906 1026.26 170.678 1026.26 169.212C1026.26 167.75 1026.92 166.507 1028.32 166.507C1029.72 166.507 1030.38 167.75 1030.38 169.212C1030.38 170.678 1029.72 171.906 1028.32 171.906ZM1034.4 165.364H1032.77L1035.11 169.182L1032.74 173H1034.37L1036.08 170.146L1037.8 173H1039.43L1037.03 169.182L1039.41 165.364H1037.78L1036.08 168.337L1034.4 165.364ZM1041.91 173.094C1042.46 173.094 1042.91 172.652 1042.91 172.1C1042.91 171.558 1042.46 171.111 1041.91 171.111C1041.37 171.111 1040.92 171.558 1040.92 172.1C1040.92 172.652 1041.37 173.094 1041.91 173.094ZM1048.12 173.154C1049.92 173.154 1051.09 172.07 1051.25 170.584H1049.81C1049.62 171.409 1048.98 171.896 1048.13 171.896C1046.87 171.896 1046.06 170.847 1046.06 169.182C1046.06 167.546 1046.88 166.517 1048.13 166.517C1049.07 166.517 1049.65 167.114 1049.81 167.83H1051.25C1051.09 166.288 1049.84 165.264 1048.1 165.264C1045.95 165.264 1044.56 166.885 1044.56 169.217C1044.56 171.518 1045.9 173.154 1048.12 173.154ZM1056.06 173.154C1058.21 173.154 1059.62 171.578 1059.62 169.217C1059.62 166.84 1058.21 165.264 1056.06 165.264C1053.91 165.264 1052.5 166.84 1052.5 169.217C1052.5 171.578 1053.91 173.154 1056.06 173.154ZM1056.06 171.906C1054.66 171.906 1054 170.678 1054 169.212C1054 167.75 1054.66 166.507 1056.06 166.507C1057.46 166.507 1058.12 167.75 1058.12 169.212C1058.12 170.678 1057.46 171.906 1056.06 171.906ZM1061.28 173H1062.77V168.292C1062.77 167.263 1063.49 166.547 1064.33 166.547C1065.16 166.547 1065.73 167.094 1065.73 167.924V173H1067.21V168.133C1067.21 167.213 1067.77 166.547 1068.74 166.547C1069.53 166.547 1070.17 166.984 1070.17 168.018V173H1071.66V167.879C1071.66 166.134 1070.68 165.264 1069.3 165.264C1068.2 165.264 1067.38 165.791 1067.01 166.607H1066.93C1066.6 165.771 1065.9 165.264 1064.88 165.264C1063.87 165.264 1063.12 165.766 1062.8 166.607H1062.71V165.364H1061.28V173Z" fill="#64778C"/>
<a href="mailto:mahani@inbox.com">
<rect fill="black" fill-opacity="0" x="0.347656" y="-0.971591" width="131.301" height="16.9432"/>
</a>
<path d="M498.483 132.818H496.784V132.174C496.784 131.534 497.05 131.178 497.769 131.178C498.073 131.178 498.328 131.247 498.488 131.295L498.877 129.803C498.627 129.718 498.078 129.58 497.412 129.58C495.99 129.58 494.855 130.395 494.855 132.046V132.818H493.646V134.31H494.855V141H496.784V134.31H498.483V132.818ZM500.443 141H502.371V132.818H500.443V141ZM501.412 131.657C502.025 131.657 502.526 131.188 502.526 130.613C502.526 130.032 502.025 129.564 501.412 129.564C500.795 129.564 500.294 130.032 500.294 130.613C500.294 131.188 500.795 131.657 501.412 131.657ZM504.804 141H506.732V136.19C506.732 135.151 507.515 134.416 508.575 134.416C508.9 134.416 509.305 134.475 509.47 134.528V132.754C509.295 132.722 508.991 132.701 508.778 132.701C507.84 132.701 507.057 133.234 506.759 134.182H506.674V132.818H504.804V141ZM517.668 134.981C517.402 133.596 516.294 132.712 514.376 132.712C512.405 132.712 511.063 133.681 511.068 135.194C511.063 136.387 511.798 137.175 513.369 137.5L514.765 137.793C515.516 137.958 515.868 138.262 515.868 138.725C515.868 139.285 515.26 139.706 514.344 139.706C513.46 139.706 512.885 139.322 512.72 138.587L510.839 138.768C511.079 140.27 512.341 141.16 514.349 141.16C516.395 141.16 517.838 140.1 517.844 138.55C517.838 137.383 517.087 136.669 515.543 136.334L514.147 136.036C513.316 135.849 512.986 135.561 512.991 135.087C512.986 134.533 513.598 134.15 514.403 134.15C515.292 134.15 515.761 134.635 515.91 135.173L517.668 134.981ZM523.969 132.818H522.355V130.858H520.427V132.818H519.266V134.31H520.427V138.859C520.417 140.398 521.535 141.154 522.984 141.112C523.533 141.096 523.911 140.989 524.119 140.92L523.794 139.413C523.687 139.439 523.469 139.487 523.229 139.487C522.744 139.487 522.355 139.317 522.355 138.539V134.31H523.969V132.818ZM535.258 130.091H533.292V137.527H533.196L528.062 130.091H526.293V141H528.269V133.569H528.36L533.5 141H535.258V130.091ZM540.13 141.165C541.414 141.165 542.181 140.563 542.533 139.876H542.597V141H544.45V135.524C544.45 133.362 542.687 132.712 541.127 132.712C539.406 132.712 538.085 133.479 537.659 134.97L539.459 135.226C539.651 134.667 540.194 134.187 541.137 134.187C542.032 134.187 542.522 134.645 542.522 135.45V135.482C542.522 136.036 541.942 136.062 540.498 136.217C538.911 136.387 537.392 136.861 537.392 138.704C537.392 140.313 538.57 141.165 540.13 141.165ZM540.631 139.748C539.827 139.748 539.252 139.381 539.252 138.672C539.252 137.932 539.896 137.623 540.759 137.5C541.265 137.431 542.277 137.303 542.527 137.101V138.065C542.527 138.976 541.792 139.748 540.631 139.748ZM546.839 141H548.768V136.025C548.768 135.018 549.439 134.336 550.27 134.336C551.085 134.336 551.644 134.885 551.644 135.727V141H553.535V135.897C553.535 134.975 554.084 134.336 555.016 134.336C555.793 134.336 556.411 134.794 556.411 135.806V141H558.345V135.508C558.345 133.681 557.29 132.712 555.788 132.712C554.6 132.712 553.695 133.298 553.333 134.208H553.247C552.933 133.282 552.139 132.712 551.037 132.712C549.939 132.712 549.119 133.276 548.778 134.208H548.682V132.818H546.839V141ZM564.373 141.16C566.28 141.16 567.591 140.228 567.932 138.805L566.131 138.603C565.87 139.295 565.231 139.658 564.4 139.658C563.154 139.658 562.328 138.837 562.312 137.436H568.012V136.845C568.012 133.974 566.286 132.712 564.272 132.712C561.928 132.712 560.4 134.432 560.4 136.957C560.4 139.525 561.907 141.16 564.373 141.16ZM562.317 136.137C562.376 135.093 563.148 134.214 564.299 134.214C565.407 134.214 566.152 135.023 566.163 136.137H562.317Z" fill="#6048E5"/>
<path d="M494.681 154.091V165H496.247V157.1H496.349L499.566 164.984H500.866L504.083 157.106H504.184V165H505.75V154.091H503.753L500.28 162.571H500.152L496.679 154.091H494.681ZM510.397 165.181C511.75 165.181 512.511 164.494 512.815 163.881H512.879V165H514.434V159.567C514.434 157.186 512.559 156.712 511.259 156.712C509.779 156.712 508.415 157.308 507.882 158.8L509.379 159.141C509.614 158.56 510.21 158.001 511.281 158.001C512.309 158.001 512.836 158.539 512.836 159.466V159.503C512.836 160.083 512.24 160.073 510.769 160.243C509.219 160.424 507.632 160.829 507.632 162.688C507.632 164.297 508.841 165.181 510.397 165.181ZM510.743 163.903C509.843 163.903 509.193 163.498 509.193 162.71C509.193 161.857 509.949 161.554 510.871 161.431C511.387 161.362 512.612 161.223 512.841 160.994V162.049C512.841 163.018 512.069 163.903 510.743 163.903ZM516.556 165H518.148V160.004C518.148 158.933 518.974 158.161 520.103 158.161C520.433 158.161 520.806 158.219 520.934 158.256V156.733C520.774 156.712 520.46 156.696 520.258 156.696C519.299 156.696 518.478 157.239 518.18 158.118H518.095V156.818H516.556V165ZM522.312 165H523.905V156.818H522.312V165ZM523.117 155.556C523.665 155.556 524.123 155.13 524.123 154.608C524.123 154.086 523.665 153.654 523.117 153.654C522.563 153.654 522.11 154.086 522.11 154.608C522.11 155.13 522.563 155.556 523.117 155.556ZM528.429 165.181C529.782 165.181 530.543 164.494 530.847 163.881H530.911V165H532.466V159.567C532.466 157.186 530.591 156.712 529.292 156.712C527.811 156.712 526.447 157.308 525.915 158.8L527.411 159.141C527.646 158.56 528.242 158.001 529.313 158.001C530.341 158.001 530.868 158.539 530.868 159.466V159.503C530.868 160.083 530.272 160.073 528.802 160.243C527.252 160.424 525.664 160.829 525.664 162.688C525.664 164.297 526.873 165.181 528.429 165.181ZM528.775 163.903C527.875 163.903 527.225 163.498 527.225 162.71C527.225 161.857 527.981 161.554 528.903 161.431C529.42 161.362 530.645 161.223 530.874 160.994V162.049C530.874 163.018 530.101 163.903 528.775 163.903Z" fill="#64778C"/>
<circle cx="585" cy="136" r="8" fill="url(#paint1_linear_1363_17102)"/>
<path d="M443.986 244.091H442.058V255H443.986V244.091ZM448.773 255.165C450.057 255.165 450.824 254.563 451.176 253.876H451.24V255H453.093V249.524C453.093 247.362 451.33 246.712 449.769 246.712C448.049 246.712 446.728 247.479 446.302 248.97L448.102 249.226C448.294 248.667 448.837 248.187 449.78 248.187C450.675 248.187 451.165 248.645 451.165 249.45V249.482C451.165 250.036 450.584 250.062 449.141 250.217C447.554 250.387 446.035 250.861 446.035 252.704C446.035 254.313 447.213 255.165 448.773 255.165ZM449.274 253.748C448.47 253.748 447.894 253.381 447.894 252.672C447.894 251.932 448.539 251.623 449.402 251.5C449.908 251.431 450.92 251.303 451.17 251.101V252.065C451.17 252.976 450.435 253.748 449.274 253.748ZM461.949 248.981C461.683 247.596 460.575 246.712 458.657 246.712C456.686 246.712 455.344 247.681 455.349 249.194C455.344 250.387 456.079 251.175 457.65 251.5L459.046 251.793C459.797 251.958 460.148 252.262 460.148 252.725C460.148 253.285 459.541 253.706 458.625 253.706C457.741 253.706 457.166 253.322 457 252.587L455.12 252.768C455.36 254.27 456.622 255.16 458.63 255.16C460.676 255.16 462.119 254.1 462.125 252.55C462.119 251.383 461.368 250.669 459.824 250.334L458.428 250.036C457.597 249.849 457.267 249.561 457.272 249.087C457.267 248.533 457.879 248.15 458.684 248.15C459.573 248.15 460.042 248.635 460.191 249.173L461.949 248.981ZM468.25 246.818H466.636V244.858H464.708V246.818H463.547V248.31H464.708V252.859C464.697 254.398 465.816 255.154 467.265 255.112C467.813 255.096 468.192 254.989 468.399 254.92L468.074 253.413C467.968 253.439 467.75 253.487 467.51 253.487C467.025 253.487 466.636 253.317 466.636 252.539V248.31H468.25V246.818ZM479.539 244.091H477.573V251.527H477.477L472.342 244.091H470.574V255H472.55V247.569H472.641L477.781 255H479.539V244.091ZM484.411 255.165C485.695 255.165 486.462 254.563 486.814 253.876H486.878V255H488.731V249.524C488.731 247.362 486.968 246.712 485.407 246.712C483.687 246.712 482.366 247.479 481.94 248.97L483.74 249.226C483.932 248.667 484.475 248.187 485.418 248.187C486.313 248.187 486.803 248.645 486.803 249.45V249.482C486.803 250.036 486.222 250.062 484.779 250.217C483.191 250.387 481.673 250.861 481.673 252.704C481.673 254.313 482.851 255.165 484.411 255.165ZM484.912 253.748C484.108 253.748 483.532 253.381 483.532 252.672C483.532 251.932 484.177 251.623 485.04 251.5C485.546 251.431 486.558 251.303 486.808 251.101V252.065C486.808 252.976 486.073 253.748 484.912 253.748ZM491.12 255H493.048V250.025C493.048 249.018 493.72 248.336 494.551 248.336C495.366 248.336 495.925 248.885 495.925 249.727V255H497.816V249.897C497.816 248.975 498.364 248.336 499.297 248.336C500.074 248.336 500.692 248.794 500.692 249.806V255H502.626V249.508C502.626 247.681 501.571 246.712 500.069 246.712C498.881 246.712 497.976 247.298 497.613 248.208H497.528C497.214 247.282 496.42 246.712 495.318 246.712C494.22 246.712 493.4 247.276 493.059 248.208H492.963V246.818H491.12V255ZM508.654 255.16C510.561 255.16 511.872 254.228 512.212 252.805L510.412 252.603C510.151 253.295 509.512 253.658 508.681 253.658C507.434 253.658 506.609 252.837 506.593 251.436H512.292V250.845C512.292 247.974 510.567 246.712 508.553 246.712C506.209 246.712 504.681 248.432 504.681 250.957C504.681 253.525 506.188 255.16 508.654 255.16ZM506.598 250.137C506.657 249.093 507.429 248.214 508.58 248.214C509.688 248.214 510.433 249.023 510.444 250.137H506.598Z" fill="#6048E5"/>
<path d="M442.566 268.091V279H444.132V271.1H444.233L447.45 278.984H448.75L451.967 271.106H452.069V279H453.635V268.091H451.637L448.164 276.571H448.036L444.563 268.091H442.566ZM458.281 279.181C459.634 279.181 460.396 278.494 460.699 277.881H460.763V279H462.318V273.567C462.318 271.186 460.443 270.712 459.144 270.712C457.663 270.712 456.299 271.308 455.767 272.8L457.263 273.141C457.498 272.56 458.094 272.001 459.165 272.001C460.193 272.001 460.72 272.539 460.72 273.466V273.503C460.72 274.083 460.124 274.073 458.654 274.243C457.104 274.424 455.516 274.829 455.516 276.688C455.516 278.297 456.725 279.181 458.281 279.181ZM458.627 277.903C457.727 277.903 457.077 277.498 457.077 276.71C457.077 275.857 457.833 275.554 458.755 275.431C459.272 275.362 460.497 275.223 460.726 274.994V276.049C460.726 277.018 459.953 277.903 458.627 277.903ZM466.032 274.142C466.032 272.837 466.858 272.091 467.993 272.091C469.09 272.091 469.745 272.789 469.745 273.988V279H471.338V273.796C471.338 271.756 470.219 270.712 468.536 270.712C467.263 270.712 466.496 271.266 466.112 272.15H466.011V268.091H464.44V279H466.032V274.142ZM475.844 279.181C477.197 279.181 477.959 278.494 478.263 277.881H478.327V279H479.882V273.567C479.882 271.186 478.007 270.712 476.707 270.712C475.226 270.712 473.863 271.308 473.33 272.8L474.827 273.141C475.061 272.56 475.658 272.001 476.729 272.001C477.757 272.001 478.284 272.539 478.284 273.466V273.503C478.284 274.083 477.687 274.073 476.217 274.243C474.667 274.424 473.08 274.829 473.08 276.688C473.08 278.297 474.289 279.181 475.844 279.181ZM476.191 277.903C475.29 277.903 474.64 277.498 474.64 276.71C474.64 275.857 475.397 275.554 476.318 275.431C476.835 275.362 478.06 275.223 478.289 274.994V276.049C478.289 277.018 477.517 277.903 476.191 277.903ZM483.596 274.142C483.596 272.837 484.395 272.091 485.503 272.091C486.584 272.091 487.239 272.8 487.239 273.988V279H488.832V273.796C488.832 271.772 487.719 270.712 486.046 270.712C484.816 270.712 484.011 271.282 483.633 272.15H483.532V270.818H482.003V279H483.596V274.142ZM490.968 279H492.561V270.818H490.968V279ZM491.772 269.556C492.321 269.556 492.779 269.13 492.779 268.608C492.779 268.086 492.321 267.654 491.772 267.654C491.218 267.654 490.766 268.086 490.766 268.608C490.766 269.13 491.218 269.556 491.772 269.556Z" fill="#64778C"/>
<circle cx="529" cy="250" r="8" fill="url(#paint2_linear_1363_17102)"/>
<path d="M792 112L722 265" stroke="url(#paint3_linear_1363_17102)"/>
<path d="M893 255L735 278" stroke="url(#paint4_linear_1363_17102)"/>
<path d="M913 153L732 272" stroke="url(#paint5_linear_1363_17102)"/>
<path d="M525 249L703 276" stroke="url(#paint6_linear_1363_17102)"/>
<path d="M589 141L710 267" stroke="url(#paint7_linear_1363_17102)"/>
<path d="M734.464 105H736.393V96.8182H734.464V105ZM735.434 95.657C736.046 95.657 736.547 95.1882 736.547 94.6129C736.547 94.0323 736.046 93.5636 735.434 93.5636C734.816 93.5636 734.315 94.0323 734.315 94.6129C734.315 95.1882 734.816 95.657 735.434 95.657ZM738.825 105H740.754V100.025C740.754 99.0181 741.425 98.3363 742.256 98.3363C743.071 98.3363 743.63 98.8849 743.63 99.7266V105H745.521V99.897C745.521 98.9755 746.07 98.3363 747.002 98.3363C747.78 98.3363 748.398 98.7944 748.398 99.8065V105H750.331V99.5082C750.331 97.6811 749.276 96.7116 747.774 96.7116C746.586 96.7116 745.681 97.2976 745.319 98.2085H745.233C744.919 97.2816 744.126 96.7116 743.023 96.7116C741.926 96.7116 741.105 97.2763 740.764 98.2085H740.668V96.8182H738.825V105ZM755.092 105.165C756.375 105.165 757.143 104.563 757.494 103.876H757.558V105H759.412V99.5241C759.412 97.3615 757.649 96.7116 756.088 96.7116C754.367 96.7116 753.046 97.4787 752.62 98.9702L754.421 99.2259C754.612 98.6665 755.156 98.1871 756.098 98.1871C756.993 98.1871 757.483 98.6452 757.483 99.4496V99.4815C757.483 100.036 756.903 100.062 755.459 100.217C753.872 100.387 752.354 100.861 752.354 102.704C752.354 104.313 753.531 105.165 755.092 105.165ZM755.592 103.748C754.788 103.748 754.213 103.381 754.213 102.672C754.213 101.932 754.857 101.623 755.72 101.5C756.226 101.431 757.238 101.303 757.489 101.101V102.065C757.489 102.976 756.754 103.748 755.592 103.748ZM765.359 108.239C767.569 108.239 769.199 107.227 769.199 105.133V96.8182H767.298V98.1712H767.191C766.898 97.5799 766.286 96.7116 764.842 96.7116C762.951 96.7116 761.465 98.1925 761.465 100.882C761.465 103.551 762.951 104.883 764.837 104.883C766.238 104.883 766.893 104.132 767.191 103.53H767.287V105.08C767.287 106.284 766.488 106.779 765.391 106.779C764.23 106.779 763.718 106.23 763.484 105.751L761.747 106.172C762.099 107.317 763.276 108.239 765.359 108.239ZM765.375 103.37C764.102 103.37 763.431 102.379 763.431 100.872C763.431 99.3857 764.091 98.2937 765.375 98.2937C766.616 98.2937 767.298 99.3217 767.298 100.872C767.298 102.433 766.605 103.37 765.375 103.37ZM775.248 105.16C777.155 105.16 778.465 104.228 778.806 102.805L777.006 102.603C776.745 103.295 776.105 103.658 775.274 103.658C774.028 103.658 773.202 102.837 773.186 101.436H778.886V100.845C778.886 97.9741 777.16 96.7116 775.147 96.7116C772.803 96.7116 771.274 98.4322 771.274 100.957C771.274 103.525 772.782 105.16 775.248 105.16ZM773.192 100.137C773.25 99.0927 774.023 98.2138 775.173 98.2138C776.281 98.2138 777.027 99.0234 777.038 100.137H773.192Z" fill="#6048E5"/>
<path d="M652.139 124.142C652.139 122.837 652.965 122.091 654.099 122.091C655.196 122.091 655.852 122.789 655.852 123.988V129H657.444V123.796C657.444 121.756 656.326 120.712 654.642 120.712C653.369 120.712 652.602 121.266 652.219 122.15H652.118V118.091H650.546V129H652.139V124.142ZM663.389 120.818H661.711V118.858H660.118V120.818H658.92V122.097H660.118V126.928C660.113 128.414 661.248 129.133 662.505 129.107C663.011 129.101 663.352 129.005 663.538 128.936L663.25 127.62C663.144 127.642 662.947 127.69 662.691 127.69C662.174 127.69 661.711 127.519 661.711 126.598V122.097H663.389V120.818ZM668.97 120.818H667.292V118.858H665.699V120.818H664.501V122.097H665.699V126.928C665.694 128.414 666.829 129.133 668.086 129.107C668.592 129.101 668.933 129.005 669.119 128.936L668.831 127.62C668.725 127.642 668.528 127.69 668.272 127.69C667.756 127.69 667.292 127.519 667.292 126.598V122.097H668.97V120.818ZM670.732 132.068H672.324V127.727H672.42C672.708 128.249 673.294 129.16 674.785 129.16C676.767 129.16 678.205 127.572 678.205 124.925C678.205 122.272 676.746 120.712 674.769 120.712C673.251 120.712 672.703 121.638 672.42 122.145H672.287V120.818H670.732V132.068ZM672.293 124.909C672.293 123.199 673.038 122.065 674.429 122.065C675.872 122.065 676.597 123.284 676.597 124.909C676.597 126.55 675.851 127.801 674.429 127.801C673.06 127.801 672.293 126.63 672.293 124.909ZM686.121 122.816C685.79 121.543 684.794 120.712 683.026 120.712C681.177 120.712 679.867 121.686 679.867 123.135C679.867 124.297 680.57 125.069 682.104 125.41L683.489 125.713C684.278 125.889 684.645 126.241 684.645 126.752C684.645 127.386 683.969 127.881 682.925 127.881C681.971 127.881 681.359 127.471 681.167 126.667L679.627 126.901C679.894 128.35 681.098 129.165 682.935 129.165C684.911 129.165 686.28 128.116 686.28 126.635C686.28 125.479 685.545 124.765 684.043 124.419L682.744 124.121C681.843 123.908 681.454 123.604 681.46 123.05C681.454 122.422 682.136 121.974 683.042 121.974C684.033 121.974 684.491 122.523 684.677 123.071L686.121 122.816ZM689.081 123.146C689.662 123.146 690.146 122.672 690.146 122.081C690.146 121.5 689.662 121.021 689.081 121.021C688.495 121.021 688.016 121.5 688.016 122.081C688.016 122.672 688.495 123.146 689.081 123.146ZM689.081 129.101C689.662 129.101 690.146 128.627 690.146 128.036C690.146 127.455 689.662 126.976 689.081 126.976C688.495 126.976 688.016 127.455 688.016 128.036C688.016 128.627 688.495 129.101 689.081 129.101ZM696.434 117.58H695.012L691.497 130.641H692.919L696.434 117.58ZM701.942 117.58H700.52L697.004 130.641H698.427L701.942 117.58ZM703.295 132.068H704.888V127.727H704.984C705.271 128.249 705.857 129.16 707.349 129.16C709.33 129.16 710.769 127.572 710.769 124.925C710.769 122.272 709.309 120.712 707.333 120.712C705.815 120.712 705.266 121.638 704.984 122.145H704.851V120.818H703.295V132.068ZM704.856 124.909C704.856 123.199 705.602 122.065 706.992 122.065C708.436 122.065 709.16 123.284 709.16 124.909C709.16 126.55 708.414 127.801 706.992 127.801C705.623 127.801 704.856 126.63 704.856 124.909ZM712.553 129H714.146V124.004C714.146 122.933 714.971 122.161 716.101 122.161C716.431 122.161 716.804 122.219 716.932 122.256V120.733C716.772 120.712 716.458 120.696 716.255 120.696C715.296 120.696 714.476 121.239 714.178 122.118H714.093V120.818H712.553V129ZM721.463 129.165C723.77 129.165 725.277 127.477 725.277 124.946C725.277 122.4 723.77 120.712 721.463 120.712C719.157 120.712 717.649 122.4 717.649 124.946C717.649 127.477 719.157 129.165 721.463 129.165ZM721.469 127.828C719.961 127.828 719.258 126.512 719.258 124.941C719.258 123.375 719.961 122.043 721.469 122.043C722.965 122.043 723.669 123.375 723.669 124.941C723.669 126.512 722.965 127.828 721.469 127.828ZM730.949 120.818H729.186V120.083C729.186 119.359 729.484 118.964 730.262 118.964C730.592 118.964 730.826 119.039 730.975 119.087L731.348 117.798C731.125 117.713 730.661 117.58 730.017 117.58C728.722 117.58 727.588 118.336 727.588 119.87V120.818H726.325V122.097H727.588V129H729.186V122.097H730.949V120.818ZM732.592 129H734.185V120.818H732.592V129ZM733.396 119.556C733.945 119.556 734.403 119.13 734.403 118.608C734.403 118.086 733.945 117.654 733.396 117.654C732.843 117.654 732.39 118.086 732.39 118.608C732.39 119.13 732.843 119.556 733.396 119.556ZM737.92 118.091H736.328V129H737.92V118.091ZM743.589 129.165C745.374 129.165 746.636 128.286 746.998 126.955L745.491 126.683C745.203 127.455 744.511 127.849 743.605 127.849C742.241 127.849 741.325 126.965 741.283 125.388H747.099V124.824C747.099 121.868 745.331 120.712 743.477 120.712C741.197 120.712 739.695 122.448 739.695 124.962C739.695 127.503 741.176 129.165 743.589 129.165ZM741.288 124.195C741.352 123.034 742.194 122.027 743.488 122.027C744.724 122.027 745.533 122.944 745.539 124.195H741.288ZM749.916 129.101C750.497 129.101 750.981 128.627 750.981 128.036C750.981 127.455 750.497 126.976 749.916 126.976C749.33 126.976 748.851 127.455 748.851 128.036C748.851 128.627 749.33 129.101 749.916 129.101ZM753.115 132.068H754.707V127.727H754.803C755.091 128.249 755.677 129.16 757.168 129.16C759.15 129.16 760.588 127.572 760.588 124.925C760.588 122.272 759.128 120.712 757.152 120.712C755.634 120.712 755.085 121.638 754.803 122.145H754.67V120.818H753.115V132.068ZM754.675 124.909C754.675 123.199 755.421 122.065 756.811 122.065C758.255 122.065 758.979 123.284 758.979 124.909C758.979 126.55 758.234 127.801 756.811 127.801C755.442 127.801 754.675 126.63 754.675 124.909ZM763.965 124.142C763.965 122.837 764.764 122.091 765.872 122.091C766.953 122.091 767.609 122.8 767.609 123.988V129H769.201V123.796C769.201 121.772 768.088 120.712 766.415 120.712C765.185 120.712 764.381 121.282 764.002 122.15H763.901V120.818H762.372V129H763.965V124.142ZM774.768 132.239C776.85 132.239 778.459 131.285 778.459 129.181V120.818H776.898V122.145H776.781C776.499 121.638 775.934 120.712 774.411 120.712C772.435 120.712 770.98 122.272 770.98 124.877C770.98 127.487 772.467 128.877 774.4 128.877C775.902 128.877 776.483 128.031 776.771 127.509H776.872V129.117C776.872 130.401 775.993 130.955 774.784 130.955C773.457 130.955 772.941 130.289 772.658 129.82L771.289 130.385C771.721 131.386 772.813 132.239 774.768 132.239ZM774.752 127.556C773.329 127.556 772.589 126.464 772.589 124.856C772.589 123.284 773.313 122.065 774.752 122.065C776.142 122.065 776.888 123.199 776.888 124.856C776.888 126.544 776.126 127.556 774.752 127.556Z" fill="#64778C"/>
<circle cx="796" cy="100" r="8" fill="url(#paint8_linear_1363_17102)"/>
<circle cx="905" cy="253" r="8" fill="url(#paint9_linear_1363_17102)"/>
<path d="M922.046 261.068H923.974V256.711H924.054C924.358 257.308 924.992 258.144 926.398 258.144C928.326 258.144 929.77 256.615 929.77 253.92C929.77 251.192 928.284 249.712 926.393 249.712C924.949 249.712 924.347 250.58 924.054 251.171H923.942V249.818H922.046V261.068ZM923.937 253.909C923.937 252.322 924.619 251.294 925.86 251.294C927.144 251.294 927.804 252.386 927.804 253.909C927.804 255.443 927.133 256.562 925.86 256.562C924.63 256.562 923.937 255.496 923.937 253.909ZM931.871 258H933.799V253.19C933.799 252.151 934.582 251.416 935.642 251.416C935.967 251.416 936.372 251.475 936.537 251.528V249.754C936.362 249.722 936.058 249.701 935.845 249.701C934.907 249.701 934.124 250.234 933.826 251.182H933.741V249.818H931.871V258ZM941.5 258.16C943.897 258.16 945.421 256.471 945.421 253.941C945.421 251.406 943.897 249.712 941.5 249.712C939.103 249.712 937.58 251.406 937.58 253.941C937.58 256.471 939.103 258.16 941.5 258.16ZM941.511 256.615C940.185 256.615 939.535 255.433 939.535 253.936C939.535 252.439 940.185 251.24 941.511 251.24C942.816 251.24 943.466 252.439 943.466 253.936C943.466 255.433 942.816 256.615 941.511 256.615ZM951.652 249.818H949.952V249.174C949.952 248.534 950.219 248.178 950.938 248.178C951.241 248.178 951.497 248.247 951.657 248.295L952.046 246.803C951.795 246.718 951.247 246.58 950.581 246.58C949.159 246.58 948.024 247.395 948.024 249.046V249.818H946.815V251.31H948.024V258H949.952V251.31H951.652V249.818ZM953.612 258H955.54V249.818H953.612V258ZM954.581 248.657C955.194 248.657 955.695 248.188 955.695 247.613C955.695 247.032 955.194 246.564 954.581 246.564C953.963 246.564 953.463 247.032 953.463 247.613C953.463 248.188 953.963 248.657 954.581 248.657ZM959.901 247.091H957.973V258H959.901V247.091ZM965.956 258.16C967.863 258.16 969.174 257.228 969.514 255.805L967.714 255.603C967.453 256.295 966.814 256.658 965.983 256.658C964.736 256.658 963.911 255.837 963.895 254.436H969.594V253.845C969.594 250.974 967.868 249.712 965.855 249.712C963.511 249.712 961.982 251.432 961.982 253.957C961.982 256.525 963.49 258.16 965.956 258.16ZM963.9 253.137C963.959 252.093 964.731 251.214 965.882 251.214C966.99 251.214 967.735 252.023 967.746 253.137H963.9ZM975.458 258C978.781 258 980.752 255.944 980.752 252.535C980.752 249.136 978.781 247.091 975.532 247.091H971.761V258H975.458ZM973.737 256.29V248.801H975.42C977.636 248.801 978.792 250.037 978.792 252.535C978.792 255.044 977.636 256.29 975.362 256.29H973.737ZM986.617 258.16C988.524 258.16 989.834 257.228 990.175 255.805L988.375 255.603C988.114 256.295 987.475 256.658 986.644 256.658C985.397 256.658 984.571 255.837 984.555 254.436H990.255V253.845C990.255 250.974 988.529 249.712 986.516 249.712C984.172 249.712 982.643 251.432 982.643 253.957C982.643 256.525 984.151 258.16 986.617 258.16ZM984.561 253.137C984.619 252.093 985.392 251.214 986.542 251.214C987.65 251.214 988.396 252.023 988.407 253.137H984.561ZM998.803 251.981C998.537 250.596 997.429 249.712 995.511 249.712C993.54 249.712 992.198 250.681 992.203 252.194C992.198 253.387 992.933 254.175 994.504 254.5L995.9 254.793C996.651 254.958 997.003 255.262 997.003 255.725C997.003 256.285 996.395 256.706 995.479 256.706C994.595 256.706 994.02 256.322 993.854 255.587L991.974 255.768C992.214 257.27 993.476 258.16 995.484 258.16C997.53 258.16 998.973 257.1 998.979 255.55C998.973 254.383 998.222 253.669 996.678 253.334L995.282 253.036C994.451 252.849 994.121 252.561 994.126 252.087C994.121 251.533 994.733 251.15 995.538 251.15C996.427 251.15 996.896 251.635 997.045 252.173L998.803 251.981ZM1004.59 258.16C1006.64 258.16 1007.95 256.94 1008.09 255.203H1006.25C1006.08 256.082 1005.45 256.588 1004.6 256.588C1003.4 256.588 1002.62 255.582 1002.62 253.909C1002.62 252.258 1003.42 251.267 1004.6 251.267C1005.53 251.267 1006.1 251.864 1006.25 252.652H1008.09C1007.96 250.878 1006.57 249.712 1004.58 249.712C1002.18 249.712 1000.67 251.443 1000.67 253.941C1000.67 256.418 1002.14 258.16 1004.59 258.16ZM1010.13 258H1012.05V253.19C1012.05 252.151 1012.84 251.416 1013.9 251.416C1014.22 251.416 1014.63 251.475 1014.79 251.528V249.754C1014.62 249.722 1014.31 249.701 1014.1 249.701C1013.16 249.701 1012.38 250.234 1012.08 251.182H1012V249.818H1010.13V258ZM1016.52 258H1018.45V249.818H1016.52V258ZM1017.49 248.657C1018.11 248.657 1018.61 248.188 1018.61 247.613C1018.61 247.032 1018.11 246.564 1017.49 246.564C1016.87 246.564 1016.37 247.032 1016.37 247.613C1016.37 248.188 1016.87 248.657 1017.49 248.657ZM1020.88 261.068H1022.81V256.711H1022.89C1023.2 257.308 1023.83 258.144 1025.24 258.144C1027.16 258.144 1028.61 256.615 1028.61 253.92C1028.61 251.192 1027.12 249.712 1025.23 249.712C1023.79 249.712 1023.19 250.58 1022.89 251.171H1022.78V249.818H1020.88V261.068ZM1022.78 253.909C1022.78 252.322 1023.46 251.294 1024.7 251.294C1025.98 251.294 1026.64 252.386 1026.64 253.909C1026.64 255.443 1025.97 256.562 1024.7 256.562C1023.47 256.562 1022.78 255.496 1022.78 253.909ZM1034.8 249.818H1033.18V247.858H1031.25V249.818H1030.09V251.31H1031.25V255.859C1031.24 257.398 1032.36 258.154 1033.81 258.112C1034.36 258.096 1034.74 257.989 1034.94 257.92L1034.62 256.413C1034.51 256.439 1034.29 256.487 1034.05 256.487C1033.57 256.487 1033.18 256.317 1033.18 255.539V251.31H1034.8V249.818ZM1036.86 258H1038.79V249.818H1036.86V258ZM1037.83 248.657C1038.44 248.657 1038.94 248.188 1038.94 247.613C1038.94 247.032 1038.44 246.564 1037.83 246.564C1037.21 246.564 1036.71 247.032 1036.71 247.613C1036.71 248.188 1037.21 248.657 1037.83 248.657ZM1044.79 258.16C1047.18 258.16 1048.71 256.471 1048.71 253.941C1048.71 251.406 1047.18 249.712 1044.79 249.712C1042.39 249.712 1040.87 251.406 1040.87 253.941C1040.87 256.471 1042.39 258.16 1044.79 258.16ZM1044.8 256.615C1043.47 256.615 1042.82 255.433 1042.82 253.936C1042.82 252.439 1043.47 251.24 1044.8 251.24C1046.1 251.24 1046.75 252.439 1046.75 253.936C1046.75 255.433 1046.1 256.615 1044.8 256.615ZM1052.72 253.206C1052.72 252.023 1053.44 251.342 1054.45 251.342C1055.45 251.342 1056.05 251.997 1056.05 253.089V258H1057.98V252.79C1057.98 250.83 1056.86 249.712 1055.17 249.712C1053.95 249.712 1053.11 250.298 1052.73 251.208H1052.64V249.818H1050.79V258H1052.72V253.206Z" fill="#6048E5"/>
<path d="M922.039 274.5H923.402V273.461C923.402 272.657 923.754 271.98 924.185 271.347L923.397 270.782C922.582 271.437 922.039 272.572 922.039 273.477V274.5ZM924.755 274.5H926.119V273.461C926.119 272.657 926.47 271.98 926.902 271.347L926.114 270.782C925.299 271.437 924.755 272.572 924.755 273.477V274.5ZM928.399 271.091V282H929.965V274.1H930.066L933.283 281.984H934.583L937.8 274.106H937.902V282H939.468V271.091H937.47L933.997 279.571H933.869L930.396 271.091H928.399ZM942.74 285.068C944.055 285.068 944.886 284.381 945.36 283.092L948.743 273.834L947.022 273.818L944.95 280.168H944.865L942.793 273.818H941.088L944.082 282.107L943.885 282.65C943.48 283.737 942.91 283.827 942.036 283.587L941.653 284.892C941.845 284.978 942.26 285.068 942.74 285.068ZM955.987 282H957.606L959.268 276.093H959.391L961.053 282H962.677L965.08 273.818H963.434L961.841 279.8H961.761L960.163 273.818H958.517L956.909 279.827H956.829L955.225 273.818H953.579L955.987 282ZM969.789 282.165C972.095 282.165 973.602 280.477 973.602 277.946C973.602 275.4 972.095 273.712 969.789 273.712C967.482 273.712 965.975 275.4 965.975 277.946C965.975 280.477 967.482 282.165 969.789 282.165ZM969.794 280.828C968.286 280.828 967.583 279.512 967.583 277.941C967.583 276.375 968.286 275.043 969.794 275.043C971.291 275.043 971.994 276.375 971.994 277.941C971.994 279.512 971.291 280.828 969.794 280.828ZM975.38 282H976.973V277.004C976.973 275.933 977.799 275.161 978.928 275.161C979.258 275.161 979.631 275.219 979.759 275.256V273.733C979.599 273.712 979.285 273.696 979.082 273.696C978.123 273.696 977.303 274.239 977.005 275.118H976.92V273.818H975.38V282ZM981.137 282H982.73V279.097L983.523 278.303L986.304 282H988.259L984.722 277.328L988.035 273.818H986.128L982.868 277.281H982.73V271.091H981.137V282ZM989.487 282H991.079V273.818H989.487V282ZM990.291 272.556C990.84 272.556 991.298 272.13 991.298 271.608C991.298 271.086 990.84 270.654 990.291 270.654C989.737 270.654 989.284 271.086 989.284 271.608C989.284 272.13 989.737 272.556 990.291 272.556ZM994.815 277.142C994.815 275.837 995.614 275.091 996.722 275.091C997.803 275.091 998.458 275.8 998.458 276.988V282H1000.05V276.796C1000.05 274.772 998.938 273.712 997.265 273.712C996.035 273.712 995.23 274.282 994.852 275.15H994.751V273.818H993.222V282H994.815V277.142ZM1005.62 285.239C1007.7 285.239 1009.31 284.285 1009.31 282.181V273.818H1007.75V275.145H1007.63C1007.35 274.638 1006.78 273.712 1005.26 273.712C1003.28 273.712 1001.83 275.272 1001.83 277.877C1001.83 280.487 1003.32 281.877 1005.25 281.877C1006.75 281.877 1007.33 281.031 1007.62 280.509H1007.72V282.117C1007.72 283.401 1006.84 283.955 1005.63 283.955C1004.31 283.955 1003.79 283.289 1003.51 282.82L1002.14 283.385C1002.57 284.386 1003.66 285.239 1005.62 285.239ZM1005.6 280.556C1004.18 280.556 1003.44 279.464 1003.44 277.856C1003.44 276.284 1004.16 275.065 1005.6 275.065C1006.99 275.065 1007.74 276.199 1007.74 277.856C1007.74 279.544 1006.98 280.556 1005.6 280.556ZM1017.01 277.142C1017.01 275.837 1017.83 275.091 1018.97 275.091C1020.06 275.091 1020.72 275.789 1020.72 276.988V282H1022.31V276.796C1022.31 274.756 1021.19 273.712 1019.51 273.712C1018.24 273.712 1017.47 274.266 1017.09 275.15H1016.99V271.091H1015.41V282H1017.01V277.142ZM1027.88 282.165C1030.19 282.165 1031.7 280.477 1031.7 277.946C1031.7 275.4 1030.19 273.712 1027.88 273.712C1025.58 273.712 1024.07 275.4 1024.07 277.946C1024.07 280.477 1025.58 282.165 1027.88 282.165ZM1027.89 280.828C1026.38 280.828 1025.68 279.512 1025.68 277.941C1025.68 276.375 1026.38 275.043 1027.89 275.043C1029.39 275.043 1030.09 276.375 1030.09 277.941C1030.09 279.512 1029.39 280.828 1027.89 280.828ZM1038.66 278.607C1038.66 279.997 1037.63 280.658 1036.74 280.658C1035.75 280.658 1035.07 279.944 1035.07 278.831V273.818H1033.48V279.022C1033.48 281.052 1034.59 282.107 1036.16 282.107C1037.39 282.107 1038.23 281.457 1038.61 280.583H1038.69V282H1040.26V273.818H1038.66V278.607ZM1042.4 282H1043.99V277.004C1043.99 275.933 1044.82 275.161 1045.94 275.161C1046.27 275.161 1046.65 275.219 1046.78 275.256V273.733C1046.62 273.712 1046.3 273.696 1046.1 273.696C1045.14 273.696 1044.32 274.239 1044.02 275.118H1043.94V273.818H1042.4V282ZM1054.28 275.816C1053.95 274.543 1052.96 273.712 1051.19 273.712C1049.34 273.712 1048.03 274.686 1048.03 276.135C1048.03 277.297 1048.73 278.069 1050.27 278.41L1051.65 278.713C1052.44 278.889 1052.81 279.241 1052.81 279.752C1052.81 280.386 1052.13 280.881 1051.09 280.881C1050.14 280.881 1049.52 280.471 1049.33 279.667L1047.79 279.901C1048.06 281.35 1049.26 282.165 1051.1 282.165C1053.08 282.165 1054.44 281.116 1054.44 279.635C1054.44 278.479 1053.71 277.765 1052.21 277.419L1050.91 277.121C1050.01 276.908 1049.62 276.604 1049.62 276.05C1049.62 275.422 1050.3 274.974 1051.21 274.974C1052.2 274.974 1052.65 275.523 1052.84 276.071L1054.28 275.816ZM1057.25 282.101C1057.83 282.101 1058.31 281.627 1058.31 281.036C1058.31 280.455 1057.83 279.976 1057.25 279.976C1056.66 279.976 1056.18 280.455 1056.18 281.036C1056.18 281.627 1056.66 282.101 1057.25 282.101ZM1061.49 282.101C1062.07 282.101 1062.56 281.627 1062.56 281.036C1062.56 280.455 1062.07 279.976 1061.49 279.976C1060.91 279.976 1060.43 280.455 1060.43 281.036C1060.43 281.627 1060.91 282.101 1061.49 282.101ZM1065.74 282.101C1066.32 282.101 1066.81 281.627 1066.81 281.036C1066.81 280.455 1066.32 279.976 1065.74 279.976C1065.16 279.976 1064.68 280.455 1064.68 281.036C1064.68 281.627 1065.16 282.101 1065.74 282.101ZM1069.24 271.091H1067.88V272.13C1067.88 272.955 1067.51 273.632 1067.1 274.244L1067.89 274.809C1068.71 274.148 1069.24 273.019 1069.24 272.114V271.091ZM1071.95 271.091H1070.59V272.13C1070.59 272.955 1070.22 273.632 1069.81 274.244L1070.6 274.809C1071.42 274.148 1071.95 273.019 1071.95 272.114V271.091Z" fill="#64778C"/>
<line x1="719.5" y1="329" x2="719.5" y2="399" stroke="url(#paint10_linear_1363_17102)"/>
<circle opacity="0.05" cx="719" cy="280" r="88.5" stroke="#6048E5"/>
<circle opacity="0.3" cx="719" cy="280" r="15" stroke="#6048E5" stroke-width="2"/>
<circle cx="719" cy="280" r="9" fill="url(#paint11_linear_1363_17102)"/>
<path d="M688.453 316H690.429V312.314H692.517C695.037 312.314 696.39 310.801 696.39 308.702C696.39 306.62 695.053 305.091 692.544 305.091H688.453V316ZM690.429 310.689V306.742H692.24C693.721 306.742 694.376 307.541 694.376 308.702C694.376 309.864 693.721 310.689 692.251 310.689H690.429ZM698.556 316H705.694V314.343H700.532V311.366H705.284V309.709H700.532V306.748H705.651V305.091H698.556V316ZM708.118 316H710.094V312.005H712.107L714.249 316H716.454L714.094 311.675C715.378 311.158 716.054 310.061 716.054 308.58C716.054 306.497 714.712 305.091 712.209 305.091H708.118V316ZM710.094 310.364V306.742H711.905C713.38 306.742 714.041 307.419 714.041 308.58C714.041 309.741 713.38 310.364 711.916 310.364H710.094ZM724.252 308.09H726.154C726.116 306.247 724.545 304.942 722.223 304.942C719.932 304.942 718.212 306.231 718.217 308.159C718.217 309.725 719.33 310.625 721.125 311.089L722.366 311.408C723.544 311.707 724.321 312.074 724.327 312.921C724.321 313.853 723.437 314.477 722.148 314.477C720.912 314.477 719.953 313.923 719.874 312.777H717.929C718.009 314.945 719.623 316.165 722.164 316.165C724.779 316.165 726.298 314.86 726.303 312.937C726.298 311.046 724.737 310.183 723.096 309.794L722.073 309.539C721.179 309.326 720.209 308.947 720.22 308.037C720.225 307.216 720.96 306.614 722.196 306.614C723.373 306.614 724.151 307.163 724.252 308.09ZM738.263 310.545C738.263 307.019 736.111 304.942 733.25 304.942C730.384 304.942 728.238 307.019 728.238 310.545C728.238 314.066 730.384 316.149 733.25 316.149C736.111 316.149 738.263 314.072 738.263 310.545ZM736.276 310.545C736.276 313.028 735.029 314.375 733.25 314.375C731.476 314.375 730.225 313.028 730.225 310.545C730.225 308.063 731.476 306.716 733.25 306.716C735.029 306.716 736.276 308.063 736.276 310.545ZM749.546 305.091H747.58V312.527H747.484L742.349 305.091H740.581V316H742.557V308.569H742.648L747.788 316H749.546V305.091Z" fill="#6048E5"/>
<rect x="-2" y="115" width="111" height="51" fill="white"/>
<defs>
<linearGradient id="paint0_linear_1363_17102" x1="925" y1="140" x2="925" y2="156" gradientUnits="userSpaceOnUse">
<stop stop-color="#7963F5"/>
<stop offset="1" stop-color="#5D46DB"/>
</linearGradient>
<linearGradient id="paint1_linear_1363_17102" x1="585" y1="128" x2="585" y2="144" gradientUnits="userSpaceOnUse">
<stop stop-color="#7963F5"/>
<stop offset="1" stop-color="#5D46DB"/>
</linearGradient>
<linearGradient id="paint2_linear_1363_17102" x1="529" y1="242" x2="529" y2="258" gradientUnits="userSpaceOnUse">
<stop stop-color="#7963F5"/>
<stop offset="1" stop-color="#5D46DB"/>
</linearGradient>
<linearGradient id="paint3_linear_1363_17102" x1="722" y1="265.001" x2="794.351" y2="263.411" gradientUnits="userSpaceOnUse">
<stop stop-color="#BDB4FE"/>
<stop offset="1" stop-color="#BDB4FE" stop-opacity="0"/>
</linearGradient>
<linearGradient id="paint4_linear_1363_17102" x1="735" y1="278" x2="882.329" y2="229.361" gradientUnits="userSpaceOnUse">
<stop stop-color="#BDB4FE"/>
<stop offset="1" stop-color="#BDB4FE" stop-opacity="0"/>
</linearGradient>
<linearGradient id="paint5_linear_1363_17102" x1="732" y1="272.001" x2="918.176" y2="258.392" gradientUnits="userSpaceOnUse">
<stop stop-color="#BDB4FE"/>
<stop offset="1" stop-color="#BDB4FE" stop-opacity="0"/>
</linearGradient>
<linearGradient id="paint6_linear_1363_17102" x1="703" y1="276" x2="537.06" y2="220.431" gradientUnits="userSpaceOnUse">
<stop stop-color="#BDB4FE"/>
<stop offset="1" stop-color="#BDB4FE" stop-opacity="0"/>
</linearGradient>
<linearGradient id="paint7_linear_1363_17102" x1="710" y1="267.001" x2="585.141" y2="261.239" gradientUnits="userSpaceOnUse">
<stop stop-color="#BDB4FE"/>
<stop offset="1" stop-color="#BDB4FE" stop-opacity="0"/>
</linearGradient>
<linearGradient id="paint8_linear_1363_17102" x1="796" y1="92" x2="796" y2="108" gradientUnits="userSpaceOnUse">
<stop stop-color="#7963F5"/>
<stop offset="1" stop-color="#5D46DB"/>
</linearGradient>
<linearGradient id="paint9_linear_1363_17102" x1="905" y1="245" x2="905" y2="261" gradientUnits="userSpaceOnUse">
<stop stop-color="#7963F5"/>
<stop offset="1" stop-color="#5D46DB"/>
</linearGradient>
<linearGradient id="paint10_linear_1363_17102" x1="718" y1="329" x2="748.277" y2="338.522" gradientUnits="userSpaceOnUse">
<stop stop-color="#BDB4FE"/>
<stop offset="1" stop-color="#BDB4FE" stop-opacity="0"/>
</linearGradient>
<linearGradient id="paint11_linear_1363_17102" x1="719" y1="271" x2="719" y2="289" gradientUnits="userSpaceOnUse">
<stop stop-color="#7963F5"/>
<stop offset="1" stop-color="#5D46DB"/>
</linearGradient>
</defs>
</svg>
