<svg width="632" height="311" viewBox="0 0 632 311" fill="none" xmlns="http://www.w3.org/2000/svg">
<circle cx="484" cy="60" r="8" fill="url(#paint0_linear_1363_17099)"/>
<path d="M504.818 65.1598C506.725 65.1598 508.036 64.2276 508.377 62.8054L506.576 62.603C506.315 63.2955 505.676 63.6577 504.845 63.6577C503.599 63.6577 502.773 62.8374 502.757 61.4364H508.457V60.8452C508.457 57.9741 506.731 56.7116 504.717 56.7116C502.373 56.7116 500.845 58.4322 500.845 60.957C500.845 63.5245 502.352 65.1598 504.818 65.1598ZM502.762 60.1367C502.821 59.0927 503.593 58.2138 504.744 58.2138C505.852 58.2138 506.598 59.0234 506.608 60.1367H502.762ZM510.538 65H512.466V60.0249C512.466 59.0181 513.137 58.3363 513.968 58.3363C514.783 58.3363 515.343 58.8849 515.343 59.7266V65H517.234V59.897C517.234 58.9755 517.782 58.3363 518.714 58.3363C519.492 58.3363 520.11 58.7944 520.11 59.8065V65H522.044V59.5082C522.044 57.6811 520.989 56.7116 519.487 56.7116C518.299 56.7116 517.393 57.2976 517.031 58.2085H516.946C516.632 57.2816 515.838 56.7116 514.735 56.7116C513.638 56.7116 512.818 57.2763 512.477 58.2085H512.381V56.8182H510.538V65ZM526.804 65.1651C528.088 65.1651 528.855 64.5632 529.206 63.8761H529.27V65H531.124V59.5241C531.124 57.3615 529.361 56.7116 527.8 56.7116C526.08 56.7116 524.759 57.4787 524.333 58.9702L526.133 59.2259C526.325 58.6665 526.868 58.1871 527.811 58.1871C528.706 58.1871 529.196 58.6452 529.196 59.4496V59.4815C529.196 60.0355 528.615 60.0621 527.172 60.2166C525.584 60.3871 524.066 60.8612 524.066 62.7042C524.066 64.3129 525.243 65.1651 526.804 65.1651ZM527.305 63.7482C526.501 63.7482 525.925 63.3807 525.925 62.6722C525.925 61.9318 526.57 61.6229 527.433 61.5004C527.939 61.4311 528.951 61.3033 529.201 61.1009V62.065C529.201 62.9759 528.466 63.7482 527.305 63.7482ZM533.513 65H535.441V56.8182H533.513V65ZM534.482 55.657C535.095 55.657 535.596 55.1882 535.596 54.6129C535.596 54.0323 535.095 53.5636 534.482 53.5636C533.865 53.5636 533.364 54.0323 533.364 54.6129C533.364 55.1882 533.865 55.657 534.482 55.657ZM539.802 54.0909H537.874V65H539.802V54.0909Z" fill="#6048E5"/>
<path d="M501.347 85H502.833V80.2919C502.833 79.2628 503.554 78.5469 504.4 78.5469C505.225 78.5469 505.797 79.0938 505.797 79.924V85H507.278V80.1328C507.278 79.2131 507.84 78.5469 508.809 78.5469C509.595 78.5469 510.241 78.9844 510.241 80.0185V85H511.728V79.8793C511.728 78.1342 510.753 77.2642 509.371 77.2642C508.272 77.2642 507.447 77.7912 507.079 78.6065H507C506.667 77.7713 505.966 77.2642 504.946 77.2642C503.937 77.2642 503.186 77.7663 502.868 78.6065H502.774V77.3636H501.347V85ZM515.942 85.169C517.205 85.169 517.916 84.5277 518.199 83.956H518.259V85H519.711V79.929C519.711 77.7067 517.961 77.2642 516.748 77.2642C515.366 77.2642 514.093 77.821 513.596 79.2131L514.993 79.5312C515.211 78.9893 515.768 78.4673 516.768 78.4673C517.727 78.4673 518.219 78.9695 518.219 79.8345V79.8693C518.219 80.4112 517.662 80.4013 516.29 80.5604C514.844 80.7294 513.362 81.1072 513.362 82.8423C513.362 84.3438 514.491 85.169 515.942 85.169ZM516.265 83.9759C515.425 83.9759 514.819 83.598 514.819 82.8622C514.819 82.0668 515.525 81.7834 516.385 81.669C516.867 81.6044 518.01 81.4751 518.224 81.2614V82.2457C518.224 83.1506 517.503 83.9759 516.265 83.9759ZM523.177 80.4659C523.177 79.2479 523.948 78.5518 525.007 78.5518C526.031 78.5518 526.642 79.2031 526.642 80.3217V85H528.129V80.1428C528.129 78.2386 527.085 77.2642 525.514 77.2642C524.326 77.2642 523.61 77.7812 523.252 78.6065H523.157V74.8182H521.691V85H523.177V80.4659ZM532.335 85.169C533.598 85.169 534.309 84.5277 534.592 83.956H534.652V85H536.103V79.929C536.103 77.7067 534.353 77.2642 533.14 77.2642C531.758 77.2642 530.485 77.821 529.988 79.2131L531.385 79.5312C531.604 78.9893 532.161 78.4673 533.16 78.4673C534.12 78.4673 534.612 78.9695 534.612 79.8345V79.8693C534.612 80.4112 534.055 80.4013 532.683 80.5604C531.236 80.7294 529.755 81.1072 529.755 82.8423C529.755 84.3438 530.883 85.169 532.335 85.169ZM532.658 83.9759C531.818 83.9759 531.211 83.598 531.211 82.8622C531.211 82.0668 531.917 81.7834 532.777 81.669C533.26 81.6044 534.403 81.4751 534.617 81.2614V82.2457C534.617 83.1506 533.896 83.9759 532.658 83.9759ZM539.57 80.4659C539.57 79.2479 540.316 78.5518 541.35 78.5518C542.359 78.5518 542.97 79.2131 542.97 80.3217V85H544.457V80.1428C544.457 78.2536 543.418 77.2642 541.857 77.2642C540.708 77.2642 539.958 77.7962 539.605 78.6065H539.51V77.3636H538.083V85H539.57V80.4659ZM546.45 85H547.937V77.3636H546.45V85ZM547.201 76.1854C547.713 76.1854 548.141 75.7876 548.141 75.3004C548.141 74.8132 547.713 74.4105 547.201 74.4105C546.684 74.4105 546.262 74.8132 546.262 75.3004C546.262 75.7876 546.684 76.1854 547.201 76.1854ZM556.067 87.7692C557.215 87.7692 558.543 87.456 559.159 87.1676L558.811 86.0788C558.393 86.228 557.245 86.5909 556.131 86.5909C552.786 86.5909 550.991 84.7464 550.991 81.4453C550.991 78.2834 552.766 76.2401 555.947 76.2401C558.856 76.2401 560.591 78.1094 560.586 80.6349C560.591 82.7926 560.312 83.7621 559.408 83.7621C558.896 83.7621 558.612 83.3445 558.612 82.8224V78.2088H557.389V78.7656H557.325C557.175 78.3281 556.31 77.9354 555.271 78.0597C553.835 78.2287 552.602 79.4169 552.602 81.3757C552.602 83.419 553.646 84.7862 555.321 84.8509C556.455 84.9006 557.19 84.3736 557.424 83.7869H557.484C557.603 84.5874 558.468 84.9403 559.318 84.9105C561.441 84.8707 561.844 82.7827 561.844 80.6847C561.844 77.6918 559.795 75.0866 555.997 75.0866C552.015 75.0866 549.673 77.5178 549.668 81.4354C549.673 85.4673 551.955 87.7692 556.067 87.7692ZM555.609 83.6328C554.312 83.6328 553.864 82.5192 553.859 81.3161C553.864 80.1726 554.506 79.2628 555.629 79.2628C556.847 79.2628 557.394 79.7997 557.399 81.3111C557.404 82.8622 556.902 83.6328 555.609 83.6328ZM563.486 85H564.972V77.3636H563.486V85ZM564.236 76.1854C564.748 76.1854 565.176 75.7876 565.176 75.3004C565.176 74.8132 564.748 74.4105 564.236 74.4105C563.719 74.4105 563.297 74.8132 563.297 75.3004C563.297 75.7876 563.719 76.1854 564.236 76.1854ZM568.458 80.4659C568.458 79.2479 569.204 78.5518 570.238 78.5518C571.248 78.5518 571.859 79.2131 571.859 80.3217V85H573.346V80.1428C573.346 78.2536 572.306 77.2642 570.745 77.2642C569.597 77.2642 568.846 77.7962 568.493 78.6065H568.399V77.3636H566.972V85H568.458V80.4659ZM575.458 85H576.91V83.8118H577.034C577.303 84.299 577.85 85.1491 579.242 85.1491C581.091 85.1491 582.434 83.6676 582.434 81.1967C582.434 78.7209 581.071 77.2642 579.227 77.2642C577.81 77.2642 577.298 78.1293 577.034 78.6016H576.945V74.8182H575.458V85ZM576.915 81.1818C576.915 79.5859 577.611 78.527 578.909 78.527C580.256 78.527 580.932 79.6655 580.932 81.1818C580.932 82.7131 580.236 83.8814 578.909 83.8814C577.631 83.8814 576.915 82.7876 576.915 81.1818ZM587.319 85.1541C589.472 85.1541 590.879 83.5781 590.879 81.2166C590.879 78.8402 589.472 77.2642 587.319 77.2642C585.167 77.2642 583.76 78.8402 583.76 81.2166C583.76 83.5781 585.167 85.1541 587.319 85.1541ZM587.324 83.9062C585.917 83.9062 585.261 82.6783 585.261 81.2116C585.261 79.75 585.917 78.5071 587.324 78.5071C588.721 78.5071 589.378 79.75 589.378 81.2116C589.378 82.6783 588.721 83.9062 587.324 83.9062ZM593.397 77.3636H591.767L594.113 81.1818L591.737 85H593.367L595.083 82.1463L596.803 85H598.428L596.027 81.1818L598.409 77.3636H596.783L595.083 80.3366L593.397 77.3636ZM600.914 85.0945C601.456 85.0945 601.909 84.652 601.909 84.1001C601.909 83.5582 601.456 83.1108 600.914 83.1108C600.367 83.1108 599.92 83.5582 599.92 84.1001C599.92 84.652 600.367 85.0945 600.914 85.0945ZM607.116 85.1541C608.921 85.1541 610.089 84.0703 610.253 82.5838H608.807C608.618 83.4091 607.976 83.8963 607.126 83.8963C605.868 83.8963 605.058 82.8473 605.058 81.1818C605.058 79.5462 605.883 78.517 607.126 78.517C608.071 78.517 608.648 79.1136 608.807 79.8295H610.253C610.094 78.2884 608.836 77.2642 607.101 77.2642C604.949 77.2642 603.557 78.8849 603.557 81.2166C603.557 83.5185 604.899 85.1541 607.116 85.1541ZM615.06 85.1541C617.212 85.1541 618.619 83.5781 618.619 81.2166C618.619 78.8402 617.212 77.2642 615.06 77.2642C612.907 77.2642 611.5 78.8402 611.5 81.2166C611.5 83.5781 612.907 85.1541 615.06 85.1541ZM615.065 83.9062C613.658 83.9062 613.001 82.6783 613.001 81.2116C613.001 79.75 613.658 78.5071 615.065 78.5071C616.462 78.5071 617.118 79.75 617.118 81.2116C617.118 82.6783 616.462 83.9062 615.065 83.9062ZM620.279 85H621.765V80.2919C621.765 79.2628 622.486 78.5469 623.331 78.5469C624.156 78.5469 624.728 79.0938 624.728 79.924V85H626.21V80.1328C626.21 79.2131 626.771 78.5469 627.741 78.5469C628.526 78.5469 629.173 78.9844 629.173 80.0185V85H630.659V79.8793C630.659 78.1342 629.685 77.2642 628.303 77.2642C627.204 77.2642 626.379 77.7912 626.011 78.6065H625.931C625.598 77.7713 624.897 77.2642 623.878 77.2642C622.869 77.2642 622.118 77.7663 621.8 78.6065H621.705V77.3636H620.279V85Z" fill="#64778C"/>
<a href="mailto:mahani@inbox.com">
<rect fill="black" fill-opacity="0" x="0.347656" y="-0.971591" width="131.301" height="16.9432"/>
</a>
<path d="M57.4829 44.8182H55.7837V44.1737C55.7837 43.5344 56.05 43.1776 56.7691 43.1776C57.0727 43.1776 57.3284 43.2468 57.4882 43.2947L57.8771 41.8033C57.6267 41.718 57.0781 41.5795 56.4122 41.5795C54.99 41.5795 53.8554 42.3945 53.8554 44.0458V44.8182H52.6462V46.3097H53.8554V53H55.7837V46.3097H57.4829V44.8182ZM59.443 53H61.3713V44.8182H59.443V53ZM60.4125 43.657C61.025 43.657 61.5258 43.1882 61.5258 42.6129C61.5258 42.0323 61.025 41.5636 60.4125 41.5636C59.7946 41.5636 59.2939 42.0323 59.2939 42.6129C59.2939 43.1882 59.7946 43.657 60.4125 43.657ZM63.8041 53H65.7324V48.19C65.7324 47.1513 66.5154 46.4162 67.5755 46.4162C67.9004 46.4162 68.3052 46.4748 68.4703 46.5281V44.7543C68.2946 44.7223 67.9909 44.701 67.7779 44.701C66.8404 44.701 66.0573 45.2337 65.759 46.1818H65.6738V44.8182H63.8041V53ZM76.668 46.9808C76.4017 45.5959 75.2937 44.7116 73.3761 44.7116C71.4052 44.7116 70.0629 45.6811 70.0682 47.1939C70.0629 48.3871 70.798 49.1754 72.3694 49.5004L73.765 49.7933C74.516 49.9585 74.8676 50.2621 74.8676 50.7255C74.8676 51.2848 74.2604 51.7056 73.3442 51.7056C72.4599 51.7056 71.8847 51.3221 71.7195 50.587L69.8392 50.7681C70.0789 52.2702 71.3413 53.1598 73.3495 53.1598C75.3949 53.1598 76.8385 52.0998 76.8438 50.5497C76.8385 49.3832 76.0874 48.6694 74.5427 48.3338L73.1471 48.0355C72.3161 47.8491 71.9859 47.5614 71.9912 47.0874C71.9859 46.5334 72.5984 46.1499 73.4028 46.1499C74.2923 46.1499 74.7611 46.6346 74.9102 47.1726L76.668 46.9808ZM82.9694 44.8182H81.3554V42.858H79.4272V44.8182H78.2659V46.3097H79.4272V50.8587C79.4165 52.3981 80.5351 53.1545 81.984 53.1119C82.5326 53.0959 82.9108 52.9893 83.1186 52.9201L82.7936 51.4126C82.6871 51.4393 82.4687 51.4872 82.229 51.4872C81.7443 51.4872 81.3554 51.3168 81.3554 50.5391V46.3097H82.9694V44.8182ZM94.2579 42.0909H92.2924V49.527H92.1965L87.0616 42.0909H85.2931V53H87.2693V45.5692H87.3598L92.5001 53H94.2579V42.0909ZM99.1304 53.1651C100.414 53.1651 101.181 52.5632 101.533 51.8761H101.597V53H103.45V47.5241C103.45 45.3615 101.687 44.7116 100.127 44.7116C98.406 44.7116 97.085 45.4787 96.6588 46.9702L98.4593 47.2259C98.651 46.6665 99.1943 46.1871 100.137 46.1871C101.032 46.1871 101.522 46.6452 101.522 47.4496V47.4815C101.522 48.0355 100.942 48.0621 99.498 48.2166C97.9106 48.3871 96.3925 48.8612 96.3925 50.7042C96.3925 52.3129 97.5697 53.1651 99.1304 53.1651ZM99.6311 51.7482C98.8268 51.7482 98.2515 51.3807 98.2515 50.6722C98.2515 49.9318 98.8961 49.6229 99.759 49.5004C100.265 49.4311 101.277 49.3033 101.527 49.1009V50.065C101.527 50.9759 100.792 51.7482 99.6311 51.7482ZM105.839 53H107.768V48.0249C107.768 47.0181 108.439 46.3363 109.27 46.3363C110.085 46.3363 110.644 46.8849 110.644 47.7266V53H112.535V47.897C112.535 46.9755 113.084 46.3363 114.016 46.3363C114.793 46.3363 115.411 46.7944 115.411 47.8065V53H117.345V47.5082C117.345 45.6811 116.29 44.7116 114.788 44.7116C113.6 44.7116 112.695 45.2976 112.333 46.2085H112.247C111.933 45.2816 111.139 44.7116 110.037 44.7116C108.939 44.7116 108.119 45.2763 107.778 46.2085H107.682V44.8182H105.839V53ZM123.373 53.1598C125.28 53.1598 126.591 52.2276 126.932 50.8054L125.131 50.603C124.87 51.2955 124.231 51.6577 123.4 51.6577C122.154 51.6577 121.328 50.8374 121.312 49.4364H127.012V48.8452C127.012 45.9741 125.286 44.7116 123.272 44.7116C120.928 44.7116 119.4 46.4322 119.4 48.957C119.4 51.5245 120.907 53.1598 123.373 53.1598ZM121.317 48.1367C121.376 47.0927 122.148 46.2138 123.299 46.2138C124.407 46.2138 125.152 47.0234 125.163 48.1367H121.317Z" fill="#6048E5"/>
<path d="M53.6814 66.0909V77H55.2475V69.1005H55.3487L58.566 76.984H59.8657L63.0831 69.1058H63.1843V77H64.7503V66.0909H62.7528L59.2798 74.571H59.1519L55.6789 66.0909H53.6814ZM69.3965 77.1811C70.7495 77.1811 71.5112 76.494 71.8149 75.8814H71.8788V77H73.4342V71.5668C73.4342 69.1857 71.5592 68.7116 70.2595 68.7116C68.7786 68.7116 67.415 69.3082 66.8823 70.7997L68.3791 71.1406C68.6135 70.56 69.2101 70.0007 70.2808 70.0007C71.3088 70.0007 71.8362 70.5387 71.8362 71.4656V71.5028C71.8362 72.0835 71.2396 72.0728 69.7694 72.2433C68.2193 72.4244 66.632 72.8292 66.632 74.6882C66.632 76.2969 67.8411 77.1811 69.3965 77.1811ZM69.7428 75.9027C68.8426 75.9027 68.1927 75.4979 68.1927 74.7095C68.1927 73.8572 68.9491 73.5536 69.8706 73.4311C70.3873 73.3619 71.6124 73.2234 71.8415 72.9943V74.049C71.8415 75.0185 71.0691 75.9027 69.7428 75.9027ZM75.5555 77H77.1482V72.0036C77.1482 70.9329 77.9739 70.1605 79.1031 70.1605C79.4334 70.1605 79.8062 70.2191 79.9341 70.2564V68.733C79.7743 68.7116 79.46 68.6957 79.2576 68.6957C78.2988 68.6957 77.4785 69.239 77.1802 70.1179H77.0949V68.8182H75.5555V77ZM81.3124 77H82.9051V68.8182H81.3124V77ZM82.1167 67.5558C82.6653 67.5558 83.1234 67.1296 83.1234 66.6076C83.1234 66.0856 82.6653 65.6541 82.1167 65.6541C81.5627 65.6541 81.11 66.0856 81.11 66.6076C81.11 67.1296 81.5627 67.5558 82.1167 67.5558ZM87.4288 77.1811C88.7817 77.1811 89.5435 76.494 89.8471 75.8814H89.911V77H91.4664V71.5668C91.4664 69.1857 89.5914 68.7116 88.2917 68.7116C86.8109 68.7116 85.4472 69.3082 84.9146 70.7997L86.4114 71.1406C86.6457 70.56 87.2423 70.0007 88.313 70.0007C89.341 70.0007 89.8684 70.5387 89.8684 71.4656V71.5028C89.8684 72.0835 89.2718 72.0728 87.8016 72.2433C86.2516 72.4244 84.6642 72.8292 84.6642 74.6882C84.6642 76.2969 85.8734 77.1811 87.4288 77.1811ZM87.775 75.9027C86.8748 75.9027 86.2249 75.4979 86.2249 74.7095C86.2249 73.8572 86.9813 73.5536 87.9028 73.4311C88.4195 73.3619 89.6447 73.2234 89.8737 72.9943V74.049C89.8737 75.0185 89.1013 75.9027 87.775 75.9027Z" fill="#64778C"/>
<circle cx="144" cy="48" r="8" fill="url(#paint1_linear_1363_17099)"/>
<path d="M2.98612 156.091H1.05786V167H2.98612V156.091ZM7.77339 167.165C9.05713 167.165 9.82417 166.563 10.1757 165.876H10.2397V167H12.0934V161.524C12.0934 159.362 10.3302 158.712 8.76949 158.712C7.04896 158.712 5.72794 159.479 5.3018 160.97L7.10223 161.226C7.29399 160.667 7.83731 160.187 8.78014 160.187C9.67503 160.187 10.1651 160.645 10.1651 161.45V161.482C10.1651 162.036 9.58447 162.062 8.14093 162.217C6.55358 162.387 5.03547 162.861 5.03547 164.704C5.03547 166.313 6.21267 167.165 7.77339 167.165ZM8.2741 165.748C7.46977 165.748 6.89449 165.381 6.89449 164.672C6.89449 163.932 7.53902 163.623 8.40194 163.5C8.90798 163.431 9.92005 163.303 10.1704 163.101V164.065C10.1704 164.976 9.43532 165.748 8.2741 165.748ZM20.9489 160.981C20.6826 159.596 19.5746 158.712 17.657 158.712C15.6861 158.712 14.3438 159.681 14.3491 161.194C14.3438 162.387 15.0789 163.175 16.6502 163.5L18.0458 163.793C18.7969 163.958 19.1485 164.262 19.1485 164.725C19.1485 165.285 18.5412 165.706 17.625 165.706C16.7408 165.706 16.1655 165.322 16.0004 164.587L14.1201 164.768C14.3598 166.27 15.6222 167.16 17.6304 167.16C19.6758 167.16 21.1193 166.1 21.1247 164.55C21.1193 163.383 20.3683 162.669 18.8235 162.334L17.4279 162.036C16.597 161.849 16.2667 161.561 16.272 161.087C16.2667 160.533 16.8793 160.15 17.6836 160.15C18.5732 160.15 19.0419 160.635 19.1911 161.173L20.9489 160.981ZM27.2503 158.818H25.6363V156.858H23.708V158.818H22.5468V160.31H23.708V164.859C23.6974 166.398 24.816 167.154 26.2648 167.112C26.8135 167.096 27.1917 166.989 27.3994 166.92L27.0745 165.413C26.968 165.439 26.7496 165.487 26.5099 165.487C26.0251 165.487 25.6363 165.317 25.6363 164.539V160.31H27.2503V158.818ZM38.5388 156.091H36.5732V163.527H36.4774L31.3424 156.091H29.5739V167H31.5501V159.569H31.6407L36.781 167H38.5388V156.091ZM43.4113 167.165C44.695 167.165 45.4621 166.563 45.8136 165.876H45.8775V167H47.7312V161.524C47.7312 159.362 45.9681 158.712 44.4074 158.712C42.6869 158.712 41.3658 159.479 40.9397 160.97L42.7401 161.226C42.9319 160.667 43.4752 160.187 44.418 160.187C45.3129 160.187 45.803 160.645 45.803 161.45V161.482C45.803 162.036 45.2224 162.062 43.7788 162.217C42.1915 162.387 40.6734 162.861 40.6734 164.704C40.6734 166.313 41.8506 167.165 43.4113 167.165ZM43.912 165.748C43.1077 165.748 42.5324 165.381 42.5324 164.672C42.5324 163.932 43.1769 163.623 44.0398 163.5C44.5459 163.431 45.5579 163.303 45.8083 163.101V164.065C45.8083 164.976 45.0732 165.748 43.912 165.748ZM50.1202 167H52.0484V162.025C52.0484 161.018 52.7196 160.336 53.5506 160.336C54.3655 160.336 54.9248 160.885 54.9248 161.727V167H56.8158V161.897C56.8158 160.975 57.3645 160.336 58.2967 160.336C59.0744 160.336 59.6923 160.794 59.6923 161.806V167H61.6258V161.508C61.6258 159.681 60.5712 158.712 59.069 158.712C57.8812 158.712 56.9756 159.298 56.6134 160.208H56.5282C56.2139 159.282 55.4202 158.712 54.3176 158.712C53.2203 158.712 52.4 159.276 52.0591 160.208H51.9632V158.818H50.1202V167ZM67.6542 167.16C69.5612 167.16 70.8716 166.228 71.2125 164.805L69.412 164.603C69.151 165.295 68.5118 165.658 67.6809 165.658C66.4344 165.658 65.6088 164.837 65.5928 163.436H71.2924V162.845C71.2924 159.974 69.5665 158.712 67.553 158.712C65.2093 158.712 63.6805 160.432 63.6805 162.957C63.6805 165.525 65.188 167.16 67.6542 167.16ZM65.5981 162.137C65.6567 161.093 66.4291 160.214 67.5797 160.214C68.6876 160.214 69.4334 161.023 69.444 162.137H65.5981Z" fill="#6048E5"/>
<path d="M1.5657 180.091V191H3.13175V183.1H3.23295L6.45028 190.984H7.75L10.9673 183.106H11.0685V191H12.6346V180.091H10.6371L7.16406 188.571H7.03622L3.56321 180.091H1.5657ZM17.2808 191.181C18.6338 191.181 19.3955 190.494 19.6991 189.881H19.7631V191H21.3184V185.567C21.3184 183.186 19.4434 182.712 18.1437 182.712C16.6629 182.712 15.2993 183.308 14.7666 184.8L16.2634 185.141C16.4978 184.56 17.0944 184.001 18.165 184.001C19.1931 184.001 19.7204 184.539 19.7204 185.466V185.503C19.7204 186.083 19.1238 186.073 17.6537 186.243C16.1036 186.424 14.5162 186.829 14.5162 188.688C14.5162 190.297 15.7254 191.181 17.2808 191.181ZM17.627 189.903C16.7268 189.903 16.077 189.498 16.077 188.71C16.077 187.857 16.8334 187.554 17.7549 187.431C18.2716 187.362 19.4967 187.223 19.7258 186.994V188.049C19.7258 189.018 18.9534 189.903 17.627 189.903ZM25.0325 186.142C25.0325 184.837 25.8581 184.091 26.9927 184.091C28.09 184.091 28.7452 184.789 28.7452 185.988V191H30.3379V185.796C30.3379 183.756 29.2193 182.712 27.536 182.712C26.263 182.712 25.4959 183.266 25.1124 184.15H25.0112V180.091H23.4398V191H25.0325V186.142ZM34.8443 191.181C36.1973 191.181 36.959 190.494 37.2626 189.881H37.3265V191H38.8819V185.567C38.8819 183.186 37.0069 182.712 35.7072 182.712C34.2264 182.712 32.8627 183.308 32.3301 184.8L33.8269 185.141C34.0613 184.56 34.6578 184.001 35.7285 184.001C36.7566 184.001 37.2839 184.539 37.2839 185.466V185.503C37.2839 186.083 36.6873 186.073 35.2172 186.243C33.6671 186.424 32.0797 186.829 32.0797 188.688C32.0797 190.297 33.2889 191.181 34.8443 191.181ZM35.1905 189.903C34.2903 189.903 33.6404 189.498 33.6404 188.71C33.6404 187.857 34.3968 187.554 35.3184 187.431C35.835 187.362 37.0602 187.223 37.2892 186.994V188.049C37.2892 189.018 36.5169 189.903 35.1905 189.903ZM42.596 186.142C42.596 184.837 43.395 184.091 44.5029 184.091C45.5843 184.091 46.2394 184.8 46.2394 185.988V191H47.8321V185.796C47.8321 183.772 46.7188 182.712 45.0463 182.712C43.8158 182.712 43.0115 183.282 42.6333 184.15H42.532V182.818H41.0033V191H42.596V186.142ZM49.9681 191H51.5608V182.818H49.9681V191ZM50.7725 181.556C51.3211 181.556 51.7792 181.13 51.7792 180.608C51.7792 180.086 51.3211 179.654 50.7725 179.654C50.2185 179.654 49.7657 180.086 49.7657 180.608C49.7657 181.13 50.2185 181.556 50.7725 181.556Z" fill="#64778C"/>
<circle cx="88" cy="162" r="8" fill="url(#paint2_linear_1363_17099)"/>
<path d="M351 24L281 177" stroke="url(#paint3_linear_1363_17099)"/>
<path d="M452 167L294 190" stroke="url(#paint4_linear_1363_17099)"/>
<path d="M472 65L291 184" stroke="url(#paint5_linear_1363_17099)"/>
<path d="M84 161L262 188" stroke="url(#paint6_linear_1363_17099)"/>
<path d="M148 53L269 179" stroke="url(#paint7_linear_1363_17099)"/>
<path d="M293.464 17H295.393V8.81818H293.464V17ZM294.434 7.65696C295.046 7.65696 295.547 7.18821 295.547 6.61293C295.547 6.03232 295.046 5.56357 294.434 5.56357C293.816 5.56357 293.315 6.03232 293.315 6.61293C293.315 7.18821 293.816 7.65696 294.434 7.65696ZM297.825 17H299.754V12.0249C299.754 11.0181 300.425 10.3363 301.256 10.3363C302.071 10.3363 302.63 10.8849 302.63 11.7266V17H304.521V11.897C304.521 10.9755 305.07 10.3363 306.002 10.3363C306.78 10.3363 307.398 10.7944 307.398 11.8065V17H309.331V11.5082C309.331 9.68111 308.276 8.71165 306.774 8.71165C305.586 8.71165 304.681 9.29759 304.319 10.2085H304.233C303.919 9.2816 303.126 8.71165 302.023 8.71165C300.926 8.71165 300.105 9.27628 299.764 10.2085H299.668V8.81818H297.825V17ZM314.092 17.1651C315.375 17.1651 316.143 16.5632 316.494 15.8761H316.558V17H318.412V11.5241C318.412 9.36151 316.649 8.71165 315.088 8.71165C313.367 8.71165 312.046 9.47869 311.62 10.9702L313.421 11.2259C313.612 10.6665 314.156 10.1871 315.098 10.1871C315.993 10.1871 316.483 10.6452 316.483 11.4496V11.4815C316.483 12.0355 315.903 12.0621 314.459 12.2166C312.872 12.3871 311.354 12.8612 311.354 14.7042C311.354 16.3129 312.531 17.1651 314.092 17.1651ZM314.592 15.7482C313.788 15.7482 313.213 15.3807 313.213 14.6722C313.213 13.9318 313.857 13.6229 314.72 13.5004C315.226 13.4311 316.238 13.3033 316.489 13.1009V14.065C316.489 14.9759 315.754 15.7482 314.592 15.7482ZM324.359 20.2386C326.569 20.2386 328.199 19.2266 328.199 17.1332V8.81818H326.298V10.1712H326.191C325.898 9.5799 325.286 8.71165 323.842 8.71165C321.951 8.71165 320.465 10.1925 320.465 12.8825C320.465 15.5511 321.951 16.8828 323.837 16.8828C325.238 16.8828 325.893 16.1317 326.191 15.5298H326.287V17.0799C326.287 18.2837 325.488 18.7791 324.391 18.7791C323.23 18.7791 322.718 18.2305 322.484 17.7511L320.747 18.1719C321.099 19.3171 322.276 20.2386 324.359 20.2386ZM324.375 15.37C323.102 15.37 322.431 14.3793 322.431 12.8718C322.431 11.3857 323.091 10.2937 324.375 10.2937C325.616 10.2937 326.298 11.3217 326.298 12.8718C326.298 14.4325 325.605 15.37 324.375 15.37ZM334.248 17.1598C336.155 17.1598 337.465 16.2276 337.806 14.8054L336.006 14.603C335.745 15.2955 335.105 15.6577 334.274 15.6577C333.028 15.6577 332.202 14.8374 332.186 13.4364H337.886V12.8452C337.886 9.97408 336.16 8.71165 334.147 8.71165C331.803 8.71165 330.274 10.4322 330.274 12.957C330.274 15.5245 331.782 17.1598 334.248 17.1598ZM332.192 12.1367C332.25 11.0927 333.023 10.2138 334.173 10.2138C335.281 10.2138 336.027 11.0234 336.038 12.1367H332.192Z" fill="#6048E5"/>
<path d="M211.139 36.142C211.139 34.837 211.965 34.0913 213.099 34.0913C214.196 34.0913 214.852 34.7891 214.852 35.9876V41H216.444V35.7958C216.444 33.7557 215.326 32.7116 213.642 32.7116C212.369 32.7116 211.602 33.2656 211.219 34.1499H211.118V30.0909H209.546V41H211.139V36.142ZM222.389 32.8182H220.711V30.858H219.118V32.8182H217.92V34.0966H219.118V38.9279C219.113 40.4141 220.248 41.1332 221.505 41.1065C222.011 41.1012 222.352 41.0053 222.538 40.9361L222.25 39.6204C222.144 39.6417 221.947 39.6896 221.691 39.6896C221.174 39.6896 220.711 39.5192 220.711 38.5977V34.0966H222.389V32.8182ZM227.97 32.8182H226.292V30.858H224.699V32.8182H223.501V34.0966H224.699V38.9279C224.694 40.4141 225.829 41.1332 227.086 41.1065C227.592 41.1012 227.933 41.0053 228.119 40.9361L227.831 39.6204C227.725 39.6417 227.528 39.6896 227.272 39.6896C226.756 39.6896 226.292 39.5192 226.292 38.5977V34.0966H227.97V32.8182ZM229.732 44.0682H231.324V39.7269H231.42C231.708 40.2489 232.294 41.1598 233.785 41.1598C235.767 41.1598 237.205 39.5724 237.205 36.9251C237.205 34.2724 235.746 32.7116 233.769 32.7116C232.251 32.7116 231.703 33.6385 231.42 34.1445H231.287V32.8182H229.732V44.0682ZM231.293 36.9091C231.293 35.1992 232.038 34.0646 233.429 34.0646C234.872 34.0646 235.597 35.2844 235.597 36.9091C235.597 38.5497 234.851 39.8015 233.429 39.8015C232.06 39.8015 231.293 38.6296 231.293 36.9091ZM245.121 34.8157C244.79 33.5426 243.794 32.7116 242.026 32.7116C240.177 32.7116 238.867 33.6864 238.867 35.1353C238.867 36.2965 239.57 37.0689 241.104 37.4098L242.489 37.7134C243.278 37.8892 243.645 38.2408 243.645 38.7521C243.645 39.386 242.969 39.8814 241.925 39.8814C240.971 39.8814 240.359 39.4712 240.167 38.6669L238.627 38.9013C238.894 40.3501 240.098 41.1651 241.935 41.1651C243.911 41.1651 245.28 40.1158 245.28 38.6349C245.28 37.479 244.545 36.7653 243.043 36.419L241.744 36.1207C240.843 35.9077 240.454 35.604 240.46 35.0501C240.454 34.4215 241.136 33.9741 242.042 33.9741C243.033 33.9741 243.491 34.5227 243.677 35.0714L245.121 34.8157ZM248.081 35.146C248.662 35.146 249.146 34.6719 249.146 34.0806C249.146 33.5 248.662 33.0206 248.081 33.0206C247.495 33.0206 247.016 33.5 247.016 34.0806C247.016 34.6719 247.495 35.146 248.081 35.146ZM248.081 41.1012C248.662 41.1012 249.146 40.6271 249.146 40.0359C249.146 39.4553 248.662 38.9759 248.081 38.9759C247.495 38.9759 247.016 39.4553 247.016 40.0359C247.016 40.6271 247.495 41.1012 248.081 41.1012ZM255.434 29.5795H254.012L250.497 42.6406H251.919L255.434 29.5795ZM260.942 29.5795H259.52L256.004 42.6406H257.427L260.942 29.5795ZM262.295 44.0682H263.888V39.7269H263.984C264.271 40.2489 264.857 41.1598 266.349 41.1598C268.33 41.1598 269.769 39.5724 269.769 36.9251C269.769 34.2724 268.309 32.7116 266.333 32.7116C264.815 32.7116 264.266 33.6385 263.984 34.1445H263.851V32.8182H262.295V44.0682ZM263.856 36.9091C263.856 35.1992 264.602 34.0646 265.992 34.0646C267.436 34.0646 268.16 35.2844 268.16 36.9091C268.16 38.5497 267.414 39.8015 265.992 39.8015C264.623 39.8015 263.856 38.6296 263.856 36.9091ZM271.553 41H273.146V36.0036C273.146 34.9329 273.971 34.1605 275.101 34.1605C275.431 34.1605 275.804 34.2191 275.932 34.2564V32.733C275.772 32.7116 275.458 32.6957 275.255 32.6957C274.296 32.6957 273.476 33.239 273.178 34.1179H273.093V32.8182H271.553V41ZM280.463 41.1651C282.77 41.1651 284.277 39.4766 284.277 36.9464C284.277 34.4002 282.77 32.7116 280.463 32.7116C278.157 32.7116 276.649 34.4002 276.649 36.9464C276.649 39.4766 278.157 41.1651 280.463 41.1651ZM280.469 39.8281C278.961 39.8281 278.258 38.5124 278.258 36.9411C278.258 35.375 278.961 34.0433 280.469 34.0433C281.965 34.0433 282.669 35.375 282.669 36.9411C282.669 38.5124 281.965 39.8281 280.469 39.8281ZM289.949 32.8182H288.186V32.0831C288.186 31.3587 288.484 30.9645 289.262 30.9645C289.592 30.9645 289.826 31.0391 289.975 31.087L290.348 29.7979C290.125 29.7127 289.661 29.5795 289.017 29.5795C287.722 29.5795 286.588 30.3359 286.588 31.87V32.8182H285.325V34.0966H286.588V41H288.186V34.0966H289.949V32.8182ZM291.592 41H293.185V32.8182H291.592V41ZM292.396 31.5558C292.945 31.5558 293.403 31.1296 293.403 30.6076C293.403 30.0856 292.945 29.6541 292.396 29.6541C291.843 29.6541 291.39 30.0856 291.39 30.6076C291.39 31.1296 291.843 31.5558 292.396 31.5558ZM296.92 30.0909H295.328V41H296.92V30.0909ZM302.589 41.1651C304.374 41.1651 305.636 40.2862 305.998 38.9545L304.491 38.6829C304.203 39.4553 303.511 39.8494 302.605 39.8494C301.241 39.8494 300.325 38.9652 300.283 37.3885H306.099V36.8239C306.099 33.8675 304.331 32.7116 302.477 32.7116C300.197 32.7116 298.695 34.4482 298.695 36.9624C298.695 39.5032 300.176 41.1651 302.589 41.1651ZM300.288 36.1953C300.352 35.0341 301.194 34.0273 302.488 34.0273C303.724 34.0273 304.533 34.9435 304.539 36.1953H300.288ZM308.916 41.1012C309.497 41.1012 309.981 40.6271 309.981 40.0359C309.981 39.4553 309.497 38.9759 308.916 38.9759C308.33 38.9759 307.851 39.4553 307.851 40.0359C307.851 40.6271 308.33 41.1012 308.916 41.1012ZM312.115 44.0682H313.707V39.7269H313.803C314.091 40.2489 314.677 41.1598 316.168 41.1598C318.15 41.1598 319.588 39.5724 319.588 36.9251C319.588 34.2724 318.128 32.7116 316.152 32.7116C314.634 32.7116 314.085 33.6385 313.803 34.1445H313.67V32.8182H312.115V44.0682ZM313.675 36.9091C313.675 35.1992 314.421 34.0646 315.811 34.0646C317.255 34.0646 317.979 35.2844 317.979 36.9091C317.979 38.5497 317.234 39.8015 315.811 39.8015C314.442 39.8015 313.675 38.6296 313.675 36.9091ZM322.965 36.142C322.965 34.837 323.764 34.0913 324.872 34.0913C325.953 34.0913 326.609 34.7997 326.609 35.9876V41H328.201V35.7958C328.201 33.7717 327.088 32.7116 325.415 32.7116C324.185 32.7116 323.381 33.2816 323.002 34.1499H322.901V32.8182H321.372V41H322.965V36.142ZM333.768 44.2386C335.85 44.2386 337.459 43.2852 337.459 41.1811V32.8182H335.898V34.1445H335.781C335.499 33.6385 334.934 32.7116 333.411 32.7116C331.435 32.7116 329.98 34.2724 329.98 36.8771C329.98 39.4872 331.467 40.8775 333.4 40.8775C334.902 40.8775 335.483 40.0305 335.771 39.5085H335.872V41.1172C335.872 42.4009 334.993 42.9549 333.784 42.9549C332.457 42.9549 331.941 42.2891 331.658 41.8203L330.289 42.3849C330.721 43.3864 331.813 44.2386 333.768 44.2386ZM333.752 39.5565C332.329 39.5565 331.589 38.4645 331.589 36.8558C331.589 35.2844 332.313 34.0646 333.752 34.0646C335.142 34.0646 335.888 35.1992 335.888 36.8558C335.888 38.5444 335.126 39.5565 333.752 39.5565Z" fill="#64778C"/>
<circle cx="355" cy="12" r="8" fill="url(#paint8_linear_1363_17099)"/>
<circle cx="464" cy="165" r="8" fill="url(#paint9_linear_1363_17099)"/>
<path d="M481.046 173.068H482.974V168.711H483.054C483.358 169.308 483.992 170.144 485.398 170.144C487.326 170.144 488.77 168.615 488.77 165.92C488.77 163.192 487.284 161.712 485.393 161.712C483.949 161.712 483.347 162.58 483.054 163.171H482.942V161.818H481.046V173.068ZM482.937 165.909C482.937 164.322 483.619 163.294 484.86 163.294C486.144 163.294 486.804 164.386 486.804 165.909C486.804 167.443 486.133 168.562 484.86 168.562C483.63 168.562 482.937 167.496 482.937 165.909ZM490.871 170H492.799V165.19C492.799 164.151 493.582 163.416 494.642 163.416C494.967 163.416 495.372 163.475 495.537 163.528V161.754C495.362 161.722 495.058 161.701 494.845 161.701C493.907 161.701 493.124 162.234 492.826 163.182H492.741V161.818H490.871V170ZM500.5 170.16C502.897 170.16 504.421 168.471 504.421 165.941C504.421 163.406 502.897 161.712 500.5 161.712C498.103 161.712 496.58 163.406 496.58 165.941C496.58 168.471 498.103 170.16 500.5 170.16ZM500.511 168.615C499.185 168.615 498.535 167.433 498.535 165.936C498.535 164.439 499.185 163.24 500.511 163.24C501.816 163.24 502.466 164.439 502.466 165.936C502.466 167.433 501.816 168.615 500.511 168.615ZM510.652 161.818H508.952V161.174C508.952 160.534 509.219 160.178 509.938 160.178C510.241 160.178 510.497 160.247 510.657 160.295L511.046 158.803C510.795 158.718 510.247 158.58 509.581 158.58C508.159 158.58 507.024 159.395 507.024 161.046V161.818H505.815V163.31H507.024V170H508.952V163.31H510.652V161.818ZM512.612 170H514.54V161.818H512.612V170ZM513.581 160.657C514.194 160.657 514.695 160.188 514.695 159.613C514.695 159.032 514.194 158.564 513.581 158.564C512.963 158.564 512.463 159.032 512.463 159.613C512.463 160.188 512.963 160.657 513.581 160.657ZM518.901 159.091H516.973V170H518.901V159.091ZM524.956 170.16C526.863 170.16 528.174 169.228 528.514 167.805L526.714 167.603C526.453 168.295 525.814 168.658 524.983 168.658C523.736 168.658 522.911 167.837 522.895 166.436H528.594V165.845C528.594 162.974 526.868 161.712 524.855 161.712C522.511 161.712 520.982 163.432 520.982 165.957C520.982 168.525 522.49 170.16 524.956 170.16ZM522.9 165.137C522.959 164.093 523.731 163.214 524.882 163.214C525.99 163.214 526.735 164.023 526.746 165.137H522.9ZM534.458 170C537.781 170 539.752 167.944 539.752 164.535C539.752 161.136 537.781 159.091 534.532 159.091H530.761V170H534.458ZM532.737 168.29V160.801H534.42C536.636 160.801 537.792 162.037 537.792 164.535C537.792 167.044 536.636 168.29 534.362 168.29H532.737ZM545.617 170.16C547.524 170.16 548.834 169.228 549.175 167.805L547.375 167.603C547.114 168.295 546.475 168.658 545.644 168.658C544.397 168.658 543.571 167.837 543.555 166.436H549.255V165.845C549.255 162.974 547.529 161.712 545.516 161.712C543.172 161.712 541.643 163.432 541.643 165.957C541.643 168.525 543.151 170.16 545.617 170.16ZM543.561 165.137C543.619 164.093 544.392 163.214 545.542 163.214C546.65 163.214 547.396 164.023 547.407 165.137H543.561ZM557.803 163.981C557.537 162.596 556.429 161.712 554.511 161.712C552.54 161.712 551.198 162.681 551.203 164.194C551.198 165.387 551.933 166.175 553.504 166.5L554.9 166.793C555.651 166.958 556.003 167.262 556.003 167.725C556.003 168.285 555.395 168.706 554.479 168.706C553.595 168.706 553.02 168.322 552.854 167.587L550.974 167.768C551.214 169.27 552.476 170.16 554.484 170.16C556.53 170.16 557.973 169.1 557.979 167.55C557.973 166.383 557.222 165.669 555.678 165.334L554.282 165.036C553.451 164.849 553.121 164.561 553.126 164.087C553.121 163.533 553.733 163.15 554.538 163.15C555.427 163.15 555.896 163.635 556.045 164.173L557.803 163.981ZM563.588 170.16C565.644 170.16 566.954 168.94 567.093 167.203H565.25C565.084 168.082 564.451 168.588 563.604 168.588C562.4 168.588 561.622 167.582 561.622 165.909C561.622 164.258 562.416 163.267 563.604 163.267C564.531 163.267 565.1 163.864 565.25 164.652H567.093C566.959 162.878 565.575 161.712 563.577 161.712C561.18 161.712 559.667 163.443 559.667 165.941C559.667 168.418 561.143 170.16 563.588 170.16ZM569.126 170H571.054V165.19C571.054 164.151 571.837 163.416 572.897 163.416C573.222 163.416 573.627 163.475 573.792 163.528V161.754C573.616 161.722 573.313 161.701 573.1 161.701C572.162 161.701 571.379 162.234 571.081 163.182H570.996V161.818H569.126V170ZM575.523 170H577.452V161.818H575.523V170ZM576.493 160.657C577.105 160.657 577.606 160.188 577.606 159.613C577.606 159.032 577.105 158.564 576.493 158.564C575.875 158.564 575.374 159.032 575.374 159.613C575.374 160.188 575.875 160.657 576.493 160.657ZM579.884 173.068H581.813V168.711H581.893C582.196 169.308 582.83 170.144 584.236 170.144C586.165 170.144 587.608 168.615 587.608 165.92C587.608 163.192 586.122 161.712 584.231 161.712C582.787 161.712 582.186 162.58 581.893 163.171H581.781V161.818H579.884V173.068ZM581.775 165.909C581.775 164.322 582.457 163.294 583.698 163.294C584.982 163.294 585.643 164.386 585.643 165.909C585.643 167.443 584.971 168.562 583.698 168.562C582.468 168.562 581.775 167.496 581.775 165.909ZM593.795 161.818H592.181V159.858H590.253V161.818H589.092V163.31H590.253V167.859C590.242 169.398 591.361 170.154 592.81 170.112C593.358 170.096 593.736 169.989 593.944 169.92L593.619 168.413C593.513 168.439 593.294 168.487 593.055 168.487C592.57 168.487 592.181 168.317 592.181 167.539V163.31H593.795V161.818ZM595.858 170H597.786V161.818H595.858V170ZM596.827 160.657C597.44 160.657 597.94 160.188 597.94 159.613C597.94 159.032 597.44 158.564 596.827 158.564C596.209 158.564 595.709 159.032 595.709 159.613C595.709 160.188 596.209 160.657 596.827 160.657ZM603.788 170.16C606.185 170.16 607.708 168.471 607.708 165.941C607.708 163.406 606.185 161.712 603.788 161.712C601.391 161.712 599.867 163.406 599.867 165.941C599.867 168.471 601.391 170.16 603.788 170.16ZM603.798 168.615C602.472 168.615 601.822 167.433 601.822 165.936C601.822 164.439 602.472 163.24 603.798 163.24C605.103 163.24 605.753 164.439 605.753 165.936C605.753 167.433 605.103 168.615 603.798 168.615ZM611.723 165.206C611.723 164.023 612.437 163.342 613.454 163.342C614.45 163.342 615.047 163.997 615.047 165.089V170H616.975V164.79C616.98 162.83 615.862 161.712 614.173 161.712C612.948 161.712 612.107 162.298 611.734 163.208H611.638V161.818H609.795V170H611.723V165.206Z" fill="#6048E5"/>
<path d="M481.039 186.5H482.402V185.461C482.402 184.657 482.754 183.98 483.185 183.347L482.397 182.782C481.582 183.437 481.039 184.572 481.039 185.477V186.5ZM483.755 186.5H485.119V185.461C485.119 184.657 485.47 183.98 485.902 183.347L485.114 182.782C484.299 183.437 483.755 184.572 483.755 185.477V186.5ZM487.399 183.091V194H488.965V186.1H489.066L492.283 193.984H493.583L496.8 186.106H496.902V194H498.468V183.091H496.47L492.997 191.571H492.869L489.396 183.091H487.399ZM501.74 197.068C503.055 197.068 503.886 196.381 504.36 195.092L507.743 185.834L506.022 185.818L503.95 192.168H503.865L501.793 185.818H500.088L503.082 194.107L502.885 194.65C502.48 195.737 501.91 195.827 501.036 195.587L500.653 196.892C500.845 196.978 501.26 197.068 501.74 197.068ZM514.987 194H516.606L518.268 188.093H518.391L520.053 194H521.677L524.08 185.818H522.434L520.841 191.8H520.761L519.163 185.818H517.517L515.909 191.827H515.829L514.225 185.818H512.579L514.987 194ZM528.789 194.165C531.095 194.165 532.602 192.477 532.602 189.946C532.602 187.4 531.095 185.712 528.789 185.712C526.482 185.712 524.975 187.4 524.975 189.946C524.975 192.477 526.482 194.165 528.789 194.165ZM528.794 192.828C527.286 192.828 526.583 191.512 526.583 189.941C526.583 188.375 527.286 187.043 528.794 187.043C530.291 187.043 530.994 188.375 530.994 189.941C530.994 191.512 530.291 192.828 528.794 192.828ZM534.38 194H535.973V189.004C535.973 187.933 536.799 187.161 537.928 187.161C538.258 187.161 538.631 187.219 538.759 187.256V185.733C538.599 185.712 538.285 185.696 538.082 185.696C537.123 185.696 536.303 186.239 536.005 187.118H535.92V185.818H534.38V194ZM540.137 194H541.73V191.097L542.523 190.303L545.304 194H547.259L543.722 189.328L547.035 185.818H545.128L541.868 189.281H541.73V183.091H540.137V194ZM548.487 194H550.079V185.818H548.487V194ZM549.291 184.556C549.84 184.556 550.298 184.13 550.298 183.608C550.298 183.086 549.84 182.654 549.291 182.654C548.737 182.654 548.284 183.086 548.284 183.608C548.284 184.13 548.737 184.556 549.291 184.556ZM553.815 189.142C553.815 187.837 554.614 187.091 555.722 187.091C556.803 187.091 557.458 187.8 557.458 188.988V194H559.051V188.796C559.051 186.772 557.938 185.712 556.265 185.712C555.035 185.712 554.23 186.282 553.852 187.15H553.751V185.818H552.222V194H553.815V189.142ZM564.617 197.239C566.7 197.239 568.309 196.285 568.309 194.181V185.818H566.748V187.145H566.631C566.348 186.638 565.784 185.712 564.26 185.712C562.284 185.712 560.83 187.272 560.83 189.877C560.83 192.487 562.316 193.877 564.25 193.877C565.752 193.877 566.332 193.031 566.62 192.509H566.721V194.117C566.721 195.401 565.842 195.955 564.633 195.955C563.307 195.955 562.79 195.289 562.508 194.82L561.139 195.385C561.57 196.386 562.662 197.239 564.617 197.239ZM564.601 192.556C563.179 192.556 562.439 191.464 562.439 189.856C562.439 188.284 563.163 187.065 564.601 187.065C565.992 187.065 566.737 188.199 566.737 189.856C566.737 191.544 565.976 192.556 564.601 192.556ZM576.007 189.142C576.007 187.837 576.833 187.091 577.967 187.091C579.065 187.091 579.72 187.789 579.72 188.988V194H581.312V188.796C581.312 186.756 580.194 185.712 578.511 185.712C577.238 185.712 576.471 186.266 576.087 187.15H575.986V183.091H574.414V194H576.007V189.142ZM586.884 194.165C589.191 194.165 590.698 192.477 590.698 189.946C590.698 187.4 589.191 185.712 586.884 185.712C584.578 185.712 583.07 187.4 583.07 189.946C583.07 192.477 584.578 194.165 586.884 194.165ZM586.89 192.828C585.382 192.828 584.679 191.512 584.679 189.941C584.679 188.375 585.382 187.043 586.89 187.043C588.386 187.043 589.089 188.375 589.089 189.941C589.089 191.512 588.386 192.828 586.89 192.828ZM597.659 190.607C597.664 191.997 596.631 192.658 595.736 192.658C594.75 192.658 594.069 191.944 594.069 190.831V185.818H592.476V191.022C592.476 193.052 593.589 194.107 595.161 194.107C596.391 194.107 597.227 193.457 597.606 192.583H597.691V194H599.257V185.818H597.659V190.607ZM601.397 194H602.99V189.004C602.99 187.933 603.815 187.161 604.944 187.161C605.275 187.161 605.648 187.219 605.775 187.256V185.733C605.616 185.712 605.301 185.696 605.099 185.696C604.14 185.696 603.32 186.239 603.021 187.118H602.936V185.818H601.397V194ZM613.285 187.816C612.954 186.543 611.958 185.712 610.19 185.712C608.342 185.712 607.031 186.686 607.031 188.135C607.031 189.297 607.734 190.069 609.268 190.41L610.653 190.713C611.442 190.889 611.809 191.241 611.809 191.752C611.809 192.386 611.133 192.881 610.089 192.881C609.135 192.881 608.523 192.471 608.331 191.667L606.791 191.901C607.058 193.35 608.262 194.165 610.099 194.165C612.076 194.165 613.445 193.116 613.445 191.635C613.445 190.479 612.709 189.765 611.207 189.419L609.908 189.121C609.007 188.908 608.619 188.604 608.624 188.05C608.619 187.422 609.3 186.974 610.206 186.974C611.197 186.974 611.655 187.523 611.841 188.071L613.285 187.816ZM616.245 194.101C616.826 194.101 617.31 193.627 617.31 193.036C617.31 192.455 616.826 191.976 616.245 191.976C615.659 191.976 615.18 192.455 615.18 193.036C615.18 193.627 615.659 194.101 616.245 194.101ZM620.493 194.101C621.074 194.101 621.558 193.627 621.558 193.036C621.558 192.455 621.074 191.976 620.493 191.976C619.907 191.976 619.428 192.455 619.428 193.036C619.428 193.627 619.907 194.101 620.493 194.101ZM624.741 194.101C625.322 194.101 625.806 193.627 625.806 193.036C625.806 192.455 625.322 191.976 624.741 191.976C624.155 191.976 623.676 192.455 623.676 193.036C623.676 193.627 624.155 194.101 624.741 194.101ZM628.239 183.091H626.876V184.13C626.876 184.955 626.514 185.632 626.098 186.244L626.886 186.809C627.707 186.148 628.239 185.019 628.239 184.114V183.091ZM630.951 183.091H629.587V184.13C629.587 184.955 629.225 185.632 628.809 186.244L629.598 186.809C630.418 186.148 630.951 185.019 630.951 184.114V183.091Z" fill="#64778C"/>
<line x1="278.5" y1="241" x2="278.5" y2="311" stroke="url(#paint10_linear_1363_17099)"/>
<circle opacity="0.05" cx="278" cy="192" r="88.5" stroke="#6048E5"/>
<circle opacity="0.3" cx="278" cy="192" r="15" stroke="#6048E5" stroke-width="2"/>
<circle cx="278" cy="192" r="9" fill="url(#paint11_linear_1363_17099)"/>
<path d="M247.453 228H249.429V224.314H251.517C254.037 224.314 255.39 222.801 255.39 220.702C255.39 218.62 254.053 217.091 251.544 217.091H247.453V228ZM249.429 222.689V218.742H251.24C252.721 218.742 253.376 219.541 253.376 220.702C253.376 221.864 252.721 222.689 251.251 222.689H249.429ZM257.556 228H264.694V226.343H259.532V223.366H264.284V221.709H259.532V218.748H264.651V217.091H257.556V228ZM267.118 228H269.094V224.005H271.107L273.249 228H275.454L273.094 223.675C274.378 223.158 275.054 222.061 275.054 220.58C275.054 218.497 273.712 217.091 271.209 217.091H267.118V228ZM269.094 222.364V218.742H270.905C272.38 218.742 273.041 219.419 273.041 220.58C273.041 221.741 272.38 222.364 270.916 222.364H269.094ZM283.252 220.09H285.154C285.116 218.247 283.545 216.942 281.223 216.942C278.932 216.942 277.212 218.231 277.217 220.159C277.217 221.725 278.33 222.625 280.125 223.089L281.366 223.408C282.544 223.707 283.321 224.074 283.327 224.921C283.321 225.853 282.437 226.477 281.148 226.477C279.912 226.477 278.953 225.923 278.874 224.777H276.929C277.009 226.945 278.623 228.165 281.164 228.165C283.779 228.165 285.298 226.86 285.303 224.937C285.298 223.046 283.737 222.183 282.096 221.794L281.073 221.539C280.179 221.326 279.209 220.947 279.22 220.037C279.225 219.216 279.96 218.614 281.196 218.614C282.373 218.614 283.151 219.163 283.252 220.09ZM297.263 222.545C297.263 219.019 295.111 216.942 292.25 216.942C289.384 216.942 287.238 219.019 287.238 222.545C287.238 226.066 289.384 228.149 292.25 228.149C295.111 228.149 297.263 226.072 297.263 222.545ZM295.276 222.545C295.276 225.028 294.029 226.375 292.25 226.375C290.476 226.375 289.225 225.028 289.225 222.545C289.225 220.063 290.476 218.716 292.25 218.716C294.029 218.716 295.276 220.063 295.276 222.545ZM308.546 217.091H306.58V224.527H306.484L301.349 217.091H299.581V228H301.557V220.569H301.648L306.788 228H308.546V217.091Z" fill="#6048E5"/>
<defs>
<linearGradient id="paint0_linear_1363_17099" x1="484" y1="52" x2="484" y2="68" gradientUnits="userSpaceOnUse">
<stop stop-color="#7963F5"/>
<stop offset="1" stop-color="#5D46DB"/>
</linearGradient>
<linearGradient id="paint1_linear_1363_17099" x1="144" y1="40" x2="144" y2="56" gradientUnits="userSpaceOnUse">
<stop stop-color="#7963F5"/>
<stop offset="1" stop-color="#5D46DB"/>
</linearGradient>
<linearGradient id="paint2_linear_1363_17099" x1="88" y1="154" x2="88" y2="170" gradientUnits="userSpaceOnUse">
<stop stop-color="#7963F5"/>
<stop offset="1" stop-color="#5D46DB"/>
</linearGradient>
<linearGradient id="paint3_linear_1363_17099" x1="281" y1="177.001" x2="353.351" y2="175.411" gradientUnits="userSpaceOnUse">
<stop stop-color="#BDB4FE"/>
<stop offset="1" stop-color="#BDB4FE" stop-opacity="0"/>
</linearGradient>
<linearGradient id="paint4_linear_1363_17099" x1="294" y1="190" x2="441.329" y2="141.361" gradientUnits="userSpaceOnUse">
<stop stop-color="#BDB4FE"/>
<stop offset="1" stop-color="#BDB4FE" stop-opacity="0"/>
</linearGradient>
<linearGradient id="paint5_linear_1363_17099" x1="291" y1="184.001" x2="477.176" y2="170.392" gradientUnits="userSpaceOnUse">
<stop stop-color="#BDB4FE"/>
<stop offset="1" stop-color="#BDB4FE" stop-opacity="0"/>
</linearGradient>
<linearGradient id="paint6_linear_1363_17099" x1="262" y1="188" x2="96.0603" y2="132.431" gradientUnits="userSpaceOnUse">
<stop stop-color="#BDB4FE"/>
<stop offset="1" stop-color="#BDB4FE" stop-opacity="0"/>
</linearGradient>
<linearGradient id="paint7_linear_1363_17099" x1="269" y1="179.001" x2="144.141" y2="173.239" gradientUnits="userSpaceOnUse">
<stop stop-color="#BDB4FE"/>
<stop offset="1" stop-color="#BDB4FE" stop-opacity="0"/>
</linearGradient>
<linearGradient id="paint8_linear_1363_17099" x1="355" y1="4" x2="355" y2="20" gradientUnits="userSpaceOnUse">
<stop stop-color="#7963F5"/>
<stop offset="1" stop-color="#5D46DB"/>
</linearGradient>
<linearGradient id="paint9_linear_1363_17099" x1="464" y1="157" x2="464" y2="173" gradientUnits="userSpaceOnUse">
<stop stop-color="#7963F5"/>
<stop offset="1" stop-color="#5D46DB"/>
</linearGradient>
<linearGradient id="paint10_linear_1363_17099" x1="277" y1="241" x2="307.277" y2="250.522" gradientUnits="userSpaceOnUse">
<stop stop-color="#BDB4FE"/>
<stop offset="1" stop-color="#BDB4FE" stop-opacity="0"/>
</linearGradient>
<linearGradient id="paint11_linear_1363_17099" x1="278" y1="183" x2="278" y2="201" gradientUnits="userSpaceOnUse">
<stop stop-color="#7963F5"/>
<stop offset="1" stop-color="#5D46DB"/>
</linearGradient>
</defs>
</svg>
