<svg width="1439" height="374" viewBox="0 0 1439 374" fill="none" xmlns="http://www.w3.org/2000/svg">
<circle cx="1311" cy="188" r="7" stroke="#C5D1DB" stroke-width="2"/>
<path d="M1331.82 193.16C1333.73 193.16 1335.04 192.228 1335.38 190.805L1333.58 190.603C1333.32 191.295 1332.68 191.658 1331.85 191.658C1330.6 191.658 1329.77 190.837 1329.76 189.436H1335.46V188.845C1335.46 185.974 1333.73 184.712 1331.72 184.712C1329.37 184.712 1327.84 186.432 1327.84 188.957C1327.84 191.525 1329.35 193.16 1331.82 193.16ZM1329.76 188.137C1329.82 187.093 1330.59 186.214 1331.74 186.214C1332.85 186.214 1333.6 187.023 1333.61 188.137H1329.76ZM1337.54 193H1339.47V188.025C1339.47 187.018 1340.14 186.336 1340.97 186.336C1341.78 186.336 1342.34 186.885 1342.34 187.727V193H1344.23V187.897C1344.23 186.975 1344.78 186.336 1345.71 186.336C1346.49 186.336 1347.11 186.794 1347.11 187.806V193H1349.04V187.508C1349.04 185.681 1347.99 184.712 1346.49 184.712C1345.3 184.712 1344.39 185.298 1344.03 186.208H1343.95C1343.63 185.282 1342.84 184.712 1341.74 184.712C1340.64 184.712 1339.82 185.276 1339.48 186.208H1339.38V184.818H1337.54V193ZM1353.8 193.165C1355.09 193.165 1355.85 192.563 1356.21 191.876H1356.27V193H1358.12V187.524C1358.12 185.362 1356.36 184.712 1354.8 184.712C1353.08 184.712 1351.76 185.479 1351.33 186.97L1353.13 187.226C1353.32 186.667 1353.87 186.187 1354.81 186.187C1355.71 186.187 1356.2 186.645 1356.2 187.45V187.482C1356.2 188.036 1355.62 188.062 1354.17 188.217C1352.58 188.387 1351.07 188.861 1351.07 190.704C1351.07 192.313 1352.24 193.165 1353.8 193.165ZM1354.3 191.748C1353.5 191.748 1352.93 191.381 1352.93 190.672C1352.93 189.932 1353.57 189.623 1354.43 189.5C1354.94 189.431 1355.95 189.303 1356.2 189.101V190.065C1356.2 190.976 1355.47 191.748 1354.3 191.748ZM1360.51 193H1362.44V184.818H1360.51V193ZM1361.48 183.657C1362.1 183.657 1362.6 183.188 1362.6 182.613C1362.6 182.032 1362.1 181.564 1361.48 181.564C1360.86 181.564 1360.36 182.032 1360.36 182.613C1360.36 183.188 1360.86 183.657 1361.48 183.657ZM1366.8 182.091H1364.87V193H1366.8V182.091Z" fill="#C5D1DB"/>
<path d="M1328.35 213H1329.83V208.292C1329.83 207.263 1330.55 206.547 1331.4 206.547C1332.22 206.547 1332.8 207.094 1332.8 207.924V213H1334.28V208.133C1334.28 207.213 1334.84 206.547 1335.81 206.547C1336.59 206.547 1337.24 206.984 1337.24 208.018V213H1338.73V207.879C1338.73 206.134 1337.75 205.264 1336.37 205.264C1335.27 205.264 1334.45 205.791 1334.08 206.607H1334C1333.67 205.771 1332.97 205.264 1331.95 205.264C1330.94 205.264 1330.19 205.766 1329.87 206.607H1329.77V205.364H1328.35V213ZM1342.94 213.169C1344.21 213.169 1344.92 212.528 1345.2 211.956H1345.26V213H1346.71V207.929C1346.71 205.707 1344.96 205.264 1343.75 205.264C1342.37 205.264 1341.09 205.821 1340.6 207.213L1341.99 207.531C1342.21 206.989 1342.77 206.467 1343.77 206.467C1344.73 206.467 1345.22 206.969 1345.22 207.835V207.869C1345.22 208.411 1344.66 208.401 1343.29 208.56C1341.84 208.729 1340.36 209.107 1340.36 210.842C1340.36 212.344 1341.49 213.169 1342.94 213.169ZM1343.27 211.976C1342.43 211.976 1341.82 211.598 1341.82 210.862C1341.82 210.067 1342.52 209.783 1343.38 209.669C1343.87 209.604 1345.01 209.475 1345.22 209.261V210.246C1345.22 211.151 1344.5 211.976 1343.27 211.976ZM1350.18 208.466C1350.18 207.248 1350.95 206.552 1352.01 206.552C1353.03 206.552 1353.64 207.203 1353.64 208.322V213H1355.13V208.143C1355.13 206.239 1354.08 205.264 1352.51 205.264C1351.33 205.264 1350.61 205.781 1350.25 206.607H1350.16V202.818H1348.69V213H1350.18V208.466ZM1359.33 213.169C1360.6 213.169 1361.31 212.528 1361.59 211.956H1361.65V213H1363.1V207.929C1363.1 205.707 1361.35 205.264 1360.14 205.264C1358.76 205.264 1357.49 205.821 1356.99 207.213L1358.39 207.531C1358.6 206.989 1359.16 206.467 1360.16 206.467C1361.12 206.467 1361.61 206.969 1361.61 207.835V207.869C1361.61 208.411 1361.06 208.401 1359.68 208.56C1358.24 208.729 1356.75 209.107 1356.75 210.842C1356.75 212.344 1357.88 213.169 1359.33 213.169ZM1359.66 211.976C1358.82 211.976 1358.21 211.598 1358.21 210.862C1358.21 210.067 1358.92 209.783 1359.78 209.669C1360.26 209.604 1361.4 209.475 1361.62 209.261V210.246C1361.62 211.151 1360.9 211.976 1359.66 211.976ZM1366.57 208.466C1366.57 207.248 1367.32 206.552 1368.35 206.552C1369.36 206.552 1369.97 207.213 1369.97 208.322V213H1371.46V208.143C1371.46 206.254 1370.42 205.264 1368.86 205.264C1367.71 205.264 1366.96 205.796 1366.6 206.607H1366.51V205.364H1365.08V213H1366.57V208.466ZM1373.45 213H1374.94V205.364H1373.45V213ZM1374.2 204.185C1374.71 204.185 1375.14 203.788 1375.14 203.3C1375.14 202.813 1374.71 202.411 1374.2 202.411C1373.68 202.411 1373.26 202.813 1373.26 203.3C1373.26 203.788 1373.68 204.185 1374.2 204.185ZM1383.07 215.769C1384.22 215.769 1385.54 215.456 1386.16 215.168L1385.81 214.079C1385.39 214.228 1384.25 214.591 1383.13 214.591C1379.79 214.591 1377.99 212.746 1377.99 209.445C1377.99 206.283 1379.77 204.24 1382.95 204.24C1385.86 204.24 1387.59 206.109 1387.59 208.635C1387.59 210.793 1387.31 211.762 1386.41 211.762C1385.9 211.762 1385.61 211.344 1385.61 210.822V206.209H1384.39V206.766H1384.32C1384.18 206.328 1383.31 205.935 1382.27 206.06C1380.83 206.229 1379.6 207.417 1379.6 209.376C1379.6 211.419 1380.65 212.786 1382.32 212.851C1383.45 212.901 1384.19 212.374 1384.42 211.787H1384.48C1384.6 212.587 1385.47 212.94 1386.32 212.911C1388.44 212.871 1388.84 210.783 1388.84 208.685C1388.84 205.692 1386.8 203.087 1383 203.087C1379.01 203.087 1376.67 205.518 1376.67 209.435C1376.67 213.467 1378.96 215.769 1383.07 215.769ZM1382.61 211.633C1381.31 211.633 1380.86 210.519 1380.86 209.316C1380.86 208.173 1381.51 207.263 1382.63 207.263C1383.85 207.263 1384.39 207.8 1384.4 209.311C1384.4 210.862 1383.9 211.633 1382.61 211.633ZM1390.49 213H1391.97V205.364H1390.49V213ZM1391.24 204.185C1391.75 204.185 1392.18 203.788 1392.18 203.3C1392.18 202.813 1391.75 202.411 1391.24 202.411C1390.72 202.411 1390.3 202.813 1390.3 203.3C1390.3 203.788 1390.72 204.185 1391.24 204.185ZM1395.46 208.466C1395.46 207.248 1396.2 206.552 1397.24 206.552C1398.25 206.552 1398.86 207.213 1398.86 208.322V213H1400.35V208.143C1400.35 206.254 1399.31 205.264 1397.75 205.264C1396.6 205.264 1395.85 205.796 1395.49 206.607H1395.4V205.364H1393.97V213H1395.46V208.466ZM1402.46 213H1403.91V211.812H1404.03C1404.3 212.299 1404.85 213.149 1406.24 213.149C1408.09 213.149 1409.43 211.668 1409.43 209.197C1409.43 206.721 1408.07 205.264 1406.23 205.264C1404.81 205.264 1404.3 206.129 1404.03 206.602H1403.94V202.818H1402.46V213ZM1403.92 209.182C1403.92 207.586 1404.61 206.527 1405.91 206.527C1407.26 206.527 1407.93 207.665 1407.93 209.182C1407.93 210.713 1407.24 211.881 1405.91 211.881C1404.63 211.881 1403.92 210.788 1403.92 209.182ZM1414.32 213.154C1416.47 213.154 1417.88 211.578 1417.88 209.217C1417.88 206.84 1416.47 205.264 1414.32 205.264C1412.17 205.264 1410.76 206.84 1410.76 209.217C1410.76 211.578 1412.17 213.154 1414.32 213.154ZM1414.32 211.906C1412.92 211.906 1412.26 210.678 1412.26 209.212C1412.26 207.75 1412.92 206.507 1414.32 206.507C1415.72 206.507 1416.38 207.75 1416.38 209.212C1416.38 210.678 1415.72 211.906 1414.32 211.906ZM1420.4 205.364H1418.77L1421.11 209.182L1418.74 213H1420.37L1422.08 210.146L1423.8 213H1425.43L1423.03 209.182L1425.41 205.364H1423.78L1422.08 208.337L1420.4 205.364ZM1427.91 213.094C1428.46 213.094 1428.91 212.652 1428.91 212.1C1428.91 211.558 1428.46 211.111 1427.91 211.111C1427.37 211.111 1426.92 211.558 1426.92 212.1C1426.92 212.652 1427.37 213.094 1427.91 213.094ZM1434.12 213.154C1435.92 213.154 1437.09 212.07 1437.25 210.584H1435.81C1435.62 211.409 1434.98 211.896 1434.13 211.896C1432.87 211.896 1432.06 210.847 1432.06 209.182C1432.06 207.546 1432.88 206.517 1434.13 206.517C1435.07 206.517 1435.65 207.114 1435.81 207.83H1437.25C1437.09 206.288 1435.84 205.264 1434.1 205.264C1431.95 205.264 1430.56 206.885 1430.56 209.217C1430.56 211.518 1431.9 213.154 1434.12 213.154ZM1442.06 213.154C1444.21 213.154 1445.62 211.578 1445.62 209.217C1445.62 206.84 1444.21 205.264 1442.06 205.264C1439.91 205.264 1438.5 206.84 1438.5 209.217C1438.5 211.578 1439.91 213.154 1442.06 213.154ZM1442.06 211.906C1440.66 211.906 1440 210.678 1440 209.212C1440 207.75 1440.66 206.507 1442.06 206.507C1443.46 206.507 1444.12 207.75 1444.12 209.212C1444.12 210.678 1443.46 211.906 1442.06 211.906ZM1447.28 213H1448.77V208.292C1448.77 207.263 1449.49 206.547 1450.33 206.547C1451.16 206.547 1451.73 207.094 1451.73 207.924V213H1453.21V208.133C1453.21 207.213 1453.77 206.547 1454.74 206.547C1455.53 206.547 1456.17 206.984 1456.17 208.018V213H1457.66V207.879C1457.66 206.134 1456.68 205.264 1455.3 205.264C1454.2 205.264 1453.38 205.791 1453.01 206.607H1452.93C1452.6 205.771 1451.9 205.264 1450.88 205.264C1449.87 205.264 1449.12 205.766 1448.8 206.607H1448.71V205.364H1447.28V213Z" fill="#C5D1DB"/>
<a href="mailto:mahani@inbox.com">
<rect fill="black" fill-opacity="0" x="0.347656" y="-0.971591" width="131.301" height="16.9432"/>
</a>
<circle cx="1239" cy="48" r="7" stroke="#C5D1DB" stroke-width="2"/>
<path d="M1256.23 44.8182V53.4421C1256.23 54.1293 1255.94 54.4968 1255.19 54.4968C1255.1 54.4968 1255.02 54.4915 1254.92 54.4862V56.0575C1255.06 56.0682 1255.17 56.0682 1255.31 56.0682C1257.12 56.0682 1258.16 55.2372 1258.16 53.4688V44.8182H1256.23ZM1257.19 43.657C1257.8 43.657 1258.3 43.1882 1258.3 42.6129C1258.3 42.0323 1257.8 41.5636 1257.19 41.5636C1256.57 41.5636 1256.07 42.0323 1256.07 42.6129C1256.07 43.1882 1256.57 43.657 1257.19 43.657ZM1264.16 53.1598C1266.56 53.1598 1268.08 51.4712 1268.08 48.9411C1268.08 46.4055 1266.56 44.7116 1264.16 44.7116C1261.76 44.7116 1260.24 46.4055 1260.24 48.9411C1260.24 51.4712 1261.76 53.1598 1264.16 53.1598ZM1264.17 51.6151C1262.84 51.6151 1262.19 50.4325 1262.19 48.9357C1262.19 47.4389 1262.84 46.2404 1264.17 46.2404C1265.47 46.2404 1266.12 47.4389 1266.12 48.9357C1266.12 50.4325 1265.47 51.6151 1264.17 51.6151ZM1270.25 53H1272.15V51.7109H1272.26C1272.56 52.3075 1273.2 53.1438 1274.6 53.1438C1276.53 53.1438 1277.97 51.6151 1277.97 48.9197C1277.97 46.1925 1276.49 44.7116 1274.6 44.7116C1273.15 44.7116 1272.55 45.5799 1272.26 46.1712H1272.18V42.0909H1270.25V53ZM1272.14 48.9091C1272.14 47.3217 1272.82 46.2937 1274.06 46.2937C1275.35 46.2937 1276.01 47.3857 1276.01 48.9091C1276.01 50.4432 1275.34 51.5618 1274.06 51.5618C1272.83 51.5618 1272.14 50.4964 1272.14 48.9091ZM1279.07 43.7475H1282.44V53H1284.4V43.7475H1287.77V42.0909H1279.07V43.7475ZM1289.82 53H1291.74V44.8182H1289.82V53ZM1290.78 43.657C1291.4 43.657 1291.9 43.1882 1291.9 42.6129C1291.9 42.0323 1291.4 41.5636 1290.78 41.5636C1290.17 41.5636 1289.67 42.0323 1289.67 42.6129C1289.67 43.1882 1290.17 43.657 1290.78 43.657ZM1298.26 44.8182H1296.65V42.858H1294.72V44.8182H1293.56V46.3097H1294.72V50.8587C1294.71 52.3981 1295.83 53.1545 1297.28 53.1119C1297.83 53.0959 1298.2 52.9893 1298.41 52.9201L1298.09 51.4126C1297.98 51.4393 1297.76 51.4872 1297.52 51.4872C1297.04 51.4872 1296.65 51.3168 1296.65 50.5391V46.3097H1298.26V44.8182ZM1302.43 42.0909H1300.5V53H1302.43V42.0909ZM1308.48 53.1598C1310.39 53.1598 1311.7 52.2276 1312.04 50.8054L1310.24 50.603C1309.98 51.2955 1309.34 51.6577 1308.51 51.6577C1307.26 51.6577 1306.44 50.8374 1306.42 49.4364H1312.12V48.8452C1312.12 45.9741 1310.4 44.7116 1308.38 44.7116C1306.04 44.7116 1304.51 46.4322 1304.51 48.957C1304.51 51.5245 1306.02 53.1598 1308.48 53.1598ZM1306.43 48.1367C1306.49 47.0927 1307.26 46.2138 1308.41 46.2138C1309.52 46.2138 1310.26 47.0234 1310.27 48.1367H1306.43Z" fill="#C5D1DB"/>
<path d="M1256.3 77H1257.95V73.1648H1260.18C1262.71 73.1648 1263.97 71.636 1263.97 69.6225C1263.97 67.6143 1262.73 66.0909 1260.19 66.0909H1256.3V77ZM1257.95 71.7692V67.5025H1260.01C1261.64 67.5025 1262.31 68.3867 1262.31 69.6225C1262.31 70.8583 1261.64 71.7692 1260.04 71.7692H1257.95ZM1265.77 77H1267.36V72.0036C1267.36 70.9329 1268.19 70.1605 1269.32 70.1605C1269.65 70.1605 1270.02 70.2191 1270.15 70.2564V68.733C1269.99 68.7116 1269.67 68.6957 1269.47 68.6957C1268.51 68.6957 1267.69 69.239 1267.39 70.1179H1267.31V68.8182H1265.77V77ZM1274.68 77.1651C1276.99 77.1651 1278.49 75.4766 1278.49 72.9464C1278.49 70.4002 1276.99 68.7116 1274.68 68.7116C1272.37 68.7116 1270.86 70.4002 1270.86 72.9464C1270.86 75.4766 1272.37 77.1651 1274.68 77.1651ZM1274.68 75.8281C1273.18 75.8281 1272.47 74.5124 1272.47 72.9411C1272.47 71.375 1273.18 70.0433 1274.68 70.0433C1276.18 70.0433 1276.88 71.375 1276.88 72.9411C1276.88 74.5124 1276.18 75.8281 1274.68 75.8281ZM1283.33 77.1598C1284.82 77.1598 1285.41 76.2489 1285.7 75.7269H1285.83V77H1287.39V66.0909H1285.79V70.1445H1285.7C1285.41 69.6385 1284.87 68.7116 1283.34 68.7116C1281.37 68.7116 1279.91 70.2724 1279.91 72.9251C1279.91 75.5724 1281.35 77.1598 1283.33 77.1598ZM1283.68 75.8015C1282.26 75.8015 1281.52 74.5497 1281.52 72.9091C1281.52 71.2844 1282.25 70.0646 1283.68 70.0646C1285.08 70.0646 1285.82 71.1992 1285.82 72.9091C1285.82 74.6296 1285.06 75.8015 1283.68 75.8015ZM1294.84 73.6069C1294.85 74.9972 1293.81 75.6577 1292.92 75.6577C1291.93 75.6577 1291.25 74.9439 1291.25 73.8306V68.8182H1289.66V74.0224C1289.66 76.0518 1290.77 77.1065 1292.34 77.1065C1293.58 77.1065 1294.41 76.4567 1294.79 75.5831H1294.87V77H1296.44V68.8182H1294.84V73.6069ZM1302.03 77.1651C1303.96 77.1651 1305.21 76.0039 1305.39 74.4112H1303.84C1303.64 75.2955 1302.95 75.8175 1302.04 75.8175C1300.69 75.8175 1299.82 74.6935 1299.82 72.9091C1299.82 71.1566 1300.71 70.054 1302.04 70.054C1303.05 70.054 1303.67 70.6932 1303.84 71.4602H1305.39C1305.22 69.8089 1303.87 68.7116 1302.01 68.7116C1299.7 68.7116 1298.21 70.4482 1298.21 72.9464C1298.21 75.4126 1299.65 77.1651 1302.03 77.1651ZM1310.91 68.8182H1309.23V66.858H1307.64V68.8182H1306.44V70.0966H1307.64V74.9279C1307.63 76.4141 1308.77 77.1332 1310.03 77.1065C1310.53 77.1012 1310.87 77.0053 1311.06 76.9361L1310.77 75.6204C1310.67 75.6417 1310.47 75.6896 1310.21 75.6896C1309.7 75.6896 1309.23 75.5192 1309.23 74.5977V70.0966H1310.91V68.8182ZM1316.77 77H1323.67V75.5831H1318.42V72.2433H1323.25V70.8317H1318.42V67.5078H1323.61V66.0909H1316.77V77ZM1327.27 72.142C1327.27 70.837 1328.07 70.0913 1329.18 70.0913C1330.26 70.0913 1330.92 70.7997 1330.92 71.9876V77H1332.51V71.7958C1332.51 69.7717 1331.4 68.7116 1329.72 68.7116C1328.49 68.7116 1327.69 69.2816 1327.31 70.1499H1327.21V68.8182H1325.68V77H1327.27V72.142ZM1338.08 80.2386C1340.16 80.2386 1341.77 79.2852 1341.77 77.1811V68.8182H1340.21V70.1445H1340.09C1339.81 69.6385 1339.24 68.7116 1337.72 68.7116C1335.74 68.7116 1334.29 70.2724 1334.29 72.8771C1334.29 75.4872 1335.77 76.8775 1337.71 76.8775C1339.21 76.8775 1339.79 76.0305 1340.08 75.5085H1340.18V77.1172C1340.18 78.4009 1339.3 78.9549 1338.09 78.9549C1336.77 78.9549 1336.25 78.2891 1335.97 77.8203L1334.6 78.3849C1335.03 79.3864 1336.12 80.2386 1338.08 80.2386ZM1338.06 75.5565C1336.64 75.5565 1335.9 74.4645 1335.9 72.8558C1335.9 71.2844 1336.62 70.0646 1338.06 70.0646C1339.45 70.0646 1340.2 71.1992 1340.2 72.8558C1340.2 74.5444 1339.43 75.5565 1338.06 75.5565ZM1343.9 77H1345.5V68.8182H1343.9V77ZM1344.71 67.5558C1345.26 67.5558 1345.71 67.1296 1345.71 66.6076C1345.71 66.0856 1345.26 65.6541 1344.71 65.6541C1344.15 65.6541 1343.7 66.0856 1343.7 66.6076C1343.7 67.1296 1344.15 67.5558 1344.71 67.5558ZM1349.23 72.142C1349.23 70.837 1350.03 70.0913 1351.14 70.0913C1352.22 70.0913 1352.87 70.7997 1352.87 71.9876V77H1354.47V71.7958C1354.47 69.7717 1353.35 68.7116 1351.68 68.7116C1350.45 68.7116 1349.65 69.2816 1349.27 70.1499H1349.17V68.8182H1347.64V77H1349.23V72.142ZM1360.13 77.1651C1361.91 77.1651 1363.18 76.2862 1363.54 74.9545L1362.03 74.6829C1361.74 75.4553 1361.05 75.8494 1360.15 75.8494C1358.78 75.8494 1357.87 74.9652 1357.82 73.3885H1363.64V72.8239C1363.64 69.8675 1361.87 68.7116 1360.02 68.7116C1357.74 68.7116 1356.24 70.4482 1356.24 72.9624C1356.24 75.5032 1357.72 77.1651 1360.13 77.1651ZM1357.83 72.1953C1357.89 71.0341 1358.73 70.0273 1360.03 70.0273C1361.26 70.0273 1362.07 70.9435 1362.08 72.1953H1357.83ZM1368.93 77.1651C1370.72 77.1651 1371.98 76.2862 1372.34 74.9545L1370.84 74.6829C1370.55 75.4553 1369.85 75.8494 1368.95 75.8494C1367.59 75.8494 1366.67 74.9652 1366.63 73.3885H1372.44V72.8239C1372.44 69.8675 1370.68 68.7116 1368.82 68.7116C1366.54 68.7116 1365.04 70.4482 1365.04 72.9624C1365.04 75.5032 1366.52 77.1651 1368.93 77.1651ZM1366.63 72.1953C1366.7 71.0341 1367.54 70.0273 1368.83 70.0273C1370.07 70.0273 1370.88 70.9435 1370.88 72.1953H1366.63ZM1374.21 77H1375.8V72.0036C1375.8 70.9329 1376.63 70.1605 1377.76 70.1605C1378.09 70.1605 1378.46 70.2191 1378.59 70.2564V68.733C1378.43 68.7116 1378.12 68.6957 1377.91 68.6957C1376.95 68.6957 1376.13 69.239 1375.84 70.1179H1375.75V68.8182H1374.21V77Z" fill="#C5D1DB"/>
<path d="M115.986 183.091H114.058V194H115.986V183.091ZM120.773 194.165C122.057 194.165 122.824 193.563 123.176 192.876H123.24V194H125.093V188.524C125.093 186.362 123.33 185.712 121.769 185.712C120.049 185.712 118.728 186.479 118.302 187.97L120.102 188.226C120.294 187.667 120.837 187.187 121.78 187.187C122.675 187.187 123.165 187.645 123.165 188.45V188.482C123.165 189.036 122.584 189.062 121.141 189.217C119.554 189.387 118.035 189.861 118.035 191.704C118.035 193.313 119.213 194.165 120.773 194.165ZM121.274 192.748C120.47 192.748 119.894 192.381 119.894 191.672C119.894 190.932 120.539 190.623 121.402 190.5C121.908 190.431 122.92 190.303 123.17 190.101V191.065C123.17 191.976 122.435 192.748 121.274 192.748ZM133.949 187.981C133.683 186.596 132.575 185.712 130.657 185.712C128.686 185.712 127.344 186.681 127.349 188.194C127.344 189.387 128.079 190.175 129.65 190.5L131.046 190.793C131.797 190.958 132.148 191.262 132.148 191.725C132.148 192.285 131.541 192.706 130.625 192.706C129.741 192.706 129.166 192.322 129 191.587L127.12 191.768C127.36 193.27 128.622 194.16 130.63 194.16C132.676 194.16 134.119 193.1 134.125 191.55C134.119 190.383 133.368 189.669 131.824 189.334L130.428 189.036C129.597 188.849 129.267 188.561 129.272 188.087C129.267 187.533 129.879 187.15 130.684 187.15C131.573 187.15 132.042 187.635 132.191 188.173L133.949 187.981ZM140.25 185.818H138.636V183.858H136.708V185.818H135.547V187.31H136.708V191.859C136.697 193.398 137.816 194.154 139.265 194.112C139.813 194.096 140.192 193.989 140.399 193.92L140.074 192.413C139.968 192.439 139.75 192.487 139.51 192.487C139.025 192.487 138.636 192.317 138.636 191.539V187.31H140.25V185.818ZM151.539 183.091H149.573V190.527H149.477L144.342 183.091H142.574V194H144.55V186.569H144.641L149.781 194H151.539V183.091ZM156.411 194.165C157.695 194.165 158.462 193.563 158.814 192.876H158.878V194H160.731V188.524C160.731 186.362 158.968 185.712 157.407 185.712C155.687 185.712 154.366 186.479 153.94 187.97L155.74 188.226C155.932 187.667 156.475 187.187 157.418 187.187C158.313 187.187 158.803 187.645 158.803 188.45V188.482C158.803 189.036 158.222 189.062 156.779 189.217C155.191 189.387 153.673 189.861 153.673 191.704C153.673 193.313 154.851 194.165 156.411 194.165ZM156.912 192.748C156.108 192.748 155.532 192.381 155.532 191.672C155.532 190.932 156.177 190.623 157.04 190.5C157.546 190.431 158.558 190.303 158.808 190.101V191.065C158.808 191.976 158.073 192.748 156.912 192.748ZM163.12 194H165.048V189.025C165.048 188.018 165.72 187.336 166.551 187.336C167.366 187.336 167.925 187.885 167.925 188.727V194H169.816V188.897C169.816 187.975 170.364 187.336 171.297 187.336C172.074 187.336 172.692 187.794 172.692 188.806V194H174.626V188.508C174.626 186.681 173.571 185.712 172.069 185.712C170.881 185.712 169.976 186.298 169.613 187.208H169.528C169.214 186.282 168.42 185.712 167.318 185.712C166.22 185.712 165.4 186.276 165.059 187.208H164.963V185.818H163.12V194ZM180.654 194.16C182.561 194.16 183.872 193.228 184.212 191.805L182.412 191.603C182.151 192.295 181.512 192.658 180.681 192.658C179.434 192.658 178.609 191.837 178.593 190.436H184.292V189.845C184.292 186.974 182.567 185.712 180.553 185.712C178.209 185.712 176.681 187.432 176.681 189.957C176.681 192.525 178.188 194.16 180.654 194.16ZM178.598 189.137C178.657 188.093 179.429 187.214 180.58 187.214C181.688 187.214 182.433 188.023 182.444 189.137H178.598Z" fill="#C5D1DB"/>
<path d="M114.566 207.091V218H116.132V210.1H116.233L119.45 217.984H120.75L123.967 210.106H124.069V218H125.635V207.091H123.637L120.164 215.571H120.036L116.563 207.091H114.566ZM130.281 218.181C131.634 218.181 132.396 217.494 132.699 216.881H132.763V218H134.318V212.567C134.318 210.186 132.443 209.712 131.144 209.712C129.663 209.712 128.299 210.308 127.767 211.8L129.263 212.141C129.498 211.56 130.094 211.001 131.165 211.001C132.193 211.001 132.72 211.539 132.72 212.466V212.503C132.72 213.083 132.124 213.073 130.654 213.243C129.104 213.424 127.516 213.829 127.516 215.688C127.516 217.297 128.725 218.181 130.281 218.181ZM130.627 216.903C129.727 216.903 129.077 216.498 129.077 215.71C129.077 214.857 129.833 214.554 130.755 214.431C131.272 214.362 132.497 214.223 132.726 213.994V215.049C132.726 216.018 131.953 216.903 130.627 216.903ZM138.032 213.142C138.032 211.837 138.858 211.091 139.993 211.091C141.09 211.091 141.745 211.789 141.745 212.988V218H143.338V212.796C143.338 210.756 142.219 209.712 140.536 209.712C139.263 209.712 138.496 210.266 138.112 211.15H138.011V207.091H136.44V218H138.032V213.142ZM147.844 218.181C149.197 218.181 149.959 217.494 150.263 216.881H150.327V218H151.882V212.567C151.882 210.186 150.007 209.712 148.707 209.712C147.226 209.712 145.863 210.308 145.33 211.8L146.827 212.141C147.061 211.56 147.658 211.001 148.729 211.001C149.757 211.001 150.284 211.539 150.284 212.466V212.503C150.284 213.083 149.687 213.073 148.217 213.243C146.667 213.424 145.08 213.829 145.08 215.688C145.08 217.297 146.289 218.181 147.844 218.181ZM148.191 216.903C147.29 216.903 146.64 216.498 146.64 215.71C146.64 214.857 147.397 214.554 148.318 214.431C148.835 214.362 150.06 214.223 150.289 213.994V215.049C150.289 216.018 149.517 216.903 148.191 216.903ZM155.596 213.142C155.596 211.837 156.395 211.091 157.503 211.091C158.584 211.091 159.239 211.8 159.239 212.988V218H160.832V212.796C160.832 210.772 159.719 209.712 158.046 209.712C156.816 209.712 156.011 210.282 155.633 211.15H155.532V209.818H154.003V218H155.596V213.142ZM162.968 218H164.561V209.818H162.968V218ZM163.772 208.556C164.321 208.556 164.779 208.13 164.779 207.608C164.779 207.086 164.321 206.654 163.772 206.654C163.218 206.654 162.766 207.086 162.766 207.608C162.766 208.13 163.218 208.556 163.772 208.556Z" fill="#C5D1DB"/>
<circle cx="201" cy="189" r="7" stroke="#C5D1DB" stroke-width="2"/>
<circle cx="216" cy="19" r="7" stroke="#C5D1DB" stroke-width="2"/>
<path d="M233.046 27.0682H234.974V22.7109H235.054C235.358 23.3075 235.992 24.1438 237.398 24.1438C239.326 24.1438 240.77 22.6151 240.77 19.9197C240.77 17.1925 239.284 15.7116 237.393 15.7116C235.949 15.7116 235.347 16.5799 235.054 17.1712H234.942V15.8182H233.046V27.0682ZM234.937 19.9091C234.937 18.3217 235.619 17.2937 236.86 17.2937C238.144 17.2937 238.804 18.3857 238.804 19.9091C238.804 21.4432 238.133 22.5618 236.86 22.5618C235.63 22.5618 234.937 21.4964 234.937 19.9091ZM242.871 24H244.799V19.19C244.799 18.1513 245.582 17.4162 246.642 17.4162C246.967 17.4162 247.372 17.4748 247.537 17.5281V15.7543C247.362 15.7223 247.058 15.701 246.845 15.701C245.907 15.701 245.124 16.2337 244.826 17.1818H244.741V15.8182H242.871V24ZM252.5 24.1598C254.897 24.1598 256.421 22.4712 256.421 19.9411C256.421 17.4055 254.897 15.7116 252.5 15.7116C250.103 15.7116 248.58 17.4055 248.58 19.9411C248.58 22.4712 250.103 24.1598 252.5 24.1598ZM252.511 22.6151C251.185 22.6151 250.535 21.4325 250.535 19.9357C250.535 18.4389 251.185 17.2404 252.511 17.2404C253.816 17.2404 254.466 18.4389 254.466 19.9357C254.466 21.4325 253.816 22.6151 252.511 22.6151ZM262.652 15.8182H260.952V15.1737C260.952 14.5344 261.219 14.1776 261.938 14.1776C262.241 14.1776 262.497 14.2468 262.657 14.2947L263.046 12.8033C262.795 12.718 262.247 12.5795 261.581 12.5795C260.159 12.5795 259.024 13.3945 259.024 15.0458V15.8182H257.815V17.3097H259.024V24H260.952V17.3097H262.652V15.8182ZM264.612 24H266.54V15.8182H264.612V24ZM265.581 14.657C266.194 14.657 266.695 14.1882 266.695 13.6129C266.695 13.0323 266.194 12.5636 265.581 12.5636C264.963 12.5636 264.463 13.0323 264.463 13.6129C264.463 14.1882 264.963 14.657 265.581 14.657ZM270.901 13.0909H268.973V24H270.901V13.0909ZM276.956 24.1598C278.863 24.1598 280.174 23.2276 280.514 21.8054L278.714 21.603C278.453 22.2955 277.814 22.6577 276.983 22.6577C275.736 22.6577 274.911 21.8374 274.895 20.4364H280.594V19.8452C280.594 16.9741 278.868 15.7116 276.855 15.7116C274.511 15.7116 272.982 17.4322 272.982 19.957C272.982 22.5245 274.49 24.1598 276.956 24.1598ZM274.9 19.1367C274.959 18.0927 275.731 17.2138 276.882 17.2138C277.99 17.2138 278.735 18.0234 278.746 19.1367H274.9ZM286.458 24C289.781 24 291.752 21.9439 291.752 18.5348C291.752 15.1364 289.781 13.0909 286.532 13.0909H282.761V24H286.458ZM284.737 22.2901V14.8008H286.42C288.636 14.8008 289.792 16.0366 289.792 18.5348C289.792 21.0437 288.636 22.2901 286.362 22.2901H284.737ZM297.617 24.1598C299.524 24.1598 300.834 23.2276 301.175 21.8054L299.375 21.603C299.114 22.2955 298.475 22.6577 297.644 22.6577C296.397 22.6577 295.571 21.8374 295.555 20.4364H301.255V19.8452C301.255 16.9741 299.529 15.7116 297.516 15.7116C295.172 15.7116 293.643 17.4322 293.643 19.957C293.643 22.5245 295.151 24.1598 297.617 24.1598ZM295.561 19.1367C295.619 18.0927 296.392 17.2138 297.542 17.2138C298.65 17.2138 299.396 18.0234 299.407 19.1367H295.561ZM309.803 17.9808C309.537 16.5959 308.429 15.7116 306.511 15.7116C304.54 15.7116 303.198 16.6811 303.203 18.1939C303.198 19.3871 303.933 20.1754 305.504 20.5004L306.9 20.7933C307.651 20.9585 308.003 21.2621 308.003 21.7255C308.003 22.2848 307.395 22.7056 306.479 22.7056C305.595 22.7056 305.02 22.3221 304.854 21.587L302.974 21.7681C303.214 23.2702 304.476 24.1598 306.484 24.1598C308.53 24.1598 309.973 23.0998 309.979 21.5497C309.973 20.3832 309.222 19.6694 307.678 19.3338L306.282 19.0355C305.451 18.8491 305.121 18.5614 305.126 18.0874C305.121 17.5334 305.733 17.1499 306.538 17.1499C307.427 17.1499 307.896 17.6346 308.045 18.1726L309.803 17.9808ZM315.588 24.1598C317.644 24.1598 318.954 22.94 319.093 21.2035H317.25C317.084 22.0824 316.451 22.5884 315.604 22.5884C314.4 22.5884 313.622 21.5817 313.622 19.9091C313.622 18.2578 314.416 17.267 315.604 17.267C316.531 17.267 317.1 17.8636 317.25 18.652H319.093C318.959 16.8782 317.575 15.7116 315.577 15.7116C313.18 15.7116 311.667 17.4428 311.667 19.9411C311.667 22.418 313.143 24.1598 315.588 24.1598ZM321.126 24H323.054V19.19C323.054 18.1513 323.837 17.4162 324.897 17.4162C325.222 17.4162 325.627 17.4748 325.792 17.5281V15.7543C325.616 15.7223 325.313 15.701 325.1 15.701C324.162 15.701 323.379 16.2337 323.081 17.1818H322.996V15.8182H321.126V24ZM327.523 24H329.452V15.8182H327.523V24ZM328.493 14.657C329.105 14.657 329.606 14.1882 329.606 13.6129C329.606 13.0323 329.105 12.5636 328.493 12.5636C327.875 12.5636 327.374 13.0323 327.374 13.6129C327.374 14.1882 327.875 14.657 328.493 14.657ZM331.884 27.0682H333.813V22.7109H333.893C334.196 23.3075 334.83 24.1438 336.236 24.1438C338.165 24.1438 339.608 22.6151 339.608 19.9197C339.608 17.1925 338.122 15.7116 336.231 15.7116C334.787 15.7116 334.186 16.5799 333.893 17.1712H333.781V15.8182H331.884V27.0682ZM333.775 19.9091C333.775 18.3217 334.457 17.2937 335.698 17.2937C336.982 17.2937 337.643 18.3857 337.643 19.9091C337.643 21.4432 336.971 22.5618 335.698 22.5618C334.468 22.5618 333.775 21.4964 333.775 19.9091ZM345.795 15.8182H344.181V13.858H342.253V15.8182H341.092V17.3097H342.253V21.8587C342.242 23.3981 343.361 24.1545 344.81 24.1119C345.358 24.0959 345.736 23.9893 345.944 23.9201L345.619 22.4126C345.513 22.4393 345.294 22.4872 345.055 22.4872C344.57 22.4872 344.181 22.3168 344.181 21.5391V17.3097H345.795V15.8182ZM347.858 24H349.786V15.8182H347.858V24ZM348.827 14.657C349.44 14.657 349.94 14.1882 349.94 13.6129C349.94 13.0323 349.44 12.5636 348.827 12.5636C348.209 12.5636 347.709 13.0323 347.709 13.6129C347.709 14.1882 348.209 14.657 348.827 14.657ZM355.788 24.1598C358.185 24.1598 359.708 22.4712 359.708 19.9411C359.708 17.4055 358.185 15.7116 355.788 15.7116C353.391 15.7116 351.867 17.4055 351.867 19.9411C351.867 22.4712 353.391 24.1598 355.788 24.1598ZM355.798 22.6151C354.472 22.6151 353.822 21.4325 353.822 19.9357C353.822 18.4389 354.472 17.2404 355.798 17.2404C357.103 17.2404 357.753 18.4389 357.753 19.9357C357.753 21.4325 357.103 22.6151 355.798 22.6151ZM363.723 19.206C363.723 18.0234 364.437 17.3416 365.454 17.3416C366.45 17.3416 367.047 17.9968 367.047 19.0888V24H368.975V18.7905C368.98 16.8303 367.862 15.7116 366.173 15.7116C364.948 15.7116 364.107 16.2976 363.734 17.2085H363.638V15.8182H361.795V24H363.723V19.206Z" fill="#C5D1DB"/>
<path d="M233.039 40.5H234.402V39.4613C234.402 38.657 234.754 37.9805 235.185 37.3466L234.397 36.782C233.582 37.4371 233.039 38.5717 233.039 39.4773V40.5ZM235.755 40.5H237.119V39.4613C237.119 38.657 237.47 37.9805 237.902 37.3466L237.114 36.782C236.299 37.4371 235.755 38.5717 235.755 39.4773V40.5ZM239.399 37.0909V48H240.965V40.1005H241.066L244.283 47.984H245.583L248.8 40.1058H248.902V48H250.468V37.0909H248.47L244.997 45.571H244.869L241.396 37.0909H239.399ZM253.74 51.0682C255.055 51.0682 255.886 50.381 256.36 49.092L259.743 39.8342L258.022 39.8182L255.95 46.1676H255.865L253.793 39.8182H252.088L255.082 48.1065L254.885 48.6499C254.48 49.7365 253.91 49.8271 253.036 49.5874L252.653 50.8924C252.845 50.9776 253.26 51.0682 253.74 51.0682ZM266.987 48H268.606L270.268 42.0927H270.391L272.053 48H273.677L276.08 39.8182H274.434L272.841 45.8001H272.761L271.163 39.8182H269.517L267.909 45.8267H267.829L266.225 39.8182H264.579L266.987 48ZM280.789 48.1651C283.095 48.1651 284.602 46.4766 284.602 43.9464C284.602 41.4002 283.095 39.7116 280.789 39.7116C278.482 39.7116 276.975 41.4002 276.975 43.9464C276.975 46.4766 278.482 48.1651 280.789 48.1651ZM280.794 46.8281C279.286 46.8281 278.583 45.5124 278.583 43.9411C278.583 42.375 279.286 41.0433 280.794 41.0433C282.291 41.0433 282.994 42.375 282.994 43.9411C282.994 45.5124 282.291 46.8281 280.794 46.8281ZM286.38 48H287.973V43.0036C287.973 41.9329 288.799 41.1605 289.928 41.1605C290.258 41.1605 290.631 41.2191 290.759 41.2564V39.733C290.599 39.7116 290.285 39.6957 290.082 39.6957C289.123 39.6957 288.303 40.239 288.005 41.1179H287.92V39.8182H286.38V48ZM292.137 48H293.73V45.0969L294.523 44.3033L297.304 48H299.259L295.722 43.3285L299.035 39.8182H297.128L293.868 43.2805H293.73V37.0909H292.137V48ZM300.487 48H302.079V39.8182H300.487V48ZM301.291 38.5558C301.84 38.5558 302.298 38.1296 302.298 37.6076C302.298 37.0856 301.84 36.6541 301.291 36.6541C300.737 36.6541 300.284 37.0856 300.284 37.6076C300.284 38.1296 300.737 38.5558 301.291 38.5558ZM305.815 43.142C305.815 41.837 306.614 41.0913 307.722 41.0913C308.803 41.0913 309.458 41.7997 309.458 42.9876V48H311.051V42.7958C311.051 40.7717 309.938 39.7116 308.265 39.7116C307.035 39.7116 306.23 40.2816 305.852 41.1499H305.751V39.8182H304.222V48H305.815V43.142ZM316.617 51.2386C318.7 51.2386 320.309 50.2852 320.309 48.1811V39.8182H318.748V41.1445H318.631C318.348 40.6385 317.784 39.7116 316.26 39.7116C314.284 39.7116 312.83 41.2724 312.83 43.8771C312.83 46.4872 314.316 47.8775 316.25 47.8775C317.752 47.8775 318.332 47.0305 318.62 46.5085H318.721V48.1172C318.721 49.4009 317.842 49.9549 316.633 49.9549C315.307 49.9549 314.79 49.2891 314.508 48.8203L313.139 49.3849C313.57 50.3864 314.662 51.2386 316.617 51.2386ZM316.601 46.5565C315.179 46.5565 314.439 45.4645 314.439 43.8558C314.439 42.2844 315.163 41.0646 316.601 41.0646C317.992 41.0646 318.737 42.1992 318.737 43.8558C318.737 45.5444 317.976 46.5565 316.601 46.5565ZM328.007 43.142C328.007 41.837 328.833 41.0913 329.967 41.0913C331.065 41.0913 331.72 41.7891 331.72 42.9876V48H333.312V42.7958C333.312 40.7557 332.194 39.7116 330.511 39.7116C329.238 39.7116 328.471 40.2656 328.087 41.1499H327.986V37.0909H326.414V48H328.007V43.142ZM338.884 48.1651C341.191 48.1651 342.698 46.4766 342.698 43.9464C342.698 41.4002 341.191 39.7116 338.884 39.7116C336.578 39.7116 335.07 41.4002 335.07 43.9464C335.07 46.4766 336.578 48.1651 338.884 48.1651ZM338.89 46.8281C337.382 46.8281 336.679 45.5124 336.679 43.9411C336.679 42.375 337.382 41.0433 338.89 41.0433C340.386 41.0433 341.089 42.375 341.089 43.9411C341.089 45.5124 340.386 46.8281 338.89 46.8281ZM349.659 44.6069C349.664 45.9972 348.631 46.6577 347.736 46.6577C346.75 46.6577 346.069 45.9439 346.069 44.8306V39.8182H344.476V45.0224C344.476 47.0518 345.589 48.1065 347.161 48.1065C348.391 48.1065 349.227 47.4567 349.606 46.5831H349.691V48H351.257V39.8182H349.659V44.6069ZM353.397 48H354.99V43.0036C354.99 41.9329 355.815 41.1605 356.944 41.1605C357.275 41.1605 357.648 41.2191 357.775 41.2564V39.733C357.616 39.7116 357.301 39.6957 357.099 39.6957C356.14 39.6957 355.32 40.239 355.021 41.1179H354.936V39.8182H353.397V48ZM365.285 41.8157C364.954 40.5426 363.958 39.7116 362.19 39.7116C360.342 39.7116 359.031 40.6864 359.031 42.1353C359.031 43.2965 359.734 44.0689 361.268 44.4098L362.653 44.7134C363.442 44.8892 363.809 45.2408 363.809 45.7521C363.809 46.386 363.133 46.8814 362.089 46.8814C361.135 46.8814 360.523 46.4712 360.331 45.6669L358.791 45.9013C359.058 47.3501 360.262 48.1651 362.099 48.1651C364.076 48.1651 365.445 47.1158 365.445 45.6349C365.445 44.479 364.709 43.7653 363.207 43.419L361.908 43.1207C361.007 42.9077 360.619 42.604 360.624 42.0501C360.619 41.4215 361.3 40.9741 362.206 40.9741C363.197 40.9741 363.655 41.5227 363.841 42.0714L365.285 41.8157ZM368.245 48.1012C368.826 48.1012 369.31 47.6271 369.31 47.0359C369.31 46.4553 368.826 45.9759 368.245 45.9759C367.659 45.9759 367.18 46.4553 367.18 47.0359C367.18 47.6271 367.659 48.1012 368.245 48.1012ZM372.493 48.1012C373.074 48.1012 373.558 47.6271 373.558 47.0359C373.558 46.4553 373.074 45.9759 372.493 45.9759C371.907 45.9759 371.428 46.4553 371.428 47.0359C371.428 47.6271 371.907 48.1012 372.493 48.1012ZM376.741 48.1012C377.322 48.1012 377.806 47.6271 377.806 47.0359C377.806 46.4553 377.322 45.9759 376.741 45.9759C376.155 45.9759 375.676 46.4553 375.676 47.0359C375.676 47.6271 376.155 48.1012 376.741 48.1012ZM380.239 37.0909H378.876V38.1296C378.876 38.9553 378.514 39.6317 378.098 40.2443L378.886 40.8089C379.707 40.1484 380.239 39.0192 380.239 38.1136V37.0909ZM382.951 37.0909H381.587V38.1296C381.587 38.9553 381.225 39.6317 380.809 40.2443L381.598 40.8089C382.418 40.1484 382.951 39.0192 382.951 38.1136V37.0909Z" fill="#C5D1DB"/>
<path d="M483.483 205.818H481.784V205.174C481.784 204.534 482.05 204.178 482.769 204.178C483.073 204.178 483.328 204.247 483.488 204.295L483.877 202.803C483.627 202.718 483.078 202.58 482.412 202.58C480.99 202.58 479.855 203.395 479.855 205.046V205.818H478.646V207.31H479.855V214H481.784V207.31H483.483V205.818ZM485.443 214H487.371V205.818H485.443V214ZM486.412 204.657C487.025 204.657 487.526 204.188 487.526 203.613C487.526 203.032 487.025 202.564 486.412 202.564C485.795 202.564 485.294 203.032 485.294 203.613C485.294 204.188 485.795 204.657 486.412 204.657ZM489.804 214H491.732V209.19C491.732 208.151 492.515 207.416 493.575 207.416C493.9 207.416 494.305 207.475 494.47 207.528V205.754C494.295 205.722 493.991 205.701 493.778 205.701C492.84 205.701 492.057 206.234 491.759 207.182H491.674V205.818H489.804V214ZM502.668 207.981C502.402 206.596 501.294 205.712 499.376 205.712C497.405 205.712 496.063 206.681 496.068 208.194C496.063 209.387 496.798 210.175 498.369 210.5L499.765 210.793C500.516 210.958 500.868 211.262 500.868 211.725C500.868 212.285 500.26 212.706 499.344 212.706C498.46 212.706 497.885 212.322 497.72 211.587L495.839 211.768C496.079 213.27 497.341 214.16 499.349 214.16C501.395 214.16 502.838 213.1 502.844 211.55C502.838 210.383 502.087 209.669 500.543 209.334L499.147 209.036C498.316 208.849 497.986 208.561 497.991 208.087C497.986 207.533 498.598 207.15 499.403 207.15C500.292 207.15 500.761 207.635 500.91 208.173L502.668 207.981ZM508.969 205.818H507.355V203.858H505.427V205.818H504.266V207.31H505.427V211.859C505.417 213.398 506.535 214.154 507.984 214.112C508.533 214.096 508.911 213.989 509.119 213.92L508.794 212.413C508.687 212.439 508.469 212.487 508.229 212.487C507.744 212.487 507.355 212.317 507.355 211.539V207.31H508.969V205.818ZM520.258 203.091H518.292V210.527H518.196L513.062 203.091H511.293V214H513.269V206.569H513.36L518.5 214H520.258V203.091ZM525.13 214.165C526.414 214.165 527.181 213.563 527.533 212.876H527.597V214H529.45V208.524C529.45 206.362 527.687 205.712 526.127 205.712C524.406 205.712 523.085 206.479 522.659 207.97L524.459 208.226C524.651 207.667 525.194 207.187 526.137 207.187C527.032 207.187 527.522 207.645 527.522 208.45V208.482C527.522 209.036 526.942 209.062 525.498 209.217C523.911 209.387 522.392 209.861 522.392 211.704C522.392 213.313 523.57 214.165 525.13 214.165ZM525.631 212.748C524.827 212.748 524.252 212.381 524.252 211.672C524.252 210.932 524.896 210.623 525.759 210.5C526.265 210.431 527.277 210.303 527.527 210.101V211.065C527.527 211.976 526.792 212.748 525.631 212.748ZM531.839 214H533.768V209.025C533.768 208.018 534.439 207.336 535.27 207.336C536.085 207.336 536.644 207.885 536.644 208.727V214H538.535V208.897C538.535 207.975 539.084 207.336 540.016 207.336C540.793 207.336 541.411 207.794 541.411 208.806V214H543.345V208.508C543.345 206.681 542.29 205.712 540.788 205.712C539.6 205.712 538.695 206.298 538.333 207.208H538.247C537.933 206.282 537.139 205.712 536.037 205.712C534.939 205.712 534.119 206.276 533.778 207.208H533.682V205.818H531.839V214ZM549.373 214.16C551.28 214.16 552.591 213.228 552.932 211.805L551.131 211.603C550.87 212.295 550.231 212.658 549.4 212.658C548.154 212.658 547.328 211.837 547.312 210.436H553.012V209.845C553.012 206.974 551.286 205.712 549.272 205.712C546.928 205.712 545.4 207.432 545.4 209.957C545.4 212.525 546.907 214.16 549.373 214.16ZM547.317 209.137C547.376 208.093 548.148 207.214 549.299 207.214C550.407 207.214 551.152 208.023 551.163 209.137H547.317Z" fill="#6048E5"/>
<path d="M479.681 227.091V238H481.247V230.1H481.349L484.566 237.984H485.866L489.083 230.106H489.184V238H490.75V227.091H488.753L485.28 235.571H485.152L481.679 227.091H479.681ZM495.397 238.181C496.75 238.181 497.511 237.494 497.815 236.881H497.879V238H499.434V232.567C499.434 230.186 497.559 229.712 496.259 229.712C494.779 229.712 493.415 230.308 492.882 231.8L494.379 232.141C494.614 231.56 495.21 231.001 496.281 231.001C497.309 231.001 497.836 231.539 497.836 232.466V232.503C497.836 233.083 497.24 233.073 495.769 233.243C494.219 233.424 492.632 233.829 492.632 235.688C492.632 237.297 493.841 238.181 495.397 238.181ZM495.743 236.903C494.843 236.903 494.193 236.498 494.193 235.71C494.193 234.857 494.949 234.554 495.871 234.431C496.387 234.362 497.612 234.223 497.841 233.994V235.049C497.841 236.018 497.069 236.903 495.743 236.903ZM501.556 238H503.148V233.004C503.148 231.933 503.974 231.161 505.103 231.161C505.433 231.161 505.806 231.219 505.934 231.256V229.733C505.774 229.712 505.46 229.696 505.258 229.696C504.299 229.696 503.478 230.239 503.18 231.118H503.095V229.818H501.556V238ZM507.312 238H508.905V229.818H507.312V238ZM508.117 228.556C508.665 228.556 509.123 228.13 509.123 227.608C509.123 227.086 508.665 226.654 508.117 226.654C507.563 226.654 507.11 227.086 507.11 227.608C507.11 228.13 507.563 228.556 508.117 228.556ZM513.429 238.181C514.782 238.181 515.543 237.494 515.847 236.881H515.911V238H517.466V232.567C517.466 230.186 515.591 229.712 514.292 229.712C512.811 229.712 511.447 230.308 510.915 231.8L512.411 232.141C512.646 231.56 513.242 231.001 514.313 231.001C515.341 231.001 515.868 231.539 515.868 232.466V232.503C515.868 233.083 515.272 233.073 513.802 233.243C512.252 233.424 510.664 233.829 510.664 235.688C510.664 237.297 511.873 238.181 513.429 238.181ZM513.775 236.903C512.875 236.903 512.225 236.498 512.225 235.71C512.225 234.857 512.981 234.554 513.903 234.431C514.42 234.362 515.645 234.223 515.874 233.994V235.049C515.874 236.018 515.101 236.903 513.775 236.903Z" fill="#64778C"/>
<circle cx="570" cy="209" r="8" fill="url(#paint0_linear_1363_16809)"/>
<path d="M819 159L731 236" stroke="url(#paint1_linear_1363_16809)"/>
<path d="M888 24L834 139" stroke="url(#paint2_linear_1363_16809)"/>
<path d="M1002 193L839 152" stroke="url(#paint3_linear_1363_16809)"/>
<path d="M580 214L703 242" stroke="url(#paint4_linear_1363_16809)"/>
<path d="M634 111L710 233" stroke="url(#paint5_linear_1363_16809)"/>
<path d="M560.464 104H562.393V95.8182H560.464V104ZM561.434 94.657C562.046 94.657 562.547 94.1882 562.547 93.6129C562.547 93.0323 562.046 92.5636 561.434 92.5636C560.816 92.5636 560.315 93.0323 560.315 93.6129C560.315 94.1882 560.816 94.657 561.434 94.657ZM564.825 104H566.754V99.0249C566.754 98.0181 567.425 97.3363 568.256 97.3363C569.071 97.3363 569.63 97.8849 569.63 98.7266V104H571.521V98.897C571.521 97.9755 572.07 97.3363 573.002 97.3363C573.78 97.3363 574.398 97.7944 574.398 98.8065V104H576.331V98.5082C576.331 96.6811 575.276 95.7116 573.774 95.7116C572.586 95.7116 571.681 96.2976 571.319 97.2085H571.233C570.919 96.2816 570.126 95.7116 569.023 95.7116C567.926 95.7116 567.105 96.2763 566.764 97.2085H566.668V95.8182H564.825V104ZM581.092 104.165C582.375 104.165 583.143 103.563 583.494 102.876H583.558V104H585.412V98.5241C585.412 96.3615 583.649 95.7116 582.088 95.7116C580.367 95.7116 579.046 96.4787 578.62 97.9702L580.421 98.2259C580.612 97.6665 581.156 97.1871 582.098 97.1871C582.993 97.1871 583.483 97.6452 583.483 98.4496V98.4815C583.483 99.0355 582.903 99.0621 581.459 99.2166C579.872 99.3871 578.354 99.8612 578.354 101.704C578.354 103.313 579.531 104.165 581.092 104.165ZM581.592 102.748C580.788 102.748 580.213 102.381 580.213 101.672C580.213 100.932 580.857 100.623 581.72 100.5C582.226 100.431 583.238 100.303 583.489 100.101V101.065C583.489 101.976 582.754 102.748 581.592 102.748ZM591.359 107.239C593.569 107.239 595.199 106.227 595.199 104.133V95.8182H593.298V97.1712H593.191C592.898 96.5799 592.286 95.7116 590.842 95.7116C588.951 95.7116 587.465 97.1925 587.465 99.8825C587.465 102.551 588.951 103.883 590.837 103.883C592.238 103.883 592.893 103.132 593.191 102.53H593.287V104.08C593.287 105.284 592.488 105.779 591.391 105.779C590.23 105.779 589.718 105.23 589.484 104.751L587.747 105.172C588.099 106.317 589.276 107.239 591.359 107.239ZM591.375 102.37C590.102 102.37 589.431 101.379 589.431 99.8718C589.431 98.3857 590.091 97.2937 591.375 97.2937C592.616 97.2937 593.298 98.3217 593.298 99.8718C593.298 101.433 592.605 102.37 591.375 102.37ZM601.248 104.16C603.155 104.16 604.465 103.228 604.806 101.805L603.006 101.603C602.745 102.295 602.105 102.658 601.274 102.658C600.028 102.658 599.202 101.837 599.186 100.436H604.886V99.8452C604.886 96.9741 603.16 95.7116 601.147 95.7116C598.803 95.7116 597.274 97.4322 597.274 99.957C597.274 102.525 598.782 104.16 601.248 104.16ZM599.192 99.1367C599.25 98.0927 600.023 97.2138 601.173 97.2138C602.281 97.2138 603.027 98.0234 603.038 99.1367H599.192Z" fill="#6048E5"/>
<path d="M478.139 123.142C478.139 121.837 478.965 121.091 480.099 121.091C481.196 121.091 481.852 121.789 481.852 122.988V128H483.444V122.796C483.444 120.756 482.326 119.712 480.642 119.712C479.369 119.712 478.602 120.266 478.219 121.15H478.118V117.091H476.546V128H478.139V123.142ZM489.389 119.818H487.711V117.858H486.118V119.818H484.92V121.097H486.118V125.928C486.113 127.414 487.248 128.133 488.505 128.107C489.011 128.101 489.352 128.005 489.538 127.936L489.25 126.62C489.144 126.642 488.947 126.69 488.691 126.69C488.174 126.69 487.711 126.519 487.711 125.598V121.097H489.389V119.818ZM494.97 119.818H493.292V117.858H491.699V119.818H490.501V121.097H491.699V125.928C491.694 127.414 492.829 128.133 494.086 128.107C494.592 128.101 494.933 128.005 495.119 127.936L494.831 126.62C494.725 126.642 494.528 126.69 494.272 126.69C493.756 126.69 493.292 126.519 493.292 125.598V121.097H494.97V119.818ZM496.732 131.068H498.324V126.727H498.42C498.708 127.249 499.294 128.16 500.785 128.16C502.767 128.16 504.205 126.572 504.205 123.925C504.205 121.272 502.746 119.712 500.769 119.712C499.251 119.712 498.703 120.638 498.42 121.145H498.287V119.818H496.732V131.068ZM498.293 123.909C498.293 122.199 499.038 121.065 500.429 121.065C501.872 121.065 502.597 122.284 502.597 123.909C502.597 125.55 501.851 126.801 500.429 126.801C499.06 126.801 498.293 125.63 498.293 123.909ZM512.121 121.816C511.79 120.543 510.794 119.712 509.026 119.712C507.177 119.712 505.867 120.686 505.867 122.135C505.867 123.297 506.57 124.069 508.104 124.41L509.489 124.713C510.278 124.889 510.645 125.241 510.645 125.752C510.645 126.386 509.969 126.881 508.925 126.881C507.971 126.881 507.359 126.471 507.167 125.667L505.627 125.901C505.894 127.35 507.098 128.165 508.935 128.165C510.911 128.165 512.28 127.116 512.28 125.635C512.28 124.479 511.545 123.765 510.043 123.419L508.744 123.121C507.843 122.908 507.454 122.604 507.46 122.05C507.454 121.422 508.136 120.974 509.042 120.974C510.033 120.974 510.491 121.523 510.677 122.071L512.121 121.816ZM515.081 122.146C515.662 122.146 516.146 121.672 516.146 121.081C516.146 120.5 515.662 120.021 515.081 120.021C514.495 120.021 514.016 120.5 514.016 121.081C514.016 121.672 514.495 122.146 515.081 122.146ZM515.081 128.101C515.662 128.101 516.146 127.627 516.146 127.036C516.146 126.455 515.662 125.976 515.081 125.976C514.495 125.976 514.016 126.455 514.016 127.036C514.016 127.627 514.495 128.101 515.081 128.101ZM522.434 116.58H521.012L517.497 129.641H518.919L522.434 116.58ZM527.942 116.58H526.52L523.004 129.641H524.427L527.942 116.58ZM529.295 131.068H530.888V126.727H530.984C531.271 127.249 531.857 128.16 533.349 128.16C535.33 128.16 536.769 126.572 536.769 123.925C536.769 121.272 535.309 119.712 533.333 119.712C531.815 119.712 531.266 120.638 530.984 121.145H530.851V119.818H529.295V131.068ZM530.856 123.909C530.856 122.199 531.602 121.065 532.992 121.065C534.436 121.065 535.16 122.284 535.16 123.909C535.16 125.55 534.414 126.801 532.992 126.801C531.623 126.801 530.856 125.63 530.856 123.909ZM538.553 128H540.146V123.004C540.146 121.933 540.971 121.161 542.101 121.161C542.431 121.161 542.804 121.219 542.932 121.256V119.733C542.772 119.712 542.458 119.696 542.255 119.696C541.296 119.696 540.476 120.239 540.178 121.118H540.093V119.818H538.553V128ZM547.463 128.165C549.77 128.165 551.277 126.477 551.277 123.946C551.277 121.4 549.77 119.712 547.463 119.712C545.157 119.712 543.649 121.4 543.649 123.946C543.649 126.477 545.157 128.165 547.463 128.165ZM547.469 126.828C545.961 126.828 545.258 125.512 545.258 123.941C545.258 122.375 545.961 121.043 547.469 121.043C548.965 121.043 549.669 122.375 549.669 123.941C549.669 125.512 548.965 126.828 547.469 126.828ZM556.949 119.818H555.186V119.083C555.186 118.359 555.484 117.964 556.262 117.964C556.592 117.964 556.826 118.039 556.975 118.087L557.348 116.798C557.125 116.713 556.661 116.58 556.017 116.58C554.722 116.58 553.588 117.336 553.588 118.87V119.818H552.325V121.097H553.588V128H555.186V121.097H556.949V119.818ZM558.592 128H560.185V119.818H558.592V128ZM559.396 118.556C559.945 118.556 560.403 118.13 560.403 117.608C560.403 117.086 559.945 116.654 559.396 116.654C558.843 116.654 558.39 117.086 558.39 117.608C558.39 118.13 558.843 118.556 559.396 118.556ZM563.92 117.091H562.328V128H563.92V117.091ZM569.589 128.165C571.374 128.165 572.636 127.286 572.998 125.955L571.491 125.683C571.203 126.455 570.511 126.849 569.605 126.849C568.241 126.849 567.325 125.965 567.283 124.388H573.099V123.824C573.099 120.868 571.331 119.712 569.477 119.712C567.197 119.712 565.695 121.448 565.695 123.962C565.695 126.503 567.176 128.165 569.589 128.165ZM567.288 123.195C567.352 122.034 568.194 121.027 569.488 121.027C570.724 121.027 571.533 121.944 571.539 123.195H567.288ZM575.916 128.101C576.497 128.101 576.981 127.627 576.981 127.036C576.981 126.455 576.497 125.976 575.916 125.976C575.33 125.976 574.851 126.455 574.851 127.036C574.851 127.627 575.33 128.101 575.916 128.101ZM579.115 131.068H580.707V126.727H580.803C581.091 127.249 581.677 128.16 583.168 128.16C585.15 128.16 586.588 126.572 586.588 123.925C586.588 121.272 585.128 119.712 583.152 119.712C581.634 119.712 581.085 120.638 580.803 121.145H580.67V119.818H579.115V131.068ZM580.675 123.909C580.675 122.199 581.421 121.065 582.811 121.065C584.255 121.065 584.979 122.284 584.979 123.909C584.979 125.55 584.234 126.801 582.811 126.801C581.442 126.801 580.675 125.63 580.675 123.909ZM589.965 123.142C589.965 121.837 590.764 121.091 591.872 121.091C592.953 121.091 593.609 121.8 593.609 122.988V128H595.201V122.796C595.201 120.772 594.088 119.712 592.415 119.712C591.185 119.712 590.381 120.282 590.002 121.15H589.901V119.818H588.372V128H589.965V123.142ZM600.768 131.239C602.85 131.239 604.459 130.285 604.459 128.181V119.818H602.898V121.145H602.781C602.499 120.638 601.934 119.712 600.411 119.712C598.435 119.712 596.98 121.272 596.98 123.877C596.98 126.487 598.467 127.877 600.4 127.877C601.902 127.877 602.483 127.031 602.771 126.509H602.872V128.117C602.872 129.401 601.993 129.955 600.784 129.955C599.457 129.955 598.941 129.289 598.658 128.82L597.289 129.385C597.721 130.386 598.813 131.239 600.768 131.239ZM600.752 126.556C599.329 126.556 598.589 125.464 598.589 123.856C598.589 122.284 599.313 121.065 600.752 121.065C602.142 121.065 602.888 122.199 602.888 123.856C602.888 125.544 602.126 126.556 600.752 126.556Z" fill="#9EACBA"/>
<circle cx="622" cy="99" r="8" fill="url(#paint6_linear_1363_16809)"/>
<circle cx="831" cy="147" r="8" fill="url(#paint7_linear_1363_16809)"/>
<path d="M848.309 152H850.238V143.818H848.309V152ZM849.279 142.657C849.891 142.657 850.392 142.188 850.392 141.613C850.392 141.032 849.891 140.564 849.279 140.564C848.661 140.564 848.16 141.032 848.16 141.613C848.16 142.188 848.661 142.657 849.279 142.657ZM856.756 143.818H855.142V141.858H853.214V143.818H852.053V145.31H853.214V149.859C853.203 151.398 854.322 152.154 855.771 152.112C856.319 152.096 856.697 151.989 856.905 151.92L856.58 150.413C856.474 150.439 856.255 150.487 856.016 150.487C855.531 150.487 855.142 150.317 855.142 149.539V145.31H856.756V143.818ZM862.353 152.16C864.26 152.16 865.57 151.228 865.911 149.805L864.111 149.603C863.85 150.295 863.211 150.658 862.38 150.658C861.133 150.658 860.308 149.837 860.292 148.436H865.991V147.845C865.991 144.974 864.265 143.712 862.252 143.712C859.908 143.712 858.379 145.432 858.379 147.957C858.379 150.525 859.887 152.16 862.353 152.16ZM860.297 147.137C860.355 146.093 861.128 145.214 862.278 145.214C863.386 145.214 864.132 146.023 864.143 147.137H860.297ZM868.072 152H870.001V147.025C870.001 146.018 870.672 145.336 871.503 145.336C872.318 145.336 872.877 145.885 872.877 146.727V152H874.768V146.897C874.768 145.975 875.317 145.336 876.249 145.336C877.027 145.336 877.644 145.794 877.644 146.806V152H879.578V146.508C879.578 144.681 878.523 143.712 877.021 143.712C875.833 143.712 874.928 144.298 874.566 145.208H874.48C874.166 144.282 873.372 143.712 872.27 143.712C871.173 143.712 870.352 144.276 870.011 145.208H869.915V143.818H868.072V152ZM882.07 152H888.85V150.343H884.046V141.091H882.07V152ZM890.93 152H892.859V143.818H890.93V152ZM891.9 142.657C892.512 142.657 893.013 142.188 893.013 141.613C893.013 141.032 892.512 140.564 891.9 140.564C891.282 140.564 890.781 141.032 890.781 141.613C890.781 142.188 891.282 142.657 891.9 142.657ZM901.758 145.981C901.492 144.596 900.384 143.712 898.466 143.712C896.495 143.712 895.153 144.681 895.158 146.194C895.153 147.387 895.888 148.175 897.46 148.5L898.855 148.793C899.606 148.958 899.958 149.262 899.958 149.725C899.958 150.285 899.35 150.706 898.434 150.706C897.55 150.706 896.975 150.322 896.81 149.587L894.929 149.768C895.169 151.27 896.431 152.16 898.44 152.16C900.485 152.16 901.929 151.1 901.934 149.55C901.929 148.383 901.178 147.669 899.633 147.334L898.237 147.036C897.406 146.849 897.076 146.561 897.081 146.087C897.076 145.533 897.689 145.15 898.493 145.15C899.382 145.15 899.851 145.635 900 146.173L901.758 145.981ZM908.06 143.818H906.446V141.858H904.517V143.818H903.356V145.31H904.517V149.859C904.507 151.398 905.625 152.154 907.074 152.112C907.623 152.096 908.001 151.989 908.209 151.92L907.884 150.413C907.777 150.439 907.559 150.487 907.319 150.487C906.834 150.487 906.446 150.317 906.446 149.539V145.31H908.06V143.818Z" fill="#6048E5"/>
<path d="M849.169 178.269H852.669V177.007H850.692V165.943H852.669V164.681H849.169V178.269ZM855.248 176.101C855.829 176.101 856.313 175.627 856.313 175.036C856.313 174.455 855.829 173.976 855.248 173.976C854.662 173.976 854.183 174.455 854.183 175.036C854.183 175.627 854.662 176.101 855.248 176.101ZM859.496 176.101C860.077 176.101 860.561 175.627 860.561 175.036C860.561 174.455 860.077 173.976 859.496 173.976C858.91 173.976 858.431 174.455 858.431 175.036C858.431 175.627 858.91 176.101 859.496 176.101ZM863.744 176.101C864.325 176.101 864.809 175.627 864.809 175.036C864.809 174.455 864.325 173.976 863.744 173.976C863.158 173.976 862.679 174.455 862.679 175.036C862.679 175.627 863.158 176.101 863.744 176.101ZM869.83 164.681H866.33V165.943H868.306V177.007H866.33V178.269H869.83V164.681Z" fill="#64778C"/>
<line x1="719.5" y1="295" x2="719.5" y2="374" stroke="url(#paint8_linear_1363_16809)"/>
<circle cx="1010" cy="195" r="8" fill="url(#paint9_linear_1363_16809)"/>
<path d="M1029.34 189.091H1027.41V200H1029.34V189.091ZM1031.77 200H1033.7V191.818H1031.77V200ZM1032.74 190.657C1033.35 190.657 1033.86 190.188 1033.86 189.613C1033.86 189.032 1033.35 188.564 1032.74 188.564C1032.12 188.564 1031.62 189.032 1031.62 189.613C1031.62 190.188 1032.12 190.657 1032.74 190.657ZM1042.6 193.981C1042.33 192.596 1041.23 191.712 1039.31 191.712C1037.34 191.712 1036 192.681 1036 194.194C1036 195.387 1036.73 196.175 1038.3 196.5L1039.7 196.793C1040.45 196.958 1040.8 197.262 1040.8 197.725C1040.8 198.285 1040.19 198.706 1039.28 198.706C1038.39 198.706 1037.82 198.322 1037.65 197.587L1035.77 197.768C1036.01 199.27 1037.27 200.16 1039.28 200.16C1041.33 200.16 1042.77 199.1 1042.78 197.55C1042.77 196.383 1042.02 195.669 1040.47 195.334L1039.08 195.036C1038.25 194.849 1037.92 194.561 1037.92 194.087C1037.92 193.533 1038.53 193.15 1039.33 193.15C1040.22 193.15 1040.69 193.635 1040.84 194.173L1042.6 193.981ZM1048.9 191.818H1047.29V189.858H1045.36V191.818H1044.2V193.31H1045.36V197.859C1045.35 199.398 1046.47 200.154 1047.92 200.112C1048.46 200.096 1048.84 199.989 1049.05 199.92L1048.73 198.413C1048.62 198.439 1048.4 198.487 1048.16 198.487C1047.68 198.487 1047.29 198.317 1047.29 197.539V193.31H1048.9V191.818ZM1053.2 189.091H1051.23V200H1053.2V189.091ZM1059.79 191.818H1058.18V189.858H1056.25V191.818H1055.09V193.31H1056.25V197.859C1056.24 199.398 1057.36 200.154 1058.81 200.112C1059.36 200.096 1059.73 199.989 1059.94 199.92L1059.62 198.413C1059.51 198.439 1059.29 198.487 1059.05 198.487C1058.57 198.487 1058.18 198.317 1058.18 197.539V193.31H1059.79V191.818ZM1065.39 200.16C1067.3 200.16 1068.61 199.228 1068.95 197.805L1067.15 197.603C1066.89 198.295 1066.25 198.658 1065.42 198.658C1064.17 198.658 1063.34 197.837 1063.33 196.436H1069.03V195.845C1069.03 192.974 1067.3 191.712 1065.29 191.712C1062.94 191.712 1061.42 193.432 1061.42 195.957C1061.42 198.525 1062.92 200.16 1065.39 200.16ZM1063.33 195.137C1063.39 194.093 1064.16 193.214 1065.31 193.214C1066.42 193.214 1067.17 194.023 1067.18 195.137H1063.33ZM1071.11 200H1073.04V195.025C1073.04 194.018 1073.71 193.336 1074.54 193.336C1075.35 193.336 1075.91 193.885 1075.91 194.727V200H1077.8V194.897C1077.8 193.975 1078.35 193.336 1079.28 193.336C1080.06 193.336 1080.68 193.794 1080.68 194.806V200H1082.61V194.508C1082.61 192.681 1081.56 191.712 1080.06 191.712C1078.87 191.712 1077.96 192.298 1077.6 193.208H1077.52C1077.2 192.282 1076.41 191.712 1075.31 191.712C1074.21 191.712 1073.39 192.276 1073.05 193.208H1072.95V191.818H1071.11V200Z" fill="#6048E5"/>
<path d="M1026.97 216.5H1028.33V215.461C1028.33 214.657 1028.68 213.98 1029.12 213.347L1028.33 212.782C1027.51 213.437 1026.97 214.572 1026.97 215.477V216.5ZM1029.69 216.5H1031.05V215.461C1031.05 214.657 1031.4 213.98 1031.83 213.347L1031.04 212.782C1030.23 213.437 1029.69 214.572 1029.69 215.477V216.5ZM1035.46 224H1037.13L1039.42 215.829H1039.51L1041.8 224H1043.46L1046.49 213.091H1044.75L1042.63 221.544H1042.53L1040.32 213.091H1038.61L1036.4 221.539H1036.3L1034.17 213.091H1032.44L1035.46 224ZM1047.35 224H1048.94V219.004C1048.94 217.933 1049.77 217.161 1050.9 217.161C1051.23 217.161 1051.6 217.219 1051.73 217.256V215.733C1051.57 215.712 1051.26 215.696 1051.05 215.696C1050.09 215.696 1049.27 216.239 1048.98 217.118H1048.89V215.818H1047.35V224ZM1053.11 224H1054.7V215.818H1053.11V224ZM1053.91 214.556C1054.46 214.556 1054.92 214.13 1054.92 213.608C1054.92 213.086 1054.46 212.654 1053.91 212.654C1053.36 212.654 1052.91 213.086 1052.91 213.608C1052.91 214.13 1053.36 214.556 1053.91 214.556ZM1060.66 215.818H1058.98V213.858H1057.39V215.818H1056.19V217.097H1057.39V221.928C1057.39 223.414 1058.52 224.133 1059.78 224.107C1060.28 224.101 1060.63 224.005 1060.81 223.936L1060.52 222.62C1060.42 222.642 1060.22 222.69 1059.97 222.69C1059.45 222.69 1058.98 222.519 1058.98 221.598V217.097H1060.66V215.818ZM1065.86 224.165C1067.65 224.165 1068.91 223.286 1069.27 221.955L1067.76 221.683C1067.48 222.455 1066.78 222.849 1065.88 222.849C1064.52 222.849 1063.6 221.965 1063.56 220.388H1069.37V219.824C1069.37 216.868 1067.6 215.712 1065.75 215.712C1063.47 215.712 1061.97 217.448 1061.97 219.962C1061.97 222.503 1063.45 224.165 1065.86 224.165ZM1063.56 219.195C1063.63 218.034 1064.47 217.027 1065.76 217.027C1067 217.027 1067.81 217.944 1067.81 219.195H1063.56ZM1078.93 215.818H1077.25V213.858H1075.66V215.818H1074.46V217.097H1075.66V221.928C1075.65 223.414 1076.79 224.133 1078.05 224.107C1078.55 224.101 1078.89 224.005 1079.08 223.936L1078.79 222.62C1078.68 222.642 1078.49 222.69 1078.23 222.69C1077.71 222.69 1077.25 222.519 1077.25 221.598V217.097H1078.93V215.818ZM1084.13 224.165C1085.91 224.165 1087.18 223.286 1087.54 221.955L1086.03 221.683C1085.74 222.455 1085.05 222.849 1084.15 222.849C1082.78 222.849 1081.87 221.965 1081.82 220.388H1087.64V219.824C1087.64 216.868 1085.87 215.712 1084.02 215.712C1081.74 215.712 1080.24 217.448 1080.24 219.962C1080.24 222.503 1081.72 224.165 1084.13 224.165ZM1081.83 219.195C1081.89 218.034 1082.73 217.027 1084.03 217.027C1085.26 217.027 1086.07 217.944 1086.08 219.195H1081.83ZM1095.54 217.816C1095.21 216.543 1094.21 215.712 1092.44 215.712C1090.59 215.712 1089.28 216.686 1089.28 218.135C1089.28 219.297 1089.99 220.069 1091.52 220.41L1092.91 220.713C1093.7 220.889 1094.06 221.241 1094.06 221.752C1094.06 222.386 1093.39 222.881 1092.34 222.881C1091.39 222.881 1090.78 222.471 1090.58 221.667L1089.04 221.901C1089.31 223.35 1090.52 224.165 1092.35 224.165C1094.33 224.165 1095.7 223.116 1095.7 221.635C1095.7 220.479 1094.96 219.765 1093.46 219.419L1092.16 219.121C1091.26 218.908 1090.87 218.604 1090.88 218.05C1090.87 217.422 1091.55 216.974 1092.46 216.974C1093.45 216.974 1093.91 217.523 1094.09 218.071L1095.54 217.816ZM1101.27 215.818H1099.59V213.858H1098V215.818H1096.8V217.097H1098V221.928C1097.99 223.414 1099.13 224.133 1100.38 224.107C1100.89 224.101 1101.23 224.005 1101.42 223.936L1101.13 222.62C1101.02 222.642 1100.83 222.69 1100.57 222.69C1100.05 222.69 1099.59 222.519 1099.59 221.598V217.097H1101.27V215.818ZM1109.03 217.816C1108.7 216.543 1107.7 215.712 1105.93 215.712C1104.09 215.712 1102.78 216.686 1102.78 218.135C1102.78 219.297 1103.48 220.069 1105.01 220.41L1106.4 220.713C1107.19 220.889 1107.55 221.241 1107.55 221.752C1107.55 222.386 1106.88 222.881 1105.83 222.881C1104.88 222.881 1104.27 222.471 1104.08 221.667L1102.54 221.901C1102.8 223.35 1104.01 224.165 1105.84 224.165C1107.82 224.165 1109.19 223.116 1109.19 221.635C1109.19 220.479 1108.45 219.765 1106.95 219.419L1105.65 219.121C1104.75 218.908 1104.36 218.604 1104.37 218.05C1104.36 217.422 1105.04 216.974 1105.95 216.974C1106.94 216.974 1107.4 217.523 1107.59 218.071L1109.03 217.816ZM1112.31 213.091H1110.95V214.13C1110.95 214.955 1110.58 215.632 1110.17 216.244L1110.96 216.809C1111.78 216.148 1112.31 215.019 1112.31 214.114V213.091ZM1115.02 213.091H1113.66V214.13C1113.66 214.955 1113.29 215.632 1112.88 216.244L1113.67 216.809C1114.49 216.148 1115.02 215.019 1115.02 214.114V213.091Z" fill="#64778C"/>
<circle cx="896" cy="12" r="8" fill="url(#paint10_linear_1363_16809)"/>
<path d="M915.34 6.09091H913.411V17H915.34V6.09091ZM917.773 17H919.701V8.81818H917.773V17ZM918.742 7.65696C919.355 7.65696 919.855 7.18821 919.855 6.61293C919.855 6.03232 919.355 5.56357 918.742 5.56357C918.124 5.56357 917.623 6.03232 917.623 6.61293C917.623 7.18821 918.124 7.65696 918.742 7.65696ZM928.6 10.9808C928.334 9.59588 927.226 8.71165 925.308 8.71165C923.337 8.71165 921.995 9.68111 922 11.1939C921.995 12.3871 922.73 13.1754 924.302 13.5004L925.697 13.7933C926.448 13.9585 926.8 14.2621 926.8 14.7255C926.8 15.2848 926.193 15.7056 925.276 15.7056C924.392 15.7056 923.817 15.3221 923.652 14.587L921.771 14.7681C922.011 16.2702 923.274 17.1598 925.282 17.1598C927.327 17.1598 928.771 16.0998 928.776 14.5497C928.771 13.3832 928.02 12.6694 926.475 12.3338L925.079 12.0355C924.248 11.8491 923.918 11.5614 923.923 11.0874C923.918 10.5334 924.531 10.1499 925.335 10.1499C926.225 10.1499 926.693 10.6346 926.842 11.1726L928.6 10.9808ZM934.902 8.81818H933.288V6.85795H931.359V8.81818H930.198V10.3097H931.359V14.8587C931.349 16.3981 932.467 17.1545 933.916 17.1119C934.465 17.0959 934.843 16.9893 935.051 16.9201L934.726 15.4126C934.619 15.4393 934.401 15.4872 934.161 15.4872C933.676 15.4872 933.288 15.3168 933.288 14.5391V10.3097H934.902V8.81818ZM939.202 6.09091H937.225V17H939.202V6.09091ZM945.792 8.81818H944.178V6.85795H942.25V8.81818H941.088V10.3097H942.25V14.8587C942.239 16.3981 943.358 17.1545 944.806 17.1119C945.355 17.0959 945.733 16.9893 945.941 16.9201L945.616 15.4126C945.51 15.4393 945.291 15.4872 945.051 15.4872C944.567 15.4872 944.178 15.3168 944.178 14.5391V10.3097H945.792V8.81818ZM951.389 17.1598C953.296 17.1598 954.606 16.2276 954.947 14.8054L953.147 14.603C952.886 15.2955 952.246 15.6577 951.415 15.6577C950.169 15.6577 949.343 14.8374 949.327 13.4364H955.027V12.8452C955.027 9.97408 953.301 8.71165 951.288 8.71165C948.944 8.71165 947.415 10.4322 947.415 12.957C947.415 15.5245 948.923 17.1598 951.389 17.1598ZM949.333 12.1367C949.391 11.0927 950.164 10.2138 951.314 10.2138C952.422 10.2138 953.168 11.0234 953.179 12.1367H949.333ZM957.108 17H959.037V12.0249C959.037 11.0181 959.708 10.3363 960.539 10.3363C961.354 10.3363 961.913 10.8849 961.913 11.7266V17H963.804V11.897C963.804 10.9755 964.353 10.3363 965.285 10.3363C966.062 10.3363 966.68 10.7944 966.68 11.8065V17H968.614V11.5082C968.614 9.68111 967.559 8.71165 966.057 8.71165C964.869 8.71165 963.964 9.29759 963.602 10.2085H963.516C963.202 9.2816 962.408 8.71165 961.306 8.71165C960.208 8.71165 959.388 9.27628 959.047 10.2085H958.951V8.81818H957.108V17Z" fill="#6048E5"/>
<path d="M913.099 33.5H914.462V32.4613C914.462 31.657 914.814 30.9805 915.245 30.3466L914.457 29.782C913.642 30.4371 913.099 31.5717 913.099 32.4773V33.5ZM915.815 33.5H917.179V32.4613C917.179 31.657 917.53 30.9805 917.962 30.3466L917.174 29.782C916.359 30.4371 915.815 31.5717 915.815 32.4773V33.5ZM921.105 30.0909H919.459V41H921.105V30.0909ZM923.374 41H924.967V35.9556C924.967 34.853 925.739 34.0859 926.644 34.0859C927.529 34.0859 928.141 34.6719 928.141 35.5614V41H929.729V35.7852C929.729 34.7997 930.331 34.0859 931.369 34.0859C932.211 34.0859 932.903 34.5547 932.903 35.6626V41H934.496V35.5135C934.496 33.6438 933.452 32.7116 931.971 32.7116C930.794 32.7116 929.91 33.2763 929.516 34.1499H929.43C929.073 33.255 928.322 32.7116 927.23 32.7116C926.149 32.7116 925.345 33.2496 925.004 34.1499H924.903V32.8182H923.374V41ZM936.631 44.0682H938.223V39.7269H938.319C938.607 40.2489 939.193 41.1598 940.684 41.1598C942.666 41.1598 944.104 39.5724 944.104 36.9251C944.104 34.2724 942.645 32.7116 940.668 32.7116C939.15 32.7116 938.602 33.6385 938.319 34.1445H938.186V32.8182H936.631V44.0682ZM938.191 36.9091C938.191 35.1992 938.937 34.0646 940.327 34.0646C941.771 34.0646 942.495 35.2844 942.495 36.9091C942.495 38.5497 941.75 39.8015 940.327 39.8015C938.958 39.8015 938.191 38.6296 938.191 36.9091ZM947.481 30.0909H945.889V41H947.481V30.0909ZM953.15 41.1651C954.935 41.1651 956.197 40.2862 956.559 38.9545L955.052 38.6829C954.764 39.4553 954.072 39.8494 953.166 39.8494C951.803 39.8494 950.886 38.9652 950.844 37.3885H956.66V36.8239C956.66 33.8675 954.892 32.7116 953.038 32.7116C950.758 32.7116 949.256 34.4482 949.256 36.9624C949.256 39.5032 950.737 41.1651 953.15 41.1651ZM950.849 36.1953C950.913 35.0341 951.755 34.0273 953.049 34.0273C954.285 34.0273 955.094 34.9435 955.1 36.1953H950.849ZM958.428 41H960.02V35.9556C960.02 34.853 960.793 34.0859 961.698 34.0859C962.582 34.0859 963.195 34.6719 963.195 35.5614V41H964.782V35.7852C964.782 34.7997 965.384 34.0859 966.423 34.0859C967.265 34.0859 967.957 34.5547 967.957 35.6626V41H969.55V35.5135C969.55 33.6438 968.506 32.7116 967.025 32.7116C965.848 32.7116 964.963 33.2763 964.569 34.1499H964.484C964.127 33.255 963.376 32.7116 962.284 32.7116C961.203 32.7116 960.398 33.2496 960.058 34.1499H959.956V32.8182H958.428V41ZM975.211 41.1651C976.995 41.1651 978.258 40.2862 978.62 38.9545L977.112 38.6829C976.825 39.4553 976.132 39.8494 975.227 39.8494C973.863 39.8494 972.947 38.9652 972.904 37.3885H978.721V36.8239C978.721 33.8675 976.953 32.7116 975.099 32.7116C972.819 32.7116 971.317 34.4482 971.317 36.9624C971.317 39.5032 972.798 41.1651 975.211 41.1651ZM972.91 36.1953C972.973 35.0341 973.815 34.0273 975.11 34.0273C976.345 34.0273 977.155 34.9435 977.16 36.1953H972.91ZM982.081 36.142C982.081 34.837 982.88 34.0913 983.988 34.0913C985.069 34.0913 985.724 34.7997 985.724 35.9876V41H987.317V35.7958C987.317 33.7717 986.204 32.7116 984.531 32.7116C983.301 32.7116 982.496 33.2816 982.118 34.1499H982.017V32.8182H980.488V41H982.081V36.142ZM993.272 32.8182H991.594V30.858H990.002V32.8182H988.803V34.0966H990.002V38.9279C989.996 40.4141 991.131 41.1332 992.388 41.1065C992.894 41.1012 993.235 41.0053 993.421 40.9361L993.134 39.6204C993.027 39.6417 992.83 39.6896 992.574 39.6896C992.058 39.6896 991.594 39.5192 991.594 38.5977V34.0966H993.272V32.8182ZM1002.07 41.1598C1003.56 41.1598 1004.14 40.2489 1004.43 39.7269H1004.56V41H1006.12V30.0909H1004.53V34.1445H1004.43C1004.14 33.6385 1003.6 32.7116 1002.08 32.7116C1000.1 32.7116 998.647 34.2724 998.647 36.9251C998.647 39.5724 1000.08 41.1598 1002.07 41.1598ZM1002.42 39.8015C1001 39.8015 1000.26 38.5497 1000.26 36.9091C1000.26 35.2844 1000.98 34.0646 1002.42 34.0646C1003.81 34.0646 1004.55 35.1992 1004.55 36.9091C1004.55 38.6296 1003.79 39.8015 1002.42 39.8015ZM1008.39 41H1009.99V36.0036C1009.99 34.9329 1010.81 34.1605 1011.94 34.1605C1012.27 34.1605 1012.64 34.2191 1012.77 34.2564V32.733C1012.61 32.7116 1012.3 32.6957 1012.1 32.6957C1011.14 32.6957 1010.32 33.239 1010.02 34.1179H1009.93V32.8182H1008.39V41ZM1017.3 41.1651C1019.61 41.1651 1021.12 39.4766 1021.12 36.9464C1021.12 34.4002 1019.61 32.7116 1017.3 32.7116C1015 32.7116 1013.49 34.4002 1013.49 36.9464C1013.49 39.4766 1015 41.1651 1017.3 41.1651ZM1017.31 39.8281C1015.8 39.8281 1015.1 38.5124 1015.1 36.9411C1015.1 35.375 1015.8 34.0433 1017.31 34.0433C1018.81 34.0433 1019.51 35.375 1019.51 36.9411C1019.51 38.5124 1018.81 39.8281 1017.31 39.8281ZM1022.9 44.0682H1024.49V39.7269H1024.58C1024.87 40.2489 1025.46 41.1598 1026.95 41.1598C1028.93 41.1598 1030.37 39.5724 1030.37 36.9251C1030.37 34.2724 1028.91 32.7116 1026.93 32.7116C1025.41 32.7116 1024.87 33.6385 1024.58 34.1445H1024.45V32.8182H1022.9V44.0682ZM1024.46 36.9091C1024.46 35.1992 1025.2 34.0646 1026.59 34.0646C1028.04 34.0646 1028.76 35.2844 1028.76 36.9091C1028.76 38.5497 1028.01 39.8015 1026.59 39.8015C1025.22 39.8015 1024.46 38.6296 1024.46 36.9091ZM1035.22 41.1598C1036.71 41.1598 1037.29 40.2489 1037.58 39.7269H1037.71V41H1039.27V30.0909H1037.68V34.1445H1037.58C1037.29 33.6385 1036.75 32.7116 1035.23 32.7116C1033.25 32.7116 1031.8 34.2724 1031.8 36.9251C1031.8 39.5724 1033.23 41.1598 1035.22 41.1598ZM1035.57 39.8015C1034.15 39.8015 1033.4 38.5497 1033.4 36.9091C1033.4 35.2844 1034.13 34.0646 1035.57 34.0646C1036.96 34.0646 1037.7 35.1992 1037.7 36.9091C1037.7 38.6296 1036.94 39.8015 1035.57 39.8015ZM1044.99 41.1651C1047.3 41.1651 1048.8 39.4766 1048.8 36.9464C1048.8 34.4002 1047.3 32.7116 1044.99 32.7116C1042.68 32.7116 1041.18 34.4002 1041.18 36.9464C1041.18 39.4766 1042.68 41.1651 1044.99 41.1651ZM1044.99 39.8281C1043.49 39.8281 1042.78 38.5124 1042.78 36.9411C1042.78 35.375 1043.49 34.0433 1044.99 34.0433C1046.49 34.0433 1047.19 35.375 1047.19 36.9411C1047.19 38.5124 1046.49 39.8281 1044.99 39.8281ZM1052.11 41H1053.73L1055.39 35.0927H1055.51L1057.17 41H1058.8L1061.2 32.8182H1059.55L1057.96 38.8001H1057.88L1056.28 32.8182H1054.64L1053.03 38.8267H1052.95L1051.34 32.8182H1049.7L1052.11 41ZM1064.3 36.142C1064.3 34.837 1065.1 34.0913 1066.21 34.0913C1067.29 34.0913 1067.95 34.7997 1067.95 35.9876V41H1069.54V35.7958C1069.54 33.7717 1068.43 32.7116 1066.75 32.7116C1065.52 32.7116 1064.72 33.2816 1064.34 34.1499H1064.24V32.8182H1062.71V41H1064.3V36.142ZM1075.64 41H1077.24V35.9556C1077.24 34.853 1078.01 34.0859 1078.91 34.0859C1079.8 34.0859 1080.41 34.6719 1080.41 35.5614V41H1082V35.7852C1082 34.7997 1082.6 34.0859 1083.64 34.0859C1084.48 34.0859 1085.17 34.5547 1085.17 35.6626V41H1086.77V35.5135C1086.77 33.6438 1085.72 32.7116 1084.24 32.7116C1083.06 32.7116 1082.18 33.2763 1081.79 34.1499H1081.7C1081.34 33.255 1080.59 32.7116 1079.5 32.7116C1078.42 32.7116 1077.62 33.2496 1077.27 34.1499H1077.17V32.8182H1075.64V41ZM1092.43 41.1651C1094.21 41.1651 1095.47 40.2862 1095.84 38.9545L1094.33 38.6829C1094.04 39.4553 1093.35 39.8494 1092.44 39.8494C1091.08 39.8494 1090.16 38.9652 1090.12 37.3885H1095.94V36.8239C1095.94 33.8675 1094.17 32.7116 1092.32 32.7116C1090.04 32.7116 1088.53 34.4482 1088.53 36.9624C1088.53 39.5032 1090.01 41.1651 1092.43 41.1651ZM1090.13 36.1953C1090.19 35.0341 1091.03 34.0273 1092.33 34.0273C1093.56 34.0273 1094.37 34.9435 1094.38 36.1953H1090.13ZM1099.3 36.142C1099.3 34.837 1100.1 34.0913 1101.2 34.0913C1102.29 34.0913 1102.94 34.7997 1102.94 35.9876V41H1104.53V35.7958C1104.53 33.7717 1103.42 32.7116 1101.75 32.7116C1100.52 32.7116 1099.71 33.2816 1099.33 34.1499H1099.23V32.8182H1097.7V41H1099.3V36.142ZM1111.85 37.6069C1111.86 38.9972 1110.82 39.6577 1109.93 39.6577C1108.94 39.6577 1108.26 38.9439 1108.26 37.8306V32.8182H1106.67V38.0224C1106.67 40.0518 1107.78 41.1065 1109.35 41.1065C1110.58 41.1065 1111.42 40.4567 1111.8 39.5831H1111.88V41H1113.45V32.8182H1111.85V37.6069ZM1117.18 30.0909H1115.82V31.1296C1115.82 31.9553 1115.45 32.6317 1115.04 33.2443L1115.83 33.8089C1116.65 33.1484 1117.18 32.0192 1117.18 31.1136V30.0909ZM1119.89 30.0909H1118.53V31.1296C1118.53 31.9553 1118.16 32.6317 1117.75 33.2443L1118.54 33.8089C1119.36 33.1484 1119.89 32.0192 1119.89 31.1136V30.0909Z" fill="#64778C"/>
<circle opacity="0.1" cx="719" cy="247" r="47.5" stroke="#6048E5"/>
<circle opacity="0.3" cx="719" cy="247" r="15" stroke="#6048E5" stroke-width="2"/>
<circle cx="719" cy="247" r="9" fill="url(#paint11_linear_1363_16809)"/>
<path d="M688.453 285H690.429V281.314H692.517C695.037 281.314 696.39 279.801 696.39 277.702C696.39 275.62 695.053 274.091 692.544 274.091H688.453V285ZM690.429 279.689V275.742H692.24C693.721 275.742 694.376 276.541 694.376 277.702C694.376 278.864 693.721 279.689 692.251 279.689H690.429ZM698.556 285H705.694V283.343H700.532V280.366H705.284V278.709H700.532V275.748H705.651V274.091H698.556V285ZM708.118 285H710.094V281.005H712.107L714.249 285H716.454L714.094 280.675C715.378 280.158 716.054 279.061 716.054 277.58C716.054 275.497 714.712 274.091 712.209 274.091H708.118V285ZM710.094 279.364V275.742H711.905C713.38 275.742 714.041 276.419 714.041 277.58C714.041 278.741 713.38 279.364 711.916 279.364H710.094ZM724.252 277.09H726.154C726.116 275.247 724.545 273.942 722.223 273.942C719.932 273.942 718.212 275.231 718.217 277.159C718.217 278.725 719.33 279.625 721.125 280.089L722.366 280.408C723.544 280.707 724.321 281.074 724.327 281.921C724.321 282.853 723.437 283.477 722.148 283.477C720.912 283.477 719.953 282.923 719.874 281.777H717.929C718.009 283.945 719.623 285.165 722.164 285.165C724.779 285.165 726.298 283.86 726.303 281.937C726.298 280.046 724.737 279.183 723.096 278.794L722.073 278.539C721.179 278.326 720.209 277.947 720.22 277.037C720.225 276.216 720.96 275.614 722.196 275.614C723.373 275.614 724.151 276.163 724.252 277.09ZM738.263 279.545C738.263 276.019 736.111 273.942 733.25 273.942C730.384 273.942 728.238 276.019 728.238 279.545C728.238 283.066 730.384 285.149 733.25 285.149C736.111 285.149 738.263 283.072 738.263 279.545ZM736.276 279.545C736.276 282.028 735.029 283.375 733.25 283.375C731.476 283.375 730.225 282.028 730.225 279.545C730.225 277.063 731.476 275.716 733.25 275.716C735.029 275.716 736.276 277.063 736.276 279.545ZM749.546 274.091H747.58V281.527H747.484L742.349 274.091H740.581V285H742.557V277.569H742.648L747.788 285H749.546V274.091Z" fill="#6048E5"/>
<rect x="-1" y="171" width="96" height="51" fill="white"/>
<defs>
<linearGradient id="paint0_linear_1363_16809" x1="570" y1="201" x2="570" y2="217" gradientUnits="userSpaceOnUse">
<stop stop-color="#7963F5"/>
<stop offset="1" stop-color="#5D46DB"/>
</linearGradient>
<linearGradient id="paint1_linear_1363_16809" x1="731" y1="236.001" x2="821.726" y2="231.018" gradientUnits="userSpaceOnUse">
<stop stop-color="#BDB4FE"/>
<stop offset="1" stop-color="#BDB4FE" stop-opacity="0"/>
</linearGradient>
<linearGradient id="paint2_linear_1363_16809" x1="834" y1="139.001" x2="889.812" y2="137.742" gradientUnits="userSpaceOnUse">
<stop stop-color="#BDB4FE"/>
<stop offset="1" stop-color="#BDB4FE" stop-opacity="0"/>
</linearGradient>
<linearGradient id="paint3_linear_1363_16809" x1="839" y1="152" x2="1001.62" y2="183.07" gradientUnits="userSpaceOnUse">
<stop stop-color="#BDB4FE" stop-opacity="0"/>
<stop offset="1" stop-color="#BDB4FE"/>
</linearGradient>
<linearGradient id="paint4_linear_1363_16809" x1="703" y1="242" x2="581.5" y2="215" gradientUnits="userSpaceOnUse">
<stop stop-color="#BDB4FE"/>
<stop offset="1" stop-color="#BDB4FE" stop-opacity="0"/>
</linearGradient>
<linearGradient id="paint5_linear_1363_16809" x1="710" y1="233.001" x2="631.48" y2="230.65" gradientUnits="userSpaceOnUse">
<stop stop-color="#BDB4FE"/>
<stop offset="1" stop-color="#BDB4FE" stop-opacity="0"/>
</linearGradient>
<linearGradient id="paint6_linear_1363_16809" x1="622" y1="91" x2="622" y2="107" gradientUnits="userSpaceOnUse">
<stop stop-color="#7963F5"/>
<stop offset="1" stop-color="#5D46DB"/>
</linearGradient>
<linearGradient id="paint7_linear_1363_16809" x1="831" y1="139" x2="831" y2="155" gradientUnits="userSpaceOnUse">
<stop stop-color="#7963F5"/>
<stop offset="1" stop-color="#5D46DB"/>
</linearGradient>
<linearGradient id="paint8_linear_1363_16809" x1="718" y1="295" x2="748.874" y2="303.604" gradientUnits="userSpaceOnUse">
<stop stop-color="#BDB4FE"/>
<stop offset="1" stop-color="#BDB4FE" stop-opacity="0"/>
</linearGradient>
<linearGradient id="paint9_linear_1363_16809" x1="1010" y1="187" x2="1010" y2="203" gradientUnits="userSpaceOnUse">
<stop stop-color="#7963F5"/>
<stop offset="1" stop-color="#5D46DB"/>
</linearGradient>
<linearGradient id="paint10_linear_1363_16809" x1="896" y1="4" x2="896" y2="20" gradientUnits="userSpaceOnUse">
<stop stop-color="#7963F5"/>
<stop offset="1" stop-color="#5D46DB"/>
</linearGradient>
<linearGradient id="paint11_linear_1363_16809" x1="719" y1="238" x2="719" y2="256" gradientUnits="userSpaceOnUse">
<stop stop-color="#7963F5"/>
<stop offset="1" stop-color="#5D46DB"/>
</linearGradient>
</defs>
</svg>
