<svg width="1439" height="394" viewBox="0 0 1439 394" fill="none" xmlns="http://www.w3.org/2000/svg">
<circle cx="779" cy="12" r="7" stroke="#C5D1DB" stroke-width="2"/>
<path d="M796.464 17H798.393V8.81818H796.464V17ZM797.434 7.65696C798.046 7.65696 798.547 7.18821 798.547 6.61293C798.547 6.03232 798.046 5.56357 797.434 5.56357C796.816 5.56357 796.315 6.03232 796.315 6.61293C796.315 7.18821 796.816 7.65696 797.434 7.65696ZM800.825 17H802.754V12.0249C802.754 11.0181 803.425 10.3363 804.256 10.3363C805.071 10.3363 805.63 10.8849 805.63 11.7266V17H807.521V11.897C807.521 10.9755 808.07 10.3363 809.002 10.3363C809.78 10.3363 810.398 10.7944 810.398 11.8065V17H812.331V11.5082C812.331 9.68111 811.276 8.71165 809.774 8.71165C808.586 8.71165 807.681 9.29759 807.319 10.2085H807.233C806.919 9.2816 806.126 8.71165 805.023 8.71165C803.926 8.71165 803.105 9.27628 802.764 10.2085H802.668V8.81818H800.825V17ZM817.092 17.1651C818.375 17.1651 819.143 16.5632 819.494 15.8761H819.558V17H821.412V11.5241C821.412 9.36151 819.649 8.71165 818.088 8.71165C816.367 8.71165 815.046 9.47869 814.62 10.9702L816.421 11.2259C816.612 10.6665 817.156 10.1871 818.098 10.1871C818.993 10.1871 819.483 10.6452 819.483 11.4496V11.4815C819.483 12.0355 818.903 12.0621 817.459 12.2166C815.872 12.3871 814.354 12.8612 814.354 14.7042C814.354 16.3129 815.531 17.1651 817.092 17.1651ZM817.592 15.7482C816.788 15.7482 816.213 15.3807 816.213 14.6722C816.213 13.9318 816.857 13.6229 817.72 13.5004C818.226 13.4311 819.238 13.3033 819.489 13.1009V14.065C819.489 14.9759 818.754 15.7482 817.592 15.7482ZM827.359 20.2386C829.569 20.2386 831.199 19.2266 831.199 17.1332V8.81818H829.298V10.1712H829.191C828.898 9.5799 828.286 8.71165 826.842 8.71165C824.951 8.71165 823.465 10.1925 823.465 12.8825C823.465 15.5511 824.951 16.8828 826.837 16.8828C828.238 16.8828 828.893 16.1317 829.191 15.5298H829.287V17.0799C829.287 18.2837 828.488 18.7791 827.391 18.7791C826.23 18.7791 825.718 18.2305 825.484 17.7511L823.747 18.1719C824.099 19.3171 825.276 20.2386 827.359 20.2386ZM827.375 15.37C826.102 15.37 825.431 14.3793 825.431 12.8718C825.431 11.3857 826.091 10.2937 827.375 10.2937C828.616 10.2937 829.298 11.3217 829.298 12.8718C829.298 14.4325 828.605 15.37 827.375 15.37ZM837.248 17.1598C839.155 17.1598 840.465 16.2276 840.806 14.8054L839.006 14.603C838.745 15.2955 838.105 15.6577 837.274 15.6577C836.028 15.6577 835.202 14.8374 835.186 13.4364H840.886V12.8452C840.886 9.97408 839.16 8.71165 837.147 8.71165C834.803 8.71165 833.274 10.4322 833.274 12.957C833.274 15.5245 834.782 17.1598 837.248 17.1598ZM835.192 12.1367C835.25 11.0927 836.023 10.2138 837.173 10.2138C838.281 10.2138 839.027 11.0234 839.038 12.1367H835.192Z" fill="#C5D1DB"/>
<path d="M798.139 36.142C798.139 34.837 798.965 34.0913 800.099 34.0913C801.196 34.0913 801.852 34.7891 801.852 35.9876V41H803.444V35.7958C803.444 33.7557 802.326 32.7116 800.642 32.7116C799.369 32.7116 798.602 33.2656 798.219 34.1499H798.118V30.0909H796.546V41H798.139V36.142ZM809.389 32.8182H807.711V30.858H806.118V32.8182H804.92V34.0966H806.118V38.9279C806.113 40.4141 807.248 41.1332 808.505 41.1065C809.011 41.1012 809.352 41.0053 809.538 40.9361L809.25 39.6204C809.144 39.6417 808.947 39.6896 808.691 39.6896C808.174 39.6896 807.711 39.5192 807.711 38.5977V34.0966H809.389V32.8182ZM814.97 32.8182H813.292V30.858H811.699V32.8182H810.501V34.0966H811.699V38.9279C811.694 40.4141 812.829 41.1332 814.086 41.1065C814.592 41.1012 814.933 41.0053 815.119 40.9361L814.831 39.6204C814.725 39.6417 814.528 39.6896 814.272 39.6896C813.756 39.6896 813.292 39.5192 813.292 38.5977V34.0966H814.97V32.8182ZM816.732 44.0682H818.324V39.7269H818.42C818.708 40.2489 819.294 41.1598 820.785 41.1598C822.767 41.1598 824.205 39.5724 824.205 36.9251C824.205 34.2724 822.746 32.7116 820.769 32.7116C819.251 32.7116 818.703 33.6385 818.42 34.1445H818.287V32.8182H816.732V44.0682ZM818.293 36.9091C818.293 35.1992 819.038 34.0646 820.429 34.0646C821.872 34.0646 822.597 35.2844 822.597 36.9091C822.597 38.5497 821.851 39.8015 820.429 39.8015C819.06 39.8015 818.293 38.6296 818.293 36.9091ZM832.121 34.8157C831.79 33.5426 830.794 32.7116 829.026 32.7116C827.177 32.7116 825.867 33.6864 825.867 35.1353C825.867 36.2965 826.57 37.0689 828.104 37.4098L829.489 37.7134C830.278 37.8892 830.645 38.2408 830.645 38.7521C830.645 39.386 829.969 39.8814 828.925 39.8814C827.971 39.8814 827.359 39.4712 827.167 38.6669L825.627 38.9013C825.894 40.3501 827.098 41.1651 828.935 41.1651C830.911 41.1651 832.28 40.1158 832.28 38.6349C832.28 37.479 831.545 36.7653 830.043 36.419L828.744 36.1207C827.843 35.9077 827.454 35.604 827.46 35.0501C827.454 34.4215 828.136 33.9741 829.042 33.9741C830.033 33.9741 830.491 34.5227 830.677 35.0714L832.121 34.8157ZM835.081 35.146C835.662 35.146 836.146 34.6719 836.146 34.0806C836.146 33.5 835.662 33.0206 835.081 33.0206C834.495 33.0206 834.016 33.5 834.016 34.0806C834.016 34.6719 834.495 35.146 835.081 35.146ZM835.081 41.1012C835.662 41.1012 836.146 40.6271 836.146 40.0359C836.146 39.4553 835.662 38.9759 835.081 38.9759C834.495 38.9759 834.016 39.4553 834.016 40.0359C834.016 40.6271 834.495 41.1012 835.081 41.1012ZM842.434 29.5795H841.012L837.497 42.6406H838.919L842.434 29.5795ZM847.942 29.5795H846.52L843.004 42.6406H844.427L847.942 29.5795ZM849.295 44.0682H850.888V39.7269H850.984C851.271 40.2489 851.857 41.1598 853.349 41.1598C855.33 41.1598 856.769 39.5724 856.769 36.9251C856.769 34.2724 855.309 32.7116 853.333 32.7116C851.815 32.7116 851.266 33.6385 850.984 34.1445H850.851V32.8182H849.295V44.0682ZM850.856 36.9091C850.856 35.1992 851.602 34.0646 852.992 34.0646C854.436 34.0646 855.16 35.2844 855.16 36.9091C855.16 38.5497 854.414 39.8015 852.992 39.8015C851.623 39.8015 850.856 38.6296 850.856 36.9091ZM858.553 41H860.146V36.0036C860.146 34.9329 860.971 34.1605 862.101 34.1605C862.431 34.1605 862.804 34.2191 862.932 34.2564V32.733C862.772 32.7116 862.458 32.6957 862.255 32.6957C861.296 32.6957 860.476 33.239 860.178 34.1179H860.093V32.8182H858.553V41ZM867.463 41.1651C869.77 41.1651 871.277 39.4766 871.277 36.9464C871.277 34.4002 869.77 32.7116 867.463 32.7116C865.157 32.7116 863.649 34.4002 863.649 36.9464C863.649 39.4766 865.157 41.1651 867.463 41.1651ZM867.469 39.8281C865.961 39.8281 865.258 38.5124 865.258 36.9411C865.258 35.375 865.961 34.0433 867.469 34.0433C868.965 34.0433 869.669 35.375 869.669 36.9411C869.669 38.5124 868.965 39.8281 867.469 39.8281ZM876.949 32.8182H875.186V32.0831C875.186 31.3587 875.484 30.9645 876.262 30.9645C876.592 30.9645 876.826 31.0391 876.975 31.087L877.348 29.7979C877.125 29.7127 876.661 29.5795 876.017 29.5795C874.722 29.5795 873.588 30.3359 873.588 31.87V32.8182H872.325V34.0966H873.588V41H875.186V34.0966H876.949V32.8182ZM878.592 41H880.185V32.8182H878.592V41ZM879.396 31.5558C879.945 31.5558 880.403 31.1296 880.403 30.6076C880.403 30.0856 879.945 29.6541 879.396 29.6541C878.843 29.6541 878.39 30.0856 878.39 30.6076C878.39 31.1296 878.843 31.5558 879.396 31.5558ZM883.92 30.0909H882.328V41H883.92V30.0909ZM889.589 41.1651C891.374 41.1651 892.636 40.2862 892.998 38.9545L891.491 38.6829C891.203 39.4553 890.511 39.8494 889.605 39.8494C888.241 39.8494 887.325 38.9652 887.283 37.3885H893.099V36.8239C893.099 33.8675 891.331 32.7116 889.477 32.7116C887.197 32.7116 885.695 34.4482 885.695 36.9624C885.695 39.5032 887.176 41.1651 889.589 41.1651ZM887.288 36.1953C887.352 35.0341 888.194 34.0273 889.488 34.0273C890.724 34.0273 891.533 34.9435 891.539 36.1953H887.288ZM895.916 41.1012C896.497 41.1012 896.981 40.6271 896.981 40.0359C896.981 39.4553 896.497 38.9759 895.916 38.9759C895.33 38.9759 894.851 39.4553 894.851 40.0359C894.851 40.6271 895.33 41.1012 895.916 41.1012ZM899.115 44.0682H900.707V39.7269H900.803C901.091 40.2489 901.677 41.1598 903.168 41.1598C905.15 41.1598 906.588 39.5724 906.588 36.9251C906.588 34.2724 905.128 32.7116 903.152 32.7116C901.634 32.7116 901.085 33.6385 900.803 34.1445H900.67V32.8182H899.115V44.0682ZM900.675 36.9091C900.675 35.1992 901.421 34.0646 902.811 34.0646C904.255 34.0646 904.979 35.2844 904.979 36.9091C904.979 38.5497 904.234 39.8015 902.811 39.8015C901.442 39.8015 900.675 38.6296 900.675 36.9091ZM909.965 36.142C909.965 34.837 910.764 34.0913 911.872 34.0913C912.953 34.0913 913.609 34.7997 913.609 35.9876V41H915.201V35.7958C915.201 33.7717 914.088 32.7116 912.415 32.7116C911.185 32.7116 910.381 33.2816 910.002 34.1499H909.901V32.8182H908.372V41H909.965V36.142ZM920.768 44.2386C922.85 44.2386 924.459 43.2852 924.459 41.1811V32.8182H922.898V34.1445H922.781C922.499 33.6385 921.934 32.7116 920.411 32.7116C918.435 32.7116 916.98 34.2724 916.98 36.8771C916.98 39.4872 918.467 40.8775 920.4 40.8775C921.902 40.8775 922.483 40.0305 922.771 39.5085H922.872V41.1172C922.872 42.4009 921.993 42.9549 920.784 42.9549C919.457 42.9549 918.941 42.2891 918.658 41.8203L917.289 42.3849C917.721 43.3864 918.813 44.2386 920.768 44.2386ZM920.752 39.5565C919.329 39.5565 918.589 38.4645 918.589 36.8558C918.589 35.2844 919.313 34.0646 920.752 34.0646C922.142 34.0646 922.888 35.1992 922.888 36.8558C922.888 38.5444 922.126 39.5565 920.752 39.5565Z" fill="#C5D1DB"/>
<circle cx="312" cy="32" r="7" stroke="#C5D1DB" stroke-width="2"/>
<path d="M329.289 37H331.217V34.2514L331.92 33.5004L334.424 37H336.73L333.374 32.3498L336.544 28.8182H334.291L331.35 32.1048H331.217V26.0909H329.289V37ZM340.207 32.206C340.207 31.0234 340.921 30.3416 341.938 30.3416C342.934 30.3416 343.531 30.9968 343.531 32.0888V37H345.459V31.7905C345.465 29.8303 344.346 28.7116 342.657 28.7116C341.432 28.7116 340.591 29.2976 340.218 30.2085H340.122V28.8182H338.279V37H340.207V32.206ZM351.438 37.1598C353.835 37.1598 355.359 35.4712 355.359 32.9411C355.359 30.4055 353.835 28.7116 351.438 28.7116C349.041 28.7116 347.518 30.4055 347.518 32.9411C347.518 35.4712 349.041 37.1598 351.438 37.1598ZM351.449 35.6151C350.123 35.6151 349.473 34.4325 349.473 32.9357C349.473 31.4389 350.123 30.2404 351.449 30.2404C352.754 30.2404 353.404 31.4389 353.404 32.9357C353.404 34.4325 352.754 35.6151 351.449 35.6151ZM358.914 37H360.928L362.462 31.4709H362.574L364.108 37H366.116L368.433 28.8182H366.462L365.045 34.5391H364.965L363.495 28.8182H361.551L360.081 34.571H360.006L358.568 28.8182H356.603L358.914 37ZM376.696 30.9808C376.43 29.5959 375.322 28.7116 373.404 28.7116C371.433 28.7116 370.091 29.6811 370.096 31.1939C370.091 32.3871 370.826 33.1754 372.397 33.5004L373.793 33.7933C374.544 33.9585 374.896 34.2621 374.896 34.7255C374.896 35.2848 374.288 35.7056 373.372 35.7056C372.488 35.7056 371.913 35.3221 371.748 34.587L369.867 34.7681C370.107 36.2702 371.369 37.1598 373.378 37.1598C375.423 37.1598 376.867 36.0998 376.872 34.5497C376.867 33.3832 376.115 32.6694 374.571 32.3338L373.175 32.0355C372.344 31.8491 372.014 31.5614 372.019 31.0874C372.014 30.5334 372.626 30.1499 373.431 30.1499C374.32 30.1499 374.789 30.6346 374.938 31.1726L376.696 30.9808ZM378.997 37H385.778V35.3434H380.973V26.0909H378.997V37ZM390.212 37.1651C391.496 37.1651 392.263 36.5632 392.615 35.8761H392.679V37H394.532V31.5241C394.532 29.3615 392.769 28.7116 391.208 28.7116C389.488 28.7116 388.167 29.4787 387.741 30.9702L389.541 31.2259C389.733 30.6665 390.276 30.1871 391.219 30.1871C392.114 30.1871 392.604 30.6452 392.604 31.4496V31.4815C392.604 32.0355 392.023 32.0621 390.58 32.2166C388.993 32.3871 387.474 32.8612 387.474 34.7042C387.474 36.3129 388.652 37.1651 390.212 37.1651ZM390.713 35.7482C389.909 35.7482 389.333 35.3807 389.333 34.6722C389.333 33.9318 389.978 33.6229 390.841 33.5004C391.347 33.4311 392.359 33.3033 392.609 33.1009V34.065C392.609 34.9759 391.874 35.7482 390.713 35.7482ZM398.849 32.206C398.849 31.0234 399.563 30.3416 400.581 30.3416C401.577 30.3416 402.173 30.9968 402.173 32.0888V37H404.102V31.7905C404.107 29.8303 402.988 28.7116 401.3 28.7116C400.075 28.7116 399.233 29.2976 398.86 30.2085H398.764V28.8182H396.921V37H398.849V32.206ZM410.07 40.2386C412.281 40.2386 413.911 39.2266 413.911 37.1332V28.8182H412.009V30.1712H411.902C411.61 29.5799 410.997 28.7116 409.553 28.7116C407.662 28.7116 406.176 30.1925 406.176 32.8825C406.176 35.5511 407.662 36.8828 409.548 36.8828C410.949 36.8828 411.604 36.1317 411.902 35.5298H411.998V37.0799C411.998 38.2837 411.199 38.7791 410.102 38.7791C408.941 38.7791 408.429 38.2305 408.195 37.7511L406.459 38.1719C406.81 39.3171 407.987 40.2386 410.07 40.2386ZM410.086 35.37C408.813 35.37 408.142 34.3793 408.142 32.8718C408.142 31.3857 408.802 30.2937 410.086 30.2937C411.327 30.2937 412.009 31.3217 412.009 32.8718C412.009 34.4325 411.317 35.37 410.086 35.37ZM421.552 33.5589C421.552 34.8054 420.662 35.4233 419.81 35.4233C418.883 35.4233 418.265 34.7681 418.265 33.7294V28.8182H416.337V34.0277C416.337 35.9933 417.455 37.1065 419.064 37.1065C420.289 37.1065 421.152 36.462 421.525 35.5458H421.61V37H423.48V28.8182H421.552V33.5589ZM428.267 37.1651C429.551 37.1651 430.318 36.5632 430.67 35.8761H430.734V37H432.587V31.5241C432.587 29.3615 430.824 28.7116 429.263 28.7116C427.543 28.7116 426.222 29.4787 425.796 30.9702L427.596 31.2259C427.788 30.6665 428.331 30.1871 429.274 30.1871C430.169 30.1871 430.659 30.6452 430.659 31.4496V31.4815C430.659 32.0355 430.078 32.0621 428.635 32.2166C427.047 32.3871 425.529 32.8612 425.529 34.7042C425.529 36.3129 426.707 37.1651 428.267 37.1651ZM428.768 35.7482C427.964 35.7482 427.388 35.3807 427.388 34.6722C427.388 33.9318 428.033 33.6229 428.896 33.5004C429.402 33.4311 430.414 33.3033 430.664 33.1009V34.065C430.664 34.9759 429.929 35.7482 428.768 35.7482ZM438.534 40.2386C440.745 40.2386 442.375 39.2266 442.375 37.1332V28.8182H440.473V30.1712H440.367C440.074 29.5799 439.461 28.7116 438.018 28.7116C436.127 28.7116 434.641 30.1925 434.641 32.8825C434.641 35.5511 436.127 36.8828 438.012 36.8828C439.413 36.8828 440.068 36.1317 440.367 35.5298H440.463V37.0799C440.463 38.2837 439.664 38.7791 438.566 38.7791C437.405 38.7791 436.894 38.2305 436.659 37.7511L434.923 38.1719C435.274 39.3171 436.452 40.2386 438.534 40.2386ZM438.55 35.37C437.277 35.37 436.606 34.3793 436.606 32.8718C436.606 31.3857 437.267 30.2937 438.55 30.2937C439.791 30.2937 440.473 31.3217 440.473 32.8718C440.473 34.4325 439.781 35.37 438.55 35.37ZM448.423 37.1598C450.33 37.1598 451.641 36.2276 451.982 34.8054L450.181 34.603C449.92 35.2955 449.281 35.6577 448.45 35.6577C447.203 35.6577 446.378 34.8374 446.362 33.4364H452.061V32.8452C452.061 29.9741 450.336 28.7116 448.322 28.7116C445.978 28.7116 444.45 30.4322 444.45 32.957C444.45 35.5245 445.957 37.1598 448.423 37.1598ZM446.367 32.1367C446.426 31.0927 447.198 30.2138 448.349 30.2138C449.457 30.2138 450.202 31.0234 450.213 32.1367H446.367Z" fill="#C5D1DB"/>
<path d="M329.3 61H336.203V59.5831H330.946V56.2433H335.783V54.8317H330.946V51.5078H336.14V50.0909H329.3V61ZM339.803 56.142C339.803 54.837 340.602 54.0913 341.71 54.0913C342.791 54.0913 343.446 54.7997 343.446 55.9876V61H345.039V55.7958C345.039 53.7717 343.926 52.7116 342.253 52.7116C341.023 52.7116 340.218 53.2816 339.84 54.1499H339.739V52.8182H338.21V61H339.803V56.142ZM350.606 64.2386C352.688 64.2386 354.297 63.2852 354.297 61.1811V52.8182H352.736V54.1445H352.619C352.337 53.6385 351.772 52.7116 350.249 52.7116C348.272 52.7116 346.818 54.2724 346.818 56.8771C346.818 59.4872 348.304 60.8775 350.238 60.8775C351.74 60.8775 352.321 60.0305 352.608 59.5085H352.71V61.1172C352.71 62.4009 351.831 62.9549 350.622 62.9549C349.295 62.9549 348.778 62.2891 348.496 61.8203L347.127 62.3849C347.559 63.3864 348.651 64.2386 350.606 64.2386ZM350.59 59.5565C349.167 59.5565 348.427 58.4645 348.427 56.8558C348.427 55.2844 349.151 54.0646 350.59 54.0646C351.98 54.0646 352.726 55.1992 352.726 56.8558C352.726 58.5444 351.964 59.5565 350.59 59.5565ZM358.026 50.0909H356.433V61H358.026V50.0909ZM360.168 61H361.761V52.8182H360.168V61ZM360.973 51.5558C361.521 51.5558 361.979 51.1296 361.979 50.6076C361.979 50.0856 361.521 49.6541 360.973 49.6541C360.419 49.6541 359.966 50.0856 359.966 50.6076C359.966 51.1296 360.419 51.5558 360.973 51.5558ZM370.035 54.8157C369.704 53.5426 368.708 52.7116 366.94 52.7116C365.092 52.7116 363.781 53.6864 363.781 55.1353C363.781 56.2965 364.484 57.0689 366.018 57.4098L367.403 57.7134C368.192 57.8892 368.559 58.2408 368.559 58.7521C368.559 59.386 367.883 59.8814 366.839 59.8814C365.885 59.8814 365.273 59.4712 365.081 58.6669L363.541 58.9013C363.808 60.3501 365.012 61.1651 366.849 61.1651C368.826 61.1651 370.195 60.1158 370.195 58.6349C370.195 57.479 369.459 56.7653 367.957 56.419L366.658 56.1207C365.757 55.9077 365.369 55.604 365.374 55.0501C365.369 54.4215 366.05 53.9741 366.956 53.9741C367.947 53.9741 368.405 54.5227 368.591 55.0714L370.035 54.8157ZM373.538 56.142C373.538 54.837 374.364 54.0913 375.499 54.0913C376.596 54.0913 377.251 54.7891 377.251 55.9876V61H378.844V55.7958C378.844 53.7557 377.725 52.7116 376.042 52.7116C374.769 52.7116 374.002 53.2656 373.618 54.1499H373.517V50.0909H371.946V61H373.538V56.142Z" fill="#C5D1DB"/>
<circle cx="58" cy="193" r="7" stroke="#C5D1DB" stroke-width="2"/>
<path d="M75.0461 201.068H76.9744V196.711H77.0543C77.3579 197.308 77.9918 198.144 79.3981 198.144C81.3263 198.144 82.7699 196.615 82.7699 193.92C82.7699 191.192 81.2837 189.712 79.3927 189.712C77.9492 189.712 77.3473 190.58 77.0543 191.171H76.9424V189.818H75.0461V201.068ZM76.9371 193.909C76.9371 192.322 77.6189 191.294 78.8601 191.294C80.1438 191.294 80.8043 192.386 80.8043 193.909C80.8043 195.443 80.1331 196.562 78.8601 196.562C77.6296 196.562 76.9371 195.496 76.9371 193.909ZM84.8711 198H86.7994V193.19C86.7994 192.151 87.5824 191.416 88.6424 191.416C88.9674 191.416 89.3722 191.475 89.5373 191.528V189.754C89.3616 189.722 89.0579 189.701 88.8449 189.701C87.9074 189.701 87.1243 190.234 86.826 191.182H86.7408V189.818H84.8711V198ZM94.5004 198.16C96.8974 198.16 98.4208 196.471 98.4208 193.941C98.4208 191.406 96.8974 189.712 94.5004 189.712C92.1034 189.712 90.5799 191.406 90.5799 193.941C90.5799 196.471 92.1034 198.16 94.5004 198.16ZM94.511 196.615C93.1847 196.615 92.5348 195.433 92.5348 193.936C92.5348 192.439 93.1847 191.24 94.511 191.24C95.8161 191.24 96.4659 192.439 96.4659 193.936C96.4659 195.433 95.8161 196.615 94.511 196.615ZM104.652 189.818H102.952V189.174C102.952 188.534 103.219 188.178 103.938 188.178C104.241 188.178 104.497 188.247 104.657 188.295L105.046 186.803C104.795 186.718 104.247 186.58 103.581 186.58C102.159 186.58 101.024 187.395 101.024 189.046V189.818H99.815V191.31H101.024V198H102.952V191.31H104.652V189.818ZM106.612 198H108.54V189.818H106.612V198ZM107.581 188.657C108.194 188.657 108.695 188.188 108.695 187.613C108.695 187.032 108.194 186.564 107.581 186.564C106.963 186.564 106.463 187.032 106.463 187.613C106.463 188.188 106.963 188.657 107.581 188.657ZM112.901 187.091H110.973V198H112.901V187.091ZM118.956 198.16C120.863 198.16 122.174 197.228 122.514 195.805L120.714 195.603C120.453 196.295 119.814 196.658 118.983 196.658C117.736 196.658 116.911 195.837 116.895 194.436H122.594V193.845C122.594 190.974 120.868 189.712 118.855 189.712C116.511 189.712 114.982 191.432 114.982 193.957C114.982 196.525 116.49 198.16 118.956 198.16ZM116.9 193.137C116.959 192.093 117.731 191.214 118.882 191.214C119.99 191.214 120.735 192.023 120.746 193.137H116.9ZM128.458 198C131.781 198 133.752 195.944 133.752 192.535C133.752 189.136 131.781 187.091 128.532 187.091H124.761V198H128.458ZM126.737 196.29V188.801H128.42C130.636 188.801 131.792 190.037 131.792 192.535C131.792 195.044 130.636 196.29 128.362 196.29H126.737ZM139.617 198.16C141.524 198.16 142.834 197.228 143.175 195.805L141.375 195.603C141.114 196.295 140.475 196.658 139.644 196.658C138.397 196.658 137.571 195.837 137.555 194.436H143.255V193.845C143.255 190.974 141.529 189.712 139.516 189.712C137.172 189.712 135.643 191.432 135.643 193.957C135.643 196.525 137.151 198.16 139.617 198.16ZM137.561 193.137C137.619 192.093 138.392 191.214 139.542 191.214C140.65 191.214 141.396 192.023 141.407 193.137H137.561ZM151.803 191.981C151.537 190.596 150.429 189.712 148.511 189.712C146.54 189.712 145.198 190.681 145.203 192.194C145.198 193.387 145.933 194.175 147.504 194.5L148.9 194.793C149.651 194.958 150.003 195.262 150.003 195.725C150.003 196.285 149.395 196.706 148.479 196.706C147.595 196.706 147.02 196.322 146.854 195.587L144.974 195.768C145.214 197.27 146.476 198.16 148.484 198.16C150.53 198.16 151.973 197.1 151.979 195.55C151.973 194.383 151.222 193.669 149.678 193.334L148.282 193.036C147.451 192.849 147.121 192.561 147.126 192.087C147.121 191.533 147.733 191.15 148.538 191.15C149.427 191.15 149.896 191.635 150.045 192.173L151.803 191.981ZM157.588 198.16C159.644 198.16 160.954 196.94 161.093 195.203H159.25C159.084 196.082 158.451 196.588 157.604 196.588C156.4 196.588 155.622 195.582 155.622 193.909C155.622 192.258 156.416 191.267 157.604 191.267C158.531 191.267 159.1 191.864 159.25 192.652H161.093C160.959 190.878 159.575 189.712 157.577 189.712C155.18 189.712 153.667 191.443 153.667 193.941C153.667 196.418 155.143 198.16 157.588 198.16ZM163.126 198H165.054V193.19C165.054 192.151 165.837 191.416 166.897 191.416C167.222 191.416 167.627 191.475 167.792 191.528V189.754C167.616 189.722 167.313 189.701 167.1 189.701C166.162 189.701 165.379 190.234 165.081 191.182H164.996V189.818H163.126V198ZM169.523 198H171.452V189.818H169.523V198ZM170.493 188.657C171.105 188.657 171.606 188.188 171.606 187.613C171.606 187.032 171.105 186.564 170.493 186.564C169.875 186.564 169.374 187.032 169.374 187.613C169.374 188.188 169.875 188.657 170.493 188.657ZM173.884 201.068H175.813V196.711H175.893C176.196 197.308 176.83 198.144 178.236 198.144C180.165 198.144 181.608 196.615 181.608 193.92C181.608 191.192 180.122 189.712 178.231 189.712C176.787 189.712 176.186 190.58 175.893 191.171H175.781V189.818H173.884V201.068ZM175.775 193.909C175.775 192.322 176.457 191.294 177.698 191.294C178.982 191.294 179.643 192.386 179.643 193.909C179.643 195.443 178.971 196.562 177.698 196.562C176.468 196.562 175.775 195.496 175.775 193.909ZM187.795 189.818H186.181V187.858H184.253V189.818H183.092V191.31H184.253V195.859C184.242 197.398 185.361 198.154 186.81 198.112C187.358 198.096 187.736 197.989 187.944 197.92L187.619 196.413C187.513 196.439 187.294 196.487 187.055 196.487C186.57 196.487 186.181 196.317 186.181 195.539V191.31H187.795V189.818ZM189.858 198H191.786V189.818H189.858V198ZM190.827 188.657C191.44 188.657 191.94 188.188 191.94 187.613C191.94 187.032 191.44 186.564 190.827 186.564C190.209 186.564 189.709 187.032 189.709 187.613C189.709 188.188 190.209 188.657 190.827 188.657ZM197.788 198.16C200.185 198.16 201.708 196.471 201.708 193.941C201.708 191.406 200.185 189.712 197.788 189.712C195.391 189.712 193.867 191.406 193.867 193.941C193.867 196.471 195.391 198.16 197.788 198.16ZM197.798 196.615C196.472 196.615 195.822 195.433 195.822 193.936C195.822 192.439 196.472 191.24 197.798 191.24C199.103 191.24 199.753 192.439 199.753 193.936C199.753 195.433 199.103 196.615 197.798 196.615ZM205.723 193.206C205.723 192.023 206.437 191.342 207.454 191.342C208.45 191.342 209.047 191.997 209.047 193.089V198H210.975V192.79C210.98 190.83 209.862 189.712 208.173 189.712C206.948 189.712 206.107 190.298 205.734 191.208H205.638V189.818H203.795V198H205.723V193.206Z" fill="#C5D1DB"/>
<path d="M75.0386 214.5H76.4023V213.461C76.4023 212.657 76.7538 211.98 77.1853 211.347L76.3969 210.782C75.5819 211.437 75.0386 212.572 75.0386 213.477V214.5ZM77.7552 214.5H79.1189V213.461C79.1189 212.657 79.4704 211.98 79.9019 211.347L79.1135 210.782C78.2986 211.437 77.7552 212.572 77.7552 213.477V214.5ZM81.3987 211.091V222H82.9648V214.1H83.066L86.2833 221.984H87.583L90.8003 214.106H90.9015V222H92.4676V211.091H90.4701L86.9971 219.571H86.8692L83.3962 211.091H81.3987ZM95.7395 225.068C97.0552 225.068 97.8862 224.381 98.3603 223.092L101.743 213.834L100.022 213.818L97.9501 220.168H97.8649L95.7928 213.818H94.0882L97.0819 222.107L96.8848 222.65C96.4799 223.737 95.91 223.827 95.0364 223.587L94.6529 224.892C94.8446 224.978 95.2601 225.068 95.7395 225.068ZM108.987 222H110.606L112.268 216.093H112.391L114.053 222H115.677L118.08 213.818H116.434L114.841 219.8H114.761L113.163 213.818H111.517L109.909 219.827H109.829L108.225 213.818H106.579L108.987 222ZM122.789 222.165C125.095 222.165 126.602 220.477 126.602 217.946C126.602 215.4 125.095 213.712 122.789 213.712C120.482 213.712 118.975 215.4 118.975 217.946C118.975 220.477 120.482 222.165 122.789 222.165ZM122.794 220.828C121.286 220.828 120.583 219.512 120.583 217.941C120.583 216.375 121.286 215.043 122.794 215.043C124.291 215.043 124.994 216.375 124.994 217.941C124.994 219.512 124.291 220.828 122.794 220.828ZM128.38 222H129.973V217.004C129.973 215.933 130.799 215.161 131.928 215.161C132.258 215.161 132.631 215.219 132.759 215.256V213.733C132.599 213.712 132.285 213.696 132.082 213.696C131.123 213.696 130.303 214.239 130.005 215.118H129.92V213.818H128.38V222ZM134.137 222H135.73V219.097L136.523 218.303L139.304 222H141.259L137.722 217.328L141.035 213.818H139.128L135.868 217.281H135.73V211.091H134.137V222ZM142.487 222H144.079V213.818H142.487V222ZM143.291 212.556C143.84 212.556 144.298 212.13 144.298 211.608C144.298 211.086 143.84 210.654 143.291 210.654C142.737 210.654 142.284 211.086 142.284 211.608C142.284 212.13 142.737 212.556 143.291 212.556ZM147.815 217.142C147.815 215.837 148.614 215.091 149.722 215.091C150.803 215.091 151.458 215.8 151.458 216.988V222H153.051V216.796C153.051 214.772 151.938 213.712 150.265 213.712C149.035 213.712 148.23 214.282 147.852 215.15H147.751V213.818H146.222V222H147.815V217.142ZM158.617 225.239C160.7 225.239 162.309 224.285 162.309 222.181V213.818H160.748V215.145H160.631C160.348 214.638 159.784 213.712 158.26 213.712C156.284 213.712 154.83 215.272 154.83 217.877C154.83 220.487 156.316 221.877 158.25 221.877C159.752 221.877 160.332 221.031 160.62 220.509H160.721V222.117C160.721 223.401 159.842 223.955 158.633 223.955C157.307 223.955 156.79 223.289 156.508 222.82L155.139 223.385C155.57 224.386 156.662 225.239 158.617 225.239ZM158.601 220.556C157.179 220.556 156.439 219.464 156.439 217.856C156.439 216.284 157.163 215.065 158.601 215.065C159.992 215.065 160.737 216.199 160.737 217.856C160.737 219.544 159.976 220.556 158.601 220.556ZM170.007 217.142C170.007 215.837 170.833 215.091 171.967 215.091C173.065 215.091 173.72 215.789 173.72 216.988V222H175.312V216.796C175.312 214.756 174.194 213.712 172.511 213.712C171.238 213.712 170.471 214.266 170.087 215.15H169.986V211.091H168.414V222H170.007V217.142ZM180.884 222.165C183.191 222.165 184.698 220.477 184.698 217.946C184.698 215.4 183.191 213.712 180.884 213.712C178.578 213.712 177.07 215.4 177.07 217.946C177.07 220.477 178.578 222.165 180.884 222.165ZM180.89 220.828C179.382 220.828 178.679 219.512 178.679 217.941C178.679 216.375 179.382 215.043 180.89 215.043C182.386 215.043 183.089 216.375 183.089 217.941C183.089 219.512 182.386 220.828 180.89 220.828ZM191.659 218.607C191.664 219.997 190.631 220.658 189.736 220.658C188.75 220.658 188.069 219.944 188.069 218.831V213.818H186.476V219.022C186.476 221.052 187.589 222.107 189.161 222.107C190.391 222.107 191.227 221.457 191.606 220.583H191.691V222H193.257V213.818H191.659V218.607ZM195.397 222H196.99V217.004C196.99 215.933 197.815 215.161 198.944 215.161C199.275 215.161 199.648 215.219 199.775 215.256V213.733C199.616 213.712 199.301 213.696 199.099 213.696C198.14 213.696 197.32 214.239 197.021 215.118H196.936V213.818H195.397V222ZM207.285 215.816C206.954 214.543 205.958 213.712 204.19 213.712C202.342 213.712 201.031 214.686 201.031 216.135C201.031 217.297 201.734 218.069 203.268 218.41L204.653 218.713C205.442 218.889 205.809 219.241 205.809 219.752C205.809 220.386 205.133 220.881 204.089 220.881C203.135 220.881 202.523 220.471 202.331 219.667L200.791 219.901C201.058 221.35 202.262 222.165 204.099 222.165C206.076 222.165 207.445 221.116 207.445 219.635C207.445 218.479 206.709 217.765 205.207 217.419L203.908 217.121C203.007 216.908 202.619 216.604 202.624 216.05C202.619 215.422 203.3 214.974 204.206 214.974C205.197 214.974 205.655 215.523 205.841 216.071L207.285 215.816ZM210.245 222.101C210.826 222.101 211.31 221.627 211.31 221.036C211.31 220.455 210.826 219.976 210.245 219.976C209.659 219.976 209.18 220.455 209.18 221.036C209.18 221.627 209.659 222.101 210.245 222.101ZM214.493 222.101C215.074 222.101 215.558 221.627 215.558 221.036C215.558 220.455 215.074 219.976 214.493 219.976C213.907 219.976 213.428 220.455 213.428 221.036C213.428 221.627 213.907 222.101 214.493 222.101ZM218.741 222.101C219.322 222.101 219.806 221.627 219.806 221.036C219.806 220.455 219.322 219.976 218.741 219.976C218.155 219.976 217.676 220.455 217.676 221.036C217.676 221.627 218.155 222.101 218.741 222.101ZM222.239 211.091H220.876V212.13C220.876 212.955 220.514 213.632 220.098 214.244L220.886 214.809C221.707 214.148 222.239 213.019 222.239 212.114V211.091ZM224.951 211.091H223.587V212.13C223.587 212.955 223.225 213.632 222.809 214.244L223.598 214.809C224.418 214.148 224.951 213.019 224.951 212.114V211.091Z" fill="#C5D1DB"/>
<circle cx="1174" cy="52" r="7" stroke="#C5D1DB" stroke-width="2"/>
<path d="M1194.45 57.1438C1195.86 57.1438 1196.49 56.3075 1196.8 55.7109H1196.91V57H1198.81V46.0909H1196.88V50.1712H1196.8C1196.5 49.5799 1195.9 48.7116 1194.46 48.7116C1192.57 48.7116 1191.08 50.1925 1191.08 52.9197C1191.08 55.6151 1192.52 57.1438 1194.45 57.1438ZM1194.99 55.5618C1193.72 55.5618 1193.05 54.4432 1193.05 52.9091C1193.05 51.3857 1193.71 50.2937 1194.99 50.2937C1196.23 50.2937 1196.91 51.3217 1196.91 52.9091C1196.91 54.4964 1196.22 55.5618 1194.99 55.5618ZM1206.53 53.5589C1206.53 54.8054 1205.64 55.4233 1204.79 55.4233C1203.86 55.4233 1203.24 54.7681 1203.24 53.7294V48.8182H1201.31V54.0277C1201.31 55.9933 1202.43 57.1065 1204.04 57.1065C1205.27 57.1065 1206.13 56.462 1206.5 55.5458H1206.59V57H1208.46V48.8182H1206.53V53.5589ZM1214.51 57.1598C1216.42 57.1598 1217.73 56.2276 1218.07 54.8054L1216.27 54.603C1216.01 55.2955 1215.37 55.6577 1214.54 55.6577C1213.29 55.6577 1212.47 54.8374 1212.45 53.4364H1218.15V52.8452C1218.15 49.9741 1216.42 48.7116 1214.41 48.7116C1212.07 48.7116 1210.54 50.4322 1210.54 52.957C1210.54 55.5245 1212.05 57.1598 1214.51 57.1598ZM1212.46 52.1367C1212.51 51.0927 1213.29 50.2138 1214.44 50.2138C1215.55 50.2138 1216.29 51.0234 1216.3 52.1367H1212.46ZM1224.01 57C1227.34 57 1229.31 54.9439 1229.31 51.5348C1229.31 48.1364 1227.34 46.0909 1224.09 46.0909H1220.32V57H1224.01ZM1222.29 55.2901V47.8008H1223.98C1226.19 47.8008 1227.35 49.0366 1227.35 51.5348C1227.35 54.0437 1226.19 55.2901 1223.92 55.2901H1222.29ZM1233.91 57.1651C1235.19 57.1651 1235.96 56.5632 1236.31 55.8761H1236.37V57H1238.22V51.5241C1238.22 49.3615 1236.46 48.7116 1234.9 48.7116C1233.18 48.7116 1231.86 49.4787 1231.43 50.9702L1233.23 51.2259C1233.43 50.6665 1233.97 50.1871 1234.91 50.1871C1235.81 50.1871 1236.3 50.6452 1236.3 51.4496V51.4815C1236.3 52.0355 1235.72 52.0621 1234.27 52.2166C1232.69 52.3871 1231.17 52.8612 1231.17 54.7042C1231.17 56.3129 1232.34 57.1651 1233.91 57.1651ZM1234.41 55.7482C1233.6 55.7482 1233.03 55.3807 1233.03 54.6722C1233.03 53.9318 1233.67 53.6229 1234.53 53.5004C1235.04 53.4311 1236.05 53.3033 1236.3 53.1009V54.065C1236.3 54.9759 1235.57 55.7482 1234.41 55.7482ZM1244.7 48.8182H1243.09V46.858H1241.16V48.8182H1240V50.3097H1241.16V54.8587C1241.15 56.3981 1242.27 57.1545 1243.71 57.1119C1244.26 57.0959 1244.64 56.9893 1244.85 56.9201L1244.52 55.4126C1244.42 55.4393 1244.2 55.4872 1243.96 55.4872C1243.47 55.4872 1243.09 55.3168 1243.09 54.5391V50.3097H1244.7V48.8182ZM1250.3 57.1598C1252.2 57.1598 1253.51 56.2276 1253.85 54.8054L1252.05 54.603C1251.79 55.2955 1251.15 55.6577 1250.32 55.6577C1249.08 55.6577 1248.25 54.8374 1248.23 53.4364H1253.93V52.8452C1253.93 49.9741 1252.21 48.7116 1250.2 48.7116C1247.85 48.7116 1246.32 50.4322 1246.32 52.957C1246.32 55.5245 1247.83 57.1598 1250.3 57.1598ZM1248.24 52.1367C1248.3 51.0927 1249.07 50.2138 1250.22 50.2138C1251.33 50.2138 1252.08 51.0234 1252.09 52.1367H1248.24Z" fill="#C5D1DB"/>
<path d="M1191.37 81H1198.55V79.5884H1193.64V79.5085L1195.81 77.2393C1197.81 75.2205 1198.38 74.2564 1198.38 73.0366C1198.38 71.2841 1196.95 69.9418 1194.89 69.9418C1192.85 69.9418 1191.36 71.2628 1191.36 73.255H1192.93C1192.93 72.0831 1193.68 71.3161 1194.86 71.3161C1195.97 71.3161 1196.81 71.9979 1196.81 73.0845C1196.81 74.0487 1196.23 74.7411 1195.06 75.9822L1191.37 79.8068V81ZM1204.37 81.1811C1206.89 81.1811 1208.36 79.125 1208.36 75.5508C1208.36 72.0032 1206.87 69.9418 1204.37 69.9418C1201.86 69.9418 1200.37 71.9979 1200.37 75.5508C1200.37 79.1197 1201.84 81.1758 1204.37 81.1811ZM1204.37 79.7589C1202.89 79.7589 1202 78.2781 1202 75.5508C1202.01 72.8342 1202.9 71.3374 1204.37 71.3374C1205.83 71.3374 1206.73 72.8342 1206.73 75.5508C1206.73 78.2781 1205.84 79.7589 1204.37 79.7589ZM1214.43 69.5795H1213.01L1209.49 82.6406H1210.91L1214.43 69.5795ZM1219.9 70.0909H1218.3L1215.57 71.87V73.4467L1218.18 71.7422H1218.25V81H1219.9V70.0909ZM1226.99 70.0909H1225.39L1222.66 71.87V73.4467L1225.27 71.7422H1225.34V81H1226.99V70.0909ZM1234.12 69.5795H1232.69L1229.18 82.6406H1230.6L1234.12 69.5795ZM1235.45 81H1242.63V79.5884H1237.72V79.5085L1239.88 77.2393C1241.88 75.2205 1242.45 74.2564 1242.45 73.0366C1242.45 71.2841 1241.02 69.9418 1238.97 69.9418C1236.93 69.9418 1235.44 71.2628 1235.44 73.255H1237.01C1237 72.0831 1237.76 71.3161 1238.94 71.3161C1240.04 71.3161 1240.89 71.9979 1240.89 73.0845C1240.89 74.0487 1240.31 74.7411 1239.14 75.9822L1235.45 79.8068V81ZM1248.44 81.1811C1250.96 81.1811 1252.44 79.125 1252.44 75.5508C1252.44 72.0032 1250.94 69.9418 1248.44 69.9418C1245.94 69.9418 1244.45 71.9979 1244.44 75.5508C1244.44 79.1197 1245.92 81.1758 1248.44 81.1811ZM1248.44 79.7589C1246.97 79.7589 1246.08 78.2781 1246.08 75.5508C1246.09 72.8342 1246.97 71.3374 1248.44 71.3374C1249.91 71.3374 1250.8 72.8342 1250.8 75.5508C1250.8 78.2781 1249.92 79.7589 1248.44 79.7589ZM1254.33 81H1261.51V79.5884H1256.6V79.5085L1258.77 77.2393C1260.76 75.2205 1261.33 74.2564 1261.33 73.0366C1261.33 71.2841 1259.91 69.9418 1257.85 69.9418C1255.81 69.9418 1254.32 71.2628 1254.32 73.255H1255.89C1255.89 72.0831 1256.64 71.3161 1257.82 71.3161C1258.93 71.3161 1259.77 71.9979 1259.77 73.0845C1259.77 74.0487 1259.19 74.7411 1258.02 75.9822L1254.33 79.8068V81ZM1263.53 81H1270.71V79.5884H1265.8V79.5085L1267.97 77.2393C1269.96 75.2205 1270.53 74.2564 1270.53 73.0366C1270.53 71.2841 1269.11 69.9418 1267.05 69.9418C1265.01 69.9418 1263.52 71.2628 1263.52 73.255H1265.09C1265.08 72.0831 1265.84 71.3161 1267.02 71.3161C1268.13 71.3161 1268.97 71.9979 1268.97 73.0845C1268.97 74.0487 1268.39 74.7411 1267.22 75.9822L1263.53 79.8068V81Z" fill="#C5D1DB"/>
<circle cx="1260" cy="268" r="7" stroke="#C5D1DB" stroke-width="2"/>
<path d="M1279.34 262.091H1277.41V273H1279.34V262.091ZM1281.77 273H1283.7V264.818H1281.77V273ZM1282.74 263.657C1283.35 263.657 1283.86 263.188 1283.86 262.613C1283.86 262.032 1283.35 261.564 1282.74 261.564C1282.12 261.564 1281.62 262.032 1281.62 262.613C1281.62 263.188 1282.12 263.657 1282.74 263.657ZM1292.6 266.981C1292.33 265.596 1291.23 264.712 1289.31 264.712C1287.34 264.712 1286 265.681 1286 267.194C1286 268.387 1286.73 269.175 1288.3 269.5L1289.7 269.793C1290.45 269.958 1290.8 270.262 1290.8 270.725C1290.8 271.285 1290.19 271.706 1289.28 271.706C1288.39 271.706 1287.82 271.322 1287.65 270.587L1285.77 270.768C1286.01 272.27 1287.27 273.16 1289.28 273.16C1291.33 273.16 1292.77 272.1 1292.78 270.55C1292.77 269.383 1292.02 268.669 1290.47 268.334L1289.08 268.036C1288.25 267.849 1287.92 267.561 1287.92 267.087C1287.92 266.533 1288.53 266.15 1289.33 266.15C1290.22 266.15 1290.69 266.635 1290.84 267.173L1292.6 266.981ZM1298.9 264.818H1297.29V262.858H1295.36V264.818H1294.2V266.31H1295.36V270.859C1295.35 272.398 1296.47 273.154 1297.92 273.112C1298.46 273.096 1298.84 272.989 1299.05 272.92L1298.73 271.413C1298.62 271.439 1298.4 271.487 1298.16 271.487C1297.68 271.487 1297.29 271.317 1297.29 270.539V266.31H1298.9V264.818ZM1303.2 262.091H1301.23V273H1303.2V262.091ZM1309.79 264.818H1308.18V262.858H1306.25V264.818H1305.09V266.31H1306.25V270.859C1306.24 272.398 1307.36 273.154 1308.81 273.112C1309.36 273.096 1309.73 272.989 1309.94 272.92L1309.62 271.413C1309.51 271.439 1309.29 271.487 1309.05 271.487C1308.57 271.487 1308.18 271.317 1308.18 270.539V266.31H1309.79V264.818ZM1315.39 273.16C1317.3 273.16 1318.61 272.228 1318.95 270.805L1317.15 270.603C1316.89 271.295 1316.25 271.658 1315.42 271.658C1314.17 271.658 1313.34 270.837 1313.33 269.436H1319.03V268.845C1319.03 265.974 1317.3 264.712 1315.29 264.712C1312.94 264.712 1311.42 266.432 1311.42 268.957C1311.42 271.525 1312.92 273.16 1315.39 273.16ZM1313.33 268.137C1313.39 267.093 1314.16 266.214 1315.31 266.214C1316.42 266.214 1317.17 267.023 1317.18 268.137H1313.33ZM1321.11 273H1323.04V268.025C1323.04 267.018 1323.71 266.336 1324.54 266.336C1325.35 266.336 1325.91 266.885 1325.91 267.727V273H1327.8V267.897C1327.8 266.975 1328.35 266.336 1329.28 266.336C1330.06 266.336 1330.68 266.794 1330.68 267.806V273H1332.61V267.508C1332.61 265.681 1331.56 264.712 1330.06 264.712C1328.87 264.712 1327.96 265.298 1327.6 266.208H1327.52C1327.2 265.282 1326.41 264.712 1325.31 264.712C1324.21 264.712 1323.39 265.276 1323.05 266.208H1322.95V264.818H1321.11V273Z" fill="#C5D1DB"/>
<path d="M1277.1 289.5H1278.46V288.461C1278.46 287.657 1278.81 286.98 1279.25 286.347L1278.46 285.782C1277.64 286.437 1277.1 287.572 1277.1 288.477V289.5ZM1279.82 289.5H1281.18V288.461C1281.18 287.657 1281.53 286.98 1281.96 286.347L1281.17 285.782C1280.36 286.437 1279.82 287.572 1279.82 288.477V289.5ZM1285.1 286.091H1283.46V297H1285.1V286.091ZM1287.37 297H1288.97V291.956C1288.97 290.853 1289.74 290.086 1290.64 290.086C1291.53 290.086 1292.14 290.672 1292.14 291.561V297H1293.73V291.785C1293.73 290.8 1294.33 290.086 1295.37 290.086C1296.21 290.086 1296.9 290.555 1296.9 291.663V297H1298.5V291.513C1298.5 289.644 1297.45 288.712 1295.97 288.712C1294.79 288.712 1293.91 289.276 1293.52 290.15H1293.43C1293.07 289.255 1292.32 288.712 1291.23 288.712C1290.15 288.712 1289.34 289.25 1289 290.15H1288.9V288.818H1287.37V297ZM1300.63 300.068H1302.22V295.727H1302.32C1302.61 296.249 1303.19 297.16 1304.68 297.16C1306.67 297.16 1308.1 295.572 1308.1 292.925C1308.1 290.272 1306.64 288.712 1304.67 288.712C1303.15 288.712 1302.6 289.638 1302.32 290.145H1302.19V288.818H1300.63V300.068ZM1302.19 292.909C1302.19 291.199 1302.94 290.065 1304.33 290.065C1305.77 290.065 1306.5 291.284 1306.5 292.909C1306.5 294.55 1305.75 295.801 1304.33 295.801C1302.96 295.801 1302.19 294.63 1302.19 292.909ZM1311.48 286.091H1309.89V297H1311.48V286.091ZM1317.15 297.165C1318.93 297.165 1320.2 296.286 1320.56 294.955L1319.05 294.683C1318.76 295.455 1318.07 295.849 1317.17 295.849C1315.8 295.849 1314.89 294.965 1314.84 293.388H1320.66V292.824C1320.66 289.868 1318.89 288.712 1317.04 288.712C1314.76 288.712 1313.26 290.448 1313.26 292.962C1313.26 295.503 1314.74 297.165 1317.15 297.165ZM1314.85 292.195C1314.91 291.034 1315.75 290.027 1317.05 290.027C1318.28 290.027 1319.09 290.944 1319.1 292.195H1314.85ZM1322.43 297H1324.02V291.956C1324.02 290.853 1324.79 290.086 1325.7 290.086C1326.58 290.086 1327.2 290.672 1327.2 291.561V297H1328.78V291.785C1328.78 290.8 1329.38 290.086 1330.42 290.086C1331.26 290.086 1331.96 290.555 1331.96 291.663V297H1333.55V291.513C1333.55 289.644 1332.51 288.712 1331.02 288.712C1329.85 288.712 1328.96 289.276 1328.57 290.15H1328.48C1328.13 289.255 1327.38 288.712 1326.28 288.712C1325.2 288.712 1324.4 289.25 1324.06 290.15H1323.96V288.818H1322.43V297ZM1339.21 297.165C1341 297.165 1342.26 296.286 1342.62 294.955L1341.11 294.683C1340.82 295.455 1340.13 295.849 1339.23 295.849C1337.86 295.849 1336.95 294.965 1336.9 293.388H1342.72V292.824C1342.72 289.868 1340.95 288.712 1339.1 288.712C1336.82 288.712 1335.32 290.448 1335.32 292.962C1335.32 295.503 1336.8 297.165 1339.21 297.165ZM1336.91 292.195C1336.97 291.034 1337.82 290.027 1339.11 290.027C1340.35 290.027 1341.15 290.944 1341.16 292.195H1336.91ZM1346.08 292.142C1346.08 290.837 1346.88 290.091 1347.99 290.091C1349.07 290.091 1349.72 290.8 1349.72 291.988V297H1351.32V291.796C1351.32 289.772 1350.2 288.712 1348.53 288.712C1347.3 288.712 1346.5 289.282 1346.12 290.15H1346.02V288.818H1344.49V297H1346.08V292.142ZM1357.27 288.818H1355.59V286.858H1354V288.818H1352.8V290.097H1354V294.928C1354 296.414 1355.13 297.133 1356.39 297.107C1356.89 297.101 1357.23 297.005 1357.42 296.936L1357.13 295.62C1357.03 295.642 1356.83 295.69 1356.57 295.69C1356.06 295.69 1355.59 295.519 1355.59 294.598V290.097H1357.27V288.818ZM1366.07 297.16C1367.56 297.16 1368.14 296.249 1368.43 295.727H1368.56V297H1370.12V286.091H1368.53V290.145H1368.43C1368.14 289.638 1367.6 288.712 1366.08 288.712C1364.1 288.712 1362.65 290.272 1362.65 292.925C1362.65 295.572 1364.08 297.16 1366.07 297.16ZM1366.42 295.801C1365 295.801 1364.26 294.55 1364.26 292.909C1364.26 291.284 1364.98 290.065 1366.42 290.065C1367.81 290.065 1368.55 291.199 1368.55 292.909C1368.55 294.63 1367.79 295.801 1366.42 295.801ZM1372.39 297H1373.99V292.004C1373.99 290.933 1374.81 290.161 1375.94 290.161C1376.27 290.161 1376.64 290.219 1376.77 290.256V288.733C1376.61 288.712 1376.3 288.696 1376.1 288.696C1375.14 288.696 1374.32 289.239 1374.02 290.118H1373.93V288.818H1372.39V297ZM1381.3 297.165C1383.61 297.165 1385.12 295.477 1385.12 292.946C1385.12 290.4 1383.61 288.712 1381.3 288.712C1379 288.712 1377.49 290.4 1377.49 292.946C1377.49 295.477 1379 297.165 1381.3 297.165ZM1381.31 295.828C1379.8 295.828 1379.1 294.512 1379.1 292.941C1379.1 291.375 1379.8 290.043 1381.31 290.043C1382.81 290.043 1383.51 291.375 1383.51 292.941C1383.51 294.512 1382.81 295.828 1381.31 295.828ZM1386.9 300.068H1388.49V295.727H1388.58C1388.87 296.249 1389.46 297.16 1390.95 297.16C1392.93 297.16 1394.37 295.572 1394.37 292.925C1394.37 290.272 1392.91 288.712 1390.93 288.712C1389.41 288.712 1388.87 289.638 1388.58 290.145H1388.45V288.818H1386.9V300.068ZM1388.46 292.909C1388.46 291.199 1389.2 290.065 1390.59 290.065C1392.04 290.065 1392.76 291.284 1392.76 292.909C1392.76 294.55 1392.01 295.801 1390.59 295.801C1389.22 295.801 1388.46 294.63 1388.46 292.909ZM1399.22 297.16C1400.71 297.16 1401.29 296.249 1401.58 295.727H1401.71V297H1403.27V286.091H1401.68V290.145H1401.58C1401.29 289.638 1400.75 288.712 1399.23 288.712C1397.25 288.712 1395.8 290.272 1395.8 292.925C1395.8 295.572 1397.23 297.16 1399.22 297.16ZM1399.57 295.801C1398.15 295.801 1397.4 294.55 1397.4 292.909C1397.4 291.284 1398.13 290.065 1399.57 290.065C1400.96 290.065 1401.7 291.199 1401.7 292.909C1401.7 294.63 1400.94 295.801 1399.57 295.801ZM1408.99 297.165C1411.3 297.165 1412.8 295.477 1412.8 292.946C1412.8 290.4 1411.3 288.712 1408.99 288.712C1406.68 288.712 1405.18 290.4 1405.18 292.946C1405.18 295.477 1406.68 297.165 1408.99 297.165ZM1408.99 295.828C1407.49 295.828 1406.78 294.512 1406.78 292.941C1406.78 291.375 1407.49 290.043 1408.99 290.043C1410.49 290.043 1411.19 291.375 1411.19 292.941C1411.19 294.512 1410.49 295.828 1408.99 295.828ZM1416.11 297H1417.73L1419.39 291.093H1419.51L1421.17 297H1422.8L1425.2 288.818H1423.55L1421.96 294.8H1421.88L1420.28 288.818H1418.64L1417.03 294.827H1416.95L1415.34 288.818H1413.7L1416.11 297ZM1428.3 292.142C1428.3 290.837 1429.1 290.091 1430.21 290.091C1431.29 290.091 1431.95 290.8 1431.95 291.988V297H1433.54V291.796C1433.54 289.772 1432.43 288.712 1430.75 288.712C1429.52 288.712 1428.72 289.282 1428.34 290.15H1428.24V288.818H1426.71V297H1428.3V292.142ZM1439.64 297H1441.24V291.956C1441.24 290.853 1442.01 290.086 1442.91 290.086C1443.8 290.086 1444.41 290.672 1444.41 291.561V297H1446V291.785C1446 290.8 1446.6 290.086 1447.64 290.086C1448.48 290.086 1449.17 290.555 1449.17 291.663V297H1450.77V291.513C1450.77 289.644 1449.72 288.712 1448.24 288.712C1447.06 288.712 1446.18 289.276 1445.79 290.15H1445.7C1445.34 289.255 1444.59 288.712 1443.5 288.712C1442.42 288.712 1441.62 289.25 1441.27 290.15H1441.17V288.818H1439.64V297ZM1456.43 297.165C1458.21 297.165 1459.47 296.286 1459.84 294.955L1458.33 294.683C1458.04 295.455 1457.35 295.849 1456.44 295.849C1455.08 295.849 1454.16 294.965 1454.12 293.388H1459.94V292.824C1459.94 289.868 1458.17 288.712 1456.32 288.712C1454.04 288.712 1452.53 290.448 1452.53 292.962C1452.53 295.503 1454.01 297.165 1456.43 297.165ZM1454.13 292.195C1454.19 291.034 1455.03 290.027 1456.33 290.027C1457.56 290.027 1458.37 290.944 1458.38 292.195H1454.13ZM1463.3 292.142C1463.3 290.837 1464.1 290.091 1465.2 290.091C1466.29 290.091 1466.94 290.8 1466.94 291.988V297H1468.53V291.796C1468.53 289.772 1467.42 288.712 1465.75 288.712C1464.52 288.712 1463.71 289.282 1463.33 290.15H1463.23V288.818H1461.7V297H1463.3V292.142ZM1475.85 293.607C1475.86 294.997 1474.82 295.658 1473.93 295.658C1472.94 295.658 1472.26 294.944 1472.26 293.831V288.818H1470.67V294.022C1470.67 296.052 1471.78 297.107 1473.35 297.107C1474.58 297.107 1475.42 296.457 1475.8 295.583H1475.88V297H1477.45V288.818H1475.85V293.607ZM1481.18 286.091H1479.82V287.13C1479.82 287.955 1479.45 288.632 1479.04 289.244L1479.83 289.809C1480.65 289.148 1481.18 288.019 1481.18 287.114V286.091ZM1483.89 286.091H1482.53V287.13C1482.53 287.955 1482.16 288.632 1481.75 289.244L1482.54 289.809C1483.36 289.148 1483.89 288.019 1483.89 287.114V286.091Z" fill="#C5D1DB"/>
<path d="M855 260L734 293" stroke="url(#paint0_linear_1363_16807)"/>
<path d="M584 266L703 294" stroke="url(#paint1_linear_1363_16807)"/>
<path d="M652 166L712 284" stroke="url(#paint2_linear_1363_16807)"/>
<path d="M799 159L726 284" stroke="url(#paint3_linear_1363_16807)"/>
<circle cx="865" cy="256" r="8" fill="url(#paint4_linear_1363_16807)"/>
<path d="M885.818 261.16C887.725 261.16 889.036 260.228 889.377 258.805L887.576 258.603C887.315 259.295 886.676 259.658 885.845 259.658C884.599 259.658 883.773 258.837 883.757 257.436H889.457V256.845C889.457 253.974 887.731 252.712 885.717 252.712C883.373 252.712 881.845 254.432 881.845 256.957C881.845 259.525 883.352 261.16 885.818 261.16ZM883.762 256.137C883.821 255.093 884.593 254.214 885.744 254.214C886.852 254.214 887.598 255.023 887.608 256.137H883.762ZM891.538 261H893.466V256.025C893.466 255.018 894.137 254.336 894.968 254.336C895.783 254.336 896.343 254.885 896.343 255.727V261H898.234V255.897C898.234 254.975 898.782 254.336 899.714 254.336C900.492 254.336 901.11 254.794 901.11 255.806V261H903.044V255.508C903.044 253.681 901.989 252.712 900.487 252.712C899.299 252.712 898.393 253.298 898.031 254.208H897.946C897.632 253.282 896.838 252.712 895.735 252.712C894.638 252.712 893.818 253.276 893.477 254.208H893.381V252.818H891.538V261ZM907.804 261.165C909.088 261.165 909.855 260.563 910.206 259.876H910.27V261H912.124V255.524C912.124 253.362 910.361 252.712 908.8 252.712C907.08 252.712 905.759 253.479 905.333 254.97L907.133 255.226C907.325 254.667 907.868 254.187 908.811 254.187C909.706 254.187 910.196 254.645 910.196 255.45V255.482C910.196 256.036 909.615 256.062 908.172 256.217C906.584 256.387 905.066 256.861 905.066 258.704C905.066 260.313 906.243 261.165 907.804 261.165ZM908.305 259.748C907.501 259.748 906.925 259.381 906.925 258.672C906.925 257.932 907.57 257.623 908.433 257.5C908.939 257.431 909.951 257.303 910.201 257.101V258.065C910.201 258.976 909.466 259.748 908.305 259.748ZM914.513 261H916.441V252.818H914.513V261ZM915.482 251.657C916.095 251.657 916.596 251.188 916.596 250.613C916.596 250.032 916.095 249.564 915.482 249.564C914.865 249.564 914.364 250.032 914.364 250.613C914.364 251.188 914.865 251.657 915.482 251.657ZM920.802 250.091H918.874V261H920.802V250.091Z" fill="#6048E5"/>
<path d="M882.347 281H883.833V276.292C883.833 275.263 884.554 274.547 885.4 274.547C886.225 274.547 886.797 275.094 886.797 275.924V281H888.278V276.133C888.278 275.213 888.84 274.547 889.809 274.547C890.595 274.547 891.241 274.984 891.241 276.018V281H892.728V275.879C892.728 274.134 891.753 273.264 890.371 273.264C889.272 273.264 888.447 273.791 888.079 274.607H888C887.667 273.771 886.966 273.264 885.946 273.264C884.937 273.264 884.186 273.766 883.868 274.607H883.774V273.364H882.347V281ZM896.942 281.169C898.205 281.169 898.916 280.528 899.199 279.956H899.259V281H900.711V275.929C900.711 273.707 898.961 273.264 897.748 273.264C896.366 273.264 895.093 273.821 894.596 275.213L895.993 275.531C896.211 274.989 896.768 274.467 897.768 274.467C898.727 274.467 899.219 274.969 899.219 275.835V275.869C899.219 276.411 898.662 276.401 897.29 276.56C895.844 276.729 894.362 277.107 894.362 278.842C894.362 280.344 895.491 281.169 896.942 281.169ZM897.265 279.976C896.425 279.976 895.819 279.598 895.819 278.862C895.819 278.067 896.525 277.783 897.385 277.669C897.867 277.604 899.01 277.475 899.224 277.261V278.246C899.224 279.151 898.503 279.976 897.265 279.976ZM904.177 276.466C904.177 275.248 904.948 274.552 906.007 274.552C907.031 274.552 907.642 275.203 907.642 276.322V281H909.129V276.143C909.129 274.239 908.085 273.264 906.514 273.264C905.326 273.264 904.61 273.781 904.252 274.607H904.157V270.818H902.691V281H904.177V276.466ZM913.335 281.169C914.598 281.169 915.309 280.528 915.592 279.956H915.652V281H917.103V275.929C917.103 273.707 915.353 273.264 914.14 273.264C912.758 273.264 911.485 273.821 910.988 275.213L912.385 275.531C912.604 274.989 913.161 274.467 914.16 274.467C915.12 274.467 915.612 274.969 915.612 275.835V275.869C915.612 276.411 915.055 276.401 913.683 276.56C912.236 276.729 910.755 277.107 910.755 278.842C910.755 280.344 911.883 281.169 913.335 281.169ZM913.658 279.976C912.818 279.976 912.211 279.598 912.211 278.862C912.211 278.067 912.917 277.783 913.777 277.669C914.26 277.604 915.403 277.475 915.617 277.261V278.246C915.617 279.151 914.896 279.976 913.658 279.976ZM920.57 276.466C920.57 275.248 921.316 274.552 922.35 274.552C923.359 274.552 923.97 275.213 923.97 276.322V281H925.457V276.143C925.457 274.254 924.418 273.264 922.857 273.264C921.708 273.264 920.958 273.796 920.605 274.607H920.51V273.364H919.083V281H920.57V276.466ZM927.45 281H928.937V273.364H927.45V281ZM928.201 272.185C928.713 272.185 929.141 271.788 929.141 271.3C929.141 270.813 928.713 270.411 928.201 270.411C927.684 270.411 927.262 270.813 927.262 271.3C927.262 271.788 927.684 272.185 928.201 272.185ZM937.067 283.769C938.215 283.769 939.543 283.456 940.159 283.168L939.811 282.079C939.393 282.228 938.245 282.591 937.131 282.591C933.786 282.591 931.991 280.746 931.991 277.445C931.991 274.283 933.766 272.24 936.947 272.24C939.856 272.24 941.591 274.109 941.586 276.635C941.591 278.793 941.312 279.762 940.408 279.762C939.896 279.762 939.612 279.344 939.612 278.822V274.209H938.389V274.766H938.325C938.175 274.328 937.31 273.935 936.271 274.06C934.835 274.229 933.602 275.417 933.602 277.376C933.602 279.419 934.646 280.786 936.321 280.851C937.455 280.901 938.19 280.374 938.424 279.787H938.484C938.603 280.587 939.468 280.94 940.318 280.911C942.441 280.871 942.844 278.783 942.844 276.685C942.844 273.692 940.795 271.087 936.997 271.087C933.015 271.087 930.673 273.518 930.668 277.435C930.673 281.467 932.955 283.769 937.067 283.769ZM936.609 279.633C935.312 279.633 934.864 278.519 934.859 277.316C934.864 276.173 935.506 275.263 936.629 275.263C937.847 275.263 938.394 275.8 938.399 277.311C938.404 278.862 937.902 279.633 936.609 279.633ZM944.486 281H945.972V273.364H944.486V281ZM945.236 272.185C945.748 272.185 946.176 271.788 946.176 271.3C946.176 270.813 945.748 270.411 945.236 270.411C944.719 270.411 944.297 270.813 944.297 271.3C944.297 271.788 944.719 272.185 945.236 272.185ZM949.458 276.466C949.458 275.248 950.204 274.552 951.238 274.552C952.248 274.552 952.859 275.213 952.859 276.322V281H954.346V276.143C954.346 274.254 953.306 273.264 951.745 273.264C950.597 273.264 949.846 273.796 949.493 274.607H949.399V273.364H947.972V281H949.458V276.466ZM956.458 281H957.91V279.812H958.034C958.303 280.299 958.85 281.149 960.242 281.149C962.091 281.149 963.434 279.668 963.434 277.197C963.434 274.721 962.071 273.264 960.227 273.264C958.81 273.264 958.298 274.129 958.034 274.602H957.945V270.818H956.458V281ZM957.915 277.182C957.915 275.586 958.611 274.527 959.909 274.527C961.256 274.527 961.932 275.665 961.932 277.182C961.932 278.713 961.236 279.881 959.909 279.881C958.631 279.881 957.915 278.788 957.915 277.182ZM968.319 281.154C970.472 281.154 971.879 279.578 971.879 277.217C971.879 274.84 970.472 273.264 968.319 273.264C966.167 273.264 964.76 274.84 964.76 277.217C964.76 279.578 966.167 281.154 968.319 281.154ZM968.324 279.906C966.917 279.906 966.261 278.678 966.261 277.212C966.261 275.75 966.917 274.507 968.324 274.507C969.721 274.507 970.378 275.75 970.378 277.212C970.378 278.678 969.721 279.906 968.324 279.906ZM974.397 273.364H972.767L975.113 277.182L972.737 281H974.367L976.083 278.146L977.803 281H979.428L977.027 277.182L979.409 273.364H977.783L976.083 276.337L974.397 273.364ZM981.914 281.094C982.456 281.094 982.909 280.652 982.909 280.1C982.909 279.558 982.456 279.111 981.914 279.111C981.367 279.111 980.92 279.558 980.92 280.1C980.92 280.652 981.367 281.094 981.914 281.094ZM988.116 281.154C989.921 281.154 991.089 280.07 991.253 278.584H989.807C989.618 279.409 988.976 279.896 988.126 279.896C986.868 279.896 986.058 278.847 986.058 277.182C986.058 275.546 986.883 274.517 988.126 274.517C989.071 274.517 989.648 275.114 989.807 275.83H991.253C991.094 274.288 989.836 273.264 988.101 273.264C985.949 273.264 984.557 274.885 984.557 277.217C984.557 279.518 985.899 281.154 988.116 281.154ZM996.06 281.154C998.212 281.154 999.619 279.578 999.619 277.217C999.619 274.84 998.212 273.264 996.06 273.264C993.907 273.264 992.5 274.84 992.5 277.217C992.5 279.578 993.907 281.154 996.06 281.154ZM996.065 279.906C994.658 279.906 994.001 278.678 994.001 277.212C994.001 275.75 994.658 274.507 996.065 274.507C997.462 274.507 998.118 275.75 998.118 277.212C998.118 278.678 997.462 279.906 996.065 279.906ZM1001.28 281H1002.77V276.292C1002.77 275.263 1003.49 274.547 1004.33 274.547C1005.16 274.547 1005.73 275.094 1005.73 275.924V281H1007.21V276.133C1007.21 275.213 1007.77 274.547 1008.74 274.547C1009.53 274.547 1010.17 274.984 1010.17 276.018V281H1011.66V275.879C1011.66 274.134 1010.68 273.264 1009.3 273.264C1008.2 273.264 1007.38 273.791 1007.01 274.607H1006.93C1006.6 273.771 1005.9 273.264 1004.88 273.264C1003.87 273.264 1003.12 273.766 1002.8 274.607H1002.71V273.364H1001.28V281Z" fill="#64778C"/>
<a href="mailto:mahani@inbox.com">
<rect fill="black" fill-opacity="0" x="0.347656" y="-0.971591" width="131.301" height="16.9432"/>
</a>
<circle cx="805" cy="149" r="8" fill="url(#paint5_linear_1363_16807)"/>
<path d="M822.228 145.818V154.442C822.228 155.129 821.935 155.497 821.195 155.497C821.099 155.497 821.024 155.491 820.918 155.486V157.058C821.056 157.068 821.174 157.068 821.312 157.068C823.118 157.068 824.157 156.237 824.157 154.469V145.818H822.228ZM823.187 144.657C823.8 144.657 824.3 144.188 824.3 143.613C824.3 143.032 823.8 142.564 823.187 142.564C822.569 142.564 822.068 143.032 822.068 143.613C822.068 144.188 822.569 144.657 823.187 144.657ZM830.158 154.16C832.555 154.16 834.079 152.471 834.079 149.941C834.079 147.406 832.555 145.712 830.158 145.712C827.761 145.712 826.238 147.406 826.238 149.941C826.238 152.471 827.761 154.16 830.158 154.16ZM830.169 152.615C828.843 152.615 828.193 151.433 828.193 149.936C828.193 148.439 828.843 147.24 830.169 147.24C831.474 147.24 832.124 148.439 832.124 149.936C832.124 151.433 831.474 152.615 830.169 152.615ZM836.251 154H838.147V152.711H838.259C838.562 153.308 839.196 154.144 840.603 154.144C842.531 154.144 843.974 152.615 843.974 149.92C843.974 147.192 842.488 145.712 840.597 145.712C839.154 145.712 838.552 146.58 838.259 147.171H838.179V143.091H836.251V154ZM838.142 149.909C838.142 148.322 838.823 147.294 840.065 147.294C841.348 147.294 842.009 148.386 842.009 149.909C842.009 151.443 841.338 152.562 840.065 152.562C838.834 152.562 838.142 151.496 838.142 149.909ZM845.069 144.748H848.441V154H850.401V144.748H853.773V143.091H845.069V144.748ZM855.815 154H857.744V145.818H855.815V154ZM856.785 144.657C857.397 144.657 857.898 144.188 857.898 143.613C857.898 143.032 857.397 142.564 856.785 142.564C856.167 142.564 855.666 143.032 855.666 143.613C855.666 144.188 856.167 144.657 856.785 144.657ZM864.262 145.818H862.648V143.858H860.72V145.818H859.559V147.31H860.72V151.859C860.709 153.398 861.828 154.154 863.277 154.112C863.825 154.096 864.203 153.989 864.411 153.92L864.086 152.413C863.98 152.439 863.761 152.487 863.522 152.487C863.037 152.487 862.648 152.317 862.648 151.539V147.31H864.262V145.818ZM868.429 143.091H866.501V154H868.429V143.091ZM874.484 154.16C876.391 154.16 877.701 153.228 878.042 151.805L876.242 151.603C875.981 152.295 875.341 152.658 874.51 152.658C873.264 152.658 872.438 151.837 872.422 150.436H878.122V149.845C878.122 146.974 876.396 145.712 874.383 145.712C872.039 145.712 870.51 147.432 870.51 149.957C870.51 152.525 872.018 154.16 874.484 154.16ZM872.428 149.137C872.486 148.093 873.259 147.214 874.409 147.214C875.517 147.214 876.263 148.023 876.274 149.137H872.428Z" fill="#6048E5"/>
<path d="M822.302 178H823.947V174.165H826.185C828.715 174.165 829.967 172.636 829.967 170.623C829.967 168.614 828.726 167.091 826.19 167.091H822.302V178ZM823.947 172.769V168.502H826.014C827.644 168.502 828.31 169.387 828.31 170.623C828.31 171.858 827.644 172.769 826.036 172.769H823.947ZM831.768 178H833.361V173.004C833.361 171.933 834.187 171.161 835.316 171.161C835.646 171.161 836.019 171.219 836.147 171.256V169.733C835.987 169.712 835.673 169.696 835.47 169.696C834.512 169.696 833.691 170.239 833.393 171.118H833.308V169.818H831.768V178ZM840.679 178.165C842.985 178.165 844.493 176.477 844.493 173.946C844.493 171.4 842.985 169.712 840.679 169.712C838.372 169.712 836.865 171.4 836.865 173.946C836.865 176.477 838.372 178.165 840.679 178.165ZM840.684 176.828C839.177 176.828 838.473 175.512 838.473 173.941C838.473 172.375 839.177 171.043 840.684 171.043C842.181 171.043 842.884 172.375 842.884 173.941C842.884 175.512 842.181 176.828 840.684 176.828ZM849.333 178.16C850.825 178.16 851.411 177.249 851.698 176.727H851.831V178H853.387V167.091H851.794V171.145H851.698C851.411 170.638 850.867 169.712 849.344 169.712C847.368 169.712 845.913 171.272 845.913 173.925C845.913 176.572 847.346 178.16 849.333 178.16ZM849.685 176.801C848.263 176.801 847.522 175.55 847.522 173.909C847.522 172.284 848.247 171.065 849.685 171.065C851.075 171.065 851.821 172.199 851.821 173.909C851.821 175.63 851.059 176.801 849.685 176.801ZM860.843 174.607C860.848 175.997 859.815 176.658 858.92 176.658C857.935 176.658 857.253 175.944 857.253 174.831V169.818H855.66V175.022C855.66 177.052 856.773 178.107 858.345 178.107C859.575 178.107 860.411 177.457 860.79 176.583H860.875V178H862.441V169.818H860.843V174.607ZM868.027 178.165C869.961 178.165 871.213 177.004 871.388 175.411H869.838C869.636 176.295 868.949 176.817 868.038 176.817C866.69 176.817 865.822 175.694 865.822 173.909C865.822 172.157 866.706 171.054 868.038 171.054C869.05 171.054 869.668 171.693 869.838 172.46H871.388C871.218 170.809 869.87 169.712 868.011 169.712C865.705 169.712 864.213 171.448 864.213 173.946C864.213 176.413 865.652 178.165 868.027 178.165ZM876.911 169.818H875.233V167.858H873.64V169.818H872.442V171.097H873.64V175.928C873.635 177.414 874.77 178.133 876.027 178.107C876.533 178.101 876.874 178.005 877.06 177.936L876.772 176.62C876.666 176.642 876.469 176.69 876.213 176.69C875.696 176.69 875.233 176.519 875.233 175.598V171.097H876.911V169.818ZM882.77 178H889.674V176.583H884.416V173.243H889.253V171.832H884.416V168.508H889.61V167.091H882.77V178ZM893.273 173.142C893.273 171.837 894.072 171.091 895.18 171.091C896.261 171.091 896.917 171.8 896.917 172.988V178H898.509V172.796C898.509 170.772 897.396 169.712 895.723 169.712C894.493 169.712 893.689 170.282 893.311 171.15H893.209V169.818H891.681V178H893.273V173.142ZM904.076 181.239C906.159 181.239 907.767 180.285 907.767 178.181V169.818H906.206V171.145H906.089C905.807 170.638 905.242 169.712 903.719 169.712C901.743 169.712 900.288 171.272 900.288 173.877C900.288 176.487 901.775 177.877 903.708 177.877C905.21 177.877 905.791 177.031 906.079 176.509H906.18V178.117C906.18 179.401 905.301 179.955 904.092 179.955C902.765 179.955 902.249 179.289 901.966 178.82L900.597 179.385C901.029 180.386 902.121 181.239 904.076 181.239ZM904.06 176.556C902.638 176.556 901.897 175.464 901.897 173.856C901.897 172.284 902.622 171.065 904.06 171.065C905.45 171.065 906.196 172.199 906.196 173.856C906.196 175.544 905.434 176.556 904.06 176.556ZM909.903 178H911.496V169.818H909.903V178ZM910.708 168.556C911.256 168.556 911.714 168.13 911.714 167.608C911.714 167.086 911.256 166.654 910.708 166.654C910.154 166.654 909.701 167.086 909.701 167.608C909.701 168.13 910.154 168.556 910.708 168.556ZM915.231 173.142C915.231 171.837 916.03 171.091 917.138 171.091C918.22 171.091 918.875 171.8 918.875 172.988V178H920.467V172.796C920.467 170.772 919.354 169.712 917.682 169.712C916.451 169.712 915.647 170.282 915.269 171.15H915.167V169.818H913.639V178H915.231V173.142ZM926.13 178.165C927.914 178.165 929.177 177.286 929.539 175.955L928.031 175.683C927.744 176.455 927.051 176.849 926.146 176.849C924.782 176.849 923.866 175.965 923.823 174.388H929.64V173.824C929.64 170.868 927.871 169.712 926.018 169.712C923.738 169.712 922.236 171.448 922.236 173.962C922.236 176.503 923.717 178.165 926.13 178.165ZM923.829 173.195C923.892 172.034 924.734 171.027 926.028 171.027C927.264 171.027 928.074 171.944 928.079 173.195H923.829ZM934.933 178.165C936.718 178.165 937.98 177.286 938.342 175.955L936.835 175.683C936.547 176.455 935.855 176.849 934.949 176.849C933.586 176.849 932.67 175.965 932.627 174.388H938.444V173.824C938.444 170.868 936.675 169.712 934.822 169.712C932.542 169.712 931.04 171.448 931.04 173.962C931.04 176.503 932.52 178.165 934.933 178.165ZM932.632 173.195C932.696 172.034 933.538 171.027 934.832 171.027C936.068 171.027 936.878 171.944 936.883 173.195H932.632ZM940.211 178H941.803V173.004C941.803 171.933 942.629 171.161 943.758 171.161C944.089 171.161 944.462 171.219 944.589 171.256V169.733C944.43 169.712 944.115 169.696 943.913 169.696C942.954 169.696 942.134 170.239 941.835 171.118H941.75V169.818H940.211V178Z" fill="#64778C"/>
<path d="M560.483 153.818H558.784V153.174C558.784 152.534 559.05 152.178 559.769 152.178C560.073 152.178 560.328 152.247 560.488 152.295L560.877 150.803C560.627 150.718 560.078 150.58 559.412 150.58C557.99 150.58 556.855 151.395 556.855 153.046V153.818H555.646V155.31H556.855V162H558.784V155.31H560.483V153.818ZM562.443 162H564.371V153.818H562.443V162ZM563.412 152.657C564.025 152.657 564.526 152.188 564.526 151.613C564.526 151.032 564.025 150.564 563.412 150.564C562.795 150.564 562.294 151.032 562.294 151.613C562.294 152.188 562.795 152.657 563.412 152.657ZM566.804 162H568.732V157.19C568.732 156.151 569.515 155.416 570.575 155.416C570.9 155.416 571.305 155.475 571.47 155.528V153.754C571.295 153.722 570.991 153.701 570.778 153.701C569.84 153.701 569.057 154.234 568.759 155.182H568.674V153.818H566.804V162ZM579.668 155.981C579.402 154.596 578.294 153.712 576.376 153.712C574.405 153.712 573.063 154.681 573.068 156.194C573.063 157.387 573.798 158.175 575.369 158.5L576.765 158.793C577.516 158.958 577.868 159.262 577.868 159.725C577.868 160.285 577.26 160.706 576.344 160.706C575.46 160.706 574.885 160.322 574.72 159.587L572.839 159.768C573.079 161.27 574.341 162.16 576.349 162.16C578.395 162.16 579.838 161.1 579.844 159.55C579.838 158.383 579.087 157.669 577.543 157.334L576.147 157.036C575.316 156.849 574.986 156.561 574.991 156.087C574.986 155.533 575.598 155.15 576.403 155.15C577.292 155.15 577.761 155.635 577.91 156.173L579.668 155.981ZM585.969 153.818H584.355V151.858H582.427V153.818H581.266V155.31H582.427V159.859C582.417 161.398 583.535 162.154 584.984 162.112C585.533 162.096 585.911 161.989 586.119 161.92L585.794 160.413C585.687 160.439 585.469 160.487 585.229 160.487C584.744 160.487 584.355 160.317 584.355 159.539V155.31H585.969V153.818ZM597.258 151.091H595.292V158.527H595.196L590.062 151.091H588.293V162H590.269V154.569H590.36L595.5 162H597.258V151.091ZM602.13 162.165C603.414 162.165 604.181 161.563 604.533 160.876H604.597V162H606.45V156.524C606.45 154.362 604.687 153.712 603.127 153.712C601.406 153.712 600.085 154.479 599.659 155.97L601.459 156.226C601.651 155.667 602.194 155.187 603.137 155.187C604.032 155.187 604.522 155.645 604.522 156.45V156.482C604.522 157.036 603.942 157.062 602.498 157.217C600.911 157.387 599.392 157.861 599.392 159.704C599.392 161.313 600.57 162.165 602.13 162.165ZM602.631 160.748C601.827 160.748 601.252 160.381 601.252 159.672C601.252 158.932 601.896 158.623 602.759 158.5C603.265 158.431 604.277 158.303 604.527 158.101V159.065C604.527 159.976 603.792 160.748 602.631 160.748ZM608.839 162H610.768V157.025C610.768 156.018 611.439 155.336 612.27 155.336C613.085 155.336 613.644 155.885 613.644 156.727V162H615.535V156.897C615.535 155.975 616.084 155.336 617.016 155.336C617.793 155.336 618.411 155.794 618.411 156.806V162H620.345V156.508C620.345 154.681 619.29 153.712 617.788 153.712C616.6 153.712 615.695 154.298 615.333 155.208H615.247C614.933 154.282 614.139 153.712 613.037 153.712C611.939 153.712 611.119 154.276 610.778 155.208H610.682V153.818H608.839V162ZM626.373 162.16C628.28 162.16 629.591 161.228 629.932 159.805L628.131 159.603C627.87 160.295 627.231 160.658 626.4 160.658C625.154 160.658 624.328 159.837 624.312 158.436H630.012V157.845C630.012 154.974 628.286 153.712 626.272 153.712C623.928 153.712 622.4 155.432 622.4 157.957C622.4 160.525 623.907 162.16 626.373 162.16ZM624.317 157.137C624.376 156.093 625.148 155.214 626.299 155.214C627.407 155.214 628.152 156.023 628.163 157.137H624.317Z" fill="#6048E5"/>
<path d="M556.681 175.091V186H558.247V178.1H558.349L561.566 185.984H562.866L566.083 178.106H566.184V186H567.75V175.091H565.753L562.28 183.571H562.152L558.679 175.091H556.681ZM572.397 186.181C573.75 186.181 574.511 185.494 574.815 184.881H574.879V186H576.434V180.567C576.434 178.186 574.559 177.712 573.259 177.712C571.779 177.712 570.415 178.308 569.882 179.8L571.379 180.141C571.614 179.56 572.21 179.001 573.281 179.001C574.309 179.001 574.836 179.539 574.836 180.466V180.503C574.836 181.083 574.24 181.073 572.769 181.243C571.219 181.424 569.632 181.829 569.632 183.688C569.632 185.297 570.841 186.181 572.397 186.181ZM572.743 184.903C571.843 184.903 571.193 184.498 571.193 183.71C571.193 182.857 571.949 182.554 572.871 182.431C573.387 182.362 574.612 182.223 574.841 181.994V183.049C574.841 184.018 574.069 184.903 572.743 184.903ZM578.556 186H580.148V181.004C580.148 179.933 580.974 179.161 582.103 179.161C582.433 179.161 582.806 179.219 582.934 179.256V177.733C582.774 177.712 582.46 177.696 582.258 177.696C581.299 177.696 580.478 178.239 580.18 179.118H580.095V177.818H578.556V186ZM584.312 186H585.905V177.818H584.312V186ZM585.117 176.556C585.665 176.556 586.123 176.13 586.123 175.608C586.123 175.086 585.665 174.654 585.117 174.654C584.563 174.654 584.11 175.086 584.11 175.608C584.11 176.13 584.563 176.556 585.117 176.556ZM590.429 186.181C591.782 186.181 592.543 185.494 592.847 184.881H592.911V186H594.466V180.567C594.466 178.186 592.591 177.712 591.292 177.712C589.811 177.712 588.447 178.308 587.915 179.8L589.411 180.141C589.646 179.56 590.242 179.001 591.313 179.001C592.341 179.001 592.868 179.539 592.868 180.466V180.503C592.868 181.083 592.272 181.073 590.802 181.243C589.252 181.424 587.664 181.829 587.664 183.688C587.664 185.297 588.873 186.181 590.429 186.181ZM590.775 184.903C589.875 184.903 589.225 184.498 589.225 183.71C589.225 182.857 589.981 182.554 590.903 182.431C591.42 182.362 592.645 182.223 592.874 181.994V183.049C592.874 184.018 592.101 184.903 590.775 184.903Z" fill="#64778C"/>
<circle cx="647" cy="157" r="8" fill="url(#paint6_linear_1363_16807)"/>
<path d="M488.986 258.091H487.058V269H488.986V258.091ZM493.773 269.165C495.057 269.165 495.824 268.563 496.176 267.876H496.24V269H498.093V263.524C498.093 261.362 496.33 260.712 494.769 260.712C493.049 260.712 491.728 261.479 491.302 262.97L493.102 263.226C493.294 262.667 493.837 262.187 494.78 262.187C495.675 262.187 496.165 262.645 496.165 263.45V263.482C496.165 264.036 495.584 264.062 494.141 264.217C492.554 264.387 491.035 264.861 491.035 266.704C491.035 268.313 492.213 269.165 493.773 269.165ZM494.274 267.748C493.47 267.748 492.894 267.381 492.894 266.672C492.894 265.932 493.539 265.623 494.402 265.5C494.908 265.431 495.92 265.303 496.17 265.101V266.065C496.17 266.976 495.435 267.748 494.274 267.748ZM506.949 262.981C506.683 261.596 505.575 260.712 503.657 260.712C501.686 260.712 500.344 261.681 500.349 263.194C500.344 264.387 501.079 265.175 502.65 265.5L504.046 265.793C504.797 265.958 505.148 266.262 505.148 266.725C505.148 267.285 504.541 267.706 503.625 267.706C502.741 267.706 502.166 267.322 502 266.587L500.12 266.768C500.36 268.27 501.622 269.16 503.63 269.16C505.676 269.16 507.119 268.1 507.125 266.55C507.119 265.383 506.368 264.669 504.824 264.334L503.428 264.036C502.597 263.849 502.267 263.561 502.272 263.087C502.267 262.533 502.879 262.15 503.684 262.15C504.573 262.15 505.042 262.635 505.191 263.173L506.949 262.981ZM513.25 260.818H511.636V258.858H509.708V260.818H508.547V262.31H509.708V266.859C509.697 268.398 510.816 269.154 512.265 269.112C512.813 269.096 513.192 268.989 513.399 268.92L513.074 267.413C512.968 267.439 512.75 267.487 512.51 267.487C512.025 267.487 511.636 267.317 511.636 266.539V262.31H513.25V260.818ZM524.539 258.091H522.573V265.527H522.477L517.342 258.091H515.574V269H517.55V261.569H517.641L522.781 269H524.539V258.091ZM529.411 269.165C530.695 269.165 531.462 268.563 531.814 267.876H531.878V269H533.731V263.524C533.731 261.362 531.968 260.712 530.407 260.712C528.687 260.712 527.366 261.479 526.94 262.97L528.74 263.226C528.932 262.667 529.475 262.187 530.418 262.187C531.313 262.187 531.803 262.645 531.803 263.45V263.482C531.803 264.036 531.222 264.062 529.779 264.217C528.191 264.387 526.673 264.861 526.673 266.704C526.673 268.313 527.851 269.165 529.411 269.165ZM529.912 267.748C529.108 267.748 528.532 267.381 528.532 266.672C528.532 265.932 529.177 265.623 530.04 265.5C530.546 265.431 531.558 265.303 531.808 265.101V266.065C531.808 266.976 531.073 267.748 529.912 267.748ZM536.12 269H538.048V264.025C538.048 263.018 538.72 262.336 539.551 262.336C540.366 262.336 540.925 262.885 540.925 263.727V269H542.816V263.897C542.816 262.975 543.364 262.336 544.297 262.336C545.074 262.336 545.692 262.794 545.692 263.806V269H547.626V263.508C547.626 261.681 546.571 260.712 545.069 260.712C543.881 260.712 542.976 261.298 542.613 262.208H542.528C542.214 261.282 541.42 260.712 540.318 260.712C539.22 260.712 538.4 261.276 538.059 262.208H537.963V260.818H536.12V269ZM553.654 269.16C555.561 269.16 556.872 268.228 557.212 266.805L555.412 266.603C555.151 267.295 554.512 267.658 553.681 267.658C552.434 267.658 551.609 266.837 551.593 265.436H557.292V264.845C557.292 261.974 555.567 260.712 553.553 260.712C551.209 260.712 549.681 262.432 549.681 264.957C549.681 267.525 551.188 269.16 553.654 269.16ZM551.598 264.137C551.657 263.093 552.429 262.214 553.58 262.214C554.688 262.214 555.433 263.023 555.444 264.137H551.598Z" fill="#6048E5"/>
<path d="M487.566 282.091V293H489.132V285.1H489.233L492.45 292.984H493.75L496.967 285.106H497.069V293H498.635V282.091H496.637L493.164 290.571H493.036L489.563 282.091H487.566ZM503.281 293.181C504.634 293.181 505.396 292.494 505.699 291.881H505.763V293H507.318V287.567C507.318 285.186 505.443 284.712 504.144 284.712C502.663 284.712 501.299 285.308 500.767 286.8L502.263 287.141C502.498 286.56 503.094 286.001 504.165 286.001C505.193 286.001 505.72 286.539 505.72 287.466V287.503C505.72 288.083 505.124 288.073 503.654 288.243C502.104 288.424 500.516 288.829 500.516 290.688C500.516 292.297 501.725 293.181 503.281 293.181ZM503.627 291.903C502.727 291.903 502.077 291.498 502.077 290.71C502.077 289.857 502.833 289.554 503.755 289.431C504.272 289.362 505.497 289.223 505.726 288.994V290.049C505.726 291.018 504.953 291.903 503.627 291.903ZM511.032 288.142C511.032 286.837 511.858 286.091 512.993 286.091C514.09 286.091 514.745 286.789 514.745 287.988V293H516.338V287.796C516.338 285.756 515.219 284.712 513.536 284.712C512.263 284.712 511.496 285.266 511.112 286.15H511.011V282.091H509.44V293H511.032V288.142ZM520.844 293.181C522.197 293.181 522.959 292.494 523.263 291.881H523.327V293H524.882V287.567C524.882 285.186 523.007 284.712 521.707 284.712C520.226 284.712 518.863 285.308 518.33 286.8L519.827 287.141C520.061 286.56 520.658 286.001 521.729 286.001C522.757 286.001 523.284 286.539 523.284 287.466V287.503C523.284 288.083 522.687 288.073 521.217 288.243C519.667 288.424 518.08 288.829 518.08 290.688C518.08 292.297 519.289 293.181 520.844 293.181ZM521.191 291.903C520.29 291.903 519.64 291.498 519.64 290.71C519.64 289.857 520.397 289.554 521.318 289.431C521.835 289.362 523.06 289.223 523.289 288.994V290.049C523.289 291.018 522.517 291.903 521.191 291.903ZM528.596 288.142C528.596 286.837 529.395 286.091 530.503 286.091C531.584 286.091 532.239 286.8 532.239 287.988V293H533.832V287.796C533.832 285.772 532.719 284.712 531.046 284.712C529.816 284.712 529.011 285.282 528.633 286.15H528.532V284.818H527.003V293H528.596V288.142ZM535.968 293H537.561V284.818H535.968V293ZM536.772 283.556C537.321 283.556 537.779 283.13 537.779 282.608C537.779 282.086 537.321 281.654 536.772 281.654C536.218 281.654 535.766 282.086 535.766 282.608C535.766 283.13 536.218 283.556 536.772 283.556Z" fill="#64778C"/>
<circle cx="574" cy="264" r="8" fill="url(#paint7_linear_1363_16807)"/>
<line x1="719.5" y1="350" x2="719.5" y2="394" stroke="url(#paint8_linear_1363_16807)"/>
<circle opacity="0.1" cx="719" cy="298" r="20.5" stroke="#6048E5"/>
<circle opacity="0.3" cx="719" cy="298" r="15" stroke="#6048E5" stroke-width="2"/>
<circle cx="719" cy="298" r="9" fill="url(#paint9_linear_1363_16807)"/>
<path d="M688.453 336H690.429V332.314H692.517C695.037 332.314 696.39 330.801 696.39 328.702C696.39 326.62 695.053 325.091 692.544 325.091H688.453V336ZM690.429 330.689V326.742H692.24C693.721 326.742 694.376 327.541 694.376 328.702C694.376 329.864 693.721 330.689 692.251 330.689H690.429ZM698.556 336H705.694V334.343H700.532V331.366H705.284V329.709H700.532V326.748H705.651V325.091H698.556V336ZM708.118 336H710.094V332.005H712.107L714.249 336H716.454L714.094 331.675C715.378 331.158 716.054 330.061 716.054 328.58C716.054 326.497 714.712 325.091 712.209 325.091H708.118V336ZM710.094 330.364V326.742H711.905C713.38 326.742 714.041 327.419 714.041 328.58C714.041 329.741 713.38 330.364 711.916 330.364H710.094ZM724.252 328.09H726.154C726.116 326.247 724.545 324.942 722.223 324.942C719.932 324.942 718.212 326.231 718.217 328.159C718.217 329.725 719.33 330.625 721.125 331.089L722.366 331.408C723.544 331.707 724.321 332.074 724.327 332.921C724.321 333.853 723.437 334.477 722.148 334.477C720.912 334.477 719.953 333.923 719.874 332.777H717.929C718.009 334.945 719.623 336.165 722.164 336.165C724.779 336.165 726.298 334.86 726.303 332.937C726.298 331.046 724.737 330.183 723.096 329.794L722.073 329.539C721.179 329.326 720.209 328.947 720.22 328.037C720.225 327.216 720.96 326.614 722.196 326.614C723.373 326.614 724.151 327.163 724.252 328.09ZM738.263 330.545C738.263 327.019 736.111 324.942 733.25 324.942C730.384 324.942 728.238 327.019 728.238 330.545C728.238 334.066 730.384 336.149 733.25 336.149C736.111 336.149 738.263 334.072 738.263 330.545ZM736.276 330.545C736.276 333.028 735.029 334.375 733.25 334.375C731.476 334.375 730.225 333.028 730.225 330.545C730.225 328.063 731.476 326.716 733.25 326.716C735.029 326.716 736.276 328.063 736.276 330.545ZM749.546 325.091H747.58V332.527H747.484L742.349 325.091H740.581V336H742.557V328.569H742.648L747.788 336H749.546V325.091Z" fill="#6048E5"/>
<rect y="178" width="46" height="51" fill="white"/>
<defs>
<linearGradient id="paint0_linear_1363_16807" x1="734" y1="293" x2="855.357" y2="271.616" gradientUnits="userSpaceOnUse">
<stop stop-color="#BDB4FE"/>
<stop offset="1" stop-color="#BDB4FE" stop-opacity="0"/>
</linearGradient>
<linearGradient id="paint1_linear_1363_16807" x1="703" y1="294" x2="584.871" y2="269.873" gradientUnits="userSpaceOnUse">
<stop stop-color="#BDB4FE"/>
<stop offset="1" stop-color="#BDB4FE" stop-opacity="0"/>
</linearGradient>
<linearGradient id="paint2_linear_1363_16807" x1="712" y1="284.001" x2="649.992" y2="282.486" gradientUnits="userSpaceOnUse">
<stop stop-color="#BDB4FE"/>
<stop offset="1" stop-color="#BDB4FE" stop-opacity="0"/>
</linearGradient>
<linearGradient id="paint3_linear_1363_16807" x1="726" y1="284.001" x2="801.429" y2="281.884" gradientUnits="userSpaceOnUse">
<stop stop-color="#BDB4FE"/>
<stop offset="1" stop-color="#BDB4FE" stop-opacity="0"/>
</linearGradient>
<linearGradient id="paint4_linear_1363_16807" x1="865" y1="248" x2="865" y2="264" gradientUnits="userSpaceOnUse">
<stop stop-color="#7963F5"/>
<stop offset="1" stop-color="#5D46DB"/>
</linearGradient>
<linearGradient id="paint5_linear_1363_16807" x1="805" y1="141" x2="805" y2="157" gradientUnits="userSpaceOnUse">
<stop stop-color="#7963F5"/>
<stop offset="1" stop-color="#5D46DB"/>
</linearGradient>
<linearGradient id="paint6_linear_1363_16807" x1="647" y1="149" x2="647" y2="165" gradientUnits="userSpaceOnUse">
<stop stop-color="#7963F5"/>
<stop offset="1" stop-color="#5D46DB"/>
</linearGradient>
<linearGradient id="paint7_linear_1363_16807" x1="574" y1="256" x2="574" y2="272" gradientUnits="userSpaceOnUse">
<stop stop-color="#7963F5"/>
<stop offset="1" stop-color="#5D46DB"/>
</linearGradient>
<linearGradient id="paint8_linear_1363_16807" x1="718" y1="350" x2="744.611" y2="363.314" gradientUnits="userSpaceOnUse">
<stop stop-color="#BDB4FE"/>
<stop offset="1" stop-color="#BDB4FE" stop-opacity="0"/>
</linearGradient>
<linearGradient id="paint9_linear_1363_16807" x1="719" y1="289" x2="719" y2="307" gradientUnits="userSpaceOnUse">
<stop stop-color="#7963F5"/>
<stop offset="1" stop-color="#5D46DB"/>
</linearGradient>
</defs>
</svg>
