<svg width="646" height="374" viewBox="0 0 646 374" fill="none" xmlns="http://www.w3.org/2000/svg">
<path d="M8.48289 205.818H6.78367V205.174C6.78367 204.534 7.05001 204.178 7.76911 204.178C8.07274 204.178 8.32842 204.247 8.48822 204.295L8.87707 202.803C8.62671 202.718 8.07806 202.58 7.41223 202.58C5.99 202.58 4.85541 203.395 4.85541 205.046V205.818H3.64625V207.31H4.85541V214H6.78367V207.31H8.48289V205.818ZM10.443 214H12.3713V205.818H10.443V214ZM11.4125 204.657C12.025 204.657 12.5258 204.188 12.5258 203.613C12.5258 203.032 12.025 202.564 11.4125 202.564C10.7946 202.564 10.2939 203.032 10.2939 203.613C10.2939 204.188 10.7946 204.657 11.4125 204.657ZM14.8041 214H16.7324V209.19C16.7324 208.151 17.5154 207.416 18.5755 207.416C18.9004 207.416 19.3052 207.475 19.4703 207.528V205.754C19.2946 205.722 18.9909 205.701 18.7779 205.701C17.8404 205.701 17.0573 206.234 16.759 207.182H16.6738V205.818H14.8041V214ZM27.668 207.981C27.4017 206.596 26.2937 205.712 24.3761 205.712C22.4052 205.712 21.0629 206.681 21.0682 208.194C21.0629 209.387 21.798 210.175 23.3694 210.5L24.765 210.793C25.516 210.958 25.8676 211.262 25.8676 211.725C25.8676 212.285 25.2604 212.706 24.3442 212.706C23.4599 212.706 22.8847 212.322 22.7195 211.587L20.8392 211.768C21.0789 213.27 22.3413 214.16 24.3495 214.16C26.3949 214.16 27.8385 213.1 27.8438 211.55C27.8385 210.383 27.0874 209.669 25.5427 209.334L24.1471 209.036C23.3161 208.849 22.9859 208.561 22.9912 208.087C22.9859 207.533 23.5984 207.15 24.4028 207.15C25.2923 207.15 25.7611 207.635 25.9102 208.173L27.668 207.981ZM33.9694 205.818H32.3554V203.858H30.4272V205.818H29.2659V207.31H30.4272V211.859C30.4165 213.398 31.5351 214.154 32.984 214.112C33.5326 214.096 33.9108 213.989 34.1186 213.92L33.7936 212.413C33.6871 212.439 33.4687 212.487 33.229 212.487C32.7443 212.487 32.3554 212.317 32.3554 211.539V207.31H33.9694V205.818ZM45.2579 203.091H43.2924V210.527H43.1965L38.0616 203.091H36.2931V214H38.2693V206.569H38.3598L43.5001 214H45.2579V203.091ZM50.1304 214.165C51.4142 214.165 52.1812 213.563 52.5328 212.876H52.5967V214H54.4504V208.524C54.4504 206.362 52.6872 205.712 51.1265 205.712C49.406 205.712 48.085 206.479 47.6588 207.97L49.4593 208.226C49.651 207.667 50.1943 207.187 51.1372 207.187C52.0321 207.187 52.5221 207.645 52.5221 208.45V208.482C52.5221 209.036 51.9415 209.062 50.498 209.217C48.9106 209.387 47.3925 209.861 47.3925 211.704C47.3925 213.313 48.5697 214.165 50.1304 214.165ZM50.6311 212.748C49.8268 212.748 49.2515 212.381 49.2515 211.672C49.2515 210.932 49.8961 210.623 50.759 210.5C51.265 210.431 52.2771 210.303 52.5274 210.101V211.065C52.5274 211.976 51.7924 212.748 50.6311 212.748ZM56.8393 214H58.7676V209.025C58.7676 208.018 59.4387 207.336 60.2697 207.336C61.0847 207.336 61.644 207.885 61.644 208.727V214H63.535V208.897C63.535 207.975 64.0836 207.336 65.0158 207.336C65.7935 207.336 66.4114 207.794 66.4114 208.806V214H68.345V208.508C68.345 206.681 67.2903 205.712 65.7882 205.712C64.6003 205.712 63.6948 206.298 63.3326 207.208H63.2473C62.9331 206.282 62.1394 205.712 61.0367 205.712C59.9394 205.712 59.1191 206.276 58.7782 207.208H58.6823V205.818H56.8393V214ZM74.3734 214.16C76.2803 214.16 77.5907 213.228 77.9316 211.805L76.1312 211.603C75.8702 212.295 75.231 212.658 74.4 212.658C73.1536 212.658 72.3279 211.837 72.3119 210.436H78.0115V209.845C78.0115 206.974 76.2857 205.712 74.2722 205.712C71.9284 205.712 70.3997 207.432 70.3997 209.957C70.3997 212.525 71.9071 214.16 74.3734 214.16ZM72.3173 209.137C72.3759 208.093 73.1482 207.214 74.2988 207.214C75.4068 207.214 76.1525 208.023 76.1632 209.137H72.3173Z" fill="#6048E5"/>
<path d="M4.68142 227.091V238H6.24747V230.1H6.34868L9.56601 237.984H10.8657L14.0831 230.106H14.1843V238H15.7503V227.091H13.7528L10.2798 235.571H10.1519L6.67893 227.091H4.68142ZM20.3965 238.181C21.7495 238.181 22.5112 237.494 22.8149 236.881H22.8788V238H24.4342V232.567C24.4342 230.186 22.5592 229.712 21.2595 229.712C19.7786 229.712 18.415 230.308 17.8823 231.8L19.3791 232.141C19.6135 231.56 20.2101 231.001 21.2808 231.001C22.3088 231.001 22.8362 231.539 22.8362 232.466V232.503C22.8362 233.083 22.2396 233.073 20.7694 233.243C19.2193 233.424 17.632 233.829 17.632 235.688C17.632 237.297 18.8411 238.181 20.3965 238.181ZM20.7428 236.903C19.8426 236.903 19.1927 236.498 19.1927 235.71C19.1927 234.857 19.9491 234.554 20.8706 234.431C21.3873 234.362 22.6124 234.223 22.8415 233.994V235.049C22.8415 236.018 22.0691 236.903 20.7428 236.903ZM26.5555 238H28.1482V233.004C28.1482 231.933 28.9739 231.161 30.1031 231.161C30.4334 231.161 30.8062 231.219 30.9341 231.256V229.733C30.7743 229.712 30.46 229.696 30.2576 229.696C29.2988 229.696 28.4785 230.239 28.1802 231.118H28.0949V229.818H26.5555V238ZM32.3124 238H33.9051V229.818H32.3124V238ZM33.1167 228.556C33.6653 228.556 34.1234 228.13 34.1234 227.608C34.1234 227.086 33.6653 226.654 33.1167 226.654C32.5627 226.654 32.11 227.086 32.11 227.608C32.11 228.13 32.5627 228.556 33.1167 228.556ZM38.4288 238.181C39.7817 238.181 40.5435 237.494 40.8471 236.881H40.911V238H42.4664V232.567C42.4664 230.186 40.5914 229.712 39.2917 229.712C37.8109 229.712 36.4472 230.308 35.9146 231.8L37.4114 232.141C37.6457 231.56 38.2423 231.001 39.313 231.001C40.341 231.001 40.8684 231.539 40.8684 232.466V232.503C40.8684 233.083 40.2718 233.073 38.8016 233.243C37.2516 233.424 35.6642 233.829 35.6642 235.688C35.6642 237.297 36.8734 238.181 38.4288 238.181ZM38.775 236.903C37.8748 236.903 37.2249 236.498 37.2249 235.71C37.2249 234.857 37.9813 234.554 38.9028 234.431C39.4195 234.362 40.6447 234.223 40.8737 233.994V235.049C40.8737 236.018 40.1013 236.903 38.775 236.903Z" fill="#64778C"/>
<circle cx="95" cy="209" r="8" fill="url(#paint0_linear_1370_17103)"/>
<path d="M344 159L256 236" stroke="url(#paint1_linear_1370_17103)"/>
<path d="M413 24L359 139" stroke="url(#paint2_linear_1370_17103)"/>
<path d="M527 193L364 152" stroke="url(#paint3_linear_1370_17103)"/>
<path d="M105 214L228 242" stroke="url(#paint4_linear_1370_17103)"/>
<path d="M159 111L235 233" stroke="url(#paint5_linear_1370_17103)"/>
<path d="M85.4643 104H87.3926V95.8182H85.4643V104ZM86.4338 94.657C87.0463 94.657 87.547 94.1882 87.547 93.6129C87.547 93.0323 87.0463 92.5636 86.4338 92.5636C85.8159 92.5636 85.3152 93.0323 85.3152 93.6129C85.3152 94.1882 85.8159 94.657 86.4338 94.657ZM89.8254 104H91.7537V99.0249C91.7537 98.0181 92.4249 97.3363 93.2558 97.3363C94.0708 97.3363 94.6301 97.8849 94.6301 98.7266V104H96.5211V98.897C96.5211 97.9755 97.0698 97.3363 98.0019 97.3363C98.7796 97.3363 99.3975 97.7944 99.3975 98.8065V104H101.331V98.5082C101.331 96.6811 100.276 95.7116 98.7743 95.7116C97.5864 95.7116 96.6809 96.2976 96.3187 97.2085H96.2335C95.9192 96.2816 95.1255 95.7116 94.0229 95.7116C92.9256 95.7116 92.1053 96.2763 91.7644 97.2085H91.6685V95.8182H89.8254V104ZM106.092 104.165C107.375 104.165 108.143 103.563 108.494 102.876H108.558V104H110.412V98.5241C110.412 96.3615 108.649 95.7116 107.088 95.7116C105.367 95.7116 104.046 96.4787 103.62 97.9702L105.421 98.2259C105.612 97.6665 106.156 97.1871 107.098 97.1871C107.993 97.1871 108.483 97.6452 108.483 98.4496V98.4815C108.483 99.0355 107.903 99.0621 106.459 99.2166C104.872 99.3871 103.354 99.8612 103.354 101.704C103.354 103.313 104.531 104.165 106.092 104.165ZM106.592 102.748C105.788 102.748 105.213 102.381 105.213 101.672C105.213 100.932 105.857 100.623 106.72 100.5C107.226 100.431 108.238 100.303 108.489 100.101V101.065C108.489 101.976 107.754 102.748 106.592 102.748ZM116.359 107.239C118.569 107.239 120.199 106.227 120.199 104.133V95.8182H118.298V97.1712H118.191C117.898 96.5799 117.286 95.7116 115.842 95.7116C113.951 95.7116 112.465 97.1925 112.465 99.8825C112.465 102.551 113.951 103.883 115.837 103.883C117.238 103.883 117.893 103.132 118.191 102.53H118.287V104.08C118.287 105.284 117.488 105.779 116.391 105.779C115.23 105.779 114.718 105.23 114.484 104.751L112.747 105.172C113.099 106.317 114.276 107.239 116.359 107.239ZM116.375 102.37C115.102 102.37 114.431 101.379 114.431 99.8718C114.431 98.3857 115.091 97.2937 116.375 97.2937C117.616 97.2937 118.298 98.3217 118.298 99.8718C118.298 101.433 117.605 102.37 116.375 102.37ZM126.248 104.16C128.155 104.16 129.465 103.228 129.806 101.805L128.006 101.603C127.745 102.295 127.105 102.658 126.274 102.658C125.028 102.658 124.202 101.837 124.186 100.436H129.886V99.8452C129.886 96.9741 128.16 95.7116 126.147 95.7116C123.803 95.7116 122.274 97.4322 122.274 99.957C122.274 102.525 123.782 104.16 126.248 104.16ZM124.192 99.1367C124.25 98.0927 125.023 97.2138 126.173 97.2138C127.281 97.2138 128.027 98.0234 128.038 99.1367H124.192Z" fill="#6048E5"/>
<path d="M3.13894 123.142C3.13894 121.837 3.96458 121.091 5.09917 121.091C6.19647 121.091 6.85165 121.789 6.85165 122.988V128H8.44434V122.796C8.44434 120.756 7.32573 119.712 5.64249 119.712C4.36941 119.712 3.60236 120.266 3.21884 121.15H3.11763V117.091H1.54625V128H3.13894V123.142ZM14.3889 119.818H12.711V117.858H11.1183V119.818H9.91983V121.097H11.1183V125.928C11.113 127.414 12.2476 128.133 13.5047 128.107C14.0107 128.101 14.3517 128.005 14.5381 127.936L14.2504 126.62C14.1439 126.642 13.9468 126.69 13.6911 126.69C13.1744 126.69 12.711 126.519 12.711 125.598V121.097H14.3889V119.818ZM19.97 119.818H18.2921V117.858H16.6994V119.818H15.5009V121.097H16.6994V125.928C16.6941 127.414 17.8287 128.133 19.0858 128.107C19.5918 128.101 19.9327 128.005 20.1191 127.936L19.8315 126.62C19.725 126.642 19.5279 126.69 19.2722 126.69C18.7555 126.69 18.2921 126.519 18.2921 125.598V121.097H19.97V119.818ZM21.7318 131.068H23.3245V126.727H23.4204C23.708 127.249 24.2939 128.16 25.7854 128.16C27.767 128.16 29.2052 126.572 29.2052 123.925C29.2052 121.272 27.7457 119.712 25.7694 119.712C24.2513 119.712 23.7027 120.638 23.4204 121.145H23.2872V119.818H21.7318V131.068ZM23.2925 123.909C23.2925 122.199 24.0383 121.065 25.4285 121.065C26.8721 121.065 27.5965 122.284 27.5965 123.909C27.5965 125.55 26.8508 126.801 25.4285 126.801C24.0596 126.801 23.2925 125.63 23.2925 123.909ZM37.1207 121.816C36.7904 120.543 35.7943 119.712 34.0258 119.712C32.1775 119.712 30.8671 120.686 30.8671 122.135C30.8671 123.297 31.5702 124.069 33.1043 124.41L34.4893 124.713C35.2776 124.889 35.6452 125.241 35.6452 125.752C35.6452 126.386 34.9687 126.881 33.9246 126.881C32.9711 126.881 32.3586 126.471 32.1668 125.667L30.6274 125.901C30.8937 127.35 32.0976 128.165 33.9353 128.165C35.9115 128.165 37.2805 127.116 37.2805 125.635C37.2805 124.479 36.5454 123.765 35.0432 123.419L33.7435 123.121C32.8433 122.908 32.4545 122.604 32.4598 122.05C32.4545 121.422 33.1363 120.974 34.0418 120.974C35.0326 120.974 35.4907 121.523 35.6771 122.071L37.1207 121.816ZM40.081 122.146C40.6616 122.146 41.1463 121.672 41.1463 121.081C41.1463 120.5 40.6616 120.021 40.081 120.021C39.495 120.021 39.0156 120.5 39.0156 121.081C39.0156 121.672 39.495 122.146 40.081 122.146ZM40.081 128.101C40.6616 128.101 41.1463 127.627 41.1463 127.036C41.1463 126.455 40.6616 125.976 40.081 125.976C39.495 125.976 39.0156 126.455 39.0156 127.036C39.0156 127.627 39.495 128.101 40.081 128.101ZM47.4345 116.58H46.0123L42.4966 129.641H43.9189L47.4345 116.58ZM52.9423 116.58H51.5201L48.0044 129.641H49.4267L52.9423 116.58ZM54.2953 131.068H55.888V126.727H55.9838C56.2715 127.249 56.8574 128.16 58.3489 128.16C60.3304 128.16 61.7686 126.572 61.7686 123.925C61.7686 121.272 60.3091 119.712 58.3329 119.712C56.8148 119.712 56.2662 120.638 55.9838 121.145H55.8507V119.818H54.2953V131.068ZM55.856 123.909C55.856 122.199 56.6017 121.065 57.992 121.065C59.4355 121.065 60.16 122.284 60.16 123.909C60.16 125.55 59.4142 126.801 57.992 126.801C56.623 126.801 55.856 125.63 55.856 123.909ZM63.5531 128H65.1458V123.004C65.1458 121.933 65.9714 121.161 67.1007 121.161C67.4309 121.161 67.8038 121.219 67.9316 121.256V119.733C67.7718 119.712 67.4576 119.696 67.2551 119.696C66.2963 119.696 65.476 120.239 65.1777 121.118H65.0925V119.818H63.5531V128ZM72.4633 128.165C74.7698 128.165 76.2773 126.477 76.2773 123.946C76.2773 121.4 74.7698 119.712 72.4633 119.712C70.1569 119.712 68.6494 121.4 68.6494 123.946C68.6494 126.477 70.1569 128.165 72.4633 128.165ZM72.4687 126.828C70.9612 126.828 70.2581 125.512 70.2581 123.941C70.2581 122.375 70.9612 121.043 72.4687 121.043C73.9655 121.043 74.6686 122.375 74.6686 123.941C74.6686 125.512 73.9655 126.828 72.4687 126.828ZM81.9489 119.818H80.1857V119.083C80.1857 118.359 80.484 117.964 81.2617 117.964C81.592 117.964 81.8263 118.039 81.9755 118.087L82.3484 116.798C82.1246 116.713 81.6612 116.58 81.0167 116.58C79.7223 116.58 78.5877 117.336 78.5877 118.87V119.818H77.3253V121.097H78.5877V128H80.1857V121.097H81.9489V119.818ZM83.5922 128H85.1848V119.818H83.5922V128ZM84.3965 118.556C84.9451 118.556 85.4032 118.13 85.4032 117.608C85.4032 117.086 84.9451 116.654 84.3965 116.654C83.8425 116.654 83.3897 117.086 83.3897 117.608C83.3897 118.13 83.8425 118.556 84.3965 118.556ZM88.9202 117.091H87.3275V128H88.9202V117.091ZM94.5891 128.165C96.3736 128.165 97.636 127.286 97.9982 125.955L96.4908 125.683C96.2031 126.455 95.5107 126.849 94.6051 126.849C93.2415 126.849 92.3253 125.965 92.2827 124.388H98.0994V123.824C98.0994 120.868 96.331 119.712 94.4773 119.712C92.1974 119.712 90.6953 121.448 90.6953 123.962C90.6953 126.503 92.1761 128.165 94.5891 128.165ZM92.288 123.195C92.3519 122.034 93.1935 121.027 94.4879 121.027C95.7237 121.027 96.5334 121.944 96.5387 123.195H92.288ZM100.916 128.101C101.497 128.101 101.981 127.627 101.981 127.036C101.981 126.455 101.497 125.976 100.916 125.976C100.33 125.976 99.8506 126.455 99.8506 127.036C99.8506 127.627 100.33 128.101 100.916 128.101ZM104.115 131.068H105.707V126.727H105.803C106.091 127.249 106.677 128.16 108.168 128.16C110.15 128.16 111.588 126.572 111.588 123.925C111.588 121.272 110.128 119.712 108.152 119.712C106.634 119.712 106.085 120.638 105.803 121.145H105.67V119.818H104.115V131.068ZM105.675 123.909C105.675 122.199 106.421 121.065 107.811 121.065C109.255 121.065 109.979 122.284 109.979 123.909C109.979 125.55 109.234 126.801 107.811 126.801C106.442 126.801 105.675 125.63 105.675 123.909ZM114.965 123.142C114.965 121.837 115.764 121.091 116.872 121.091C117.953 121.091 118.609 121.8 118.609 122.988V128H120.201V122.796C120.201 120.772 119.088 119.712 117.415 119.712C116.185 119.712 115.381 120.282 115.002 121.15H114.901V119.818H113.372V128H114.965V123.142ZM125.768 131.239C127.85 131.239 129.459 130.285 129.459 128.181V119.818H127.898V121.145H127.781C127.499 120.638 126.934 119.712 125.411 119.712C123.435 119.712 121.98 121.272 121.98 123.877C121.98 126.487 123.467 127.877 125.4 127.877C126.902 127.877 127.483 127.031 127.771 126.509H127.872V128.117C127.872 129.401 126.993 129.955 125.784 129.955C124.457 129.955 123.941 129.289 123.658 128.82L122.289 129.385C122.721 130.386 123.813 131.239 125.768 131.239ZM125.752 126.556C124.329 126.556 123.589 125.464 123.589 123.856C123.589 122.284 124.313 121.065 125.752 121.065C127.142 121.065 127.888 122.199 127.888 123.856C127.888 125.544 127.126 126.556 125.752 126.556Z" fill="#9EACBA"/>
<circle cx="147" cy="99" r="8" fill="url(#paint6_linear_1370_17103)"/>
<circle cx="356" cy="147" r="8" fill="url(#paint7_linear_1370_17103)"/>
<path d="M373.309 152H375.238V143.818H373.309V152ZM374.279 142.657C374.891 142.657 375.392 142.188 375.392 141.613C375.392 141.032 374.891 140.564 374.279 140.564C373.661 140.564 373.16 141.032 373.16 141.613C373.16 142.188 373.661 142.657 374.279 142.657ZM381.756 143.818H380.142V141.858H378.214V143.818H377.053V145.31H378.214V149.859C378.203 151.398 379.322 152.154 380.771 152.112C381.319 152.096 381.697 151.989 381.905 151.92L381.58 150.413C381.474 150.439 381.255 150.487 381.016 150.487C380.531 150.487 380.142 150.317 380.142 149.539V145.31H381.756V143.818ZM387.353 152.16C389.26 152.16 390.57 151.228 390.911 149.805L389.111 149.603C388.85 150.295 388.211 150.658 387.38 150.658C386.133 150.658 385.308 149.837 385.292 148.436H390.991V147.845C390.991 144.974 389.265 143.712 387.252 143.712C384.908 143.712 383.379 145.432 383.379 147.957C383.379 150.525 384.887 152.16 387.353 152.16ZM385.297 147.137C385.355 146.093 386.128 145.214 387.278 145.214C388.386 145.214 389.132 146.023 389.143 147.137H385.297ZM393.072 152H395.001V147.025C395.001 146.018 395.672 145.336 396.503 145.336C397.318 145.336 397.877 145.885 397.877 146.727V152H399.768V146.897C399.768 145.975 400.317 145.336 401.249 145.336C402.027 145.336 402.644 145.794 402.644 146.806V152H404.578V146.508C404.578 144.681 403.523 143.712 402.021 143.712C400.833 143.712 399.928 144.298 399.566 145.208H399.48C399.166 144.282 398.372 143.712 397.27 143.712C396.173 143.712 395.352 144.276 395.011 145.208H394.915V143.818H393.072V152ZM407.07 152H413.85V150.343H409.046V141.091H407.07V152ZM415.93 152H417.859V143.818H415.93V152ZM416.9 142.657C417.512 142.657 418.013 142.188 418.013 141.613C418.013 141.032 417.512 140.564 416.9 140.564C416.282 140.564 415.781 141.032 415.781 141.613C415.781 142.188 416.282 142.657 416.9 142.657ZM426.758 145.981C426.492 144.596 425.384 143.712 423.466 143.712C421.495 143.712 420.153 144.681 420.158 146.194C420.153 147.387 420.888 148.175 422.46 148.5L423.855 148.793C424.606 148.958 424.958 149.262 424.958 149.725C424.958 150.285 424.35 150.706 423.434 150.706C422.55 150.706 421.975 150.322 421.81 149.587L419.929 149.768C420.169 151.27 421.431 152.16 423.44 152.16C425.485 152.16 426.929 151.1 426.934 149.55C426.929 148.383 426.178 147.669 424.633 147.334L423.237 147.036C422.406 146.849 422.076 146.561 422.081 146.087C422.076 145.533 422.689 145.15 423.493 145.15C424.382 145.15 424.851 145.635 425 146.173L426.758 145.981ZM433.06 143.818H431.446V141.858H429.517V143.818H428.356V145.31H429.517V149.859C429.507 151.398 430.625 152.154 432.074 152.112C432.623 152.096 433.001 151.989 433.209 151.92L432.884 150.413C432.777 150.439 432.559 150.487 432.319 150.487C431.834 150.487 431.446 150.317 431.446 149.539V145.31H433.06V143.818Z" fill="#6048E5"/>
<path d="M374.169 178.269H377.669V177.007H375.692V165.943H377.669V164.681H374.169V178.269ZM380.248 176.101C380.829 176.101 381.313 175.627 381.313 175.036C381.313 174.455 380.829 173.976 380.248 173.976C379.662 173.976 379.183 174.455 379.183 175.036C379.183 175.627 379.662 176.101 380.248 176.101ZM384.496 176.101C385.077 176.101 385.561 175.627 385.561 175.036C385.561 174.455 385.077 173.976 384.496 173.976C383.91 173.976 383.431 174.455 383.431 175.036C383.431 175.627 383.91 176.101 384.496 176.101ZM388.744 176.101C389.325 176.101 389.809 175.627 389.809 175.036C389.809 174.455 389.325 173.976 388.744 173.976C388.158 173.976 387.679 174.455 387.679 175.036C387.679 175.627 388.158 176.101 388.744 176.101ZM394.83 164.681H391.33V165.943H393.306V177.007H391.33V178.269H394.83V164.681Z" fill="#64778C"/>
<line x1="244.5" y1="295" x2="244.5" y2="374" stroke="url(#paint8_linear_1370_17103)"/>
<circle cx="535" cy="195" r="8" fill="url(#paint9_linear_1370_17103)"/>
<path d="M554.34 189.091H552.411V200H554.34V189.091ZM556.773 200H558.701V191.818H556.773V200ZM557.742 190.657C558.355 190.657 558.855 190.188 558.855 189.613C558.855 189.032 558.355 188.564 557.742 188.564C557.124 188.564 556.623 189.032 556.623 189.613C556.623 190.188 557.124 190.657 557.742 190.657ZM567.6 193.981C567.334 192.596 566.226 191.712 564.308 191.712C562.337 191.712 560.995 192.681 561 194.194C560.995 195.387 561.73 196.175 563.302 196.5L564.697 196.793C565.448 196.958 565.8 197.262 565.8 197.725C565.8 198.285 565.193 198.706 564.276 198.706C563.392 198.706 562.817 198.322 562.652 197.587L560.771 197.768C561.011 199.27 562.274 200.16 564.282 200.16C566.327 200.16 567.771 199.1 567.776 197.55C567.771 196.383 567.02 195.669 565.475 195.334L564.079 195.036C563.248 194.849 562.918 194.561 562.923 194.087C562.918 193.533 563.531 193.15 564.335 193.15C565.225 193.15 565.693 193.635 565.842 194.173L567.6 193.981ZM573.902 191.818H572.288V189.858H570.359V191.818H569.198V193.31H570.359V197.859C570.349 199.398 571.467 200.154 572.916 200.112C573.465 200.096 573.843 199.989 574.051 199.92L573.726 198.413C573.619 198.439 573.401 198.487 573.161 198.487C572.676 198.487 572.288 198.317 572.288 197.539V193.31H573.902V191.818ZM578.202 189.091H576.225V200H578.202V189.091ZM584.792 191.818H583.178V189.858H581.25V191.818H580.088V193.31H581.25V197.859C581.239 199.398 582.358 200.154 583.806 200.112C584.355 200.096 584.733 199.989 584.941 199.92L584.616 198.413C584.51 198.439 584.291 198.487 584.051 198.487C583.567 198.487 583.178 198.317 583.178 197.539V193.31H584.792V191.818ZM590.389 200.16C592.296 200.16 593.606 199.228 593.947 197.805L592.147 197.603C591.886 198.295 591.246 198.658 590.415 198.658C589.169 198.658 588.343 197.837 588.327 196.436H594.027V195.845C594.027 192.974 592.301 191.712 590.288 191.712C587.944 191.712 586.415 193.432 586.415 195.957C586.415 198.525 587.923 200.16 590.389 200.16ZM588.333 195.137C588.391 194.093 589.164 193.214 590.314 193.214C591.422 193.214 592.168 194.023 592.179 195.137H588.333ZM596.108 200H598.037V195.025C598.037 194.018 598.708 193.336 599.539 193.336C600.354 193.336 600.913 193.885 600.913 194.727V200H602.804V194.897C602.804 193.975 603.353 193.336 604.285 193.336C605.062 193.336 605.68 193.794 605.68 194.806V200H607.614V194.508C607.614 192.681 606.559 191.712 605.057 191.712C603.869 191.712 602.964 192.298 602.602 193.208H602.516C602.202 192.282 601.408 191.712 600.306 191.712C599.208 191.712 598.388 192.276 598.047 193.208H597.951V191.818H596.108V200Z" fill="#6048E5"/>
<path d="M551.969 216.5H553.332V215.461C553.332 214.657 553.684 213.98 554.115 213.347L553.327 212.782C552.512 213.437 551.969 214.572 551.969 215.477V216.5ZM554.685 216.5H556.049V215.461C556.049 214.657 556.401 213.98 556.832 213.347L556.044 212.782C555.229 213.437 554.685 214.572 554.685 215.477V216.5ZM560.465 224H562.127L564.423 215.829H564.508L566.804 224H568.46L571.491 213.091H569.755L567.635 221.544H567.533L565.323 213.091H563.608L561.397 221.539H561.296L559.17 213.091H557.439L560.465 224ZM572.351 224H573.944V219.004C573.944 217.933 574.77 217.161 575.899 217.161C576.229 217.161 576.602 217.219 576.73 217.256V215.733C576.57 215.712 576.256 215.696 576.053 215.696C575.095 215.696 574.274 216.239 573.976 217.118H573.891V215.818H572.351V224ZM578.108 224H579.701V215.818H578.108V224ZM578.913 214.556C579.461 214.556 579.919 214.13 579.919 213.608C579.919 213.086 579.461 212.654 578.913 212.654C578.359 212.654 577.906 213.086 577.906 213.608C577.906 214.13 578.359 214.556 578.913 214.556ZM585.663 215.818H583.985V213.858H582.392V215.818H581.194V217.097H582.392V221.928C582.387 223.414 583.522 224.133 584.779 224.107C585.285 224.101 585.626 224.005 585.812 223.936L585.524 222.62C585.418 222.642 585.221 222.69 584.965 222.69C584.448 222.69 583.985 222.519 583.985 221.598V217.097H585.663V215.818ZM590.863 224.165C592.648 224.165 593.91 223.286 594.272 221.955L592.765 221.683C592.477 222.455 591.785 222.849 590.879 222.849C589.515 222.849 588.599 221.965 588.557 220.388H594.373V219.824C594.373 216.868 592.605 215.712 590.751 215.712C588.471 215.712 586.969 217.448 586.969 219.962C586.969 222.503 588.45 224.165 590.863 224.165ZM588.562 219.195C588.626 218.034 589.467 217.027 590.762 217.027C591.998 217.027 592.807 217.944 592.813 219.195H588.562ZM603.929 215.818H602.252V213.858H600.659V215.818H599.46V217.097H600.659V221.928C600.654 223.414 601.788 224.133 603.045 224.107C603.551 224.101 603.892 224.005 604.079 223.936L603.791 222.62C603.684 222.642 603.487 222.69 603.232 222.69C602.715 222.69 602.252 222.519 602.252 221.598V217.097H603.929V215.818ZM609.13 224.165C610.914 224.165 612.177 223.286 612.539 221.955L611.031 221.683C610.744 222.455 610.051 222.849 609.146 222.849C607.782 222.849 606.866 221.965 606.823 220.388H612.64V219.824C612.64 216.868 610.871 215.712 609.018 215.712C606.738 215.712 605.236 217.448 605.236 219.962C605.236 222.503 606.717 224.165 609.13 224.165ZM606.829 219.195C606.892 218.034 607.734 217.027 609.028 217.027C610.264 217.027 611.074 217.944 611.079 219.195H606.829ZM620.538 217.816C620.208 216.543 619.212 215.712 617.443 215.712C615.595 215.712 614.285 216.686 614.285 218.135C614.285 219.297 614.988 220.069 616.522 220.41L617.907 220.713C618.695 220.889 619.063 221.241 619.063 221.752C619.063 222.386 618.386 222.881 617.342 222.881C616.389 222.881 615.776 222.471 615.584 221.667L614.045 221.901C614.311 223.35 615.515 224.165 617.353 224.165C619.329 224.165 620.698 223.116 620.698 221.635C620.698 220.479 619.963 219.765 618.461 219.419L617.161 219.121C616.261 218.908 615.872 218.604 615.877 218.05C615.872 217.422 616.554 216.974 617.459 216.974C618.45 216.974 618.908 217.523 619.095 218.071L620.538 217.816ZM626.268 215.818H624.59V213.858H622.998V215.818H621.799V217.097H622.998V221.928C622.992 223.414 624.127 224.133 625.384 224.107C625.89 224.101 626.231 224.005 626.417 223.936L626.13 222.62C626.023 222.642 625.826 222.69 625.571 222.69C625.054 222.69 624.59 222.519 624.59 221.598V217.097H626.268V215.818ZM634.029 217.816C633.699 216.543 632.703 215.712 630.935 215.712C629.086 215.712 627.776 216.686 627.776 218.135C627.776 219.297 628.479 220.069 630.013 220.41L631.398 220.713C632.186 220.889 632.554 221.241 632.554 221.752C632.554 222.386 631.877 222.881 630.833 222.881C629.88 222.881 629.267 222.471 629.076 221.667L627.536 221.901C627.802 223.35 629.006 224.165 630.844 224.165C632.82 224.165 634.189 223.116 634.189 221.635C634.189 220.479 633.454 219.765 631.952 219.419L630.652 219.121C629.752 218.908 629.363 218.604 629.368 218.05C629.363 217.422 630.045 216.974 630.951 216.974C631.941 216.974 632.399 217.523 632.586 218.071L634.029 217.816ZM637.309 213.091H635.946V214.13C635.946 214.955 635.583 215.632 635.168 216.244L635.956 216.809C636.777 216.148 637.309 215.019 637.309 214.114V213.091ZM640.021 213.091H638.657V214.13C638.657 214.955 638.295 215.632 637.879 216.244L638.668 216.809C639.488 216.148 640.021 215.019 640.021 214.114V213.091Z" fill="#64778C"/>
<circle cx="421" cy="12" r="8" fill="url(#paint10_linear_1370_17103)"/>
<path d="M440.34 6.09091H438.411V17H440.34V6.09091ZM442.773 17H444.701V8.81818H442.773V17ZM443.742 7.65696C444.355 7.65696 444.855 7.18821 444.855 6.61293C444.855 6.03232 444.355 5.56357 443.742 5.56357C443.124 5.56357 442.623 6.03232 442.623 6.61293C442.623 7.18821 443.124 7.65696 443.742 7.65696ZM453.6 10.9808C453.334 9.59588 452.226 8.71165 450.308 8.71165C448.337 8.71165 446.995 9.68111 447 11.1939C446.995 12.3871 447.73 13.1754 449.302 13.5004L450.697 13.7933C451.448 13.9585 451.8 14.2621 451.8 14.7255C451.8 15.2848 451.193 15.7056 450.276 15.7056C449.392 15.7056 448.817 15.3221 448.652 14.587L446.771 14.7681C447.011 16.2702 448.274 17.1598 450.282 17.1598C452.327 17.1598 453.771 16.0998 453.776 14.5497C453.771 13.3832 453.02 12.6694 451.475 12.3338L450.079 12.0355C449.248 11.8491 448.918 11.5614 448.923 11.0874C448.918 10.5334 449.531 10.1499 450.335 10.1499C451.225 10.1499 451.693 10.6346 451.842 11.1726L453.6 10.9808ZM459.902 8.81818H458.288V6.85795H456.359V8.81818H455.198V10.3097H456.359V14.8587C456.349 16.3981 457.467 17.1545 458.916 17.1119C459.465 17.0959 459.843 16.9893 460.051 16.9201L459.726 15.4126C459.619 15.4393 459.401 15.4872 459.161 15.4872C458.676 15.4872 458.288 15.3168 458.288 14.5391V10.3097H459.902V8.81818ZM464.202 6.09091H462.225V17H464.202V6.09091ZM470.792 8.81818H469.178V6.85795H467.25V8.81818H466.088V10.3097H467.25V14.8587C467.239 16.3981 468.358 17.1545 469.806 17.1119C470.355 17.0959 470.733 16.9893 470.941 16.9201L470.616 15.4126C470.51 15.4393 470.291 15.4872 470.051 15.4872C469.567 15.4872 469.178 15.3168 469.178 14.5391V10.3097H470.792V8.81818ZM476.389 17.1598C478.296 17.1598 479.606 16.2276 479.947 14.8054L478.147 14.603C477.886 15.2955 477.246 15.6577 476.415 15.6577C475.169 15.6577 474.343 14.8374 474.327 13.4364H480.027V12.8452C480.027 9.97408 478.301 8.71165 476.288 8.71165C473.944 8.71165 472.415 10.4322 472.415 12.957C472.415 15.5245 473.923 17.1598 476.389 17.1598ZM474.333 12.1367C474.391 11.0927 475.164 10.2138 476.314 10.2138C477.422 10.2138 478.168 11.0234 478.179 12.1367H474.333ZM482.108 17H484.037V12.0249C484.037 11.0181 484.708 10.3363 485.539 10.3363C486.354 10.3363 486.913 10.8849 486.913 11.7266V17H488.804V11.897C488.804 10.9755 489.353 10.3363 490.285 10.3363C491.062 10.3363 491.68 10.7944 491.68 11.8065V17H493.614V11.5082C493.614 9.68111 492.559 8.71165 491.057 8.71165C489.869 8.71165 488.964 9.29759 488.602 10.2085H488.516C488.202 9.2816 487.408 8.71165 486.306 8.71165C485.208 8.71165 484.388 9.27628 484.047 10.2085H483.951V8.81818H482.108V17Z" fill="#6048E5"/>
<path d="M438.099 33.5H439.462V32.4613C439.462 31.657 439.814 30.9805 440.245 30.3466L439.457 29.782C438.642 30.4371 438.099 31.5717 438.099 32.4773V33.5ZM440.815 33.5H442.179V32.4613C442.179 31.657 442.53 30.9805 442.962 30.3466L442.174 29.782C441.359 30.4371 440.815 31.5717 440.815 32.4773V33.5ZM446.105 30.0909H444.459V41H446.105V30.0909ZM448.374 41H449.967V35.9556C449.967 34.853 450.739 34.0859 451.644 34.0859C452.529 34.0859 453.141 34.6719 453.141 35.5614V41H454.729V35.7852C454.729 34.7997 455.331 34.0859 456.369 34.0859C457.211 34.0859 457.903 34.5547 457.903 35.6626V41H459.496V35.5135C459.496 33.6438 458.452 32.7116 456.971 32.7116C455.794 32.7116 454.91 33.2763 454.516 34.1499H454.43C454.073 33.255 453.322 32.7116 452.23 32.7116C451.149 32.7116 450.345 33.2496 450.004 34.1499H449.903V32.8182H448.374V41ZM461.631 44.0682H463.223V39.7269H463.319C463.607 40.2489 464.193 41.1598 465.684 41.1598C467.666 41.1598 469.104 39.5724 469.104 36.9251C469.104 34.2724 467.645 32.7116 465.668 32.7116C464.15 32.7116 463.602 33.6385 463.319 34.1445H463.186V32.8182H461.631V44.0682ZM463.191 36.9091C463.191 35.1992 463.937 34.0646 465.327 34.0646C466.771 34.0646 467.495 35.2844 467.495 36.9091C467.495 38.5497 466.75 39.8015 465.327 39.8015C463.958 39.8015 463.191 38.6296 463.191 36.9091ZM472.481 30.0909H470.889V41H472.481V30.0909ZM478.15 41.1651C479.935 41.1651 481.197 40.2862 481.559 38.9545L480.052 38.6829C479.764 39.4553 479.072 39.8494 478.166 39.8494C476.803 39.8494 475.886 38.9652 475.844 37.3885H481.66V36.8239C481.66 33.8675 479.892 32.7116 478.038 32.7116C475.758 32.7116 474.256 34.4482 474.256 36.9624C474.256 39.5032 475.737 41.1651 478.15 41.1651ZM475.849 36.1953C475.913 35.0341 476.755 34.0273 478.049 34.0273C479.285 34.0273 480.094 34.9435 480.1 36.1953H475.849ZM483.428 41H485.02V35.9556C485.02 34.853 485.793 34.0859 486.698 34.0859C487.582 34.0859 488.195 34.6719 488.195 35.5614V41H489.782V35.7852C489.782 34.7997 490.384 34.0859 491.423 34.0859C492.265 34.0859 492.957 34.5547 492.957 35.6626V41H494.55V35.5135C494.55 33.6438 493.506 32.7116 492.025 32.7116C490.848 32.7116 489.963 33.2763 489.569 34.1499H489.484C489.127 33.255 488.376 32.7116 487.284 32.7116C486.203 32.7116 485.398 33.2496 485.058 34.1499H484.956V32.8182H483.428V41ZM500.211 41.1651C501.995 41.1651 503.258 40.2862 503.62 38.9545L502.112 38.6829C501.825 39.4553 501.132 39.8494 500.227 39.8494C498.863 39.8494 497.947 38.9652 497.904 37.3885H503.721V36.8239C503.721 33.8675 501.953 32.7116 500.099 32.7116C497.819 32.7116 496.317 34.4482 496.317 36.9624C496.317 39.5032 497.798 41.1651 500.211 41.1651ZM497.91 36.1953C497.973 35.0341 498.815 34.0273 500.11 34.0273C501.345 34.0273 502.155 34.9435 502.16 36.1953H497.91ZM507.081 36.142C507.081 34.837 507.88 34.0913 508.988 34.0913C510.069 34.0913 510.724 34.7997 510.724 35.9876V41H512.317V35.7958C512.317 33.7717 511.204 32.7116 509.531 32.7116C508.301 32.7116 507.496 33.2816 507.118 34.1499H507.017V32.8182H505.488V41H507.081V36.142ZM518.272 32.8182H516.594V30.858H515.002V32.8182H513.803V34.0966H515.002V38.9279C514.996 40.4141 516.131 41.1332 517.388 41.1065C517.894 41.1012 518.235 41.0053 518.421 40.9361L518.134 39.6204C518.027 39.6417 517.83 39.6896 517.574 39.6896C517.058 39.6896 516.594 39.5192 516.594 38.5977V34.0966H518.272V32.8182ZM527.067 41.1598C528.558 41.1598 529.144 40.2489 529.432 39.7269H529.565V41H531.12V30.0909H529.528V34.1445H529.432C529.144 33.6385 528.601 32.7116 527.077 32.7116C525.101 32.7116 523.647 34.2724 523.647 36.9251C523.647 39.5724 525.08 41.1598 527.067 41.1598ZM527.418 39.8015C525.996 39.8015 525.256 38.5497 525.256 36.9091C525.256 35.2844 525.98 34.0646 527.418 34.0646C528.808 34.0646 529.554 35.1992 529.554 36.9091C529.554 38.6296 528.792 39.8015 527.418 39.8015ZM533.393 41H534.986V36.0036C534.986 34.9329 535.812 34.1605 536.941 34.1605C537.271 34.1605 537.644 34.2191 537.772 34.2564V32.733C537.612 32.7116 537.298 32.6957 537.095 32.6957C536.137 32.6957 535.316 33.239 535.018 34.1179H534.933V32.8182H533.393V41ZM542.304 41.1651C544.61 41.1651 546.118 39.4766 546.118 36.9464C546.118 34.4002 544.61 32.7116 542.304 32.7116C539.997 32.7116 538.49 34.4002 538.49 36.9464C538.49 39.4766 539.997 41.1651 542.304 41.1651ZM542.309 39.8281C540.802 39.8281 540.098 38.5124 540.098 36.9411C540.098 35.375 540.802 34.0433 542.309 34.0433C543.806 34.0433 544.509 35.375 544.509 36.9411C544.509 38.5124 543.806 39.8281 542.309 39.8281ZM547.895 44.0682H549.488V39.7269H549.584C549.872 40.2489 550.458 41.1598 551.949 41.1598C553.931 41.1598 555.369 39.5724 555.369 36.9251C555.369 34.2724 553.909 32.7116 551.933 32.7116C550.415 32.7116 549.866 33.6385 549.584 34.1445H549.451V32.8182H547.895V44.0682ZM549.456 36.9091C549.456 35.1992 550.202 34.0646 551.592 34.0646C553.036 34.0646 553.76 35.2844 553.76 36.9091C553.76 38.5497 553.014 39.8015 551.592 39.8015C550.223 39.8015 549.456 38.6296 549.456 36.9091ZM560.216 41.1598C561.708 41.1598 562.293 40.2489 562.581 39.7269H562.714V41H564.27V30.0909H562.677V34.1445H562.581C562.293 33.6385 561.75 32.7116 560.227 32.7116C558.25 32.7116 556.796 34.2724 556.796 36.9251C556.796 39.5724 558.229 41.1598 560.216 41.1598ZM560.568 39.8015C559.145 39.8015 558.405 38.5497 558.405 36.9091C558.405 35.2844 559.129 34.0646 560.568 34.0646C561.958 34.0646 562.704 35.1992 562.704 36.9091C562.704 38.6296 561.942 39.8015 560.568 39.8015ZM569.989 41.1651C572.296 41.1651 573.803 39.4766 573.803 36.9464C573.803 34.4002 572.296 32.7116 569.989 32.7116C567.683 32.7116 566.175 34.4002 566.175 36.9464C566.175 39.4766 567.683 41.1651 569.989 41.1651ZM569.995 39.8281C568.487 39.8281 567.784 38.5124 567.784 36.9411C567.784 35.375 568.487 34.0433 569.995 34.0433C571.491 34.0433 572.194 35.375 572.194 36.9411C572.194 38.5124 571.491 39.8281 569.995 39.8281ZM577.106 41H578.725L580.387 35.0927H580.509L582.171 41H583.796L586.198 32.8182H584.552L582.96 38.8001H582.88L581.282 32.8182H579.636L578.027 38.8267H577.947L576.344 32.8182H574.698L577.106 41ZM589.303 36.142C589.303 34.837 590.102 34.0913 591.209 34.0913C592.291 34.0913 592.946 34.7997 592.946 35.9876V41H594.539V35.7958C594.539 33.7717 593.425 32.7116 591.753 32.7116C590.522 32.7116 589.718 33.2816 589.34 34.1499H589.239V32.8182H587.71V41H589.303V36.142ZM600.644 41H602.237V35.9556C602.237 34.853 603.009 34.0859 603.915 34.0859C604.799 34.0859 605.412 34.6719 605.412 35.5614V41H606.999V35.7852C606.999 34.7997 607.601 34.0859 608.64 34.0859C609.481 34.0859 610.174 34.5547 610.174 35.6626V41H611.767V35.5135C611.767 33.6438 610.723 32.7116 609.242 32.7116C608.064 32.7116 607.18 33.2763 606.786 34.1499H606.701C606.344 33.255 605.593 32.7116 604.501 32.7116C603.42 32.7116 602.615 33.2496 602.274 34.1499H602.173V32.8182H600.644V41ZM617.428 41.1651C619.212 41.1651 620.474 40.2862 620.837 38.9545L619.329 38.6829C619.042 39.4553 618.349 39.8494 617.443 39.8494C616.08 39.8494 615.164 38.9652 615.121 37.3885H620.938V36.8239C620.938 33.8675 619.169 32.7116 617.316 32.7116C615.036 32.7116 613.534 34.4482 613.534 36.9624C613.534 39.5032 615.015 41.1651 617.428 41.1651ZM615.126 36.1953C615.19 35.0341 616.032 34.0273 617.326 34.0273C618.562 34.0273 619.372 34.9435 619.377 36.1953H615.126ZM624.298 36.142C624.298 34.837 625.097 34.0913 626.205 34.0913C627.286 34.0913 627.941 34.7997 627.941 35.9876V41H629.534V35.7958C629.534 33.7717 628.42 32.7116 626.748 32.7116C625.517 32.7116 624.713 33.2816 624.335 34.1499H624.234V32.8182H622.705V41H624.298V36.142ZM636.853 37.6069C636.858 38.9972 635.825 39.6577 634.93 39.6577C633.944 39.6577 633.262 38.9439 633.262 37.8306V32.8182H631.67V38.0224C631.67 40.0518 632.783 41.1065 634.354 41.1065C635.585 41.1065 636.421 40.4567 636.799 39.5831H636.885V41H638.451V32.8182H636.853V37.6069ZM642.179 30.0909H640.816V31.1296C640.816 31.9553 640.454 32.6317 640.038 33.2443L640.826 33.8089C641.647 33.1484 642.179 32.0192 642.179 31.1136V30.0909ZM644.891 30.0909H643.527V31.1296C643.527 31.9553 643.165 32.6317 642.749 33.2443L643.538 33.8089C644.358 33.1484 644.891 32.0192 644.891 31.1136V30.0909Z" fill="#64778C"/>
<circle opacity="0.1" cx="244" cy="247" r="47.5" stroke="#6048E5"/>
<circle opacity="0.3" cx="244" cy="247" r="15" stroke="#6048E5" stroke-width="2"/>
<circle cx="244" cy="247" r="9" fill="url(#paint11_linear_1370_17103)"/>
<path d="M213.453 285H215.429V281.314H217.517C220.037 281.314 221.39 279.801 221.39 277.702C221.39 275.62 220.053 274.091 217.544 274.091H213.453V285ZM215.429 279.689V275.742H217.24C218.721 275.742 219.376 276.541 219.376 277.702C219.376 278.864 218.721 279.689 217.251 279.689H215.429ZM223.556 285H230.694V283.343H225.532V280.366H230.284V278.709H225.532V275.748H230.651V274.091H223.556V285ZM233.118 285H235.094V281.005H237.107L239.249 285H241.454L239.094 280.675C240.378 280.158 241.054 279.061 241.054 277.58C241.054 275.497 239.712 274.091 237.209 274.091H233.118V285ZM235.094 279.364V275.742H236.905C238.38 275.742 239.041 276.419 239.041 277.58C239.041 278.741 238.38 279.364 236.916 279.364H235.094ZM249.252 277.09H251.154C251.116 275.247 249.545 273.942 247.223 273.942C244.932 273.942 243.212 275.231 243.217 277.159C243.217 278.725 244.33 279.625 246.125 280.089L247.366 280.408C248.544 280.707 249.321 281.074 249.327 281.921C249.321 282.853 248.437 283.477 247.148 283.477C245.912 283.477 244.953 282.923 244.874 281.777H242.929C243.009 283.945 244.623 285.165 247.164 285.165C249.779 285.165 251.298 283.86 251.303 281.937C251.298 280.046 249.737 279.183 248.096 278.794L247.073 278.539C246.179 278.326 245.209 277.947 245.22 277.037C245.225 276.216 245.96 275.614 247.196 275.614C248.373 275.614 249.151 276.163 249.252 277.09ZM263.263 279.545C263.263 276.019 261.111 273.942 258.25 273.942C255.384 273.942 253.238 276.019 253.238 279.545C253.238 283.066 255.384 285.149 258.25 285.149C261.111 285.149 263.263 283.072 263.263 279.545ZM261.276 279.545C261.276 282.028 260.029 283.375 258.25 283.375C256.476 283.375 255.225 282.028 255.225 279.545C255.225 277.063 256.476 275.716 258.25 275.716C260.029 275.716 261.276 277.063 261.276 279.545ZM274.546 274.091H272.58V281.527H272.484L267.349 274.091H265.581V285H267.557V277.569H267.648L272.788 285H274.546V274.091Z" fill="#6048E5"/>
<defs>
<linearGradient id="paint0_linear_1370_17103" x1="95" y1="201" x2="95" y2="217" gradientUnits="userSpaceOnUse">
<stop stop-color="#7963F5"/>
<stop offset="1" stop-color="#5D46DB"/>
</linearGradient>
<linearGradient id="paint1_linear_1370_17103" x1="256" y1="236.001" x2="346.726" y2="231.018" gradientUnits="userSpaceOnUse">
<stop stop-color="#BDB4FE"/>
<stop offset="1" stop-color="#BDB4FE" stop-opacity="0"/>
</linearGradient>
<linearGradient id="paint2_linear_1370_17103" x1="359" y1="139.001" x2="414.812" y2="137.742" gradientUnits="userSpaceOnUse">
<stop stop-color="#BDB4FE"/>
<stop offset="1" stop-color="#BDB4FE" stop-opacity="0"/>
</linearGradient>
<linearGradient id="paint3_linear_1370_17103" x1="364" y1="152" x2="526.62" y2="183.07" gradientUnits="userSpaceOnUse">
<stop stop-color="#BDB4FE" stop-opacity="0"/>
<stop offset="1" stop-color="#BDB4FE"/>
</linearGradient>
<linearGradient id="paint4_linear_1370_17103" x1="228" y1="242" x2="106.5" y2="215" gradientUnits="userSpaceOnUse">
<stop stop-color="#BDB4FE"/>
<stop offset="1" stop-color="#BDB4FE" stop-opacity="0"/>
</linearGradient>
<linearGradient id="paint5_linear_1370_17103" x1="235" y1="233.001" x2="156.48" y2="230.65" gradientUnits="userSpaceOnUse">
<stop stop-color="#BDB4FE"/>
<stop offset="1" stop-color="#BDB4FE" stop-opacity="0"/>
</linearGradient>
<linearGradient id="paint6_linear_1370_17103" x1="147" y1="91" x2="147" y2="107" gradientUnits="userSpaceOnUse">
<stop stop-color="#7963F5"/>
<stop offset="1" stop-color="#5D46DB"/>
</linearGradient>
<linearGradient id="paint7_linear_1370_17103" x1="356" y1="139" x2="356" y2="155" gradientUnits="userSpaceOnUse">
<stop stop-color="#7963F5"/>
<stop offset="1" stop-color="#5D46DB"/>
</linearGradient>
<linearGradient id="paint8_linear_1370_17103" x1="243" y1="295" x2="273.874" y2="303.604" gradientUnits="userSpaceOnUse">
<stop stop-color="#BDB4FE"/>
<stop offset="1" stop-color="#BDB4FE" stop-opacity="0"/>
</linearGradient>
<linearGradient id="paint9_linear_1370_17103" x1="535" y1="187" x2="535" y2="203" gradientUnits="userSpaceOnUse">
<stop stop-color="#7963F5"/>
<stop offset="1" stop-color="#5D46DB"/>
</linearGradient>
<linearGradient id="paint10_linear_1370_17103" x1="421" y1="4" x2="421" y2="20" gradientUnits="userSpaceOnUse">
<stop stop-color="#7963F5"/>
<stop offset="1" stop-color="#5D46DB"/>
</linearGradient>
<linearGradient id="paint11_linear_1370_17103" x1="244" y1="238" x2="244" y2="256" gradientUnits="userSpaceOnUse">
<stop stop-color="#7963F5"/>
<stop offset="1" stop-color="#5D46DB"/>
</linearGradient>
</defs>
</svg>
