<svg width="527" height="257" viewBox="0 0 527 257" fill="none" xmlns="http://www.w3.org/2000/svg">
<path d="M369 123L248 156" stroke="url(#paint0_linear_1357_16226)"/>
<path d="M98 129L217 157" stroke="url(#paint1_linear_1357_16226)"/>
<path d="M166 29L226 147" stroke="url(#paint2_linear_1357_16226)"/>
<path d="M313 22L240 147" stroke="url(#paint3_linear_1357_16226)"/>
<circle cx="379" cy="119" r="8" fill="url(#paint4_linear_1357_16226)"/>
<path d="M399.818 124.16C401.725 124.16 403.036 123.228 403.377 121.805L401.576 121.603C401.315 122.295 400.676 122.658 399.845 122.658C398.599 122.658 397.773 121.837 397.757 120.436H403.457V119.845C403.457 116.974 401.731 115.712 399.717 115.712C397.373 115.712 395.845 117.432 395.845 119.957C395.845 122.525 397.352 124.16 399.818 124.16ZM397.762 119.137C397.821 118.093 398.593 117.214 399.744 117.214C400.852 117.214 401.598 118.023 401.608 119.137H397.762ZM405.538 124H407.466V119.025C407.466 118.018 408.137 117.336 408.968 117.336C409.783 117.336 410.343 117.885 410.343 118.727V124H412.234V118.897C412.234 117.975 412.782 117.336 413.714 117.336C414.492 117.336 415.11 117.794 415.11 118.806V124H417.044V118.508C417.044 116.681 415.989 115.712 414.487 115.712C413.299 115.712 412.393 116.298 412.031 117.208H411.946C411.632 116.282 410.838 115.712 409.735 115.712C408.638 115.712 407.818 116.276 407.477 117.208H407.381V115.818H405.538V124ZM421.804 124.165C423.088 124.165 423.855 123.563 424.206 122.876H424.27V124H426.124V118.524C426.124 116.362 424.361 115.712 422.8 115.712C421.08 115.712 419.759 116.479 419.333 117.97L421.133 118.226C421.325 117.667 421.868 117.187 422.811 117.187C423.706 117.187 424.196 117.645 424.196 118.45V118.482C424.196 119.036 423.615 119.062 422.172 119.217C420.584 119.387 419.066 119.861 419.066 121.704C419.066 123.313 420.243 124.165 421.804 124.165ZM422.305 122.748C421.501 122.748 420.925 122.381 420.925 121.672C420.925 120.932 421.57 120.623 422.433 120.5C422.939 120.431 423.951 120.303 424.201 120.101V121.065C424.201 121.976 423.466 122.748 422.305 122.748ZM428.513 124H430.441V115.818H428.513V124ZM429.482 114.657C430.095 114.657 430.596 114.188 430.596 113.613C430.596 113.032 430.095 112.564 429.482 112.564C428.865 112.564 428.364 113.032 428.364 113.613C428.364 114.188 428.865 114.657 429.482 114.657ZM434.802 113.091H432.874V124H434.802V113.091Z" fill="#6048E5"/>
<path d="M396.347 144H397.833V139.292C397.833 138.263 398.554 137.547 399.4 137.547C400.225 137.547 400.797 138.094 400.797 138.924V144H402.278V139.133C402.278 138.213 402.84 137.547 403.809 137.547C404.595 137.547 405.241 137.984 405.241 139.018V144H406.728V138.879C406.728 137.134 405.753 136.264 404.371 136.264C403.272 136.264 402.447 136.791 402.079 137.607H402C401.667 136.771 400.966 136.264 399.946 136.264C398.937 136.264 398.186 136.766 397.868 137.607H397.774V136.364H396.347V144ZM410.942 144.169C412.205 144.169 412.916 143.528 413.199 142.956H413.259V144H414.711V138.929C414.711 136.707 412.961 136.264 411.748 136.264C410.366 136.264 409.093 136.821 408.596 138.213L409.993 138.531C410.211 137.989 410.768 137.467 411.768 137.467C412.727 137.467 413.219 137.969 413.219 138.835V138.869C413.219 139.411 412.662 139.401 411.29 139.56C409.844 139.729 408.362 140.107 408.362 141.842C408.362 143.344 409.491 144.169 410.942 144.169ZM411.265 142.976C410.425 142.976 409.819 142.598 409.819 141.862C409.819 141.067 410.525 140.783 411.385 140.669C411.867 140.604 413.01 140.475 413.224 140.261V141.246C413.224 142.151 412.503 142.976 411.265 142.976ZM418.177 139.466C418.177 138.248 418.948 137.552 420.007 137.552C421.031 137.552 421.642 138.203 421.642 139.322V144H423.129V139.143C423.129 137.239 422.085 136.264 420.514 136.264C419.326 136.264 418.61 136.781 418.252 137.607H418.157V133.818H416.691V144H418.177V139.466ZM427.335 144.169C428.598 144.169 429.309 143.528 429.592 142.956H429.652V144H431.103V138.929C431.103 136.707 429.353 136.264 428.14 136.264C426.758 136.264 425.485 136.821 424.988 138.213L426.385 138.531C426.604 137.989 427.161 137.467 428.16 137.467C429.12 137.467 429.612 137.969 429.612 138.835V138.869C429.612 139.411 429.055 139.401 427.683 139.56C426.236 139.729 424.755 140.107 424.755 141.842C424.755 143.344 425.883 144.169 427.335 144.169ZM427.658 142.976C426.818 142.976 426.211 142.598 426.211 141.862C426.211 141.067 426.917 140.783 427.777 140.669C428.26 140.604 429.403 140.475 429.617 140.261V141.246C429.617 142.151 428.896 142.976 427.658 142.976ZM434.57 139.466C434.57 138.248 435.316 137.552 436.35 137.552C437.359 137.552 437.97 138.213 437.97 139.322V144H439.457V139.143C439.457 137.254 438.418 136.264 436.857 136.264C435.708 136.264 434.958 136.796 434.605 137.607H434.51V136.364H433.083V144H434.57V139.466ZM441.45 144H442.937V136.364H441.45V144ZM442.201 135.185C442.713 135.185 443.141 134.788 443.141 134.3C443.141 133.813 442.713 133.411 442.201 133.411C441.684 133.411 441.262 133.813 441.262 134.3C441.262 134.788 441.684 135.185 442.201 135.185ZM451.067 146.769C452.215 146.769 453.543 146.456 454.159 146.168L453.811 145.079C453.393 145.228 452.245 145.591 451.131 145.591C447.786 145.591 445.991 143.746 445.991 140.445C445.991 137.283 447.766 135.24 450.947 135.24C453.856 135.24 455.591 137.109 455.586 139.635C455.591 141.793 455.312 142.762 454.408 142.762C453.896 142.762 453.612 142.344 453.612 141.822V137.209H452.389V137.766H452.325C452.175 137.328 451.31 136.935 450.271 137.06C448.835 137.229 447.602 138.417 447.602 140.376C447.602 142.419 448.646 143.786 450.321 143.851C451.455 143.901 452.19 143.374 452.424 142.787H452.484C452.603 143.587 453.468 143.94 454.318 143.911C456.441 143.871 456.844 141.783 456.844 139.685C456.844 136.692 454.795 134.087 450.997 134.087C447.015 134.087 444.673 136.518 444.668 140.435C444.673 144.467 446.955 146.769 451.067 146.769ZM450.609 142.633C449.312 142.633 448.864 141.519 448.859 140.316C448.864 139.173 449.506 138.263 450.629 138.263C451.847 138.263 452.394 138.8 452.399 140.311C452.404 141.862 451.902 142.633 450.609 142.633ZM458.486 144H459.972V136.364H458.486V144ZM459.236 135.185C459.748 135.185 460.176 134.788 460.176 134.3C460.176 133.813 459.748 133.411 459.236 133.411C458.719 133.411 458.297 133.813 458.297 134.3C458.297 134.788 458.719 135.185 459.236 135.185ZM463.458 139.466C463.458 138.248 464.204 137.552 465.238 137.552C466.248 137.552 466.859 138.213 466.859 139.322V144H468.346V139.143C468.346 137.254 467.306 136.264 465.745 136.264C464.597 136.264 463.846 136.796 463.493 137.607H463.399V136.364H461.972V144H463.458V139.466ZM470.458 144H471.91V142.812H472.034C472.303 143.299 472.85 144.149 474.242 144.149C476.091 144.149 477.434 142.668 477.434 140.197C477.434 137.721 476.071 136.264 474.227 136.264C472.81 136.264 472.298 137.129 472.034 137.602H471.945V133.818H470.458V144ZM471.915 140.182C471.915 138.586 472.611 137.527 473.909 137.527C475.256 137.527 475.932 138.665 475.932 140.182C475.932 141.713 475.236 142.881 473.909 142.881C472.631 142.881 471.915 141.788 471.915 140.182ZM482.319 144.154C484.472 144.154 485.879 142.578 485.879 140.217C485.879 137.84 484.472 136.264 482.319 136.264C480.167 136.264 478.76 137.84 478.76 140.217C478.76 142.578 480.167 144.154 482.319 144.154ZM482.324 142.906C480.917 142.906 480.261 141.678 480.261 140.212C480.261 138.75 480.917 137.507 482.324 137.507C483.721 137.507 484.378 138.75 484.378 140.212C484.378 141.678 483.721 142.906 482.324 142.906ZM488.397 136.364H486.767L489.113 140.182L486.737 144H488.367L490.083 141.146L491.803 144H493.428L491.027 140.182L493.409 136.364H491.783L490.083 139.337L488.397 136.364ZM495.914 144.094C496.456 144.094 496.909 143.652 496.909 143.1C496.909 142.558 496.456 142.111 495.914 142.111C495.367 142.111 494.92 142.558 494.92 143.1C494.92 143.652 495.367 144.094 495.914 144.094ZM502.116 144.154C503.921 144.154 505.089 143.07 505.253 141.584H503.807C503.618 142.409 502.976 142.896 502.126 142.896C500.868 142.896 500.058 141.847 500.058 140.182C500.058 138.546 500.883 137.517 502.126 137.517C503.071 137.517 503.648 138.114 503.807 138.83H505.253C505.094 137.288 503.836 136.264 502.101 136.264C499.949 136.264 498.557 137.885 498.557 140.217C498.557 142.518 499.899 144.154 502.116 144.154ZM510.06 144.154C512.212 144.154 513.619 142.578 513.619 140.217C513.619 137.84 512.212 136.264 510.06 136.264C507.907 136.264 506.5 137.84 506.5 140.217C506.5 142.578 507.907 144.154 510.06 144.154ZM510.065 142.906C508.658 142.906 508.001 141.678 508.001 140.212C508.001 138.75 508.658 137.507 510.065 137.507C511.462 137.507 512.118 138.75 512.118 140.212C512.118 141.678 511.462 142.906 510.065 142.906ZM515.279 144H516.765V139.292C516.765 138.263 517.486 137.547 518.331 137.547C519.156 137.547 519.728 138.094 519.728 138.924V144H521.21V139.133C521.21 138.213 521.771 137.547 522.741 137.547C523.526 137.547 524.173 137.984 524.173 139.018V144H525.659V138.879C525.659 137.134 524.685 136.264 523.303 136.264C522.204 136.264 521.379 136.791 521.011 137.607H520.931C520.598 136.771 519.897 136.264 518.878 136.264C517.869 136.264 517.118 136.766 516.8 137.607H516.705V136.364H515.279V144Z" fill="#64778C"/>
<a href="mailto:mahani@inbox.com">
<rect fill="black" fill-opacity="0" x="0.347656" y="-0.971591" width="131.301" height="16.9432"/>
</a>
<circle cx="319" cy="12" r="8" fill="url(#paint5_linear_1357_16226)"/>
<path d="M336.228 8.81818V17.4421C336.228 18.1293 335.935 18.4968 335.195 18.4968C335.099 18.4968 335.024 18.4915 334.918 18.4862V20.0575C335.056 20.0682 335.174 20.0682 335.312 20.0682C337.118 20.0682 338.157 19.2372 338.157 17.4688V8.81818H336.228ZM337.187 7.65696C337.8 7.65696 338.3 7.18821 338.3 6.61293C338.3 6.03232 337.8 5.56357 337.187 5.56357C336.569 5.56357 336.068 6.03232 336.068 6.61293C336.068 7.18821 336.569 7.65696 337.187 7.65696ZM344.158 17.1598C346.555 17.1598 348.079 15.4712 348.079 12.9411C348.079 10.4055 346.555 8.71165 344.158 8.71165C341.761 8.71165 340.238 10.4055 340.238 12.9411C340.238 15.4712 341.761 17.1598 344.158 17.1598ZM344.169 15.6151C342.843 15.6151 342.193 14.4325 342.193 12.9357C342.193 11.4389 342.843 10.2404 344.169 10.2404C345.474 10.2404 346.124 11.4389 346.124 12.9357C346.124 14.4325 345.474 15.6151 344.169 15.6151ZM350.251 17H352.147V15.7109H352.259C352.562 16.3075 353.196 17.1438 354.603 17.1438C356.531 17.1438 357.974 15.6151 357.974 12.9197C357.974 10.1925 356.488 8.71165 354.597 8.71165C353.154 8.71165 352.552 9.5799 352.259 10.1712H352.179V6.09091H350.251V17ZM352.142 12.9091C352.142 11.3217 352.823 10.2937 354.065 10.2937C355.348 10.2937 356.009 11.3857 356.009 12.9091C356.009 14.4432 355.338 15.5618 354.065 15.5618C352.834 15.5618 352.142 14.4964 352.142 12.9091ZM359.069 7.74751H362.441V17H364.401V7.74751H367.773V6.09091H359.069V7.74751ZM369.815 17H371.744V8.81818H369.815V17ZM370.785 7.65696C371.397 7.65696 371.898 7.18821 371.898 6.61293C371.898 6.03232 371.397 5.56357 370.785 5.56357C370.167 5.56357 369.666 6.03232 369.666 6.61293C369.666 7.18821 370.167 7.65696 370.785 7.65696ZM378.262 8.81818H376.648V6.85795H374.72V8.81818H373.559V10.3097H374.72V14.8587C374.709 16.3981 375.828 17.1545 377.277 17.1119C377.825 17.0959 378.203 16.9893 378.411 16.9201L378.086 15.4126C377.98 15.4393 377.761 15.4872 377.522 15.4872C377.037 15.4872 376.648 15.3168 376.648 14.5391V10.3097H378.262V8.81818ZM382.429 6.09091H380.501V17H382.429V6.09091ZM388.484 17.1598C390.391 17.1598 391.701 16.2276 392.042 14.8054L390.242 14.603C389.981 15.2955 389.341 15.6577 388.51 15.6577C387.264 15.6577 386.438 14.8374 386.422 13.4364H392.122V12.8452C392.122 9.97408 390.396 8.71165 388.383 8.71165C386.039 8.71165 384.51 10.4322 384.51 12.957C384.51 15.5245 386.018 17.1598 388.484 17.1598ZM386.428 12.1367C386.486 11.0927 387.259 10.2138 388.409 10.2138C389.517 10.2138 390.263 11.0234 390.274 12.1367H386.428Z" fill="#6048E5"/>
<path d="M336.302 41H337.947V37.1648H340.185C342.715 37.1648 343.967 35.636 343.967 33.6225C343.967 31.6143 342.726 30.0909 340.19 30.0909H336.302V41ZM337.947 35.7692V31.5025H340.014C341.644 31.5025 342.31 32.3867 342.31 33.6225C342.31 34.8583 341.644 35.7692 340.036 35.7692H337.947ZM345.768 41H347.361V36.0036C347.361 34.9329 348.187 34.1605 349.316 34.1605C349.646 34.1605 350.019 34.2191 350.147 34.2564V32.733C349.987 32.7116 349.673 32.6957 349.47 32.6957C348.512 32.6957 347.691 33.239 347.393 34.1179H347.308V32.8182H345.768V41ZM354.679 41.1651C356.985 41.1651 358.493 39.4766 358.493 36.9464C358.493 34.4002 356.985 32.7116 354.679 32.7116C352.372 32.7116 350.865 34.4002 350.865 36.9464C350.865 39.4766 352.372 41.1651 354.679 41.1651ZM354.684 39.8281C353.177 39.8281 352.473 38.5124 352.473 36.9411C352.473 35.375 353.177 34.0433 354.684 34.0433C356.181 34.0433 356.884 35.375 356.884 36.9411C356.884 38.5124 356.181 39.8281 354.684 39.8281ZM363.333 41.1598C364.825 41.1598 365.411 40.2489 365.698 39.7269H365.831V41H367.387V30.0909H365.794V34.1445H365.698C365.411 33.6385 364.867 32.7116 363.344 32.7116C361.368 32.7116 359.913 34.2724 359.913 36.9251C359.913 39.5724 361.346 41.1598 363.333 41.1598ZM363.685 39.8015C362.263 39.8015 361.522 38.5497 361.522 36.9091C361.522 35.2844 362.247 34.0646 363.685 34.0646C365.075 34.0646 365.821 35.1992 365.821 36.9091C365.821 38.6296 365.059 39.8015 363.685 39.8015ZM374.843 37.6069C374.848 38.9972 373.815 39.6577 372.92 39.6577C371.935 39.6577 371.253 38.9439 371.253 37.8306V32.8182H369.66V38.0224C369.66 40.0518 370.773 41.1065 372.345 41.1065C373.575 41.1065 374.411 40.4567 374.79 39.5831H374.875V41H376.441V32.8182H374.843V37.6069ZM382.027 41.1651C383.961 41.1651 385.213 40.0039 385.388 38.4112H383.838C383.636 39.2955 382.949 39.8175 382.038 39.8175C380.69 39.8175 379.822 38.6935 379.822 36.9091C379.822 35.1566 380.706 34.054 382.038 34.054C383.05 34.054 383.668 34.6932 383.838 35.4602H385.388C385.218 33.8089 383.87 32.7116 382.011 32.7116C379.705 32.7116 378.213 34.4482 378.213 36.9464C378.213 39.4126 379.652 41.1651 382.027 41.1651ZM390.911 32.8182H389.233V30.858H387.64V32.8182H386.442V34.0966H387.64V38.9279C387.635 40.4141 388.77 41.1332 390.027 41.1065C390.533 41.1012 390.874 41.0053 391.06 40.9361L390.772 39.6204C390.666 39.6417 390.469 39.6896 390.213 39.6896C389.696 39.6896 389.233 39.5192 389.233 38.5977V34.0966H390.911V32.8182ZM396.77 41H403.674V39.5831H398.416V36.2433H403.253V34.8317H398.416V31.5078H403.61V30.0909H396.77V41ZM407.273 36.142C407.273 34.837 408.072 34.0913 409.18 34.0913C410.261 34.0913 410.917 34.7997 410.917 35.9876V41H412.509V35.7958C412.509 33.7717 411.396 32.7116 409.723 32.7116C408.493 32.7116 407.689 33.2816 407.311 34.1499H407.209V32.8182H405.681V41H407.273V36.142ZM418.076 44.2386C420.159 44.2386 421.767 43.2852 421.767 41.1811V32.8182H420.206V34.1445H420.089C419.807 33.6385 419.242 32.7116 417.719 32.7116C415.743 32.7116 414.288 34.2724 414.288 36.8771C414.288 39.4872 415.775 40.8775 417.708 40.8775C419.21 40.8775 419.791 40.0305 420.079 39.5085H420.18V41.1172C420.18 42.4009 419.301 42.9549 418.092 42.9549C416.765 42.9549 416.249 42.2891 415.966 41.8203L414.597 42.3849C415.029 43.3864 416.121 44.2386 418.076 44.2386ZM418.06 39.5565C416.638 39.5565 415.897 38.4645 415.897 36.8558C415.897 35.2844 416.622 34.0646 418.06 34.0646C419.45 34.0646 420.196 35.1992 420.196 36.8558C420.196 38.5444 419.434 39.5565 418.06 39.5565ZM423.903 41H425.496V32.8182H423.903V41ZM424.708 31.5558C425.256 31.5558 425.714 31.1296 425.714 30.6076C425.714 30.0856 425.256 29.6541 424.708 29.6541C424.154 29.6541 423.701 30.0856 423.701 30.6076C423.701 31.1296 424.154 31.5558 424.708 31.5558ZM429.231 36.142C429.231 34.837 430.03 34.0913 431.138 34.0913C432.22 34.0913 432.875 34.7997 432.875 35.9876V41H434.467V35.7958C434.467 33.7717 433.354 32.7116 431.682 32.7116C430.451 32.7116 429.647 33.2816 429.269 34.1499H429.167V32.8182H427.639V41H429.231V36.142ZM440.13 41.1651C441.914 41.1651 443.177 40.2862 443.539 38.9545L442.031 38.6829C441.744 39.4553 441.051 39.8494 440.146 39.8494C438.782 39.8494 437.866 38.9652 437.823 37.3885H443.64V36.8239C443.64 33.8675 441.871 32.7116 440.018 32.7116C437.738 32.7116 436.236 34.4482 436.236 36.9624C436.236 39.5032 437.717 41.1651 440.13 41.1651ZM437.829 36.1953C437.892 35.0341 438.734 34.0273 440.028 34.0273C441.264 34.0273 442.074 34.9435 442.079 36.1953H437.829ZM448.933 41.1651C450.718 41.1651 451.98 40.2862 452.342 38.9545L450.835 38.6829C450.547 39.4553 449.855 39.8494 448.949 39.8494C447.586 39.8494 446.67 38.9652 446.627 37.3885H452.444V36.8239C452.444 33.8675 450.675 32.7116 448.822 32.7116C446.542 32.7116 445.04 34.4482 445.04 36.9624C445.04 39.5032 446.52 41.1651 448.933 41.1651ZM446.632 36.1953C446.696 35.0341 447.538 34.0273 448.832 34.0273C450.068 34.0273 450.878 34.9435 450.883 36.1953H446.632ZM454.211 41H455.803V36.0036C455.803 34.9329 456.629 34.1605 457.758 34.1605C458.089 34.1605 458.462 34.2191 458.589 34.2564V32.733C458.43 32.7116 458.115 32.6957 457.913 32.6957C456.954 32.6957 456.134 33.239 455.835 34.1179H455.75V32.8182H454.211V41Z" fill="#64778C"/>
<path d="M74.4829 16.8182H72.7837V16.1737C72.7837 15.5344 73.05 15.1776 73.7691 15.1776C74.0727 15.1776 74.3284 15.2468 74.4882 15.2947L74.8771 13.8033C74.6267 13.718 74.0781 13.5795 73.4122 13.5795C71.99 13.5795 70.8554 14.3945 70.8554 16.0458V16.8182H69.6462V18.3097H70.8554V25H72.7837V18.3097H74.4829V16.8182ZM76.443 25H78.3713V16.8182H76.443V25ZM77.4125 15.657C78.025 15.657 78.5258 15.1882 78.5258 14.6129C78.5258 14.0323 78.025 13.5636 77.4125 13.5636C76.7946 13.5636 76.2939 14.0323 76.2939 14.6129C76.2939 15.1882 76.7946 15.657 77.4125 15.657ZM80.8041 25H82.7324V20.19C82.7324 19.1513 83.5154 18.4162 84.5755 18.4162C84.9004 18.4162 85.3052 18.4748 85.4703 18.5281V16.7543C85.2946 16.7223 84.9909 16.701 84.7779 16.701C83.8404 16.701 83.0573 17.2337 82.759 18.1818H82.6738V16.8182H80.8041V25ZM93.668 18.9808C93.4017 17.5959 92.2937 16.7116 90.3761 16.7116C88.4052 16.7116 87.0629 17.6811 87.0682 19.1939C87.0629 20.3871 87.798 21.1754 89.3694 21.5004L90.765 21.7933C91.516 21.9585 91.8676 22.2621 91.8676 22.7255C91.8676 23.2848 91.2604 23.7056 90.3442 23.7056C89.4599 23.7056 88.8847 23.3221 88.7195 22.587L86.8392 22.7681C87.0789 24.2702 88.3413 25.1598 90.3495 25.1598C92.3949 25.1598 93.8385 24.0998 93.8438 22.5497C93.8385 21.3832 93.0874 20.6694 91.5427 20.3338L90.1471 20.0355C89.3161 19.8491 88.9859 19.5614 88.9912 19.0874C88.9859 18.5334 89.5984 18.1499 90.4028 18.1499C91.2923 18.1499 91.7611 18.6346 91.9102 19.1726L93.668 18.9808ZM99.9694 16.8182H98.3554V14.858H96.4272V16.8182H95.2659V18.3097H96.4272V22.8587C96.4165 24.3981 97.5351 25.1545 98.984 25.1119C99.5326 25.0959 99.9108 24.9893 100.119 24.9201L99.7936 23.4126C99.6871 23.4393 99.4687 23.4872 99.229 23.4872C98.7443 23.4872 98.3554 23.3168 98.3554 22.5391V18.3097H99.9694V16.8182ZM111.258 14.0909H109.292V21.527H109.196L104.062 14.0909H102.293V25H104.269V17.5692H104.36L109.5 25H111.258V14.0909ZM116.13 25.1651C117.414 25.1651 118.181 24.5632 118.533 23.8761H118.597V25H120.45V19.5241C120.45 17.3615 118.687 16.7116 117.127 16.7116C115.406 16.7116 114.085 17.4787 113.659 18.9702L115.459 19.2259C115.651 18.6665 116.194 18.1871 117.137 18.1871C118.032 18.1871 118.522 18.6452 118.522 19.4496V19.4815C118.522 20.0355 117.942 20.0621 116.498 20.2166C114.911 20.3871 113.392 20.8612 113.392 22.7042C113.392 24.3129 114.57 25.1651 116.13 25.1651ZM116.631 23.7482C115.827 23.7482 115.252 23.3807 115.252 22.6722C115.252 21.9318 115.896 21.6229 116.759 21.5004C117.265 21.4311 118.277 21.3033 118.527 21.1009V22.065C118.527 22.9759 117.792 23.7482 116.631 23.7482ZM122.839 25H124.768V20.0249C124.768 19.0181 125.439 18.3363 126.27 18.3363C127.085 18.3363 127.644 18.8849 127.644 19.7266V25H129.535V19.897C129.535 18.9755 130.084 18.3363 131.016 18.3363C131.793 18.3363 132.411 18.7944 132.411 19.8065V25H134.345V19.5082C134.345 17.6811 133.29 16.7116 131.788 16.7116C130.6 16.7116 129.695 17.2976 129.333 18.2085H129.247C128.933 17.2816 128.139 16.7116 127.037 16.7116C125.939 16.7116 125.119 17.2763 124.778 18.2085H124.682V16.8182H122.839V25ZM140.373 25.1598C142.28 25.1598 143.591 24.2276 143.932 22.8054L142.131 22.603C141.87 23.2955 141.231 23.6577 140.4 23.6577C139.154 23.6577 138.328 22.8374 138.312 21.4364H144.012V20.8452C144.012 17.9741 142.286 16.7116 140.272 16.7116C137.928 16.7116 136.4 18.4322 136.4 20.957C136.4 23.5245 137.907 25.1598 140.373 25.1598ZM138.317 20.1367C138.376 19.0927 139.148 18.2138 140.299 18.2138C141.407 18.2138 142.152 19.0234 142.163 20.1367H138.317Z" fill="#6048E5"/>
<path d="M70.6814 38.0909V49H72.2475V41.1005H72.3487L75.566 48.984H76.8657L80.0831 41.1058H80.1843V49H81.7503V38.0909H79.7528L76.2798 46.571H76.1519L72.6789 38.0909H70.6814ZM86.3965 49.1811C87.7495 49.1811 88.5112 48.494 88.8149 47.8814H88.8788V49H90.4342V43.5668C90.4342 41.1857 88.5592 40.7116 87.2595 40.7116C85.7786 40.7116 84.415 41.3082 83.8823 42.7997L85.3791 43.1406C85.6135 42.56 86.2101 42.0007 87.2808 42.0007C88.3088 42.0007 88.8362 42.5387 88.8362 43.4656V43.5028C88.8362 44.0835 88.2396 44.0728 86.7694 44.2433C85.2193 44.4244 83.632 44.8292 83.632 46.6882C83.632 48.2969 84.8411 49.1811 86.3965 49.1811ZM86.7428 47.9027C85.8426 47.9027 85.1927 47.4979 85.1927 46.7095C85.1927 45.8572 85.9491 45.5536 86.8706 45.4311C87.3873 45.3619 88.6124 45.2234 88.8415 44.9943V46.049C88.8415 47.0185 88.0691 47.9027 86.7428 47.9027ZM92.5555 49H94.1482V44.0036C94.1482 42.9329 94.9739 42.1605 96.1031 42.1605C96.4334 42.1605 96.8062 42.2191 96.9341 42.2564V40.733C96.7743 40.7116 96.46 40.6957 96.2576 40.6957C95.2988 40.6957 94.4785 41.239 94.1802 42.1179H94.0949V40.8182H92.5555V49ZM98.3124 49H99.9051V40.8182H98.3124V49ZM99.1167 39.5558C99.6653 39.5558 100.123 39.1296 100.123 38.6076C100.123 38.0856 99.6653 37.6541 99.1167 37.6541C98.5627 37.6541 98.11 38.0856 98.11 38.6076C98.11 39.1296 98.5627 39.5558 99.1167 39.5558ZM104.429 49.1811C105.782 49.1811 106.543 48.494 106.847 47.8814H106.911V49H108.466V43.5668C108.466 41.1857 106.591 40.7116 105.292 40.7116C103.811 40.7116 102.447 41.3082 101.915 42.7997L103.411 43.1406C103.646 42.56 104.242 42.0007 105.313 42.0007C106.341 42.0007 106.868 42.5387 106.868 43.4656V43.5028C106.868 44.0835 106.272 44.0728 104.802 44.2433C103.252 44.4244 101.664 44.8292 101.664 46.6882C101.664 48.2969 102.873 49.1811 104.429 49.1811ZM104.775 47.9027C103.875 47.9027 103.225 47.4979 103.225 46.7095C103.225 45.8572 103.981 45.5536 104.903 45.4311C105.42 45.3619 106.645 45.2234 106.874 44.9943V46.049C106.874 47.0185 106.101 47.9027 104.775 47.9027Z" fill="#64778C"/>
<circle cx="161" cy="20" r="8" fill="url(#paint6_linear_1357_16226)"/>
<path d="M2.98612 121.091H1.05786V132H2.98612V121.091ZM7.77339 132.165C9.05713 132.165 9.82417 131.563 10.1757 130.876H10.2397V132H12.0934V126.524C12.0934 124.362 10.3302 123.712 8.76949 123.712C7.04896 123.712 5.72794 124.479 5.3018 125.97L7.10223 126.226C7.29399 125.667 7.83731 125.187 8.78014 125.187C9.67503 125.187 10.1651 125.645 10.1651 126.45V126.482C10.1651 127.036 9.58447 127.062 8.14093 127.217C6.55358 127.387 5.03547 127.861 5.03547 129.704C5.03547 131.313 6.21267 132.165 7.77339 132.165ZM8.2741 130.748C7.46977 130.748 6.89449 130.381 6.89449 129.672C6.89449 128.932 7.53902 128.623 8.40194 128.5C8.90798 128.431 9.92005 128.303 10.1704 128.101V129.065C10.1704 129.976 9.43532 130.748 8.2741 130.748ZM20.9489 125.981C20.6826 124.596 19.5746 123.712 17.657 123.712C15.6861 123.712 14.3438 124.681 14.3491 126.194C14.3438 127.387 15.0789 128.175 16.6502 128.5L18.0458 128.793C18.7969 128.958 19.1485 129.262 19.1485 129.725C19.1485 130.285 18.5412 130.706 17.625 130.706C16.7408 130.706 16.1655 130.322 16.0004 129.587L14.1201 129.768C14.3598 131.27 15.6222 132.16 17.6304 132.16C19.6758 132.16 21.1193 131.1 21.1247 129.55C21.1193 128.383 20.3683 127.669 18.8235 127.334L17.4279 127.036C16.597 126.849 16.2667 126.561 16.272 126.087C16.2667 125.533 16.8793 125.15 17.6836 125.15C18.5732 125.15 19.0419 125.635 19.1911 126.173L20.9489 125.981ZM27.2503 123.818H25.6363V121.858H23.708V123.818H22.5468V125.31H23.708V129.859C23.6974 131.398 24.816 132.154 26.2648 132.112C26.8135 132.096 27.1917 131.989 27.3994 131.92L27.0745 130.413C26.968 130.439 26.7496 130.487 26.5099 130.487C26.0251 130.487 25.6363 130.317 25.6363 129.539V125.31H27.2503V123.818ZM38.5388 121.091H36.5732V128.527H36.4774L31.3424 121.091H29.5739V132H31.5501V124.569H31.6407L36.781 132H38.5388V121.091ZM43.4113 132.165C44.695 132.165 45.4621 131.563 45.8136 130.876H45.8775V132H47.7312V126.524C47.7312 124.362 45.9681 123.712 44.4074 123.712C42.6869 123.712 41.3658 124.479 40.9397 125.97L42.7401 126.226C42.9319 125.667 43.4752 125.187 44.418 125.187C45.3129 125.187 45.803 125.645 45.803 126.45V126.482C45.803 127.036 45.2224 127.062 43.7788 127.217C42.1915 127.387 40.6734 127.861 40.6734 129.704C40.6734 131.313 41.8506 132.165 43.4113 132.165ZM43.912 130.748C43.1077 130.748 42.5324 130.381 42.5324 129.672C42.5324 128.932 43.1769 128.623 44.0398 128.5C44.5459 128.431 45.5579 128.303 45.8083 128.101V129.065C45.8083 129.976 45.0732 130.748 43.912 130.748ZM50.1202 132H52.0484V127.025C52.0484 126.018 52.7196 125.336 53.5506 125.336C54.3655 125.336 54.9248 125.885 54.9248 126.727V132H56.8158V126.897C56.8158 125.975 57.3645 125.336 58.2967 125.336C59.0744 125.336 59.6923 125.794 59.6923 126.806V132H61.6258V126.508C61.6258 124.681 60.5712 123.712 59.069 123.712C57.8812 123.712 56.9756 124.298 56.6134 125.208H56.5282C56.2139 124.282 55.4202 123.712 54.3176 123.712C53.2203 123.712 52.4 124.276 52.0591 125.208H51.9632V123.818H50.1202V132ZM67.6542 132.16C69.5612 132.16 70.8716 131.228 71.2125 129.805L69.412 129.603C69.151 130.295 68.5118 130.658 67.6809 130.658C66.4344 130.658 65.6088 129.837 65.5928 128.436H71.2924V127.845C71.2924 124.974 69.5665 123.712 67.553 123.712C65.2093 123.712 63.6805 125.432 63.6805 127.957C63.6805 130.525 65.188 132.16 67.6542 132.16ZM65.5981 127.137C65.6567 126.093 66.4291 125.214 67.5797 125.214C68.6876 125.214 69.4334 126.023 69.444 127.137H65.5981Z" fill="#6048E5"/>
<path d="M1.5657 145.091V156H3.13175V148.1H3.23295L6.45028 155.984H7.75L10.9673 148.106H11.0685V156H12.6346V145.091H10.6371L7.16406 153.571H7.03622L3.56321 145.091H1.5657ZM17.2808 156.181C18.6338 156.181 19.3955 155.494 19.6991 154.881H19.7631V156H21.3184V150.567C21.3184 148.186 19.4434 147.712 18.1437 147.712C16.6629 147.712 15.2993 148.308 14.7666 149.8L16.2634 150.141C16.4978 149.56 17.0944 149.001 18.165 149.001C19.1931 149.001 19.7204 149.539 19.7204 150.466V150.503C19.7204 151.083 19.1238 151.073 17.6537 151.243C16.1036 151.424 14.5162 151.829 14.5162 153.688C14.5162 155.297 15.7254 156.181 17.2808 156.181ZM17.627 154.903C16.7268 154.903 16.077 154.498 16.077 153.71C16.077 152.857 16.8334 152.554 17.7549 152.431C18.2716 152.362 19.4967 152.223 19.7258 151.994V153.049C19.7258 154.018 18.9534 154.903 17.627 154.903ZM25.0325 151.142C25.0325 149.837 25.8581 149.091 26.9927 149.091C28.09 149.091 28.7452 149.789 28.7452 150.988V156H30.3379V150.796C30.3379 148.756 29.2193 147.712 27.536 147.712C26.263 147.712 25.4959 148.266 25.1124 149.15H25.0112V145.091H23.4398V156H25.0325V151.142ZM34.8443 156.181C36.1973 156.181 36.959 155.494 37.2626 154.881H37.3265V156H38.8819V150.567C38.8819 148.186 37.0069 147.712 35.7072 147.712C34.2264 147.712 32.8627 148.308 32.3301 149.8L33.8269 150.141C34.0613 149.56 34.6578 149.001 35.7285 149.001C36.7566 149.001 37.2839 149.539 37.2839 150.466V150.503C37.2839 151.083 36.6873 151.073 35.2172 151.243C33.6671 151.424 32.0797 151.829 32.0797 153.688C32.0797 155.297 33.2889 156.181 34.8443 156.181ZM35.1905 154.903C34.2903 154.903 33.6404 154.498 33.6404 153.71C33.6404 152.857 34.3968 152.554 35.3184 152.431C35.835 152.362 37.0602 152.223 37.2892 151.994V153.049C37.2892 154.018 36.5169 154.903 35.1905 154.903ZM42.596 151.142C42.596 149.837 43.395 149.091 44.5029 149.091C45.5843 149.091 46.2394 149.8 46.2394 150.988V156H47.8321V150.796C47.8321 148.772 46.7188 147.712 45.0463 147.712C43.8158 147.712 43.0115 148.282 42.6333 149.15H42.532V147.818H41.0033V156H42.596V151.142ZM49.9681 156H51.5608V147.818H49.9681V156ZM50.7725 146.556C51.3211 146.556 51.7792 146.13 51.7792 145.608C51.7792 145.086 51.3211 144.654 50.7725 144.654C50.2185 144.654 49.7657 145.086 49.7657 145.608C49.7657 146.13 50.2185 146.556 50.7725 146.556Z" fill="#64778C"/>
<circle cx="88" cy="127" r="8" fill="url(#paint7_linear_1357_16226)"/>
<line x1="233.5" y1="213" x2="233.5" y2="257" stroke="url(#paint8_linear_1357_16226)"/>
<circle opacity="0.1" cx="233" cy="161" r="20.5" stroke="#6048E5"/>
<circle opacity="0.3" cx="233" cy="161" r="15" stroke="#6048E5" stroke-width="2"/>
<circle cx="233" cy="161" r="9" fill="url(#paint9_linear_1357_16226)"/>
<path d="M202.453 199H204.429V195.314H206.517C209.037 195.314 210.39 193.801 210.39 191.702C210.39 189.62 209.053 188.091 206.544 188.091H202.453V199ZM204.429 193.689V189.742H206.24C207.721 189.742 208.376 190.541 208.376 191.702C208.376 192.864 207.721 193.689 206.251 193.689H204.429ZM212.556 199H219.694V197.343H214.532V194.366H219.284V192.709H214.532V189.748H219.651V188.091H212.556V199ZM222.118 199H224.094V195.005H226.107L228.249 199H230.454L228.094 194.675C229.378 194.158 230.054 193.061 230.054 191.58C230.054 189.497 228.712 188.091 226.209 188.091H222.118V199ZM224.094 193.364V189.742H225.905C227.38 189.742 228.041 190.419 228.041 191.58C228.041 192.741 227.38 193.364 225.916 193.364H224.094ZM238.252 191.09H240.154C240.116 189.247 238.545 187.942 236.223 187.942C233.932 187.942 232.212 189.231 232.217 191.159C232.217 192.725 233.33 193.625 235.125 194.089L236.366 194.408C237.544 194.707 238.321 195.074 238.327 195.921C238.321 196.853 237.437 197.477 236.148 197.477C234.912 197.477 233.953 196.923 233.874 195.777H231.929C232.009 197.945 233.623 199.165 236.164 199.165C238.779 199.165 240.298 197.86 240.303 195.937C240.298 194.046 238.737 193.183 237.096 192.794L236.073 192.539C235.179 192.326 234.209 191.947 234.22 191.037C234.225 190.216 234.96 189.614 236.196 189.614C237.373 189.614 238.151 190.163 238.252 191.09ZM252.263 193.545C252.263 190.019 250.111 187.942 247.25 187.942C244.384 187.942 242.238 190.019 242.238 193.545C242.238 197.066 244.384 199.149 247.25 199.149C250.111 199.149 252.263 197.072 252.263 193.545ZM250.276 193.545C250.276 196.028 249.029 197.375 247.25 197.375C245.476 197.375 244.225 196.028 244.225 193.545C244.225 191.063 245.476 189.716 247.25 189.716C249.029 189.716 250.276 191.063 250.276 193.545ZM263.546 188.091H261.58V195.527H261.484L256.349 188.091H254.581V199H256.557V191.569H256.648L261.788 199H263.546V188.091Z" fill="#6048E5"/>
<defs>
<linearGradient id="paint0_linear_1357_16226" x1="248" y1="156" x2="369.357" y2="134.616" gradientUnits="userSpaceOnUse">
<stop stop-color="#BDB4FE"/>
<stop offset="1" stop-color="#BDB4FE" stop-opacity="0"/>
</linearGradient>
<linearGradient id="paint1_linear_1357_16226" x1="217" y1="157" x2="98.8712" y2="132.873" gradientUnits="userSpaceOnUse">
<stop stop-color="#BDB4FE"/>
<stop offset="1" stop-color="#BDB4FE" stop-opacity="0"/>
</linearGradient>
<linearGradient id="paint2_linear_1357_16226" x1="226" y1="147.001" x2="163.992" y2="145.486" gradientUnits="userSpaceOnUse">
<stop stop-color="#BDB4FE"/>
<stop offset="1" stop-color="#BDB4FE" stop-opacity="0"/>
</linearGradient>
<linearGradient id="paint3_linear_1357_16226" x1="240" y1="147.001" x2="315.429" y2="144.884" gradientUnits="userSpaceOnUse">
<stop stop-color="#BDB4FE"/>
<stop offset="1" stop-color="#BDB4FE" stop-opacity="0"/>
</linearGradient>
<linearGradient id="paint4_linear_1357_16226" x1="379" y1="111" x2="379" y2="127" gradientUnits="userSpaceOnUse">
<stop stop-color="#7963F5"/>
<stop offset="1" stop-color="#5D46DB"/>
</linearGradient>
<linearGradient id="paint5_linear_1357_16226" x1="319" y1="4" x2="319" y2="20" gradientUnits="userSpaceOnUse">
<stop stop-color="#7963F5"/>
<stop offset="1" stop-color="#5D46DB"/>
</linearGradient>
<linearGradient id="paint6_linear_1357_16226" x1="161" y1="12" x2="161" y2="28" gradientUnits="userSpaceOnUse">
<stop stop-color="#7963F5"/>
<stop offset="1" stop-color="#5D46DB"/>
</linearGradient>
<linearGradient id="paint7_linear_1357_16226" x1="88" y1="119" x2="88" y2="135" gradientUnits="userSpaceOnUse">
<stop stop-color="#7963F5"/>
<stop offset="1" stop-color="#5D46DB"/>
</linearGradient>
<linearGradient id="paint8_linear_1357_16226" x1="232" y1="213" x2="258.611" y2="226.314" gradientUnits="userSpaceOnUse">
<stop stop-color="#BDB4FE"/>
<stop offset="1" stop-color="#BDB4FE" stop-opacity="0"/>
</linearGradient>
<linearGradient id="paint9_linear_1357_16226" x1="233" y1="152" x2="233" y2="170" gradientUnits="userSpaceOnUse">
<stop stop-color="#7963F5"/>
<stop offset="1" stop-color="#5D46DB"/>
</linearGradient>
</defs>
</svg>
