<svg width="588" height="257" viewBox="0 0 588 257" fill="none" xmlns="http://www.w3.org/2000/svg">
<path d="M430 123L309 156" stroke="url(#paint0_linear_1601_16561)"/>
<path d="M159 129L278 157" stroke="url(#paint1_linear_1601_16561)"/>
<path d="M227 29L287 147" stroke="url(#paint2_linear_1601_16561)"/>
<path d="M374 22L301 147" stroke="url(#paint3_linear_1601_16561)"/>
<circle cx="440" cy="119" r="8" fill="url(#paint4_linear_1601_16561)"/>
<path d="M460.818 124.16C462.725 124.16 464.036 123.228 464.377 121.805L462.576 121.603C462.315 122.295 461.676 122.658 460.845 122.658C459.599 122.658 458.773 121.837 458.757 120.436H464.457V119.845C464.457 116.974 462.731 115.712 460.717 115.712C458.373 115.712 456.845 117.432 456.845 119.957C456.845 122.525 458.352 124.16 460.818 124.16ZM458.762 119.137C458.821 118.093 459.593 117.214 460.744 117.214C461.852 117.214 462.598 118.023 462.608 119.137H458.762ZM466.538 124H468.466V119.025C468.466 118.018 469.137 117.336 469.968 117.336C470.783 117.336 471.343 117.885 471.343 118.727V124H473.234V118.897C473.234 117.975 473.782 117.336 474.714 117.336C475.492 117.336 476.11 117.794 476.11 118.806V124H478.044V118.508C478.044 116.681 476.989 115.712 475.487 115.712C474.299 115.712 473.393 116.298 473.031 117.208H472.946C472.632 116.282 471.838 115.712 470.735 115.712C469.638 115.712 468.818 116.276 468.477 117.208H468.381V115.818H466.538V124ZM482.804 124.165C484.088 124.165 484.855 123.563 485.206 122.876H485.27V124H487.124V118.524C487.124 116.362 485.361 115.712 483.8 115.712C482.08 115.712 480.759 116.479 480.333 117.97L482.133 118.226C482.325 117.667 482.868 117.187 483.811 117.187C484.706 117.187 485.196 117.645 485.196 118.45V118.482C485.196 119.036 484.615 119.062 483.172 119.217C481.584 119.387 480.066 119.861 480.066 121.704C480.066 123.313 481.243 124.165 482.804 124.165ZM483.305 122.748C482.501 122.748 481.925 122.381 481.925 121.672C481.925 120.932 482.57 120.623 483.433 120.5C483.939 120.431 484.951 120.303 485.201 120.101V121.065C485.201 121.976 484.466 122.748 483.305 122.748ZM489.513 124H491.441V115.818H489.513V124ZM490.482 114.657C491.095 114.657 491.596 114.188 491.596 113.613C491.596 113.032 491.095 112.564 490.482 112.564C489.865 112.564 489.364 113.032 489.364 113.613C489.364 114.188 489.865 114.657 490.482 114.657ZM495.802 113.091H493.874V124H495.802V113.091Z" fill="#6048E5"/>
<path d="M457.347 144H458.833V139.292C458.833 138.263 459.554 137.547 460.4 137.547C461.225 137.547 461.797 138.094 461.797 138.924V144H463.278V139.133C463.278 138.213 463.84 137.547 464.809 137.547C465.595 137.547 466.241 137.984 466.241 139.018V144H467.728V138.879C467.728 137.134 466.753 136.264 465.371 136.264C464.272 136.264 463.447 136.791 463.079 137.607H463C462.667 136.771 461.966 136.264 460.946 136.264C459.937 136.264 459.186 136.766 458.868 137.607H458.774V136.364H457.347V144ZM471.942 144.169C473.205 144.169 473.916 143.528 474.199 142.956H474.259V144H475.711V138.929C475.711 136.707 473.961 136.264 472.748 136.264C471.366 136.264 470.093 136.821 469.596 138.213L470.993 138.531C471.211 137.989 471.768 137.467 472.768 137.467C473.727 137.467 474.219 137.969 474.219 138.835V138.869C474.219 139.411 473.662 139.401 472.29 139.56C470.844 139.729 469.362 140.107 469.362 141.842C469.362 143.344 470.491 144.169 471.942 144.169ZM472.265 142.976C471.425 142.976 470.819 142.598 470.819 141.862C470.819 141.067 471.525 140.783 472.385 140.669C472.867 140.604 474.01 140.475 474.224 140.261V141.246C474.224 142.151 473.503 142.976 472.265 142.976ZM479.177 139.466C479.177 138.248 479.948 137.552 481.007 137.552C482.031 137.552 482.642 138.203 482.642 139.322V144H484.129V139.143C484.129 137.239 483.085 136.264 481.514 136.264C480.326 136.264 479.61 136.781 479.252 137.607H479.157V133.818H477.691V144H479.177V139.466ZM488.335 144.169C489.598 144.169 490.309 143.528 490.592 142.956H490.652V144H492.103V138.929C492.103 136.707 490.353 136.264 489.14 136.264C487.758 136.264 486.485 136.821 485.988 138.213L487.385 138.531C487.604 137.989 488.161 137.467 489.16 137.467C490.12 137.467 490.612 137.969 490.612 138.835V138.869C490.612 139.411 490.055 139.401 488.683 139.56C487.236 139.729 485.755 140.107 485.755 141.842C485.755 143.344 486.883 144.169 488.335 144.169ZM488.658 142.976C487.818 142.976 487.211 142.598 487.211 141.862C487.211 141.067 487.917 140.783 488.777 140.669C489.26 140.604 490.403 140.475 490.617 140.261V141.246C490.617 142.151 489.896 142.976 488.658 142.976ZM495.57 139.466C495.57 138.248 496.316 137.552 497.35 137.552C498.359 137.552 498.97 138.213 498.97 139.322V144H500.457V139.143C500.457 137.254 499.418 136.264 497.857 136.264C496.708 136.264 495.958 136.796 495.605 137.607H495.51V136.364H494.083V144H495.57V139.466ZM502.45 144H503.937V136.364H502.45V144ZM503.201 135.185C503.713 135.185 504.141 134.788 504.141 134.3C504.141 133.813 503.713 133.411 503.201 133.411C502.684 133.411 502.262 133.813 502.262 134.3C502.262 134.788 502.684 135.185 503.201 135.185ZM512.067 146.769C513.215 146.769 514.543 146.456 515.159 146.168L514.811 145.079C514.393 145.228 513.245 145.591 512.131 145.591C508.786 145.591 506.991 143.746 506.991 140.445C506.991 137.283 508.766 135.24 511.947 135.24C514.856 135.24 516.591 137.109 516.586 139.635C516.591 141.793 516.312 142.762 515.408 142.762C514.896 142.762 514.612 142.344 514.612 141.822V137.209H513.389V137.766H513.325C513.175 137.328 512.31 136.935 511.271 137.06C509.835 137.229 508.602 138.417 508.602 140.376C508.602 142.419 509.646 143.786 511.321 143.851C512.455 143.901 513.19 143.374 513.424 142.787H513.484C513.603 143.587 514.468 143.94 515.318 143.911C517.441 143.871 517.844 141.783 517.844 139.685C517.844 136.692 515.795 134.087 511.997 134.087C508.015 134.087 505.673 136.518 505.668 140.435C505.673 144.467 507.955 146.769 512.067 146.769ZM511.609 142.633C510.312 142.633 509.864 141.519 509.859 140.316C509.864 139.173 510.506 138.263 511.629 138.263C512.847 138.263 513.394 138.8 513.399 140.311C513.404 141.862 512.902 142.633 511.609 142.633ZM519.486 144H520.972V136.364H519.486V144ZM520.236 135.185C520.748 135.185 521.176 134.788 521.176 134.3C521.176 133.813 520.748 133.411 520.236 133.411C519.719 133.411 519.297 133.813 519.297 134.3C519.297 134.788 519.719 135.185 520.236 135.185ZM524.458 139.466C524.458 138.248 525.204 137.552 526.238 137.552C527.248 137.552 527.859 138.213 527.859 139.322V144H529.346V139.143C529.346 137.254 528.306 136.264 526.745 136.264C525.597 136.264 524.846 136.796 524.493 137.607H524.399V136.364H522.972V144H524.458V139.466ZM531.458 144H532.91V142.812H533.034C533.303 143.299 533.85 144.149 535.242 144.149C537.091 144.149 538.434 142.668 538.434 140.197C538.434 137.721 537.071 136.264 535.227 136.264C533.81 136.264 533.298 137.129 533.034 137.602H532.945V133.818H531.458V144ZM532.915 140.182C532.915 138.586 533.611 137.527 534.909 137.527C536.256 137.527 536.932 138.665 536.932 140.182C536.932 141.713 536.236 142.881 534.909 142.881C533.631 142.881 532.915 141.788 532.915 140.182ZM543.319 144.154C545.472 144.154 546.879 142.578 546.879 140.217C546.879 137.84 545.472 136.264 543.319 136.264C541.167 136.264 539.76 137.84 539.76 140.217C539.76 142.578 541.167 144.154 543.319 144.154ZM543.324 142.906C541.917 142.906 541.261 141.678 541.261 140.212C541.261 138.75 541.917 137.507 543.324 137.507C544.721 137.507 545.378 138.75 545.378 140.212C545.378 141.678 544.721 142.906 543.324 142.906ZM549.397 136.364H547.767L550.113 140.182L547.737 144H549.367L551.083 141.146L552.803 144H554.428L552.027 140.182L554.409 136.364H552.783L551.083 139.337L549.397 136.364ZM556.914 144.094C557.456 144.094 557.909 143.652 557.909 143.1C557.909 142.558 557.456 142.111 556.914 142.111C556.367 142.111 555.92 142.558 555.92 143.1C555.92 143.652 556.367 144.094 556.914 144.094ZM563.116 144.154C564.921 144.154 566.089 143.07 566.253 141.584H564.807C564.618 142.409 563.976 142.896 563.126 142.896C561.868 142.896 561.058 141.847 561.058 140.182C561.058 138.546 561.883 137.517 563.126 137.517C564.071 137.517 564.648 138.114 564.807 138.83H566.253C566.094 137.288 564.836 136.264 563.101 136.264C560.949 136.264 559.557 137.885 559.557 140.217C559.557 142.518 560.899 144.154 563.116 144.154ZM571.06 144.154C573.212 144.154 574.619 142.578 574.619 140.217C574.619 137.84 573.212 136.264 571.06 136.264C568.907 136.264 567.5 137.84 567.5 140.217C567.5 142.578 568.907 144.154 571.06 144.154ZM571.065 142.906C569.658 142.906 569.001 141.678 569.001 140.212C569.001 138.75 569.658 137.507 571.065 137.507C572.462 137.507 573.118 138.75 573.118 140.212C573.118 141.678 572.462 142.906 571.065 142.906ZM576.279 144H577.765V139.292C577.765 138.263 578.486 137.547 579.331 137.547C580.156 137.547 580.728 138.094 580.728 138.924V144H582.21V139.133C582.21 138.213 582.771 137.547 583.741 137.547C584.526 137.547 585.173 137.984 585.173 139.018V144H586.659V138.879C586.659 137.134 585.685 136.264 584.303 136.264C583.204 136.264 582.379 136.791 582.011 137.607H581.931C581.598 136.771 580.897 136.264 579.878 136.264C578.869 136.264 578.118 136.766 577.8 137.607H577.705V136.364H576.279V144Z" fill="#64778C"/>
<a href="mailto:mahani@inbox.com">
<rect fill="black" fill-opacity="0" x="0.347656" y="-0.971591" width="131.301" height="16.9432"/>
</a>
<circle cx="380" cy="12" r="8" fill="url(#paint5_linear_1601_16561)"/>
<path d="M397.228 8.81818V17.4421C397.228 18.1293 396.935 18.4968 396.195 18.4968C396.099 18.4968 396.024 18.4915 395.918 18.4862V20.0575C396.056 20.0682 396.174 20.0682 396.312 20.0682C398.118 20.0682 399.157 19.2372 399.157 17.4688V8.81818H397.228ZM398.187 7.65696C398.8 7.65696 399.3 7.18821 399.3 6.61293C399.3 6.03232 398.8 5.56357 398.187 5.56357C397.569 5.56357 397.068 6.03232 397.068 6.61293C397.068 7.18821 397.569 7.65696 398.187 7.65696ZM405.158 17.1598C407.555 17.1598 409.079 15.4712 409.079 12.9411C409.079 10.4055 407.555 8.71165 405.158 8.71165C402.761 8.71165 401.238 10.4055 401.238 12.9411C401.238 15.4712 402.761 17.1598 405.158 17.1598ZM405.169 15.6151C403.843 15.6151 403.193 14.4325 403.193 12.9357C403.193 11.4389 403.843 10.2404 405.169 10.2404C406.474 10.2404 407.124 11.4389 407.124 12.9357C407.124 14.4325 406.474 15.6151 405.169 15.6151ZM411.251 17H413.147V15.7109H413.259C413.562 16.3075 414.196 17.1438 415.603 17.1438C417.531 17.1438 418.974 15.6151 418.974 12.9197C418.974 10.1925 417.488 8.71165 415.597 8.71165C414.154 8.71165 413.552 9.5799 413.259 10.1712H413.179V6.09091H411.251V17ZM413.142 12.9091C413.142 11.3217 413.823 10.2937 415.065 10.2937C416.348 10.2937 417.009 11.3857 417.009 12.9091C417.009 14.4432 416.338 15.5618 415.065 15.5618C413.834 15.5618 413.142 14.4964 413.142 12.9091ZM420.069 7.74751H423.441V17H425.401V7.74751H428.773V6.09091H420.069V7.74751ZM430.815 17H432.744V8.81818H430.815V17ZM431.785 7.65696C432.397 7.65696 432.898 7.18821 432.898 6.61293C432.898 6.03232 432.397 5.56357 431.785 5.56357C431.167 5.56357 430.666 6.03232 430.666 6.61293C430.666 7.18821 431.167 7.65696 431.785 7.65696ZM439.262 8.81818H437.648V6.85795H435.72V8.81818H434.559V10.3097H435.72V14.8587C435.709 16.3981 436.828 17.1545 438.277 17.1119C438.825 17.0959 439.203 16.9893 439.411 16.9201L439.086 15.4126C438.98 15.4393 438.761 15.4872 438.522 15.4872C438.037 15.4872 437.648 15.3168 437.648 14.5391V10.3097H439.262V8.81818ZM443.429 6.09091H441.501V17H443.429V6.09091ZM449.484 17.1598C451.391 17.1598 452.701 16.2276 453.042 14.8054L451.242 14.603C450.981 15.2955 450.341 15.6577 449.51 15.6577C448.264 15.6577 447.438 14.8374 447.422 13.4364H453.122V12.8452C453.122 9.97408 451.396 8.71165 449.383 8.71165C447.039 8.71165 445.51 10.4322 445.51 12.957C445.51 15.5245 447.018 17.1598 449.484 17.1598ZM447.428 12.1367C447.486 11.0927 448.259 10.2138 449.409 10.2138C450.517 10.2138 451.263 11.0234 451.274 12.1367H447.428Z" fill="#6048E5"/>
<path d="M397.302 41H398.947V37.1648H401.185C403.715 37.1648 404.967 35.636 404.967 33.6225C404.967 31.6143 403.726 30.0909 401.19 30.0909H397.302V41ZM398.947 35.7692V31.5025H401.014C402.644 31.5025 403.31 32.3867 403.31 33.6225C403.31 34.8583 402.644 35.7692 401.036 35.7692H398.947ZM406.768 41H408.361V36.0036C408.361 34.9329 409.187 34.1605 410.316 34.1605C410.646 34.1605 411.019 34.2191 411.147 34.2564V32.733C410.987 32.7116 410.673 32.6957 410.47 32.6957C409.512 32.6957 408.691 33.239 408.393 34.1179H408.308V32.8182H406.768V41ZM415.679 41.1651C417.985 41.1651 419.493 39.4766 419.493 36.9464C419.493 34.4002 417.985 32.7116 415.679 32.7116C413.372 32.7116 411.865 34.4002 411.865 36.9464C411.865 39.4766 413.372 41.1651 415.679 41.1651ZM415.684 39.8281C414.177 39.8281 413.473 38.5124 413.473 36.9411C413.473 35.375 414.177 34.0433 415.684 34.0433C417.181 34.0433 417.884 35.375 417.884 36.9411C417.884 38.5124 417.181 39.8281 415.684 39.8281ZM424.333 41.1598C425.825 41.1598 426.411 40.2489 426.698 39.7269H426.831V41H428.387V30.0909H426.794V34.1445H426.698C426.411 33.6385 425.867 32.7116 424.344 32.7116C422.368 32.7116 420.913 34.2724 420.913 36.9251C420.913 39.5724 422.346 41.1598 424.333 41.1598ZM424.685 39.8015C423.263 39.8015 422.522 38.5497 422.522 36.9091C422.522 35.2844 423.247 34.0646 424.685 34.0646C426.075 34.0646 426.821 35.1992 426.821 36.9091C426.821 38.6296 426.059 39.8015 424.685 39.8015ZM435.843 37.6069C435.848 38.9972 434.815 39.6577 433.92 39.6577C432.935 39.6577 432.253 38.9439 432.253 37.8306V32.8182H430.66V38.0224C430.66 40.0518 431.773 41.1065 433.345 41.1065C434.575 41.1065 435.411 40.4567 435.79 39.5831H435.875V41H437.441V32.8182H435.843V37.6069ZM443.027 41.1651C444.961 41.1651 446.213 40.0039 446.388 38.4112H444.838C444.636 39.2955 443.949 39.8175 443.038 39.8175C441.69 39.8175 440.822 38.6935 440.822 36.9091C440.822 35.1566 441.706 34.054 443.038 34.054C444.05 34.054 444.668 34.6932 444.838 35.4602H446.388C446.218 33.8089 444.87 32.7116 443.011 32.7116C440.705 32.7116 439.213 34.4482 439.213 36.9464C439.213 39.4126 440.652 41.1651 443.027 41.1651ZM451.911 32.8182H450.233V30.858H448.64V32.8182H447.442V34.0966H448.64V38.9279C448.635 40.4141 449.77 41.1332 451.027 41.1065C451.533 41.1012 451.874 41.0053 452.06 40.9361L451.772 39.6204C451.666 39.6417 451.469 39.6896 451.213 39.6896C450.696 39.6896 450.233 39.5192 450.233 38.5977V34.0966H451.911V32.8182ZM457.77 41H464.674V39.5831H459.416V36.2433H464.253V34.8317H459.416V31.5078H464.61V30.0909H457.77V41ZM468.273 36.142C468.273 34.837 469.072 34.0913 470.18 34.0913C471.261 34.0913 471.917 34.7997 471.917 35.9876V41H473.509V35.7958C473.509 33.7717 472.396 32.7116 470.723 32.7116C469.493 32.7116 468.689 33.2816 468.311 34.1499H468.209V32.8182H466.681V41H468.273V36.142ZM479.076 44.2386C481.159 44.2386 482.767 43.2852 482.767 41.1811V32.8182H481.206V34.1445H481.089C480.807 33.6385 480.242 32.7116 478.719 32.7116C476.743 32.7116 475.288 34.2724 475.288 36.8771C475.288 39.4872 476.775 40.8775 478.708 40.8775C480.21 40.8775 480.791 40.0305 481.079 39.5085H481.18V41.1172C481.18 42.4009 480.301 42.9549 479.092 42.9549C477.765 42.9549 477.249 42.2891 476.966 41.8203L475.597 42.3849C476.029 43.3864 477.121 44.2386 479.076 44.2386ZM479.06 39.5565C477.638 39.5565 476.897 38.4645 476.897 36.8558C476.897 35.2844 477.622 34.0646 479.06 34.0646C480.45 34.0646 481.196 35.1992 481.196 36.8558C481.196 38.5444 480.434 39.5565 479.06 39.5565ZM484.903 41H486.496V32.8182H484.903V41ZM485.708 31.5558C486.256 31.5558 486.714 31.1296 486.714 30.6076C486.714 30.0856 486.256 29.6541 485.708 29.6541C485.154 29.6541 484.701 30.0856 484.701 30.6076C484.701 31.1296 485.154 31.5558 485.708 31.5558ZM490.231 36.142C490.231 34.837 491.03 34.0913 492.138 34.0913C493.22 34.0913 493.875 34.7997 493.875 35.9876V41H495.467V35.7958C495.467 33.7717 494.354 32.7116 492.682 32.7116C491.451 32.7116 490.647 33.2816 490.269 34.1499H490.167V32.8182H488.639V41H490.231V36.142ZM501.13 41.1651C502.914 41.1651 504.177 40.2862 504.539 38.9545L503.031 38.6829C502.744 39.4553 502.051 39.8494 501.146 39.8494C499.782 39.8494 498.866 38.9652 498.823 37.3885H504.64V36.8239C504.64 33.8675 502.871 32.7116 501.018 32.7116C498.738 32.7116 497.236 34.4482 497.236 36.9624C497.236 39.5032 498.717 41.1651 501.13 41.1651ZM498.829 36.1953C498.892 35.0341 499.734 34.0273 501.028 34.0273C502.264 34.0273 503.074 34.9435 503.079 36.1953H498.829ZM509.933 41.1651C511.718 41.1651 512.98 40.2862 513.342 38.9545L511.835 38.6829C511.547 39.4553 510.855 39.8494 509.949 39.8494C508.586 39.8494 507.67 38.9652 507.627 37.3885H513.444V36.8239C513.444 33.8675 511.675 32.7116 509.822 32.7116C507.542 32.7116 506.04 34.4482 506.04 36.9624C506.04 39.5032 507.52 41.1651 509.933 41.1651ZM507.632 36.1953C507.696 35.0341 508.538 34.0273 509.832 34.0273C511.068 34.0273 511.878 34.9435 511.883 36.1953H507.632ZM515.211 41H516.803V36.0036C516.803 34.9329 517.629 34.1605 518.758 34.1605C519.089 34.1605 519.462 34.2191 519.589 34.2564V32.733C519.43 32.7116 519.115 32.6957 518.913 32.6957C517.954 32.6957 517.134 33.239 516.835 34.1179H516.75V32.8182H515.211V41Z" fill="#64778C"/>
<path d="M135.483 16.8182H133.784V16.1737C133.784 15.5344 134.05 15.1776 134.769 15.1776C135.073 15.1776 135.328 15.2468 135.488 15.2947L135.877 13.8033C135.627 13.718 135.078 13.5795 134.412 13.5795C132.99 13.5795 131.855 14.3945 131.855 16.0458V16.8182H130.646V18.3097H131.855V25H133.784V18.3097H135.483V16.8182ZM137.443 25H139.371V16.8182H137.443V25ZM138.412 15.657C139.025 15.657 139.526 15.1882 139.526 14.6129C139.526 14.0323 139.025 13.5636 138.412 13.5636C137.795 13.5636 137.294 14.0323 137.294 14.6129C137.294 15.1882 137.795 15.657 138.412 15.657ZM141.804 25H143.732V20.19C143.732 19.1513 144.515 18.4162 145.575 18.4162C145.9 18.4162 146.305 18.4748 146.47 18.5281V16.7543C146.295 16.7223 145.991 16.701 145.778 16.701C144.84 16.701 144.057 17.2337 143.759 18.1818H143.674V16.8182H141.804V25ZM154.668 18.9808C154.402 17.5959 153.294 16.7116 151.376 16.7116C149.405 16.7116 148.063 17.6811 148.068 19.1939C148.063 20.3871 148.798 21.1754 150.369 21.5004L151.765 21.7933C152.516 21.9585 152.868 22.2621 152.868 22.7255C152.868 23.2848 152.26 23.7056 151.344 23.7056C150.46 23.7056 149.885 23.3221 149.72 22.587L147.839 22.7681C148.079 24.2702 149.341 25.1598 151.349 25.1598C153.395 25.1598 154.838 24.0998 154.844 22.5497C154.838 21.3832 154.087 20.6694 152.543 20.3338L151.147 20.0355C150.316 19.8491 149.986 19.5614 149.991 19.0874C149.986 18.5334 150.598 18.1499 151.403 18.1499C152.292 18.1499 152.761 18.6346 152.91 19.1726L154.668 18.9808ZM160.969 16.8182H159.355V14.858H157.427V16.8182H156.266V18.3097H157.427V22.8587C157.417 24.3981 158.535 25.1545 159.984 25.1119C160.533 25.0959 160.911 24.9893 161.119 24.9201L160.794 23.4126C160.687 23.4393 160.469 23.4872 160.229 23.4872C159.744 23.4872 159.355 23.3168 159.355 22.5391V18.3097H160.969V16.8182ZM172.258 14.0909H170.292V21.527H170.196L165.062 14.0909H163.293V25H165.269V17.5692H165.36L170.5 25H172.258V14.0909ZM177.13 25.1651C178.414 25.1651 179.181 24.5632 179.533 23.8761H179.597V25H181.45V19.5241C181.45 17.3615 179.687 16.7116 178.127 16.7116C176.406 16.7116 175.085 17.4787 174.659 18.9702L176.459 19.2259C176.651 18.6665 177.194 18.1871 178.137 18.1871C179.032 18.1871 179.522 18.6452 179.522 19.4496V19.4815C179.522 20.0355 178.942 20.0621 177.498 20.2166C175.911 20.3871 174.392 20.8612 174.392 22.7042C174.392 24.3129 175.57 25.1651 177.13 25.1651ZM177.631 23.7482C176.827 23.7482 176.252 23.3807 176.252 22.6722C176.252 21.9318 176.896 21.6229 177.759 21.5004C178.265 21.4311 179.277 21.3033 179.527 21.1009V22.065C179.527 22.9759 178.792 23.7482 177.631 23.7482ZM183.839 25H185.768V20.0249C185.768 19.0181 186.439 18.3363 187.27 18.3363C188.085 18.3363 188.644 18.8849 188.644 19.7266V25H190.535V19.897C190.535 18.9755 191.084 18.3363 192.016 18.3363C192.793 18.3363 193.411 18.7944 193.411 19.8065V25H195.345V19.5082C195.345 17.6811 194.29 16.7116 192.788 16.7116C191.6 16.7116 190.695 17.2976 190.333 18.2085H190.247C189.933 17.2816 189.139 16.7116 188.037 16.7116C186.939 16.7116 186.119 17.2763 185.778 18.2085H185.682V16.8182H183.839V25ZM201.373 25.1598C203.28 25.1598 204.591 24.2276 204.932 22.8054L203.131 22.603C202.87 23.2955 202.231 23.6577 201.4 23.6577C200.154 23.6577 199.328 22.8374 199.312 21.4364H205.012V20.8452C205.012 17.9741 203.286 16.7116 201.272 16.7116C198.928 16.7116 197.4 18.4322 197.4 20.957C197.4 23.5245 198.907 25.1598 201.373 25.1598ZM199.317 20.1367C199.376 19.0927 200.148 18.2138 201.299 18.2138C202.407 18.2138 203.152 19.0234 203.163 20.1367H199.317Z" fill="#6048E5"/>
<path d="M131.681 38.0909V49H133.247V41.1005H133.349L136.566 48.984H137.866L141.083 41.1058H141.184V49H142.75V38.0909H140.753L137.28 46.571H137.152L133.679 38.0909H131.681ZM147.397 49.1811C148.75 49.1811 149.511 48.494 149.815 47.8814H149.879V49H151.434V43.5668C151.434 41.1857 149.559 40.7116 148.259 40.7116C146.779 40.7116 145.415 41.3082 144.882 42.7997L146.379 43.1406C146.614 42.56 147.21 42.0007 148.281 42.0007C149.309 42.0007 149.836 42.5387 149.836 43.4656V43.5028C149.836 44.0835 149.24 44.0728 147.769 44.2433C146.219 44.4244 144.632 44.8292 144.632 46.6882C144.632 48.2969 145.841 49.1811 147.397 49.1811ZM147.743 47.9027C146.843 47.9027 146.193 47.4979 146.193 46.7095C146.193 45.8572 146.949 45.5536 147.871 45.4311C148.387 45.3619 149.612 45.2234 149.841 44.9943V46.049C149.841 47.0185 149.069 47.9027 147.743 47.9027ZM153.556 49H155.148V44.0036C155.148 42.9329 155.974 42.1605 157.103 42.1605C157.433 42.1605 157.806 42.2191 157.934 42.2564V40.733C157.774 40.7116 157.46 40.6957 157.258 40.6957C156.299 40.6957 155.478 41.239 155.18 42.1179H155.095V40.8182H153.556V49ZM159.312 49H160.905V40.8182H159.312V49ZM160.117 39.5558C160.665 39.5558 161.123 39.1296 161.123 38.6076C161.123 38.0856 160.665 37.6541 160.117 37.6541C159.563 37.6541 159.11 38.0856 159.11 38.6076C159.11 39.1296 159.563 39.5558 160.117 39.5558ZM165.429 49.1811C166.782 49.1811 167.543 48.494 167.847 47.8814H167.911V49H169.466V43.5668C169.466 41.1857 167.591 40.7116 166.292 40.7116C164.811 40.7116 163.447 41.3082 162.915 42.7997L164.411 43.1406C164.646 42.56 165.242 42.0007 166.313 42.0007C167.341 42.0007 167.868 42.5387 167.868 43.4656V43.5028C167.868 44.0835 167.272 44.0728 165.802 44.2433C164.252 44.4244 162.664 44.8292 162.664 46.6882C162.664 48.2969 163.873 49.1811 165.429 49.1811ZM165.775 47.9027C164.875 47.9027 164.225 47.4979 164.225 46.7095C164.225 45.8572 164.981 45.5536 165.903 45.4311C166.42 45.3619 167.645 45.2234 167.874 44.9943V46.049C167.874 47.0185 167.101 47.9027 165.775 47.9027Z" fill="#64778C"/>
<circle cx="222" cy="20" r="8" fill="url(#paint6_linear_1601_16561)"/>
<path d="M63.9861 121.091H62.0579V132H63.9861V121.091ZM68.7734 132.165C70.0571 132.165 70.8242 131.563 71.1757 130.876H71.2397V132H73.0934V126.524C73.0934 124.362 71.3302 123.712 69.7695 123.712C68.049 123.712 66.7279 124.479 66.3018 125.97L68.1022 126.226C68.294 125.667 68.8373 125.187 69.7801 125.187C70.675 125.187 71.1651 125.645 71.1651 126.45V126.482C71.1651 127.036 70.5845 127.062 69.1409 127.217C67.5536 127.387 66.0355 127.861 66.0355 129.704C66.0355 131.313 67.2127 132.165 68.7734 132.165ZM69.2741 130.748C68.4698 130.748 67.8945 130.381 67.8945 129.672C67.8945 128.932 68.539 128.623 69.4019 128.5C69.908 128.431 70.9201 128.303 71.1704 128.101V129.065C71.1704 129.976 70.4353 130.748 69.2741 130.748ZM81.9489 125.981C81.6826 124.596 80.5746 123.712 78.657 123.712C76.6861 123.712 75.3438 124.681 75.3491 126.194C75.3438 127.387 76.0789 128.175 77.6502 128.5L79.0458 128.793C79.7969 128.958 80.1485 129.262 80.1485 129.725C80.1485 130.285 79.5412 130.706 78.625 130.706C77.7408 130.706 77.1655 130.322 77.0004 129.587L75.1201 129.768C75.3598 131.27 76.6222 132.16 78.6304 132.16C80.6758 132.16 82.1193 131.1 82.1247 129.55C82.1193 128.383 81.3683 127.669 79.8235 127.334L78.4279 127.036C77.597 126.849 77.2667 126.561 77.272 126.087C77.2667 125.533 77.8793 125.15 78.6836 125.15C79.5732 125.15 80.0419 125.635 80.1911 126.173L81.9489 125.981ZM88.2503 123.818H86.6363V121.858H84.708V123.818H83.5468V125.31H84.708V129.859C84.6974 131.398 85.816 132.154 87.2648 132.112C87.8135 132.096 88.1917 131.989 88.3994 131.92L88.0745 130.413C87.968 130.439 87.7496 130.487 87.5099 130.487C87.0251 130.487 86.6363 130.317 86.6363 129.539V125.31H88.2503V123.818ZM99.5388 121.091H97.5732V128.527H97.4774L92.3424 121.091H90.5739V132H92.5501V124.569H92.6407L97.781 132H99.5388V121.091ZM104.411 132.165C105.695 132.165 106.462 131.563 106.814 130.876H106.878V132H108.731V126.524C108.731 124.362 106.968 123.712 105.407 123.712C103.687 123.712 102.366 124.479 101.94 125.97L103.74 126.226C103.932 125.667 104.475 125.187 105.418 125.187C106.313 125.187 106.803 125.645 106.803 126.45V126.482C106.803 127.036 106.222 127.062 104.779 127.217C103.191 127.387 101.673 127.861 101.673 129.704C101.673 131.313 102.851 132.165 104.411 132.165ZM104.912 130.748C104.108 130.748 103.532 130.381 103.532 129.672C103.532 128.932 104.177 128.623 105.04 128.5C105.546 128.431 106.558 128.303 106.808 128.101V129.065C106.808 129.976 106.073 130.748 104.912 130.748ZM111.12 132H113.048V127.025C113.048 126.018 113.72 125.336 114.551 125.336C115.366 125.336 115.925 125.885 115.925 126.727V132H117.816V126.897C117.816 125.975 118.364 125.336 119.297 125.336C120.074 125.336 120.692 125.794 120.692 126.806V132H122.626V126.508C122.626 124.681 121.571 123.712 120.069 123.712C118.881 123.712 117.976 124.298 117.613 125.208H117.528C117.214 124.282 116.42 123.712 115.318 123.712C114.22 123.712 113.4 124.276 113.059 125.208H112.963V123.818H111.12V132ZM128.654 132.16C130.561 132.16 131.872 131.228 132.212 129.805L130.412 129.603C130.151 130.295 129.512 130.658 128.681 130.658C127.434 130.658 126.609 129.837 126.593 128.436H132.292V127.845C132.292 124.974 130.567 123.712 128.553 123.712C126.209 123.712 124.681 125.432 124.681 127.957C124.681 130.525 126.188 132.16 128.654 132.16ZM126.598 127.137C126.657 126.093 127.429 125.214 128.58 125.214C129.688 125.214 130.433 126.023 130.444 127.137H126.598Z" fill="#6048E5"/>
<path d="M62.5657 145.091V156H64.1317V148.1H64.233L67.4503 155.984H68.75L71.9673 148.106H72.0685V156H73.6346V145.091H71.6371L68.1641 153.571H68.0362L64.5632 145.091H62.5657ZM78.2808 156.181C79.6338 156.181 80.3955 155.494 80.6991 154.881H80.7631V156H82.3184V150.567C82.3184 148.186 80.4434 147.712 79.1437 147.712C77.6629 147.712 76.2993 148.308 75.7666 149.8L77.2634 150.141C77.4978 149.56 78.0944 149.001 79.165 149.001C80.1931 149.001 80.7204 149.539 80.7204 150.466V150.503C80.7204 151.083 80.1238 151.073 78.6537 151.243C77.1036 151.424 75.5162 151.829 75.5162 153.688C75.5162 155.297 76.7254 156.181 78.2808 156.181ZM78.627 154.903C77.7268 154.903 77.077 154.498 77.077 153.71C77.077 152.857 77.8334 152.554 78.7549 152.431C79.2716 152.362 80.4967 152.223 80.7258 151.994V153.049C80.7258 154.018 79.9534 154.903 78.627 154.903ZM86.0325 151.142C86.0325 149.837 86.8581 149.091 87.9927 149.091C89.09 149.091 89.7452 149.789 89.7452 150.988V156H91.3379V150.796C91.3379 148.756 90.2193 147.712 88.536 147.712C87.263 147.712 86.4959 148.266 86.1124 149.15H86.0112V145.091H84.4398V156H86.0325V151.142ZM95.8443 156.181C97.1973 156.181 97.959 155.494 98.2626 154.881H98.3265V156H99.8819V150.567C99.8819 148.186 98.0069 147.712 96.7072 147.712C95.2264 147.712 93.8627 148.308 93.3301 149.8L94.8269 150.141C95.0613 149.56 95.6578 149.001 96.7285 149.001C97.7566 149.001 98.2839 149.539 98.2839 150.466V150.503C98.2839 151.083 97.6873 151.073 96.2172 151.243C94.6671 151.424 93.0797 151.829 93.0797 153.688C93.0797 155.297 94.2889 156.181 95.8443 156.181ZM96.1905 154.903C95.2903 154.903 94.6404 154.498 94.6404 153.71C94.6404 152.857 95.3968 152.554 96.3184 152.431C96.835 152.362 98.0602 152.223 98.2892 151.994V153.049C98.2892 154.018 97.5169 154.903 96.1905 154.903ZM103.596 151.142C103.596 149.837 104.395 149.091 105.503 149.091C106.584 149.091 107.239 149.8 107.239 150.988V156H108.832V150.796C108.832 148.772 107.719 147.712 106.046 147.712C104.816 147.712 104.011 148.282 103.633 149.15H103.532V147.818H102.003V156H103.596V151.142ZM110.968 156H112.561V147.818H110.968V156ZM111.772 146.556C112.321 146.556 112.779 146.13 112.779 145.608C112.779 145.086 112.321 144.654 111.772 144.654C111.218 144.654 110.766 145.086 110.766 145.608C110.766 146.13 111.218 146.556 111.772 146.556Z" fill="#64778C"/>
<circle cx="149" cy="127" r="8" fill="url(#paint7_linear_1601_16561)"/>
<line x1="294.5" y1="213" x2="294.5" y2="257" stroke="url(#paint8_linear_1601_16561)"/>
<circle opacity="0.1" cx="294" cy="161" r="20.5" stroke="#6048E5"/>
<circle opacity="0.3" cx="294" cy="161" r="15" stroke="#6048E5" stroke-width="2"/>
<circle cx="294" cy="161" r="9" fill="url(#paint9_linear_1601_16561)"/>
<path d="M263.453 199H265.429V195.314H267.517C270.037 195.314 271.39 193.801 271.39 191.702C271.39 189.62 270.053 188.091 267.544 188.091H263.453V199ZM265.429 193.689V189.742H267.24C268.721 189.742 269.376 190.541 269.376 191.702C269.376 192.864 268.721 193.689 267.251 193.689H265.429ZM273.556 199H280.694V197.343H275.532V194.366H280.284V192.709H275.532V189.748H280.651V188.091H273.556V199ZM283.118 199H285.094V195.005H287.107L289.249 199H291.454L289.094 194.675C290.378 194.158 291.054 193.061 291.054 191.58C291.054 189.497 289.712 188.091 287.209 188.091H283.118V199ZM285.094 193.364V189.742H286.905C288.38 189.742 289.041 190.419 289.041 191.58C289.041 192.741 288.38 193.364 286.916 193.364H285.094ZM299.252 191.09H301.154C301.116 189.247 299.545 187.942 297.223 187.942C294.932 187.942 293.212 189.231 293.217 191.159C293.217 192.725 294.33 193.625 296.125 194.089L297.366 194.408C298.544 194.707 299.321 195.074 299.327 195.921C299.321 196.853 298.437 197.477 297.148 197.477C295.912 197.477 294.953 196.923 294.874 195.777H292.929C293.009 197.945 294.623 199.165 297.164 199.165C299.779 199.165 301.298 197.86 301.303 195.937C301.298 194.046 299.737 193.183 298.096 192.794L297.073 192.539C296.179 192.326 295.209 191.947 295.22 191.037C295.225 190.216 295.96 189.614 297.196 189.614C298.373 189.614 299.151 190.163 299.252 191.09ZM313.263 193.545C313.263 190.019 311.111 187.942 308.25 187.942C305.384 187.942 303.238 190.019 303.238 193.545C303.238 197.066 305.384 199.149 308.25 199.149C311.111 199.149 313.263 197.072 313.263 193.545ZM311.276 193.545C311.276 196.028 310.029 197.375 308.25 197.375C306.476 197.375 305.225 196.028 305.225 193.545C305.225 191.063 306.476 189.716 308.25 189.716C310.029 189.716 311.276 191.063 311.276 193.545ZM324.546 188.091H322.58V195.527H322.484L317.349 188.091H315.581V199H317.557V191.569H317.648L322.788 199H324.546V188.091Z" fill="#6048E5"/>
<defs>
<linearGradient id="paint0_linear_1601_16561" x1="309" y1="156" x2="430.357" y2="134.616" gradientUnits="userSpaceOnUse">
<stop stop-color="#BDB4FE"/>
<stop offset="1" stop-color="#BDB4FE" stop-opacity="0"/>
</linearGradient>
<linearGradient id="paint1_linear_1601_16561" x1="278" y1="157" x2="159.871" y2="132.873" gradientUnits="userSpaceOnUse">
<stop stop-color="#BDB4FE"/>
<stop offset="1" stop-color="#BDB4FE" stop-opacity="0"/>
</linearGradient>
<linearGradient id="paint2_linear_1601_16561" x1="287" y1="147.001" x2="224.992" y2="145.486" gradientUnits="userSpaceOnUse">
<stop stop-color="#BDB4FE"/>
<stop offset="1" stop-color="#BDB4FE" stop-opacity="0"/>
</linearGradient>
<linearGradient id="paint3_linear_1601_16561" x1="301" y1="147.001" x2="376.429" y2="144.884" gradientUnits="userSpaceOnUse">
<stop stop-color="#BDB4FE"/>
<stop offset="1" stop-color="#BDB4FE" stop-opacity="0"/>
</linearGradient>
<linearGradient id="paint4_linear_1601_16561" x1="440" y1="111" x2="440" y2="127" gradientUnits="userSpaceOnUse">
<stop stop-color="#7963F5"/>
<stop offset="1" stop-color="#5D46DB"/>
</linearGradient>
<linearGradient id="paint5_linear_1601_16561" x1="380" y1="4" x2="380" y2="20" gradientUnits="userSpaceOnUse">
<stop stop-color="#7963F5"/>
<stop offset="1" stop-color="#5D46DB"/>
</linearGradient>
<linearGradient id="paint6_linear_1601_16561" x1="222" y1="12" x2="222" y2="28" gradientUnits="userSpaceOnUse">
<stop stop-color="#7963F5"/>
<stop offset="1" stop-color="#5D46DB"/>
</linearGradient>
<linearGradient id="paint7_linear_1601_16561" x1="149" y1="119" x2="149" y2="135" gradientUnits="userSpaceOnUse">
<stop stop-color="#7963F5"/>
<stop offset="1" stop-color="#5D46DB"/>
</linearGradient>
<linearGradient id="paint8_linear_1601_16561" x1="293" y1="213" x2="319.611" y2="226.314" gradientUnits="userSpaceOnUse">
<stop stop-color="#BDB4FE"/>
<stop offset="1" stop-color="#BDB4FE" stop-opacity="0"/>
</linearGradient>
<linearGradient id="paint9_linear_1601_16561" x1="294" y1="152" x2="294" y2="170" gradientUnits="userSpaceOnUse">
<stop stop-color="#7963F5"/>
<stop offset="1" stop-color="#5D46DB"/>
</linearGradient>
</defs>
</svg>
