<svg width="1437" height="412" viewBox="0 0 1437 412" fill="none" xmlns="http://www.w3.org/2000/svg">
<circle cx="56" cy="211" r="7" stroke="#C5D1DB" stroke-width="2"/>
<path d="M73.0461 219.068H74.9744V214.711H75.0543C75.3579 215.308 75.9918 216.144 77.3981 216.144C79.3263 216.144 80.7699 214.615 80.7699 211.92C80.7699 209.192 79.2837 207.712 77.3927 207.712C75.9492 207.712 75.3473 208.58 75.0543 209.171H74.9424V207.818H73.0461V219.068ZM74.9371 211.909C74.9371 210.322 75.6189 209.294 76.8601 209.294C78.1438 209.294 78.8043 210.386 78.8043 211.909C78.8043 213.443 78.1331 214.562 76.8601 214.562C75.6296 214.562 74.9371 213.496 74.9371 211.909ZM82.8711 216H84.7994V211.19C84.7994 210.151 85.5824 209.416 86.6424 209.416C86.9674 209.416 87.3722 209.475 87.5373 209.528V207.754C87.3616 207.722 87.0579 207.701 86.8449 207.701C85.9074 207.701 85.1243 208.234 84.826 209.182H84.7408V207.818H82.8711V216ZM92.5004 216.16C94.8974 216.16 96.4208 214.471 96.4208 211.941C96.4208 209.406 94.8974 207.712 92.5004 207.712C90.1034 207.712 88.5799 209.406 88.5799 211.941C88.5799 214.471 90.1034 216.16 92.5004 216.16ZM92.511 214.615C91.1847 214.615 90.5348 213.433 90.5348 211.936C90.5348 210.439 91.1847 209.24 92.511 209.24C93.8161 209.24 94.4659 210.439 94.4659 211.936C94.4659 213.433 93.8161 214.615 92.511 214.615ZM102.652 207.818H100.952V207.174C100.952 206.534 101.219 206.178 101.938 206.178C102.241 206.178 102.497 206.247 102.657 206.295L103.046 204.803C102.795 204.718 102.247 204.58 101.581 204.58C100.159 204.58 99.0242 205.395 99.0242 207.046V207.818H97.815V209.31H99.0242V216H100.952V209.31H102.652V207.818ZM104.612 216H106.54V207.818H104.612V216ZM105.581 206.657C106.194 206.657 106.695 206.188 106.695 205.613C106.695 205.032 106.194 204.564 105.581 204.564C104.963 204.564 104.463 205.032 104.463 205.613C104.463 206.188 104.963 206.657 105.581 206.657ZM110.901 205.091H108.973V216H110.901V205.091ZM116.956 216.16C118.863 216.16 120.174 215.228 120.514 213.805L118.714 213.603C118.453 214.295 117.814 214.658 116.983 214.658C115.736 214.658 114.911 213.837 114.895 212.436H120.594V211.845C120.594 208.974 118.868 207.712 116.855 207.712C114.511 207.712 112.982 209.432 112.982 211.957C112.982 214.525 114.49 216.16 116.956 216.16ZM114.9 211.137C114.959 210.093 115.731 209.214 116.882 209.214C117.99 209.214 118.735 210.023 118.746 211.137H114.9ZM126.458 216C129.781 216 131.752 213.944 131.752 210.535C131.752 207.136 129.781 205.091 126.532 205.091H122.761V216H126.458ZM124.737 214.29V206.801H126.42C128.636 206.801 129.792 208.037 129.792 210.535C129.792 213.044 128.636 214.29 126.362 214.29H124.737ZM137.617 216.16C139.524 216.16 140.834 215.228 141.175 213.805L139.375 213.603C139.114 214.295 138.475 214.658 137.644 214.658C136.397 214.658 135.571 213.837 135.555 212.436H141.255V211.845C141.255 208.974 139.529 207.712 137.516 207.712C135.172 207.712 133.643 209.432 133.643 211.957C133.643 214.525 135.151 216.16 137.617 216.16ZM135.561 211.137C135.619 210.093 136.392 209.214 137.542 209.214C138.65 209.214 139.396 210.023 139.407 211.137H135.561ZM149.803 209.981C149.537 208.596 148.429 207.712 146.511 207.712C144.54 207.712 143.198 208.681 143.203 210.194C143.198 211.387 143.933 212.175 145.504 212.5L146.9 212.793C147.651 212.958 148.003 213.262 148.003 213.725C148.003 214.285 147.395 214.706 146.479 214.706C145.595 214.706 145.02 214.322 144.854 213.587L142.974 213.768C143.214 215.27 144.476 216.16 146.484 216.16C148.53 216.16 149.973 215.1 149.979 213.55C149.973 212.383 149.222 211.669 147.678 211.334L146.282 211.036C145.451 210.849 145.121 210.561 145.126 210.087C145.121 209.533 145.733 209.15 146.538 209.15C147.427 209.15 147.896 209.635 148.045 210.173L149.803 209.981ZM155.588 216.16C157.644 216.16 158.954 214.94 159.093 213.203H157.25C157.084 214.082 156.451 214.588 155.604 214.588C154.4 214.588 153.622 213.582 153.622 211.909C153.622 210.258 154.416 209.267 155.604 209.267C156.531 209.267 157.1 209.864 157.25 210.652H159.093C158.959 208.878 157.575 207.712 155.577 207.712C153.18 207.712 151.667 209.443 151.667 211.941C151.667 214.418 153.143 216.16 155.588 216.16ZM161.126 216H163.054V211.19C163.054 210.151 163.837 209.416 164.897 209.416C165.222 209.416 165.627 209.475 165.792 209.528V207.754C165.616 207.722 165.313 207.701 165.1 207.701C164.162 207.701 163.379 208.234 163.081 209.182H162.996V207.818H161.126V216ZM167.523 216H169.452V207.818H167.523V216ZM168.493 206.657C169.105 206.657 169.606 206.188 169.606 205.613C169.606 205.032 169.105 204.564 168.493 204.564C167.875 204.564 167.374 205.032 167.374 205.613C167.374 206.188 167.875 206.657 168.493 206.657ZM171.884 219.068H173.813V214.711H173.893C174.196 215.308 174.83 216.144 176.236 216.144C178.165 216.144 179.608 214.615 179.608 211.92C179.608 209.192 178.122 207.712 176.231 207.712C174.787 207.712 174.186 208.58 173.893 209.171H173.781V207.818H171.884V219.068ZM173.775 211.909C173.775 210.322 174.457 209.294 175.698 209.294C176.982 209.294 177.643 210.386 177.643 211.909C177.643 213.443 176.971 214.562 175.698 214.562C174.468 214.562 173.775 213.496 173.775 211.909ZM185.795 207.818H184.181V205.858H182.253V207.818H181.092V209.31H182.253V213.859C182.242 215.398 183.361 216.154 184.81 216.112C185.358 216.096 185.736 215.989 185.944 215.92L185.619 214.413C185.513 214.439 185.294 214.487 185.055 214.487C184.57 214.487 184.181 214.317 184.181 213.539V209.31H185.795V207.818ZM187.858 216H189.786V207.818H187.858V216ZM188.827 206.657C189.44 206.657 189.94 206.188 189.94 205.613C189.94 205.032 189.44 204.564 188.827 204.564C188.209 204.564 187.709 205.032 187.709 205.613C187.709 206.188 188.209 206.657 188.827 206.657ZM195.788 216.16C198.185 216.16 199.708 214.471 199.708 211.941C199.708 209.406 198.185 207.712 195.788 207.712C193.391 207.712 191.867 209.406 191.867 211.941C191.867 214.471 193.391 216.16 195.788 216.16ZM195.798 214.615C194.472 214.615 193.822 213.433 193.822 211.936C193.822 210.439 194.472 209.24 195.798 209.24C197.103 209.24 197.753 210.439 197.753 211.936C197.753 213.433 197.103 214.615 195.798 214.615ZM203.723 211.206C203.723 210.023 204.437 209.342 205.454 209.342C206.45 209.342 207.047 209.997 207.047 211.089V216H208.975V210.79C208.98 208.83 207.862 207.712 206.173 207.712C204.948 207.712 204.107 208.298 203.734 209.208H203.638V207.818H201.795V216H203.723V211.206Z" fill="#C5D1DB"/>
<path d="M73.0386 232.5H74.4023V231.461C74.4023 230.657 74.7538 229.98 75.1853 229.347L74.3969 228.782C73.5819 229.437 73.0386 230.572 73.0386 231.477V232.5ZM75.7552 232.5H77.1189V231.461C77.1189 230.657 77.4704 229.98 77.9019 229.347L77.1135 228.782C76.2986 229.437 75.7552 230.572 75.7552 231.477V232.5ZM79.3987 229.091V240H80.9648V232.1H81.066L84.2833 239.984H85.583L88.8003 232.106H88.9015V240H90.4676V229.091H88.4701L84.9971 237.571H84.8692L81.3962 229.091H79.3987ZM93.7395 243.068C95.0552 243.068 95.8862 242.381 96.3603 241.092L99.7427 231.834L98.0222 231.818L95.9501 238.168H95.8649L93.7928 231.818H92.0882L95.0819 240.107L94.8848 240.65C94.4799 241.737 93.91 241.827 93.0364 241.587L92.6529 242.892C92.8446 242.978 93.2601 243.068 93.7395 243.068ZM106.987 240H108.606L110.268 234.093H110.391L112.053 240H113.677L116.08 231.818H114.434L112.841 237.8H112.761L111.163 231.818H109.517L107.909 237.827H107.829L106.225 231.818H104.579L106.987 240ZM120.789 240.165C123.095 240.165 124.602 238.477 124.602 235.946C124.602 233.4 123.095 231.712 120.789 231.712C118.482 231.712 116.975 233.4 116.975 235.946C116.975 238.477 118.482 240.165 120.789 240.165ZM120.794 238.828C119.286 238.828 118.583 237.512 118.583 235.941C118.583 234.375 119.286 233.043 120.794 233.043C122.291 233.043 122.994 234.375 122.994 235.941C122.994 237.512 122.291 238.828 120.794 238.828ZM126.38 240H127.973V235.004C127.973 233.933 128.799 233.161 129.928 233.161C130.258 233.161 130.631 233.219 130.759 233.256V231.733C130.599 231.712 130.285 231.696 130.082 231.696C129.123 231.696 128.303 232.239 128.005 233.118H127.92V231.818H126.38V240ZM132.137 240H133.73V237.097L134.523 236.303L137.304 240H139.259L135.722 235.328L139.035 231.818H137.128L133.868 235.281H133.73V229.091H132.137V240ZM140.487 240H142.079V231.818H140.487V240ZM141.291 230.556C141.84 230.556 142.298 230.13 142.298 229.608C142.298 229.086 141.84 228.654 141.291 228.654C140.737 228.654 140.284 229.086 140.284 229.608C140.284 230.13 140.737 230.556 141.291 230.556ZM145.815 235.142C145.815 233.837 146.614 233.091 147.722 233.091C148.803 233.091 149.458 233.8 149.458 234.988V240H151.051V234.796C151.051 232.772 149.938 231.712 148.265 231.712C147.035 231.712 146.23 232.282 145.852 233.15H145.751V231.818H144.222V240H145.815V235.142ZM156.617 243.239C158.7 243.239 160.309 242.285 160.309 240.181V231.818H158.748V233.145H158.631C158.348 232.638 157.784 231.712 156.26 231.712C154.284 231.712 152.83 233.272 152.83 235.877C152.83 238.487 154.316 239.877 156.25 239.877C157.752 239.877 158.332 239.031 158.62 238.509H158.721V240.117C158.721 241.401 157.842 241.955 156.633 241.955C155.307 241.955 154.79 241.289 154.508 240.82L153.139 241.385C153.57 242.386 154.662 243.239 156.617 243.239ZM156.601 238.556C155.179 238.556 154.439 237.464 154.439 235.856C154.439 234.284 155.163 233.065 156.601 233.065C157.992 233.065 158.737 234.199 158.737 235.856C158.737 237.544 157.976 238.556 156.601 238.556ZM168.007 235.142C168.007 233.837 168.833 233.091 169.967 233.091C171.065 233.091 171.72 233.789 171.72 234.988V240H173.312V234.796C173.312 232.756 172.194 231.712 170.511 231.712C169.238 231.712 168.471 232.266 168.087 233.15H167.986V229.091H166.414V240H168.007V235.142ZM178.884 240.165C181.191 240.165 182.698 238.477 182.698 235.946C182.698 233.4 181.191 231.712 178.884 231.712C176.578 231.712 175.07 233.4 175.07 235.946C175.07 238.477 176.578 240.165 178.884 240.165ZM178.89 238.828C177.382 238.828 176.679 237.512 176.679 235.941C176.679 234.375 177.382 233.043 178.89 233.043C180.386 233.043 181.089 234.375 181.089 235.941C181.089 237.512 180.386 238.828 178.89 238.828ZM189.659 236.607C189.664 237.997 188.631 238.658 187.736 238.658C186.75 238.658 186.069 237.944 186.069 236.831V231.818H184.476V237.022C184.476 239.052 185.589 240.107 187.161 240.107C188.391 240.107 189.227 239.457 189.606 238.583H189.691V240H191.257V231.818H189.659V236.607ZM193.397 240H194.99V235.004C194.99 233.933 195.815 233.161 196.944 233.161C197.275 233.161 197.648 233.219 197.775 233.256V231.733C197.616 231.712 197.301 231.696 197.099 231.696C196.14 231.696 195.32 232.239 195.021 233.118H194.936V231.818H193.397V240ZM205.285 233.816C204.954 232.543 203.958 231.712 202.19 231.712C200.342 231.712 199.031 232.686 199.031 234.135C199.031 235.297 199.734 236.069 201.268 236.41L202.653 236.713C203.442 236.889 203.809 237.241 203.809 237.752C203.809 238.386 203.133 238.881 202.089 238.881C201.135 238.881 200.523 238.471 200.331 237.667L198.791 237.901C199.058 239.35 200.262 240.165 202.099 240.165C204.076 240.165 205.445 239.116 205.445 237.635C205.445 236.479 204.709 235.765 203.207 235.419L201.908 235.121C201.007 234.908 200.619 234.604 200.624 234.05C200.619 233.422 201.3 232.974 202.206 232.974C203.197 232.974 203.655 233.523 203.841 234.071L205.285 233.816ZM208.245 240.101C208.826 240.101 209.31 239.627 209.31 239.036C209.31 238.455 208.826 237.976 208.245 237.976C207.659 237.976 207.18 238.455 207.18 239.036C207.18 239.627 207.659 240.101 208.245 240.101ZM212.493 240.101C213.074 240.101 213.558 239.627 213.558 239.036C213.558 238.455 213.074 237.976 212.493 237.976C211.907 237.976 211.428 238.455 211.428 239.036C211.428 239.627 211.907 240.101 212.493 240.101ZM216.741 240.101C217.322 240.101 217.806 239.627 217.806 239.036C217.806 238.455 217.322 237.976 216.741 237.976C216.155 237.976 215.676 238.455 215.676 239.036C215.676 239.627 216.155 240.101 216.741 240.101ZM220.239 229.091H218.876V230.13C218.876 230.955 218.514 231.632 218.098 232.244L218.886 232.809C219.707 232.148 220.239 231.019 220.239 230.114V229.091ZM222.951 229.091H221.587V230.13C221.587 230.955 221.225 231.632 220.809 232.244L221.598 232.809C222.418 232.148 222.951 231.019 222.951 230.114V229.091Z" fill="#C5D1DB"/>
<circle cx="1172" cy="70" r="7" stroke="#C5D1DB" stroke-width="2"/>
<path d="M1192.45 75.1438C1193.86 75.1438 1194.49 74.3075 1194.8 73.7109H1194.91V75H1196.81V64.0909H1194.88V68.1712H1194.8C1194.5 67.5799 1193.9 66.7116 1192.46 66.7116C1190.57 66.7116 1189.08 68.1925 1189.08 70.9197C1189.08 73.6151 1190.52 75.1438 1192.45 75.1438ZM1192.99 73.5618C1191.72 73.5618 1191.05 72.4432 1191.05 70.9091C1191.05 69.3857 1191.71 68.2937 1192.99 68.2937C1194.23 68.2937 1194.91 69.3217 1194.91 70.9091C1194.91 72.4964 1194.22 73.5618 1192.99 73.5618ZM1204.53 71.5589C1204.53 72.8054 1203.64 73.4233 1202.79 73.4233C1201.86 73.4233 1201.24 72.7681 1201.24 71.7294V66.8182H1199.31V72.0277C1199.31 73.9933 1200.43 75.1065 1202.04 75.1065C1203.27 75.1065 1204.13 74.462 1204.5 73.5458H1204.59V75H1206.46V66.8182H1204.53V71.5589ZM1212.51 75.1598C1214.42 75.1598 1215.73 74.2276 1216.07 72.8054L1214.27 72.603C1214.01 73.2955 1213.37 73.6577 1212.54 73.6577C1211.29 73.6577 1210.47 72.8374 1210.45 71.4364H1216.15V70.8452C1216.15 67.9741 1214.42 66.7116 1212.41 66.7116C1210.07 66.7116 1208.54 68.4322 1208.54 70.957C1208.54 73.5245 1210.05 75.1598 1212.51 75.1598ZM1210.46 70.1367C1210.51 69.0927 1211.29 68.2138 1212.44 68.2138C1213.55 68.2138 1214.29 69.0234 1214.3 70.1367H1210.46ZM1222.01 75C1225.34 75 1227.31 72.9439 1227.31 69.5348C1227.31 66.1364 1225.34 64.0909 1222.09 64.0909H1218.32V75H1222.01ZM1220.29 73.2901V65.8008H1221.98C1224.19 65.8008 1225.35 67.0366 1225.35 69.5348C1225.35 72.0437 1224.19 73.2901 1221.92 73.2901H1220.29ZM1231.91 75.1651C1233.19 75.1651 1233.96 74.5632 1234.31 73.8761H1234.37V75H1236.22V69.5241C1236.22 67.3615 1234.46 66.7116 1232.9 66.7116C1231.18 66.7116 1229.86 67.4787 1229.43 68.9702L1231.23 69.2259C1231.43 68.6665 1231.97 68.1871 1232.91 68.1871C1233.81 68.1871 1234.3 68.6452 1234.3 69.4496V69.4815C1234.3 70.0355 1233.72 70.0621 1232.27 70.2166C1230.69 70.3871 1229.17 70.8612 1229.17 72.7042C1229.17 74.3129 1230.34 75.1651 1231.91 75.1651ZM1232.41 73.7482C1231.6 73.7482 1231.03 73.3807 1231.03 72.6722C1231.03 71.9318 1231.67 71.6229 1232.53 71.5004C1233.04 71.4311 1234.05 71.3033 1234.3 71.1009V72.065C1234.3 72.9759 1233.57 73.7482 1232.41 73.7482ZM1242.7 66.8182H1241.09V64.858H1239.16V66.8182H1238V68.3097H1239.16V72.8587C1239.15 74.3981 1240.27 75.1545 1241.71 75.1119C1242.26 75.0959 1242.64 74.9893 1242.85 74.9201L1242.52 73.4126C1242.42 73.4393 1242.2 73.4872 1241.96 73.4872C1241.47 73.4872 1241.09 73.3168 1241.09 72.5391V68.3097H1242.7V66.8182ZM1248.3 75.1598C1250.2 75.1598 1251.51 74.2276 1251.85 72.8054L1250.05 72.603C1249.79 73.2955 1249.15 73.6577 1248.32 73.6577C1247.08 73.6577 1246.25 72.8374 1246.23 71.4364H1251.93V70.8452C1251.93 67.9741 1250.21 66.7116 1248.2 66.7116C1245.85 66.7116 1244.32 68.4322 1244.32 70.957C1244.32 73.5245 1245.83 75.1598 1248.3 75.1598ZM1246.24 70.1367C1246.3 69.0927 1247.07 68.2138 1248.22 68.2138C1249.33 68.2138 1250.08 69.0234 1250.09 70.1367H1246.24Z" fill="#C5D1DB"/>
<path d="M1189.37 99H1196.55V97.5884H1191.64V97.5085L1193.81 95.2393C1195.81 93.2205 1196.38 92.2564 1196.38 91.0366C1196.38 89.2841 1194.95 87.9418 1192.89 87.9418C1190.85 87.9418 1189.36 89.2628 1189.36 91.255H1190.93C1190.93 90.0831 1191.68 89.3161 1192.86 89.3161C1193.97 89.3161 1194.81 89.9979 1194.81 91.0845C1194.81 92.0487 1194.23 92.7411 1193.06 93.9822L1189.37 97.8068V99ZM1202.37 99.1811C1204.89 99.1811 1206.36 97.125 1206.36 93.5508C1206.36 90.0032 1204.87 87.9418 1202.37 87.9418C1199.86 87.9418 1198.37 89.9979 1198.37 93.5508C1198.37 97.1197 1199.84 99.1758 1202.37 99.1811ZM1202.37 97.7589C1200.89 97.7589 1200 96.2781 1200 93.5508C1200.01 90.8342 1200.9 89.3374 1202.37 89.3374C1203.83 89.3374 1204.73 90.8342 1204.73 93.5508C1204.73 96.2781 1203.84 97.7589 1202.37 97.7589ZM1212.43 87.5795H1211.01L1207.49 100.641H1208.91L1212.43 87.5795ZM1217.9 88.0909H1216.3L1213.57 89.87V91.4467L1216.18 89.7422H1216.25V99H1217.9V88.0909ZM1224.99 88.0909H1223.39L1220.66 89.87V91.4467L1223.27 89.7422H1223.34V99H1224.99V88.0909ZM1232.12 87.5795H1230.69L1227.18 100.641H1228.6L1232.12 87.5795ZM1233.45 99H1240.63V97.5884H1235.72V97.5085L1237.88 95.2393C1239.88 93.2205 1240.45 92.2564 1240.45 91.0366C1240.45 89.2841 1239.02 87.9418 1236.97 87.9418C1234.93 87.9418 1233.44 89.2628 1233.44 91.255H1235.01C1235 90.0831 1235.76 89.3161 1236.94 89.3161C1238.04 89.3161 1238.89 89.9979 1238.89 91.0845C1238.89 92.0487 1238.31 92.7411 1237.14 93.9822L1233.45 97.8068V99ZM1246.44 99.1811C1248.96 99.1811 1250.44 97.125 1250.44 93.5508C1250.44 90.0032 1248.94 87.9418 1246.44 87.9418C1243.94 87.9418 1242.45 89.9979 1242.44 93.5508C1242.44 97.1197 1243.92 99.1758 1246.44 99.1811ZM1246.44 97.7589C1244.97 97.7589 1244.08 96.2781 1244.08 93.5508C1244.09 90.8342 1244.97 89.3374 1246.44 89.3374C1247.91 89.3374 1248.8 90.8342 1248.8 93.5508C1248.8 96.2781 1247.92 97.7589 1246.44 97.7589ZM1252.33 99H1259.51V97.5884H1254.6V97.5085L1256.77 95.2393C1258.76 93.2205 1259.33 92.2564 1259.33 91.0366C1259.33 89.2841 1257.91 87.9418 1255.85 87.9418C1253.81 87.9418 1252.32 89.2628 1252.32 91.255H1253.89C1253.89 90.0831 1254.64 89.3161 1255.82 89.3161C1256.93 89.3161 1257.77 89.9979 1257.77 91.0845C1257.77 92.0487 1257.19 92.7411 1256.02 93.9822L1252.33 97.8068V99ZM1261.53 99H1268.71V97.5884H1263.8V97.5085L1265.97 95.2393C1267.96 93.2205 1268.53 92.2564 1268.53 91.0366C1268.53 89.2841 1267.11 87.9418 1265.05 87.9418C1263.01 87.9418 1261.52 89.2628 1261.52 91.255H1263.09C1263.08 90.0831 1263.84 89.3161 1265.02 89.3161C1266.13 89.3161 1266.97 89.9979 1266.97 91.0845C1266.97 92.0487 1266.39 92.7411 1265.22 93.9822L1261.53 97.8068V99Z" fill="#C5D1DB"/>
<circle cx="1258" cy="286" r="7" stroke="#C5D1DB" stroke-width="2"/>
<path d="M1277.34 280.091H1275.41V291H1277.34V280.091ZM1279.77 291H1281.7V282.818H1279.77V291ZM1280.74 281.657C1281.35 281.657 1281.86 281.188 1281.86 280.613C1281.86 280.032 1281.35 279.564 1280.74 279.564C1280.12 279.564 1279.62 280.032 1279.62 280.613C1279.62 281.188 1280.12 281.657 1280.74 281.657ZM1290.6 284.981C1290.33 283.596 1289.23 282.712 1287.31 282.712C1285.34 282.712 1284 283.681 1284 285.194C1284 286.387 1284.73 287.175 1286.3 287.5L1287.7 287.793C1288.45 287.958 1288.8 288.262 1288.8 288.725C1288.8 289.285 1288.19 289.706 1287.28 289.706C1286.39 289.706 1285.82 289.322 1285.65 288.587L1283.77 288.768C1284.01 290.27 1285.27 291.16 1287.28 291.16C1289.33 291.16 1290.77 290.1 1290.78 288.55C1290.77 287.383 1290.02 286.669 1288.47 286.334L1287.08 286.036C1286.25 285.849 1285.92 285.561 1285.92 285.087C1285.92 284.533 1286.53 284.15 1287.33 284.15C1288.22 284.15 1288.69 284.635 1288.84 285.173L1290.6 284.981ZM1296.9 282.818H1295.29V280.858H1293.36V282.818H1292.2V284.31H1293.36V288.859C1293.35 290.398 1294.47 291.154 1295.92 291.112C1296.46 291.096 1296.84 290.989 1297.05 290.92L1296.73 289.413C1296.62 289.439 1296.4 289.487 1296.16 289.487C1295.68 289.487 1295.29 289.317 1295.29 288.539V284.31H1296.9V282.818ZM1301.2 280.091H1299.23V291H1301.2V280.091ZM1307.79 282.818H1306.18V280.858H1304.25V282.818H1303.09V284.31H1304.25V288.859C1304.24 290.398 1305.36 291.154 1306.81 291.112C1307.36 291.096 1307.73 290.989 1307.94 290.92L1307.62 289.413C1307.51 289.439 1307.29 289.487 1307.05 289.487C1306.57 289.487 1306.18 289.317 1306.18 288.539V284.31H1307.79V282.818ZM1313.39 291.16C1315.3 291.16 1316.61 290.228 1316.95 288.805L1315.15 288.603C1314.89 289.295 1314.25 289.658 1313.42 289.658C1312.17 289.658 1311.34 288.837 1311.33 287.436H1317.03V286.845C1317.03 283.974 1315.3 282.712 1313.29 282.712C1310.94 282.712 1309.42 284.432 1309.42 286.957C1309.42 289.525 1310.92 291.16 1313.39 291.16ZM1311.33 286.137C1311.39 285.093 1312.16 284.214 1313.31 284.214C1314.42 284.214 1315.17 285.023 1315.18 286.137H1311.33ZM1319.11 291H1321.04V286.025C1321.04 285.018 1321.71 284.336 1322.54 284.336C1323.35 284.336 1323.91 284.885 1323.91 285.727V291H1325.8V285.897C1325.8 284.975 1326.35 284.336 1327.28 284.336C1328.06 284.336 1328.68 284.794 1328.68 285.806V291H1330.61V285.508C1330.61 283.681 1329.56 282.712 1328.06 282.712C1326.87 282.712 1325.96 283.298 1325.6 284.208H1325.52C1325.2 283.282 1324.41 282.712 1323.31 282.712C1322.21 282.712 1321.39 283.276 1321.05 284.208H1320.95V282.818H1319.11V291Z" fill="#C5D1DB"/>
<path d="M1275.1 307.5H1276.46V306.461C1276.46 305.657 1276.81 304.98 1277.25 304.347L1276.46 303.782C1275.64 304.437 1275.1 305.572 1275.1 306.477V307.5ZM1277.82 307.5H1279.18V306.461C1279.18 305.657 1279.53 304.98 1279.96 304.347L1279.17 303.782C1278.36 304.437 1277.82 305.572 1277.82 306.477V307.5ZM1283.1 304.091H1281.46V315H1283.1V304.091ZM1285.37 315H1286.97V309.956C1286.97 308.853 1287.74 308.086 1288.64 308.086C1289.53 308.086 1290.14 308.672 1290.14 309.561V315H1291.73V309.785C1291.73 308.8 1292.33 308.086 1293.37 308.086C1294.21 308.086 1294.9 308.555 1294.9 309.663V315H1296.5V309.513C1296.5 307.644 1295.45 306.712 1293.97 306.712C1292.79 306.712 1291.91 307.276 1291.52 308.15H1291.43C1291.07 307.255 1290.32 306.712 1289.23 306.712C1288.15 306.712 1287.34 307.25 1287 308.15H1286.9V306.818H1285.37V315ZM1298.63 318.068H1300.22V313.727H1300.32C1300.61 314.249 1301.19 315.16 1302.68 315.16C1304.67 315.16 1306.1 313.572 1306.1 310.925C1306.1 308.272 1304.64 306.712 1302.67 306.712C1301.15 306.712 1300.6 307.638 1300.32 308.145H1300.19V306.818H1298.63V318.068ZM1300.19 310.909C1300.19 309.199 1300.94 308.065 1302.33 308.065C1303.77 308.065 1304.5 309.284 1304.5 310.909C1304.5 312.55 1303.75 313.801 1302.33 313.801C1300.96 313.801 1300.19 312.63 1300.19 310.909ZM1309.48 304.091H1307.89V315H1309.48V304.091ZM1315.15 315.165C1316.93 315.165 1318.2 314.286 1318.56 312.955L1317.05 312.683C1316.76 313.455 1316.07 313.849 1315.17 313.849C1313.8 313.849 1312.89 312.965 1312.84 311.388H1318.66V310.824C1318.66 307.868 1316.89 306.712 1315.04 306.712C1312.76 306.712 1311.26 308.448 1311.26 310.962C1311.26 313.503 1312.74 315.165 1315.15 315.165ZM1312.85 310.195C1312.91 309.034 1313.75 308.027 1315.05 308.027C1316.28 308.027 1317.09 308.944 1317.1 310.195H1312.85ZM1320.43 315H1322.02V309.956C1322.02 308.853 1322.79 308.086 1323.7 308.086C1324.58 308.086 1325.2 308.672 1325.2 309.561V315H1326.78V309.785C1326.78 308.8 1327.38 308.086 1328.42 308.086C1329.26 308.086 1329.96 308.555 1329.96 309.663V315H1331.55V309.513C1331.55 307.644 1330.51 306.712 1329.02 306.712C1327.85 306.712 1326.96 307.276 1326.57 308.15H1326.48C1326.13 307.255 1325.38 306.712 1324.28 306.712C1323.2 306.712 1322.4 307.25 1322.06 308.15H1321.96V306.818H1320.43V315ZM1337.21 315.165C1339 315.165 1340.26 314.286 1340.62 312.955L1339.11 312.683C1338.82 313.455 1338.13 313.849 1337.23 313.849C1335.86 313.849 1334.95 312.965 1334.9 311.388H1340.72V310.824C1340.72 307.868 1338.95 306.712 1337.1 306.712C1334.82 306.712 1333.32 308.448 1333.32 310.962C1333.32 313.503 1334.8 315.165 1337.21 315.165ZM1334.91 310.195C1334.97 309.034 1335.82 308.027 1337.11 308.027C1338.35 308.027 1339.15 308.944 1339.16 310.195H1334.91ZM1344.08 310.142C1344.08 308.837 1344.88 308.091 1345.99 308.091C1347.07 308.091 1347.72 308.8 1347.72 309.988V315H1349.32V309.796C1349.32 307.772 1348.2 306.712 1346.53 306.712C1345.3 306.712 1344.5 307.282 1344.12 308.15H1344.02V306.818H1342.49V315H1344.08V310.142ZM1355.27 306.818H1353.59V304.858H1352V306.818H1350.8V308.097H1352V312.928C1352 314.414 1353.13 315.133 1354.39 315.107C1354.89 315.101 1355.23 315.005 1355.42 314.936L1355.13 313.62C1355.03 313.642 1354.83 313.69 1354.57 313.69C1354.06 313.69 1353.59 313.519 1353.59 312.598V308.097H1355.27V306.818ZM1364.07 315.16C1365.56 315.16 1366.14 314.249 1366.43 313.727H1366.56V315H1368.12V304.091H1366.53V308.145H1366.43C1366.14 307.638 1365.6 306.712 1364.08 306.712C1362.1 306.712 1360.65 308.272 1360.65 310.925C1360.65 313.572 1362.08 315.16 1364.07 315.16ZM1364.42 313.801C1363 313.801 1362.26 312.55 1362.26 310.909C1362.26 309.284 1362.98 308.065 1364.42 308.065C1365.81 308.065 1366.55 309.199 1366.55 310.909C1366.55 312.63 1365.79 313.801 1364.42 313.801ZM1370.39 315H1371.99V310.004C1371.99 308.933 1372.81 308.161 1373.94 308.161C1374.27 308.161 1374.64 308.219 1374.77 308.256V306.733C1374.61 306.712 1374.3 306.696 1374.1 306.696C1373.14 306.696 1372.32 307.239 1372.02 308.118H1371.93V306.818H1370.39V315ZM1379.3 315.165C1381.61 315.165 1383.12 313.477 1383.12 310.946C1383.12 308.4 1381.61 306.712 1379.3 306.712C1377 306.712 1375.49 308.4 1375.49 310.946C1375.49 313.477 1377 315.165 1379.3 315.165ZM1379.31 313.828C1377.8 313.828 1377.1 312.512 1377.1 310.941C1377.1 309.375 1377.8 308.043 1379.31 308.043C1380.81 308.043 1381.51 309.375 1381.51 310.941C1381.51 312.512 1380.81 313.828 1379.31 313.828ZM1384.9 318.068H1386.49V313.727H1386.58C1386.87 314.249 1387.46 315.16 1388.95 315.16C1390.93 315.16 1392.37 313.572 1392.37 310.925C1392.37 308.272 1390.91 306.712 1388.93 306.712C1387.41 306.712 1386.87 307.638 1386.58 308.145H1386.45V306.818H1384.9V318.068ZM1386.46 310.909C1386.46 309.199 1387.2 308.065 1388.59 308.065C1390.04 308.065 1390.76 309.284 1390.76 310.909C1390.76 312.55 1390.01 313.801 1388.59 313.801C1387.22 313.801 1386.46 312.63 1386.46 310.909ZM1397.22 315.16C1398.71 315.16 1399.29 314.249 1399.58 313.727H1399.71V315H1401.27V304.091H1399.68V308.145H1399.58C1399.29 307.638 1398.75 306.712 1397.23 306.712C1395.25 306.712 1393.8 308.272 1393.8 310.925C1393.8 313.572 1395.23 315.16 1397.22 315.16ZM1397.57 313.801C1396.15 313.801 1395.4 312.55 1395.4 310.909C1395.4 309.284 1396.13 308.065 1397.57 308.065C1398.96 308.065 1399.7 309.199 1399.7 310.909C1399.7 312.63 1398.94 313.801 1397.57 313.801ZM1406.99 315.165C1409.3 315.165 1410.8 313.477 1410.8 310.946C1410.8 308.4 1409.3 306.712 1406.99 306.712C1404.68 306.712 1403.18 308.4 1403.18 310.946C1403.18 313.477 1404.68 315.165 1406.99 315.165ZM1406.99 313.828C1405.49 313.828 1404.78 312.512 1404.78 310.941C1404.78 309.375 1405.49 308.043 1406.99 308.043C1408.49 308.043 1409.19 309.375 1409.19 310.941C1409.19 312.512 1408.49 313.828 1406.99 313.828ZM1414.11 315H1415.73L1417.39 309.093H1417.51L1419.17 315H1420.8L1423.2 306.818H1421.55L1419.96 312.8H1419.88L1418.28 306.818H1416.64L1415.03 312.827H1414.95L1413.34 306.818H1411.7L1414.11 315ZM1426.3 310.142C1426.3 308.837 1427.1 308.091 1428.21 308.091C1429.29 308.091 1429.95 308.8 1429.95 309.988V315H1431.54V309.796C1431.54 307.772 1430.43 306.712 1428.75 306.712C1427.52 306.712 1426.72 307.282 1426.34 308.15H1426.24V306.818H1424.71V315H1426.3V310.142ZM1437.64 315H1439.24V309.956C1439.24 308.853 1440.01 308.086 1440.91 308.086C1441.8 308.086 1442.41 308.672 1442.41 309.561V315H1444V309.785C1444 308.8 1444.6 308.086 1445.64 308.086C1446.48 308.086 1447.17 308.555 1447.17 309.663V315H1448.77V309.513C1448.77 307.644 1447.72 306.712 1446.24 306.712C1445.06 306.712 1444.18 307.276 1443.79 308.15H1443.7C1443.34 307.255 1442.59 306.712 1441.5 306.712C1440.42 306.712 1439.62 307.25 1439.27 308.15H1439.17V306.818H1437.64V315ZM1454.43 315.165C1456.21 315.165 1457.47 314.286 1457.84 312.955L1456.33 312.683C1456.04 313.455 1455.35 313.849 1454.44 313.849C1453.08 313.849 1452.16 312.965 1452.12 311.388H1457.94V310.824C1457.94 307.868 1456.17 306.712 1454.32 306.712C1452.04 306.712 1450.53 308.448 1450.53 310.962C1450.53 313.503 1452.01 315.165 1454.43 315.165ZM1452.13 310.195C1452.19 309.034 1453.03 308.027 1454.33 308.027C1455.56 308.027 1456.37 308.944 1456.38 310.195H1452.13ZM1461.3 310.142C1461.3 308.837 1462.1 308.091 1463.2 308.091C1464.29 308.091 1464.94 308.8 1464.94 309.988V315H1466.53V309.796C1466.53 307.772 1465.42 306.712 1463.75 306.712C1462.52 306.712 1461.71 307.282 1461.33 308.15H1461.23V306.818H1459.7V315H1461.3V310.142ZM1473.85 311.607C1473.86 312.997 1472.82 313.658 1471.93 313.658C1470.94 313.658 1470.26 312.944 1470.26 311.831V306.818H1468.67V312.022C1468.67 314.052 1469.78 315.107 1471.35 315.107C1472.58 315.107 1473.42 314.457 1473.8 313.583H1473.88V315H1475.45V306.818H1473.85V311.607ZM1479.18 304.091H1477.82V305.13C1477.82 305.955 1477.45 306.632 1477.04 307.244L1477.83 307.809C1478.65 307.148 1479.18 306.019 1479.18 305.114V304.091ZM1481.89 304.091H1480.53V305.13C1480.53 305.955 1480.16 306.632 1479.75 307.244L1480.54 307.809C1481.36 307.148 1481.89 306.019 1481.89 305.114V304.091Z" fill="#C5D1DB"/>
<path d="M853 278L732 311" stroke="url(#paint0_linear_1601_16562)"/>
<path d="M582 284L701 312" stroke="url(#paint1_linear_1601_16562)"/>
<path d="M650 184L710 302" stroke="url(#paint2_linear_1601_16562)"/>
<path d="M797 177L724 302" stroke="url(#paint3_linear_1601_16562)"/>
<circle cx="863" cy="274" r="8" fill="url(#paint4_linear_1601_16562)"/>
<path d="M883.818 279.16C885.725 279.16 887.036 278.228 887.377 276.805L885.576 276.603C885.315 277.295 884.676 277.658 883.845 277.658C882.599 277.658 881.773 276.837 881.757 275.436H887.457V274.845C887.457 271.974 885.731 270.712 883.717 270.712C881.373 270.712 879.845 272.432 879.845 274.957C879.845 277.525 881.352 279.16 883.818 279.16ZM881.762 274.137C881.821 273.093 882.593 272.214 883.744 272.214C884.852 272.214 885.598 273.023 885.608 274.137H881.762ZM889.538 279H891.466V274.025C891.466 273.018 892.137 272.336 892.968 272.336C893.783 272.336 894.343 272.885 894.343 273.727V279H896.234V273.897C896.234 272.975 896.782 272.336 897.714 272.336C898.492 272.336 899.11 272.794 899.11 273.806V279H901.044V273.508C901.044 271.681 899.989 270.712 898.487 270.712C897.299 270.712 896.393 271.298 896.031 272.208H895.946C895.632 271.282 894.838 270.712 893.735 270.712C892.638 270.712 891.818 271.276 891.477 272.208H891.381V270.818H889.538V279ZM905.804 279.165C907.088 279.165 907.855 278.563 908.206 277.876H908.27V279H910.124V273.524C910.124 271.362 908.361 270.712 906.8 270.712C905.08 270.712 903.759 271.479 903.333 272.97L905.133 273.226C905.325 272.667 905.868 272.187 906.811 272.187C907.706 272.187 908.196 272.645 908.196 273.45V273.482C908.196 274.036 907.615 274.062 906.172 274.217C904.584 274.387 903.066 274.861 903.066 276.704C903.066 278.313 904.243 279.165 905.804 279.165ZM906.305 277.748C905.501 277.748 904.925 277.381 904.925 276.672C904.925 275.932 905.57 275.623 906.433 275.5C906.939 275.431 907.951 275.303 908.201 275.101V276.065C908.201 276.976 907.466 277.748 906.305 277.748ZM912.513 279H914.441V270.818H912.513V279ZM913.482 269.657C914.095 269.657 914.596 269.188 914.596 268.613C914.596 268.032 914.095 267.564 913.482 267.564C912.865 267.564 912.364 268.032 912.364 268.613C912.364 269.188 912.865 269.657 913.482 269.657ZM918.802 268.091H916.874V279H918.802V268.091Z" fill="#6048E5"/>
<path d="M880.347 299H881.833V294.292C881.833 293.263 882.554 292.547 883.4 292.547C884.225 292.547 884.797 293.094 884.797 293.924V299H886.278V294.133C886.278 293.213 886.84 292.547 887.809 292.547C888.595 292.547 889.241 292.984 889.241 294.018V299H890.728V293.879C890.728 292.134 889.753 291.264 888.371 291.264C887.272 291.264 886.447 291.791 886.079 292.607H886C885.667 291.771 884.966 291.264 883.946 291.264C882.937 291.264 882.186 291.766 881.868 292.607H881.774V291.364H880.347V299ZM894.942 299.169C896.205 299.169 896.916 298.528 897.199 297.956H897.259V299H898.711V293.929C898.711 291.707 896.961 291.264 895.748 291.264C894.366 291.264 893.093 291.821 892.596 293.213L893.993 293.531C894.211 292.989 894.768 292.467 895.768 292.467C896.727 292.467 897.219 292.969 897.219 293.835V293.869C897.219 294.411 896.662 294.401 895.29 294.56C893.844 294.729 892.362 295.107 892.362 296.842C892.362 298.344 893.491 299.169 894.942 299.169ZM895.265 297.976C894.425 297.976 893.819 297.598 893.819 296.862C893.819 296.067 894.525 295.783 895.385 295.669C895.867 295.604 897.01 295.475 897.224 295.261V296.246C897.224 297.151 896.503 297.976 895.265 297.976ZM902.177 294.466C902.177 293.248 902.948 292.552 904.007 292.552C905.031 292.552 905.642 293.203 905.642 294.322V299H907.129V294.143C907.129 292.239 906.085 291.264 904.514 291.264C903.326 291.264 902.61 291.781 902.252 292.607H902.157V288.818H900.691V299H902.177V294.466ZM911.335 299.169C912.598 299.169 913.309 298.528 913.592 297.956H913.652V299H915.103V293.929C915.103 291.707 913.353 291.264 912.14 291.264C910.758 291.264 909.485 291.821 908.988 293.213L910.385 293.531C910.604 292.989 911.161 292.467 912.16 292.467C913.12 292.467 913.612 292.969 913.612 293.835V293.869C913.612 294.411 913.055 294.401 911.683 294.56C910.236 294.729 908.755 295.107 908.755 296.842C908.755 298.344 909.883 299.169 911.335 299.169ZM911.658 297.976C910.818 297.976 910.211 297.598 910.211 296.862C910.211 296.067 910.917 295.783 911.777 295.669C912.26 295.604 913.403 295.475 913.617 295.261V296.246C913.617 297.151 912.896 297.976 911.658 297.976ZM918.57 294.466C918.57 293.248 919.316 292.552 920.35 292.552C921.359 292.552 921.97 293.213 921.97 294.322V299H923.457V294.143C923.457 292.254 922.418 291.264 920.857 291.264C919.708 291.264 918.958 291.796 918.605 292.607H918.51V291.364H917.083V299H918.57V294.466ZM925.45 299H926.937V291.364H925.45V299ZM926.201 290.185C926.713 290.185 927.141 289.788 927.141 289.3C927.141 288.813 926.713 288.411 926.201 288.411C925.684 288.411 925.262 288.813 925.262 289.3C925.262 289.788 925.684 290.185 926.201 290.185ZM935.067 301.769C936.215 301.769 937.543 301.456 938.159 301.168L937.811 300.079C937.393 300.228 936.245 300.591 935.131 300.591C931.786 300.591 929.991 298.746 929.991 295.445C929.991 292.283 931.766 290.24 934.947 290.24C937.856 290.24 939.591 292.109 939.586 294.635C939.591 296.793 939.312 297.762 938.408 297.762C937.896 297.762 937.612 297.344 937.612 296.822V292.209H936.389V292.766H936.325C936.175 292.328 935.31 291.935 934.271 292.06C932.835 292.229 931.602 293.417 931.602 295.376C931.602 297.419 932.646 298.786 934.321 298.851C935.455 298.901 936.19 298.374 936.424 297.787H936.484C936.603 298.587 937.468 298.94 938.318 298.911C940.441 298.871 940.844 296.783 940.844 294.685C940.844 291.692 938.795 289.087 934.997 289.087C931.015 289.087 928.673 291.518 928.668 295.435C928.673 299.467 930.955 301.769 935.067 301.769ZM934.609 297.633C933.312 297.633 932.864 296.519 932.859 295.316C932.864 294.173 933.506 293.263 934.629 293.263C935.847 293.263 936.394 293.8 936.399 295.311C936.404 296.862 935.902 297.633 934.609 297.633ZM942.486 299H943.972V291.364H942.486V299ZM943.236 290.185C943.748 290.185 944.176 289.788 944.176 289.3C944.176 288.813 943.748 288.411 943.236 288.411C942.719 288.411 942.297 288.813 942.297 289.3C942.297 289.788 942.719 290.185 943.236 290.185ZM947.458 294.466C947.458 293.248 948.204 292.552 949.238 292.552C950.248 292.552 950.859 293.213 950.859 294.322V299H952.346V294.143C952.346 292.254 951.306 291.264 949.745 291.264C948.597 291.264 947.846 291.796 947.493 292.607H947.399V291.364H945.972V299H947.458V294.466ZM954.458 299H955.91V297.812H956.034C956.303 298.299 956.85 299.149 958.242 299.149C960.091 299.149 961.434 297.668 961.434 295.197C961.434 292.721 960.071 291.264 958.227 291.264C956.81 291.264 956.298 292.129 956.034 292.602H955.945V288.818H954.458V299ZM955.915 295.182C955.915 293.586 956.611 292.527 957.909 292.527C959.256 292.527 959.932 293.665 959.932 295.182C959.932 296.713 959.236 297.881 957.909 297.881C956.631 297.881 955.915 296.788 955.915 295.182ZM966.319 299.154C968.472 299.154 969.879 297.578 969.879 295.217C969.879 292.84 968.472 291.264 966.319 291.264C964.167 291.264 962.76 292.84 962.76 295.217C962.76 297.578 964.167 299.154 966.319 299.154ZM966.324 297.906C964.917 297.906 964.261 296.678 964.261 295.212C964.261 293.75 964.917 292.507 966.324 292.507C967.721 292.507 968.378 293.75 968.378 295.212C968.378 296.678 967.721 297.906 966.324 297.906ZM972.397 291.364H970.767L973.113 295.182L970.737 299H972.367L974.083 296.146L975.803 299H977.428L975.027 295.182L977.409 291.364H975.783L974.083 294.337L972.397 291.364ZM979.914 299.094C980.456 299.094 980.909 298.652 980.909 298.1C980.909 297.558 980.456 297.111 979.914 297.111C979.367 297.111 978.92 297.558 978.92 298.1C978.92 298.652 979.367 299.094 979.914 299.094ZM986.116 299.154C987.921 299.154 989.089 298.07 989.253 296.584H987.807C987.618 297.409 986.976 297.896 986.126 297.896C984.868 297.896 984.058 296.847 984.058 295.182C984.058 293.546 984.883 292.517 986.126 292.517C987.071 292.517 987.648 293.114 987.807 293.83H989.253C989.094 292.288 987.836 291.264 986.101 291.264C983.949 291.264 982.557 292.885 982.557 295.217C982.557 297.518 983.899 299.154 986.116 299.154ZM994.06 299.154C996.212 299.154 997.619 297.578 997.619 295.217C997.619 292.84 996.212 291.264 994.06 291.264C991.907 291.264 990.5 292.84 990.5 295.217C990.5 297.578 991.907 299.154 994.06 299.154ZM994.065 297.906C992.658 297.906 992.001 296.678 992.001 295.212C992.001 293.75 992.658 292.507 994.065 292.507C995.462 292.507 996.118 293.75 996.118 295.212C996.118 296.678 995.462 297.906 994.065 297.906ZM999.279 299H1000.77V294.292C1000.77 293.263 1001.49 292.547 1002.33 292.547C1003.16 292.547 1003.73 293.094 1003.73 293.924V299H1005.21V294.133C1005.21 293.213 1005.77 292.547 1006.74 292.547C1007.53 292.547 1008.17 292.984 1008.17 294.018V299H1009.66V293.879C1009.66 292.134 1008.68 291.264 1007.3 291.264C1006.2 291.264 1005.38 291.791 1005.01 292.607H1004.93C1004.6 291.771 1003.9 291.264 1002.88 291.264C1001.87 291.264 1001.12 291.766 1000.8 292.607H1000.71V291.364H999.279V299Z" fill="#64778C"/>
<a href="mailto:mahani@inbox.com">
<rect fill="black" fill-opacity="0" x="0.347656" y="-0.971591" width="131.301" height="16.9432"/>
</a>
<circle cx="803" cy="167" r="8" fill="url(#paint5_linear_1601_16562)"/>
<path d="M820.228 163.818V172.442C820.228 173.129 819.935 173.497 819.195 173.497C819.099 173.497 819.024 173.491 818.918 173.486V175.058C819.056 175.068 819.174 175.068 819.312 175.068C821.118 175.068 822.157 174.237 822.157 172.469V163.818H820.228ZM821.187 162.657C821.8 162.657 822.3 162.188 822.3 161.613C822.3 161.032 821.8 160.564 821.187 160.564C820.569 160.564 820.068 161.032 820.068 161.613C820.068 162.188 820.569 162.657 821.187 162.657ZM828.158 172.16C830.555 172.16 832.079 170.471 832.079 167.941C832.079 165.406 830.555 163.712 828.158 163.712C825.761 163.712 824.238 165.406 824.238 167.941C824.238 170.471 825.761 172.16 828.158 172.16ZM828.169 170.615C826.843 170.615 826.193 169.433 826.193 167.936C826.193 166.439 826.843 165.24 828.169 165.24C829.474 165.24 830.124 166.439 830.124 167.936C830.124 169.433 829.474 170.615 828.169 170.615ZM834.251 172H836.147V170.711H836.259C836.562 171.308 837.196 172.144 838.603 172.144C840.531 172.144 841.974 170.615 841.974 167.92C841.974 165.192 840.488 163.712 838.597 163.712C837.154 163.712 836.552 164.58 836.259 165.171H836.179V161.091H834.251V172ZM836.142 167.909C836.142 166.322 836.823 165.294 838.065 165.294C839.348 165.294 840.009 166.386 840.009 167.909C840.009 169.443 839.338 170.562 838.065 170.562C836.834 170.562 836.142 169.496 836.142 167.909ZM843.069 162.748H846.441V172H848.401V162.748H851.773V161.091H843.069V162.748ZM853.815 172H855.744V163.818H853.815V172ZM854.785 162.657C855.397 162.657 855.898 162.188 855.898 161.613C855.898 161.032 855.397 160.564 854.785 160.564C854.167 160.564 853.666 161.032 853.666 161.613C853.666 162.188 854.167 162.657 854.785 162.657ZM862.262 163.818H860.648V161.858H858.72V163.818H857.559V165.31H858.72V169.859C858.709 171.398 859.828 172.154 861.277 172.112C861.825 172.096 862.203 171.989 862.411 171.92L862.086 170.413C861.98 170.439 861.761 170.487 861.522 170.487C861.037 170.487 860.648 170.317 860.648 169.539V165.31H862.262V163.818ZM866.429 161.091H864.501V172H866.429V161.091ZM872.484 172.16C874.391 172.16 875.701 171.228 876.042 169.805L874.242 169.603C873.981 170.295 873.341 170.658 872.51 170.658C871.264 170.658 870.438 169.837 870.422 168.436H876.122V167.845C876.122 164.974 874.396 163.712 872.383 163.712C870.039 163.712 868.51 165.432 868.51 167.957C868.51 170.525 870.018 172.16 872.484 172.16ZM870.428 167.137C870.486 166.093 871.259 165.214 872.409 165.214C873.517 165.214 874.263 166.023 874.274 167.137H870.428Z" fill="#6048E5"/>
<path d="M820.302 196H821.947V192.165H824.185C826.715 192.165 827.967 190.636 827.967 188.623C827.967 186.614 826.726 185.091 824.19 185.091H820.302V196ZM821.947 190.769V186.502H824.014C825.644 186.502 826.31 187.387 826.31 188.623C826.31 189.858 825.644 190.769 824.036 190.769H821.947ZM829.768 196H831.361V191.004C831.361 189.933 832.187 189.161 833.316 189.161C833.646 189.161 834.019 189.219 834.147 189.256V187.733C833.987 187.712 833.673 187.696 833.47 187.696C832.512 187.696 831.691 188.239 831.393 189.118H831.308V187.818H829.768V196ZM838.679 196.165C840.985 196.165 842.493 194.477 842.493 191.946C842.493 189.4 840.985 187.712 838.679 187.712C836.372 187.712 834.865 189.4 834.865 191.946C834.865 194.477 836.372 196.165 838.679 196.165ZM838.684 194.828C837.177 194.828 836.473 193.512 836.473 191.941C836.473 190.375 837.177 189.043 838.684 189.043C840.181 189.043 840.884 190.375 840.884 191.941C840.884 193.512 840.181 194.828 838.684 194.828ZM847.333 196.16C848.825 196.16 849.411 195.249 849.698 194.727H849.831V196H851.387V185.091H849.794V189.145H849.698C849.411 188.638 848.867 187.712 847.344 187.712C845.368 187.712 843.913 189.272 843.913 191.925C843.913 194.572 845.346 196.16 847.333 196.16ZM847.685 194.801C846.263 194.801 845.522 193.55 845.522 191.909C845.522 190.284 846.247 189.065 847.685 189.065C849.075 189.065 849.821 190.199 849.821 191.909C849.821 193.63 849.059 194.801 847.685 194.801ZM858.843 192.607C858.848 193.997 857.815 194.658 856.92 194.658C855.935 194.658 855.253 193.944 855.253 192.831V187.818H853.66V193.022C853.66 195.052 854.773 196.107 856.345 196.107C857.575 196.107 858.411 195.457 858.79 194.583H858.875V196H860.441V187.818H858.843V192.607ZM866.027 196.165C867.961 196.165 869.213 195.004 869.388 193.411H867.838C867.636 194.295 866.949 194.817 866.038 194.817C864.69 194.817 863.822 193.694 863.822 191.909C863.822 190.157 864.706 189.054 866.038 189.054C867.05 189.054 867.668 189.693 867.838 190.46H869.388C869.218 188.809 867.87 187.712 866.011 187.712C863.705 187.712 862.213 189.448 862.213 191.946C862.213 194.413 863.652 196.165 866.027 196.165ZM874.911 187.818H873.233V185.858H871.64V187.818H870.442V189.097H871.64V193.928C871.635 195.414 872.77 196.133 874.027 196.107C874.533 196.101 874.874 196.005 875.06 195.936L874.772 194.62C874.666 194.642 874.469 194.69 874.213 194.69C873.696 194.69 873.233 194.519 873.233 193.598V189.097H874.911V187.818ZM880.77 196H887.674V194.583H882.416V191.243H887.253V189.832H882.416V186.508H887.61V185.091H880.77V196ZM891.273 191.142C891.273 189.837 892.072 189.091 893.18 189.091C894.261 189.091 894.917 189.8 894.917 190.988V196H896.509V190.796C896.509 188.772 895.396 187.712 893.723 187.712C892.493 187.712 891.689 188.282 891.311 189.15H891.209V187.818H889.681V196H891.273V191.142ZM902.076 199.239C904.159 199.239 905.767 198.285 905.767 196.181V187.818H904.206V189.145H904.089C903.807 188.638 903.242 187.712 901.719 187.712C899.743 187.712 898.288 189.272 898.288 191.877C898.288 194.487 899.775 195.877 901.708 195.877C903.21 195.877 903.791 195.031 904.079 194.509H904.18V196.117C904.18 197.401 903.301 197.955 902.092 197.955C900.765 197.955 900.249 197.289 899.966 196.82L898.597 197.385C899.029 198.386 900.121 199.239 902.076 199.239ZM902.06 194.556C900.638 194.556 899.897 193.464 899.897 191.856C899.897 190.284 900.622 189.065 902.06 189.065C903.45 189.065 904.196 190.199 904.196 191.856C904.196 193.544 903.434 194.556 902.06 194.556ZM907.903 196H909.496V187.818H907.903V196ZM908.708 186.556C909.256 186.556 909.714 186.13 909.714 185.608C909.714 185.086 909.256 184.654 908.708 184.654C908.154 184.654 907.701 185.086 907.701 185.608C907.701 186.13 908.154 186.556 908.708 186.556ZM913.231 191.142C913.231 189.837 914.03 189.091 915.138 189.091C916.22 189.091 916.875 189.8 916.875 190.988V196H918.467V190.796C918.467 188.772 917.354 187.712 915.682 187.712C914.451 187.712 913.647 188.282 913.269 189.15H913.167V187.818H911.639V196H913.231V191.142ZM924.13 196.165C925.914 196.165 927.177 195.286 927.539 193.955L926.031 193.683C925.744 194.455 925.051 194.849 924.146 194.849C922.782 194.849 921.866 193.965 921.823 192.388H927.64V191.824C927.64 188.868 925.871 187.712 924.018 187.712C921.738 187.712 920.236 189.448 920.236 191.962C920.236 194.503 921.717 196.165 924.13 196.165ZM921.829 191.195C921.892 190.034 922.734 189.027 924.028 189.027C925.264 189.027 926.074 189.944 926.079 191.195H921.829ZM932.933 196.165C934.718 196.165 935.98 195.286 936.342 193.955L934.835 193.683C934.547 194.455 933.855 194.849 932.949 194.849C931.586 194.849 930.67 193.965 930.627 192.388H936.444V191.824C936.444 188.868 934.675 187.712 932.822 187.712C930.542 187.712 929.04 189.448 929.04 191.962C929.04 194.503 930.52 196.165 932.933 196.165ZM930.632 191.195C930.696 190.034 931.538 189.027 932.832 189.027C934.068 189.027 934.878 189.944 934.883 191.195H930.632ZM938.211 196H939.803V191.004C939.803 189.933 940.629 189.161 941.758 189.161C942.089 189.161 942.462 189.219 942.589 189.256V187.733C942.43 187.712 942.115 187.696 941.913 187.696C940.954 187.696 940.134 188.239 939.835 189.118H939.75V187.818H938.211V196Z" fill="#64778C"/>
<path d="M558.483 171.818H556.784V171.174C556.784 170.534 557.05 170.178 557.769 170.178C558.073 170.178 558.328 170.247 558.488 170.295L558.877 168.803C558.627 168.718 558.078 168.58 557.412 168.58C555.99 168.58 554.855 169.395 554.855 171.046V171.818H553.646V173.31H554.855V180H556.784V173.31H558.483V171.818ZM560.443 180H562.371V171.818H560.443V180ZM561.412 170.657C562.025 170.657 562.526 170.188 562.526 169.613C562.526 169.032 562.025 168.564 561.412 168.564C560.795 168.564 560.294 169.032 560.294 169.613C560.294 170.188 560.795 170.657 561.412 170.657ZM564.804 180H566.732V175.19C566.732 174.151 567.515 173.416 568.575 173.416C568.9 173.416 569.305 173.475 569.47 173.528V171.754C569.295 171.722 568.991 171.701 568.778 171.701C567.84 171.701 567.057 172.234 566.759 173.182H566.674V171.818H564.804V180ZM577.668 173.981C577.402 172.596 576.294 171.712 574.376 171.712C572.405 171.712 571.063 172.681 571.068 174.194C571.063 175.387 571.798 176.175 573.369 176.5L574.765 176.793C575.516 176.958 575.868 177.262 575.868 177.725C575.868 178.285 575.26 178.706 574.344 178.706C573.46 178.706 572.885 178.322 572.72 177.587L570.839 177.768C571.079 179.27 572.341 180.16 574.349 180.16C576.395 180.16 577.838 179.1 577.844 177.55C577.838 176.383 577.087 175.669 575.543 175.334L574.147 175.036C573.316 174.849 572.986 174.561 572.991 174.087C572.986 173.533 573.598 173.15 574.403 173.15C575.292 173.15 575.761 173.635 575.91 174.173L577.668 173.981ZM583.969 171.818H582.355V169.858H580.427V171.818H579.266V173.31H580.427V177.859C580.417 179.398 581.535 180.154 582.984 180.112C583.533 180.096 583.911 179.989 584.119 179.92L583.794 178.413C583.687 178.439 583.469 178.487 583.229 178.487C582.744 178.487 582.355 178.317 582.355 177.539V173.31H583.969V171.818ZM595.258 169.091H593.292V176.527H593.196L588.062 169.091H586.293V180H588.269V172.569H588.36L593.5 180H595.258V169.091ZM600.13 180.165C601.414 180.165 602.181 179.563 602.533 178.876H602.597V180H604.45V174.524C604.45 172.362 602.687 171.712 601.127 171.712C599.406 171.712 598.085 172.479 597.659 173.97L599.459 174.226C599.651 173.667 600.194 173.187 601.137 173.187C602.032 173.187 602.522 173.645 602.522 174.45V174.482C602.522 175.036 601.942 175.062 600.498 175.217C598.911 175.387 597.392 175.861 597.392 177.704C597.392 179.313 598.57 180.165 600.13 180.165ZM600.631 178.748C599.827 178.748 599.252 178.381 599.252 177.672C599.252 176.932 599.896 176.623 600.759 176.5C601.265 176.431 602.277 176.303 602.527 176.101V177.065C602.527 177.976 601.792 178.748 600.631 178.748ZM606.839 180H608.768V175.025C608.768 174.018 609.439 173.336 610.27 173.336C611.085 173.336 611.644 173.885 611.644 174.727V180H613.535V174.897C613.535 173.975 614.084 173.336 615.016 173.336C615.793 173.336 616.411 173.794 616.411 174.806V180H618.345V174.508C618.345 172.681 617.29 171.712 615.788 171.712C614.6 171.712 613.695 172.298 613.333 173.208H613.247C612.933 172.282 612.139 171.712 611.037 171.712C609.939 171.712 609.119 172.276 608.778 173.208H608.682V171.818H606.839V180ZM624.373 180.16C626.28 180.16 627.591 179.228 627.932 177.805L626.131 177.603C625.87 178.295 625.231 178.658 624.4 178.658C623.154 178.658 622.328 177.837 622.312 176.436H628.012V175.845C628.012 172.974 626.286 171.712 624.272 171.712C621.928 171.712 620.4 173.432 620.4 175.957C620.4 178.525 621.907 180.16 624.373 180.16ZM622.317 175.137C622.376 174.093 623.148 173.214 624.299 173.214C625.407 173.214 626.152 174.023 626.163 175.137H622.317Z" fill="#6048E5"/>
<path d="M554.681 193.091V204H556.247V196.1H556.349L559.566 203.984H560.866L564.083 196.106H564.184V204H565.75V193.091H563.753L560.28 201.571H560.152L556.679 193.091H554.681ZM570.397 204.181C571.75 204.181 572.511 203.494 572.815 202.881H572.879V204H574.434V198.567C574.434 196.186 572.559 195.712 571.259 195.712C569.779 195.712 568.415 196.308 567.882 197.8L569.379 198.141C569.614 197.56 570.21 197.001 571.281 197.001C572.309 197.001 572.836 197.539 572.836 198.466V198.503C572.836 199.083 572.24 199.073 570.769 199.243C569.219 199.424 567.632 199.829 567.632 201.688C567.632 203.297 568.841 204.181 570.397 204.181ZM570.743 202.903C569.843 202.903 569.193 202.498 569.193 201.71C569.193 200.857 569.949 200.554 570.871 200.431C571.387 200.362 572.612 200.223 572.841 199.994V201.049C572.841 202.018 572.069 202.903 570.743 202.903ZM576.556 204H578.148V199.004C578.148 197.933 578.974 197.161 580.103 197.161C580.433 197.161 580.806 197.219 580.934 197.256V195.733C580.774 195.712 580.46 195.696 580.258 195.696C579.299 195.696 578.478 196.239 578.18 197.118H578.095V195.818H576.556V204ZM582.312 204H583.905V195.818H582.312V204ZM583.117 194.556C583.665 194.556 584.123 194.13 584.123 193.608C584.123 193.086 583.665 192.654 583.117 192.654C582.563 192.654 582.11 193.086 582.11 193.608C582.11 194.13 582.563 194.556 583.117 194.556ZM588.429 204.181C589.782 204.181 590.543 203.494 590.847 202.881H590.911V204H592.466V198.567C592.466 196.186 590.591 195.712 589.292 195.712C587.811 195.712 586.447 196.308 585.915 197.8L587.411 198.141C587.646 197.56 588.242 197.001 589.313 197.001C590.341 197.001 590.868 197.539 590.868 198.466V198.503C590.868 199.083 590.272 199.073 588.802 199.243C587.252 199.424 585.664 199.829 585.664 201.688C585.664 203.297 586.873 204.181 588.429 204.181ZM588.775 202.903C587.875 202.903 587.225 202.498 587.225 201.71C587.225 200.857 587.981 200.554 588.903 200.431C589.42 200.362 590.645 200.223 590.874 199.994V201.049C590.874 202.018 590.101 202.903 588.775 202.903Z" fill="#64778C"/>
<circle cx="645" cy="175" r="8" fill="url(#paint6_linear_1601_16562)"/>
<path d="M486.986 276.091H485.058V287H486.986V276.091ZM491.773 287.165C493.057 287.165 493.824 286.563 494.176 285.876H494.24V287H496.093V281.524C496.093 279.362 494.33 278.712 492.769 278.712C491.049 278.712 489.728 279.479 489.302 280.97L491.102 281.226C491.294 280.667 491.837 280.187 492.78 280.187C493.675 280.187 494.165 280.645 494.165 281.45V281.482C494.165 282.036 493.584 282.062 492.141 282.217C490.554 282.387 489.035 282.861 489.035 284.704C489.035 286.313 490.213 287.165 491.773 287.165ZM492.274 285.748C491.47 285.748 490.894 285.381 490.894 284.672C490.894 283.932 491.539 283.623 492.402 283.5C492.908 283.431 493.92 283.303 494.17 283.101V284.065C494.17 284.976 493.435 285.748 492.274 285.748ZM504.949 280.981C504.683 279.596 503.575 278.712 501.657 278.712C499.686 278.712 498.344 279.681 498.349 281.194C498.344 282.387 499.079 283.175 500.65 283.5L502.046 283.793C502.797 283.958 503.148 284.262 503.148 284.725C503.148 285.285 502.541 285.706 501.625 285.706C500.741 285.706 500.166 285.322 500 284.587L498.12 284.768C498.36 286.27 499.622 287.16 501.63 287.16C503.676 287.16 505.119 286.1 505.125 284.55C505.119 283.383 504.368 282.669 502.824 282.334L501.428 282.036C500.597 281.849 500.267 281.561 500.272 281.087C500.267 280.533 500.879 280.15 501.684 280.15C502.573 280.15 503.042 280.635 503.191 281.173L504.949 280.981ZM511.25 278.818H509.636V276.858H507.708V278.818H506.547V280.31H507.708V284.859C507.697 286.398 508.816 287.154 510.265 287.112C510.813 287.096 511.192 286.989 511.399 286.92L511.074 285.413C510.968 285.439 510.75 285.487 510.51 285.487C510.025 285.487 509.636 285.317 509.636 284.539V280.31H511.25V278.818ZM522.539 276.091H520.573V283.527H520.477L515.342 276.091H513.574V287H515.55V279.569H515.641L520.781 287H522.539V276.091ZM527.411 287.165C528.695 287.165 529.462 286.563 529.814 285.876H529.878V287H531.731V281.524C531.731 279.362 529.968 278.712 528.407 278.712C526.687 278.712 525.366 279.479 524.94 280.97L526.74 281.226C526.932 280.667 527.475 280.187 528.418 280.187C529.313 280.187 529.803 280.645 529.803 281.45V281.482C529.803 282.036 529.222 282.062 527.779 282.217C526.191 282.387 524.673 282.861 524.673 284.704C524.673 286.313 525.851 287.165 527.411 287.165ZM527.912 285.748C527.108 285.748 526.532 285.381 526.532 284.672C526.532 283.932 527.177 283.623 528.04 283.5C528.546 283.431 529.558 283.303 529.808 283.101V284.065C529.808 284.976 529.073 285.748 527.912 285.748ZM534.12 287H536.048V282.025C536.048 281.018 536.72 280.336 537.551 280.336C538.366 280.336 538.925 280.885 538.925 281.727V287H540.816V281.897C540.816 280.975 541.364 280.336 542.297 280.336C543.074 280.336 543.692 280.794 543.692 281.806V287H545.626V281.508C545.626 279.681 544.571 278.712 543.069 278.712C541.881 278.712 540.976 279.298 540.613 280.208H540.528C540.214 279.282 539.42 278.712 538.318 278.712C537.22 278.712 536.4 279.276 536.059 280.208H535.963V278.818H534.12V287ZM551.654 287.16C553.561 287.16 554.872 286.228 555.212 284.805L553.412 284.603C553.151 285.295 552.512 285.658 551.681 285.658C550.434 285.658 549.609 284.837 549.593 283.436H555.292V282.845C555.292 279.974 553.567 278.712 551.553 278.712C549.209 278.712 547.681 280.432 547.681 282.957C547.681 285.525 549.188 287.16 551.654 287.16ZM549.598 282.137C549.657 281.093 550.429 280.214 551.58 280.214C552.688 280.214 553.433 281.023 553.444 282.137H549.598Z" fill="#6048E5"/>
<path d="M485.566 300.091V311H487.132V303.1H487.233L490.45 310.984H491.75L494.967 303.106H495.069V311H496.635V300.091H494.637L491.164 308.571H491.036L487.563 300.091H485.566ZM501.281 311.181C502.634 311.181 503.396 310.494 503.699 309.881H503.763V311H505.318V305.567C505.318 303.186 503.443 302.712 502.144 302.712C500.663 302.712 499.299 303.308 498.767 304.8L500.263 305.141C500.498 304.56 501.094 304.001 502.165 304.001C503.193 304.001 503.72 304.539 503.72 305.466V305.503C503.72 306.083 503.124 306.073 501.654 306.243C500.104 306.424 498.516 306.829 498.516 308.688C498.516 310.297 499.725 311.181 501.281 311.181ZM501.627 309.903C500.727 309.903 500.077 309.498 500.077 308.71C500.077 307.857 500.833 307.554 501.755 307.431C502.272 307.362 503.497 307.223 503.726 306.994V308.049C503.726 309.018 502.953 309.903 501.627 309.903ZM509.032 306.142C509.032 304.837 509.858 304.091 510.993 304.091C512.09 304.091 512.745 304.789 512.745 305.988V311H514.338V305.796C514.338 303.756 513.219 302.712 511.536 302.712C510.263 302.712 509.496 303.266 509.112 304.15H509.011V300.091H507.44V311H509.032V306.142ZM518.844 311.181C520.197 311.181 520.959 310.494 521.263 309.881H521.327V311H522.882V305.567C522.882 303.186 521.007 302.712 519.707 302.712C518.226 302.712 516.863 303.308 516.33 304.8L517.827 305.141C518.061 304.56 518.658 304.001 519.729 304.001C520.757 304.001 521.284 304.539 521.284 305.466V305.503C521.284 306.083 520.687 306.073 519.217 306.243C517.667 306.424 516.08 306.829 516.08 308.688C516.08 310.297 517.289 311.181 518.844 311.181ZM519.191 309.903C518.29 309.903 517.64 309.498 517.64 308.71C517.64 307.857 518.397 307.554 519.318 307.431C519.835 307.362 521.06 307.223 521.289 306.994V308.049C521.289 309.018 520.517 309.903 519.191 309.903ZM526.596 306.142C526.596 304.837 527.395 304.091 528.503 304.091C529.584 304.091 530.239 304.8 530.239 305.988V311H531.832V305.796C531.832 303.772 530.719 302.712 529.046 302.712C527.816 302.712 527.011 303.282 526.633 304.15H526.532V302.818H525.003V311H526.596V306.142ZM533.968 311H535.561V302.818H533.968V311ZM534.772 301.556C535.321 301.556 535.779 301.13 535.779 300.608C535.779 300.086 535.321 299.654 534.772 299.654C534.218 299.654 533.766 300.086 533.766 300.608C533.766 301.13 534.218 301.556 534.772 301.556Z" fill="#64778C"/>
<circle cx="572" cy="282" r="8" fill="url(#paint7_linear_1601_16562)"/>
<line x1="717.5" y1="368" x2="717.5" y2="412" stroke="url(#paint8_linear_1601_16562)"/>
<circle opacity="0.1" cx="717" cy="316" r="20.5" stroke="#6048E5"/>
<circle opacity="0.3" cx="717" cy="316" r="15" stroke="#6048E5" stroke-width="2"/>
<circle cx="717" cy="316" r="9" fill="url(#paint9_linear_1601_16562)"/>
<path d="M686.453 354H688.429V350.314H690.517C693.037 350.314 694.39 348.801 694.39 346.702C694.39 344.62 693.053 343.091 690.544 343.091H686.453V354ZM688.429 348.689V344.742H690.24C691.721 344.742 692.376 345.541 692.376 346.702C692.376 347.864 691.721 348.689 690.251 348.689H688.429ZM696.556 354H703.694V352.343H698.532V349.366H703.284V347.709H698.532V344.748H703.651V343.091H696.556V354ZM706.118 354H708.094V350.005H710.107L712.249 354H714.454L712.094 349.675C713.378 349.158 714.054 348.061 714.054 346.58C714.054 344.497 712.712 343.091 710.209 343.091H706.118V354ZM708.094 348.364V344.742H709.905C711.38 344.742 712.041 345.419 712.041 346.58C712.041 347.741 711.38 348.364 709.916 348.364H708.094ZM722.252 346.09H724.154C724.116 344.247 722.545 342.942 720.223 342.942C717.932 342.942 716.212 344.231 716.217 346.159C716.217 347.725 717.33 348.625 719.125 349.089L720.366 349.408C721.544 349.707 722.321 350.074 722.327 350.921C722.321 351.853 721.437 352.477 720.148 352.477C718.912 352.477 717.953 351.923 717.874 350.777H715.929C716.009 352.945 717.623 354.165 720.164 354.165C722.779 354.165 724.298 352.86 724.303 350.937C724.298 349.046 722.737 348.183 721.096 347.794L720.073 347.539C719.179 347.326 718.209 346.947 718.22 346.037C718.225 345.216 718.96 344.614 720.196 344.614C721.373 344.614 722.151 345.163 722.252 346.09ZM736.263 348.545C736.263 345.019 734.111 342.942 731.25 342.942C728.384 342.942 726.238 345.019 726.238 348.545C726.238 352.066 728.384 354.149 731.25 354.149C734.111 354.149 736.263 352.072 736.263 348.545ZM734.276 348.545C734.276 351.028 733.029 352.375 731.25 352.375C729.476 352.375 728.225 351.028 728.225 348.545C728.225 346.063 729.476 344.716 731.25 344.716C733.029 344.716 734.276 346.063 734.276 348.545ZM747.546 343.091H745.58V350.527H745.484L740.349 343.091H738.581V354H740.557V346.569H740.648L745.788 354H747.546V343.091Z" fill="#6048E5"/>
<rect y="-1" width="1437" height="98" fill="url(#paint10_linear_1601_16562)"/>
<defs>
<linearGradient id="paint0_linear_1601_16562" x1="732" y1="311" x2="853.357" y2="289.616" gradientUnits="userSpaceOnUse">
<stop stop-color="#BDB4FE"/>
<stop offset="1" stop-color="#BDB4FE" stop-opacity="0"/>
</linearGradient>
<linearGradient id="paint1_linear_1601_16562" x1="701" y1="312" x2="582.871" y2="287.873" gradientUnits="userSpaceOnUse">
<stop stop-color="#BDB4FE"/>
<stop offset="1" stop-color="#BDB4FE" stop-opacity="0"/>
</linearGradient>
<linearGradient id="paint2_linear_1601_16562" x1="710" y1="302.001" x2="647.992" y2="300.486" gradientUnits="userSpaceOnUse">
<stop stop-color="#BDB4FE"/>
<stop offset="1" stop-color="#BDB4FE" stop-opacity="0"/>
</linearGradient>
<linearGradient id="paint3_linear_1601_16562" x1="724" y1="302.001" x2="799.429" y2="299.884" gradientUnits="userSpaceOnUse">
<stop stop-color="#BDB4FE"/>
<stop offset="1" stop-color="#BDB4FE" stop-opacity="0"/>
</linearGradient>
<linearGradient id="paint4_linear_1601_16562" x1="863" y1="266" x2="863" y2="282" gradientUnits="userSpaceOnUse">
<stop stop-color="#7963F5"/>
<stop offset="1" stop-color="#5D46DB"/>
</linearGradient>
<linearGradient id="paint5_linear_1601_16562" x1="803" y1="159" x2="803" y2="175" gradientUnits="userSpaceOnUse">
<stop stop-color="#7963F5"/>
<stop offset="1" stop-color="#5D46DB"/>
</linearGradient>
<linearGradient id="paint6_linear_1601_16562" x1="645" y1="167" x2="645" y2="183" gradientUnits="userSpaceOnUse">
<stop stop-color="#7963F5"/>
<stop offset="1" stop-color="#5D46DB"/>
</linearGradient>
<linearGradient id="paint7_linear_1601_16562" x1="572" y1="274" x2="572" y2="290" gradientUnits="userSpaceOnUse">
<stop stop-color="#7963F5"/>
<stop offset="1" stop-color="#5D46DB"/>
</linearGradient>
<linearGradient id="paint8_linear_1601_16562" x1="716" y1="368" x2="742.611" y2="381.314" gradientUnits="userSpaceOnUse">
<stop stop-color="#BDB4FE"/>
<stop offset="1" stop-color="#BDB4FE" stop-opacity="0"/>
</linearGradient>
<linearGradient id="paint9_linear_1601_16562" x1="717" y1="307" x2="717" y2="325" gradientUnits="userSpaceOnUse">
<stop stop-color="#7963F5"/>
<stop offset="1" stop-color="#5D46DB"/>
</linearGradient>
<linearGradient id="paint10_linear_1601_16562" x1="718.5" y1="-1" x2="718.5" y2="97" gradientUnits="userSpaceOnUse">
<stop stop-color="white"/>
<stop offset="1" stop-color="white" stop-opacity="0"/>
</linearGradient>
</defs>
</svg>
