<svg width="353" height="236" viewBox="0 0 353 236" fill="none" xmlns="http://www.w3.org/2000/svg">
<path d="M243 111L181 134" stroke="url(#paint0_linear_1692_17281)"/>
<path d="M87 115L153 135" stroke="url(#paint1_linear_1692_17281)"/>
<path d="M121 49L160 126" stroke="url(#paint2_linear_1692_17281)"/>
<path d="M199 59L174 126" stroke="url(#paint3_linear_1692_17281)"/>
<line x1="166.5" y1="192" x2="166.5" y2="236" stroke="url(#paint4_linear_1692_17281)"/>
<circle cx="254" cy="109" r="8" fill="url(#paint5_linear_1692_17281)"/>
<path d="M246.818 138.16C248.725 138.16 250.036 137.228 250.377 135.805L248.576 135.603C248.315 136.295 247.676 136.658 246.845 136.658C245.599 136.658 244.773 135.837 244.757 134.436H250.457V133.845C250.457 130.974 248.731 129.712 246.717 129.712C244.373 129.712 242.845 131.432 242.845 133.957C242.845 136.525 244.352 138.16 246.818 138.16ZM244.762 133.137C244.821 132.093 245.593 131.214 246.744 131.214C247.852 131.214 248.598 132.023 248.608 133.137H244.762ZM252.538 138H254.466V133.025C254.466 132.018 255.137 131.336 255.968 131.336C256.783 131.336 257.343 131.885 257.343 132.727V138H259.234V132.897C259.234 131.975 259.782 131.336 260.714 131.336C261.492 131.336 262.11 131.794 262.11 132.806V138H264.044V132.508C264.044 130.681 262.989 129.712 261.487 129.712C260.299 129.712 259.393 130.298 259.031 131.208H258.946C258.632 130.282 257.838 129.712 256.735 129.712C255.638 129.712 254.818 130.276 254.477 131.208H254.381V129.818H252.538V138ZM268.804 138.165C270.088 138.165 270.855 137.563 271.206 136.876H271.27V138H273.124V132.524C273.124 130.362 271.361 129.712 269.8 129.712C268.08 129.712 266.759 130.479 266.333 131.97L268.133 132.226C268.325 131.667 268.868 131.187 269.811 131.187C270.706 131.187 271.196 131.645 271.196 132.45V132.482C271.196 133.036 270.615 133.062 269.172 133.217C267.584 133.387 266.066 133.861 266.066 135.704C266.066 137.313 267.243 138.165 268.804 138.165ZM269.305 136.748C268.501 136.748 267.925 136.381 267.925 135.672C267.925 134.932 268.57 134.623 269.433 134.5C269.939 134.431 270.951 134.303 271.201 134.101V135.065C271.201 135.976 270.466 136.748 269.305 136.748ZM275.513 138H277.441V129.818H275.513V138ZM276.482 128.657C277.095 128.657 277.596 128.188 277.596 127.613C277.596 127.032 277.095 126.564 276.482 126.564C275.865 126.564 275.364 127.032 275.364 127.613C275.364 128.188 275.865 128.657 276.482 128.657ZM281.802 127.091H279.874V138H281.802V127.091Z" fill="#6048E5"/>
<path d="M242.999 158H244.486V153.292C244.486 152.263 245.207 151.547 246.052 151.547C246.877 151.547 247.449 152.094 247.449 152.924V158H248.93V153.133C248.93 152.213 249.492 151.547 250.462 151.547C251.247 151.547 251.893 151.984 251.893 153.018V158H253.38V152.879C253.38 151.134 252.406 150.264 251.023 150.264C249.925 150.264 249.099 150.791 248.732 151.607H248.652C248.319 150.771 247.618 150.264 246.599 150.264C245.589 150.264 244.839 150.766 244.521 151.607H244.426V150.364H242.999V158ZM257.595 158.169C258.857 158.169 259.568 157.528 259.852 156.956H259.911V158H261.363V152.929C261.363 150.707 259.613 150.264 258.4 150.264C257.018 150.264 255.745 150.821 255.248 152.213L256.645 152.531C256.864 151.989 257.421 151.467 258.42 151.467C259.379 151.467 259.872 151.969 259.872 152.835V152.869C259.872 153.411 259.315 153.401 257.943 153.56C256.496 153.729 255.014 154.107 255.014 155.842C255.014 157.344 256.143 158.169 257.595 158.169ZM257.918 156.976C257.078 156.976 256.471 156.598 256.471 155.862C256.471 155.067 257.177 154.783 258.037 154.669C258.519 154.604 259.663 154.475 259.877 154.261V155.246C259.877 156.151 259.156 156.976 257.918 156.976ZM264.83 153.466C264.83 152.248 265.6 151.552 266.659 151.552C267.683 151.552 268.295 152.203 268.295 153.322V158H269.781V153.143C269.781 151.239 268.737 150.264 267.166 150.264C265.978 150.264 265.262 150.781 264.904 151.607H264.81V147.818H263.343V158H264.83V153.466ZM273.987 158.169C275.25 158.169 275.961 157.528 276.244 156.956H276.304V158H277.756V152.929C277.756 150.707 276.006 150.264 274.793 150.264C273.411 150.264 272.138 150.821 271.641 152.213L273.038 152.531C273.256 151.989 273.813 151.467 274.812 151.467C275.772 151.467 276.264 151.969 276.264 152.835V152.869C276.264 153.411 275.707 153.401 274.335 153.56C272.888 153.729 271.407 154.107 271.407 155.842C271.407 157.344 272.536 158.169 273.987 158.169ZM274.31 156.976C273.47 156.976 272.864 156.598 272.864 155.862C272.864 155.067 273.57 154.783 274.43 154.669C274.912 154.604 276.055 154.475 276.269 154.261V155.246C276.269 156.151 275.548 156.976 274.31 156.976ZM281.222 153.466C281.222 152.248 281.968 151.552 283.002 151.552C284.011 151.552 284.623 152.213 284.623 153.322V158H286.109V153.143C286.109 151.254 285.07 150.264 283.509 150.264C282.361 150.264 281.61 150.796 281.257 151.607H281.162V150.364H279.736V158H281.222V153.466ZM288.103 158H289.589V150.364H288.103V158ZM288.854 149.185C289.366 149.185 289.793 148.788 289.793 148.3C289.793 147.813 289.366 147.411 288.854 147.411C288.336 147.411 287.914 147.813 287.914 148.3C287.914 148.788 288.336 149.185 288.854 149.185ZM297.719 160.769C298.868 160.769 300.195 160.456 300.811 160.168L300.463 159.079C300.046 159.228 298.897 159.591 297.784 159.591C294.438 159.591 292.643 157.746 292.643 154.445C292.643 151.283 294.418 149.24 297.6 149.24C300.508 149.24 302.243 151.109 302.238 153.635C302.243 155.793 301.965 156.762 301.06 156.762C300.548 156.762 300.265 156.344 300.265 155.822V151.209H299.042V151.766H298.977C298.828 151.328 297.963 150.935 296.924 151.06C295.487 151.229 294.254 152.417 294.254 154.376C294.254 156.419 295.298 157.786 296.973 157.851C298.107 157.901 298.843 157.374 299.076 156.787H299.136C299.255 157.587 300.12 157.94 300.971 157.911C303.093 157.871 303.496 155.783 303.496 153.685C303.496 150.692 301.448 148.087 297.65 148.087C293.667 148.087 291.326 150.518 291.321 154.435C291.326 158.467 293.608 160.769 297.719 160.769ZM297.262 156.633C295.964 156.633 295.517 155.519 295.512 154.316C295.517 153.173 296.158 152.263 297.282 152.263C298.5 152.263 299.047 152.8 299.051 154.311C299.056 155.862 298.554 156.633 297.262 156.633ZM242.999 173H244.486V165.364H242.999V173ZM243.75 164.185C244.262 164.185 244.69 163.788 244.69 163.3C244.69 162.813 244.262 162.411 243.75 162.411C243.233 162.411 242.81 162.813 242.81 163.3C242.81 163.788 243.233 164.185 243.75 164.185ZM247.972 168.466C247.972 167.248 248.718 166.552 249.752 166.552C250.761 166.552 251.373 167.213 251.373 168.322V173H252.859V168.143C252.859 166.254 251.82 165.264 250.259 165.264C249.111 165.264 248.36 165.796 248.007 166.607H247.912V165.364H246.486V173H247.972V168.466ZM254.972 173H256.424V171.812H256.548C256.817 172.299 257.363 173.149 258.756 173.149C260.605 173.149 261.947 171.668 261.947 169.197C261.947 166.721 260.585 165.264 258.741 165.264C257.324 165.264 256.812 166.129 256.548 166.602H256.459V162.818H254.972V173ZM256.429 169.182C256.429 167.586 257.125 166.527 258.422 166.527C259.77 166.527 260.446 167.665 260.446 169.182C260.446 170.713 259.75 171.881 258.422 171.881C257.145 171.881 256.429 170.788 256.429 169.182ZM266.833 173.154C268.986 173.154 270.393 171.578 270.393 169.217C270.393 166.84 268.986 165.264 266.833 165.264C264.68 165.264 263.273 166.84 263.273 169.217C263.273 171.578 264.68 173.154 266.833 173.154ZM266.838 171.906C265.431 171.906 264.775 170.678 264.775 169.212C264.775 167.75 265.431 166.507 266.838 166.507C268.235 166.507 268.891 167.75 268.891 169.212C268.891 170.678 268.235 171.906 266.838 171.906ZM272.911 165.364H271.28L273.627 169.182L271.25 173H272.881L274.596 170.146L276.316 173H277.942L275.541 169.182L277.922 165.364H276.297L274.596 168.337L272.911 165.364ZM280.428 173.094C280.97 173.094 281.422 172.652 281.422 172.1C281.422 171.558 280.97 171.111 280.428 171.111C279.881 171.111 279.434 171.558 279.434 172.1C279.434 172.652 279.881 173.094 280.428 173.094ZM286.63 173.154C288.435 173.154 289.603 172.07 289.767 170.584H288.32C288.131 171.409 287.49 171.896 286.64 171.896C285.382 171.896 284.572 170.847 284.572 169.182C284.572 167.546 285.397 166.517 286.64 166.517C287.585 166.517 288.161 167.114 288.32 167.83H289.767C289.608 166.288 288.35 165.264 286.615 165.264C284.462 165.264 283.07 166.885 283.07 169.217C283.07 171.518 284.413 173.154 286.63 173.154ZM294.573 173.154C296.726 173.154 298.133 171.578 298.133 169.217C298.133 166.84 296.726 165.264 294.573 165.264C292.421 165.264 291.014 166.84 291.014 169.217C291.014 171.578 292.421 173.154 294.573 173.154ZM294.578 171.906C293.171 171.906 292.515 170.678 292.515 169.212C292.515 167.75 293.171 166.507 294.578 166.507C295.975 166.507 296.632 167.75 296.632 169.212C296.632 170.678 295.975 171.906 294.578 171.906ZM299.792 173H301.279V168.292C301.279 167.263 302 166.547 302.845 166.547C303.67 166.547 304.242 167.094 304.242 167.924V173H305.723V168.133C305.723 167.213 306.285 166.547 307.255 166.547C308.04 166.547 308.686 166.984 308.686 168.018V173H310.173V167.879C310.173 166.134 309.199 165.264 307.816 165.264C306.718 165.264 305.892 165.791 305.525 166.607H305.445C305.112 165.771 304.411 165.264 303.392 165.264C302.382 165.264 301.632 165.766 301.314 166.607H301.219V165.364H299.792V173Z" fill="#64778C"/>
<a href="mailto:mahani@inbox.com">
<rect fill="black" fill-opacity="0" y="-0.971591" width="62.1374" height="16.9432"/>
</a>
<a href="mailto:mahani@inbox.com">
<rect fill="black" fill-opacity="0" y="14.0284" width="69.1623" height="16.9432"/>
</a>
<circle cx="220" cy="12" r="8" fill="url(#paint6_linear_1692_17281)"/>
<path d="M209.228 32.8182V41.4421C209.228 42.1293 208.935 42.4968 208.195 42.4968C208.099 42.4968 208.024 42.4915 207.918 42.4862V44.0575C208.056 44.0682 208.174 44.0682 208.312 44.0682C210.118 44.0682 211.157 43.2372 211.157 41.4688V32.8182H209.228ZM210.187 31.657C210.8 31.657 211.3 31.1882 211.3 30.6129C211.3 30.0323 210.8 29.5636 210.187 29.5636C209.569 29.5636 209.068 30.0323 209.068 30.6129C209.068 31.1882 209.569 31.657 210.187 31.657ZM217.158 41.1598C219.555 41.1598 221.079 39.4712 221.079 36.9411C221.079 34.4055 219.555 32.7116 217.158 32.7116C214.761 32.7116 213.238 34.4055 213.238 36.9411C213.238 39.4712 214.761 41.1598 217.158 41.1598ZM217.169 39.6151C215.843 39.6151 215.193 38.4325 215.193 36.9357C215.193 35.4389 215.843 34.2404 217.169 34.2404C218.474 34.2404 219.124 35.4389 219.124 36.9357C219.124 38.4325 218.474 39.6151 217.169 39.6151ZM223.251 41H225.147V39.7109H225.259C225.562 40.3075 226.196 41.1438 227.603 41.1438C229.531 41.1438 230.974 39.6151 230.974 36.9197C230.974 34.1925 229.488 32.7116 227.597 32.7116C226.154 32.7116 225.552 33.5799 225.259 34.1712H225.179V30.0909H223.251V41ZM225.142 36.9091C225.142 35.3217 225.823 34.2937 227.065 34.2937C228.348 34.2937 229.009 35.3857 229.009 36.9091C229.009 38.4432 228.338 39.5618 227.065 39.5618C225.834 39.5618 225.142 38.4964 225.142 36.9091ZM232.069 31.7475H235.441V41H237.401V31.7475H240.773V30.0909H232.069V31.7475ZM242.815 41H244.744V32.8182H242.815V41ZM243.785 31.657C244.397 31.657 244.898 31.1882 244.898 30.6129C244.898 30.0323 244.397 29.5636 243.785 29.5636C243.167 29.5636 242.666 30.0323 242.666 30.6129C242.666 31.1882 243.167 31.657 243.785 31.657ZM251.262 32.8182H249.648V30.858H247.72V32.8182H246.559V34.3097H247.72V38.8587C247.709 40.3981 248.828 41.1545 250.277 41.1119C250.825 41.0959 251.203 40.9893 251.411 40.9201L251.086 39.4126C250.98 39.4393 250.761 39.4872 250.522 39.4872C250.037 39.4872 249.648 39.3168 249.648 38.5391V34.3097H251.262V32.8182ZM255.429 30.0909H253.501V41H255.429V30.0909ZM261.484 41.1598C263.391 41.1598 264.701 40.2276 265.042 38.8054L263.242 38.603C262.981 39.2955 262.341 39.6577 261.51 39.6577C260.264 39.6577 259.438 38.8374 259.422 37.4364H265.122V36.8452C265.122 33.9741 263.396 32.7116 261.383 32.7116C259.039 32.7116 257.51 34.4322 257.51 36.957C257.51 39.5245 259.018 41.1598 261.484 41.1598ZM259.428 36.1367C259.486 35.0927 260.259 34.2138 261.409 34.2138C262.517 34.2138 263.263 35.0234 263.274 36.1367H259.428Z" fill="#6048E5"/>
<path d="M209.302 65H210.947V61.1648H213.185C215.715 61.1648 216.967 59.636 216.967 57.6225C216.967 55.6143 215.726 54.0909 213.19 54.0909H209.302V65ZM210.947 59.7692V55.5025H213.014C214.644 55.5025 215.31 56.3867 215.31 57.6225C215.31 58.8583 214.644 59.7692 213.036 59.7692H210.947ZM218.768 65H220.361V60.0036C220.361 58.9329 221.187 58.1605 222.316 58.1605C222.646 58.1605 223.019 58.2191 223.147 58.2564V56.733C222.987 56.7116 222.673 56.6957 222.47 56.6957C221.512 56.6957 220.691 57.239 220.393 58.1179H220.308V56.8182H218.768V65ZM227.679 65.1651C229.985 65.1651 231.493 63.4766 231.493 60.9464C231.493 58.4002 229.985 56.7116 227.679 56.7116C225.372 56.7116 223.865 58.4002 223.865 60.9464C223.865 63.4766 225.372 65.1651 227.679 65.1651ZM227.684 63.8281C226.177 63.8281 225.473 62.5124 225.473 60.9411C225.473 59.375 226.177 58.0433 227.684 58.0433C229.181 58.0433 229.884 59.375 229.884 60.9411C229.884 62.5124 229.181 63.8281 227.684 63.8281ZM236.333 65.1598C237.825 65.1598 238.411 64.2489 238.698 63.7269H238.831V65H240.387V54.0909H238.794V58.1445H238.698C238.411 57.6385 237.867 56.7116 236.344 56.7116C234.368 56.7116 232.913 58.2724 232.913 60.9251C232.913 63.5724 234.346 65.1598 236.333 65.1598ZM236.685 63.8015C235.263 63.8015 234.522 62.5497 234.522 60.9091C234.522 59.2844 235.247 58.0646 236.685 58.0646C238.075 58.0646 238.821 59.1992 238.821 60.9091C238.821 62.6296 238.059 63.8015 236.685 63.8015ZM247.843 61.6069C247.848 62.9972 246.815 63.6577 245.92 63.6577C244.935 63.6577 244.253 62.9439 244.253 61.8306V56.8182H242.66V62.0224C242.66 64.0518 243.773 65.1065 245.345 65.1065C246.575 65.1065 247.411 64.4567 247.79 63.5831H247.875V65H249.441V56.8182H247.843V61.6069ZM255.027 65.1651C256.961 65.1651 258.213 64.0039 258.388 62.4112H256.838C256.636 63.2955 255.949 63.8175 255.038 63.8175C253.69 63.8175 252.822 62.6935 252.822 60.9091C252.822 59.1566 253.706 58.054 255.038 58.054C256.05 58.054 256.668 58.6932 256.838 59.4602H258.388C258.218 57.8089 256.87 56.7116 255.011 56.7116C252.705 56.7116 251.213 58.4482 251.213 60.9464C251.213 63.4126 252.652 65.1651 255.027 65.1651ZM263.911 56.8182H262.233V54.858H260.64V56.8182H259.442V58.0966H260.64V62.9279C260.635 64.4141 261.77 65.1332 263.027 65.1065C263.533 65.1012 263.874 65.0053 264.06 64.9361L263.772 63.6204C263.666 63.6417 263.469 63.6896 263.213 63.6896C262.696 63.6896 262.233 63.5192 262.233 62.5977V58.0966H263.911V56.8182ZM269.77 65H276.674V63.5831H271.416V60.2433H276.253V58.8317H271.416V55.5078H276.61V54.0909H269.77V65ZM280.273 60.142C280.273 58.837 281.072 58.0913 282.18 58.0913C283.261 58.0913 283.917 58.7997 283.917 59.9876V65H285.509V59.7958C285.509 57.7717 284.396 56.7116 282.723 56.7116C281.493 56.7116 280.689 57.2816 280.311 58.1499H280.209V56.8182H278.681V65H280.273V60.142ZM291.076 68.2386C293.159 68.2386 294.767 67.2852 294.767 65.1811V56.8182H293.206V58.1445H293.089C292.807 57.6385 292.242 56.7116 290.719 56.7116C288.743 56.7116 287.288 58.2724 287.288 60.8771C287.288 63.4872 288.775 64.8775 290.708 64.8775C292.21 64.8775 292.791 64.0305 293.079 63.5085H293.18V65.1172C293.18 66.4009 292.301 66.9549 291.092 66.9549C289.765 66.9549 289.249 66.2891 288.966 65.8203L287.597 66.3849C288.029 67.3864 289.121 68.2386 291.076 68.2386ZM291.06 63.5565C289.638 63.5565 288.897 62.4645 288.897 60.8558C288.897 59.2844 289.622 58.0646 291.06 58.0646C292.45 58.0646 293.196 59.1992 293.196 60.8558C293.196 62.5444 292.434 63.5565 291.06 63.5565ZM296.903 65H298.496V56.8182H296.903V65ZM297.708 55.5558C298.256 55.5558 298.714 55.1296 298.714 54.6076C298.714 54.0856 298.256 53.6541 297.708 53.6541C297.154 53.6541 296.701 54.0856 296.701 54.6076C296.701 55.1296 297.154 55.5558 297.708 55.5558ZM302.231 60.142C302.231 58.837 303.03 58.0913 304.138 58.0913C305.22 58.0913 305.875 58.7997 305.875 59.9876V65H307.467V59.7958C307.467 57.7717 306.354 56.7116 304.682 56.7116C303.451 56.7116 302.647 57.2816 302.269 58.1499H302.167V56.8182H300.639V65H302.231V60.142ZM313.13 65.1651C314.914 65.1651 316.177 64.2862 316.539 62.9545L315.031 62.6829C314.744 63.4553 314.051 63.8494 313.146 63.8494C311.782 63.8494 310.866 62.9652 310.823 61.3885H316.64V60.8239C316.64 57.8675 314.871 56.7116 313.018 56.7116C310.738 56.7116 309.236 58.4482 309.236 60.9624C309.236 63.5032 310.717 65.1651 313.13 65.1651ZM310.829 60.1953C310.892 59.0341 311.734 58.0273 313.028 58.0273C314.264 58.0273 315.074 58.9435 315.079 60.1953H310.829ZM321.933 65.1651C323.718 65.1651 324.98 64.2862 325.342 62.9545L323.835 62.6829C323.547 63.4553 322.855 63.8494 321.949 63.8494C320.586 63.8494 319.67 62.9652 319.627 61.3885H325.444V60.8239C325.444 57.8675 323.675 56.7116 321.822 56.7116C319.542 56.7116 318.04 58.4482 318.04 60.9624C318.04 63.5032 319.52 65.1651 321.933 65.1651ZM319.632 60.1953C319.696 59.0341 320.538 58.0273 321.832 58.0273C323.068 58.0273 323.878 58.9435 323.883 60.1953H319.632ZM327.211 65H328.803V60.0036C328.803 58.9329 329.629 58.1605 330.758 58.1605C331.089 58.1605 331.462 58.2191 331.589 58.2564V56.733C331.43 56.7116 331.115 56.6957 330.913 56.6957C329.954 56.6957 329.134 57.239 328.835 58.1179H328.75V56.8182H327.211V65Z" fill="#64778C"/>
<a href="mailto:mahani@inbox.com">
<rect fill="black" fill-opacity="0" x="0.103027" y="2.9233" width="123.801" height="18.1534"/>
</a>
<circle cx="75" cy="112" r="8" fill="url(#paint7_linear_1692_17281)"/>
<path d="M17.9861 130.091H16.0579V141H17.9861V130.091ZM22.7734 141.165C24.0571 141.165 24.8242 140.563 25.1757 139.876H25.2397V141H27.0934V135.524C27.0934 133.362 25.3302 132.712 23.7695 132.712C22.049 132.712 20.7279 133.479 20.3018 134.97L22.1022 135.226C22.294 134.667 22.8373 134.187 23.7801 134.187C24.675 134.187 25.1651 134.645 25.1651 135.45V135.482C25.1651 136.036 24.5845 136.062 23.1409 136.217C21.5536 136.387 20.0355 136.861 20.0355 138.704C20.0355 140.313 21.2127 141.165 22.7734 141.165ZM23.2741 139.748C22.4698 139.748 21.8945 139.381 21.8945 138.672C21.8945 137.932 22.539 137.623 23.4019 137.5C23.908 137.431 24.9201 137.303 25.1704 137.101V138.065C25.1704 138.976 24.4353 139.748 23.2741 139.748ZM35.9489 134.981C35.6826 133.596 34.5746 132.712 32.657 132.712C30.6861 132.712 29.3438 133.681 29.3491 135.194C29.3438 136.387 30.0789 137.175 31.6502 137.5L33.0458 137.793C33.7969 137.958 34.1485 138.262 34.1485 138.725C34.1485 139.285 33.5412 139.706 32.625 139.706C31.7408 139.706 31.1655 139.322 31.0004 138.587L29.1201 138.768C29.3598 140.27 30.6222 141.16 32.6304 141.16C34.6758 141.16 36.1193 140.1 36.1247 138.55C36.1193 137.383 35.3683 136.669 33.8235 136.334L32.4279 136.036C31.597 135.849 31.2667 135.561 31.272 135.087C31.2667 134.533 31.8793 134.15 32.6836 134.15C33.5732 134.15 34.0419 134.635 34.1911 135.173L35.9489 134.981ZM42.2503 132.818H40.6363V130.858H38.708V132.818H37.5468V134.31H38.708V138.859C38.6974 140.398 39.816 141.154 41.2648 141.112C41.8135 141.096 42.1917 140.989 42.3994 140.92L42.0745 139.413C41.968 139.439 41.7496 139.487 41.5099 139.487C41.0251 139.487 40.6363 139.317 40.6363 138.539V134.31H42.2503V132.818ZM53.5388 130.091H51.5732V137.527H51.4774L46.3424 130.091H44.5739V141H46.5501V133.569H46.6407L51.781 141H53.5388V130.091ZM58.4113 141.165C59.695 141.165 60.4621 140.563 60.8136 139.876H60.8775V141H62.7312V135.524C62.7312 133.362 60.9681 132.712 59.4074 132.712C57.6869 132.712 56.3658 133.479 55.9397 134.97L57.7401 135.226C57.9319 134.667 58.4752 134.187 59.418 134.187C60.3129 134.187 60.803 134.645 60.803 135.45V135.482C60.803 136.036 60.2224 136.062 58.7788 136.217C57.1915 136.387 55.6734 136.861 55.6734 138.704C55.6734 140.313 56.8506 141.165 58.4113 141.165ZM58.912 139.748C58.1077 139.748 57.5324 139.381 57.5324 138.672C57.5324 137.932 58.1769 137.623 59.0398 137.5C59.5459 137.431 60.5579 137.303 60.8083 137.101V138.065C60.8083 138.976 60.0732 139.748 58.912 139.748ZM65.1202 141H67.0484V136.025C67.0484 135.018 67.7196 134.336 68.5506 134.336C69.3655 134.336 69.9248 134.885 69.9248 135.727V141H71.8158V135.897C71.8158 134.975 72.3645 134.336 73.2967 134.336C74.0744 134.336 74.6923 134.794 74.6923 135.806V141H76.6258V135.508C76.6258 133.681 75.5712 132.712 74.069 132.712C72.8812 132.712 71.9756 133.298 71.6134 134.208H71.5282C71.2139 133.282 70.4202 132.712 69.3176 132.712C68.2203 132.712 67.4 133.276 67.0591 134.208H66.9632V132.818H65.1202V141ZM82.6542 141.16C84.5612 141.16 85.8716 140.228 86.2125 138.805L84.412 138.603C84.151 139.295 83.5118 139.658 82.6809 139.658C81.4344 139.658 80.6088 138.837 80.5928 137.436H86.2924V136.845C86.2924 133.974 84.5665 132.712 82.553 132.712C80.2093 132.712 78.6805 134.432 78.6805 136.957C78.6805 139.525 80.188 141.16 82.6542 141.16ZM80.5981 136.137C80.6567 135.093 81.4291 134.214 82.5797 134.214C83.6876 134.214 84.4334 135.023 84.444 136.137H80.5981Z" fill="#6048E5"/>
<path d="M35.5657 154.091V165H37.1317V157.1H37.233L40.4503 164.984H41.75L44.9673 157.106H45.0685V165H46.6346V154.091H44.6371L41.1641 162.571H41.0362L37.5632 154.091H35.5657ZM51.2808 165.181C52.6338 165.181 53.3955 164.494 53.6991 163.881H53.7631V165H55.3184V159.567C55.3184 157.186 53.4434 156.712 52.1437 156.712C50.6629 156.712 49.2993 157.308 48.7666 158.8L50.2634 159.141C50.4978 158.56 51.0944 158.001 52.165 158.001C53.1931 158.001 53.7204 158.539 53.7204 159.466V159.503C53.7204 160.083 53.1238 160.073 51.6537 160.243C50.1036 160.424 48.5162 160.829 48.5162 162.688C48.5162 164.297 49.7254 165.181 51.2808 165.181ZM51.627 163.903C50.7268 163.903 50.077 163.498 50.077 162.71C50.077 161.857 50.8334 161.554 51.7549 161.431C52.2716 161.362 53.4967 161.223 53.7258 160.994V162.049C53.7258 163.018 52.9534 163.903 51.627 163.903ZM59.0325 160.142C59.0325 158.837 59.8581 158.091 60.9927 158.091C62.09 158.091 62.7452 158.789 62.7452 159.988V165H64.3379V159.796C64.3379 157.756 63.2193 156.712 61.536 156.712C60.263 156.712 59.4959 157.266 59.1124 158.15H59.0112V154.091H57.4398V165H59.0325V160.142ZM68.8443 165.181C70.1973 165.181 70.959 164.494 71.2626 163.881H71.3265V165H72.8819V159.567C72.8819 157.186 71.0069 156.712 69.7072 156.712C68.2264 156.712 66.8627 157.308 66.3301 158.8L67.8269 159.141C68.0613 158.56 68.6578 158.001 69.7285 158.001C70.7566 158.001 71.2839 158.539 71.2839 159.466V159.503C71.2839 160.083 70.6873 160.073 69.2172 160.243C67.6671 160.424 66.0797 160.829 66.0797 162.688C66.0797 164.297 67.2889 165.181 68.8443 165.181ZM69.1905 163.903C68.2903 163.903 67.6404 163.498 67.6404 162.71C67.6404 161.857 68.3968 161.554 69.3184 161.431C69.835 161.362 71.0602 161.223 71.2892 160.994V162.049C71.2892 163.018 70.5169 163.903 69.1905 163.903ZM76.596 160.142C76.596 158.837 77.395 158.091 78.5029 158.091C79.5843 158.091 80.2394 158.8 80.2394 159.988V165H81.8321V159.796C81.8321 157.772 80.7188 156.712 79.0463 156.712C77.8158 156.712 77.0115 157.282 76.6333 158.15H76.532V156.818H75.0033V165H76.596V160.142ZM83.9681 165H85.5608V156.818H83.9681V165ZM84.7725 155.556C85.3211 155.556 85.7792 155.13 85.7792 154.608C85.7792 154.086 85.3211 153.654 84.7725 153.654C84.2185 153.654 83.7657 154.086 83.7657 154.608C83.7657 155.13 84.2185 155.556 84.7725 155.556Z" fill="#64778C"/>
<circle cx="98" cy="13" r="8" fill="url(#paint8_linear_1692_17281)"/>
<path d="M39.4829 33.8182H37.7837V33.1737C37.7837 32.5344 38.05 32.1776 38.7691 32.1776C39.0727 32.1776 39.3284 32.2468 39.4882 32.2947L39.8771 30.8033C39.6267 30.718 39.0781 30.5795 38.4122 30.5795C36.99 30.5795 35.8554 31.3945 35.8554 33.0458V33.8182H34.6462V35.3097H35.8554V42H37.7837V35.3097H39.4829V33.8182ZM41.443 42H43.3713V33.8182H41.443V42ZM42.4125 32.657C43.025 32.657 43.5258 32.1882 43.5258 31.6129C43.5258 31.0323 43.025 30.5636 42.4125 30.5636C41.7946 30.5636 41.2939 31.0323 41.2939 31.6129C41.2939 32.1882 41.7946 32.657 42.4125 32.657ZM45.8041 42H47.7324V37.19C47.7324 36.1513 48.5154 35.4162 49.5755 35.4162C49.9004 35.4162 50.3052 35.4748 50.4703 35.5281V33.7543C50.2946 33.7223 49.9909 33.701 49.7779 33.701C48.8404 33.701 48.0573 34.2337 47.759 35.1818H47.6738V33.8182H45.8041V42ZM58.668 35.9808C58.4017 34.5959 57.2937 33.7116 55.3761 33.7116C53.4052 33.7116 52.0629 34.6811 52.0682 36.1939C52.0629 37.3871 52.798 38.1754 54.3694 38.5004L55.765 38.7933C56.516 38.9585 56.8676 39.2621 56.8676 39.7255C56.8676 40.2848 56.2604 40.7056 55.3442 40.7056C54.4599 40.7056 53.8847 40.3221 53.7195 39.587L51.8392 39.7681C52.0789 41.2702 53.3413 42.1598 55.3495 42.1598C57.3949 42.1598 58.8385 41.0998 58.8438 39.5497C58.8385 38.3832 58.0874 37.6694 56.5427 37.3338L55.1471 37.0355C54.3161 36.8491 53.9859 36.5614 53.9912 36.0874C53.9859 35.5334 54.5984 35.1499 55.4028 35.1499C56.2923 35.1499 56.7611 35.6346 56.9102 36.1726L58.668 35.9808ZM64.9694 33.8182H63.3554V31.858H61.4272V33.8182H60.2659V35.3097H61.4272V39.8587C61.4165 41.3981 62.5351 42.1545 63.984 42.1119C64.5326 42.0959 64.9108 41.9893 65.1186 41.9201L64.7936 40.4126C64.6871 40.4393 64.4687 40.4872 64.229 40.4872C63.7443 40.4872 63.3554 40.3168 63.3554 39.5391V35.3097H64.9694V33.8182ZM76.2579 31.0909H74.2924V38.527H74.1965L69.0616 31.0909H67.2931V42H69.2693V34.5692H69.3598L74.5001 42H76.2579V31.0909ZM81.1304 42.1651C82.4142 42.1651 83.1812 41.5632 83.5328 40.8761H83.5967V42H85.4504V36.5241C85.4504 34.3615 83.6872 33.7116 82.1265 33.7116C80.406 33.7116 79.085 34.4787 78.6588 35.9702L80.4593 36.2259C80.651 35.6665 81.1943 35.1871 82.1372 35.1871C83.0321 35.1871 83.5221 35.6452 83.5221 36.4496V36.4815C83.5221 37.0355 82.9415 37.0621 81.498 37.2166C79.9106 37.3871 78.3925 37.8612 78.3925 39.7042C78.3925 41.3129 79.5697 42.1651 81.1304 42.1651ZM81.6311 40.7482C80.8268 40.7482 80.2515 40.3807 80.2515 39.6722C80.2515 38.9318 80.8961 38.6229 81.759 38.5004C82.265 38.4311 83.2771 38.3033 83.5274 38.1009V39.065C83.5274 39.9759 82.7924 40.7482 81.6311 40.7482ZM87.8393 42H89.7676V37.0249C89.7676 36.0181 90.4387 35.3363 91.2697 35.3363C92.0847 35.3363 92.644 35.8849 92.644 36.7266V42H94.535V36.897C94.535 35.9755 95.0836 35.3363 96.0158 35.3363C96.7935 35.3363 97.4114 35.7944 97.4114 36.8065V42H99.345V36.5082C99.345 34.6811 98.2903 33.7116 96.7882 33.7116C95.6003 33.7116 94.6948 34.2976 94.3326 35.2085H94.2473C93.9331 34.2816 93.1394 33.7116 92.0367 33.7116C90.9394 33.7116 90.1191 34.2763 89.7782 35.2085H89.6823V33.8182H87.8393V42ZM105.373 42.1598C107.28 42.1598 108.591 41.2276 108.932 39.8054L107.131 39.603C106.87 40.2955 106.231 40.6577 105.4 40.6577C104.154 40.6577 103.328 39.8374 103.312 38.4364H109.012V37.8452C109.012 34.9741 107.286 33.7116 105.272 33.7116C102.928 33.7116 101.4 35.4322 101.4 37.957C101.4 40.5245 102.907 42.1598 105.373 42.1598ZM103.317 37.1367C103.376 36.0927 104.148 35.2138 105.299 35.2138C106.407 35.2138 107.152 36.0234 107.163 37.1367H103.317Z" fill="#6048E5"/>
<path d="M70.6814 55.0909V66H72.2475V58.1005H72.3487L75.566 65.984H76.8657L80.0831 58.1058H80.1843V66H81.7503V55.0909H79.7528L76.2798 63.571H76.1519L72.6789 55.0909H70.6814ZM86.3965 66.1811C87.7495 66.1811 88.5112 65.494 88.8149 64.8814H88.8788V66H90.4342V60.5668C90.4342 58.1857 88.5592 57.7116 87.2595 57.7116C85.7786 57.7116 84.415 58.3082 83.8823 59.7997L85.3791 60.1406C85.6135 59.56 86.2101 59.0007 87.2808 59.0007C88.3088 59.0007 88.8362 59.5387 88.8362 60.4656V60.5028C88.8362 61.0835 88.2396 61.0728 86.7694 61.2433C85.2193 61.4244 83.632 61.8292 83.632 63.6882C83.632 65.2969 84.8411 66.1811 86.3965 66.1811ZM86.7428 64.9027C85.8426 64.9027 85.1927 64.4979 85.1927 63.7095C85.1927 62.8572 85.9491 62.5536 86.8706 62.4311C87.3873 62.3619 88.6124 62.2234 88.8415 61.9943V63.049C88.8415 64.0185 88.0691 64.9027 86.7428 64.9027ZM92.5555 66H94.1482V61.0036C94.1482 59.9329 94.9739 59.1605 96.1031 59.1605C96.4334 59.1605 96.8062 59.2191 96.9341 59.2564V57.733C96.7743 57.7116 96.46 57.6957 96.2576 57.6957C95.2988 57.6957 94.4785 58.239 94.1802 59.1179H94.0949V57.8182H92.5555V66ZM98.3124 66H99.9051V57.8182H98.3124V66ZM99.1167 56.5558C99.6653 56.5558 100.123 56.1296 100.123 55.6076C100.123 55.0856 99.6653 54.6541 99.1167 54.6541C98.5627 54.6541 98.11 55.0856 98.11 55.6076C98.11 56.1296 98.5627 56.5558 99.1167 56.5558ZM104.429 66.1811C105.782 66.1811 106.543 65.494 106.847 64.8814H106.911V66H108.466V60.5668C108.466 58.1857 106.591 57.7116 105.292 57.7116C103.811 57.7116 102.447 58.3082 101.915 59.7997L103.411 60.1406C103.646 59.56 104.242 59.0007 105.313 59.0007C106.341 59.0007 106.868 59.5387 106.868 60.4656V60.5028C106.868 61.0835 106.272 61.0728 104.802 61.2433C103.252 61.4244 101.664 61.8292 101.664 63.6882C101.664 65.2969 102.873 66.1811 104.429 66.1811ZM104.775 64.9027C103.875 64.9027 103.225 64.4979 103.225 63.7095C103.225 62.8572 103.981 62.5536 104.903 62.4311C105.42 62.3619 106.645 62.2234 106.874 61.9943V63.049C106.874 64.0185 106.101 64.9027 104.775 64.9027Z" fill="#64778C"/>
<circle opacity="0.1" cx="166" cy="140" r="20.5" stroke="#6048E5"/>
<circle opacity="0.3" cx="166" cy="140" r="15" stroke="#6048E5" stroke-width="2"/>
<circle cx="166" cy="140" r="9" fill="url(#paint9_linear_1692_17281)"/>
<path d="M135.453 178H137.429V174.314H139.517C142.037 174.314 143.39 172.801 143.39 170.702C143.39 168.62 142.053 167.091 139.544 167.091H135.453V178ZM137.429 172.689V168.742H139.24C140.721 168.742 141.376 169.541 141.376 170.702C141.376 171.864 140.721 172.689 139.251 172.689H137.429ZM145.556 178H152.694V176.343H147.532V173.366H152.284V171.709H147.532V168.748H152.651V167.091H145.556V178ZM155.118 178H157.094V174.005H159.107L161.249 178H163.454L161.094 173.675C162.378 173.158 163.054 172.061 163.054 170.58C163.054 168.497 161.712 167.091 159.209 167.091H155.118V178ZM157.094 172.364V168.742H158.905C160.38 168.742 161.041 169.419 161.041 170.58C161.041 171.741 160.38 172.364 158.916 172.364H157.094ZM171.252 170.09H173.154C173.116 168.247 171.545 166.942 169.223 166.942C166.932 166.942 165.212 168.231 165.217 170.159C165.217 171.725 166.33 172.625 168.125 173.089L169.366 173.408C170.544 173.707 171.321 174.074 171.327 174.921C171.321 175.853 170.437 176.477 169.148 176.477C167.912 176.477 166.953 175.923 166.874 174.777H164.929C165.009 176.945 166.623 178.165 169.164 178.165C171.779 178.165 173.298 176.86 173.303 174.937C173.298 173.046 171.737 172.183 170.096 171.794L169.073 171.539C168.179 171.326 167.209 170.947 167.22 170.037C167.225 169.216 167.96 168.614 169.196 168.614C170.373 168.614 171.151 169.163 171.252 170.09ZM185.263 172.545C185.263 169.019 183.111 166.942 180.25 166.942C177.384 166.942 175.238 169.019 175.238 172.545C175.238 176.066 177.384 178.149 180.25 178.149C183.111 178.149 185.263 176.072 185.263 172.545ZM183.276 172.545C183.276 175.028 182.029 176.375 180.25 176.375C178.476 176.375 177.225 175.028 177.225 172.545C177.225 170.063 178.476 168.716 180.25 168.716C182.029 168.716 183.276 170.063 183.276 172.545ZM196.546 167.091H194.58V174.527H194.484L189.349 167.091H187.581V178H189.557V170.569H189.648L194.788 178H196.546V167.091Z" fill="#6048E5"/>
<defs>
<linearGradient id="paint0_linear_1692_17281" x1="181" y1="134" x2="244.055" y2="125.831" gradientUnits="userSpaceOnUse">
<stop stop-color="#BDB4FE"/>
<stop offset="1" stop-color="#BDB4FE" stop-opacity="0"/>
</linearGradient>
<linearGradient id="paint1_linear_1692_17281" x1="153" y1="135" x2="86.4245" y2="124.442" gradientUnits="userSpaceOnUse">
<stop stop-color="#BDB4FE"/>
<stop offset="1" stop-color="#BDB4FE" stop-opacity="0"/>
</linearGradient>
<linearGradient id="paint2_linear_1692_17281" x1="160" y1="126.001" x2="119.694" y2="125.02" gradientUnits="userSpaceOnUse">
<stop stop-color="#BDB4FE"/>
<stop offset="1" stop-color="#BDB4FE" stop-opacity="0"/>
</linearGradient>
<linearGradient id="paint3_linear_1692_17281" x1="174" y1="126.001" x2="199.844" y2="125.537" gradientUnits="userSpaceOnUse">
<stop stop-color="#BDB4FE"/>
<stop offset="1" stop-color="#BDB4FE" stop-opacity="0"/>
</linearGradient>
<linearGradient id="paint4_linear_1692_17281" x1="165" y1="192" x2="191.611" y2="205.314" gradientUnits="userSpaceOnUse">
<stop stop-color="#BDB4FE"/>
<stop offset="1" stop-color="#BDB4FE" stop-opacity="0"/>
</linearGradient>
<linearGradient id="paint5_linear_1692_17281" x1="254" y1="101" x2="254" y2="117" gradientUnits="userSpaceOnUse">
<stop stop-color="#7963F5"/>
<stop offset="1" stop-color="#5D46DB"/>
</linearGradient>
<linearGradient id="paint6_linear_1692_17281" x1="220" y1="4" x2="220" y2="20" gradientUnits="userSpaceOnUse">
<stop stop-color="#7963F5"/>
<stop offset="1" stop-color="#5D46DB"/>
</linearGradient>
<linearGradient id="paint7_linear_1692_17281" x1="75" y1="104" x2="75" y2="120" gradientUnits="userSpaceOnUse">
<stop stop-color="#7963F5"/>
<stop offset="1" stop-color="#5D46DB"/>
</linearGradient>
<linearGradient id="paint8_linear_1692_17281" x1="98" y1="5" x2="98" y2="21" gradientUnits="userSpaceOnUse">
<stop stop-color="#7963F5"/>
<stop offset="1" stop-color="#5D46DB"/>
</linearGradient>
<linearGradient id="paint9_linear_1692_17281" x1="166" y1="131" x2="166" y2="149" gradientUnits="userSpaceOnUse">
<stop stop-color="#7963F5"/>
<stop offset="1" stop-color="#5D46DB"/>
</linearGradient>
</defs>
</svg>
