<svg width="570" height="362" viewBox="0 0 570 362" fill="none" xmlns="http://www.w3.org/2000/svg">
<g filter="url(#filter0_dddd_867_5240)">
<path d="M30 25C30 21.6863 32.6863 19 36 19H534C537.314 19 540 21.6863 540 25V315C540 318.314 537.314 321 534 321H36C32.6863 321 30 318.314 30 315V25Z" fill="white"/>
<path d="M63.614 72H74.3207V69.5151H66.5783V65.0487H73.7054V62.5637H66.5783V58.1213H74.2567V55.6364H63.614V72ZM80.0455 64.8089C80.0455 63.0352 81.1162 62.0124 82.6423 62.0124C84.1365 62.0124 85.0313 62.9952 85.0313 64.6332V72H87.9237V64.1857C87.9317 61.2454 86.2538 59.5675 83.721 59.5675C81.8833 59.5675 80.6208 60.4464 80.0615 61.8127H79.9177V59.7273H77.1531V72H80.0455V64.8089ZM96.2014 76.858C99.5173 76.858 101.962 75.3398 101.962 72.1998V59.7273H99.1098V61.7567H98.95C98.5106 60.8699 97.5917 59.5675 95.4264 59.5675C92.5899 59.5675 90.3607 61.7887 90.3607 65.8237C90.3607 69.8267 92.5899 71.8242 95.4184 71.8242C97.5198 71.8242 98.5026 70.6976 98.95 69.7947H99.0938V72.1199C99.0938 73.9256 97.8953 74.6687 96.2494 74.6687C94.5075 74.6687 93.7405 73.8457 93.3889 73.1266L90.7842 73.7578C91.3115 75.4757 93.0773 76.858 96.2014 76.858ZM96.2254 69.555C94.3158 69.555 93.309 68.0689 93.309 65.8077C93.309 63.5785 94.2998 61.9405 96.2254 61.9405C98.0871 61.9405 99.1098 63.4826 99.1098 65.8077C99.1098 68.1488 98.0711 69.555 96.2254 69.555ZM104.927 72H107.819V59.7273H104.927V72ZM106.381 57.9854C107.3 57.9854 108.051 57.2823 108.051 56.4194C108.051 55.5485 107.3 54.8453 106.381 54.8453C105.454 54.8453 104.703 55.5485 104.703 56.4194C104.703 57.2823 105.454 57.9854 106.381 57.9854ZM113.686 64.8089C113.686 63.0352 114.756 62.0124 116.282 62.0124C117.777 62.0124 118.671 62.9952 118.671 64.6332V72H121.564V64.1857C121.572 61.2454 119.894 59.5675 117.361 59.5675C115.523 59.5675 114.261 60.4464 113.702 61.8127H113.558V59.7273H110.793V72H113.686V64.8089ZM129.937 72.2397C132.798 72.2397 134.763 70.8414 135.275 68.7081L132.574 68.4045C132.183 69.4432 131.224 69.9865 129.977 69.9865C128.108 69.9865 126.869 68.756 126.845 66.6547H135.395V65.7678C135.395 61.4611 132.806 59.5675 129.786 59.5675C126.27 59.5675 123.977 62.1483 123.977 65.9355C123.977 69.7868 126.238 72.2397 129.937 72.2397ZM126.853 64.7051C126.941 63.139 128.1 61.8207 129.826 61.8207C131.488 61.8207 132.606 63.0352 132.622 64.7051H126.853ZM143.275 72.2397C146.135 72.2397 148.101 70.8414 148.612 68.7081L145.912 68.4045C145.52 69.4432 144.561 69.9865 143.315 69.9865C141.445 69.9865 140.207 68.756 140.183 66.6547H148.732V65.7678C148.732 61.4611 146.143 59.5675 143.123 59.5675C139.607 59.5675 137.314 62.1483 137.314 65.9355C137.314 69.7868 139.575 72.2397 143.275 72.2397ZM140.191 64.7051C140.279 63.139 141.437 61.8207 143.163 61.8207C144.825 61.8207 145.944 63.0352 145.96 64.7051H140.191ZM151.179 72H154.071V64.785C154.071 63.2269 155.246 62.1243 156.836 62.1243C157.323 62.1243 157.931 62.2122 158.178 62.2921V59.6314C157.915 59.5835 157.459 59.5515 157.14 59.5515C155.733 59.5515 154.559 60.3505 154.111 61.7727H153.984V59.7273H151.179V72ZM160.1 72H162.992V59.7273H160.1V72ZM161.554 57.9854C162.473 57.9854 163.224 57.2823 163.224 56.4194C163.224 55.5485 162.473 54.8453 161.554 54.8453C160.627 54.8453 159.876 55.5485 159.876 56.4194C159.876 57.2823 160.627 57.9854 161.554 57.9854ZM168.859 64.8089C168.859 63.0352 169.93 62.0124 171.456 62.0124C172.95 62.0124 173.845 62.9952 173.845 64.6332V72H176.737V64.1857C176.745 61.2454 175.067 59.5675 172.534 59.5675C170.697 59.5675 169.434 60.4464 168.875 61.8127H168.731V59.7273H165.967V72H168.859V64.8089ZM185.015 76.858C188.331 76.858 190.776 75.3398 190.776 72.1998V59.7273H187.923V61.7567H187.763C187.324 60.8699 186.405 59.5675 184.24 59.5675C181.403 59.5675 179.174 61.7887 179.174 65.8237C179.174 69.8267 181.403 71.8242 184.232 71.8242C186.333 71.8242 187.316 70.6976 187.763 69.7947H187.907V72.1199C187.907 73.9256 186.709 74.6687 185.063 74.6687C183.321 74.6687 182.554 73.8457 182.202 73.1266L179.598 73.7578C180.125 75.4757 181.891 76.858 185.015 76.858ZM185.039 69.555C183.129 69.555 182.123 68.0689 182.123 65.8077C182.123 63.5785 183.113 61.9405 185.039 61.9405C186.901 61.9405 187.923 63.4826 187.923 65.8077C187.923 68.1488 186.885 69.555 185.039 69.555ZM213.456 61.1575C212.952 57.522 210.156 55.4126 206.528 55.4126C202.253 55.4126 199.033 58.5288 199.033 63.8182C199.033 69.0996 202.214 72.2237 206.528 72.2237C210.419 72.2237 213 69.7069 213.456 66.5827L210.467 66.5668C210.092 68.4844 208.526 69.563 206.568 69.563C203.915 69.563 202.014 67.5735 202.014 63.8182C202.014 60.1268 203.899 58.0733 206.576 58.0733C208.566 58.0733 210.124 59.1999 210.467 61.1575H213.456ZM219.574 72.2477C221.5 72.2477 222.65 71.3448 223.177 70.3141H223.273V72H226.054V63.7862C226.054 60.5423 223.409 59.5675 221.068 59.5675C218.487 59.5675 216.506 60.718 215.867 62.9553L218.567 63.3388C218.855 62.4998 219.67 61.7807 221.084 61.7807C222.426 61.7807 223.161 62.4679 223.161 63.6744V63.7223C223.161 64.5533 222.291 64.5932 220.125 64.8249C217.744 65.0806 215.467 65.7917 215.467 68.5563C215.467 70.9693 217.233 72.2477 219.574 72.2477ZM220.325 70.1223C219.118 70.1223 218.256 69.571 218.256 68.5083C218.256 67.3977 219.222 66.9343 220.517 66.7505C221.276 66.6467 222.794 66.4549 223.169 66.1513V67.5975C223.169 68.9638 222.067 70.1223 220.325 70.1223ZM231.855 64.8089C231.855 63.0352 232.925 62.0124 234.451 62.0124C235.946 62.0124 236.84 62.9952 236.84 64.6332V72H239.733V64.1857C239.741 61.2454 238.063 59.5675 235.53 59.5675C233.692 59.5675 232.43 60.4464 231.871 61.8127H231.727V59.7273H228.962V72H231.855V64.8089ZM247.227 72.2157C249.337 72.2157 250.288 70.9613 250.743 70.0664H250.919V72H253.763V55.6364H250.863V61.7567H250.743C250.304 60.8699 249.401 59.5675 247.235 59.5675C244.399 59.5675 242.17 61.7887 242.17 65.8796C242.17 69.9226 244.335 72.2157 247.227 72.2157ZM248.034 69.8427C246.125 69.8427 245.118 68.1648 245.118 65.8636C245.118 63.5785 246.109 61.9405 248.034 61.9405C249.896 61.9405 250.919 63.4826 250.919 65.8636C250.919 68.2447 249.88 69.8427 248.034 69.8427ZM256.846 72H259.738V59.7273H256.846V72ZM258.3 57.9854C259.219 57.9854 259.97 57.2823 259.97 56.4194C259.97 55.5485 259.219 54.8453 258.3 54.8453C257.373 54.8453 256.622 55.5485 256.622 56.4194C256.622 57.2823 257.373 57.9854 258.3 57.9854ZM267.267 72.2157C269.376 72.2157 270.327 70.9613 270.782 70.0664H270.958V72H273.802V55.6364H270.902V61.7567H270.782C270.343 60.8699 269.44 59.5675 267.275 59.5675C264.438 59.5675 262.209 61.7887 262.209 65.8796C262.209 69.9226 264.374 72.2157 267.267 72.2157ZM268.074 69.8427C266.164 69.8427 265.157 68.1648 265.157 65.8636C265.157 63.5785 266.148 61.9405 268.074 61.9405C269.935 61.9405 270.958 63.4826 270.958 65.8636C270.958 68.2447 269.919 69.8427 268.074 69.8427ZM280.416 72.2477C282.342 72.2477 283.492 71.3448 284.02 70.3141H284.116V72H286.896V63.7862C286.896 60.5423 284.251 59.5675 281.91 59.5675C279.33 59.5675 277.348 60.718 276.709 62.9553L279.409 63.3388C279.697 62.4998 280.512 61.7807 281.926 61.7807C283.269 61.7807 284.004 62.4679 284.004 63.6744V63.7223C284.004 64.5533 283.133 64.5932 280.968 64.8249C278.586 65.0806 276.309 65.7917 276.309 68.5563C276.309 70.9693 278.075 72.2477 280.416 72.2477ZM281.167 70.1223C279.961 70.1223 279.098 69.571 279.098 68.5083C279.098 67.3977 280.065 66.9343 281.359 66.7505C282.118 66.6467 283.636 66.4549 284.012 66.1513V67.5975C284.012 68.9638 282.909 70.1223 281.167 70.1223ZM295.933 59.7273H293.512V56.7869H290.619V59.7273H288.878V61.9645H290.619V68.788C290.604 71.0971 292.281 72.2317 294.455 72.1678C295.278 72.1438 295.845 71.984 296.157 71.8801L295.669 69.619C295.509 69.6589 295.182 69.7308 294.822 69.7308C294.095 69.7308 293.512 69.4751 293.512 68.3086V61.9645H295.933V59.7273ZM303.653 72.2397C306.514 72.2397 308.479 70.8414 308.991 68.7081L306.29 68.4045C305.898 69.4432 304.94 69.9865 303.693 69.9865C301.824 69.9865 300.585 68.756 300.561 66.6547H309.11V65.7678C309.11 61.4611 306.522 59.5675 303.501 59.5675C299.986 59.5675 297.693 62.1483 297.693 65.9355C297.693 69.7868 299.954 72.2397 303.653 72.2397ZM300.569 64.7051C300.657 63.139 301.816 61.8207 303.541 61.8207C305.203 61.8207 306.322 63.0352 306.338 64.7051H300.569ZM321.257 62.9712C320.858 60.8938 319.196 59.5675 316.32 59.5675C313.363 59.5675 311.35 61.0217 311.358 63.2908C311.35 65.0806 312.452 66.2631 314.809 66.7505L316.903 67.19C318.029 67.4377 318.557 67.8931 318.557 68.5882C318.557 69.4272 317.646 70.0584 316.272 70.0584C314.945 70.0584 314.082 69.4831 313.835 68.3805L311.014 68.6522C311.374 70.9054 313.267 72.2397 316.28 72.2397C319.348 72.2397 321.513 70.6497 321.521 68.3246C321.513 66.5748 320.386 65.5041 318.069 65.0007L315.976 64.5533C314.729 64.2736 314.234 63.8422 314.242 63.131C314.234 62.3001 315.153 61.7248 316.359 61.7248C317.694 61.7248 318.397 62.4519 318.621 63.2589L321.257 62.9712Z" fill="#4D5C6C"/>
<rect width="167" height="197" transform="translate(62 92)" fill="white"/>
<path d="M71.3366 102.818H69.8153V110.295H69.7209L64.5405 102.818H63.1186V113H64.6548V105.533H64.7493L69.9247 113H71.3366V102.818ZM75.6806 113.169C76.9434 113.169 77.6543 112.528 77.9377 111.956H77.9973V113H79.449V107.929C79.449 105.707 77.699 105.264 76.486 105.264C75.1039 105.264 73.8311 105.821 73.334 107.213L74.731 107.531C74.9498 106.989 75.5066 106.467 76.5059 106.467C77.4654 106.467 77.9576 106.969 77.9576 107.835V107.869C77.9576 108.411 77.4007 108.401 76.0286 108.56C74.5819 108.729 73.1003 109.107 73.1003 110.842C73.1003 112.344 74.2289 113.169 75.6806 113.169ZM76.0037 111.976C75.1635 111.976 74.557 111.598 74.557 110.862C74.557 110.067 75.263 109.783 76.123 109.669C76.6053 109.604 77.7488 109.475 77.9625 109.261V110.246C77.9625 111.151 77.2417 111.976 76.0037 111.976ZM81.429 113H82.9155V108.292C82.9155 107.263 83.6364 106.547 84.4815 106.547C85.3068 106.547 85.8786 107.094 85.8786 107.924V113H87.3601V108.133C87.3601 107.213 87.9219 106.547 88.8913 106.547C89.6768 106.547 90.3232 106.984 90.3232 108.018V113H91.8097V107.879C91.8097 106.134 90.8352 105.264 89.4531 105.264C88.3544 105.264 87.5291 105.791 87.1612 106.607H87.0817C86.7486 105.771 86.0476 105.264 85.0284 105.264C84.0192 105.264 83.2685 105.766 82.9503 106.607H82.8558V105.364H81.429V113ZM97.0932 113.154C98.7587 113.154 99.937 112.334 100.275 111.091L98.8681 110.837C98.5996 111.558 97.9533 111.926 97.1081 111.926C95.8354 111.926 94.9803 111.101 94.9405 109.629H100.369V109.102C100.369 106.343 98.7189 105.264 96.9888 105.264C94.861 105.264 93.459 106.885 93.459 109.232C93.459 111.603 94.8411 113.154 97.0932 113.154ZM94.9455 108.516C95.0051 107.432 95.7907 106.492 96.9988 106.492C98.1522 106.492 98.9078 107.347 98.9128 108.516H94.9455Z" fill="#64778C"/>
<path d="M75.1186 139.818V150H76.5803V142.627H76.6747L79.6776 149.985H80.8906L83.8935 142.632H83.9879V150H85.4496V139.818H83.5852L80.3438 147.733H80.2244L76.983 139.818H75.1186ZM89.786 150.169C91.0488 150.169 91.7598 149.528 92.0431 148.956H92.1028V150H93.5545V144.929C93.5545 142.707 91.8045 142.264 90.5914 142.264C89.2093 142.264 87.9366 142.821 87.4395 144.213L88.8365 144.531C89.0552 143.989 89.612 143.467 90.6113 143.467C91.5708 143.467 92.063 143.969 92.063 144.835V144.869C92.063 145.411 91.5062 145.401 90.1341 145.56C88.6873 145.729 87.2058 146.107 87.2058 147.842C87.2058 149.344 88.3343 150.169 89.786 150.169ZM90.1092 148.976C89.269 148.976 88.6625 148.598 88.6625 147.862C88.6625 147.067 89.3684 146.783 90.2285 146.669C90.7108 146.604 91.8542 146.475 92.068 146.261V147.246C92.068 148.151 91.3471 148.976 90.1092 148.976ZM95.5344 150H97.021V145.337C97.021 144.337 97.7915 143.616 98.8455 143.616C99.1538 143.616 99.5018 143.671 99.6211 143.706V142.284C99.4719 142.264 99.1786 142.249 98.9897 142.249C98.0948 142.249 97.3292 142.756 97.0508 143.577H96.9712V142.364H95.5344V150ZM100.907 150H102.394V142.364H100.907V150ZM101.658 141.185C102.17 141.185 102.598 140.788 102.598 140.3C102.598 139.813 102.17 139.411 101.658 139.411C101.141 139.411 100.719 139.813 100.719 140.3C100.719 140.788 101.141 141.185 101.658 141.185ZM106.616 150.169C107.879 150.169 108.59 149.528 108.873 148.956H108.933V150H110.385V144.929C110.385 142.707 108.635 142.264 107.422 142.264C106.039 142.264 104.767 142.821 104.27 144.213L105.667 144.531C105.885 143.989 106.442 143.467 107.441 143.467C108.401 143.467 108.893 143.969 108.893 144.835V144.869C108.893 145.411 108.336 145.401 106.964 145.56C105.517 145.729 104.036 146.107 104.036 147.842C104.036 149.344 105.164 150.169 106.616 150.169ZM106.939 148.976C106.099 148.976 105.493 148.598 105.493 147.862C105.493 147.067 106.199 146.783 107.059 146.669C107.541 146.604 108.684 146.475 108.898 146.261V147.246C108.898 148.151 108.177 148.976 106.939 148.976ZM116.189 139.818V150H117.651V142.627H117.745L120.748 149.985H121.961L124.964 142.632H125.058V150H126.52V139.818H124.656L121.414 147.733H121.295L118.053 139.818H116.189ZM130.856 150.169C132.119 150.169 132.83 149.528 133.113 148.956H133.173V150H134.625V144.929C134.625 142.707 132.875 142.264 131.662 142.264C130.28 142.264 129.007 142.821 128.51 144.213L129.907 144.531C130.126 143.989 130.682 143.467 131.682 143.467C132.641 143.467 133.133 143.969 133.133 144.835V144.869C133.133 145.411 132.577 145.401 131.204 145.56C129.758 145.729 128.276 146.107 128.276 147.842C128.276 149.344 129.405 150.169 130.856 150.169ZM131.18 148.976C130.339 148.976 129.733 148.598 129.733 147.862C129.733 147.067 130.439 146.783 131.299 146.669C131.781 146.604 132.925 146.475 133.138 146.261V147.246C133.138 148.151 132.417 148.976 131.18 148.976ZM138.091 145.466C138.091 144.248 138.862 143.552 139.921 143.552C140.945 143.552 141.556 144.203 141.556 145.322V150H143.043V145.143C143.043 143.239 141.999 142.264 140.428 142.264C139.24 142.264 138.524 142.781 138.166 143.607H138.071V139.818H136.605V150H138.091V145.466ZM147.249 150.169C148.512 150.169 149.223 149.528 149.506 148.956H149.566V150H151.017V144.929C151.017 142.707 149.267 142.264 148.054 142.264C146.672 142.264 145.4 142.821 144.902 144.213L146.299 144.531C146.518 143.989 147.075 143.467 148.074 143.467C149.034 143.467 149.526 143.969 149.526 144.835V144.869C149.526 145.411 148.969 145.401 147.597 145.56C146.15 145.729 144.669 146.107 144.669 147.842C144.669 149.344 145.797 150.169 147.249 150.169ZM147.572 148.976C146.732 148.976 146.125 148.598 146.125 147.862C146.125 147.067 146.831 146.783 147.691 146.669C148.174 146.604 149.317 146.475 149.531 146.261V147.246C149.531 148.151 148.81 148.976 147.572 148.976ZM154.484 145.466C154.484 144.248 155.23 143.552 156.264 143.552C157.273 143.552 157.884 144.213 157.884 145.322V150H159.371V145.143C159.371 143.254 158.332 142.264 156.771 142.264C155.622 142.264 154.872 142.796 154.519 143.607H154.424V142.364H152.997V150H154.484V145.466ZM161.365 150H162.851V142.364H161.365V150ZM162.115 141.185C162.627 141.185 163.055 140.788 163.055 140.3C163.055 139.813 162.627 139.411 162.115 139.411C161.598 139.411 161.176 139.813 161.176 140.3C161.176 140.788 161.598 141.185 162.115 141.185Z" fill="#37434F"/>
<rect x="62" y="125" width="167" height="41" stroke="#D8DFE5"/>
<path d="M75.1186 191H76.6548V186.56H81.7308V191H83.272V180.818H81.7308V185.243H76.6548V180.818H75.1186V191ZM87.6122 191.169C88.875 191.169 89.5859 190.528 89.8693 189.956H89.929V191H91.3807V185.929C91.3807 183.707 89.6307 183.264 88.4176 183.264C87.0355 183.264 85.7628 183.821 85.2656 185.213L86.6626 185.531C86.8814 184.989 87.4382 184.467 88.4375 184.467C89.397 184.467 89.8892 184.969 89.8892 185.835V185.869C89.8892 186.411 89.3324 186.401 87.9602 186.56C86.5135 186.729 85.032 187.107 85.032 188.842C85.032 190.344 86.1605 191.169 87.6122 191.169ZM87.9354 189.976C87.0952 189.976 86.4886 189.598 86.4886 188.862C86.4886 188.067 87.1946 187.783 88.0547 187.669C88.5369 187.604 89.6804 187.475 89.8942 187.261V188.246C89.8942 189.151 89.1733 189.976 87.9354 189.976ZM94.8471 186.466C94.8471 185.248 95.5929 184.552 96.627 184.552C97.6362 184.552 98.2477 185.213 98.2477 186.322V191H99.7342V186.143C99.7342 184.254 98.6951 183.264 97.1341 183.264C95.9856 183.264 95.2349 183.796 94.8819 184.607H94.7875V183.364H93.3606V191H94.8471V186.466ZM103.214 186.466C103.214 185.248 103.96 184.552 104.994 184.552C106.003 184.552 106.615 185.213 106.615 186.322V191H108.101V186.143C108.101 184.254 107.062 183.264 105.501 183.264C104.353 183.264 103.602 183.796 103.249 184.607H103.155V183.364H101.728V191H103.214V186.466ZM112.317 191.169C113.58 191.169 114.291 190.528 114.574 189.956H114.634V191H116.086V185.929C116.086 183.707 114.336 183.264 113.123 183.264C111.741 183.264 110.468 183.821 109.971 185.213L111.368 185.531C111.586 184.989 112.143 184.467 113.143 184.467C114.102 184.467 114.594 184.969 114.594 185.835V185.869C114.594 186.411 114.037 186.401 112.665 186.56C111.219 186.729 109.737 187.107 109.737 188.842C109.737 190.344 110.866 191.169 112.317 191.169ZM112.64 189.976C111.8 189.976 111.194 189.598 111.194 188.862C111.194 188.067 111.9 187.783 112.76 187.669C113.242 187.604 114.385 187.475 114.599 187.261V188.246C114.599 189.151 113.878 189.976 112.64 189.976ZM119.552 186.466C119.552 185.248 120.323 184.552 121.382 184.552C122.406 184.552 123.017 185.203 123.017 186.322V191H124.504V186.143C124.504 184.239 123.46 183.264 121.889 183.264C120.701 183.264 119.985 183.781 119.627 184.607H119.532V180.818H118.066V191H119.552V186.466ZM130.312 180.818V191H131.774V183.627H131.868L134.871 190.985H136.084L139.087 183.632H139.181V191H140.643V180.818H138.779L135.537 188.733H135.418L132.176 180.818H130.312ZM142.757 191H144.244V183.364H142.757V191ZM143.508 182.185C144.02 182.185 144.447 181.788 144.447 181.3C144.447 180.813 144.02 180.411 143.508 180.411C142.991 180.411 142.568 180.813 142.568 181.3C142.568 181.788 142.991 182.185 143.508 182.185ZM147.73 180.818H146.243V191H147.73V180.818ZM151.216 180.818H149.73V191H151.216V180.818ZM153.216 191H154.703V183.364H153.216V191ZM153.967 182.185C154.479 182.185 154.906 181.788 154.906 181.3C154.906 180.813 154.479 180.411 153.967 180.411C153.45 180.411 153.027 180.813 153.027 181.3C153.027 181.788 153.45 182.185 153.967 182.185ZM159.994 191.154C161.659 191.154 162.837 190.334 163.175 189.091L161.768 188.837C161.5 189.558 160.854 189.926 160.009 189.926C158.736 189.926 157.881 189.101 157.841 187.629H163.27V187.102C163.27 184.343 161.619 183.264 159.889 183.264C157.761 183.264 156.359 184.885 156.359 187.232C156.359 189.603 157.741 191.154 159.994 191.154ZM157.846 186.516C157.906 185.432 158.691 184.492 159.899 184.492C161.053 184.492 161.808 185.347 161.813 186.516H157.846ZM169.419 186.053H164.904V187.341H169.419V186.053ZM169.845 180.818L173.539 187.003V191H175.07V187.003L178.764 180.818H177.019L174.359 185.447H174.25L171.59 180.818H169.845ZM181.169 191.169C182.432 191.169 183.143 190.528 183.426 189.956H183.486V191H184.937V185.929C184.937 183.707 183.187 183.264 181.974 183.264C180.592 183.264 179.319 183.821 178.822 185.213L180.219 185.531C180.438 184.989 180.995 184.467 181.994 184.467C182.954 184.467 183.446 184.969 183.446 185.835V185.869C183.446 186.411 182.889 186.401 181.517 186.56C180.07 186.729 178.589 187.107 178.589 188.842C178.589 190.344 179.717 191.169 181.169 191.169ZM181.492 189.976C180.652 189.976 180.045 189.598 180.045 188.862C180.045 188.067 180.751 187.783 181.611 187.669C182.094 187.604 183.237 187.475 183.451 187.261V188.246C183.451 189.151 182.73 189.976 181.492 189.976ZM190.482 183.364H188.916V181.534H187.429V183.364H186.311V184.557H187.429V189.066C187.424 190.453 188.483 191.124 189.657 191.099C190.129 191.094 190.447 191.005 190.621 190.94L190.353 189.712C190.253 189.732 190.069 189.777 189.831 189.777C189.348 189.777 188.916 189.618 188.916 188.758V184.557H190.482V183.364ZM195.335 191.154C197.001 191.154 198.179 190.334 198.517 189.091L197.11 188.837C196.842 189.558 196.195 189.926 195.35 189.926C194.078 189.926 193.222 189.101 193.183 187.629H198.612V187.102C198.612 184.343 196.961 183.264 195.231 183.264C193.103 183.264 191.701 184.885 191.701 187.232C191.701 189.603 193.083 191.154 195.335 191.154ZM193.188 186.516C193.247 185.432 194.033 184.492 195.241 184.492C196.394 184.492 197.15 185.347 197.155 186.516H193.188ZM205.983 185.228C205.675 184.04 204.745 183.264 203.095 183.264C201.37 183.264 200.147 184.174 200.147 185.526C200.147 186.61 200.803 187.331 202.235 187.649L203.527 187.933C204.263 188.097 204.606 188.425 204.606 188.902C204.606 189.494 203.975 189.956 203 189.956C202.11 189.956 201.539 189.573 201.36 188.822L199.923 189.041C200.172 190.393 201.295 191.154 203.01 191.154C204.855 191.154 206.132 190.175 206.132 188.793C206.132 187.714 205.446 187.048 204.044 186.724L202.831 186.446C201.991 186.247 201.628 185.964 201.633 185.447C201.628 184.86 202.265 184.442 203.11 184.442C204.034 184.442 204.462 184.955 204.636 185.467L205.983 185.228Z" fill="#37434F"/>
<rect x="62" y="166" width="167" height="41" stroke="#D8DFE5"/>
<path d="M75.1186 232H76.6548V227.56H80.9801V226.243H76.6548V223.141H81.4325V221.818H75.1186V232ZM84.6889 221.818H83.2024V232H84.6889V221.818ZM89.9054 232.154C92.0581 232.154 93.465 230.578 93.465 228.217C93.465 225.84 92.0581 224.264 89.9054 224.264C87.7527 224.264 86.3457 225.84 86.3457 228.217C86.3457 230.578 87.7527 232.154 89.9054 232.154ZM89.9103 230.906C88.5034 230.906 87.8471 229.678 87.8471 228.212C87.8471 226.75 88.5034 225.507 89.9103 225.507C91.3074 225.507 91.9636 226.75 91.9636 228.212C91.9636 229.678 91.3074 230.906 89.9103 230.906ZM95.1243 232H96.6108V227.337C96.6108 226.337 97.3814 225.616 98.4354 225.616C98.7436 225.616 99.0916 225.671 99.2109 225.706V224.284C99.0618 224.264 98.7685 224.249 98.5795 224.249C97.6847 224.249 96.919 224.756 96.6406 225.577H96.5611V224.364H95.1243V232ZM103.515 232.154C105.181 232.154 106.359 231.334 106.697 230.091L105.29 229.837C105.021 230.558 104.375 230.926 103.53 230.926C102.257 230.926 101.402 230.101 101.362 228.629H106.791V228.102C106.791 225.343 105.141 224.264 103.411 224.264C101.283 224.264 99.8809 225.885 99.8809 228.232C99.8809 230.603 101.263 232.154 103.515 232.154ZM101.367 227.516C101.427 226.432 102.213 225.492 103.421 225.492C104.574 225.492 105.33 226.347 105.335 227.516H101.367ZM109.927 227.466C109.927 226.248 110.673 225.552 111.707 225.552C112.716 225.552 113.328 226.213 113.328 227.322V232H114.814V227.143C114.814 225.254 113.775 224.264 112.214 224.264C111.066 224.264 110.315 224.796 109.962 225.607H109.868V224.364H108.441V232H109.927V227.466ZM120.025 232.154C121.829 232.154 122.998 231.07 123.162 229.584H121.715C121.526 230.409 120.885 230.896 120.034 230.896C118.777 230.896 117.966 229.847 117.966 228.182C117.966 226.546 118.792 225.517 120.034 225.517C120.979 225.517 121.556 226.114 121.715 226.83H123.162C123.002 225.288 121.745 224.264 120.01 224.264C117.857 224.264 116.465 225.885 116.465 228.217C116.465 230.518 117.807 232.154 120.025 232.154ZM128.042 232.154C129.708 232.154 130.886 231.334 131.224 230.091L129.817 229.837C129.549 230.558 128.903 230.926 128.057 230.926C126.785 230.926 125.93 230.101 125.89 228.629H131.319V228.102C131.319 225.343 129.668 224.264 127.938 224.264C125.81 224.264 124.408 225.885 124.408 228.232C124.408 230.603 125.79 232.154 128.042 232.154ZM125.895 227.516C125.954 226.432 126.74 225.492 127.948 225.492C129.101 225.492 129.857 226.347 129.862 227.516H125.895ZM136.792 221.818V232H138.254V224.627H138.349L141.351 231.985H142.564L145.567 224.632H145.662V232H147.123V221.818H145.259L142.018 229.733H141.898L138.657 221.818H136.792ZM151.46 232.169C152.723 232.169 153.434 231.528 153.717 230.956H153.777V232H155.228V226.929C155.228 224.707 153.478 224.264 152.265 224.264C150.883 224.264 149.61 224.821 149.113 226.213L150.51 226.531C150.729 225.989 151.286 225.467 152.285 225.467C153.245 225.467 153.737 225.969 153.737 226.835V226.869C153.737 227.411 153.18 227.401 151.808 227.56C150.361 227.729 148.88 228.107 148.88 229.842C148.88 231.344 150.008 232.169 151.46 232.169ZM151.783 230.976C150.943 230.976 150.336 230.598 150.336 229.862C150.336 229.067 151.042 228.783 151.902 228.669C152.385 228.604 153.528 228.475 153.742 228.261V229.246C153.742 230.151 153.021 230.976 151.783 230.976ZM157.208 232H158.695V227.337C158.695 226.337 159.465 225.616 160.519 225.616C160.828 225.616 161.176 225.671 161.295 225.706V224.284C161.146 224.264 160.852 224.249 160.664 224.249C159.769 224.249 159.003 224.756 158.725 225.577H158.645V224.364H157.208V232ZM162.581 232H164.068V224.364H162.581V232ZM163.332 223.185C163.844 223.185 164.272 222.788 164.272 222.3C164.272 221.813 163.844 221.411 163.332 221.411C162.815 221.411 162.392 221.813 162.392 222.3C162.392 222.788 162.815 223.185 163.332 223.185ZM169.269 235.023C171.213 235.023 172.715 234.133 172.715 232.169V224.364H171.258V225.602H171.149C170.885 225.129 170.358 224.264 168.936 224.264C167.092 224.264 165.735 225.721 165.735 228.152C165.735 230.588 167.122 231.886 168.926 231.886C170.328 231.886 170.87 231.095 171.139 230.608H171.233V232.109C171.233 233.308 170.413 233.825 169.284 233.825C168.046 233.825 167.564 233.203 167.301 232.766L166.023 233.293C166.426 234.227 167.445 235.023 169.269 235.023ZM169.254 230.653C167.927 230.653 167.236 229.634 167.236 228.132C167.236 226.665 167.912 225.527 169.254 225.527C170.552 225.527 171.248 226.586 171.248 228.132C171.248 229.708 170.537 230.653 169.254 230.653ZM177.925 232.154C180.078 232.154 181.485 230.578 181.485 228.217C181.485 225.84 180.078 224.264 177.925 224.264C175.772 224.264 174.365 225.84 174.365 228.217C174.365 230.578 175.772 232.154 177.925 232.154ZM177.93 230.906C176.523 230.906 175.867 229.678 175.867 228.212C175.867 226.75 176.523 225.507 177.93 225.507C179.327 225.507 179.983 226.75 179.983 228.212C179.983 229.678 179.327 230.906 177.93 230.906ZM184.63 221.818H183.144V232H184.63V221.818ZM189.489 232.149C190.881 232.149 191.428 231.299 191.696 230.812H191.82V232H193.272V221.818H191.786V225.602H191.696C191.428 225.129 190.921 224.264 189.499 224.264C187.654 224.264 186.297 225.721 186.297 228.197C186.297 230.668 187.634 232.149 189.489 232.149ZM189.817 230.881C188.49 230.881 187.798 229.713 187.798 228.182C187.798 226.665 188.475 225.527 189.817 225.527C191.115 225.527 191.811 226.586 191.811 228.182C191.811 229.788 191.1 230.881 189.817 230.881Z" fill="#37434F"/>
<rect x="62" y="207" width="167" height="41" stroke="#D8DFE5"/>
<path d="M83.3366 262.818H81.8153V270.295H81.7209L76.5405 262.818H75.1186V273H76.6548V265.533H76.7493L81.9247 273H83.3366V262.818ZM85.4583 273H86.9448V265.364H85.4583V273ZM86.209 264.185C86.7211 264.185 87.1486 263.788 87.1486 263.3C87.1486 262.813 86.7211 262.411 86.209 262.411C85.6919 262.411 85.2694 262.813 85.2694 263.3C85.2694 263.788 85.6919 264.185 86.209 264.185ZM90.4311 262.818H88.9446V273H90.4311V262.818ZM95.7221 273.154C97.3876 273.154 98.5659 272.334 98.9039 271.091L97.497 270.837C97.2285 271.558 96.5822 271.926 95.737 271.926C94.4643 271.926 93.6092 271.101 93.5694 269.629H98.9984V269.102C98.9984 266.343 97.3478 265.264 95.6177 265.264C93.4899 265.264 92.0879 266.885 92.0879 269.232C92.0879 271.603 93.47 273.154 95.7221 273.154ZM93.5744 268.516C93.6341 267.432 94.4196 266.492 95.6277 266.492C96.7811 266.492 97.5368 267.347 97.5417 268.516H93.5744ZM106.37 267.228C106.062 266.04 105.132 265.264 103.482 265.264C101.756 265.264 100.533 266.174 100.533 267.526C100.533 268.61 101.19 269.331 102.621 269.649L103.914 269.933C104.65 270.097 104.993 270.425 104.993 270.902C104.993 271.494 104.362 271.956 103.387 271.956C102.497 271.956 101.925 271.573 101.746 270.822L100.31 271.041C100.558 272.393 101.682 273.154 103.397 273.154C105.241 273.154 106.519 272.175 106.519 270.793C106.519 269.714 105.833 269.048 104.431 268.724L103.218 268.446C102.378 268.247 102.015 267.964 102.02 267.447C102.015 266.86 102.651 266.442 103.496 266.442C104.421 266.442 104.849 266.955 105.023 267.467L106.37 267.228ZM111.978 273H113.514V269.42H115.602C117.964 269.42 119.132 267.994 119.132 266.114C119.132 264.24 117.974 262.818 115.607 262.818H111.978V273ZM113.514 268.118V264.136H115.443C116.964 264.136 117.586 264.961 117.586 266.114C117.586 267.268 116.964 268.118 115.463 268.118H113.514ZM124.009 273.154C125.675 273.154 126.853 272.334 127.191 271.091L125.784 270.837C125.516 271.558 124.869 271.926 124.024 271.926C122.751 271.926 121.896 271.101 121.857 269.629H127.286V269.102C127.286 266.343 125.635 265.264 123.905 265.264C121.777 265.264 120.375 266.885 120.375 269.232C120.375 271.603 121.757 273.154 124.009 273.154ZM121.862 268.516C121.921 267.432 122.707 266.492 123.915 266.492C125.068 266.492 125.824 267.347 125.829 268.516H121.862ZM128.935 275.864H130.421V271.812H130.511C130.779 272.299 131.326 273.149 132.718 273.149C134.568 273.149 135.91 271.668 135.91 269.197C135.91 266.721 134.548 265.264 132.703 265.264C131.286 265.264 130.774 266.129 130.511 266.602H130.387V265.364H128.935V275.864ZM130.392 269.182C130.392 267.586 131.088 266.527 132.385 266.527C133.732 266.527 134.409 267.665 134.409 269.182C134.409 270.713 133.713 271.881 132.385 271.881C131.107 271.881 130.392 270.788 130.392 269.182ZM137.575 275.864H139.062V271.812H139.151C139.42 272.299 139.967 273.149 141.359 273.149C143.208 273.149 144.551 271.668 144.551 269.197C144.551 266.721 143.188 265.264 141.344 265.264C139.927 265.264 139.415 266.129 139.151 266.602H139.027V265.364H137.575V275.864ZM139.032 269.182C139.032 267.586 139.728 266.527 141.026 266.527C142.373 266.527 143.049 267.665 143.049 269.182C143.049 270.713 142.353 271.881 141.026 271.881C139.748 271.881 139.032 270.788 139.032 269.182ZM149.507 273.154C151.173 273.154 152.351 272.334 152.689 271.091L151.282 270.837C151.014 271.558 150.367 271.926 149.522 271.926C148.249 271.926 147.394 271.101 147.355 269.629H152.784V269.102C152.784 266.343 151.133 265.264 149.403 265.264C147.275 265.264 145.873 266.885 145.873 269.232C145.873 271.603 147.255 273.154 149.507 273.154ZM147.36 268.516C147.419 267.432 148.205 266.492 149.413 266.492C150.566 266.492 151.322 267.347 151.327 268.516H147.36ZM154.433 273H155.919V268.337C155.919 267.337 156.69 266.616 157.744 266.616C158.052 266.616 158.4 266.671 158.52 266.706V265.284C158.37 265.264 158.077 265.249 157.888 265.249C156.993 265.249 156.228 265.756 155.949 266.577H155.87V265.364H154.433V273ZM163.822 265.364H162.256V263.534H160.769V265.364H159.651V266.557H160.769V271.066C160.764 272.453 161.823 273.124 162.996 273.099C163.469 273.094 163.787 273.005 163.961 272.94L163.692 271.712C163.593 271.732 163.409 271.777 163.17 271.777C162.688 271.777 162.256 271.618 162.256 270.758V266.557H163.822V265.364ZM165.466 273H166.953V268.337C166.953 267.337 167.723 266.616 168.777 266.616C169.085 266.616 169.433 266.671 169.553 266.706V265.284C169.404 265.264 169.11 265.249 168.921 265.249C168.026 265.249 167.261 265.756 166.982 266.577H166.903V265.364H165.466V273ZM173.782 273.154C175.935 273.154 177.342 271.578 177.342 269.217C177.342 266.84 175.935 265.264 173.782 265.264C171.63 265.264 170.223 266.84 170.223 269.217C170.223 271.578 171.63 273.154 173.782 273.154ZM173.787 271.906C172.38 271.906 171.724 270.678 171.724 269.212C171.724 267.75 172.38 266.507 173.787 266.507C175.184 266.507 175.841 267.75 175.841 269.212C175.841 270.678 175.184 271.906 173.787 271.906ZM183.839 269.833C183.844 271.131 182.879 271.747 182.044 271.747C181.124 271.747 180.488 271.081 180.488 270.042V265.364H179.001V270.221C179.001 272.115 180.04 273.099 181.507 273.099C182.655 273.099 183.436 272.493 183.789 271.678H183.868V273H185.33V265.364H183.839V269.833ZM190.892 265.364H189.326V263.534H187.839V265.364H186.721V266.557H187.839V271.066C187.835 272.453 188.893 273.124 190.067 273.099C190.539 273.094 190.857 273.005 191.031 272.94L190.763 271.712C190.663 271.732 190.479 271.777 190.241 271.777C189.759 271.777 189.326 271.618 189.326 270.758V266.557H190.892V265.364Z" fill="#37434F"/>
<rect x="62" y="248" width="167" height="41" stroke="#D8DFE5"/>
<rect width="208" height="197" transform="translate(229 92)" fill="white"/>
<path d="M230.119 113H236.562V111.678H231.655V108.56H236.169V107.243H231.655V104.141H236.502V102.818H230.119V113ZM238.435 113H239.921V108.292C239.921 107.263 240.642 106.547 241.487 106.547C242.313 106.547 242.884 107.094 242.884 107.924V113H244.366V108.133C244.366 107.213 244.928 106.547 245.897 106.547C246.683 106.547 247.329 106.984 247.329 108.018V113H248.816V107.879C248.816 106.134 247.841 105.264 246.459 105.264C245.36 105.264 244.535 105.791 244.167 106.607H244.088C243.754 105.771 243.053 105.264 242.034 105.264C241.025 105.264 240.274 105.766 239.956 106.607H239.862V105.364H238.435V113ZM253.03 113.169C254.293 113.169 255.004 112.528 255.287 111.956H255.347V113H256.799V107.929C256.799 105.707 255.049 105.264 253.836 105.264C252.453 105.264 251.181 105.821 250.684 107.213L252.081 107.531C252.299 106.989 252.856 106.467 253.855 106.467C254.815 106.467 255.307 106.969 255.307 107.835V107.869C255.307 108.411 254.75 108.401 253.378 108.56C251.931 108.729 250.45 109.107 250.45 110.842C250.45 112.344 251.578 113.169 253.03 113.169ZM253.353 111.976C252.513 111.976 251.907 111.598 251.907 110.862C251.907 110.067 252.613 109.783 253.473 109.669C253.955 109.604 255.098 109.475 255.312 109.261V110.246C255.312 111.151 254.591 111.976 253.353 111.976ZM258.779 113H260.265V105.364H258.779V113ZM259.529 104.185C260.041 104.185 260.469 103.788 260.469 103.3C260.469 102.813 260.041 102.411 259.529 102.411C259.012 102.411 258.59 102.813 258.59 103.3C258.59 103.788 259.012 104.185 259.529 104.185ZM263.751 102.818H262.265V113H263.751V102.818Z" fill="#64778C"/>
<path d="M241.999 150H243.486V145.292C243.486 144.263 244.207 143.547 245.052 143.547C245.877 143.547 246.449 144.094 246.449 144.924V150H247.93V145.133C247.93 144.213 248.492 143.547 249.462 143.547C250.247 143.547 250.893 143.984 250.893 145.018V150H252.38V144.879C252.38 143.134 251.406 142.264 250.023 142.264C248.925 142.264 248.099 142.791 247.732 143.607H247.652C247.319 142.771 246.618 142.264 245.599 142.264C244.589 142.264 243.839 142.766 243.521 143.607H243.426V142.364H241.999V150ZM256.595 150.169C257.857 150.169 258.568 149.528 258.852 148.956H258.911V150H260.363V144.929C260.363 142.707 258.613 142.264 257.4 142.264C256.018 142.264 254.745 142.821 254.248 144.213L255.645 144.531C255.864 143.989 256.421 143.467 257.42 143.467C258.379 143.467 258.872 143.969 258.872 144.835V144.869C258.872 145.411 258.315 145.401 256.943 145.56C255.496 145.729 254.014 146.107 254.014 147.842C254.014 149.344 255.143 150.169 256.595 150.169ZM256.918 148.976C256.078 148.976 255.471 148.598 255.471 147.862C255.471 147.067 256.177 146.783 257.037 146.669C257.519 146.604 258.663 146.475 258.877 146.261V147.246C258.877 148.151 258.156 148.976 256.918 148.976ZM263.83 145.466C263.83 144.248 264.6 143.552 265.659 143.552C266.683 143.552 267.295 144.203 267.295 145.322V150H268.781V145.143C268.781 143.239 267.737 142.264 266.166 142.264C264.978 142.264 264.262 142.781 263.904 143.607H263.81V139.818H262.343V150H263.83V145.466ZM272.987 150.169C274.25 150.169 274.961 149.528 275.244 148.956H275.304V150H276.756V144.929C276.756 142.707 275.006 142.264 273.793 142.264C272.411 142.264 271.138 142.821 270.641 144.213L272.038 144.531C272.256 143.989 272.813 143.467 273.812 143.467C274.772 143.467 275.264 143.969 275.264 144.835V144.869C275.264 145.411 274.707 145.401 273.335 145.56C271.888 145.729 270.407 146.107 270.407 147.842C270.407 149.344 271.536 150.169 272.987 150.169ZM273.31 148.976C272.47 148.976 271.864 148.598 271.864 147.862C271.864 147.067 272.57 146.783 273.43 146.669C273.912 146.604 275.055 146.475 275.269 146.261V147.246C275.269 148.151 274.548 148.976 273.31 148.976ZM280.222 145.466C280.222 144.248 280.968 143.552 282.002 143.552C283.011 143.552 283.623 144.213 283.623 145.322V150H285.109V145.143C285.109 143.254 284.07 142.264 282.509 142.264C281.361 142.264 280.61 142.796 280.257 143.607H280.162V142.364H278.736V150H280.222V145.466ZM287.103 150H288.589V142.364H287.103V150ZM287.854 141.185C288.366 141.185 288.793 140.788 288.793 140.3C288.793 139.813 288.366 139.411 287.854 139.411C287.336 139.411 286.914 139.813 286.914 140.3C286.914 140.788 287.336 141.185 287.854 141.185ZM296.719 152.769C297.868 152.769 299.195 152.456 299.811 152.168L299.463 151.079C299.046 151.228 297.897 151.591 296.784 151.591C293.438 151.591 291.643 149.746 291.643 146.445C291.643 143.283 293.418 141.24 296.6 141.24C299.508 141.24 301.243 143.109 301.238 145.635C301.243 147.793 300.965 148.762 300.06 148.762C299.548 148.762 299.265 148.344 299.265 147.822V143.209H298.042V143.766H297.977C297.828 143.328 296.963 142.935 295.924 143.06C294.487 143.229 293.254 144.417 293.254 146.376C293.254 148.419 294.298 149.786 295.973 149.851C297.107 149.901 297.843 149.374 298.076 148.787H298.136C298.255 149.587 299.12 149.94 299.971 149.911C302.093 149.871 302.496 147.783 302.496 145.685C302.496 142.692 300.448 140.087 296.65 140.087C292.667 140.087 290.326 142.518 290.321 146.435C290.326 150.467 292.608 152.769 296.719 152.769ZM296.262 148.633C294.964 148.633 294.517 147.519 294.512 146.316C294.517 145.173 295.158 144.263 296.282 144.263C297.5 144.263 298.047 144.8 298.051 146.311C298.056 147.862 297.554 148.633 296.262 148.633ZM304.138 150H305.624V142.364H304.138V150ZM304.889 141.185C305.401 141.185 305.828 140.788 305.828 140.3C305.828 139.813 305.401 139.411 304.889 139.411C304.372 139.411 303.949 139.813 303.949 140.3C303.949 140.788 304.372 141.185 304.889 141.185ZM309.111 145.466C309.111 144.248 309.857 143.552 310.891 143.552C311.9 143.552 312.511 144.213 312.511 145.322V150H313.998V145.143C313.998 143.254 312.959 142.264 311.398 142.264C310.249 142.264 309.499 142.796 309.146 143.607H309.051V142.364H307.624V150H309.111V145.466ZM316.111 150H317.562V148.812H317.687C317.955 149.299 318.502 150.149 319.894 150.149C321.744 150.149 323.086 148.668 323.086 146.197C323.086 143.721 321.724 142.264 319.879 142.264C318.462 142.264 317.95 143.129 317.687 143.602H317.597V139.818H316.111V150ZM317.567 146.182C317.567 144.586 318.263 143.527 319.561 143.527C320.908 143.527 321.585 144.665 321.585 146.182C321.585 147.713 320.888 148.881 319.561 148.881C318.283 148.881 317.567 147.788 317.567 146.182ZM327.972 150.154C330.124 150.154 331.531 148.578 331.531 146.217C331.531 143.84 330.124 142.264 327.972 142.264C325.819 142.264 324.412 143.84 324.412 146.217C324.412 148.578 325.819 150.154 327.972 150.154ZM327.977 148.906C326.57 148.906 325.914 147.678 325.914 146.212C325.914 144.75 326.57 143.507 327.977 143.507C329.374 143.507 330.03 144.75 330.03 146.212C330.03 147.678 329.374 148.906 327.977 148.906ZM334.05 142.364H332.419L334.765 146.182L332.389 150H334.02L335.735 147.146L337.455 150H339.081L336.68 146.182L339.061 142.364H337.435L335.735 145.337L334.05 142.364ZM341.567 150.094C342.108 150.094 342.561 149.652 342.561 149.1C342.561 148.558 342.108 148.111 341.567 148.111C341.02 148.111 340.572 148.558 340.572 149.1C340.572 149.652 341.02 150.094 341.567 150.094ZM347.769 150.154C349.573 150.154 350.742 149.07 350.906 147.584H349.459C349.27 148.409 348.629 148.896 347.779 148.896C346.521 148.896 345.71 147.847 345.71 146.182C345.71 144.546 346.536 143.517 347.779 143.517C348.723 143.517 349.3 144.114 349.459 144.83H350.906C350.747 143.288 349.489 142.264 347.754 142.264C345.601 142.264 344.209 143.885 344.209 146.217C344.209 148.518 345.551 150.154 347.769 150.154ZM355.712 150.154C357.865 150.154 359.272 148.578 359.272 146.217C359.272 143.84 357.865 142.264 355.712 142.264C353.559 142.264 352.152 143.84 352.152 146.217C352.152 148.578 353.559 150.154 355.712 150.154ZM355.717 148.906C354.31 148.906 353.654 147.678 353.654 146.212C353.654 144.75 354.31 143.507 355.717 143.507C357.114 143.507 357.77 144.75 357.77 146.212C357.77 147.678 357.114 148.906 355.717 148.906ZM360.931 150H362.417V145.292C362.417 144.263 363.138 143.547 363.983 143.547C364.809 143.547 365.381 144.094 365.381 144.924V150H366.862V145.133C366.862 144.213 367.424 143.547 368.393 143.547C369.179 143.547 369.825 143.984 369.825 145.018V150H371.312V144.879C371.312 143.134 370.337 142.264 368.955 142.264C367.856 142.264 367.031 142.791 366.663 143.607H366.584C366.251 142.771 365.55 142.264 364.53 142.264C363.521 142.264 362.77 142.766 362.452 143.607H362.358V142.364H360.931V150Z" fill="#64778C"/>
<a href="mailto:mahani@inbox.com">
<rect fill="black" fill-opacity="0" y="-0.971591" width="131.301" height="16.9432"/>
</a>
<rect x="229" y="125" width="208" height="41" stroke="#D8DFE5"/>
<path d="M243.486 186.466C243.486 185.248 244.256 184.552 245.315 184.552C246.339 184.552 246.951 185.203 246.951 186.322V191H248.438V186.143C248.438 184.239 247.393 183.264 245.822 183.264C244.634 183.264 243.918 183.781 243.56 184.607H243.466V180.818H241.999V191H243.486V186.466ZM251.087 193.864C252.315 193.864 253.091 193.222 253.533 192.019L256.69 183.379L255.085 183.364L253.151 189.29H253.071L251.137 183.364H249.546L252.34 191.099L252.156 191.607C251.778 192.621 251.246 192.705 250.431 192.482L250.073 193.7C250.252 193.779 250.64 193.864 251.087 193.864ZM260.081 191.169C261.344 191.169 262.055 190.528 262.338 189.956H262.398V191H263.849V185.929C263.849 183.707 262.099 183.264 260.886 183.264C259.504 183.264 258.232 183.821 257.734 185.213L259.131 185.531C259.35 184.989 259.907 184.467 260.906 184.467C261.866 184.467 262.358 184.969 262.358 185.835V185.869C262.358 186.411 261.801 186.401 260.429 186.56C258.982 186.729 257.501 187.107 257.501 188.842C257.501 190.344 258.629 191.169 260.081 191.169ZM260.404 189.976C259.564 189.976 258.957 189.598 258.957 188.862C258.957 188.067 259.663 187.783 260.523 187.669C261.006 187.604 262.149 187.475 262.363 187.261V188.246C262.363 189.151 261.642 189.976 260.404 189.976ZM269.394 183.364H267.828V181.534H266.341V183.364H265.223V184.557H266.341V189.066C266.336 190.453 267.395 191.124 268.569 191.099C269.041 191.094 269.359 191.005 269.533 190.94L269.265 189.712C269.165 189.732 268.981 189.777 268.743 189.777C268.26 189.777 267.828 189.618 267.828 188.758V184.557H269.394V183.364ZM274.248 191.154C275.913 191.154 277.091 190.334 277.429 189.091L276.022 188.837C275.754 189.558 275.108 189.926 274.262 189.926C272.99 189.926 272.135 189.101 272.095 187.629H277.524V187.102C277.524 184.343 275.873 183.264 274.143 183.264C272.015 183.264 270.613 184.885 270.613 187.232C270.613 189.603 271.995 191.154 274.248 191.154ZM272.1 186.516C272.159 185.432 272.945 184.492 274.153 184.492C275.306 184.492 276.062 185.347 276.067 186.516H272.1ZM284.895 185.228C284.587 184.04 283.657 183.264 282.007 183.264C280.282 183.264 279.059 184.174 279.059 185.526C279.059 186.61 279.715 187.331 281.147 187.649L282.439 187.933C283.175 188.097 283.518 188.425 283.518 188.902C283.518 189.494 282.887 189.956 281.912 189.956C281.023 189.956 280.451 189.573 280.272 188.822L278.835 189.041C279.084 190.393 280.207 191.154 281.922 191.154C283.767 191.154 285.045 190.175 285.045 188.793C285.045 187.714 284.358 187.048 282.956 186.724L281.743 186.446C280.903 186.247 280.54 185.964 280.545 185.447C280.54 184.86 281.177 184.442 282.022 184.442C282.947 184.442 283.374 184.955 283.548 185.467L284.895 185.228ZM292.809 193.769C293.957 193.769 295.285 193.456 295.901 193.168L295.553 192.079C295.136 192.228 293.987 192.591 292.874 192.591C289.528 192.591 287.733 190.746 287.733 187.445C287.733 184.283 289.508 182.24 292.69 182.24C295.598 182.24 297.333 184.109 297.328 186.635C297.333 188.793 297.055 189.762 296.15 189.762C295.638 189.762 295.354 189.344 295.354 188.822V184.209H294.131V184.766H294.067C293.918 184.328 293.053 183.935 292.013 184.06C290.577 184.229 289.344 185.417 289.344 187.376C289.344 189.419 290.388 190.786 292.063 190.851C293.197 190.901 293.933 190.374 294.166 189.787H294.226C294.345 190.587 295.21 190.94 296.06 190.911C298.183 190.871 298.586 188.783 298.586 186.685C298.586 183.692 296.538 181.087 292.739 181.087C288.757 181.087 286.415 183.518 286.411 187.435C286.415 191.467 288.697 193.769 292.809 193.769ZM292.352 189.633C291.054 189.633 290.607 188.519 290.602 187.316C290.607 186.173 291.248 185.263 292.371 185.263C293.589 185.263 294.136 185.8 294.141 187.311C294.146 188.862 293.644 189.633 292.352 189.633ZM300.347 191H301.799V189.812H301.923C302.192 190.299 302.738 191.149 304.131 191.149C305.98 191.149 307.322 189.668 307.322 187.197C307.322 184.721 305.96 183.264 304.116 183.264C302.699 183.264 302.187 184.129 301.923 184.602H301.834V180.818H300.347V191ZM301.804 187.182C301.804 185.586 302.5 184.527 303.797 184.527C305.145 184.527 305.821 185.665 305.821 187.182C305.821 188.713 305.125 189.881 303.797 189.881C302.52 189.881 301.804 188.788 301.804 187.182ZM310.478 180.818H308.991V191H310.478V180.818ZM315.694 191.154C317.847 191.154 319.254 189.578 319.254 187.217C319.254 184.84 317.847 183.264 315.694 183.264C313.542 183.264 312.135 184.84 312.135 187.217C312.135 189.578 313.542 191.154 315.694 191.154ZM315.699 189.906C314.292 189.906 313.636 188.678 313.636 187.212C313.636 185.75 314.292 184.507 315.699 184.507C317.096 184.507 317.753 185.75 317.753 187.212C317.753 188.678 317.096 189.906 315.699 189.906ZM324.13 191.154C325.935 191.154 327.103 190.07 327.267 188.584H325.82C325.631 189.409 324.99 189.896 324.14 189.896C322.882 189.896 322.072 188.847 322.072 187.182C322.072 185.546 322.897 184.517 324.14 184.517C325.085 184.517 325.661 185.114 325.82 185.83H327.267C327.108 184.288 325.85 183.264 324.115 183.264C321.962 183.264 320.57 184.885 320.57 187.217C320.57 189.518 321.913 191.154 324.13 191.154ZM328.857 191H330.343V188.29L331.084 187.55L333.679 191H335.504L332.203 186.64L335.295 183.364H333.515L330.472 186.595H330.343V180.818H328.857V191ZM337.629 191.094C338.171 191.094 338.623 190.652 338.623 190.1C338.623 189.558 338.171 189.111 337.629 189.111C337.082 189.111 336.635 189.558 336.635 190.1C336.635 190.652 337.082 191.094 337.629 191.094ZM343.831 191.154C345.636 191.154 346.804 190.07 346.968 188.584H345.521C345.333 189.409 344.691 189.896 343.841 189.896C342.583 189.896 341.773 188.847 341.773 187.182C341.773 185.546 342.598 184.517 343.841 184.517C344.786 184.517 345.362 185.114 345.521 185.83H346.968C346.809 184.288 345.551 183.264 343.816 183.264C341.664 183.264 340.271 184.885 340.271 187.217C340.271 189.518 341.614 191.154 343.831 191.154ZM351.775 191.154C353.927 191.154 355.334 189.578 355.334 187.217C355.334 184.84 353.927 183.264 351.775 183.264C349.622 183.264 348.215 184.84 348.215 187.217C348.215 189.578 349.622 191.154 351.775 191.154ZM351.779 189.906C350.373 189.906 349.716 188.678 349.716 187.212C349.716 185.75 350.373 184.507 351.779 184.507C353.176 184.507 353.833 185.75 353.833 187.212C353.833 188.678 353.176 189.906 351.779 189.906ZM356.993 191H358.48V186.292C358.48 185.263 359.201 184.547 360.046 184.547C360.871 184.547 361.443 185.094 361.443 185.924V191H362.925V186.133C362.925 185.213 363.486 184.547 364.456 184.547C365.241 184.547 365.888 184.984 365.888 186.018V191H367.374V185.879C367.374 184.134 366.4 183.264 365.018 183.264C363.919 183.264 363.094 183.791 362.726 184.607H362.646C362.313 183.771 361.612 183.264 360.593 183.264C359.584 183.264 358.833 183.766 358.515 184.607H358.42V183.364H356.993V191Z" fill="#64778C"/>
<a href="mailto:hyates@block.com">
<rect fill="black" fill-opacity="0" y="-0.971591" width="127.363" height="16.9432"/>
</a>
<rect x="229" y="166" width="208" height="41" stroke="#D8DFE5"/>
<path d="M241.999 232H243.486V227.292C243.486 226.263 244.207 225.547 245.052 225.547C245.877 225.547 246.449 226.094 246.449 226.924V232H247.93V227.133C247.93 226.213 248.492 225.547 249.462 225.547C250.247 225.547 250.893 225.984 250.893 227.018V232H252.38V226.879C252.38 225.134 251.406 224.264 250.023 224.264C248.925 224.264 248.099 224.791 247.732 225.607H247.652C247.319 224.771 246.618 224.264 245.599 224.264C244.589 224.264 243.839 224.766 243.521 225.607H243.426V224.364H241.999V232ZM256.595 232.169C257.857 232.169 258.568 231.528 258.852 230.956H258.911V232H260.363V226.929C260.363 224.707 258.613 224.264 257.4 224.264C256.018 224.264 254.745 224.821 254.248 226.213L255.645 226.531C255.864 225.989 256.421 225.467 257.42 225.467C258.379 225.467 258.872 225.969 258.872 226.835V226.869C258.872 227.411 258.315 227.401 256.943 227.56C255.496 227.729 254.014 228.107 254.014 229.842C254.014 231.344 255.143 232.169 256.595 232.169ZM256.918 230.976C256.078 230.976 255.471 230.598 255.471 229.862C255.471 229.067 256.177 228.783 257.037 228.669C257.519 228.604 258.663 228.475 258.877 228.261V229.246C258.877 230.151 258.156 230.976 256.918 230.976ZM262.343 232H263.83V227.337C263.83 226.337 264.6 225.616 265.654 225.616C265.962 225.616 266.31 225.671 266.43 225.706V224.284C266.281 224.264 265.987 224.249 265.798 224.249C264.903 224.249 264.138 224.756 263.859 225.577H263.78V224.364H262.343V232ZM267.716 232H269.203V224.364H267.716V232ZM268.467 223.185C268.979 223.185 269.406 222.788 269.406 222.3C269.406 221.813 268.979 221.411 268.467 221.411C267.95 221.411 267.527 221.813 267.527 222.3C267.527 222.788 267.95 223.185 268.467 223.185ZM274.404 235.023C276.348 235.023 277.849 234.133 277.849 232.169V224.364H276.393V225.602H276.283C276.02 225.129 275.493 224.264 274.071 224.264C272.227 224.264 270.869 225.721 270.869 228.152C270.869 230.588 272.256 231.886 274.061 231.886C275.463 231.886 276.005 231.095 276.273 230.608H276.368V232.109C276.368 233.308 275.548 233.825 274.419 233.825C273.181 233.825 272.699 233.203 272.435 232.766L271.158 233.293C271.56 234.227 272.58 235.023 274.404 235.023ZM274.389 230.653C273.062 230.653 272.371 229.634 272.371 228.132C272.371 226.665 273.047 225.527 274.389 225.527C275.687 225.527 276.383 226.586 276.383 228.132C276.383 229.708 275.672 230.653 274.389 230.653ZM283.06 232.154C285.212 232.154 286.619 230.578 286.619 228.217C286.619 225.84 285.212 224.264 283.06 224.264C280.907 224.264 279.5 225.84 279.5 228.217C279.5 230.578 280.907 232.154 283.06 232.154ZM283.065 230.906C281.658 230.906 281.001 229.678 281.001 228.212C281.001 226.75 281.658 225.507 283.065 225.507C284.462 225.507 285.118 226.75 285.118 228.212C285.118 229.678 284.462 230.906 283.065 230.906ZM289.765 221.818H288.279V232H289.765V221.818ZM294.624 232.149C296.016 232.149 296.562 231.299 296.831 230.812H296.955V232H298.407V221.818H296.92V225.602H296.831C296.562 225.129 296.055 224.264 294.634 224.264C292.789 224.264 291.432 225.721 291.432 228.197C291.432 230.668 292.769 232.149 294.624 232.149ZM294.952 230.881C293.624 230.881 292.933 229.713 292.933 228.182C292.933 226.665 293.609 225.527 294.952 225.527C296.249 225.527 296.945 226.586 296.945 228.182C296.945 229.788 296.234 230.881 294.952 230.881ZM306.659 234.769C307.807 234.769 309.134 234.456 309.751 234.168L309.403 233.079C308.985 233.228 307.837 233.591 306.723 233.591C303.377 233.591 301.583 231.746 301.583 228.445C301.583 225.283 303.357 223.24 306.539 223.24C309.448 223.24 311.183 225.109 311.178 227.635C311.183 229.793 310.904 230.762 309.999 230.762C309.487 230.762 309.204 230.344 309.204 229.822V225.209H307.981V225.766H307.916C307.767 225.328 306.902 224.935 305.863 225.06C304.426 225.229 303.193 226.417 303.193 228.376C303.193 230.419 304.237 231.786 305.913 231.851C307.046 231.901 307.782 231.374 308.016 230.787H308.075C308.195 231.587 309.06 231.94 309.91 231.911C312.033 231.871 312.436 229.783 312.436 227.685C312.436 224.692 310.387 222.087 306.589 222.087C302.607 222.087 300.265 224.518 300.26 228.435C300.265 232.467 302.547 234.769 306.659 234.769ZM306.201 230.633C304.904 230.633 304.456 229.519 304.451 228.316C304.456 227.173 305.097 226.263 306.221 226.263C307.439 226.263 307.986 226.8 307.991 228.311C307.996 229.862 307.494 230.633 306.201 230.633ZM315.564 227.466C315.564 226.248 316.335 225.552 317.393 225.552C318.418 225.552 319.029 226.203 319.029 227.322V232H320.516V227.143C320.516 225.239 319.472 224.264 317.901 224.264C316.712 224.264 315.996 224.781 315.638 225.607H315.544V221.818H314.077V232H315.564V227.466ZM325.716 232.154C327.869 232.154 329.276 230.578 329.276 228.217C329.276 225.84 327.869 224.264 325.716 224.264C323.563 224.264 322.156 225.84 322.156 228.217C322.156 230.578 323.563 232.154 325.716 232.154ZM325.721 230.906C324.314 230.906 323.658 229.678 323.658 228.212C323.658 226.75 324.314 225.507 325.721 225.507C327.118 225.507 327.774 226.75 327.774 228.212C327.774 229.678 327.118 230.906 325.721 230.906ZM334.499 224.364H332.933V222.534H331.447V224.364H330.328V225.557H331.447V230.066C331.442 231.453 332.501 232.124 333.674 232.099C334.146 232.094 334.465 232.005 334.639 231.94L334.37 230.712C334.271 230.732 334.087 230.777 333.848 230.777C333.366 230.777 332.933 230.618 332.933 229.758V225.557H334.499V224.364ZM336.144 232H337.63V227.292C337.63 226.263 338.351 225.547 339.196 225.547C340.022 225.547 340.593 226.094 340.593 226.924V232H342.075V227.133C342.075 226.213 342.637 225.547 343.606 225.547C344.392 225.547 345.038 225.984 345.038 227.018V232H346.525V226.879C346.525 225.134 345.55 224.264 344.168 224.264C343.069 224.264 342.244 224.791 341.876 225.607H341.797C341.463 224.771 340.762 224.264 339.743 224.264C338.734 224.264 337.983 224.766 337.665 225.607H337.571V224.364H336.144V232ZM350.739 232.169C352.002 232.169 352.713 231.528 352.996 230.956H353.056V232H354.508V226.929C354.508 224.707 352.758 224.264 351.545 224.264C350.162 224.264 348.89 224.821 348.393 226.213L349.79 226.531C350.008 225.989 350.565 225.467 351.564 225.467C352.524 225.467 353.016 225.969 353.016 226.835V226.869C353.016 227.411 352.459 227.401 351.087 227.56C349.64 227.729 348.159 228.107 348.159 229.842C348.159 231.344 349.287 232.169 350.739 232.169ZM351.062 230.976C350.222 230.976 349.616 230.598 349.616 229.862C349.616 229.067 350.322 228.783 351.182 228.669C351.664 228.604 352.807 228.475 353.021 228.261V229.246C353.021 230.151 352.3 230.976 351.062 230.976ZM356.488 232H357.974V224.364H356.488V232ZM357.238 223.185C357.75 223.185 358.178 222.788 358.178 222.3C358.178 221.813 357.75 221.411 357.238 221.411C356.721 221.411 356.299 221.813 356.299 222.3C356.299 222.788 356.721 223.185 357.238 223.185ZM361.46 221.818H359.974V232H361.46V221.818ZM364.44 232.094C364.982 232.094 365.434 231.652 365.434 231.1C365.434 230.558 364.982 230.111 364.44 230.111C363.893 230.111 363.445 230.558 363.445 231.1C363.445 231.652 363.893 232.094 364.44 232.094ZM370.642 232.154C372.446 232.154 373.615 231.07 373.779 229.584H372.332C372.143 230.409 371.502 230.896 370.652 230.896C369.394 230.896 368.583 229.847 368.583 228.182C368.583 226.546 369.409 225.517 370.652 225.517C371.596 225.517 372.173 226.114 372.332 226.83H373.779C373.62 225.288 372.362 224.264 370.627 224.264C368.474 224.264 367.082 225.885 367.082 228.217C367.082 230.518 368.424 232.154 370.642 232.154ZM378.585 232.154C380.738 232.154 382.145 230.578 382.145 228.217C382.145 225.84 380.738 224.264 378.585 224.264C376.432 224.264 375.025 225.84 375.025 228.217C375.025 230.578 376.432 232.154 378.585 232.154ZM378.59 230.906C377.183 230.906 376.527 229.678 376.527 228.212C376.527 226.75 377.183 225.507 378.59 225.507C379.987 225.507 380.643 226.75 380.643 228.212C380.643 229.678 379.987 230.906 378.59 230.906ZM383.804 232H385.29V227.292C385.29 226.263 386.011 225.547 386.857 225.547C387.682 225.547 388.254 226.094 388.254 226.924V232H389.735V227.133C389.735 226.213 390.297 225.547 391.266 225.547C392.052 225.547 392.698 225.984 392.698 227.018V232H394.185V226.879C394.185 225.134 393.21 224.264 391.828 224.264C390.729 224.264 389.904 224.791 389.536 225.607H389.457C389.124 224.771 388.423 224.264 387.403 224.264C386.394 224.264 385.643 224.766 385.325 225.607H385.231V224.364H383.804V232Z" fill="#64778C"/>
<rect x="229" y="207" width="208" height="41" stroke="#D8DFE5"/>
<path d="M243.486 268.466C243.486 267.248 244.232 266.552 245.266 266.552C246.275 266.552 246.886 267.213 246.886 268.322V273H248.373V268.143C248.373 266.254 247.334 265.264 245.773 265.264C244.624 265.264 243.874 265.796 243.521 266.607H243.426V265.364H241.999V273H243.486V268.466ZM250.366 275.864H251.853V271.812H251.942C252.211 272.299 252.758 273.149 254.15 273.149C255.999 273.149 257.342 271.668 257.342 269.197C257.342 266.721 255.979 265.264 254.135 265.264C252.718 265.264 252.206 266.129 251.942 266.602H251.818V265.364H250.366V275.864ZM251.823 269.182C251.823 267.586 252.519 266.527 253.817 266.527C255.164 266.527 255.84 267.665 255.84 269.182C255.84 270.713 255.144 271.881 253.817 271.881C252.539 271.881 251.823 270.788 251.823 269.182ZM265.137 275.769C266.286 275.769 267.613 275.456 268.229 275.168L267.881 274.079C267.464 274.228 266.315 274.591 265.202 274.591C261.856 274.591 260.061 272.746 260.061 269.445C260.061 266.283 261.836 264.24 265.018 264.24C267.926 264.24 269.661 266.109 269.656 268.635C269.661 270.793 269.383 271.762 268.478 271.762C267.966 271.762 267.683 271.344 267.683 270.822V266.209H266.46V266.766H266.395C266.246 266.328 265.381 265.935 264.342 266.06C262.905 266.229 261.672 267.417 261.672 269.376C261.672 271.419 262.716 272.786 264.391 272.851C265.525 272.901 266.261 272.374 266.494 271.787H266.554C266.673 272.587 267.538 272.94 268.388 272.911C270.511 272.871 270.914 270.783 270.914 268.685C270.914 265.692 268.866 263.087 265.067 263.087C261.085 263.087 258.744 265.518 258.739 269.435C258.744 273.467 261.026 275.769 265.137 275.769ZM264.68 271.633C263.382 271.633 262.935 270.519 262.93 269.316C262.935 268.173 263.576 267.263 264.7 267.263C265.918 267.263 266.464 267.8 266.469 269.311C266.474 270.862 265.972 271.633 264.68 271.633ZM272.556 273H274.042V268.292C274.042 267.263 274.763 266.547 275.608 266.547C276.434 266.547 277.006 267.094 277.006 267.924V273H278.487V268.133C278.487 267.213 279.049 266.547 280.018 266.547C280.804 266.547 281.45 266.984 281.45 268.018V273H282.937V267.879C282.937 266.134 281.962 265.264 280.58 265.264C279.481 265.264 278.656 265.791 278.288 266.607H278.209C277.876 265.771 277.175 265.264 276.155 265.264C275.146 265.264 274.395 265.766 274.077 266.607H273.983V265.364H272.556V273ZM287.151 273.169C288.414 273.169 289.125 272.528 289.408 271.956H289.468V273H290.92V267.929C290.92 265.707 289.17 265.264 287.957 265.264C286.575 265.264 285.302 265.821 284.805 267.213L286.202 267.531C286.42 266.989 286.977 266.467 287.977 266.467C288.936 266.467 289.428 266.969 289.428 267.835V267.869C289.428 268.411 288.871 268.401 287.499 268.56C286.053 268.729 284.571 269.107 284.571 270.842C284.571 272.344 285.7 273.169 287.151 273.169ZM287.474 271.976C286.634 271.976 286.028 271.598 286.028 270.862C286.028 270.067 286.734 269.783 287.594 269.669C288.076 269.604 289.219 269.475 289.433 269.261V270.246C289.433 271.151 288.712 271.976 287.474 271.976ZM292.9 273H294.386V265.364H292.9V273ZM293.65 264.185C294.162 264.185 294.59 263.788 294.59 263.3C294.59 262.813 294.162 262.411 293.65 262.411C293.133 262.411 292.711 262.813 292.711 263.3C292.711 263.788 293.133 264.185 293.65 264.185ZM297.873 262.818H296.386V273H297.873V262.818ZM300.852 273.094C301.394 273.094 301.846 272.652 301.846 272.1C301.846 271.558 301.394 271.111 300.852 271.111C300.305 271.111 299.857 271.558 299.857 272.1C299.857 272.652 300.305 273.094 300.852 273.094ZM307.054 273.154C308.858 273.154 310.027 272.07 310.191 270.584H308.744C308.555 271.409 307.914 271.896 307.064 271.896C305.806 271.896 304.996 270.847 304.996 269.182C304.996 267.546 305.821 266.517 307.064 266.517C308.008 266.517 308.585 267.114 308.744 267.83H310.191C310.032 266.288 308.774 265.264 307.039 265.264C304.886 265.264 303.494 266.885 303.494 269.217C303.494 271.518 304.836 273.154 307.054 273.154ZM314.997 273.154C317.15 273.154 318.557 271.578 318.557 269.217C318.557 266.84 317.15 265.264 314.997 265.264C312.844 265.264 311.438 266.84 311.438 269.217C311.438 271.578 312.844 273.154 314.997 273.154ZM315.002 271.906C313.595 271.906 312.939 270.678 312.939 269.212C312.939 267.75 313.595 266.507 315.002 266.507C316.399 266.507 317.055 267.75 317.055 269.212C317.055 270.678 316.399 271.906 315.002 271.906ZM320.216 273H321.703V268.292C321.703 267.263 322.423 266.547 323.269 266.547C324.094 266.547 324.666 267.094 324.666 267.924V273H326.147V268.133C326.147 267.213 326.709 266.547 327.678 266.547C328.464 266.547 329.11 266.984 329.11 268.018V273H330.597V267.879C330.597 266.134 329.622 265.264 328.24 265.264C327.142 265.264 326.316 265.791 325.948 266.607H325.869C325.536 265.771 324.835 265.264 323.816 265.264C322.806 265.264 322.056 265.766 321.737 266.607H321.643V265.364H320.216V273Z" fill="#64778C"/>
<rect x="229" y="248" width="208" height="41" stroke="#D8DFE5"/>
<rect width="71" height="197" transform="translate(437 92)" fill="white"/>
<path d="M446.575 106.129C446.227 103.952 444.522 102.679 442.369 102.679C439.734 102.679 437.79 104.653 437.79 107.909C437.79 111.165 439.724 113.139 442.369 113.139C444.607 113.139 446.242 111.737 446.575 109.724L445.024 109.719C444.761 111.021 443.667 111.737 442.379 111.737C440.634 111.737 439.317 110.4 439.317 107.909C439.317 105.438 440.629 104.081 442.384 104.081C443.682 104.081 444.771 104.812 445.024 106.129H446.575ZM451.511 113.154C453.664 113.154 455.07 111.578 455.07 109.217C455.07 106.84 453.664 105.264 451.511 105.264C449.358 105.264 447.951 106.84 447.951 109.217C447.951 111.578 449.358 113.154 451.511 113.154ZM451.516 111.906C450.109 111.906 449.453 110.678 449.453 109.212C449.453 107.75 450.109 106.507 451.516 106.507C452.913 106.507 453.569 107.75 453.569 109.212C453.569 110.678 452.913 111.906 451.516 111.906ZM458.216 108.466C458.216 107.248 458.962 106.552 459.996 106.552C461.005 106.552 461.617 107.213 461.617 108.322V113H463.103V108.143C463.103 106.254 462.064 105.264 460.503 105.264C459.355 105.264 458.604 105.796 458.251 106.607H458.157V105.364H456.73V113H458.216V108.466ZM468.662 105.364H467.096V103.534H465.609V105.364H464.49V106.557H465.609V111.066C465.604 112.453 466.663 113.124 467.836 113.099C468.309 113.094 468.627 113.005 468.801 112.94L468.532 111.712C468.433 111.732 468.249 111.777 468.01 111.777C467.528 111.777 467.096 111.618 467.096 110.758V106.557H468.662V105.364ZM472.528 113.169C473.791 113.169 474.502 112.528 474.785 111.956H474.845V113H476.297V107.929C476.297 105.707 474.547 105.264 473.334 105.264C471.952 105.264 470.679 105.821 470.182 107.213L471.579 107.531C471.797 106.989 472.354 106.467 473.354 106.467C474.313 106.467 474.805 106.969 474.805 107.835V107.869C474.805 108.411 474.248 108.401 472.876 108.56C471.43 108.729 469.948 109.107 469.948 110.842C469.948 112.344 471.077 113.169 472.528 113.169ZM472.851 111.976C472.011 111.976 471.405 111.598 471.405 110.862C471.405 110.067 472.111 109.783 472.971 109.669C473.453 109.604 474.596 109.475 474.81 109.261V110.246C474.81 111.151 474.089 111.976 472.851 111.976ZM481.493 113.154C483.298 113.154 484.466 112.07 484.63 110.584H483.184C482.995 111.409 482.353 111.896 481.503 111.896C480.245 111.896 479.435 110.847 479.435 109.182C479.435 107.546 480.26 106.517 481.503 106.517C482.448 106.517 483.025 107.114 483.184 107.83H484.63C484.471 106.288 483.213 105.264 481.478 105.264C479.326 105.264 477.934 106.885 477.934 109.217C477.934 111.518 479.276 113.154 481.493 113.154ZM489.785 105.364H488.219V103.534H486.732V105.364H485.613V106.557H486.732V111.066C486.727 112.453 487.786 113.124 488.959 113.099C489.432 113.094 489.75 113.005 489.924 112.94L489.655 111.712C489.556 111.732 489.372 111.777 489.133 111.777C488.651 111.777 488.219 111.618 488.219 110.758V106.557H489.785V105.364ZM494.638 113.154C496.304 113.154 497.482 112.334 497.82 111.091L496.413 110.837C496.145 111.558 495.498 111.926 494.653 111.926C493.38 111.926 492.525 111.101 492.485 109.629H497.914V109.102C497.914 106.343 496.264 105.264 494.534 105.264C492.406 105.264 491.004 106.885 491.004 109.232C491.004 111.603 492.386 113.154 494.638 113.154ZM492.49 108.516C492.55 107.432 493.336 106.492 494.544 106.492C495.697 106.492 496.453 107.347 496.458 108.516H492.49ZM502.422 113.149C503.814 113.149 504.361 112.299 504.63 111.812H504.754V113H506.206V102.818H504.719V106.602H504.63C504.361 106.129 503.854 105.264 502.432 105.264C500.588 105.264 499.231 106.721 499.231 109.197C499.231 111.668 500.568 113.149 502.422 113.149ZM502.751 111.881C501.423 111.881 500.732 110.713 500.732 109.182C500.732 107.665 501.408 106.527 502.751 106.527C504.048 106.527 504.744 107.586 504.744 109.182C504.744 110.788 504.033 111.881 502.751 111.881Z" fill="#64778C"/>
<rect x="464" y="137" width="17" height="17" rx="2" fill="#6F59EC"/>
<path d="M477 142L470.812 149L468 145.818" stroke="white" stroke-width="2" stroke-linecap="round" stroke-linejoin="round"/>
<rect x="437" y="125" width="71" height="41" stroke="#D8DFE5"/>
<rect x="464" y="178" width="17" height="17" rx="2" fill="#6F59EC"/>
<path d="M477 183L470.812 190L468 186.818" stroke="white" stroke-width="2" stroke-linecap="round" stroke-linejoin="round"/>
<rect x="437" y="166" width="71" height="41" stroke="#D8DFE5"/>
<rect x="464.5" y="219.5" width="16" height="16" rx="1.5" stroke="#6F59EC"/>
<rect x="437" y="207" width="71" height="41" stroke="#D8DFE5"/>
<rect x="464.5" y="260.5" width="16" height="16" rx="1.5" stroke="#6F59EC"/>
<rect x="437" y="248" width="71" height="41" stroke="#D8DFE5"/>
<path d="M36 20H534V18H36V20ZM539 25V315H541V25H539ZM534 320H36V322H534V320ZM31 315V25H29V315H31ZM36 320C33.2386 320 31 317.761 31 315H29C29 318.866 32.134 322 36 322V320ZM539 315C539 317.761 536.761 320 534 320V322C537.866 322 541 318.866 541 315H539ZM534 20C536.761 20 539 22.2386 539 25H541C541 21.134 537.866 18 534 18V20ZM36 18C32.134 18 29 21.134 29 25H31C31 22.2386 33.2386 20 36 20V18Z" fill="#FAFBFC"/>
</g>
<defs>
<filter id="filter0_dddd_867_5240" x="0" y="0" width="570" height="362" filterUnits="userSpaceOnUse" color-interpolation-filters="sRGB">
<feFlood flood-opacity="0" result="BackgroundImageFix"/>
<feColorMatrix in="SourceAlpha" type="matrix" values="0 0 0 0 0 0 0 0 0 0 0 0 0 0 0 0 0 0 127 0" result="hardAlpha"/>
<feOffset dy="0.203704"/>
<feGaussianBlur stdDeviation="0.314815"/>
<feColorMatrix type="matrix" values="0 0 0 0 0.239216 0 0 0 0 0.305882 0 0 0 0 0.521569 0 0 0 0.07 0"/>
<feBlend mode="normal" in2="BackgroundImageFix" result="effect1_dropShadow_867_5240"/>
<feColorMatrix in="SourceAlpha" type="matrix" values="0 0 0 0 0 0 0 0 0 0 0 0 0 0 0 0 0 0 127 0" result="hardAlpha"/>
<feOffset dy="4.23704"/>
<feGaussianBlur stdDeviation="4.05"/>
<feColorMatrix type="matrix" values="0 0 0 0 0.239216 0 0 0 0 0.305882 0 0 0 0 0.521569 0 0 0 0.06 0"/>
<feBlend mode="normal" in2="effect1_dropShadow_867_5240" result="effect2_dropShadow_867_5240"/>
<feColorMatrix in="SourceAlpha" type="matrix" values="0 0 0 0 0 0 0 0 0 0 0 0 0 0 0 0 0 0 127 0" result="hardAlpha"/>
<feOffset dy="7.12963"/>
<feGaussianBlur stdDeviation="9.185"/>
<feColorMatrix type="matrix" values="0 0 0 0 0.239216 0 0 0 0 0.305882 0 0 0 0 0.521569 0 0 0 0.05 0"/>
<feBlend mode="normal" in2="effect2_dropShadow_867_5240" result="effect3_dropShadow_867_5240"/>
<feColorMatrix in="SourceAlpha" type="matrix" values="0 0 0 0 0 0 0 0 0 0 0 0 0 0 0 0 0 0 127 0" result="hardAlpha"/>
<feOffset dy="11"/>
<feGaussianBlur stdDeviation="15"/>
<feColorMatrix type="matrix" values="0 0 0 0 0.239216 0 0 0 0 0.305882 0 0 0 0 0.521569 0 0 0 0.04 0"/>
<feBlend mode="normal" in2="effect3_dropShadow_867_5240" result="effect4_dropShadow_867_5240"/>
<feBlend mode="normal" in="SourceGraphic" in2="effect4_dropShadow_867_5240" result="shape"/>
</filter>
</defs>
</svg>
