<svg width="260" height="200" viewBox="0 0 260 200" fill="none" xmlns="http://www.w3.org/2000/svg">
<rect x="0.5" y="0.5" width="259" height="146" rx="3.5" fill="#37434F"/>
<path d="M157 71.768C158.333 72.5378 158.333 74.4623 157 75.2321L118 97.7487C116.667 98.5185 115 97.5563 115 96.0167L115 50.9833C115 49.4437 116.667 48.4815 118 49.2513L157 71.768Z" fill="#F2F5FA"/>
<path d="M218.201 134.157C217.472 134.154 216.848 133.962 216.331 133.58C215.814 133.198 215.419 132.643 215.145 131.913C214.871 131.184 214.734 130.305 214.734 129.277C214.734 128.252 214.871 127.377 215.145 126.651C215.422 125.924 215.819 125.37 216.336 124.989C216.856 124.607 217.478 124.416 218.201 124.416C218.924 124.416 219.544 124.609 220.061 124.993C220.578 125.375 220.974 125.929 221.248 126.655C221.525 127.378 221.663 128.252 221.663 129.277C221.663 130.308 221.526 131.189 221.252 131.918C220.979 132.644 220.583 133.2 220.066 133.585C219.549 133.966 218.927 134.157 218.201 134.157ZM218.201 132.924C218.841 132.924 219.341 132.612 219.701 131.987C220.065 131.362 220.246 130.459 220.246 129.277C220.246 128.493 220.163 127.829 219.997 127.288C219.834 126.743 219.598 126.33 219.29 126.05C218.986 125.767 218.623 125.626 218.201 125.626C217.564 125.626 217.064 125.94 216.701 126.567C216.337 127.195 216.154 128.099 216.151 129.277C216.151 130.065 216.233 130.732 216.396 131.276C216.562 131.818 216.798 132.229 217.102 132.509C217.407 132.786 217.773 132.924 218.201 132.924ZM226.602 134.129C226.18 134.123 225.765 134.046 225.355 133.898C224.949 133.751 224.58 133.504 224.247 133.16C223.915 132.815 223.649 132.352 223.449 131.77C223.252 131.189 223.153 130.462 223.153 129.591C223.153 128.766 223.235 128.034 223.398 127.394C223.564 126.754 223.803 126.214 224.114 125.773C224.424 125.33 224.8 124.993 225.24 124.762C225.68 124.532 226.174 124.416 226.722 124.416C227.285 124.416 227.785 124.527 228.222 124.749C228.659 124.97 229.013 125.276 229.284 125.667C229.558 126.058 229.732 126.503 229.806 127.001H228.398C228.302 126.607 228.113 126.286 227.83 126.037C227.547 125.787 227.177 125.663 226.722 125.663C226.029 125.663 225.489 125.964 225.101 126.567C224.717 127.171 224.523 128.009 224.52 129.083H224.589C224.752 128.816 224.952 128.588 225.189 128.4C225.429 128.209 225.697 128.063 225.992 127.962C226.291 127.857 226.605 127.805 226.934 127.805C227.482 127.805 227.978 127.939 228.421 128.206C228.867 128.471 229.222 128.837 229.487 129.305C229.752 129.773 229.884 130.308 229.884 130.912C229.884 131.515 229.747 132.061 229.473 132.55C229.202 133.04 228.821 133.428 228.328 133.714C227.836 133.997 227.26 134.135 226.602 134.129ZM226.597 132.929C226.96 132.929 227.285 132.84 227.571 132.661C227.858 132.483 228.084 132.243 228.25 131.941C228.416 131.639 228.499 131.302 228.499 130.93C228.499 130.567 228.418 130.236 228.255 129.938C228.094 129.639 227.873 129.402 227.59 129.227C227.31 129.051 226.99 128.963 226.63 128.963C226.356 128.963 226.102 129.016 225.868 129.12C225.637 129.225 225.434 129.37 225.258 129.554C225.083 129.739 224.945 129.951 224.843 130.191C224.744 130.428 224.695 130.679 224.695 130.944C224.695 131.298 224.777 131.626 224.94 131.927C225.106 132.229 225.332 132.472 225.619 132.657C225.908 132.838 226.234 132.929 226.597 132.929ZM232.494 132.827C232.241 132.827 232.024 132.738 231.843 132.56C231.661 132.378 231.57 132.16 231.57 131.904C231.57 131.652 231.661 131.436 231.843 131.258C232.024 131.076 232.241 130.985 232.494 130.985C232.746 130.985 232.963 131.076 233.145 131.258C233.326 131.436 233.417 131.652 233.417 131.904C233.417 132.073 233.374 132.229 233.288 132.37C233.205 132.509 233.094 132.62 232.955 132.703C232.817 132.786 232.663 132.827 232.494 132.827ZM232.494 128.091C232.241 128.091 232.024 128.002 231.843 127.823C231.661 127.642 231.57 127.423 231.57 127.168C231.57 126.915 231.661 126.7 231.843 126.521C232.024 126.34 232.241 126.249 232.494 126.249C232.746 126.249 232.963 126.34 233.145 126.521C233.326 126.7 233.417 126.915 233.417 127.168C233.417 127.337 233.374 127.492 233.288 127.634C233.205 127.772 233.094 127.883 232.955 127.966C232.817 128.049 232.663 128.091 232.494 128.091ZM238.539 134.129C237.905 134.129 237.339 134.02 236.84 133.801C236.345 133.583 235.952 133.28 235.663 132.892C235.377 132.501 235.223 132.049 235.201 131.535H236.651C236.669 131.815 236.763 132.058 236.932 132.264C237.105 132.467 237.329 132.624 237.606 132.735C237.883 132.846 238.191 132.901 238.53 132.901C238.902 132.901 239.231 132.837 239.518 132.707C239.807 132.578 240.033 132.398 240.196 132.167C240.359 131.933 240.441 131.664 240.441 131.359C240.441 131.042 240.359 130.764 240.196 130.524C240.036 130.281 239.801 130.09 239.49 129.951C239.182 129.813 238.81 129.744 238.373 129.744H237.574V128.58H238.373C238.724 128.58 239.031 128.517 239.296 128.391C239.564 128.265 239.773 128.089 239.924 127.865C240.075 127.637 240.15 127.371 240.15 127.066C240.15 126.774 240.084 126.52 239.952 126.304C239.822 126.086 239.638 125.915 239.398 125.792C239.161 125.669 238.881 125.607 238.557 125.607C238.25 125.607 237.962 125.664 237.694 125.778C237.429 125.889 237.214 126.049 237.048 126.258C236.882 126.464 236.792 126.712 236.78 127.001H235.4C235.415 126.491 235.566 126.041 235.852 125.653C236.141 125.266 236.523 124.962 236.997 124.744C237.471 124.525 237.997 124.416 238.576 124.416C239.182 124.416 239.705 124.535 240.145 124.772C240.589 125.006 240.93 125.318 241.17 125.709C241.413 126.1 241.533 126.527 241.53 126.992C241.533 127.522 241.386 127.971 241.087 128.34C240.792 128.71 240.398 128.957 239.905 129.083V129.157C240.533 129.253 241.019 129.502 241.364 129.905C241.712 130.308 241.884 130.808 241.881 131.406C241.884 131.926 241.74 132.392 241.447 132.804C241.158 133.217 240.762 133.541 240.261 133.778C239.759 134.012 239.185 134.129 238.539 134.129ZM243.428 132.153V130.999L247.513 124.545H248.423V126.244H247.846L244.923 130.87V130.944H250.523V132.153H243.428ZM247.91 134V131.803L247.92 131.276V124.545H249.272V134H247.91Z" fill="#91A5BA"/>
<rect x="0.5" y="0.5" width="259" height="146" rx="3.5" stroke="#4D5C6C"/>
<path d="M3.25462 163.091V174H0.948153V163.091H3.25462ZM7.37882 169.27V174H5.10964V165.818H7.27228V167.262H7.36816C7.54927 166.786 7.85289 166.409 8.27903 166.132C8.70517 165.852 9.22186 165.712 9.8291 165.712C10.3973 165.712 10.8927 165.836 11.3153 166.085C11.7378 166.333 12.0663 166.688 12.3007 167.15C12.5351 167.608 12.6523 168.155 12.6523 168.79V174H10.3831V169.195C10.3866 168.695 10.2588 168.304 9.99956 168.023C9.74032 167.739 9.38343 167.597 8.92889 167.597C8.62349 167.597 8.3536 167.663 8.11923 167.794C7.88841 167.926 7.7073 168.118 7.57591 168.37C7.44806 168.618 7.38237 168.918 7.37882 169.27ZM18.7926 165.818V167.523H13.8654V165.818H18.7926ZM14.984 163.858H17.2532V171.486C17.2532 171.695 17.2852 171.859 17.3491 171.976C17.413 172.089 17.5018 172.169 17.6154 172.216C17.7326 172.262 17.8675 172.285 18.0202 172.285C18.1268 172.285 18.2333 172.276 18.3398 172.258C18.4464 172.237 18.5281 172.221 18.5849 172.21L18.9418 173.899C18.8281 173.934 18.6683 173.975 18.4624 174.021C18.2564 174.071 18.006 174.101 17.7113 174.112C17.1644 174.133 16.685 174.06 16.2731 173.893C15.8647 173.727 15.5469 173.467 15.3196 173.116C15.0923 172.764 14.9805 172.32 14.984 171.784V163.858ZM20.2708 174V165.818H22.4707V167.246H22.5559C22.7051 166.738 22.9554 166.354 23.307 166.095C23.6586 165.832 24.0634 165.701 24.5215 165.701C24.6351 165.701 24.7576 165.708 24.889 165.722C25.0204 165.737 25.1358 165.756 25.2353 165.781V167.794C25.1287 167.762 24.9814 167.734 24.7931 167.709C24.6049 167.684 24.4327 167.672 24.2765 167.672C23.9426 167.672 23.6444 167.745 23.3816 167.89C23.1223 168.032 22.9164 168.231 22.7637 168.487C22.6145 168.743 22.54 169.037 22.54 169.371V174H20.2708ZM29.7243 174.16C28.8969 174.16 28.1814 173.984 27.5777 173.632C26.9775 173.277 26.5141 172.784 26.1874 172.152C25.8607 171.516 25.6974 170.779 25.6974 169.941C25.6974 169.096 25.8607 168.357 26.1874 167.725C26.5141 167.089 26.9775 166.596 27.5777 166.244C28.1814 165.889 28.8969 165.712 29.7243 165.712C30.5518 165.712 31.2655 165.889 31.8657 166.244C32.4694 166.596 32.9346 167.089 33.2613 167.725C33.588 168.357 33.7513 169.096 33.7513 169.941C33.7513 170.779 33.588 171.516 33.2613 172.152C32.9346 172.784 32.4694 173.277 31.8657 173.632C31.2655 173.984 30.5518 174.16 29.7243 174.16ZM29.735 172.402C30.1114 172.402 30.4257 172.295 30.6778 172.082C30.93 171.866 31.1199 171.571 31.2478 171.198C31.3792 170.825 31.4449 170.401 31.4449 169.925C31.4449 169.449 31.3792 169.025 31.2478 168.652C31.1199 168.279 30.93 167.984 30.6778 167.768C30.4257 167.551 30.1114 167.443 29.735 167.443C29.355 167.443 29.0354 167.551 28.7762 167.768C28.5205 167.984 28.327 168.279 28.1956 168.652C28.0677 169.025 28.0038 169.449 28.0038 169.925C28.0038 170.401 28.0677 170.825 28.1956 171.198C28.327 171.571 28.5205 171.866 28.7762 172.082C29.0354 172.295 29.355 172.402 29.735 172.402ZM38.2417 174.133C37.6203 174.133 37.0574 173.973 36.5532 173.654C36.0525 173.331 35.6547 172.857 35.36 172.232C35.0688 171.603 34.9232 170.832 34.9232 169.92C34.9232 168.982 35.0741 168.203 35.376 167.581C35.6778 166.956 36.0791 166.489 36.5798 166.18C37.0841 165.868 37.6363 165.712 38.2364 165.712C38.6945 165.712 39.0763 165.79 39.3817 165.946C39.6906 166.099 39.9392 166.29 40.1274 166.521C40.3192 166.749 40.4648 166.972 40.5642 167.192H40.6334V163.091H42.8973V174H40.6601V172.69H40.5642C40.4577 172.917 40.3067 173.142 40.1114 173.366C39.9197 173.586 39.6693 173.769 39.3604 173.915C39.055 174.06 38.6821 174.133 38.2417 174.133ZM38.9608 172.327C39.3266 172.327 39.6356 172.228 39.8877 172.029C40.1434 171.827 40.3387 171.544 40.4736 171.182C40.6121 170.82 40.6814 170.396 40.6814 169.909C40.6814 169.423 40.6139 169 40.479 168.641C40.344 168.283 40.1487 168.006 39.893 167.81C39.6373 167.615 39.3266 167.517 38.9608 167.517C38.588 167.517 38.2737 167.619 38.018 167.821C37.7623 168.023 37.5688 168.304 37.4374 168.663C37.306 169.021 37.2403 169.437 37.2403 169.909C37.2403 170.385 37.306 170.806 37.4374 171.172C37.5724 171.534 37.7659 171.818 38.018 172.024C38.2737 172.226 38.588 172.327 38.9608 172.327ZM50.0098 170.516V165.818H52.2789V174H50.1003V172.514H50.0151C49.8304 172.993 49.5233 173.379 49.0936 173.67C48.6674 173.961 48.1472 174.107 47.5328 174.107C46.986 174.107 46.5048 173.982 46.0893 173.734C45.6738 173.485 45.3489 173.132 45.1145 172.674C44.8837 172.216 44.7665 171.667 44.763 171.028V165.818H47.0321V170.623C47.0357 171.106 47.1653 171.488 47.421 171.768C47.6767 172.049 48.0194 172.189 48.449 172.189C48.7225 172.189 48.9782 172.127 49.2161 172.002C49.454 171.875 49.6458 171.686 49.7914 171.438C49.9405 171.189 50.0133 170.882 50.0098 170.516ZM57.7907 174.16C56.9527 174.16 56.2318 173.982 55.6281 173.627C55.028 173.268 54.5663 172.771 54.2432 172.136C53.9236 171.5 53.7638 170.768 53.7638 169.941C53.7638 169.103 53.9253 168.368 54.2485 167.736C54.5752 167.1 55.0386 166.605 55.6388 166.25C56.2389 165.891 56.9527 165.712 57.7801 165.712C58.4939 165.712 59.1189 165.841 59.6551 166.1C60.1913 166.36 60.6157 166.724 60.9282 167.192C61.2407 167.661 61.4129 168.212 61.4449 168.844H59.3035C59.2432 168.435 59.0834 168.107 58.8241 167.858C58.5684 167.606 58.2329 167.48 57.8174 167.48C57.4658 167.48 57.1586 167.576 56.8959 167.768C56.6366 167.956 56.4342 168.231 56.2886 168.593C56.143 168.956 56.0702 169.394 56.0702 169.909C56.0702 170.431 56.1412 170.875 56.2833 171.241C56.4289 171.607 56.6331 171.885 56.8959 172.077C57.1586 172.269 57.4658 172.365 57.8174 172.365C58.0766 172.365 58.3092 172.311 58.5152 172.205C58.7247 172.098 58.8969 171.944 59.0319 171.741C59.1704 171.536 59.2609 171.289 59.3035 171.001H61.4449C61.4094 171.626 61.2389 172.176 60.9335 172.652C60.6317 173.125 60.2144 173.494 59.6817 173.76C59.1491 174.027 58.5187 174.16 57.7907 174.16ZM62.8977 174V165.818H65.1669V174H62.8977ZM64.0376 164.763C63.7003 164.763 63.4109 164.652 63.1694 164.428C62.9315 164.201 62.8125 163.929 62.8125 163.613C62.8125 163.3 62.9315 163.032 63.1694 162.809C63.4109 162.581 63.7003 162.468 64.0376 162.468C64.375 162.468 64.6626 162.581 64.9006 162.809C65.142 163.032 65.2628 163.3 65.2628 163.613C65.2628 163.929 65.142 164.201 64.9006 164.428C64.6626 164.652 64.375 164.763 64.0376 164.763ZM69.2538 169.27V174H66.9846V165.818H69.1473V167.262H69.2432C69.4243 166.786 69.7279 166.409 70.154 166.132C70.5802 165.852 71.0969 165.712 71.7041 165.712C72.2723 165.712 72.7677 165.836 73.1903 166.085C73.6128 166.333 73.9413 166.688 74.1757 167.15C74.4101 167.608 74.5273 168.155 74.5273 168.79V174H72.2581V169.195C72.2616 168.695 72.1338 168.304 71.8746 168.023C71.6153 167.739 71.2584 167.597 70.8039 167.597C70.4985 167.597 70.2286 167.663 69.9942 167.794C69.7634 167.926 69.5823 168.118 69.4509 168.37C69.3231 168.618 69.2574 168.918 69.2538 169.27ZM80.0018 177.239C79.2667 177.239 78.6364 177.137 78.1108 176.935C77.5888 176.736 77.1733 176.464 76.8643 176.12C76.5554 175.776 76.3548 175.388 76.2624 174.959L78.3612 174.676C78.4251 174.84 78.5263 174.993 78.6648 175.135C78.8033 175.277 78.9862 175.39 79.2134 175.475C79.4442 175.564 79.7248 175.609 80.055 175.609C80.5487 175.609 80.9553 175.488 81.2749 175.246C81.598 175.009 81.7596 174.609 81.7596 174.048V172.551H81.6637C81.5643 172.778 81.4151 172.993 81.2163 173.196C81.0174 173.398 80.7617 173.563 80.4492 173.691C80.1367 173.819 79.7638 173.883 79.3306 173.883C78.7163 173.883 78.157 173.741 77.6527 173.457C77.152 173.169 76.7525 172.73 76.4542 172.141C76.1594 171.548 76.0121 170.799 76.0121 169.893C76.0121 168.966 76.163 168.192 76.4648 167.571C76.7667 166.949 77.168 166.484 77.6687 166.175C78.1729 165.866 78.7251 165.712 79.3253 165.712C79.7834 165.712 80.1669 165.79 80.4759 165.946C80.7848 166.099 81.0334 166.29 81.2216 166.521C81.4134 166.749 81.5607 166.972 81.6637 167.192H81.7489V165.818H84.0021V174.08C84.0021 174.776 83.8317 175.358 83.4908 175.827C83.1499 176.296 82.6776 176.647 82.0739 176.882C81.4737 177.12 80.783 177.239 80.0018 177.239ZM80.0497 172.178C80.4155 172.178 80.7244 172.088 80.9766 171.907C81.2322 171.722 81.4276 171.459 81.5625 171.118C81.701 170.774 81.7702 170.362 81.7702 169.882C81.7702 169.403 81.7028 168.988 81.5678 168.636C81.4329 168.281 81.2376 168.006 80.9819 167.81C80.7262 167.615 80.4155 167.517 80.0497 167.517C79.6768 167.517 79.3626 167.619 79.1069 167.821C78.8512 168.02 78.6577 168.297 78.5263 168.652C78.3949 169.007 78.3292 169.417 78.3292 169.882C78.3292 170.355 78.3949 170.763 78.5263 171.108C78.6612 171.449 78.8548 171.713 79.1069 171.901C79.3626 172.086 79.6768 172.178 80.0497 172.178ZM93.6315 165.818V167.523H88.7043V165.818H93.6315ZM89.8229 163.858H92.0921V171.486C92.0921 171.695 92.124 171.859 92.1879 171.976C92.2519 172.089 92.3406 172.169 92.4543 172.216C92.5715 172.262 92.7064 172.285 92.8591 172.285C92.9656 172.285 93.0722 172.276 93.1787 172.258C93.2852 172.237 93.3669 172.221 93.4237 172.21L93.7806 173.899C93.667 173.934 93.5072 173.975 93.3012 174.021C93.0953 174.071 92.8449 174.101 92.5502 174.112C92.0033 174.133 91.5239 174.06 91.1119 173.893C90.7036 173.727 90.3857 173.467 90.1585 173.116C89.9312 172.764 89.8193 172.32 89.8229 171.784V163.858ZM97.5546 169.27V174H95.2854V163.091H97.4907V167.262H97.5866C97.7712 166.779 98.0695 166.401 98.4814 166.127C98.8934 165.85 99.4101 165.712 100.032 165.712C100.6 165.712 101.095 165.836 101.518 166.085C101.944 166.33 102.274 166.683 102.508 167.145C102.746 167.603 102.864 168.151 102.86 168.79V174H100.591V169.195C100.594 168.691 100.467 168.299 100.207 168.018C99.9516 167.738 99.593 167.597 99.1313 167.597C98.8224 167.597 98.5489 167.663 98.311 167.794C98.0766 167.926 97.892 168.118 97.757 168.37C97.6256 168.618 97.5581 168.918 97.5546 169.27ZM108.374 174.16C107.533 174.16 106.808 173.989 106.201 173.648C105.597 173.304 105.132 172.817 104.806 172.189C104.479 171.557 104.316 170.809 104.316 169.946C104.316 169.105 104.479 168.366 104.806 167.73C105.132 167.095 105.592 166.599 106.185 166.244C106.782 165.889 107.481 165.712 108.284 165.712C108.824 165.712 109.326 165.799 109.791 165.973C110.26 166.143 110.669 166.401 111.017 166.745C111.368 167.089 111.642 167.523 111.837 168.045C112.032 168.563 112.13 169.17 112.13 169.866V170.49H105.221V169.083H109.994C109.994 168.757 109.923 168.467 109.781 168.215C109.639 167.963 109.442 167.766 109.189 167.624C108.941 167.478 108.651 167.406 108.321 167.406C107.977 167.406 107.671 167.485 107.405 167.645C107.142 167.801 106.936 168.013 106.787 168.279C106.638 168.542 106.562 168.835 106.558 169.158V170.495C106.558 170.9 106.633 171.25 106.782 171.544C106.934 171.839 107.149 172.066 107.426 172.226C107.703 172.386 108.032 172.466 108.412 172.466C108.664 172.466 108.895 172.43 109.104 172.359C109.314 172.288 109.493 172.182 109.642 172.04C109.791 171.898 109.905 171.724 109.983 171.518L112.082 171.656C111.975 172.161 111.757 172.601 111.427 172.977C111.1 173.35 110.677 173.641 110.159 173.851C109.644 174.057 109.049 174.16 108.374 174.16ZM117.125 174V163.091H121.493C122.295 163.091 122.965 163.21 123.501 163.448C124.037 163.686 124.44 164.016 124.71 164.439C124.98 164.858 125.115 165.341 125.115 165.887C125.115 166.314 125.03 166.688 124.859 167.011C124.689 167.331 124.454 167.594 124.156 167.8C123.861 168.002 123.524 168.146 123.144 168.231V168.338C123.56 168.355 123.948 168.473 124.311 168.689C124.676 168.906 124.973 169.21 125.2 169.6C125.427 169.987 125.541 170.449 125.541 170.985C125.541 171.564 125.397 172.081 125.11 172.535C124.826 172.986 124.405 173.343 123.847 173.606C123.29 173.869 122.603 174 121.786 174H117.125ZM119.431 172.114H121.312C121.954 172.114 122.423 171.992 122.718 171.747C123.013 171.498 123.16 171.168 123.16 170.756C123.16 170.454 123.087 170.188 122.942 169.957C122.796 169.726 122.588 169.545 122.318 169.414C122.052 169.282 121.734 169.217 121.365 169.217H119.431V172.114ZM119.431 167.656H121.141C121.457 167.656 121.738 167.601 121.983 167.491C122.231 167.377 122.427 167.217 122.569 167.011C122.714 166.805 122.787 166.559 122.787 166.271C122.787 165.877 122.647 165.559 122.366 165.317C122.089 165.076 121.695 164.955 121.184 164.955H119.431V167.656ZM129.268 163.091V174H126.999V163.091H129.268ZM134.783 174.16C133.956 174.16 133.24 173.984 132.636 173.632C132.036 173.277 131.573 172.784 131.246 172.152C130.919 171.516 130.756 170.779 130.756 169.941C130.756 169.096 130.919 168.357 131.246 167.725C131.573 167.089 132.036 166.596 132.636 166.244C133.24 165.889 133.956 165.712 134.783 165.712C135.61 165.712 136.324 165.889 136.924 166.244C137.528 166.596 137.993 167.089 138.32 167.725C138.647 168.357 138.81 169.096 138.81 169.941C138.81 170.779 138.647 171.516 138.32 172.152C137.993 172.784 137.528 173.277 136.924 173.632C136.324 173.984 135.61 174.16 134.783 174.16ZM134.794 172.402C135.17 172.402 135.484 172.295 135.736 172.082C135.989 171.866 136.179 171.571 136.306 171.198C136.438 170.825 136.503 170.401 136.503 169.925C136.503 169.449 136.438 169.025 136.306 168.652C136.179 168.279 135.989 167.984 135.736 167.768C135.484 167.551 135.17 167.443 134.794 167.443C134.414 167.443 134.094 167.551 133.835 167.768C133.579 167.984 133.386 168.279 133.254 168.652C133.126 169.025 133.062 169.449 133.062 169.925C133.062 170.401 133.126 170.825 133.254 171.198C133.386 171.571 133.579 171.866 133.835 172.082C134.094 172.295 134.414 172.402 134.794 172.402ZM143.982 174.16C143.144 174.16 142.423 173.982 141.82 173.627C141.219 173.268 140.758 172.771 140.435 172.136C140.115 171.5 139.955 170.768 139.955 169.941C139.955 169.103 140.117 168.368 140.44 167.736C140.767 167.1 141.23 166.605 141.83 166.25C142.43 165.891 143.144 165.712 143.972 165.712C144.685 165.712 145.31 165.841 145.847 166.1C146.383 166.36 146.807 166.724 147.12 167.192C147.432 167.661 147.604 168.212 147.636 168.844H145.495C145.435 168.435 145.275 168.107 145.016 167.858C144.76 167.606 144.424 167.48 144.009 167.48C143.657 167.48 143.35 167.576 143.087 167.768C142.828 167.956 142.626 168.231 142.48 168.593C142.334 168.956 142.262 169.394 142.262 169.909C142.262 170.431 142.333 170.875 142.475 171.241C142.62 171.607 142.824 171.885 143.087 172.077C143.35 172.269 143.657 172.365 144.009 172.365C144.268 172.365 144.501 172.311 144.707 172.205C144.916 172.098 145.088 171.944 145.223 171.741C145.362 171.536 145.452 171.289 145.495 171.001H147.636C147.601 171.626 147.43 172.176 147.125 172.652C146.823 173.125 146.406 173.494 145.873 173.76C145.34 174.027 144.71 174.16 143.982 174.16ZM151.145 171.646L151.151 168.924H151.481L154.102 165.818H156.706L153.185 169.93H152.647L151.145 171.646ZM149.089 174V163.091H151.358V174H149.089ZM154.203 174L151.795 170.436L153.308 168.833L156.861 174H154.203ZM161.334 174V163.091H165.638C166.465 163.091 167.17 163.249 167.753 163.565C168.335 163.877 168.779 164.312 169.084 164.87C169.393 165.424 169.548 166.063 169.548 166.788C169.548 167.512 169.391 168.151 169.079 168.705C168.766 169.259 168.314 169.691 167.721 170C167.131 170.309 166.417 170.463 165.579 170.463H162.836V168.615H165.206C165.65 168.615 166.016 168.538 166.304 168.386C166.595 168.229 166.812 168.015 166.954 167.741C167.099 167.464 167.172 167.146 167.172 166.788C167.172 166.425 167.099 166.109 166.954 165.839C166.812 165.566 166.595 165.355 166.304 165.206C166.013 165.053 165.643 164.977 165.196 164.977H163.64V174H161.334ZM171.003 174V165.818H173.203V167.246H173.288C173.438 166.738 173.688 166.354 174.039 166.095C174.391 165.832 174.796 165.701 175.254 165.701C175.368 165.701 175.49 165.708 175.621 165.722C175.753 165.737 175.868 165.756 175.968 165.781V167.794C175.861 167.762 175.714 167.734 175.526 167.709C175.337 167.684 175.165 167.672 175.009 167.672C174.675 167.672 174.377 167.745 174.114 167.89C173.855 168.032 173.649 168.231 173.496 168.487C173.347 168.743 173.272 169.037 173.272 169.371V174H171.003ZM180.457 174.16C179.629 174.16 178.914 173.984 178.31 173.632C177.71 173.277 177.247 172.784 176.92 172.152C176.593 171.516 176.43 170.779 176.43 169.941C176.43 169.096 176.593 168.357 176.92 167.725C177.247 167.089 177.71 166.596 178.31 166.244C178.914 165.889 179.629 165.712 180.457 165.712C181.284 165.712 181.998 165.889 182.598 166.244C183.202 166.596 183.667 167.089 183.994 167.725C184.32 168.357 184.484 169.096 184.484 169.941C184.484 170.779 184.32 171.516 183.994 172.152C183.667 172.784 183.202 173.277 182.598 173.632C181.998 173.984 181.284 174.16 180.457 174.16ZM180.467 172.402C180.844 172.402 181.158 172.295 181.41 172.082C181.662 171.866 181.852 171.571 181.98 171.198C182.112 170.825 182.177 170.401 182.177 169.925C182.177 169.449 182.112 169.025 181.98 168.652C181.852 168.279 181.662 167.984 181.41 167.768C181.158 167.551 180.844 167.443 180.467 167.443C180.087 167.443 179.768 167.551 179.509 167.768C179.253 167.984 179.059 168.279 178.928 168.652C178.8 169.025 178.736 169.449 178.736 169.925C178.736 170.401 178.8 170.825 178.928 171.198C179.059 171.571 179.253 171.866 179.509 172.082C179.768 172.295 180.087 172.402 180.467 172.402ZM190.311 165.818V167.523H185.384V165.818H190.311ZM186.503 163.858H188.772V171.486C188.772 171.695 188.804 171.859 188.868 171.976C188.932 172.089 189.02 172.169 189.134 172.216C189.251 172.262 189.386 172.285 189.539 172.285C189.645 172.285 189.752 172.276 189.858 172.258C189.965 172.237 190.047 172.221 190.103 172.21L190.46 173.899C190.347 173.934 190.187 173.975 189.981 174.021C189.775 174.071 189.525 174.101 189.23 174.112C188.683 174.133 188.204 174.06 187.792 173.893C187.383 173.727 187.065 173.467 186.838 173.116C186.611 172.764 186.499 172.32 186.503 171.784V163.858ZM195.398 174.16C194.571 174.16 193.855 173.984 193.252 173.632C192.651 173.277 192.188 172.784 191.861 172.152C191.535 171.516 191.371 170.779 191.371 169.941C191.371 169.096 191.535 168.357 191.861 167.725C192.188 167.089 192.651 166.596 193.252 166.244C193.855 165.889 194.571 165.712 195.398 165.712C196.226 165.712 196.939 165.889 197.54 166.244C198.143 166.596 198.608 167.089 198.935 167.725C199.262 168.357 199.425 169.096 199.425 169.941C199.425 170.779 199.262 171.516 198.935 172.152C198.608 172.784 198.143 173.277 197.54 173.632C196.939 173.984 196.226 174.16 195.398 174.16ZM195.409 172.402C195.785 172.402 196.1 172.295 196.352 172.082C196.604 171.866 196.794 171.571 196.922 171.198C197.053 170.825 197.119 170.401 197.119 169.925C197.119 169.449 197.053 169.025 196.922 168.652C196.794 168.279 196.604 167.984 196.352 167.768C196.1 167.551 195.785 167.443 195.409 167.443C195.029 167.443 194.709 167.551 194.45 167.768C194.194 167.984 194.001 168.279 193.869 168.652C193.742 169.025 193.678 169.449 193.678 169.925C193.678 170.401 193.742 170.825 193.869 171.198C194.001 171.571 194.194 171.866 194.45 172.082C194.709 172.295 195.029 172.402 195.409 172.402ZM204.597 174.16C203.759 174.16 203.038 173.982 202.435 173.627C201.835 173.268 201.373 172.771 201.05 172.136C200.73 171.5 200.57 170.768 200.57 169.941C200.57 169.103 200.732 168.368 201.055 167.736C201.382 167.1 201.845 166.605 202.445 166.25C203.046 165.891 203.759 165.712 204.587 165.712C205.301 165.712 205.926 165.841 206.462 166.1C206.998 166.36 207.422 166.724 207.735 167.192C208.047 167.661 208.22 168.212 208.252 168.844H206.11C206.05 168.435 205.89 168.107 205.631 167.858C205.375 167.606 205.04 167.48 204.624 167.48C204.272 167.48 203.965 167.576 203.703 167.768C203.443 167.956 203.241 168.231 203.095 168.593C202.95 168.956 202.877 169.394 202.877 169.909C202.877 170.431 202.948 170.875 203.09 171.241C203.236 171.607 203.44 171.885 203.703 172.077C203.965 172.269 204.272 172.365 204.624 172.365C204.883 172.365 205.116 172.311 205.322 172.205C205.531 172.098 205.704 171.944 205.839 171.741C205.977 171.536 206.068 171.289 206.11 171.001H208.252C208.216 171.626 208.046 172.176 207.74 172.652C207.438 173.125 207.021 173.494 206.488 173.76C205.956 174.027 205.325 174.16 204.597 174.16ZM213.401 174.16C212.574 174.16 211.858 173.984 211.254 173.632C210.654 173.277 210.191 172.784 209.864 172.152C209.537 171.516 209.374 170.779 209.374 169.941C209.374 169.096 209.537 168.357 209.864 167.725C210.191 167.089 210.654 166.596 211.254 166.244C211.858 165.889 212.574 165.712 213.401 165.712C214.229 165.712 214.942 165.889 215.542 166.244C216.146 166.596 216.611 167.089 216.938 167.725C217.265 168.357 217.428 169.096 217.428 169.941C217.428 170.779 217.265 171.516 216.938 172.152C216.611 172.784 216.146 173.277 215.542 173.632C214.942 173.984 214.229 174.16 213.401 174.16ZM213.412 172.402C213.788 172.402 214.102 172.295 214.355 172.082C214.607 171.866 214.797 171.571 214.925 171.198C215.056 170.825 215.122 170.401 215.122 169.925C215.122 169.449 215.056 169.025 214.925 168.652C214.797 168.279 214.607 167.984 214.355 167.768C214.102 167.551 213.788 167.443 213.412 167.443C213.032 167.443 212.712 167.551 212.453 167.768C212.197 167.984 212.004 168.279 211.872 168.652C211.744 169.025 211.681 169.449 211.681 169.925C211.681 170.401 211.744 170.825 211.872 171.198C212.004 171.571 212.197 171.866 212.453 172.082C212.712 172.295 213.032 172.402 213.412 172.402ZM221.173 163.091V174H218.904V163.091H221.173Z" fill="#4D5C6C"/>
<path d="M6.62003 197.571C5.66596 197.571 4.8196 197.441 4.08097 197.179C3.34541 196.92 2.72526 196.539 2.22053 196.034C1.71579 195.532 1.33262 194.917 1.07102 194.188C0.809422 193.458 0.678622 192.626 0.678622 191.69C0.678622 190.779 0.810961 189.96 1.07564 189.234C1.34032 188.508 1.72502 187.889 2.22976 187.378C2.73757 186.864 3.35464 186.472 4.08097 186.201C4.80729 185.93 5.6321 185.795 6.5554 185.795C7.43868 185.795 8.21733 185.933 8.89134 186.21C9.56534 186.487 10.1316 186.867 10.5902 187.35C11.0518 187.834 11.3996 188.388 11.6335 189.012C11.8674 189.637 11.9844 190.297 11.9844 190.993C11.9844 191.479 11.9536 191.955 11.892 192.419C11.8305 192.881 11.7166 193.3 11.5504 193.675C11.3873 194.047 11.1503 194.346 10.8395 194.571C10.5317 194.792 10.1316 194.908 9.63921 194.917C9.3776 194.926 9.1237 194.895 8.87749 194.825C8.63127 194.754 8.42199 194.64 8.24964 194.483C8.0773 194.323 7.97266 194.12 7.93572 193.874H7.88033C7.80646 194.055 7.68336 194.224 7.51101 194.381C7.33866 194.535 7.11861 194.658 6.85085 194.751C6.58617 194.84 6.27841 194.877 5.92756 194.862C5.53977 194.846 5.19046 194.758 4.87962 194.598C4.56877 194.438 4.30256 194.217 4.08097 193.934C3.86245 193.65 3.69472 193.315 3.57777 192.927C3.46082 192.539 3.40234 192.109 3.40234 191.635C3.40234 191.179 3.46851 190.771 3.60085 190.411C3.73319 190.048 3.91323 189.736 4.14098 189.474C4.3718 189.209 4.63648 189 4.93501 188.846C5.23355 188.692 5.54901 188.595 5.88139 188.555C6.20455 188.518 6.50154 188.528 6.77237 188.583C7.04321 188.638 7.26787 188.723 7.44638 188.837C7.62796 188.951 7.74183 189.076 7.788 189.211H7.84801V188.694H8.98367V192.978C8.98367 193.221 9.04676 193.427 9.17294 193.597C9.3022 193.766 9.48532 193.85 9.7223 193.85C10.0024 193.85 10.2209 193.747 10.3778 193.541C10.5379 193.335 10.6502 193.018 10.7148 192.59C10.7826 192.162 10.8164 191.615 10.8164 190.947C10.8164 190.479 10.7533 190.039 10.6271 189.626C10.504 189.211 10.3209 188.835 10.0778 188.5C9.83771 188.161 9.54226 187.871 9.19141 187.627C8.84055 187.384 8.44046 187.197 7.99112 187.064C7.54486 186.932 7.0509 186.866 6.50923 186.866C5.77367 186.866 5.11967 186.98 4.54723 187.207C3.97479 187.432 3.4916 187.757 3.09766 188.181C2.70679 188.606 2.4098 189.116 2.20668 189.71C2.00663 190.3 1.90661 190.964 1.90661 191.699C1.90661 192.466 2.00971 193.146 2.21591 193.74C2.42211 194.331 2.7268 194.829 3.12997 195.235C3.53314 195.642 4.03172 195.949 4.62571 196.159C5.2197 196.371 5.90447 196.477 6.68004 196.477C7.02474 196.477 7.36328 196.446 7.69567 196.385C8.02805 196.326 8.32351 196.259 8.58203 196.182C8.84363 196.108 9.03906 196.048 9.16832 196.002L9.49148 197.013C9.30066 197.102 9.04676 197.19 8.72976 197.276C8.41584 197.362 8.07422 197.433 7.7049 197.488C7.33866 197.544 6.97704 197.571 6.62003 197.571ZM6.19531 193.73C6.59541 193.73 6.91702 193.65 7.16016 193.49C7.40637 193.33 7.58333 193.092 7.69105 192.775C7.80185 192.455 7.85724 192.055 7.85724 191.575C7.85417 191.107 7.79415 190.734 7.6772 190.457C7.56333 190.177 7.38483 189.977 7.14169 189.857C6.90163 189.734 6.59233 189.673 6.21378 189.673C5.866 189.673 5.56901 189.757 5.3228 189.926C5.07966 190.096 4.89347 190.325 4.7642 190.614C4.63802 190.904 4.57339 191.225 4.57031 191.579C4.57339 191.952 4.62571 192.302 4.72727 192.632C4.83191 192.958 5.00118 193.223 5.23509 193.426C5.47206 193.629 5.79214 193.73 6.19531 193.73ZM13.6198 195V185.545H15.0001V189.059H15.0832C15.1632 188.911 15.2786 188.74 15.4294 188.546C15.5802 188.352 15.7895 188.183 16.0573 188.038C16.325 187.891 16.6789 187.817 17.1191 187.817C17.6915 187.817 18.2024 187.961 18.6517 188.251C19.1011 188.54 19.4535 188.957 19.7089 189.502C19.9674 190.047 20.0967 190.702 20.0967 191.468C20.0967 192.235 19.969 192.892 19.7135 193.44C19.4581 193.984 19.1072 194.404 18.661 194.7C18.2147 194.992 17.7053 195.138 17.1329 195.138C16.702 195.138 16.3496 195.066 16.0757 194.922C15.8049 194.777 15.5925 194.608 15.4387 194.414C15.2848 194.22 15.1663 194.047 15.0832 193.897H14.9678V195H13.6198ZM14.9724 191.455C14.9724 191.953 15.0447 192.39 15.1894 192.766C15.334 193.141 15.5433 193.435 15.8172 193.647C16.0911 193.857 16.4266 193.961 16.8236 193.961C17.236 193.961 17.5807 193.852 17.8577 193.634C18.1347 193.412 18.344 193.112 18.4855 192.733C18.6302 192.355 18.7025 191.929 18.7025 191.455C18.7025 190.987 18.6317 190.567 18.4901 190.194C18.3517 189.822 18.1424 189.528 17.8623 189.312C17.5853 189.097 17.2391 188.989 16.8236 188.989C16.4235 188.989 16.085 189.092 15.808 189.299C15.5341 189.505 15.3263 189.793 15.1847 190.162C15.0432 190.531 14.9724 190.962 14.9724 191.455ZM23.027 185.545V195H21.6467V185.545H23.027ZM27.8708 195.143C27.2061 195.143 26.6259 194.991 26.1304 194.686C25.6349 194.381 25.2502 193.955 24.9763 193.407C24.7024 192.859 24.5654 192.219 24.5654 191.487C24.5654 190.751 24.7024 190.108 24.9763 189.557C25.2502 189.006 25.6349 188.578 26.1304 188.274C26.6259 187.969 27.2061 187.817 27.8708 187.817C28.5356 187.817 29.1157 187.969 29.6112 188.274C30.1067 188.578 30.4914 189.006 30.7654 189.557C31.0393 190.108 31.1762 190.751 31.1762 191.487C31.1762 192.219 31.0393 192.859 30.7654 193.407C30.4914 193.955 30.1067 194.381 29.6112 194.686C29.1157 194.991 28.5356 195.143 27.8708 195.143ZM27.8754 193.984C28.3063 193.984 28.6633 193.871 28.9465 193.643C29.2296 193.415 29.4389 193.112 29.5743 192.733C29.7128 192.355 29.782 191.938 29.782 191.482C29.782 191.03 29.7128 190.614 29.5743 190.236C29.4389 189.854 29.2296 189.548 28.9465 189.317C28.6633 189.086 28.3063 188.971 27.8754 188.971C27.4415 188.971 27.0814 189.086 26.7952 189.317C26.512 189.548 26.3012 189.854 26.1627 190.236C26.0273 190.614 25.9596 191.03 25.9596 191.482C25.9596 191.938 26.0273 192.355 26.1627 192.733C26.3012 193.112 26.512 193.415 26.7952 193.643C27.0814 193.871 27.4415 193.984 27.8754 193.984ZM35.7038 195.143C35.0175 195.143 34.4266 194.988 33.9311 194.677C33.4387 194.363 33.0601 193.931 32.7955 193.38C32.5308 192.829 32.3984 192.198 32.3984 191.487C32.3984 190.767 32.5339 190.131 32.8047 189.58C33.0755 189.026 33.4571 188.594 33.9496 188.283C34.442 187.972 35.0221 187.817 35.69 187.817C36.2286 187.817 36.7087 187.917 37.1303 188.117C37.552 188.314 37.892 188.591 38.1506 188.948C38.4122 189.305 38.5676 189.722 38.6168 190.199H37.2734C37.1996 189.866 37.0303 189.58 36.7656 189.34C36.504 189.1 36.1532 188.98 35.7131 188.98C35.3284 188.98 34.9914 189.082 34.7021 189.285C34.4158 189.485 34.1927 189.771 34.0327 190.143C33.8726 190.513 33.7926 190.95 33.7926 191.455C33.7926 191.972 33.8711 192.418 34.0281 192.793C34.185 193.169 34.4066 193.46 34.6928 193.666C34.9821 193.872 35.3222 193.975 35.7131 193.975C35.9747 193.975 36.2116 193.927 36.424 193.832C36.6394 193.734 36.8195 193.594 36.9641 193.412C37.1119 193.23 37.215 193.012 37.2734 192.756H38.6168C38.5676 193.215 38.4183 193.624 38.169 193.984C37.9197 194.344 37.5858 194.628 37.1673 194.834C36.7518 195.04 36.264 195.143 35.7038 195.143ZM41.3625 192.595L41.3532 190.91H41.5933L44.4186 187.909H46.0713L42.849 191.325H42.632L41.3625 192.595ZM40.093 195V185.545H41.4733V195H40.093ZM44.5709 195L42.0319 191.63L42.9829 190.665L46.2652 195H44.5709ZM48.7096 185.545V195H47.3293V185.545H48.7096ZM53.5534 195.143C52.8887 195.143 52.3085 194.991 51.813 194.686C51.3175 194.381 50.9328 193.955 50.6589 193.407C50.385 192.859 50.248 192.219 50.248 191.487C50.248 190.751 50.385 190.108 50.6589 189.557C50.9328 189.006 51.3175 188.578 51.813 188.274C52.3085 187.969 52.8887 187.817 53.5534 187.817C54.2182 187.817 54.7984 187.969 55.2939 188.274C55.7894 188.578 56.1741 189.006 56.448 189.557C56.7219 190.108 56.8588 190.751 56.8588 191.487C56.8588 192.219 56.7219 192.859 56.448 193.407C56.1741 193.955 55.7894 194.381 55.2939 194.686C54.7984 194.991 54.2182 195.143 53.5534 195.143ZM53.5581 193.984C53.9889 193.984 54.3459 193.871 54.6291 193.643C54.9122 193.415 55.1215 193.112 55.2569 192.733C55.3954 192.355 55.4647 191.938 55.4647 191.482C55.4647 191.03 55.3954 190.614 55.2569 190.236C55.1215 189.854 54.9122 189.548 54.6291 189.317C54.3459 189.086 53.9889 188.971 53.5581 188.971C53.1241 188.971 52.764 189.086 52.4778 189.317C52.1947 189.548 51.9838 189.854 51.8453 190.236C51.7099 190.614 51.6422 191.03 51.6422 191.482C51.6422 191.938 51.7099 192.355 51.8453 192.733C51.9838 193.112 52.1947 193.415 52.4778 193.643C52.764 193.871 53.1241 193.984 53.5581 193.984ZM64.2244 187.909L61.6531 195H60.1758L57.5998 187.909H59.0817L60.8775 193.366H60.9513L62.7425 187.909H64.2244ZM68.3366 195.143C67.6379 195.143 67.0363 194.994 66.5315 194.695C66.0299 194.394 65.6421 193.971 65.3682 193.426C65.0973 192.878 64.9619 192.236 64.9619 191.501C64.9619 190.774 65.0973 190.134 65.3682 189.58C65.6421 189.026 66.0237 188.594 66.5131 188.283C67.0055 187.972 67.581 187.817 68.2396 187.817C68.6397 187.817 69.0275 187.883 69.403 188.015C69.7784 188.148 70.1154 188.355 70.414 188.638C70.7125 188.922 70.9479 189.289 71.1203 189.742C71.2926 190.191 71.3788 190.737 71.3788 191.381V191.87H65.7421V190.836H70.0262C70.0262 190.473 69.9523 190.151 69.8046 189.871C69.6569 189.588 69.4491 189.365 69.1814 189.202C68.9167 189.039 68.6059 188.957 68.2488 188.957C67.8611 188.957 67.5225 189.052 67.2332 189.243C66.947 189.431 66.7254 189.677 66.5684 189.982C66.4146 190.283 66.3376 190.611 66.3376 190.965V191.773C66.3376 192.247 66.4207 192.65 66.5869 192.983C66.7562 193.315 66.9916 193.569 67.2932 193.744C67.5948 193.917 67.9472 194.003 68.3504 194.003C68.612 194.003 68.8505 193.966 69.066 193.892C69.2814 193.815 69.4676 193.701 69.6246 193.55C69.7815 193.4 69.9015 193.213 69.9846 192.992L71.2911 193.227C71.1865 193.612 70.9987 193.949 70.7279 194.238C70.4601 194.525 70.1231 194.748 69.7169 194.908C69.3137 195.065 68.8536 195.143 68.3366 195.143ZM72.9103 195V187.909H74.2445V189.036H74.3184C74.4476 188.654 74.6754 188.354 75.0016 188.135C75.3309 187.914 75.7033 187.803 76.1188 187.803C76.205 187.803 76.3065 187.806 76.4235 187.812C76.5435 187.818 76.6374 187.826 76.7051 187.835V189.156C76.6497 189.14 76.5512 189.123 76.4096 189.105C76.2681 189.083 76.1265 189.072 75.9849 189.072C75.6587 189.072 75.3678 189.142 75.1124 189.28C74.86 189.416 74.66 189.605 74.5123 189.848C74.3645 190.088 74.2907 190.362 74.2907 190.67V195H72.9103ZM83.856 192.304C83.4836 192.304 83.1435 192.213 82.8358 192.032C82.528 191.847 82.2818 191.601 82.0971 191.293C81.9155 190.985 81.8248 190.645 81.8248 190.273C81.8248 189.897 81.9155 189.557 82.0971 189.252C82.2818 188.945 82.528 188.7 82.8358 188.518C83.1435 188.334 83.4836 188.241 83.856 188.241C84.2315 188.241 84.5716 188.334 84.8762 188.518C85.184 188.7 85.4287 188.945 85.6103 189.252C85.7949 189.557 85.8873 189.897 85.8873 190.273C85.8873 190.645 85.7949 190.985 85.6103 191.293C85.4287 191.601 85.184 191.847 84.8762 192.032C84.5716 192.213 84.2315 192.304 83.856 192.304ZM95.2298 185.545V195H93.7987V186.977H93.7433L91.4813 188.454V187.087L93.8403 185.545H95.2298ZM101.246 195V187.909H102.571V189.063H102.659C102.807 188.672 103.048 188.368 103.384 188.149C103.719 187.928 104.121 187.817 104.589 187.817C105.063 187.817 105.46 187.928 105.78 188.149C106.103 188.371 106.341 188.675 106.495 189.063H106.569C106.738 188.685 107.008 188.383 107.377 188.158C107.746 187.931 108.186 187.817 108.697 187.817C109.34 187.817 109.865 188.018 110.271 188.422C110.681 188.825 110.885 189.433 110.885 190.245V195H109.505V190.374C109.505 189.894 109.374 189.546 109.113 189.331C108.851 189.116 108.539 189.008 108.176 189.008C107.726 189.008 107.377 189.146 107.128 189.423C106.878 189.697 106.754 190.05 106.754 190.48V195H105.378V190.287C105.378 189.902 105.258 189.593 105.018 189.359C104.778 189.125 104.465 189.008 104.081 189.008C103.819 189.008 103.578 189.077 103.356 189.216C103.137 189.351 102.961 189.54 102.825 189.783C102.693 190.027 102.627 190.308 102.627 190.628V195H101.246ZM115.722 195.143C115.058 195.143 114.477 194.991 113.982 194.686C113.486 194.381 113.102 193.955 112.828 193.407C112.554 192.859 112.417 192.219 112.417 191.487C112.417 190.751 112.554 190.108 112.828 189.557C113.102 189.006 113.486 188.578 113.982 188.274C114.477 187.969 115.058 187.817 115.722 187.817C116.387 187.817 116.967 187.969 117.463 188.274C117.958 188.578 118.343 189.006 118.617 189.557C118.891 190.108 119.028 190.751 119.028 191.487C119.028 192.219 118.891 192.859 118.617 193.407C118.343 193.955 117.958 194.381 117.463 194.686C116.967 194.991 116.387 195.143 115.722 195.143ZM115.727 193.984C116.158 193.984 116.515 193.871 116.798 193.643C117.081 193.415 117.29 193.112 117.426 192.733C117.564 192.355 117.634 191.938 117.634 191.482C117.634 191.03 117.564 190.614 117.426 190.236C117.29 189.854 117.081 189.548 116.798 189.317C116.515 189.086 116.158 188.971 115.727 188.971C115.293 188.971 114.933 189.086 114.647 189.317C114.364 189.548 114.153 189.854 114.014 190.236C113.879 190.614 113.811 191.03 113.811 191.482C113.811 191.938 113.879 192.355 114.014 192.733C114.153 193.112 114.364 193.415 114.647 193.643C114.933 193.871 115.293 193.984 115.727 193.984ZM121.949 190.79V195H120.569V187.909H121.893V189.063H121.981C122.144 188.688 122.4 188.386 122.748 188.158C123.098 187.931 123.54 187.817 124.072 187.817C124.556 187.817 124.979 187.918 125.342 188.121C125.705 188.321 125.987 188.62 126.187 189.017C126.387 189.414 126.487 189.905 126.487 190.49V195H125.107V190.656C125.107 190.142 124.973 189.74 124.705 189.451C124.437 189.159 124.069 189.012 123.602 189.012C123.281 189.012 122.997 189.082 122.748 189.22C122.501 189.359 122.306 189.562 122.161 189.83C122.02 190.094 121.949 190.414 121.949 190.79ZM131.648 187.909V189.017H127.775V187.909H131.648ZM128.814 186.21H130.194V192.918C130.194 193.186 130.234 193.387 130.314 193.523C130.394 193.655 130.497 193.746 130.623 193.795C130.752 193.841 130.893 193.864 131.043 193.864C131.154 193.864 131.251 193.857 131.334 193.841C131.417 193.826 131.482 193.814 131.528 193.804L131.777 194.945C131.697 194.975 131.583 195.006 131.436 195.037C131.288 195.071 131.103 195.089 130.882 195.092C130.519 195.098 130.18 195.034 129.866 194.898C129.552 194.763 129.298 194.554 129.104 194.271C128.911 193.987 128.814 193.632 128.814 193.204V186.21ZM134.708 190.79V195H133.327V185.545H134.689V189.063H134.777C134.943 188.682 135.197 188.378 135.539 188.154C135.88 187.929 136.326 187.817 136.877 187.817C137.364 187.817 137.788 187.917 138.152 188.117C138.518 188.317 138.801 188.615 139.001 189.012C139.204 189.406 139.306 189.899 139.306 190.49V195H137.925V190.656C137.925 190.136 137.791 189.733 137.524 189.446C137.256 189.157 136.884 189.012 136.407 189.012C136.08 189.012 135.788 189.082 135.529 189.22C135.274 189.359 135.072 189.562 134.925 189.83C134.78 190.094 134.708 190.414 134.708 190.79ZM146.652 195.157C146.202 195.157 145.796 195.074 145.433 194.908C145.07 194.738 144.782 194.494 144.57 194.174C144.36 193.854 144.256 193.461 144.256 192.996C144.256 192.596 144.333 192.267 144.487 192.009C144.64 191.75 144.848 191.545 145.11 191.395C145.371 191.244 145.664 191.13 145.987 191.053C146.31 190.976 146.639 190.917 146.975 190.877C147.4 190.828 147.744 190.788 148.009 190.757C148.274 190.724 148.466 190.67 148.586 190.596C148.706 190.522 148.766 190.402 148.766 190.236V190.203C148.766 189.8 148.652 189.488 148.424 189.266C148.2 189.045 147.864 188.934 147.418 188.934C146.953 188.934 146.587 189.037 146.319 189.243C146.055 189.446 145.871 189.673 145.77 189.922L144.473 189.626C144.627 189.196 144.851 188.848 145.147 188.583C145.445 188.315 145.788 188.121 146.176 188.001C146.564 187.878 146.972 187.817 147.4 187.817C147.683 187.817 147.983 187.851 148.3 187.918C148.62 187.983 148.918 188.103 149.195 188.278C149.475 188.454 149.705 188.705 149.883 189.031C150.062 189.354 150.151 189.774 150.151 190.291V195H148.803V194.031H148.748C148.658 194.209 148.524 194.384 148.346 194.557C148.167 194.729 147.938 194.872 147.658 194.986C147.378 195.1 147.042 195.157 146.652 195.157ZM146.952 194.049C147.333 194.049 147.66 193.974 147.93 193.823C148.204 193.672 148.412 193.475 148.554 193.232C148.698 192.986 148.771 192.723 148.771 192.442V191.528C148.721 191.578 148.626 191.624 148.484 191.667C148.346 191.707 148.187 191.742 148.009 191.773C147.83 191.801 147.656 191.827 147.487 191.852C147.318 191.873 147.176 191.892 147.062 191.907C146.795 191.941 146.55 191.998 146.328 192.078C146.11 192.158 145.935 192.273 145.802 192.424C145.673 192.572 145.608 192.769 145.608 193.015C145.608 193.357 145.734 193.615 145.987 193.79C146.239 193.963 146.561 194.049 146.952 194.049ZM154.962 197.807C154.399 197.807 153.915 197.733 153.508 197.585C153.105 197.438 152.776 197.242 152.52 196.999C152.265 196.756 152.074 196.49 151.948 196.2L153.134 195.711C153.217 195.846 153.328 195.989 153.467 196.14C153.608 196.294 153.799 196.425 154.039 196.533C154.282 196.64 154.595 196.694 154.976 196.694C155.499 196.694 155.932 196.567 156.274 196.311C156.615 196.059 156.786 195.656 156.786 195.102V193.707H156.698C156.615 193.858 156.495 194.026 156.338 194.211C156.184 194.395 155.972 194.555 155.701 194.691C155.43 194.826 155.078 194.894 154.644 194.894C154.084 194.894 153.579 194.763 153.13 194.501C152.683 194.237 152.33 193.847 152.068 193.333C151.809 192.816 151.68 192.181 151.68 191.427C151.68 190.673 151.808 190.027 152.063 189.488C152.322 188.949 152.676 188.537 153.125 188.251C153.574 187.961 154.084 187.817 154.653 187.817C155.093 187.817 155.449 187.891 155.72 188.038C155.99 188.183 156.201 188.352 156.352 188.546C156.506 188.74 156.624 188.911 156.707 189.059H156.809V187.909H158.162V195.157C158.162 195.766 158.02 196.266 157.737 196.657C157.454 197.048 157.071 197.337 156.587 197.525C156.107 197.713 155.566 197.807 154.962 197.807ZM154.949 193.749C155.346 193.749 155.681 193.657 155.955 193.472C156.232 193.284 156.441 193.016 156.583 192.669C156.727 192.318 156.8 191.898 156.8 191.408C156.8 190.931 156.729 190.511 156.587 190.148C156.446 189.785 156.238 189.502 155.964 189.299C155.69 189.092 155.352 188.989 154.949 188.989C154.533 188.989 154.187 189.097 153.91 189.312C153.633 189.525 153.424 189.814 153.282 190.18C153.144 190.547 153.074 190.956 153.074 191.408C153.074 191.873 153.145 192.281 153.287 192.632C153.428 192.983 153.638 193.257 153.915 193.453C154.195 193.65 154.539 193.749 154.949 193.749ZM163 195.143C162.335 195.143 161.755 194.991 161.259 194.686C160.764 194.381 160.379 193.955 160.105 193.407C159.831 192.859 159.694 192.219 159.694 191.487C159.694 190.751 159.831 190.108 160.105 189.557C160.379 189.006 160.764 188.578 161.259 188.274C161.755 187.969 162.335 187.817 163 187.817C163.665 187.817 164.245 187.969 164.74 188.274C165.236 188.578 165.62 189.006 165.894 189.557C166.168 190.108 166.305 190.751 166.305 191.487C166.305 192.219 166.168 192.859 165.894 193.407C165.62 193.955 165.236 194.381 164.74 194.686C164.245 194.991 163.665 195.143 163 195.143ZM163.004 193.984C163.435 193.984 163.792 193.871 164.075 193.643C164.359 193.415 164.568 193.112 164.703 192.733C164.842 192.355 164.911 191.938 164.911 191.482C164.911 191.03 164.842 190.614 164.703 190.236C164.568 189.854 164.359 189.548 164.075 189.317C163.792 189.086 163.435 188.971 163.004 188.971C162.57 188.971 162.21 189.086 161.924 189.317C161.641 189.548 161.43 189.854 161.292 190.236C161.156 190.614 161.089 191.03 161.089 191.482C161.089 191.938 161.156 192.355 161.292 192.733C161.43 193.112 161.641 193.415 161.924 193.643C162.21 193.871 162.57 193.984 163.004 193.984Z" fill="#91A5BA"/>
</svg>
