<svg width="421" height="350" viewBox="0 0 421 350" fill="none" xmlns="http://www.w3.org/2000/svg">
<path d="M5.21619 191.818V193.31H0.379545V191.818H5.21619ZM1.58871 200V191.046C1.58871 190.495 1.70234 190.037 1.92962 189.672C2.16044 189.306 2.46939 189.032 2.85646 188.851C3.24354 188.67 3.67322 188.58 4.14553 188.58C4.47933 188.58 4.77585 188.606 5.03508 188.659C5.29432 188.713 5.48608 188.761 5.61037 188.803L5.22685 190.295C5.14517 190.27 5.04219 190.245 4.9179 190.22C4.79361 190.192 4.65511 190.178 4.50241 190.178C4.14375 190.178 3.88984 190.265 3.7407 190.439C3.5951 190.609 3.5223 190.854 3.5223 191.174V200H1.58871ZM12.3912 196.559V191.818H14.3194V200H12.4498V198.546H12.3645C12.1799 199.004 11.8762 199.379 11.4537 199.67C11.0346 199.961 10.5179 200.107 9.90359 200.107C9.36736 200.107 8.89329 199.988 8.48136 199.75C8.07297 199.508 7.75337 199.158 7.52255 198.7C7.29172 198.239 7.17631 197.681 7.17631 197.028V191.818H9.10458V196.729C9.10458 197.248 9.24663 197.66 9.53072 197.965C9.81481 198.271 10.1877 198.423 10.6493 198.423C10.9334 198.423 11.2086 198.354 11.475 198.216C11.7413 198.077 11.9597 197.871 12.1301 197.598C12.3042 197.321 12.3912 196.974 12.3912 196.559ZM18.6806 189.091V200H16.7523V189.091H18.6806ZM23.0417 189.091V200H21.1134V189.091H23.0417ZM34.5246 189.091V200H32.7668L27.6265 192.569H27.536V200H25.5598V189.091H27.3282L32.4632 196.527H32.5591V189.091H34.5246ZM39.3971 200.165C38.8787 200.165 38.4117 200.073 37.9962 199.888C37.5843 199.7 37.2576 199.423 37.0161 199.057C36.7782 198.691 36.6592 198.24 36.6592 197.704C36.6592 197.243 36.7444 196.861 36.9149 196.559C37.0853 196.257 37.3179 196.016 37.6127 195.835C37.9074 195.653 38.2395 195.517 38.6088 195.424C38.9816 195.328 39.3669 195.259 39.7647 195.217C40.2441 195.167 40.6329 195.123 40.9312 195.083C41.2295 195.041 41.4461 194.977 41.5811 194.892C41.7196 194.803 41.7888 194.666 41.7888 194.482V194.45C41.7888 194.048 41.6699 193.738 41.4319 193.517C41.194 193.297 40.8513 193.187 40.4039 193.187C39.9316 193.187 39.5569 193.29 39.2799 193.496C39.0065 193.702 38.8218 193.945 38.726 194.226L36.9255 193.97C37.0676 193.473 37.302 193.058 37.6287 192.724C37.9554 192.386 38.3549 192.134 38.8272 191.967C39.2995 191.797 39.8215 191.712 40.3932 191.712C40.7874 191.712 41.1798 191.758 41.5704 191.85C41.961 191.942 42.3179 192.095 42.6411 192.308C42.9642 192.518 43.2235 192.804 43.4188 193.166C43.6176 193.528 43.7171 193.981 43.7171 194.524V200H41.8634V198.876H41.7995C41.6823 199.103 41.5172 199.316 41.3041 199.515C41.0946 199.711 40.83 199.869 40.5104 199.989C40.1944 200.107 39.8233 200.165 39.3971 200.165ZM39.8978 198.748C40.2849 198.748 40.6205 198.672 40.9046 198.519C41.1887 198.363 41.4071 198.157 41.5598 197.901C41.716 197.646 41.7941 197.367 41.7941 197.065V196.101C41.7338 196.151 41.6308 196.197 41.4852 196.239C41.3431 196.282 41.1833 196.319 41.0058 196.351C40.8282 196.383 40.6524 196.412 40.4784 196.436C40.3044 196.461 40.1535 196.483 40.0257 196.5C39.738 196.539 39.4806 196.603 39.2533 196.692C39.026 196.781 38.8467 196.905 38.7153 197.065C38.5839 197.221 38.5182 197.424 38.5182 197.672C38.5182 198.027 38.6478 198.295 38.9071 198.477C39.1663 198.658 39.4966 198.748 39.8978 198.748ZM46.106 200V191.818H47.949V193.208H48.0449C48.2154 192.74 48.4977 192.374 48.8919 192.111C49.286 191.845 49.7566 191.712 50.3034 191.712C50.8574 191.712 51.3244 191.847 51.7044 192.116C52.0879 192.383 52.3578 192.747 52.514 193.208H52.5993C52.7804 192.754 53.0858 192.392 53.5154 192.122C53.9487 191.848 54.4618 191.712 55.0549 191.712C55.8077 191.712 56.4221 191.95 56.8979 192.425C57.3738 192.901 57.6117 193.596 57.6117 194.508V200H55.6781V194.806C55.6781 194.299 55.5431 193.928 55.2733 193.693C55.0034 193.455 54.6731 193.336 54.2825 193.336C53.8173 193.336 53.4533 193.482 53.1905 193.773C52.9313 194.061 52.8017 194.435 52.8017 194.897V200H50.9107V194.727C50.9107 194.304 50.7828 193.967 50.5272 193.714C50.275 193.462 49.9448 193.336 49.5364 193.336C49.2594 193.336 49.0073 193.407 48.78 193.549C48.5527 193.688 48.3716 193.885 48.2367 194.141C48.1017 194.393 48.0343 194.687 48.0343 195.025V200H46.106ZM63.6401 200.16C62.8198 200.16 62.1113 199.989 61.5147 199.648C60.9217 199.304 60.4654 198.817 60.1458 198.189C59.8262 197.557 59.6664 196.813 59.6664 195.957C59.6664 195.115 59.8262 194.377 60.1458 193.741C60.4689 193.102 60.9199 192.605 61.4987 192.25C62.0776 191.891 62.7576 191.712 63.5389 191.712C64.0431 191.712 64.519 191.793 64.9664 191.957C65.4174 192.116 65.8151 192.365 66.1596 192.702C66.5076 193.04 66.7811 193.469 66.9799 193.991C67.1788 194.51 67.2782 195.128 67.2782 195.845V196.436H60.5719V195.137H65.4298C65.4263 194.767 65.3464 194.439 65.1901 194.151C65.0339 193.86 64.8155 193.631 64.535 193.464C64.258 193.297 63.9348 193.214 63.5655 193.214C63.1713 193.214 62.8251 193.31 62.5268 193.501C62.2285 193.69 61.9959 193.938 61.829 194.247C61.6656 194.553 61.5822 194.888 61.5786 195.254V196.388C61.5786 196.864 61.6656 197.273 61.8396 197.614C62.0137 197.951 62.2569 198.21 62.5694 198.391C62.8819 198.569 63.2477 198.658 63.6667 198.658C63.9472 198.658 64.2012 198.619 64.4284 198.54C64.6557 198.459 64.8528 198.34 65.0197 198.184C65.1866 198.027 65.3127 197.834 65.3979 197.603L67.1983 197.805C67.0847 198.281 66.8681 198.697 66.5485 199.052C66.2324 199.403 65.8276 199.677 65.334 199.872C64.8404 200.064 64.2757 200.16 63.6401 200.16Z" fill="#6048E5"/>
<path d="M1.56374 213.091H3.56126L7.03427 221.571H7.16211L10.6351 213.091H12.6326V224H11.0666V216.106H10.9654L7.74805 223.984H6.44833L3.231 216.1H3.12979V224H1.56374V213.091ZM17.2789 224.181C16.7604 224.181 16.2916 224.085 15.8726 223.893C15.4536 223.698 15.1215 223.416 14.8765 223.047C14.635 222.677 14.5143 222.224 14.5143 221.688C14.5143 221.227 14.6031 220.847 14.7806 220.548C14.9582 220.25 15.1979 220.014 15.4997 219.84C15.8016 219.666 16.1389 219.534 16.5118 219.446C16.8847 219.357 17.2646 219.289 17.6517 219.243C18.1418 219.186 18.5395 219.14 18.8449 219.105C19.1503 219.066 19.3722 219.004 19.5107 218.918C19.6492 218.833 19.7185 218.695 19.7185 218.503V218.466C19.7185 218 19.5871 217.64 19.3243 217.384C19.0651 217.129 18.678 217.001 18.1631 217.001C17.6269 217.001 17.2043 217.12 16.8953 217.358C16.5899 217.592 16.3786 217.853 16.2615 218.141L14.7646 217.8C14.9422 217.303 15.2014 216.901 15.5423 216.596C15.8868 216.287 16.2828 216.063 16.7302 215.925C17.1776 215.783 17.6482 215.712 18.1418 215.712C18.4685 215.712 18.8147 215.751 19.1805 215.829C19.5498 215.903 19.8943 216.042 20.2139 216.244C20.537 216.447 20.8016 216.736 21.0075 217.113C21.2135 217.485 21.3165 217.97 21.3165 218.567V224H19.7611V222.881H19.6972C19.5942 223.087 19.4397 223.29 19.2338 223.489C19.0278 223.687 18.7632 223.853 18.4401 223.984C18.1169 224.115 17.7298 224.181 17.2789 224.181ZM17.6251 222.903C18.0654 222.903 18.4419 222.816 18.7544 222.642C19.0704 222.468 19.3101 222.24 19.4735 221.96C19.6404 221.676 19.7238 221.372 19.7238 221.049V219.994C19.667 220.051 19.5569 220.104 19.3936 220.154C19.2338 220.2 19.0509 220.241 18.8449 220.277C18.6389 220.309 18.4383 220.339 18.243 220.367C18.0477 220.392 17.8843 220.413 17.7529 220.431C17.444 220.47 17.1617 220.536 16.906 220.628C16.6539 220.721 16.4514 220.854 16.2987 221.028C16.1496 221.198 16.075 221.425 16.075 221.71C16.075 222.104 16.2206 222.402 16.5118 222.604C16.803 222.803 17.1741 222.903 17.6251 222.903ZM23.4379 224V215.818H24.9773V217.118H25.0625C25.2116 216.678 25.4744 216.331 25.8509 216.079C26.2308 215.824 26.6605 215.696 27.1399 215.696C27.2393 215.696 27.3565 215.699 27.4915 215.706C27.63 215.713 27.7383 215.722 27.8164 215.733V217.256C27.7525 217.239 27.6388 217.219 27.4755 217.198C27.3121 217.173 27.1488 217.161 26.9854 217.161C26.609 217.161 26.2734 217.24 25.9787 217.4C25.6875 217.556 25.4567 217.775 25.2862 218.055C25.1158 218.332 25.0305 218.648 25.0305 219.004V224H23.4379ZM29.1947 224V215.818H30.7874V224H29.1947ZM29.999 214.556C29.722 214.556 29.4841 214.463 29.2852 214.279C29.0899 214.091 28.9923 213.867 28.9923 213.608C28.9923 213.345 29.0899 213.121 29.2852 212.936C29.4841 212.748 29.722 212.654 29.999 212.654C30.276 212.654 30.5122 212.748 30.7075 212.936C30.9063 213.121 31.0058 213.345 31.0058 213.608C31.0058 213.867 30.9063 214.091 30.7075 214.279C30.5122 214.463 30.276 214.556 29.999 214.556ZM35.3111 224.181C34.7926 224.181 34.3239 224.085 33.9048 223.893C33.4858 223.698 33.1538 223.416 32.9087 223.047C32.6673 222.677 32.5465 222.224 32.5465 221.688C32.5465 221.227 32.6353 220.847 32.8129 220.548C32.9904 220.25 33.2301 220.014 33.532 219.84C33.8338 219.666 34.1712 219.534 34.544 219.446C34.9169 219.357 35.2969 219.289 35.6839 219.243C36.174 219.186 36.5717 219.14 36.8771 219.105C37.1825 219.066 37.4045 219.004 37.543 218.918C37.6815 218.833 37.7507 218.695 37.7507 218.503V218.466C37.7507 218 37.6193 217.64 37.3565 217.384C37.0973 217.129 36.7102 217.001 36.1953 217.001C35.6591 217.001 35.2365 217.12 34.9276 217.358C34.6222 217.592 34.4109 217.853 34.2937 218.141L32.7969 217.8C32.9744 217.303 33.2337 216.901 33.5746 216.596C33.919 216.287 34.315 216.063 34.7624 215.925C35.2099 215.783 35.6804 215.712 36.174 215.712C36.5007 215.712 36.8469 215.751 37.2127 215.829C37.582 215.903 37.9265 216.042 38.2461 216.244C38.5692 216.447 38.8338 216.736 39.0398 217.113C39.2457 217.485 39.3487 217.97 39.3487 218.567V224H37.7933V222.881H37.7294C37.6264 223.087 37.4719 223.29 37.266 223.489C37.06 223.687 36.7955 223.853 36.4723 223.984C36.1491 224.115 35.7621 224.181 35.3111 224.181ZM35.6573 222.903C36.0977 222.903 36.4741 222.816 36.7866 222.642C37.1026 222.468 37.3423 222.24 37.5057 221.96C37.6726 221.676 37.756 221.372 37.756 221.049V219.994C37.6992 220.051 37.5891 220.104 37.4258 220.154C37.266 220.2 37.0831 220.241 36.8771 220.277C36.6712 220.309 36.4705 220.339 36.2752 220.367C36.0799 220.392 35.9165 220.413 35.7852 220.431C35.4762 220.47 35.1939 220.536 34.9382 220.628C34.6861 220.721 34.4837 220.854 34.331 221.028C34.1818 221.198 34.1072 221.425 34.1072 221.71C34.1072 222.104 34.2528 222.402 34.544 222.604C34.8352 222.803 35.2063 222.903 35.6573 222.903ZM45.5676 213.091H47.5652L51.0382 221.571H51.166L54.639 213.091H56.6365V224H55.0705V216.106H54.9693L51.752 223.984H50.4522L47.2349 216.1H47.1337V224H45.5676V213.091ZM61.2828 224.181C60.7643 224.181 60.2955 224.085 59.8765 223.893C59.4575 223.698 59.1254 223.416 58.8804 223.047C58.6389 222.677 58.5182 222.224 58.5182 221.688C58.5182 221.227 58.607 220.847 58.7845 220.548C58.9621 220.25 59.2018 220.014 59.5036 219.84C59.8055 219.666 60.1428 219.534 60.5157 219.446C60.8886 219.357 61.2686 219.289 61.6556 219.243C62.1457 219.186 62.5434 219.14 62.8488 219.105C63.1542 219.066 63.3762 219.004 63.5146 218.918C63.6531 218.833 63.7224 218.695 63.7224 218.503V218.466C63.7224 218 63.591 217.64 63.3282 217.384C63.069 217.129 62.6819 217.001 62.167 217.001C61.6308 217.001 61.2082 217.12 60.8992 217.358C60.5938 217.592 60.3825 217.853 60.2654 218.141L58.7686 217.8C58.9461 217.303 59.2053 216.901 59.5463 216.596C59.8907 216.287 60.2867 216.063 60.7341 215.925C61.1816 215.783 61.6521 215.712 62.1457 215.712C62.4724 215.712 62.8186 215.751 63.1844 215.829C63.5537 215.903 63.8982 216.042 64.2178 216.244C64.5409 216.447 64.8055 216.736 65.0115 217.113C65.2174 217.485 65.3204 217.97 65.3204 218.567V224H63.765V222.881H63.7011C63.5981 223.087 63.4436 223.29 63.2377 223.489C63.0317 223.687 62.7671 223.853 62.444 223.984C62.1208 224.115 61.7338 224.181 61.2828 224.181ZM61.629 222.903C62.0693 222.903 62.4458 222.816 62.7583 222.642C63.0743 222.468 63.314 222.24 63.4774 221.96C63.6443 221.676 63.7277 221.372 63.7277 221.049V219.994C63.6709 220.051 63.5608 220.104 63.3975 220.154C63.2377 220.2 63.0548 220.241 62.8488 220.277C62.6428 220.309 62.4422 220.339 62.2469 220.367C62.0516 220.392 61.8882 220.413 61.7568 220.431C61.4479 220.47 61.1656 220.536 60.9099 220.628C60.6578 220.721 60.4553 220.854 60.3026 221.028C60.1535 221.198 60.0789 221.425 60.0789 221.71C60.0789 222.104 60.2245 222.402 60.5157 222.604C60.8069 222.803 61.178 222.903 61.629 222.903ZM69.0344 219.142V224H67.4418V213.091H69.0131V217.15H69.1143C69.3061 216.71 69.5991 216.36 69.9933 216.1C70.3874 215.841 70.9023 215.712 71.538 215.712C72.0991 215.712 72.5891 215.827 73.0082 216.058C73.4308 216.289 73.7575 216.633 73.9883 217.091C74.2227 217.546 74.3398 218.114 74.3398 218.796V224H72.7472V218.988C72.7472 218.387 72.5927 217.922 72.2837 217.592C71.9748 217.258 71.5451 217.091 70.9947 217.091C70.6183 217.091 70.2809 217.171 69.9826 217.331C69.6879 217.491 69.4553 217.725 69.2848 218.034C69.1179 218.339 69.0344 218.709 69.0344 219.142ZM78.8462 224.181C78.3278 224.181 77.859 224.085 77.44 223.893C77.021 223.698 76.6889 223.416 76.4439 223.047C76.2024 222.677 76.0817 222.224 76.0817 221.688C76.0817 221.227 76.1705 220.847 76.348 220.548C76.5256 220.25 76.7653 220.014 77.0671 219.84C77.369 219.666 77.7063 219.534 78.0792 219.446C78.4521 219.357 78.832 219.289 79.2191 219.243C79.7092 219.186 80.1069 219.14 80.4123 219.105C80.7177 219.066 80.9396 219.004 81.0781 218.918C81.2166 218.833 81.2859 218.695 81.2859 218.503V218.466C81.2859 218 81.1545 217.64 80.8917 217.384C80.6325 217.129 80.2454 217.001 79.7305 217.001C79.1942 217.001 78.7717 217.12 78.4627 217.358C78.1573 217.592 77.946 217.853 77.8288 218.141L76.332 217.8C76.5096 217.303 76.7688 216.901 77.1097 216.596C77.4542 216.287 77.8501 216.063 78.2976 215.925C78.745 215.783 79.2156 215.712 79.7092 215.712C80.0359 215.712 80.3821 215.751 80.7479 215.829C81.1172 215.903 81.4616 216.042 81.7812 216.244C82.1044 216.447 82.369 216.736 82.5749 217.113C82.7809 217.485 82.8839 217.97 82.8839 218.567V224H81.3285V222.881H81.2646C81.1616 223.087 81.0071 223.29 80.8011 223.489C80.5952 223.687 80.3306 223.853 80.0075 223.984C79.6843 224.115 79.2972 224.181 78.8462 224.181ZM79.1925 222.903C79.6328 222.903 80.0092 222.816 80.3217 222.642C80.6378 222.468 80.8775 222.24 81.0408 221.96C81.2077 221.676 81.2912 221.372 81.2912 221.049V219.994C81.2344 220.051 81.1243 220.104 80.9609 220.154C80.8011 220.2 80.6183 220.241 80.4123 220.277C80.2063 220.309 80.0057 220.339 79.8104 220.367C79.6151 220.392 79.4517 220.413 79.3203 220.431C79.0114 220.47 78.729 220.536 78.4734 220.628C78.2212 220.721 78.0188 220.854 77.8661 221.028C77.717 221.198 77.6424 221.425 77.6424 221.71C77.6424 222.104 77.788 222.402 78.0792 222.604C78.3704 222.803 78.7415 222.903 79.1925 222.903ZM86.5979 219.142V224H85.0052V215.818H86.534V217.15H86.6352C86.8234 216.717 87.1182 216.369 87.5194 216.106C87.9243 215.843 88.4339 215.712 89.0482 215.712C89.6057 215.712 90.094 215.829 90.5131 216.063C90.9321 216.294 91.257 216.638 91.4878 217.097C91.7187 217.555 91.8341 218.121 91.8341 218.796V224H90.2414V218.988C90.2414 218.395 90.0869 217.931 89.778 217.597C89.469 217.26 89.0447 217.091 88.5049 217.091C88.1356 217.091 87.8071 217.171 87.5194 217.331C87.2354 217.491 87.0099 217.725 86.843 218.034C86.6796 218.339 86.5979 218.709 86.5979 219.142ZM93.9701 224V215.818H95.5628V224H93.9701ZM94.7744 214.556C94.4974 214.556 94.2595 214.463 94.0606 214.279C93.8653 214.091 93.7677 213.867 93.7677 213.608C93.7677 213.345 93.8653 213.121 94.0606 212.936C94.2595 212.748 94.4974 212.654 94.7744 212.654C95.0514 212.654 95.2876 212.748 95.4829 212.936C95.6817 213.121 95.7812 213.345 95.7812 213.608C95.7812 213.867 95.6817 214.091 95.4829 214.279C95.2876 214.463 95.0514 214.556 94.7744 214.556Z" fill="#64778C"/>
<path d="M121 195C121 199.418 117.418 203 113 203C108.582 203 105 199.418 105 195C105 190.582 108.582 187 113 187C117.418 187 121 190.582 121 195Z" fill="url(#paint0_linear_1659_16186)"/>
<path d="M236 136L189 207" stroke="url(#paint1_linear_1659_16186)"/>
<path d="M174 21L234.5 120" stroke="url(#paint2_linear_1659_16186)"/>
<path d="M261 27.5L243.5 118" stroke="url(#paint3_linear_1659_16186)"/>
<path d="M110 196L165.148 217.999" stroke="url(#paint4_linear_1659_16186)"/>
<path d="M156 111L177 206" stroke="url(#paint5_linear_1659_16186)"/>
<path d="M93.4643 111H95.3926V102.818H93.4643V111ZM94.4338 101.657C95.0463 101.657 95.547 101.188 95.547 100.613C95.547 100.032 95.0463 99.5636 94.4338 99.5636C93.8159 99.5636 93.3152 100.032 93.3152 100.613C93.3152 101.188 93.8159 101.657 94.4338 101.657ZM97.8254 111H99.7537V106.025C99.7537 105.018 100.425 104.336 101.256 104.336C102.071 104.336 102.63 104.885 102.63 105.727V111H104.521V105.897C104.521 104.975 105.07 104.336 106.002 104.336C106.78 104.336 107.398 104.794 107.398 105.806V111H109.331V105.508C109.331 103.681 108.276 102.712 106.774 102.712C105.586 102.712 104.681 103.298 104.319 104.208H104.233C103.919 103.282 103.126 102.712 102.023 102.712C100.926 102.712 100.105 103.276 99.7644 104.208H99.6685V102.818H97.8254V111ZM114.092 111.165C115.375 111.165 116.143 110.563 116.494 109.876H116.558V111H118.412V105.524C118.412 103.362 116.649 102.712 115.088 102.712C113.367 102.712 112.046 103.479 111.62 104.97L113.421 105.226C113.612 104.667 114.156 104.187 115.098 104.187C115.993 104.187 116.483 104.645 116.483 105.45V105.482C116.483 106.036 115.903 106.062 114.459 106.217C112.872 106.387 111.354 106.861 111.354 108.704C111.354 110.313 112.531 111.165 114.092 111.165ZM114.592 109.748C113.788 109.748 113.213 109.381 113.213 108.672C113.213 107.932 113.857 107.623 114.72 107.5C115.226 107.431 116.238 107.303 116.489 107.101V108.065C116.489 108.976 115.754 109.748 114.592 109.748ZM124.359 114.239C126.569 114.239 128.199 113.227 128.199 111.133V102.818H126.298V104.171H126.191C125.898 103.58 125.286 102.712 123.842 102.712C121.951 102.712 120.465 104.192 120.465 106.882C120.465 109.551 121.951 110.883 123.837 110.883C125.238 110.883 125.893 110.132 126.191 109.53H126.287V111.08C126.287 112.284 125.488 112.779 124.391 112.779C123.23 112.779 122.718 112.23 122.484 111.751L120.747 112.172C121.099 113.317 122.276 114.239 124.359 114.239ZM124.375 109.37C123.102 109.37 122.431 108.379 122.431 106.872C122.431 105.386 123.091 104.294 124.375 104.294C125.616 104.294 126.298 105.322 126.298 106.872C126.298 108.433 125.605 109.37 124.375 109.37ZM134.248 111.16C136.155 111.16 137.465 110.228 137.806 108.805L136.006 108.603C135.745 109.295 135.105 109.658 134.274 109.658C133.028 109.658 132.202 108.837 132.186 107.436H137.886V106.845C137.886 103.974 136.16 102.712 134.147 102.712C131.803 102.712 130.274 104.432 130.274 106.957C130.274 109.525 131.782 111.16 134.248 111.16ZM132.192 106.137C132.25 105.093 133.023 104.214 134.173 104.214C135.281 104.214 136.027 105.023 136.038 106.137H132.192Z" fill="#6048E5"/>
<path d="M11.1389 130.142C11.1389 128.837 11.9646 128.091 13.0992 128.091C14.1965 128.091 14.8517 128.789 14.8517 129.988V135H16.4443V129.796C16.4443 127.756 15.3257 126.712 13.6425 126.712C12.3694 126.712 11.6024 127.266 11.2188 128.15H11.1176V124.091H9.54625V135H11.1389V130.142ZM22.3889 126.818H20.711V124.858H19.1183V126.818H17.9198V128.097H19.1183V132.928C19.113 134.414 20.2476 135.133 21.5047 135.107C22.0107 135.101 22.3517 135.005 22.5381 134.936L22.2504 133.62C22.1439 133.642 21.9468 133.69 21.6911 133.69C21.1744 133.69 20.711 133.519 20.711 132.598V128.097H22.3889V126.818ZM27.97 126.818H26.2921V124.858H24.6994V126.818H23.5009V128.097H24.6994V132.928C24.6941 134.414 25.8287 135.133 27.0858 135.107C27.5918 135.101 27.9327 135.005 28.1191 134.936L27.8315 133.62C27.725 133.642 27.5279 133.69 27.2722 133.69C26.7555 133.69 26.2921 133.519 26.2921 132.598V128.097H27.97V126.818ZM29.7318 138.068H31.3245V133.727H31.4204C31.708 134.249 32.2939 135.16 33.7854 135.16C35.767 135.16 37.2052 133.572 37.2052 130.925C37.2052 128.272 35.7457 126.712 33.7694 126.712C32.2513 126.712 31.7027 127.638 31.4204 128.145H31.2872V126.818H29.7318V138.068ZM31.2925 130.909C31.2925 129.199 32.0383 128.065 33.4285 128.065C34.8721 128.065 35.5965 129.284 35.5965 130.909C35.5965 132.55 34.8508 133.801 33.4285 133.801C32.0596 133.801 31.2925 132.63 31.2925 130.909ZM45.1207 128.816C44.7904 127.543 43.7943 126.712 42.0258 126.712C40.1775 126.712 38.8671 127.686 38.8671 129.135C38.8671 130.297 39.5702 131.069 41.1043 131.41L42.4893 131.713C43.2776 131.889 43.6452 132.241 43.6452 132.752C43.6452 133.386 42.9687 133.881 41.9246 133.881C40.9711 133.881 40.3586 133.471 40.1668 132.667L38.6274 132.901C38.8937 134.35 40.0976 135.165 41.9353 135.165C43.9115 135.165 45.2805 134.116 45.2805 132.635C45.2805 131.479 44.5454 130.765 43.0432 130.419L41.7435 130.121C40.8433 129.908 40.4545 129.604 40.4598 129.05C40.4545 128.422 41.1363 127.974 42.0418 127.974C43.0326 127.974 43.4907 128.523 43.6771 129.071L45.1207 128.816ZM48.081 129.146C48.6616 129.146 49.1463 128.672 49.1463 128.081C49.1463 127.5 48.6616 127.021 48.081 127.021C47.495 127.021 47.0156 127.5 47.0156 128.081C47.0156 128.672 47.495 129.146 48.081 129.146ZM48.081 135.101C48.6616 135.101 49.1463 134.627 49.1463 134.036C49.1463 133.455 48.6616 132.976 48.081 132.976C47.495 132.976 47.0156 133.455 47.0156 134.036C47.0156 134.627 47.495 135.101 48.081 135.101ZM55.4345 123.58H54.0123L50.4966 136.641H51.9189L55.4345 123.58ZM60.9423 123.58H59.5201L56.0044 136.641H57.4267L60.9423 123.58ZM62.2953 138.068H63.888V133.727H63.9838C64.2715 134.249 64.8574 135.16 66.3489 135.16C68.3304 135.16 69.7686 133.572 69.7686 130.925C69.7686 128.272 68.3091 126.712 66.3329 126.712C64.8148 126.712 64.2662 127.638 63.9838 128.145H63.8507V126.818H62.2953V138.068ZM63.856 130.909C63.856 129.199 64.6017 128.065 65.992 128.065C67.4355 128.065 68.16 129.284 68.16 130.909C68.16 132.55 67.4142 133.801 65.992 133.801C64.623 133.801 63.856 132.63 63.856 130.909ZM71.5531 135H73.1458V130.004C73.1458 128.933 73.9714 128.161 75.1007 128.161C75.4309 128.161 75.8038 128.219 75.9316 128.256V126.733C75.7718 126.712 75.4576 126.696 75.2551 126.696C74.2963 126.696 73.476 127.239 73.1777 128.118H73.0925V126.818H71.5531V135ZM80.4633 135.165C82.7698 135.165 84.2773 133.477 84.2773 130.946C84.2773 128.4 82.7698 126.712 80.4633 126.712C78.1569 126.712 76.6494 128.4 76.6494 130.946C76.6494 133.477 78.1569 135.165 80.4633 135.165ZM80.4687 133.828C78.9612 133.828 78.2581 132.512 78.2581 130.941C78.2581 129.375 78.9612 128.043 80.4687 128.043C81.9655 128.043 82.6686 129.375 82.6686 130.941C82.6686 132.512 81.9655 133.828 80.4687 133.828ZM89.9489 126.818H88.1857V126.083C88.1857 125.359 88.484 124.964 89.2617 124.964C89.592 124.964 89.8263 125.039 89.9755 125.087L90.3484 123.798C90.1246 123.713 89.6612 123.58 89.0167 123.58C87.7223 123.58 86.5877 124.336 86.5877 125.87V126.818H85.3253V128.097H86.5877V135H88.1857V128.097H89.9489V126.818ZM91.5922 135H93.1848V126.818H91.5922V135ZM92.3965 125.556C92.9451 125.556 93.4032 125.13 93.4032 124.608C93.4032 124.086 92.9451 123.654 92.3965 123.654C91.8425 123.654 91.3897 124.086 91.3897 124.608C91.3897 125.13 91.8425 125.556 92.3965 125.556ZM96.9202 124.091H95.3275V135H96.9202V124.091ZM102.589 135.165C104.374 135.165 105.636 134.286 105.998 132.955L104.491 132.683C104.203 133.455 103.511 133.849 102.605 133.849C101.241 133.849 100.325 132.965 100.283 131.388H106.099V130.824C106.099 127.868 104.331 126.712 102.477 126.712C100.197 126.712 98.6953 128.448 98.6953 130.962C98.6953 133.503 100.176 135.165 102.589 135.165ZM100.288 130.195C100.352 129.034 101.194 128.027 102.488 128.027C103.724 128.027 104.533 128.944 104.539 130.195H100.288ZM108.916 135.101C109.497 135.101 109.981 134.627 109.981 134.036C109.981 133.455 109.497 132.976 108.916 132.976C108.33 132.976 107.851 133.455 107.851 134.036C107.851 134.627 108.33 135.101 108.916 135.101ZM112.115 138.068H113.707V133.727H113.803C114.091 134.249 114.677 135.16 116.168 135.16C118.15 135.16 119.588 133.572 119.588 130.925C119.588 128.272 118.128 126.712 116.152 126.712C114.634 126.712 114.085 127.638 113.803 128.145H113.67V126.818H112.115V138.068ZM113.675 130.909C113.675 129.199 114.421 128.065 115.811 128.065C117.255 128.065 117.979 129.284 117.979 130.909C117.979 132.55 117.234 133.801 115.811 133.801C114.442 133.801 113.675 132.63 113.675 130.909ZM122.965 130.142C122.965 128.837 123.764 128.091 124.872 128.091C125.953 128.091 126.609 128.8 126.609 129.988V135H128.201V129.796C128.201 127.772 127.088 126.712 125.415 126.712C124.185 126.712 123.381 127.282 123.002 128.15H122.901V126.818H121.372V135H122.965V130.142ZM133.768 138.239C135.85 138.239 137.459 137.285 137.459 135.181V126.818H135.898V128.145H135.781C135.499 127.638 134.934 126.712 133.411 126.712C131.435 126.712 129.98 128.272 129.98 130.877C129.98 133.487 131.467 134.877 133.4 134.877C134.902 134.877 135.483 134.031 135.771 133.509H135.872V135.117C135.872 136.401 134.993 136.955 133.784 136.955C132.457 136.955 131.941 136.289 131.658 135.82L130.289 136.385C130.721 137.386 131.813 138.239 133.768 138.239ZM133.752 133.556C132.329 133.556 131.589 132.464 131.589 130.856C131.589 129.284 132.313 128.065 133.752 128.065C135.142 128.065 135.888 129.199 135.888 130.856C135.888 132.544 135.126 133.556 133.752 133.556Z" fill="#64778C"/>
<circle cx="155" cy="106" r="8" fill="url(#paint6_linear_1659_16186)"/>
<circle cx="241" cy="127" r="8" fill="url(#paint7_linear_1659_16186)"/>
<path d="M258.309 132H260.238V123.818H258.309V132ZM259.279 122.657C259.891 122.657 260.392 122.188 260.392 121.613C260.392 121.032 259.891 120.564 259.279 120.564C258.661 120.564 258.16 121.032 258.16 121.613C258.16 122.188 258.661 122.657 259.279 122.657ZM266.756 123.818H265.142V121.858H263.214V123.818H262.053V125.31H263.214V129.859C263.203 131.398 264.322 132.154 265.771 132.112C266.319 132.096 266.697 131.989 266.905 131.92L266.58 130.413C266.474 130.439 266.255 130.487 266.016 130.487C265.531 130.487 265.142 130.317 265.142 129.539V125.31H266.756V123.818ZM272.353 132.16C274.26 132.16 275.57 131.228 275.911 129.805L274.111 129.603C273.85 130.295 273.211 130.658 272.38 130.658C271.133 130.658 270.308 129.837 270.292 128.436H275.991V127.845C275.991 124.974 274.265 123.712 272.252 123.712C269.908 123.712 268.379 125.432 268.379 127.957C268.379 130.525 269.887 132.16 272.353 132.16ZM270.297 127.137C270.355 126.093 271.128 125.214 272.278 125.214C273.386 125.214 274.132 126.023 274.143 127.137H270.297ZM278.072 132H280.001V127.025C280.001 126.018 280.672 125.336 281.503 125.336C282.318 125.336 282.877 125.885 282.877 126.727V132H284.768V126.897C284.768 125.975 285.317 125.336 286.249 125.336C287.027 125.336 287.644 125.794 287.644 126.806V132H289.578V126.508C289.578 124.681 288.523 123.712 287.021 123.712C285.833 123.712 284.928 124.298 284.566 125.208H284.48C284.166 124.282 283.372 123.712 282.27 123.712C281.173 123.712 280.352 124.276 280.011 125.208H279.915V123.818H278.072V132ZM292.07 132H298.85V130.343H294.046V121.091H292.07V132ZM300.93 132H302.859V123.818H300.93V132ZM301.9 122.657C302.512 122.657 303.013 122.188 303.013 121.613C303.013 121.032 302.512 120.564 301.9 120.564C301.282 120.564 300.781 121.032 300.781 121.613C300.781 122.188 301.282 122.657 301.9 122.657ZM311.758 125.981C311.492 124.596 310.384 123.712 308.466 123.712C306.495 123.712 305.153 124.681 305.158 126.194C305.153 127.387 305.888 128.175 307.46 128.5L308.855 128.793C309.606 128.958 309.958 129.262 309.958 129.725C309.958 130.285 309.35 130.706 308.434 130.706C307.55 130.706 306.975 130.322 306.81 129.587L304.929 129.768C305.169 131.27 306.431 132.16 308.44 132.16C310.485 132.16 311.929 131.1 311.934 129.55C311.929 128.383 311.178 127.669 309.633 127.334L308.237 127.036C307.406 126.849 307.076 126.561 307.081 126.087C307.076 125.533 307.689 125.15 308.493 125.15C309.382 125.15 309.851 125.635 310 126.173L311.758 125.981ZM318.06 123.818H316.446V121.858H314.517V123.818H313.356V125.31H314.517V129.859C314.507 131.398 315.625 132.154 317.074 132.112C317.623 132.096 318.001 131.989 318.209 131.92L317.884 130.413C317.777 130.439 317.559 130.487 317.319 130.487C316.834 130.487 316.446 130.317 316.446 129.539V125.31H318.06V123.818Z" fill="#6048E5"/>
<path d="M259.169 158.269H262.669V157.007H260.692V145.943H262.669V144.681H259.169V158.269ZM265.248 156.101C265.829 156.101 266.313 155.627 266.313 155.036C266.313 154.455 265.829 153.976 265.248 153.976C264.662 153.976 264.183 154.455 264.183 155.036C264.183 155.627 264.662 156.101 265.248 156.101ZM269.496 156.101C270.077 156.101 270.561 155.627 270.561 155.036C270.561 154.455 270.077 153.976 269.496 153.976C268.91 153.976 268.431 154.455 268.431 155.036C268.431 155.627 268.91 156.101 269.496 156.101ZM273.744 156.101C274.325 156.101 274.809 155.627 274.809 155.036C274.809 154.455 274.325 153.976 273.744 153.976C273.158 153.976 272.679 154.455 272.679 155.036C272.679 155.627 273.158 156.101 273.744 156.101ZM279.83 144.681H276.33V145.943H278.306V157.007H276.33V158.269H279.83V144.681Z" fill="#64778C"/>
<line x1="181.5" y1="271" x2="181.5" y2="350" stroke="url(#paint8_linear_1659_16186)"/>
<circle cx="169" cy="12" r="8" fill="url(#paint9_linear_1659_16186)"/>
<path d="M100.34 6.09091H98.4114V17H100.34V6.09091ZM102.773 17H104.701V8.81818H102.773V17ZM103.742 7.65696C104.355 7.65696 104.855 7.18821 104.855 6.61293C104.855 6.03232 104.355 5.56357 103.742 5.56357C103.124 5.56357 102.623 6.03232 102.623 6.61293C102.623 7.18821 103.124 7.65696 103.742 7.65696ZM113.6 10.9808C113.334 9.59588 112.226 8.71165 110.308 8.71165C108.337 8.71165 106.995 9.68111 107 11.1939C106.995 12.3871 107.73 13.1754 109.302 13.5004L110.697 13.7933C111.448 13.9585 111.8 14.2621 111.8 14.7255C111.8 15.2848 111.193 15.7056 110.276 15.7056C109.392 15.7056 108.817 15.3221 108.652 14.587L106.771 14.7681C107.011 16.2702 108.274 17.1598 110.282 17.1598C112.327 17.1598 113.771 16.0998 113.776 14.5497C113.771 13.3832 113.02 12.6694 111.475 12.3338L110.079 12.0355C109.248 11.8491 108.918 11.5614 108.923 11.0874C108.918 10.5334 109.531 10.1499 110.335 10.1499C111.225 10.1499 111.693 10.6346 111.842 11.1726L113.6 10.9808ZM119.902 8.81818H118.288V6.85795H116.359V8.81818H115.198V10.3097H116.359V14.8587C116.349 16.3981 117.467 17.1545 118.916 17.1119C119.465 17.0959 119.843 16.9893 120.051 16.9201L119.726 15.4126C119.619 15.4393 119.401 15.4872 119.161 15.4872C118.676 15.4872 118.288 15.3168 118.288 14.5391V10.3097H119.902V8.81818ZM124.202 6.09091H122.225V17H124.202V6.09091ZM130.792 8.81818H129.178V6.85795H127.25V8.81818H126.088V10.3097H127.25V14.8587C127.239 16.3981 128.358 17.1545 129.806 17.1119C130.355 17.0959 130.733 16.9893 130.941 16.9201L130.616 15.4126C130.51 15.4393 130.291 15.4872 130.051 15.4872C129.567 15.4872 129.178 15.3168 129.178 14.5391V10.3097H130.792V8.81818ZM136.389 17.1598C138.296 17.1598 139.606 16.2276 139.947 14.8054L138.147 14.603C137.886 15.2955 137.246 15.6577 136.415 15.6577C135.169 15.6577 134.343 14.8374 134.327 13.4364H140.027V12.8452C140.027 9.97408 138.301 8.71165 136.288 8.71165C133.944 8.71165 132.415 10.4322 132.415 12.957C132.415 15.5245 133.923 17.1598 136.389 17.1598ZM134.333 12.1367C134.391 11.0927 135.164 10.2138 136.314 10.2138C137.422 10.2138 138.168 11.0234 138.179 12.1367H134.333ZM142.108 17H144.037V12.0249C144.037 11.0181 144.708 10.3363 145.539 10.3363C146.354 10.3363 146.913 10.8849 146.913 11.7266V17H148.804V11.897C148.804 10.9755 149.353 10.3363 150.285 10.3363C151.062 10.3363 151.68 10.7944 151.68 11.8065V17H153.614V11.5082C153.614 9.68111 152.559 8.71165 151.057 8.71165C149.869 8.71165 148.964 9.29759 148.602 10.2085H148.516C148.202 9.2816 147.408 8.71165 146.306 8.71165C145.208 8.71165 144.388 9.27628 144.047 10.2085H143.951V8.81818H142.108V17Z" fill="#6048E5"/>
<path d="M65.9688 33.5H67.3324V32.4613C67.3324 31.657 67.684 30.9805 68.1155 30.3466L67.3271 29.782C66.5121 30.4371 65.9688 31.5717 65.9688 32.4773V33.5ZM68.6854 33.5H70.0491V32.4613C70.0491 31.657 70.4006 30.9805 70.8321 30.3466L70.0437 29.782C69.2287 30.4371 68.6854 31.5717 68.6854 32.4773V33.5ZM74.4649 41H76.1268L78.4226 32.8288H78.5079L80.8037 41H82.4603L85.4912 30.0909H83.7547L81.6346 38.5444H81.5334L79.3228 30.0909H77.6076L75.3971 38.5391H75.2959L73.1705 30.0909H71.4393L74.4649 41ZM86.3514 41H87.9441V36.0036C87.9441 34.9329 88.7698 34.1605 89.899 34.1605C90.2293 34.1605 90.6021 34.2191 90.73 34.2564V32.733C90.5702 32.7116 90.2559 32.6957 90.0535 32.6957C89.0947 32.6957 88.2744 33.239 87.9761 34.1179H87.8908V32.8182H86.3514V41ZM92.1083 41H93.701V32.8182H92.1083V41ZM92.9126 31.5558C93.4612 31.5558 93.9193 31.1296 93.9193 30.6076C93.9193 30.0856 93.4612 29.6541 92.9126 29.6541C92.3586 29.6541 91.9059 30.0856 91.9059 30.6076C91.9059 31.1296 92.3586 31.5558 92.9126 31.5558ZM99.6629 32.8182H97.985V30.858H96.3923V32.8182H95.1938V34.0966H96.3923V38.9279C96.3869 40.4141 97.5215 41.1332 98.7786 41.1065C99.2847 41.1012 99.6256 41.0053 99.812 40.9361L99.5244 39.6204C99.4178 39.6417 99.2207 39.6896 98.9651 39.6896C98.4484 39.6896 97.985 39.5192 97.985 38.5977V34.0966H99.6629V32.8182ZM104.863 41.1651C106.648 41.1651 107.91 40.2862 108.272 38.9545L106.765 38.6829C106.477 39.4553 105.785 39.8494 104.879 39.8494C103.515 39.8494 102.599 38.9652 102.557 37.3885H108.373V36.8239C108.373 33.8675 106.605 32.7116 104.751 32.7116C102.471 32.7116 100.969 34.4482 100.969 36.9624C100.969 39.5032 102.45 41.1651 104.863 41.1651ZM102.562 36.1953C102.626 35.0341 103.467 34.0273 104.762 34.0273C105.998 34.0273 106.807 34.9435 106.813 36.1953H102.562ZM117.929 32.8182H116.252V30.858H114.659V32.8182H113.46V34.0966H114.659V38.9279C114.654 40.4141 115.788 41.1332 117.045 41.1065C117.551 41.1012 117.892 41.0053 118.079 40.9361L117.791 39.6204C117.684 39.6417 117.487 39.6896 117.232 39.6896C116.715 39.6896 116.252 39.5192 116.252 38.5977V34.0966H117.929V32.8182ZM123.13 41.1651C124.914 41.1651 126.177 40.2862 126.539 38.9545L125.031 38.6829C124.744 39.4553 124.051 39.8494 123.146 39.8494C121.782 39.8494 120.866 38.9652 120.823 37.3885H126.64V36.8239C126.64 33.8675 124.871 32.7116 123.018 32.7116C120.738 32.7116 119.236 34.4482 119.236 36.9624C119.236 39.5032 120.717 41.1651 123.13 41.1651ZM120.829 36.1953C120.892 35.0341 121.734 34.0273 123.028 34.0273C124.264 34.0273 125.074 34.9435 125.079 36.1953H120.829ZM134.538 34.8157C134.208 33.5426 133.212 32.7116 131.443 32.7116C129.595 32.7116 128.285 33.6864 128.285 35.1353C128.285 36.2965 128.988 37.0689 130.522 37.4098L131.907 37.7134C132.695 37.8892 133.063 38.2408 133.063 38.7521C133.063 39.386 132.386 39.8814 131.342 39.8814C130.389 39.8814 129.776 39.4712 129.584 38.6669L128.045 38.9013C128.311 40.3501 129.515 41.1651 131.353 41.1651C133.329 41.1651 134.698 40.1158 134.698 38.6349C134.698 37.479 133.963 36.7653 132.461 36.419L131.161 36.1207C130.261 35.9077 129.872 35.604 129.877 35.0501C129.872 34.4215 130.554 33.9741 131.459 33.9741C132.45 33.9741 132.908 34.5227 133.095 35.0714L134.538 34.8157ZM140.268 32.8182H138.59V30.858H136.998V32.8182H135.799V34.0966H136.998V38.9279C136.992 40.4141 138.127 41.1332 139.384 41.1065C139.89 41.1012 140.231 41.0053 140.417 40.9361L140.13 39.6204C140.023 39.6417 139.826 39.6896 139.571 39.6896C139.054 39.6896 138.59 39.5192 138.59 38.5977V34.0966H140.268V32.8182ZM148.029 34.8157C147.699 33.5426 146.703 32.7116 144.935 32.7116C143.086 32.7116 141.776 33.6864 141.776 35.1353C141.776 36.2965 142.479 37.0689 144.013 37.4098L145.398 37.7134C146.186 37.8892 146.554 38.2408 146.554 38.7521C146.554 39.386 145.877 39.8814 144.833 39.8814C143.88 39.8814 143.267 39.4712 143.076 38.6669L141.536 38.9013C141.802 40.3501 143.006 41.1651 144.844 41.1651C146.82 41.1651 148.189 40.1158 148.189 38.6349C148.189 37.479 147.454 36.7653 145.952 36.419L144.652 36.1207C143.752 35.9077 143.363 35.604 143.368 35.0501C143.363 34.4215 144.045 33.9741 144.951 33.9741C145.941 33.9741 146.399 34.5227 146.586 35.0714L148.029 34.8157ZM151.309 30.0909H149.946V31.1296C149.946 31.9553 149.583 32.6317 149.168 33.2443L149.956 33.8089C150.777 33.1484 151.309 32.0192 151.309 31.1136V30.0909ZM154.021 30.0909H152.657V31.1296C152.657 31.9553 152.295 32.6317 151.879 33.2443L152.668 33.8089C153.488 33.1484 154.021 32.0192 154.021 31.1136V30.0909Z" fill="#64778C"/>
<circle cx="264" cy="17" r="8" fill="url(#paint10_linear_1659_16186)"/>
<path d="M283.34 11.0909H281.411V22H283.34V11.0909ZM285.773 22H287.701V13.8182H285.773V22ZM286.742 12.657C287.355 12.657 287.855 12.1882 287.855 11.6129C287.855 11.0323 287.355 10.5636 286.742 10.5636C286.124 10.5636 285.623 11.0323 285.623 11.6129C285.623 12.1882 286.124 12.657 286.742 12.657ZM296.6 15.9808C296.334 14.5959 295.226 13.7116 293.308 13.7116C291.337 13.7116 289.995 14.6811 290 16.1939C289.995 17.3871 290.73 18.1754 292.302 18.5004L293.697 18.7933C294.448 18.9585 294.8 19.2621 294.8 19.7255C294.8 20.2848 294.193 20.7056 293.276 20.7056C292.392 20.7056 291.817 20.3221 291.652 19.587L289.771 19.7681C290.011 21.2702 291.274 22.1598 293.282 22.1598C295.327 22.1598 296.771 21.0998 296.776 19.5497C296.771 18.3832 296.02 17.6694 294.475 17.3338L293.079 17.0355C292.248 16.8491 291.918 16.5614 291.923 16.0874C291.918 15.5334 292.531 15.1499 293.335 15.1499C294.225 15.1499 294.693 15.6346 294.842 16.1726L296.6 15.9808ZM302.902 13.8182H301.288V11.858H299.359V13.8182H298.198V15.3097H299.359V19.8587C299.349 21.3981 300.467 22.1545 301.916 22.1119C302.465 22.0959 302.843 21.9893 303.051 21.9201L302.726 20.4126C302.619 20.4393 302.401 20.4872 302.161 20.4872C301.676 20.4872 301.288 20.3168 301.288 19.5391V15.3097H302.902V13.8182ZM307.202 11.0909H305.225V22H307.202V11.0909ZM313.792 13.8182H312.178V11.858H310.25V13.8182H309.088V15.3097H310.25V19.8587C310.239 21.3981 311.358 22.1545 312.806 22.1119C313.355 22.0959 313.733 21.9893 313.941 21.9201L313.616 20.4126C313.51 20.4393 313.291 20.4872 313.051 20.4872C312.567 20.4872 312.178 20.3168 312.178 19.5391V15.3097H313.792V13.8182ZM319.389 22.1598C321.296 22.1598 322.606 21.2276 322.947 19.8054L321.147 19.603C320.886 20.2955 320.246 20.6577 319.415 20.6577C318.169 20.6577 317.343 19.8374 317.327 18.4364H323.027V17.8452C323.027 14.9741 321.301 13.7116 319.288 13.7116C316.944 13.7116 315.415 15.4322 315.415 17.957C315.415 20.5245 316.923 22.1598 319.389 22.1598ZM317.333 17.1367C317.391 16.0927 318.164 15.2138 319.314 15.2138C320.422 15.2138 321.168 16.0234 321.179 17.1367H317.333ZM325.108 22H327.037V17.0249C327.037 16.0181 327.708 15.3363 328.539 15.3363C329.354 15.3363 329.913 15.8849 329.913 16.7266V22H331.804V16.897C331.804 15.9755 332.353 15.3363 333.285 15.3363C334.062 15.3363 334.68 15.7944 334.68 16.8065V22H336.614V16.5082C336.614 14.6811 335.559 13.7116 334.057 13.7116C332.869 13.7116 331.964 14.2976 331.602 15.2085H331.516C331.202 14.2816 330.408 13.7116 329.306 13.7116C328.208 13.7116 327.388 14.2763 327.047 15.2085H326.951V13.8182H325.108V22Z" fill="#6048E5"/>
<path d="M280.756 38.5H282.12V37.4613C282.12 36.657 282.472 35.9805 282.903 35.3466L282.115 34.782C281.3 35.4371 280.756 36.5717 280.756 37.4773V38.5ZM283.473 38.5H284.837V37.4613C284.837 36.657 285.188 35.9805 285.62 35.3466L284.831 34.782C284.016 35.4371 283.473 36.5717 283.473 37.4773V38.5ZM288.762 35.0909H287.116V46H288.762V35.0909ZM291.032 46H292.624V40.9556C292.624 39.853 293.397 39.0859 294.302 39.0859C295.186 39.0859 295.799 39.6719 295.799 40.5614V46H297.386V40.7852C297.386 39.7997 297.988 39.0859 299.027 39.0859C299.869 39.0859 300.561 39.5547 300.561 40.6626V46H302.154V40.5135C302.154 38.6438 301.11 37.7116 299.629 37.7116C298.452 37.7116 297.567 38.2763 297.173 39.1499H297.088C296.731 38.255 295.98 37.7116 294.888 37.7116C293.807 37.7116 293.002 38.2496 292.662 39.1499H292.56V37.8182H291.032V46ZM304.288 49.0682H305.881V44.7269H305.977C306.265 45.2489 306.851 46.1598 308.342 46.1598C310.324 46.1598 311.762 44.5724 311.762 41.9251C311.762 39.2724 310.302 37.7116 308.326 37.7116C306.808 37.7116 306.259 38.6385 305.977 39.1445H305.844V37.8182H304.288V49.0682ZM305.849 41.9091C305.849 40.1992 306.595 39.0646 307.985 39.0646C309.429 39.0646 310.153 40.2844 310.153 41.9091C310.153 43.5497 309.407 44.8015 307.985 44.8015C306.616 44.8015 305.849 43.6296 305.849 41.9091ZM315.139 35.0909H313.546V46H315.139V35.0909ZM320.808 46.1651C322.592 46.1651 323.855 45.2862 324.217 43.9545L322.71 43.6829C322.422 44.4553 321.729 44.8494 320.824 44.8494C319.46 44.8494 318.544 43.9652 318.501 42.3885H324.318V41.8239C324.318 38.8675 322.55 37.7116 320.696 37.7116C318.416 37.7116 316.914 39.4482 316.914 41.9624C316.914 44.5032 318.395 46.1651 320.808 46.1651ZM318.507 41.1953C318.571 40.0341 319.412 39.0273 320.707 39.0273C321.942 39.0273 322.752 39.9435 322.757 41.1953H318.507ZM326.085 46H327.678V40.9556C327.678 39.853 328.45 39.0859 329.356 39.0859C330.24 39.0859 330.853 39.6719 330.853 40.5614V46H332.44V40.7852C332.44 39.7997 333.042 39.0859 334.081 39.0859C334.922 39.0859 335.615 39.5547 335.615 40.6626V46H337.207V40.5135C337.207 38.6438 336.163 37.7116 334.683 37.7116C333.505 37.7116 332.621 38.2763 332.227 39.1499H332.142C331.785 38.255 331.034 37.7116 329.942 37.7116C328.861 37.7116 328.056 38.2496 327.715 39.1499H327.614V37.8182H326.085V46ZM342.868 46.1651C344.653 46.1651 345.915 45.2862 346.278 43.9545L344.77 43.6829C344.482 44.4553 343.79 44.8494 342.884 44.8494C341.521 44.8494 340.605 43.9652 340.562 42.3885H346.379V41.8239C346.379 38.8675 344.61 37.7116 342.757 37.7116C340.477 37.7116 338.975 39.4482 338.975 41.9624C338.975 44.5032 340.455 46.1651 342.868 46.1651ZM340.567 41.1953C340.631 40.0341 341.473 39.0273 342.767 39.0273C344.003 39.0273 344.813 39.9435 344.818 41.1953H340.567ZM349.739 41.142C349.739 39.837 350.538 39.0913 351.646 39.0913C352.727 39.0913 353.382 39.7997 353.382 40.9876V46H354.975V40.7958C354.975 38.7717 353.861 37.7116 352.189 37.7116C350.958 37.7116 350.154 38.2816 349.776 39.1499H349.675V37.8182H348.146V46H349.739V41.142ZM360.93 37.8182H359.252V35.858H357.659V37.8182H356.461V39.0966H357.659V43.9279C357.654 45.4141 358.789 46.1332 360.046 46.1065C360.552 46.1012 360.893 46.0053 361.079 45.9361L360.791 44.6204C360.685 44.6417 360.488 44.6896 360.232 44.6896C359.715 44.6896 359.252 44.5192 359.252 43.5977V39.0966H360.93V37.8182ZM284.134 66.1598C285.625 66.1598 286.211 65.2489 286.499 64.7269H286.632V66H288.187V55.0909H286.594V59.1445H286.499C286.211 58.6385 285.668 57.7116 284.144 57.7116C282.168 57.7116 280.714 59.2724 280.714 61.9251C280.714 64.5724 282.147 66.1598 284.134 66.1598ZM284.485 64.8015C283.063 64.8015 282.322 63.5497 282.322 61.9091C282.322 60.2844 283.047 59.0646 284.485 59.0646C285.875 59.0646 286.621 60.1992 286.621 61.9091C286.621 63.6296 285.859 64.8015 284.485 64.8015ZM290.46 66H292.053V61.0036C292.053 59.9329 292.879 59.1605 294.008 59.1605C294.338 59.1605 294.711 59.2191 294.839 59.2564V57.733C294.679 57.7116 294.365 57.6957 294.162 57.6957C293.204 57.6957 292.383 58.239 292.085 59.1179H292V57.8182H290.46V66ZM299.371 66.1651C301.677 66.1651 303.184 64.4766 303.184 61.9464C303.184 59.4002 301.677 57.7116 299.371 57.7116C297.064 57.7116 295.557 59.4002 295.557 61.9464C295.557 64.4766 297.064 66.1651 299.371 66.1651ZM299.376 64.8281C297.868 64.8281 297.165 63.5124 297.165 61.9411C297.165 60.375 297.868 59.0433 299.376 59.0433C300.873 59.0433 301.576 60.375 301.576 61.9411C301.576 63.5124 300.873 64.8281 299.376 64.8281ZM304.962 69.0682H306.555V64.7269H306.651C306.938 65.2489 307.524 66.1598 309.016 66.1598C310.997 66.1598 312.436 64.5724 312.436 61.9251C312.436 59.2724 310.976 57.7116 309 57.7116C307.482 57.7116 306.933 58.6385 306.651 59.1445H306.518V57.8182H304.962V69.0682ZM306.523 61.9091C306.523 60.1992 307.269 59.0646 308.659 59.0646C310.103 59.0646 310.827 60.2844 310.827 61.9091C310.827 63.5497 310.081 64.8015 308.659 64.8015C307.29 64.8015 306.523 63.6296 306.523 61.9091ZM317.283 66.1598C318.774 66.1598 319.36 65.2489 319.648 64.7269H319.781V66H321.337V55.0909H319.744V59.1445H319.648C319.36 58.6385 318.817 57.7116 317.294 57.7116C315.317 57.7116 313.863 59.2724 313.863 61.9251C313.863 64.5724 315.296 66.1598 317.283 66.1598ZM317.634 64.8015C316.212 64.8015 315.472 63.5497 315.472 61.9091C315.472 60.2844 316.196 59.0646 317.634 59.0646C319.025 59.0646 319.771 60.1992 319.771 61.9091C319.771 63.6296 319.009 64.8015 317.634 64.8015ZM327.056 66.1651C329.363 66.1651 330.87 64.4766 330.87 61.9464C330.87 59.4002 329.363 57.7116 327.056 57.7116C324.75 57.7116 323.242 59.4002 323.242 61.9464C323.242 64.4766 324.75 66.1651 327.056 66.1651ZM327.061 64.8281C325.554 64.8281 324.851 63.5124 324.851 61.9411C324.851 60.375 325.554 59.0433 327.061 59.0433C328.558 59.0433 329.261 60.375 329.261 61.9411C329.261 63.5124 328.558 64.8281 327.061 64.8281ZM334.173 66H335.792L337.454 60.0927H337.576L339.238 66H340.863L343.265 57.8182H341.619L340.027 63.8001H339.947L338.349 57.8182H336.703L335.094 63.8267H335.014L333.411 57.8182H331.765L334.173 66ZM346.369 61.142C346.369 59.837 347.168 59.0913 348.276 59.0913C349.358 59.0913 350.013 59.7997 350.013 60.9876V66H351.606V60.7958C351.606 58.7717 350.492 57.7116 348.82 57.7116C347.589 57.7116 346.785 58.2816 346.407 59.1499H346.305V57.8182H344.777V66H346.369V61.142ZM357.711 66H359.304V60.9556C359.304 59.853 360.076 59.0859 360.982 59.0859C361.866 59.0859 362.479 59.6719 362.479 60.5614V66H364.066V60.7852C364.066 59.7997 364.668 59.0859 365.707 59.0859C366.548 59.0859 367.241 59.5547 367.241 60.6626V66H368.833V60.5135C368.833 58.6438 367.789 57.7116 366.309 57.7116C365.131 57.7116 364.247 58.2763 363.853 59.1499H363.768C363.411 58.255 362.66 57.7116 361.568 57.7116C360.487 57.7116 359.682 58.2496 359.341 59.1499H359.24V57.8182H357.711V66ZM374.494 66.1651C376.279 66.1651 377.541 65.2862 377.903 63.9545L376.396 63.6829C376.108 64.4553 375.416 64.8494 374.51 64.8494C373.147 64.8494 372.231 63.9652 372.188 62.3885H378.005V61.8239C378.005 58.8675 376.236 57.7116 374.383 57.7116C372.103 57.7116 370.601 59.4482 370.601 61.9624C370.601 64.5032 372.081 66.1651 374.494 66.1651ZM372.193 61.1953C372.257 60.0341 373.099 59.0273 374.393 59.0273C375.629 59.0273 376.439 59.9435 376.444 61.1953H372.193ZM381.365 61.142C381.365 59.837 382.164 59.0913 383.271 59.0913C384.353 59.0913 385.008 59.7997 385.008 60.9876V66H386.601V60.7958C386.601 58.7717 385.487 57.7116 383.815 57.7116C382.584 57.7116 381.78 58.2816 381.402 59.1499H381.301V57.8182H379.772V66H381.365V61.142ZM393.92 62.6069C393.925 63.9972 392.892 64.6577 391.997 64.6577C391.011 64.6577 390.329 63.9439 390.329 62.8306V57.8182H388.737V63.0224C388.737 65.0518 389.85 66.1065 391.421 66.1065C392.652 66.1065 393.488 65.4567 393.866 64.5831H393.952V66H395.518V57.8182H393.92V62.6069ZM399.246 55.0909H397.883V56.1296C397.883 56.9553 397.52 57.6317 397.105 58.2443L397.893 58.8089C398.714 58.1484 399.246 57.0192 399.246 56.1136V55.0909ZM401.958 55.0909H400.594V56.1296C400.594 56.9553 400.232 57.6317 399.816 58.2443L400.605 58.8089C401.425 58.1484 401.958 57.0192 401.958 56.1136V55.0909Z" fill="#64778C"/>
<circle opacity="0.1" cx="181" cy="223" r="47.5" stroke="#6048E5"/>
<circle opacity="0.3" cx="181" cy="223" r="15" stroke="#6048E5" stroke-width="2"/>
<circle cx="181" cy="223" r="9" fill="url(#paint11_linear_1659_16186)"/>
<path d="M150.453 261H152.429V257.314H154.517C157.037 257.314 158.39 255.801 158.39 253.702C158.39 251.62 157.053 250.091 154.544 250.091H150.453V261ZM152.429 255.689V251.742H154.24C155.721 251.742 156.376 252.541 156.376 253.702C156.376 254.864 155.721 255.689 154.251 255.689H152.429ZM160.556 261H167.694V259.343H162.532V256.366H167.284V254.709H162.532V251.748H167.651V250.091H160.556V261ZM170.118 261H172.094V257.005H174.107L176.249 261H178.454L176.094 256.675C177.378 256.158 178.054 255.061 178.054 253.58C178.054 251.497 176.712 250.091 174.209 250.091H170.118V261ZM172.094 255.364V251.742H173.905C175.38 251.742 176.041 252.419 176.041 253.58C176.041 254.741 175.38 255.364 173.916 255.364H172.094ZM186.252 253.09H188.154C188.116 251.247 186.545 249.942 184.223 249.942C181.932 249.942 180.212 251.231 180.217 253.159C180.217 254.725 181.33 255.625 183.125 256.089L184.366 256.408C185.544 256.707 186.321 257.074 186.327 257.921C186.321 258.853 185.437 259.477 184.148 259.477C182.912 259.477 181.953 258.923 181.874 257.777H179.929C180.009 259.945 181.623 261.165 184.164 261.165C186.779 261.165 188.298 259.86 188.303 257.937C188.298 256.046 186.737 255.183 185.096 254.794L184.073 254.539C183.179 254.326 182.209 253.947 182.22 253.037C182.225 252.216 182.96 251.614 184.196 251.614C185.373 251.614 186.151 252.163 186.252 253.09ZM200.263 255.545C200.263 252.019 198.111 249.942 195.25 249.942C192.384 249.942 190.238 252.019 190.238 255.545C190.238 259.066 192.384 261.149 195.25 261.149C198.111 261.149 200.263 259.072 200.263 255.545ZM198.276 255.545C198.276 258.028 197.029 259.375 195.25 259.375C193.476 259.375 192.225 258.028 192.225 255.545C192.225 253.063 193.476 251.716 195.25 251.716C197.029 251.716 198.276 253.063 198.276 255.545ZM211.546 250.091H209.58V257.527H209.484L204.349 250.091H202.581V261H204.557V253.569H204.648L209.788 261H211.546V250.091Z" fill="#6048E5"/>
<defs>
<linearGradient id="paint0_linear_1659_16186" x1="185" y1="187" x2="185" y2="203" gradientUnits="userSpaceOnUse">
<stop stop-color="#7963F5"/>
<stop offset="1" stop-color="#5D46DB"/>
</linearGradient>
<linearGradient id="paint1_linear_1659_16186" x1="193" y1="212.001" x2="251.896" y2="210.338" gradientUnits="userSpaceOnUse">
<stop stop-color="#BDB4FE"/>
<stop offset="1" stop-color="#BDB4FE" stop-opacity="0"/>
</linearGradient>
<linearGradient id="paint2_linear_1659_16186" x1="237" y1="117.436" x2="286.883" y2="63.7292" gradientUnits="userSpaceOnUse">
<stop stop-color="#BDB4FE"/>
<stop offset="1" stop-color="#BDB4FE" stop-opacity="0"/>
</linearGradient>
<linearGradient id="paint3_linear_1659_16186" x1="235" y1="-38.4999" x2="272.817" y2="35.0369" gradientUnits="userSpaceOnUse">
<stop stop-color="#BDB4FE" stop-opacity="0"/>
<stop offset="1" stop-color="#BDB4FE"/>
</linearGradient>
<linearGradient id="paint4_linear_1659_16186" x1="165.148" y1="218" x2="108.879" y2="210.802" gradientUnits="userSpaceOnUse">
<stop stop-color="#BDB4FE"/>
<stop offset="1" stop-color="#BDB4FE" stop-opacity="0"/>
</linearGradient>
<linearGradient id="paint5_linear_1659_16186" x1="177" y1="206.001" x2="155.287" y2="205.77" gradientUnits="userSpaceOnUse">
<stop stop-color="#BDB4FE"/>
<stop offset="1" stop-color="#BDB4FE" stop-opacity="0"/>
</linearGradient>
<linearGradient id="paint6_linear_1659_16186" x1="155" y1="98" x2="155" y2="114" gradientUnits="userSpaceOnUse">
<stop stop-color="#7963F5"/>
<stop offset="1" stop-color="#5D46DB"/>
</linearGradient>
<linearGradient id="paint7_linear_1659_16186" x1="241" y1="119" x2="241" y2="135" gradientUnits="userSpaceOnUse">
<stop stop-color="#7963F5"/>
<stop offset="1" stop-color="#5D46DB"/>
</linearGradient>
<linearGradient id="paint8_linear_1659_16186" x1="180" y1="271" x2="210.874" y2="279.604" gradientUnits="userSpaceOnUse">
<stop stop-color="#BDB4FE"/>
<stop offset="1" stop-color="#BDB4FE" stop-opacity="0"/>
</linearGradient>
<linearGradient id="paint9_linear_1659_16186" x1="169" y1="4" x2="169" y2="20" gradientUnits="userSpaceOnUse">
<stop stop-color="#7963F5"/>
<stop offset="1" stop-color="#5D46DB"/>
</linearGradient>
<linearGradient id="paint10_linear_1659_16186" x1="264" y1="9" x2="264" y2="25" gradientUnits="userSpaceOnUse">
<stop stop-color="#7963F5"/>
<stop offset="1" stop-color="#5D46DB"/>
</linearGradient>
<linearGradient id="paint11_linear_1659_16186" x1="181" y1="214" x2="181" y2="232" gradientUnits="userSpaceOnUse">
<stop stop-color="#7963F5"/>
<stop offset="1" stop-color="#5D46DB"/>
</linearGradient>
</defs>
</svg>
