<svg width="450" height="300" viewBox="0 0 450 300" fill="none" xmlns="http://www.w3.org/2000/svg">
<rect width="450" height="300" rx="4" fill="#4D5C6C"/>
<path d="M62.6296 137.875H55.8775V134.5C55.8775 133.307 55.4032 132.162 54.5591 131.318C53.7149 130.474 52.5699 130 51.3761 130H48V164.875C48 166.068 48.4743 167.213 49.3184 168.057C50.1626 168.901 51.3076 169.375 52.5014 169.375H55.8775V161.5H62.6296C65.684 161.385 68.5747 160.09 70.6948 157.889C72.8149 155.688 73.9993 152.752 73.9993 149.696C73.9993 146.64 72.8149 143.704 70.6948 141.503C68.5747 139.302 65.684 138.007 62.6296 137.892V137.875ZM62.6296 153.625H55.8775V145.75H62.6296C64.8803 145.75 66.4277 147.53 66.4277 149.688C66.4277 151.845 64.8803 153.617 62.6296 153.617V153.625Z" fill="#9EACBA"/>
<path d="M97.6245 133.52H109.482C112.323 133.52 114.578 134.259 116.245 135.737C117.913 137.215 118.746 139.387 118.746 142.251C118.746 143.575 118.468 144.776 117.913 145.854C117.357 146.901 116.569 147.686 115.55 148.21C118.793 149.534 120.414 152.167 120.414 156.109C120.414 159.219 119.457 161.621 117.542 163.315C115.658 165.009 113.049 165.856 109.714 165.856H97.6245V133.52ZM109.158 146.085C110.424 146.085 111.366 145.823 111.984 145.299C112.632 144.745 112.956 143.837 112.956 142.574C112.956 141.311 112.632 140.418 111.984 139.895C111.335 139.34 110.347 139.063 109.019 139.063H103.646V146.085H109.158ZM109.158 160.313C110.98 160.313 112.308 159.943 113.142 159.204C113.975 158.465 114.392 157.387 114.392 155.97C114.392 154.554 113.975 153.476 113.142 152.737C112.308 151.998 110.98 151.628 109.158 151.628H103.646V160.313H109.158Z" fill="#9EACBA"/>
<path d="M125.795 133.15H131.538V165.856H125.795V133.15Z" fill="#9EACBA"/>
<path d="M148.569 166.225C146.129 166.225 144.014 165.702 142.223 164.655C140.432 163.608 139.058 162.176 138.1 160.359C137.174 158.542 136.711 156.494 136.711 154.215C136.711 151.936 137.174 149.888 138.1 148.071C139.058 146.254 140.432 144.822 142.223 143.775C144.014 142.728 146.129 142.204 148.569 142.204C151.008 142.204 153.123 142.728 154.915 143.775C156.706 144.822 158.064 146.254 158.991 148.071C159.948 149.888 160.427 151.936 160.427 154.215C160.427 156.494 159.948 158.542 158.991 160.359C158.064 162.176 156.706 163.608 154.915 164.655C153.123 165.702 151.008 166.225 148.569 166.225ZM148.569 161.329C150.36 161.329 151.78 160.651 152.83 159.296C153.88 157.91 154.405 156.217 154.405 154.215C154.405 152.213 153.88 150.535 152.83 149.18C151.78 147.794 150.36 147.101 148.569 147.101C146.778 147.101 145.357 147.794 144.307 149.18C143.257 150.535 142.732 152.213 142.732 154.215C142.732 156.217 143.257 157.91 144.307 159.296C145.357 160.651 146.778 161.329 148.569 161.329Z" fill="#9EACBA"/>
<path d="M175.698 166.225C173.259 166.225 171.174 165.702 169.445 164.655C167.747 163.577 166.465 162.13 165.601 160.313C164.736 158.496 164.304 156.463 164.304 154.215C164.304 151.967 164.736 149.934 165.601 148.117C166.465 146.3 167.747 144.868 169.445 143.821C171.174 142.743 173.259 142.204 175.698 142.204C178.292 142.204 180.485 142.774 182.276 143.914C184.098 145.022 185.441 146.67 186.306 148.856L181.164 150.935C180.546 149.672 179.79 148.718 178.894 148.071C178.03 147.424 176.964 147.101 175.698 147.101C173.938 147.101 172.595 147.763 171.669 149.087C170.773 150.381 170.325 152.09 170.325 154.215C170.325 156.34 170.773 158.064 171.669 159.389C172.595 160.682 173.938 161.329 175.698 161.329C176.964 161.329 178.03 161.005 178.894 160.359C179.79 159.712 180.546 158.757 181.164 157.495L186.306 159.573C185.441 161.76 184.098 163.423 182.276 164.562C180.485 165.671 178.292 166.225 175.698 166.225Z" fill="#9EACBA"/>
<path d="M190.932 133.15H196.675V151.72L204.272 142.574H211.359L202.002 153.291L211.961 165.856H204.92L196.675 154.862V165.856H190.932V133.15Z" fill="#9EACBA"/>
<path d="M227.447 133.52H239.675C242.979 133.52 245.496 134.428 247.225 136.245C248.954 138.032 249.819 140.403 249.819 143.359C249.819 146.316 248.954 148.702 247.225 150.519C245.496 152.306 242.979 153.199 239.675 153.199H233.468V165.856H227.447V133.52ZM239.443 147.655C240.802 147.655 241.852 147.301 242.593 146.593C243.334 145.885 243.705 144.807 243.705 143.359C243.705 141.912 243.334 140.834 242.593 140.126C241.852 139.417 240.802 139.063 239.443 139.063H233.468V147.655H239.443Z" fill="#9EACBA"/>
<path d="M253.807 142.574H259.551V146.362C260.385 145.038 261.404 144.021 262.608 143.313C263.812 142.574 265.094 142.204 266.453 142.204C267.317 142.204 268.259 142.358 269.278 142.666L268.213 147.979C267.502 147.548 266.7 147.332 265.804 147.332C263.982 147.332 262.484 148.163 261.311 149.826C260.138 151.459 259.551 154.046 259.551 157.587V165.856H253.807V142.574Z" fill="#9EACBA"/>
<path d="M282.598 166.225C280.158 166.225 278.043 165.702 276.252 164.655C274.461 163.608 273.086 162.176 272.129 160.359C271.203 158.542 270.74 156.494 270.74 154.215C270.74 151.936 271.203 149.888 272.129 148.071C273.086 146.254 274.461 144.822 276.252 143.775C278.043 142.728 280.158 142.204 282.598 142.204C285.037 142.204 287.152 142.728 288.943 143.775C290.734 144.822 292.093 146.254 293.019 148.071C293.977 149.888 294.455 151.936 294.455 154.215C294.455 156.494 293.977 158.542 293.019 160.359C292.093 162.176 290.734 163.608 288.943 164.655C287.152 165.702 285.037 166.225 282.598 166.225ZM282.598 161.329C284.389 161.329 285.809 160.651 286.859 159.296C287.909 157.91 288.434 156.217 288.434 154.215C288.434 152.213 287.909 150.535 286.859 149.18C285.809 147.794 284.389 147.101 282.598 147.101C280.806 147.101 279.386 147.794 278.336 149.18C277.286 150.535 276.761 152.213 276.761 154.215C276.761 156.217 277.286 157.91 278.336 159.296C279.386 160.651 280.806 161.329 282.598 161.329Z" fill="#9EACBA"/>
<path d="M308.805 166.225C306.119 166.225 304.019 165.502 302.506 164.054C300.993 162.607 300.236 160.467 300.236 157.633V147.471H296.623V142.574H300.236V136.754L305.98 133.15V142.574H312.14V147.471H305.98V157.541C305.98 158.927 306.227 159.912 306.721 160.497C307.246 161.052 308.018 161.329 309.037 161.329C309.809 161.329 310.55 161.144 311.26 160.774L312.603 165.394C311.399 165.948 310.133 166.225 308.805 166.225Z" fill="#9EACBA"/>
<path d="M326.022 166.225C323.583 166.225 321.468 165.702 319.677 164.655C317.885 163.608 316.511 162.176 315.554 160.359C314.628 158.542 314.164 156.494 314.164 154.215C314.164 151.936 314.628 149.888 315.554 148.071C316.511 146.254 317.885 144.822 319.677 143.775C321.468 142.728 323.583 142.204 326.022 142.204C328.462 142.204 330.577 142.728 332.368 143.775C334.159 144.822 335.518 146.254 336.444 148.071C337.402 149.888 337.88 151.936 337.88 154.215C337.88 156.494 337.402 158.542 336.444 160.359C335.518 162.176 334.159 163.608 332.368 164.655C330.577 165.702 328.462 166.225 326.022 166.225ZM326.022 161.329C327.813 161.329 329.234 160.651 330.284 159.296C331.334 157.91 331.859 156.217 331.859 154.215C331.859 152.213 331.334 150.535 330.284 149.18C329.234 147.794 327.813 147.101 326.022 147.101C324.231 147.101 322.811 147.794 321.761 149.18C320.711 150.535 320.186 152.213 320.186 154.215C320.186 156.217 320.711 157.91 321.761 159.296C322.811 160.651 324.231 161.329 326.022 161.329Z" fill="#9EACBA"/>
<path d="M353.152 166.225C350.712 166.225 348.628 165.702 346.899 164.655C345.2 163.577 343.919 162.13 343.054 160.313C342.19 158.496 341.757 156.463 341.757 154.215C341.757 151.967 342.19 149.934 343.054 148.117C343.919 146.3 345.2 144.868 346.899 143.821C348.628 142.743 350.712 142.204 353.152 142.204C355.746 142.204 357.938 142.774 359.729 143.914C361.551 145.022 362.895 146.67 363.759 148.856L358.618 150.935C358 149.672 357.244 148.718 356.348 148.071C355.483 147.424 354.418 147.101 353.152 147.101C351.392 147.101 350.049 147.763 349.122 149.087C348.227 150.381 347.779 152.09 347.779 154.215C347.779 156.34 348.227 158.064 349.122 159.389C350.049 160.682 351.392 161.329 353.152 161.329C354.418 161.329 355.483 161.005 356.348 160.359C357.244 159.712 358 158.757 358.618 157.495L363.759 159.573C362.895 161.76 361.551 163.423 359.729 164.562C357.938 165.671 355.746 166.225 353.152 166.225Z" fill="#9EACBA"/>
<path d="M379.218 166.225C376.778 166.225 374.663 165.702 372.872 164.655C371.081 163.608 369.707 162.176 368.749 160.359C367.823 158.542 367.36 156.494 367.36 154.215C367.36 151.936 367.823 149.888 368.749 148.071C369.707 146.254 371.081 144.822 372.872 143.775C374.663 142.728 376.778 142.204 379.218 142.204C381.657 142.204 383.772 142.728 385.564 143.775C387.355 144.822 388.713 146.254 389.64 148.071C390.597 149.888 391.076 151.936 391.076 154.215C391.076 156.494 390.597 158.542 389.64 160.359C388.713 162.176 387.355 163.608 385.564 164.655C383.772 165.702 381.657 166.225 379.218 166.225ZM379.218 161.329C381.009 161.329 382.429 160.651 383.479 159.296C384.529 157.91 385.054 156.217 385.054 154.215C385.054 152.213 384.529 150.535 383.479 149.18C382.429 147.794 381.009 147.101 379.218 147.101C377.427 147.101 376.006 147.794 374.956 149.18C373.906 150.535 373.381 152.213 373.381 154.215C373.381 156.217 373.906 157.91 374.956 159.296C376.006 160.651 377.427 161.329 379.218 161.329Z" fill="#9EACBA"/>
<path d="M396.25 133.15H401.993V165.856H396.25V133.15Z" fill="#9EACBA"/>
</svg>
