<svg width="124" height="52" viewBox="0 0 124 52" fill="none" xmlns="http://www.w3.org/2000/svg">
<g clip-path="url(#clip0_3904_28993)">
<path d="M74.3155 17.7326C71.5966 17.7326 69.5719 19.0677 69.5719 22.2808C69.5719 24.7017 70.9064 26.3822 74.1692 26.3822C76.9346 26.3822 78.8129 24.7528 78.8129 22.1808C78.8129 19.2662 77.132 17.7328 74.3155 17.7328V17.7326ZM68.8778 40.4193C68.2344 41.2089 67.5933 42.0479 67.5933 43.038C67.5933 45.0133 70.1123 45.6078 73.5725 45.6078C76.439 45.6078 80.3436 45.407 80.3436 42.742C80.3436 41.1579 78.4651 41.0598 76.0915 40.911L68.8776 40.4193H68.8778ZM83.506 17.882C84.3941 19.019 85.3345 20.6008 85.3345 22.8741C85.3345 28.3595 81.0347 31.5717 74.8093 31.5717C73.2261 31.5717 71.7929 31.3745 70.9042 31.1278L69.2728 33.7467L74.1154 34.0425C82.6659 34.5873 87.7052 34.8349 87.7052 41.4055C87.7052 47.0903 82.7149 50.3007 74.1154 50.3007C65.1707 50.3007 61.7609 48.0271 61.7609 44.1234C61.7609 41.8986 62.7495 40.7152 64.4792 39.0818C62.8478 38.3922 62.3049 37.1574 62.3049 35.8225C62.3049 34.7345 62.8478 33.7463 63.7387 32.8067C64.628 31.8686 65.616 30.9283 66.8023 29.8414C64.381 28.6556 62.5519 26.0856 62.5519 22.4281C62.5519 16.7455 66.3083 12.8428 73.868 12.8428C75.9935 12.8428 77.2791 13.0384 78.4158 13.3368H88.0534V17.5364L83.506 17.8824" fill="#CACACA"/>
<path d="M96.7524 8.90138C93.9347 8.90138 92.3044 7.26907 92.3044 4.45109C92.3044 1.63665 93.9347 0.103455 96.7524 0.103455C99.6189 0.103455 101.25 1.63665 101.25 4.45109C101.25 7.26902 99.6189 8.90138 96.7524 8.90138ZM90.3761 38.6003V34.6981L92.8973 34.3532C93.5896 34.2529 93.6878 34.1059 93.6878 33.3628V18.8336C93.6878 18.2911 93.5401 17.9437 93.0444 17.7966L90.3761 16.8567L90.9195 12.8552H101.15V33.3632C101.15 34.1553 101.198 34.2533 101.941 34.3536L104.462 34.6985V38.6007H90.3757" fill="#CACACA"/>
<path d="M124.005 36.6851C121.879 37.7217 118.766 38.6608 115.947 38.6608C110.067 38.6608 107.844 36.2909 107.844 30.7041V17.7572C107.844 17.4613 107.844 17.2627 107.447 17.2627H103.988V12.8646C108.338 12.3691 110.067 10.1942 110.61 4.8075H115.306V11.8275C115.306 12.1722 115.306 12.3215 115.702 12.3215H122.669V17.2626H115.306V29.0734C115.306 31.9896 115.999 33.1253 118.666 33.1253C120.051 33.1253 121.483 32.7804 122.669 32.3353L124.005 36.6855" fill="#CACACA"/>
<path d="M50.7793 23.7159L28.1812 1.12053C26.881 -0.180884 24.7704 -0.180884 23.4685 1.12053L18.7763 5.81324L24.7282 11.7652C26.1119 11.298 27.6979 11.6113 28.8003 12.7139C29.9085 13.8234 30.2195 15.423 29.7406 16.8113L35.4772 22.5479C36.8651 22.0697 38.4664 22.3786 39.5746 23.4888C41.124 25.0377 41.124 27.5476 39.5746 29.0969C38.025 30.6467 35.5152 30.6467 33.9647 29.0969C32.7997 27.931 32.5116 26.2193 33.1016 24.7839L27.7516 19.4338L27.7511 33.5124C28.1289 33.6994 28.4853 33.949 28.8001 34.2624C30.349 35.8111 30.349 38.3205 28.8001 39.8718C27.2507 41.4205 24.7398 41.4205 23.192 39.8718C21.6429 38.3206 21.6429 35.8112 23.192 34.2624C23.5749 33.8802 24.0179 33.5909 24.4906 33.3971V19.1877C24.0176 18.9946 23.5752 18.7075 23.1918 18.3223C22.0184 17.1498 21.7358 15.4276 22.3375 13.9867L16.4701 8.11829L0.976432 23.6115C-0.325396 24.9139 -0.325396 27.0245 0.976432 28.326L23.5732 50.9214C24.8741 52.2228 26.984 52.2228 28.2868 50.9214L50.779 28.4327C52.0805 27.1307 52.0805 25.0195 50.779 23.7178" fill="#CACACA"/>
</g>
<defs>
<clipPath id="clip0_3904_28993">
<rect width="124" height="51.7924" fill="white" transform="translate(0 0.103821)"/>
</clipPath>
</defs>
</svg>
