<svg width="160" height="160" viewBox="0 0 160 160" fill="none" xmlns="http://www.w3.org/2000/svg">
<circle cx="80" cy="80" r="80" fill="#39444F"/>
<path d="M88.2098 54.8H73.8053V47.6C73.8053 45.0539 72.7936 42.6121 70.9926 40.8118C69.1917 39.0114 66.7492 38 64.2023 38H57V112.4C57 114.946 58.0117 117.388 59.8127 119.188C61.6136 120.989 64.0561 122 66.603 122H73.8053V105.2H88.2098C94.7258 104.954 100.893 102.193 105.416 97.4972C109.938 92.8016 112.465 86.5366 112.465 80.018C112.465 73.4994 109.938 67.2345 105.416 62.5388C100.893 57.8432 94.7258 55.0823 88.2098 54.836V54.8ZM88.2098 88.4H73.8053V71.6H88.2098C93.0114 71.6 96.3124 75.398 96.3124 80C96.3124 84.602 93.0114 88.382 88.2098 88.382V88.4Z" fill="white"/>
</svg>
