<svg width="637" height="441" viewBox="0 0 637 441" fill="none" xmlns="http://www.w3.org/2000/svg">
<path d="M0.75 0H628.75C633.168 0 636.75 3.58172 636.75 8V37H0.75V0Z" fill="#FAFBFC"/>
<circle cx="21.5" cy="17.5" r="5.11111" fill="#D8DFE5" stroke="#D0D6E1" stroke-width="0.777778"/>
<circle cx="37.5" cy="17.5" r="5.11111" fill="#D8DFE5" stroke="#D0D6E1" stroke-width="0.777778"/>
<circle cx="52.5" cy="17.5" r="5.11111" fill="#D8DFE5" stroke="#D0D6E1" stroke-width="0.777778"/>
<line x1="1" y1="36.5" x2="637" y2="36.5" stroke="#D8DFE5"/>
<path d="M1 37H122V441H1V37Z" fill="#FAFBFC"/>
<rect width="515" height="404" transform="translate(122 37)" fill="white"/>
<path d="M228.004 73.0909H226.374V81.1023H226.272L220.722 73.0909H219.199V84H220.844V75.9993H220.946L226.491 84H228.004V73.0909ZM234.173 84.1651C236.48 84.1651 237.987 82.4766 237.987 79.9464C237.987 77.4002 236.48 75.7116 234.173 75.7116C231.867 75.7116 230.359 77.4002 230.359 79.9464C230.359 82.4766 231.867 84.1651 234.173 84.1651ZM234.178 82.8281C232.671 82.8281 231.968 81.5124 231.968 79.9411C231.968 78.375 232.671 77.0433 234.178 77.0433C235.675 77.0433 236.378 78.375 236.378 79.9411C236.378 81.5124 235.675 82.8281 234.178 82.8281ZM246.921 75.8182H245.211L243.144 82.1143H243.059L240.987 75.8182H239.277L242.25 84H243.954L246.921 75.8182ZM252.101 84.1651C253.886 84.1651 255.148 83.2862 255.51 81.9545L254.003 81.6829C253.715 82.4553 253.023 82.8494 252.117 82.8494C250.754 82.8494 249.837 81.9652 249.795 80.3885H255.612V79.8239C255.612 76.8675 253.843 75.7116 251.989 75.7116C249.71 75.7116 248.207 77.4482 248.207 79.9624C248.207 82.5032 249.688 84.1651 252.101 84.1651ZM249.8 79.1953C249.864 78.0341 250.706 77.0273 252 77.0273C253.236 77.0273 254.045 77.9435 254.051 79.1953H249.8ZM257.829 84H259.421V78.9556C259.421 77.853 260.194 77.0859 261.099 77.0859C261.984 77.0859 262.596 77.6719 262.596 78.5614V84H264.183V78.7852C264.183 77.7997 264.785 77.0859 265.824 77.0859C266.666 77.0859 267.358 77.5547 267.358 78.6626V84H268.951V78.5135C268.951 76.6438 267.907 75.7116 266.426 75.7116C265.249 75.7116 264.365 76.2763 263.97 77.1499H263.885C263.528 76.255 262.777 75.7116 261.685 75.7116C260.604 75.7116 259.8 76.2496 259.459 77.1499H259.357V75.8182H257.829V84ZM271.663 84H273.219V82.7269H273.352C273.64 83.2489 274.225 84.1598 275.717 84.1598C277.699 84.1598 279.137 82.5724 279.137 79.9251C279.137 77.2724 277.677 75.7116 275.701 75.7116C274.183 75.7116 273.634 76.6385 273.352 77.1445H273.256V73.0909H271.663V84ZM273.224 79.9091C273.224 78.1992 273.97 77.0646 275.36 77.0646C276.804 77.0646 277.528 78.2844 277.528 79.9091C277.528 81.5497 276.782 82.8015 275.36 82.8015C273.991 82.8015 273.224 81.6296 273.224 79.9091ZM284.901 84.1651C286.686 84.1651 287.948 83.2862 288.311 81.9545L286.803 81.6829C286.515 82.4553 285.823 82.8494 284.917 82.8494C283.554 82.8494 282.638 81.9652 282.595 80.3885H288.412V79.8239C288.412 76.8675 286.643 75.7116 284.79 75.7116C282.51 75.7116 281.008 77.4482 281.008 79.9624C281.008 82.5032 282.488 84.1651 284.901 84.1651ZM282.6 79.1953C282.664 78.0341 283.506 77.0273 284.8 77.0273C286.036 77.0273 286.846 77.9435 286.851 79.1953H282.6ZM290.629 84H292.222V79.0036C292.222 77.9329 293.047 77.1605 294.176 77.1605C294.507 77.1605 294.88 77.2191 295.007 77.2564V75.733C294.848 75.7116 294.533 75.6957 294.331 75.6957C293.372 75.6957 292.552 76.239 292.254 77.1179H292.168V75.8182H290.629V84ZM304.835 84.1491C307.03 84.1491 308.596 82.5991 308.59 80.4737C308.596 78.3643 307.125 76.8303 305.139 76.8303C304.329 76.8303 303.578 77.1392 303.152 77.5547H303.088L303.434 74.5025H308.063V73.0909H302.065L301.453 78.5881L302.96 78.8118C303.37 78.4442 304.105 78.1939 304.766 78.1939C306.06 78.2045 306.998 79.174 306.998 80.5057C306.998 81.8161 306.087 82.7642 304.835 82.7642C303.78 82.7642 302.944 82.093 302.859 81.1555H301.261C301.325 82.892 302.832 84.1491 304.835 84.1491ZM314.826 75.8182H313.149V73.858H311.556V75.8182H310.357V77.0966H311.556V81.9279C311.551 83.4141 312.685 84.1332 313.942 84.1065C314.448 84.1012 314.789 84.0053 314.976 83.9361L314.688 82.6204C314.581 82.6417 314.384 82.6896 314.129 82.6896C313.612 82.6896 313.149 82.5192 313.149 81.5977V77.0966H314.826V75.8182ZM318.807 79.142C318.807 77.837 319.632 77.0913 320.767 77.0913C321.864 77.0913 322.519 77.7891 322.519 78.9876V84H324.112V78.7958C324.112 76.7557 322.993 75.7116 321.31 75.7116C320.037 75.7116 319.27 76.2656 318.887 77.1499H318.785V73.0909H317.214V84H318.807V79.142ZM328.76 82.5085H327.225L327.172 83.1051C327.05 84.5487 326.709 86.0028 326.565 86.6634H327.694C327.95 85.9656 328.515 84.3675 328.68 83.0891L328.76 82.5085ZM335.681 84H342.862V82.5884H337.951V82.5085L340.119 80.2393C342.116 78.2205 342.686 77.2564 342.686 76.0366C342.686 74.2841 341.258 72.9418 339.202 72.9418C337.162 72.9418 335.671 74.2628 335.671 76.255H337.242C337.237 75.0831 337.993 74.3161 339.17 74.3161C340.278 74.3161 341.12 74.9979 341.12 76.0845C341.12 77.0487 340.545 77.7411 339.373 78.9822L335.681 82.8068V84ZM349.129 84.1811C351.648 84.1811 353.124 82.125 353.124 78.5508C353.124 75.0032 351.627 72.9418 349.129 72.9418C346.625 72.9418 345.134 74.9979 345.128 78.5508C345.128 82.1197 346.604 84.1758 349.129 84.1811ZM349.129 82.7589C347.653 82.7589 346.763 81.2781 346.763 78.5508C346.769 75.8342 347.658 74.3374 349.129 74.3374C350.593 74.3374 351.488 75.8342 351.488 78.5508C351.488 81.2781 350.599 82.7589 349.129 82.7589ZM355.463 84H362.644V82.5884H357.732V82.5085L359.9 80.2393C361.898 78.2205 362.468 77.2564 362.468 76.0366C362.468 74.2841 361.04 72.9418 358.984 72.9418C356.944 72.9418 355.453 74.2628 355.453 76.255H357.024C357.019 75.0831 357.775 74.3161 358.952 74.3161C360.06 74.3161 360.902 74.9979 360.902 76.0845C360.902 77.0487 360.327 77.7411 359.155 78.9822L355.463 82.8068V84ZM369.251 73.0909H367.648L364.926 74.87V76.4467L367.536 74.7422H367.6V84H369.251V73.0909Z" fill="#9EACBA"/>
<path d="M219.614 124.636V141H222.458V129.734H222.61L227.133 140.952H229.258L233.78 129.758H233.932V141H236.777V124.636H233.149L228.291 136.494H228.099L223.241 124.636H219.614ZM245.23 141.24C248.826 141.24 251.111 138.707 251.111 134.912C251.111 131.108 248.826 128.567 245.23 128.567C241.635 128.567 239.349 131.108 239.349 134.912C239.349 138.707 241.635 141.24 245.23 141.24ZM245.246 138.923C243.257 138.923 242.282 137.149 242.282 134.904C242.282 132.658 243.257 130.861 245.246 130.861C247.204 130.861 248.178 132.658 248.178 134.904C248.178 137.149 247.204 138.923 245.246 138.923ZM253.566 141H256.458V133.785C256.458 132.227 257.633 131.124 259.223 131.124C259.71 131.124 260.317 131.212 260.565 131.292V128.631C260.301 128.583 259.846 128.551 259.526 128.551C258.12 128.551 256.946 129.35 256.498 130.773H256.37V128.727H253.566V141ZM265.379 133.809C265.379 132.035 266.45 131.012 267.976 131.012C269.47 131.012 270.365 131.995 270.365 133.633V141H273.257V133.186C273.265 130.245 271.587 128.567 269.054 128.567C267.217 128.567 265.954 129.446 265.395 130.813H265.251V128.727H262.487V141H265.379V133.809ZM276.198 141H279.09V128.727H276.198V141ZM277.652 126.985C278.571 126.985 279.322 126.282 279.322 125.419C279.322 124.548 278.571 123.845 277.652 123.845C276.725 123.845 275.974 124.548 275.974 125.419C275.974 126.282 276.725 126.985 277.652 126.985ZM284.957 133.809C284.957 132.035 286.027 131.012 287.553 131.012C289.048 131.012 289.942 131.995 289.942 133.633V141H292.835V133.186C292.843 130.245 291.165 128.567 288.632 128.567C286.794 128.567 285.532 129.446 284.973 130.813H284.829V128.727H282.064V141H284.957V133.809ZM301.113 145.858C304.428 145.858 306.873 144.34 306.873 141.2V128.727H304.021V130.757H303.861C303.422 129.87 302.503 128.567 300.338 128.567C297.501 128.567 295.272 130.789 295.272 134.824C295.272 138.827 297.501 140.824 300.33 140.824C302.431 140.824 303.414 139.698 303.861 138.795H304.005V141.12C304.005 142.926 302.806 143.669 301.161 143.669C299.419 143.669 298.652 142.846 298.3 142.127L295.695 142.758C296.223 144.476 297.988 145.858 301.113 145.858ZM301.137 138.555C299.227 138.555 298.22 137.069 298.22 134.808C298.22 132.578 299.211 130.941 301.137 130.941C302.998 130.941 304.021 132.483 304.021 134.808C304.021 137.149 302.982 138.555 301.137 138.555ZM314.828 127.121H319.885V141H322.826V127.121H327.883V124.636H314.828V127.121ZM332.134 141.248C334.06 141.248 335.21 140.345 335.737 139.314H335.833V141H338.614V132.786C338.614 129.542 335.969 128.567 333.628 128.567C331.047 128.567 329.066 129.718 328.427 131.955L331.127 132.339C331.415 131.5 332.23 130.781 333.644 130.781C334.986 130.781 335.722 131.468 335.722 132.674V132.722C335.722 133.553 334.851 133.593 332.685 133.825C330.304 134.081 328.027 134.792 328.027 137.556C328.027 139.969 329.793 141.248 332.134 141.248ZM332.885 139.122C331.679 139.122 330.816 138.571 330.816 137.508C330.816 136.398 331.782 135.934 333.077 135.751C333.836 135.647 335.354 135.455 335.729 135.151V136.597C335.729 137.964 334.627 139.122 332.885 139.122ZM351.222 131.971C350.823 129.894 349.161 128.567 346.284 128.567C343.328 128.567 341.315 130.022 341.323 132.291C341.315 134.081 342.417 135.263 344.774 135.751L346.868 136.19C347.994 136.438 348.522 136.893 348.522 137.588C348.522 138.427 347.611 139.058 346.236 139.058C344.91 139.058 344.047 138.483 343.799 137.381L340.979 137.652C341.339 139.905 343.232 141.24 346.244 141.24C349.313 141.24 351.478 139.65 351.486 137.325C351.478 135.575 350.351 134.504 348.034 134.001L345.941 133.553C344.694 133.274 344.199 132.842 344.207 132.131C344.199 131.3 345.118 130.725 346.324 130.725C347.659 130.725 348.362 131.452 348.585 132.259L351.222 131.971ZM353.871 141H356.763V136.877L357.818 135.751L361.573 141H365.033L359.999 134.025L364.753 128.727H361.374L356.963 133.657H356.763V124.636H353.871V141ZM376.381 131.971C375.981 129.894 374.319 128.567 371.443 128.567C368.487 128.567 366.473 130.022 366.481 132.291C366.473 134.081 367.576 135.263 369.933 135.751L372.026 136.19C373.153 136.438 373.68 136.893 373.68 137.588C373.68 138.427 372.769 139.058 371.395 139.058C370.069 139.058 369.206 138.483 368.958 137.381L366.138 137.652C366.497 139.905 368.391 141.24 371.403 141.24C374.471 141.24 376.637 139.65 376.645 137.325C376.637 135.575 375.51 134.504 373.193 134.001L371.099 133.553C369.853 133.274 369.358 132.842 369.366 132.131C369.358 131.3 370.277 130.725 371.483 130.725C372.817 130.725 373.52 131.452 373.744 132.259L376.381 131.971Z" fill="#37434F"/>
<g filter="url(#filter0_ddd_1085_15759)">
<rect x="218" y="169" width="324" height="204" rx="6" fill="white"/>
<rect width="249" height="204" transform="translate(218 169)" fill="white"/>
<path d="M235.585 201H237.17V195.145H242.847V193.739H237.17V189.315H243.435V187.909H235.585V201ZM245.945 201H247.454V191.182H245.945V201ZM246.712 189.545C247.3 189.545 247.786 189.085 247.786 188.523C247.786 187.96 247.3 187.5 246.712 187.5C246.124 187.5 245.638 187.96 245.638 188.523C245.638 189.085 246.124 189.545 246.712 189.545ZM251.342 191.182H249.603L252.722 196.091L249.603 201H251.342L253.694 197.19L256.046 201H257.785L254.614 196.091L257.785 191.182H256.046L253.694 195.196L251.342 191.182ZM268.988 201.205C271.162 201.205 272.594 199.875 272.849 198.136H271.341C271.059 199.21 270.165 199.849 268.988 199.849C267.199 199.849 266.048 198.366 266.048 196.091C266.048 193.866 267.224 192.409 268.988 192.409C270.318 192.409 271.111 193.227 271.341 194.122H272.849C272.594 192.281 271.034 191.054 268.963 191.054C266.304 191.054 264.54 193.151 264.54 196.142C264.54 199.082 266.227 201.205 268.988 201.205ZM279.043 201.205C281.702 201.205 283.492 199.185 283.492 196.142C283.492 193.074 281.702 191.054 279.043 191.054C276.384 191.054 274.594 193.074 274.594 196.142C274.594 199.185 276.384 201.205 279.043 201.205ZM279.043 199.849C277.023 199.849 276.103 198.111 276.103 196.142C276.103 194.173 277.023 192.409 279.043 192.409C281.063 192.409 281.983 194.173 281.983 196.142C281.983 198.111 281.063 199.849 279.043 199.849ZM287.303 187.909H285.795V201H287.303V187.909ZM294.055 201.205C296.714 201.205 298.504 199.185 298.504 196.142C298.504 193.074 296.714 191.054 294.055 191.054C291.396 191.054 289.606 193.074 289.606 196.142C289.606 199.185 291.396 201.205 294.055 201.205ZM294.055 199.849C292.035 199.849 291.115 198.111 291.115 196.142C291.115 194.173 292.035 192.409 294.055 192.409C296.075 192.409 296.995 194.173 296.995 196.142C296.995 198.111 296.075 199.849 294.055 199.849ZM300.806 201H302.315V194.787C302.315 193.457 303.363 192.486 304.795 192.486C305.198 192.486 305.613 192.562 305.716 192.588V191.054C305.543 191.041 305.147 191.028 304.923 191.028C303.747 191.028 302.724 191.693 302.366 192.665H302.264V191.182H300.806V201ZM316.555 201.205C318.728 201.205 320.16 199.875 320.416 198.136H318.907C318.626 199.21 317.731 199.849 316.555 199.849C314.765 199.849 313.615 198.366 313.615 196.091C313.615 193.866 314.791 192.409 316.555 192.409C317.884 192.409 318.677 193.227 318.907 194.122H320.416C320.16 192.281 318.6 191.054 316.529 191.054C313.87 191.054 312.106 193.151 312.106 196.142C312.106 199.082 313.794 201.205 316.555 201.205ZM326.61 201.205C329.269 201.205 331.058 199.185 331.058 196.142C331.058 193.074 329.269 191.054 326.61 191.054C323.95 191.054 322.161 193.074 322.161 196.142C322.161 199.185 323.95 201.205 326.61 201.205ZM326.61 199.849C324.59 199.849 323.669 198.111 323.669 196.142C323.669 194.173 324.59 192.409 326.61 192.409C328.629 192.409 329.55 194.173 329.55 196.142C329.55 198.111 328.629 199.849 326.61 199.849ZM334.87 195.094C334.87 193.381 335.931 192.409 337.375 192.409C338.775 192.409 339.625 193.323 339.625 194.864V201H341.134V194.761C341.134 192.256 339.798 191.054 337.81 191.054C336.327 191.054 335.407 191.719 334.946 192.716H334.819V191.182H333.361V201H334.87V195.094ZM348.16 191.182H346.064V188.83H344.555V191.182H343.072V192.46H344.555V198.597C344.555 200.31 345.936 201.128 347.214 201.128C347.777 201.128 348.135 201.026 348.339 200.949L348.032 199.594C347.905 199.619 347.7 199.67 347.368 199.67C346.703 199.67 346.064 199.466 346.064 198.188V192.46H348.16V191.182ZM350.43 201H351.938V194.787C351.938 193.457 352.986 192.486 354.418 192.486C354.821 192.486 355.236 192.562 355.339 192.588V191.054C355.166 191.041 354.77 191.028 354.546 191.028C353.37 191.028 352.347 191.693 351.989 192.665H351.887V191.182H350.43V201ZM360.016 201.23C361.729 201.23 362.624 200.31 362.931 199.67H363.007V201H364.516V194.531C364.516 191.412 362.138 191.054 360.885 191.054C359.402 191.054 357.715 191.565 356.948 193.355L358.38 193.866C358.712 193.151 359.498 192.384 360.936 192.384C362.324 192.384 363.007 193.119 363.007 194.378V194.429C363.007 195.158 362.266 195.094 360.476 195.324C358.654 195.56 356.667 195.963 356.667 198.213C356.667 200.131 358.15 201.23 360.016 201.23ZM360.246 199.875C359.044 199.875 358.175 199.338 358.175 198.29C358.175 197.139 359.223 196.781 360.4 196.628C361.039 196.551 362.752 196.372 363.007 196.065V197.446C363.007 198.673 362.036 199.875 360.246 199.875ZM374.224 193.381C373.751 191.987 372.69 191.054 370.747 191.054C368.676 191.054 367.142 192.23 367.142 193.892C367.142 195.247 367.947 196.155 369.749 196.577L371.386 196.96C372.377 197.19 372.843 197.663 372.843 198.341C372.843 199.185 371.948 199.875 370.542 199.875C369.308 199.875 368.535 199.344 368.267 198.29L366.835 198.648C367.186 200.316 368.561 201.205 370.568 201.205C372.85 201.205 374.403 199.958 374.403 198.264C374.403 196.896 373.546 196.033 371.795 195.605L370.338 195.247C369.174 194.96 368.65 194.57 368.65 193.815C368.65 192.972 369.545 192.358 370.747 192.358C372.063 192.358 372.607 193.087 372.869 193.764L374.224 193.381ZM380.944 191.182H378.847V188.83H377.338V191.182H375.855V192.46H377.338V198.597C377.338 200.31 378.719 201.128 379.998 201.128C380.56 201.128 380.918 201.026 381.123 200.949L380.816 199.594C380.688 199.619 380.483 199.67 380.151 199.67C379.486 199.67 378.847 199.466 378.847 198.188V192.46H380.944V191.182Z" fill="#37434F"/>
<rect x="218" y="169" width="273" height="51" stroke="#D8DFE5"/>
<path d="M237.17 238.909H235.585V252H237.17V238.909ZM240.144 252H241.653V245.864C241.653 244.425 242.701 243.409 243.877 243.409C245.021 243.409 245.82 244.157 245.82 245.276V252H247.355V245.608C247.355 244.342 248.147 243.409 249.528 243.409C250.602 243.409 251.522 243.978 251.522 245.429V252H253.031V245.429C253.031 243.121 251.791 242.054 250.039 242.054C248.633 242.054 247.604 242.7 247.099 243.716H246.997C246.511 242.668 245.654 242.054 244.363 242.054C243.085 242.054 242.139 242.668 241.73 243.716H241.602V242.182H240.144V252ZM255.789 255.682H257.297V250.491H257.425C257.758 251.028 258.397 252.205 260.289 252.205C262.743 252.205 264.456 250.236 264.456 247.116C264.456 244.023 262.743 242.054 260.263 242.054C258.346 242.054 257.758 243.23 257.425 243.741H257.246V242.182H255.789V255.682ZM257.272 247.091C257.272 244.892 258.243 243.409 260.084 243.409C262.002 243.409 262.948 245.02 262.948 247.091C262.948 249.188 261.976 250.849 260.084 250.849C258.269 250.849 257.272 249.315 257.272 247.091ZM268.266 238.909H266.758V252H268.266V238.909ZM275.146 252.205C277.14 252.205 278.597 251.207 279.058 249.724L277.6 249.315C277.217 250.338 276.328 250.849 275.146 250.849C273.375 250.849 272.154 249.705 272.084 247.602H279.211V246.963C279.211 243.307 277.038 242.054 274.992 242.054C272.333 242.054 270.569 244.151 270.569 247.168C270.569 250.185 272.308 252.205 275.146 252.205ZM272.084 246.298C272.186 244.771 273.266 243.409 274.992 243.409C276.629 243.409 277.677 244.636 277.677 246.298H272.084ZM281.506 252H283.014V245.864C283.014 244.425 284.062 243.409 285.239 243.409C286.383 243.409 287.182 244.157 287.182 245.276V252H288.716V245.608C288.716 244.342 289.509 243.409 290.889 243.409C291.963 243.409 292.884 243.978 292.884 245.429V252H294.392V245.429C294.392 243.121 293.152 242.054 291.401 242.054C289.994 242.054 288.965 242.7 288.46 243.716H288.358C287.872 242.668 287.016 242.054 285.724 242.054C284.446 242.054 283.5 242.668 283.091 243.716H282.963V242.182H281.506V252ZM301.267 252.205C303.261 252.205 304.718 251.207 305.179 249.724L303.721 249.315C303.338 250.338 302.449 250.849 301.267 250.849C299.496 250.849 298.275 249.705 298.205 247.602H305.332V246.963C305.332 243.307 303.159 242.054 301.113 242.054C298.454 242.054 296.69 244.151 296.69 247.168C296.69 250.185 298.429 252.205 301.267 252.205ZM298.205 246.298C298.307 244.771 299.387 243.409 301.113 243.409C302.75 243.409 303.798 244.636 303.798 246.298H298.205ZM309.135 246.094C309.135 244.381 310.196 243.409 311.641 243.409C313.041 243.409 313.891 244.323 313.891 245.864V252H315.4V245.761C315.4 243.256 314.064 242.054 312.076 242.054C310.593 242.054 309.672 242.719 309.212 243.716H309.084V242.182H307.627V252H309.135V246.094ZM322.426 242.182H320.329V239.83H318.821V242.182H317.338V243.46H318.821V249.597C318.821 251.31 320.202 252.128 321.48 252.128C322.042 252.128 322.4 252.026 322.605 251.949L322.298 250.594C322.17 250.619 321.966 250.67 321.633 250.67C320.969 250.67 320.329 250.466 320.329 249.188V243.46H322.426V242.182ZM336.712 244.381C336.239 242.987 335.178 242.054 333.235 242.054C331.164 242.054 329.63 243.23 329.63 244.892C329.63 246.247 330.435 247.155 332.238 247.577L333.874 247.96C334.865 248.19 335.331 248.663 335.331 249.341C335.331 250.185 334.437 250.875 333.03 250.875C331.797 250.875 331.023 250.344 330.755 249.29L329.323 249.648C329.675 251.316 331.049 252.205 333.056 252.205C335.338 252.205 336.891 250.958 336.891 249.264C336.891 247.896 336.035 247.033 334.283 246.605L332.826 246.247C331.662 245.96 331.138 245.57 331.138 244.815C331.138 243.972 332.033 243.358 333.235 243.358C334.552 243.358 335.095 244.087 335.357 244.764L336.712 244.381ZM339.162 252H340.67V242.182H339.162V252ZM339.929 240.545C340.517 240.545 341.003 240.085 341.003 239.523C341.003 238.96 340.517 238.5 339.929 238.5C339.341 238.5 338.855 238.96 338.855 239.523C338.855 240.085 339.341 240.545 339.929 240.545ZM347.141 252.205C349.033 252.205 349.672 251.028 350.004 250.491H350.183V252H351.641V238.909H350.132V243.741H350.004C349.672 243.23 349.084 242.054 347.166 242.054C344.686 242.054 342.973 244.023 342.973 247.116C342.973 250.236 344.686 252.205 347.141 252.205ZM347.345 250.849C345.453 250.849 344.482 249.188 344.482 247.091C344.482 245.02 345.428 243.409 347.345 243.409C349.186 243.409 350.158 244.892 350.158 247.091C350.158 249.315 349.161 250.849 347.345 250.849ZM358.73 252.205C360.724 252.205 362.181 251.207 362.642 249.724L361.184 249.315C360.801 250.338 359.912 250.849 358.73 250.849C356.959 250.849 355.738 249.705 355.668 247.602H362.795V246.963C362.795 243.307 360.622 242.054 358.576 242.054C355.917 242.054 354.153 244.151 354.153 247.168C354.153 250.185 355.892 252.205 358.73 252.205ZM355.668 246.298C355.77 244.771 356.85 243.409 358.576 243.409C360.213 243.409 361.261 244.636 361.261 246.298H355.668ZM365.294 252H366.752V250.491H366.931C367.263 251.028 367.902 252.205 369.794 252.205C372.249 252.205 373.962 250.236 373.962 247.116C373.962 244.023 372.249 242.054 369.769 242.054C367.851 242.054 367.263 243.23 366.931 243.741H366.803V238.909H365.294V252ZM366.777 247.091C366.777 244.892 367.749 243.409 369.59 243.409C371.507 243.409 372.453 245.02 372.453 247.091C372.453 249.188 371.482 250.849 369.59 250.849C367.774 250.849 366.777 249.315 366.777 247.091ZM379.159 252.23C380.872 252.23 381.767 251.31 382.073 250.67H382.15V252H383.659V245.531C383.659 242.412 381.281 242.054 380.028 242.054C378.545 242.054 376.857 242.565 376.09 244.355L377.522 244.866C377.855 244.151 378.641 243.384 380.079 243.384C381.466 243.384 382.15 244.119 382.15 245.378V245.429C382.15 246.158 381.409 246.094 379.619 246.324C377.797 246.56 375.809 246.963 375.809 249.213C375.809 251.131 377.292 252.23 379.159 252.23ZM379.389 250.875C378.187 250.875 377.318 250.338 377.318 249.29C377.318 248.139 378.366 247.781 379.542 247.628C380.181 247.551 381.894 247.372 382.15 247.065V248.446C382.15 249.673 381.178 250.875 379.389 250.875ZM386.412 252H387.92V245.787C387.92 244.457 388.969 243.486 390.401 243.486C390.803 243.486 391.219 243.562 391.321 243.588V242.054C391.148 242.041 390.752 242.028 390.528 242.028C389.352 242.028 388.33 242.693 387.972 243.665H387.869V242.182H386.412V252Z" fill="#37434F"/>
<rect x="218" y="220" width="273" height="51" stroke="#D8DFE5"/>
<path d="M237.963 303H239.599L242.489 292.568H242.591L245.48 303H247.116L250.696 289.909H249.085L246.349 300.571H246.222L243.435 289.909H241.645L238.858 300.571H238.73L235.994 289.909H234.384L237.963 303ZM251.851 303H253.36V296.787C253.36 295.457 254.408 294.486 255.84 294.486C256.243 294.486 256.658 294.562 256.76 294.588V293.054C256.588 293.041 256.192 293.028 255.968 293.028C254.792 293.028 253.769 293.693 253.411 294.665H253.309V293.182H251.851V303ZM258.549 303H260.057V293.182H258.549V303ZM259.316 291.545C259.904 291.545 260.39 291.085 260.39 290.523C260.39 289.96 259.904 289.5 259.316 289.5C258.728 289.5 258.242 289.96 258.242 290.523C258.242 291.085 258.728 291.545 259.316 291.545ZM267.09 293.182H264.993V290.83H263.485V293.182H262.002V294.46H263.485V300.597C263.485 302.31 264.866 303.128 266.144 303.128C266.706 303.128 267.064 303.026 267.269 302.949L266.962 301.594C266.834 301.619 266.63 301.67 266.297 301.67C265.633 301.67 264.993 301.466 264.993 300.188V294.46H267.09V293.182ZM273.37 303.205C275.365 303.205 276.822 302.207 277.282 300.724L275.825 300.315C275.441 301.338 274.553 301.849 273.37 301.849C271.6 301.849 270.379 300.705 270.308 298.602H277.436V297.963C277.436 294.307 275.262 293.054 273.217 293.054C270.558 293.054 268.794 295.151 268.794 298.168C268.794 301.185 270.532 303.205 273.37 303.205ZM270.308 297.298C270.411 295.771 271.491 294.409 273.217 294.409C274.853 294.409 275.901 295.636 275.901 297.298H270.308ZM289.063 293.182H286.966V290.83H285.458V293.182H283.975V294.46H285.458V300.597C285.458 302.31 286.838 303.128 288.117 303.128C288.679 303.128 289.037 303.026 289.242 302.949L288.935 301.594C288.807 301.619 288.602 301.67 288.27 301.67C287.605 301.67 286.966 301.466 286.966 300.188V294.46H289.063V293.182ZM295.343 303.205C297.337 303.205 298.795 302.207 299.255 300.724L297.797 300.315C297.414 301.338 296.525 301.849 295.343 301.849C293.572 301.849 292.351 300.705 292.281 298.602H299.408V297.963C299.408 294.307 297.235 293.054 295.189 293.054C292.53 293.054 290.766 295.151 290.766 298.168C290.766 301.185 292.505 303.205 295.343 303.205ZM292.281 297.298C292.383 295.771 293.464 294.409 295.189 294.409C296.826 294.409 297.874 295.636 297.874 297.298H292.281ZM308.657 295.381C308.184 293.987 307.123 293.054 305.18 293.054C303.109 293.054 301.575 294.23 301.575 295.892C301.575 297.247 302.381 298.155 304.183 298.577L305.819 298.96C306.81 299.19 307.277 299.663 307.277 300.341C307.277 301.185 306.382 301.875 304.976 301.875C303.742 301.875 302.969 301.344 302.7 300.29L301.268 300.648C301.62 302.316 302.994 303.205 305.001 303.205C307.283 303.205 308.836 301.958 308.836 300.264C308.836 298.896 307.98 298.033 306.229 297.605L304.771 297.247C303.608 296.96 303.084 296.57 303.084 295.815C303.084 294.972 303.979 294.358 305.18 294.358C306.497 294.358 307.04 295.087 307.302 295.764L308.657 295.381ZM315.377 293.182H313.281V290.83H311.772V293.182H310.289V294.46H311.772V300.597C311.772 302.31 313.153 303.128 314.431 303.128C314.994 303.128 315.352 303.026 315.556 302.949L315.249 301.594C315.121 301.619 314.917 301.67 314.585 301.67C313.92 301.67 313.281 301.466 313.281 300.188V294.46H315.377V293.182ZM324.425 295.381C323.952 293.987 322.891 293.054 320.948 293.054C318.877 293.054 317.343 294.23 317.343 295.892C317.343 297.247 318.148 298.155 319.951 298.577L321.587 298.96C322.578 299.19 323.044 299.663 323.044 300.341C323.044 301.185 322.15 301.875 320.743 301.875C319.51 301.875 318.736 301.344 318.468 300.29L317.036 300.648C317.387 302.316 318.762 303.205 320.769 303.205C323.051 303.205 324.604 301.958 324.604 300.264C324.604 298.896 323.748 298.033 321.996 297.605L320.539 297.247C319.375 296.96 318.851 296.57 318.851 295.815C318.851 294.972 319.746 294.358 320.948 294.358C322.265 294.358 322.808 295.087 323.07 295.764L324.425 295.381Z" fill="#37434F"/>
<rect x="218" y="271" width="273" height="51" stroke="#D8DFE5"/>
<path d="M235.585 354H237.17V348.886H240.034C240.149 348.886 240.258 348.886 240.366 348.88L243.128 354H244.969L242.009 348.592C243.678 348.023 244.457 346.662 244.457 344.923C244.457 342.609 243.077 340.909 240.009 340.909H235.585V354ZM237.17 347.455V342.315H239.957C242.08 342.315 242.898 343.351 242.898 344.923C242.898 346.496 242.08 347.455 239.983 347.455H237.17ZM250.905 354.205C252.9 354.205 254.357 353.207 254.817 351.724L253.36 351.315C252.976 352.338 252.088 352.849 250.905 352.849C249.135 352.849 247.914 351.705 247.844 349.602H254.971V348.963C254.971 345.307 252.797 344.054 250.752 344.054C248.093 344.054 246.329 346.151 246.329 349.168C246.329 352.185 248.067 354.205 250.905 354.205ZM247.844 348.298C247.946 346.771 249.026 345.409 250.752 345.409C252.388 345.409 253.437 346.636 253.437 348.298H247.844ZM264.995 344.182H263.359L260.648 352.006H260.546L257.836 344.182H256.2L259.83 354H261.364L264.995 344.182ZM266.986 354H268.495V344.182H266.986V354ZM267.753 342.545C268.341 342.545 268.827 342.085 268.827 341.523C268.827 340.96 268.341 340.5 267.753 340.5C267.165 340.5 266.679 340.96 266.679 341.523C266.679 342.085 267.165 342.545 267.753 342.545ZM275.374 354.205C277.368 354.205 278.826 353.207 279.286 351.724L277.829 351.315C277.445 352.338 276.557 352.849 275.374 352.849C273.604 352.849 272.383 351.705 272.312 349.602H279.439V348.963C279.439 345.307 277.266 344.054 275.221 344.054C272.562 344.054 270.797 346.151 270.797 349.168C270.797 352.185 272.536 354.205 275.374 354.205ZM272.312 348.298C272.415 346.771 273.495 345.409 275.221 345.409C276.857 345.409 277.905 346.636 277.905 348.298H272.312ZM283.959 354H285.442L287.589 346.457H287.743L289.89 354H291.373L294.365 344.182H292.78L290.657 351.673H290.555L288.484 344.182H286.873L284.777 351.699H284.675L282.552 344.182H280.967L283.959 354ZM302.93 340.909H301.422V354H302.93V340.909ZM308.582 354.23C310.295 354.23 311.19 353.31 311.497 352.67H311.574V354H313.082V347.531C313.082 344.412 310.705 344.054 309.452 344.054C307.969 344.054 306.281 344.565 305.514 346.355L306.946 346.866C307.278 346.151 308.065 345.384 309.503 345.384C310.89 345.384 311.574 346.119 311.574 347.378V347.429C311.574 348.158 310.832 348.094 309.043 348.324C307.221 348.56 305.233 348.963 305.233 351.213C305.233 353.131 306.716 354.23 308.582 354.23ZM308.812 352.875C307.611 352.875 306.741 352.338 306.741 351.29C306.741 350.139 307.79 349.781 308.966 349.628C309.605 349.551 311.318 349.372 311.574 349.065V350.446C311.574 351.673 310.602 352.875 308.812 352.875ZM320.106 344.182H318.009V341.83H316.501V344.182H315.018V345.46H316.501V351.597C316.501 353.31 317.881 354.128 319.16 354.128C319.722 354.128 320.08 354.026 320.285 353.949L319.978 352.594C319.85 352.619 319.645 352.67 319.313 352.67C318.648 352.67 318.009 352.466 318.009 351.188V345.46H320.106V344.182ZM326.386 354.205C328.38 354.205 329.838 353.207 330.298 351.724L328.84 351.315C328.457 352.338 327.568 352.849 326.386 352.849C324.615 352.849 323.394 351.705 323.324 349.602H330.451V348.963C330.451 345.307 328.278 344.054 326.232 344.054C323.573 344.054 321.809 346.151 321.809 349.168C321.809 352.185 323.548 354.205 326.386 354.205ZM323.324 348.298C323.426 346.771 324.507 345.409 326.232 345.409C327.869 345.409 328.917 346.636 328.917 348.298H323.324ZM339.7 346.381C339.227 344.987 338.166 344.054 336.223 344.054C334.152 344.054 332.618 345.23 332.618 346.892C332.618 348.247 333.423 349.155 335.226 349.577L336.862 349.96C337.853 350.19 338.32 350.663 338.32 351.341C338.32 352.185 337.425 352.875 336.019 352.875C334.785 352.875 334.012 352.344 333.743 351.29L332.311 351.648C332.663 353.316 334.037 354.205 336.044 354.205C338.326 354.205 339.879 352.958 339.879 351.264C339.879 349.896 339.023 349.033 337.271 348.605L335.814 348.247C334.651 347.96 334.127 347.57 334.127 346.815C334.127 345.972 335.021 345.358 336.223 345.358C337.54 345.358 338.083 346.087 338.345 346.764L339.7 346.381ZM346.42 344.182H344.324V341.83H342.815V344.182H341.332V345.46H342.815V351.597C342.815 353.31 344.196 354.128 345.474 354.128C346.037 354.128 346.395 354.026 346.599 353.949L346.292 352.594C346.164 352.619 345.96 352.67 345.627 352.67C344.963 352.67 344.324 352.466 344.324 351.188V345.46H346.42V344.182ZM353.956 354H355.542V349.219H358.405C361.454 349.219 362.828 347.365 362.828 345.051C362.828 342.737 361.454 340.909 358.38 340.909H353.956V354ZM355.542 347.812V342.315H358.328C360.457 342.315 361.269 343.479 361.269 345.051C361.269 346.624 360.457 347.812 358.354 347.812H355.542ZM365.382 354H366.967V348.886H369.831C369.946 348.886 370.055 348.886 370.163 348.88L372.925 354H374.766L371.806 348.592C373.474 348.023 374.254 346.662 374.254 344.923C374.254 342.609 372.874 340.909 369.805 340.909H365.382V354ZM366.967 347.455V342.315H369.754C371.876 342.315 372.695 343.351 372.695 344.923C372.695 346.496 371.876 347.455 369.78 347.455H366.967ZM383.646 346.381C383.173 344.987 382.112 344.054 380.169 344.054C378.097 344.054 376.563 345.23 376.563 346.892C376.563 348.247 377.369 349.155 379.171 349.577L380.808 349.96C381.798 350.19 382.265 350.663 382.265 351.341C382.265 352.185 381.37 352.875 379.964 352.875C378.73 352.875 377.957 352.344 377.688 351.29L376.257 351.648C376.608 353.316 377.982 354.205 379.99 354.205C382.271 354.205 383.825 352.958 383.825 351.264C383.825 349.896 382.968 349.033 381.217 348.605L379.759 348.247C378.596 347.96 378.072 347.57 378.072 346.815C378.072 345.972 378.967 345.358 380.169 345.358C381.485 345.358 382.029 346.087 382.291 346.764L383.646 346.381Z" fill="#37434F"/>
<rect x="218" y="322" width="273" height="51" stroke="#D8DFE5"/>
<rect width="51" height="204" transform="translate(491 169)" fill="white"/>
<rect x="505.5" y="183.5" width="22" height="22" rx="1.5" stroke="#6F59EC"/>
<rect x="491" y="169" width="51" height="51" stroke="#D8DFE5"/>
<rect x="505.5" y="234.5" width="22" height="22" rx="1.5" stroke="#6F59EC"/>
<rect x="491" y="220" width="51" height="51" stroke="#D8DFE5"/>
<rect x="504.75" y="285" width="23" height="23" rx="2" fill="#6F59EC"/>
<path d="M522.75 292L513.812 301L509.75 296.909" stroke="white" stroke-width="2" stroke-linecap="round" stroke-linejoin="round"/>
<rect x="491" y="271" width="51" height="51" stroke="#D8DFE5"/>
<rect x="504.75" y="336" width="23" height="23" rx="2" fill="#6F59EC"/>
<path d="M522.75 343L513.812 352L509.75 347.909" stroke="white" stroke-width="2" stroke-linecap="round" stroke-linejoin="round"/>
<rect x="491" y="322" width="51" height="51" stroke="#D8DFE5"/>
</g>
<rect x="218" y="397" width="314" height="44" rx="4" fill="url(#paint0_linear_1085_15759)"/>
<defs>
<filter id="filter0_ddd_1085_15759" x="206.5" y="161.5" width="347" height="227" filterUnits="userSpaceOnUse" color-interpolation-filters="sRGB">
<feFlood flood-opacity="0" result="BackgroundImageFix"/>
<feColorMatrix in="SourceAlpha" type="matrix" values="0 0 0 0 0 0 0 0 0 0 0 0 0 0 0 0 0 0 127 0" result="hardAlpha"/>
<feOffset dy="0.5"/>
<feGaussianBlur stdDeviation="0.5"/>
<feColorMatrix type="matrix" values="0 0 0 0 0.152941 0 0 0 0 0.196078 0 0 0 0 0.337255 0 0 0 0.15 0"/>
<feBlend mode="multiply" in2="BackgroundImageFix" result="effect1_dropShadow_1085_15759"/>
<feColorMatrix in="SourceAlpha" type="matrix" values="0 0 0 0 0 0 0 0 0 0 0 0 0 0 0 0 0 0 127 0" result="hardAlpha"/>
<feOffset dy="2.59259"/>
<feGaussianBlur stdDeviation="3.22106"/>
<feColorMatrix type="matrix" values="0 0 0 0 0.152941 0 0 0 0 0.196078 0 0 0 0 0.337255 0 0 0 0.08 0"/>
<feBlend mode="normal" in2="effect1_dropShadow_1085_15759" result="effect2_dropShadow_1085_15759"/>
<feColorMatrix in="SourceAlpha" type="matrix" values="0 0 0 0 0 0 0 0 0 0 0 0 0 0 0 0 0 0 127 0" result="hardAlpha"/>
<feOffset dy="4"/>
<feGaussianBlur stdDeviation="5.5"/>
<feColorMatrix type="matrix" values="0 0 0 0 0.152941 0 0 0 0 0.196078 0 0 0 0 0.337255 0 0 0 0.04 0"/>
<feBlend mode="normal" in2="effect2_dropShadow_1085_15759" result="effect3_dropShadow_1085_15759"/>
<feBlend mode="normal" in="SourceGraphic" in2="effect3_dropShadow_1085_15759" result="shape"/>
</filter>
<linearGradient id="paint0_linear_1085_15759" x1="375" y1="382.938" x2="375" y2="445.763" gradientUnits="userSpaceOnUse">
<stop stop-color="#EBF2F7"/>
<stop offset="1" stop-color="white"/>
</linearGradient>
</defs>
</svg>
