<svg width="358" height="441" viewBox="0 0 358 441" fill="none" xmlns="http://www.w3.org/2000/svg">
<g clip-path="url(#clip0_434_8833)">
<path d="M0 0H348C352.418 0 356 3.58172 356 8V37H0V0Z" fill="#F7FAFC"/>
<circle cx="20.5" cy="17.5" r="5.11111" fill="#DDE7F0" stroke="#D0D6E1" stroke-width="0.777778"/>
<circle cx="36.5" cy="17.5" r="5.11111" fill="#DDE7F0" stroke="#D0D6E1" stroke-width="0.777778"/>
<circle cx="51.5" cy="17.5" r="5.11111" fill="#DDE7F0" stroke="#D0D6E1" stroke-width="0.777778"/>
<line x1="4.37114e-08" y1="36.5" x2="356" y2="36.5" stroke="#DDE7F0"/>
<path d="M0 37H356V435C356 438.314 353.314 441 350 441H0V37Z" fill="white"/>
<path d="M46.0036 65.0909H44.3736V73.1023H44.2724L38.7219 65.0909H37.1985V76H38.8445V67.9993H38.9457L44.4908 76H46.0036V65.0909ZM52.1731 76.1651C54.4796 76.1651 55.987 74.4766 55.987 71.9464C55.987 69.4002 54.4796 67.7116 52.1731 67.7116C49.8666 67.7116 48.3592 69.4002 48.3592 71.9464C48.3592 74.4766 49.8666 76.1651 52.1731 76.1651ZM52.1784 74.8281C50.671 74.8281 49.9678 73.5124 49.9678 71.9411C49.9678 70.375 50.671 69.0433 52.1784 69.0433C53.6752 69.0433 54.3784 70.375 54.3784 71.9411C54.3784 73.5124 53.6752 74.8281 52.1784 74.8281ZM64.9211 67.8182H63.2113L61.1445 74.1143H61.0593L58.9872 67.8182H57.2773L60.2496 76H61.9542L64.9211 67.8182ZM70.1012 76.1651C71.8857 76.1651 73.1481 75.2862 73.5103 73.9545L72.0029 73.6829C71.7152 74.4553 71.0228 74.8494 70.1172 74.8494C68.7536 74.8494 67.8374 73.9652 67.7948 72.3885H73.6115V71.8239C73.6115 68.8675 71.8431 67.7116 69.9894 67.7116C67.7096 67.7116 66.2074 69.4482 66.2074 71.9624C66.2074 74.5032 67.6882 76.1651 70.1012 76.1651ZM67.8001 71.1953C67.864 70.0341 68.7056 69.0273 70 69.0273C71.2358 69.0273 72.0455 69.9435 72.0508 71.1953H67.8001ZM75.8287 76H77.4214V70.9556C77.4214 69.853 78.1937 69.0859 79.0993 69.0859C79.9835 69.0859 80.5961 69.6719 80.5961 70.5614V76H82.1834V70.7852C82.1834 69.7997 82.7854 69.0859 83.8241 69.0859C84.6657 69.0859 85.3581 69.5547 85.3581 70.6626V76H86.9508V70.5135C86.9508 68.6438 85.9068 67.7116 84.426 67.7116C83.2488 67.7116 82.3645 68.2763 81.9704 69.1499H81.8851C81.5282 68.255 80.7772 67.7116 79.6852 67.7116C78.6039 67.7116 77.7996 68.2496 77.4586 69.1499H77.3574V67.8182H75.8287V76ZM89.6634 76H91.2188V74.7269H91.3519C91.6396 75.2489 92.2255 76.1598 93.717 76.1598C95.6985 76.1598 97.1367 74.5724 97.1367 71.9251C97.1367 69.2724 95.6772 67.7116 93.701 67.7116C92.1829 67.7116 91.6342 68.6385 91.3519 69.1445H91.256V65.0909H89.6634V76ZM91.2241 71.9091C91.2241 70.1992 91.9698 69.0646 93.3601 69.0646C94.8036 69.0646 95.5281 70.2844 95.5281 71.9091C95.5281 73.5497 94.7823 74.8015 93.3601 74.8015C91.9911 74.8015 91.2241 73.6296 91.2241 71.9091ZM102.901 76.1651C104.686 76.1651 105.948 75.2862 106.311 73.9545L104.803 73.6829C104.515 74.4553 103.823 74.8494 102.917 74.8494C101.554 74.8494 100.638 73.9652 100.595 72.3885H106.412V71.8239C106.412 68.8675 104.643 67.7116 102.79 67.7116C100.51 67.7116 99.0076 69.4482 99.0076 71.9624C99.0076 74.5032 100.488 76.1651 102.901 76.1651ZM100.6 71.1953C100.664 70.0341 101.506 69.0273 102.8 69.0273C104.036 69.0273 104.846 69.9435 104.851 71.1953H100.6ZM108.629 76H110.222V71.0036C110.222 69.9329 111.047 69.1605 112.176 69.1605C112.507 69.1605 112.88 69.2191 113.007 69.2564V67.733C112.848 67.7116 112.533 67.6957 112.331 67.6957C111.372 67.6957 110.552 68.239 110.254 69.1179H110.168V67.8182H108.629V76ZM122.835 76.1491C125.03 76.1491 126.596 74.5991 126.59 72.4737C126.596 70.3643 125.125 68.8303 123.139 68.8303C122.329 68.8303 121.578 69.1392 121.152 69.5547H121.088L121.434 66.5025H126.063V65.0909H120.065L119.453 70.5881L120.96 70.8118C121.37 70.4442 122.105 70.1939 122.766 70.1939C124.06 70.2045 124.998 71.174 124.998 72.5057C124.998 73.8161 124.087 74.7642 122.835 74.7642C121.78 74.7642 120.944 74.093 120.859 73.1555H119.261C119.325 74.892 120.832 76.1491 122.835 76.1491ZM132.826 67.8182H131.149V65.858H129.556V67.8182H128.357V69.0966H129.556V73.9279C129.551 75.4141 130.685 76.1332 131.942 76.1065C132.448 76.1012 132.789 76.0053 132.976 75.9361L132.688 74.6204C132.581 74.6417 132.384 74.6896 132.129 74.6896C131.612 74.6896 131.149 74.5192 131.149 73.5977V69.0966H132.826V67.8182ZM136.807 71.142C136.807 69.837 137.632 69.0913 138.767 69.0913C139.864 69.0913 140.519 69.7891 140.519 70.9876V76H142.112V70.7958C142.112 68.7557 140.993 67.7116 139.31 67.7116C138.037 67.7116 137.27 68.2656 136.887 69.1499H136.785V65.0909H135.214V76H136.807V71.142ZM146.76 74.5085H145.225L145.172 75.1051C145.05 76.5487 144.709 78.0028 144.565 78.6634H145.694C145.95 77.9656 146.515 76.3675 146.68 75.0891L146.76 74.5085ZM153.681 76H160.862V74.5884H155.951V74.5085L158.119 72.2393C160.116 70.2205 160.686 69.2564 160.686 68.0366C160.686 66.2841 159.258 64.9418 157.202 64.9418C155.162 64.9418 153.671 66.2628 153.671 68.255H155.242C155.237 67.0831 155.993 66.3161 157.17 66.3161C158.278 66.3161 159.12 66.9979 159.12 68.0845C159.12 69.0487 158.545 69.7411 157.373 70.9822L153.681 74.8068V76ZM167.129 76.1811C169.648 76.1811 171.124 74.125 171.124 70.5508C171.124 67.0032 169.627 64.9418 167.129 64.9418C164.625 64.9418 163.134 66.9979 163.128 70.5508C163.128 74.1197 164.604 76.1758 167.129 76.1811ZM167.129 74.7589C165.653 74.7589 164.763 73.2781 164.763 70.5508C164.769 67.8342 165.658 66.3374 167.129 66.3374C168.593 66.3374 169.488 67.8342 169.488 70.5508C169.488 73.2781 168.599 74.7589 167.129 74.7589ZM173.463 76H180.644V74.5884H175.732V74.5085L177.9 72.2393C179.898 70.2205 180.468 69.2564 180.468 68.0366C180.468 66.2841 179.04 64.9418 176.984 64.9418C174.944 64.9418 173.453 66.2628 173.453 68.255H175.024C175.019 67.0831 175.775 66.3161 176.952 66.3161C178.06 66.3161 178.902 66.9979 178.902 68.0845C178.902 69.0487 178.327 69.7411 177.155 70.9822L173.463 74.8068V76ZM187.251 65.0909H185.648L182.926 66.87V68.4467L185.536 66.7422H185.6V76H187.251V65.0909Z" fill="#91A5BA"/>
<path d="M37.614 116.636V133H40.4585V121.734H40.6103L45.1326 132.952H47.258L51.7804 121.758H51.9322V133H54.7766V116.636H51.1491L46.2912 128.494H46.0994L41.2415 116.636H37.614ZM63.2301 133.24C66.8256 133.24 69.1108 130.707 69.1108 126.912C69.1108 123.108 66.8256 120.567 63.2301 120.567C59.6346 120.567 57.3494 123.108 57.3494 126.912C57.3494 130.707 59.6346 133.24 63.2301 133.24ZM63.2461 130.923C61.2566 130.923 60.2818 129.149 60.2818 126.904C60.2818 124.658 61.2566 122.861 63.2461 122.861C65.2037 122.861 66.1784 124.658 66.1784 126.904C66.1784 129.149 65.2037 130.923 63.2461 130.923ZM71.5657 133H74.4581V125.785C74.4581 124.227 75.6327 123.124 77.2227 123.124C77.7101 123.124 78.3173 123.212 78.565 123.292V120.631C78.3014 120.583 77.8459 120.551 77.5263 120.551C76.1201 120.551 74.9455 121.35 74.4981 122.773H74.3703V120.727H71.5657V133ZM83.379 125.809C83.379 124.035 84.4497 123.012 85.9758 123.012C87.4699 123.012 88.3648 123.995 88.3648 125.633V133H91.2572V125.186C91.2652 122.245 89.5873 120.567 87.0545 120.567C85.2168 120.567 83.9543 121.446 83.395 122.813H83.2512V120.727H80.4866V133H83.379V125.809ZM94.1976 133H97.09V120.727H94.1976V133ZM95.6518 118.985C96.5706 118.985 97.3217 118.282 97.3217 117.419C97.3217 116.548 96.5706 115.845 95.6518 115.845C94.7249 115.845 93.9739 116.548 93.9739 117.419C93.9739 118.282 94.7249 118.985 95.6518 118.985ZM102.957 125.809C102.957 124.035 104.027 123.012 105.553 123.012C107.048 123.012 107.942 123.995 107.942 125.633V133H110.835V125.186C110.843 122.245 109.165 120.567 106.632 120.567C104.794 120.567 103.532 121.446 102.973 122.813H102.829V120.727H100.064V133H102.957V125.809ZM119.113 137.858C122.428 137.858 124.873 136.34 124.873 133.2V120.727H122.021V122.757H121.861C121.422 121.87 120.503 120.567 118.338 120.567C115.501 120.567 113.272 122.789 113.272 126.824C113.272 130.827 115.501 132.824 118.33 132.824C120.431 132.824 121.414 131.698 121.861 130.795H122.005V133.12C122.005 134.926 120.806 135.669 119.161 135.669C117.419 135.669 116.652 134.846 116.3 134.127L113.695 134.758C114.223 136.476 115.988 137.858 119.113 137.858ZM119.137 130.555C117.227 130.555 116.22 129.069 116.22 126.808C116.22 124.578 117.211 122.941 119.137 122.941C120.998 122.941 122.021 124.483 122.021 126.808C122.021 129.149 120.982 130.555 119.137 130.555ZM132.828 119.121H137.885V133H140.826V119.121H145.883V116.636H132.828V119.121ZM150.134 133.248C152.06 133.248 153.21 132.345 153.737 131.314H153.833V133H156.614V124.786C156.614 121.542 153.969 120.567 151.628 120.567C149.047 120.567 147.066 121.718 146.427 123.955L149.127 124.339C149.415 123.5 150.23 122.781 151.644 122.781C152.986 122.781 153.722 123.468 153.722 124.674V124.722C153.722 125.553 152.851 125.593 150.685 125.825C148.304 126.081 146.027 126.792 146.027 129.556C146.027 131.969 147.793 133.248 150.134 133.248ZM150.885 131.122C149.679 131.122 148.816 130.571 148.816 129.508C148.816 128.398 149.782 127.934 151.077 127.751C151.836 127.647 153.354 127.455 153.729 127.151V128.597C153.729 129.964 152.627 131.122 150.885 131.122ZM169.222 123.971C168.823 121.894 167.161 120.567 164.284 120.567C161.328 120.567 159.315 122.022 159.323 124.291C159.315 126.081 160.417 127.263 162.774 127.751L164.868 128.19C165.994 128.438 166.522 128.893 166.522 129.588C166.522 130.427 165.611 131.058 164.236 131.058C162.91 131.058 162.047 130.483 161.799 129.381L158.979 129.652C159.339 131.905 161.232 133.24 164.244 133.24C167.313 133.24 169.478 131.65 169.486 129.325C169.478 127.575 168.351 126.504 166.034 126.001L163.941 125.553C162.694 125.274 162.199 124.842 162.207 124.131C162.199 123.3 163.118 122.725 164.324 122.725C165.659 122.725 166.362 123.452 166.585 124.259L169.222 123.971ZM171.871 133H174.763V128.877L175.818 127.751L179.573 133H183.033L177.999 126.025L182.753 120.727H179.374L174.963 125.657H174.763V116.636H171.871V133ZM194.381 123.971C193.981 121.894 192.319 120.567 189.443 120.567C186.487 120.567 184.473 122.022 184.481 124.291C184.473 126.081 185.576 127.263 187.933 127.751L190.026 128.19C191.153 128.438 191.68 128.893 191.68 129.588C191.68 130.427 190.769 131.058 189.395 131.058C188.069 131.058 187.206 130.483 186.958 129.381L184.138 129.652C184.497 131.905 186.391 133.24 189.403 133.24C192.471 133.24 194.637 131.65 194.645 129.325C194.637 127.575 193.51 126.504 191.193 126.001L189.099 125.553C187.853 125.274 187.358 124.842 187.366 124.131C187.358 123.3 188.277 122.725 189.483 122.725C190.817 122.725 191.52 123.452 191.744 124.259L194.381 123.971Z" fill="#3F485A"/>
<rect width="233" height="204" transform="translate(36 161)" fill="white"/>
<path d="M53.5852 193H55.1705V187.145H60.8466V185.739H55.1705V181.315H61.4347V179.909H53.5852V193ZM63.9451 193H65.4537V183.182H63.9451V193ZM64.7122 181.545C65.3002 181.545 65.786 181.085 65.786 180.523C65.786 179.96 65.3002 179.5 64.7122 179.5C64.1241 179.5 63.6383 179.96 63.6383 180.523C63.6383 181.085 64.1241 181.545 64.7122 181.545ZM69.3416 183.182H67.603L70.7223 188.091L67.603 193H69.3416L71.6939 189.19L74.0462 193H75.7848L72.6143 188.091L75.7848 183.182H74.0462L71.6939 187.196L69.3416 183.182ZM86.9885 193.205C89.1618 193.205 90.5936 191.875 90.8493 190.136H89.3407C89.0595 191.21 88.1646 191.849 86.9885 191.849C85.1987 191.849 84.0481 190.366 84.0481 188.091C84.0481 185.866 85.2243 184.409 86.9885 184.409C88.318 184.409 89.1106 185.227 89.3407 186.122H90.8493C90.5936 184.281 89.0339 183.054 86.9629 183.054C84.3038 183.054 82.5396 185.151 82.5396 188.142C82.5396 191.082 84.2271 193.205 86.9885 193.205ZM97.0431 193.205C99.7022 193.205 101.492 191.185 101.492 188.142C101.492 185.074 99.7022 183.054 97.0431 183.054C94.3841 183.054 92.5943 185.074 92.5943 188.142C92.5943 191.185 94.3841 193.205 97.0431 193.205ZM97.0431 191.849C95.0233 191.849 94.1028 190.111 94.1028 188.142C94.1028 186.173 95.0233 184.409 97.0431 184.409C99.063 184.409 99.9835 186.173 99.9835 188.142C99.9835 190.111 99.063 191.849 97.0431 191.849ZM105.303 179.909H103.795V193H105.303V179.909ZM112.055 193.205C114.714 193.205 116.504 191.185 116.504 188.142C116.504 185.074 114.714 183.054 112.055 183.054C109.396 183.054 107.606 185.074 107.606 188.142C107.606 191.185 109.396 193.205 112.055 193.205ZM112.055 191.849C110.035 191.849 109.115 190.111 109.115 188.142C109.115 186.173 110.035 184.409 112.055 184.409C114.075 184.409 114.995 186.173 114.995 188.142C114.995 190.111 114.075 191.849 112.055 191.849ZM118.806 193H120.315V186.787C120.315 185.457 121.363 184.486 122.795 184.486C123.198 184.486 123.613 184.562 123.716 184.588V183.054C123.543 183.041 123.147 183.028 122.923 183.028C121.747 183.028 120.724 183.693 120.366 184.665H120.264V183.182H118.806V193ZM134.555 193.205C136.728 193.205 138.16 191.875 138.416 190.136H136.907C136.626 191.21 135.731 191.849 134.555 191.849C132.765 191.849 131.615 190.366 131.615 188.091C131.615 185.866 132.791 184.409 134.555 184.409C135.884 184.409 136.677 185.227 136.907 186.122H138.416C138.16 184.281 136.6 183.054 134.529 183.054C131.87 183.054 130.106 185.151 130.106 188.142C130.106 191.082 131.794 193.205 134.555 193.205ZM144.61 193.205C147.269 193.205 149.058 191.185 149.058 188.142C149.058 185.074 147.269 183.054 144.61 183.054C141.95 183.054 140.161 185.074 140.161 188.142C140.161 191.185 141.95 193.205 144.61 193.205ZM144.61 191.849C142.59 191.849 141.669 190.111 141.669 188.142C141.669 186.173 142.59 184.409 144.61 184.409C146.629 184.409 147.55 186.173 147.55 188.142C147.55 190.111 146.629 191.849 144.61 191.849ZM152.87 187.094C152.87 185.381 153.931 184.409 155.375 184.409C156.775 184.409 157.625 185.323 157.625 186.864V193H159.134V186.761C159.134 184.256 157.798 183.054 155.81 183.054C154.327 183.054 153.407 183.719 152.946 184.716H152.819V183.182H151.361V193H152.87V187.094ZM166.16 183.182H164.064V180.83H162.555V183.182H161.072V184.46H162.555V190.597C162.555 192.31 163.936 193.128 165.214 193.128C165.777 193.128 166.135 193.026 166.339 192.949L166.032 191.594C165.905 191.619 165.7 191.67 165.368 191.67C164.703 191.67 164.064 191.466 164.064 190.188V184.46H166.16V183.182ZM168.43 193H169.938V186.787C169.938 185.457 170.986 184.486 172.418 184.486C172.821 184.486 173.236 184.562 173.339 184.588V183.054C173.166 183.041 172.77 183.028 172.546 183.028C171.37 183.028 170.347 183.693 169.989 184.665H169.887V183.182H168.43V193ZM178.016 193.23C179.729 193.23 180.624 192.31 180.931 191.67H181.007V193H182.516V186.531C182.516 183.412 180.138 183.054 178.885 183.054C177.402 183.054 175.715 183.565 174.948 185.355L176.38 185.866C176.712 185.151 177.498 184.384 178.936 184.384C180.324 184.384 181.007 185.119 181.007 186.378V186.429C181.007 187.158 180.266 187.094 178.476 187.324C176.654 187.56 174.667 187.963 174.667 190.213C174.667 192.131 176.15 193.23 178.016 193.23ZM178.246 191.875C177.044 191.875 176.175 191.338 176.175 190.29C176.175 189.139 177.223 188.781 178.4 188.628C179.039 188.551 180.752 188.372 181.007 188.065V189.446C181.007 190.673 180.036 191.875 178.246 191.875ZM192.224 185.381C191.751 183.987 190.69 183.054 188.747 183.054C186.676 183.054 185.142 184.23 185.142 185.892C185.142 187.247 185.947 188.155 187.749 188.577L189.386 188.96C190.377 189.19 190.843 189.663 190.843 190.341C190.843 191.185 189.948 191.875 188.542 191.875C187.308 191.875 186.535 191.344 186.267 190.29L184.835 190.648C185.186 192.316 186.561 193.205 188.568 193.205C190.85 193.205 192.403 191.958 192.403 190.264C192.403 188.896 191.546 188.033 189.795 187.605L188.338 187.247C187.174 186.96 186.65 186.57 186.65 185.815C186.65 184.972 187.545 184.358 188.747 184.358C190.063 184.358 190.607 185.087 190.869 185.764L192.224 185.381ZM198.944 183.182H196.847V180.83H195.338V183.182H193.855V184.46H195.338V190.597C195.338 192.31 196.719 193.128 197.998 193.128C198.56 193.128 198.918 193.026 199.123 192.949L198.816 191.594C198.688 191.619 198.483 191.67 198.151 191.67C197.486 191.67 196.847 191.466 196.847 190.188V184.46H198.944V183.182Z" fill="#37434F"/>
<rect x="36" y="161" width="233" height="51" stroke="#DDE7F0"/>
<path d="M55.1705 230.909H53.5852V244H55.1705V230.909ZM58.1444 244H59.6529V237.864C59.6529 236.425 60.7012 235.409 61.8773 235.409C63.0215 235.409 63.8205 236.157 63.8205 237.276V244H65.3546V237.608C65.3546 236.342 66.1472 235.409 67.5279 235.409C68.6017 235.409 69.5222 235.978 69.5222 237.429V244H71.0307V237.429C71.0307 235.121 69.7907 234.054 68.0392 234.054C66.633 234.054 65.6039 234.7 65.0989 235.716H64.9966C64.5108 234.668 63.6543 234.054 62.3631 234.054C61.0847 234.054 60.1387 234.668 59.7296 235.716H59.6017V234.182H58.1444V244ZM73.7889 247.682H75.2974V242.491H75.4252C75.7576 243.028 76.3968 244.205 78.2889 244.205C80.7434 244.205 82.4565 242.236 82.4565 239.116C82.4565 236.023 80.7434 234.054 78.2633 234.054C76.3457 234.054 75.7576 235.23 75.4252 235.741H75.2463V234.182H73.7889V247.682ZM75.2718 239.091C75.2718 236.892 76.2434 235.409 78.0843 235.409C80.002 235.409 80.948 237.02 80.948 239.091C80.948 241.188 79.9764 242.849 78.0843 242.849C76.269 242.849 75.2718 241.315 75.2718 239.091ZM86.2662 230.909H84.7576V244H86.2662V230.909ZM93.1456 244.205C95.1399 244.205 96.5973 243.207 97.0575 241.724L95.6001 241.315C95.2166 242.338 94.3281 242.849 93.1456 242.849C91.375 242.849 90.1541 241.705 90.0838 239.602H97.2109V238.963C97.2109 235.307 95.0376 234.054 92.9922 234.054C90.3331 234.054 88.5689 236.151 88.5689 239.168C88.5689 242.185 90.3075 244.205 93.1456 244.205ZM90.0838 238.298C90.1861 236.771 91.2663 235.409 92.9922 235.409C94.6286 235.409 95.6768 236.636 95.6768 238.298H90.0838ZM99.5057 244H101.014V237.864C101.014 236.425 102.062 235.409 103.239 235.409C104.383 235.409 105.182 236.157 105.182 237.276V244H106.716V237.608C106.716 236.342 107.509 235.409 108.889 235.409C109.963 235.409 110.884 235.978 110.884 237.429V244H112.392V237.429C112.392 235.121 111.152 234.054 109.401 234.054C107.994 234.054 106.965 234.7 106.46 235.716H106.358C105.872 234.668 105.016 234.054 103.724 234.054C102.446 234.054 101.5 234.668 101.091 235.716H100.963V234.182H99.5057V244ZM119.267 244.205C121.261 244.205 122.718 243.207 123.179 241.724L121.721 241.315C121.338 242.338 120.449 242.849 119.267 242.849C117.496 242.849 116.275 241.705 116.205 239.602H123.332V238.963C123.332 235.307 121.159 234.054 119.113 234.054C116.454 234.054 114.69 236.151 114.69 239.168C114.69 242.185 116.429 244.205 119.267 244.205ZM116.205 238.298C116.307 236.771 117.387 235.409 119.113 235.409C120.75 235.409 121.798 236.636 121.798 238.298H116.205ZM127.135 238.094C127.135 236.381 128.196 235.409 129.641 235.409C131.041 235.409 131.891 236.323 131.891 237.864V244H133.4V237.761C133.4 235.256 132.064 234.054 130.076 234.054C128.593 234.054 127.672 234.719 127.212 235.716H127.084V234.182H125.627V244H127.135V238.094ZM140.426 234.182H138.329V231.83H136.821V234.182H135.338V235.46H136.821V241.597C136.821 243.31 138.202 244.128 139.48 244.128C140.042 244.128 140.4 244.026 140.605 243.949L140.298 242.594C140.17 242.619 139.966 242.67 139.633 242.67C138.969 242.67 138.329 242.466 138.329 241.188V235.46H140.426V234.182ZM154.712 236.381C154.239 234.987 153.178 234.054 151.235 234.054C149.164 234.054 147.63 235.23 147.63 236.892C147.63 238.247 148.435 239.155 150.238 239.577L151.874 239.96C152.865 240.19 153.331 240.663 153.331 241.341C153.331 242.185 152.437 242.875 151.03 242.875C149.797 242.875 149.023 242.344 148.755 241.29L147.323 241.648C147.675 243.316 149.049 244.205 151.056 244.205C153.338 244.205 154.891 242.958 154.891 241.264C154.891 239.896 154.035 239.033 152.283 238.605L150.826 238.247C149.662 237.96 149.138 237.57 149.138 236.815C149.138 235.972 150.033 235.358 151.235 235.358C152.552 235.358 153.095 236.087 153.357 236.764L154.712 236.381ZM157.162 244H158.67V234.182H157.162V244ZM157.929 232.545C158.517 232.545 159.003 232.085 159.003 231.523C159.003 230.96 158.517 230.5 157.929 230.5C157.341 230.5 156.855 230.96 156.855 231.523C156.855 232.085 157.341 232.545 157.929 232.545ZM165.141 244.205C167.033 244.205 167.672 243.028 168.004 242.491H168.183V244H169.641V230.909H168.132V235.741H168.004C167.672 235.23 167.084 234.054 165.166 234.054C162.686 234.054 160.973 236.023 160.973 239.116C160.973 242.236 162.686 244.205 165.141 244.205ZM165.345 242.849C163.453 242.849 162.482 241.188 162.482 239.091C162.482 237.02 163.428 235.409 165.345 235.409C167.186 235.409 168.158 236.892 168.158 239.091C168.158 241.315 167.161 242.849 165.345 242.849ZM176.73 244.205C178.724 244.205 180.181 243.207 180.642 241.724L179.184 241.315C178.801 242.338 177.912 242.849 176.73 242.849C174.959 242.849 173.738 241.705 173.668 239.602H180.795V238.963C180.795 235.307 178.622 234.054 176.576 234.054C173.917 234.054 172.153 236.151 172.153 239.168C172.153 242.185 173.892 244.205 176.73 244.205ZM173.668 238.298C173.77 236.771 174.85 235.409 176.576 235.409C178.213 235.409 179.261 236.636 179.261 238.298H173.668ZM183.294 244H184.752V242.491H184.931C185.263 243.028 185.902 244.205 187.794 244.205C190.249 244.205 191.962 242.236 191.962 239.116C191.962 236.023 190.249 234.054 187.769 234.054C185.851 234.054 185.263 235.23 184.931 235.741H184.803V230.909H183.294V244ZM184.777 239.091C184.777 236.892 185.749 235.409 187.59 235.409C189.507 235.409 190.453 237.02 190.453 239.091C190.453 241.188 189.482 242.849 187.59 242.849C185.774 242.849 184.777 241.315 184.777 239.091ZM197.159 244.23C198.872 244.23 199.767 243.31 200.073 242.67H200.15V244H201.659V237.531C201.659 234.412 199.281 234.054 198.028 234.054C196.545 234.054 194.857 234.565 194.09 236.355L195.522 236.866C195.855 236.151 196.641 235.384 198.079 235.384C199.466 235.384 200.15 236.119 200.15 237.378V237.429C200.15 238.158 199.409 238.094 197.619 238.324C195.797 238.56 193.809 238.963 193.809 241.213C193.809 243.131 195.292 244.23 197.159 244.23ZM197.389 242.875C196.187 242.875 195.318 242.338 195.318 241.29C195.318 240.139 196.366 239.781 197.542 239.628C198.181 239.551 199.894 239.372 200.15 239.065V240.446C200.15 241.673 199.178 242.875 197.389 242.875ZM204.412 244H205.92V237.787C205.92 236.457 206.969 235.486 208.401 235.486C208.803 235.486 209.219 235.562 209.321 235.588V234.054C209.148 234.041 208.752 234.028 208.528 234.028C207.352 234.028 206.33 234.693 205.972 235.665H205.869V234.182H204.412V244Z" fill="#37434F"/>
<rect x="36" y="212" width="233" height="51" stroke="#DDE7F0"/>
<path d="M55.9631 295H57.5994L60.4886 284.568H60.5909L63.4801 295H65.1165L68.696 281.909H67.0852L64.3494 292.571H64.2216L61.4347 281.909H59.6449L56.858 292.571H56.7301L53.9943 281.909H52.3835L55.9631 295ZM69.8514 295H71.3599V288.787C71.3599 287.457 72.4082 286.486 73.84 286.486C74.2427 286.486 74.6582 286.562 74.7605 286.588V285.054C74.5879 285.041 74.1916 285.028 73.9679 285.028C72.7917 285.028 71.769 285.693 71.411 286.665H71.3088V285.182H69.8514V295ZM76.5487 295H78.0572V285.182H76.5487V295ZM77.3157 283.545C77.9038 283.545 78.3896 283.085 78.3896 282.523C78.3896 281.96 77.9038 281.5 77.3157 281.5C76.7276 281.5 76.2418 281.96 76.2418 282.523C76.2418 283.085 76.7276 283.545 77.3157 283.545ZM85.09 285.182H82.9934V282.83H81.4849V285.182H80.002V286.46H81.4849V292.597C81.4849 294.31 82.8656 295.128 84.144 295.128C84.7065 295.128 85.0645 295.026 85.269 294.949L84.9622 293.594C84.8343 293.619 84.6298 293.67 84.2974 293.67C83.6326 293.67 82.9934 293.466 82.9934 292.188V286.46H85.09V285.182ZM91.3702 295.205C93.3645 295.205 94.8219 294.207 95.2821 292.724L93.8248 292.315C93.4412 293.338 92.5527 293.849 91.3702 293.849C89.5996 293.849 88.3787 292.705 88.3084 290.602H95.4355V289.963C95.4355 286.307 93.2623 285.054 91.2168 285.054C88.5577 285.054 86.7935 287.151 86.7935 290.168C86.7935 293.185 88.5321 295.205 91.3702 295.205ZM88.3084 289.298C88.4107 287.771 89.4909 286.409 91.2168 286.409C92.8532 286.409 93.9015 287.636 93.9015 289.298H88.3084ZM107.063 285.182H104.966V282.83H103.458V285.182H101.975V286.46H103.458V292.597C103.458 294.31 104.838 295.128 106.117 295.128C106.679 295.128 107.037 295.026 107.242 294.949L106.935 293.594C106.807 293.619 106.602 293.67 106.27 293.67C105.605 293.67 104.966 293.466 104.966 292.188V286.46H107.063V285.182ZM113.343 295.205C115.337 295.205 116.795 294.207 117.255 292.724L115.797 292.315C115.414 293.338 114.525 293.849 113.343 293.849C111.572 293.849 110.351 292.705 110.281 290.602H117.408V289.963C117.408 286.307 115.235 285.054 113.189 285.054C110.53 285.054 108.766 287.151 108.766 290.168C108.766 293.185 110.505 295.205 113.343 295.205ZM110.281 289.298C110.383 287.771 111.464 286.409 113.189 286.409C114.826 286.409 115.874 287.636 115.874 289.298H110.281ZM126.657 287.381C126.184 285.987 125.123 285.054 123.18 285.054C121.109 285.054 119.575 286.23 119.575 287.892C119.575 289.247 120.381 290.155 122.183 290.577L123.819 290.96C124.81 291.19 125.277 291.663 125.277 292.341C125.277 293.185 124.382 293.875 122.976 293.875C121.742 293.875 120.969 293.344 120.7 292.29L119.268 292.648C119.62 294.316 120.994 295.205 123.001 295.205C125.283 295.205 126.836 293.958 126.836 292.264C126.836 290.896 125.98 290.033 124.229 289.605L122.771 289.247C121.608 288.96 121.084 288.57 121.084 287.815C121.084 286.972 121.979 286.358 123.18 286.358C124.497 286.358 125.04 287.087 125.302 287.764L126.657 287.381ZM133.377 285.182H131.281V282.83H129.772V285.182H128.289V286.46H129.772V292.597C129.772 294.31 131.153 295.128 132.431 295.128C132.994 295.128 133.352 295.026 133.556 294.949L133.249 293.594C133.121 293.619 132.917 293.67 132.585 293.67C131.92 293.67 131.281 293.466 131.281 292.188V286.46H133.377V285.182ZM142.425 287.381C141.952 285.987 140.891 285.054 138.948 285.054C136.877 285.054 135.343 286.23 135.343 287.892C135.343 289.247 136.148 290.155 137.951 290.577L139.587 290.96C140.578 291.19 141.044 291.663 141.044 292.341C141.044 293.185 140.15 293.875 138.743 293.875C137.51 293.875 136.736 293.344 136.468 292.29L135.036 292.648C135.387 294.316 136.762 295.205 138.769 295.205C141.051 295.205 142.604 293.958 142.604 292.264C142.604 290.896 141.748 290.033 139.996 289.605L138.539 289.247C137.375 288.96 136.851 288.57 136.851 287.815C136.851 286.972 137.746 286.358 138.948 286.358C140.265 286.358 140.808 287.087 141.07 287.764L142.425 287.381Z" fill="#37434F"/>
<rect x="36" y="263" width="233" height="51" stroke="#DDE7F0"/>
<path d="M53.5852 346H55.1705V340.886H58.0341C58.1491 340.886 58.2578 340.886 58.3665 340.88L61.1278 346H62.9688L60.0092 340.592C61.6776 340.023 62.4574 338.662 62.4574 336.923C62.4574 334.609 61.0767 332.909 58.0085 332.909H53.5852V346ZM55.1705 339.455V334.315H57.9574C60.0795 334.315 60.8977 335.351 60.8977 336.923C60.8977 338.496 60.0795 339.455 57.983 339.455H55.1705ZM68.9054 346.205C70.8997 346.205 72.3571 345.207 72.8173 343.724L71.3599 343.315C70.9764 344.338 70.0879 344.849 68.9054 344.849C67.1348 344.849 65.9139 343.705 65.8436 341.602H72.9707V340.963C72.9707 337.307 70.7974 336.054 68.752 336.054C66.0929 336.054 64.3287 338.151 64.3287 341.168C64.3287 344.185 66.0673 346.205 68.9054 346.205ZM65.8436 340.298C65.9458 338.771 67.0261 337.409 68.752 337.409C70.3883 337.409 71.4366 338.636 71.4366 340.298H65.8436ZM82.995 336.182H81.3587L78.6484 344.006H78.5462L75.8359 336.182H74.1996L77.8303 346H79.3643L82.995 336.182ZM84.9862 346H86.4947V336.182H84.9862V346ZM85.7532 334.545C86.3413 334.545 86.8271 334.085 86.8271 333.523C86.8271 332.96 86.3413 332.5 85.7532 332.5C85.1651 332.5 84.6793 332.96 84.6793 333.523C84.6793 334.085 85.1651 334.545 85.7532 334.545ZM93.3741 346.205C95.3684 346.205 96.8258 345.207 97.286 343.724L95.8287 343.315C95.4451 344.338 94.5566 344.849 93.3741 344.849C91.6035 344.849 90.3826 343.705 90.3123 341.602H97.4395V340.963C97.4395 337.307 95.2662 336.054 93.2207 336.054C90.5616 336.054 88.7974 338.151 88.7974 341.168C88.7974 344.185 90.536 346.205 93.3741 346.205ZM90.3123 340.298C90.4146 338.771 91.4949 337.409 93.2207 337.409C94.8571 337.409 95.9054 338.636 95.9054 340.298H90.3123ZM101.959 346H103.442L105.589 338.457H105.743L107.89 346H109.373L112.365 336.182H110.78L108.657 343.673H108.555L106.484 336.182H104.873L102.777 343.699H102.675L100.552 336.182H98.9672L101.959 346ZM120.93 332.909H119.422V346H120.93V332.909ZM126.582 346.23C128.295 346.23 129.19 345.31 129.497 344.67H129.574V346H131.082V339.531C131.082 336.412 128.705 336.054 127.452 336.054C125.969 336.054 124.281 336.565 123.514 338.355L124.946 338.866C125.278 338.151 126.065 337.384 127.503 337.384C128.89 337.384 129.574 338.119 129.574 339.378V339.429C129.574 340.158 128.832 340.094 127.043 340.324C125.221 340.56 123.233 340.963 123.233 343.213C123.233 345.131 124.716 346.23 126.582 346.23ZM126.812 344.875C125.611 344.875 124.741 344.338 124.741 343.29C124.741 342.139 125.79 341.781 126.966 341.628C127.605 341.551 129.318 341.372 129.574 341.065V342.446C129.574 343.673 128.602 344.875 126.812 344.875ZM138.106 336.182H136.009V333.83H134.501V336.182H133.018V337.46H134.501V343.597C134.501 345.31 135.881 346.128 137.16 346.128C137.722 346.128 138.08 346.026 138.285 345.949L137.978 344.594C137.85 344.619 137.645 344.67 137.313 344.67C136.648 344.67 136.009 344.466 136.009 343.188V337.46H138.106V336.182ZM144.386 346.205C146.38 346.205 147.838 345.207 148.298 343.724L146.84 343.315C146.457 344.338 145.568 344.849 144.386 344.849C142.615 344.849 141.394 343.705 141.324 341.602H148.451V340.963C148.451 337.307 146.278 336.054 144.232 336.054C141.573 336.054 139.809 338.151 139.809 341.168C139.809 344.185 141.548 346.205 144.386 346.205ZM141.324 340.298C141.426 338.771 142.507 337.409 144.232 337.409C145.869 337.409 146.917 338.636 146.917 340.298H141.324ZM157.7 338.381C157.227 336.987 156.166 336.054 154.223 336.054C152.152 336.054 150.618 337.23 150.618 338.892C150.618 340.247 151.423 341.155 153.226 341.577L154.862 341.96C155.853 342.19 156.32 342.663 156.32 343.341C156.32 344.185 155.425 344.875 154.019 344.875C152.785 344.875 152.012 344.344 151.743 343.29L150.311 343.648C150.663 345.316 152.037 346.205 154.044 346.205C156.326 346.205 157.879 344.958 157.879 343.264C157.879 341.896 157.023 341.033 155.271 340.605L153.814 340.247C152.651 339.96 152.127 339.57 152.127 338.815C152.127 337.972 153.021 337.358 154.223 337.358C155.54 337.358 156.083 338.087 156.345 338.764L157.7 338.381ZM164.42 336.182H162.324V333.83H160.815V336.182H159.332V337.46H160.815V343.597C160.815 345.31 162.196 346.128 163.474 346.128C164.037 346.128 164.395 346.026 164.599 345.949L164.292 344.594C164.164 344.619 163.96 344.67 163.627 344.67C162.963 344.67 162.324 344.466 162.324 343.188V337.46H164.42V336.182ZM171.956 346H173.542V341.219H176.405C179.454 341.219 180.828 339.365 180.828 337.051C180.828 334.737 179.454 332.909 176.38 332.909H171.956V346ZM173.542 339.812V334.315H176.328C178.457 334.315 179.269 335.479 179.269 337.051C179.269 338.624 178.457 339.812 176.354 339.812H173.542ZM183.382 346H184.967V340.886H187.831C187.946 340.886 188.055 340.886 188.163 340.88L190.925 346H192.766L189.806 340.592C191.474 340.023 192.254 338.662 192.254 336.923C192.254 334.609 190.874 332.909 187.805 332.909H183.382V346ZM184.967 339.455V334.315H187.754C189.876 334.315 190.695 335.351 190.695 336.923C190.695 338.496 189.876 339.455 187.78 339.455H184.967ZM201.646 338.381C201.173 336.987 200.112 336.054 198.169 336.054C196.097 336.054 194.563 337.23 194.563 338.892C194.563 340.247 195.369 341.155 197.171 341.577L198.808 341.96C199.798 342.19 200.265 342.663 200.265 343.341C200.265 344.185 199.37 344.875 197.964 344.875C196.73 344.875 195.957 344.344 195.688 343.29L194.257 343.648C194.608 345.316 195.982 346.205 197.99 346.205C200.271 346.205 201.825 344.958 201.825 343.264C201.825 341.896 200.968 341.033 199.217 340.605L197.759 340.247C196.596 339.96 196.072 339.57 196.072 338.815C196.072 337.972 196.967 337.358 198.169 337.358C199.485 337.358 200.029 338.087 200.291 338.764L201.646 338.381Z" fill="#37434F"/>
<rect x="36" y="314" width="233" height="51" stroke="#DDE7F0"/>
<rect width="51" height="204" transform="translate(269 161)" fill="white"/>
<rect x="283.5" y="175.5" width="22" height="22" rx="1.5" stroke="#6048E5"/>
<rect x="269" y="161" width="51" height="51" stroke="#DDE7F0"/>
<rect x="283.5" y="226.5" width="22" height="22" rx="1.5" stroke="#6048E5"/>
<rect x="269" y="212" width="51" height="51" stroke="#DDE7F0"/>
<rect x="282.75" y="277" width="23" height="23" rx="2" fill="#6048E5"/>
<path d="M300.75 284L291.812 293L287.75 288.909" stroke="white" stroke-width="2" stroke-linecap="round" stroke-linejoin="round"/>
<rect x="269" y="263" width="51" height="51" stroke="#DDE7F0"/>
<rect x="282.75" y="328" width="23" height="23" rx="2" fill="#6048E5"/>
<path d="M300.75 335L291.812 344L287.75 339.909" stroke="white" stroke-width="2" stroke-linecap="round" stroke-linejoin="round"/>
<rect x="269" y="314" width="51" height="51" stroke="#DDE7F0"/>
<rect x="36" y="389" width="284" height="61" rx="4" fill="url(#paint0_linear_434_8833)"/>
</g>
<defs>
<linearGradient id="paint0_linear_434_8833" x1="178" y1="369.505" x2="178" y2="456.603" gradientUnits="userSpaceOnUse">
<stop stop-color="#EBF2F7"/>
<stop offset="1" stop-color="white"/>
</linearGradient>
<clipPath id="clip0_434_8833">
<rect width="358" height="441" fill="white"/>
</clipPath>
</defs>
</svg>
