<svg width="464" height="382" viewBox="0 0 464 382" fill="none" xmlns="http://www.w3.org/2000/svg">
<line opacity="0.5" y1="280.478" x2="454.356" y2="280.478" stroke="url(#paint0_linear_434_8535)" stroke-width="1.07159"/>
<line opacity="0.5" y1="101.522" x2="454.356" y2="101.522" stroke="url(#paint1_linear_434_8535)" stroke-width="1.07159"/>
<line opacity="0.5" x1="362.734" y1="381.743" x2="362.734" y2="0.255859" stroke="url(#paint2_linear_434_8535)" stroke-width="1.07159"/>
<line opacity="0.5" x1="89.4779" y1="381.743" x2="89.4779" y2="0.255859" stroke="url(#paint3_linear_434_8535)" stroke-width="1.07159"/>
<path d="M35.3625 149.743C35.3625 148.263 34.1637 147.064 32.6836 147.064C31.2034 147.064 30.0046 148.263 30.0046 149.743C30.0046 150.962 30.8183 151.99 31.9301 152.315C31.91 152.854 31.7894 153.269 31.5617 153.551C31.046 154.194 29.9108 154.301 28.7086 154.411C27.7643 154.498 26.7864 154.592 25.9861 154.977V150.155C27.0744 149.813 27.8614 148.799 27.8614 147.6C27.8614 146.12 26.6625 144.921 25.1824 144.921C23.7023 144.921 22.5034 146.12 22.5034 147.6C22.5034 148.799 23.2904 149.813 24.3787 150.155V156.829C23.2904 157.174 22.5034 158.189 22.5034 159.387C22.5034 160.868 23.7023 162.066 25.1824 162.066C26.6625 162.066 27.8614 160.868 27.8614 159.387C27.8614 158.249 27.1515 157.274 26.1468 156.889C26.2506 156.715 26.408 156.561 26.6458 156.441C27.1883 156.166 27.9987 156.092 28.8593 156.012C30.2725 155.881 31.8732 155.731 32.8175 154.559C33.2863 153.976 33.5241 153.226 33.5408 152.285C34.599 151.923 35.3625 150.922 35.3625 149.743ZM25.1824 147.064C25.4771 147.064 25.7182 147.305 25.7182 147.6C25.7182 147.895 25.4771 148.136 25.1824 148.136C24.8877 148.136 24.6466 147.895 24.6466 147.6C24.6466 147.305 24.8877 147.064 25.1824 147.064ZM25.1824 159.923C24.8877 159.923 24.6466 159.682 24.6466 159.387C24.6466 159.093 24.8877 158.852 25.1824 158.852C25.4771 158.852 25.7182 159.093 25.7182 159.387C25.7182 159.682 25.4771 159.923 25.1824 159.923ZM32.6836 149.207C32.9782 149.207 33.2194 149.448 33.2194 149.743C33.2194 150.038 32.9782 150.279 32.6836 150.279C32.3889 150.279 32.1478 150.038 32.1478 149.743C32.1478 149.448 32.3889 149.207 32.6836 149.207Z" fill="#9B8AFB"/>
<path d="M34.3647 185.145C34.1839 185.085 34.0031 185.028 33.8222 184.974C33.8524 184.85 33.8792 184.727 33.906 184.603C34.3179 182.607 34.0466 181.003 33.1324 180.474C32.2517 179.968 30.8151 180.494 29.3617 181.76C29.2177 181.883 29.0771 182.014 28.9431 182.145C28.8527 182.058 28.759 181.971 28.6652 181.887C27.1415 180.534 25.6145 179.965 24.7003 180.497C23.8229 181.006 23.5617 182.516 23.9301 184.405C23.9669 184.593 24.0071 184.777 24.054 184.964C23.8397 185.025 23.6287 185.092 23.4311 185.162C21.6429 185.781 20.3604 186.759 20.3604 187.771C20.3604 188.815 21.7266 189.864 23.5852 190.5C23.7359 190.55 23.8866 190.6 24.0406 190.644C23.9904 190.845 23.9468 191.042 23.9067 191.247C23.555 193.105 23.8296 194.579 24.707 195.084C25.6112 195.607 27.1315 195.071 28.6116 193.775C28.7288 193.671 28.846 193.564 28.9632 193.45C29.1106 193.594 29.2646 193.731 29.4187 193.865C30.8519 195.098 32.2684 195.597 33.1425 195.091C34.0466 194.568 34.3413 192.985 33.9595 191.056C33.9294 190.908 33.8959 190.758 33.8591 190.604C33.9662 190.573 34.0701 190.54 34.1739 190.506C36.1061 189.867 37.5058 188.832 37.5058 187.771C37.5058 186.756 36.1864 185.771 34.3647 185.145ZM29.8339 182.302C31.0796 181.217 32.2416 180.792 32.7707 181.097C33.3367 181.421 33.5543 182.734 33.1994 184.459C33.1759 184.573 33.1525 184.683 33.1224 184.794C32.3789 184.626 31.6255 184.506 30.8687 184.439C30.4333 183.816 29.9578 183.22 29.4421 182.66C29.5727 182.536 29.7 182.419 29.8339 182.302ZM25.9594 189.509C26.1302 189.8 26.3043 190.091 26.4885 190.376C25.9661 190.319 25.4471 190.235 24.9347 190.125C25.0821 189.642 25.2662 189.144 25.4806 188.635C25.6346 188.929 25.792 189.221 25.9594 189.509ZM24.9448 185.48C25.427 185.373 25.9393 185.286 26.4718 185.219C26.2943 185.497 26.1202 185.781 25.9561 186.069C25.792 186.354 25.6313 186.645 25.4806 186.94C25.2696 186.441 25.0921 185.952 24.9448 185.48ZM25.8623 187.787C26.0833 187.325 26.3244 186.873 26.5789 186.428C26.8334 185.982 27.108 185.55 27.396 185.125C27.8983 185.088 28.4107 185.068 28.9331 185.068C29.4555 185.068 29.9712 185.088 30.4702 185.125C30.7548 185.547 31.0261 185.979 31.2839 186.421C31.5418 186.863 31.7829 187.315 32.0106 187.774C31.7862 188.236 31.5451 188.691 31.2873 189.14C31.0328 189.586 30.7615 190.018 30.4769 190.446C29.9779 190.483 29.4588 190.5 28.9331 190.5C28.4073 190.5 27.8983 190.483 27.4061 190.453C27.1147 190.028 26.8401 189.592 26.5823 189.147C26.3244 188.701 26.0867 188.249 25.8623 187.787ZM31.9101 189.502C32.0809 189.207 32.2416 188.909 32.399 188.608C32.6134 189.093 32.8009 189.586 32.965 190.091C32.4459 190.208 31.9202 190.299 31.3911 190.359C31.5719 190.078 31.7427 189.79 31.9101 189.502ZM32.3923 186.94C32.2349 186.645 32.0742 186.351 31.9068 186.063C31.7427 185.778 31.5719 185.497 31.3944 185.219C31.9336 185.286 32.4493 185.376 32.9315 185.487C32.7774 185.982 32.5966 186.465 32.3923 186.94ZM28.9398 183.173C29.2914 183.554 29.6229 183.956 29.931 184.372C29.268 184.341 28.6016 184.341 27.9385 184.372C28.2667 183.94 28.6049 183.538 28.9398 183.173ZM25.0553 181.12C25.6179 180.792 26.8669 181.261 28.183 182.426C28.2667 182.5 28.3504 182.58 28.4375 182.66C27.9184 183.22 27.4396 183.816 27.0009 184.439C26.2441 184.506 25.494 184.623 24.7505 184.787C24.707 184.616 24.6702 184.442 24.6333 184.268C24.3186 182.647 24.5262 181.425 25.0553 181.12ZM24.2348 189.947C24.0942 189.907 23.9569 189.864 23.8196 189.817C23.1063 189.592 22.2959 189.237 21.7099 188.772C21.3717 188.537 21.144 188.176 21.0803 187.771C21.0803 187.158 22.1385 186.374 23.6655 185.842C23.8564 185.775 24.0507 185.714 24.2449 185.657C24.4726 186.384 24.7472 187.097 25.0653 187.787C24.7438 188.487 24.4659 189.21 24.2348 189.947ZM28.1395 193.229C27.5869 193.735 26.9473 194.136 26.2508 194.411C25.8791 194.589 25.4504 194.605 25.0687 194.455C24.5362 194.147 24.3152 192.964 24.6166 191.374C24.6534 191.186 24.6936 190.999 24.7405 190.815C25.4906 190.975 26.2474 191.086 27.0143 191.143C27.4563 191.769 27.9419 192.368 28.4609 192.931C28.3538 193.035 28.2466 193.135 28.1395 193.229ZM28.9599 192.415C28.6183 192.047 28.2767 191.638 27.9452 191.2C28.2667 191.213 28.5982 191.22 28.9331 191.22C29.278 191.22 29.6162 191.213 29.9511 191.196C29.643 191.622 29.3115 192.027 28.9599 192.415ZM33.3367 193.42C33.3065 193.828 33.1056 194.21 32.7841 194.468C32.2517 194.776 31.1165 194.374 29.8908 193.323C29.7502 193.202 29.6095 193.072 29.4655 192.938C29.9779 192.372 30.4501 191.772 30.8787 191.143C31.6456 191.079 32.4091 190.962 33.1625 190.791C33.196 190.928 33.2262 191.066 33.253 191.2C33.417 191.923 33.4438 192.676 33.3367 193.42ZM33.9461 189.82C33.8524 189.85 33.7586 189.88 33.6615 189.907C33.4271 189.177 33.1391 188.464 32.8076 187.771C33.1291 187.087 33.4003 186.384 33.628 185.664C33.8022 185.714 33.9696 185.768 34.1303 185.822C35.6908 186.357 36.7859 187.154 36.7859 187.764C36.7859 188.42 35.6172 189.267 33.9461 189.82ZM28.9331 189.318C29.7803 189.318 30.4668 188.631 30.4668 187.784C30.4668 186.937 29.7803 186.25 28.9331 186.25C28.0859 186.25 27.3994 186.937 27.3994 187.784C27.3994 188.631 28.0859 189.318 28.9331 189.318Z" fill="#9B8AFB"/>
<path d="M32.4027 218.364C31.4571 217.478 30.23 216.993 28.9282 216.994C26.5854 216.996 24.5628 218.602 24.0043 220.831C23.9637 220.993 23.8192 221.107 23.6519 221.107H21.9187C21.6919 221.107 21.5196 220.902 21.5616 220.679C22.216 217.203 25.2673 214.574 28.9328 214.574C30.9426 214.574 32.7678 215.365 34.1145 216.652L35.1947 215.571C35.652 215.114 36.434 215.438 36.434 216.085V220.14C36.434 220.541 36.109 220.866 35.708 220.866H31.6532C31.0065 220.866 30.6826 220.084 31.1399 219.626L32.4027 218.364ZM22.1576 223.285H26.2124C26.8591 223.285 27.183 224.067 26.7257 224.524L25.4629 225.787C26.4085 226.673 27.6357 227.158 28.9375 227.157C31.2791 227.155 33.3026 225.549 33.8613 223.32C33.9019 223.158 34.0464 223.043 34.2137 223.043H35.9469C36.1737 223.043 36.346 223.249 36.304 223.472C35.6496 226.947 32.5983 229.577 28.9328 229.577C26.923 229.577 25.0978 228.786 23.7511 227.499L22.6708 228.579C22.2135 229.037 21.4316 228.713 21.4316 228.066V224.011C21.4316 223.61 21.7566 223.285 22.1576 223.285Z" fill="#9B8AFB"/>
<path d="M107.618 26.4649L112.814 23.2549L113.324 24.4714L108.984 27.1242L113.324 29.777L112.774 30.97L107.618 27.7678V26.4649ZM115.82 27.2969C115.82 26.0934 116.113 25.1595 116.699 24.4949C117.29 23.8304 118.109 23.4982 119.155 23.4982C120.087 23.4982 120.819 23.8095 121.353 24.4321V20.8689L122.656 20.9474V30.3814C122.656 30.7895 122.69 31.1061 122.758 31.3311H121.353V30.8601C120.772 31.2892 120.095 31.5037 119.32 31.5037C118.274 31.5037 117.429 31.1191 116.785 30.35C116.141 29.5808 115.82 28.5631 115.82 27.2969ZM119.21 24.6441C118.572 24.6441 118.062 24.8874 117.68 25.374C117.298 25.8554 117.107 26.5016 117.107 27.3126C117.107 28.1759 117.316 28.8849 117.735 29.4395C118.153 29.9942 118.69 30.2715 119.344 30.2715C120.343 30.2715 121.013 29.9288 121.353 29.2433V26.0411C121.112 25.5964 120.803 25.2536 120.427 25.0129C120.05 24.767 119.645 24.6441 119.21 24.6441ZM131.14 31.3311H125.246V30.2323H127.577V24.7932L126.054 24.699V23.6944H128.84V30.2323H131.038V30.3814C131.038 30.7895 131.072 31.1061 131.14 31.3311ZM127.161 21.6459C127.161 21.3529 127.239 21.1305 127.396 20.9788C127.553 20.827 127.781 20.7512 128.079 20.7512C128.676 20.7512 128.974 21.0494 128.974 21.6459C128.974 22.2529 128.676 22.5563 128.079 22.5563C127.467 22.5563 127.161 22.2529 127.161 21.6459ZM136.281 31.3311L133.581 23.6944H134.954L136.924 29.2276L139.067 23.6944H140.433L137.529 31.3311H136.281ZM156.585 28.796L158.069 29C157.906 29.7744 157.519 30.3866 156.907 30.8366C156.295 31.2813 155.536 31.5037 154.631 31.5037C153.548 31.5037 152.708 31.1741 152.112 30.5148C151.52 29.8503 151.225 28.9032 151.225 27.6736C151.225 26.8731 151.345 26.1641 151.586 25.5466C151.832 24.9292 152.214 24.4348 152.732 24.0633C153.25 23.6865 153.872 23.4982 154.6 23.4982C155.379 23.4982 156.078 23.6996 156.695 24.1025C157.312 24.5054 157.726 25.0339 157.935 25.6879L156.515 26.1039C156.389 25.6696 156.154 25.3295 155.808 25.0836C155.468 24.8377 155.076 24.7147 154.631 24.7147C153.972 24.7147 153.477 24.9789 153.148 25.5074C152.823 26.0359 152.661 26.7841 152.661 27.7521C152.661 28.584 152.834 29.2172 153.179 29.6515C153.524 30.0857 154.034 30.3029 154.709 30.3029C155.217 30.3029 155.636 30.1747 155.965 29.9183C156.295 29.6567 156.501 29.2826 156.585 28.796ZM166.522 31.3311H160.627V30.2323H162.888V22.0462L161.365 21.952V20.9474H164.19V30.2323H166.396V30.3814C166.396 30.7581 166.438 31.0747 166.522 31.3311ZM171.929 31.5037C171.102 31.5037 170.409 31.3101 169.849 30.9229C169.289 30.5357 169.01 29.9968 169.01 29.3061C169.01 28.5317 169.386 27.9457 170.14 27.548C170.898 27.1504 172.018 26.9515 173.499 26.9515C173.588 26.9515 173.719 26.9542 173.891 26.9594C174.069 26.9646 174.2 26.9672 174.284 26.9672C174.247 26.2923 174.033 25.7429 173.64 25.319C173.253 24.89 172.759 24.6755 172.157 24.6755C171.44 24.6755 170.694 25.0443 169.92 25.7821L169.143 24.8324C169.541 24.4034 169.996 24.0737 170.509 23.8435C171.021 23.6133 171.558 23.4982 172.118 23.4982C173.127 23.4982 173.957 23.8383 174.606 24.5185C175.26 25.1987 175.587 26.062 175.587 27.1085V31.2369L175.516 31.1741V31.3311H173.907C174.064 31.1061 174.171 30.8863 174.229 30.6718C173.716 31.2264 172.949 31.5037 171.929 31.5037ZM170.336 29.3061C170.336 29.6462 170.48 29.9131 170.768 30.1067C171.055 30.3003 171.419 30.3971 171.859 30.3971C172.309 30.3971 172.753 30.295 173.193 30.091C173.638 29.8869 174.001 29.5939 174.284 29.2119V28.1131H173.546C172.431 28.1131 171.618 28.2073 171.105 28.3957C170.592 28.5788 170.336 28.8823 170.336 29.3061ZM181.638 26.8731C182.622 27.0614 183.325 27.323 183.749 27.6579C184.173 27.9928 184.385 28.4532 184.385 29.0393C184.385 29.7666 184.105 30.3631 183.545 30.8287C182.985 31.2892 182.247 31.5194 181.332 31.5194C179.966 31.5194 178.886 30.9648 178.09 29.8555L178.946 28.9608C179.725 29.8869 180.523 30.35 181.34 30.35C181.826 30.35 182.25 30.2218 182.611 29.9654C182.972 29.709 183.153 29.4055 183.153 29.055C183.153 28.8352 183.04 28.6625 182.815 28.537C182.59 28.4061 182.185 28.2832 181.599 28.1681C180.468 27.9431 179.655 27.6448 179.158 27.2733C178.666 26.8966 178.42 26.4048 178.42 25.7978C178.42 25.1071 178.692 24.5525 179.236 24.1339C179.786 23.7101 180.51 23.4982 181.41 23.4982C182.049 23.4982 182.619 23.6107 183.121 23.8357C183.624 24.0606 184.021 24.3851 184.314 24.8089L183.498 25.6408C183.174 25.2955 182.857 25.0496 182.548 24.9031C182.245 24.7566 181.892 24.6833 181.489 24.6833C180.96 24.6833 180.521 24.7827 180.17 24.9815C179.825 25.1804 179.652 25.4315 179.652 25.735C179.652 26.0123 179.814 26.2399 180.139 26.4178C180.463 26.5957 180.963 26.7475 181.638 26.8731ZM190.475 26.8731C191.459 27.0614 192.163 27.323 192.587 27.6579C193.01 27.9928 193.222 28.4532 193.222 29.0393C193.222 29.7666 192.942 30.3631 192.383 30.8287C191.823 31.2892 191.085 31.5194 190.169 31.5194C188.804 31.5194 187.723 30.9648 186.928 29.8555L187.783 28.9608C188.563 29.8869 189.361 30.35 190.177 30.35C190.664 30.35 191.088 30.2218 191.449 29.9654C191.81 29.709 191.99 29.4055 191.99 29.055C191.99 28.8352 191.878 28.6625 191.653 28.537C191.428 28.4061 191.022 28.2832 190.436 28.1681C189.306 27.9431 188.492 27.6448 187.995 27.2733C187.503 26.8966 187.257 26.4048 187.257 25.7978C187.257 25.1071 187.53 24.5525 188.074 24.1339C188.623 23.7101 189.348 23.4982 190.248 23.4982C190.886 23.4982 191.456 23.6107 191.959 23.8357C192.461 24.0606 192.859 24.3851 193.152 24.8089L192.336 25.6408C192.011 25.2955 191.695 25.0496 191.386 24.9031C191.082 24.7566 190.729 24.6833 190.326 24.6833C189.798 24.6833 189.358 24.7827 189.008 24.9815C188.662 25.1804 188.49 25.4315 188.49 25.735C188.49 26.0123 188.652 26.2399 188.976 26.4178C189.301 26.5957 189.8 26.7475 190.475 26.8731ZM196.911 31.3311H195.616V20.8846H196.95L200.851 28.4349V20.8846H202.162V31.3311H200.812L196.911 23.4668V31.3311ZM207.279 31.5037C206.452 31.5037 205.759 31.3101 205.199 30.9229C204.639 30.5357 204.36 29.9968 204.36 29.3061C204.36 28.5317 204.736 27.9457 205.49 27.548C206.248 27.1504 207.368 26.9515 208.849 26.9515C208.938 26.9515 209.069 26.9542 209.241 26.9594C209.419 26.9646 209.55 26.9672 209.634 26.9672C209.597 26.2923 209.383 25.7429 208.99 25.319C208.603 24.89 208.109 24.6755 207.507 24.6755C206.79 24.6755 206.044 25.0443 205.27 25.7821L204.493 24.8324C204.891 24.4034 205.346 24.0737 205.859 23.8435C206.371 23.6133 206.908 23.4982 207.468 23.4982C208.477 23.4982 209.307 23.8383 209.956 24.5185C210.61 25.1987 210.937 26.062 210.937 27.1085V31.2369L210.866 31.1741V31.3311H209.257C209.414 31.1061 209.521 30.8863 209.579 30.6718C209.066 31.2264 208.3 31.5037 207.279 31.5037ZM205.686 29.3061C205.686 29.6462 205.83 29.9131 206.118 30.1067C206.405 30.3003 206.769 30.3971 207.209 30.3971C207.659 30.3971 208.103 30.295 208.543 30.091C208.988 29.8869 209.351 29.5939 209.634 29.2119V28.1131H208.896C207.782 28.1131 206.968 28.2073 206.455 28.3957C205.942 28.5788 205.686 28.8823 205.686 29.3061ZM213.087 23.6944H214.39V24.0476C214.646 23.6813 215.002 23.4982 215.457 23.4982C216.143 23.4982 216.643 23.8226 216.957 24.4714C217.145 24.1051 217.336 23.8514 217.529 23.7101C217.723 23.5688 218.003 23.4982 218.369 23.4982C218.725 23.4982 219.021 23.5583 219.256 23.6787C219.497 23.7938 219.677 23.9665 219.798 24.1967C219.923 24.4217 220.01 24.6676 220.057 24.9345C220.109 25.2013 220.135 25.5205 220.135 25.892V31.3311H218.887V25.6251C218.887 25.353 218.822 25.1254 218.691 24.9423C218.565 24.7539 218.395 24.6598 218.181 24.6598C217.841 24.6598 217.532 24.9894 217.255 25.6487C217.265 25.7272 217.27 25.8527 217.27 26.0254V31.3311H216.023V25.7429C216.023 25.4708 215.955 25.2432 215.818 25.06C215.682 24.8717 215.499 24.7775 215.269 24.7775C215.102 24.7775 214.953 24.8429 214.822 24.9737C214.696 25.0993 214.552 25.3086 214.39 25.6016V30.3814C214.39 30.7738 214.429 31.0904 214.508 31.3311H213.087V23.6944ZM225.504 31.5194C224.844 31.5194 224.248 31.3624 223.714 31.0485C223.18 30.7346 222.767 30.3212 222.474 29.8084C222.181 29.2904 222.035 28.7306 222.035 28.1288V27.3832C222.035 26.1431 222.333 25.1856 222.929 24.5106C223.531 23.8357 224.397 23.4982 225.527 23.4982C226.029 23.4982 226.466 23.5714 226.838 23.7179C227.215 23.8592 227.515 24.0476 227.74 24.283C227.971 24.5133 228.154 24.8036 228.29 25.1542C228.431 25.5048 228.525 25.8606 228.572 26.2216C228.625 26.5827 228.651 26.9908 228.651 27.446C228.651 27.7652 228.646 27.9928 228.635 28.1288H223.345C223.345 28.7358 223.544 29.2564 223.942 29.6907C224.345 30.125 224.855 30.3421 225.472 30.3421C226.179 30.3421 226.922 29.9706 227.701 29.2276L228.478 30.1773C228.081 30.6064 227.625 30.9386 227.113 31.1741C226.6 31.4043 226.063 31.5194 225.504 31.5194ZM223.361 26.9515H227.285V26.7867C227.285 26.096 227.123 25.5676 226.799 25.2013C226.474 24.8298 225.993 24.6441 225.354 24.6441C224.69 24.6441 224.201 24.8403 223.887 25.2327C223.573 25.6251 223.398 26.1981 223.361 26.9515ZM236.978 25.1464L236.884 26.3864H231.476L231.571 25.1464H236.978ZM236.978 27.9326L236.884 29.1648H231.476L231.571 27.9326H236.978ZM243.045 24.5028C243.098 24.372 243.184 24.0973 243.304 23.6787C243.43 23.2549 243.527 22.8624 243.595 22.5014C243.406 22.313 243.312 22.054 243.312 21.7244C243.312 21.4628 243.409 21.2561 243.602 21.1043C243.796 20.9474 244.029 20.8689 244.301 20.8689C244.573 20.8689 244.782 20.9683 244.929 21.1671C245.081 21.3607 245.156 21.5962 245.156 21.8735C245.156 22.0043 245.141 22.1064 245.109 22.1796C245.031 22.5877 244.848 23.0796 244.56 23.6551C244.277 24.2307 244.052 24.597 243.885 24.7539L243.045 24.5028ZM240.808 24.5028C240.861 24.372 240.947 24.0973 241.067 23.6787C241.193 23.2549 241.29 22.8624 241.358 22.5014C241.169 22.313 241.075 22.054 241.075 21.7244C241.075 21.4628 241.172 21.2561 241.366 21.1043C241.559 20.9474 241.792 20.8689 242.064 20.8689C242.336 20.8689 242.546 20.9683 242.692 21.1671C242.844 21.3607 242.92 21.5962 242.92 21.8735C242.92 22.0043 242.904 22.1064 242.873 22.1796C242.794 22.5877 242.611 23.0796 242.323 23.6551C242.041 24.2307 241.816 24.597 241.648 24.7539L240.808 24.5028ZM253.798 28.796L255.281 29C255.119 29.7744 254.732 30.3866 254.12 30.8366C253.507 31.2813 252.749 31.5037 251.843 31.5037C250.76 31.5037 249.921 31.1741 249.324 30.5148C248.733 29.8503 248.437 28.9032 248.437 27.6736C248.437 26.8731 248.558 26.1641 248.798 25.5466C249.044 24.9292 249.426 24.4348 249.944 24.0633C250.462 23.6865 251.085 23.4982 251.812 23.4982C252.592 23.4982 253.29 23.6996 253.908 24.1025C254.525 24.5054 254.938 25.0339 255.148 25.6879L253.727 26.1039C253.602 25.6696 253.366 25.3295 253.021 25.0836C252.681 24.8377 252.288 24.7147 251.843 24.7147C251.184 24.7147 250.69 24.9789 250.36 25.5074C250.036 26.0359 249.873 26.7841 249.873 27.7521C249.873 28.584 250.046 29.2172 250.391 29.6515C250.737 30.0857 251.247 30.3029 251.922 30.3029C252.429 30.3029 252.848 30.1747 253.178 29.9183C253.507 29.6567 253.714 29.2826 253.798 28.796ZM263.295 30.452C262.651 31.1636 261.795 31.5194 260.728 31.5194C259.661 31.5194 258.808 31.1636 258.169 30.452C257.536 29.7352 257.22 28.7646 257.22 27.5402C257.22 26.321 257.534 25.3426 258.162 24.6048C258.789 23.8671 259.637 23.4982 260.705 23.4982C261.782 23.4982 262.646 23.8697 263.295 24.6127C263.943 25.3557 264.268 26.3367 264.268 27.5559C264.268 28.7698 263.943 29.7352 263.295 30.452ZM260.775 30.3971C261.414 30.3971 261.913 30.1512 262.274 29.6593C262.641 29.1622 262.824 28.4611 262.824 27.5559C262.824 26.635 262.638 25.9129 262.266 25.3897C261.9 24.8612 261.393 24.597 260.744 24.597C260.095 24.597 259.587 24.8586 259.221 25.3818C258.855 25.8998 258.672 26.6141 258.672 27.5245C258.672 28.4349 258.857 29.1413 259.229 29.6436C259.6 30.1459 260.116 30.3971 260.775 30.3971ZM267.8 31.3311H266.512V23.6944H268.192C268.066 23.8775 267.967 24.0711 267.894 24.2752C268.14 24.0397 268.454 23.8514 268.836 23.7101C269.223 23.5688 269.61 23.4982 269.997 23.4982C270.468 23.4982 270.884 23.608 271.245 23.8278C271.611 24.0476 271.902 24.3432 272.116 24.7147C272.336 25.0862 272.498 25.4969 272.603 25.9469C272.713 26.3917 272.768 26.86 272.768 27.3518V30.3814C272.768 30.7581 272.81 31.0747 272.893 31.3311H271.394V27.085C271.394 26.4309 271.216 25.8841 270.861 25.4446C270.51 24.9999 270.039 24.7775 269.448 24.7775C268.752 24.7775 268.203 25.1307 267.8 25.837V31.3311ZM275.326 24.8874V23.6944H276.519V20.8689L277.814 20.9474V23.6944H280.993V24.8874H277.814V28.5684C277.814 29.0968 277.948 29.5102 278.215 29.8084C278.487 30.1014 278.814 30.2479 279.196 30.2479C279.494 30.2479 279.777 30.1538 280.043 29.9654C280.316 29.777 280.533 29.4945 280.695 29.1178L281.864 29.6436C281.577 30.2715 281.197 30.7424 280.726 31.0564C280.255 31.3651 279.756 31.5194 279.227 31.5194C278.495 31.5194 277.859 31.25 277.32 30.711C276.786 30.1721 276.519 29.4579 276.519 28.5684V24.8874H275.326ZM286.817 31.5037C285.99 31.5037 285.297 31.3101 284.737 30.9229C284.177 30.5357 283.897 29.9968 283.897 29.3061C283.897 28.5317 284.274 27.9457 285.027 27.548C285.786 27.1504 286.906 26.9515 288.386 26.9515C288.475 26.9515 288.606 26.9542 288.779 26.9594C288.957 26.9646 289.088 26.9672 289.171 26.9672C289.135 26.2923 288.92 25.7429 288.528 25.319C288.141 24.89 287.646 24.6755 287.044 24.6755C286.328 24.6755 285.582 25.0443 284.808 25.7821L284.031 24.8324C284.428 24.4034 284.883 24.0737 285.396 23.8435C285.909 23.6133 286.445 23.4982 287.005 23.4982C288.015 23.4982 288.844 23.8383 289.493 24.5185C290.147 25.1987 290.474 26.062 290.474 27.1085V31.2369L290.404 31.1741V31.3311H288.795C288.952 31.1061 289.059 30.8863 289.116 30.6718C288.604 31.2264 287.837 31.5037 286.817 31.5037ZM285.223 29.3061C285.223 29.6462 285.367 29.9131 285.655 30.1067C285.943 30.3003 286.307 30.3971 286.746 30.3971C287.196 30.3971 287.641 30.295 288.08 30.091C288.525 29.8869 288.889 29.5939 289.171 29.2119V28.1131H288.434C287.319 28.1131 286.505 28.2073 285.993 28.3957C285.48 28.5788 285.223 28.8823 285.223 29.3061ZM299.053 31.3311H293.158V30.2323H295.489V24.7932L293.967 24.699V23.6944H296.753V30.2323H298.951V30.3814C298.951 30.7895 298.985 31.1061 299.053 31.3311ZM295.073 21.6459C295.073 21.3529 295.152 21.1305 295.309 20.9788C295.466 20.827 295.694 20.7512 295.992 20.7512C296.588 20.7512 296.886 21.0494 296.886 21.6459C296.886 22.2529 296.588 22.5563 295.992 22.5563C295.38 22.5563 295.073 22.2529 295.073 21.6459ZM303.15 31.3311H301.862V23.6944H303.542C303.417 23.8775 303.317 24.0711 303.244 24.2752C303.49 24.0397 303.804 23.8514 304.186 23.7101C304.573 23.5688 304.96 23.4982 305.347 23.4982C305.818 23.4982 306.234 23.608 306.595 23.8278C306.961 24.0476 307.252 24.3432 307.466 24.7147C307.686 25.0862 307.848 25.4969 307.953 25.9469C308.063 26.3917 308.118 26.86 308.118 27.3518V30.3814C308.118 30.7581 308.16 31.0747 308.243 31.3311H306.744V27.085C306.744 26.4309 306.566 25.8841 306.211 25.4446C305.86 24.9999 305.389 24.7775 304.798 24.7775C304.102 24.7775 303.553 25.1307 303.15 25.837V31.3311ZM313.879 31.5194C313.219 31.5194 312.623 31.3624 312.089 31.0485C311.556 30.7346 311.142 30.3212 310.849 29.8084C310.556 29.2904 310.41 28.7306 310.41 28.1288V27.3832C310.41 26.1431 310.708 25.1856 311.304 24.5106C311.906 23.8357 312.772 23.4982 313.902 23.4982C314.405 23.4982 314.841 23.5714 315.213 23.7179C315.59 23.8592 315.891 24.0476 316.116 24.283C316.346 24.5133 316.529 24.8036 316.665 25.1542C316.806 25.5048 316.9 25.8606 316.947 26.2216C317 26.5827 317.026 26.9908 317.026 27.446C317.026 27.7652 317.021 27.9928 317.01 28.1288H311.72C311.72 28.7358 311.919 29.2564 312.317 29.6907C312.72 30.125 313.23 30.3421 313.847 30.3421C314.554 30.3421 315.297 29.9706 316.076 29.2276L316.853 30.1773C316.456 30.6064 316 30.9386 315.488 31.1741C314.975 31.4043 314.439 31.5194 313.879 31.5194ZM311.736 26.9515H315.66V26.7867C315.66 26.096 315.498 25.5676 315.174 25.2013C314.849 24.8298 314.368 24.6441 313.73 24.6441C313.065 24.6441 312.576 24.8403 312.262 25.2327C311.948 25.6251 311.773 26.1981 311.736 26.9515ZM325.11 31.3311H319.216V30.2323H321.539V24.7932L320.008 24.699V23.6944H323.007C322.891 23.8775 322.821 24.0711 322.795 24.2752C323.229 23.7572 323.935 23.4982 324.914 23.4982C325.259 23.4982 325.78 23.6264 326.476 23.8827L325.659 25.1464C325.246 24.9214 324.864 24.8089 324.514 24.8089C324.1 24.8089 323.731 24.9266 323.407 25.1621C323.082 25.3923 322.878 25.6932 322.795 26.0647V30.2323H324.992V30.3814C324.992 30.7738 325.032 31.0904 325.11 31.3311ZM331.42 24.5028C331.473 24.372 331.559 24.0973 331.679 23.6787C331.805 23.2549 331.902 22.8624 331.97 22.5014C331.781 22.313 331.687 22.054 331.687 21.7244C331.687 21.4628 331.784 21.2561 331.978 21.1043C332.171 20.9474 332.404 20.8689 332.676 20.8689C332.948 20.8689 333.157 20.9683 333.304 21.1671C333.456 21.3607 333.532 21.5962 333.532 21.8735C333.532 22.0043 333.516 22.1064 333.484 22.1796C333.406 22.5877 333.223 23.0796 332.935 23.6551C332.652 24.2307 332.427 24.597 332.26 24.7539L331.42 24.5028ZM329.183 24.5028C329.236 24.372 329.322 24.0973 329.442 23.6787C329.568 23.2549 329.665 22.8624 329.733 22.5014C329.544 22.313 329.45 22.054 329.45 21.7244C329.45 21.4628 329.547 21.2561 329.741 21.1043C329.934 20.9474 330.167 20.8689 330.439 20.8689C330.711 20.8689 330.921 20.9683 331.067 21.1671C331.219 21.3607 331.295 21.5962 331.295 21.8735C331.295 22.0043 331.279 22.1064 331.248 22.1796C331.169 22.5877 330.986 23.0796 330.698 23.6551C330.416 24.2307 330.191 24.597 330.023 24.7539L329.183 24.5028ZM337.982 23.2549L343.177 26.4649V27.7678L338.021 30.97L337.472 29.777L341.812 27.1242L337.472 24.4714L337.982 23.2549Z" fill="#9B8AFB"/>
<path d="M144.04 53.255L149.235 50.0449L149.746 51.2614L145.405 53.9143L149.746 56.5671L149.196 57.7601L144.04 54.5578V53.255ZM152.485 50.4687H153.85V54.8561C153.85 55.4735 154.036 56.0124 154.408 56.4729C154.779 56.9281 155.237 57.1557 155.781 57.1557C156.121 57.1557 156.414 57.0537 156.66 56.8496C156.911 56.6456 157.181 56.3159 157.469 55.8607V50.4844H158.756V57.1714C158.756 57.5638 158.795 57.8804 158.874 58.1211H157.469V57.3048C157.233 57.6136 156.922 57.8595 156.535 58.0426C156.147 58.2205 155.752 58.3095 155.349 58.3095C154.805 58.3095 154.311 58.1394 153.866 57.7993C153.427 57.4592 153.086 57.0066 152.846 56.4415C152.605 55.8712 152.485 55.2485 152.485 54.5735V50.4687ZM167.593 58.1211H161.699V57.0223H163.959V48.8362L162.437 48.742V47.7374H165.262V57.0223H167.468V57.1714C167.468 57.5481 167.51 57.8647 167.593 58.1211ZM171.141 50.0449L176.337 53.255V54.5578L171.18 57.7601L170.631 56.5671L174.971 53.9143L170.631 51.2614L171.141 50.0449Z" fill="#9B8AFB"/>
<rect x="64.8312" y="74.7331" width="322.55" height="230.393" rx="5.89376" fill="#FAFBFC"/>
<g filter="url(#filter0_dd_434_8535)">
<rect x="90.0137" y="99.915" width="272.185" height="180.028" rx="6.42956" fill="white"/>
<rect x="115.732" y="126.705" width="20.3603" height="20.3603" rx="2.14319" fill="#6F59EC"/>
<path d="M131.302 132.692L123.891 141.076L120.523 137.265" stroke="white" stroke-width="2.14319" stroke-linecap="round" stroke-linejoin="round"/>
<path d="M152.726 142.633H154.285L157.037 132.696H157.134L159.886 142.633H161.445L164.855 130.163H163.32L160.714 140.319H160.593L157.938 130.163H156.233L153.579 140.319H153.457L150.851 130.163H149.316L152.726 142.633ZM165.955 142.633H167.392V136.715C167.392 135.448 168.391 134.523 169.754 134.523C170.138 134.523 170.534 134.596 170.631 134.62V133.159C170.467 133.147 170.089 133.135 169.876 133.135C168.756 133.135 167.782 133.768 167.441 134.693H167.343V133.281H165.955V142.633ZM172.334 142.633H173.771V133.281H172.334V142.633ZM173.065 131.722C173.625 131.722 174.088 131.284 174.088 130.748C174.088 130.212 173.625 129.774 173.065 129.774C172.505 129.774 172.042 130.212 172.042 130.748C172.042 131.284 172.505 131.722 173.065 131.722ZM180.47 133.281H178.473V131.04H177.036V133.281H175.624V134.498H177.036V140.343C177.036 141.975 178.351 142.755 179.569 142.755C180.105 142.755 180.446 142.657 180.641 142.584L180.349 141.293C180.227 141.318 180.032 141.366 179.715 141.366C179.082 141.366 178.473 141.172 178.473 139.954V134.498H180.47V133.281ZM186.452 142.828C188.352 142.828 189.74 141.878 190.179 140.465L188.79 140.076C188.425 141.05 187.579 141.537 186.452 141.537C184.766 141.537 183.603 140.447 183.536 138.444H190.325V137.835C190.325 134.352 188.255 133.159 186.306 133.159C183.773 133.159 182.093 135.156 182.093 138.03C182.093 140.904 183.749 142.828 186.452 142.828ZM183.536 137.202C183.633 135.747 184.662 134.45 186.306 134.45C187.865 134.45 188.863 135.619 188.863 137.202H183.536ZM201.4 133.281H199.403V131.04H197.966V133.281H196.553V134.498H197.966V140.343C197.966 141.975 199.281 142.755 200.499 142.755C201.035 142.755 201.376 142.657 201.57 142.584L201.278 141.293C201.156 141.318 200.962 141.366 200.645 141.366C200.012 141.366 199.403 141.172 199.403 139.954V134.498H201.4V133.281ZM207.382 142.828C209.282 142.828 210.67 141.878 211.108 140.465L209.72 140.076C209.355 141.05 208.508 141.537 207.382 141.537C205.695 141.537 204.532 140.447 204.466 138.444H211.254V137.835C211.254 134.352 209.184 133.159 207.236 133.159C204.703 133.159 203.023 135.156 203.023 138.03C203.023 140.904 204.679 142.828 207.382 142.828ZM204.466 137.202C204.563 135.747 205.592 134.45 207.236 134.45C208.794 134.45 209.793 135.619 209.793 137.202H204.466ZM220.064 135.375C219.614 134.048 218.603 133.159 216.752 133.159C214.78 133.159 213.318 134.279 213.318 135.862C213.318 137.153 214.085 138.018 215.802 138.42L217.361 138.785C218.305 139.004 218.749 139.455 218.749 140.1C218.749 140.904 217.897 141.561 216.557 141.561C215.382 141.561 214.646 141.056 214.39 140.051L213.026 140.392C213.361 141.981 214.67 142.828 216.582 142.828C218.755 142.828 220.235 141.64 220.235 140.027C220.235 138.724 219.419 137.902 217.751 137.494L216.363 137.153C215.254 136.879 214.755 136.508 214.755 135.789C214.755 134.986 215.608 134.401 216.752 134.401C218.007 134.401 218.524 135.095 218.774 135.741L220.064 135.375ZM226.465 133.281H224.468V131.04H223.031V133.281H221.619V134.498H223.031V140.343C223.031 141.975 224.346 142.755 225.564 142.755C226.1 142.755 226.441 142.657 226.636 142.584L226.343 141.293C226.222 141.318 226.027 141.366 225.71 141.366C225.077 141.366 224.468 141.172 224.468 139.954V134.498H226.465V133.281ZM235.084 135.375C234.633 134.048 233.622 133.159 231.771 133.159C229.799 133.159 228.337 134.279 228.337 135.862C228.337 137.153 229.105 138.018 230.822 138.42L232.38 138.785C233.324 139.004 233.768 139.455 233.768 140.1C233.768 140.904 232.916 141.561 231.577 141.561C230.401 141.561 229.665 141.056 229.409 140.051L228.045 140.392C228.38 141.981 229.689 142.828 231.601 142.828C233.774 142.828 235.254 141.64 235.254 140.027C235.254 138.724 234.438 137.902 232.77 137.494L231.382 137.153C230.274 136.879 229.774 136.508 229.774 135.789C229.774 134.986 230.627 134.401 231.771 134.401C233.026 134.401 233.543 135.095 233.793 135.741L235.084 135.375Z" fill="#37434F"/>
<rect x="115.732" y="162.066" width="20.3603" height="20.3603" rx="2.14319" fill="#6F59EC"/>
<path d="M131.302 168.054L123.891 176.437L120.523 172.627" stroke="white" stroke-width="2.14319" stroke-linecap="round" stroke-linejoin="round"/>
<path d="M150.461 177.995H151.971V173.124H154.699C154.808 173.124 154.912 173.124 155.015 173.118L157.646 177.995H159.399L156.58 172.844C158.169 172.302 158.912 171.005 158.912 169.349C158.912 167.145 157.597 165.526 154.674 165.526H150.461V177.995ZM151.971 171.76V166.865H154.626C156.647 166.865 157.427 167.852 157.427 169.349C157.427 170.847 156.647 171.76 154.65 171.76H151.971ZM165.054 178.19C166.954 178.19 168.342 177.24 168.78 175.828L167.392 175.438C167.027 176.412 166.18 176.899 165.054 176.899C163.367 176.899 162.205 175.809 162.138 173.806H168.926V173.197C168.926 169.715 166.856 168.521 164.908 168.521C162.375 168.521 160.695 170.518 160.695 173.392C160.695 176.266 162.351 178.19 165.054 178.19ZM162.138 172.564C162.235 171.109 163.264 169.812 164.908 169.812C166.467 169.812 167.465 170.981 167.465 172.564H162.138ZM178.475 168.643H176.916L174.335 176.095H174.237L171.656 168.643H170.097L173.555 177.995H175.016L178.475 168.643ZM180.371 177.995H181.808V168.643H180.371V177.995ZM181.102 167.084C181.662 167.084 182.125 166.646 182.125 166.11C182.125 165.574 181.662 165.136 181.102 165.136C180.542 165.136 180.079 165.574 180.079 166.11C180.079 166.646 180.542 167.084 181.102 167.084ZM188.361 178.19C190.261 178.19 191.649 177.24 192.087 175.828L190.699 175.438C190.334 176.412 189.488 176.899 188.361 176.899C186.675 176.899 185.512 175.809 185.445 173.806H192.234V173.197C192.234 169.715 190.163 168.521 188.215 168.521C185.682 168.521 184.002 170.518 184.002 173.392C184.002 176.266 185.658 178.19 188.361 178.19ZM185.445 172.564C185.542 171.109 186.571 169.812 188.215 169.812C189.774 169.812 190.772 170.981 190.772 172.564H185.445ZM196.538 177.995H197.951L199.996 170.811H200.143L202.188 177.995H203.601L206.45 168.643H204.94L202.919 175.779H202.822L200.849 168.643H199.315L197.317 175.803H197.22L195.199 168.643H193.689L196.538 177.995ZM214.609 165.526H213.172V177.995H214.609V165.526ZM219.993 178.214C221.625 178.214 222.477 177.338 222.769 176.729H222.842V177.995H224.279V171.833C224.279 168.862 222.014 168.521 220.821 168.521C219.408 168.521 217.801 169.008 217.07 170.713L218.434 171.2C218.751 170.518 219.5 169.788 220.87 169.788C222.191 169.788 222.842 170.488 222.842 171.687V171.736C222.842 172.43 222.136 172.369 220.431 172.588C218.696 172.814 216.803 173.197 216.803 175.34C216.803 177.167 218.215 178.214 219.993 178.214ZM220.212 176.924C219.067 176.924 218.239 176.412 218.239 175.414C218.239 174.318 219.238 173.977 220.358 173.831C220.967 173.757 222.599 173.587 222.842 173.295V174.61C222.842 175.779 221.917 176.924 220.212 176.924ZM230.969 168.643H228.972V166.402H227.535V168.643H226.123V169.861H227.535V175.706C227.535 177.338 228.85 178.117 230.068 178.117C230.604 178.117 230.945 178.019 231.14 177.946L230.847 176.656C230.726 176.68 230.531 176.729 230.214 176.729C229.581 176.729 228.972 176.534 228.972 175.316V169.861H230.969V168.643ZM236.951 178.19C238.851 178.19 240.239 177.24 240.677 175.828L239.289 175.438C238.924 176.412 238.078 176.899 236.951 176.899C235.265 176.899 234.102 175.809 234.035 173.806H240.824V173.197C240.824 169.715 238.753 168.521 236.805 168.521C234.272 168.521 232.592 170.518 232.592 173.392C232.592 176.266 234.248 178.19 236.951 178.19ZM234.035 172.564C234.132 171.109 235.161 169.812 236.805 169.812C238.364 169.812 239.362 170.981 239.362 172.564H234.035ZM249.634 170.738C249.183 169.41 248.173 168.521 246.322 168.521C244.349 168.521 242.888 169.642 242.888 171.225C242.888 172.515 243.655 173.38 245.372 173.782L246.93 174.147C247.874 174.366 248.319 174.817 248.319 175.462C248.319 176.266 247.466 176.924 246.127 176.924C244.952 176.924 244.215 176.418 243.959 175.414L242.595 175.755C242.93 177.344 244.239 178.19 246.151 178.19C248.325 178.19 249.804 177.003 249.804 175.389C249.804 174.086 248.988 173.264 247.32 172.856L245.932 172.515C244.824 172.241 244.325 171.87 244.325 171.152C244.325 170.348 245.177 169.763 246.322 169.763C247.576 169.763 248.093 170.457 248.343 171.103L249.634 170.738ZM256.034 168.643H254.037V166.402H252.6V168.643H251.188V169.861H252.6V175.706C252.6 177.338 253.916 178.117 255.133 178.117C255.669 178.117 256.01 178.019 256.205 177.946L255.913 176.656C255.791 176.68 255.596 176.729 255.279 176.729C254.646 176.729 254.037 176.534 254.037 175.316V169.861H256.034V168.643ZM263.213 177.995H264.723V173.441H267.451C270.355 173.441 271.664 171.675 271.664 169.471C271.664 167.267 270.355 165.526 267.426 165.526H263.213V177.995ZM264.723 172.101V166.865H267.377C269.405 166.865 270.178 167.973 270.178 169.471C270.178 170.969 269.405 172.101 267.402 172.101H264.723ZM274.096 177.995H275.606V173.124H278.334C278.444 173.124 278.547 173.124 278.651 173.118L281.281 177.995H283.034L280.215 172.844C281.804 172.302 282.547 171.005 282.547 169.349C282.547 167.145 281.232 165.526 278.31 165.526H274.096V177.995ZM275.606 171.76V166.865H278.261C280.282 166.865 281.062 167.852 281.062 169.349C281.062 170.847 280.282 171.76 278.285 171.76H275.606ZM291.493 170.738C291.042 169.41 290.032 168.521 288.181 168.521C286.208 168.521 284.747 169.642 284.747 171.225C284.747 172.515 285.514 173.38 287.231 173.782L288.79 174.147C289.733 174.366 290.178 174.817 290.178 175.462C290.178 176.266 289.325 176.924 287.986 176.924C286.811 176.924 286.074 176.418 285.818 175.414L284.454 175.755C284.789 177.344 286.098 178.19 288.01 178.19C290.184 178.19 291.663 177.003 291.663 175.389C291.663 174.086 290.848 173.264 289.179 172.856L287.791 172.515C286.683 172.241 286.184 171.87 286.184 171.152C286.184 170.348 287.036 169.763 288.181 169.763C289.435 169.763 289.952 170.457 290.202 171.103L291.493 170.738Z" fill="#37434F"/>
<rect x="116.268" y="197.965" width="19.2887" height="19.2887" rx="1.60739" stroke="#6F59EC" stroke-width="1.07159"/>
<path d="M150.461 213.358H151.971V208.488H154.699C154.808 208.488 154.912 208.488 155.015 208.481L157.646 213.358H159.399L156.58 208.207C158.169 207.666 158.912 206.369 158.912 204.713C158.912 202.509 157.597 200.889 154.674 200.889H150.461V213.358ZM151.971 207.124V202.228H154.626C156.647 202.228 157.427 203.215 157.427 204.713C157.427 206.21 156.647 207.124 154.65 207.124H151.971ZM165.054 213.553C166.954 213.553 168.342 212.603 168.78 211.191L167.392 210.801C167.027 211.775 166.18 212.262 165.054 212.262C163.367 212.262 162.205 211.173 162.138 209.169H168.926V208.561C168.926 205.078 166.856 203.885 164.908 203.885C162.375 203.885 160.695 205.882 160.695 208.755C160.695 211.629 162.351 213.553 165.054 213.553ZM162.138 207.927C162.235 206.472 163.264 205.175 164.908 205.175C166.467 205.175 167.465 206.344 167.465 207.927H162.138ZM173.864 213.578C175.496 213.578 176.348 212.701 176.641 212.092H176.714V213.358H178.151V207.197C178.151 204.225 175.886 203.885 174.692 203.885C173.28 203.885 171.672 204.372 170.942 206.076L172.306 206.564C172.622 205.882 173.371 205.151 174.741 205.151C176.062 205.151 176.714 205.851 176.714 207.051V207.099C176.714 207.793 176.007 207.733 174.303 207.952C172.567 208.177 170.674 208.561 170.674 210.704C170.674 212.53 172.086 213.578 173.864 213.578ZM174.083 212.287C172.939 212.287 172.111 211.775 172.111 210.777C172.111 209.681 173.109 209.34 174.23 209.194C174.838 209.121 176.47 208.95 176.714 208.658V209.973C176.714 211.142 175.788 212.287 174.083 212.287ZM184.305 213.553C186.107 213.553 186.716 212.433 187.032 211.921H187.203V213.358H188.591V200.889H187.154V205.492H187.032C186.716 205.005 186.156 203.885 184.329 203.885C181.967 203.885 180.335 205.76 180.335 208.707C180.335 211.678 181.967 213.553 184.305 213.553ZM184.499 212.262C182.697 212.262 181.772 210.679 181.772 208.682C181.772 206.71 182.673 205.175 184.499 205.175C186.253 205.175 187.178 206.588 187.178 208.682C187.178 210.801 186.229 212.262 184.499 212.262Z" fill="black"/>
<path d="M195.538 203.063H199.356V213.358H201.962V203.063H205.779V200.889H195.538V203.063ZM210.011 207.952C210.017 206.746 210.754 206.04 211.813 206.04C212.866 206.04 213.487 206.716 213.481 207.866V213.358H216.075V207.404C216.081 205.212 214.79 203.885 212.842 203.885C211.423 203.885 210.473 204.554 210.047 205.656H209.938V200.889H207.417V213.358H210.011V207.952ZM222.378 213.541C224.692 213.541 226.251 212.415 226.616 210.679L224.217 210.521C223.955 211.233 223.285 211.605 222.421 211.605C221.124 211.605 220.302 210.746 220.302 209.352V209.346H226.671V208.634C226.671 205.455 224.747 203.885 222.275 203.885C219.523 203.885 217.739 205.839 217.739 208.725C217.739 211.69 219.498 213.541 222.378 213.541ZM220.302 207.739C220.357 206.673 221.167 205.821 222.317 205.821C223.444 205.821 224.223 206.624 224.229 207.739H220.302ZM232.38 213.358H237.708C240.508 213.358 242 211.897 242 209.912C242 208.067 240.679 206.953 239.26 206.886V206.764C240.557 206.472 241.513 205.553 241.513 204.085C241.513 202.216 240.125 200.889 237.373 200.889H232.38V213.358ZM235.017 211.203V207.891H237.227C238.493 207.891 239.279 208.621 239.279 209.65C239.279 210.588 238.639 211.203 237.166 211.203H235.017ZM235.017 206.107V203.02H237.02C238.189 203.02 238.852 203.623 238.852 204.524C238.852 205.51 238.049 206.107 236.971 206.107H235.017ZM243.667 213.358H246.261V204.006H243.667V213.358ZM244.97 202.801C245.743 202.801 246.376 202.21 246.376 201.486C246.376 200.767 245.743 200.177 244.97 200.177C244.203 200.177 243.57 200.767 243.57 201.486C243.57 202.21 244.203 202.801 244.97 202.801ZM252.552 217.06C255.225 217.06 257.124 215.843 257.124 213.45V204.006H254.549V205.577H254.451C254.104 204.816 253.343 203.885 251.778 203.885C249.727 203.885 247.991 205.48 247.991 208.664C247.991 211.775 249.678 213.224 251.785 213.224C253.276 213.224 254.11 212.476 254.451 211.702H254.561V213.413C254.561 214.698 253.739 215.197 252.613 215.197C251.468 215.197 250.89 214.698 250.676 214.132L248.278 214.454C248.588 215.928 250.031 217.06 252.552 217.06ZM252.607 211.276C251.334 211.276 250.64 210.265 250.64 208.652C250.64 207.063 251.322 205.949 252.607 205.949C253.867 205.949 254.573 207.014 254.573 208.652C254.573 210.302 253.855 211.276 252.607 211.276ZM269.97 204.475H272.496C272.46 202.253 270.633 200.718 267.857 200.718C265.123 200.718 263.12 202.228 263.132 204.493C263.126 206.332 264.423 207.385 266.53 207.891L267.887 208.232C269.245 208.561 270 208.95 270.006 209.79C270 210.704 269.136 211.325 267.796 211.325C266.426 211.325 265.44 210.692 265.355 209.443H262.803C262.87 212.141 264.8 213.535 267.827 213.535C270.871 213.535 272.661 212.08 272.667 209.797C272.661 207.72 271.096 206.618 268.929 206.131L267.808 205.863C266.724 205.614 265.817 205.212 265.836 204.317C265.836 203.513 266.548 202.923 267.839 202.923C269.099 202.923 269.872 203.495 269.97 204.475ZM276.985 207.952C276.991 206.746 277.728 206.04 278.788 206.04C279.841 206.04 280.462 206.716 280.456 207.866V213.358H283.05V207.404C283.056 205.212 281.765 203.885 279.816 203.885C278.398 203.885 277.448 204.554 277.022 205.656H276.912V200.889H274.392V213.358H276.985V207.952ZM289.316 213.541C292.154 213.541 293.919 211.599 293.919 208.719C293.919 205.821 292.154 203.885 289.316 203.885C286.479 203.885 284.713 205.821 284.713 208.719C284.713 211.599 286.479 213.541 289.316 213.541ZM289.328 211.532C288.019 211.532 287.35 210.332 287.35 208.701C287.35 207.069 288.019 205.863 289.328 205.863C290.613 205.863 291.283 207.069 291.283 208.701C291.283 210.332 290.613 211.532 289.328 211.532ZM295.606 213.358H298.199V208.067C298.199 206.917 299.04 206.125 300.184 206.125C300.544 206.125 301.037 206.186 301.28 206.265V203.964C301.049 203.909 300.726 203.872 300.464 203.872C299.417 203.872 298.559 204.481 298.218 205.638H298.12V204.006H295.606V213.358ZM308.065 204.006H306.305V201.766H303.711V204.006H302.433V205.955H303.711V210.826C303.699 212.658 304.947 213.565 306.829 213.486C307.498 213.462 307.973 213.328 308.235 213.243L307.827 211.313C307.699 211.337 307.425 211.398 307.182 211.398C306.664 211.398 306.305 211.203 306.305 210.485V205.955H308.065V204.006Z" fill="#37434F"/>
<rect x="116.268" y="234.4" width="19.2887" height="19.2887" rx="1.60739" stroke="#6F59EC" stroke-width="1.07159"/>
<path d="M158.352 240.148C157.889 237.591 155.844 236.081 153.335 236.081C150.145 236.081 147.831 238.541 147.831 242.486C147.831 246.431 150.145 248.891 153.335 248.891C155.844 248.891 157.889 247.381 158.352 244.824H156.842C156.477 246.553 154.991 247.479 153.335 247.479C151.07 247.479 149.292 245.725 149.292 242.486C149.292 239.247 151.07 237.493 153.335 237.493C154.991 237.493 156.477 238.419 156.842 240.148H158.352ZM162.034 243.095C162.034 241.463 163.075 240.538 164.494 240.538C165.846 240.538 166.662 241.39 166.662 242.876V248.721H168.098V242.778C168.098 240.373 166.82 239.247 164.908 239.247C163.435 239.247 162.594 239.862 162.156 240.83H162.034V236.251H160.597V248.721H162.034V243.095ZM174.648 248.916C176.548 248.916 177.936 247.966 178.374 246.553L176.986 246.163C176.621 247.138 175.775 247.625 174.648 247.625C172.962 247.625 171.799 246.535 171.732 244.532H178.521V243.923C178.521 240.44 176.45 239.247 174.502 239.247C171.969 239.247 170.289 241.244 170.289 244.118C170.289 246.992 171.945 248.916 174.648 248.916ZM171.732 243.29C171.829 241.834 172.858 240.538 174.502 240.538C176.061 240.538 177.059 241.707 177.059 243.29H171.732ZM184.506 248.916C186.576 248.916 187.94 247.649 188.183 245.993H186.746C186.478 247.016 185.626 247.625 184.506 247.625C182.801 247.625 181.705 246.212 181.705 244.045C181.705 241.926 182.825 240.538 184.506 240.538C185.772 240.538 186.527 241.317 186.746 242.169H188.183C187.94 240.416 186.454 239.247 184.481 239.247C181.948 239.247 180.268 241.244 180.268 244.093C180.268 246.894 181.875 248.916 184.506 248.916ZM190.284 248.721H191.721V245.22L192.725 244.288L196.226 248.721H198.053L193.809 243.363L197.761 239.369H195.983L191.891 243.533H191.721V236.251H190.284V248.721ZM208.231 248.916C210.302 248.916 211.665 247.649 211.909 245.993H210.472C210.204 247.016 209.352 247.625 208.231 247.625C206.527 247.625 205.431 246.212 205.431 244.045C205.431 241.926 206.551 240.538 208.231 240.538C209.498 240.538 210.253 241.317 210.472 242.169H211.909C211.665 240.416 210.18 239.247 208.207 239.247C205.674 239.247 203.994 241.244 203.994 244.093C203.994 246.894 205.601 248.916 208.231 248.916ZM217.809 248.916C220.342 248.916 222.046 246.992 222.046 244.093C222.046 241.171 220.342 239.247 217.809 239.247C215.276 239.247 213.571 241.171 213.571 244.093C213.571 246.992 215.276 248.916 217.809 248.916ZM217.809 247.625C215.885 247.625 215.008 245.969 215.008 244.093C215.008 242.218 215.885 240.538 217.809 240.538C219.733 240.538 220.61 242.218 220.61 244.093C220.61 245.969 219.733 247.625 217.809 247.625ZM225.677 236.251H224.24V248.721H225.677V236.251ZM232.108 248.916C234.641 248.916 236.346 246.992 236.346 244.093C236.346 241.171 234.641 239.247 232.108 239.247C229.575 239.247 227.87 241.171 227.87 244.093C227.87 246.992 229.575 248.916 232.108 248.916ZM232.108 247.625C230.184 247.625 229.307 245.969 229.307 244.093C229.307 242.218 230.184 240.538 232.108 240.538C234.032 240.538 234.909 242.218 234.909 244.093C234.909 245.969 234.032 247.625 232.108 247.625ZM238.539 248.721H239.976V242.803C239.976 241.536 240.974 240.611 242.338 240.611C242.722 240.611 243.118 240.684 243.215 240.708V239.247C243.051 239.235 242.673 239.222 242.46 239.222C241.34 239.222 240.366 239.856 240.025 240.781H239.927V239.369H238.539V248.721ZM253.54 248.916C255.61 248.916 256.974 247.649 257.217 245.993H255.78C255.512 247.016 254.66 247.625 253.54 247.625C251.835 247.625 250.739 246.212 250.739 244.045C250.739 241.926 251.859 240.538 253.54 240.538C254.806 240.538 255.561 241.317 255.78 242.169H257.217C256.974 240.416 255.488 239.247 253.515 239.247C250.983 239.247 249.302 241.244 249.302 244.093C249.302 246.894 250.909 248.916 253.54 248.916ZM263.117 248.916C265.65 248.916 267.355 246.992 267.355 244.093C267.355 241.171 265.65 239.247 263.117 239.247C260.584 239.247 258.879 241.171 258.879 244.093C258.879 246.992 260.584 248.916 263.117 248.916ZM263.117 247.625C261.193 247.625 260.316 245.969 260.316 244.093C260.316 242.218 261.193 240.538 263.117 240.538C265.041 240.538 265.918 242.218 265.918 244.093C265.918 245.969 265.041 247.625 263.117 247.625ZM270.985 243.095C270.985 241.463 271.996 240.538 273.372 240.538C274.705 240.538 275.515 241.408 275.515 242.876V248.721H276.952V242.778C276.952 240.391 275.679 239.247 273.786 239.247C272.373 239.247 271.497 239.88 271.058 240.83H270.936V239.369H269.548V248.721H270.985V243.095ZM283.645 239.369H281.648V237.128H280.211V239.369H278.798V240.586H280.211V246.431C280.211 248.063 281.526 248.842 282.744 248.842C283.28 248.842 283.62 248.745 283.815 248.672L283.523 247.381C283.401 247.406 283.206 247.454 282.89 247.454C282.257 247.454 281.648 247.259 281.648 246.042V240.586H283.645V239.369ZM285.806 248.721H287.243V242.803C287.243 241.536 288.242 240.611 289.606 240.611C289.989 240.611 290.385 240.684 290.482 240.708V239.247C290.318 239.235 289.94 239.222 289.727 239.222C288.607 239.222 287.633 239.856 287.292 240.781H287.194V239.369H285.806V248.721ZM294.938 248.94C296.569 248.94 297.422 248.063 297.714 247.454H297.787V248.721H299.224V242.559C299.224 239.588 296.959 239.247 295.766 239.247C294.353 239.247 292.746 239.734 292.015 241.439L293.379 241.926C293.696 241.244 294.444 240.513 295.814 240.513C297.136 240.513 297.787 241.213 297.787 242.413V242.462C297.787 243.156 297.081 243.095 295.376 243.314C293.641 243.539 291.747 243.923 291.747 246.066C291.747 247.893 293.16 248.94 294.938 248.94ZM295.157 247.649C294.012 247.649 293.184 247.138 293.184 246.139C293.184 245.043 294.183 244.702 295.303 244.556C295.912 244.483 297.544 244.313 297.787 244.02V245.335C297.787 246.504 296.862 247.649 295.157 247.649ZM308.471 241.463C308.021 240.136 307.01 239.247 305.159 239.247C303.186 239.247 301.725 240.367 301.725 241.95C301.725 243.241 302.492 244.106 304.209 244.507L305.768 244.873C306.711 245.092 307.156 245.542 307.156 246.188C307.156 246.992 306.304 247.649 304.964 247.649C303.789 247.649 303.052 247.144 302.796 246.139L301.433 246.48C301.768 248.069 303.077 248.916 304.988 248.916C307.162 248.916 308.642 247.728 308.642 246.115C308.642 244.812 307.826 243.99 306.157 243.582L304.769 243.241C303.661 242.967 303.162 242.596 303.162 241.877C303.162 241.073 304.014 240.489 305.159 240.489C306.413 240.489 306.931 241.183 307.18 241.828L308.471 241.463ZM314.872 239.369H312.875V237.128H311.438V239.369H310.025V240.586H311.438V246.431C311.438 248.063 312.753 248.842 313.971 248.842C314.506 248.842 314.847 248.745 315.042 248.672L314.75 247.381C314.628 247.406 314.433 247.454 314.117 247.454C313.484 247.454 312.875 247.259 312.875 246.042V240.586H314.872V239.369Z" fill="#37434F"/>
<rect x="90.5495" y="100.451" width="271.113" height="178.956" rx="5.89376" stroke="#FAFBFC" stroke-width="1.07159"/>
</g>
<rect x="64.8312" y="74.7331" width="322.55" height="230.393" rx="5.89376" stroke="#F2F5FA" stroke-width="1.07159"/>
<path d="M144.04 328.654L149.235 325.444L149.746 326.661L145.405 329.314L149.746 331.966L149.196 333.159L144.04 329.957V328.654ZM158.324 322.226L159.289 322.831L153.223 335.357L152.257 334.753L158.324 322.226ZM161.322 325.868H162.688V330.255C162.688 330.873 162.874 331.412 163.245 331.872C163.617 332.328 164.075 332.555 164.619 332.555C164.959 332.555 165.252 332.453 165.498 332.249C165.749 332.045 166.018 331.715 166.306 331.26V325.884H167.593V332.571C167.593 332.963 167.633 333.28 167.711 333.521H166.306V332.704C166.071 333.013 165.759 333.259 165.372 333.442C164.985 333.62 164.59 333.709 164.187 333.709C163.643 333.709 163.148 333.539 162.704 333.199C162.264 332.859 161.924 332.406 161.683 331.841C161.443 331.271 161.322 330.648 161.322 329.973V325.868ZM176.431 333.521H170.537V332.422H172.797V324.236L171.274 324.141V323.137H174.1V332.422H176.305V332.571C176.305 332.948 176.347 333.264 176.431 333.521ZM179.978 325.444L185.174 328.654V329.957L180.018 333.159L179.468 331.966L183.808 329.314L179.468 326.661L179.978 325.444Z" fill="#9B8AFB"/>
<path d="M108.69 355.444L113.885 352.234L114.396 353.451L110.055 356.104L114.396 358.757L113.846 359.95L108.69 356.747V355.444ZM122.974 349.016L123.939 349.621L117.872 362.147L116.907 361.543L122.974 349.016ZM125.729 356.276C125.729 355.073 126.022 354.139 126.608 353.474C127.199 352.81 128.018 352.478 129.065 352.478C129.996 352.478 130.728 352.789 131.262 353.412V349.848L132.565 349.927V359.361C132.565 359.769 132.599 360.086 132.667 360.311H131.262V359.84C130.681 360.269 130.004 360.483 129.229 360.483C128.183 360.483 127.338 360.099 126.694 359.329C126.051 358.56 125.729 357.543 125.729 356.276ZM129.12 353.624C128.481 353.624 127.971 353.867 127.589 354.353C127.207 354.835 127.016 355.481 127.016 356.292C127.016 357.155 127.225 357.864 127.644 358.419C128.063 358.974 128.599 359.251 129.253 359.251C130.252 359.251 130.922 358.908 131.262 358.223V355.021C131.021 354.576 130.713 354.233 130.336 353.992C129.959 353.747 129.554 353.624 129.12 353.624ZM141.049 360.311H135.155V359.212H137.486V353.773L135.963 353.678V352.674H138.75V359.212H140.947V359.361C140.947 359.769 140.981 360.086 141.049 360.311ZM137.07 350.625C137.07 350.332 137.149 350.11 137.306 349.958C137.463 349.807 137.69 349.731 137.988 349.731C138.585 349.731 138.883 350.029 138.883 350.625C138.883 351.232 138.585 351.536 137.988 351.536C137.376 351.536 137.07 351.232 137.07 350.625ZM146.19 360.311L143.49 352.674H144.864L146.834 358.207L148.976 352.674H150.342L147.438 360.311H146.19ZM153.466 352.234L158.662 355.444V356.747L153.505 359.95L152.956 358.757L157.296 356.104L152.956 353.451L153.466 352.234Z" fill="#9B8AFB"/>
<path d="M410.462 135.203H409.081V124.06H410.462C410.797 124.942 411.219 125.944 411.727 127.066C412.234 128.188 412.656 129.061 412.991 129.686C413.309 129.067 413.711 128.196 414.196 127.074C414.687 125.952 415.095 124.948 415.419 124.06H416.909V135.203H415.519V126.974C415.022 128.313 414.4 129.77 413.652 131.344H412.304C411.478 129.491 410.864 128.026 410.462 126.949V135.203ZM419.286 135.203V134.014H421.722V125.241H419.663V124.06H425.063V125.241H423.104V134.014H425.49V134.173C425.49 134.592 425.532 134.935 425.615 135.203H419.286ZM428.186 125.241V124.06H435.503V125.241H432.489V135.203H431.099V125.241H428.186Z" fill="#9B8AFB"/>
<path d="M412.22 167.35L408.78 156.207H410.261L412.907 165.047L415.753 156.207H417.218L413.552 167.35H412.22ZM420.475 158.191L419.579 157.362C419.775 156.932 420.143 156.597 420.684 156.357C421.231 156.112 421.801 155.989 422.392 155.989C423.347 155.989 424.136 156.276 424.761 156.851C425.392 157.421 425.707 158.177 425.707 159.12C425.707 160.214 425.258 161.048 424.36 161.623C424.828 161.886 425.2 162.268 425.473 162.77C425.752 163.267 425.892 163.831 425.892 164.461C425.892 165.421 425.574 166.18 424.937 166.738C424.301 167.291 423.433 167.567 422.334 167.567C421.524 167.567 420.849 167.408 420.308 167.09C419.766 166.766 419.317 166.272 418.96 165.608L419.948 164.939C420.283 165.435 420.626 165.787 420.977 165.993C421.329 166.194 421.762 166.295 422.275 166.295C422.989 166.295 423.528 166.136 423.891 165.818C424.254 165.499 424.435 165.039 424.435 164.436C424.435 163.739 424.212 163.197 423.765 162.812C423.324 162.427 422.705 162.234 421.907 162.234H421.187V161.046H421.907C422.66 161.046 423.241 160.878 423.648 160.543C424.055 160.203 424.259 159.723 424.259 159.103C424.259 158.517 424.086 158.062 423.74 157.739C423.4 157.409 422.922 157.245 422.309 157.245C421.929 157.245 421.566 157.32 421.22 157.471C420.88 157.616 420.631 157.856 420.475 158.191ZM430.856 166.579C430.856 166.267 430.943 166.027 431.116 165.859C431.289 165.692 431.531 165.608 431.844 165.608C432.157 165.608 432.397 165.692 432.564 165.859C432.731 166.027 432.815 166.267 432.815 166.579C432.815 166.903 432.731 167.149 432.564 167.316C432.397 167.484 432.157 167.567 431.844 167.567C431.185 167.567 430.856 167.238 430.856 166.579ZM443.188 158.693C443.188 158.23 443.029 157.878 442.711 157.638C442.398 157.398 441.952 157.278 441.371 157.278C440.891 157.278 440.461 157.382 440.082 157.588C439.708 157.789 439.354 158.143 439.019 158.651L438.031 157.973C438.695 156.634 439.8 155.964 441.346 155.964C442.312 155.964 443.09 156.198 443.682 156.667C444.273 157.13 444.569 157.786 444.569 158.635C444.569 158.958 444.516 159.299 444.41 159.656C444.31 160.013 444.181 160.354 444.025 160.677C443.874 160.995 443.659 161.355 443.38 161.757C443.107 162.153 442.85 162.502 442.61 162.804C442.376 163.105 442.06 163.471 441.664 163.9C441.273 164.33 440.947 164.682 440.685 164.955C440.422 165.229 440.071 165.589 439.63 166.035H445.03V167.35H437.671V165.952C437.9 165.7 438.19 165.399 438.541 165.047L439.128 164.461C439.446 164.138 439.666 163.914 439.789 163.792C439.917 163.663 440.127 163.448 440.417 163.147C440.713 162.84 440.927 162.611 441.061 162.46C441.195 162.304 441.38 162.089 441.614 161.816C441.854 161.537 442.03 161.314 442.141 161.146C442.259 160.973 442.398 160.764 442.56 160.518C442.722 160.267 442.839 160.052 442.912 159.874C442.984 159.689 443.048 159.494 443.104 159.288C443.16 159.075 443.188 158.877 443.188 158.693Z" fill="#9B8AFB"/>
<defs>
<filter id="filter0_dd_434_8535" x="81.4409" y="95.6287" width="289.33" height="197.173" filterUnits="userSpaceOnUse" color-interpolation-filters="sRGB">
<feFlood flood-opacity="0" result="BackgroundImageFix"/>
<feColorMatrix in="SourceAlpha" type="matrix" values="0 0 0 0 0 0 0 0 0 0 0 0 0 0 0 0 0 0 127 0" result="hardAlpha"/>
<feOffset dy="4.28637"/>
<feGaussianBlur stdDeviation="4.28637"/>
<feColorMatrix type="matrix" values="0 0 0 0 0.105882 0 0 0 0 0.227451 0 0 0 0 0.458824 0 0 0 0.07 0"/>
<feBlend mode="normal" in2="BackgroundImageFix" result="effect1_dropShadow_434_8535"/>
<feColorMatrix in="SourceAlpha" type="matrix" values="0 0 0 0 0 0 0 0 0 0 0 0 0 0 0 0 0 0 127 0" result="hardAlpha"/>
<feOffset dy="1.07159"/>
<feGaussianBlur stdDeviation="1.07159"/>
<feColorMatrix type="matrix" values="0 0 0 0 0.105882 0 0 0 0 0.227451 0 0 0 0 0.458824 0 0 0 0.12 0"/>
<feBlend mode="normal" in2="effect1_dropShadow_434_8535" result="effect2_dropShadow_434_8535"/>
<feBlend mode="normal" in="SourceGraphic" in2="effect2_dropShadow_434_8535" result="shape"/>
</filter>
<linearGradient id="paint0_linear_434_8535" x1="-4.28638" y1="281.014" x2="454.356" y2="281.013" gradientUnits="userSpaceOnUse">
<stop stop-color="#39444F"/>
<stop offset="0.135417" stop-color="#9B8AFB"/>
<stop offset="0.8125" stop-color="#9082E7"/>
<stop offset="1" stop-color="#39444F"/>
</linearGradient>
<linearGradient id="paint1_linear_434_8535" x1="-4.28638" y1="102.058" x2="454.356" y2="102.057" gradientUnits="userSpaceOnUse">
<stop stop-color="#39444F"/>
<stop offset="0.135417" stop-color="#9B8AFB"/>
<stop offset="0.8125" stop-color="#9082E7"/>
<stop offset="1" stop-color="#39444F"/>
</linearGradient>
<linearGradient id="paint2_linear_434_8535" x1="363.27" y1="385.342" x2="363.27" y2="0.255848" gradientUnits="userSpaceOnUse">
<stop stop-color="#39444F"/>
<stop offset="0.135417" stop-color="#9B8AFB"/>
<stop offset="0.8125" stop-color="#9082E7"/>
<stop offset="1" stop-color="#39444F"/>
</linearGradient>
<linearGradient id="paint3_linear_434_8535" x1="90.0137" y1="385.342" x2="90.0132" y2="0.255848" gradientUnits="userSpaceOnUse">
<stop stop-color="#39444F"/>
<stop offset="0.135417" stop-color="#9B8AFB"/>
<stop offset="0.8125" stop-color="#9082E7"/>
<stop offset="1" stop-color="#39444F"/>
</linearGradient>
</defs>
</svg>
