<svg width="510" height="302" viewBox="0 0 510 302" fill="none" xmlns="http://www.w3.org/2000/svg">
<path d="M0 6C0 2.68629 2.68629 0 6 0H504C507.314 0 510 2.68629 510 6V296C510 299.314 507.314 302 504 302H6C2.68629 302 0 299.314 0 296V6Z" fill="white"/>
<path d="M33.614 53H44.3207V50.5151H36.5783V46.0487H43.7054V43.5637H36.5783V39.1213H44.2567V36.6364H33.614V53ZM50.0455 45.8089C50.0455 44.0352 51.1162 43.0124 52.6423 43.0124C54.1365 43.0124 55.0313 43.9952 55.0313 45.6332V53H57.9237V45.1857C57.9317 42.2454 56.2538 40.5675 53.721 40.5675C51.8833 40.5675 50.6208 41.4464 50.0615 42.8127H49.9177V40.7273H47.1531V53H50.0455V45.8089ZM66.2014 57.858C69.5173 57.858 71.9623 56.3398 71.9623 53.1998V40.7273H69.1098V42.7567H68.95C68.5106 41.8699 67.5917 40.5675 65.4264 40.5675C62.5899 40.5675 60.3607 42.7887 60.3607 46.8237C60.3607 50.8267 62.5899 52.8242 65.4184 52.8242C67.5198 52.8242 68.5026 51.6976 68.95 50.7947H69.0938V53.1199C69.0938 54.9256 67.8953 55.6687 66.2494 55.6687C64.5075 55.6687 63.7405 54.8457 63.3889 54.1266L60.7842 54.7578C61.3115 56.4757 63.0773 57.858 66.2014 57.858ZM66.2254 50.555C64.3158 50.555 63.309 49.0689 63.309 46.8077C63.309 44.5785 64.2998 42.9405 66.2254 42.9405C68.0871 42.9405 69.1098 44.4826 69.1098 46.8077C69.1098 49.1488 68.0711 50.555 66.2254 50.555ZM74.9266 53H77.819V40.7273H74.9266V53ZM76.3808 38.9854C77.2996 38.9854 78.0507 38.2823 78.0507 37.4194C78.0507 36.5485 77.2996 35.8453 76.3808 35.8453C75.4539 35.8453 74.7029 36.5485 74.7029 37.4194C74.7029 38.2823 75.4539 38.9854 76.3808 38.9854ZM83.6857 45.8089C83.6857 44.0352 84.7563 43.0124 86.2824 43.0124C87.7766 43.0124 88.6715 43.9952 88.6715 45.6332V53H91.5639V45.1857C91.5719 42.2454 89.894 40.5675 87.3611 40.5675C85.5234 40.5675 84.261 41.4464 83.7017 42.8127H83.5578V40.7273H80.7933V53H83.6857V45.8089ZM99.9375 53.2397C102.798 53.2397 104.763 51.8414 105.275 49.7081L102.574 49.4045C102.183 50.4432 101.224 50.9865 99.9774 50.9865C98.1077 50.9865 96.8693 49.756 96.8453 47.6547H105.395V46.7678C105.395 42.4611 102.806 40.5675 99.7856 40.5675C96.27 40.5675 93.9769 43.1483 93.9769 46.9355C93.9769 50.7868 96.2381 53.2397 99.9375 53.2397ZM96.8533 45.7051C96.9412 44.139 98.0997 42.8207 99.8256 42.8207C101.488 42.8207 102.606 44.0352 102.622 45.7051H96.8533ZM113.275 53.2397C116.135 53.2397 118.101 51.8414 118.612 49.7081L115.912 49.4045C115.52 50.4432 114.561 50.9865 113.315 50.9865C111.445 50.9865 110.207 49.756 110.183 47.6547H118.732V46.7678C118.732 42.4611 116.143 40.5675 113.123 40.5675C109.607 40.5675 107.314 43.1483 107.314 46.9355C107.314 50.7868 109.575 53.2397 113.275 53.2397ZM110.191 45.7051C110.279 44.139 111.437 42.8207 113.163 42.8207C114.825 42.8207 115.944 44.0352 115.96 45.7051H110.191ZM121.179 53H124.071V45.785C124.071 44.2269 125.246 43.1243 126.836 43.1243C127.323 43.1243 127.931 43.2122 128.178 43.2921V40.6314C127.915 40.5835 127.459 40.5515 127.14 40.5515C125.733 40.5515 124.559 41.3505 124.111 42.7727H123.984V40.7273H121.179V53ZM130.1 53H132.992V40.7273H130.1V53ZM131.554 38.9854C132.473 38.9854 133.224 38.2823 133.224 37.4194C133.224 36.5485 132.473 35.8453 131.554 35.8453C130.627 35.8453 129.876 36.5485 129.876 37.4194C129.876 38.2823 130.627 38.9854 131.554 38.9854ZM138.859 45.8089C138.859 44.0352 139.93 43.0124 141.456 43.0124C142.95 43.0124 143.845 43.9952 143.845 45.6332V53H146.737V45.1857C146.745 42.2454 145.067 40.5675 142.534 40.5675C140.697 40.5675 139.434 41.4464 138.875 42.8127H138.731V40.7273H135.967V53H138.859V45.8089ZM155.015 57.858C158.331 57.858 160.776 56.3398 160.776 53.1998V40.7273H157.923V42.7567H157.763C157.324 41.8699 156.405 40.5675 154.24 40.5675C151.403 40.5675 149.174 42.7887 149.174 46.8237C149.174 50.8267 151.403 52.8242 154.232 52.8242C156.333 52.8242 157.316 51.6976 157.763 50.7947H157.907V53.1199C157.907 54.9256 156.709 55.6687 155.063 55.6687C153.321 55.6687 152.554 54.8457 152.202 54.1266L149.598 54.7578C150.125 56.4757 151.891 57.858 155.015 57.858ZM155.039 50.555C153.129 50.555 152.123 49.0689 152.123 46.8077C152.123 44.5785 153.113 42.9405 155.039 42.9405C156.901 42.9405 157.923 44.4826 157.923 46.8077C157.923 49.1488 156.885 50.555 155.039 50.555ZM183.456 42.1575C182.952 38.522 180.156 36.4126 176.528 36.4126C172.253 36.4126 169.033 39.5288 169.033 44.8182C169.033 50.0996 172.214 53.2237 176.528 53.2237C180.419 53.2237 183 50.7069 183.456 47.5827L180.467 47.5668C180.092 49.4844 178.526 50.563 176.568 50.563C173.915 50.563 172.014 48.5735 172.014 44.8182C172.014 41.1268 173.899 39.0733 176.576 39.0733C178.566 39.0733 180.124 40.1999 180.467 42.1575H183.456ZM189.574 53.2477C191.5 53.2477 192.65 52.3448 193.177 51.3141H193.273V53H196.054V44.7862C196.054 41.5423 193.409 40.5675 191.068 40.5675C188.487 40.5675 186.506 41.718 185.867 43.9553L188.567 44.3388C188.855 43.4998 189.67 42.7807 191.084 42.7807C192.426 42.7807 193.161 43.4679 193.161 44.6744V44.7223C193.161 45.5533 192.291 45.5932 190.125 45.8249C187.744 46.0806 185.467 46.7917 185.467 49.5563C185.467 51.9693 187.233 53.2477 189.574 53.2477ZM190.325 51.1223C189.118 51.1223 188.256 50.571 188.256 49.5083C188.256 48.3977 189.222 47.9343 190.517 47.7505C191.276 47.6467 192.794 47.4549 193.169 47.1513V48.5975C193.169 49.9638 192.067 51.1223 190.325 51.1223ZM201.855 45.8089C201.855 44.0352 202.925 43.0124 204.451 43.0124C205.946 43.0124 206.84 43.9952 206.84 45.6332V53H209.733V45.1857C209.741 42.2454 208.063 40.5675 205.53 40.5675C203.692 40.5675 202.43 41.4464 201.871 42.8127H201.727V40.7273H198.962V53H201.855V45.8089ZM217.227 53.2157C219.337 53.2157 220.288 51.9613 220.743 51.0664H220.919V53H223.763V36.6364H220.863V42.7567H220.743C220.304 41.8699 219.401 40.5675 217.235 40.5675C214.399 40.5675 212.17 42.7887 212.17 46.8796C212.17 50.9226 214.335 53.2157 217.227 53.2157ZM218.034 50.8427C216.125 50.8427 215.118 49.1648 215.118 46.8636C215.118 44.5785 216.109 42.9405 218.034 42.9405C219.896 42.9405 220.919 44.4826 220.919 46.8636C220.919 49.2447 219.88 50.8427 218.034 50.8427ZM226.846 53H229.738V40.7273H226.846V53ZM228.3 38.9854C229.219 38.9854 229.97 38.2823 229.97 37.4194C229.97 36.5485 229.219 35.8453 228.3 35.8453C227.373 35.8453 226.622 36.5485 226.622 37.4194C226.622 38.2823 227.373 38.9854 228.3 38.9854ZM237.267 53.2157C239.376 53.2157 240.327 51.9613 240.782 51.0664H240.958V53H243.802V36.6364H240.902V42.7567H240.782C240.343 41.8699 239.44 40.5675 237.275 40.5675C234.438 40.5675 232.209 42.7887 232.209 46.8796C232.209 50.9226 234.374 53.2157 237.267 53.2157ZM238.074 50.8427C236.164 50.8427 235.157 49.1648 235.157 46.8636C235.157 44.5785 236.148 42.9405 238.074 42.9405C239.935 42.9405 240.958 44.4826 240.958 46.8636C240.958 49.2447 239.919 50.8427 238.074 50.8427ZM250.416 53.2477C252.342 53.2477 253.492 52.3448 254.02 51.3141H254.116V53H256.896V44.7862C256.896 41.5423 254.251 40.5675 251.91 40.5675C249.33 40.5675 247.348 41.718 246.709 43.9553L249.409 44.3388C249.697 43.4998 250.512 42.7807 251.926 42.7807C253.269 42.7807 254.004 43.4679 254.004 44.6744V44.7223C254.004 45.5533 253.133 45.5932 250.968 45.8249C248.586 46.0806 246.309 46.7917 246.309 49.5563C246.309 51.9693 248.075 53.2477 250.416 53.2477ZM251.167 51.1223C249.961 51.1223 249.098 50.571 249.098 49.5083C249.098 48.3977 250.065 47.9343 251.359 47.7505C252.118 47.6467 253.636 47.4549 254.012 47.1513V48.5975C254.012 49.9638 252.909 51.1223 251.167 51.1223ZM265.933 40.7273H263.512V37.7869H260.619V40.7273H258.878V42.9645H260.619V49.788C260.604 52.0971 262.281 53.2317 264.455 53.1678C265.278 53.1438 265.845 52.984 266.157 52.8801L265.669 50.619C265.509 50.6589 265.182 50.7308 264.822 50.7308C264.095 50.7308 263.512 50.4751 263.512 49.3086V42.9645H265.933V40.7273ZM273.653 53.2397C276.514 53.2397 278.479 51.8414 278.991 49.7081L276.29 49.4045C275.898 50.4432 274.94 50.9865 273.693 50.9865C271.824 50.9865 270.585 49.756 270.561 47.6547H279.11V46.7678C279.11 42.4611 276.522 40.5675 273.501 40.5675C269.986 40.5675 267.693 43.1483 267.693 46.9355C267.693 50.7868 269.954 53.2397 273.653 53.2397ZM270.569 45.7051C270.657 44.139 271.816 42.8207 273.541 42.8207C275.203 42.8207 276.322 44.0352 276.338 45.7051H270.569ZM291.257 43.9712C290.858 41.8938 289.196 40.5675 286.32 40.5675C283.363 40.5675 281.35 42.0217 281.358 44.2908C281.35 46.0806 282.452 47.2631 284.809 47.7505L286.903 48.19C288.029 48.4377 288.557 48.8931 288.557 49.5882C288.557 50.4272 287.646 51.0584 286.272 51.0584C284.945 51.0584 284.082 50.4831 283.835 49.3805L281.014 49.6522C281.374 51.9054 283.267 53.2397 286.28 53.2397C289.348 53.2397 291.513 51.6497 291.521 49.3246C291.513 47.5748 290.386 46.5041 288.069 46.0007L285.976 45.5533C284.729 45.2736 284.234 44.8422 284.242 44.131C284.234 43.3001 285.153 42.7248 286.359 42.7248C287.694 42.7248 288.397 43.4519 288.621 44.2589L291.257 43.9712Z" fill="#4D5C6C"/>
<rect width="167" height="197" transform="translate(32 73)" fill="white"/>
<path d="M41.3366 83.8182H39.8153V91.2955H39.7209L34.5405 83.8182H33.1186V94H34.6548V86.5327H34.7493L39.9247 94H41.3366V83.8182ZM45.6806 94.169C46.9434 94.169 47.6543 93.5277 47.9377 92.956H47.9973V94H49.449V88.929C49.449 86.7067 47.699 86.2642 46.486 86.2642C45.1039 86.2642 43.8311 86.821 43.334 88.2131L44.731 88.5312C44.9498 87.9893 45.5066 87.4673 46.5059 87.4673C47.4654 87.4673 47.9576 87.9695 47.9576 88.8345V88.8693C47.9576 89.4112 47.4007 89.4013 46.0286 89.5604C44.5819 89.7294 43.1003 90.1072 43.1003 91.8423C43.1003 93.3438 44.2289 94.169 45.6806 94.169ZM46.0037 92.9759C45.1635 92.9759 44.557 92.598 44.557 91.8622C44.557 91.0668 45.263 90.7834 46.123 90.669C46.6053 90.6044 47.7488 90.4751 47.9625 90.2614V91.2457C47.9625 92.1506 47.2417 92.9759 46.0037 92.9759ZM51.429 94H52.9155V89.2919C52.9155 88.2628 53.6364 87.5469 54.4815 87.5469C55.3068 87.5469 55.8786 88.0938 55.8786 88.924V94H57.3601V89.1328C57.3601 88.2131 57.9219 87.5469 58.8913 87.5469C59.6768 87.5469 60.3232 87.9844 60.3232 89.0185V94H61.8097V88.8793C61.8097 87.1342 60.8352 86.2642 59.4531 86.2642C58.3544 86.2642 57.5291 86.7912 57.1612 87.6065H57.0817C56.7486 86.7713 56.0476 86.2642 55.0284 86.2642C54.0192 86.2642 53.2685 86.7663 52.9503 87.6065H52.8558V86.3636H51.429V94ZM67.0932 94.1541C68.7587 94.1541 69.937 93.3338 70.275 92.0909L68.8681 91.8374C68.5996 92.5582 67.9533 92.9261 67.1081 92.9261C65.8354 92.9261 64.9803 92.1009 64.9405 90.6293H70.3695V90.1023C70.3695 87.343 68.7189 86.2642 66.9888 86.2642C64.861 86.2642 63.459 87.8849 63.459 90.2315C63.459 92.603 64.8411 94.1541 67.0932 94.1541ZM64.9455 89.5156C65.0051 88.4318 65.7907 87.4922 66.9988 87.4922C68.1522 87.4922 68.9078 88.3473 68.9128 89.5156H64.9455Z" fill="#64778C"/>
<path d="M45.1186 120.818V131H46.5803V123.627H46.6747L49.6776 130.985H50.8906L53.8935 123.632H53.9879V131H55.4496V120.818H53.5852L50.3438 128.733H50.2244L46.983 120.818H45.1186ZM59.786 131.169C61.0488 131.169 61.7598 130.528 62.0431 129.956H62.1028V131H63.5545V125.929C63.5545 123.707 61.8045 123.264 60.5914 123.264C59.2093 123.264 57.9366 123.821 57.4395 125.213L58.8365 125.531C59.0552 124.989 59.612 124.467 60.6113 124.467C61.5708 124.467 62.063 124.969 62.063 125.835V125.869C62.063 126.411 61.5062 126.401 60.1341 126.56C58.6873 126.729 57.2058 127.107 57.2058 128.842C57.2058 130.344 58.3343 131.169 59.786 131.169ZM60.1092 129.976C59.269 129.976 58.6625 129.598 58.6625 128.862C58.6625 128.067 59.3684 127.783 60.2285 127.669C60.7108 127.604 61.8542 127.475 62.068 127.261V128.246C62.068 129.151 61.3471 129.976 60.1092 129.976ZM65.5344 131H67.021V126.337C67.021 125.337 67.7915 124.616 68.8455 124.616C69.1538 124.616 69.5018 124.671 69.6211 124.706V123.284C69.4719 123.264 69.1786 123.249 68.9897 123.249C68.0948 123.249 67.3292 123.756 67.0508 124.577H66.9712V123.364H65.5344V131ZM70.9075 131H72.394V123.364H70.9075V131ZM71.6582 122.185C72.1703 122.185 72.5978 121.788 72.5978 121.3C72.5978 120.813 72.1703 120.411 71.6582 120.411C71.1412 120.411 70.7186 120.813 70.7186 121.3C70.7186 121.788 71.1412 122.185 71.6582 122.185ZM76.6161 131.169C77.8789 131.169 78.5898 130.528 78.8732 129.956H78.9329V131H80.3846V125.929C80.3846 123.707 78.6346 123.264 77.4215 123.264C76.0394 123.264 74.7667 123.821 74.2695 125.213L75.6665 125.531C75.8853 124.989 76.4421 124.467 77.4414 124.467C78.4009 124.467 78.8931 124.969 78.8931 125.835V125.869C78.8931 126.411 78.3363 126.401 76.9641 126.56C75.5174 126.729 74.0359 127.107 74.0359 128.842C74.0359 130.344 75.1644 131.169 76.6161 131.169ZM76.9393 129.976C76.0991 129.976 75.4925 129.598 75.4925 128.862C75.4925 128.067 76.1985 127.783 77.0586 127.669C77.5408 127.604 78.6843 127.475 78.8981 127.261V128.246C78.8981 129.151 78.1772 129.976 76.9393 129.976ZM86.1889 120.818V131H87.6506V123.627H87.745L90.7479 130.985H91.9609L94.9638 123.632H95.0582V131H96.5199V120.818H94.6555L91.4141 128.733H91.2947L88.0533 120.818H86.1889ZM100.856 131.169C102.119 131.169 102.83 130.528 103.113 129.956H103.173V131H104.625V125.929C104.625 123.707 102.875 123.264 101.662 123.264C100.28 123.264 99.0069 123.821 98.5098 125.213L99.9068 125.531C100.126 124.989 100.682 124.467 101.682 124.467C102.641 124.467 103.133 124.969 103.133 125.835V125.869C103.133 126.411 102.577 126.401 101.204 126.56C99.7576 126.729 98.2761 127.107 98.2761 128.842C98.2761 130.344 99.4047 131.169 100.856 131.169ZM101.18 129.976C100.339 129.976 99.7328 129.598 99.7328 128.862C99.7328 128.067 100.439 127.783 101.299 127.669C101.781 127.604 102.925 127.475 103.138 127.261V128.246C103.138 129.151 102.417 129.976 101.18 129.976ZM108.091 126.466C108.091 125.248 108.862 124.552 109.921 124.552C110.945 124.552 111.556 125.203 111.556 126.322V131H113.043V126.143C113.043 124.239 111.999 123.264 110.428 123.264C109.24 123.264 108.524 123.781 108.166 124.607H108.071V120.818H106.605V131H108.091V126.466ZM117.249 131.169C118.512 131.169 119.223 130.528 119.506 129.956H119.566V131H121.017V125.929C121.017 123.707 119.267 123.264 118.054 123.264C116.672 123.264 115.4 123.821 114.902 125.213L116.299 125.531C116.518 124.989 117.075 124.467 118.074 124.467C119.034 124.467 119.526 124.969 119.526 125.835V125.869C119.526 126.411 118.969 126.401 117.597 126.56C116.15 126.729 114.669 127.107 114.669 128.842C114.669 130.344 115.797 131.169 117.249 131.169ZM117.572 129.976C116.732 129.976 116.125 129.598 116.125 128.862C116.125 128.067 116.831 127.783 117.691 127.669C118.174 127.604 119.317 127.475 119.531 127.261V128.246C119.531 129.151 118.81 129.976 117.572 129.976ZM124.484 126.466C124.484 125.248 125.23 124.552 126.264 124.552C127.273 124.552 127.884 125.213 127.884 126.322V131H129.371V126.143C129.371 124.254 128.332 123.264 126.771 123.264C125.622 123.264 124.872 123.796 124.519 124.607H124.424V123.364H122.997V131H124.484V126.466ZM131.365 131H132.851V123.364H131.365V131ZM132.115 122.185C132.627 122.185 133.055 121.788 133.055 121.3C133.055 120.813 132.627 120.411 132.115 120.411C131.598 120.411 131.176 120.813 131.176 121.3C131.176 121.788 131.598 122.185 132.115 122.185Z" fill="#37434F"/>
<rect x="32" y="106" width="167" height="41" stroke="#D8DFE5"/>
<path d="M45.1186 172H46.6548V167.56H51.7308V172H53.272V161.818H51.7308V166.243H46.6548V161.818H45.1186V172ZM57.6122 172.169C58.875 172.169 59.5859 171.528 59.8693 170.956H59.929V172H61.3807V166.929C61.3807 164.707 59.6307 164.264 58.4176 164.264C57.0355 164.264 55.7628 164.821 55.2656 166.213L56.6626 166.531C56.8814 165.989 57.4382 165.467 58.4375 165.467C59.397 165.467 59.8892 165.969 59.8892 166.835V166.869C59.8892 167.411 59.3324 167.401 57.9602 167.56C56.5135 167.729 55.032 168.107 55.032 169.842C55.032 171.344 56.1605 172.169 57.6122 172.169ZM57.9354 170.976C57.0952 170.976 56.4886 170.598 56.4886 169.862C56.4886 169.067 57.1946 168.783 58.0547 168.669C58.5369 168.604 59.6804 168.475 59.8942 168.261V169.246C59.8942 170.151 59.1733 170.976 57.9354 170.976ZM64.8471 167.466C64.8471 166.248 65.5929 165.552 66.627 165.552C67.6362 165.552 68.2477 166.213 68.2477 167.322V172H69.7342V167.143C69.7342 165.254 68.6951 164.264 67.1341 164.264C65.9856 164.264 65.2349 164.796 64.8819 165.607H64.7875V164.364H63.3606V172H64.8471V167.466ZM73.2143 167.466C73.2143 166.248 73.96 165.552 74.9941 165.552C76.0034 165.552 76.6149 166.213 76.6149 167.322V172H78.1014V167.143C78.1014 165.254 77.0623 164.264 75.5012 164.264C74.3528 164.264 73.6021 164.796 73.2491 165.607H73.1547V164.364H71.7278V172H73.2143V167.466ZM82.3173 172.169C83.5801 172.169 84.291 171.528 84.5744 170.956H84.6341V172H86.0858V166.929C86.0858 164.707 84.3358 164.264 83.1227 164.264C81.7406 164.264 80.4679 164.821 79.9707 166.213L81.3677 166.531C81.5865 165.989 82.1433 165.467 83.1426 165.467C84.1021 165.467 84.5943 165.969 84.5943 166.835V166.869C84.5943 167.411 84.0375 167.401 82.6653 167.56C81.2186 167.729 79.737 168.107 79.737 169.842C79.737 171.344 80.8656 172.169 82.3173 172.169ZM82.6404 170.976C81.8002 170.976 81.1937 170.598 81.1937 169.862C81.1937 169.067 81.8997 168.783 82.7598 168.669C83.242 168.604 84.3855 168.475 84.5993 168.261V169.246C84.5993 170.151 83.8784 170.976 82.6404 170.976ZM89.5522 167.466C89.5522 166.248 90.3228 165.552 91.3817 165.552C92.4059 165.552 93.0174 166.203 93.0174 167.322V172H94.5039V167.143C94.5039 165.239 93.4599 164.264 91.8888 164.264C90.7006 164.264 89.9847 164.781 89.6268 165.607H89.5323V161.818H88.0657V172H89.5522V167.466ZM100.312 161.818V172H101.774V164.627H101.868L104.871 171.985H106.084L109.087 164.632H109.181V172H110.643V161.818H108.779L105.537 169.733H105.418L102.176 161.818H100.312ZM112.757 172H114.244V164.364H112.757V172ZM113.508 163.185C114.02 163.185 114.447 162.788 114.447 162.3C114.447 161.813 114.02 161.411 113.508 161.411C112.991 161.411 112.568 161.813 112.568 162.3C112.568 162.788 112.991 163.185 113.508 163.185ZM117.73 161.818H116.243V172H117.73V161.818ZM121.216 161.818H119.73V172H121.216V161.818ZM123.216 172H124.703V164.364H123.216V172ZM123.967 163.185C124.479 163.185 124.906 162.788 124.906 162.3C124.906 161.813 124.479 161.411 123.967 161.411C123.45 161.411 123.027 161.813 123.027 162.3C123.027 162.788 123.45 163.185 123.967 163.185ZM129.994 172.154C131.659 172.154 132.837 171.334 133.175 170.091L131.768 169.837C131.5 170.558 130.854 170.926 130.009 170.926C128.736 170.926 127.881 170.101 127.841 168.629H133.27V168.102C133.27 165.343 131.619 164.264 129.889 164.264C127.761 164.264 126.359 165.885 126.359 168.232C126.359 170.603 127.741 172.154 129.994 172.154ZM127.846 167.516C127.906 166.432 128.691 165.492 129.899 165.492C131.053 165.492 131.808 166.347 131.813 167.516H127.846ZM139.419 167.053H134.904V168.341H139.419V167.053ZM139.845 161.818L143.539 168.003V172H145.07V168.003L148.764 161.818H147.019L144.359 166.447H144.25L141.59 161.818H139.845ZM151.169 172.169C152.432 172.169 153.143 171.528 153.426 170.956H153.486V172H154.937V166.929C154.937 164.707 153.187 164.264 151.974 164.264C150.592 164.264 149.319 164.821 148.822 166.213L150.219 166.531C150.438 165.989 150.995 165.467 151.994 165.467C152.954 165.467 153.446 165.969 153.446 166.835V166.869C153.446 167.411 152.889 167.401 151.517 167.56C150.07 167.729 148.589 168.107 148.589 169.842C148.589 171.344 149.717 172.169 151.169 172.169ZM151.492 170.976C150.652 170.976 150.045 170.598 150.045 169.862C150.045 169.067 150.751 168.783 151.611 168.669C152.094 168.604 153.237 168.475 153.451 168.261V169.246C153.451 170.151 152.73 170.976 151.492 170.976ZM160.482 164.364H158.916V162.534H157.429V164.364H156.311V165.557H157.429V170.066C157.424 171.453 158.483 172.124 159.657 172.099C160.129 172.094 160.447 172.005 160.621 171.94L160.353 170.712C160.253 170.732 160.069 170.777 159.831 170.777C159.348 170.777 158.916 170.618 158.916 169.758V165.557H160.482V164.364ZM165.335 172.154C167.001 172.154 168.179 171.334 168.517 170.091L167.11 169.837C166.842 170.558 166.195 170.926 165.35 170.926C164.078 170.926 163.222 170.101 163.183 168.629H168.612V168.102C168.612 165.343 166.961 164.264 165.231 164.264C163.103 164.264 161.701 165.885 161.701 168.232C161.701 170.603 163.083 172.154 165.335 172.154ZM163.188 167.516C163.247 166.432 164.033 165.492 165.241 165.492C166.394 165.492 167.15 166.347 167.155 167.516H163.188ZM175.983 166.228C175.675 165.04 174.745 164.264 173.095 164.264C171.37 164.264 170.147 165.174 170.147 166.526C170.147 167.61 170.803 168.331 172.235 168.649L173.527 168.933C174.263 169.097 174.606 169.425 174.606 169.902C174.606 170.494 173.975 170.956 173 170.956C172.11 170.956 171.539 170.573 171.36 169.822L169.923 170.041C170.172 171.393 171.295 172.154 173.01 172.154C174.855 172.154 176.132 171.175 176.132 169.793C176.132 168.714 175.446 168.048 174.044 167.724L172.831 167.446C171.991 167.247 171.628 166.964 171.633 166.447C171.628 165.86 172.265 165.442 173.11 165.442C174.034 165.442 174.462 165.955 174.636 166.467L175.983 166.228Z" fill="#37434F"/>
<rect x="32" y="147" width="167" height="41" stroke="#D8DFE5"/>
<path d="M45.1186 213H46.6548V208.56H50.9801V207.243H46.6548V204.141H51.4325V202.818H45.1186V213ZM54.6889 202.818H53.2024V213H54.6889V202.818ZM59.9054 213.154C62.0581 213.154 63.465 211.578 63.465 209.217C63.465 206.84 62.0581 205.264 59.9054 205.264C57.7527 205.264 56.3457 206.84 56.3457 209.217C56.3457 211.578 57.7527 213.154 59.9054 213.154ZM59.9103 211.906C58.5034 211.906 57.8471 210.678 57.8471 209.212C57.8471 207.75 58.5034 206.507 59.9103 206.507C61.3074 206.507 61.9636 207.75 61.9636 209.212C61.9636 210.678 61.3074 211.906 59.9103 211.906ZM65.1243 213H66.6108V208.337C66.6108 207.337 67.3814 206.616 68.4354 206.616C68.7436 206.616 69.0916 206.671 69.2109 206.706V205.284C69.0618 205.264 68.7685 205.249 68.5795 205.249C67.6847 205.249 66.919 205.756 66.6406 206.577H66.5611V205.364H65.1243V213ZM73.5151 213.154C75.1806 213.154 76.3588 212.334 76.6969 211.091L75.29 210.837C75.0215 211.558 74.3752 211.926 73.53 211.926C72.2573 211.926 71.4022 211.101 71.3624 209.629H76.7914V209.102C76.7914 206.343 75.1408 205.264 73.4107 205.264C71.2828 205.264 69.8809 206.885 69.8809 209.232C69.8809 211.603 71.263 213.154 73.5151 213.154ZM71.3674 208.516C71.427 207.432 72.2125 206.492 73.4206 206.492C74.574 206.492 75.3297 207.347 75.3347 208.516H71.3674ZM79.9272 208.466C79.9272 207.248 80.6729 206.552 81.707 206.552C82.7163 206.552 83.3278 207.213 83.3278 208.322V213H84.8143V208.143C84.8143 206.254 83.7752 205.264 82.2141 205.264C81.0657 205.264 80.315 205.796 79.962 206.607H79.8675V205.364H78.4407V213H79.9272V208.466ZM90.0245 213.154C91.8292 213.154 92.9975 212.07 93.1616 210.584H91.7148C91.5259 211.409 90.8846 211.896 90.0344 211.896C88.7766 211.896 87.9663 210.847 87.9663 209.182C87.9663 207.546 88.7915 206.517 90.0344 206.517C90.979 206.517 91.5558 207.114 91.7148 207.83H93.1616C93.0025 206.288 91.7447 205.264 90.0096 205.264C87.8569 205.264 86.4648 206.885 86.4648 209.217C86.4648 211.518 87.8072 213.154 90.0245 213.154ZM98.0424 213.154C99.7079 213.154 100.886 212.334 101.224 211.091L99.8173 210.837C99.5488 211.558 98.9025 211.926 98.0574 211.926C96.7846 211.926 95.9295 211.101 95.8897 209.629H101.319V209.102C101.319 206.343 99.6681 205.264 97.938 205.264C95.8102 205.264 94.4082 206.885 94.4082 209.232C94.4082 211.603 95.7903 213.154 98.0424 213.154ZM95.8947 208.516C95.9544 207.432 96.7399 206.492 97.948 206.492C99.1014 206.492 99.8571 207.347 99.862 208.516H95.8947ZM106.792 202.818V213H108.254V205.627H108.349L111.351 212.985H112.564L115.567 205.632H115.662V213H117.123V202.818H115.259L112.018 210.733H111.898L108.657 202.818H106.792ZM121.46 213.169C122.723 213.169 123.434 212.528 123.717 211.956H123.777V213H125.228V207.929C125.228 205.707 123.478 205.264 122.265 205.264C120.883 205.264 119.61 205.821 119.113 207.213L120.51 207.531C120.729 206.989 121.286 206.467 122.285 206.467C123.245 206.467 123.737 206.969 123.737 207.835V207.869C123.737 208.411 123.18 208.401 121.808 208.56C120.361 208.729 118.88 209.107 118.88 210.842C118.88 212.344 120.008 213.169 121.46 213.169ZM121.783 211.976C120.943 211.976 120.336 211.598 120.336 210.862C120.336 210.067 121.042 209.783 121.902 209.669C122.385 209.604 123.528 209.475 123.742 209.261V210.246C123.742 211.151 123.021 211.976 121.783 211.976ZM127.208 213H128.695V208.337C128.695 207.337 129.465 206.616 130.519 206.616C130.828 206.616 131.176 206.671 131.295 206.706V205.284C131.146 205.264 130.852 205.249 130.664 205.249C129.769 205.249 129.003 205.756 128.725 206.577H128.645V205.364H127.208V213ZM132.581 213H134.068V205.364H132.581V213ZM133.332 204.185C133.844 204.185 134.272 203.788 134.272 203.3C134.272 202.813 133.844 202.411 133.332 202.411C132.815 202.411 132.392 202.813 132.392 203.3C132.392 203.788 132.815 204.185 133.332 204.185ZM139.269 216.023C141.213 216.023 142.715 215.133 142.715 213.169V205.364H141.258V206.602H141.149C140.885 206.129 140.358 205.264 138.936 205.264C137.092 205.264 135.735 206.721 135.735 209.152C135.735 211.588 137.122 212.886 138.926 212.886C140.328 212.886 140.87 212.095 141.139 211.608H141.233V213.109C141.233 214.308 140.413 214.825 139.284 214.825C138.046 214.825 137.564 214.203 137.301 213.766L136.023 214.293C136.426 215.227 137.445 216.023 139.269 216.023ZM139.254 211.653C137.927 211.653 137.236 210.634 137.236 209.132C137.236 207.665 137.912 206.527 139.254 206.527C140.552 206.527 141.248 207.586 141.248 209.132C141.248 210.708 140.537 211.653 139.254 211.653ZM147.925 213.154C150.078 213.154 151.485 211.578 151.485 209.217C151.485 206.84 150.078 205.264 147.925 205.264C145.772 205.264 144.365 206.84 144.365 209.217C144.365 211.578 145.772 213.154 147.925 213.154ZM147.93 211.906C146.523 211.906 145.867 210.678 145.867 209.212C145.867 207.75 146.523 206.507 147.93 206.507C149.327 206.507 149.983 207.75 149.983 209.212C149.983 210.678 149.327 211.906 147.93 211.906ZM154.63 202.818H153.144V213H154.63V202.818ZM159.489 213.149C160.881 213.149 161.428 212.299 161.696 211.812H161.82V213H163.272V202.818H161.786V206.602H161.696C161.428 206.129 160.921 205.264 159.499 205.264C157.654 205.264 156.297 206.721 156.297 209.197C156.297 211.668 157.634 213.149 159.489 213.149ZM159.817 211.881C158.49 211.881 157.798 210.713 157.798 209.182C157.798 207.665 158.475 206.527 159.817 206.527C161.115 206.527 161.811 207.586 161.811 209.182C161.811 210.788 161.1 211.881 159.817 211.881Z" fill="#37434F"/>
<rect x="32" y="188" width="167" height="41" stroke="#D8DFE5"/>
<path d="M53.3366 243.818H51.8153V251.295H51.7209L46.5405 243.818H45.1186V254H46.6548V246.533H46.7493L51.9247 254H53.3366V243.818ZM55.4583 254H56.9448V246.364H55.4583V254ZM56.209 245.185C56.7211 245.185 57.1486 244.788 57.1486 244.3C57.1486 243.813 56.7211 243.411 56.209 243.411C55.6919 243.411 55.2694 243.813 55.2694 244.3C55.2694 244.788 55.6919 245.185 56.209 245.185ZM60.4311 243.818H58.9446V254H60.4311V243.818ZM65.7221 254.154C67.3876 254.154 68.5659 253.334 68.9039 252.091L67.497 251.837C67.2285 252.558 66.5822 252.926 65.737 252.926C64.4643 252.926 63.6092 252.101 63.5694 250.629H68.9984V250.102C68.9984 247.343 67.3478 246.264 65.6177 246.264C63.4899 246.264 62.0879 247.885 62.0879 250.232C62.0879 252.603 63.47 254.154 65.7221 254.154ZM63.5744 249.516C63.6341 248.432 64.4196 247.492 65.6277 247.492C66.7811 247.492 67.5368 248.347 67.5417 249.516H63.5744ZM76.37 248.228C76.0618 247.04 75.1321 246.264 73.4815 246.264C71.7564 246.264 70.5334 247.174 70.5334 248.526C70.5334 249.61 71.1896 250.331 72.6214 250.649L73.9141 250.933C74.6499 251.097 74.9929 251.425 74.9929 251.902C74.9929 252.494 74.3615 252.956 73.3871 252.956C72.4972 252.956 71.9254 252.573 71.7464 251.822L70.3097 252.041C70.5582 253.393 71.6818 254.154 73.397 254.154C75.2415 254.154 76.5192 253.175 76.5192 251.793C76.5192 250.714 75.8331 250.048 74.4311 249.724L73.218 249.446C72.3778 249.247 72.0149 248.964 72.0199 248.447C72.0149 247.86 72.6513 247.442 73.4964 247.442C74.4212 247.442 74.8487 247.955 75.0227 248.467L76.37 248.228ZM81.978 254H83.5142V250.42H85.6023C87.9638 250.42 89.1321 248.994 89.1321 247.114C89.1321 245.24 87.9737 243.818 85.6072 243.818H81.978V254ZM83.5142 249.118V245.136H85.4432C86.9645 245.136 87.5859 245.961 87.5859 247.114C87.5859 248.268 86.9645 249.118 85.4631 249.118H83.5142ZM94.0092 254.154C95.6747 254.154 96.853 253.334 97.1911 252.091L95.7841 251.837C95.5156 252.558 94.8693 252.926 94.0241 252.926C92.7514 252.926 91.8963 252.101 91.8565 250.629H97.2855V250.102C97.2855 247.343 95.6349 246.264 93.9048 246.264C91.777 246.264 90.375 247.885 90.375 250.232C90.375 252.603 91.7571 254.154 94.0092 254.154ZM91.8615 249.516C91.9212 248.432 92.7067 247.492 93.9148 247.492C95.0682 247.492 95.8239 248.347 95.8288 249.516H91.8615ZM98.9348 256.864H100.421V252.812H100.511C100.779 253.299 101.326 254.149 102.718 254.149C104.568 254.149 105.91 252.668 105.91 250.197C105.91 247.721 104.548 246.264 102.703 246.264C101.286 246.264 100.774 247.129 100.511 247.602H100.387V246.364H98.9348V256.864ZM100.392 250.182C100.392 248.586 101.088 247.527 102.385 247.527C103.732 247.527 104.409 248.665 104.409 250.182C104.409 251.713 103.713 252.881 102.385 252.881C101.107 252.881 100.392 251.788 100.392 250.182ZM107.575 256.864H109.062V252.812H109.151C109.42 253.299 109.967 254.149 111.359 254.149C113.208 254.149 114.551 252.668 114.551 250.197C114.551 247.721 113.188 246.264 111.344 246.264C109.927 246.264 109.415 247.129 109.151 247.602H109.027V246.364H107.575V256.864ZM109.032 250.182C109.032 248.586 109.728 247.527 111.026 247.527C112.373 247.527 113.049 248.665 113.049 250.182C113.049 251.713 112.353 252.881 111.026 252.881C109.748 252.881 109.032 251.788 109.032 250.182ZM119.507 254.154C121.173 254.154 122.351 253.334 122.689 252.091L121.282 251.837C121.014 252.558 120.367 252.926 119.522 252.926C118.249 252.926 117.394 252.101 117.355 250.629H122.784V250.102C122.784 247.343 121.133 246.264 119.403 246.264C117.275 246.264 115.873 247.885 115.873 250.232C115.873 252.603 117.255 254.154 119.507 254.154ZM117.36 249.516C117.419 248.432 118.205 247.492 119.413 247.492C120.566 247.492 121.322 248.347 121.327 249.516H117.36ZM124.433 254H125.919V249.337C125.919 248.337 126.69 247.616 127.744 247.616C128.052 247.616 128.4 247.671 128.52 247.706V246.284C128.37 246.264 128.077 246.249 127.888 246.249C126.993 246.249 126.228 246.756 125.949 247.577H125.87V246.364H124.433V254ZM133.822 246.364H132.256V244.534H130.769V246.364H129.651V247.557H130.769V252.066C130.764 253.453 131.823 254.124 132.996 254.099C133.469 254.094 133.787 254.005 133.961 253.94L133.692 252.712C133.593 252.732 133.409 252.777 133.17 252.777C132.688 252.777 132.256 252.618 132.256 251.758V247.557H133.822V246.364ZM135.466 254H136.953V249.337C136.953 248.337 137.723 247.616 138.777 247.616C139.085 247.616 139.433 247.671 139.553 247.706V246.284C139.404 246.264 139.11 246.249 138.921 246.249C138.026 246.249 137.261 246.756 136.982 247.577H136.903V246.364H135.466V254ZM143.782 254.154C145.935 254.154 147.342 252.578 147.342 250.217C147.342 247.84 145.935 246.264 143.782 246.264C141.63 246.264 140.223 247.84 140.223 250.217C140.223 252.578 141.63 254.154 143.782 254.154ZM143.787 252.906C142.38 252.906 141.724 251.678 141.724 250.212C141.724 248.75 142.38 247.507 143.787 247.507C145.184 247.507 145.841 248.75 145.841 250.212C145.841 251.678 145.184 252.906 143.787 252.906ZM153.839 250.833C153.844 252.131 152.879 252.747 152.044 252.747C151.124 252.747 150.488 252.081 150.488 251.042V246.364H149.001V251.221C149.001 253.115 150.04 254.099 151.507 254.099C152.655 254.099 153.436 253.493 153.789 252.678H153.868V254H155.33V246.364H153.839V250.833ZM160.892 246.364H159.326V244.534H157.839V246.364H156.721V247.557H157.839V252.066C157.835 253.453 158.893 254.124 160.067 254.099C160.539 254.094 160.857 254.005 161.031 253.94L160.763 252.712C160.663 252.732 160.479 252.777 160.241 252.777C159.759 252.777 159.326 252.618 159.326 251.758V247.557H160.892V246.364Z" fill="#37434F"/>
<rect x="32" y="229" width="167" height="41" stroke="#D8DFE5"/>
<rect width="208" height="197" transform="translate(199 73)" fill="white"/>
<path d="M200.119 94H206.562V92.6776H201.655V89.5604H206.169V88.2429H201.655V85.1406H206.502V83.8182H200.119V94ZM208.435 94H209.921V89.2919C209.921 88.2628 210.642 87.5469 211.487 87.5469C212.313 87.5469 212.884 88.0938 212.884 88.924V94H214.366V89.1328C214.366 88.2131 214.928 87.5469 215.897 87.5469C216.683 87.5469 217.329 87.9844 217.329 89.0185V94H218.816V88.8793C218.816 87.1342 217.841 86.2642 216.459 86.2642C215.36 86.2642 214.535 86.7912 214.167 87.6065H214.088C213.754 86.7713 213.053 86.2642 212.034 86.2642C211.025 86.2642 210.274 86.7663 209.956 87.6065H209.862V86.3636H208.435V94ZM223.03 94.169C224.293 94.169 225.004 93.5277 225.287 92.956H225.347V94H226.799V88.929C226.799 86.7067 225.049 86.2642 223.836 86.2642C222.453 86.2642 221.181 86.821 220.684 88.2131L222.081 88.5312C222.299 87.9893 222.856 87.4673 223.855 87.4673C224.815 87.4673 225.307 87.9695 225.307 88.8345V88.8693C225.307 89.4112 224.75 89.4013 223.378 89.5604C221.931 89.7294 220.45 90.1072 220.45 91.8423C220.45 93.3438 221.578 94.169 223.03 94.169ZM223.353 92.9759C222.513 92.9759 221.907 92.598 221.907 91.8622C221.907 91.0668 222.613 90.7834 223.473 90.669C223.955 90.6044 225.098 90.4751 225.312 90.2614V91.2457C225.312 92.1506 224.591 92.9759 223.353 92.9759ZM228.779 94H230.265V86.3636H228.779V94ZM229.529 85.1854C230.041 85.1854 230.469 84.7876 230.469 84.3004C230.469 83.8132 230.041 83.4105 229.529 83.4105C229.012 83.4105 228.59 83.8132 228.59 84.3004C228.59 84.7876 229.012 85.1854 229.529 85.1854ZM233.751 83.8182H232.265V94H233.751V83.8182Z" fill="#64778C"/>
<path d="M211.999 131H213.486V126.292C213.486 125.263 214.207 124.547 215.052 124.547C215.877 124.547 216.449 125.094 216.449 125.924V131H217.93V126.133C217.93 125.213 218.492 124.547 219.462 124.547C220.247 124.547 220.893 124.984 220.893 126.018V131H222.38V125.879C222.38 124.134 221.406 123.264 220.023 123.264C218.925 123.264 218.099 123.791 217.732 124.607H217.652C217.319 123.771 216.618 123.264 215.599 123.264C214.589 123.264 213.839 123.766 213.521 124.607H213.426V123.364H211.999V131ZM226.595 131.169C227.857 131.169 228.568 130.528 228.852 129.956H228.911V131H230.363V125.929C230.363 123.707 228.613 123.264 227.4 123.264C226.018 123.264 224.745 123.821 224.248 125.213L225.645 125.531C225.864 124.989 226.421 124.467 227.42 124.467C228.379 124.467 228.872 124.969 228.872 125.835V125.869C228.872 126.411 228.315 126.401 226.943 126.56C225.496 126.729 224.014 127.107 224.014 128.842C224.014 130.344 225.143 131.169 226.595 131.169ZM226.918 129.976C226.078 129.976 225.471 129.598 225.471 128.862C225.471 128.067 226.177 127.783 227.037 127.669C227.519 127.604 228.663 127.475 228.877 127.261V128.246C228.877 129.151 228.156 129.976 226.918 129.976ZM233.83 126.466C233.83 125.248 234.6 124.552 235.659 124.552C236.683 124.552 237.295 125.203 237.295 126.322V131H238.781V126.143C238.781 124.239 237.737 123.264 236.166 123.264C234.978 123.264 234.262 123.781 233.904 124.607H233.81V120.818H232.343V131H233.83V126.466ZM242.987 131.169C244.25 131.169 244.961 130.528 245.244 129.956H245.304V131H246.756V125.929C246.756 123.707 245.006 123.264 243.793 123.264C242.411 123.264 241.138 123.821 240.641 125.213L242.038 125.531C242.256 124.989 242.813 124.467 243.812 124.467C244.772 124.467 245.264 124.969 245.264 125.835V125.869C245.264 126.411 244.707 126.401 243.335 126.56C241.888 126.729 240.407 127.107 240.407 128.842C240.407 130.344 241.536 131.169 242.987 131.169ZM243.31 129.976C242.47 129.976 241.864 129.598 241.864 128.862C241.864 128.067 242.57 127.783 243.43 127.669C243.912 127.604 245.055 127.475 245.269 127.261V128.246C245.269 129.151 244.548 129.976 243.31 129.976ZM250.222 126.466C250.222 125.248 250.968 124.552 252.002 124.552C253.011 124.552 253.623 125.213 253.623 126.322V131H255.109V126.143C255.109 124.254 254.07 123.264 252.509 123.264C251.361 123.264 250.61 123.796 250.257 124.607H250.162V123.364H248.736V131H250.222V126.466ZM257.103 131H258.589V123.364H257.103V131ZM257.854 122.185C258.366 122.185 258.793 121.788 258.793 121.3C258.793 120.813 258.366 120.411 257.854 120.411C257.336 120.411 256.914 120.813 256.914 121.3C256.914 121.788 257.336 122.185 257.854 122.185ZM266.719 133.769C267.868 133.769 269.195 133.456 269.811 133.168L269.463 132.079C269.046 132.228 267.897 132.591 266.784 132.591C263.438 132.591 261.643 130.746 261.643 127.445C261.643 124.283 263.418 122.24 266.6 122.24C269.508 122.24 271.243 124.109 271.238 126.635C271.243 128.793 270.965 129.762 270.06 129.762C269.548 129.762 269.265 129.344 269.265 128.822V124.209H268.042V124.766H267.977C267.828 124.328 266.963 123.935 265.924 124.06C264.487 124.229 263.254 125.417 263.254 127.376C263.254 129.419 264.298 130.786 265.973 130.851C267.107 130.901 267.843 130.374 268.076 129.787H268.136C268.255 130.587 269.12 130.94 269.971 130.911C272.093 130.871 272.496 128.783 272.496 126.685C272.496 123.692 270.448 121.087 266.65 121.087C262.667 121.087 260.326 123.518 260.321 127.435C260.326 131.467 262.608 133.769 266.719 133.769ZM266.262 129.633C264.964 129.633 264.517 128.519 264.512 127.316C264.517 126.173 265.158 125.263 266.282 125.263C267.5 125.263 268.047 125.8 268.051 127.311C268.056 128.862 267.554 129.633 266.262 129.633ZM274.138 131H275.624V123.364H274.138V131ZM274.889 122.185C275.401 122.185 275.828 121.788 275.828 121.3C275.828 120.813 275.401 120.411 274.889 120.411C274.372 120.411 273.949 120.813 273.949 121.3C273.949 121.788 274.372 122.185 274.889 122.185ZM279.111 126.466C279.111 125.248 279.857 124.552 280.891 124.552C281.9 124.552 282.511 125.213 282.511 126.322V131H283.998V126.143C283.998 124.254 282.959 123.264 281.398 123.264C280.249 123.264 279.499 123.796 279.146 124.607H279.051V123.364H277.624V131H279.111V126.466ZM286.111 131H287.562V129.812H287.687C287.955 130.299 288.502 131.149 289.894 131.149C291.744 131.149 293.086 129.668 293.086 127.197C293.086 124.721 291.724 123.264 289.879 123.264C288.462 123.264 287.95 124.129 287.687 124.602H287.597V120.818H286.111V131ZM287.567 127.182C287.567 125.586 288.263 124.527 289.561 124.527C290.908 124.527 291.585 125.665 291.585 127.182C291.585 128.713 290.888 129.881 289.561 129.881C288.283 129.881 287.567 128.788 287.567 127.182ZM297.972 131.154C300.124 131.154 301.531 129.578 301.531 127.217C301.531 124.84 300.124 123.264 297.972 123.264C295.819 123.264 294.412 124.84 294.412 127.217C294.412 129.578 295.819 131.154 297.972 131.154ZM297.977 129.906C296.57 129.906 295.914 128.678 295.914 127.212C295.914 125.75 296.57 124.507 297.977 124.507C299.374 124.507 300.03 125.75 300.03 127.212C300.03 128.678 299.374 129.906 297.977 129.906ZM304.05 123.364H302.419L304.765 127.182L302.389 131H304.02L305.735 128.146L307.455 131H309.081L306.68 127.182L309.061 123.364H307.435L305.735 126.337L304.05 123.364ZM311.567 131.094C312.108 131.094 312.561 130.652 312.561 130.1C312.561 129.558 312.108 129.111 311.567 129.111C311.02 129.111 310.572 129.558 310.572 130.1C310.572 130.652 311.02 131.094 311.567 131.094ZM317.769 131.154C319.573 131.154 320.742 130.07 320.906 128.584H319.459C319.27 129.409 318.629 129.896 317.779 129.896C316.521 129.896 315.71 128.847 315.71 127.182C315.71 125.546 316.536 124.517 317.779 124.517C318.723 124.517 319.3 125.114 319.459 125.83H320.906C320.747 124.288 319.489 123.264 317.754 123.264C315.601 123.264 314.209 124.885 314.209 127.217C314.209 129.518 315.551 131.154 317.769 131.154ZM325.712 131.154C327.865 131.154 329.272 129.578 329.272 127.217C329.272 124.84 327.865 123.264 325.712 123.264C323.559 123.264 322.152 124.84 322.152 127.217C322.152 129.578 323.559 131.154 325.712 131.154ZM325.717 129.906C324.31 129.906 323.654 128.678 323.654 127.212C323.654 125.75 324.31 124.507 325.717 124.507C327.114 124.507 327.77 125.75 327.77 127.212C327.77 128.678 327.114 129.906 325.717 129.906ZM330.931 131H332.417V126.292C332.417 125.263 333.138 124.547 333.983 124.547C334.809 124.547 335.381 125.094 335.381 125.924V131H336.862V126.133C336.862 125.213 337.424 124.547 338.393 124.547C339.179 124.547 339.825 124.984 339.825 126.018V131H341.312V125.879C341.312 124.134 340.337 123.264 338.955 123.264C337.856 123.264 337.031 123.791 336.663 124.607H336.584C336.251 123.771 335.55 123.264 334.53 123.264C333.521 123.264 332.77 123.766 332.452 124.607H332.358V123.364H330.931V131Z" fill="#64778C"/>
<a href="mailto:mahani@inbox.com">
<rect fill="black" fill-opacity="0" y="-0.971591" width="131.301" height="16.9432"/>
</a>
<rect x="199" y="106" width="208" height="41" stroke="#D8DFE5"/>
<path d="M213.486 167.466C213.486 166.248 214.256 165.552 215.315 165.552C216.339 165.552 216.951 166.203 216.951 167.322V172H218.438V167.143C218.438 165.239 217.393 164.264 215.822 164.264C214.634 164.264 213.918 164.781 213.56 165.607H213.466V161.818H211.999V172H213.486V167.466ZM221.087 174.864C222.315 174.864 223.091 174.222 223.533 173.019L226.69 164.379L225.085 164.364L223.151 170.29H223.071L221.137 164.364H219.546L222.34 172.099L222.156 172.607C221.778 173.621 221.246 173.705 220.431 173.482L220.073 174.7C220.252 174.779 220.64 174.864 221.087 174.864ZM230.081 172.169C231.344 172.169 232.055 171.528 232.338 170.956H232.398V172H233.849V166.929C233.849 164.707 232.099 164.264 230.886 164.264C229.504 164.264 228.232 164.821 227.734 166.213L229.131 166.531C229.35 165.989 229.907 165.467 230.906 165.467C231.866 165.467 232.358 165.969 232.358 166.835V166.869C232.358 167.411 231.801 167.401 230.429 167.56C228.982 167.729 227.501 168.107 227.501 169.842C227.501 171.344 228.629 172.169 230.081 172.169ZM230.404 170.976C229.564 170.976 228.957 170.598 228.957 169.862C228.957 169.067 229.663 168.783 230.523 168.669C231.006 168.604 232.149 168.475 232.363 168.261V169.246C232.363 170.151 231.642 170.976 230.404 170.976ZM239.394 164.364H237.828V162.534H236.341V164.364H235.223V165.557H236.341V170.066C236.336 171.453 237.395 172.124 238.569 172.099C239.041 172.094 239.359 172.005 239.533 171.94L239.265 170.712C239.165 170.732 238.981 170.777 238.743 170.777C238.26 170.777 237.828 170.618 237.828 169.758V165.557H239.394V164.364ZM244.248 172.154C245.913 172.154 247.091 171.334 247.429 170.091L246.022 169.837C245.754 170.558 245.108 170.926 244.262 170.926C242.99 170.926 242.135 170.101 242.095 168.629H247.524V168.102C247.524 165.343 245.873 164.264 244.143 164.264C242.015 164.264 240.613 165.885 240.613 168.232C240.613 170.603 241.995 172.154 244.248 172.154ZM242.1 167.516C242.159 166.432 242.945 165.492 244.153 165.492C245.306 165.492 246.062 166.347 246.067 167.516H242.1ZM254.895 166.228C254.587 165.04 253.657 164.264 252.007 164.264C250.282 164.264 249.059 165.174 249.059 166.526C249.059 167.61 249.715 168.331 251.147 168.649L252.439 168.933C253.175 169.097 253.518 169.425 253.518 169.902C253.518 170.494 252.887 170.956 251.912 170.956C251.023 170.956 250.451 170.573 250.272 169.822L248.835 170.041C249.084 171.393 250.207 172.154 251.922 172.154C253.767 172.154 255.045 171.175 255.045 169.793C255.045 168.714 254.358 168.048 252.956 167.724L251.743 167.446C250.903 167.247 250.54 166.964 250.545 166.447C250.54 165.86 251.177 165.442 252.022 165.442C252.947 165.442 253.374 165.955 253.548 166.467L254.895 166.228ZM262.809 174.769C263.957 174.769 265.285 174.456 265.901 174.168L265.553 173.079C265.136 173.228 263.987 173.591 262.874 173.591C259.528 173.591 257.733 171.746 257.733 168.445C257.733 165.283 259.508 163.24 262.69 163.24C265.598 163.24 267.333 165.109 267.328 167.635C267.333 169.793 267.055 170.762 266.15 170.762C265.638 170.762 265.354 170.344 265.354 169.822V165.209H264.131V165.766H264.067C263.918 165.328 263.053 164.935 262.013 165.06C260.577 165.229 259.344 166.417 259.344 168.376C259.344 170.419 260.388 171.786 262.063 171.851C263.197 171.901 263.933 171.374 264.166 170.787H264.226C264.345 171.587 265.21 171.94 266.06 171.911C268.183 171.871 268.586 169.783 268.586 167.685C268.586 164.692 266.538 162.087 262.739 162.087C258.757 162.087 256.415 164.518 256.411 168.435C256.415 172.467 258.697 174.769 262.809 174.769ZM262.352 170.633C261.054 170.633 260.607 169.519 260.602 168.316C260.607 167.173 261.248 166.263 262.371 166.263C263.589 166.263 264.136 166.8 264.141 168.311C264.146 169.862 263.644 170.633 262.352 170.633ZM270.347 172H271.799V170.812H271.923C272.192 171.299 272.738 172.149 274.131 172.149C275.98 172.149 277.322 170.668 277.322 168.197C277.322 165.721 275.96 164.264 274.116 164.264C272.699 164.264 272.187 165.129 271.923 165.602H271.834V161.818H270.347V172ZM271.804 168.182C271.804 166.586 272.5 165.527 273.797 165.527C275.145 165.527 275.821 166.665 275.821 168.182C275.821 169.713 275.125 170.881 273.797 170.881C272.52 170.881 271.804 169.788 271.804 168.182ZM280.478 161.818H278.991V172H280.478V161.818ZM285.694 172.154C287.847 172.154 289.254 170.578 289.254 168.217C289.254 165.84 287.847 164.264 285.694 164.264C283.542 164.264 282.135 165.84 282.135 168.217C282.135 170.578 283.542 172.154 285.694 172.154ZM285.699 170.906C284.292 170.906 283.636 169.678 283.636 168.212C283.636 166.75 284.292 165.507 285.699 165.507C287.096 165.507 287.753 166.75 287.753 168.212C287.753 169.678 287.096 170.906 285.699 170.906ZM294.13 172.154C295.935 172.154 297.103 171.07 297.267 169.584H295.82C295.631 170.409 294.99 170.896 294.14 170.896C292.882 170.896 292.072 169.847 292.072 168.182C292.072 166.546 292.897 165.517 294.14 165.517C295.085 165.517 295.661 166.114 295.82 166.83H297.267C297.108 165.288 295.85 164.264 294.115 164.264C291.962 164.264 290.57 165.885 290.57 168.217C290.57 170.518 291.913 172.154 294.13 172.154ZM298.857 172H300.343V169.29L301.084 168.55L303.679 172H305.504L302.203 167.64L305.295 164.364H303.515L300.472 167.595H300.343V161.818H298.857V172ZM307.629 172.094C308.171 172.094 308.623 171.652 308.623 171.1C308.623 170.558 308.171 170.111 307.629 170.111C307.082 170.111 306.635 170.558 306.635 171.1C306.635 171.652 307.082 172.094 307.629 172.094ZM313.831 172.154C315.636 172.154 316.804 171.07 316.968 169.584H315.521C315.333 170.409 314.691 170.896 313.841 170.896C312.583 170.896 311.773 169.847 311.773 168.182C311.773 166.546 312.598 165.517 313.841 165.517C314.786 165.517 315.362 166.114 315.521 166.83H316.968C316.809 165.288 315.551 164.264 313.816 164.264C311.664 164.264 310.271 165.885 310.271 168.217C310.271 170.518 311.614 172.154 313.831 172.154ZM321.775 172.154C323.927 172.154 325.334 170.578 325.334 168.217C325.334 165.84 323.927 164.264 321.775 164.264C319.622 164.264 318.215 165.84 318.215 168.217C318.215 170.578 319.622 172.154 321.775 172.154ZM321.779 170.906C320.373 170.906 319.716 169.678 319.716 168.212C319.716 166.75 320.373 165.507 321.779 165.507C323.176 165.507 323.833 166.75 323.833 168.212C323.833 169.678 323.176 170.906 321.779 170.906ZM326.993 172H328.48V167.292C328.48 166.263 329.201 165.547 330.046 165.547C330.871 165.547 331.443 166.094 331.443 166.924V172H332.925V167.133C332.925 166.213 333.486 165.547 334.456 165.547C335.241 165.547 335.888 165.984 335.888 167.018V172H337.374V166.879C337.374 165.134 336.4 164.264 335.018 164.264C333.919 164.264 333.094 164.791 332.726 165.607H332.646C332.313 164.771 331.612 164.264 330.593 164.264C329.584 164.264 328.833 164.766 328.515 165.607H328.42V164.364H326.993V172Z" fill="#64778C"/>
<a href="mailto:hyates@block.com">
<rect fill="black" fill-opacity="0" y="-0.971591" width="127.363" height="16.9432"/>
</a>
<rect x="199" y="147" width="208" height="41" stroke="#D8DFE5"/>
<path d="M211.999 213H213.486V208.292C213.486 207.263 214.207 206.547 215.052 206.547C215.877 206.547 216.449 207.094 216.449 207.924V213H217.93V208.133C217.93 207.213 218.492 206.547 219.462 206.547C220.247 206.547 220.893 206.984 220.893 208.018V213H222.38V207.879C222.38 206.134 221.406 205.264 220.023 205.264C218.925 205.264 218.099 205.791 217.732 206.607H217.652C217.319 205.771 216.618 205.264 215.599 205.264C214.589 205.264 213.839 205.766 213.521 206.607H213.426V205.364H211.999V213ZM226.595 213.169C227.857 213.169 228.568 212.528 228.852 211.956H228.911V213H230.363V207.929C230.363 205.707 228.613 205.264 227.4 205.264C226.018 205.264 224.745 205.821 224.248 207.213L225.645 207.531C225.864 206.989 226.421 206.467 227.42 206.467C228.379 206.467 228.872 206.969 228.872 207.835V207.869C228.872 208.411 228.315 208.401 226.943 208.56C225.496 208.729 224.014 209.107 224.014 210.842C224.014 212.344 225.143 213.169 226.595 213.169ZM226.918 211.976C226.078 211.976 225.471 211.598 225.471 210.862C225.471 210.067 226.177 209.783 227.037 209.669C227.519 209.604 228.663 209.475 228.877 209.261V210.246C228.877 211.151 228.156 211.976 226.918 211.976ZM232.343 213H233.83V208.337C233.83 207.337 234.6 206.616 235.654 206.616C235.962 206.616 236.31 206.671 236.43 206.706V205.284C236.281 205.264 235.987 205.249 235.798 205.249C234.903 205.249 234.138 205.756 233.859 206.577H233.78V205.364H232.343V213ZM237.716 213H239.203V205.364H237.716V213ZM238.467 204.185C238.979 204.185 239.406 203.788 239.406 203.3C239.406 202.813 238.979 202.411 238.467 202.411C237.95 202.411 237.527 202.813 237.527 203.3C237.527 203.788 237.95 204.185 238.467 204.185ZM244.404 216.023C246.348 216.023 247.849 215.133 247.849 213.169V205.364H246.393V206.602H246.283C246.02 206.129 245.493 205.264 244.071 205.264C242.227 205.264 240.869 206.721 240.869 209.152C240.869 211.588 242.256 212.886 244.061 212.886C245.463 212.886 246.005 212.095 246.273 211.608H246.368V213.109C246.368 214.308 245.548 214.825 244.419 214.825C243.181 214.825 242.699 214.203 242.435 213.766L241.158 214.293C241.56 215.227 242.58 216.023 244.404 216.023ZM244.389 211.653C243.062 211.653 242.371 210.634 242.371 209.132C242.371 207.665 243.047 206.527 244.389 206.527C245.687 206.527 246.383 207.586 246.383 209.132C246.383 210.708 245.672 211.653 244.389 211.653ZM253.06 213.154C255.212 213.154 256.619 211.578 256.619 209.217C256.619 206.84 255.212 205.264 253.06 205.264C250.907 205.264 249.5 206.84 249.5 209.217C249.5 211.578 250.907 213.154 253.06 213.154ZM253.065 211.906C251.658 211.906 251.001 210.678 251.001 209.212C251.001 207.75 251.658 206.507 253.065 206.507C254.462 206.507 255.118 207.75 255.118 209.212C255.118 210.678 254.462 211.906 253.065 211.906ZM259.765 202.818H258.279V213H259.765V202.818ZM264.624 213.149C266.016 213.149 266.562 212.299 266.831 211.812H266.955V213H268.407V202.818H266.92V206.602H266.831C266.562 206.129 266.055 205.264 264.634 205.264C262.789 205.264 261.432 206.721 261.432 209.197C261.432 211.668 262.769 213.149 264.624 213.149ZM264.952 211.881C263.624 211.881 262.933 210.713 262.933 209.182C262.933 207.665 263.609 206.527 264.952 206.527C266.249 206.527 266.945 207.586 266.945 209.182C266.945 210.788 266.234 211.881 264.952 211.881ZM276.659 215.769C277.807 215.769 279.134 215.456 279.751 215.168L279.403 214.079C278.985 214.228 277.837 214.591 276.723 214.591C273.377 214.591 271.583 212.746 271.583 209.445C271.583 206.283 273.357 204.24 276.539 204.24C279.448 204.24 281.183 206.109 281.178 208.635C281.183 210.793 280.904 211.762 279.999 211.762C279.487 211.762 279.204 211.344 279.204 210.822V206.209H277.981V206.766H277.916C277.767 206.328 276.902 205.935 275.863 206.06C274.426 206.229 273.193 207.417 273.193 209.376C273.193 211.419 274.237 212.786 275.913 212.851C277.046 212.901 277.782 212.374 278.016 211.787H278.075C278.195 212.587 279.06 212.94 279.91 212.911C282.033 212.871 282.436 210.783 282.436 208.685C282.436 205.692 280.387 203.087 276.589 203.087C272.607 203.087 270.265 205.518 270.26 209.435C270.265 213.467 272.547 215.769 276.659 215.769ZM276.201 211.633C274.904 211.633 274.456 210.519 274.451 209.316C274.456 208.173 275.097 207.263 276.221 207.263C277.439 207.263 277.986 207.8 277.991 209.311C277.996 210.862 277.494 211.633 276.201 211.633ZM285.564 208.466C285.564 207.248 286.335 206.552 287.393 206.552C288.418 206.552 289.029 207.203 289.029 208.322V213H290.516V208.143C290.516 206.239 289.472 205.264 287.901 205.264C286.712 205.264 285.996 205.781 285.638 206.607H285.544V202.818H284.077V213H285.564V208.466ZM295.716 213.154C297.869 213.154 299.276 211.578 299.276 209.217C299.276 206.84 297.869 205.264 295.716 205.264C293.563 205.264 292.156 206.84 292.156 209.217C292.156 211.578 293.563 213.154 295.716 213.154ZM295.721 211.906C294.314 211.906 293.658 210.678 293.658 209.212C293.658 207.75 294.314 206.507 295.721 206.507C297.118 206.507 297.774 207.75 297.774 209.212C297.774 210.678 297.118 211.906 295.721 211.906ZM304.499 205.364H302.933V203.534H301.447V205.364H300.328V206.557H301.447V211.066C301.442 212.453 302.501 213.124 303.674 213.099C304.146 213.094 304.465 213.005 304.639 212.94L304.37 211.712C304.271 211.732 304.087 211.777 303.848 211.777C303.366 211.777 302.933 211.618 302.933 210.758V206.557H304.499V205.364ZM306.144 213H307.63V208.292C307.63 207.263 308.351 206.547 309.196 206.547C310.022 206.547 310.593 207.094 310.593 207.924V213H312.075V208.133C312.075 207.213 312.637 206.547 313.606 206.547C314.392 206.547 315.038 206.984 315.038 208.018V213H316.525V207.879C316.525 206.134 315.55 205.264 314.168 205.264C313.069 205.264 312.244 205.791 311.876 206.607H311.797C311.463 205.771 310.762 205.264 309.743 205.264C308.734 205.264 307.983 205.766 307.665 206.607H307.571V205.364H306.144V213ZM320.739 213.169C322.002 213.169 322.713 212.528 322.996 211.956H323.056V213H324.508V207.929C324.508 205.707 322.758 205.264 321.545 205.264C320.162 205.264 318.89 205.821 318.393 207.213L319.79 207.531C320.008 206.989 320.565 206.467 321.564 206.467C322.524 206.467 323.016 206.969 323.016 207.835V207.869C323.016 208.411 322.459 208.401 321.087 208.56C319.64 208.729 318.159 209.107 318.159 210.842C318.159 212.344 319.287 213.169 320.739 213.169ZM321.062 211.976C320.222 211.976 319.616 211.598 319.616 210.862C319.616 210.067 320.322 209.783 321.182 209.669C321.664 209.604 322.807 209.475 323.021 209.261V210.246C323.021 211.151 322.3 211.976 321.062 211.976ZM326.488 213H327.974V205.364H326.488V213ZM327.238 204.185C327.75 204.185 328.178 203.788 328.178 203.3C328.178 202.813 327.75 202.411 327.238 202.411C326.721 202.411 326.299 202.813 326.299 203.3C326.299 203.788 326.721 204.185 327.238 204.185ZM331.46 202.818H329.974V213H331.46V202.818ZM334.44 213.094C334.982 213.094 335.434 212.652 335.434 212.1C335.434 211.558 334.982 211.111 334.44 211.111C333.893 211.111 333.445 211.558 333.445 212.1C333.445 212.652 333.893 213.094 334.44 213.094ZM340.642 213.154C342.446 213.154 343.615 212.07 343.779 210.584H342.332C342.143 211.409 341.502 211.896 340.652 211.896C339.394 211.896 338.583 210.847 338.583 209.182C338.583 207.546 339.409 206.517 340.652 206.517C341.596 206.517 342.173 207.114 342.332 207.83H343.779C343.62 206.288 342.362 205.264 340.627 205.264C338.474 205.264 337.082 206.885 337.082 209.217C337.082 211.518 338.424 213.154 340.642 213.154ZM348.585 213.154C350.738 213.154 352.145 211.578 352.145 209.217C352.145 206.84 350.738 205.264 348.585 205.264C346.432 205.264 345.025 206.84 345.025 209.217C345.025 211.578 346.432 213.154 348.585 213.154ZM348.59 211.906C347.183 211.906 346.527 210.678 346.527 209.212C346.527 207.75 347.183 206.507 348.59 206.507C349.987 206.507 350.643 207.75 350.643 209.212C350.643 210.678 349.987 211.906 348.59 211.906ZM353.804 213H355.29V208.292C355.29 207.263 356.011 206.547 356.857 206.547C357.682 206.547 358.254 207.094 358.254 207.924V213H359.735V208.133C359.735 207.213 360.297 206.547 361.266 206.547C362.052 206.547 362.698 206.984 362.698 208.018V213H364.185V207.879C364.185 206.134 363.21 205.264 361.828 205.264C360.729 205.264 359.904 205.791 359.536 206.607H359.457C359.124 205.771 358.423 205.264 357.403 205.264C356.394 205.264 355.643 205.766 355.325 206.607H355.231V205.364H353.804V213Z" fill="#64778C"/>
<rect x="199" y="188" width="208" height="41" stroke="#D8DFE5"/>
<path d="M213.486 249.466C213.486 248.248 214.232 247.552 215.266 247.552C216.275 247.552 216.886 248.213 216.886 249.322V254H218.373V249.143C218.373 247.254 217.334 246.264 215.773 246.264C214.624 246.264 213.874 246.796 213.521 247.607H213.426V246.364H211.999V254H213.486V249.466ZM220.366 256.864H221.853V252.812H221.942C222.211 253.299 222.758 254.149 224.15 254.149C225.999 254.149 227.342 252.668 227.342 250.197C227.342 247.721 225.979 246.264 224.135 246.264C222.718 246.264 222.206 247.129 221.942 247.602H221.818V246.364H220.366V256.864ZM221.823 250.182C221.823 248.586 222.519 247.527 223.817 247.527C225.164 247.527 225.84 248.665 225.84 250.182C225.84 251.713 225.144 252.881 223.817 252.881C222.539 252.881 221.823 251.788 221.823 250.182ZM235.137 256.769C236.286 256.769 237.613 256.456 238.229 256.168L237.881 255.079C237.464 255.228 236.315 255.591 235.202 255.591C231.856 255.591 230.061 253.746 230.061 250.445C230.061 247.283 231.836 245.24 235.018 245.24C237.926 245.24 239.661 247.109 239.656 249.635C239.661 251.793 239.383 252.762 238.478 252.762C237.966 252.762 237.683 252.344 237.683 251.822V247.209H236.46V247.766H236.395C236.246 247.328 235.381 246.935 234.342 247.06C232.905 247.229 231.672 248.417 231.672 250.376C231.672 252.419 232.716 253.786 234.391 253.851C235.525 253.901 236.261 253.374 236.494 252.787H236.554C236.673 253.587 237.538 253.94 238.388 253.911C240.511 253.871 240.914 251.783 240.914 249.685C240.914 246.692 238.866 244.087 235.067 244.087C231.085 244.087 228.744 246.518 228.739 250.435C228.744 254.467 231.026 256.769 235.137 256.769ZM234.68 252.633C233.382 252.633 232.935 251.519 232.93 250.316C232.935 249.173 233.576 248.263 234.7 248.263C235.918 248.263 236.464 248.8 236.469 250.311C236.474 251.862 235.972 252.633 234.68 252.633ZM242.556 254H244.042V249.292C244.042 248.263 244.763 247.547 245.608 247.547C246.434 247.547 247.006 248.094 247.006 248.924V254H248.487V249.133C248.487 248.213 249.049 247.547 250.018 247.547C250.804 247.547 251.45 247.984 251.45 249.018V254H252.937V248.879C252.937 247.134 251.962 246.264 250.58 246.264C249.481 246.264 248.656 246.791 248.288 247.607H248.209C247.876 246.771 247.175 246.264 246.155 246.264C245.146 246.264 244.395 246.766 244.077 247.607H243.983V246.364H242.556V254ZM257.151 254.169C258.414 254.169 259.125 253.528 259.408 252.956H259.468V254H260.92V248.929C260.92 246.707 259.17 246.264 257.957 246.264C256.575 246.264 255.302 246.821 254.805 248.213L256.202 248.531C256.42 247.989 256.977 247.467 257.977 247.467C258.936 247.467 259.428 247.969 259.428 248.835V248.869C259.428 249.411 258.871 249.401 257.499 249.56C256.053 249.729 254.571 250.107 254.571 251.842C254.571 253.344 255.7 254.169 257.151 254.169ZM257.474 252.976C256.634 252.976 256.028 252.598 256.028 251.862C256.028 251.067 256.734 250.783 257.594 250.669C258.076 250.604 259.219 250.475 259.433 250.261V251.246C259.433 252.151 258.712 252.976 257.474 252.976ZM262.9 254H264.386V246.364H262.9V254ZM263.65 245.185C264.162 245.185 264.59 244.788 264.59 244.3C264.59 243.813 264.162 243.411 263.65 243.411C263.133 243.411 262.711 243.813 262.711 244.3C262.711 244.788 263.133 245.185 263.65 245.185ZM267.873 243.818H266.386V254H267.873V243.818ZM270.852 254.094C271.394 254.094 271.846 253.652 271.846 253.1C271.846 252.558 271.394 252.111 270.852 252.111C270.305 252.111 269.857 252.558 269.857 253.1C269.857 253.652 270.305 254.094 270.852 254.094ZM277.054 254.154C278.858 254.154 280.027 253.07 280.191 251.584H278.744C278.555 252.409 277.914 252.896 277.064 252.896C275.806 252.896 274.996 251.847 274.996 250.182C274.996 248.546 275.821 247.517 277.064 247.517C278.008 247.517 278.585 248.114 278.744 248.83H280.191C280.032 247.288 278.774 246.264 277.039 246.264C274.886 246.264 273.494 247.885 273.494 250.217C273.494 252.518 274.836 254.154 277.054 254.154ZM284.997 254.154C287.15 254.154 288.557 252.578 288.557 250.217C288.557 247.84 287.15 246.264 284.997 246.264C282.844 246.264 281.438 247.84 281.438 250.217C281.438 252.578 282.844 254.154 284.997 254.154ZM285.002 252.906C283.595 252.906 282.939 251.678 282.939 250.212C282.939 248.75 283.595 247.507 285.002 247.507C286.399 247.507 287.055 248.75 287.055 250.212C287.055 251.678 286.399 252.906 285.002 252.906ZM290.216 254H291.703V249.292C291.703 248.263 292.423 247.547 293.269 247.547C294.094 247.547 294.666 248.094 294.666 248.924V254H296.147V249.133C296.147 248.213 296.709 247.547 297.678 247.547C298.464 247.547 299.11 247.984 299.11 249.018V254H300.597V248.879C300.597 247.134 299.622 246.264 298.24 246.264C297.142 246.264 296.316 246.791 295.948 247.607H295.869C295.536 246.771 294.835 246.264 293.816 246.264C292.806 246.264 292.056 246.766 291.737 247.607H291.643V246.364H290.216V254Z" fill="#64778C"/>
<rect x="199" y="229" width="208" height="41" stroke="#D8DFE5"/>
<rect width="71" height="197" transform="translate(407 73)" fill="white"/>
<path d="M416.575 87.1293C416.227 84.9517 414.522 83.679 412.369 83.679C409.734 83.679 407.79 85.6527 407.79 88.9091C407.79 92.1655 409.724 94.1392 412.369 94.1392C414.607 94.1392 416.242 92.7372 416.575 90.7237L415.024 90.7188C414.761 92.0213 413.667 92.7372 412.379 92.7372C410.634 92.7372 409.317 91.3999 409.317 88.9091C409.317 86.4382 410.629 85.081 412.384 85.081C413.682 85.081 414.771 85.8118 415.024 87.1293H416.575ZM421.511 94.1541C423.664 94.1541 425.07 92.5781 425.07 90.2166C425.07 87.8402 423.664 86.2642 421.511 86.2642C419.358 86.2642 417.951 87.8402 417.951 90.2166C417.951 92.5781 419.358 94.1541 421.511 94.1541ZM421.516 92.9062C420.109 92.9062 419.453 91.6783 419.453 90.2116C419.453 88.75 420.109 87.5071 421.516 87.5071C422.913 87.5071 423.569 88.75 423.569 90.2116C423.569 91.6783 422.913 92.9062 421.516 92.9062ZM428.216 89.4659C428.216 88.2479 428.962 87.5518 429.996 87.5518C431.005 87.5518 431.617 88.2131 431.617 89.3217V94H433.103V89.1428C433.103 87.2536 432.064 86.2642 430.503 86.2642C429.355 86.2642 428.604 86.7962 428.251 87.6065H428.157V86.3636H426.73V94H428.216V89.4659ZM438.662 86.3636H437.096V84.5341H435.609V86.3636H434.49V87.5568H435.609V92.0661C435.604 93.4531 436.663 94.1243 437.836 94.0994C438.309 94.0945 438.627 94.005 438.801 93.9403L438.532 92.7124C438.433 92.7322 438.249 92.777 438.01 92.777C437.528 92.777 437.096 92.6179 437.096 91.7578V87.5568H438.662V86.3636ZM442.528 94.169C443.791 94.169 444.502 93.5277 444.785 92.956H444.845V94H446.297V88.929C446.297 86.7067 444.547 86.2642 443.334 86.2642C441.952 86.2642 440.679 86.821 440.182 88.2131L441.579 88.5312C441.797 87.9893 442.354 87.4673 443.354 87.4673C444.313 87.4673 444.805 87.9695 444.805 88.8345V88.8693C444.805 89.4112 444.248 89.4013 442.876 89.5604C441.43 89.7294 439.948 90.1072 439.948 91.8423C439.948 93.3438 441.077 94.169 442.528 94.169ZM442.851 92.9759C442.011 92.9759 441.405 92.598 441.405 91.8622C441.405 91.0668 442.111 90.7834 442.971 90.669C443.453 90.6044 444.596 90.4751 444.81 90.2614V91.2457C444.81 92.1506 444.089 92.9759 442.851 92.9759ZM451.493 94.1541C453.298 94.1541 454.466 93.0703 454.63 91.5838H453.184C452.995 92.4091 452.353 92.8963 451.503 92.8963C450.245 92.8963 449.435 91.8473 449.435 90.1818C449.435 88.5462 450.26 87.517 451.503 87.517C452.448 87.517 453.025 88.1136 453.184 88.8295H454.63C454.471 87.2884 453.213 86.2642 451.478 86.2642C449.326 86.2642 447.934 87.8849 447.934 90.2166C447.934 92.5185 449.276 94.1541 451.493 94.1541ZM459.785 86.3636H458.219V84.5341H456.732V86.3636H455.613V87.5568H456.732V92.0661C456.727 93.4531 457.786 94.1243 458.959 94.0994C459.432 94.0945 459.75 94.005 459.924 93.9403L459.655 92.7124C459.556 92.7322 459.372 92.777 459.133 92.777C458.651 92.777 458.219 92.6179 458.219 91.7578V87.5568H459.785V86.3636ZM464.638 94.1541C466.304 94.1541 467.482 93.3338 467.82 92.0909L466.413 91.8374C466.145 92.5582 465.498 92.9261 464.653 92.9261C463.38 92.9261 462.525 92.1009 462.485 90.6293H467.914V90.1023C467.914 87.343 466.264 86.2642 464.534 86.2642C462.406 86.2642 461.004 87.8849 461.004 90.2315C461.004 92.603 462.386 94.1541 464.638 94.1541ZM462.49 89.5156C462.55 88.4318 463.336 87.4922 464.544 87.4922C465.697 87.4922 466.453 88.3473 466.458 89.5156H462.49ZM472.422 94.1491C473.814 94.1491 474.361 93.299 474.63 92.8118H474.754V94H476.206V83.8182H474.719V87.6016H474.63C474.361 87.1293 473.854 86.2642 472.432 86.2642C470.588 86.2642 469.231 87.7209 469.231 90.1967C469.231 92.6676 470.568 94.1491 472.422 94.1491ZM472.751 92.8814C471.423 92.8814 470.732 91.7131 470.732 90.1818C470.732 88.6655 471.408 87.527 472.751 87.527C474.048 87.527 474.744 88.5859 474.744 90.1818C474.744 91.7876 474.033 92.8814 472.751 92.8814Z" fill="#64778C"/>
<rect x="434" y="118" width="17" height="17" rx="2" fill="#6048E5"/>
<path d="M447 123L440.812 130L438 126.818" stroke="white" stroke-width="2" stroke-linecap="round" stroke-linejoin="round"/>
<rect x="407" y="106" width="71" height="41" stroke="#D8DFE5"/>
<rect x="434" y="159" width="17" height="17" rx="2" fill="#6048E5"/>
<path d="M447 164L440.812 171L438 167.818" stroke="white" stroke-width="2" stroke-linecap="round" stroke-linejoin="round"/>
<rect x="407" y="147" width="71" height="41" stroke="#D8DFE5"/>
<rect x="434.5" y="200.5" width="16" height="16" rx="1.5" stroke="#6048E5"/>
<rect x="407" y="188" width="71" height="41" stroke="#D8DFE5"/>
<rect x="434.5" y="241.5" width="16" height="16" rx="1.5" stroke="#6048E5"/>
<rect x="407" y="229" width="71" height="41" stroke="#D8DFE5"/>
<path d="M6 1H504V-1H6V1ZM509 6V296H511V6H509ZM504 301H6V303H504V301ZM1 296V6H-1V296H1ZM6 301C3.23858 301 1 298.761 1 296H-1C-1 299.866 2.13401 303 6 303V301ZM509 296C509 298.761 506.761 301 504 301V303C507.866 303 511 299.866 511 296H509ZM504 1C506.761 1 509 3.23858 509 6H511C511 2.13401 507.866 -1 504 -1V1ZM6 -1C2.13401 -1 -1 2.134 -1 6H1C1 3.23857 3.23858 1 6 1V-1Z" fill="#FAFBFC"/>
</svg>
