<svg width="362" height="236" viewBox="0 0 362 236" fill="none" xmlns="http://www.w3.org/2000/svg">
<path d="M252 111L190 134" stroke="url(#paint0_linear_1692_17281)"/>
<path d="M96 115L162 135" stroke="url(#paint1_linear_1692_17281)"/>
<path d="M130 49L169 126" stroke="url(#paint2_linear_1692_17281)"/>
<path d="M208 59L183 126" stroke="url(#paint3_linear_1692_17281)"/>
<line x1="175.5" y1="192" x2="175.5" y2="236" stroke="url(#paint4_linear_1692_17281)"/>
<circle cx="263" cy="109" r="8" fill="url(#paint5_linear_1692_17281)"/>
<path d="M255.818 138.16C257.725 138.16 259.036 137.228 259.377 135.805L257.576 135.603C257.315 136.295 256.676 136.658 255.845 136.658C254.599 136.658 253.773 135.837 253.757 134.436H259.457V133.845C259.457 130.974 257.731 129.712 255.717 129.712C253.373 129.712 251.845 131.432 251.845 133.957C251.845 136.525 253.352 138.16 255.818 138.16ZM253.762 133.137C253.821 132.093 254.593 131.214 255.744 131.214C256.852 131.214 257.598 132.023 257.608 133.137H253.762ZM261.538 138H263.466V133.025C263.466 132.018 264.137 131.336 264.968 131.336C265.783 131.336 266.343 131.885 266.343 132.727V138H268.234V132.897C268.234 131.975 268.782 131.336 269.714 131.336C270.492 131.336 271.11 131.794 271.11 132.806V138H273.044V132.508C273.044 130.681 271.989 129.712 270.487 129.712C269.299 129.712 268.393 130.298 268.031 131.208H267.946C267.632 130.282 266.838 129.712 265.735 129.712C264.638 129.712 263.818 130.276 263.477 131.208H263.381V129.818H261.538V138ZM277.804 138.165C279.088 138.165 279.855 137.563 280.206 136.876H280.27V138H282.124V132.524C282.124 130.362 280.361 129.712 278.8 129.712C277.08 129.712 275.759 130.479 275.333 131.97L277.133 132.226C277.325 131.667 277.868 131.187 278.811 131.187C279.706 131.187 280.196 131.645 280.196 132.45V132.482C280.196 133.036 279.615 133.062 278.172 133.217C276.584 133.387 275.066 133.861 275.066 135.704C275.066 137.313 276.243 138.165 277.804 138.165ZM278.305 136.748C277.501 136.748 276.925 136.381 276.925 135.672C276.925 134.932 277.57 134.623 278.433 134.5C278.939 134.431 279.951 134.303 280.201 134.101V135.065C280.201 135.976 279.466 136.748 278.305 136.748ZM284.513 138H286.441V129.818H284.513V138ZM285.482 128.657C286.095 128.657 286.596 128.188 286.596 127.613C286.596 127.032 286.095 126.564 285.482 126.564C284.865 126.564 284.364 127.032 284.364 127.613C284.364 128.188 284.865 128.657 285.482 128.657ZM290.802 127.091H288.874V138H290.802V127.091Z" fill="#6048E5"/>
<path d="M251.999 158H253.486V153.292C253.486 152.263 254.207 151.547 255.052 151.547C255.877 151.547 256.449 152.094 256.449 152.924V158H257.93V153.133C257.93 152.213 258.492 151.547 259.462 151.547C260.247 151.547 260.893 151.984 260.893 153.018V158H262.38V152.879C262.38 151.134 261.406 150.264 260.023 150.264C258.925 150.264 258.099 150.791 257.732 151.607H257.652C257.319 150.771 256.618 150.264 255.599 150.264C254.589 150.264 253.839 150.766 253.521 151.607H253.426V150.364H251.999V158ZM266.595 158.169C267.857 158.169 268.568 157.528 268.852 156.956H268.911V158H270.363V152.929C270.363 150.707 268.613 150.264 267.4 150.264C266.018 150.264 264.745 150.821 264.248 152.213L265.645 152.531C265.864 151.989 266.421 151.467 267.42 151.467C268.379 151.467 268.872 151.969 268.872 152.835V152.869C268.872 153.411 268.315 153.401 266.943 153.56C265.496 153.729 264.014 154.107 264.014 155.842C264.014 157.344 265.143 158.169 266.595 158.169ZM266.918 156.976C266.078 156.976 265.471 156.598 265.471 155.862C265.471 155.067 266.177 154.783 267.037 154.669C267.519 154.604 268.663 154.475 268.877 154.261V155.246C268.877 156.151 268.156 156.976 266.918 156.976ZM273.83 153.466C273.83 152.248 274.6 151.552 275.659 151.552C276.683 151.552 277.295 152.203 277.295 153.322V158H278.781V153.143C278.781 151.239 277.737 150.264 276.166 150.264C274.978 150.264 274.262 150.781 273.904 151.607H273.81V147.818H272.343V158H273.83V153.466ZM282.987 158.169C284.25 158.169 284.961 157.528 285.244 156.956H285.304V158H286.756V152.929C286.756 150.707 285.006 150.264 283.793 150.264C282.411 150.264 281.138 150.821 280.641 152.213L282.038 152.531C282.256 151.989 282.813 151.467 283.812 151.467C284.772 151.467 285.264 151.969 285.264 152.835V152.869C285.264 153.411 284.707 153.401 283.335 153.56C281.888 153.729 280.407 154.107 280.407 155.842C280.407 157.344 281.536 158.169 282.987 158.169ZM283.31 156.976C282.47 156.976 281.864 156.598 281.864 155.862C281.864 155.067 282.57 154.783 283.43 154.669C283.912 154.604 285.055 154.475 285.269 154.261V155.246C285.269 156.151 284.548 156.976 283.31 156.976ZM290.222 153.466C290.222 152.248 290.968 151.552 292.002 151.552C293.011 151.552 293.623 152.213 293.623 153.322V158H295.109V153.143C295.109 151.254 294.07 150.264 292.509 150.264C291.361 150.264 290.61 150.796 290.257 151.607H290.162V150.364H288.736V158H290.222V153.466ZM297.103 158H298.589V150.364H297.103V158ZM297.854 149.185C298.366 149.185 298.793 148.788 298.793 148.3C298.793 147.813 298.366 147.411 297.854 147.411C297.336 147.411 296.914 147.813 296.914 148.3C296.914 148.788 297.336 149.185 297.854 149.185ZM306.719 160.769C307.868 160.769 309.195 160.456 309.811 160.168L309.463 159.079C309.046 159.228 307.897 159.591 306.784 159.591C303.438 159.591 301.643 157.746 301.643 154.445C301.643 151.283 303.418 149.24 306.6 149.24C309.508 149.24 311.243 151.109 311.238 153.635C311.243 155.793 310.965 156.762 310.06 156.762C309.548 156.762 309.265 156.344 309.265 155.822V151.209H308.042V151.766H307.977C307.828 151.328 306.963 150.935 305.924 151.06C304.487 151.229 303.254 152.417 303.254 154.376C303.254 156.419 304.298 157.786 305.973 157.851C307.107 157.901 307.843 157.374 308.076 156.787H308.136C308.255 157.587 309.12 157.94 309.971 157.911C312.093 157.871 312.496 155.783 312.496 153.685C312.496 150.692 310.448 148.087 306.65 148.087C302.667 148.087 300.326 150.518 300.321 154.435C300.326 158.467 302.608 160.769 306.719 160.769ZM306.262 156.633C304.964 156.633 304.517 155.519 304.512 154.316C304.517 153.173 305.158 152.263 306.282 152.263C307.5 152.263 308.047 152.8 308.051 154.311C308.056 155.862 307.554 156.633 306.262 156.633ZM251.999 173H253.486V165.364H251.999V173ZM252.75 164.185C253.262 164.185 253.69 163.788 253.69 163.3C253.69 162.813 253.262 162.411 252.75 162.411C252.233 162.411 251.81 162.813 251.81 163.3C251.81 163.788 252.233 164.185 252.75 164.185ZM256.972 168.466C256.972 167.248 257.718 166.552 258.752 166.552C259.761 166.552 260.373 167.213 260.373 168.322V173H261.859V168.143C261.859 166.254 260.82 165.264 259.259 165.264C258.111 165.264 257.36 165.796 257.007 166.607H256.912V165.364H255.486V173H256.972V168.466ZM263.972 173H265.424V171.812H265.548C265.817 172.299 266.363 173.149 267.756 173.149C269.605 173.149 270.947 171.668 270.947 169.197C270.947 166.721 269.585 165.264 267.741 165.264C266.324 165.264 265.812 166.129 265.548 166.602H265.459V162.818H263.972V173ZM265.429 169.182C265.429 167.586 266.125 166.527 267.422 166.527C268.77 166.527 269.446 167.665 269.446 169.182C269.446 170.713 268.75 171.881 267.422 171.881C266.145 171.881 265.429 170.788 265.429 169.182ZM275.833 173.154C277.986 173.154 279.393 171.578 279.393 169.217C279.393 166.84 277.986 165.264 275.833 165.264C273.68 165.264 272.273 166.84 272.273 169.217C272.273 171.578 273.68 173.154 275.833 173.154ZM275.838 171.906C274.431 171.906 273.775 170.678 273.775 169.212C273.775 167.75 274.431 166.507 275.838 166.507C277.235 166.507 277.891 167.75 277.891 169.212C277.891 170.678 277.235 171.906 275.838 171.906ZM281.911 165.364H280.28L282.627 169.182L280.25 173H281.881L283.596 170.146L285.316 173H286.942L284.541 169.182L286.922 165.364H285.297L283.596 168.337L281.911 165.364ZM289.428 173.094C289.97 173.094 290.422 172.652 290.422 172.1C290.422 171.558 289.97 171.111 289.428 171.111C288.881 171.111 288.434 171.558 288.434 172.1C288.434 172.652 288.881 173.094 289.428 173.094ZM295.63 173.154C297.435 173.154 298.603 172.07 298.767 170.584H297.32C297.131 171.409 296.49 171.896 295.64 171.896C294.382 171.896 293.572 170.847 293.572 169.182C293.572 167.546 294.397 166.517 295.64 166.517C296.585 166.517 297.161 167.114 297.32 167.83H298.767C298.608 166.288 297.35 165.264 295.615 165.264C293.462 165.264 292.07 166.885 292.07 169.217C292.07 171.518 293.413 173.154 295.63 173.154ZM303.573 173.154C305.726 173.154 307.133 171.578 307.133 169.217C307.133 166.84 305.726 165.264 303.573 165.264C301.421 165.264 300.014 166.84 300.014 169.217C300.014 171.578 301.421 173.154 303.573 173.154ZM303.578 171.906C302.171 171.906 301.515 170.678 301.515 169.212C301.515 167.75 302.171 166.507 303.578 166.507C304.975 166.507 305.632 167.75 305.632 169.212C305.632 170.678 304.975 171.906 303.578 171.906ZM308.792 173H310.279V168.292C310.279 167.263 311 166.547 311.845 166.547C312.67 166.547 313.242 167.094 313.242 167.924V173H314.723V168.133C314.723 167.213 315.285 166.547 316.255 166.547C317.04 166.547 317.686 166.984 317.686 168.018V173H319.173V167.879C319.173 166.134 318.199 165.264 316.816 165.264C315.718 165.264 314.892 165.791 314.525 166.607H314.445C314.112 165.771 313.411 165.264 312.392 165.264C311.382 165.264 310.632 165.766 310.314 166.607H310.219V165.364H308.792V173Z" fill="#64778C"/>
<a href="mailto:mahani@inbox.com">
<rect fill="black" fill-opacity="0" y="-0.971591" width="62.1374" height="16.9432"/>
</a>
<a href="mailto:mahani@inbox.com">
<rect fill="black" fill-opacity="0" y="14.0284" width="69.1623" height="16.9432"/>
</a>
<circle cx="229" cy="12" r="8" fill="url(#paint6_linear_1692_17281)"/>
<path d="M218.228 32.8182V41.4421C218.228 42.1293 217.935 42.4968 217.195 42.4968C217.099 42.4968 217.024 42.4915 216.918 42.4862V44.0575C217.056 44.0682 217.174 44.0682 217.312 44.0682C219.118 44.0682 220.157 43.2372 220.157 41.4688V32.8182H218.228ZM219.187 31.657C219.8 31.657 220.3 31.1882 220.3 30.6129C220.3 30.0323 219.8 29.5636 219.187 29.5636C218.569 29.5636 218.068 30.0323 218.068 30.6129C218.068 31.1882 218.569 31.657 219.187 31.657ZM226.158 41.1598C228.555 41.1598 230.079 39.4712 230.079 36.9411C230.079 34.4055 228.555 32.7116 226.158 32.7116C223.761 32.7116 222.238 34.4055 222.238 36.9411C222.238 39.4712 223.761 41.1598 226.158 41.1598ZM226.169 39.6151C224.843 39.6151 224.193 38.4325 224.193 36.9357C224.193 35.4389 224.843 34.2404 226.169 34.2404C227.474 34.2404 228.124 35.4389 228.124 36.9357C228.124 38.4325 227.474 39.6151 226.169 39.6151ZM232.251 41H234.147V39.7109H234.259C234.562 40.3075 235.196 41.1438 236.603 41.1438C238.531 41.1438 239.974 39.6151 239.974 36.9197C239.974 34.1925 238.488 32.7116 236.597 32.7116C235.154 32.7116 234.552 33.5799 234.259 34.1712H234.179V30.0909H232.251V41ZM234.142 36.9091C234.142 35.3217 234.823 34.2937 236.065 34.2937C237.348 34.2937 238.009 35.3857 238.009 36.9091C238.009 38.4432 237.338 39.5618 236.065 39.5618C234.834 39.5618 234.142 38.4964 234.142 36.9091ZM241.069 31.7475H244.441V41H246.401V31.7475H249.773V30.0909H241.069V31.7475ZM251.815 41H253.744V32.8182H251.815V41ZM252.785 31.657C253.397 31.657 253.898 31.1882 253.898 30.6129C253.898 30.0323 253.397 29.5636 252.785 29.5636C252.167 29.5636 251.666 30.0323 251.666 30.6129C251.666 31.1882 252.167 31.657 252.785 31.657ZM260.262 32.8182H258.648V30.858H256.72V32.8182H255.559V34.3097H256.72V38.8587C256.709 40.3981 257.828 41.1545 259.277 41.1119C259.825 41.0959 260.203 40.9893 260.411 40.9201L260.086 39.4126C259.98 39.4393 259.761 39.4872 259.522 39.4872C259.037 39.4872 258.648 39.3168 258.648 38.5391V34.3097H260.262V32.8182ZM264.429 30.0909H262.501V41H264.429V30.0909ZM270.484 41.1598C272.391 41.1598 273.701 40.2276 274.042 38.8054L272.242 38.603C271.981 39.2955 271.341 39.6577 270.51 39.6577C269.264 39.6577 268.438 38.8374 268.422 37.4364H274.122V36.8452C274.122 33.9741 272.396 32.7116 270.383 32.7116C268.039 32.7116 266.51 34.4322 266.51 36.957C266.51 39.5245 268.018 41.1598 270.484 41.1598ZM268.428 36.1367C268.486 35.0927 269.259 34.2138 270.409 34.2138C271.517 34.2138 272.263 35.0234 272.274 36.1367H268.428Z" fill="#6048E5"/>
<path d="M218.302 65H219.947V61.1648H222.185C224.715 61.1648 225.967 59.636 225.967 57.6225C225.967 55.6143 224.726 54.0909 222.19 54.0909H218.302V65ZM219.947 59.7692V55.5025H222.014C223.644 55.5025 224.31 56.3867 224.31 57.6225C224.31 58.8583 223.644 59.7692 222.036 59.7692H219.947ZM227.768 65H229.361V60.0036C229.361 58.9329 230.187 58.1605 231.316 58.1605C231.646 58.1605 232.019 58.2191 232.147 58.2564V56.733C231.987 56.7116 231.673 56.6957 231.47 56.6957C230.512 56.6957 229.691 57.239 229.393 58.1179H229.308V56.8182H227.768V65ZM236.679 65.1651C238.985 65.1651 240.493 63.4766 240.493 60.9464C240.493 58.4002 238.985 56.7116 236.679 56.7116C234.372 56.7116 232.865 58.4002 232.865 60.9464C232.865 63.4766 234.372 65.1651 236.679 65.1651ZM236.684 63.8281C235.177 63.8281 234.473 62.5124 234.473 60.9411C234.473 59.375 235.177 58.0433 236.684 58.0433C238.181 58.0433 238.884 59.375 238.884 60.9411C238.884 62.5124 238.181 63.8281 236.684 63.8281ZM245.333 65.1598C246.825 65.1598 247.411 64.2489 247.698 63.7269H247.831V65H249.387V54.0909H247.794V58.1445H247.698C247.411 57.6385 246.867 56.7116 245.344 56.7116C243.368 56.7116 241.913 58.2724 241.913 60.9251C241.913 63.5724 243.346 65.1598 245.333 65.1598ZM245.685 63.8015C244.263 63.8015 243.522 62.5497 243.522 60.9091C243.522 59.2844 244.247 58.0646 245.685 58.0646C247.075 58.0646 247.821 59.1992 247.821 60.9091C247.821 62.6296 247.059 63.8015 245.685 63.8015ZM256.843 61.6069C256.848 62.9972 255.815 63.6577 254.92 63.6577C253.935 63.6577 253.253 62.9439 253.253 61.8306V56.8182H251.66V62.0224C251.66 64.0518 252.773 65.1065 254.345 65.1065C255.575 65.1065 256.411 64.4567 256.79 63.5831H256.875V65H258.441V56.8182H256.843V61.6069ZM264.027 65.1651C265.961 65.1651 267.213 64.0039 267.388 62.4112H265.838C265.636 63.2955 264.949 63.8175 264.038 63.8175C262.69 63.8175 261.822 62.6935 261.822 60.9091C261.822 59.1566 262.706 58.054 264.038 58.054C265.05 58.054 265.668 58.6932 265.838 59.4602H267.388C267.218 57.8089 265.87 56.7116 264.011 56.7116C261.705 56.7116 260.213 58.4482 260.213 60.9464C260.213 63.4126 261.652 65.1651 264.027 65.1651ZM272.911 56.8182H271.233V54.858H269.64V56.8182H268.442V58.0966H269.64V62.9279C269.635 64.4141 270.77 65.1332 272.027 65.1065C272.533 65.1012 272.874 65.0053 273.06 64.9361L272.772 63.6204C272.666 63.6417 272.469 63.6896 272.213 63.6896C271.696 63.6896 271.233 63.5192 271.233 62.5977V58.0966H272.911V56.8182ZM278.77 65H285.674V63.5831H280.416V60.2433H285.253V58.8317H280.416V55.5078H285.61V54.0909H278.77V65ZM289.273 60.142C289.273 58.837 290.072 58.0913 291.18 58.0913C292.261 58.0913 292.917 58.7997 292.917 59.9876V65H294.509V59.7958C294.509 57.7717 293.396 56.7116 291.723 56.7116C290.493 56.7116 289.689 57.2816 289.311 58.1499H289.209V56.8182H287.681V65H289.273V60.142ZM300.076 68.2386C302.159 68.2386 303.767 67.2852 303.767 65.1811V56.8182H302.206V58.1445H302.089C301.807 57.6385 301.242 56.7116 299.719 56.7116C297.743 56.7116 296.288 58.2724 296.288 60.8771C296.288 63.4872 297.775 64.8775 299.708 64.8775C301.21 64.8775 301.791 64.0305 302.079 63.5085H302.18V65.1172C302.18 66.4009 301.301 66.9549 300.092 66.9549C298.765 66.9549 298.249 66.2891 297.966 65.8203L296.597 66.3849C297.029 67.3864 298.121 68.2386 300.076 68.2386ZM300.06 63.5565C298.638 63.5565 297.897 62.4645 297.897 60.8558C297.897 59.2844 298.622 58.0646 300.06 58.0646C301.45 58.0646 302.196 59.1992 302.196 60.8558C302.196 62.5444 301.434 63.5565 300.06 63.5565ZM305.903 65H307.496V56.8182H305.903V65ZM306.708 55.5558C307.256 55.5558 307.714 55.1296 307.714 54.6076C307.714 54.0856 307.256 53.6541 306.708 53.6541C306.154 53.6541 305.701 54.0856 305.701 54.6076C305.701 55.1296 306.154 55.5558 306.708 55.5558ZM311.231 60.142C311.231 58.837 312.03 58.0913 313.138 58.0913C314.22 58.0913 314.875 58.7997 314.875 59.9876V65H316.467V59.7958C316.467 57.7717 315.354 56.7116 313.682 56.7116C312.451 56.7116 311.647 57.2816 311.269 58.1499H311.167V56.8182H309.639V65H311.231V60.142ZM322.13 65.1651C323.914 65.1651 325.177 64.2862 325.539 62.9545L324.031 62.6829C323.744 63.4553 323.051 63.8494 322.146 63.8494C320.782 63.8494 319.866 62.9652 319.823 61.3885H325.64V60.8239C325.64 57.8675 323.871 56.7116 322.018 56.7116C319.738 56.7116 318.236 58.4482 318.236 60.9624C318.236 63.5032 319.717 65.1651 322.13 65.1651ZM319.829 60.1953C319.892 59.0341 320.734 58.0273 322.028 58.0273C323.264 58.0273 324.074 58.9435 324.079 60.1953H319.829ZM330.933 65.1651C332.718 65.1651 333.98 64.2862 334.342 62.9545L332.835 62.6829C332.547 63.4553 331.855 63.8494 330.949 63.8494C329.586 63.8494 328.67 62.9652 328.627 61.3885H334.444V60.8239C334.444 57.8675 332.675 56.7116 330.822 56.7116C328.542 56.7116 327.04 58.4482 327.04 60.9624C327.04 63.5032 328.52 65.1651 330.933 65.1651ZM328.632 60.1953C328.696 59.0341 329.538 58.0273 330.832 58.0273C332.068 58.0273 332.878 58.9435 332.883 60.1953H328.632ZM336.211 65H337.803V60.0036C337.803 58.9329 338.629 58.1605 339.758 58.1605C340.089 58.1605 340.462 58.2191 340.589 58.2564V56.733C340.43 56.7116 340.115 56.6957 339.913 56.6957C338.954 56.6957 338.134 57.239 337.835 58.1179H337.75V56.8182H336.211V65Z" fill="#64778C"/>
<a href="mailto:mahani@inbox.com">
<rect fill="black" fill-opacity="0" x="0.103027" y="2.9233" width="123.801" height="18.1534"/>
</a>
<circle cx="90" cy="114" r="8" fill="url(#paint7_linear_1692_17281)"/>
<path d="M39.2162 134.818V136.31H34.3795V134.818H39.2162ZM35.5887 143V134.046C35.5887 133.495 35.7023 133.037 35.9296 132.672C36.1604 132.306 36.4694 132.032 36.8565 131.851C37.2435 131.67 37.6732 131.58 38.1455 131.58C38.4793 131.58 38.7759 131.606 39.0351 131.659C39.2943 131.713 39.4861 131.761 39.6104 131.803L39.2268 133.295C39.1452 133.27 39.0422 133.245 38.9179 133.22C38.7936 133.192 38.6551 133.178 38.5024 133.178C38.1437 133.178 37.8898 133.265 37.7407 133.439C37.5951 133.609 37.5223 133.854 37.5223 134.174V143H35.5887ZM46.3912 139.559V134.818H48.3194V143H46.4498V141.546H46.3645C46.1799 142.004 45.8762 142.379 45.4537 142.67C45.0346 142.961 44.5179 143.107 43.9036 143.107C43.3674 143.107 42.8933 142.988 42.4814 142.75C42.073 142.508 41.7534 142.158 41.5225 141.7C41.2917 141.239 41.1763 140.681 41.1763 140.028V134.818H43.1046V139.729C43.1046 140.248 43.2466 140.66 43.5307 140.965C43.8148 141.271 44.1877 141.423 44.6493 141.423C44.9334 141.423 45.2086 141.354 45.475 141.216C45.7413 141.077 45.9597 140.871 46.1301 140.598C46.3042 140.321 46.3912 139.974 46.3912 139.559ZM52.6806 132.091V143H50.7523V132.091H52.6806ZM57.0417 132.091V143H55.1134V132.091H57.0417ZM68.5246 132.091V143H66.7668L61.6265 135.569H61.536V143H59.5598V132.091H61.3282L66.4632 139.527H66.5591V132.091H68.5246ZM73.3971 143.165C72.8787 143.165 72.4117 143.073 71.9962 142.888C71.5843 142.7 71.2576 142.423 71.0161 142.057C70.7782 141.691 70.6592 141.24 70.6592 140.704C70.6592 140.243 70.7444 139.861 70.9149 139.559C71.0853 139.257 71.3179 139.016 71.6127 138.835C71.9074 138.653 72.2395 138.517 72.6088 138.424C72.9816 138.328 73.3669 138.259 73.7647 138.217C74.2441 138.167 74.6329 138.123 74.9312 138.083C75.2295 138.041 75.4461 137.977 75.5811 137.892C75.7196 137.803 75.7888 137.666 75.7888 137.482V137.45C75.7888 137.048 75.6699 136.738 75.4319 136.517C75.194 136.297 74.8513 136.187 74.4039 136.187C73.9316 136.187 73.5569 136.29 73.2799 136.496C73.0065 136.702 72.8218 136.945 72.726 137.226L70.9255 136.97C71.0676 136.473 71.302 136.058 71.6287 135.724C71.9554 135.386 72.3549 135.134 72.8272 134.967C73.2995 134.797 73.8215 134.712 74.3932 134.712C74.7874 134.712 75.1798 134.758 75.5704 134.85C75.961 134.942 76.3179 135.095 76.6411 135.308C76.9642 135.518 77.2235 135.804 77.4188 136.166C77.6176 136.528 77.7171 136.981 77.7171 137.524V143H75.8634V141.876H75.7995C75.6823 142.103 75.5172 142.316 75.3041 142.515C75.0946 142.711 74.83 142.869 74.5104 142.989C74.1944 143.107 73.8233 143.165 73.3971 143.165ZM73.8978 141.748C74.2849 141.748 74.6205 141.672 74.9046 141.519C75.1887 141.363 75.4071 141.157 75.5598 140.901C75.716 140.646 75.7941 140.367 75.7941 140.065V139.101C75.7338 139.151 75.6308 139.197 75.4852 139.239C75.3431 139.282 75.1833 139.319 75.0058 139.351C74.8282 139.383 74.6524 139.412 74.4784 139.436C74.3044 139.461 74.1535 139.483 74.0257 139.5C73.738 139.539 73.4806 139.603 73.2533 139.692C73.026 139.781 72.8467 139.905 72.7153 140.065C72.5839 140.221 72.5182 140.424 72.5182 140.672C72.5182 141.027 72.6478 141.295 72.9071 141.477C73.1663 141.658 73.4966 141.748 73.8978 141.748ZM80.106 143V134.818H81.949V136.208H82.0449C82.2154 135.74 82.4977 135.374 82.8919 135.111C83.286 134.845 83.7566 134.712 84.3034 134.712C84.8574 134.712 85.3244 134.847 85.7044 135.116C86.0879 135.383 86.3578 135.747 86.514 136.208H86.5993C86.7804 135.754 87.0858 135.392 87.5154 135.122C87.9487 134.848 88.4618 134.712 89.0549 134.712C89.8077 134.712 90.4221 134.95 90.8979 135.425C91.3738 135.901 91.6117 136.596 91.6117 137.508V143H89.6781V137.806C89.6781 137.299 89.5431 136.928 89.2733 136.693C89.0034 136.455 88.6731 136.336 88.2825 136.336C87.8173 136.336 87.4533 136.482 87.1905 136.773C86.9313 137.061 86.8017 137.435 86.8017 137.897V143H84.9107V137.727C84.9107 137.304 84.7828 136.967 84.5272 136.714C84.275 136.462 83.9448 136.336 83.5364 136.336C83.2594 136.336 83.0073 136.407 82.78 136.549C82.5527 136.688 82.3716 136.885 82.2367 137.141C82.1017 137.393 82.0343 137.687 82.0343 138.025V143H80.106ZM97.6401 143.16C96.8198 143.16 96.1113 142.989 95.5147 142.648C94.9217 142.304 94.4654 141.817 94.1458 141.189C93.8262 140.557 93.6664 139.813 93.6664 138.957C93.6664 138.115 93.8262 137.377 94.1458 136.741C94.4689 136.102 94.9199 135.605 95.4987 135.25C96.0776 134.891 96.7576 134.712 97.5389 134.712C98.0431 134.712 98.519 134.793 98.9664 134.957C99.4174 135.116 99.8151 135.365 100.16 135.702C100.508 136.04 100.781 136.469 100.98 136.991C101.179 137.51 101.278 138.128 101.278 138.845V139.436H94.5719V138.137H99.4298C99.4263 137.767 99.3464 137.439 99.1901 137.151C99.0339 136.86 98.8155 136.631 98.535 136.464C98.258 136.297 97.9348 136.214 97.5655 136.214C97.1713 136.214 96.8251 136.31 96.5268 136.501C96.2285 136.69 95.9959 136.938 95.829 137.247C95.6656 137.553 95.5822 137.888 95.5786 138.254V139.388C95.5786 139.864 95.6656 140.273 95.8396 140.614C96.0137 140.951 96.2569 141.21 96.5694 141.391C96.8819 141.569 97.2477 141.658 97.6667 141.658C97.9472 141.658 98.2012 141.619 98.4284 141.54C98.6557 141.459 98.8528 141.34 99.0197 141.184C99.1866 141.027 99.3127 140.834 99.3979 140.603L101.198 140.805C101.085 141.281 100.868 141.697 100.548 142.052C100.232 142.403 99.8276 142.677 99.334 142.872C98.8404 143.064 98.2757 143.16 97.6401 143.16Z" fill="#6048E5"/>
<path d="M6.56374 156.091H8.56126L12.0343 164.571H12.1621L15.6351 156.091H17.6326V167H16.0666V159.106H15.9654L12.748 166.984H11.4483L8.231 159.1H8.12979V167H6.56374V156.091ZM22.2789 167.181C21.7604 167.181 21.2916 167.085 20.8726 166.893C20.4536 166.698 20.1215 166.416 19.8765 166.047C19.635 165.677 19.5143 165.224 19.5143 164.688C19.5143 164.227 19.6031 163.847 19.7806 163.548C19.9582 163.25 20.1979 163.014 20.4997 162.84C20.8016 162.666 21.1389 162.534 21.5118 162.446C21.8847 162.357 22.2646 162.289 22.6517 162.243C23.1418 162.186 23.5395 162.14 23.8449 162.105C24.1503 162.066 24.3722 162.004 24.5107 161.918C24.6492 161.833 24.7185 161.695 24.7185 161.503V161.466C24.7185 161 24.5871 160.64 24.3243 160.384C24.0651 160.129 23.678 160.001 23.1631 160.001C22.6269 160.001 22.2043 160.12 21.8953 160.358C21.5899 160.592 21.3786 160.853 21.2615 161.141L19.7646 160.8C19.9422 160.303 20.2014 159.901 20.5423 159.596C20.8868 159.287 21.2828 159.063 21.7302 158.925C22.1776 158.783 22.6482 158.712 23.1418 158.712C23.4685 158.712 23.8147 158.751 24.1805 158.829C24.5498 158.903 24.8943 159.042 25.2139 159.244C25.537 159.447 25.8016 159.736 26.0075 160.113C26.2135 160.485 26.3165 160.97 26.3165 161.567V167H24.7611V165.881H24.6972C24.5942 166.087 24.4397 166.29 24.2338 166.489C24.0278 166.687 23.7632 166.853 23.4401 166.984C23.1169 167.115 22.7298 167.181 22.2789 167.181ZM22.6251 165.903C23.0654 165.903 23.4419 165.816 23.7544 165.642C24.0704 165.468 24.3101 165.24 24.4735 164.96C24.6404 164.676 24.7238 164.372 24.7238 164.049V162.994C24.667 163.051 24.5569 163.104 24.3936 163.154C24.2338 163.2 24.0509 163.241 23.8449 163.277C23.6389 163.309 23.4383 163.339 23.243 163.367C23.0477 163.392 22.8843 163.413 22.7529 163.431C22.444 163.47 22.1617 163.536 21.906 163.628C21.6539 163.721 21.4514 163.854 21.2987 164.028C21.1496 164.198 21.075 164.425 21.075 164.71C21.075 165.104 21.2206 165.402 21.5118 165.604C21.803 165.803 22.1741 165.903 22.6251 165.903ZM28.4379 167V158.818H29.9773V160.118H30.0625C30.2116 159.678 30.4744 159.331 30.8509 159.079C31.2308 158.824 31.6605 158.696 32.1399 158.696C32.2393 158.696 32.3565 158.699 32.4915 158.706C32.63 158.713 32.7383 158.722 32.8164 158.733V160.256C32.7525 160.239 32.6388 160.219 32.4755 160.198C32.3121 160.173 32.1488 160.161 31.9854 160.161C31.609 160.161 31.2734 160.24 30.9787 160.4C30.6875 160.556 30.4567 160.775 30.2862 161.055C30.1158 161.332 30.0305 161.648 30.0305 162.004V167H28.4379ZM34.1947 167V158.818H35.7874V167H34.1947ZM34.999 157.556C34.722 157.556 34.4841 157.463 34.2852 157.279C34.0899 157.091 33.9923 156.867 33.9923 156.608C33.9923 156.345 34.0899 156.121 34.2852 155.936C34.4841 155.748 34.722 155.654 34.999 155.654C35.276 155.654 35.5122 155.748 35.7075 155.936C35.9063 156.121 36.0058 156.345 36.0058 156.608C36.0058 156.867 35.9063 157.091 35.7075 157.279C35.5122 157.463 35.276 157.556 34.999 157.556ZM40.3111 167.181C39.7926 167.181 39.3239 167.085 38.9048 166.893C38.4858 166.698 38.1538 166.416 37.9087 166.047C37.6673 165.677 37.5465 165.224 37.5465 164.688C37.5465 164.227 37.6353 163.847 37.8129 163.548C37.9904 163.25 38.2301 163.014 38.532 162.84C38.8338 162.666 39.1712 162.534 39.544 162.446C39.9169 162.357 40.2969 162.289 40.6839 162.243C41.174 162.186 41.5717 162.14 41.8771 162.105C42.1825 162.066 42.4045 162.004 42.543 161.918C42.6815 161.833 42.7507 161.695 42.7507 161.503V161.466C42.7507 161 42.6193 160.64 42.3565 160.384C42.0973 160.129 41.7102 160.001 41.1953 160.001C40.6591 160.001 40.2365 160.12 39.9276 160.358C39.6222 160.592 39.4109 160.853 39.2937 161.141L37.7969 160.8C37.9744 160.303 38.2337 159.901 38.5746 159.596C38.919 159.287 39.315 159.063 39.7624 158.925C40.2099 158.783 40.6804 158.712 41.174 158.712C41.5007 158.712 41.8469 158.751 42.2127 158.829C42.582 158.903 42.9265 159.042 43.2461 159.244C43.5692 159.447 43.8338 159.736 44.0398 160.113C44.2457 160.485 44.3487 160.97 44.3487 161.567V167H42.7933V165.881H42.7294C42.6264 166.087 42.4719 166.29 42.266 166.489C42.06 166.687 41.7955 166.853 41.4723 166.984C41.1491 167.115 40.7621 167.181 40.3111 167.181ZM40.6573 165.903C41.0977 165.903 41.4741 165.816 41.7866 165.642C42.1026 165.468 42.3423 165.24 42.5057 164.96C42.6726 164.676 42.756 164.372 42.756 164.049V162.994C42.6992 163.051 42.5891 163.104 42.4258 163.154C42.266 163.2 42.0831 163.241 41.8771 163.277C41.6712 163.309 41.4705 163.339 41.2752 163.367C41.0799 163.392 40.9165 163.413 40.7852 163.431C40.4762 163.47 40.1939 163.536 39.9382 163.628C39.6861 163.721 39.4837 163.854 39.331 164.028C39.1818 164.198 39.1072 164.425 39.1072 164.71C39.1072 165.104 39.2528 165.402 39.544 165.604C39.8352 165.803 40.2063 165.903 40.6573 165.903ZM50.5676 156.091H52.5652L56.0382 164.571H56.166L59.639 156.091H61.6365V167H60.0705V159.106H59.9693L56.752 166.984H55.4522L52.2349 159.1H52.1337V167H50.5676V156.091ZM66.2828 167.181C65.7643 167.181 65.2955 167.085 64.8765 166.893C64.4575 166.698 64.1254 166.416 63.8804 166.047C63.6389 165.677 63.5182 165.224 63.5182 164.688C63.5182 164.227 63.607 163.847 63.7845 163.548C63.9621 163.25 64.2018 163.014 64.5036 162.84C64.8055 162.666 65.1428 162.534 65.5157 162.446C65.8886 162.357 66.2686 162.289 66.6556 162.243C67.1457 162.186 67.5434 162.14 67.8488 162.105C68.1542 162.066 68.3762 162.004 68.5146 161.918C68.6531 161.833 68.7224 161.695 68.7224 161.503V161.466C68.7224 161 68.591 160.64 68.3282 160.384C68.069 160.129 67.6819 160.001 67.167 160.001C66.6308 160.001 66.2082 160.12 65.8992 160.358C65.5938 160.592 65.3825 160.853 65.2654 161.141L63.7686 160.8C63.9461 160.303 64.2053 159.901 64.5463 159.596C64.8907 159.287 65.2867 159.063 65.7341 158.925C66.1816 158.783 66.6521 158.712 67.1457 158.712C67.4724 158.712 67.8186 158.751 68.1844 158.829C68.5537 158.903 68.8982 159.042 69.2178 159.244C69.5409 159.447 69.8055 159.736 70.0115 160.113C70.2174 160.485 70.3204 160.97 70.3204 161.567V167H68.765V165.881H68.7011C68.5981 166.087 68.4436 166.29 68.2377 166.489C68.0317 166.687 67.7671 166.853 67.444 166.984C67.1208 167.115 66.7338 167.181 66.2828 167.181ZM66.629 165.903C67.0693 165.903 67.4458 165.816 67.7583 165.642C68.0743 165.468 68.314 165.24 68.4774 164.96C68.6443 164.676 68.7277 164.372 68.7277 164.049V162.994C68.6709 163.051 68.5608 163.104 68.3975 163.154C68.2377 163.2 68.0548 163.241 67.8488 163.277C67.6428 163.309 67.4422 163.339 67.2469 163.367C67.0516 163.392 66.8882 163.413 66.7568 163.431C66.4479 163.47 66.1656 163.536 65.9099 163.628C65.6578 163.721 65.4553 163.854 65.3026 164.028C65.1535 164.198 65.0789 164.425 65.0789 164.71C65.0789 165.104 65.2245 165.402 65.5157 165.604C65.8069 165.803 66.178 165.903 66.629 165.903ZM74.0344 162.142V167H72.4418V156.091H74.0131V160.15H74.1143C74.3061 159.71 74.5991 159.36 74.9933 159.1C75.3874 158.841 75.9023 158.712 76.538 158.712C77.0991 158.712 77.5891 158.827 78.0082 159.058C78.4308 159.289 78.7575 159.633 78.9883 160.091C79.2227 160.546 79.3398 161.114 79.3398 161.796V167H77.7472V161.988C77.7472 161.387 77.5927 160.922 77.2837 160.592C76.9748 160.258 76.5451 160.091 75.9947 160.091C75.6183 160.091 75.2809 160.171 74.9826 160.331C74.6879 160.491 74.4553 160.725 74.2848 161.034C74.1179 161.339 74.0344 161.709 74.0344 162.142ZM83.8462 167.181C83.3278 167.181 82.859 167.085 82.44 166.893C82.021 166.698 81.6889 166.416 81.4439 166.047C81.2024 165.677 81.0817 165.224 81.0817 164.688C81.0817 164.227 81.1705 163.847 81.348 163.548C81.5256 163.25 81.7653 163.014 82.0671 162.84C82.369 162.666 82.7063 162.534 83.0792 162.446C83.4521 162.357 83.832 162.289 84.2191 162.243C84.7092 162.186 85.1069 162.14 85.4123 162.105C85.7177 162.066 85.9396 162.004 86.0781 161.918C86.2166 161.833 86.2859 161.695 86.2859 161.503V161.466C86.2859 161 86.1545 160.64 85.8917 160.384C85.6325 160.129 85.2454 160.001 84.7305 160.001C84.1942 160.001 83.7717 160.12 83.4627 160.358C83.1573 160.592 82.946 160.853 82.8288 161.141L81.332 160.8C81.5096 160.303 81.7688 159.901 82.1097 159.596C82.4542 159.287 82.8501 159.063 83.2976 158.925C83.745 158.783 84.2156 158.712 84.7092 158.712C85.0359 158.712 85.3821 158.751 85.7479 158.829C86.1172 158.903 86.4616 159.042 86.7812 159.244C87.1044 159.447 87.369 159.736 87.5749 160.113C87.7809 160.485 87.8839 160.97 87.8839 161.567V167H86.3285V165.881H86.2646C86.1616 166.087 86.0071 166.29 85.8011 166.489C85.5952 166.687 85.3306 166.853 85.0075 166.984C84.6843 167.115 84.2972 167.181 83.8462 167.181ZM84.1925 165.903C84.6328 165.903 85.0092 165.816 85.3217 165.642C85.6378 165.468 85.8775 165.24 86.0408 164.96C86.2077 164.676 86.2912 164.372 86.2912 164.049V162.994C86.2344 163.051 86.1243 163.104 85.9609 163.154C85.8011 163.2 85.6183 163.241 85.4123 163.277C85.2063 163.309 85.0057 163.339 84.8104 163.367C84.6151 163.392 84.4517 163.413 84.3203 163.431C84.0114 163.47 83.729 163.536 83.4734 163.628C83.2212 163.721 83.0188 163.854 82.8661 164.028C82.717 164.198 82.6424 164.425 82.6424 164.71C82.6424 165.104 82.788 165.402 83.0792 165.604C83.3704 165.803 83.7415 165.903 84.1925 165.903ZM91.5979 162.142V167H90.0052V158.818H91.534V160.15H91.6352C91.8234 159.717 92.1182 159.369 92.5194 159.106C92.9243 158.843 93.4339 158.712 94.0482 158.712C94.6057 158.712 95.094 158.829 95.5131 159.063C95.9321 159.294 96.257 159.638 96.4878 160.097C96.7187 160.555 96.8341 161.121 96.8341 161.796V167H95.2414V161.988C95.2414 161.395 95.0869 160.931 94.778 160.597C94.469 160.26 94.0447 160.091 93.5049 160.091C93.1356 160.091 92.8071 160.171 92.5194 160.331C92.2354 160.491 92.0099 160.725 91.843 161.034C91.6796 161.339 91.5979 161.709 91.5979 162.142ZM98.9701 167V158.818H100.563V167H98.9701ZM99.7744 157.556C99.4974 157.556 99.2595 157.463 99.0606 157.279C98.8653 157.091 98.7677 156.867 98.7677 156.608C98.7677 156.345 98.8653 156.121 99.0606 155.936C99.2595 155.748 99.4974 155.654 99.7744 155.654C100.051 155.654 100.288 155.748 100.483 155.936C100.682 156.121 100.781 156.345 100.781 156.608C100.781 156.867 100.682 157.091 100.483 157.279C100.288 157.463 100.051 157.556 99.7744 157.556Z" fill="#64778C"/>
<circle cx="119" cy="13" r="8" fill="url(#paint8_linear_1692_17281)"/>
<path d="M85.4643 42V33.8182H87.3926V42H85.4643ZM86.4338 32.657C86.1284 32.657 85.8656 32.5558 85.6454 32.3533C85.4252 32.1474 85.3152 31.9006 85.3152 31.6129C85.3152 31.3217 85.4252 31.0749 85.6454 30.8725C85.8656 30.6665 86.1284 30.5636 86.4338 30.5636C86.7427 30.5636 87.0055 30.6665 87.2221 30.8725C87.4423 31.0749 87.5524 31.3217 87.5524 31.6129C87.5524 31.9006 87.4423 32.1474 87.2221 32.3533C87.0055 32.5558 86.7427 32.657 86.4338 32.657ZM89.8254 42V33.8182H91.6685V35.2085H91.7644C91.9348 34.7397 92.2171 34.3739 92.6113 34.1112C93.0055 33.8448 93.476 33.7116 94.0229 33.7116C94.5769 33.7116 95.0438 33.8466 95.4238 34.1165C95.8073 34.3828 96.0772 34.7468 96.2335 35.2085H96.3187C96.4998 34.7539 96.8052 34.3917 97.2349 34.1218C97.6681 33.8484 98.1813 33.7116 98.7743 33.7116C99.5271 33.7116 100.141 33.9496 100.617 34.4254C101.093 34.9013 101.331 35.5955 101.331 36.5082V42H99.3975V36.8065C99.3975 36.2987 99.2626 35.9276 98.9927 35.6932C98.7228 35.4553 98.3926 35.3363 98.0019 35.3363C97.5367 35.3363 97.1727 35.4819 96.91 35.7731C96.6507 36.0607 96.5211 36.4354 96.5211 36.897V42H94.6301V36.7266C94.6301 36.304 94.5023 35.9666 94.2466 35.7145C93.9945 35.4624 93.6642 35.3363 93.2558 35.3363C92.9788 35.3363 92.7267 35.4073 92.4994 35.5494C92.2722 35.6879 92.0911 35.8849 91.9561 36.1406C91.8212 36.3928 91.7537 36.6875 91.7537 37.0249V42H89.8254ZM106.092 42.1651C105.573 42.1651 105.106 42.0728 104.691 41.8881C104.279 41.6999 103.952 41.4229 103.711 41.0572C103.473 40.6914 103.354 40.2404 103.354 39.7042C103.354 39.2425 103.439 38.8608 103.61 38.5589C103.78 38.2571 104.013 38.0156 104.307 37.8345C104.602 37.6534 104.934 37.5167 105.303 37.4244C105.676 37.3285 106.062 37.2592 106.459 37.2166C106.939 37.1669 107.328 37.1225 107.626 37.0835C107.924 37.0408 108.141 36.9769 108.276 36.8917C108.414 36.8029 108.483 36.6662 108.483 36.4815V36.4496C108.483 36.0483 108.364 35.7376 108.127 35.5174C107.889 35.2972 107.546 35.1871 107.098 35.1871C106.626 35.1871 106.252 35.2901 105.975 35.4961C105.701 35.7021 105.516 35.9453 105.421 36.2259L103.62 35.9702C103.762 35.473 103.997 35.0575 104.323 34.7237C104.65 34.3864 105.049 34.1342 105.522 33.9673C105.994 33.7969 106.516 33.7116 107.088 33.7116C107.482 33.7116 107.874 33.7578 108.265 33.8501C108.656 33.9425 109.013 34.0952 109.336 34.3082C109.659 34.5178 109.918 34.8036 110.113 35.1658C110.312 35.5281 110.412 35.9808 110.412 36.5241V42H108.558V40.8761H108.494C108.377 41.1033 108.212 41.3164 107.999 41.5153C107.789 41.7106 107.525 41.8686 107.205 41.9893C106.889 42.1065 106.518 42.1651 106.092 42.1651ZM106.592 40.7482C106.98 40.7482 107.315 40.6719 107.599 40.5192C107.883 40.3629 108.102 40.157 108.254 39.9013C108.411 39.6456 108.489 39.3668 108.489 39.065V38.1009C108.428 38.1506 108.325 38.1967 108.18 38.2393C108.038 38.282 107.878 38.3192 107.7 38.3512C107.523 38.3832 107.347 38.4116 107.173 38.4364C106.999 38.4613 106.848 38.4826 106.72 38.5004C106.433 38.5394 106.175 38.6033 105.948 38.6921C105.721 38.7809 105.541 38.9052 105.41 39.065C105.279 39.2212 105.213 39.4237 105.213 39.6722C105.213 40.0273 105.342 40.2955 105.602 40.4766C105.861 40.6577 106.191 40.7482 106.592 40.7482ZM116.359 45.2386C115.666 45.2386 115.072 45.1445 114.574 44.9563C114.077 44.7717 113.678 44.5231 113.376 44.2106C113.074 43.8981 112.865 43.5518 112.747 43.1719L114.484 42.7511C114.562 42.9109 114.676 43.0689 114.825 43.2251C114.974 43.3849 115.175 43.5163 115.427 43.6193C115.682 43.7259 116.004 43.7791 116.391 43.7791C116.938 43.7791 117.39 43.646 117.749 43.3796C118.108 43.1168 118.287 42.6836 118.287 42.0799V40.5298H118.191C118.092 40.7287 117.946 40.9329 117.754 41.1424C117.566 41.3519 117.316 41.5277 117.003 41.6697C116.694 41.8118 116.306 41.8828 115.837 41.8828C115.208 41.8828 114.638 41.7354 114.127 41.4407C113.619 41.1424 113.214 40.6985 112.912 40.109C112.614 39.516 112.465 38.7738 112.465 37.8825C112.465 36.984 112.614 36.2259 112.912 35.608C113.214 34.9865 113.621 34.516 114.132 34.1964C114.644 33.8732 115.214 33.7116 115.842 33.7116C116.322 33.7116 116.716 33.7933 117.025 33.9567C117.337 34.1165 117.586 34.31 117.77 34.5373C117.955 34.761 118.095 34.9723 118.191 35.1712H118.298V33.8182H120.199V42.1332C120.199 42.8327 120.033 43.4116 119.699 43.8697C119.365 44.3278 118.909 44.6705 118.33 44.8977C117.751 45.125 117.094 45.2386 116.359 45.2386ZM116.375 40.37C116.783 40.37 117.131 40.2706 117.419 40.0717C117.707 39.8729 117.925 39.587 118.074 39.2141C118.223 38.8413 118.298 38.3938 118.298 37.8718C118.298 37.3569 118.223 36.9059 118.074 36.5188C117.928 36.1317 117.712 35.8317 117.424 35.6186C117.14 35.402 116.79 35.2937 116.375 35.2937C115.945 35.2937 115.586 35.4055 115.299 35.6293C115.011 35.853 114.795 36.1602 114.649 36.5508C114.503 36.9379 114.431 37.3782 114.431 37.8718C114.431 38.3725 114.503 38.8111 114.649 39.1875C114.798 39.5604 115.017 39.8516 115.304 40.0611C115.595 40.267 115.952 40.37 116.375 40.37ZM126.248 42.1598C125.427 42.1598 124.719 41.9893 124.122 41.6484C123.529 41.304 123.073 40.8175 122.753 40.1889C122.434 39.5568 122.274 38.8129 122.274 37.957C122.274 37.1154 122.434 36.3768 122.753 35.7411C123.077 35.1019 123.528 34.6048 124.106 34.2496C124.685 33.891 125.365 33.7116 126.147 33.7116C126.651 33.7116 127.127 33.7933 127.574 33.9567C128.025 34.1165 128.423 34.3651 128.767 34.7024C129.115 35.0398 129.389 35.4695 129.588 35.9915C129.786 36.5099 129.886 37.1278 129.886 37.8452V38.4364H123.18V37.1367H128.038C128.034 36.7674 127.954 36.4389 127.798 36.1513C127.642 35.8601 127.423 35.631 127.143 35.4641C126.866 35.2972 126.543 35.2138 126.173 35.2138C125.779 35.2138 125.433 35.3097 125.135 35.5014C124.836 35.6896 124.604 35.9382 124.437 36.2472C124.273 36.5526 124.19 36.8881 124.186 37.2539V38.3885C124.186 38.8643 124.273 39.2727 124.447 39.6136C124.621 39.951 124.865 40.2102 125.177 40.3913C125.49 40.5689 125.855 40.6577 126.274 40.6577C126.555 40.6577 126.809 40.6186 127.036 40.5405C127.263 40.4588 127.461 40.3398 127.627 40.1836C127.794 40.0273 127.92 39.8338 128.006 39.603L129.806 39.8054C129.692 40.2812 129.476 40.6967 129.156 41.0518C128.84 41.4034 128.435 41.6768 127.942 41.8722C127.448 42.0639 126.883 42.1598 126.248 42.1598Z" fill="#6048E5"/>
<path d="M3.13894 61.142V66H1.54625V55.0909H3.11763V59.1499H3.21884C3.4106 58.7095 3.70357 58.3597 4.09775 58.1005C4.49192 57.8413 5.00684 57.7116 5.64249 57.7116C6.20357 57.7116 6.69363 57.8271 7.11266 58.0579C7.53525 58.2887 7.86195 58.6332 8.09277 59.0913C8.32715 59.5458 8.44434 60.114 8.44434 60.7958V66H6.85165V60.9876C6.85165 60.3874 6.69718 59.9222 6.38823 59.592C6.07928 59.2582 5.64959 59.0913 5.09917 59.0913C4.72275 59.0913 4.38539 59.1712 4.08709 59.331C3.79235 59.4908 3.55975 59.7251 3.38929 60.0341C3.22239 60.3395 3.13894 60.7088 3.13894 61.142ZM14.3889 57.8182V59.0966H9.91983V57.8182H14.3889ZM11.1183 55.858H12.711V63.5977C12.711 63.9066 12.7572 64.1392 12.8495 64.2955C12.9419 64.4482 13.0608 64.5529 13.2064 64.6097C13.3556 64.663 13.5171 64.6896 13.6911 64.6896C13.819 64.6896 13.9308 64.6808 14.0267 64.663C14.1226 64.6452 14.1972 64.631 14.2504 64.6204L14.5381 65.9361C14.4458 65.9716 14.3144 66.0071 14.1439 66.0426C13.9735 66.0817 13.7604 66.103 13.5047 66.1065C13.0857 66.1136 12.695 66.0391 12.3328 65.8828C11.9706 65.7266 11.6776 65.4851 11.4539 65.1584C11.2302 64.8317 11.1183 64.4215 11.1183 63.9279V55.858ZM19.97 57.8182V59.0966H15.5009V57.8182H19.97ZM16.6994 55.858H18.2921V63.5977C18.2921 63.9066 18.3382 64.1392 18.4306 64.2955C18.5229 64.4482 18.6419 64.5529 18.7875 64.6097C18.9366 64.663 19.0982 64.6896 19.2722 64.6896C19.4 64.6896 19.5119 64.6808 19.6078 64.663C19.7037 64.6452 19.7782 64.631 19.8315 64.6204L20.1191 65.9361C20.0268 65.9716 19.8954 66.0071 19.725 66.0426C19.5545 66.0817 19.3414 66.103 19.0858 66.1065C18.6667 66.1136 18.2761 66.0391 17.9139 65.8828C17.5517 65.7266 17.2587 65.4851 17.035 65.1584C16.8113 64.8317 16.6994 64.4215 16.6994 63.9279V55.858ZM21.7318 69.0682V57.8182H23.2872V59.1445H23.4204C23.5127 58.9741 23.6459 58.777 23.8199 58.5533C23.9939 58.3295 24.2354 58.1342 24.5443 57.9673C24.8532 57.7969 25.2616 57.7116 25.7694 57.7116C26.43 57.7116 27.0194 57.8786 27.5379 58.2124C28.0564 58.5462 28.463 59.0273 28.7577 59.6559C29.056 60.2844 29.2052 61.0408 29.2052 61.9251C29.2052 62.8093 29.0578 63.5675 28.7631 64.1996C28.4683 64.8281 28.0635 65.3129 27.5486 65.6538C27.0336 65.9911 26.4459 66.1598 25.7854 66.1598C25.2883 66.1598 24.8817 66.0763 24.5656 65.9094C24.2531 65.7425 24.0081 65.5472 23.8305 65.3235C23.653 65.0998 23.5162 64.9009 23.4204 64.7269H23.3245V69.0682H21.7318ZM23.2925 61.9091C23.2925 62.4844 23.376 62.9886 23.5429 63.4219C23.7098 63.8551 23.9513 64.1942 24.2673 64.4393C24.5834 64.6808 24.9704 64.8015 25.4285 64.8015C25.9044 64.8015 26.3021 64.6754 26.6217 64.4233C26.9413 64.1676 27.1828 63.8214 27.3461 63.3846C27.5131 62.9478 27.5965 62.456 27.5965 61.9091C27.5965 61.3693 27.5148 60.8846 27.3515 60.4549C27.1917 60.0252 26.9502 59.6861 26.627 59.4375C26.3074 59.1889 25.9079 59.0646 25.4285 59.0646C24.9669 59.0646 24.5763 59.1836 24.2567 59.4215C23.9406 59.6594 23.7009 59.9915 23.5376 60.4176C23.3742 60.8437 23.2925 61.3409 23.2925 61.9091ZM37.1207 59.8157L35.6771 60.0714C35.6167 59.8867 35.5209 59.7109 35.3895 59.544C35.2616 59.3771 35.0876 59.2404 34.8675 59.1339C34.6473 59.0273 34.3721 58.9741 34.0418 58.9741C33.5908 58.9741 33.2144 59.0753 32.9126 59.2777C32.6107 59.4766 32.4598 59.734 32.4598 60.0501C32.4598 60.3235 32.561 60.5437 32.7634 60.7106C32.9658 60.8775 33.2925 61.0142 33.7435 61.1207L35.0432 61.419C35.7961 61.593 36.3572 61.8612 36.7265 62.2234C37.0958 62.5856 37.2805 63.0561 37.2805 63.6349C37.2805 64.125 37.1384 64.5618 36.8543 64.9453C36.5738 65.3253 36.1814 65.6236 35.6771 65.8402C35.1764 66.0568 34.5958 66.1651 33.9353 66.1651C33.0191 66.1651 32.2716 65.9698 31.6927 65.5792C31.1139 65.185 30.7588 64.6257 30.6274 63.9013L32.1668 63.6669C32.2627 64.0682 32.4598 64.3718 32.7581 64.5778C33.0564 64.7802 33.4452 64.8814 33.9246 64.8814C34.4466 64.8814 34.8639 64.7731 35.1764 64.5565C35.4889 64.3363 35.6452 64.0682 35.6452 63.7521C35.6452 63.4964 35.5493 63.2816 35.3575 63.1076C35.1693 62.9336 34.8799 62.8022 34.4893 62.7134L33.1043 62.4098C32.3408 62.2358 31.7762 61.9588 31.4104 61.5788C31.0482 61.1989 30.8671 60.7177 30.8671 60.1353C30.8671 59.6523 31.002 59.2298 31.2719 58.8675C31.5418 58.5053 31.9147 58.223 32.3905 58.0206C32.8664 57.8146 33.4115 57.7116 34.0258 57.7116C34.9101 57.7116 35.6061 57.9034 36.1139 58.2869C36.6217 58.6669 36.9573 59.1765 37.1207 59.8157ZM40.081 66.1012C39.7898 66.1012 39.5394 65.9982 39.3299 65.7923C39.1204 65.5827 39.0156 65.3306 39.0156 65.0359C39.0156 64.7447 39.1204 64.4961 39.3299 64.2901C39.5394 64.0806 39.7898 63.9759 40.081 63.9759C40.3722 63.9759 40.6225 64.0806 40.832 64.2901C41.0415 64.4961 41.1463 64.7447 41.1463 65.0359C41.1463 65.2312 41.0966 65.4105 40.9972 65.5739C40.9013 65.7337 40.7734 65.8615 40.6136 65.9574C40.4538 66.0533 40.2763 66.1012 40.081 66.1012ZM40.081 60.146C39.7898 60.146 39.5394 60.0412 39.3299 59.8317C39.1204 59.6222 39.0156 59.3718 39.0156 59.0806C39.0156 58.7894 39.1204 58.5408 39.3299 58.3349C39.5394 58.1254 39.7898 58.0206 40.081 58.0206C40.3722 58.0206 40.6225 58.1254 40.832 58.3349C41.0415 58.5408 41.1463 58.7894 41.1463 59.0806C41.1463 59.2759 41.0966 59.4553 40.9972 59.6186C40.9013 59.7784 40.7734 59.9062 40.6136 60.0021C40.4538 60.098 40.2763 60.146 40.081 60.146ZM47.4345 54.5795L43.9189 67.6406H42.4966L46.0123 54.5795H47.4345ZM52.9423 54.5795L49.4267 67.6406H48.0044L51.5201 54.5795H52.9423ZM54.2953 69.0682V57.8182H55.8507V59.1445H55.9838C56.0762 58.9741 56.2093 58.777 56.3833 58.5533C56.5574 58.3295 56.7988 58.1342 57.1078 57.9673C57.4167 57.7969 57.8251 57.7116 58.3329 57.7116C58.9934 57.7116 59.5829 57.8786 60.1014 58.2124C60.6199 58.5462 61.0265 59.0273 61.3212 59.6559C61.6195 60.2844 61.7686 61.0408 61.7686 61.9251C61.7686 62.8093 61.6213 63.5675 61.3265 64.1996C61.0318 64.8281 60.627 65.3129 60.112 65.6538C59.5971 65.9911 59.0094 66.1598 58.3489 66.1598C57.8517 66.1598 57.4451 66.0763 57.1291 65.9094C56.8166 65.7425 56.5716 65.5472 56.394 65.3235C56.2164 65.0998 56.0797 64.9009 55.9838 64.7269H55.888V69.0682H54.2953ZM55.856 61.9091C55.856 62.4844 55.9395 62.9886 56.1064 63.4219C56.2733 63.8551 56.5147 64.1942 56.8308 64.4393C57.1468 64.6808 57.5339 64.8015 57.992 64.8015C58.4679 64.8015 58.8656 64.6754 59.1852 64.4233C59.5048 64.1676 59.7463 63.8214 59.9096 63.3846C60.0765 62.9478 60.16 62.456 60.16 61.9091C60.16 61.3693 60.0783 60.8846 59.915 60.4549C59.7551 60.0252 59.5137 59.6861 59.1905 59.4375C58.8709 59.1889 58.4714 59.0646 57.992 59.0646C57.5304 59.0646 57.1397 59.1836 56.8201 59.4215C56.5041 59.6594 56.2644 59.9915 56.101 60.4176C55.9377 60.8437 55.856 61.3409 55.856 61.9091ZM63.5531 66V57.8182H65.0925V59.1179H65.1777C65.3269 58.6776 65.5897 58.3313 65.9661 58.0792C66.3461 57.8235 66.7757 57.6957 67.2551 57.6957C67.3546 57.6957 67.4718 57.6992 67.6067 57.7063C67.7452 57.7134 67.8535 57.7223 67.9316 57.733V59.2564C67.8677 59.2386 67.7541 59.2191 67.5907 59.1978C67.4274 59.1729 67.264 59.1605 67.1007 59.1605C66.7243 59.1605 66.3887 59.2404 66.0939 59.4002C65.8027 59.5565 65.5719 59.7749 65.4015 60.0554C65.231 60.3324 65.1458 60.6484 65.1458 61.0036V66H63.5531ZM72.4633 66.1651C71.6963 66.1651 71.0269 65.9893 70.4552 65.6378C69.8834 65.2862 69.4395 64.7944 69.1235 64.1623C68.8074 63.5302 68.6494 62.7915 68.6494 61.9464C68.6494 61.0977 68.8074 60.3555 69.1235 59.7198C69.4395 59.0842 69.8834 58.5906 70.4552 58.239C71.0269 57.8874 71.6963 57.7116 72.4633 57.7116C73.2304 57.7116 73.8998 57.8874 74.4715 58.239C75.0432 58.5906 75.4871 59.0842 75.8032 59.7198C76.1192 60.3555 76.2773 61.0977 76.2773 61.9464C76.2773 62.7915 76.1192 63.5302 75.8032 64.1623C75.4871 64.7944 75.0432 65.2862 74.4715 65.6378C73.8998 65.9893 73.2304 66.1651 72.4633 66.1651ZM72.4687 64.8281C72.9658 64.8281 73.3778 64.6967 73.7045 64.4339C74.0312 64.1712 74.2726 63.8214 74.4289 63.3846C74.5887 62.9478 74.6686 62.4666 74.6686 61.9411C74.6686 61.419 74.5887 60.9396 74.4289 60.5028C74.2726 60.0625 74.0312 59.7092 73.7045 59.4428C73.3778 59.1765 72.9658 59.0433 72.4687 59.0433C71.968 59.0433 71.5525 59.1765 71.2222 59.4428C70.8955 59.7092 70.6523 60.0625 70.4925 60.5028C70.3362 60.9396 70.2581 61.419 70.2581 61.9411C70.2581 62.4666 70.3362 62.9478 70.4925 63.3846C70.6523 63.8214 70.8955 64.1712 71.2222 64.4339C71.5525 64.6967 71.968 64.8281 72.4687 64.8281ZM81.9489 57.8182V59.0966H77.3253V57.8182H81.9489ZM78.593 66V56.87C78.593 56.3587 78.7049 55.9343 78.9286 55.5969C79.1523 55.256 79.4489 55.0021 79.8182 54.8352C80.1875 54.6648 80.5888 54.5795 81.022 54.5795C81.3416 54.5795 81.6151 54.6062 81.8423 54.6594C82.0696 54.7092 82.2383 54.7553 82.3484 54.7979L81.9755 56.087C81.9009 56.0657 81.805 56.0408 81.6879 56.0124C81.5707 55.9805 81.4286 55.9645 81.2617 55.9645C80.8746 55.9645 80.5977 56.0604 80.4308 56.2521C80.2674 56.4439 80.1857 56.7209 80.1857 57.0831V66H78.593ZM83.5922 66V57.8182H85.1848V66H83.5922ZM84.3965 56.5558C84.1195 56.5558 83.8816 56.4634 83.6827 56.2788C83.4874 56.0906 83.3897 55.8668 83.3897 55.6076C83.3897 55.3448 83.4874 55.1211 83.6827 54.9364C83.8816 54.7482 84.1195 54.6541 84.3965 54.6541C84.6735 54.6541 84.9096 54.7482 85.1049 54.9364C85.3038 55.1211 85.4032 55.3448 85.4032 55.6076C85.4032 55.8668 85.3038 56.0906 85.1049 56.2788C84.9096 56.4634 84.6735 56.5558 84.3965 56.5558ZM88.9202 55.0909V66H87.3275V55.0909H88.9202ZM94.5891 66.1651C93.783 66.1651 93.0888 65.9929 92.5064 65.6484C91.9276 65.3004 91.4801 64.8121 91.1641 64.1836C90.8516 63.5515 90.6953 62.8111 90.6953 61.9624C90.6953 61.1243 90.8516 60.3857 91.1641 59.7464C91.4801 59.1072 91.9205 58.6083 92.4851 58.2496C93.0533 57.891 93.7173 57.7116 94.4773 57.7116C94.9389 57.7116 95.3864 57.788 95.8196 57.9407C96.2528 58.0934 96.6417 58.3331 96.9862 58.6598C97.3306 58.9865 97.6023 59.4109 97.8011 59.9329C98 60.4513 98.0994 61.0817 98.0994 61.8239V62.3885H91.5955V61.1953H96.5387C96.5387 60.7763 96.4535 60.4052 96.283 60.082C96.1126 59.7553 95.8729 59.4979 95.5639 59.3097C95.2585 59.1214 94.8999 59.0273 94.4879 59.0273C94.0405 59.0273 93.6499 59.1374 93.3161 59.3576C92.9858 59.5742 92.7301 59.8583 92.549 60.2099C92.3714 60.5579 92.2827 60.9361 92.2827 61.3445V62.2766C92.2827 62.8235 92.3786 63.2887 92.5703 63.6722C92.7656 64.0558 93.0373 64.3487 93.3853 64.5511C93.7333 64.75 94.1399 64.8494 94.6051 64.8494C94.907 64.8494 95.1822 64.8068 95.4308 64.7216C95.6793 64.6328 95.8942 64.5014 96.0753 64.3274C96.2564 64.1534 96.3949 63.9386 96.4908 63.6829L97.9982 63.9545C97.8775 64.3984 97.6609 64.7873 97.3484 65.1211C97.0394 65.4513 96.6506 65.7088 96.1818 65.8935C95.7166 66.0746 95.1857 66.1651 94.5891 66.1651ZM100.916 66.1012C100.625 66.1012 100.374 65.9982 100.165 65.7923C99.9553 65.5827 99.8506 65.3306 99.8506 65.0359C99.8506 64.7447 99.9553 64.4961 100.165 64.2901C100.374 64.0806 100.625 63.9759 100.916 63.9759C101.207 63.9759 101.457 64.0806 101.667 64.2901C101.877 64.4961 101.981 64.7447 101.981 65.0359C101.981 65.2312 101.932 65.4105 101.832 65.5739C101.736 65.7337 101.608 65.8615 101.449 65.9574C101.289 66.0533 101.111 66.1012 100.916 66.1012ZM104.115 69.0682V57.8182H105.67V59.1445H105.803C105.896 58.9741 106.029 58.777 106.203 58.5533C106.377 58.3295 106.618 58.1342 106.927 57.9673C107.236 57.7969 107.644 57.7116 108.152 57.7116C108.813 57.7116 109.402 57.8786 109.921 58.2124C110.439 58.5462 110.846 59.0273 111.141 59.6559C111.439 60.2844 111.588 61.0408 111.588 61.9251C111.588 62.8093 111.441 63.5675 111.146 64.1996C110.851 64.8281 110.446 65.3129 109.931 65.6538C109.416 65.9911 108.829 66.1598 108.168 66.1598C107.671 66.1598 107.264 66.0763 106.948 65.9094C106.636 65.7425 106.391 65.5472 106.213 65.3235C106.036 65.0998 105.899 64.9009 105.803 64.7269H105.707V69.0682H104.115ZM105.675 61.9091C105.675 62.4844 105.759 62.9886 105.926 63.4219C106.093 63.8551 106.334 64.1942 106.65 64.4393C106.966 64.6808 107.353 64.8015 107.811 64.8015C108.287 64.8015 108.685 64.6754 109.005 64.4233C109.324 64.1676 109.566 63.8214 109.729 63.3846C109.896 62.9478 109.979 62.456 109.979 61.9091C109.979 61.3693 109.898 60.8846 109.734 60.4549C109.574 60.0252 109.333 59.6861 109.01 59.4375C108.69 59.1889 108.291 59.0646 107.811 59.0646C107.35 59.0646 106.959 59.1836 106.639 59.4215C106.323 59.6594 106.084 59.9915 105.92 60.4176C105.757 60.8437 105.675 61.3409 105.675 61.9091ZM114.965 61.142V66H113.372V57.8182H114.901V59.1499H115.002C115.191 58.7166 115.485 58.3686 115.887 58.1058C116.291 57.843 116.801 57.7116 117.415 57.7116C117.973 57.7116 118.461 57.8288 118.88 58.0632C119.299 58.294 119.624 58.6385 119.855 59.0966C120.086 59.5547 120.201 60.1211 120.201 60.7958V66H118.609V60.9876C118.609 60.3945 118.454 59.9311 118.145 59.5973C117.836 59.2599 117.412 59.0913 116.872 59.0913C116.503 59.0913 116.174 59.1712 115.887 59.331C115.603 59.4908 115.377 59.7251 115.21 60.0341C115.047 60.3395 114.965 60.7088 114.965 61.142ZM125.768 69.2386C125.118 69.2386 124.559 69.1534 124.09 68.983C123.625 68.8125 123.245 68.587 122.95 68.3065C122.655 68.0259 122.435 67.7188 122.289 67.3849L123.658 66.8203C123.754 66.9766 123.882 67.1417 124.042 67.3157C124.205 67.4933 124.425 67.6442 124.702 67.7685C124.983 67.8928 125.343 67.9549 125.784 67.9549C126.387 67.9549 126.886 67.8075 127.28 67.5128C127.675 67.2216 127.872 66.7564 127.872 66.1172V64.5085H127.771C127.675 64.6825 127.536 64.8761 127.355 65.0891C127.177 65.3022 126.932 65.4869 126.62 65.6431C126.307 65.7994 125.901 65.8775 125.4 65.8775C124.754 65.8775 124.171 65.7266 123.653 65.4247C123.138 65.1193 122.73 64.6701 122.428 64.0771C122.13 63.4805 121.98 62.7472 121.98 61.8771C121.98 61.0071 122.128 60.2614 122.422 59.6399C122.721 59.0185 123.129 58.5426 123.648 58.2124C124.166 57.8786 124.754 57.7116 125.411 57.7116C125.919 57.7116 126.329 57.7969 126.641 57.9673C126.954 58.1342 127.197 58.3295 127.371 58.5533C127.549 58.777 127.685 58.9741 127.781 59.1445H127.898V57.8182H129.459V66.1811C129.459 66.8842 129.296 67.4613 128.969 67.9123C128.642 68.3633 128.2 68.6971 127.643 68.9137C127.089 69.1303 126.464 69.2386 125.768 69.2386ZM125.752 64.5565C126.21 64.5565 126.597 64.4499 126.913 64.2369C127.233 64.0202 127.474 63.7113 127.637 63.31C127.804 62.9052 127.888 62.4205 127.888 61.8558C127.888 61.3054 127.806 60.8207 127.643 60.4016C127.479 59.9826 127.24 59.6559 126.924 59.4215C126.608 59.1836 126.217 59.0646 125.752 59.0646C125.272 59.0646 124.873 59.1889 124.553 59.4375C124.234 59.6825 123.992 60.0163 123.829 60.4389C123.669 60.8615 123.589 61.3338 123.589 61.8558C123.589 62.392 123.671 62.8626 123.834 63.2674C123.997 63.6722 124.239 63.9883 124.559 64.2156C124.882 64.4428 125.279 64.5565 125.752 64.5565Z" fill="#64778C"/>
<circle opacity="0.1" cx="175" cy="140" r="20.5" stroke="#6048E5"/>
<circle opacity="0.3" cx="175" cy="140" r="15" stroke="#6048E5" stroke-width="2"/>
<circle cx="175" cy="140" r="9" fill="url(#paint9_linear_1692_17281)"/>
<path d="M144.453 178H146.429V174.314H148.517C151.037 174.314 152.39 172.801 152.39 170.702C152.39 168.62 151.053 167.091 148.544 167.091H144.453V178ZM146.429 172.689V168.742H148.24C149.721 168.742 150.376 169.541 150.376 170.702C150.376 171.864 149.721 172.689 148.251 172.689H146.429ZM154.556 178H161.694V176.343H156.532V173.366H161.284V171.709H156.532V168.748H161.651V167.091H154.556V178ZM164.118 178H166.094V174.005H168.107L170.249 178H172.454L170.094 173.675C171.378 173.158 172.054 172.061 172.054 170.58C172.054 168.497 170.712 167.091 168.209 167.091H164.118V178ZM166.094 172.364V168.742H167.905C169.38 168.742 170.041 169.419 170.041 170.58C170.041 171.741 169.38 172.364 167.916 172.364H166.094ZM180.252 170.09H182.154C182.116 168.247 180.545 166.942 178.223 166.942C175.932 166.942 174.212 168.231 174.217 170.159C174.217 171.725 175.33 172.625 177.125 173.089L178.366 173.408C179.544 173.707 180.321 174.074 180.327 174.921C180.321 175.853 179.437 176.477 178.148 176.477C176.912 176.477 175.953 175.923 175.874 174.777H173.929C174.009 176.945 175.623 178.165 178.164 178.165C180.779 178.165 182.298 176.86 182.303 174.937C182.298 173.046 180.737 172.183 179.096 171.794L178.073 171.539C177.179 171.326 176.209 170.947 176.22 170.037C176.225 169.216 176.96 168.614 178.196 168.614C179.373 168.614 180.151 169.163 180.252 170.09ZM194.263 172.545C194.263 169.019 192.111 166.942 189.25 166.942C186.384 166.942 184.238 169.019 184.238 172.545C184.238 176.066 186.384 178.149 189.25 178.149C192.111 178.149 194.263 176.072 194.263 172.545ZM192.276 172.545C192.276 175.028 191.029 176.375 189.25 176.375C187.476 176.375 186.225 175.028 186.225 172.545C186.225 170.063 187.476 168.716 189.25 168.716C191.029 168.716 192.276 170.063 192.276 172.545ZM205.546 167.091H203.58V174.527H203.484L198.349 167.091H196.581V178H198.557V170.569H198.648L203.788 178H205.546V167.091Z" fill="#6048E5"/>
<defs>
<linearGradient id="paint0_linear_1692_17281" x1="190" y1="134" x2="253.055" y2="125.831" gradientUnits="userSpaceOnUse">
<stop stop-color="#BDB4FE"/>
<stop offset="1" stop-color="#BDB4FE" stop-opacity="0"/>
</linearGradient>
<linearGradient id="paint1_linear_1692_17281" x1="162" y1="135" x2="95.4245" y2="124.442" gradientUnits="userSpaceOnUse">
<stop stop-color="#BDB4FE"/>
<stop offset="1" stop-color="#BDB4FE" stop-opacity="0"/>
</linearGradient>
<linearGradient id="paint2_linear_1692_17281" x1="169" y1="126.001" x2="128.694" y2="125.02" gradientUnits="userSpaceOnUse">
<stop stop-color="#BDB4FE"/>
<stop offset="1" stop-color="#BDB4FE" stop-opacity="0"/>
</linearGradient>
<linearGradient id="paint3_linear_1692_17281" x1="183" y1="126.001" x2="208.844" y2="125.537" gradientUnits="userSpaceOnUse">
<stop stop-color="#BDB4FE"/>
<stop offset="1" stop-color="#BDB4FE" stop-opacity="0"/>
</linearGradient>
<linearGradient id="paint4_linear_1692_17281" x1="174" y1="192" x2="200.611" y2="205.314" gradientUnits="userSpaceOnUse">
<stop stop-color="#BDB4FE"/>
<stop offset="1" stop-color="#BDB4FE" stop-opacity="0"/>
</linearGradient>
<linearGradient id="paint5_linear_1692_17281" x1="263" y1="101" x2="263" y2="117" gradientUnits="userSpaceOnUse">
<stop stop-color="#7963F5"/>
<stop offset="1" stop-color="#5D46DB"/>
</linearGradient>
<linearGradient id="paint6_linear_1692_17281" x1="229" y1="4" x2="229" y2="20" gradientUnits="userSpaceOnUse">
<stop stop-color="#7963F5"/>
<stop offset="1" stop-color="#5D46DB"/>
</linearGradient>
<linearGradient id="paint7_linear_1692_17281" x1="90" y1="106" x2="90" y2="122" gradientUnits="userSpaceOnUse">
<stop stop-color="#7963F5"/>
<stop offset="1" stop-color="#5D46DB"/>
</linearGradient>
<linearGradient id="paint8_linear_1692_17281" x1="119" y1="5" x2="119" y2="21" gradientUnits="userSpaceOnUse">
<stop stop-color="#7963F5"/>
<stop offset="1" stop-color="#5D46DB"/>
</linearGradient>
<linearGradient id="paint9_linear_1692_17281" x1="175" y1="131" x2="175" y2="149" gradientUnits="userSpaceOnUse">
<stop stop-color="#7963F5"/>
<stop offset="1" stop-color="#5D46DB"/>
</linearGradient>
</defs>
</svg>
