<svg width="544" height="327" viewBox="0 0 544 327" fill="none" xmlns="http://www.w3.org/2000/svg">
<g opacity="0.25" clip-path="url(#clip0_4698_35302)">
<path d="M500.769 19.9004L504.749 32.37C505.445 34.5522 504.228 36.658 502.202 37.3047C500.019 38.0011 497.963 36.9398 497.267 34.7576L494.481 26.0289L470.789 33.5898L488.298 88.4561L495.78 86.0685C497.807 85.4218 500.068 86.5892 500.715 88.6155C501.411 90.7977 500.194 92.9036 498.168 93.5502L475.723 100.713C473.54 101.41 471.484 100.348 470.788 98.1661C470.141 96.1398 471.153 93.9278 473.335 93.2314L480.817 90.8438L463.307 35.9774L439.615 43.5383L442.401 52.2671C443.097 54.4492 441.88 56.5551 439.854 57.2018C437.671 57.8982 435.615 56.8369 434.919 54.6547L430.939 42.1851C430.293 40.1588 431.304 37.9468 433.486 37.2504L495.835 17.3533C497.861 16.7067 500.123 17.8741 500.769 19.9004Z" fill="url(#paint0_linear_4698_35302)"/>
<path d="M500.769 19.9004L504.749 32.37C505.445 34.5522 504.228 36.658 502.202 37.3047C500.019 38.0011 497.963 36.9398 497.267 34.7576L494.481 26.0289L470.789 33.5898L488.298 88.4561L495.78 86.0685C497.807 85.4218 500.068 86.5892 500.715 88.6155C501.411 90.7977 500.194 92.9036 498.168 93.5502L475.723 100.713C473.54 101.41 471.484 100.348 470.788 98.1661C470.141 96.1398 471.153 93.9278 473.335 93.2314L480.817 90.8438L463.307 35.9774L439.615 43.5383L442.401 52.2671C443.097 54.4492 441.88 56.5551 439.854 57.2018C437.671 57.8982 435.615 56.8369 434.919 54.6547L430.939 42.1851C430.293 40.1588 431.304 37.9468 433.486 37.2504L495.835 17.3533C497.861 16.7067 500.123 17.8741 500.769 19.9004Z" fill="white" fill-opacity="0.3"/>
<path d="M401.601 120.423C383.973 116.811 366.729 128.232 363.105 145.921C362.489 148.925 359.682 150.784 356.689 150.171C354.028 149.626 351.845 146.744 352.461 143.74C357.248 120.377 380.507 104.972 403.79 109.743C427.406 114.582 442.731 137.893 437.944 161.256C437.328 164.26 434.189 166.051 431.528 165.506C428.534 164.893 426.685 162.079 427.3 159.075C430.925 141.386 419.563 124.104 401.601 120.423ZM412.416 177.587L493.827 184.531C498.62 184.818 502.73 188.442 503.504 193.122L509.019 220.335C510.772 228.693 504.67 236.485 496.012 236.449L440.596 237.962C433.934 238.336 428.161 234.371 425.264 228.213L409.143 191.871L380.36 219.012C375.275 223.534 368.408 224.909 362.43 221.945L312.074 198.76C304.101 195.387 301.555 185.823 306.454 178.828L322.227 155.977C324.779 151.979 329.983 150.263 334.503 151.885L412.416 177.587ZM315.279 184.81C314.272 186.342 314.928 188.216 316.523 188.89L366.879 212.076C368.737 213.152 371.271 212.628 372.943 211.232L400.787 185.29L330.984 162.293L315.279 184.81ZM435.143 223.977C436.132 225.918 438.255 227.397 440.387 227.138L495.804 225.626C497.536 225.633 498.875 224.169 498.552 222.363L492.969 195.484L419.746 189.175L435.143 223.977ZM487.308 245.099L482.453 268.796C480.948 276.139 474.659 281.458 466.931 281.961L394.19 285.14C391.461 284.929 389.133 284.452 386.54 283.573L320.912 252.041C314.005 248.539 310.315 241.175 311.819 233.832L316.675 210.135L326.703 215.32L322.463 236.013C321.984 238.35 323.169 241.027 325.761 241.906L387.271 271.55L396.777 225.158C397.324 222.488 400.532 220.363 403.193 220.908C406.187 221.521 408.3 224.737 407.753 227.407L398.247 273.799L466.459 270.735C469.188 270.947 470.997 268.883 471.476 266.547L475.716 245.854L487.308 245.099ZM463.811 168.643C462.266 171.109 458.998 171.83 456.142 170.549C453.686 169.003 452.971 165.726 454.252 162.859L471.461 132.999C473.006 130.533 476.273 129.812 479.13 131.093C481.585 132.639 482.3 135.916 481.02 138.783L463.811 168.643Z" fill="url(#paint1_linear_4698_35302)"/>
<path d="M401.601 120.423C383.973 116.811 366.729 128.232 363.105 145.921C362.489 148.925 359.682 150.784 356.689 150.171C354.028 149.626 351.845 146.744 352.461 143.74C357.248 120.377 380.507 104.972 403.79 109.743C427.406 114.582 442.731 137.893 437.944 161.256C437.328 164.26 434.189 166.051 431.528 165.506C428.534 164.893 426.685 162.079 427.3 159.075C430.925 141.386 419.563 124.104 401.601 120.423ZM412.416 177.587L493.827 184.531C498.62 184.818 502.73 188.442 503.504 193.122L509.019 220.335C510.772 228.693 504.67 236.485 496.012 236.449L440.596 237.962C433.934 238.336 428.161 234.371 425.264 228.213L409.143 191.871L380.36 219.012C375.275 223.534 368.408 224.909 362.43 221.945L312.074 198.76C304.101 195.387 301.555 185.823 306.454 178.828L322.227 155.977C324.779 151.979 329.983 150.263 334.503 151.885L412.416 177.587ZM315.279 184.81C314.272 186.342 314.928 188.216 316.523 188.89L366.879 212.076C368.737 213.152 371.271 212.628 372.943 211.232L400.787 185.29L330.984 162.293L315.279 184.81ZM435.143 223.977C436.132 225.918 438.255 227.397 440.387 227.138L495.804 225.626C497.536 225.633 498.875 224.169 498.552 222.363L492.969 195.484L419.746 189.175L435.143 223.977ZM487.308 245.099L482.453 268.796C480.948 276.139 474.659 281.458 466.931 281.961L394.19 285.14C391.461 284.929 389.133 284.452 386.54 283.573L320.912 252.041C314.005 248.539 310.315 241.175 311.819 233.832L316.675 210.135L326.703 215.32L322.463 236.013C321.984 238.35 323.169 241.027 325.761 241.906L387.271 271.55L396.777 225.158C397.324 222.488 400.532 220.363 403.193 220.908C406.187 221.521 408.3 224.737 407.753 227.407L398.247 273.799L466.459 270.735C469.188 270.947 470.997 268.883 471.476 266.547L475.716 245.854L487.308 245.099ZM463.811 168.643C462.266 171.109 458.998 171.83 456.142 170.549C453.686 169.003 452.971 165.726 454.252 162.859L471.461 132.999C473.006 130.533 476.273 129.812 479.13 131.093C481.585 132.639 482.3 135.916 481.02 138.783L463.811 168.643Z" fill="white" fill-opacity="0.3"/>
<path d="M63.0574 74.5471C61.1396 85.3747 50.9859 92.2619 40.399 90.3867C29.5714 88.4689 22.6416 78.5558 24.5594 67.7283C26.4346 57.1413 36.3903 49.9709 47.2178 51.8887C57.8048 53.7639 64.9326 63.9602 63.0574 74.5471ZM41.7627 82.6871C48.0187 83.7952 54.2071 79.6799 55.3578 73.1834C56.4659 66.9274 52.11 60.6964 45.8541 59.5883C39.3575 58.4376 33.3671 62.8361 32.259 69.092C31.1083 75.5886 35.2662 81.5364 41.7627 82.6871ZM90.006 79.3203C86.2556 100.494 51.4982 132.803 36.2162 146.227C32.6895 149.324 27.1555 148.344 24.9074 144.223C15.1657 126.368 -6.13957 84.1289 -2.38919 62.955C2.12831 37.4501 26.2455 20.38 51.9911 24.9401C77.496 29.4576 94.5235 53.8154 90.006 79.3203ZM50.6273 32.6397C29.2128 28.8467 9.06079 43.1449 5.31041 64.3188C4.62852 68.1686 4.93661 73.4346 6.43266 80.3999C7.97133 87.1246 10.3872 94.501 13.5249 102.005C19.3618 116.688 26.7275 131.145 31.6197 139.953C38.9988 133.319 50.882 122.271 61.4068 110.486C66.9312 104.516 71.7336 98.4184 75.4884 92.6313C79.2859 86.6035 81.6245 81.8064 82.3064 77.9566C86.0568 56.7827 71.8012 36.3901 50.6273 32.6397Z" fill="url(#paint2_linear_4698_35302)"/>
<path d="M63.0574 74.5471C61.1396 85.3747 50.9859 92.2619 40.399 90.3867C29.5714 88.4689 22.6416 78.5558 24.5594 67.7283C26.4346 57.1413 36.3903 49.9709 47.2178 51.8887C57.8048 53.7639 64.9326 63.9602 63.0574 74.5471ZM41.7627 82.6871C48.0187 83.7952 54.2071 79.6799 55.3578 73.1834C56.4659 66.9274 52.11 60.6964 45.8541 59.5883C39.3575 58.4376 33.3671 62.8361 32.259 69.092C31.1083 75.5886 35.2662 81.5364 41.7627 82.6871ZM90.006 79.3203C86.2556 100.494 51.4982 132.803 36.2162 146.227C32.6895 149.324 27.1555 148.344 24.9074 144.223C15.1657 126.368 -6.13957 84.1289 -2.38919 62.955C2.12831 37.4501 26.2455 20.38 51.9911 24.9401C77.496 29.4576 94.5235 53.8154 90.006 79.3203ZM50.6273 32.6397C29.2128 28.8467 9.06079 43.1449 5.31041 64.3188C4.62852 68.1686 4.93661 73.4346 6.43266 80.3999C7.97133 87.1246 10.3872 94.501 13.5249 102.005C19.3618 116.688 26.7275 131.145 31.6197 139.953C38.9988 133.319 50.882 122.271 61.4068 110.486C66.9312 104.516 71.7336 98.4184 75.4884 92.6313C79.2859 86.6035 81.6245 81.8064 82.3064 77.9566C86.0568 56.7827 71.8012 36.3901 50.6273 32.6397Z" fill="white" fill-opacity="0.3"/>
<rect x="77.9302" y="47.2854" width="33.1176" height="7.35948" transform="rotate(10.0442 77.9302 47.2854)" fill="#390089"/>
<rect x="77.9302" y="47.2854" width="33.1176" height="7.35948" transform="rotate(10.0442 77.9302 47.2854)" fill="#390089"/>
<rect x="82.1953" y="44.3038" width="22.0784" height="14.719" transform="rotate(10.0442 82.1953 44.3038)" fill="#390089"/>
<rect x="82.1953" y="44.3038" width="22.0784" height="14.719" transform="rotate(10.0442 82.1953 44.3038)" fill="#390089"/>
<rect x="90.7256" y="38.3407" width="11.0392" height="33.1176" transform="rotate(10.0442 90.7256 38.3407)" fill="#390089"/>
<rect x="90.7256" y="38.3407" width="11.0392" height="33.1176" transform="rotate(10.0442 90.7256 38.3407)" fill="#390089"/>
<path d="M117.598 32.4587L126.648 30.6896L131.243 22.92C131.523 22.2032 132.345 21.889 133.088 22.0206C133.683 22.1259 134.347 22.7034 134.364 23.4728L136.159 32.3742L143.903 37.1178C144.619 37.398 144.934 38.2201 144.828 38.8145C144.697 39.5576 144.119 40.2217 143.35 40.2387L134.475 41.8855L129.705 49.7774C129.451 50.3455 128.629 50.6597 128.034 50.5544C127.291 50.4228 126.627 49.8454 126.584 49.2246L124.963 40.2008L117.045 35.5795C116.328 35.2993 116.163 34.5036 116.294 33.7605C116.4 33.1661 116.829 32.4757 117.598 32.4587ZM95.4732 26.7005C95.9284 25.8615 96.9254 25.425 97.8171 25.5829C98.7087 25.7409 99.4951 26.4933 99.783 27.4639L104.51 45.7746L120.083 56.5034C120.896 57.1071 121.333 58.1041 121.175 58.9958C121.017 59.8875 120.264 60.6739 119.294 60.9618L100.983 65.6889L90.2542 81.262C89.6504 82.0747 88.6534 82.5113 87.7617 82.3533C86.87 82.1954 86.0837 81.443 85.9444 80.4987L81.0687 62.1616L65.4955 51.4329C64.6828 50.8291 64.3949 49.8585 64.5528 48.9668C64.7107 48.0751 65.3145 47.2624 66.2852 46.9745L84.5959 42.2474L95.4732 26.7005ZM90.4598 46.3515C89.6022 47.7324 88.0277 48.833 86.4363 49.1642L78.2253 51.3885L85.1728 56.2977C86.5536 57.1554 87.6543 58.7298 87.9855 60.3212L90.2098 68.5323L95.1189 61.5847C95.9766 60.2039 97.5511 59.1032 99.1425 58.772L107.354 56.5478L100.406 51.6386C99.0251 50.7809 97.9245 49.2065 97.5933 47.615L95.369 39.404L90.4598 46.3515ZM122.82 70.4763C123.1 69.7596 123.922 69.4454 124.665 69.577C125.26 69.6823 125.924 70.2597 125.941 71.0291L127.736 79.9306L135.479 84.6742C136.196 84.9544 136.51 85.7764 136.405 86.3709C136.273 87.1139 135.696 87.778 134.927 87.795L126.051 89.4418L121.281 97.3337C121.028 97.9018 120.206 98.2161 119.611 98.1108C118.868 97.9792 118.204 97.4017 118.161 96.7809L116.54 87.7572L108.622 83.1359C107.905 82.8557 107.74 82.0599 107.871 81.3169C107.976 80.7224 108.405 80.032 109.175 80.015L118.225 78.2459L122.82 70.4763Z" fill="url(#paint3_linear_4698_35302)"/>
<path d="M117.598 32.4587L126.648 30.6896L131.243 22.92C131.523 22.2032 132.345 21.889 133.088 22.0206C133.683 22.1259 134.347 22.7034 134.364 23.4728L136.159 32.3742L143.903 37.1178C144.619 37.398 144.934 38.2201 144.828 38.8145C144.697 39.5576 144.119 40.2217 143.35 40.2387L134.475 41.8855L129.705 49.7774C129.451 50.3455 128.629 50.6597 128.034 50.5544C127.291 50.4228 126.627 49.8454 126.584 49.2246L124.963 40.2008L117.045 35.5795C116.328 35.2993 116.163 34.5036 116.294 33.7605C116.4 33.1661 116.829 32.4757 117.598 32.4587ZM95.4732 26.7005C95.9284 25.8615 96.9254 25.425 97.8171 25.5829C98.7087 25.7409 99.4951 26.4933 99.783 27.4639L104.51 45.7746L120.083 56.5034C120.896 57.1071 121.333 58.1041 121.175 58.9958C121.017 59.8875 120.264 60.6739 119.294 60.9618L100.983 65.6889L90.2542 81.262C89.6504 82.0747 88.6534 82.5113 87.7617 82.3533C86.87 82.1954 86.0837 81.443 85.9444 80.4987L81.0687 62.1616L65.4955 51.4329C64.6828 50.8291 64.3949 49.8585 64.5528 48.9668C64.7107 48.0751 65.3145 47.2624 66.2852 46.9745L84.5959 42.2474L95.4732 26.7005ZM90.4598 46.3515C89.6022 47.7324 88.0277 48.833 86.4363 49.1642L78.2253 51.3885L85.1728 56.2977C86.5536 57.1554 87.6543 58.7298 87.9855 60.3212L90.2098 68.5323L95.1189 61.5847C95.9766 60.2039 97.5511 59.1032 99.1425 58.772L107.354 56.5478L100.406 51.6386C99.0251 50.7809 97.9245 49.2065 97.5933 47.615L95.369 39.404L90.4598 46.3515ZM122.82 70.4763C123.1 69.7596 123.922 69.4454 124.665 69.577C125.26 69.6823 125.924 70.2597 125.941 71.0291L127.736 79.9306L135.479 84.6742C136.196 84.9544 136.51 85.7764 136.405 86.3709C136.273 87.1139 135.696 87.778 134.927 87.795L126.051 89.4418L121.281 97.3337C121.028 97.9018 120.206 98.2161 119.611 98.1108C118.868 97.9792 118.204 97.4017 118.161 96.7809L116.54 87.7572L108.622 83.1359C107.905 82.8557 107.74 82.0599 107.871 81.3169C107.976 80.7224 108.405 80.032 109.175 80.015L118.225 78.2459L122.82 70.4763Z" fill="white" fill-opacity="0.3"/>
<path d="M98.6655 208.385C89.3233 210.258 83.5108 218.965 85.2287 227.533C87.0126 236.43 95.6663 241.893 105.008 240.02C114.005 238.216 120.229 229.77 118.445 220.872C116.727 212.305 107.662 206.581 98.6655 208.385ZM194.923 158.92L62.0565 185.561C49.9463 187.989 41.8282 199.557 44.1408 211.091L65.2841 316.54C67.6627 328.403 79.5469 335.618 91.6571 333.19L224.524 306.55C236.634 304.121 244.818 292.883 242.439 281.02L221.296 175.57C218.983 164.037 207.379 156.423 194.923 158.92ZM225.435 282.373L165.742 230.585C164.374 229.145 162.446 228.503 160.369 228.92C157.947 229.405 156.416 230.741 155.362 232.666L128.2 287.472L112.358 274.881C110.71 273.84 108.782 273.198 106.706 273.615C104.63 274.031 103.098 275.366 101.978 276.962L82.2384 313.141L60.7491 207.761C60.2205 205.125 62.46 201.933 65.228 201.378L198.094 174.738C201.208 174.113 204.159 176.264 204.688 178.9L225.435 282.373Z" fill="url(#paint4_linear_4698_35302)"/>
<path d="M98.6655 208.385C89.3233 210.258 83.5108 218.965 85.2287 227.533C87.0126 236.43 95.6663 241.893 105.008 240.02C114.005 238.216 120.229 229.77 118.445 220.872C116.727 212.305 107.662 206.581 98.6655 208.385ZM194.923 158.92L62.0565 185.561C49.9463 187.989 41.8282 199.557 44.1408 211.091L65.2841 316.54C67.6627 328.403 79.5469 335.618 91.6571 333.19L224.524 306.55C236.634 304.121 244.818 292.883 242.439 281.02L221.296 175.57C218.983 164.037 207.379 156.423 194.923 158.92ZM225.435 282.373L165.742 230.585C164.374 229.145 162.446 228.503 160.369 228.92C157.947 229.405 156.416 230.741 155.362 232.666L128.2 287.472L112.358 274.881C110.71 273.84 108.782 273.198 106.706 273.615C104.63 274.031 103.098 275.366 101.978 276.962L82.2384 313.141L60.7491 207.761C60.2205 205.125 62.46 201.933 65.228 201.378L198.094 174.738C201.208 174.113 204.159 176.264 204.688 178.9L225.435 282.373Z" fill="white" fill-opacity="0.3"/>
<path d="M174.622 172.587L218.911 163.706L225.571 196.923L181.282 205.803L174.622 172.587Z" fill="#451489"/>
<path d="M167.971 168.162L209.492 159.836L216.152 193.053L174.631 201.378L167.971 168.162Z" fill="#451489"/>
<path d="M166.832 105.044L249.874 88.3938L255.424 116.074L172.382 132.725L166.832 105.044Z" fill="#451489"/>
<path d="M166.832 105.044L200.049 98.3841L206.709 131.601L173.492 138.261L166.832 105.044Z" fill="#451489"/>
<path d="M213.892 95.6084L247.109 88.9483L253.769 122.165L220.552 128.825L213.892 95.6084Z" fill="#451489"/>
<path d="M223.302 99.4803L262.055 91.7102L277.595 169.216L238.842 176.986L223.302 99.4803Z" fill="#451489"/>
<path d="M216.664 95.0526L255.417 87.2825L257.637 98.3547L218.884 106.125L216.664 95.0526Z" fill="#451489"/>
<path d="M171.266 98.3967L243.235 83.9664L246.565 100.575L174.596 115.005L171.266 98.3967Z" fill="#451489"/>
<path d="M175.686 91.7521L214.439 83.9819L216.659 95.0541L177.906 102.824L175.686 91.7521Z" fill="#451489"/>
<path d="M180.117 85.105L213.334 78.4448L216.664 95.0531L183.447 101.713L180.117 85.105Z" fill="#451489"/>
<path d="M203.408 172.573L253.233 162.583L259.893 195.8L210.068 205.79L203.408 172.573Z" fill="#451489"/>
<path d="M214.479 170.353L247.696 163.693L255.466 202.446L222.25 209.106L214.479 170.353Z" fill="#451489"/>
<path d="M213.369 164.818L257.658 155.937L263.208 183.618L218.92 192.498L213.369 164.818Z" fill="#451489"/>
<path d="M228.875 155.95L267.627 148.18L273.177 175.86L234.425 183.631L228.875 155.95Z" fill="#451489"/>
<path d="M235.483 102.797L268.7 96.1364L282.02 162.57L248.804 169.23L235.483 102.797Z" fill="#451489"/>
<path d="M153.56 124.981L192.313 117.211L205.633 183.644L166.881 191.414L153.56 124.981Z" fill="#451489"/>
<path d="M148.019 126.092L192.308 117.212L198.968 150.429L154.679 159.309L148.019 126.092Z" fill="#451489"/>
<path d="M157.981 118.336L191.197 111.676L198.967 150.429L165.751 157.089L157.981 118.336Z" fill="#451489"/>
<path d="M274.051 120.211C274.67 115.175 274.208 110.063 272.697 105.219C271.186 100.374 268.66 95.9074 265.288 92.1173C254.979 80.3334 238.253 76.5619 223.905 82.7861C218.826 78.9937 212.84 76.6057 206.55 75.862C200.259 75.1183 193.885 76.045 188.067 78.5491C182.249 81.0532 177.192 85.0465 173.405 90.128C169.617 95.2095 167.232 101.2 166.489 107.499C161.822 109.475 157.629 112.426 154.192 116.155C150.756 119.884 148.154 124.305 146.561 129.123C141.505 143.965 146.62 160.384 159.21 169.723C158.585 174.758 159.041 179.87 160.547 184.716C162.054 189.562 164.576 194.03 167.946 197.822C178.264 209.609 195 213.378 209.356 207.148C213.401 210.206 218.05 212.366 222.993 213.482C227.936 214.598 233.059 214.646 238.021 213.622C253.391 210.555 265.016 197.889 266.771 182.292C271.438 180.315 275.629 177.363 279.066 173.634C282.502 169.905 285.105 165.485 286.699 160.668C291.667 145.867 286.563 129.541 274.051 120.211ZM236.18 204.444C230.047 205.684 223.674 204.722 218.176 201.727L218.91 201.091L243.56 179.383C244.172 178.836 244.632 178.139 244.893 177.36C245.155 176.582 245.21 175.749 245.053 174.942L237.159 135.574L250.316 140.039C250.38 140.057 250.439 140.09 250.488 140.135C250.537 140.18 250.575 140.236 250.598 140.298L257.139 172.922C260.015 187.42 250.645 201.512 236.18 204.445L236.18 204.444ZM174.975 191.639C170.832 186.936 168.477 180.922 168.325 174.654L169.253 174.986L200.394 185.507C201.165 185.774 201.995 185.831 202.795 185.67C203.596 185.509 204.339 185.138 204.949 184.593L235.095 158.074L237.828 171.704C237.838 171.775 237.833 171.848 237.812 171.917C237.791 171.985 237.755 172.048 237.706 172.101L212.737 194.076C201.639 203.832 184.743 202.742 174.975 191.639ZM155.437 132.291C157.461 126.315 161.532 121.251 166.928 117.994L173.58 151.169C173.73 151.973 174.093 152.722 174.631 153.337C175.169 153.953 175.861 154.413 176.637 154.669L214.494 167.468L204.076 176.66C204.019 176.707 203.951 176.739 203.879 176.754C203.807 176.768 203.732 176.765 203.662 176.743L172.212 166.11C158.229 161.352 150.717 146.168 155.409 132.152L155.437 132.291ZM256.796 135.405L218.789 122.435L229.185 113.276C229.242 113.229 229.31 113.197 229.382 113.183C229.454 113.168 229.529 113.172 229.599 113.193L261.056 123.853C265.864 125.479 270.112 128.442 273.304 132.394C276.496 136.347 278.499 141.126 279.081 146.174C279.663 151.223 278.798 156.332 276.589 160.905C274.379 165.478 270.916 169.327 266.603 172.003L259.951 138.826C259.766 138.031 259.378 137.297 258.825 136.697C258.272 136.097 257.573 135.652 256.796 135.405ZM264.985 115.387L264.057 115.055L232.944 104.384C232.168 104.115 231.334 104.058 230.528 104.22C229.723 104.381 228.975 104.755 228.362 105.303L198.243 131.816L195.51 118.186C195.489 118.118 195.487 118.046 195.503 117.977C195.52 117.908 195.555 117.845 195.604 117.794L220.524 95.8583C224.344 92.4999 229.041 90.3007 234.065 89.5178C239.089 88.7349 244.232 89.4008 248.894 91.4376C253.555 93.4744 257.542 96.7978 260.388 101.019C263.233 105.241 264.82 110.185 264.963 115.275L264.985 115.387ZM196.068 154.339L182.917 149.901C182.851 149.877 182.791 149.839 182.741 149.789C182.692 149.74 182.653 149.68 182.629 149.614L176.105 117.073C175.111 112.08 175.556 106.908 177.389 102.161C179.223 97.4135 182.368 93.2877 186.458 90.2658C190.547 87.2439 195.412 85.4508 200.483 85.0959C205.555 84.7411 210.623 85.8393 215.096 88.2622L214.361 88.8986L189.712 110.607C189.099 111.154 188.64 111.851 188.378 112.629C188.116 113.408 188.061 114.241 188.219 115.048L196.068 154.339ZM199.701 139.231L213.127 127.423L230.095 133.137L233.609 150.664L220.211 162.468L203.244 156.753L199.701 139.231Z" fill="url(#paint5_linear_4698_35302)"/>
<path d="M274.051 120.211C274.67 115.175 274.208 110.063 272.697 105.219C271.186 100.374 268.66 95.9074 265.288 92.1173C254.979 80.3334 238.253 76.5619 223.905 82.7861C218.826 78.9937 212.84 76.6057 206.55 75.862C200.259 75.1183 193.885 76.045 188.067 78.5491C182.249 81.0532 177.192 85.0465 173.405 90.128C169.617 95.2095 167.232 101.2 166.489 107.499C161.822 109.475 157.629 112.426 154.192 116.155C150.756 119.884 148.154 124.305 146.561 129.123C141.505 143.965 146.62 160.384 159.21 169.723C158.585 174.758 159.041 179.87 160.547 184.716C162.054 189.562 164.576 194.03 167.946 197.822C178.264 209.609 195 213.378 209.356 207.148C213.401 210.206 218.05 212.366 222.993 213.482C227.936 214.598 233.059 214.646 238.021 213.622C253.391 210.555 265.016 197.889 266.771 182.292C271.438 180.315 275.629 177.363 279.066 173.634C282.502 169.905 285.105 165.485 286.699 160.668C291.667 145.867 286.563 129.541 274.051 120.211ZM236.18 204.444C230.047 205.684 223.674 204.722 218.176 201.727L218.91 201.091L243.56 179.383C244.172 178.836 244.632 178.139 244.893 177.36C245.155 176.582 245.21 175.749 245.053 174.942L237.159 135.574L250.316 140.039C250.38 140.057 250.439 140.09 250.488 140.135C250.537 140.18 250.575 140.236 250.598 140.298L257.139 172.922C260.015 187.42 250.645 201.512 236.18 204.445L236.18 204.444ZM174.975 191.639C170.832 186.936 168.477 180.922 168.325 174.654L169.253 174.986L200.394 185.507C201.165 185.774 201.995 185.831 202.795 185.67C203.596 185.509 204.339 185.138 204.949 184.593L235.095 158.074L237.828 171.704C237.838 171.775 237.833 171.848 237.812 171.917C237.791 171.985 237.755 172.048 237.706 172.101L212.737 194.076C201.639 203.832 184.743 202.742 174.975 191.639ZM155.437 132.291C157.461 126.315 161.532 121.251 166.928 117.994L173.58 151.169C173.73 151.973 174.093 152.722 174.631 153.337C175.169 153.953 175.861 154.413 176.637 154.669L214.494 167.468L204.076 176.66C204.019 176.707 203.951 176.739 203.879 176.754C203.807 176.768 203.732 176.765 203.662 176.743L172.212 166.11C158.229 161.352 150.717 146.168 155.409 132.152L155.437 132.291ZM256.796 135.405L218.789 122.435L229.185 113.276C229.242 113.229 229.31 113.197 229.382 113.183C229.454 113.168 229.529 113.172 229.599 113.193L261.056 123.853C265.864 125.479 270.112 128.442 273.304 132.394C276.496 136.347 278.499 141.126 279.081 146.174C279.663 151.223 278.798 156.332 276.589 160.905C274.379 165.478 270.916 169.327 266.603 172.003L259.951 138.826C259.766 138.031 259.378 137.297 258.825 136.697C258.272 136.097 257.573 135.652 256.796 135.405ZM264.985 115.387L264.057 115.055L232.944 104.384C232.168 104.115 231.334 104.058 230.528 104.22C229.723 104.381 228.975 104.755 228.362 105.303L198.243 131.816L195.51 118.186C195.489 118.118 195.487 118.046 195.503 117.977C195.52 117.908 195.555 117.845 195.604 117.794L220.524 95.8583C224.344 92.4999 229.041 90.3007 234.065 89.5178C239.089 88.7349 244.232 89.4008 248.894 91.4376C253.555 93.4744 257.542 96.7978 260.388 101.019C263.233 105.241 264.82 110.185 264.963 115.275L264.985 115.387ZM196.068 154.339L182.917 149.901C182.851 149.877 182.791 149.839 182.741 149.789C182.692 149.74 182.653 149.68 182.629 149.614L176.105 117.073C175.111 112.08 175.556 106.908 177.389 102.161C179.223 97.4135 182.368 93.2877 186.458 90.2658C190.547 87.2439 195.412 85.4508 200.483 85.0959C205.555 84.7411 210.623 85.8393 215.096 88.2622L214.361 88.8986L189.712 110.607C189.099 111.154 188.64 111.851 188.378 112.629C188.116 113.408 188.061 114.241 188.219 115.048L196.068 154.339ZM199.701 139.231L213.127 127.423L230.095 133.137L233.609 150.664L220.211 162.468L203.244 156.753L199.701 139.231Z" fill="white" fill-opacity="0.3"/>
</g>
<defs>
<linearGradient id="paint0_linear_4698_35302" x1="432.888" y1="99.9562" x2="528.767" y2="85.6549" gradientUnits="userSpaceOnUse">
<stop offset="0.261406" stop-color="#6834FB"/>
<stop offset="1" stop-color="#FF45EC"/>
</linearGradient>
<linearGradient id="paint1_linear_4698_35302" x1="373.589" y1="246.806" x2="417.581" y2="257.443" gradientUnits="userSpaceOnUse">
<stop offset="0.261406" stop-color="#6834FB"/>
<stop offset="1" stop-color="#FF45EC"/>
</linearGradient>
<linearGradient id="paint2_linear_4698_35302" x1="-2.19604" y1="119.885" x2="64.5175" y2="136.843" gradientUnits="userSpaceOnUse">
<stop offset="0.261406" stop-color="#6834FB"/>
<stop offset="1" stop-color="#FF45EC"/>
</linearGradient>
<linearGradient id="paint3_linear_4698_35302" x1="62.2469" y1="72.535" x2="127.776" y2="92.5469" gradientUnits="userSpaceOnUse">
<stop offset="0.261406" stop-color="#6834FB"/>
<stop offset="1" stop-color="#FF45EC"/>
</linearGradient>
<linearGradient id="paint4_linear_4698_35302" x1="64.3326" y1="311.795" x2="231.775" y2="302.932" gradientUnits="userSpaceOnUse">
<stop offset="0.261406" stop-color="#6834FB"/>
<stop offset="1" stop-color="#FF45EC"/>
</linearGradient>
<linearGradient id="paint5_linear_4698_35302" x1="156.678" y1="204.402" x2="287.468" y2="194.101" gradientUnits="userSpaceOnUse">
<stop offset="0.261406" stop-color="#6834FB"/>
<stop offset="1" stop-color="#FF45EC"/>
</linearGradient>
<clipPath id="clip0_4698_35302">
<rect width="544" height="327" fill="white"/>
</clipPath>
</defs>
</svg>
