<svg width="78" height="79" viewBox="0 0 78 79" fill="none" xmlns="http://www.w3.org/2000/svg">
<path d="M67.25 10.3214H10.75C10.1977 10.3214 9.75 10.7691 9.75 11.3214V67.8214C9.75 68.3737 10.1977 68.8214 10.75 68.8214H67.25C67.8023 68.8214 68.25 68.3737 68.25 67.8214V11.3214C68.25 10.7691 67.8023 10.3214 67.25 10.3214Z" fill="#8B5CEE"/>
<path d="M42.998 37.5C42.998 37.2239 42.7742 37 42.498 37H24.498C24.2219 37 23.998 37.2239 23.998 37.5V41.0333C23.998 41.3095 24.2219 41.5333 24.498 41.5333H30.3127C30.5889 41.5333 30.8127 41.7572 30.8127 42.0333V61.5C30.8127 61.7761 31.0366 62 31.3127 62H35.712C35.9882 62 36.212 61.7761 36.212 61.5V42.0333C36.212 41.7572 36.4359 41.5333 36.712 41.5333H42.498C42.7742 41.5333 42.998 41.3095 42.998 41.0333V37.5Z" fill="white"/>
<path d="M59.8663 41.788C59.8515 42.1773 59.4082 42.4157 59.0615 42.238C58.1017 41.7463 56.3568 41.015 54.4673 41.015C51.6204 41.015 50.5959 42.3518 50.5959 43.7804C50.5959 47.4676 60.998 47.0986 60.998 54.519C60.998 64.9481 47.7949 61.6414 45.4815 60.9819C45.2723 60.9223 45.1376 60.7321 45.1376 60.5146V56.392C45.1376 55.9807 45.6193 55.7263 45.9746 55.9333C47.1213 56.6013 49.3236 57.6548 51.8079 57.6548C55.4453 57.6548 55.3072 55.3043 55.3072 54.9813C55.3072 51.5712 44.998 51.5712 44.998 44.0116C44.998 34.7155 57.2866 37.145 59.6337 37.6938C59.8607 37.7469 60.0123 37.9538 60.0034 38.1867L59.8663 41.788Z" fill="white"/>
</svg>
