<svg width="100%" viewBox="0 0 357 264" fill="none" xmlns="http://www.w3.org/2000/svg">
    <rect x="0.5" y="0.5" width="356" height="263" rx="5.5" fill="white" />
    <path
        d="M24.8949 31.1213V28.6364H37.9506V31.1213H32.8929V45H29.9526V31.1213H24.8949ZM43.9132 45.2397C42.7147 45.2397 41.676 44.976 40.7971 44.4487C39.9182 43.9213 39.2364 43.1836 38.7516 42.2354C38.2722 41.2873 38.0325 40.1793 38.0325 38.9116C38.0325 37.6438 38.2722 36.5332 38.7516 35.5797C39.2364 34.6262 39.9182 33.8858 40.7971 33.3585C41.676 32.8311 42.7147 32.5675 43.9132 32.5675C45.1117 32.5675 46.1504 32.8311 47.0293 33.3585C47.9082 33.8858 48.5874 34.6262 49.0668 35.5797C49.5515 36.5332 49.7939 37.6438 49.7939 38.9116C49.7939 40.1793 49.5515 41.2873 49.0668 42.2354C48.5874 43.1836 47.9082 43.9213 47.0293 44.4487C46.1504 44.976 45.1117 45.2397 43.9132 45.2397ZM43.9292 42.9226C44.5791 42.9226 45.1224 42.7441 45.5592 42.3873C45.996 42.025 46.3209 41.5403 46.534 40.9331C46.7524 40.3258 46.8616 39.6493 46.8616 38.9036C46.8616 38.1525 46.7524 37.4734 46.534 36.8661C46.3209 36.2536 45.996 35.7662 45.5592 35.4039C45.1224 35.0417 44.5791 34.8606 43.9292 34.8606C43.2634 34.8606 42.7094 35.0417 42.2673 35.4039C41.8305 35.7662 41.5029 36.2536 41.2845 36.8661C41.0714 37.4734 40.9649 38.1525 40.9649 38.9036C40.9649 39.6493 41.0714 40.3258 41.2845 40.9331C41.5029 41.5403 41.8305 42.025 42.2673 42.3873C42.7094 42.7441 43.2634 42.9226 43.9292 42.9226ZM56.8032 45.2157C55.839 45.2157 54.9761 44.968 54.2144 44.4727C53.4527 43.9773 52.8508 43.2582 52.4086 42.3153C51.9665 41.3725 51.7455 40.2273 51.7455 38.8796C51.7455 37.516 51.9692 36.3654 52.4166 35.4279C52.8694 34.4851 53.4793 33.774 54.2464 33.2946C55.0134 32.8098 55.8683 32.5675 56.8112 32.5675C57.5303 32.5675 58.1215 32.69 58.585 32.935C59.0484 33.1747 59.4159 33.465 59.6876 33.8059C59.9593 34.1415 60.1697 34.4585 60.3188 34.7567H60.4387V28.6364H63.339V45H60.4946V43.0664H60.3188C60.1697 43.3647 59.9539 43.6816 59.6716 44.0172C59.3893 44.3475 59.0164 44.6298 58.553 44.8642C58.0896 45.0985 57.5063 45.2157 56.8032 45.2157ZM57.6102 42.8427C58.2227 42.8427 58.7448 42.6776 59.1762 42.3473C59.6077 42.0117 59.9353 41.5456 60.159 40.949C60.3827 40.3525 60.4946 39.6573 60.4946 38.8636C60.4946 38.07 60.3827 37.3801 60.159 36.7942C59.9406 36.2083 59.6157 35.7528 59.1842 35.4279C58.7581 35.103 58.2334 34.9405 57.6102 34.9405C56.9656 34.9405 56.4276 35.1083 55.9962 35.4439C55.5647 35.7795 55.2398 36.2429 55.0214 36.8342C54.803 37.4254 54.6938 38.1019 54.6938 38.8636C54.6938 39.6307 54.803 40.3152 55.0214 40.9171C55.2451 41.5137 55.5727 41.9851 56.0042 42.3313C56.441 42.6722 56.9763 42.8427 57.6102 42.8427ZM69.9528 45.2477C69.1751 45.2477 68.4747 45.1092 67.8514 44.8322C67.2335 44.5499 66.7435 44.1344 66.3813 43.5858C66.0244 43.0371 65.8459 42.3606 65.8459 41.5563C65.8459 40.8638 65.9738 40.2912 66.2294 39.8384C66.4851 39.3857 66.834 39.0234 67.2761 38.7518C67.7183 38.4801 68.2163 38.275 68.7703 38.1365C69.3296 37.9927 69.9075 37.8888 70.5041 37.8249C71.2232 37.7504 71.8065 37.6838 72.254 37.6252C72.7014 37.5613 73.0263 37.4654 73.2287 37.3375C73.4365 37.2044 73.5404 36.9993 73.5404 36.7223V36.6744C73.5404 36.0724 73.3619 35.6064 73.005 35.2761C72.6481 34.9458 72.1341 34.7807 71.4629 34.7807C70.7545 34.7807 70.1925 34.9352 69.777 35.2441C69.3669 35.5531 69.0899 35.918 68.9461 36.3388L66.2454 35.9553C66.4585 35.2095 66.8101 34.5863 67.3001 34.0856C67.7902 33.5795 68.3894 33.2013 69.0979 32.951C69.8063 32.6953 70.5894 32.5675 71.447 32.5675C72.0382 32.5675 72.6268 32.6367 73.2128 32.7752C73.7987 32.9137 74.334 33.1428 74.8188 33.4624C75.3035 33.7766 75.6923 34.2054 75.9853 34.7488C76.2836 35.2921 76.4328 35.9712 76.4328 36.7862V45H73.6522V43.3141H73.5563C73.3805 43.655 73.1329 43.9746 72.8133 44.2729C72.499 44.5659 72.1021 44.8029 71.6227 44.984C71.1487 45.1598 70.592 45.2477 69.9528 45.2477ZM70.7039 43.1223C71.2845 43.1223 71.7879 43.0078 72.214 42.7788C72.6401 42.5444 72.9677 42.2354 73.1968 41.8519C73.4312 41.4684 73.5483 41.0502 73.5483 40.5975V39.1513C73.4578 39.2259 73.3033 39.2951 73.0849 39.359C72.8718 39.4229 72.6321 39.4789 72.3658 39.5268C72.0995 39.5748 71.8358 39.6174 71.5748 39.6547C71.3138 39.6919 71.0874 39.7239 70.8956 39.7505C70.4642 39.8091 70.078 39.905 69.7371 40.0382C69.3962 40.1713 69.1272 40.3578 68.9301 40.5975C68.733 40.8319 68.6345 41.1355 68.6345 41.5083C68.6345 42.041 68.8289 42.4432 69.2177 42.7148C69.6066 42.9865 70.102 43.1223 70.7039 43.1223ZM80.6994 49.6023C80.3053 49.6023 79.9404 49.5703 79.6048 49.5064C79.2745 49.4478 79.0109 49.3786 78.8138 49.2987L79.485 47.0455C79.9058 47.168 80.2813 47.2266 80.6116 47.2212C80.9418 47.2159 81.2321 47.112 81.4825 46.9096C81.7381 46.7125 81.9539 46.3823 82.1297 45.9189L82.3774 45.2557L77.9269 32.7273H80.9951L83.8236 41.9957H83.9514L86.7879 32.7273H89.864L84.9502 46.4862C84.7211 47.136 84.4175 47.6926 84.0393 48.1561C83.6611 48.6248 83.1977 48.9817 82.649 49.2267C82.1057 49.4771 81.4558 49.6023 80.6994 49.6023Z"
        fill="#37434F" />
    <rect x="24" y="73" width="19" height="19" rx="2" fill="#6048E5" />
    <path d="M38.5295 78.5884L31.6141 86.4119L28.4707 82.8558" stroke="white" stroke-width="2" stroke-linecap="round"
        stroke-linejoin="round" />
    <path
        d="M58.5227 88.5L55.3409 76.8636H56.7727L59.2045 86.3409H59.3182L61.7955 76.8636H63.3864L65.8636 86.3409H65.9773L68.4091 76.8636H69.8409L66.6591 88.5H65.2045L62.6364 79.2273H62.5455L59.9773 88.5H58.5227ZM70.8679 88.5V79.7727H72.1634V81.0909H72.2543C72.4134 80.6591 72.7012 80.3087 73.1179 80.0398C73.5346 79.7708 74.0043 79.6364 74.527 79.6364C74.6255 79.6364 74.7486 79.6383 74.8963 79.642C75.044 79.6458 75.1558 79.6515 75.2315 79.6591V81.0227C75.1861 81.0114 75.0819 80.9943 74.919 80.9716C74.7599 80.9451 74.5914 80.9318 74.4134 80.9318C73.9891 80.9318 73.6103 81.0208 73.277 81.1989C72.9474 81.3731 72.6861 81.6155 72.4929 81.9261C72.3035 82.233 72.2088 82.5833 72.2088 82.9773V88.5H70.8679ZM76.821 88.5V79.7727H78.1619V88.5H76.821ZM77.5028 78.3182C77.2415 78.3182 77.0161 78.2292 76.8267 78.0511C76.6411 77.8731 76.5483 77.6591 76.5483 77.4091C76.5483 77.1591 76.6411 76.9451 76.8267 76.767C77.0161 76.589 77.2415 76.5 77.5028 76.5C77.7642 76.5 77.9877 76.589 78.1733 76.767C78.3627 76.9451 78.4574 77.1591 78.4574 77.4091C78.4574 77.6591 78.3627 77.8731 78.1733 78.0511C77.9877 78.2292 77.7642 78.3182 77.5028 78.3182ZM84.4134 79.7727V80.9091H79.8906V79.7727H84.4134ZM81.2088 77.6818H82.5497V86C82.5497 86.3788 82.6046 86.6629 82.7145 86.8523C82.8281 87.0379 82.9721 87.1629 83.1463 87.2273C83.3243 87.2879 83.5118 87.3182 83.7088 87.3182C83.8565 87.3182 83.9777 87.3106 84.0724 87.2955C84.1671 87.2765 84.2429 87.2614 84.2997 87.25L84.5724 88.4545C84.4815 88.4886 84.3546 88.5227 84.1918 88.5568C84.0289 88.5947 83.8224 88.6136 83.5724 88.6136C83.1937 88.6136 82.8224 88.5322 82.4588 88.3693C82.099 88.2064 81.7997 87.9583 81.5611 87.625C81.3262 87.2917 81.2088 86.8712 81.2088 86.3636V77.6818ZM89.9957 88.6818C89.1548 88.6818 88.4295 88.4962 87.8196 88.125C87.2135 87.75 86.7457 87.2273 86.4162 86.5568C86.0904 85.8826 85.9276 85.0985 85.9276 84.2045C85.9276 83.3106 86.0904 82.5227 86.4162 81.8409C86.7457 81.1553 87.2041 80.6212 87.7912 80.2386C88.3821 79.8523 89.0715 79.6591 89.8594 79.6591C90.3139 79.6591 90.7628 79.7348 91.206 79.8864C91.6491 80.0379 92.0526 80.2841 92.4162 80.625C92.7798 80.9621 93.0696 81.4091 93.2855 81.9659C93.5014 82.5227 93.6094 83.2083 93.6094 84.0227V84.5909H86.8821V83.4318H92.2457C92.2457 82.9394 92.1473 82.5 91.9503 82.1136C91.7571 81.7273 91.4806 81.4223 91.1207 81.1989C90.7647 80.9754 90.3442 80.8636 89.8594 80.8636C89.3253 80.8636 88.8632 80.9962 88.473 81.2614C88.0866 81.5227 87.7893 81.8636 87.581 82.2841C87.3726 82.7045 87.2685 83.1553 87.2685 83.6364V84.4091C87.2685 85.0682 87.3821 85.6269 87.6094 86.0852C87.8404 86.5398 88.1605 86.8864 88.5696 87.125C88.9787 87.3598 89.4541 87.4773 89.9957 87.4773C90.348 87.4773 90.6662 87.428 90.9503 87.3295C91.2382 87.2273 91.4863 87.0758 91.6946 86.875C91.9029 86.6705 92.0639 86.4167 92.1776 86.1136L93.473 86.4773C93.3366 86.9167 93.1075 87.303 92.7855 87.6364C92.4635 87.9659 92.0658 88.2235 91.5923 88.4091C91.1188 88.5909 90.5866 88.6818 89.9957 88.6818ZM105.649 84.9318V79.7727H106.99V88.5H105.649V87.0227H105.558C105.354 87.4659 105.036 87.8428 104.604 88.1534C104.172 88.4602 103.626 88.6136 102.967 88.6136C102.422 88.6136 101.937 88.4943 101.513 88.2557C101.089 88.0133 100.755 87.6496 100.513 87.1648C100.27 86.6761 100.149 86.0606 100.149 85.3182V79.7727H101.49V85.2273C101.49 85.8636 101.668 86.3712 102.024 86.75C102.384 87.1288 102.842 87.3182 103.399 87.3182C103.732 87.3182 104.071 87.233 104.416 87.0625C104.765 86.892 105.056 86.6307 105.291 86.2784C105.53 85.9261 105.649 85.4773 105.649 84.9318ZM110.787 83.25V88.5H109.446V79.7727H110.741V81.1364H110.855C111.06 80.6932 111.37 80.3371 111.787 80.0682C112.204 79.7955 112.741 79.6591 113.401 79.6591C113.991 79.6591 114.509 79.7803 114.952 80.0227C115.395 80.2614 115.74 80.625 115.986 81.1136C116.232 81.5985 116.355 82.2121 116.355 82.9545V88.5H115.014V83.0455C115.014 82.3598 114.836 81.8258 114.48 81.4432C114.124 81.0568 113.635 80.8636 113.014 80.8636C112.586 80.8636 112.204 80.9564 111.866 81.142C111.533 81.3277 111.27 81.5985 111.077 81.9545C110.884 82.3106 110.787 82.7424 110.787 83.25ZM118.805 88.5V79.7727H120.146V88.5H118.805ZM119.487 78.3182C119.226 78.3182 119 78.2292 118.811 78.0511C118.625 77.8731 118.533 77.6591 118.533 77.4091C118.533 77.1591 118.625 76.9451 118.811 76.767C119 76.589 119.226 76.5 119.487 76.5C119.749 76.5 119.972 76.589 120.158 76.767C120.347 76.9451 120.442 77.1591 120.442 77.4091C120.442 77.6591 120.347 77.8731 120.158 78.0511C119.972 78.2292 119.749 78.3182 119.487 78.3182ZM126.398 79.7727V80.9091H121.875V79.7727H126.398ZM123.193 77.6818H124.534V86C124.534 86.3788 124.589 86.6629 124.699 86.8523C124.813 87.0379 124.956 87.1629 125.131 87.2273C125.309 87.2879 125.496 87.3182 125.693 87.3182C125.841 87.3182 125.962 87.3106 126.057 87.2955C126.152 87.2765 126.227 87.2614 126.284 87.25L126.557 88.4545C126.466 88.4886 126.339 88.5227 126.176 88.5568C126.013 88.5947 125.807 88.6136 125.557 88.6136C125.178 88.6136 124.807 88.5322 124.443 88.3693C124.083 88.2064 123.784 87.9583 123.545 87.625C123.311 87.2917 123.193 86.8712 123.193 86.3636V77.6818ZM136.71 79.7727V80.9091H132.188V79.7727H136.71ZM133.506 77.6818H134.847V86C134.847 86.3788 134.902 86.6629 135.011 86.8523C135.125 87.0379 135.269 87.1629 135.443 87.2273C135.621 87.2879 135.809 87.3182 136.006 87.3182C136.153 87.3182 136.275 87.3106 136.369 87.2955C136.464 87.2765 136.54 87.2614 136.597 87.25L136.869 88.4545C136.778 88.4886 136.652 88.5227 136.489 88.5568C136.326 88.5947 136.119 88.6136 135.869 88.6136C135.491 88.6136 135.119 88.5322 134.756 88.3693C134.396 88.2064 134.097 87.9583 133.858 87.625C133.623 87.2917 133.506 86.8712 133.506 86.3636V77.6818ZM142.293 88.6818C141.452 88.6818 140.726 88.4962 140.116 88.125C139.51 87.75 139.043 87.2273 138.713 86.5568C138.387 85.8826 138.224 85.0985 138.224 84.2045C138.224 83.3106 138.387 82.5227 138.713 81.8409C139.043 81.1553 139.501 80.6212 140.088 80.2386C140.679 79.8523 141.368 79.6591 142.156 79.6591C142.611 79.6591 143.06 79.7348 143.503 79.8864C143.946 80.0379 144.349 80.2841 144.713 80.625C145.077 80.9621 145.366 81.4091 145.582 81.9659C145.798 82.5227 145.906 83.2083 145.906 84.0227V84.5909H139.179V83.4318H144.543C144.543 82.9394 144.444 82.5 144.247 82.1136C144.054 81.7273 143.777 81.4223 143.418 81.1989C143.062 80.9754 142.641 80.8636 142.156 80.8636C141.622 80.8636 141.16 80.9962 140.77 81.2614C140.384 81.5227 140.086 81.8636 139.878 82.2841C139.67 82.7045 139.565 83.1553 139.565 83.6364V84.4091C139.565 85.0682 139.679 85.6269 139.906 86.0852C140.137 86.5398 140.457 86.8864 140.866 87.125C141.276 87.3598 141.751 87.4773 142.293 87.4773C142.645 87.4773 142.963 87.428 143.247 87.3295C143.535 87.2273 143.783 87.0758 143.991 86.875C144.2 86.6705 144.361 86.4167 144.474 86.1136L145.77 86.4773C145.634 86.9167 145.404 87.303 145.082 87.6364C144.76 87.9659 144.363 88.2235 143.889 88.4091C143.416 88.5909 142.884 88.6818 142.293 88.6818ZM154.128 81.7273L152.923 82.0682C152.848 81.8674 152.736 81.6723 152.588 81.483C152.444 81.2898 152.247 81.1307 151.997 81.0057C151.747 80.8807 151.427 80.8182 151.037 80.8182C150.503 80.8182 150.058 80.9413 149.702 81.1875C149.349 81.4299 149.173 81.7386 149.173 82.1136C149.173 82.447 149.295 82.7102 149.537 82.9034C149.779 83.0966 150.158 83.2576 150.673 83.3864L151.969 83.7045C152.749 83.8939 153.33 84.1837 153.713 84.5739C154.096 84.9602 154.287 85.4583 154.287 86.0682C154.287 86.5682 154.143 87.0152 153.855 87.4091C153.571 87.803 153.173 88.1136 152.662 88.3409C152.151 88.5682 151.556 88.6818 150.878 88.6818C149.988 88.6818 149.251 88.4886 148.668 88.1023C148.084 87.7159 147.715 87.1515 147.56 86.4091L148.832 86.0909C148.954 86.5606 149.183 86.9129 149.52 87.1477C149.861 87.3826 150.306 87.5 150.855 87.5C151.48 87.5 151.976 87.3674 152.344 87.1023C152.715 86.8333 152.901 86.5114 152.901 86.1364C152.901 85.8333 152.795 85.5795 152.582 85.375C152.37 85.1667 152.045 85.0114 151.605 84.9091L150.151 84.5682C149.351 84.3788 148.764 84.0852 148.389 83.6875C148.018 83.286 147.832 82.7841 147.832 82.1818C147.832 81.6894 147.971 81.2538 148.247 80.875C148.527 80.4962 148.908 80.1989 149.389 79.983C149.874 79.767 150.423 79.6591 151.037 79.6591C151.901 79.6591 152.579 79.8485 153.071 80.2273C153.567 80.6061 153.92 81.1061 154.128 81.7273ZM160.101 79.7727V80.9091H155.578V79.7727H160.101ZM156.896 77.6818H158.237V86C158.237 86.3788 158.292 86.6629 158.402 86.8523C158.516 87.0379 158.66 87.1629 158.834 87.2273C159.012 87.2879 159.199 87.3182 159.396 87.3182C159.544 87.3182 159.665 87.3106 159.76 87.2955C159.855 87.2765 159.93 87.2614 159.987 87.25L160.26 88.4545C160.169 88.4886 160.042 88.5227 159.879 88.5568C159.716 88.5947 159.51 88.6136 159.26 88.6136C158.881 88.6136 158.51 88.5322 158.146 88.3693C157.786 88.2064 157.487 87.9583 157.249 87.625C157.014 87.2917 156.896 86.8712 156.896 86.3636V77.6818ZM168.143 81.7273L166.939 82.0682C166.863 81.8674 166.751 81.6723 166.604 81.483C166.46 81.2898 166.263 81.1307 166.013 81.0057C165.763 80.8807 165.443 80.8182 165.053 80.8182C164.518 80.8182 164.073 80.9413 163.717 81.1875C163.365 81.4299 163.189 81.7386 163.189 82.1136C163.189 82.447 163.31 82.7102 163.553 82.9034C163.795 83.0966 164.174 83.2576 164.689 83.3864L165.984 83.7045C166.765 83.8939 167.346 84.1837 167.729 84.5739C168.111 84.9602 168.303 85.4583 168.303 86.0682C168.303 86.5682 168.159 87.0152 167.871 87.4091C167.587 87.803 167.189 88.1136 166.678 88.3409C166.166 88.5682 165.571 88.6818 164.893 88.6818C164.003 88.6818 163.267 88.4886 162.683 88.1023C162.1 87.7159 161.731 87.1515 161.575 86.4091L162.848 86.0909C162.969 86.5606 163.198 86.9129 163.536 87.1477C163.876 87.3826 164.321 87.5 164.871 87.5C165.496 87.5 165.992 87.3674 166.359 87.1023C166.731 86.8333 166.916 86.5114 166.916 86.1364C166.916 85.8333 166.81 85.5795 166.598 85.375C166.386 85.1667 166.06 85.0114 165.621 84.9091L164.166 84.5682C163.367 84.3788 162.78 84.0852 162.405 83.6875C162.034 83.286 161.848 82.7841 161.848 82.1818C161.848 81.6894 161.986 81.2538 162.263 80.875C162.543 80.4962 162.924 80.1989 163.405 79.983C163.89 79.767 164.439 79.6591 165.053 79.6591C165.916 79.6591 166.594 79.8485 167.087 80.2273C167.583 80.6061 167.935 81.1061 168.143 81.7273Z"
        fill="#4D5C6C" />
    <rect x="24" y="104" width="19" height="19" rx="2" fill="#6048E5" />
    <path d="M38.5295 109.588L31.6141 117.412L28.4707 113.856" stroke="white" stroke-width="2" stroke-linecap="round"
        stroke-linejoin="round" />
    <path
        d="M56.4091 119.5V107.864H63.3864V109.114H57.8182V113.045H62.8636V114.295H57.8182V119.5H56.4091ZM65.6179 119.5V110.773H66.9588V119.5H65.6179ZM66.2997 109.318C66.0384 109.318 65.813 109.229 65.6236 109.051C65.438 108.873 65.3452 108.659 65.3452 108.409C65.3452 108.159 65.438 107.945 65.6236 107.767C65.813 107.589 66.0384 107.5 66.2997 107.5C66.5611 107.5 66.7846 107.589 66.9702 107.767C67.1596 107.945 67.2543 108.159 67.2543 108.409C67.2543 108.659 67.1596 108.873 66.9702 109.051C66.7846 109.229 66.5611 109.318 66.2997 109.318ZM70.7557 114.25V119.5H69.4148V110.773H70.7102V112.136H70.8239C71.0284 111.693 71.339 111.337 71.7557 111.068C72.1723 110.795 72.7102 110.659 73.3693 110.659C73.9602 110.659 74.4773 110.78 74.9205 111.023C75.3636 111.261 75.7083 111.625 75.9545 112.114C76.2008 112.598 76.3239 113.212 76.3239 113.955V119.5H74.983V114.045C74.983 113.36 74.8049 112.826 74.4489 112.443C74.0928 112.057 73.6042 111.864 72.983 111.864C72.5549 111.864 72.1723 111.956 71.8352 112.142C71.5019 112.328 71.2386 112.598 71.0455 112.955C70.8523 113.311 70.7557 113.742 70.7557 114.25ZM78.7741 119.5V110.773H80.1151V119.5H78.7741ZM79.456 109.318C79.1946 109.318 78.9692 109.229 78.7798 109.051C78.5942 108.873 78.5014 108.659 78.5014 108.409C78.5014 108.159 78.5942 107.945 78.7798 107.767C78.9692 107.589 79.1946 107.5 79.456 107.5C79.7173 107.5 79.9408 107.589 80.1264 107.767C80.3158 107.945 80.4105 108.159 80.4105 108.409C80.4105 108.659 80.3158 108.873 80.1264 109.051C79.9408 109.229 79.7173 109.318 79.456 109.318ZM88.7528 112.727L87.5483 113.068C87.4725 112.867 87.3608 112.672 87.2131 112.483C87.0691 112.29 86.8722 112.131 86.6222 112.006C86.3722 111.881 86.0521 111.818 85.6619 111.818C85.1278 111.818 84.6828 111.941 84.3267 112.188C83.9744 112.43 83.7983 112.739 83.7983 113.114C83.7983 113.447 83.9195 113.71 84.1619 113.903C84.4044 114.097 84.7831 114.258 85.2983 114.386L86.5938 114.705C87.3741 114.894 87.9555 115.184 88.3381 115.574C88.7206 115.96 88.9119 116.458 88.9119 117.068C88.9119 117.568 88.768 118.015 88.4801 118.409C88.196 118.803 87.7983 119.114 87.2869 119.341C86.7756 119.568 86.1809 119.682 85.5028 119.682C84.6127 119.682 83.8759 119.489 83.2926 119.102C82.7093 118.716 82.34 118.152 82.1847 117.409L83.4574 117.091C83.5786 117.561 83.8078 117.913 84.1449 118.148C84.4858 118.383 84.9309 118.5 85.4801 118.5C86.1051 118.5 86.6013 118.367 86.9688 118.102C87.34 117.833 87.5256 117.511 87.5256 117.136C87.5256 116.833 87.4195 116.58 87.2074 116.375C86.9953 116.167 86.6695 116.011 86.2301 115.909L84.7756 115.568C83.9763 115.379 83.3892 115.085 83.0142 114.688C82.643 114.286 82.4574 113.784 82.4574 113.182C82.4574 112.689 82.5956 112.254 82.8722 111.875C83.1525 111.496 83.5331 111.199 84.0142 110.983C84.4991 110.767 85.0483 110.659 85.6619 110.659C86.5256 110.659 87.2036 110.848 87.696 111.227C88.1922 111.606 88.5445 112.106 88.7528 112.727ZM92.2713 114.25V119.5H90.9304V107.864H92.2713V112.136H92.3849C92.5895 111.686 92.8963 111.328 93.3054 111.062C93.7183 110.794 94.2675 110.659 94.9531 110.659C95.5478 110.659 96.0687 110.778 96.5156 111.017C96.9626 111.252 97.3092 111.614 97.5554 112.102C97.8054 112.587 97.9304 113.205 97.9304 113.955V119.5H96.5895V114.045C96.5895 113.352 96.4096 112.816 96.0497 112.438C95.6937 112.055 95.1993 111.864 94.5668 111.864C94.1274 111.864 93.7334 111.956 93.3849 112.142C93.0402 112.328 92.7675 112.598 92.5668 112.955C92.3698 113.311 92.2713 113.742 92.2713 114.25ZM104.884 119.5V110.773H106.179V112.091H106.27C106.429 111.659 106.717 111.309 107.134 111.04C107.55 110.771 108.02 110.636 108.543 110.636C108.641 110.636 108.764 110.638 108.912 110.642C109.06 110.646 109.171 110.652 109.247 110.659V112.023C109.202 112.011 109.098 111.994 108.935 111.972C108.776 111.945 108.607 111.932 108.429 111.932C108.005 111.932 107.626 112.021 107.293 112.199C106.963 112.373 106.702 112.616 106.509 112.926C106.319 113.233 106.224 113.583 106.224 113.977V119.5H104.884ZM114.23 119.682C113.389 119.682 112.664 119.496 112.054 119.125C111.448 118.75 110.98 118.227 110.651 117.557C110.325 116.883 110.162 116.098 110.162 115.205C110.162 114.311 110.325 113.523 110.651 112.841C110.98 112.155 111.438 111.621 112.026 111.239C112.616 110.852 113.306 110.659 114.094 110.659C114.548 110.659 114.997 110.735 115.44 110.886C115.884 111.038 116.287 111.284 116.651 111.625C117.014 111.962 117.304 112.409 117.52 112.966C117.736 113.523 117.844 114.208 117.844 115.023V115.591H111.116V114.432H116.48C116.48 113.939 116.382 113.5 116.185 113.114C115.991 112.727 115.715 112.422 115.355 112.199C114.999 111.975 114.579 111.864 114.094 111.864C113.56 111.864 113.098 111.996 112.707 112.261C112.321 112.523 112.024 112.864 111.815 113.284C111.607 113.705 111.503 114.155 111.503 114.636V115.409C111.503 116.068 111.616 116.627 111.844 117.085C112.075 117.54 112.395 117.886 112.804 118.125C113.213 118.36 113.688 118.477 114.23 118.477C114.582 118.477 114.901 118.428 115.185 118.33C115.473 118.227 115.721 118.076 115.929 117.875C116.137 117.67 116.298 117.417 116.412 117.114L117.707 117.477C117.571 117.917 117.342 118.303 117.02 118.636C116.698 118.966 116.3 119.223 115.827 119.409C115.353 119.591 114.821 119.682 114.23 119.682ZM122.452 119.705C121.899 119.705 121.397 119.6 120.946 119.392C120.495 119.18 120.137 118.875 119.872 118.477C119.607 118.076 119.474 117.591 119.474 117.023C119.474 116.523 119.573 116.117 119.77 115.807C119.967 115.492 120.23 115.246 120.56 115.068C120.889 114.89 121.253 114.758 121.651 114.67C122.052 114.58 122.455 114.508 122.861 114.455C123.391 114.386 123.821 114.335 124.151 114.301C124.484 114.263 124.726 114.201 124.878 114.114C125.033 114.027 125.111 113.875 125.111 113.659V113.614C125.111 113.053 124.957 112.617 124.651 112.307C124.348 111.996 123.887 111.841 123.27 111.841C122.63 111.841 122.128 111.981 121.764 112.261C121.401 112.542 121.145 112.841 120.997 113.159L119.724 112.705C119.952 112.174 120.255 111.761 120.634 111.466C121.016 111.167 121.433 110.958 121.884 110.841C122.338 110.72 122.785 110.659 123.224 110.659C123.505 110.659 123.827 110.693 124.19 110.761C124.558 110.826 124.912 110.96 125.253 111.165C125.598 111.369 125.884 111.678 126.111 112.091C126.338 112.504 126.452 113.057 126.452 113.75V119.5H125.111V118.318H125.043C124.952 118.508 124.8 118.71 124.588 118.926C124.376 119.142 124.094 119.326 123.741 119.477C123.389 119.629 122.959 119.705 122.452 119.705ZM122.656 118.5C123.187 118.5 123.634 118.396 123.997 118.188C124.365 117.979 124.641 117.71 124.827 117.381C125.016 117.051 125.111 116.705 125.111 116.341V115.114C125.054 115.182 124.929 115.244 124.736 115.301C124.546 115.354 124.327 115.402 124.077 115.443C123.83 115.481 123.59 115.515 123.355 115.545C123.124 115.572 122.937 115.595 122.793 115.614C122.444 115.659 122.118 115.733 121.815 115.835C121.516 115.934 121.274 116.083 121.088 116.284C120.906 116.481 120.815 116.75 120.815 117.091C120.815 117.557 120.988 117.909 121.332 118.148C121.681 118.383 122.122 118.5 122.656 118.5ZM132.195 119.682C131.467 119.682 130.825 119.498 130.268 119.131C129.712 118.759 129.276 118.237 128.962 117.562C128.647 116.884 128.49 116.083 128.49 115.159C128.49 114.242 128.647 113.447 128.962 112.773C129.276 112.098 129.714 111.578 130.274 111.21C130.835 110.843 131.482 110.659 132.217 110.659C132.786 110.659 133.234 110.754 133.564 110.943C133.897 111.129 134.151 111.341 134.325 111.58C134.503 111.814 134.642 112.008 134.74 112.159H134.854V107.864H136.195V119.5H134.899V118.159H134.74C134.642 118.318 134.501 118.519 134.32 118.761C134.138 119 133.878 119.214 133.541 119.403C133.204 119.589 132.755 119.682 132.195 119.682ZM132.376 118.477C132.914 118.477 133.369 118.337 133.74 118.057C134.111 117.773 134.393 117.381 134.587 116.881C134.78 116.377 134.876 115.795 134.876 115.136C134.876 114.485 134.782 113.915 134.592 113.426C134.403 112.934 134.123 112.551 133.751 112.278C133.38 112.002 132.922 111.864 132.376 111.864C131.808 111.864 131.335 112.009 130.956 112.301C130.581 112.589 130.299 112.981 130.109 113.477C129.924 113.97 129.831 114.523 129.831 115.136C129.831 115.758 129.926 116.322 130.115 116.83C130.308 117.333 130.592 117.735 130.967 118.034C131.346 118.33 131.816 118.477 132.376 118.477ZM138.837 119.5V110.773H140.178V119.5H138.837ZM139.518 109.318C139.257 109.318 139.032 109.229 138.842 109.051C138.657 108.873 138.564 108.659 138.564 108.409C138.564 108.159 138.657 107.945 138.842 107.767C139.032 107.589 139.257 107.5 139.518 107.5C139.78 107.5 140.003 107.589 140.189 107.767C140.378 107.945 140.473 108.159 140.473 108.409C140.473 108.659 140.378 108.873 140.189 109.051C140.003 109.229 139.78 109.318 139.518 109.318ZM143.974 114.25V119.5H142.634V110.773H143.929V112.136H144.043C144.247 111.693 144.558 111.337 144.974 111.068C145.391 110.795 145.929 110.659 146.588 110.659C147.179 110.659 147.696 110.78 148.139 111.023C148.582 111.261 148.927 111.625 149.173 112.114C149.42 112.598 149.543 113.212 149.543 113.955V119.5H148.202V114.045C148.202 113.36 148.024 112.826 147.668 112.443C147.312 112.057 146.823 111.864 146.202 111.864C145.774 111.864 145.391 111.956 145.054 112.142C144.721 112.328 144.457 112.598 144.264 112.955C144.071 113.311 143.974 113.742 143.974 114.25ZM155.516 122.955C154.868 122.955 154.311 122.871 153.845 122.705C153.379 122.542 152.991 122.326 152.68 122.057C152.374 121.792 152.129 121.508 151.947 121.205L153.016 120.455C153.137 120.614 153.29 120.795 153.476 121C153.661 121.208 153.915 121.388 154.237 121.54C154.563 121.695 154.989 121.773 155.516 121.773C156.22 121.773 156.802 121.602 157.26 121.261C157.718 120.92 157.947 120.386 157.947 119.659V117.886H157.834C157.735 118.045 157.595 118.242 157.413 118.477C157.235 118.708 156.978 118.915 156.641 119.097C156.307 119.275 155.857 119.364 155.288 119.364C154.584 119.364 153.951 119.197 153.391 118.864C152.834 118.53 152.393 118.045 152.067 117.409C151.745 116.773 151.584 116 151.584 115.091C151.584 114.197 151.741 113.419 152.055 112.756C152.37 112.089 152.807 111.574 153.368 111.21C153.929 110.843 154.576 110.659 155.311 110.659C155.879 110.659 156.33 110.754 156.663 110.943C157 111.129 157.258 111.341 157.436 111.58C157.618 111.814 157.758 112.008 157.857 112.159H157.993V110.773H159.288V119.75C159.288 120.5 159.118 121.11 158.777 121.58C158.44 122.053 157.985 122.4 157.413 122.619C156.845 122.843 156.213 122.955 155.516 122.955ZM155.47 118.159C156.008 118.159 156.463 118.036 156.834 117.79C157.205 117.544 157.487 117.189 157.68 116.727C157.874 116.265 157.97 115.712 157.97 115.068C157.97 114.439 157.875 113.884 157.686 113.403C157.497 112.922 157.216 112.545 156.845 112.273C156.474 112 156.016 111.864 155.47 111.864C154.902 111.864 154.429 112.008 154.05 112.295C153.675 112.583 153.393 112.97 153.203 113.455C153.018 113.939 152.925 114.477 152.925 115.068C152.925 115.674 153.019 116.21 153.209 116.676C153.402 117.138 153.686 117.502 154.061 117.767C154.44 118.028 154.91 118.159 155.47 118.159ZM166.425 107.864H168.107L172.061 117.523H172.197L176.152 107.864H177.834V119.5H176.516V110.659H176.402L172.766 119.5H171.493L167.857 110.659H167.743V119.5H166.425V107.864ZM180.477 119.5V110.773H181.818V119.5H180.477ZM181.159 109.318C180.898 109.318 180.672 109.229 180.483 109.051C180.297 108.873 180.205 108.659 180.205 108.409C180.205 108.159 180.297 107.945 180.483 107.767C180.672 107.589 180.898 107.5 181.159 107.5C181.42 107.5 181.644 107.589 181.83 107.767C182.019 107.945 182.114 108.159 182.114 108.409C182.114 108.659 182.019 108.873 181.83 109.051C181.644 109.229 181.42 109.318 181.159 109.318ZM185.615 114.25V119.5H184.274V110.773H185.57V112.136H185.683C185.888 111.693 186.198 111.337 186.615 111.068C187.032 110.795 187.57 110.659 188.229 110.659C188.82 110.659 189.337 110.78 189.78 111.023C190.223 111.261 190.568 111.625 190.814 112.114C191.06 112.598 191.183 113.212 191.183 113.955V119.5H189.842V114.045C189.842 113.36 189.664 112.826 189.308 112.443C188.952 112.057 188.464 111.864 187.842 111.864C187.414 111.864 187.032 111.956 186.695 112.142C186.361 112.328 186.098 112.598 185.905 112.955C185.712 113.311 185.615 113.742 185.615 114.25ZM193.634 119.5V110.773H194.974V119.5H193.634ZM194.315 109.318C194.054 109.318 193.829 109.229 193.639 109.051C193.454 108.873 193.361 108.659 193.361 108.409C193.361 108.159 193.454 107.945 193.639 107.767C193.829 107.589 194.054 107.5 194.315 107.5C194.577 107.5 194.8 107.589 194.986 107.767C195.175 107.945 195.27 108.159 195.27 108.409C195.27 108.659 195.175 108.873 194.986 109.051C194.8 109.229 194.577 109.318 194.315 109.318ZM203.612 112.727L202.408 113.068C202.332 112.867 202.22 112.672 202.072 112.483C201.929 112.29 201.732 112.131 201.482 112.006C201.232 111.881 200.911 111.818 200.521 111.818C199.987 111.818 199.542 111.941 199.186 112.188C198.834 112.43 198.658 112.739 198.658 113.114C198.658 113.447 198.779 113.71 199.021 113.903C199.264 114.097 199.643 114.258 200.158 114.386L201.453 114.705C202.233 114.894 202.815 115.184 203.197 115.574C203.58 115.96 203.771 116.458 203.771 117.068C203.771 117.568 203.627 118.015 203.339 118.409C203.055 118.803 202.658 119.114 202.146 119.341C201.635 119.568 201.04 119.682 200.362 119.682C199.472 119.682 198.735 119.489 198.152 119.102C197.569 118.716 197.199 118.152 197.044 117.409L198.317 117.091C198.438 117.561 198.667 117.913 199.004 118.148C199.345 118.383 199.79 118.5 200.339 118.5C200.964 118.5 201.461 118.367 201.828 118.102C202.199 117.833 202.385 117.511 202.385 117.136C202.385 116.833 202.279 116.58 202.067 116.375C201.855 116.167 201.529 116.011 201.089 115.909L199.635 115.568C198.836 115.379 198.249 115.085 197.874 114.688C197.502 114.286 197.317 113.784 197.317 113.182C197.317 112.689 197.455 112.254 197.732 111.875C198.012 111.496 198.393 111.199 198.874 110.983C199.358 110.767 199.908 110.659 200.521 110.659C201.385 110.659 202.063 110.848 202.555 111.227C203.052 111.606 203.404 112.106 203.612 112.727ZM209.585 110.773V111.909H205.062V110.773H209.585ZM206.381 108.682H207.722V117C207.722 117.379 207.777 117.663 207.886 117.852C208 118.038 208.144 118.163 208.318 118.227C208.496 118.288 208.684 118.318 208.881 118.318C209.028 118.318 209.15 118.311 209.244 118.295C209.339 118.277 209.415 118.261 209.472 118.25L209.744 119.455C209.653 119.489 209.527 119.523 209.364 119.557C209.201 119.595 208.994 119.614 208.744 119.614C208.366 119.614 207.994 119.532 207.631 119.369C207.271 119.206 206.972 118.958 206.733 118.625C206.498 118.292 206.381 117.871 206.381 117.364V108.682ZM211.602 119.5V110.773H212.898V112.091H212.989C213.148 111.659 213.436 111.309 213.852 111.04C214.269 110.771 214.739 110.636 215.261 110.636C215.36 110.636 215.483 110.638 215.631 110.642C215.778 110.646 215.89 110.652 215.966 110.659V112.023C215.92 112.011 215.816 111.994 215.653 111.972C215.494 111.945 215.326 111.932 215.148 111.932C214.723 111.932 214.345 112.021 214.011 112.199C213.682 112.373 213.42 112.616 213.227 112.926C213.038 113.233 212.943 113.583 212.943 113.977V119.5H211.602ZM218.685 122.773C218.457 122.773 218.255 122.754 218.077 122.716C217.899 122.682 217.776 122.648 217.707 122.614L218.048 121.432C218.374 121.515 218.662 121.545 218.912 121.523C219.162 121.5 219.384 121.388 219.577 121.188C219.774 120.991 219.954 120.67 220.116 120.227L220.366 119.545L217.139 110.773H218.594L221.003 117.727H221.094L223.503 110.773H224.957L221.253 120.773C221.086 121.223 220.88 121.597 220.634 121.892C220.387 122.191 220.101 122.413 219.776 122.557C219.454 122.701 219.09 122.773 218.685 122.773ZM235.114 110.773V111.909H230.409V110.773H235.114ZM231.818 119.5V109.568C231.818 109.068 231.936 108.652 232.17 108.318C232.405 107.985 232.71 107.735 233.085 107.568C233.46 107.402 233.856 107.318 234.273 107.318C234.602 107.318 234.871 107.345 235.08 107.398C235.288 107.451 235.443 107.5 235.545 107.545L235.159 108.705C235.091 108.682 234.996 108.653 234.875 108.619C234.758 108.585 234.602 108.568 234.409 108.568C233.966 108.568 233.646 108.68 233.449 108.903C233.256 109.127 233.159 109.455 233.159 109.886V119.5H231.818ZM240.179 119.682C239.391 119.682 238.7 119.494 238.105 119.119C237.514 118.744 237.052 118.22 236.719 117.545C236.389 116.871 236.224 116.083 236.224 115.182C236.224 114.273 236.389 113.479 236.719 112.801C237.052 112.123 237.514 111.597 238.105 111.222C238.7 110.847 239.391 110.659 240.179 110.659C240.967 110.659 241.656 110.847 242.247 111.222C242.842 111.597 243.304 112.123 243.634 112.801C243.967 113.479 244.134 114.273 244.134 115.182C244.134 116.083 243.967 116.871 243.634 117.545C243.304 118.22 242.842 118.744 242.247 119.119C241.656 119.494 240.967 119.682 240.179 119.682ZM240.179 118.477C240.777 118.477 241.27 118.324 241.656 118.017C242.043 117.71 242.329 117.307 242.514 116.807C242.7 116.307 242.793 115.765 242.793 115.182C242.793 114.598 242.7 114.055 242.514 113.551C242.329 113.047 242.043 112.64 241.656 112.33C241.27 112.019 240.777 111.864 240.179 111.864C239.58 111.864 239.088 112.019 238.702 112.33C238.315 112.64 238.029 113.047 237.844 113.551C237.658 114.055 237.565 114.598 237.565 115.182C237.565 115.765 237.658 116.307 237.844 116.807C238.029 117.307 238.315 117.71 238.702 118.017C239.088 118.324 239.58 118.477 240.179 118.477ZM246.18 119.5V110.773H247.476V112.091H247.567C247.726 111.659 248.014 111.309 248.43 111.04C248.847 110.771 249.317 110.636 249.839 110.636C249.938 110.636 250.061 110.638 250.209 110.642C250.357 110.646 250.468 110.652 250.544 110.659V112.023C250.499 112.011 250.394 111.994 250.232 111.972C250.072 111.945 249.904 111.932 249.726 111.932C249.302 111.932 248.923 112.021 248.589 112.199C248.26 112.373 247.999 112.616 247.805 112.926C247.616 113.233 247.521 113.583 247.521 113.977V119.5H246.18ZM260.429 110.773V111.909H255.906V110.773H260.429ZM257.224 108.682H258.565V117C258.565 117.379 258.62 117.663 258.73 117.852C258.844 118.038 258.988 118.163 259.162 118.227C259.34 118.288 259.527 118.318 259.724 118.318C259.872 118.318 259.993 118.311 260.088 118.295C260.183 118.277 260.259 118.261 260.315 118.25L260.588 119.455C260.497 119.489 260.37 119.523 260.207 119.557C260.045 119.595 259.838 119.614 259.588 119.614C259.209 119.614 258.838 119.532 258.474 119.369C258.115 119.206 257.815 118.958 257.577 118.625C257.342 118.292 257.224 117.871 257.224 117.364V108.682ZM263.974 114.25V119.5H262.634V107.864H263.974V112.136H264.088C264.293 111.686 264.599 111.328 265.009 111.062C265.421 110.794 265.971 110.659 266.656 110.659C267.251 110.659 267.772 110.778 268.219 111.017C268.666 111.252 269.012 111.614 269.259 112.102C269.509 112.587 269.634 113.205 269.634 113.955V119.5H268.293V114.045C268.293 113.352 268.113 112.816 267.753 112.438C267.397 112.055 266.902 111.864 266.27 111.864C265.83 111.864 265.437 111.956 265.088 112.142C264.743 112.328 264.471 112.598 264.27 112.955C264.073 113.311 263.974 113.742 263.974 114.25ZM275.746 119.682C274.905 119.682 274.179 119.496 273.57 119.125C272.964 118.75 272.496 118.227 272.166 117.557C271.84 116.883 271.678 116.098 271.678 115.205C271.678 114.311 271.84 113.523 272.166 112.841C272.496 112.155 272.954 111.621 273.541 111.239C274.132 110.852 274.821 110.659 275.609 110.659C276.064 110.659 276.513 110.735 276.956 110.886C277.399 111.038 277.803 111.284 278.166 111.625C278.53 111.962 278.82 112.409 279.036 112.966C279.251 113.523 279.359 114.208 279.359 115.023V115.591H272.632V114.432H277.996C277.996 113.939 277.897 113.5 277.7 113.114C277.507 112.727 277.231 112.422 276.871 112.199C276.515 111.975 276.094 111.864 275.609 111.864C275.075 111.864 274.613 111.996 274.223 112.261C273.837 112.523 273.539 112.864 273.331 113.284C273.123 113.705 273.018 114.155 273.018 114.636V115.409C273.018 116.068 273.132 116.627 273.359 117.085C273.59 117.54 273.911 117.886 274.32 118.125C274.729 118.36 275.204 118.477 275.746 118.477C276.098 118.477 276.416 118.428 276.7 118.33C276.988 118.227 277.236 118.076 277.445 117.875C277.653 117.67 277.814 117.417 277.928 117.114L279.223 117.477C279.087 117.917 278.857 118.303 278.536 118.636C278.214 118.966 277.816 119.223 277.342 119.409C276.869 119.591 276.337 119.682 275.746 119.682ZM286.081 119.5V107.864H293.058V109.114H287.49V113.045H292.536V114.295H287.49V119.5H286.081ZM300.243 115.932V110.773H301.584V119.5H300.243V118.023H300.152C299.947 118.466 299.629 118.843 299.197 119.153C298.766 119.46 298.22 119.614 297.561 119.614C297.016 119.614 296.531 119.494 296.107 119.256C295.682 119.013 295.349 118.65 295.107 118.165C294.864 117.676 294.743 117.061 294.743 116.318V110.773H296.084V116.227C296.084 116.864 296.262 117.371 296.618 117.75C296.978 118.129 297.436 118.318 297.993 118.318C298.326 118.318 298.665 118.233 299.01 118.062C299.358 117.892 299.65 117.631 299.885 117.278C300.124 116.926 300.243 116.477 300.243 115.932ZM307.835 110.773V111.909H303.312V110.773H307.835ZM304.631 108.682H305.972V117C305.972 117.379 306.027 117.663 306.136 117.852C306.25 118.038 306.394 118.163 306.568 118.227C306.746 118.288 306.934 118.318 307.131 118.318C307.278 118.318 307.4 118.311 307.494 118.295C307.589 118.277 307.665 118.261 307.722 118.25L307.994 119.455C307.903 119.489 307.777 119.523 307.614 119.557C307.451 119.595 307.244 119.614 306.994 119.614C306.616 119.614 306.244 119.532 305.881 119.369C305.521 119.206 305.222 118.958 304.983 118.625C304.748 118.292 304.631 117.871 304.631 117.364V108.682ZM315.352 115.932V110.773H316.693V119.5H315.352V118.023H315.261C315.057 118.466 314.739 118.843 314.307 119.153C313.875 119.46 313.33 119.614 312.67 119.614C312.125 119.614 311.64 119.494 311.216 119.256C310.792 119.013 310.458 118.65 310.216 118.165C309.973 117.676 309.852 117.061 309.852 116.318V110.773H311.193V116.227C311.193 116.864 311.371 117.371 311.727 117.75C312.087 118.129 312.545 118.318 313.102 118.318C313.436 118.318 313.775 118.233 314.119 118.062C314.468 117.892 314.759 117.631 314.994 117.278C315.233 116.926 315.352 116.477 315.352 115.932ZM319.149 119.5V110.773H320.445V112.091H320.536C320.695 111.659 320.982 111.309 321.399 111.04C321.816 110.771 322.286 110.636 322.808 110.636C322.907 110.636 323.03 110.638 323.178 110.642C323.325 110.646 323.437 110.652 323.513 110.659V112.023C323.467 112.011 323.363 111.994 323.2 111.972C323.041 111.945 322.873 111.932 322.695 111.932C322.27 111.932 321.892 112.021 321.558 112.199C321.229 112.373 320.967 112.616 320.774 112.926C320.585 113.233 320.49 113.583 320.49 113.977V119.5H319.149ZM328.496 119.682C327.655 119.682 326.929 119.496 326.32 119.125C325.714 118.75 325.246 118.227 324.916 117.557C324.59 116.883 324.428 116.098 324.428 115.205C324.428 114.311 324.59 113.523 324.916 112.841C325.246 112.155 325.704 111.621 326.291 111.239C326.882 110.852 327.571 110.659 328.359 110.659C328.814 110.659 329.263 110.735 329.706 110.886C330.149 111.038 330.553 111.284 330.916 111.625C331.28 111.962 331.57 112.409 331.786 112.966C332.001 113.523 332.109 114.208 332.109 115.023V115.591H325.382V114.432H330.746C330.746 113.939 330.647 113.5 330.45 113.114C330.257 112.727 329.981 112.422 329.621 112.199C329.265 111.975 328.844 111.864 328.359 111.864C327.825 111.864 327.363 111.996 326.973 112.261C326.587 112.523 326.289 112.864 326.081 113.284C325.873 113.705 325.768 114.155 325.768 114.636V115.409C325.768 116.068 325.882 116.627 326.109 117.085C326.34 117.54 326.661 117.886 327.07 118.125C327.479 118.36 327.954 118.477 328.496 118.477C328.848 118.477 329.166 118.428 329.45 118.33C329.738 118.227 329.986 118.076 330.195 117.875C330.403 117.67 330.564 117.417 330.678 117.114L331.973 117.477C331.837 117.917 331.607 118.303 331.286 118.636C330.964 118.966 330.566 119.223 330.092 119.409C329.619 119.591 329.087 119.682 328.496 119.682Z"
        fill="#4D5C6C" />
    <rect x="24.5" y="135.5" width="18" height="18" rx="1.5" stroke="#6048E5" />
    <path opacity="0.3" d="M38.5295 140.588L31.6141 148.412L28.4707 144.856" stroke="#6048E5" stroke-width="2"
        stroke-linecap="round" stroke-linejoin="round" />
    <path
        d="M65.7727 142.5H64.3636C64.2803 142.095 64.1345 141.739 63.9261 141.432C63.7216 141.125 63.4716 140.867 63.1761 140.659C62.8845 140.447 62.5606 140.288 62.2045 140.182C61.8485 140.076 61.4773 140.023 61.0909 140.023C60.3864 140.023 59.7481 140.201 59.1761 140.557C58.608 140.913 58.1553 141.438 57.8182 142.131C57.4848 142.824 57.3182 143.674 57.3182 144.682C57.3182 145.689 57.4848 146.54 57.8182 147.233C58.1553 147.926 58.608 148.451 59.1761 148.807C59.7481 149.163 60.3864 149.341 61.0909 149.341C61.4773 149.341 61.8485 149.288 62.2045 149.182C62.5606 149.076 62.8845 148.919 63.1761 148.71C63.4716 148.498 63.7216 148.239 63.9261 147.932C64.1345 147.621 64.2803 147.265 64.3636 146.864H65.7727C65.6667 147.458 65.4735 147.991 65.1932 148.46C64.9129 148.93 64.5644 149.33 64.1477 149.659C63.7311 149.985 63.2633 150.233 62.7443 150.403C62.2292 150.574 61.678 150.659 61.0909 150.659C60.0985 150.659 59.2159 150.417 58.4432 149.932C57.6705 149.447 57.0625 148.758 56.6193 147.864C56.1761 146.97 55.9545 145.909 55.9545 144.682C55.9545 143.455 56.1761 142.394 56.6193 141.5C57.0625 140.606 57.6705 139.917 58.4432 139.432C59.2159 138.947 60.0985 138.705 61.0909 138.705C61.678 138.705 62.2292 138.79 62.7443 138.96C63.2633 139.131 63.7311 139.381 64.1477 139.71C64.5644 140.036 64.9129 140.434 65.1932 140.903C65.4735 141.369 65.6667 141.902 65.7727 142.5ZM69.2088 145.25V150.5H67.8679V138.864H69.2088V143.136H69.3224C69.527 142.686 69.8338 142.328 70.2429 142.062C70.6558 141.794 71.205 141.659 71.8906 141.659C72.4853 141.659 73.0062 141.778 73.4531 142.017C73.9001 142.252 74.2467 142.614 74.4929 143.102C74.7429 143.587 74.8679 144.205 74.8679 144.955V150.5H73.527V145.045C73.527 144.352 73.3471 143.816 72.9872 143.438C72.6312 143.055 72.1368 142.864 71.5043 142.864C71.0649 142.864 70.6709 142.956 70.3224 143.142C69.9777 143.328 69.705 143.598 69.5043 143.955C69.3073 144.311 69.2088 144.742 69.2088 145.25ZM80.9801 150.682C80.1392 150.682 79.4138 150.496 78.804 150.125C78.1979 149.75 77.7301 149.227 77.4006 148.557C77.0748 147.883 76.9119 147.098 76.9119 146.205C76.9119 145.311 77.0748 144.523 77.4006 143.841C77.7301 143.155 78.1884 142.621 78.7756 142.239C79.3665 141.852 80.0559 141.659 80.8438 141.659C81.2983 141.659 81.7472 141.735 82.1903 141.886C82.6335 142.038 83.0369 142.284 83.4006 142.625C83.7642 142.962 84.054 143.409 84.2699 143.966C84.4858 144.523 84.5938 145.208 84.5938 146.023V146.591H77.8665V145.432H83.2301C83.2301 144.939 83.1316 144.5 82.9347 144.114C82.7415 143.727 82.465 143.422 82.1051 143.199C81.7491 142.975 81.3286 142.864 80.8438 142.864C80.3097 142.864 79.8475 142.996 79.4574 143.261C79.071 143.523 78.7737 143.864 78.5653 144.284C78.357 144.705 78.2528 145.155 78.2528 145.636V146.409C78.2528 147.068 78.3665 147.627 78.5938 148.085C78.8248 148.54 79.1449 148.886 79.554 149.125C79.9631 149.36 80.4384 149.477 80.9801 149.477C81.3324 149.477 81.6506 149.428 81.9347 149.33C82.2225 149.227 82.4706 149.076 82.679 148.875C82.8873 148.67 83.0483 148.417 83.1619 148.114L84.4574 148.477C84.321 148.917 84.0919 149.303 83.7699 149.636C83.4479 149.966 83.0502 150.223 82.5767 150.409C82.1032 150.591 81.571 150.682 80.9801 150.682ZM90.179 150.682C89.3608 150.682 88.6563 150.489 88.0653 150.102C87.4744 149.716 87.0199 149.184 86.7017 148.506C86.3835 147.828 86.2244 147.053 86.2244 146.182C86.2244 145.295 86.3873 144.513 86.7131 143.835C87.0426 143.153 87.5009 142.621 88.0881 142.239C88.679 141.852 89.3684 141.659 90.1562 141.659C90.7699 141.659 91.3229 141.773 91.8153 142C92.3078 142.227 92.7112 142.545 93.0256 142.955C93.34 143.364 93.535 143.841 93.6108 144.386H92.2699C92.1676 143.989 91.9403 143.636 91.5881 143.33C91.2396 143.019 90.7699 142.864 90.179 142.864C89.6563 142.864 89.1979 143 88.804 143.273C88.4138 143.542 88.1089 143.922 87.8892 144.415C87.6733 144.903 87.5653 145.477 87.5653 146.136C87.5653 146.811 87.6714 147.398 87.8835 147.898C88.0994 148.398 88.4025 148.786 88.7926 149.062C89.1866 149.339 89.6487 149.477 90.179 149.477C90.5275 149.477 90.8438 149.417 91.1278 149.295C91.4119 149.174 91.6525 149 91.8494 148.773C92.0464 148.545 92.1866 148.273 92.2699 147.955H93.6108C93.535 148.47 93.3475 148.934 93.0483 149.347C92.7528 149.756 92.3608 150.081 91.8722 150.324C91.3873 150.562 90.8229 150.682 90.179 150.682ZM96.821 147.318L96.7983 145.659H97.071L100.889 141.773H102.548L98.4801 145.886H98.3665L96.821 147.318ZM95.571 150.5V138.864H96.9119V150.5H95.571ZM101.116 150.5L97.7074 146.182L98.6619 145.25L102.821 150.5H101.116ZM112.32 150.682C111.501 150.682 110.797 150.489 110.206 150.102C109.615 149.716 109.161 149.184 108.842 148.506C108.524 147.828 108.365 147.053 108.365 146.182C108.365 145.295 108.528 144.513 108.854 143.835C109.183 143.153 109.642 142.621 110.229 142.239C110.82 141.852 111.509 141.659 112.297 141.659C112.911 141.659 113.464 141.773 113.956 142C114.448 142.227 114.852 142.545 115.166 142.955C115.481 143.364 115.676 143.841 115.751 144.386H114.411C114.308 143.989 114.081 143.636 113.729 143.33C113.38 143.019 112.911 142.864 112.32 142.864C111.797 142.864 111.339 143 110.945 143.273C110.554 143.542 110.25 143.922 110.03 144.415C109.814 144.903 109.706 145.477 109.706 146.136C109.706 146.811 109.812 147.398 110.024 147.898C110.24 148.398 110.543 148.786 110.933 149.062C111.327 149.339 111.789 149.477 112.32 149.477C112.668 149.477 112.984 149.417 113.268 149.295C113.553 149.174 113.793 149 113.99 148.773C114.187 148.545 114.327 148.273 114.411 147.955H115.751C115.676 148.47 115.488 148.934 115.189 149.347C114.893 149.756 114.501 150.081 114.013 150.324C113.528 150.562 112.964 150.682 112.32 150.682ZM121.257 150.682C120.469 150.682 119.778 150.494 119.183 150.119C118.592 149.744 118.13 149.22 117.797 148.545C117.467 147.871 117.303 147.083 117.303 146.182C117.303 145.273 117.467 144.479 117.797 143.801C118.13 143.123 118.592 142.597 119.183 142.222C119.778 141.847 120.469 141.659 121.257 141.659C122.045 141.659 122.734 141.847 123.325 142.222C123.92 142.597 124.382 143.123 124.712 143.801C125.045 144.479 125.212 145.273 125.212 146.182C125.212 147.083 125.045 147.871 124.712 148.545C124.382 149.22 123.92 149.744 123.325 150.119C122.734 150.494 122.045 150.682 121.257 150.682ZM121.257 149.477C121.856 149.477 122.348 149.324 122.734 149.017C123.121 148.71 123.407 148.307 123.592 147.807C123.778 147.307 123.871 146.765 123.871 146.182C123.871 145.598 123.778 145.055 123.592 144.551C123.407 144.047 123.121 143.64 122.734 143.33C122.348 143.019 121.856 142.864 121.257 142.864C120.659 142.864 120.166 143.019 119.78 143.33C119.393 143.64 119.107 144.047 118.922 144.551C118.736 145.055 118.643 145.598 118.643 146.182C118.643 146.765 118.736 147.307 118.922 147.807C119.107 148.307 119.393 148.71 119.78 149.017C120.166 149.324 120.659 149.477 121.257 149.477ZM128.599 138.864V150.5H127.259V138.864H128.599ZM134.601 150.682C133.813 150.682 133.122 150.494 132.527 150.119C131.936 149.744 131.474 149.22 131.141 148.545C130.811 147.871 130.646 147.083 130.646 146.182C130.646 145.273 130.811 144.479 131.141 143.801C131.474 143.123 131.936 142.597 132.527 142.222C133.122 141.847 133.813 141.659 134.601 141.659C135.389 141.659 136.078 141.847 136.669 142.222C137.264 142.597 137.726 143.123 138.055 143.801C138.389 144.479 138.555 145.273 138.555 146.182C138.555 147.083 138.389 147.871 138.055 148.545C137.726 149.22 137.264 149.744 136.669 150.119C136.078 150.494 135.389 150.682 134.601 150.682ZM134.601 149.477C135.199 149.477 135.692 149.324 136.078 149.017C136.464 148.71 136.75 148.307 136.936 147.807C137.122 147.307 137.214 146.765 137.214 146.182C137.214 145.598 137.122 145.055 136.936 144.551C136.75 144.047 136.464 143.64 136.078 143.33C135.692 143.019 135.199 142.864 134.601 142.864C134.002 142.864 133.51 143.019 133.124 143.33C132.737 143.64 132.451 144.047 132.266 144.551C132.08 145.055 131.987 145.598 131.987 146.182C131.987 146.765 132.08 147.307 132.266 147.807C132.451 148.307 132.737 148.71 133.124 149.017C133.51 149.324 134.002 149.477 134.601 149.477ZM140.602 150.5V141.773H141.898V143.091H141.989C142.148 142.659 142.436 142.309 142.852 142.04C143.269 141.771 143.739 141.636 144.261 141.636C144.36 141.636 144.483 141.638 144.631 141.642C144.778 141.646 144.89 141.652 144.966 141.659V143.023C144.92 143.011 144.816 142.994 144.653 142.972C144.494 142.945 144.326 142.932 144.148 142.932C143.723 142.932 143.345 143.021 143.011 143.199C142.682 143.373 142.42 143.616 142.227 143.926C142.038 144.233 141.943 144.583 141.943 144.977V150.5H140.602ZM154.601 150.682C153.783 150.682 153.078 150.489 152.487 150.102C151.896 149.716 151.442 149.184 151.124 148.506C150.805 147.828 150.646 147.053 150.646 146.182C150.646 145.295 150.809 144.513 151.135 143.835C151.464 143.153 151.923 142.621 152.51 142.239C153.101 141.852 153.79 141.659 154.578 141.659C155.192 141.659 155.745 141.773 156.237 142C156.73 142.227 157.133 142.545 157.447 142.955C157.762 143.364 157.957 143.841 158.033 144.386H156.692C156.589 143.989 156.362 143.636 156.01 143.33C155.661 143.019 155.192 142.864 154.601 142.864C154.078 142.864 153.62 143 153.226 143.273C152.836 143.542 152.531 143.922 152.311 144.415C152.095 144.903 151.987 145.477 151.987 146.136C151.987 146.811 152.093 147.398 152.305 147.898C152.521 148.398 152.824 148.786 153.214 149.062C153.608 149.339 154.071 149.477 154.601 149.477C154.949 149.477 155.266 149.417 155.55 149.295C155.834 149.174 156.074 149 156.271 148.773C156.468 148.545 156.608 148.273 156.692 147.955H158.033C157.957 148.47 157.769 148.934 157.47 149.347C157.175 149.756 156.783 150.081 156.294 150.324C155.809 150.562 155.245 150.682 154.601 150.682ZM163.538 150.682C162.75 150.682 162.059 150.494 161.464 150.119C160.874 149.744 160.411 149.22 160.078 148.545C159.749 147.871 159.584 147.083 159.584 146.182C159.584 145.273 159.749 144.479 160.078 143.801C160.411 143.123 160.874 142.597 161.464 142.222C162.059 141.847 162.75 141.659 163.538 141.659C164.326 141.659 165.016 141.847 165.607 142.222C166.201 142.597 166.663 143.123 166.993 143.801C167.326 144.479 167.493 145.273 167.493 146.182C167.493 147.083 167.326 147.871 166.993 148.545C166.663 149.22 166.201 149.744 165.607 150.119C165.016 150.494 164.326 150.682 163.538 150.682ZM163.538 149.477C164.137 149.477 164.629 149.324 165.016 149.017C165.402 148.71 165.688 148.307 165.874 147.807C166.059 147.307 166.152 146.765 166.152 146.182C166.152 145.598 166.059 145.055 165.874 144.551C165.688 144.047 165.402 143.64 165.016 143.33C164.629 143.019 164.137 142.864 163.538 142.864C162.94 142.864 162.447 143.019 162.061 143.33C161.675 143.64 161.389 144.047 161.203 144.551C161.018 145.055 160.925 145.598 160.925 146.182C160.925 146.765 161.018 147.307 161.203 147.807C161.389 148.307 161.675 148.71 162.061 149.017C162.447 149.324 162.94 149.477 163.538 149.477ZM170.881 145.25V150.5H169.54V141.773H170.835V143.136H170.949C171.153 142.693 171.464 142.337 171.881 142.068C172.297 141.795 172.835 141.659 173.494 141.659C174.085 141.659 174.602 141.78 175.045 142.023C175.489 142.261 175.833 142.625 176.08 143.114C176.326 143.598 176.449 144.212 176.449 144.955V150.5H175.108V145.045C175.108 144.36 174.93 143.826 174.574 143.443C174.218 143.057 173.729 142.864 173.108 142.864C172.68 142.864 172.297 142.956 171.96 143.142C171.627 143.328 171.364 143.598 171.17 143.955C170.977 144.311 170.881 144.742 170.881 145.25ZM182.695 141.773V142.909H178.172V141.773H182.695ZM179.49 139.682H180.831V148C180.831 148.379 180.886 148.663 180.996 148.852C181.109 149.038 181.253 149.163 181.428 149.227C181.606 149.288 181.793 149.318 181.99 149.318C182.138 149.318 182.259 149.311 182.354 149.295C182.448 149.277 182.524 149.261 182.581 149.25L182.854 150.455C182.763 150.489 182.636 150.523 182.473 150.557C182.31 150.595 182.104 150.614 181.854 150.614C181.475 150.614 181.104 150.532 180.74 150.369C180.38 150.206 180.081 149.958 179.842 149.625C179.607 149.292 179.49 148.871 179.49 148.364V139.682ZM184.712 150.5V141.773H186.007V143.091H186.098C186.257 142.659 186.545 142.309 186.962 142.04C187.378 141.771 187.848 141.636 188.371 141.636C188.469 141.636 188.592 141.638 188.74 141.642C188.888 141.646 189 141.652 189.075 141.659V143.023C189.03 143.011 188.926 142.994 188.763 142.972C188.604 142.945 188.435 142.932 188.257 142.932C187.833 142.932 187.454 143.021 187.121 143.199C186.791 143.373 186.53 143.616 186.337 143.926C186.147 144.233 186.053 144.583 186.053 144.977V150.5H184.712ZM193.233 150.705C192.68 150.705 192.178 150.6 191.727 150.392C191.277 150.18 190.919 149.875 190.653 149.477C190.388 149.076 190.256 148.591 190.256 148.023C190.256 147.523 190.354 147.117 190.551 146.807C190.748 146.492 191.011 146.246 191.341 146.068C191.67 145.89 192.034 145.758 192.432 145.67C192.833 145.58 193.237 145.508 193.642 145.455C194.172 145.386 194.602 145.335 194.932 145.301C195.265 145.263 195.508 145.201 195.659 145.114C195.814 145.027 195.892 144.875 195.892 144.659V144.614C195.892 144.053 195.739 143.617 195.432 143.307C195.129 142.996 194.669 142.841 194.051 142.841C193.411 142.841 192.909 142.981 192.545 143.261C192.182 143.542 191.926 143.841 191.778 144.159L190.506 143.705C190.733 143.174 191.036 142.761 191.415 142.466C191.797 142.167 192.214 141.958 192.665 141.841C193.119 141.72 193.566 141.659 194.006 141.659C194.286 141.659 194.608 141.693 194.972 141.761C195.339 141.826 195.693 141.96 196.034 142.165C196.379 142.369 196.665 142.678 196.892 143.091C197.119 143.504 197.233 144.057 197.233 144.75V150.5H195.892V149.318H195.824C195.733 149.508 195.581 149.71 195.369 149.926C195.157 150.142 194.875 150.326 194.523 150.477C194.17 150.629 193.741 150.705 193.233 150.705ZM193.438 149.5C193.968 149.5 194.415 149.396 194.778 149.188C195.146 148.979 195.422 148.71 195.608 148.381C195.797 148.051 195.892 147.705 195.892 147.341V146.114C195.835 146.182 195.71 146.244 195.517 146.301C195.328 146.354 195.108 146.402 194.858 146.443C194.612 146.481 194.371 146.515 194.136 146.545C193.905 146.572 193.718 146.595 193.574 146.614C193.225 146.659 192.9 146.733 192.597 146.835C192.297 146.934 192.055 147.083 191.869 147.284C191.688 147.481 191.597 147.75 191.597 148.091C191.597 148.557 191.769 148.909 192.114 149.148C192.462 149.383 192.903 149.5 193.438 149.5ZM205.862 143.727L204.658 144.068C204.582 143.867 204.47 143.672 204.322 143.483C204.179 143.29 203.982 143.131 203.732 143.006C203.482 142.881 203.161 142.818 202.771 142.818C202.237 142.818 201.792 142.941 201.436 143.188C201.084 143.43 200.908 143.739 200.908 144.114C200.908 144.447 201.029 144.71 201.271 144.903C201.514 145.097 201.893 145.258 202.408 145.386L203.703 145.705C204.483 145.894 205.065 146.184 205.447 146.574C205.83 146.96 206.021 147.458 206.021 148.068C206.021 148.568 205.877 149.015 205.589 149.409C205.305 149.803 204.908 150.114 204.396 150.341C203.885 150.568 203.29 150.682 202.612 150.682C201.722 150.682 200.985 150.489 200.402 150.102C199.819 149.716 199.449 149.152 199.294 148.409L200.567 148.091C200.688 148.561 200.917 148.913 201.254 149.148C201.595 149.383 202.04 149.5 202.589 149.5C203.214 149.5 203.711 149.367 204.078 149.102C204.449 148.833 204.635 148.511 204.635 148.136C204.635 147.833 204.529 147.58 204.317 147.375C204.105 147.167 203.779 147.011 203.339 146.909L201.885 146.568C201.086 146.379 200.499 146.085 200.124 145.688C199.752 145.286 199.567 144.784 199.567 144.182C199.567 143.689 199.705 143.254 199.982 142.875C200.262 142.496 200.643 142.199 201.124 141.983C201.608 141.767 202.158 141.659 202.771 141.659C203.635 141.659 204.313 141.848 204.805 142.227C205.302 142.606 205.654 143.106 205.862 143.727ZM211.835 141.773V142.909H207.312V141.773H211.835ZM208.631 139.682H209.972V148C209.972 148.379 210.027 148.663 210.136 148.852C210.25 149.038 210.394 149.163 210.568 149.227C210.746 149.288 210.934 149.318 211.131 149.318C211.278 149.318 211.4 149.311 211.494 149.295C211.589 149.277 211.665 149.261 211.722 149.25L211.994 150.455C211.903 150.489 211.777 150.523 211.614 150.557C211.451 150.595 211.244 150.614 210.994 150.614C210.616 150.614 210.244 150.532 209.881 150.369C209.521 150.206 209.222 149.958 208.983 149.625C208.748 149.292 208.631 148.871 208.631 148.364V139.682Z"
        fill="#4D5C6C" />
    <rect x="24.5" y="167" width="18" height="18" rx="1.5" stroke="#6048E5" />
    <path
        d="M54.4091 181V169.364H58.4773C59.2879 169.364 59.9564 169.504 60.483 169.784C61.0095 170.061 61.4015 170.434 61.6591 170.903C61.9167 171.369 62.0455 171.886 62.0455 172.455C62.0455 172.955 61.9564 173.367 61.7784 173.693C61.6042 174.019 61.3731 174.277 61.0852 174.466C60.8011 174.655 60.4924 174.795 60.1591 174.886V175C60.5152 175.023 60.8731 175.148 61.233 175.375C61.5928 175.602 61.8939 175.928 62.1364 176.352C62.3788 176.777 62.5 177.295 62.5 177.909C62.5 178.492 62.3674 179.017 62.1023 179.483C61.8371 179.949 61.4186 180.318 60.8466 180.591C60.2746 180.864 59.5303 181 58.6136 181H54.4091ZM55.8182 179.75H58.6136C59.5341 179.75 60.1875 179.572 60.5739 179.216C60.964 178.856 61.1591 178.42 61.1591 177.909C61.1591 177.515 61.0587 177.152 60.858 176.818C60.6572 176.481 60.3712 176.212 60 176.011C59.6288 175.807 59.1894 175.705 58.6818 175.705H55.8182V179.75ZM55.8182 174.477H58.4318C58.8561 174.477 59.2386 174.394 59.5795 174.227C59.9242 174.061 60.197 173.826 60.3977 173.523C60.6023 173.22 60.7045 172.864 60.7045 172.455C60.7045 171.943 60.5265 171.509 60.1705 171.153C59.8144 170.794 59.25 170.614 58.4773 170.614H55.8182V174.477ZM70.1335 177.432V172.273H71.4744V181H70.1335V179.523H70.0426C69.8381 179.966 69.5199 180.343 69.0881 180.653C68.6563 180.96 68.1108 181.114 67.4517 181.114C66.9062 181.114 66.4214 180.994 65.9972 180.756C65.5729 180.513 65.2396 180.15 64.9972 179.665C64.7547 179.176 64.6335 178.561 64.6335 177.818V172.273H65.9744V177.727C65.9744 178.364 66.1525 178.871 66.5085 179.25C66.8684 179.629 67.3267 179.818 67.8835 179.818C68.2169 179.818 68.5559 179.733 68.9006 179.562C69.2491 179.392 69.5407 179.131 69.7756 178.778C70.0142 178.426 70.1335 177.977 70.1335 177.432ZM74.794 184.273C74.5668 184.273 74.3641 184.254 74.1861 184.216C74.008 184.182 73.8849 184.148 73.8168 184.114L74.1577 182.932C74.4834 183.015 74.7713 183.045 75.0213 183.023C75.2713 183 75.4929 182.888 75.6861 182.688C75.883 182.491 76.063 182.17 76.2259 181.727L76.4759 181.045L73.2486 172.273H74.7031L77.1122 179.227H77.2031L79.6122 172.273H81.0668L77.3622 182.273C77.1955 182.723 76.9891 183.097 76.7429 183.392C76.4967 183.691 76.2107 183.913 75.8849 184.057C75.563 184.201 75.1993 184.273 74.794 184.273ZM89.9048 181.205C89.3518 181.205 88.8499 181.1 88.3991 180.892C87.9484 180.68 87.5904 180.375 87.3253 179.977C87.0601 179.576 86.9276 179.091 86.9276 178.523C86.9276 178.023 87.026 177.617 87.223 177.307C87.42 176.992 87.6832 176.746 88.0128 176.568C88.3423 176.39 88.706 176.258 89.1037 176.17C89.5052 176.08 89.9086 176.008 90.3139 175.955C90.8442 175.886 91.2741 175.835 91.6037 175.801C91.937 175.763 92.1795 175.701 92.331 175.614C92.4863 175.527 92.5639 175.375 92.5639 175.159V175.114C92.5639 174.553 92.4105 174.117 92.1037 173.807C91.8007 173.496 91.3404 173.341 90.723 173.341C90.0829 173.341 89.581 173.481 89.2173 173.761C88.8537 174.042 88.598 174.341 88.4503 174.659L87.1776 174.205C87.4048 173.674 87.7079 173.261 88.0866 172.966C88.4692 172.667 88.8859 172.458 89.3366 172.341C89.7912 172.22 90.2382 172.159 90.6776 172.159C90.9579 172.159 91.2798 172.193 91.6435 172.261C92.0109 172.326 92.3651 172.46 92.706 172.665C93.0507 172.869 93.3366 173.178 93.5639 173.591C93.7912 174.004 93.9048 174.557 93.9048 175.25V181H92.5639V179.818H92.4957C92.4048 180.008 92.2533 180.21 92.0412 180.426C91.8291 180.642 91.5469 180.826 91.1946 180.977C90.8423 181.129 90.4124 181.205 89.9048 181.205ZM90.1094 180C90.6397 180 91.0866 179.896 91.4503 179.688C91.8177 179.479 92.0942 179.21 92.2798 178.881C92.4692 178.551 92.5639 178.205 92.5639 177.841V176.614C92.5071 176.682 92.3821 176.744 92.1889 176.801C91.9995 176.854 91.7798 176.902 91.5298 176.943C91.2836 176.981 91.0431 177.015 90.8082 177.045C90.5772 177.072 90.3897 177.095 90.2457 177.114C89.8973 177.159 89.5715 177.233 89.2685 177.335C88.9692 177.434 88.7268 177.583 88.5412 177.784C88.3594 177.981 88.2685 178.25 88.2685 178.591C88.2685 179.057 88.4408 179.409 88.7855 179.648C89.134 179.883 89.5753 180 90.1094 180ZM100.852 184.273V172.273H102.148V173.659H102.307C102.405 173.508 102.542 173.314 102.716 173.08C102.894 172.841 103.148 172.629 103.477 172.443C103.811 172.254 104.261 172.159 104.83 172.159C105.564 172.159 106.212 172.343 106.773 172.71C107.333 173.078 107.771 173.598 108.085 174.273C108.4 174.947 108.557 175.742 108.557 176.659C108.557 177.583 108.4 178.384 108.085 179.062C107.771 179.737 107.335 180.259 106.778 180.631C106.222 180.998 105.58 181.182 104.852 181.182C104.292 181.182 103.843 181.089 103.506 180.903C103.169 180.714 102.909 180.5 102.727 180.261C102.545 180.019 102.405 179.818 102.307 179.659H102.193V184.273H100.852ZM102.17 176.636C102.17 177.295 102.267 177.877 102.46 178.381C102.653 178.881 102.936 179.273 103.307 179.557C103.678 179.837 104.133 179.977 104.67 179.977C105.231 179.977 105.699 179.83 106.074 179.534C106.453 179.235 106.737 178.833 106.926 178.33C107.119 177.822 107.216 177.258 107.216 176.636C107.216 176.023 107.121 175.47 106.932 174.977C106.746 174.481 106.464 174.089 106.085 173.801C105.71 173.509 105.239 173.364 104.67 173.364C104.125 173.364 103.667 173.502 103.295 173.778C102.924 174.051 102.644 174.434 102.455 174.926C102.265 175.415 102.17 175.985 102.17 176.636ZM110.602 181V172.273H111.943V181H110.602ZM111.284 170.818C111.023 170.818 110.797 170.729 110.608 170.551C110.422 170.373 110.33 170.159 110.33 169.909C110.33 169.659 110.422 169.445 110.608 169.267C110.797 169.089 111.023 169 111.284 169C111.545 169 111.769 169.089 111.955 169.267C112.144 169.445 112.239 169.659 112.239 169.909C112.239 170.159 112.144 170.373 111.955 170.551C111.769 170.729 111.545 170.818 111.284 170.818ZM115.74 175.75V181H114.399V172.273H115.695V173.636H115.808C116.013 173.193 116.323 172.837 116.74 172.568C117.157 172.295 117.695 172.159 118.354 172.159C118.945 172.159 119.462 172.28 119.905 172.523C120.348 172.761 120.693 173.125 120.939 173.614C121.185 174.098 121.308 174.712 121.308 175.455V181H119.967V175.545C119.967 174.86 119.789 174.326 119.433 173.943C119.077 173.557 118.589 173.364 117.967 173.364C117.539 173.364 117.157 173.456 116.82 173.642C116.486 173.828 116.223 174.098 116.03 174.455C115.837 174.811 115.74 175.242 115.74 175.75ZM127.418 181.182C126.577 181.182 125.851 180.996 125.241 180.625C124.635 180.25 124.168 179.727 123.838 179.057C123.512 178.383 123.349 177.598 123.349 176.705C123.349 175.811 123.512 175.023 123.838 174.341C124.168 173.655 124.626 173.121 125.213 172.739C125.804 172.352 126.493 172.159 127.281 172.159C127.736 172.159 128.185 172.235 128.628 172.386C129.071 172.538 129.474 172.784 129.838 173.125C130.202 173.462 130.491 173.909 130.707 174.466C130.923 175.023 131.031 175.708 131.031 176.523V177.091H124.304V175.932H129.668C129.668 175.439 129.569 175 129.372 174.614C129.179 174.227 128.902 173.922 128.543 173.699C128.187 173.475 127.766 173.364 127.281 173.364C126.747 173.364 126.285 173.496 125.895 173.761C125.509 174.023 125.211 174.364 125.003 174.784C124.795 175.205 124.69 175.655 124.69 176.136V176.909C124.69 177.568 124.804 178.127 125.031 178.585C125.262 179.04 125.582 179.386 125.991 179.625C126.401 179.86 126.876 179.977 127.418 179.977C127.77 179.977 128.088 179.928 128.372 179.83C128.66 179.727 128.908 179.576 129.116 179.375C129.325 179.17 129.486 178.917 129.599 178.614L130.895 178.977C130.759 179.417 130.529 179.803 130.207 180.136C129.885 180.466 129.488 180.723 129.014 180.909C128.541 181.091 128.009 181.182 127.418 181.182ZM135.639 181.205C135.086 181.205 134.584 181.1 134.134 180.892C133.683 180.68 133.325 180.375 133.06 179.977C132.795 179.576 132.662 179.091 132.662 178.523C132.662 178.023 132.76 177.617 132.957 177.307C133.154 176.992 133.418 176.746 133.747 176.568C134.077 176.39 134.44 176.258 134.838 176.17C135.24 176.08 135.643 176.008 136.048 175.955C136.579 175.886 137.009 175.835 137.338 175.801C137.671 175.763 137.914 175.701 138.065 175.614C138.221 175.527 138.298 175.375 138.298 175.159V175.114C138.298 174.553 138.145 174.117 137.838 173.807C137.535 173.496 137.075 173.341 136.457 173.341C135.817 173.341 135.315 173.481 134.952 173.761C134.588 174.042 134.332 174.341 134.185 174.659L132.912 174.205C133.139 173.674 133.442 173.261 133.821 172.966C134.204 172.667 134.62 172.458 135.071 172.341C135.526 172.22 135.973 172.159 136.412 172.159C136.692 172.159 137.014 172.193 137.378 172.261C137.745 172.326 138.099 172.46 138.44 172.665C138.785 172.869 139.071 173.178 139.298 173.591C139.526 174.004 139.639 174.557 139.639 175.25V181H138.298V179.818H138.23C138.139 180.008 137.988 180.21 137.776 180.426C137.563 180.642 137.281 180.826 136.929 180.977C136.577 181.129 136.147 181.205 135.639 181.205ZM135.844 180C136.374 180 136.821 179.896 137.185 179.688C137.552 179.479 137.829 179.21 138.014 178.881C138.204 178.551 138.298 178.205 138.298 177.841V176.614C138.241 176.682 138.116 176.744 137.923 176.801C137.734 176.854 137.514 176.902 137.264 176.943C137.018 176.981 136.777 177.015 136.543 177.045C136.312 177.072 136.124 177.095 135.98 177.114C135.632 177.159 135.306 177.233 135.003 177.335C134.704 177.434 134.461 177.583 134.276 177.784C134.094 177.981 134.003 178.25 134.003 178.591C134.003 179.057 134.175 179.409 134.52 179.648C134.868 179.883 135.31 180 135.844 180ZM142.087 184.273V172.273H143.382V173.659H143.541C143.64 173.508 143.776 173.314 143.95 173.08C144.128 172.841 144.382 172.629 144.712 172.443C145.045 172.254 145.496 172.159 146.064 172.159C146.799 172.159 147.446 172.343 148.007 172.71C148.568 173.078 149.005 173.598 149.32 174.273C149.634 174.947 149.791 175.742 149.791 176.659C149.791 177.583 149.634 178.384 149.32 179.062C149.005 179.737 148.57 180.259 148.013 180.631C147.456 180.998 146.814 181.182 146.087 181.182C145.526 181.182 145.077 181.089 144.74 180.903C144.403 180.714 144.143 180.5 143.962 180.261C143.78 180.019 143.64 179.818 143.541 179.659H143.428V184.273H142.087ZM143.405 176.636C143.405 177.295 143.501 177.877 143.695 178.381C143.888 178.881 144.17 179.273 144.541 179.557C144.912 179.837 145.367 179.977 145.905 179.977C146.465 179.977 146.933 179.83 147.308 179.534C147.687 179.235 147.971 178.833 148.161 178.33C148.354 177.822 148.45 177.258 148.45 176.636C148.45 176.023 148.356 175.47 148.166 174.977C147.981 174.481 147.698 174.089 147.32 173.801C146.945 173.509 146.473 173.364 145.905 173.364C145.359 173.364 144.901 173.502 144.53 173.778C144.159 174.051 143.878 174.434 143.689 174.926C143.5 175.415 143.405 175.985 143.405 176.636ZM151.837 184.273V172.273H153.132V173.659H153.291C153.39 173.508 153.526 173.314 153.7 173.08C153.878 172.841 154.132 172.629 154.462 172.443C154.795 172.254 155.246 172.159 155.814 172.159C156.549 172.159 157.196 172.343 157.757 172.71C158.318 173.078 158.755 173.598 159.07 174.273C159.384 174.947 159.541 175.742 159.541 176.659C159.541 177.583 159.384 178.384 159.07 179.062C158.755 179.737 158.32 180.259 157.763 180.631C157.206 180.998 156.564 181.182 155.837 181.182C155.276 181.182 154.827 181.089 154.49 180.903C154.153 180.714 153.893 180.5 153.712 180.261C153.53 180.019 153.39 179.818 153.291 179.659H153.178V184.273H151.837ZM153.155 176.636C153.155 177.295 153.251 177.877 153.445 178.381C153.638 178.881 153.92 179.273 154.291 179.557C154.662 179.837 155.117 179.977 155.655 179.977C156.215 179.977 156.683 179.83 157.058 179.534C157.437 179.235 157.721 178.833 157.911 178.33C158.104 177.822 158.2 177.258 158.2 176.636C158.2 176.023 158.106 175.47 157.916 174.977C157.731 174.481 157.448 174.089 157.07 173.801C156.695 173.509 156.223 173.364 155.655 173.364C155.109 173.364 154.651 173.502 154.28 173.778C153.909 174.051 153.628 174.434 153.439 174.926C153.25 175.415 153.155 175.985 153.155 176.636ZM162.928 169.364V181H161.587V169.364H162.928ZM169.043 181.182C168.202 181.182 167.476 180.996 166.866 180.625C166.26 180.25 165.793 179.727 165.463 179.057C165.137 178.383 164.974 177.598 164.974 176.705C164.974 175.811 165.137 175.023 165.463 174.341C165.793 173.655 166.251 173.121 166.838 172.739C167.429 172.352 168.118 172.159 168.906 172.159C169.361 172.159 169.81 172.235 170.253 172.386C170.696 172.538 171.099 172.784 171.463 173.125C171.827 173.462 172.116 173.909 172.332 174.466C172.548 175.023 172.656 175.708 172.656 176.523V177.091H165.929V175.932H171.293C171.293 175.439 171.194 175 170.997 174.614C170.804 174.227 170.527 173.922 170.168 173.699C169.812 173.475 169.391 173.364 168.906 173.364C168.372 173.364 167.91 173.496 167.52 173.761C167.134 174.023 166.836 174.364 166.628 174.784C166.42 175.205 166.315 175.655 166.315 176.136V176.909C166.315 177.568 166.429 178.127 166.656 178.585C166.887 179.04 167.207 179.386 167.616 179.625C168.026 179.86 168.501 179.977 169.043 179.977C169.395 179.977 169.713 179.928 169.997 179.83C170.285 179.727 170.533 179.576 170.741 179.375C170.95 179.17 171.111 178.917 171.224 178.614L172.52 178.977C172.384 179.417 172.154 179.803 171.832 180.136C171.51 180.466 171.113 180.723 170.639 180.909C170.166 181.091 169.634 181.182 169.043 181.182Z"
        fill="#4D5C6C" />
    <rect x="24" y="200" width="309" height="40" rx="4" fill="#F7FAFC" />
    <path
        d="M129 220C129 220.562 128.531 221.031 128 221.031H123.5V225.531C123.5 226.062 123.031 226.5 122.5 226.5C121.938 226.5 121.5 226.062 121.5 225.531V221.031H117C116.438 221.031 116 220.562 116 220C116 219.469 116.438 219.031 117 219.031H121.5V214.531C121.5 213.969 121.938 213.5 122.5 213.5C123.031 213.5 123.5 213.969 123.5 214.531V219.031H128C128.531 219 129 219.469 129 220Z"
        fill="#91A5BA" />
    <path
        d="M144.386 226H142.909L147.182 214.364H148.636L152.909 226H151.432L147.955 216.205H147.864L144.386 226ZM144.932 221.455H150.886V222.705H144.932V221.455ZM157.835 226.182C157.108 226.182 156.466 225.998 155.909 225.631C155.352 225.259 154.917 224.737 154.602 224.062C154.288 223.384 154.131 222.583 154.131 221.659C154.131 220.742 154.288 219.947 154.602 219.273C154.917 218.598 155.354 218.078 155.915 217.71C156.475 217.343 157.123 217.159 157.858 217.159C158.426 217.159 158.875 217.254 159.205 217.443C159.538 217.629 159.792 217.841 159.966 218.08C160.144 218.314 160.282 218.508 160.381 218.659H160.494V214.364H161.835V226H160.54V224.659H160.381C160.282 224.818 160.142 225.019 159.96 225.261C159.778 225.5 159.519 225.714 159.182 225.903C158.845 226.089 158.396 226.182 157.835 226.182ZM158.017 224.977C158.555 224.977 159.009 224.837 159.381 224.557C159.752 224.273 160.034 223.881 160.227 223.381C160.42 222.877 160.517 222.295 160.517 221.636C160.517 220.985 160.422 220.415 160.233 219.926C160.044 219.434 159.763 219.051 159.392 218.778C159.021 218.502 158.563 218.364 158.017 218.364C157.449 218.364 156.975 218.509 156.597 218.801C156.222 219.089 155.939 219.481 155.75 219.977C155.564 220.47 155.472 221.023 155.472 221.636C155.472 222.258 155.566 222.822 155.756 223.33C155.949 223.833 156.233 224.235 156.608 224.534C156.987 224.83 157.456 224.977 158.017 224.977ZM167.773 226.182C167.045 226.182 166.403 225.998 165.847 225.631C165.29 225.259 164.854 224.737 164.54 224.062C164.225 223.384 164.068 222.583 164.068 221.659C164.068 220.742 164.225 219.947 164.54 219.273C164.854 218.598 165.292 218.078 165.852 217.71C166.413 217.343 167.061 217.159 167.795 217.159C168.364 217.159 168.813 217.254 169.142 217.443C169.475 217.629 169.729 217.841 169.903 218.08C170.081 218.314 170.22 218.508 170.318 218.659H170.432V214.364H171.773V226H170.477V224.659H170.318C170.22 224.818 170.08 225.019 169.898 225.261C169.716 225.5 169.456 225.714 169.119 225.903C168.782 226.089 168.333 226.182 167.773 226.182ZM167.955 224.977C168.492 224.977 168.947 224.837 169.318 224.557C169.689 224.273 169.972 223.881 170.165 223.381C170.358 222.877 170.455 222.295 170.455 221.636C170.455 220.985 170.36 220.415 170.17 219.926C169.981 219.434 169.701 219.051 169.33 218.778C168.958 218.502 168.5 218.364 167.955 218.364C167.386 218.364 166.913 218.509 166.534 218.801C166.159 219.089 165.877 219.481 165.688 219.977C165.502 220.47 165.409 221.023 165.409 221.636C165.409 222.258 165.504 222.822 165.693 223.33C165.886 223.833 166.17 224.235 166.545 224.534C166.924 224.83 167.394 224.977 167.955 224.977ZM180.256 220.75V226H178.915V217.273H180.21V218.636H180.324C180.528 218.193 180.839 217.837 181.256 217.568C181.672 217.295 182.21 217.159 182.869 217.159C183.46 217.159 183.977 217.28 184.42 217.523C184.864 217.761 185.208 218.125 185.455 218.614C185.701 219.098 185.824 219.712 185.824 220.455V226H184.483V220.545C184.483 219.86 184.305 219.326 183.949 218.943C183.593 218.557 183.104 218.364 182.483 218.364C182.055 218.364 181.672 218.456 181.335 218.642C181.002 218.828 180.739 219.098 180.545 219.455C180.352 219.811 180.256 220.242 180.256 220.75ZM191.933 226.182C191.092 226.182 190.367 225.996 189.757 225.625C189.151 225.25 188.683 224.727 188.354 224.057C188.028 223.383 187.865 222.598 187.865 221.705C187.865 220.811 188.028 220.023 188.354 219.341C188.683 218.655 189.142 218.121 189.729 217.739C190.32 217.352 191.009 217.159 191.797 217.159C192.251 217.159 192.7 217.235 193.143 217.386C193.587 217.538 193.99 217.784 194.354 218.125C194.717 218.462 195.007 218.909 195.223 219.466C195.439 220.023 195.547 220.708 195.547 221.523V222.091H188.82V220.932H194.183C194.183 220.439 194.085 220 193.888 219.614C193.695 219.227 193.418 218.922 193.058 218.699C192.702 218.475 192.282 218.364 191.797 218.364C191.263 218.364 190.801 218.496 190.411 218.761C190.024 219.023 189.727 219.364 189.518 219.784C189.31 220.205 189.206 220.655 189.206 221.136V221.909C189.206 222.568 189.32 223.127 189.547 223.585C189.778 224.04 190.098 224.386 190.507 224.625C190.916 224.86 191.392 224.977 191.933 224.977C192.286 224.977 192.604 224.928 192.888 224.83C193.176 224.727 193.424 224.576 193.632 224.375C193.84 224.17 194.001 223.917 194.115 223.614L195.411 223.977C195.274 224.417 195.045 224.803 194.723 225.136C194.401 225.466 194.003 225.723 193.53 225.909C193.056 226.091 192.524 226.182 191.933 226.182ZM199.564 226L196.905 217.273H198.314L200.2 223.955H200.291L202.155 217.273H203.587L205.428 223.932H205.518L207.405 217.273H208.814L206.155 226H204.837L202.928 219.295H202.791L200.882 226H199.564ZM218.882 217.273V218.409H214.359V217.273H218.882ZM215.678 215.182H217.018V223.5C217.018 223.879 217.073 224.163 217.183 224.352C217.297 224.538 217.441 224.663 217.615 224.727C217.793 224.788 217.981 224.818 218.178 224.818C218.325 224.818 218.446 224.811 218.541 224.795C218.636 224.777 218.712 224.761 218.768 224.75L219.041 225.955C218.95 225.989 218.823 226.023 218.661 226.057C218.498 226.095 218.291 226.114 218.041 226.114C217.662 226.114 217.291 226.032 216.928 225.869C216.568 225.706 216.268 225.458 216.03 225.125C215.795 224.792 215.678 224.371 215.678 223.864V215.182ZM223.467 226.205C222.914 226.205 222.412 226.1 221.962 225.892C221.511 225.68 221.153 225.375 220.888 224.977C220.623 224.576 220.49 224.091 220.49 223.523C220.49 223.023 220.589 222.617 220.786 222.307C220.982 221.992 221.246 221.746 221.575 221.568C221.905 221.39 222.268 221.258 222.666 221.17C223.068 221.08 223.471 221.008 223.876 220.955C224.407 220.886 224.837 220.835 225.166 220.801C225.5 220.763 225.742 220.701 225.893 220.614C226.049 220.527 226.126 220.375 226.126 220.159V220.114C226.126 219.553 225.973 219.117 225.666 218.807C225.363 218.496 224.903 218.341 224.286 218.341C223.645 218.341 223.143 218.481 222.78 218.761C222.416 219.042 222.161 219.341 222.013 219.659L220.74 219.205C220.967 218.674 221.27 218.261 221.649 217.966C222.032 217.667 222.448 217.458 222.899 217.341C223.354 217.22 223.801 217.159 224.24 217.159C224.52 217.159 224.842 217.193 225.206 217.261C225.573 217.326 225.928 217.46 226.268 217.665C226.613 217.869 226.899 218.178 227.126 218.591C227.354 219.004 227.467 219.557 227.467 220.25V226H226.126V224.818H226.058C225.967 225.008 225.816 225.21 225.604 225.426C225.392 225.642 225.109 225.826 224.757 225.977C224.405 226.129 223.975 226.205 223.467 226.205ZM223.672 225C224.202 225 224.649 224.896 225.013 224.688C225.38 224.479 225.657 224.21 225.842 223.881C226.032 223.551 226.126 223.205 226.126 222.841V221.614C226.07 221.682 225.945 221.744 225.751 221.801C225.562 221.854 225.342 221.902 225.092 221.943C224.846 221.981 224.606 222.015 224.371 222.045C224.14 222.072 223.952 222.095 223.808 222.114C223.46 222.159 223.134 222.233 222.831 222.335C222.532 222.434 222.289 222.583 222.104 222.784C221.922 222.981 221.831 223.25 221.831 223.591C221.831 224.057 222.003 224.409 222.348 224.648C222.696 224.883 223.138 225 223.672 225ZM236.097 219.227L234.892 219.568C234.816 219.367 234.705 219.172 234.557 218.983C234.413 218.79 234.216 218.631 233.966 218.506C233.716 218.381 233.396 218.318 233.006 218.318C232.472 218.318 232.027 218.441 231.67 218.688C231.318 218.93 231.142 219.239 231.142 219.614C231.142 219.947 231.263 220.21 231.506 220.403C231.748 220.597 232.127 220.758 232.642 220.886L233.938 221.205C234.718 221.394 235.299 221.684 235.682 222.074C236.064 222.46 236.256 222.958 236.256 223.568C236.256 224.068 236.112 224.515 235.824 224.909C235.54 225.303 235.142 225.614 234.631 225.841C234.119 226.068 233.525 226.182 232.847 226.182C231.956 226.182 231.22 225.989 230.636 225.602C230.053 225.216 229.684 224.652 229.528 223.909L230.801 223.591C230.922 224.061 231.152 224.413 231.489 224.648C231.83 224.883 232.275 225 232.824 225C233.449 225 233.945 224.867 234.312 224.602C234.684 224.333 234.869 224.011 234.869 223.636C234.869 223.333 234.763 223.08 234.551 222.875C234.339 222.667 234.013 222.511 233.574 222.409L232.119 222.068C231.32 221.879 230.733 221.585 230.358 221.188C229.987 220.786 229.801 220.284 229.801 219.682C229.801 219.189 229.939 218.754 230.216 218.375C230.496 217.996 230.877 217.699 231.358 217.483C231.843 217.267 232.392 217.159 233.006 217.159C233.869 217.159 234.547 217.348 235.04 217.727C235.536 218.106 235.888 218.606 236.097 219.227ZM239.524 222.818L239.501 221.159H239.774L243.592 217.273H245.251L241.183 221.386H241.07L239.524 222.818ZM238.274 226V214.364H239.615V226H238.274ZM243.82 226L240.411 221.682L241.365 220.75L245.524 226H243.82Z"
        fill="#64778C" />
    <g filter="url(#filter0_d_3325_26185)">
        <mask id="path-18-outside-1_3325_26185" maskUnits="userSpaceOnUse" x="30" y="146" width="16" height="19"
            fill="black">
            <rect fill="white" x="30" y="146" width="16" height="19" />
            <path fill-rule="evenodd" clip-rule="evenodd"
                d="M34.8355 157L33.9489 155.645C33.3435 154.72 32.054 154.383 31.0677 154.89L31.2975 154.772C31.0527 154.898 30.9353 155.211 31.0361 155.472L32.2634 158.647C32.458 159.151 32.9549 159.863 33.3666 160.22C33.3666 160.22 35.8355 162.264 35.8355 163.03V164H39.8355L40.8355 162L41.8355 164H42.8355V163.03C42.8355 162.264 44.3444 159.851 44.3444 159.851C44.6221 159.382 44.8536 158.555 44.8536 158.007V153.972C44.8355 153.078 44.0762 152.355 43.1393 152.355C42.6705 152.355 42.2909 152.717 42.2909 153.163V153.487C42.2909 152.593 41.5315 151.869 40.5946 151.869C40.1258 151.869 39.7462 152.231 39.7462 152.678V153.001C39.7462 152.108 38.9868 151.384 38.0499 151.384C37.5812 151.384 37.2015 151.746 37.2015 152.193V152.516C37.2015 152.373 37.1862 152.258 37.1565 152.168L36.8977 148.001C36.8627 147.438 36.3878 147 35.8355 147C35.2794 147 34.8355 147.448 34.8355 148V152V157ZM41.8536 156L42.8536 156V160H41.8536V156ZM39.8536 156L40.8536 156V160H39.8536V156ZM37.8536 156L38.8536 156V160H37.8536V156Z" />
        </mask>
        <path fill-rule="evenodd" clip-rule="evenodd"
            d="M34.8355 157L33.9489 155.645C33.3435 154.72 32.054 154.383 31.0677 154.89L31.2975 154.772C31.0527 154.898 30.9353 155.211 31.0361 155.472L32.2634 158.647C32.458 159.151 32.9549 159.863 33.3666 160.22C33.3666 160.22 35.8355 162.264 35.8355 163.03V164H39.8355L40.8355 162L41.8355 164H42.8355V163.03C42.8355 162.264 44.3444 159.851 44.3444 159.851C44.6221 159.382 44.8536 158.555 44.8536 158.007V153.972C44.8355 153.078 44.0762 152.355 43.1393 152.355C42.6705 152.355 42.2909 152.717 42.2909 153.163V153.487C42.2909 152.593 41.5315 151.869 40.5946 151.869C40.1258 151.869 39.7462 152.231 39.7462 152.678V153.001C39.7462 152.108 38.9868 151.384 38.0499 151.384C37.5812 151.384 37.2015 151.746 37.2015 152.193V152.516C37.2015 152.373 37.1862 152.258 37.1565 152.168L36.8977 148.001C36.8627 147.438 36.3878 147 35.8355 147C35.2794 147 34.8355 147.448 34.8355 148V152V157ZM41.8536 156L42.8536 156V160H41.8536V156ZM39.8536 156L40.8536 156V160H39.8536V156ZM37.8536 156L38.8536 156V160H37.8536V156Z"
            fill="white" />
        <path
            d="M34.8355 157L33.9988 157.548L35.8355 160.354V157H34.8355ZM33.9489 155.645L34.7857 155.098L33.9489 155.645ZM31.0361 155.472L30.1034 155.833L31.0361 155.472ZM32.2634 158.647L33.1962 158.287L32.2634 158.647ZM33.3666 160.22L32.7109 160.975L32.7198 160.983L32.729 160.991L33.3666 160.22ZM35.8355 164H34.8355V165H35.8355V164ZM39.8355 164V165H40.4536L40.73 164.447L39.8355 164ZM40.8355 162L41.73 161.553L40.8355 159.764L39.9411 161.553L40.8355 162ZM41.8355 164L40.9411 164.447L41.2175 165H41.8355V164ZM42.8355 164V165H43.8355V164H42.8355ZM44.3444 159.851L45.1923 160.381L45.1987 160.371L45.2049 160.36L44.3444 159.851ZM44.8536 153.972H45.8536V153.962L45.8534 153.952L44.8536 153.972ZM37.1565 152.168L36.1584 152.23L36.1664 152.358L36.2063 152.479L37.1565 152.168ZM36.8977 148.001L35.8997 148.063V148.063L36.8977 148.001ZM34.8355 148H33.8355H34.8355ZM42.8536 156H43.8536V155H42.8536V156ZM42.8536 160V161H43.8536V160H42.8536ZM41.8536 160H40.8536V161H41.8536V160ZM40.8536 156H41.8536V155H40.8536V156ZM40.8536 160V161H41.8536V160H40.8536ZM39.8536 160H38.8536V161H39.8536V160ZM38.8536 156H39.8536V155H38.8536V156ZM38.8536 160V161H39.8536V160H38.8536ZM37.8536 160H36.8536V161H37.8536V160ZM35.6723 156.452L34.7857 155.098L33.1122 156.193L33.9988 157.548L35.6723 156.452ZM34.7857 155.098C33.8981 153.742 32.0489 153.261 30.6105 154.001L31.5249 155.779C32.0592 155.505 32.789 155.699 33.1122 156.193L34.7857 155.098ZM31.5249 155.779L31.7547 155.661L30.8403 153.882L30.6105 154.001L31.5249 155.779ZM30.8403 153.882C30.1311 154.247 29.8222 155.105 30.1034 155.833L31.9689 155.112C32.0145 155.23 32.0045 155.34 31.974 155.421C31.9436 155.503 31.8765 155.599 31.7547 155.661L30.8403 153.882ZM30.1034 155.833L31.3306 159.008L33.1962 158.287L31.9689 155.112L30.1034 155.833ZM31.3306 159.008C31.5834 159.662 32.1747 160.51 32.7109 160.975L34.0223 159.465C33.735 159.216 33.3326 158.64 33.1962 158.287L31.3306 159.008ZM33.3666 160.22C32.729 160.991 32.7289 160.991 32.7289 160.991C32.7289 160.991 32.7288 160.991 32.7288 160.991C32.7288 160.991 32.7288 160.991 32.7289 160.991C32.729 160.991 32.7293 160.991 32.7297 160.991C32.7305 160.992 32.7319 160.993 32.7338 160.995C32.7377 160.998 32.7438 161.003 32.752 161.01C32.7685 161.024 32.7932 161.045 32.8251 161.072C32.8889 161.126 32.9811 161.205 33.092 161.303C33.3149 161.499 33.6089 161.765 33.9001 162.051C34.1958 162.342 34.4677 162.632 34.6587 162.88C34.7547 163.004 34.813 163.095 34.8432 163.152C34.8837 163.23 34.8355 163.174 34.8355 163.03H36.8355C36.8355 162.694 36.7102 162.407 36.6158 162.226C36.5109 162.025 36.3763 161.831 36.2409 161.656C35.969 161.304 35.6236 160.941 35.3021 160.625C34.976 160.304 34.6528 160.012 34.4128 159.801C34.2922 159.695 34.1915 159.608 34.1203 159.548C34.0847 159.517 34.0564 159.494 34.0367 159.477C34.0268 159.469 34.019 159.462 34.0136 159.458C34.0109 159.455 34.0087 159.454 34.0071 159.452C34.0064 159.452 34.0057 159.451 34.0052 159.451C34.005 159.451 34.0048 159.45 34.0046 159.45C34.0045 159.45 34.0044 159.45 34.0044 159.45C34.0043 159.45 34.0042 159.45 33.3666 160.22ZM34.8355 163.03V164H36.8355V163.03H34.8355ZM35.8355 165H39.8355V163H35.8355V165ZM40.73 164.447L41.73 162.447L39.9411 161.553L38.9411 163.553L40.73 164.447ZM39.9411 162.447L40.9411 164.447L42.73 163.553L41.73 161.553L39.9411 162.447ZM41.8355 165H42.8355V163H41.8355V165ZM43.8355 164V163.03H41.8355V164H43.8355ZM43.8355 163.03C43.8355 163.066 43.8465 162.944 43.9921 162.6C44.1161 162.307 44.2882 161.965 44.47 161.628C44.6502 161.294 44.8315 160.981 44.9685 160.75C45.0367 160.635 45.0934 160.542 45.1327 160.477C45.1524 160.445 45.1677 160.421 45.1778 160.404C45.1829 160.396 45.1867 160.39 45.1892 160.386C45.1904 160.384 45.1913 160.382 45.1918 160.382C45.1921 160.381 45.1922 160.381 45.1923 160.381C45.1924 160.381 45.1924 160.381 45.1924 160.381C45.1924 160.381 45.1924 160.381 45.1923 160.381C45.1923 160.381 45.1923 160.381 44.3444 159.851C43.4965 159.321 43.4964 159.321 43.4964 159.321C43.4964 159.321 43.4963 159.321 43.4963 159.321C43.4962 159.321 43.4961 159.321 43.4959 159.321C43.4956 159.322 43.4953 159.322 43.4948 159.323C43.4939 159.325 43.4926 159.327 43.4909 159.329C43.4877 159.335 43.483 159.342 43.477 159.352C43.4651 159.371 43.448 159.399 43.4264 159.434C43.3832 159.505 43.322 159.606 43.2488 159.729C43.1029 159.975 42.907 160.313 42.7099 160.678C42.5145 161.04 42.3094 161.445 42.1505 161.82C42.0132 162.144 41.8355 162.611 41.8355 163.03H43.8355ZM45.2049 160.36C45.4027 160.026 45.5593 159.613 45.6668 159.226C45.7741 158.839 45.8536 158.401 45.8536 158.007H43.8536C43.8536 158.161 43.8175 158.41 43.7396 158.691C43.6618 158.971 43.5639 159.206 43.4839 159.341L45.2049 160.36ZM45.8536 158.007V153.972H43.8536V158.007H45.8536ZM45.8534 153.952C45.8237 152.482 44.5879 151.355 43.1393 151.355V153.355C43.5646 153.355 43.8474 153.675 43.8538 153.992L45.8534 153.952ZM43.1393 151.355C42.1637 151.355 41.2909 152.12 41.2909 153.163H43.2909C43.2909 153.232 43.2602 153.286 43.2293 153.315C43.1994 153.344 43.1653 153.355 43.1393 153.355V151.355ZM41.2909 153.163V153.487H43.2909V153.163H41.2909ZM43.2909 153.487C43.2909 151.997 42.0383 150.869 40.5946 150.869V152.869C41.0247 152.869 41.2909 153.19 41.2909 153.487H43.2909ZM40.5946 150.869C39.6191 150.869 38.7462 151.635 38.7462 152.678H40.7462C40.7462 152.746 40.7155 152.801 40.6847 152.83C40.6547 152.859 40.6206 152.869 40.5946 152.869V150.869ZM38.7462 152.678V153.001H40.7462V152.678H38.7462ZM40.7462 153.001C40.7462 151.511 39.4936 150.384 38.0499 150.384V152.384C38.4801 152.384 38.7462 152.705 38.7462 153.001H40.7462ZM38.0499 150.384C37.0744 150.384 36.2015 151.149 36.2015 152.193H38.2015C38.2015 152.261 38.1708 152.315 38.14 152.345C38.11 152.373 38.0759 152.384 38.0499 152.384V150.384ZM36.2015 152.193V152.516H38.2015V152.193H36.2015ZM38.2015 152.516C38.2015 152.309 38.1803 152.081 38.1068 151.857L36.2063 152.479C36.1984 152.456 36.1976 152.444 36.1985 152.452C36.1995 152.459 36.2015 152.479 36.2015 152.516H38.2015ZM38.1546 152.106L37.8958 147.939L35.8997 148.063L36.1584 152.23L38.1546 152.106ZM37.8958 147.939C37.8279 146.845 36.9125 146 35.8355 146V148C35.8444 148 35.8602 148.003 35.8772 148.019C35.8933 148.034 35.8988 148.05 35.8997 148.063L37.8958 147.939ZM35.8355 146C34.7248 146 33.8355 146.898 33.8355 148H35.8355V148V146ZM33.8355 148V152H35.8355V148H33.8355ZM33.8355 152V157H35.8355V152H33.8355ZM41.8536 157H42.8536V155H41.8536V157ZM41.8536 156V160H43.8536V156H41.8536ZM42.8536 159H41.8536V161H42.8536V159ZM42.8536 160V156H40.8536V160H42.8536ZM39.8536 157H40.8536V155H39.8536V157ZM39.8536 156V160H41.8536V156H39.8536ZM40.8536 159H39.8536V161H40.8536V159ZM40.8536 160V156H38.8536V160H40.8536ZM37.8536 157H38.8536V155H37.8536V157ZM37.8536 156V160H39.8536V156H37.8536ZM38.8536 159H37.8536V161H38.8536V159ZM38.8536 160V156H36.8536V160H38.8536Z"
            fill="black" fill-opacity="0.8" mask="url(#path-18-outside-1_3325_26185)" />
    </g>
    <rect x="0.5" y="0.5" width="356" height="263" rx="5.5" stroke="#EBF2F7" />
    <defs>
        <filter id="filter0_d_3325_26185" x="27" y="144" width="21.8535" height="25" filterUnits="userSpaceOnUse"
            color-interpolation-filters="sRGB">
            <feFlood flood-opacity="0" result="BackgroundImageFix" />
            <feColorMatrix in="SourceAlpha" type="matrix" values="0 0 0 0 0 0 0 0 0 0 0 0 0 0 0 0 0 0 127 0"
                result="hardAlpha" />
            <feOffset dy="1" />
            <feGaussianBlur stdDeviation="1.5" />
            <feColorMatrix type="matrix" values="0 0 0 0 0 0 0 0 0 0 0 0 0 0 0 0 0 0 0.2 0" />
            <feBlend mode="normal" in2="BackgroundImageFix" result="effect1_dropShadow_3325_26185" />
            <feBlend mode="normal" in="SourceGraphic" in2="effect1_dropShadow_3325_26185" result="shape" />
        </filter>
    </defs>
</svg>