<svg width="460" height="38" viewBox="0 0 460 38" fill="none" xmlns="http://www.w3.org/2000/svg">
<path d="M0 6C0 2.68629 2.68629 0 6 0H454C457.314 0 460 2.68629 460 6V36H0V6Z" fill="#313C47"/>
<g filter="url(#filter0_d_3415_24144)">
<path d="M79 8C79 5.79086 80.7909 4 83 4H185C187.209 4 189 5.79086 189 8V36H79V8Z" fill="#3A4550" shape-rendering="crispEdges"/>
<path d="M100.039 22.9065C96.2671 22.9065 93.314 21.62 93.314 19.9826C93.314 18.3452 96.2671 17.0587 100.039 17.0587C103.811 17.0587 106.764 18.3452 106.764 19.9826C106.764 21.62 103.811 22.9065 100.039 22.9065ZM100.039 17.6435C96.3548 17.6435 93.8987 18.8423 93.8987 19.9826C93.8987 21.1229 96.3548 22.3217 100.039 22.3217C103.723 22.3217 106.179 21.1229 106.179 19.9826C106.179 18.8423 103.723 17.6435 100.039 17.6435Z" fill="#7CD0FF"/>
<path d="M97.4366 26.0058C97.1442 26.0058 96.9103 25.9473 96.6763 25.8011C95.2436 24.9824 95.6237 21.7954 97.495 18.5207C98.3722 17.0003 99.454 15.7138 100.507 14.8951C101.647 14.0179 102.67 13.7548 103.372 14.1641C104.103 14.5734 104.366 15.5968 104.191 17.0295C104.015 18.3745 103.43 19.9534 102.553 21.4738C101.676 22.9942 100.594 24.2807 99.5417 25.0994C98.7815 25.6842 98.0506 26.0058 97.4366 26.0058ZM102.641 14.5442C102.173 14.5442 101.559 14.8073 100.887 15.3336C99.8926 16.1231 98.8692 17.3511 98.0213 18.8131C96.1793 22.0001 96.0039 24.7485 96.9687 25.3041C97.4658 25.5965 98.2845 25.3333 99.1909 24.6316C100.185 23.8421 101.208 22.6141 102.056 21.1522C102.904 19.6902 103.46 18.199 103.635 16.9418C103.781 15.7722 103.606 14.9535 103.109 14.6612C102.963 14.6027 102.816 14.5442 102.641 14.5442Z" fill="#7CD0FF"/>
<path d="M102.67 26.0058C101.208 26.0058 99.1031 24.2222 97.5242 21.4445C95.6237 18.1698 95.2436 14.9828 96.6763 14.1641C98.109 13.3454 100.682 15.2459 102.583 18.5207C103.46 20.0411 104.044 21.62 104.22 22.965C104.425 24.3977 104.132 25.3918 103.401 25.8304C103.167 25.9473 102.933 26.0058 102.67 26.0058ZM96.9687 14.6612C96.0038 15.2167 96.1792 17.9651 98.0213 21.1522C99.8633 24.3392 102.144 25.8596 103.109 25.3041C103.606 25.0117 103.781 24.193 103.635 23.0234C103.46 21.7662 102.904 20.275 102.056 18.8131C100.214 15.626 97.9336 14.1056 96.9687 14.6612Z" fill="#7CD0FF"/>
<path d="M100.039 21.1522C100.685 21.1522 101.208 20.6285 101.208 19.9826C101.208 19.3367 100.685 18.8131 100.039 18.8131C99.3928 18.8131 98.8691 19.3367 98.8691 19.9826C98.8691 20.6285 99.3928 21.1522 100.039 21.1522Z" fill="#7CD0FF"/>
<path d="M116.074 25.5V17.8636H117.247V25.5H116.074ZM116.67 16.5909C116.442 16.5909 116.245 16.513 116.079 16.3572C115.916 16.2015 115.835 16.0142 115.835 15.7955C115.835 15.5767 115.916 15.3894 116.079 15.2337C116.245 15.0779 116.442 15 116.67 15C116.899 15 117.095 15.0779 117.257 15.2337C117.423 15.3894 117.506 15.5767 117.506 15.7955C117.506 16.0142 117.423 16.2015 117.257 16.3572C117.095 16.513 116.899 16.5909 116.67 16.5909ZM120.569 20.9062V25.5H119.396V17.8636H120.53V19.0568H120.629C120.808 18.669 121.08 18.3575 121.444 18.1222C121.809 17.8835 122.28 17.7642 122.856 17.7642C123.373 17.7642 123.826 17.8703 124.214 18.0824C124.601 18.2912 124.903 18.6094 125.118 19.0369C125.334 19.4612 125.442 19.9981 125.442 20.6477V25.5H124.268V20.7273C124.268 20.1274 124.113 19.66 123.801 19.3253C123.489 18.9872 123.062 18.8182 122.518 18.8182C122.144 18.8182 121.809 18.8994 121.514 19.0618C121.222 19.2242 120.992 19.4612 120.823 19.7727C120.654 20.0843 120.569 20.4621 120.569 20.9062ZM130.469 25.6591C129.833 25.6591 129.271 25.4983 128.784 25.1768C128.297 24.852 127.915 24.3946 127.64 23.8047C127.365 23.2114 127.228 22.5104 127.228 21.7017C127.228 20.8996 127.365 20.2036 127.64 19.6136C127.915 19.0237 128.298 18.5679 128.789 18.2464C129.279 17.925 129.846 17.7642 130.489 17.7642C130.986 17.7642 131.379 17.8471 131.667 18.0128C131.959 18.1752 132.181 18.3608 132.333 18.5696C132.489 18.7751 132.61 18.9441 132.696 19.0767H132.796V15.3182H133.969V25.5H132.836V24.3267H132.696C132.61 24.4659 132.488 24.6416 132.328 24.8537C132.169 25.0625 131.942 25.2498 131.647 25.4155C131.352 25.5779 130.96 25.6591 130.469 25.6591ZM130.628 24.6051C131.099 24.6051 131.497 24.4825 131.821 24.2372C132.146 23.9886 132.393 23.6456 132.562 23.2081C132.731 22.7673 132.816 22.2585 132.816 21.6818C132.816 21.1117 132.733 20.6129 132.567 20.1854C132.401 19.7545 132.156 19.4197 131.831 19.1811C131.507 18.9392 131.105 18.8182 130.628 18.8182C130.131 18.8182 129.717 18.9458 129.385 19.201C129.057 19.4529 128.81 19.7959 128.645 20.2301C128.482 20.661 128.401 21.1449 128.401 21.6818C128.401 22.2254 128.484 22.7192 128.65 23.1634C128.819 23.6042 129.067 23.9555 129.395 24.2173C129.727 24.4759 130.138 24.6051 130.628 24.6051ZM139.483 25.6591C138.747 25.6591 138.112 25.4967 137.578 25.1719C137.048 24.8438 136.639 24.3864 136.35 23.7997C136.065 23.2098 135.923 22.5237 135.923 21.7415C135.923 20.9593 136.065 20.2699 136.35 19.6733C136.639 19.0734 137.04 18.6061 137.554 18.2713C138.071 17.9332 138.674 17.7642 139.363 17.7642C139.761 17.7642 140.154 17.8305 140.542 17.9631C140.929 18.0956 141.282 18.3111 141.6 18.6094C141.919 18.9044 142.172 19.2955 142.361 19.7827C142.55 20.2699 142.645 20.8698 142.645 21.5824V22.0795H136.758V21.0653H141.451C141.451 20.6345 141.365 20.25 141.193 19.9119C141.024 19.5739 140.782 19.3071 140.467 19.1115C140.155 18.916 139.788 18.8182 139.363 18.8182C138.896 18.8182 138.492 18.9342 138.15 19.1662C137.812 19.3949 137.552 19.6932 137.37 20.0611C137.187 20.429 137.096 20.8234 137.096 21.2443V21.9205C137.096 22.4972 137.196 22.986 137.395 23.3871C137.597 23.7848 137.877 24.0881 138.235 24.2969C138.593 24.5024 139.009 24.6051 139.483 24.6051C139.791 24.6051 140.069 24.562 140.318 24.4759C140.57 24.3864 140.787 24.2538 140.969 24.0781C141.151 23.8991 141.292 23.6771 141.392 23.4119L142.525 23.7301C142.406 24.1146 142.205 24.4527 141.924 24.7443C141.642 25.0327 141.294 25.258 140.88 25.4205C140.465 25.5795 140 25.6591 139.483 25.6591ZM145.099 17.8636L146.929 20.9858L148.758 17.8636H150.111L147.645 21.6818L150.111 25.5H148.758L146.929 22.5369L145.099 25.5H143.747L146.173 21.6818L143.747 17.8636H145.099ZM152.64 25.5795C152.395 25.5795 152.184 25.4917 152.009 25.3161C151.833 25.1404 151.745 24.9299 151.745 24.6847C151.745 24.4394 151.833 24.2289 152.009 24.0533C152.184 23.8776 152.395 23.7898 152.64 23.7898C152.885 23.7898 153.096 23.8776 153.271 24.0533C153.447 24.2289 153.535 24.4394 153.535 24.6847C153.535 24.8471 153.493 24.9962 153.411 25.1321C153.331 25.268 153.223 25.3774 153.087 25.4602C152.955 25.5398 152.806 25.5795 152.64 25.5795ZM158.961 17.8636V18.858H155.004V17.8636H158.961ZM156.157 16.0341H157.331V23.3125C157.331 23.6439 157.379 23.8925 157.475 24.0582C157.574 24.2206 157.7 24.33 157.853 24.3864C158.008 24.4394 158.172 24.4659 158.345 24.4659C158.474 24.4659 158.58 24.4593 158.663 24.446C158.746 24.4295 158.812 24.4162 158.862 24.4062L159.1 25.4602C159.021 25.4901 158.91 25.5199 158.767 25.5497C158.625 25.5829 158.444 25.5994 158.225 25.5994C157.894 25.5994 157.569 25.5282 157.251 25.3857C156.936 25.2431 156.674 25.026 156.466 24.7344C156.26 24.4427 156.157 24.0748 156.157 23.6307V16.0341ZM165.999 19.5739L164.945 19.8722C164.878 19.6965 164.781 19.5258 164.651 19.3601C164.525 19.1911 164.353 19.0518 164.134 18.9425C163.915 18.8331 163.635 18.7784 163.294 18.7784C162.827 18.7784 162.437 18.8861 162.126 19.1016C161.817 19.3137 161.663 19.5838 161.663 19.9119C161.663 20.2036 161.769 20.4339 161.982 20.603C162.194 20.772 162.525 20.9129 162.976 21.0256L164.109 21.304C164.792 21.4697 165.301 21.7232 165.636 22.0646C165.97 22.4027 166.138 22.8385 166.138 23.3722C166.138 23.8097 166.012 24.2008 165.76 24.5455C165.511 24.8902 165.163 25.1619 164.716 25.3608C164.268 25.5597 163.748 25.6591 163.155 25.6591C162.376 25.6591 161.731 25.4901 161.221 25.152C160.71 24.8139 160.387 24.3201 160.251 23.6705L161.365 23.392C161.471 23.803 161.672 24.1113 161.967 24.3168C162.265 24.5223 162.654 24.625 163.135 24.625C163.682 24.625 164.116 24.509 164.438 24.277C164.762 24.0417 164.925 23.7599 164.925 23.4318C164.925 23.1667 164.832 22.9446 164.646 22.7656C164.461 22.5833 164.176 22.4474 163.791 22.358L162.518 22.0597C161.819 21.8939 161.305 21.6371 160.977 21.2891C160.652 20.9377 160.49 20.4986 160.49 19.9716C160.49 19.5407 160.611 19.1596 160.853 18.8281C161.098 18.4967 161.431 18.2365 161.852 18.0476C162.277 17.8587 162.757 17.7642 163.294 17.7642C164.05 17.7642 164.643 17.9299 165.074 18.2614C165.508 18.5928 165.816 19.0303 165.999 19.5739ZM168.779 17.8636L170.608 20.9858L172.438 17.8636H173.79L171.324 21.6818L173.79 25.5H172.438L170.608 22.5369L168.779 25.5H167.427L169.853 21.6818L167.427 17.8636H168.779Z" fill="#7ACAFA"/>
</g>
<circle cx="22" cy="18" r="5.5" fill="#4D5B69" stroke="#4D5B69"/>
<circle cx="40" cy="18" r="5.5" fill="#4D5B69" stroke="#4D5B69"/>
<circle cx="58" cy="18" r="5.5" fill="#4D5B69" stroke="#4D5B69"/>
<line y1="35.5" x2="79" y2="35.5" stroke="#27313B"/>
<line x1="189" y1="35.5" x2="460" y2="35.5" stroke="#27313B"/>
<defs>
<filter id="filter0_d_3415_24144" x="75" y="-2" width="118" height="40" filterUnits="userSpaceOnUse" color-interpolation-filters="sRGB">
<feFlood flood-opacity="0" result="BackgroundImageFix"/>
<feColorMatrix in="SourceAlpha" type="matrix" values="0 0 0 0 0 0 0 0 0 0 0 0 0 0 0 0 0 0 127 0" result="hardAlpha"/>
<feOffset dy="-2"/>
<feGaussianBlur stdDeviation="2"/>
<feComposite in2="hardAlpha" operator="out"/>
<feColorMatrix type="matrix" values="0 0 0 0 0 0 0 0 0 0 0 0 0 0 0 0 0 0 0.1 0"/>
<feBlend mode="normal" in2="BackgroundImageFix" result="effect1_dropShadow_3415_24144"/>
<feBlend mode="normal" in="SourceGraphic" in2="effect1_dropShadow_3415_24144" result="shape"/>
</filter>
</defs>
</svg>
