<svg width="136" height="206" viewBox="0 0 136 206" fill="none" xmlns="http://www.w3.org/2000/svg">
<path d="M67.875 0C89.9583 0 106.792 9.29167 118.375 27.875C129.958 46.375 135.75 71.3333 135.75 102.75C135.75 134.25 129.958 159.292 118.375 177.875C106.792 196.375 89.9583 205.625 67.875 205.625C45.875 205.625 29.0417 196.375 17.375 177.875C5.79167 159.292 0 134.25 0 102.75C0 71.3333 5.79167 46.375 17.375 27.875C29.0417 9.29167 45.875 0 67.875 0ZM30 144.25L97.125 39.125C92.875 31.375 88.25 26.1667 83.25 23.5C78.3333 20.75 73.2083 19.375 67.875 19.375C53.9583 19.375 43.375 27.125 36.125 42.625C28.875 58.0417 25.25 77.625 25.25 101.375C25.25 106.792 25.4167 112.625 25.75 118.875C26.0833 125.125 27.5 133.583 30 144.25ZM105.5 62.25L38.875 168C42.4583 174.083 46.5833 178.667 51.25 181.75C55.9167 184.75 61.125 186.25 66.875 186.25C82.7083 186.25 93.9583 177.417 100.625 159.75C107.292 142 110.625 122.333 110.625 100.75C110.625 87.4167 108.917 74.5833 105.5 62.25Z" fill="url(#paint0_linear_4628_31836)"/>
<defs>
<linearGradient id="paint0_linear_4628_31836" x1="67.875" y1="0" x2="67.875" y2="205.625" gradientUnits="userSpaceOnUse">
<stop stop-color="#DDE7F0"/>
<stop offset="1" stop-color="#DDE7F0" stop-opacity="0"/>
</linearGradient>
</defs>
</svg>
