<svg width="160" height="81" viewBox="0 0 160 81" fill="none" xmlns="http://www.w3.org/2000/svg">
<path d="M123.5 0.25C114 0.25 104.75 4 98 10.75L80 28.75L61.75 10.75C55 4 45.75 0 36.25 0C16.25 0.25 0 16.5 0 36.5V43.75C0 63.75 16.25 80 36.25 80C45.75 80 55 76.25 61.75 69.5L80 51.5L98 69.5C104.75 76.25 114 80.25 123.5 80.25C143.5 80 160 63.75 160 43.75V36.5C160 16.5 143.5 0.25 123.5 0.25ZM50.5 58.25C46.75 62 41.5 64.25 36.25 64.25C25 64 16 55 16 43.75V36.5C16 25.25 25 16.25 36.25 16.25C41.5 16.25 46.75 18.25 50.5 22L68.5 40.25L50.5 58.25ZM144 43.75C144 55 134.75 64.25 123.5 64.25C118.25 64.25 113 62 109.25 58.25L91.25 40.25L109.25 22C113 18.25 118.25 16.25 123.5 16.25C134.75 16 144 25.25 144 36.5V43.75Z" fill="url(#paint0_linear_4628_31882)"/>
<defs>
<linearGradient id="paint0_linear_4628_31882" x1="160.295" y1="40.1751" x2="12.8302" y2="39.9837" gradientUnits="userSpaceOnUse">
<stop stop-color="#E4DDF0"/>
<stop offset="1" stop-color="#EEDDF0" stop-opacity="0"/>
</linearGradient>
</defs>
</svg>
