<svg width="128" height="128" viewBox="0 0 128 128" fill="none" xmlns="http://www.w3.org/2000/svg">
<path d="M128 64C128 99.5 99.25 128 64 128C28.5 128 0 99.5 0 64C0 28.75 28.5 0 64 0C99.25 0 128 28.75 128 64ZM14.25 48.25L16.75 52.5C18.75 56 22 58.75 26.25 60L40.5 64C45 65.25 48 69.25 48 73.75V83.75C48 86.5 49.5 89 52 90C54.25 91.25 56 93.75 56 96.5V106.25C56 110.25 59.5 113 63.25 112C67.5 110.75 70.5 107.5 71.5 103.5L72.25 100.75C73.25 96.5 76 93 79.75 90.75L81.75 89.5C85.5 87.5 88 83.5 88 79.25V77C88 74 86.5 70.75 84.25 68.5L83.5 67.75C81.25 65.5 78 64 75 64H64C61.25 64 58.5 63.5 56.25 62L47.5 57C46.5 56.5 45.75 55.5 45.25 54.25C44.5 52 45.5 49.25 47.75 48.25L49.25 47.5C51 46.5 52.75 46.5 54.5 47L60.5 49C62.5 49.75 64.75 48.75 66 47C67 45.25 67 43 65.5 41.25L62.25 37.25C59.75 34.25 59.75 30 62.25 27L66.25 22.5C68.5 19.75 68.75 16.25 67 13.25L66.5 12.25C65.5 12.25 64.75 12 64 12C40.75 12 21 27.25 14.25 48.25ZM109.25 38.75L103 41.25C99 43 97 47.25 98.25 51.25L102.5 64C103.25 66.5 105.5 68.5 108.25 69.25L115.5 71C115.75 68.75 116 66.5 116 64C116 55 113.5 46.25 109.25 38.75Z" fill="url(#paint0_linear_4628_31899)"/>
<defs>
<linearGradient id="paint0_linear_4628_31899" x1="128.236" y1="64.1751" x2="10.2641" y2="64.0526" gradientUnits="userSpaceOnUse">
<stop stop-color="#E4DDF0"/>
<stop offset="1" stop-color="#EEDDF0" stop-opacity="0"/>
</linearGradient>
</defs>
</svg>
