<svg width="489" height="292" viewBox="0 0 489 292" fill="none" xmlns="http://www.w3.org/2000/svg">
<g filter="url(#filter0_ddd_4628_31760)">
<rect x="12" y="8" width="367.194" height="267.242" rx="4.20853" fill="white"/>
<rect x="37.2512" y="33.2512" width="316.692" height="216.924" rx="4.20853" fill="white"/>
<path d="M214.436 61.4693H176.559C173.107 61.4693 170.246 64.3297 170.246 67.7821V99.346C170.246 102.897 173.107 105.659 176.559 105.659H214.436C217.888 105.659 220.749 102.897 220.749 99.346V67.7821C220.749 64.3297 217.987 61.4693 214.436 61.4693ZM181.294 67.7821C183.858 67.7821 186.028 69.9521 186.028 72.5167C186.028 75.1799 183.957 77.2513 181.294 77.2513C178.532 77.2513 176.559 75.1799 176.559 72.5167C176.559 69.9521 178.729 67.7821 181.294 67.7821ZM214.337 98.5569C214.041 99.0501 213.45 99.346 212.956 99.346H178.433C177.743 99.346 177.25 99.0501 176.954 98.5569C176.756 97.9651 176.756 97.3733 177.151 96.8801L184.056 87.4109C184.351 87.0164 184.746 86.7204 185.338 86.7204C185.831 86.7204 186.226 87.0164 186.522 87.4109L189.777 91.8496L198.95 78.0404C199.246 77.5472 199.739 77.2513 200.331 77.2513C200.824 77.2513 201.317 77.5472 201.613 78.0404L214.239 96.9787C214.535 97.3733 214.535 98.0638 214.337 98.5569Z" fill="#DDE7F0"/>
<path d="M97.3025 130.126H99.2431V137.125C99.2431 137.892 99.0617 138.567 98.6991 139.149C98.3399 139.732 97.8343 140.187 97.1822 140.515C96.5301 140.839 95.7681 141.001 94.8963 141.001C94.021 141.001 93.2573 140.839 92.6052 140.515C91.9531 140.187 91.4475 139.732 91.0883 139.149C90.7291 138.567 90.5495 137.892 90.5495 137.125V130.126H92.4902V136.963C92.4902 137.409 92.5878 137.807 92.7831 138.155C92.9818 138.504 93.2608 138.778 93.62 138.977C93.9792 139.172 94.4046 139.27 94.8963 139.27C95.388 139.27 95.8134 139.172 96.1726 138.977C96.5353 138.778 96.8143 138.504 97.0095 138.155C97.2048 137.807 97.3025 137.409 97.3025 136.963V130.126ZM101.269 143.852V132.804H103.131V134.133H103.241C103.338 133.938 103.476 133.73 103.654 133.511C103.832 133.287 104.072 133.097 104.376 132.94C104.679 132.78 105.066 132.7 105.537 132.7C106.158 132.7 106.717 132.858 107.216 133.176C107.718 133.49 108.116 133.955 108.409 134.572C108.705 135.186 108.853 135.939 108.853 136.832C108.853 137.714 108.709 138.464 108.419 139.081C108.13 139.699 107.736 140.169 107.237 140.494C106.738 140.818 106.173 140.98 105.542 140.98C105.082 140.98 104.7 140.903 104.397 140.75C104.093 140.597 103.849 140.412 103.664 140.195C103.483 139.976 103.342 139.768 103.241 139.573H103.162V143.852H101.269ZM103.126 136.822C103.126 137.341 103.199 137.796 103.345 138.187C103.495 138.577 103.71 138.883 103.989 139.102C104.271 139.318 104.613 139.427 105.014 139.427C105.432 139.427 105.783 139.315 106.065 139.092C106.348 138.865 106.56 138.557 106.703 138.166C106.85 137.772 106.923 137.324 106.923 136.822C106.923 136.323 106.852 135.88 106.709 135.493C106.566 135.106 106.353 134.803 106.071 134.583C105.788 134.363 105.436 134.253 105.014 134.253C104.609 134.253 104.266 134.36 103.983 134.572C103.701 134.785 103.487 135.083 103.34 135.467C103.197 135.85 103.126 136.302 103.126 136.822ZM112.368 130.126V140.839H110.475V130.126H112.368ZM117.82 140.996C117.036 140.996 116.356 140.823 115.78 140.478C115.205 140.133 114.758 139.65 114.441 139.029C114.127 138.408 113.97 137.683 113.97 136.853C113.97 136.023 114.127 135.296 114.441 134.672C114.758 134.048 115.205 133.563 115.78 133.218C116.356 132.872 117.036 132.7 117.82 132.7C118.605 132.7 119.285 132.872 119.86 133.218C120.436 133.563 120.88 134.048 121.194 134.672C121.511 135.296 121.67 136.023 121.67 136.853C121.67 137.683 121.511 138.408 121.194 139.029C120.88 139.65 120.436 140.133 119.86 140.478C119.285 140.823 118.605 140.996 117.82 140.996ZM117.831 139.479C118.256 139.479 118.612 139.362 118.898 139.128C119.184 138.891 119.396 138.574 119.536 138.176C119.679 137.779 119.75 137.336 119.75 136.848C119.75 136.356 119.679 135.911 119.536 135.514C119.396 135.113 119.184 134.794 118.898 134.557C118.612 134.32 118.256 134.201 117.831 134.201C117.395 134.201 117.032 134.32 116.743 134.557C116.457 134.794 116.242 135.113 116.099 135.514C115.96 135.911 115.89 136.356 115.89 136.848C115.89 137.336 115.96 137.779 116.099 138.176C116.242 138.574 116.457 138.891 116.743 139.128C117.032 139.362 117.395 139.479 117.831 139.479ZM125.589 141.001C125.08 141.001 124.621 140.91 124.213 140.729C123.809 140.544 123.488 140.272 123.251 139.913C123.017 139.554 122.901 139.111 122.901 138.584C122.901 138.131 122.984 137.756 123.152 137.46C123.319 137.163 123.547 136.926 123.837 136.748C124.126 136.571 124.452 136.436 124.815 136.346C125.181 136.251 125.56 136.183 125.95 136.142C126.421 136.093 126.803 136.049 127.096 136.011C127.389 135.969 127.601 135.906 127.734 135.823C127.87 135.735 127.938 135.601 127.938 135.42V135.388C127.938 134.994 127.821 134.689 127.587 134.473C127.354 134.257 127.017 134.149 126.578 134.149C126.114 134.149 125.746 134.25 125.474 134.452C125.206 134.654 125.024 134.893 124.93 135.169L123.162 134.918C123.302 134.429 123.532 134.021 123.853 133.694C124.173 133.362 124.566 133.115 125.029 132.951C125.493 132.783 126.006 132.7 126.567 132.7C126.954 132.7 127.34 132.745 127.723 132.836C128.107 132.926 128.457 133.076 128.775 133.286C129.092 133.491 129.347 133.772 129.538 134.128C129.734 134.483 129.831 134.928 129.831 135.462V140.839H128.011V139.735H127.948C127.833 139.958 127.671 140.168 127.462 140.363C127.256 140.555 126.996 140.71 126.682 140.828C126.372 140.943 126.008 141.001 125.589 141.001ZM126.081 139.61C126.461 139.61 126.791 139.535 127.069 139.385C127.348 139.231 127.563 139.029 127.713 138.778C127.866 138.527 127.943 138.253 127.943 137.957V137.01C127.884 137.059 127.783 137.104 127.64 137.146C127.5 137.188 127.343 137.224 127.169 137.256C126.995 137.287 126.822 137.315 126.651 137.339C126.48 137.364 126.332 137.385 126.206 137.402C125.924 137.441 125.671 137.503 125.448 137.591C125.225 137.678 125.049 137.8 124.92 137.957C124.791 138.11 124.726 138.309 124.726 138.553C124.726 138.902 124.853 139.165 125.108 139.343C125.363 139.521 125.687 139.61 126.081 139.61ZM134.717 140.98C134.086 140.98 133.521 140.818 133.022 140.494C132.523 140.169 132.129 139.699 131.84 139.081C131.551 138.464 131.406 137.714 131.406 136.832C131.406 135.939 131.552 135.186 131.845 134.572C132.142 133.955 132.541 133.49 133.043 133.176C133.545 132.858 134.105 132.7 134.722 132.7C135.193 132.7 135.58 132.78 135.883 132.94C136.187 133.097 136.427 133.287 136.605 133.511C136.783 133.73 136.921 133.938 137.018 134.133H137.097V130.126H138.996V140.839H137.133V139.573H137.018C136.921 139.768 136.78 139.976 136.595 140.195C136.41 140.412 136.166 140.597 135.862 140.75C135.559 140.903 135.177 140.98 134.717 140.98ZM135.245 139.427C135.646 139.427 135.988 139.318 136.27 139.102C136.553 138.883 136.767 138.577 136.914 138.187C137.06 137.796 137.133 137.341 137.133 136.822C137.133 136.302 137.06 135.85 136.914 135.467C136.771 135.083 136.558 134.785 136.276 134.572C135.997 134.36 135.653 134.253 135.245 134.253C134.823 134.253 134.471 134.363 134.189 134.583C133.906 134.803 133.693 135.106 133.55 135.493C133.407 135.88 133.336 136.323 133.336 136.822C133.336 137.324 133.407 137.772 133.55 138.166C133.697 138.557 133.911 138.865 134.194 139.092C134.48 139.315 134.83 139.427 135.245 139.427ZM146.979 141.001C146.47 141.001 146.011 140.91 145.603 140.729C145.199 140.544 144.878 140.272 144.641 139.913C144.407 139.554 144.291 139.111 144.291 138.584C144.291 138.131 144.374 137.756 144.542 137.46C144.709 137.163 144.937 136.926 145.227 136.748C145.516 136.571 145.842 136.436 146.205 136.346C146.571 136.251 146.949 136.183 147.34 136.142C147.811 136.093 148.193 136.049 148.486 136.011C148.779 135.969 148.991 135.906 149.124 135.823C149.26 135.735 149.328 135.601 149.328 135.42V135.388C149.328 134.994 149.211 134.689 148.977 134.473C148.744 134.257 148.407 134.149 147.968 134.149C147.504 134.149 147.136 134.25 146.864 134.452C146.596 134.654 146.414 134.893 146.32 135.169L144.552 134.918C144.692 134.429 144.922 134.021 145.243 133.694C145.563 133.362 145.956 133.115 146.419 132.951C146.883 132.783 147.396 132.7 147.957 132.7C148.344 132.7 148.73 132.745 149.113 132.836C149.497 132.926 149.847 133.076 150.165 133.286C150.482 133.491 150.737 133.772 150.928 134.128C151.124 134.483 151.221 134.928 151.221 135.462V140.839H149.401V139.735H149.338C149.223 139.958 149.061 140.168 148.852 140.363C148.646 140.555 148.386 140.71 148.072 140.828C147.762 140.943 147.398 141.001 146.979 141.001ZM147.471 139.61C147.851 139.61 148.18 139.535 148.459 139.385C148.738 139.231 148.953 139.029 149.103 138.778C149.256 138.527 149.333 138.253 149.333 137.957V137.01C149.274 137.059 149.173 137.104 149.03 137.146C148.89 137.188 148.733 137.224 148.559 137.256C148.384 137.287 148.212 137.315 148.041 137.339C147.87 137.364 147.722 137.385 147.596 137.402C147.314 137.441 147.061 137.503 146.838 137.591C146.615 137.678 146.439 137.8 146.31 137.957C146.181 138.11 146.116 138.309 146.116 138.553C146.116 138.902 146.243 139.165 146.498 139.343C146.752 139.521 147.077 139.61 147.471 139.61ZM160.849 132.804V134.269H156.099V132.804H160.849ZM157.286 140.839V132.046C157.286 131.505 157.398 131.056 157.621 130.696C157.848 130.337 158.151 130.069 158.531 129.891C158.911 129.713 159.333 129.624 159.797 129.624C160.125 129.624 160.416 129.65 160.671 129.703C160.925 129.755 161.114 129.802 161.236 129.844L160.859 131.308C160.779 131.284 160.678 131.26 160.556 131.235C160.434 131.207 160.298 131.193 160.148 131.193C159.795 131.193 159.546 131.279 159.4 131.45C159.257 131.617 159.185 131.858 159.185 132.171V140.839H157.286ZM162.331 140.839V132.804H164.225V140.839H162.331ZM163.283 131.664C162.984 131.664 162.725 131.565 162.509 131.366C162.293 131.164 162.185 130.921 162.185 130.639C162.185 130.353 162.293 130.111 162.509 129.912C162.725 129.71 162.984 129.608 163.283 129.608C163.587 129.608 163.845 129.71 164.058 129.912C164.274 130.111 164.382 130.353 164.382 130.639C164.382 130.921 164.274 131.164 164.058 131.366C163.845 131.565 163.587 131.664 163.283 131.664ZM168.066 130.126V140.839H166.172V130.126H168.066ZM173.57 140.996C172.764 140.996 172.069 140.828 171.483 140.494C170.9 140.155 170.452 139.678 170.138 139.06C169.825 138.44 169.668 137.709 169.668 136.869C169.668 136.042 169.825 135.317 170.138 134.693C170.456 134.065 170.899 133.577 171.467 133.228C172.035 132.876 172.703 132.7 173.47 132.7C173.966 132.7 174.433 132.78 174.872 132.94C175.315 133.097 175.706 133.341 176.044 133.673C176.386 134.004 176.654 134.426 176.849 134.939C177.045 135.448 177.142 136.054 177.142 136.759V137.339H170.557V136.063H175.327C175.324 135.701 175.245 135.378 175.092 135.095C174.938 134.81 174.724 134.585 174.449 134.421C174.177 134.257 173.859 134.175 173.497 134.175C173.109 134.175 172.769 134.269 172.477 134.457C172.184 134.642 171.955 134.886 171.791 135.19C171.631 135.49 171.549 135.819 171.545 136.178V137.292C171.545 137.76 171.631 138.161 171.802 138.495C171.973 138.827 172.212 139.081 172.518 139.259C172.825 139.434 173.184 139.521 173.596 139.521C173.871 139.521 174.121 139.482 174.344 139.406C174.567 139.325 174.761 139.209 174.925 139.055C175.088 138.902 175.212 138.712 175.296 138.485L177.064 138.684C176.952 139.151 176.74 139.559 176.426 139.908C176.115 140.253 175.718 140.522 175.233 140.713C174.748 140.902 174.194 140.996 173.57 140.996Z" fill="#7556DC"/>
<path d="M187.179 140.996C186.394 140.996 185.714 140.823 185.139 140.478C184.564 140.133 184.117 139.65 183.8 139.029C183.486 138.408 183.329 137.683 183.329 136.853C183.329 136.023 183.486 135.296 183.8 134.672C184.117 134.048 184.564 133.563 185.139 133.218C185.714 132.872 186.394 132.7 187.179 132.7C187.964 132.7 188.644 132.872 189.219 133.218C189.794 133.563 190.239 134.048 190.553 134.672C190.87 135.296 191.029 136.023 191.029 136.853C191.029 137.683 190.87 138.408 190.553 139.029C190.239 139.65 189.794 140.133 189.219 140.478C188.644 140.823 187.964 140.996 187.179 140.996ZM187.189 139.479C187.615 139.479 187.971 139.362 188.256 139.128C188.542 138.891 188.755 138.574 188.895 138.176C189.038 137.779 189.109 137.336 189.109 136.848C189.109 136.356 189.038 135.911 188.895 135.514C188.755 135.113 188.542 134.794 188.256 134.557C187.971 134.32 187.615 134.201 187.189 134.201C186.754 134.201 186.391 134.32 186.101 134.557C185.815 134.794 185.601 135.113 185.458 135.514C185.319 135.911 185.249 136.356 185.249 136.848C185.249 137.336 185.319 137.779 185.458 138.176C185.601 138.574 185.815 138.891 186.101 139.128C186.391 139.362 186.754 139.479 187.189 139.479ZM192.636 140.839V132.804H194.472V134.143H194.556C194.702 133.68 194.953 133.322 195.309 133.071C195.668 132.817 196.078 132.689 196.538 132.689C196.643 132.689 196.76 132.695 196.889 132.705C197.021 132.712 197.131 132.724 197.218 132.742V134.483C197.138 134.456 197.011 134.431 196.836 134.41C196.665 134.386 196.5 134.374 196.339 134.374C195.994 134.374 195.684 134.449 195.408 134.599C195.136 134.745 194.922 134.949 194.765 135.211C194.608 135.472 194.53 135.774 194.53 136.115V140.839H192.636ZM205.111 140.98C204.48 140.98 203.915 140.818 203.417 140.494C202.918 140.169 202.524 139.699 202.234 139.081C201.945 138.464 201.8 137.714 201.8 136.832C201.8 135.939 201.947 135.186 202.24 134.572C202.536 133.955 202.935 133.49 203.438 133.176C203.94 132.858 204.499 132.7 205.117 132.7C205.587 132.7 205.974 132.78 206.278 132.94C206.581 133.097 206.822 133.287 207 133.511C207.178 133.73 207.315 133.938 207.413 134.133H207.491V130.126H209.39V140.839H207.528V139.573H207.413C207.315 139.768 207.174 139.976 206.989 140.195C206.804 140.412 206.56 140.597 206.257 140.75C205.954 140.903 205.572 140.98 205.111 140.98ZM205.64 139.427C206.041 139.427 206.382 139.318 206.665 139.102C206.947 138.883 207.162 138.577 207.308 138.187C207.455 137.796 207.528 137.341 207.528 136.822C207.528 136.302 207.455 135.85 207.308 135.467C207.165 135.083 206.953 134.785 206.67 134.572C206.391 134.36 206.048 134.253 205.64 134.253C205.218 134.253 204.866 134.363 204.583 134.583C204.301 134.803 204.088 135.106 203.945 135.493C203.802 135.88 203.73 136.323 203.73 136.822C203.73 137.324 203.802 137.772 203.945 138.166C204.091 138.557 204.306 138.865 204.588 139.092C204.874 139.315 205.225 139.427 205.64 139.427ZM211.408 140.839V132.804H213.244V134.143H213.328C213.474 133.68 213.725 133.322 214.081 133.071C214.44 132.817 214.85 132.689 215.31 132.689C215.415 132.689 215.531 132.695 215.661 132.705C215.793 132.712 215.903 132.724 215.99 132.742V134.483C215.91 134.456 215.783 134.431 215.608 134.41C215.437 134.386 215.272 134.374 215.111 134.374C214.766 134.374 214.456 134.449 214.18 134.599C213.908 134.745 213.694 134.949 213.537 135.211C213.38 135.472 213.301 135.774 213.301 136.115V140.839H211.408ZM219.416 141.001C218.907 141.001 218.449 140.91 218.041 140.729C217.636 140.544 217.315 140.272 217.078 139.913C216.844 139.554 216.728 139.111 216.728 138.584C216.728 138.131 216.811 137.756 216.979 137.46C217.146 137.163 217.374 136.926 217.664 136.748C217.953 136.571 218.279 136.436 218.642 136.346C219.008 136.251 219.387 136.183 219.777 136.142C220.248 136.093 220.63 136.049 220.923 136.011C221.216 135.969 221.428 135.906 221.561 135.823C221.697 135.735 221.765 135.601 221.765 135.42V135.388C221.765 134.994 221.648 134.689 221.414 134.473C221.181 134.257 220.844 134.149 220.405 134.149C219.941 134.149 219.573 134.25 219.301 134.452C219.033 134.654 218.851 134.893 218.757 135.169L216.989 134.918C217.129 134.429 217.359 134.021 217.68 133.694C218 133.362 218.393 133.115 218.857 132.951C219.32 132.783 219.833 132.7 220.394 132.7C220.781 132.7 221.167 132.745 221.55 132.836C221.934 132.926 222.284 133.076 222.602 133.286C222.919 133.491 223.174 133.772 223.365 134.128C223.561 134.483 223.658 134.928 223.658 135.462V140.839H221.838V139.735H221.775C221.66 139.958 221.498 140.168 221.289 140.363C221.083 140.555 220.823 140.71 220.509 140.828C220.199 140.943 219.835 141.001 219.416 141.001ZM219.908 139.61C220.288 139.61 220.618 139.535 220.897 139.385C221.175 139.231 221.39 139.029 221.54 138.778C221.693 138.527 221.77 138.253 221.77 137.957V137.01C221.711 137.059 221.61 137.104 221.467 137.146C221.327 137.188 221.17 137.224 220.996 137.256C220.822 137.287 220.649 137.315 220.478 137.339C220.307 137.364 220.159 137.385 220.033 137.402C219.751 137.441 219.498 137.503 219.275 137.591C219.052 137.678 218.876 137.8 218.747 137.957C218.618 138.11 218.553 138.309 218.553 138.553C218.553 138.902 218.68 139.165 218.935 139.343C219.19 139.521 219.514 139.61 219.908 139.61ZM229.057 144.019C228.377 144.019 227.792 143.927 227.304 143.742C226.816 143.561 226.424 143.317 226.127 143.01C225.831 142.703 225.625 142.363 225.51 141.99L227.215 141.576C227.292 141.733 227.404 141.889 227.55 142.042C227.697 142.199 227.894 142.328 228.141 142.429C228.392 142.534 228.708 142.586 229.088 142.586C229.625 142.586 230.07 142.455 230.422 142.194C230.774 141.936 230.95 141.51 230.95 140.917V139.395H230.856C230.758 139.59 230.615 139.791 230.427 139.997C230.242 140.202 229.996 140.375 229.689 140.515C229.386 140.654 229.004 140.724 228.544 140.724C227.927 140.724 227.367 140.579 226.865 140.29C226.366 139.997 225.969 139.561 225.672 138.982C225.379 138.4 225.233 137.671 225.233 136.795C225.233 135.913 225.379 135.169 225.672 134.562C225.969 133.952 226.368 133.49 226.87 133.176C227.372 132.858 227.932 132.7 228.549 132.7C229.02 132.7 229.407 132.78 229.71 132.94C230.017 133.097 230.261 133.287 230.443 133.511C230.624 133.73 230.762 133.938 230.856 134.133H230.961V132.804H232.828V140.97C232.828 141.657 232.664 142.225 232.336 142.675C232.008 143.125 231.56 143.461 230.992 143.684C230.424 143.908 229.778 144.019 229.057 144.019ZM229.072 139.238C229.473 139.238 229.815 139.141 230.097 138.945C230.38 138.75 230.594 138.469 230.741 138.103C230.887 137.737 230.961 137.298 230.961 136.785C230.961 136.279 230.887 135.837 230.741 135.456C230.598 135.076 230.385 134.782 230.103 134.572C229.824 134.36 229.48 134.253 229.072 134.253C228.65 134.253 228.298 134.363 228.016 134.583C227.733 134.803 227.52 135.104 227.377 135.488C227.234 135.868 227.163 136.3 227.163 136.785C227.163 137.277 227.234 137.707 227.377 138.077C227.524 138.443 227.738 138.729 228.021 138.935C228.307 139.137 228.657 139.238 229.072 139.238ZM240.734 141.001C240.225 141.001 239.767 140.91 239.359 140.729C238.954 140.544 238.633 140.272 238.396 139.913C238.162 139.554 238.046 139.111 238.046 138.584C238.046 138.131 238.129 137.756 238.297 137.46C238.464 137.163 238.692 136.926 238.982 136.748C239.271 136.571 239.597 136.436 239.96 136.346C240.326 136.251 240.705 136.183 241.095 136.142C241.566 136.093 241.948 136.049 242.241 136.011C242.534 135.969 242.746 135.906 242.879 135.823C243.015 135.735 243.083 135.601 243.083 135.42V135.388C243.083 134.994 242.966 134.689 242.732 134.473C242.499 134.257 242.162 134.149 241.723 134.149C241.259 134.149 240.891 134.25 240.619 134.452C240.351 134.654 240.169 134.893 240.075 135.169L238.307 134.918C238.447 134.429 238.677 134.021 238.998 133.694C239.318 133.362 239.711 133.115 240.175 132.951C240.638 132.783 241.151 132.7 241.712 132.7C242.099 132.7 242.485 132.745 242.868 132.836C243.252 132.926 243.602 133.076 243.92 133.286C244.237 133.491 244.492 133.772 244.683 134.128C244.879 134.483 244.976 134.928 244.976 135.462V140.839H243.156V139.735H243.093C242.978 139.958 242.816 140.168 242.607 140.363C242.401 140.555 242.141 140.71 241.827 140.828C241.517 140.943 241.153 141.001 240.734 141.001ZM241.226 139.61C241.606 139.61 241.936 139.535 242.215 139.385C242.494 139.231 242.708 139.029 242.858 138.778C243.011 138.527 243.088 138.253 243.088 137.957V137.01C243.029 137.059 242.928 137.104 242.785 137.146C242.645 137.188 242.488 137.224 242.314 137.256C242.14 137.287 241.967 137.315 241.796 137.339C241.625 137.364 241.477 137.385 241.351 137.402C241.069 137.441 240.816 137.503 240.593 137.591C240.37 137.678 240.194 137.8 240.065 137.957C239.936 138.11 239.871 138.309 239.871 138.553C239.871 138.902 239.998 139.165 240.253 139.343C240.508 139.521 240.832 139.61 241.226 139.61ZM248.774 136.131V140.839H246.88V132.804H248.69V134.17H248.784C248.969 133.72 249.264 133.362 249.668 133.097C250.076 132.832 250.58 132.7 251.18 132.7C251.735 132.7 252.218 132.818 252.629 133.055C253.044 133.293 253.365 133.636 253.591 134.086C253.822 134.536 253.935 135.082 253.931 135.723V140.839H252.038V136.016C252.038 135.479 251.898 135.059 251.619 134.755C251.344 134.452 250.962 134.3 250.474 134.3C250.143 134.3 249.848 134.374 249.59 134.52C249.335 134.663 249.135 134.871 248.988 135.143C248.845 135.415 248.774 135.744 248.774 136.131ZM258.838 140.98C258.207 140.98 257.642 140.818 257.143 140.494C256.645 140.169 256.25 139.699 255.961 139.081C255.672 138.464 255.527 137.714 255.527 136.832C255.527 135.939 255.673 135.186 255.966 134.572C256.263 133.955 256.662 133.49 257.164 133.176C257.666 132.858 258.226 132.7 258.843 132.7C259.314 132.7 259.701 132.78 260.004 132.94C260.308 133.097 260.548 133.287 260.726 133.511C260.904 133.73 261.042 133.938 261.139 134.133H261.218V130.126H263.117V140.839H261.255V139.573H261.139C261.042 139.768 260.901 139.976 260.716 140.195C260.531 140.412 260.287 140.597 259.983 140.75C259.68 140.903 259.298 140.98 258.838 140.98ZM259.366 139.427C259.767 139.427 260.109 139.318 260.391 139.102C260.674 138.883 260.888 138.577 261.035 138.187C261.181 137.796 261.255 137.341 261.255 136.822C261.255 136.302 261.181 135.85 261.035 135.467C260.892 135.083 260.679 134.785 260.397 134.572C260.118 134.36 259.774 134.253 259.366 134.253C258.944 134.253 258.592 134.363 258.31 134.583C258.027 134.803 257.814 135.106 257.671 135.493C257.529 135.88 257.457 136.323 257.457 136.822C257.457 137.324 257.529 137.772 257.671 138.166C257.818 138.557 258.032 138.865 258.315 139.092C258.601 139.315 258.951 139.427 259.366 139.427ZM271.77 140.98C271.139 140.98 270.574 140.818 270.075 140.494C269.576 140.169 269.182 139.699 268.893 139.081C268.603 138.464 268.459 137.714 268.459 136.832C268.459 135.939 268.605 135.186 268.898 134.572C269.194 133.955 269.594 133.49 270.096 133.176C270.598 132.858 271.158 132.7 271.775 132.7C272.246 132.7 272.633 132.78 272.936 132.94C273.24 133.097 273.48 133.287 273.658 133.511C273.836 133.73 273.974 133.938 274.071 134.133H274.15V130.126H276.048V140.839H274.186V139.573H274.071C273.974 139.768 273.832 139.976 273.648 140.195C273.463 140.412 273.219 140.597 272.915 140.75C272.612 140.903 272.23 140.98 271.77 140.98ZM272.298 139.427C272.699 139.427 273.041 139.318 273.323 139.102C273.606 138.883 273.82 138.577 273.967 138.187C274.113 137.796 274.186 137.341 274.186 136.822C274.186 136.302 274.113 135.85 273.967 135.467C273.824 135.083 273.611 134.785 273.328 134.572C273.05 134.36 272.706 134.253 272.298 134.253C271.876 134.253 271.524 134.363 271.241 134.583C270.959 134.803 270.746 135.106 270.603 135.493C270.46 135.88 270.389 136.323 270.389 136.822C270.389 137.324 270.46 137.772 270.603 138.166C270.75 138.557 270.964 138.865 271.247 139.092C271.533 139.315 271.883 139.427 272.298 139.427ZM278.066 140.839V132.804H279.902V134.143H279.986C280.132 133.68 280.383 133.322 280.739 133.071C281.098 132.817 281.508 132.689 281.968 132.689C282.073 132.689 282.19 132.695 282.319 132.705C282.451 132.712 282.561 132.724 282.648 132.742V134.483C282.568 134.456 282.441 134.431 282.267 134.41C282.096 134.386 281.93 134.374 281.77 134.374C281.424 134.374 281.114 134.449 280.839 134.599C280.567 134.745 280.352 134.949 280.195 135.211C280.038 135.472 279.96 135.774 279.96 136.115V140.839H278.066ZM287.08 140.996C286.296 140.996 285.616 140.823 285.04 140.478C284.465 140.133 284.018 139.65 283.701 139.029C283.387 138.408 283.23 137.683 283.23 136.853C283.23 136.023 283.387 135.296 283.701 134.672C284.018 134.048 284.465 133.563 285.04 133.218C285.616 132.872 286.296 132.7 287.08 132.7C287.865 132.7 288.545 132.872 289.12 133.218C289.696 133.563 290.14 134.048 290.454 134.672C290.771 135.296 290.93 136.023 290.93 136.853C290.93 137.683 290.771 138.408 290.454 139.029C290.14 139.65 289.696 140.133 289.12 140.478C288.545 140.823 287.865 140.996 287.08 140.996ZM287.091 139.479C287.516 139.479 287.872 139.362 288.158 139.128C288.444 138.891 288.656 138.574 288.796 138.176C288.939 137.779 289.01 137.336 289.01 136.848C289.01 136.356 288.939 135.911 288.796 135.514C288.656 135.113 288.444 134.794 288.158 134.557C287.872 134.32 287.516 134.201 287.091 134.201C286.655 134.201 286.292 134.32 286.003 134.557C285.717 134.794 285.502 135.113 285.359 135.514C285.22 135.911 285.15 136.356 285.15 136.848C285.15 137.336 285.22 137.779 285.359 138.176C285.502 138.574 285.717 138.891 286.003 139.128C286.292 139.362 286.655 139.479 287.091 139.479ZM292.537 143.852V132.804H294.399V134.133H294.509C294.607 133.938 294.745 133.73 294.922 133.511C295.1 133.287 295.341 133.097 295.644 132.94C295.948 132.78 296.335 132.7 296.806 132.7C297.426 132.7 297.986 132.858 298.485 133.176C298.987 133.49 299.384 133.955 299.677 134.572C299.974 135.186 300.122 135.939 300.122 136.832C300.122 137.714 299.977 138.464 299.688 139.081C299.398 139.699 299.004 140.169 298.506 140.494C298.007 140.818 297.442 140.98 296.811 140.98C296.35 140.98 295.969 140.903 295.665 140.75C295.362 140.597 295.118 140.412 294.933 140.195C294.752 139.976 294.61 139.768 294.509 139.573H294.431V143.852H292.537ZM294.394 136.822C294.394 137.341 294.467 137.796 294.614 138.187C294.764 138.577 294.978 138.883 295.257 139.102C295.54 139.318 295.881 139.427 296.282 139.427C296.701 139.427 297.051 139.315 297.334 139.092C297.616 138.865 297.829 138.557 297.972 138.166C298.118 137.772 298.192 137.324 298.192 136.822C298.192 136.323 298.12 135.88 297.977 135.493C297.834 135.106 297.622 134.803 297.339 134.583C297.057 134.363 296.704 134.253 296.282 134.253C295.878 134.253 295.534 134.36 295.252 134.572C294.97 134.785 294.755 135.083 294.609 135.467C294.466 135.85 294.394 136.302 294.394 136.822Z" fill="#37434F"/>
<path d="M111.69 163.047V153.1H115.236C116.01 153.1 116.651 153.241 117.159 153.522C117.668 153.804 118.048 154.19 118.301 154.678C118.553 155.164 118.679 155.711 118.679 156.32C118.679 156.932 118.552 157.483 118.296 157.972C118.043 158.457 117.661 158.843 117.149 159.128C116.641 159.409 116.002 159.55 115.231 159.55H112.793V158.278H115.095C115.584 158.278 115.981 158.193 116.285 158.025C116.589 157.853 116.813 157.62 116.955 157.326C117.098 157.031 117.169 156.696 117.169 156.32C117.169 155.945 117.098 155.611 116.955 155.32C116.813 155.028 116.588 154.8 116.28 154.635C115.976 154.47 115.574 154.387 115.075 154.387H113.191V163.047H111.69ZM128.468 153.1V163.047H127.088L122.032 155.752H121.94V163.047H120.439V153.1H121.828L126.889 160.405H126.982V153.1H128.468ZM137.389 156.243C137.295 155.948 137.169 155.684 137.01 155.451C136.855 155.214 136.669 155.014 136.452 154.848C136.235 154.68 135.987 154.552 135.709 154.465C135.433 154.377 135.131 154.334 134.8 154.334C134.24 154.334 133.735 154.478 133.285 154.766C132.835 155.054 132.479 155.477 132.216 156.034C131.957 156.587 131.828 157.266 131.828 158.069C131.828 158.875 131.959 159.557 132.221 160.114C132.483 160.671 132.843 161.093 133.299 161.381C133.756 161.67 134.276 161.814 134.859 161.814C135.399 161.814 135.871 161.704 136.272 161.483C136.677 161.263 136.989 160.952 137.209 160.551C137.433 160.146 137.545 159.67 137.545 159.123L137.933 159.196H135.087V157.957H138.997V159.089C138.997 159.924 138.819 160.65 138.463 161.265C138.11 161.877 137.621 162.35 136.996 162.683C136.374 163.017 135.662 163.183 134.859 163.183C133.958 163.183 133.168 162.976 132.488 162.562C131.812 162.147 131.284 161.559 130.905 160.799C130.526 160.034 130.337 159.128 130.337 158.079C130.337 157.285 130.447 156.573 130.667 155.941C130.887 155.31 131.196 154.774 131.595 154.334C131.996 153.89 132.467 153.552 133.008 153.318C133.552 153.082 134.146 152.964 134.791 152.964C135.328 152.964 135.828 153.043 136.291 153.202C136.758 153.361 137.172 153.586 137.535 153.877C137.901 154.168 138.204 154.515 138.443 154.916C138.683 155.315 138.845 155.757 138.929 156.243H137.389ZM142.675 161.687L142.602 162.217C142.554 162.605 142.471 163.01 142.354 163.431C142.241 163.855 142.123 164.249 142 164.611C141.88 164.974 141.781 165.262 141.704 165.476H140.674C140.716 165.275 140.774 165.003 140.849 164.66C140.923 164.32 140.996 163.939 141.067 163.519C141.139 163.098 141.192 162.669 141.228 162.231L141.276 161.687H142.675ZM152.168 153.1H153.664V160.153C153.664 160.79 153.538 161.336 153.285 161.789C153.036 162.243 152.685 162.589 152.231 162.829C151.778 163.065 151.247 163.183 150.638 163.183C150.078 163.183 149.575 163.081 149.128 162.877C148.684 162.673 148.333 162.377 148.074 161.989C147.818 161.597 147.69 161.121 147.69 160.561H149.181C149.181 160.836 149.244 161.074 149.371 161.275C149.5 161.475 149.677 161.632 149.9 161.746C150.127 161.856 150.386 161.911 150.677 161.911C150.994 161.911 151.263 161.844 151.483 161.712C151.707 161.576 151.877 161.377 151.993 161.114C152.11 160.852 152.168 160.531 152.168 160.153V153.1ZM155.849 163.047V153.1H159.394C160.168 153.1 160.81 153.241 161.318 153.522C161.826 153.804 162.207 154.19 162.459 154.678C162.712 155.164 162.838 155.711 162.838 156.32C162.838 156.932 162.71 157.483 162.454 157.972C162.202 158.457 161.82 158.843 161.308 159.128C160.8 159.409 160.16 159.55 159.39 159.55H156.951V158.278H159.254C159.743 158.278 160.139 158.193 160.444 158.025C160.748 157.853 160.971 157.62 161.114 157.326C161.256 157.031 161.328 156.696 161.328 156.32C161.328 155.945 161.256 155.611 161.114 155.32C160.971 155.028 160.746 154.8 160.439 154.635C160.134 154.47 159.733 154.387 159.234 154.387H157.35V163.047H155.849ZM171.33 156.243C171.236 155.948 171.11 155.684 170.951 155.451C170.795 155.214 170.609 155.014 170.392 154.848C170.175 154.68 169.928 154.552 169.649 154.465C169.374 154.377 169.071 154.334 168.741 154.334C168.181 154.334 167.676 154.478 167.225 154.766C166.775 155.054 166.419 155.477 166.157 156.034C165.898 156.587 165.768 157.266 165.768 158.069C165.768 158.875 165.899 159.557 166.162 160.114C166.424 160.671 166.783 161.093 167.24 161.381C167.697 161.67 168.216 161.814 168.799 161.814C169.34 161.814 169.811 161.704 170.213 161.483C170.617 161.263 170.93 160.952 171.15 160.551C171.373 160.146 171.485 159.67 171.485 159.123L171.874 159.196H169.027V157.957H172.937V159.089C172.937 159.924 172.759 160.65 172.403 161.265C172.05 161.877 171.561 162.35 170.936 162.683C170.315 163.017 169.602 163.183 168.799 163.183C167.899 163.183 167.109 162.976 166.429 162.562C165.752 162.147 165.224 161.559 164.845 160.799C164.467 160.034 164.277 159.128 164.277 158.079C164.277 157.285 164.387 156.573 164.607 155.941C164.828 155.31 165.137 154.774 165.535 154.334C165.937 153.89 166.408 153.552 166.949 153.318C167.493 153.082 168.087 152.964 168.731 152.964C169.269 152.964 169.769 153.043 170.232 153.202C170.698 153.361 171.113 153.586 171.475 153.877C171.841 154.168 172.144 154.515 172.384 154.916C172.623 155.315 172.785 155.757 172.869 156.243H171.33ZM176.616 161.687L176.543 162.217C176.494 162.605 176.412 163.01 176.295 163.431C176.182 163.855 176.063 164.249 175.94 164.611C175.821 164.974 175.722 165.262 175.644 165.476H174.614C174.656 165.275 174.715 165.003 174.789 164.66C174.864 164.32 174.937 163.939 175.008 163.519C175.079 163.098 175.132 162.669 175.168 162.231L175.217 161.687H176.616ZM188.975 156.243C188.881 155.948 188.754 155.684 188.596 155.451C188.44 155.214 188.254 155.014 188.037 154.848C187.82 154.68 187.572 154.552 187.294 154.465C187.019 154.377 186.716 154.334 186.386 154.334C185.825 154.334 185.32 154.478 184.87 154.766C184.42 155.054 184.064 155.477 183.802 156.034C183.543 156.587 183.413 157.266 183.413 158.069C183.413 158.875 183.544 159.557 183.807 160.114C184.069 160.671 184.428 161.093 184.885 161.381C185.341 161.67 185.861 161.814 186.444 161.814C186.985 161.814 187.456 161.704 187.857 161.483C188.262 161.263 188.575 160.952 188.795 160.551C189.018 160.146 189.13 159.67 189.13 159.123L189.519 159.196H186.672V157.957H190.582V159.089C190.582 159.924 190.404 160.65 190.048 161.265C189.695 161.877 189.206 162.35 188.581 162.683C187.959 163.017 187.247 163.183 186.444 163.183C185.544 163.183 184.754 162.976 184.074 162.562C183.397 162.147 182.869 161.559 182.49 160.799C182.111 160.034 181.922 159.128 181.922 158.079C181.922 157.285 182.032 156.573 182.252 155.941C182.472 155.31 182.782 154.774 183.18 154.334C183.581 153.89 184.053 153.552 184.593 153.318C185.137 153.082 185.732 152.964 186.376 152.964C186.913 152.964 187.414 153.043 187.877 153.202C188.343 153.361 188.758 153.586 189.12 153.877C189.486 154.168 189.789 154.515 190.029 154.916C190.268 155.315 190.43 155.757 190.514 156.243H188.975ZM193.988 153.1V163.047H192.487V153.1H193.988ZM196.174 163.047V153.1H202.343V154.392H197.675V157.423H201.901V158.71H197.675V163.047H196.174ZM212.418 159.953V155.587H213.875V163.047H212.447V161.755H212.369C212.197 162.154 211.922 162.486 211.543 162.751C211.168 163.013 210.7 163.145 210.14 163.145C209.66 163.145 209.236 163.039 208.867 162.829C208.501 162.615 208.213 162.299 208.002 161.882C207.795 161.464 207.692 160.947 207.692 160.332V155.587H209.144V160.157C209.144 160.666 209.285 161.071 209.566 161.372C209.848 161.673 210.214 161.823 210.664 161.823C210.936 161.823 211.206 161.755 211.475 161.619C211.747 161.483 211.972 161.278 212.15 161.003C212.332 160.727 212.421 160.378 212.418 159.953ZM215.826 165.845V155.587H217.244V156.796H217.366C217.45 156.641 217.571 156.461 217.73 156.257C217.889 156.053 218.109 155.875 218.391 155.723C218.672 155.567 219.045 155.49 219.508 155.49C220.11 155.49 220.648 155.642 221.12 155.946C221.593 156.251 221.964 156.689 222.233 157.263C222.505 157.836 222.641 158.525 222.641 159.332C222.641 160.138 222.506 160.829 222.237 161.406C221.969 161.979 221.6 162.421 221.13 162.732C220.661 163.039 220.125 163.193 219.522 163.193C219.069 163.193 218.698 163.117 218.41 162.965C218.125 162.813 217.902 162.635 217.74 162.431C217.578 162.227 217.453 162.045 217.366 161.887H217.278V165.845H215.826ZM217.249 159.317C217.249 159.842 217.325 160.301 217.477 160.697C217.63 161.092 217.85 161.401 218.138 161.624C218.426 161.844 218.779 161.955 219.197 161.955C219.631 161.955 219.993 161.84 220.285 161.61C220.576 161.377 220.797 161.061 220.945 160.663C221.098 160.264 221.174 159.816 221.174 159.317C221.174 158.825 221.099 158.383 220.95 157.991C220.805 157.599 220.584 157.29 220.29 157.063C219.998 156.837 219.634 156.723 219.197 156.723C218.776 156.723 218.42 156.832 218.128 157.049C217.84 157.266 217.622 157.569 217.473 157.957C217.324 158.346 217.249 158.799 217.249 159.317ZM231.37 155.587V156.753H227.295V155.587H231.37ZM228.388 153.799H229.84V160.857C229.84 161.139 229.882 161.351 229.966 161.493C230.051 161.632 230.159 161.728 230.292 161.78C230.428 161.828 230.575 161.853 230.734 161.853C230.85 161.853 230.952 161.844 231.04 161.828C231.127 161.812 231.195 161.799 231.244 161.789L231.506 162.989C231.422 163.021 231.302 163.054 231.147 163.086C230.991 163.122 230.797 163.141 230.564 163.145C230.182 163.151 229.826 163.083 229.495 162.941C229.165 162.798 228.898 162.578 228.694 162.28C228.49 161.982 228.388 161.608 228.388 161.158V153.799ZM236.039 163.198C235.34 163.198 234.729 163.038 234.208 162.717C233.687 162.397 233.282 161.948 232.994 161.372C232.705 160.795 232.561 160.122 232.561 159.351C232.561 158.577 232.705 157.9 232.994 157.321C233.282 156.741 233.687 156.291 234.208 155.971C234.729 155.65 235.34 155.49 236.039 155.49C236.738 155.49 237.349 155.65 237.87 155.971C238.392 156.291 238.796 156.741 239.084 157.321C239.373 157.9 239.517 158.577 239.517 159.351C239.517 160.122 239.373 160.795 239.084 161.372C238.796 161.948 238.392 162.397 237.87 162.717C237.349 163.038 236.738 163.198 236.039 163.198ZM236.044 161.979C236.497 161.979 236.873 161.859 237.171 161.619C237.469 161.38 237.689 161.061 237.831 160.663C237.977 160.264 238.05 159.825 238.05 159.346C238.05 158.87 237.977 158.433 237.831 158.035C237.689 157.633 237.469 157.311 237.171 157.068C236.873 156.825 236.497 156.704 236.044 156.704C235.587 156.704 235.208 156.825 234.907 157.068C234.609 157.311 234.388 157.633 234.242 158.035C234.099 158.433 234.028 158.87 234.028 159.346C234.028 159.825 234.099 160.264 234.242 160.663C234.388 161.061 234.609 161.38 234.907 161.619C235.208 161.859 235.587 161.979 236.044 161.979ZM248.512 153.1V163.047H247.007V154.606H246.948L244.568 156.16V154.722L247.05 153.1H248.512ZM254.666 163.213C253.899 163.209 253.243 163.007 252.699 162.605C252.155 162.204 251.739 161.619 251.451 160.852C251.163 160.085 251.019 159.16 251.019 158.079C251.019 157 251.163 156.079 251.451 155.315C251.742 154.551 252.16 153.968 252.704 153.566C253.251 153.165 253.905 152.964 254.666 152.964C255.427 152.964 256.08 153.166 256.624 153.571C257.168 153.973 257.584 154.555 257.872 155.32C258.163 156.081 258.309 157 258.309 158.079C258.309 159.163 258.165 160.089 257.877 160.857C257.589 161.621 257.173 162.205 256.629 162.61C256.085 163.012 255.43 163.213 254.666 163.213ZM254.666 161.916C255.34 161.916 255.866 161.587 256.245 160.93C256.627 160.272 256.818 159.322 256.818 158.079C256.818 157.253 256.731 156.555 256.556 155.985C256.384 155.412 256.136 154.978 255.813 154.683C255.492 154.385 255.11 154.236 254.666 154.236C253.996 154.236 253.47 154.567 253.088 155.227C252.706 155.888 252.513 156.838 252.51 158.079C252.51 158.907 252.595 159.609 252.767 160.182C252.942 160.752 253.19 161.184 253.51 161.479C253.831 161.77 254.216 161.916 254.666 161.916ZM260.168 153.1H261.99L265.156 160.833H265.273L268.44 153.1H270.261V163.047H268.833V155.849H268.741L265.807 163.033H264.622L261.688 155.844H261.596V163.047H260.168V153.1ZM272.443 163.047V153.1H276.086C276.792 153.1 277.377 153.216 277.84 153.45C278.303 153.68 278.649 153.992 278.879 154.387C279.109 154.779 279.224 155.221 279.224 155.713C279.224 156.128 279.148 156.477 278.996 156.762C278.843 157.044 278.639 157.271 278.384 157.442C278.131 157.611 277.853 157.734 277.548 157.811V157.909C277.879 157.925 278.201 158.032 278.515 158.229C278.832 158.423 279.094 158.7 279.302 159.06C279.509 159.419 279.613 159.856 279.613 160.371C279.613 160.879 279.493 161.336 279.253 161.741C279.017 162.142 278.651 162.461 278.155 162.698C277.66 162.931 277.027 163.047 276.256 163.047H272.443ZM273.944 161.76H276.111C276.829 161.76 277.344 161.621 277.655 161.343C277.966 161.064 278.121 160.716 278.121 160.298C278.121 159.984 278.042 159.696 277.883 159.434C277.725 159.171 277.498 158.963 277.203 158.807C276.912 158.652 276.565 158.574 276.164 158.574H273.944V161.76ZM273.944 157.403H275.955C276.292 157.403 276.595 157.339 276.863 157.209C277.135 157.08 277.351 156.898 277.509 156.665C277.671 156.429 277.752 156.15 277.752 155.83C277.752 155.418 277.608 155.074 277.32 154.795C277.032 154.517 276.59 154.377 275.994 154.377H273.944V157.403Z" fill="#91A5BA"/>
<rect x="37.7773" y="33.7773" width="315.64" height="158.995" rx="3.68246" stroke="#C1CFDE" stroke-width="1.05213" stroke-dasharray="6.31 6.31"/>
<g filter="url(#filter1_d_4628_31760)">
<path d="M37.2512 212.237C37.2512 208.751 40.0776 205.924 43.564 205.924H261.858V250.176H43.564C40.0776 250.176 37.2512 247.349 37.2512 243.863V212.237Z" fill="white"/>
<path d="M56.4496 228.717V233.55H55.2152V222.837H56.4496V226.771H56.5543C56.7426 226.356 57.025 226.026 57.4016 225.782C57.7817 225.535 58.2874 225.411 58.9186 225.411C59.466 225.411 59.9455 225.521 60.357 225.74C60.7685 225.956 61.0876 226.289 61.3143 226.739C61.5444 227.186 61.6595 227.754 61.6595 228.445V233.55H60.425V228.528C60.425 227.89 60.2594 227.397 59.9281 227.048C59.6003 226.696 59.1452 226.52 58.5629 226.52C58.1584 226.52 57.7957 226.605 57.4749 226.776C57.1575 226.947 56.9065 227.196 56.7216 227.524C56.5403 227.852 56.4496 228.249 56.4496 228.717ZM67.412 225.515V226.561H63.2483V225.515H67.412ZM64.4619 223.59H65.6963V231.248C65.6963 231.597 65.7469 231.859 65.848 232.033C65.9526 232.204 66.0852 232.319 66.2456 232.378C66.4095 232.434 66.5821 232.462 66.7634 232.462C66.8994 232.462 67.011 232.455 67.0982 232.441C67.1854 232.423 67.2551 232.409 67.3074 232.399L67.5585 233.508C67.4748 233.539 67.358 233.571 67.208 233.602C67.0581 233.637 66.868 233.654 66.6379 233.654C66.2892 233.654 65.9474 233.579 65.6126 233.429C65.2814 233.28 65.0059 233.051 64.7862 232.744C64.57 232.437 64.4619 232.05 64.4619 231.583V223.59ZM72.7631 225.515V226.561H68.5994V225.515H72.7631ZM69.813 223.59H71.0474V231.248C71.0474 231.597 71.098 231.859 71.1991 232.033C71.3037 232.204 71.4362 232.319 71.5967 232.378C71.7605 232.434 71.9332 232.462 72.1145 232.462C72.2505 232.462 72.3621 232.455 72.4493 232.441C72.5364 232.423 72.6062 232.409 72.6585 232.399L72.9096 233.508C72.8259 233.539 72.7091 233.571 72.5591 233.602C72.4092 233.637 72.2191 233.654 71.989 233.654C71.6402 233.654 71.2985 233.579 70.9637 233.429C70.6324 233.28 70.357 233.051 70.1373 232.744C69.9211 232.437 69.813 232.05 69.813 231.583V223.59ZM74.62 236.563V225.515H75.8127V226.792H75.9591C76.0498 226.652 76.1753 226.474 76.3357 226.258C76.4996 226.038 76.7333 225.843 77.0367 225.672C77.3435 225.498 77.7585 225.411 78.2816 225.411C78.9581 225.411 79.5544 225.58 80.0705 225.918C80.5866 226.256 80.9894 226.736 81.2788 227.357C81.5682 227.977 81.713 228.71 81.713 229.553C81.713 230.404 81.5682 231.142 81.2788 231.766C80.9894 232.387 80.5883 232.868 80.0757 233.21C79.5631 233.548 78.972 233.717 78.3025 233.717C77.7864 233.717 77.3732 233.632 77.0628 233.461C76.7524 233.287 76.5136 233.089 76.3462 232.87C76.1788 232.647 76.0498 232.462 75.9591 232.315H75.8545V236.563H74.62ZM75.8336 229.533C75.8336 230.139 75.9225 230.675 76.1003 231.138C76.2782 231.599 76.538 231.96 76.8797 232.221C77.2215 232.479 77.6399 232.608 78.1351 232.608C78.6512 232.608 79.0819 232.472 79.4271 232.2C79.7758 231.925 80.0374 231.555 80.2117 231.091C80.3896 230.624 80.4785 230.104 80.4785 229.533C80.4785 228.968 80.3913 228.459 80.217 228.005C80.0461 227.548 79.7863 227.187 79.4376 226.922C79.0923 226.654 78.6582 226.52 78.1351 226.52C77.633 226.52 77.211 226.647 76.8693 226.901C76.5275 227.153 76.2695 227.505 76.0951 227.958C75.9208 228.408 75.8336 228.933 75.8336 229.533ZM89.2871 227.315L88.1782 227.629C88.1085 227.444 88.0056 227.264 87.8696 227.09C87.7371 226.912 87.5557 226.765 87.3256 226.65C87.0954 226.535 86.8008 226.478 86.4416 226.478C85.9499 226.478 85.5401 226.591 85.2124 226.818C84.888 227.041 84.7259 227.325 84.7259 227.67C84.7259 227.977 84.8375 228.22 85.0607 228.397C85.2838 228.575 85.6326 228.724 86.1068 228.842L87.2994 229.135C88.0178 229.309 88.5531 229.576 88.9053 229.935C89.2575 230.291 89.4336 230.75 89.4336 231.311C89.4336 231.771 89.3011 232.183 89.036 232.545C88.7745 232.908 88.4084 233.194 87.9376 233.403C87.4668 233.613 86.9193 233.717 86.2951 233.717C85.4756 233.717 84.7974 233.539 84.2604 233.184C83.7233 232.828 83.3833 232.308 83.2404 231.625L84.412 231.332C84.5236 231.764 84.7346 232.089 85.045 232.305C85.3588 232.521 85.7686 232.629 86.2742 232.629C86.8496 232.629 87.3064 232.507 87.6447 232.263C87.9864 232.015 88.1573 231.719 88.1573 231.374C88.1573 231.095 88.0596 230.861 87.8644 230.673C87.6691 230.481 87.3692 230.338 86.9647 230.244L85.6256 229.93C84.8898 229.756 84.3493 229.485 84.004 229.119C83.6623 228.75 83.4914 228.288 83.4914 227.733C83.4914 227.28 83.6187 226.879 83.8733 226.53C84.1313 226.181 84.4818 225.908 84.9247 225.709C85.371 225.51 85.8767 225.411 86.4416 225.411C87.2367 225.411 87.8609 225.585 88.3142 225.934C88.771 226.283 89.0953 226.743 89.2871 227.315ZM92.1915 233.633C91.9335 233.633 91.712 233.541 91.5272 233.356C91.3424 233.171 91.25 232.95 91.25 232.692C91.25 232.434 91.3424 232.212 91.5272 232.028C91.712 231.843 91.9335 231.75 92.1915 231.75C92.4496 231.75 92.671 231.843 92.8558 232.028C93.0406 232.212 93.1331 232.434 93.1331 232.692C93.1331 232.863 93.0895 233.02 93.0023 233.163C92.9186 233.306 92.8053 233.421 92.6623 233.508C92.5228 233.592 92.3659 233.633 92.1915 233.633ZM92.1915 227.67C91.9335 227.67 91.712 227.578 91.5272 227.393C91.3424 227.208 91.25 226.987 91.25 226.729C91.25 226.471 91.3424 226.249 91.5272 226.065C91.712 225.88 91.9335 225.787 92.1915 225.787C92.4496 225.787 92.671 225.88 92.8558 226.065C93.0406 226.249 93.1331 226.471 93.1331 226.729C93.1331 226.9 93.0895 227.057 93.0023 227.2C92.9186 227.343 92.8053 227.458 92.6623 227.545C92.5228 227.629 92.3659 227.67 92.1915 227.67ZM99.1354 222.335L95.6831 235.161H94.5532L98.0055 222.335H99.1354ZM104.386 222.335L100.933 235.161H99.8036L103.256 222.335H104.386ZM109.113 233.717C108.36 233.717 107.711 233.539 107.167 233.184C106.623 232.828 106.205 232.338 105.912 231.714C105.619 231.09 105.472 230.376 105.472 229.574C105.472 228.758 105.622 228.038 105.922 227.414C106.226 226.786 106.648 226.296 107.188 225.944C107.732 225.589 108.367 225.411 109.092 225.411C109.657 225.411 110.166 225.515 110.62 225.725C111.073 225.934 111.444 226.227 111.734 226.603C112.023 226.98 112.203 227.419 112.272 227.921H111.038C110.944 227.555 110.735 227.231 110.41 226.949C110.089 226.663 109.657 226.52 109.113 226.52C108.632 226.52 108.21 226.645 107.847 226.896C107.488 227.144 107.207 227.494 107.005 227.948C106.806 228.397 106.707 228.926 106.707 229.533C106.707 230.153 106.805 230.694 107 231.154C107.199 231.614 107.478 231.972 107.837 232.226C108.199 232.481 108.625 232.608 109.113 232.608C109.434 232.608 109.725 232.552 109.987 232.441C110.248 232.329 110.47 232.169 110.651 231.96C110.832 231.75 110.961 231.499 111.038 231.206H112.272C112.203 231.681 112.03 232.108 111.755 232.488C111.483 232.865 111.122 233.164 110.672 233.388C110.225 233.607 109.706 233.717 109.113 233.717ZM115.312 222.837V233.55H114.077V222.837H115.312ZM120.837 233.717C120.111 233.717 119.475 233.545 118.927 233.199C118.383 232.854 117.958 232.371 117.651 231.75C117.348 231.13 117.196 230.404 117.196 229.574C117.196 228.737 117.348 228.007 117.651 227.383C117.958 226.759 118.383 226.274 118.927 225.929C119.475 225.583 120.111 225.411 120.837 225.411C121.562 225.411 122.197 225.583 122.741 225.929C123.288 226.274 123.713 226.759 124.017 227.383C124.324 228.007 124.477 228.737 124.477 229.574C124.477 230.404 124.324 231.13 124.017 231.75C123.713 232.371 123.288 232.854 122.741 233.199C122.197 233.545 121.562 233.717 120.837 233.717ZM120.837 232.608C121.388 232.608 121.841 232.467 122.197 232.185C122.552 231.902 122.816 231.531 122.986 231.07C123.157 230.61 123.243 230.111 123.243 229.574C123.243 229.037 123.157 228.537 122.986 228.073C122.816 227.609 122.552 227.235 122.197 226.949C121.841 226.663 121.388 226.52 120.837 226.52C120.286 226.52 119.832 226.663 119.477 226.949C119.121 227.235 118.858 227.609 118.687 228.073C118.516 228.537 118.43 229.037 118.43 229.574C118.43 230.111 118.516 230.61 118.687 231.07C118.858 231.531 119.121 231.902 119.477 232.185C119.832 232.467 120.286 232.608 120.837 232.608ZM131.425 230.265V225.515H132.659V233.55H131.425V232.19H131.341C131.153 232.598 130.86 232.945 130.462 233.231C130.065 233.513 129.563 233.654 128.956 233.654C128.454 233.654 128.007 233.545 127.617 233.325C127.226 233.102 126.919 232.767 126.696 232.321C126.473 231.871 126.362 231.304 126.362 230.621V225.515H127.596V230.537C127.596 231.123 127.76 231.59 128.088 231.939C128.419 232.287 128.841 232.462 129.354 232.462C129.66 232.462 129.973 232.383 130.29 232.226C130.611 232.069 130.879 231.829 131.095 231.505C131.315 231.18 131.425 230.767 131.425 230.265ZM137.954 233.717C137.285 233.717 136.694 233.548 136.181 233.21C135.668 232.868 135.267 232.387 134.978 231.766C134.688 231.142 134.544 230.404 134.544 229.553C134.544 228.71 134.688 227.977 134.978 227.357C135.267 226.736 135.67 226.256 136.186 225.918C136.702 225.58 137.299 225.411 137.975 225.411C138.498 225.411 138.911 225.498 139.215 225.672C139.522 225.843 139.755 226.038 139.916 226.258C140.08 226.474 140.207 226.652 140.298 226.792H140.402V222.837H141.637V233.55H140.444V232.315H140.298C140.207 232.462 140.078 232.647 139.911 232.87C139.743 233.089 139.504 233.287 139.194 233.461C138.884 233.632 138.47 233.717 137.954 233.717ZM138.122 232.608C138.617 232.608 139.035 232.479 139.377 232.221C139.719 231.96 139.979 231.599 140.156 231.138C140.334 230.675 140.423 230.139 140.423 229.533C140.423 228.933 140.336 228.408 140.162 227.958C139.987 227.505 139.729 227.153 139.387 226.901C139.046 226.647 138.624 226.52 138.122 226.52C137.599 226.52 137.163 226.654 136.814 226.922C136.469 227.187 136.209 227.548 136.035 228.005C135.864 228.459 135.778 228.968 135.778 229.533C135.778 230.104 135.865 230.624 136.04 231.091C136.218 231.555 136.479 231.925 136.824 232.2C137.173 232.472 137.606 232.608 138.122 232.608ZM144.969 233.633C144.711 233.633 144.489 233.541 144.304 233.356C144.12 233.171 144.027 232.95 144.027 232.692C144.027 232.434 144.12 232.212 144.304 232.028C144.489 231.843 144.711 231.75 144.969 231.75C145.227 231.75 145.448 231.843 145.633 232.028C145.818 232.212 145.91 232.434 145.91 232.692C145.91 232.863 145.867 233.02 145.779 233.163C145.696 233.306 145.582 233.421 145.439 233.508C145.3 233.592 145.143 233.633 144.969 233.633ZM151.389 233.717C150.636 233.717 149.988 233.539 149.444 233.184C148.9 232.828 148.481 232.338 148.188 231.714C147.895 231.09 147.749 230.376 147.749 229.574C147.749 228.758 147.899 228.038 148.199 227.414C148.502 226.786 148.924 226.296 149.465 225.944C150.009 225.589 150.643 225.411 151.369 225.411C151.933 225.411 152.443 225.515 152.896 225.725C153.349 225.934 153.721 226.227 154.01 226.603C154.3 226.98 154.479 227.419 154.549 227.921H153.314C153.22 227.555 153.011 227.231 152.687 226.949C152.366 226.663 151.933 226.52 151.389 226.52C150.908 226.52 150.486 226.645 150.124 226.896C149.764 227.144 149.484 227.494 149.281 227.948C149.083 228.397 148.983 228.926 148.983 229.533C148.983 230.153 149.081 230.694 149.276 231.154C149.475 231.614 149.754 231.972 150.113 232.226C150.476 232.481 150.901 232.608 151.389 232.608C151.71 232.608 152.001 232.552 152.263 232.441C152.525 232.329 152.746 232.169 152.927 231.96C153.109 231.75 153.238 231.499 153.314 231.206H154.549C154.479 231.681 154.307 232.108 154.031 232.488C153.759 232.865 153.398 233.164 152.948 233.388C152.502 233.607 151.982 233.717 151.389 233.717ZM159.617 233.717C158.892 233.717 158.256 233.545 157.708 233.199C157.164 232.854 156.739 232.371 156.432 231.75C156.129 231.13 155.977 230.404 155.977 229.574C155.977 228.737 156.129 228.007 156.432 227.383C156.739 226.759 157.164 226.274 157.708 225.929C158.256 225.583 158.892 225.411 159.617 225.411C160.343 225.411 160.977 225.583 161.521 225.929C162.069 226.274 162.494 226.759 162.798 227.383C163.105 228.007 163.258 228.737 163.258 229.574C163.258 230.404 163.105 231.13 162.798 231.75C162.494 232.371 162.069 232.854 161.521 233.199C160.977 233.545 160.343 233.717 159.617 233.717ZM159.617 232.608C160.168 232.608 160.622 232.467 160.977 232.185C161.333 231.902 161.596 231.531 161.767 231.07C161.938 230.61 162.024 230.111 162.024 229.574C162.024 229.037 161.938 228.537 161.767 228.073C161.596 227.609 161.333 227.235 160.977 226.949C160.622 226.663 160.168 226.52 159.617 226.52C159.067 226.52 158.613 226.663 158.257 226.949C157.902 227.235 157.639 227.609 157.468 228.073C157.297 228.537 157.211 229.037 157.211 229.574C157.211 230.111 157.297 230.61 157.468 231.07C157.639 231.531 157.902 231.902 158.257 232.185C158.613 232.467 159.067 232.608 159.617 232.608ZM165.142 233.55V225.515H166.335V226.771H166.44C166.607 226.342 166.877 226.009 167.25 225.772C167.624 225.531 168.072 225.411 168.595 225.411C169.125 225.411 169.566 225.531 169.918 225.772C170.274 226.009 170.551 226.342 170.75 226.771H170.834C171.039 226.356 171.348 226.026 171.759 225.782C172.171 225.535 172.664 225.411 173.24 225.411C173.958 225.411 174.546 225.636 175.003 226.085C175.459 226.532 175.688 227.228 175.688 228.173V233.55H174.453V228.173C174.453 227.58 174.291 227.156 173.967 226.901C173.643 226.647 173.261 226.52 172.821 226.52C172.256 226.52 171.819 226.691 171.508 227.032C171.198 227.371 171.043 227.799 171.043 228.319V233.55H169.787V228.047C169.787 227.59 169.639 227.222 169.343 226.943C169.046 226.661 168.665 226.52 168.197 226.52C167.876 226.52 167.577 226.605 167.298 226.776C167.022 226.947 166.799 227.184 166.628 227.487C166.461 227.787 166.377 228.134 166.377 228.528V233.55H165.142ZM181.732 222.335L178.28 235.161H177.15L180.602 222.335H181.732ZM186.459 233.717C185.706 233.717 185.057 233.539 184.513 233.184C183.969 232.828 183.551 232.338 183.258 231.714C182.965 231.09 182.819 230.376 182.819 229.574C182.819 228.758 182.969 228.038 183.268 227.414C183.572 226.786 183.994 226.296 184.534 225.944C185.078 225.589 185.713 225.411 186.438 225.411C187.003 225.411 187.512 225.515 187.966 225.725C188.419 225.934 188.79 226.227 189.08 226.603C189.369 226.98 189.549 227.419 189.619 227.921H188.384C188.29 227.555 188.081 227.231 187.756 226.949C187.436 226.663 187.003 226.52 186.459 226.52C185.978 226.52 185.556 226.645 185.193 226.896C184.834 227.144 184.553 227.494 184.351 227.948C184.152 228.397 184.053 228.926 184.053 229.533C184.053 230.153 184.151 230.694 184.346 231.154C184.545 231.614 184.824 231.972 185.183 232.226C185.546 232.481 185.971 232.608 186.459 232.608C186.78 232.608 187.071 232.552 187.333 232.441C187.594 232.329 187.816 232.169 187.997 231.96C188.178 231.75 188.307 231.499 188.384 231.206H189.619C189.549 231.681 189.376 232.108 189.101 232.488C188.829 232.865 188.468 233.164 188.018 233.388C187.572 233.607 187.052 233.717 186.459 233.717ZM194.457 233.717C193.788 233.717 193.196 233.548 192.684 233.21C192.171 232.868 191.77 232.387 191.481 231.766C191.191 231.142 191.047 230.404 191.047 229.553C191.047 228.71 191.191 227.977 191.481 227.357C191.77 226.736 192.173 226.256 192.689 225.918C193.205 225.58 193.801 225.411 194.478 225.411C195.001 225.411 195.414 225.498 195.718 225.672C196.025 225.843 196.258 226.038 196.419 226.258C196.582 226.474 196.71 226.652 196.8 226.792H196.905V222.837H198.14V233.55H196.947V232.315H196.8C196.71 232.462 196.581 232.647 196.413 232.87C196.246 233.089 196.007 233.287 195.697 233.461C195.386 233.632 194.973 233.717 194.457 233.717ZM194.624 232.608C195.12 232.608 195.538 232.479 195.88 232.221C196.222 231.96 196.481 231.599 196.659 231.138C196.837 230.675 196.926 230.139 196.926 229.533C196.926 228.933 196.839 228.408 196.664 227.958C196.49 227.505 196.232 227.153 195.89 226.901C195.549 226.647 195.127 226.52 194.624 226.52C194.101 226.52 193.665 226.654 193.317 226.922C192.972 227.187 192.712 227.548 192.537 228.005C192.366 228.459 192.281 228.968 192.281 229.533C192.281 230.104 192.368 230.624 192.543 231.091C192.72 231.555 192.982 231.925 193.327 232.2C193.676 232.472 194.108 232.608 194.624 232.608ZM201.806 228.717V233.55H200.572V225.515H201.764V226.771H201.869C202.057 226.363 202.343 226.035 202.727 225.787C203.111 225.536 203.606 225.411 204.212 225.411C204.756 225.411 205.232 225.522 205.64 225.745C206.048 225.965 206.366 226.3 206.592 226.75C206.819 227.196 206.932 227.761 206.932 228.445V233.55H205.698V228.528C205.698 227.897 205.534 227.405 205.206 227.053C204.879 226.697 204.429 226.52 203.857 226.52C203.463 226.52 203.111 226.605 202.8 226.776C202.493 226.947 202.251 227.196 202.073 227.524C201.895 227.852 201.806 228.249 201.806 228.717ZM212.975 222.335L209.523 235.161H208.393L211.845 222.335H212.975ZM214.752 233.55L219.544 224.072V223.988H214.02V222.837H220.883V224.051L216.112 233.55H214.752ZM226.048 233.696C225.33 233.696 224.695 233.569 224.144 233.314C223.597 233.056 223.17 232.702 222.863 232.253C222.556 231.799 222.404 231.283 222.408 230.704C222.404 230.251 222.493 229.832 222.674 229.449C222.856 229.062 223.103 228.739 223.417 228.481C223.735 228.22 224.089 228.054 224.479 227.984V227.921C223.966 227.789 223.558 227.501 223.255 227.058C222.952 226.612 222.802 226.105 222.805 225.536C222.802 224.992 222.939 224.506 223.218 224.077C223.497 223.648 223.881 223.31 224.369 223.062C224.861 222.815 225.421 222.691 226.048 222.691C226.669 222.691 227.224 222.815 227.712 223.062C228.2 223.31 228.584 223.648 228.862 224.077C229.145 224.506 229.288 224.992 229.291 225.536C229.288 226.105 229.133 226.612 228.826 227.058C228.522 227.501 228.12 227.789 227.618 227.921V227.984C228.005 228.054 228.353 228.22 228.664 228.481C228.974 228.739 229.222 229.062 229.406 229.449C229.591 229.832 229.685 230.251 229.689 230.704C229.685 231.283 229.529 231.799 229.218 232.253C228.911 232.702 228.484 233.056 227.937 233.314C227.393 233.569 226.763 233.696 226.048 233.696ZM226.048 232.545C226.533 232.545 226.952 232.467 227.304 232.31C227.656 232.153 227.928 231.932 228.12 231.646C228.312 231.36 228.409 231.025 228.413 230.641C228.409 230.237 228.305 229.88 228.099 229.569C227.893 229.259 227.612 229.015 227.257 228.837C226.904 228.659 226.502 228.57 226.048 228.57C225.592 228.57 225.184 228.659 224.824 228.837C224.469 229.015 224.188 229.259 223.982 229.569C223.78 229.88 223.681 230.237 223.684 230.641C223.681 231.025 223.773 231.36 223.961 231.646C224.153 231.932 224.427 232.153 224.782 232.31C225.138 232.467 225.56 232.545 226.048 232.545ZM226.048 227.461C226.432 227.461 226.772 227.384 227.068 227.231C227.368 227.078 227.604 226.863 227.774 226.588C227.945 226.312 228.033 225.99 228.036 225.62C228.033 225.257 227.947 224.942 227.78 224.673C227.612 224.401 227.38 224.192 227.084 224.045C226.788 223.896 226.442 223.821 226.048 223.821C225.647 223.821 225.297 223.896 224.997 224.045C224.697 224.192 224.465 224.401 224.301 224.673C224.137 224.942 224.057 225.257 224.061 225.62C224.057 225.99 224.139 226.312 224.306 226.588C224.477 226.863 224.713 227.078 225.013 227.231C225.313 227.384 225.658 227.461 226.048 227.461ZM232.028 233.55L236.82 224.072V223.988H231.296V222.837H238.159V224.051L233.388 233.55H232.028ZM240.13 233.55V225.515H241.322V226.771H241.427C241.594 226.342 241.864 226.009 242.238 225.772C242.611 225.531 243.059 225.411 243.582 225.411C244.112 225.411 244.553 225.531 244.905 225.772C245.261 226.009 245.538 226.342 245.737 226.771H245.821C246.026 226.356 246.335 226.026 246.746 225.782C247.158 225.535 247.651 225.411 248.227 225.411C248.945 225.411 249.533 225.636 249.99 226.085C250.446 226.532 250.675 227.228 250.675 228.173V233.55H249.44V228.173C249.44 227.58 249.278 227.156 248.954 226.901C248.63 226.647 248.248 226.52 247.808 226.52C247.243 226.52 246.806 226.691 246.495 227.032C246.185 227.371 246.03 227.799 246.03 228.319V233.55H244.774V228.047C244.774 227.59 244.626 227.222 244.33 226.943C244.033 226.661 243.652 226.52 243.184 226.52C242.864 226.52 242.564 226.605 242.285 226.776C242.009 226.947 241.786 227.184 241.615 227.487C241.448 227.787 241.364 228.134 241.364 228.528V233.55H240.13Z" fill="#4D5C6C"/>
<path d="M37.7773 212.237C37.7773 209.041 40.3681 206.45 43.564 206.45H261.332V249.649H43.564C40.3681 249.649 37.7773 247.059 37.7773 243.863V212.237Z" stroke="#DDE7F0" stroke-width="1.05213"/>
</g>
<path d="M261.858 205.924H349.735C352.059 205.924 353.943 207.809 353.943 210.133V245.967C353.943 248.291 352.059 250.176 349.735 250.176H261.858V205.924Z" fill="#7556DC"/>
<path d="M284.23 233.55V222.837H291.197V224.464H286.171V227.372H290.837V228.999H286.171V231.923H291.239V233.55H284.23ZM293.094 233.55V225.515H294.903V226.881H294.998C295.165 226.42 295.442 226.061 295.829 225.803C296.216 225.541 296.678 225.411 297.215 225.411C297.759 225.411 298.218 225.543 298.591 225.808C298.968 226.07 299.233 226.427 299.386 226.881H299.47C299.648 226.434 299.948 226.079 300.37 225.813C300.795 225.545 301.299 225.411 301.881 225.411C302.621 225.411 303.224 225.644 303.691 226.112C304.158 226.579 304.392 227.261 304.392 228.157V233.55H302.493V228.45C302.493 227.951 302.361 227.587 302.096 227.357C301.831 227.123 301.506 227.006 301.123 227.006C300.666 227.006 300.309 227.149 300.051 227.435C299.796 227.717 299.669 228.085 299.669 228.539V233.55H297.812V228.371C297.812 227.956 297.686 227.625 297.435 227.377C297.188 227.13 296.863 227.006 296.462 227.006C296.19 227.006 295.943 227.076 295.719 227.215C295.496 227.351 295.318 227.545 295.186 227.796C295.053 228.044 294.987 228.333 294.987 228.664V233.55H293.094ZM306.397 233.55V222.837H308.29V226.844H308.369C308.466 226.649 308.604 226.441 308.782 226.221C308.96 225.998 309.2 225.808 309.504 225.651C309.807 225.491 310.194 225.411 310.665 225.411C311.286 225.411 311.846 225.569 312.344 225.887C312.846 226.201 313.244 226.666 313.537 227.283C313.833 227.897 313.981 228.65 313.981 229.543C313.981 230.425 313.837 231.175 313.547 231.792C313.258 232.409 312.864 232.88 312.365 233.205C311.866 233.529 311.302 233.691 310.67 233.691C310.21 233.691 309.828 233.614 309.525 233.461C309.221 233.307 308.977 233.123 308.792 232.906C308.611 232.687 308.47 232.479 308.369 232.284H308.259V233.55H306.397ZM308.254 229.533C308.254 230.052 308.327 230.507 308.473 230.898C308.623 231.288 308.838 231.593 309.117 231.813C309.399 232.029 309.741 232.137 310.142 232.137C310.56 232.137 310.911 232.026 311.193 231.803C311.476 231.576 311.689 231.267 311.832 230.877C311.978 230.483 312.051 230.035 312.051 229.533C312.051 229.034 311.98 228.591 311.837 228.204C311.694 227.817 311.481 227.513 311.199 227.294C310.916 227.074 310.564 226.964 310.142 226.964C309.738 226.964 309.394 227.071 309.112 227.283C308.829 227.496 308.615 227.794 308.468 228.178C308.325 228.561 308.254 229.013 308.254 229.533ZM319.148 233.707C318.343 233.707 317.647 233.539 317.061 233.205C316.479 232.866 316.031 232.389 315.717 231.771C315.403 231.151 315.246 230.42 315.246 229.58C315.246 228.753 315.403 228.028 315.717 227.404C316.034 226.776 316.477 226.288 317.045 225.939C317.614 225.587 318.282 225.411 319.049 225.411C319.544 225.411 320.011 225.491 320.451 225.651C320.893 225.808 321.284 226.052 321.622 226.384C321.964 226.715 322.233 227.137 322.428 227.649C322.623 228.159 322.721 228.765 322.721 229.47V230.05H316.135V228.774H320.906C320.902 228.411 320.824 228.089 320.67 227.806C320.517 227.52 320.302 227.296 320.027 227.132C319.755 226.968 319.438 226.886 319.075 226.886C318.688 226.886 318.348 226.98 318.055 227.168C317.762 227.353 317.534 227.597 317.37 227.901C317.209 228.2 317.127 228.53 317.124 228.889V230.003C317.124 230.471 317.209 230.872 317.38 231.206C317.551 231.538 317.79 231.792 318.097 231.97C318.404 232.144 318.763 232.232 319.174 232.232C319.45 232.232 319.699 232.193 319.922 232.117C320.145 232.036 320.339 231.92 320.503 231.766C320.667 231.613 320.791 231.423 320.874 231.196L322.642 231.395C322.531 231.862 322.318 232.27 322.004 232.619C321.694 232.964 321.296 233.232 320.811 233.424C320.327 233.613 319.772 233.707 319.148 233.707ZM327.304 233.691C326.673 233.691 326.108 233.529 325.609 233.205C325.111 232.88 324.717 232.409 324.427 231.792C324.138 231.175 323.993 230.425 323.993 229.543C323.993 228.65 324.14 227.897 324.432 227.283C324.729 226.666 325.128 226.201 325.63 225.887C326.132 225.569 326.692 225.411 327.309 225.411C327.78 225.411 328.167 225.491 328.471 225.651C328.774 225.808 329.015 225.998 329.192 226.221C329.37 226.441 329.508 226.649 329.606 226.844H329.684V222.837H331.583V233.55H329.721V232.284H329.606C329.508 232.479 329.367 232.687 329.182 232.906C328.997 233.123 328.753 233.307 328.45 233.461C328.146 233.614 327.764 233.691 327.304 233.691ZM327.832 232.137C328.234 232.137 328.575 232.029 328.858 231.813C329.14 231.593 329.355 231.288 329.501 230.898C329.648 230.507 329.721 230.052 329.721 229.533C329.721 229.013 329.648 228.561 329.501 228.178C329.358 227.794 329.145 227.496 328.863 227.283C328.584 227.071 328.24 226.964 327.832 226.964C327.411 226.964 327.058 227.074 326.776 227.294C326.493 227.513 326.281 227.817 326.138 228.204C325.995 228.591 325.923 229.034 325.923 229.533C325.923 230.035 325.995 230.483 326.138 230.877C326.284 231.267 326.499 231.576 326.781 231.803C327.067 232.026 327.418 232.137 327.832 232.137Z" fill="white"/>
<rect x="12.5261" y="8.52607" width="366.142" height="266.19" rx="3.68246" stroke="#EBF2F7" stroke-width="1.05213"/>
</g>
<g filter="url(#filter2_d_4628_31760)">
<mask id="path-14-outside-1_4628_31760" maskUnits="userSpaceOnUse" x="290.92" y="64.9194" width="17" height="18" fill="black">
<rect fill="white" x="290.92" y="64.9194" width="17" height="18"/>
<path fill-rule="evenodd" clip-rule="evenodd" d="M303.441 81.6493L302.389 79.545L301.337 81.6493H297.128V80.5587C297.128 79.6973 293.761 77.2971 293.761 77.2971C293.297 76.9517 292.92 76.2074 292.92 75.621V71.8294C292.92 70.6243 293.862 69.6472 295.024 69.6472V72.9205H296.076V67.8289C296.076 67.3264 296.469 66.9194 296.953 66.9194C297.922 66.9194 298.707 67.7334 298.707 68.7378V68.3744C298.707 67.872 299.099 67.465 299.584 67.465C300.552 67.465 301.337 68.2789 301.337 69.2833V68.92C301.337 68.4175 301.729 68.0105 302.214 67.9716C303.182 68.0105 303.967 68.8245 303.967 69.8289V69.4655C303.967 68.9631 304.36 68.5561 304.844 68.5561C305.813 68.5561 306.598 69.37 306.598 70.3744V75.341C306.598 75.9196 306.348 76.7897 306.045 77.2906C306.045 77.2906 304.493 79.6973 304.493 80.5587V81.6493H303.441ZM299.233 73.2322H300.285V77.4408H299.233V73.2322ZM301.337 73.2322H302.389V77.4408H301.337V73.2322ZM303.441 73.2322H304.493V77.4408H303.441V73.2322Z"/>
</mask>
<path fill-rule="evenodd" clip-rule="evenodd" d="M303.441 81.6493L302.389 79.545L301.337 81.6493H297.128V80.5587C297.128 79.6973 293.761 77.2971 293.761 77.2971C293.297 76.9517 292.92 76.2074 292.92 75.621V71.8294C292.92 70.6243 293.862 69.6472 295.024 69.6472V72.9205H296.076V67.8289C296.076 67.3264 296.469 66.9194 296.953 66.9194C297.922 66.9194 298.707 67.7334 298.707 68.7378V68.3744C298.707 67.872 299.099 67.465 299.584 67.465C300.552 67.465 301.337 68.2789 301.337 69.2833V68.92C301.337 68.4175 301.729 68.0105 302.214 67.9716C303.182 68.0105 303.967 68.8245 303.967 69.8289V69.4655C303.967 68.9631 304.36 68.5561 304.844 68.5561C305.813 68.5561 306.598 69.37 306.598 70.3744V75.341C306.598 75.9196 306.348 76.7897 306.045 77.2906C306.045 77.2906 304.493 79.6973 304.493 80.5587V81.6493H303.441ZM299.233 73.2322H300.285V77.4408H299.233V73.2322ZM301.337 73.2322H302.389V77.4408H301.337V73.2322ZM303.441 73.2322H304.493V77.4408H303.441V73.2322Z" fill="white"/>
<path d="M303.441 81.6493L302.5 82.1198L302.791 82.7014H303.441V81.6493ZM302.389 79.545L303.33 79.0745L302.389 77.1924L301.448 79.0745L302.389 79.545ZM301.337 81.6493V82.7014H301.987L302.278 82.1198L301.337 81.6493ZM297.128 81.6493H296.076V82.7014H297.128V81.6493ZM293.761 77.2971L293.134 78.1416L293.142 78.1478L293.151 78.1538L293.761 77.2971ZM295.024 69.6472H296.076V68.5951H295.024V69.6472ZM295.024 72.9205H293.972V73.9726H295.024V72.9205ZM296.076 72.9205V73.9726H297.128V72.9205H296.076ZM302.214 67.9716L302.256 66.9203L302.193 66.9177L302.13 66.9228L302.214 67.9716ZM306.045 77.2906L306.929 77.8607L306.937 77.8482L306.945 77.8355L306.045 77.2906ZM304.493 81.6493V82.7014H305.546V81.6493H304.493ZM300.285 73.2322H301.337V72.1801L300.285 72.1801V73.2322ZM300.285 77.4408V78.4929H301.337V77.4408H300.285ZM299.233 77.4408H298.181V78.4929H299.233V77.4408ZM302.389 73.2322H303.441V72.1801L302.389 72.1801V73.2322ZM302.389 77.4408V78.4929H303.441V77.4408H302.389ZM301.337 77.4408H300.285V78.4929H301.337V77.4408ZM304.493 73.2322H305.546V72.1801L304.493 72.1801V73.2322ZM304.493 77.4408V78.4929H305.546V77.4408H304.493ZM303.441 77.4408H302.389V78.4929H303.441V77.4408ZM304.382 81.1788L303.33 79.0745L301.448 80.0156L302.5 82.1198L304.382 81.1788ZM301.448 79.0745L300.396 81.1788L302.278 82.1198L303.33 80.0156L301.448 79.0745ZM301.337 80.5972H297.128V82.7014H301.337V80.5972ZM298.181 81.6493V80.5587H296.076V81.6493H298.181ZM298.181 80.5587C298.181 80.1493 297.998 79.8097 297.877 79.6157C297.738 79.3915 297.56 79.1739 297.38 78.9768C297.018 78.5799 296.556 78.1645 296.122 77.7996C295.683 77.4301 295.246 77.0913 294.922 76.8461C294.759 76.7231 294.623 76.6227 294.527 76.5526C294.479 76.5175 294.441 76.49 294.415 76.471C294.402 76.4615 294.391 76.4541 294.384 76.4489C294.381 76.4464 294.378 76.4444 294.376 76.4429C294.375 76.4422 294.374 76.4416 294.373 76.4412C294.373 76.441 294.373 76.4408 294.373 76.4407C294.373 76.4406 294.372 76.4405 294.372 76.4405C294.372 76.4404 294.372 76.4404 293.761 77.2971C293.151 78.1538 293.151 78.1538 293.151 78.1537C293.151 78.1537 293.151 78.1537 293.151 78.1537C293.151 78.1537 293.151 78.1538 293.151 78.1538C293.151 78.154 293.151 78.1543 293.152 78.1547C293.153 78.1556 293.155 78.1571 293.158 78.1591C293.164 78.163 293.172 78.1692 293.184 78.1775C293.207 78.1941 293.241 78.219 293.285 78.2512C293.373 78.3158 293.5 78.4096 293.653 78.5251C293.96 78.7569 294.366 79.0719 294.768 79.4102C295.176 79.753 295.555 80.0991 295.825 80.3946C295.961 80.5437 296.046 80.6549 296.09 80.7268C296.154 80.829 296.076 80.7528 296.076 80.5587H298.181ZM294.389 76.4526C294.321 76.4024 294.206 76.2745 294.106 76.0764C294.007 75.8785 293.972 75.7085 293.972 75.621H291.868C291.868 76.1198 292.022 76.6152 292.227 77.0225C292.431 77.4294 292.737 77.8464 293.134 78.1416L294.389 76.4526ZM293.972 75.621V71.8294H291.868V75.621H293.972ZM293.972 71.8294C293.972 71.1689 294.479 70.6993 295.024 70.6993V68.5951C293.245 68.5951 291.868 70.0796 291.868 71.8294H293.972ZM293.972 69.6472V72.9205H296.076V69.6472H293.972ZM295.024 73.9726H296.076V71.8684H295.024V73.9726ZM297.128 72.9205V67.8289H295.024V72.9205H297.128ZM297.128 67.8289C297.128 67.8554 297.117 67.8883 297.09 67.9161C297.063 67.9444 297.014 67.9716 296.953 67.9716V65.8673C295.852 65.8673 295.024 66.7817 295.024 67.8289H297.128ZM296.953 67.9716C297.305 67.9716 297.655 68.2781 297.655 68.7378H299.759C299.759 67.1887 298.539 65.8673 296.953 65.8673V67.9716ZM299.759 68.7378V68.3744H297.655V68.7378H299.759ZM299.759 68.3744C299.759 68.4009 299.748 68.4339 299.721 68.4616C299.693 68.49 299.644 68.5171 299.584 68.5171V66.4129C298.482 66.4129 297.655 67.3273 297.655 68.3744H299.759ZM299.584 68.5171C299.935 68.5171 300.285 68.8236 300.285 69.2833H302.389C302.389 67.7343 301.169 66.4129 299.584 66.4129V68.5171ZM302.389 69.2833V68.92H300.285V69.2833H302.389ZM302.389 68.92C302.389 68.9491 302.376 68.9755 302.362 68.9912C302.349 69.0051 302.327 69.018 302.298 69.0203L302.13 66.9228C301.113 67.0046 300.285 67.8551 300.285 68.92H302.389ZM302.172 69.0228C302.565 69.0387 302.915 69.3786 302.915 69.8289H305.019C305.019 68.2704 303.799 66.9824 302.256 66.9203L302.172 69.0228ZM305.019 69.8289V69.4655H302.915V69.8289H305.019ZM305.019 69.4655C305.019 69.492 305.008 69.525 304.981 69.5527C304.954 69.5811 304.905 69.6082 304.844 69.6082V67.504C303.743 67.504 302.915 68.4184 302.915 69.4655H305.019ZM304.844 69.6082C305.196 69.6082 305.546 69.9147 305.546 70.3744H307.65C307.65 68.8254 306.43 67.504 304.844 67.504V69.6082ZM305.546 70.3744V75.341H307.65V70.3744H305.546ZM305.546 75.341C305.546 75.501 305.507 75.7615 305.423 76.0569C305.339 76.351 305.233 76.5996 305.145 76.7457L306.945 77.8355C307.16 77.4807 307.33 77.0438 307.447 76.633C307.563 76.2234 307.65 75.7596 307.65 75.341H305.546ZM306.045 77.2906C305.16 76.7206 305.16 76.7206 305.16 76.7207C305.16 76.7208 305.16 76.7209 305.16 76.721C305.16 76.7211 305.16 76.7213 305.16 76.7216C305.159 76.722 305.159 76.7227 305.159 76.7234C305.158 76.725 305.156 76.7271 305.155 76.7298C305.151 76.7352 305.146 76.7428 305.14 76.7526C305.128 76.7721 305.11 76.8002 305.087 76.8358C305.043 76.9071 304.979 77.0088 304.903 77.1333C304.753 77.3814 304.55 77.7238 304.346 78.0969C304.144 78.4667 303.931 78.8837 303.766 79.2777C303.619 79.6267 303.441 80.1119 303.441 80.5587H305.546C305.546 80.5748 305.562 80.4362 305.706 80.0916C305.832 79.7921 306.007 79.446 306.192 79.1064C306.376 78.7701 306.561 78.457 306.701 78.2269C306.771 78.1123 306.829 78.0193 306.869 77.9556C306.889 77.9238 306.904 77.8993 306.915 77.8831C306.92 77.875 306.924 77.869 306.926 77.8653C306.927 77.8634 306.928 77.862 306.929 77.8613C306.929 77.8609 306.929 77.8606 306.929 77.8605C306.929 77.8605 306.929 77.8605 306.929 77.8605C306.929 77.8605 306.929 77.8605 306.929 77.8605C306.929 77.8606 306.929 77.8607 306.045 77.2906ZM303.441 80.5587V81.6493H305.546V80.5587H303.441ZM304.493 80.5972H303.441V82.7014H304.493V80.5972ZM299.233 74.2844L300.285 74.2844L300.285 72.1801H299.233V74.2844ZM299.233 73.2322V77.4408H301.337V73.2322H299.233ZM300.285 76.3886H299.233V78.4929H300.285V76.3886ZM300.285 77.4408V73.2322H298.181V77.4408H300.285ZM301.337 74.2844L302.389 74.2844V72.1801H301.337V74.2844ZM301.337 73.2322V77.4408H303.441V73.2322H301.337ZM302.389 76.3886H301.337V78.4929H302.389V76.3886ZM302.389 77.4408V73.2322H300.285V77.4408H302.389ZM303.441 74.2844L304.493 74.2844V72.1801H303.441V74.2844ZM303.441 73.2322V77.4408H305.546V73.2322H303.441ZM304.493 76.3886H303.441V78.4929H304.493V76.3886ZM304.493 77.4408V73.2322H302.389V77.4408H304.493Z" fill="black" fill-opacity="0.8" mask="url(#path-14-outside-1_4628_31760)"/>
</g>
<g filter="url(#filter3_dddd_4628_31760)">
<rect x="313.962" y="58.5024" width="142.251" height="33.6682" rx="16.8341" fill="#EFEBFE"/>
<path d="M328.233 81.7109V72.5287H329.949V74.0232H330.062C330.253 73.5171 330.566 73.1225 331.001 72.8395C331.435 72.5526 331.955 72.4091 332.561 72.4091C333.175 72.4091 333.689 72.5526 334.103 72.8395C334.522 73.1265 334.831 73.521 335.03 74.0232H335.126C335.345 73.533 335.693 73.1424 336.172 72.8515C336.65 72.5566 337.22 72.4091 337.881 72.4091C338.714 72.4091 339.394 72.6702 339.92 73.1922C340.45 73.7143 340.715 74.5014 340.715 75.5536V81.7109H338.928V75.721C338.928 75.0992 338.758 74.6489 338.419 74.3699C338.081 74.0909 337.676 73.9515 337.206 73.9515C336.624 73.9515 336.172 74.1308 335.849 74.4895C335.526 74.8442 335.365 75.3005 335.365 75.8584V81.7109H333.583V75.6074C333.583 75.1092 333.428 74.7087 333.117 74.4058C332.806 74.1029 332.402 73.9515 331.903 73.9515C331.565 73.9515 331.252 74.0411 330.965 74.2205C330.682 74.3958 330.453 74.6409 330.277 74.9558C330.106 75.2706 330.02 75.6353 330.02 76.0497V81.7109H328.233ZM343.912 85.1543C343.645 85.1543 343.402 85.1324 343.182 85.0885C342.963 85.0487 342.8 85.0048 342.692 84.957L343.123 83.4924C343.449 83.5801 343.74 83.6179 343.995 83.606C344.251 83.594 344.476 83.4984 344.671 83.319C344.87 83.1397 345.046 82.8468 345.197 82.4403L345.418 81.8305L342.059 72.5287H343.972L346.297 79.6545H346.393L348.718 72.5287H350.637L346.853 82.9364C346.678 83.4147 346.454 83.8192 346.183 84.15C345.912 84.4847 345.59 84.7358 345.215 84.9032C344.84 85.0706 344.406 85.1543 343.912 85.1543ZM352.317 85.1543V72.5287H354.062V74.0172H354.212C354.316 73.8259 354.465 73.6047 354.66 73.3537C354.856 73.1026 355.127 72.8834 355.473 72.6961C355.82 72.5048 356.278 72.4091 356.848 72.4091C357.589 72.4091 358.251 72.5964 358.833 72.9711C359.415 73.3457 359.871 73.8857 360.202 74.5911C360.537 75.2965 360.704 76.1454 360.704 77.1377C360.704 78.1301 360.539 78.981 360.208 79.6904C359.877 80.3958 359.423 80.9398 358.845 81.3224C358.267 81.701 357.607 81.8903 356.866 81.8903C356.308 81.8903 355.852 81.7966 355.497 81.6093C355.146 81.422 354.871 81.2028 354.672 80.9517C354.473 80.7007 354.319 80.4775 354.212 80.2822H354.104V85.1543H352.317ZM354.068 77.1198C354.068 77.7654 354.162 78.3314 354.349 78.8176C354.537 79.3038 354.808 79.6844 355.162 79.9594C355.517 80.2304 355.951 80.3659 356.466 80.3659C357 80.3659 357.446 80.2244 357.805 79.9414C358.163 79.6545 358.434 79.2659 358.618 78.7757C358.805 78.2855 358.899 77.7336 358.899 77.1198C358.899 76.514 358.807 75.97 358.624 75.4878C358.444 75.0056 358.173 74.625 357.811 74.346C357.452 74.067 357.004 73.9275 356.466 73.9275C355.948 73.9275 355.509 74.0611 355.15 74.3281C354.796 74.5951 354.527 74.9677 354.343 75.446C354.16 75.9242 354.068 76.4822 354.068 77.1198ZM362.707 81.7109V72.5287H364.494V81.7109H362.707ZM363.609 71.1119C363.298 71.1119 363.031 71.0083 362.808 70.801C362.589 70.5898 362.479 70.3387 362.479 70.0478C362.479 69.7529 362.589 69.5018 362.808 69.2946C363.031 69.0834 363.298 68.9777 363.609 68.9777C363.92 68.9777 364.185 69.0834 364.404 69.2946C364.628 69.5018 364.739 69.7529 364.739 70.0478C364.739 70.3387 364.628 70.5898 364.404 70.801C364.185 71.0083 363.92 71.1119 363.609 71.1119ZM370.767 81.8963C369.878 81.8963 369.113 81.695 368.471 81.2925C367.833 80.886 367.343 80.326 367 79.6127C366.658 78.8993 366.486 78.0823 366.486 77.1617C366.486 76.2291 366.662 75.4061 367.012 74.6927C367.363 73.9754 367.857 73.4154 368.495 73.0129C369.133 72.6104 369.884 72.4091 370.749 72.4091C371.446 72.4091 372.068 72.5387 372.614 72.7977C373.16 73.0528 373.6 73.4114 373.935 73.8737C374.274 74.336 374.475 74.8761 374.539 75.4938H372.799C372.703 75.0634 372.484 74.6927 372.141 74.3819C371.803 74.071 371.348 73.9156 370.778 73.9156C370.28 73.9156 369.844 74.0471 369.469 74.3101C369.099 74.5692 368.81 74.9398 368.602 75.4221C368.395 75.9003 368.292 76.4662 368.292 77.1198C368.292 77.7894 368.393 78.3672 368.597 78.8534C368.8 79.3397 369.087 79.7163 369.457 79.9833C369.832 80.2503 370.272 80.3838 370.778 80.3838C371.117 80.3838 371.424 80.322 371.699 80.1985C371.978 80.071 372.211 79.8896 372.399 79.6545C372.59 79.4194 372.723 79.1364 372.799 78.8056H374.539C374.475 79.3994 374.282 79.9295 373.959 80.3958C373.636 80.8621 373.204 81.2287 372.662 81.4957C372.124 81.7627 371.492 81.8963 370.767 81.8963ZM380.736 72.5287V73.9634H375.721V72.5287H380.736ZM377.066 70.3288H378.853V79.0148C378.853 79.3616 378.905 79.6226 379.009 79.798C379.112 79.9693 379.246 80.0869 379.409 80.1507C379.577 80.2105 379.758 80.2403 379.953 80.2403C380.097 80.2403 380.222 80.2304 380.33 80.2105C380.437 80.1905 380.521 80.1746 380.581 80.1626L380.904 81.6392C380.8 81.6791 380.653 81.7189 380.461 81.7588C380.27 81.8026 380.031 81.8265 379.744 81.8305C379.274 81.8385 378.835 81.7548 378.429 81.5794C378.022 81.4041 377.694 81.1331 377.442 80.7664C377.191 80.3998 377.066 79.9394 377.066 79.3855V70.3288ZM388.53 77.9029V72.5287H390.324V81.7109H388.566V80.1208H388.47C388.259 80.611 387.92 81.0195 387.454 81.3463C386.992 81.6691 386.416 81.8305 385.727 81.8305C385.137 81.8305 384.615 81.701 384.16 81.4419C383.71 81.1789 383.355 80.7903 383.096 80.2762C382.841 79.7621 382.714 79.1264 382.714 78.3692V72.5287H384.501V78.154C384.501 78.7797 384.674 79.2779 385.021 79.6485C385.368 80.0192 385.818 80.2045 386.372 80.2045C386.707 80.2045 387.04 80.1208 387.371 79.9534C387.705 79.786 387.982 79.5329 388.201 79.1942C388.425 78.8554 388.534 78.425 388.53 77.9029ZM392.725 81.7109V72.5287H394.453V73.9873H394.549C394.716 73.4931 395.011 73.1046 395.433 72.8216C395.86 72.5347 396.342 72.3912 396.88 72.3912C396.992 72.3912 397.123 72.3952 397.275 72.4031C397.43 72.4111 397.552 72.4211 397.639 72.433V74.1428C397.568 74.1228 397.44 74.1009 397.257 74.077C397.073 74.0491 396.89 74.0352 396.707 74.0352C396.284 74.0352 395.908 74.1248 395.577 74.3042C395.25 74.4795 394.991 74.7246 394.8 75.0395C394.608 75.3503 394.513 75.705 394.513 76.1035V81.7109H392.725ZM402.815 81.8963C401.91 81.8963 401.131 81.703 400.477 81.3164C399.828 80.9258 399.326 80.3778 398.971 79.6724C398.62 78.963 398.445 78.1321 398.445 77.1796C398.445 76.239 398.62 75.4101 398.971 74.6927C399.326 73.9754 399.82 73.4154 400.453 73.0129C401.091 72.6104 401.836 72.4091 402.689 72.4091C403.207 72.4091 403.709 72.4948 404.196 72.6662C404.682 72.8376 405.118 73.1066 405.505 73.4732C405.891 73.8399 406.196 74.3161 406.419 74.902C406.643 75.4838 406.754 76.1912 406.754 77.0242V77.6578H399.455V76.3188H405.003C405.003 75.8485 404.907 75.432 404.716 75.0693C404.524 74.7027 404.255 74.4138 403.909 74.2025C403.566 73.9913 403.163 73.8857 402.701 73.8857C402.199 73.8857 401.761 74.0092 401.386 74.2563C401.015 74.4994 400.728 74.8183 400.525 75.2128C400.326 75.6034 400.226 76.0278 400.226 76.4861V77.5323C400.226 78.146 400.334 78.6681 400.549 79.0985C400.768 79.529 401.073 79.8577 401.464 80.0849C401.854 80.3081 402.311 80.4197 402.833 80.4197C403.171 80.4197 403.48 80.3719 403.759 80.2762C404.038 80.1766 404.279 80.0291 404.483 79.8338C404.686 79.6386 404.841 79.3974 404.949 79.1105L406.641 79.4154C406.505 79.9135 406.262 80.3499 405.911 80.7246C405.565 81.0952 405.128 81.3841 404.602 81.5914C404.08 81.7946 403.484 81.8963 402.815 81.8963ZM409.915 81.8245C409.588 81.8245 409.307 81.7089 409.072 81.4778C408.837 81.2427 408.72 80.9597 408.72 80.6289C408.72 80.3021 408.837 80.0231 409.072 79.792C409.307 79.5569 409.588 79.4393 409.915 79.4393C410.242 79.4393 410.523 79.5569 410.758 79.792C410.993 80.0231 411.111 80.3021 411.111 80.6289C411.111 80.8481 411.055 81.0494 410.943 81.2327C410.836 81.412 410.692 81.5555 410.513 81.6631C410.334 81.7707 410.134 81.8245 409.915 81.8245ZM413.505 85.1543V72.5287H415.251V74.0172H415.4C415.504 73.8259 415.653 73.6047 415.848 73.3537C416.044 73.1026 416.315 72.8834 416.661 72.6961C417.008 72.5048 417.466 72.4091 418.036 72.4091C418.778 72.4091 419.439 72.5964 420.021 72.9711C420.603 73.3457 421.059 73.8857 421.39 74.5911C421.725 75.2965 421.892 76.1454 421.892 77.1377C421.892 78.1301 421.727 78.981 421.396 79.6904C421.065 80.3958 420.611 80.9398 420.033 81.3224C419.455 81.701 418.795 81.8903 418.054 81.8903C417.496 81.8903 417.04 81.7966 416.685 81.6093C416.335 81.422 416.06 81.2028 415.86 80.9517C415.661 80.7007 415.508 80.4775 415.4 80.2822H415.292V85.1543H413.505ZM415.257 77.1198C415.257 77.7654 415.35 78.3314 415.537 78.8176C415.725 79.3038 415.996 79.6844 416.35 79.9594C416.705 80.2304 417.14 80.3659 417.654 80.3659C418.188 80.3659 418.634 80.2244 418.993 79.9414C419.351 79.6545 419.622 79.2659 419.806 78.7757C419.993 78.2855 420.087 77.7336 420.087 77.1198C420.087 76.514 419.995 75.97 419.812 75.4878C419.632 75.0056 419.361 74.625 418.999 74.346C418.64 74.067 418.192 73.9275 417.654 73.9275C417.136 73.9275 416.697 74.0611 416.339 74.3281C415.984 74.5951 415.715 74.9677 415.531 75.446C415.348 75.9242 415.257 76.4822 415.257 77.1198ZM425.682 76.259V81.7109H423.895V72.5287H425.61V74.0232H425.724C425.935 73.537 426.266 73.1464 426.716 72.8515C427.171 72.5566 427.743 72.4091 428.432 72.4091C429.058 72.4091 429.606 72.5406 430.076 72.8037C430.546 73.0627 430.911 73.4493 431.17 73.9634C431.429 74.4775 431.559 75.1132 431.559 75.8704V81.7109H429.771V76.0856C429.771 75.4201 429.598 74.9 429.251 74.5253C428.904 74.1467 428.428 73.9574 427.822 73.9574C427.408 73.9574 427.039 74.0471 426.716 74.2264C426.398 74.4058 426.144 74.6688 425.957 75.0155C425.774 75.3583 425.682 75.7728 425.682 76.259ZM437.806 85.3456C437.076 85.3456 436.449 85.2499 435.923 85.0586C435.4 84.8673 434.974 84.6143 434.643 84.2994C434.312 83.9846 434.065 83.6398 433.902 83.2652L435.438 82.6316C435.546 82.8069 435.689 82.9922 435.869 83.1875C436.052 83.3868 436.299 83.5562 436.61 83.6956C436.925 83.8351 437.329 83.9049 437.824 83.9049C438.501 83.9049 439.061 83.7395 439.503 83.4087C439.946 83.0819 440.167 82.5598 440.167 81.8425V80.0371H440.053C439.946 80.2324 439.79 80.4496 439.587 80.6887C439.388 80.9278 439.113 81.1351 438.762 81.3104C438.411 81.4858 437.955 81.5734 437.393 81.5734C436.668 81.5734 436.014 81.4041 435.432 81.0653C434.854 80.7226 434.396 80.2184 434.057 79.5529C433.723 78.8833 433.555 78.0604 433.555 77.0839C433.555 76.1075 433.721 75.2706 434.051 74.5732C434.386 73.8757 434.845 73.3417 435.426 72.9711C436.008 72.5964 436.668 72.4091 437.405 72.4091C437.975 72.4091 438.435 72.5048 438.786 72.6961C439.137 72.8834 439.41 73.1026 439.605 73.3537C439.804 73.6047 439.958 73.8259 440.065 74.0172H440.197V72.5287H441.948V81.9142C441.948 82.7033 441.765 83.3509 441.398 83.857C441.032 84.3632 440.536 84.7378 439.91 84.9809C439.288 85.224 438.587 85.3456 437.806 85.3456ZM437.788 80.0909C438.302 80.0909 438.736 79.9713 439.091 79.7322C439.45 79.4891 439.721 79.1424 439.904 78.692C440.091 78.2377 440.185 77.6937 440.185 77.06C440.185 76.4423 440.093 75.8983 439.91 75.428C439.727 74.9578 439.458 74.5911 439.103 74.3281C438.748 74.0611 438.31 73.9275 437.788 73.9275C437.25 73.9275 436.801 74.067 436.443 74.346C436.084 74.621 435.813 74.9956 435.63 75.4699C435.45 75.9441 435.361 76.4742 435.361 77.06C435.361 77.6618 435.452 78.1899 435.636 78.6442C435.819 79.0985 436.09 79.4532 436.449 79.7083C436.811 79.9634 437.258 80.0909 437.788 80.0909Z" fill="#5532C3"/>
<rect x="312.91" y="57.4503" width="144.355" height="35.7725" rx="17.8863" stroke="white" stroke-width="2.10427"/>
</g>
<defs>
<filter id="filter0_ddd_4628_31760" x="0.42654" y="0.635071" width="390.341" height="290.389" filterUnits="userSpaceOnUse" color-interpolation-filters="sRGB">
<feFlood flood-opacity="0" result="BackgroundImageFix"/>
<feColorMatrix in="SourceAlpha" type="matrix" values="0 0 0 0 0 0 0 0 0 0 0 0 0 0 0 0 0 0 127 0" result="hardAlpha"/>
<feOffset dy="0.526066"/>
<feGaussianBlur stdDeviation="0.526066"/>
<feColorMatrix type="matrix" values="0 0 0 0 0.152941 0 0 0 0 0.196078 0 0 0 0 0.337255 0 0 0 0.15 0"/>
<feBlend mode="multiply" in2="BackgroundImageFix" result="effect1_dropShadow_4628_31760"/>
<feColorMatrix in="SourceAlpha" type="matrix" values="0 0 0 0 0 0 0 0 0 0 0 0 0 0 0 0 0 0 127 0" result="hardAlpha"/>
<feOffset dy="2.72775"/>
<feGaussianBlur stdDeviation="3.38899"/>
<feColorMatrix type="matrix" values="0 0 0 0 0.152941 0 0 0 0 0.196078 0 0 0 0 0.337255 0 0 0 0.08 0"/>
<feBlend mode="normal" in2="effect1_dropShadow_4628_31760" result="effect2_dropShadow_4628_31760"/>
<feColorMatrix in="SourceAlpha" type="matrix" values="0 0 0 0 0 0 0 0 0 0 0 0 0 0 0 0 0 0 127 0" result="hardAlpha"/>
<feOffset dy="4.20853"/>
<feGaussianBlur stdDeviation="5.78673"/>
<feColorMatrix type="matrix" values="0 0 0 0 0.152941 0 0 0 0 0.196078 0 0 0 0 0.337255 0 0 0 0.04 0"/>
<feBlend mode="normal" in2="effect2_dropShadow_4628_31760" result="effect3_dropShadow_4628_31760"/>
<feBlend mode="normal" in="SourceGraphic" in2="effect3_dropShadow_4628_31760" result="shape"/>
</filter>
<filter id="filter1_d_4628_31760" x="32.2512" y="201.924" width="234.607" height="54.2512" filterUnits="userSpaceOnUse" color-interpolation-filters="sRGB">
<feFlood flood-opacity="0" result="BackgroundImageFix"/>
<feColorMatrix in="SourceAlpha" type="matrix" values="0 0 0 0 0 0 0 0 0 0 0 0 0 0 0 0 0 0 127 0" result="hardAlpha"/>
<feOffset dy="1"/>
<feGaussianBlur stdDeviation="2.5"/>
<feColorMatrix type="matrix" values="0 0 0 0 0.107535 0 0 0 0 0.127854 0 0 0 0 0.158333 0 0 0 0.07 0"/>
<feBlend mode="normal" in2="BackgroundImageFix" result="effect1_dropShadow_4628_31760"/>
<feBlend mode="normal" in="SourceGraphic" in2="effect1_dropShadow_4628_31760" result="shape"/>
</filter>
<filter id="filter2_d_4628_31760" x="288.711" y="63.7629" width="22.095" height="23.147" filterUnits="userSpaceOnUse" color-interpolation-filters="sRGB">
<feFlood flood-opacity="0" result="BackgroundImageFix"/>
<feColorMatrix in="SourceAlpha" type="matrix" values="0 0 0 0 0 0 0 0 0 0 0 0 0 0 0 0 0 0 127 0" result="hardAlpha"/>
<feOffset dy="1.05213"/>
<feGaussianBlur stdDeviation="1.5782"/>
<feColorMatrix type="matrix" values="0 0 0 0 0 0 0 0 0 0 0 0 0 0 0 0 0 0 0.2 0"/>
<feBlend mode="normal" in2="BackgroundImageFix" result="effect1_dropShadow_4628_31760"/>
<feBlend mode="normal" in="SourceGraphic" in2="effect1_dropShadow_4628_31760" result="shape"/>
</filter>
<filter id="filter3_dddd_4628_31760" x="281.858" y="37.3982" width="206.46" height="97.8767" filterUnits="userSpaceOnUse" color-interpolation-filters="sRGB">
<feFlood flood-opacity="0" result="BackgroundImageFix"/>
<feColorMatrix in="SourceAlpha" type="matrix" values="0 0 0 0 0 0 0 0 0 0 0 0 0 0 0 0 0 0 127 0" result="hardAlpha"/>
<feOffset dy="0.203704"/>
<feGaussianBlur stdDeviation="0.314815"/>
<feColorMatrix type="matrix" values="0 0 0 0 0.239216 0 0 0 0 0.305882 0 0 0 0 0.521569 0 0 0 0.07 0"/>
<feBlend mode="normal" in2="BackgroundImageFix" result="effect1_dropShadow_4628_31760"/>
<feColorMatrix in="SourceAlpha" type="matrix" values="0 0 0 0 0 0 0 0 0 0 0 0 0 0 0 0 0 0 127 0" result="hardAlpha"/>
<feOffset dy="4.23704"/>
<feGaussianBlur stdDeviation="4.05"/>
<feColorMatrix type="matrix" values="0 0 0 0 0.239216 0 0 0 0 0.305882 0 0 0 0 0.521569 0 0 0 0.06 0"/>
<feBlend mode="normal" in2="effect1_dropShadow_4628_31760" result="effect2_dropShadow_4628_31760"/>
<feColorMatrix in="SourceAlpha" type="matrix" values="0 0 0 0 0 0 0 0 0 0 0 0 0 0 0 0 0 0 127 0" result="hardAlpha"/>
<feOffset dy="7.12963"/>
<feGaussianBlur stdDeviation="9.185"/>
<feColorMatrix type="matrix" values="0 0 0 0 0.239216 0 0 0 0 0.305882 0 0 0 0 0.521569 0 0 0 0.05 0"/>
<feBlend mode="normal" in2="effect2_dropShadow_4628_31760" result="effect3_dropShadow_4628_31760"/>
<feColorMatrix in="SourceAlpha" type="matrix" values="0 0 0 0 0 0 0 0 0 0 0 0 0 0 0 0 0 0 127 0" result="hardAlpha"/>
<feOffset dy="11"/>
<feGaussianBlur stdDeviation="15"/>
<feColorMatrix type="matrix" values="0 0 0 0 0.239216 0 0 0 0 0.305882 0 0 0 0 0.521569 0 0 0 0.04 0"/>
<feBlend mode="normal" in2="effect3_dropShadow_4628_31760" result="effect4_dropShadow_4628_31760"/>
<feBlend mode="normal" in="SourceGraphic" in2="effect4_dropShadow_4628_31760" result="shape"/>
</filter>
</defs>
</svg>
