<svg width="15" height="17" viewBox="0 0 15 17" fill="none" xmlns="http://www.w3.org/2000/svg">
<path d="M14.3828 8.34175C14.3531 8.19348 14.2819 8.05673 14.1773 7.9475C14.0727 7.83827 13.9392 7.76108 13.7924 7.72496L8.30451 6.35218L10.3341 1.61547C10.4048 1.4511 10.4182 1.26774 10.3722 1.09481C10.3262 0.92189 10.2235 0.769427 10.0805 0.66189C9.93773 0.553646 9.76267 0.496667 9.58356 0.500151C9.40444 0.503634 9.23173 0.567377 9.0933 0.681089L0.293461 7.88096C0.178677 7.97485 0.092252 8.09881 0.043836 8.23898C-0.00458001 8.37915 -0.0130808 8.53002 0.0192826 8.67474C0.051646 8.81946 0.1236 8.95234 0.227109 9.05854C0.330619 9.16474 0.46161 9.24007 0.605456 9.27613L5.98056 10.6209L3.30461 15.304C3.23557 15.4257 3.19961 15.5633 3.20031 15.7032C3.201 15.8431 3.23832 15.9803 3.30856 16.1013C3.37879 16.2223 3.47949 16.3227 3.60063 16.3927C3.72177 16.4626 3.85911 16.4996 3.99899 16.5C4.17213 16.5003 4.34065 16.4441 4.47898 16.34L14.0788 9.14013C14.1997 9.04939 14.2925 8.92622 14.3463 8.78492C14.4001 8.64361 14.4128 8.48995 14.3828 8.34175Z" fill="white"/>
</svg>
