<svg width="24" height="24" viewBox="0 0 24 24" fill="none" xmlns="http://www.w3.org/2000/svg">
<path d="M19.15 19H13.39V16.87C15.5 15.25 16.59 13.24 16.59 10.84C16.59 9.34001 16.16 8.16001 15.32 7.29001C14.47 6.42001 13.37 6.00001 12.03 6.00001C10.68 6.00001 9.57 6.42001 8.71 7.30001C7.84 8.17001 7.41 9.37001 7.41 10.88C7.41 13.26 8.5 15.26 10.61 16.87V19H4.85V16.87H8.41C6.04 15.32 4.85 13.23 4.85 10.6C4.85 8.50001 5.5 6.86001 6.81 5.66001C8.12 4.45001 9.84 3.85001 11.97 3.85001C14.15 3.85001 15.89 4.45001 17.19 5.64001C18.5 6.83001 19.15 8.50001 19.15 10.58C19.15 13.21 17.95 15.31 15.55 16.87H19.15V19Z" fill="black"/>
</svg>
